# Blender v2.83.4 OBJ File: 'decos.blend'
# www.blender.org
o Cube.003_Cube.051
v -9.031792 21.294935 -1.606207
v -8.766056 21.294935 -2.119318
v -9.889054 28.183174 -5.655055
v -10.199616 28.497940 -5.283069
v -8.252944 21.294935 -1.853583
v -8.518682 21.294935 -1.340471
v -9.731328 28.812706 -5.158457
v -9.420768 28.497940 -5.530443
v -13.189748 35.419792 -16.047197
v -9.033718 19.088333 -1.899145
v -8.660694 18.679741 -1.732393
v -10.832178 24.902281 3.077002
v -11.085782 25.191454 2.645764
v -8.288924 19.088333 -1.562865
v -8.661948 19.496925 -1.729615
v -10.594598 25.480627 2.550810
v -10.340992 25.191454 2.982046
v -13.561780 29.061722 9.122511
v -8.472948 13.374494 -2.217406
v -8.162458 13.374494 -1.730072
v -4.540572 20.262732 -0.927243
v -4.706498 20.577497 -1.382533
v -8.649790 13.374494 -1.419584
v -8.960282 13.374494 -1.906918
v -5.049270 20.892263 -1.039999
v -4.883342 20.577497 -0.584709
v 6.104772 27.499338 1.432409
v -8.311084 13.374488 20.642282
v -5.112524 20.577486 22.799217
v -5.124970 20.262720 23.283642
v -8.200762 13.374488 21.209494
v -8.767974 13.374488 21.319815
v -5.569412 20.577486 23.476751
v -5.556968 20.892252 22.992327
v -8.878296 13.374488 20.752602
v 3.915316 27.499323 29.379910
v -8.840372 13.374488 20.935421
v -11.718332 20.577488 18.366287
v -11.640576 20.262722 17.887981
v -8.873078 13.374491 20.358507
v -8.296166 13.374491 20.325802
v -11.174126 20.577488 17.756664
v -11.251878 20.892254 18.234970
v -8.263458 13.374488 20.902716
v -19.774727 27.499332 10.626655
v 13.961822 13.374503 -15.338914
v 13.429822 20.577496 -11.517902
v 12.989204 20.262730 -11.316217
v 13.500784 13.374503 -14.990568
v 13.152440 13.374503 -15.451604
v 12.620438 20.577496 -11.630590
v 13.061056 20.892262 -11.832278
v 13.613476 13.374503 -15.799954
v 11.485580 27.499334 -0.516656
v 13.516758 13.374505 -15.691790
v 15.648554 20.577501 -18.907150
v 16.133062 20.262735 -18.898500
v 14.083088 13.374505 -15.806550
v 14.197848 13.374505 -15.240224
v 16.329647 20.577501 -18.455585
v 15.845140 20.892267 -18.464231
v 13.631518 13.374505 -15.125460
v 22.158298 27.499342 -27.986286
v 13.053022 13.374505 -15.358150
v 10.844132 20.577501 -18.521046
v 11.029954 20.262735 -18.968586
v 13.154064 13.374505 -15.927088
v 13.723002 13.374505 -15.826048
v 11.514110 20.577501 -18.988945
v 11.328288 20.892267 -18.541405
v 13.621962 13.374505 -15.257106
v 4.786828 27.499342 -27.908091
v 13.932232 13.374490 9.201486
v 17.277149 20.577490 11.123640
v 17.299454 20.262724 11.607709
v 14.082922 13.374490 9.759332
v 13.525074 13.374490 9.910022
v 16.869993 20.577490 11.832176
v 16.847691 20.892256 11.348105
v 13.374384 13.374490 9.352172
v 26.753403 27.499334 17.040403
v 13.438536 13.374495 9.482320
v 11.253522 20.577490 6.302883
v 11.442710 20.262724 5.856755
v 13.543862 13.374495 8.914160
v 14.112018 13.374495 9.019482
v 11.927004 20.577496 5.840041
v 11.737820 20.892256 6.286171
v 14.006696 13.374495 9.587644
v 5.267072 27.499332 -3.129499
v 13.574576 13.374495 10.037169
v 9.815164 20.577490 10.903175
v 9.469570 20.262724 10.563487
v 13.084690 13.374495 9.730721
v 13.391136 13.374495 9.240836
v 9.631722 20.577490 10.106840
v 9.977316 20.892256 10.446526
v 13.881026 13.374495 9.547282
v -1.155892 27.499327 13.011121
v -7.470734 -8.452434 -1.750881
v -8.576354 55.102474 -1.828905
v -8.576354 -8.452438 -0.645259
v -8.576354 -8.452434 -2.856503
v -9.681976 -8.452434 -1.750881
v -7.386762 -8.452450 20.903734
v -8.492382 55.102467 20.825710
v -8.492382 -8.452452 22.009350
v -8.492382 -8.452447 19.798107
v -9.598002 -8.452450 20.903734
v 14.133128 -8.452438 -14.393729
v 13.717400 55.102486 -15.421162
v 12.654138 -8.452439 -14.901047
v 14.640450 -8.452435 -15.872723
v 13.161454 -8.452435 -16.380043
v 14.872918 -8.452448 9.396023
v 13.764546 55.102478 9.397432
v 13.849376 -8.452448 10.578035
v 13.690900 -8.452447 8.372481
v 12.667362 -8.452448 9.554499
vt 0.179688 0.898438
vt 0.179688 0.898438
vt 0.179688 0.898438
vt 0.179688 0.898438
vt 0.179688 0.898438
vt 0.179688 0.898438
vt 0.179688 0.898438
vt 0.179688 0.898438
vt 0.179688 0.898438
vt 0.179688 0.898438
vt 0.179688 0.898438
vt 0.179688 0.898438
vt 0.179688 0.898438
vt 0.179688 0.898438
vt 0.179688 0.898438
vt 0.179688 0.898438
vt 0.179688 0.898438
vt 0.179688 0.898438
vt 0.179688 0.898438
vt 0.179688 0.898438
vt 0.179688 0.898438
vt 0.179688 0.898438
vt 0.179688 0.898438
vt 0.179688 0.898438
vt 0.179688 0.898438
vt 0.179688 0.898438
vt 0.179688 0.898438
vt 0.179688 0.898438
vt 0.179688 0.898438
vt 0.179688 0.898438
vt 0.179688 0.898438
vt 0.179688 0.898438
vt 0.179688 0.898438
vt 0.179688 0.898438
vt 0.179688 0.898438
vt 0.179688 0.898438
vt 0.179688 0.898438
vt 0.179688 0.898438
vt 0.179688 0.898438
vt 0.179688 0.898438
vt 0.179688 0.898438
vt 0.179688 0.898438
vt 0.179688 0.898438
vt 0.179688 0.898438
vt 0.179688 0.898438
vt 0.179688 0.898438
vt 0.179688 0.898438
vt 0.179688 0.898438
vt 0.179688 0.898438
vt 0.179688 0.898438
vt 0.179688 0.898438
vt 0.179688 0.898438
vt 0.179688 0.898438
vt 0.179688 0.898438
vt 0.179688 0.898438
vt 0.179688 0.898438
vt 0.179688 0.898438
vt 0.179688 0.898438
vt 0.179688 0.898438
vt 0.179688 0.898438
vt 0.179688 0.898438
vt 0.179688 0.898438
vt 0.179688 0.898438
vt 0.179688 0.898438
vt 0.179688 0.898438
vt 0.179688 0.898438
vt 0.179688 0.898438
vt 0.179688 0.898438
vt 0.179688 0.898438
vt 0.179688 0.898438
vt 0.179688 0.898438
vt 0.179688 0.898438
vt 0.179688 0.898438
vt 0.179688 0.898438
vt 0.179688 0.898438
vt 0.179688 0.898438
vt 0.179688 0.898438
vt 0.179688 0.898438
vt 0.179688 0.898438
vt 0.179688 0.898438
vt 0.179688 0.898438
vt 0.179688 0.898438
vt 0.179688 0.898438
vt 0.179688 0.898438
vt 0.179688 0.898438
vt 0.179688 0.898438
vt 0.179688 0.898438
vt 0.179688 0.898438
vt 0.179688 0.898438
vt 0.179688 0.898438
vt 0.179688 0.898438
vt 0.179688 0.898438
vt 0.179688 0.898438
vt 0.179688 0.898438
vt 0.179688 0.898438
vt 0.179688 0.898438
vt 0.179688 0.898438
vt 0.179688 0.898438
vt 0.179688 0.898438
vt 0.179688 0.898438
vt 0.179688 0.898438
vt 0.179688 0.898438
vt 0.179688 0.898438
vt 0.179688 0.898438
vt 0.179688 0.898438
vt 0.179688 0.898438
vt 0.179688 0.898438
vt 0.179688 0.898438
vt 0.179688 0.898438
vt 0.179688 0.898438
vt 0.179688 0.898438
vt 0.179688 0.898438
vt 0.179688 0.898438
vt 0.179688 0.898438
vt 0.179688 0.898438
vt 0.179688 0.898438
vt 0.179688 0.898438
vt 0.179688 0.898438
vt 0.179688 0.898438
vn 0.8369 0.3510 0.4200
vn -0.8371 -0.3496 -0.4207
vn 0.4409 -0.3496 -0.8267
vn -0.4411 0.3510 0.8259
vn 0.7907 0.5908 0.1603
vn -0.7771 -0.6164 -0.1272
vn 0.5613 -0.6164 -0.5523
vn -0.5534 0.5908 0.5872
vn -0.8213 -0.4957 0.2823
vn 0.8226 0.4863 -0.2946
vn -0.3231 0.4863 -0.8119
vn 0.3314 -0.4957 0.8028
vn -0.7928 -0.6066 0.0594
vn 0.7599 0.6499 -0.0111
vn -0.4942 0.6499 -0.5773
vn 0.4797 -0.6066 0.6340
vn -0.7833 0.3510 0.5131
vn 0.7840 -0.3496 -0.5130
vn 0.4938 -0.3496 0.7962
vn -0.4931 0.3510 -0.7960
vn -0.5354 0.5908 0.6036
vn 0.5000 -0.6164 -0.6084
vn 0.1961 -0.6164 0.7626
vn -0.2302 0.5908 -0.7733
vn 0.9168 -0.3510 -0.1904
vn -0.9174 0.3496 0.1900
vn -0.1677 0.3496 -0.9218
vn 0.1671 -0.3510 0.9213
vn 0.7193 -0.5908 -0.3654
vn -0.6881 0.6164 0.3828
vn 0.0970 0.6164 -0.7814
vn -0.0691 -0.5908 0.8038
vn -0.9341 -0.3511 0.0648
vn 0.9347 0.3496 -0.0644
vn 0.0417 0.3496 0.9360
vn -0.0412 -0.3510 -0.9355
vn -0.7621 -0.5908 0.2649
vn 0.7335 0.6164 -0.2864
vn -0.2017 0.6164 0.7612
vn 0.1771 -0.5908 -0.7871
vn 0.5739 -0.3511 0.7399
vn -0.5738 0.3496 -0.7406
vn 0.7543 0.3496 -0.5557
vn -0.7542 -0.3511 0.5550
vn 0.6443 -0.5908 0.4856
vn -0.6463 0.6164 -0.4499
vn 0.7446 0.6164 -0.2562
vn -0.7525 -0.5908 0.2911
vn -0.1976 -0.3510 -0.9153
vn 0.1972 0.3496 0.9159
vn -0.9204 0.3496 0.1749
vn 0.9200 -0.3510 -0.1743
vn -0.3710 -0.5908 -0.7164
vn 0.3882 0.6164 0.6851
vn -0.7822 0.6164 -0.0909
vn 0.8044 -0.5908 0.0628
vn -0.9239 -0.3510 -0.1520
vn 0.9244 0.3496 0.1526
vn -0.1750 0.3496 0.9204
vn 0.1754 -0.3510 -0.9198
vn -0.8026 -0.5908 0.0823
vn 0.7798 0.6164 -0.1098
vn -0.3715 0.6164 0.6943
vn 0.3536 -0.5908 -0.7252
vn 0.9008 -0.3510 -0.2556
vn -0.9015 0.3496 0.2553
vn -0.2333 0.3496 -0.9074
vn 0.2327 -0.3511 0.9070
vn 0.6913 -0.5908 -0.4160
vn -0.6589 0.6164 0.4312
vn 0.0408 0.6164 -0.7864
vn -0.0114 -0.5908 0.8067
vn -0.9228 -0.3511 -0.1590
vn 0.9232 0.3496 0.1596
vn -0.1819 0.3496 0.9191
vn 0.1823 -0.3510 -0.9184
vn -0.8032 -0.5908 0.0762
vn 0.7806 0.6164 -0.1039
vn -0.3768 0.6164 0.6915
vn 0.3591 -0.5908 -0.7225
vn -0.4865 -0.3510 0.8001
vn 0.4872 0.3496 -0.8003
vn 0.7882 0.3496 0.5065
vn -0.7875 -0.3510 -0.5066
vn -0.2238 -0.5908 0.7752
vn 0.1898 0.6164 -0.7642
vn 0.5050 0.6164 0.6042
vn -0.5404 -0.5908 -0.5991
vn 0.7070 0.0132 0.7070
vn 0.7071 0.0114 -0.7071
vn -0.7071 0.0114 -0.7071
vn -0.7070 0.0132 0.7070
vn -0.3244 0.0132 0.9458
vn 0.9458 0.0114 0.3244
vn 0.3244 0.0114 -0.9458
vn -0.9458 0.0132 -0.3244
vn 0.7559 0.0132 0.6546
vn 0.6546 0.0114 -0.7559
vn -0.7559 0.0114 -0.6546
vn -0.6546 0.0132 0.7559
s off
f 1/1/1 2/2/1 3/3/1 4/4/1
f 5/5/2 6/6/2 7/7/2 8/8/2
f 6/6/3 1/1/3 4/4/3 7/7/3
f 2/2/4 5/5/4 8/8/4 3/3/4
f 4/4/5 3/3/5 9/9/5
f 8/8/6 7/7/6 9/9/6
f 7/7/7 4/4/7 9/9/7
f 3/3/8 8/8/8 9/9/8
f 10/10/9 11/11/9 12/12/9 13/13/9
f 14/14/10 15/15/10 16/16/10 17/17/10
f 15/15/11 10/10/11 13/13/11 16/16/11
f 11/11/12 14/14/12 17/17/12 12/12/12
f 13/13/13 12/12/13 18/18/13
f 17/17/14 16/16/14 18/18/14
f 16/16/15 13/13/15 18/18/15
f 12/12/16 17/17/16 18/18/16
f 19/19/17 20/20/17 21/21/17 22/22/17
f 23/23/18 24/24/18 25/25/18 26/26/18
f 24/24/19 19/19/19 22/22/19 25/25/19
f 20/20/20 23/23/20 26/26/20 21/21/20
f 22/22/21 21/21/21 27/27/21
f 26/26/22 25/25/22 27/27/22
f 25/25/23 22/22/23 27/27/23
f 21/21/24 26/26/24 27/27/24
f 28/28/25 29/29/25 30/30/25 31/31/25
f 32/32/26 33/33/26 34/34/26 35/35/26
f 35/35/27 34/34/27 29/29/27 28/28/27
f 31/31/28 30/30/28 33/33/28 32/32/28
f 29/29/29 36/36/29 30/30/29
f 33/33/30 36/36/30 34/34/30
f 34/34/31 36/36/31 29/29/31
f 30/30/32 36/36/32 33/33/32
f 37/37/33 38/38/33 39/39/33 40/40/33
f 41/41/34 42/42/34 43/43/34 44/44/34
f 44/44/35 43/43/35 38/38/35 37/37/35
f 40/40/36 39/39/36 42/42/36 41/41/36
f 38/38/37 45/45/37 39/39/37
f 42/42/38 45/45/38 43/43/38
f 43/43/39 45/45/39 38/38/39
f 39/39/40 45/45/40 42/42/40
f 46/46/41 47/47/41 48/48/41 49/49/41
f 50/50/42 51/51/42 52/52/42 53/53/42
f 53/53/43 52/52/43 47/47/43 46/46/43
f 49/49/44 48/48/44 51/51/44 50/50/44
f 47/47/45 54/54/45 48/48/45
f 51/51/46 54/54/46 52/52/46
f 52/52/47 54/54/47 47/47/47
f 48/48/48 54/54/48 51/51/48
f 55/55/49 56/56/49 57/57/49 58/58/49
f 59/59/50 60/60/50 61/61/50 62/62/50
f 62/62/51 61/61/51 56/56/51 55/55/51
f 58/58/52 57/57/52 60/60/52 59/59/52
f 56/56/53 63/63/53 57/57/53
f 60/60/54 63/63/54 61/61/54
f 61/61/55 63/63/55 56/56/55
f 57/57/56 63/63/56 60/60/56
f 64/64/57 65/65/57 66/66/57 67/67/57
f 68/68/58 69/69/58 70/70/58 71/71/58
f 71/71/59 70/70/59 65/65/59 64/64/59
f 67/67/60 66/66/60 69/69/60 68/68/60
f 65/65/61 72/72/61 66/66/61
f 69/69/62 72/72/62 70/70/62
f 70/70/63 72/72/63 65/65/63
f 66/66/64 72/72/64 69/69/64
f 73/73/65 74/74/65 75/75/65 76/76/65
f 77/77/66 78/78/66 79/79/66 80/80/66
f 80/80/67 79/79/67 74/74/67 73/73/67
f 76/76/68 75/75/68 78/78/68 77/77/68
f 74/74/69 81/81/69 75/75/69
f 78/78/70 81/81/70 79/79/70
f 79/79/71 81/81/71 74/74/71
f 75/75/72 81/81/72 78/78/72
f 82/82/73 83/83/73 84/84/73 85/85/73
f 86/86/74 87/87/74 88/88/74 89/89/74
f 89/89/75 88/88/75 83/83/75 82/82/75
f 85/85/76 84/84/76 87/87/76 86/86/76
f 83/83/77 90/90/77 84/84/77
f 87/87/78 90/90/78 88/88/78
f 88/88/79 90/90/79 83/83/79
f 84/84/80 90/90/80 87/87/80
f 91/91/81 92/92/81 93/93/81 94/94/81
f 95/95/82 96/96/82 97/97/82 98/98/82
f 98/98/83 97/97/83 92/92/83 91/91/83
f 94/94/84 93/93/84 96/96/84 95/95/84
f 92/92/85 99/99/85 93/93/85
f 96/96/86 99/99/86 97/97/86
f 97/97/87 99/99/87 92/92/87
f 93/93/88 99/99/88 96/96/88
s 1
f 100/100/89 101/101/89 102/102/89
f 100/100/90 103/103/90 101/101/90
f 104/104/91 101/101/91 103/103/91
f 104/104/92 102/102/92 101/101/92
f 105/105/89 106/106/89 107/107/89
f 105/105/90 108/108/90 106/106/90
f 109/109/91 106/106/91 108/108/91
f 109/109/92 107/107/92 106/106/92
f 110/110/93 111/111/93 112/112/93
f 110/110/94 113/113/94 111/111/94
f 114/114/95 111/111/95 113/113/95
f 114/114/96 112/112/96 111/111/96
f 115/115/97 116/116/97 117/117/97
f 115/115/98 118/118/98 116/116/98
f 119/119/99 116/116/99 118/118/99
f 119/119/100 117/117/100 116/116/100
