# Blender v2.83.4 OBJ File: 'decos.blend'
# www.blender.org
o Cube.003_Cube.056
v -13.279518 21.294935 -5.414509
v -13.013780 21.294945 -5.927621
v -14.136780 28.183182 -9.463355
v -14.447342 28.497948 -9.091370
v -12.500670 21.294935 -5.661885
v -12.766408 21.294935 -5.148773
v -13.979054 28.812714 -8.966760
v -13.668494 28.497948 -9.338743
v -17.437473 35.419796 -19.855497
v -13.281442 19.088333 -5.707447
v -12.908418 18.679741 -5.540697
v -15.079902 24.902281 -0.731300
v -15.333508 25.191454 -1.162538
v -12.536650 19.088333 -5.371167
v -12.909674 19.496925 -5.537917
v -14.842324 25.480627 -1.257492
v -14.588718 25.191454 -0.826256
v -17.809505 29.061728 5.314207
v -12.809094 13.374499 -5.626798
v -8.788298 20.262732 -4.735545
v -8.954224 20.577497 -5.190835
v -9.296996 20.892263 -4.848299
v -9.131068 20.577497 -4.393011
v 1.857046 27.499338 -2.375893
v -0.337024 13.374490 11.753234
v 3.089980 20.577488 13.571404
v 3.077534 20.262722 14.055823
v 2.633092 20.577488 14.248938
v 2.645536 20.892254 13.764514
v 12.117822 27.499323 20.152096
v -0.365764 13.374490 11.402796
v -3.515828 20.577490 9.138474
v -3.438072 20.262724 8.660165
v -2.971622 20.577490 8.528852
v -3.049374 20.892256 9.007155
v -11.572222 27.499336 1.398843
v 14.289498 13.374501 -6.313911
v 14.162188 20.577492 -2.436553
v 13.721570 20.262726 -2.234865
v 13.352806 20.577492 -2.549241
v 13.793422 20.892258 -2.750931
v 12.217946 27.499329 8.564692
v 14.589670 13.374501 -6.384660
v 16.380920 20.577499 -9.825802
v 16.865429 20.262733 -9.817155
v 17.062016 20.577499 -9.374236
v 16.577509 20.892265 -9.382882
v 22.890665 27.499348 -18.904938
v 14.120378 13.374501 -6.510752
v 11.576498 20.577499 -9.439696
v 11.762320 20.262733 -9.887243
v 12.246478 20.577499 -9.907597
v 12.060654 20.892265 -9.460056
v 5.519194 27.499348 -18.826742
v -11.718460 -8.452429 -5.559189
v -12.824080 55.102474 -5.637201
v -12.824080 -8.452437 -4.453568
v -12.824080 -8.452429 -6.664812
v -13.929700 -8.452429 -5.559189
v 0.815742 -8.452448 11.675921
v -0.289878 55.102478 11.597897
v -0.289878 -8.452450 12.781537
v -0.289878 -8.452448 10.570295
v -1.395498 -8.452448 11.675921
v 14.865494 -8.452439 -5.312387
v 14.449766 55.102474 -6.339809
v 13.386506 -8.452443 -5.819707
v 15.372818 -8.452439 -6.791383
v 13.893820 -8.452439 -7.298699
vt 0.179688 0.898438
vt 0.179688 0.898438
vt 0.179688 0.898438
vt 0.179688 0.898438
vt 0.179688 0.898438
vt 0.179688 0.898438
vt 0.179688 0.898438
vt 0.179688 0.898438
vt 0.179688 0.898438
vt 0.179688 0.898438
vt 0.179688 0.898438
vt 0.179688 0.898438
vt 0.179688 0.898438
vt 0.179688 0.898438
vt 0.179688 0.898438
vt 0.179688 0.898438
vt 0.179688 0.898438
vt 0.179688 0.898438
vt 0.179688 0.898438
vt 0.179688 0.898438
vt 0.179688 0.898438
vt 0.179688 0.898438
vt 0.179688 0.898438
vt 0.179688 0.898438
vt 0.179688 0.898438
vt 0.179688 0.898438
vt 0.179688 0.898438
vt 0.179688 0.898438
vt 0.179688 0.898438
vt 0.179688 0.898438
vt 0.179688 0.898438
vt 0.179688 0.898438
vt 0.179688 0.898438
vt 0.179688 0.898438
vt 0.179688 0.898438
vt 0.179688 0.898438
vt 0.179688 0.898438
vt 0.179688 0.898438
vt 0.179688 0.898438
vt 0.179688 0.898438
vt 0.179688 0.898438
vt 0.179688 0.898438
vt 0.179688 0.898438
vt 0.179688 0.898438
vt 0.179688 0.898438
vt 0.179688 0.898438
vt 0.179688 0.898438
vt 0.179688 0.898438
vt 0.179688 0.898438
vt 0.179688 0.898438
vt 0.179688 0.898438
vt 0.179688 0.898438
vt 0.179688 0.898438
vt 0.179688 0.898438
vt 0.179688 0.898438
vt 0.179688 0.898438
vt 0.179688 0.898438
vt 0.179688 0.898438
vt 0.179688 0.898438
vt 0.179688 0.898438
vt 0.179688 0.898438
vt 0.179688 0.898438
vt 0.179688 0.898438
vt 0.179688 0.898438
vt 0.179688 0.898438
vt 0.179688 0.898438
vt 0.179688 0.898438
vt 0.179688 0.898438
vt 0.179688 0.898438
vn 0.8369 0.3511 0.4200
vn -0.8371 -0.3496 -0.4207
vn 0.4409 -0.3496 -0.8267
vn -0.4411 0.3510 0.8259
vn 0.7907 0.5908 0.1603
vn -0.7771 -0.6164 -0.1272
vn 0.5613 -0.6164 -0.5523
vn -0.5534 0.5908 0.5872
vn -0.8213 -0.4957 0.2823
vn 0.8226 0.4863 -0.2946
vn -0.3231 0.4863 -0.8119
vn 0.3314 -0.4957 0.8028
vn -0.7928 -0.6066 0.0594
vn 0.7599 0.6499 -0.0111
vn -0.4942 0.6499 -0.5773
vn 0.4797 -0.6066 0.6340
vn -0.7582 0.3734 0.5345
vn 0.7975 -0.3196 -0.5116
vn 0.5067 -0.3196 0.8007
vn -0.4613 0.3734 -0.8048
vn -0.5354 0.5908 0.6036
vn 0.5000 -0.6164 -0.6084
vn 0.1961 -0.6164 0.7626
vn -0.2302 0.5908 -0.7733
vn 0.9013 -0.3734 -0.2195
vn -0.9296 0.3196 0.1838
vn -0.1780 0.3196 -0.9307
vn 0.1344 -0.3734 0.9179
vn 0.7193 -0.5908 -0.3654
vn -0.6881 0.6164 0.3828
vn 0.0970 0.6164 -0.7814
vn -0.0691 -0.5908 0.8038
vn -0.9227 -0.3734 0.0957
vn 0.9459 0.3196 -0.0566
vn 0.0507 0.3196 0.9462
vn -0.0092 -0.3734 -0.9276
vn -0.7621 -0.5908 0.2649
vn 0.7335 0.6164 -0.2864
vn -0.2017 0.6164 0.7612
vn 0.1771 -0.5908 -0.7871
vn 0.5932 -0.3734 0.7132
vn -0.5736 0.3196 -0.7542
vn 0.7578 0.3196 -0.5689
vn -0.7655 -0.3734 0.5240
vn 0.6443 -0.5908 0.4856
vn -0.6463 0.6164 -0.4499
vn 0.7446 0.6164 -0.2562
vn -0.7525 -0.5908 0.2911
vn -0.2265 -0.3734 -0.8996
vn 0.1911 0.3196 0.9281
vn -0.9293 0.3196 0.1853
vn 0.9168 -0.3734 -0.1415
vn -0.3710 -0.5908 -0.7164
vn 0.3882 0.6164 0.6851
vn -0.7822 0.6164 -0.0909
vn 0.8044 -0.5908 0.0628
vn -0.9200 -0.3734 -0.1193
vn 0.9335 0.3196 0.1628
vn -0.1686 0.3196 0.9324
vn 0.2047 -0.3734 -0.9048
vn -0.8026 -0.5908 0.0823
vn 0.7797 0.6164 -0.1098
vn -0.3715 0.6164 0.6943
vn 0.3536 -0.5908 -0.7252
vn 0.7070 0.0132 0.7070
vn 0.7071 0.0114 -0.7071
vn -0.7071 0.0114 -0.7071
vn -0.7070 0.0132 0.7070
vn -0.3244 0.0132 0.9458
vn 0.9458 0.0114 0.3244
vn 0.3244 0.0114 -0.9458
vn -0.9458 0.0132 -0.3244
s off
f 1/1/1 2/2/1 3/3/1 4/4/1
f 5/5/2 6/6/2 7/7/2 8/8/2
f 6/6/3 1/1/3 4/4/3 7/7/3
f 2/2/4 5/5/4 8/8/4 3/3/4
f 4/4/5 3/3/5 9/9/5
f 8/8/6 7/7/6 9/9/6
f 7/7/7 4/4/7 9/9/7
f 3/3/8 8/8/8 9/9/8
f 10/10/9 11/11/9 12/12/9 13/13/9
f 14/14/10 15/15/10 16/16/10 17/17/10
f 15/15/11 10/10/11 13/13/11 16/16/11
f 11/11/12 14/14/12 17/17/12 12/12/12
f 13/13/13 12/12/13 18/18/13
f 17/17/14 16/16/14 18/18/14
f 16/16/15 13/13/15 18/18/15
f 12/12/16 17/17/16 18/18/16
f 19/19/17 20/20/17 21/21/17
f 19/19/18 22/22/18 23/23/18
f 19/19/19 21/21/19 22/22/19
f 19/19/20 23/23/20 20/20/20
f 21/21/21 20/20/21 24/24/21
f 23/23/22 22/22/22 24/24/22
f 22/22/23 21/21/23 24/24/23
f 20/20/24 23/23/24 24/24/24
f 25/25/25 26/26/25 27/27/25
f 25/25/26 28/28/26 29/29/26
f 25/25/27 29/29/27 26/26/27
f 25/25/28 27/27/28 28/28/28
f 26/26/29 30/30/29 27/27/29
f 28/28/30 30/30/30 29/29/30
f 29/29/31 30/30/31 26/26/31
f 27/27/32 30/30/32 28/28/32
f 31/31/33 32/32/33 33/33/33
f 31/31/34 34/34/34 35/35/34
f 31/31/35 35/35/35 32/32/35
f 31/31/36 33/33/36 34/34/36
f 32/32/37 36/36/37 33/33/37
f 34/34/38 36/36/38 35/35/38
f 35/35/39 36/36/39 32/32/39
f 33/33/40 36/36/40 34/34/40
f 37/37/41 38/38/41 39/39/41
f 37/37/42 40/40/42 41/41/42
f 37/37/43 41/41/43 38/38/43
f 37/37/44 39/39/44 40/40/44
f 38/38/45 42/42/45 39/39/45
f 40/40/46 42/42/46 41/41/46
f 41/41/47 42/42/47 38/38/47
f 39/39/48 42/42/48 40/40/48
f 43/43/49 44/44/49 45/45/49
f 43/43/50 46/46/50 47/47/50
f 43/43/51 47/47/51 44/44/51
f 43/43/52 45/45/52 46/46/52
f 44/44/53 48/48/53 45/45/53
f 46/46/54 48/48/54 47/47/54
f 47/47/55 48/48/55 44/44/55
f 45/45/56 48/48/56 46/46/56
f 49/49/57 50/50/57 51/51/57
f 49/49/58 52/52/58 53/53/58
f 49/49/59 53/53/59 50/50/59
f 49/49/60 51/51/60 52/52/60
f 50/50/61 54/54/61 51/51/61
f 52/52/62 54/54/62 53/53/62
f 53/53/63 54/54/63 50/50/63
f 51/51/64 54/54/64 52/52/64
s 1
f 55/55/65 56/56/65 57/57/65
f 55/55/66 58/58/66 56/56/66
f 59/59/67 56/56/67 58/58/67
f 59/59/68 57/57/68 56/56/68
f 60/60/65 61/61/65 62/62/65
f 60/60/66 63/63/66 61/61/66
f 64/64/67 61/61/67 63/63/67
f 64/64/68 62/62/68 61/61/68
f 65/65/69 66/66/69 67/67/69
f 65/65/70 68/68/70 66/66/70
f 69/69/71 66/66/71 68/68/71
f 69/69/72 67/67/72 66/66/72
