# Blender v2.91.0 Beta OBJ File: 'stadium.blend'
# www.blender.org
o Sphere_Sphere.001
v 1.997599 -2.008673 2.986145
v 0.041695 -3.620001 2.991554
v -0.530765 -1.215003 4.341957
v -4.156400 -0.214181 2.652257
v 3.023808 0.253013 3.733709
v 2.748237 3.974914 2.309228
v 0.853377 0.823360 4.221521
v 3.463337 -2.521550 2.288590
v -1.707834 -2.690743 2.834452
v 4.024539 1.050815 2.425630
v -3.353335 2.918886 2.626377
v -2.139955 -4.396364 -1.432922
v -0.290783 1.005370 4.880225
v 0.776812 -2.243758 3.592932
v -3.605002 -2.521550 2.288590
v -0.070832 1.930047 -5.371206
v 3.451728 4.087272 -1.060193
v 3.244029 -3.872702 -0.792175
v -3.657421 4.042904 -1.030100
v 5.641624 -0.574565 0.260317
v -2.072898 0.145769 3.647158
v -5.783288 -0.574567 0.260316
v -3.815030 0.663690 -3.442076
v 0.547231 4.015339 -0.000000
v 3.673365 0.663692 -3.442076
v -0.651177 4.143576 0.226576
v -0.505988 4.014266 -0.422492
v 0.168918 4.187671 0.552274
v 0.167938 4.189220 -0.552777
v -0.068962 4.014035 -0.597494
v -0.070832 4.815631 -0.390314
v -0.627576 3.995262 0.204550
v -0.070832 4.013945 -0.597214
v -0.072702 4.014035 -0.597494
v 0.664998 5.634596 -0.129246
v 0.478117 4.049778 0.281914
v -0.505988 4.014266 -0.422492
vt 0.117188 0.882812
vt 0.117187 0.882812
vt 0.117188 0.882813
vt 0.101562 0.898438
vt 0.101562 0.898438
vt 0.101562 0.898438
vt 0.117187 0.882812
vt 0.117188 0.882812
vt 0.101563 0.898438
vt 0.101562 0.898438
vt 0.101562 0.898438
vt 0.117188 0.882812
vt 0.117188 0.882812
vt 0.117188 0.882812
vt 0.117188 0.882812
vt 0.117188 0.882812
vt 0.117188 0.882812
vt 0.117188 0.882812
vt 0.117188 0.882812
vt 0.101562 0.898438
vt 0.101562 0.898438
vt 0.117188 0.882812
vt 0.117188 0.882812
vt 0.117188 0.882813
vt 0.117188 0.882812
vt 0.117188 0.882813
vt 0.117188 0.882812
vt 0.117188 0.882812
vt 0.117188 0.882812
vt 0.117188 0.882813
vt 0.117188 0.882812
vt 0.117188 0.882812
vt 0.101563 0.898438
vt 0.117188 0.882812
vt 0.117188 0.882812
vt 0.117188 0.882812
vt 0.117188 0.882812
vt 0.117188 0.882812
vt 0.148438 0.882812
vt 0.148438 0.882812
vt 0.148437 0.882812
vt 0.148438 0.882812
vt 0.148438 0.882812
vt 0.148438 0.882812
vt 0.148438 0.882812
vt 0.101562 0.898438
vt 0.101562 0.898438
vt 0.101562 0.898438
vt 0.101562 0.898438
vt 0.101562 0.898438
vt 0.148438 0.882812
vn 0.3217 -0.3626 0.8747
vn 0.2732 -0.4307 0.8601
vn -0.0101 -0.7568 0.6536
vn 0.4215 0.7716 0.4765
vn 0.4187 0.0198 0.9079
vn 0.4969 -0.0439 0.8667
vn -0.3100 -0.3708 0.8755
vn -0.5583 -0.5857 0.5876
vn -0.2559 -0.3242 0.9107
vn -0.0291 0.1578 0.9870
vn 0.5809 -0.5621 0.5887
vn -0.6955 0.0099 0.7184
vn -0.3769 0.9197 0.1099
vn -0.3058 -0.8745 -0.3764
vn 0.8222 0.2148 0.5271
vn 0.4880 -0.8246 -0.2860
vn -0.5963 0.5824 0.5524
vn -0.5690 0.8071 -0.1576
vn -0.9928 -0.1121 0.0425
vn -0.6733 -0.0137 -0.7392
vn 0.0885 0.9941 0.0627
vn 0.5570 0.8017 -0.2168
vn 0.0078 0.2435 -0.9699
vn 0.6550 -0.0291 -0.7551
vn 0.0038 0.9976 -0.0697
vn 0.9931 -0.1059 0.0498
vn -0.1256 0.9669 0.2220
vn -0.0769 0.9701 0.2303
vn -0.1387 0.2715 -0.9524
vn 0.4526 0.8917 -0.0009
vn 0.6959 -0.1101 -0.7096
vn -0.5472 0.5861 -0.5976
vn -0.0000 0.2499 -0.9683
vn 0.1552 0.2469 -0.9565
vn -0.1552 0.2469 -0.9565
vn -0.6949 0.5471 0.4667
vn -0.7445 0.4250 -0.5148
vn -0.3614 0.2325 -0.9029
vn 0.7578 0.0787 0.6477
s 1
f 1/1/1 14/2/2 2/3/3
f 6/4/4 7/5/5 5/6/6
f 9/7/7 15/8/8 2/3/3
f 14/9/2 3/10/9 9/11/7
f 7/12/5 6/13/4 13/14/10
f 14/2/2 13/14/10 3/15/9
f 1/1/1 2/3/3 8/16/11
f 4/17/12 13/14/10 21/18/13
f 1/1/1 13/14/10 14/2/2
f 13/14/10 9/7/7 3/15/9
f 12/19/14 2/3/3 15/8/8
f 5/6/6 8/20/11 10/21/15
f 6/13/4 5/22/6 10/23/15
f 18/24/16 2/3/3 12/19/14
f 18/24/16 8/16/11 2/3/3
f 4/17/12 9/7/7 13/14/10
f 11/25/17 4/17/12 21/18/13
f 19/26/18 11/25/17 6/13/4
f 12/19/14 22/27/19 23/28/20
f 24/29/21 6/13/4 17/30/22
f 16/31/23 17/30/22 25/32/24
f 2/3/3 14/2/2 9/7/7
f 1/33/1 8/20/11 5/6/6
f 16/31/23 25/32/24 18/24/16
f 27/34/25 17/30/22 19/26/18
f 1/1/1 7/12/5 13/14/10
f 8/16/11 20/35/26 10/23/15
f 25/32/24 17/30/22 20/35/26
f 17/30/22 6/13/4 10/23/15
f 11/25/17 13/14/10 6/13/4
f 26/36/27 6/13/4 28/37/28
f 24/29/21 17/30/22 29/38/29
f 17/30/22 10/23/15 20/35/26
f 35/39/30 30/40/31 31/41/32
f 31/41/33 33/42/33 34/43/34
f 31/41/33 30/40/35 33/42/33
f 31/41/32 32/44/36 35/39/30
f 37/45/37 31/41/32 30/40/38
f 9/11/7 4/46/12 15/47/8
f 23/28/20 22/27/19 19/26/18
f 19/26/18 22/27/19 4/17/12
f 15/8/8 4/17/12 22/27/19
f 19/26/18 4/17/12 11/25/17
f 24/29/21 28/37/28 6/13/4
f 26/36/27 27/34/25 19/26/18
f 21/48/13 13/49/10 11/50/17
f 8/16/11 18/24/16 20/35/26
f 27/34/25 29/38/29 17/30/22
f 16/31/23 23/28/20 19/26/18
f 16/31/23 12/19/14 23/28/20
f 22/27/19 12/19/14 15/8/8
f 5/22/6 7/12/5 1/1/1
f 19/26/18 17/30/22 16/31/23
f 26/36/27 19/26/18 6/13/4
f 18/24/16 25/32/24 20/35/26
f 12/19/14 16/31/23 18/24/16
f 36/51/39 30/40/31 35/39/30
f 32/44/36 36/51/39 35/39/30
f 31/41/32 37/45/37 32/44/36
l 34 37
