# Blender v2.83.4 OBJ File: 'decos.blend'
# www.blender.org
o Cube.003_Cube.049
v -0.221388 -7.624481 18.379652
v 1.800084 5.534011 17.481504
v 2.260262 6.202676 15.600843
v 0.734462 -7.624480 13.668853
v 4.257406 5.534012 15.853183
v 5.445262 -7.624480 14.624703
v 4.489412 -7.624481 19.335503
v 3.801174 4.865345 17.731237
v 8.586342 18.210268 21.465549
v -0.932086 18.684456 10.223083
v 8.761314 -7.624476 -1.043529
v 10.600452 5.534016 0.185531
v 12.436106 6.202680 -0.430117
v 13.254228 -7.624475 -2.752041
v 13.289678 5.534016 1.392977
v 14.962738 -7.624476 1.740873
v 10.469826 -7.624476 3.449385
v 11.458334 4.865349 2.010567
v 10.857794 18.210276 8.050625
v 15.276844 18.684467 -6.001615
v 0.221044 -7.624472 -11.879597
v 2.003312 5.534020 -10.569427
v 3.864688 6.202684 -11.102269
v 4.785948 -7.624472 -13.385235
v 4.635780 5.534019 -9.242787
v 6.291584 -7.624473 -8.820331
v 1.726682 -7.624473 -7.314695
v 2.778622 4.865354 -8.707811
v 1.908252 18.210278 -2.700697
v 6.952032 18.684465 -16.540989
v 3.256316 -27.414053 -10.349973
v 11.862028 -27.414047 0.348666
v 2.611936 -27.414053 16.502174
v -12.630456 -7.624478 3.949435
v -10.567646 5.534014 3.150793
v -10.016432 6.202678 1.294771
v -11.446340 -7.624478 -0.709229
v -8.033944 5.534014 1.644065
v -6.787674 -7.624478 0.474885
v -7.971790 -7.624479 5.133553
v -8.581090 4.865347 3.497675
v -3.983446 18.210272 7.460575
v -12.943114 18.684458 -4.232065
v -9.709066 -27.414051 2.212156
vt 0.179688 0.898438
vt 0.179688 0.898438
vt 0.179688 0.898438
vt 0.179688 0.898438
vt 0.179688 0.898438
vt 0.179688 0.898438
vt 0.179688 0.898438
vt 0.179688 0.898438
vt 0.179688 0.898438
vt 0.179688 0.898438
vt 0.179688 0.898438
vt 0.179688 0.898438
vt 0.179688 0.898438
vt 0.179688 0.898438
vt 0.179688 0.898438
vt 0.179688 0.898438
vt 0.179688 0.898438
vt 0.179688 0.898438
vt 0.179688 0.898438
vt 0.179688 0.898438
vt 0.179688 0.898438
vt 0.179688 0.898438
vt 0.179688 0.898438
vt 0.179688 0.898438
vt 0.179688 0.898438
vt 0.179688 0.898438
vt 0.179688 0.898438
vt 0.179688 0.898438
vt 0.179688 0.898438
vt 0.179688 0.898438
vt 0.179688 0.898438
vt 0.179688 0.898438
vt 0.179688 0.898438
vt 0.179688 0.898438
vt 0.179688 0.898438
vt 0.179688 0.898438
vt 0.179688 0.898438
vt 0.179688 0.898438
vt 0.179688 0.898438
vt 0.179688 0.898438
vt 0.179688 0.898438
vt 0.179688 0.898438
vt 0.179688 0.898438
vt 0.179688 0.898438
vn -0.9714 0.1352 -0.1950
vn 0.1869 0.1120 -0.9760
vn -0.1658 0.1043 0.9806
vn 0.9279 -0.3599 0.0973
vn 0.2260 0.3288 -0.9170
vn -0.1874 -0.2018 0.9613
vn -0.8642 -0.3686 -0.3425
vn 0.8030 0.4724 0.3633
vn -0.0179 -0.3995 -0.9166
vn 0.0557 0.4913 0.8692
vn -0.8751 0.4820 -0.0428
vn 0.9735 0.0744 0.2162
vn -0.3541 0.1352 -0.9254
vn 0.9249 0.1120 -0.3633
vn -0.9175 0.1043 0.3837
vn 0.4135 -0.3599 0.8364
vn 0.8959 0.3288 -0.2988
vn -0.9128 -0.2018 0.3551
vn -0.1721 -0.3686 -0.9135
vn 0.1219 0.4724 0.8729
vn 0.7652 -0.3995 -0.5048
vn -0.7050 0.4913 0.5114
vn -0.4313 0.4820 -0.7627
vn 0.3373 0.0744 0.9385
vn -0.3123 0.1352 -0.9403
vn 0.9402 0.1120 -0.3216
vn -0.9338 0.1043 0.3423
vn 0.3756 -0.3599 0.8540
vn 0.9083 0.3288 -0.2584
vn -0.9278 -0.2018 0.3139
vn -0.1310 -0.3686 -0.9203
vn 0.0827 0.4724 0.8775
vn 0.7871 -0.3995 -0.4700
vn -0.7272 0.4913 0.4793
vn -0.3968 0.4820 -0.7812
vn 0.2949 0.0744 0.9526
vn 0.8930 -0.0000 0.4500
vn -0.4500 -0.0000 0.8930
vn -0.4501 -0.0000 0.8930
vn 0.9123 -0.0000 0.4096
vn -0.4096 -0.0000 0.9123
vn 0.0623 -0.0000 0.9981
vn 0.8336 -0.0000 -0.5524
vn 0.5524 -0.0000 0.8336
vn 0.9832 -0.0000 0.1823
vn -0.8930 -0.0000 -0.4500
vn 0.4500 -0.0000 -0.8930
vn -0.9123 -0.0000 -0.4096
vn 0.4096 -0.0000 -0.9123
vn -0.8336 -0.0000 0.5524
vn -0.5524 -0.0000 -0.8336
vn -0.9608 0.1352 -0.2421
vn 0.2342 0.1120 -0.9657
vn -0.2133 0.1043 0.9714
vn 0.9221 -0.3599 0.1423
vn 0.2703 0.3288 -0.9049
vn -0.2340 -0.2018 0.9511
vn -0.8465 -0.3686 -0.3842
vn 0.7844 0.4724 0.4020
vn 0.0267 -0.3995 -0.9163
vn 0.0133 0.4913 0.8709
vn -0.8720 0.4820 -0.0853
vn 0.9618 0.0744 0.2633
vn 0.8595 -0.0000 -0.5111
vn 0.5111 -0.0000 0.8595
vn 0.9732 -0.0000 0.2300
vn -0.8595 -0.0000 0.5111
vn -0.5111 -0.0000 -0.8595
s 1
f 1/1/1 2/2/1 3/3/1 4/4/1
f 4/4/2 3/3/2 5/5/2 6/6/2
f 7/7/3 8/8/3 2/2/3 1/1/3
f 5/5/4 9/9/4 8/8/4
f 3/3/5 9/9/5 5/5/5
f 8/8/6 9/9/6 2/2/6
f 3/3/7 2/2/7 10/10/7
f 8/8/8 5/5/8 10/10/8
f 5/5/9 3/3/9 10/10/9
f 2/2/10 8/8/10 10/10/10
f 2/2/11 9/9/11 3/3/11
f 6/6/12 5/5/12 8/8/12 7/7/12
f 11/11/13 12/12/13 13/13/13 14/14/13
f 14/14/14 13/13/14 15/15/14 16/16/14
f 17/17/15 18/18/15 12/12/15 11/11/15
f 15/15/16 19/19/16 18/18/16
f 13/13/17 19/19/17 15/15/17
f 18/18/18 19/19/18 12/12/18
f 13/13/19 12/12/19 20/20/19
f 18/18/20 15/15/20 20/20/20
f 15/15/21 13/13/21 20/20/21
f 12/12/22 18/18/22 20/20/22
f 12/12/23 19/19/23 13/13/23
f 16/16/24 15/15/24 18/18/24 17/17/24
f 21/21/25 22/22/25 23/23/25 24/24/25
f 24/24/26 23/23/26 25/25/26 26/26/26
f 27/27/27 28/28/27 22/22/27 21/21/27
f 25/25/28 29/29/28 28/28/28
f 23/23/29 29/29/29 25/25/29
f 28/28/30 29/29/30 22/22/30
f 23/23/31 22/22/31 30/30/31
f 28/28/32 25/25/32 30/30/32
f 25/25/33 23/23/33 30/30/33
f 22/22/34 28/28/34 30/30/34
f 22/22/35 29/29/35 23/23/35
f 26/26/36 25/25/36 28/28/36 27/27/36
f 26/26/37 27/27/38 31/31/39
f 16/16/40 17/17/41 32/32/42
f 6/6/43 7/7/44 33/33/45
f 21/21/46 24/24/47 31/31/39
f 27/27/38 21/21/46 31/31/39
f 11/11/48 14/14/49 32/32/42
f 17/17/41 11/11/48 32/32/42
f 1/1/50 4/4/51 33/33/45
f 24/24/47 26/26/37 31/31/39
f 7/7/44 1/1/50 33/33/45
f 14/14/49 16/16/40 32/32/42
f 4/4/51 6/6/43 33/33/45
f 34/34/52 35/35/52 36/36/52 37/37/52
f 37/37/53 36/36/53 38/38/53 39/39/53
f 40/40/54 41/41/54 35/35/54 34/34/54
f 38/38/55 42/42/55 41/41/55
f 36/36/56 42/42/56 38/38/56
f 41/41/57 42/42/57 35/35/57
f 36/36/58 35/35/58 43/43/58
f 41/41/59 38/38/59 43/43/59
f 38/38/60 36/36/60 43/43/60
f 35/35/61 41/41/61 43/43/61
f 35/35/62 42/42/62 36/36/62
f 39/39/63 38/38/63 41/41/63 40/40/63
f 39/39/64 40/40/65 44/44/66
f 34/34/67 37/37/68 44/44/66
f 40/40/65 34/34/67 44/44/66
f 37/37/68 39/39/64 44/44/66
