# Blender v2.91.0 Beta OBJ File: 'HOUSE.blend'
# www.blender.org
o tree.002_tree.003_tree.002_tree.037
v -7.484407 0.469832 -16.392473
v 10.218788 0.469815 13.930093
v 10.218788 0.469832 -16.392473
v -7.484407 0.469815 13.930093
v -8.378057 -0.522168 -17.933254
v 11.112438 -0.522168 -17.933254
v 11.112438 -0.522186 15.470874
v -8.378057 -0.522186 15.470874
vt 0.907715 0.173340
vt 0.907715 0.106934
vt 0.974251 0.057985
vt 0.752441 0.057985
vt 0.974251 0.222142
vt 0.752441 0.222142
vt 0.818848 0.173340
vt 0.818848 0.106934
vt 0.752441 0.222142
vt 0.752441 0.057985
vt 0.974251 0.222142
vt 0.974251 0.057985
vn 0.7430 0.6693 0.0000
vn 0.0000 1.0000 0.0000
vn -0.7430 0.6693 0.0000
vn 0.0000 0.8408 0.5413
vn 0.0000 0.8408 -0.5413
vn 0.0000 -1.0000 -0.0000
s 1
f 6/1/1 2/2/1 7/3/1
f 4/4/2 3/5/2 1/6/2
f 1/7/3 8/8/3 4/4/3
f 8/8/4 2/2/4 4/4/4
f 6/1/5 1/7/5 3/5/5
f 8/8/4 7/3/4 2/2/4
f 6/1/5 5/9/5 1/7/5
f 8/10/6 6/11/6 7/3/6
f 6/1/1 3/5/1 2/2/1
f 4/4/2 2/12/2 3/5/2
f 1/7/3 5/9/3 8/8/3
f 8/10/6 5/9/6 6/11/6
