# Blender v2.91.0 Beta OBJ File: 'farmhouse.blend'
# www.blender.org
o Detail_Cube.007_Detail_Cube.015
v -0.245959 -0.548174 0.090775
v 5.782821 -0.521068 0.090775
v 5.782821 0.904728 0.090775
v -0.245959 0.903793 0.090775
v -6.275828 -0.548174 0.090775
v -6.275828 0.905201 0.090775
v -0.245959 -0.548174 0.132525
v 5.782821 -0.521068 0.132525
v 5.782821 0.904728 0.132525
v -0.245959 0.903793 0.132525
v -6.275828 -0.548174 0.132525
v -6.275828 0.905201 0.132525
vt 0.823730 0.363770
vt 0.927246 0.434082
vt 0.823730 0.434082
vt 0.927246 0.363770
vt 0.823730 0.434082
vt 0.823730 0.363770
vt 0.823730 0.363770
vt 0.927246 0.434082
vt 0.927246 0.363770
vt 0.823730 0.434082
vt 0.927246 0.363770
vt 0.823730 0.363770
vt 0.927246 0.363770
vt 0.927246 0.434082
vt 0.823730 0.434082
vt 0.927246 0.434082
vn 0.0000 0.0000 -1.0000
vn 0.0000 0.0000 1.0000
s off
f 2/1/1 4/2/1 3/3/1
f 5/4/1 4/5/1 1/6/1
f 8/7/2 10/8/2 7/9/2
f 10/10/2 11/11/2 7/12/2
f 2/1/1 1/13/1 4/2/1
f 5/4/1 6/14/1 4/5/1
f 8/7/2 9/15/2 10/8/2
f 10/10/2 12/16/2 11/11/2
