# Blender v2.91.0 Beta OBJ File: 'HOUSE02.blend'
# www.blender.org
o tree.002_tree.008_tree.002_tree.010
v -8.030696 1.499008 -4.393331
v -12.505265 1.499004 -0.327990
v -8.030698 1.499004 -0.327990
v 8.078977 0.885643 3.705199
v 8.317419 0.889576 3.940791
v -0.000517 0.885652 3.941625
v -12.505263 0.885640 3.941721
v -12.505265 0.885645 -0.327990
v -12.505263 1.498999 3.941721
v -12.504108 0.887466 -4.641774
v 0.000029 1.499919 -4.597601
v 0.000029 0.886561 -4.597602
v 8.300993 1.502894 -0.327989
v 8.310462 0.889535 -0.327989
v -12.506411 1.500806 -4.630174
v 8.064138 1.499007 -0.327989
v 8.031076 4.435445 3.704740
v 8.068316 1.499002 3.705097
v -0.000514 1.499001 3.704738
v 8.304159 1.502892 3.943287
v -8.047786 4.437344 3.711722
v -11.894753 1.498999 3.704833
v -8.030696 1.498999 3.704833
v -0.000517 1.499010 3.941625
v 8.068316 1.499012 -4.361073
v 8.304159 1.502901 -4.599266
v 8.317419 0.889585 -4.596769
v 8.031076 4.435452 -4.360713
v 8.031076 4.435447 -0.327986
v -7.242729 4.437152 3.711024
v -7.227349 1.499000 3.704824
v -0.000512 1.499010 -4.360715
v -8.030696 4.435449 -4.372859
v -0.000514 4.435451 -4.360713
v 8.615545 8.179643 4.390334
v -8.170371 8.305800 4.102556
v -8.439209 8.179744 4.406975
v -8.439593 9.675777 -0.316255
v -8.171115 8.247561 -4.736083
v -8.439979 8.119608 -5.039429
v 8.616745 9.322951 -0.330821
v 8.617945 8.119472 -5.055925
v 8.616745 9.675656 -0.332965
v -8.439597 9.323070 -0.314253
v -8.439881 7.894015 -4.935216
v -8.439310 7.952958 4.306711
v 8.615446 7.952855 4.290069
v 8.349058 8.247429 -4.751514
v 8.347896 9.646692 -0.332422
v 7.986949 4.023487 -0.322495
v 7.954204 8.139677 3.671603
v 7.991087 4.023484 3.671956
v -0.000446 4.023483 3.671600
v -7.953705 8.139677 -0.322493
v -7.953703 4.023479 3.671694
v -7.970629 8.141574 3.678518
v 7.954204 8.139684 -4.316587
v 7.954204 8.139680 -0.322491
v -0.000446 8.139674 3.671603
v -7.953705 4.023484 -0.322496
v -7.953703 8.139680 -4.328617
v -7.953703 4.023487 -4.348893
v 8.346732 8.305702 4.086987
v -11.894753 4.435449 -4.372859
v -12.392243 4.435445 -0.327986
v -12.392241 1.498999 3.704833
v -12.409331 4.437344 3.711722
v -12.392243 1.499004 -0.327990
v -12.392241 4.435449 -4.372859
v -12.392241 1.499008 -4.393331
v -11.894753 1.499008 -4.393331
v -11.911842 4.437344 3.711722
v -12.392243 5.474965 -0.327986
v -0.000514 4.435442 3.704740
v -8.170745 9.646809 -0.316788
v 7.991087 4.023490 -4.316945
v 17.408653 0.536733 17.917738
v -18.426821 0.536745 -17.917738
v -18.426821 0.536733 17.917738
v 17.408653 0.536745 -17.917738
v 8.618044 7.893880 -4.951714
v -4.976793 4.437344 3.711722
v -4.959702 4.435449 -4.372859
v -4.959705 5.474965 -0.327986
vt 0.127441 0.071777
vt 0.064941 0.073730
vt 0.128418 0.075684
vt 0.000488 -0.000488
vt 0.000488 -0.000488
vt 0.000488 -0.000488
vt 0.014160 0.072754
vt 0.235840 0.069824
vt 0.235840 0.072754
vt 0.011230 0.076660
vt 0.073730 0.066895
vt 0.011230 0.066895
vt 0.006348 0.075684
vt 0.131348 0.065918
vt 0.006348 0.065918
vt 0.009277 0.066895
vt 0.071777 0.076660
vt 0.071777 0.066895
vt 0.247559 0.066895
vt 0.123535 0.076660
vt 0.123535 0.066895
vt 0.240723 0.791504
vt 0.004395 0.855957
vt 0.004395 0.792480
vt 0.247559 0.145996
vt 0.007324 0.193848
vt 0.006348 0.145996
vt 0.131348 0.066895
vt 0.006348 0.076660
vt 0.006348 0.065918
vt 0.000488 0.068848
vt 0.012207 0.023926
vt 0.000488 0.023926
vt 0.247559 0.076660
vt 0.247559 0.076660
vt 0.006348 0.075684
vt 0.131348 0.076660
vt 0.011230 0.076660
vt 0.073730 0.076660
vt 0.073730 0.076660
vt 0.009277 0.076660
vt 0.009277 0.076660
vt 0.009277 0.076660
vt 0.071777 0.076660
vt 0.089355 0.068848
vt 0.030762 0.023926
vt 0.089355 0.023926
vt 0.071777 0.023926
vt 0.009277 0.067871
vt 0.009277 0.023926
vt 0.007324 0.131348
vt 0.123535 0.086426
vt 0.006348 0.085449
vt 0.007324 0.068848
vt 0.123535 0.023926
vt 0.006348 0.022949
vt 0.011230 0.076660
vt 0.123535 0.076660
vt 0.123535 0.076660
vt 0.234863 0.076660
vt 0.006348 0.076660
vt 0.131348 0.076660
vt 0.131348 0.076660
vt 0.049316 0.068848
vt 0.160645 0.023926
vt 0.049316 0.023926
vt 0.126465 0.069824
vt 0.062012 0.073730
vt 0.058105 0.069824
vt 0.191895 0.073730
vt 0.190918 0.069824
vt 0.014160 0.071777
vt 0.230957 0.073730
vt 0.235840 0.071777
vt 0.190918 0.073730
vt 0.194824 0.069824
vt 0.014160 0.069824
vt 0.019043 0.073730
vt 0.070801 0.023926
vt 0.009277 0.069824
vt 0.009277 0.023926
vt 0.009277 0.067871
vt 0.071777 0.067871
vt 0.127441 0.020996
vt 0.007324 0.068848
vt 0.006348 0.020996
vt 0.070801 0.069824
vt 0.009277 0.023926
vt 0.009277 0.069824
vt 0.071777 0.023926
vt 0.009277 0.067871
vt 0.009277 0.023926
vt 0.070801 0.069824
vt 0.009277 0.023926
vt 0.009277 0.069824
vt 0.247559 0.068848
vt 0.127441 0.068848
vt 0.123535 0.073730
vt 0.186035 0.069824
vt 0.191895 0.073730
vt 0.059082 0.069824
vt 0.123535 0.069824
vt 0.998535 0.249512
vt 0.751465 0.000488
vt 0.998535 0.000488
vt 0.009277 0.066895
vt 0.070801 0.023926
vt 0.009277 0.069824
vt 0.009277 0.023926
vt 0.247559 0.065918
vt 0.123535 0.065918
vt 0.014160 0.023926
vt 0.001465 0.068848
vt 0.014160 0.068848
vt 0.070801 0.069824
vt 0.127441 0.071777
vt 0.191895 0.073730
vt 0.128418 0.075684
vt 0.123535 0.131348
vt 0.247559 0.086426
vt 0.064941 0.073730
vt 0.240650 0.791504
vt 0.004322 0.854980
vt 0.004322 0.791504
vt 0.011230 0.076660
vt 0.011230 0.066895
vt 0.123535 0.076660
vt 0.131348 0.076660
vt 0.009277 0.076660
vt 0.247559 0.076660
vt 0.247559 0.076660
vt 0.126465 0.073730
vt 0.055176 0.073730
vt 0.012207 0.023926
vt 0.000488 0.068848
vt 0.000488 0.023926
vt 0.009277 0.067871
vt 0.071777 0.067871
vt 0.030762 0.023926
vt 0.089355 0.068848
vt 0.089355 0.023926
vt 0.009277 0.069824
vt 0.070801 0.069824
vt 0.009277 0.069824
vt 0.065918 0.070801
vt 0.014160 0.069824
vt 0.240723 0.855957
vt 0.247559 0.193848
vt 0.012207 0.068848
vt 0.030762 0.068848
vt 0.123535 0.068848
vt 0.160645 0.068848
vt 0.019043 0.073730
vt 0.235840 0.069824
vt 0.230957 0.073730
vt 0.009277 0.023926
vt 0.247559 0.020996
vt 0.751465 0.249512
vt 0.001465 0.023926
vt 0.190918 0.069824
vt 0.247559 0.131348
vt 0.065918 0.070801
vt 0.240650 0.854980
vt 0.012207 0.068848
vt 0.009277 0.023926
vt 0.030762 0.068848
vn -1.0000 0.0000 0.0001
vn 0.0005 -0.9999 0.0162
vn -0.0000 -1.0000 0.0001
vn 0.0009 -0.4044 0.9146
vn -1.0000 0.0000 0.0000
vn -1.0000 0.0001 0.0009
vn -0.0037 -0.0028 1.0000
vn 0.0014 -0.0064 1.0000
vn 0.0006 -0.0100 0.9999
vn 0.9998 0.0181 0.0094
vn 1.0000 0.0085 -0.0009
vn 0.9999 0.0080 0.0064
vn 0.0299 0.0034 -0.9995
vn -0.0003 -0.0144 -0.9999
vn 0.0100 -0.0142 -0.9998
vn -0.0687 0.9601 0.2712
vn 0.0003 0.9347 0.3553
vn 0.0002 0.9753 0.2211
vn 0.0126 0.0024 -0.9999
vn 0.0015 -0.0067 -1.0000
vn 0.0012 -0.0069 -1.0000
vn -0.0061 -0.0037 -1.0000
vn 0.0005 -0.0097 -1.0000
vn 0.0006 -0.0099 -1.0000
vn -0.0003 -0.0046 1.0000
vn 0.0004 -0.0041 1.0000
vn 0.0000 -0.0023 1.0000
vn 0.0001 1.0000 0.0066
vn 0.0039 1.0000 0.0066
vn 0.0010 1.0000 0.0066
vn -0.0008 0.9997 -0.0234
vn -0.0043 0.9999 -0.0156
vn -0.0007 0.9997 -0.0236
vn 0.0000 1.0000 0.0000
vn -0.0013 1.0000 -0.0006
vn -0.0014 1.0000 -0.0015
vn -0.0165 0.9999 -0.0000
vn -0.0164 0.9999 0.0000
vn -0.0017 -0.0039 1.0000
vn 1.0000 0.0084 -0.0007
vn 1.0000 0.0091 -0.0016
vn 1.0000 0.0094 -0.0014
vn -0.0000 0.0001 1.0000
vn 0.0010 0.0002 1.0000
vn 0.0011 0.0002 1.0000
vn 0.0002 1.0000 -0.0016
vn 0.0028 1.0000 0.0026
vn -0.0027 1.0000 0.0027
vn 0.0039 1.0000 -0.0000
vn 0.0045 1.0000 0.0076
vn -0.0025 1.0000 0.0012
vn 0.0028 1.0000 0.0011
vn 0.0004 -0.0010 1.0000
vn 0.0000 -0.0000 1.0000
vn -0.0013 0.0016 1.0000
vn -0.0882 0.8852 -0.4568
vn -0.1151 0.9595 -0.2571
vn -0.1128 0.9607 -0.2538
vn -1.0000 -0.0004 0.0002
vn -0.0004 0.9216 -0.3881
vn -0.0004 0.9219 -0.3875
vn -0.1232 0.9615 0.2455
vn -0.0958 0.8886 0.4485
vn -0.1210 0.9627 0.2420
vn -0.0009 -0.4194 -0.9078
vn 0.0004 0.9238 0.3829
vn -1.0000 0.0018 -0.0032
vn 1.0000 0.0086 0.0006
vn 1.0000 0.0071 0.0000
vn 1.0000 0.0073 -0.0005
vn -0.0020 0.0007 -1.0000
vn -0.0000 0.0001 -1.0000
vn -1.0000 -0.0026 -0.0027
vn -0.9999 -0.0072 -0.0086
vn -0.9998 -0.0145 -0.0105
vn 0.9999 0.0119 -0.0007
vn 0.9999 0.0130 -0.0017
vn 0.9999 0.0133 -0.0015
vn -1.0000 -0.0009 -0.0026
vn -1.0000 -0.0048 -0.0087
vn -0.9999 -0.0128 -0.0105
vn 0.0029 0.0034 -1.0000
vn 0.0007 -0.0004 -1.0000
vn -0.0028 -0.0056 -1.0000
vn 0.0951 0.8888 0.4483
vn 0.1241 0.9614 0.2455
vn 0.1220 0.9626 0.2420
vn -0.2492 0.9063 -0.3413
vn -0.1026 0.9644 -0.2439
vn -0.2588 0.9019 -0.3458
vn 0.9998 0.0175 0.0040
vn 0.9999 0.0135 -0.0067
vn 0.9999 0.0080 -0.0064
vn -1.0000 0.0022 -0.0029
vn 0.0012 0.0017 1.0000
vn -0.0013 0.0012 1.0000
vn 0.0005 -0.0021 1.0000
vn -0.0002 -0.0030 1.0000
vn 0.0004 -0.0018 1.0000
vn -1.0000 0.0000 -0.0042
vn -0.9999 0.0007 -0.0113
vn 1.0000 0.0000 0.0003
vn -0.0013 0.0017 1.0000
vn 0.0682 0.9567 -0.2829
vn -0.0003 0.9306 -0.3660
vn -0.0002 0.9724 -0.2333
vn -1.0000 -0.0032 -0.0020
vn -1.0000 -0.0084 -0.0010
vn -1.0000 -0.0092 -0.0011
vn -0.0004 1.0000 0.0046
vn -0.0028 1.0000 0.0010
vn 0.0027 1.0000 0.0012
vn 0.0058 1.0000 -0.0049
vn 0.0028 1.0000 0.0027
vn -0.0026 1.0000 0.0029
vn -0.0039 1.0000 0.0001
vn 0.0039 1.0000 -0.0002
vn 0.0001 1.0000 0.0039
vn -0.0006 0.9998 0.0217
vn -0.0005 0.9998 0.0220
vn -0.0041 0.9999 0.0158
vn 0.2479 0.9067 -0.3413
vn 0.2575 0.9023 -0.3459
vn 0.1011 0.9645 -0.2440
vn 0.1029 0.9674 0.2315
vn 0.2620 0.9050 0.3351
vn 0.2517 0.9097 0.3304
vn -0.2504 0.9100 0.3305
vn -0.2607 0.9054 0.3352
vn -0.1014 0.9675 0.2316
vn 0.0889 0.8850 -0.4570
vn 0.1118 0.9608 -0.2539
vn 0.1141 0.9596 -0.2572
vn 0.0034 0.0135 -0.9999
vn 0.0038 0.0071 -1.0000
vn -0.0070 0.0092 -0.9999
vn 0.9999 0.0118 0.0005
vn 0.9999 0.0107 0.0001
vn 0.9999 0.0107 -0.0004
vn 0.0064 0.0105 -0.9999
vn 0.0036 0.0063 -1.0000
vn -0.0073 0.0080 -0.9999
vn 0.0000 0.9686 0.2488
vn -0.0042 0.9700 0.2433
vn 0.0000 0.9685 -0.2489
vn -1.0000 0.0004 0.0002
vn -1.0000 0.0016 -0.0008
vn -1.0000 0.0006 0.0006
vn -0.0037 0.0020 1.0000
vn -0.0020 0.0033 1.0000
vn 0.0018 -0.0018 1.0000
vn 0.9996 0.0298 -0.0005
vn 0.9995 0.0308 -0.0005
vn 0.9998 0.0208 -0.0066
vn 0.0009 0.0455 -0.9990
vn 0.0007 0.0474 -0.9989
vn -0.0122 0.0183 -0.9998
vn 0.0003 0.9753 0.2211
vn 0.0664 0.9493 0.3073
vn 0.0031 0.0154 -0.9999
vn 0.0029 0.0119 -0.9999
vn -0.0059 0.0033 -1.0000
vn -0.0047 -0.0042 -1.0000
vn 0.0045 -0.0025 -1.0000
vn -0.0058 -0.0007 -1.0000
vn -0.0022 -0.0029 1.0000
vn 0.0008 -0.0045 1.0000
vn 0.0018 -0.0028 1.0000
vn 0.0004 1.0000 0.0004
vn 0.0022 1.0000 0.0017
vn -0.0009 1.0000 0.0009
vn -0.0023 -0.0025 1.0000
vn 1.0000 0.0078 0.0006
vn 1.0000 0.0074 0.0004
vn 1.0000 0.0085 -0.0003
vn 0.0008 0.0007 1.0000
vn 0.0009 0.0006 1.0000
vn -0.0013 1.0000 0.0012
vn -0.0010 1.0000 -0.0013
vn 0.0002 -0.0029 1.0000
vn 0.0013 -0.0031 1.0000
vn 0.0009 -0.0021 1.0000
vn -0.0003 0.9214 -0.3887
vn -0.0004 0.9215 -0.3884
vn -0.0001 0.9216 -0.3882
vn 0.0004 0.9236 0.3835
vn -1.0000 0.0036 -0.0006
vn 1.0000 0.0099 0.0010
vn 1.0000 0.0097 0.0016
vn 1.0000 0.0083 0.0005
vn -0.0017 -0.0011 -1.0000
vn 0.0022 -0.0032 -1.0000
vn 0.0000 0.0000 -1.0000
vn -1.0000 0.0015 0.0033
vn -1.0000 0.0046 0.0054
vn -1.0000 -0.0038 -0.0025
vn 0.9999 0.0109 0.0008
vn 0.9999 0.0106 0.0005
vn 0.9999 0.0120 -0.0003
vn -1.0000 0.0010 0.0034
vn -1.0000 -0.0037 -0.0026
vn 0.0015 0.0096 -1.0000
vn 0.0079 0.0174 -0.9998
vn 0.0032 0.0073 -1.0000
vn 0.9997 0.0251 0.0042
vn 0.9995 0.0307 0.0005
vn 0.9998 0.0208 -0.0061
vn -1.0000 0.0036 -0.0005
vn 0.0021 0.0004 1.0000
vn 0.0013 -0.0026 1.0000
vn 0.0013 -0.0025 1.0000
vn 0.0014 -0.0030 1.0000
vn 1.0000 0.0005 0.0001
vn 0.0002 -0.0025 1.0000
vn 0.0021 -0.0049 1.0000
vn 0.0009 -0.0017 1.0000
vn 1.0000 -0.0005 0.0001
vn -0.0003 0.9724 -0.2333
vn -0.0658 0.9456 -0.3186
vn -1.0000 0.0018 0.0005
vn -1.0000 -0.0014 0.0047
vn 0.0003 0.0143 -0.9999
vn 0.0012 0.0106 -0.9999
vn 0.0034 0.0053 -1.0000
vn 0.9999 0.0134 0.0009
vn 0.9999 0.0132 0.0014
vn 0.9999 0.0122 0.0007
vn 0.0015 0.0142 -0.9999
vn 0.0004 0.0107 -0.9999
vn 0.0019 0.0038 -1.0000
vn 0.0041 0.9700 0.2432
vn -0.0070 0.9689 0.2474
s off
f 44/1/1 37/2/1 38/3/1
f 4/4/2 5/5/2 6/6/3
f 37/7/4 47/8/4 35/9/4
f 9/10/5 8/11/6 7/12/5
f 20/13/7 6/14/8 5/15/9
f 27/16/10 13/17/11 14/18/12
f 10/19/13 11/20/14 12/21/15
f 63/22/16 75/23/17 36/24/18
f 62/25/19 57/26/20 76/27/21
f 12/28/22 26/29/23 27/30/24
f 72/31/25 66/32/26 22/33/27
f 1/34/28 11/20/29 15/35/30
f 18/36/31 24/37/32 20/13/33
f 1/38/34 2/39/35 3/40/36
f 25/41/37 13/17/37 26/42/37
f 18/43/38 13/17/38 16/44/38
f 21/45/39 22/46/27 23/47/27
f 50/48/40 51/49/41 52/50/42
f 51/51/43 53/52/44 52/53/43
f 17/54/43 19/55/45 18/56/43
f 23/57/34 2/39/46 9/10/34
f 24/58/47 19/59/48 31/60/49
f 25/61/50 11/62/51 32/63/52
f 74/64/53 31/65/54 19/66/55
f 38/67/56 39/68/57 40/69/58
f 44/1/59 40/70/59 45/71/59
f 40/72/60 48/73/61 42/74/61
f 36/75/62 38/67/63 37/76/64
f 42/74/65 45/77/65 40/72/65
f 35/9/66 36/78/66 37/7/66
f 68/79/67 69/80/5 70/81/5
f 50/48/68 57/82/69 58/83/70
f 32/84/71 28/85/72 25/86/72
f 65/87/73 66/88/74 67/89/75
f 16/90/76 17/91/77 18/92/78
f 54/93/79 55/94/80 56/95/81
f 32/84/82 33/96/83 34/97/84
f 43/98/85 63/99/86 35/100/87
f 43/98/88 48/101/89 49/102/90
f 80/103/34 79/104/34 77/105/34
f 13/17/91 5/106/92 14/18/93
f 60/107/94 61/108/5 62/109/5
f 24/58/95 7/110/54 6/111/96
f 30/112/97 23/113/98 31/114/99
f 69/80/5 65/87/5 73/115/5
f 65/87/100 67/89/101 73/115/100
f 41/116/102 42/117/102 43/118/102
f 59/119/53 55/120/54 53/52/103
f 35/121/102 41/116/102 43/118/102
f 39/122/104 49/123/105 48/124/106
f 8/11/107 15/125/108 10/126/109
f 1/34/110 32/127/111 11/20/112
f 18/36/113 19/128/114 24/37/115
f 25/41/38 16/44/38 13/17/38
f 18/43/37 20/129/37 13/17/37
f 31/60/116 23/130/34 9/131/34
f 9/131/34 24/58/117 31/60/118
f 25/61/119 26/29/120 11/62/121
f 38/67/122 75/132/123 39/68/124
f 36/75/125 75/132/126 38/67/127
f 43/98/128 49/102/129 63/99/130
f 43/98/131 42/133/132 48/101/133
f 70/134/134 64/135/135 71/136/136
f 16/90/137 28/137/138 29/138/139
f 71/139/140 33/140/141 1/141/142
f 73/115/143 82/142/144 84/143/143
f 69/80/145 84/143/145 83/144/145
f 44/1/146 46/145/146 37/2/146
f 37/7/4 46/146/4 47/8/4
f 9/10/5 2/39/147 8/11/148
f 20/13/149 24/37/150 6/14/151
f 27/16/152 26/42/153 13/17/154
f 10/19/155 15/35/156 11/20/157
f 63/22/158 49/147/17 75/23/159
f 62/25/160 61/148/161 57/26/162
f 12/28/163 11/62/164 26/29/165
f 72/31/166 67/149/167 66/32/168
f 1/38/169 15/125/170 2/39/171
f 21/45/172 72/150/167 22/46/27
f 50/48/173 58/83/174 51/49/175
f 51/51/54 59/119/54 53/52/176
f 17/54/54 74/151/54 19/55/177
f 23/57/34 3/40/178 2/39/179
f 74/64/180 30/152/181 31/65/182
f 44/1/1 38/3/1 40/70/1
f 40/72/183 39/153/184 48/73/185
f 42/74/65 81/154/65 45/77/65
f 35/9/186 63/155/186 36/78/186
f 68/79/187 65/87/5 69/80/5
f 50/48/188 76/156/189 57/82/190
f 32/84/191 34/97/192 28/85/193
f 65/87/194 68/79/195 66/88/196
f 16/90/197 29/138/198 17/91/199
f 54/93/200 60/107/195 55/94/201
f 32/84/202 1/157/203 33/96/204
f 80/103/34 78/158/34 79/104/34
f 13/17/205 20/129/206 5/106/207
f 60/107/208 54/93/5 61/108/5
f 24/58/209 9/131/54 7/110/54
f 30/112/210 21/159/211 23/113/212
f 41/116/213 81/160/213 42/117/213
f 59/119/214 56/161/215 55/120/216
f 35/121/217 47/162/217 41/116/217
f 39/122/218 75/163/105 49/123/219
f 8/11/220 2/39/220 15/125/221
f 70/134/222 69/164/223 64/135/224
f 16/90/225 25/165/226 28/137/227
f 71/139/228 64/166/229 33/140/230
f 73/115/143 67/89/231 82/142/232
f 69/80/145 73/115/145 84/143/145
