# Blender v2.91.0 Beta OBJ File: 'HOUSE02.blend'
# www.blender.org
o tree.002_tree.007_tree.002_tree.039
v -7.362625 2.099105 -16.321613
v -7.366211 0.628418 -8.827046
v -7.362625 0.628419 -16.321613
v -7.402100 2.099105 -16.321632
v -7.405693 0.628418 -8.827065
v -7.405693 2.099105 -8.827066
v -7.362625 2.099102 -8.827027
v -7.366211 0.628416 -1.332461
v -7.362625 0.628416 -8.827027
v -7.402100 2.099102 -8.827046
v -7.405693 0.628416 -1.332480
v -7.405693 2.099103 -1.332481
v -7.362625 2.099099 -1.332442
v -7.366211 0.628414 6.162124
v -7.362625 0.628413 -1.332442
v -7.402100 2.099099 -1.332461
v -7.405693 0.628414 6.162105
v -7.405693 2.099101 6.162105
v -7.362625 2.099097 6.162144
v -7.366211 0.628411 13.656709
v -7.362625 0.628411 6.162143
v -7.405693 2.099098 13.656688
v -7.402100 0.628411 6.162124
v -7.405693 0.628411 13.656690
v -7.366211 2.099105 -8.827047
v -7.402100 0.628419 -16.321632
v -7.366211 2.099103 -1.332462
v -7.402100 0.628416 -8.827046
v -7.366211 2.099101 6.162124
v -7.402100 0.628413 -1.332461
v -7.366211 2.099098 13.656707
v -7.402100 2.099097 6.162125
v 1.795532 2.099105 -16.315754
v 10.207451 0.628419 -16.319786
v 1.795532 0.628419 -16.315754
v -7.386620 2.099105 -16.317234
v 1.795532 0.628419 -16.321632
v -7.386620 0.628419 -16.317232
v 1.795551 2.099106 -16.282154
v -7.386600 0.628419 -16.277750
v 1.795551 0.628419 -16.282150
v 10.188332 2.099105 -16.288223
v 1.795551 0.628419 -16.276276
v 10.188332 0.628419 -16.288223
v 1.840527 2.099103 -5.048262
v 10.252445 0.628417 -5.052293
v 1.840527 0.628417 -5.048261
v 10.233326 2.099103 -5.020730
v 1.840546 0.628417 -5.008782
v 10.233326 0.628417 -5.020730
v 10.207451 2.099105 -16.319786
v 1.795532 2.099106 -16.321632
v -7.386600 2.099105 -16.277752
v 1.795551 2.099105 -16.276276
v 10.252445 2.099103 -5.052291
v 1.840546 2.099103 -5.008783
v 10.234550 2.099105 -16.321613
v 10.230965 0.628418 -8.827046
v 10.234550 0.628419 -16.321613
v 10.195076 2.099105 -16.321632
v 10.191483 0.628418 -8.827065
v 10.191483 2.099105 -8.827066
v 10.234550 2.099102 -8.827027
v 10.230965 0.628416 -1.332461
v 10.234550 0.628416 -8.827027
v 10.195076 2.099102 -8.827046
v 10.191483 0.628416 -1.332480
v 10.191483 2.099103 -1.332481
v 10.234550 2.099099 -1.332442
v 10.230965 0.628414 6.162124
v 10.234550 0.628413 -1.332442
v 10.195076 2.099099 -1.332461
v 10.191483 0.628414 6.162105
v 10.191483 2.099101 6.162105
v 10.234550 2.099097 6.162144
v 10.230965 0.628411 13.656709
v 10.234550 0.628411 6.162143
v 10.191483 2.099098 13.656688
v 10.195076 0.628411 6.162124
v 10.191483 0.628411 13.656690
v 10.230965 2.099105 -8.827047
v 10.195076 0.628419 -16.321632
v 10.230965 2.099103 -1.332462
v 10.195076 0.628416 -8.827046
v 10.230965 2.099101 6.162124
v 10.195076 0.628413 -1.332461
v 10.230965 2.099098 13.656707
v 10.195076 2.099097 6.162125
v 5.669212 5.271862 8.399498
v -2.421170 7.021905 2.879632
v -2.422005 5.271799 8.406839
v 5.985057 7.021961 2.872196
v -2.200245 1.903200 5.649056
v -2.198410 4.839672 7.191875
v -2.200249 4.839641 5.649055
v -2.193748 1.903202 2.678426
v 5.616905 1.903199 7.218774
v -2.200176 1.903200 7.193675
v -2.192867 4.839686 2.677528
v -2.199333 5.540986 7.192815
v -2.192352 6.658679 2.673661
v 5.617748 5.540986 7.192815
v -2.200176 1.903206 -12.742314
v -2.195438 4.839646 -10.872939
v -2.199638 4.839647 -12.741653
v -2.200176 1.903207 -10.856133
v -2.195438 4.839644 -6.357937
v -2.187325 10.567282 2.676700
v 1.660694 10.069323 2.678704
v 1.660694 10.567284 2.675641
v 5.521564 10.752157 2.675603
v 1.660694 13.503912 2.677169
v -2.187325 10.066458 2.677720
v 1.660694 7.132033 2.675639
v -2.187325 10.991522 2.676120
v 5.507690 10.066458 2.676700
v 5.508713 10.567282 2.676700
v 5.509735 7.127209 2.676698
v 1.660694 14.056486 2.675641
v -2.188347 7.127209 2.676698
v 1.660694 6.658679 2.675639
v -2.188423 7.134083 -8.880785
v 5.521564 6.658679 2.675601
v -2.186890 10.070950 -8.880783
v -2.188419 10.569332 -8.880782
v -2.187893 10.068495 -12.741739
v -2.187893 10.568310 -12.742249
v -2.189838 7.130649 -12.742313
v -2.188423 6.658683 -8.880785
v 1.660694 10.567287 -12.743905
v 5.521564 10.752161 -12.743943
v 1.660694 13.503916 -12.742377
v 1.660694 7.132038 -12.743908
v 1.660694 10.069325 -12.740842
v -2.187325 10.991526 -12.743426
v 5.509281 10.068495 -12.741739
v 5.509281 10.568310 -12.742249
v 1.660694 14.056490 -12.743905
v 5.509811 7.134083 -8.880785
v 5.509811 6.658683 -8.880785
v 5.508278 10.070950 -8.880783
v 5.509808 10.569332 -8.880782
v 5.509281 7.127213 -12.741741
v 5.509281 6.658685 -12.741741
v -2.200176 1.903205 -6.352924
v -2.187325 4.839707 -12.741653
v 5.509281 4.839646 -10.872940
v 5.509281 1.903206 -12.741743
v 5.509281 4.839677 -12.741741
v 5.509281 4.839644 -6.357937
v 5.509281 1.903207 -10.856132
v 5.509281 4.839686 2.677528
v 5.509281 1.903204 -6.352924
v 5.509281 6.658679 2.673661
v 5.509281 1.903200 5.649056
v 5.509281 4.839672 7.191875
v 5.509281 1.903200 7.193675
v 5.509281 4.839641 5.649055
v 5.509281 5.540986 7.192815
v -2.189838 6.658685 -12.742313
v 5.616905 4.839703 7.218776
v 5.509281 1.903201 2.673657
v -2.401654 10.857969 2.680427
v 1.660694 14.449545 -13.107018
v -2.412395 10.858070 -13.107004
v 1.660694 14.449427 2.681924
v 5.733784 10.858070 -13.107004
v 5.723042 10.857969 2.680427
vt 0.893066 0.540527
vt 0.753418 0.500488
vt 0.893132 0.500488
vt 0.893066 0.540527
vt 0.753418 0.500488
vt 0.753418 0.540527
vt 0.893066 0.540527
vt 0.753418 0.500488
vt 0.893132 0.500488
vt 0.893066 0.540527
vt 0.753418 0.500488
vt 0.753418 0.540527
vt 0.893066 0.540527
vt 0.753418 0.500488
vt 0.893132 0.500488
vt 0.893066 0.540527
vt 0.753418 0.500488
vt 0.753418 0.540527
vt 0.893066 0.540527
vt 0.753418 0.500488
vt 0.893132 0.500488
vt 0.753418 0.540527
vt 0.893132 0.500488
vt 0.753418 0.500488
vt 0.753418 0.540527
vt 0.893132 0.500488
vt 0.753418 0.540527
vt 0.893132 0.500488
vt 0.753418 0.540527
vt 0.893132 0.500488
vt 0.753418 0.540527
vt 0.893066 0.540527
vt 0.980957 0.541504
vt 0.829680 0.500488
vt 0.980957 0.500488
vt 0.924316 0.540527
vt 0.755371 0.500488
vt 0.924153 0.500488
vt 0.755371 0.540527
vt 0.924153 0.500488
vt 0.755371 0.500488
vt 0.829680 0.541504
vt 0.980957 0.500488
vt 0.829680 0.500488
vt 0.980957 0.541504
vt 0.829680 0.500488
vt 0.980957 0.500488
vt 0.829680 0.541504
vt 0.980957 0.500488
vt 0.829680 0.500488
vt 0.829680 0.541504
vt 0.755371 0.540527
vt 0.924316 0.540527
vt 0.980957 0.541504
vt 0.829680 0.541504
vt 0.980957 0.541504
vt 0.893066 0.540527
vt 0.753418 0.500488
vt 0.893132 0.500488
vt 0.893066 0.540527
vt 0.753418 0.500488
vt 0.753418 0.540527
vt 0.893066 0.540527
vt 0.753418 0.500488
vt 0.893132 0.500488
vt 0.893066 0.540527
vt 0.753418 0.500488
vt 0.753418 0.540527
vt 0.893066 0.540527
vt 0.753418 0.500488
vt 0.893132 0.500488
vt 0.893066 0.540527
vt 0.753418 0.500488
vt 0.753418 0.540527
vt 0.893066 0.540527
vt 0.753418 0.500488
vt 0.893132 0.500488
vt 0.753418 0.540527
vt 0.893132 0.500488
vt 0.753418 0.500488
vt 0.753418 0.540527
vt 0.893132 0.500488
vt 0.753418 0.540527
vt 0.893132 0.500488
vt 0.753418 0.540527
vt 0.893132 0.500488
vt 0.753418 0.540527
vt 0.893066 0.540527
vt 0.170200 0.791504
vt 0.080363 0.854980
vt 0.080363 0.791504
vt 0.188965 0.022949
vt 0.166504 0.068848
vt 0.188965 0.068848
vt 0.104980 0.318848
vt 0.173340 0.272949
vt 0.173340 0.318848
vt 0.090332 0.130371
vt 0.090332 0.100729
vt 0.090332 0.130371
vt 0.161388 0.118943
vt -0.000488 0.089355
vt 0.062012 0.082520
vt 0.062012 0.131348
vt 0.146973 0.076660
vt 0.080566 0.124512
vt 0.146973 0.124512
vt 0.094238 0.074707
vt 0.028809 0.074707
vt 0.028809 0.074707
vt 0.094238 0.074707
vt 0.094238 0.074707
vt 0.187988 0.082520
vt 0.251465 0.085449
vt 0.187988 0.131348
vt 0.133301 0.318848
vt 0.202637 0.272949
vt 0.202637 0.318848
vt 0.093750 0.072754
vt 0.028809 0.062988
vt 0.028809 0.072754
vt 0.251465 0.085449
vt 0.187012 0.082520
vt 0.187012 0.131348
vt 0.173340 0.272949
vt 0.104980 0.318848
vt 0.173340 0.318848
vt 0.122559 0.089355
vt 0.122559 0.082520
vt 0.105957 0.272949
vt 0.077637 0.318848
vt 0.105957 0.318848
vt 0.158691 0.062988
vt 0.093750 0.072754
vt 0.158691 0.072754
vt 0.062012 0.142090
vt 0.187988 0.142090
vt 0.161621 0.130371
vt 0.161388 0.118943
vt 0.161388 0.118943
vt 0.093262 0.074707
vt 0.028809 0.074707
vt 0.028809 0.074707
vt 0.077637 0.318848
vt 0.105957 0.272949
vt 0.105957 0.318848
vt 0.093750 0.072754
vt 0.158691 0.062988
vt 0.158691 0.072754
vt 0.080566 0.124512
vt 0.146973 0.076660
vt 0.146973 0.124512
vt 0.093262 0.124512
vt 0.028809 0.076660
vt 0.028809 0.124512
vt 0.093750 0.062988
vt 0.028809 0.072754
vt 0.187012 0.142090
vt 0.093262 0.074707
vt 0.028809 0.074707
vt 0.093262 0.074707
vt 0.220143 0.020996
vt 0.104447 0.068848
vt 0.104260 0.020996
vt 0.093262 0.074707
vt 0.028809 0.074707
vt 0.093262 0.074707
vt 0.028809 0.124512
vt 0.094238 0.076660
vt 0.094238 0.124512
vt 0.090332 0.100729
vt 0.090332 0.130371
vt 0.090332 0.130371
vt 0.093262 0.124512
vt 0.028809 0.076660
vt 0.028809 0.124512
vt 0.093750 0.062988
vt 0.093750 0.072754
vt 0.090332 0.100729
vt 0.090332 0.100729
vt 0.158691 0.062988
vt 0.158691 0.072754
vt 0.028809 0.076660
vt 0.093262 0.076660
vt 0.211426 0.791504
vt 0.072754 0.855957
vt 0.072754 0.792480
vt 0.235840 0.022949
vt 0.028809 0.074707
vt 0.093262 0.074707
vt 0.188965 0.022949
vt 0.166504 0.068848
vt 0.165527 0.022949
vt 0.211426 0.791504
vt 0.211426 0.855957
vt 0.220143 0.020996
vt 0.104447 0.068848
vt 0.220143 0.068848
vt 0.094238 0.076660
vt 0.028809 0.124512
vt 0.094238 0.124512
vt 0.093262 0.124512
vt 0.028809 0.076660
vt 0.093262 0.076660
vt 0.094238 0.074707
vt 0.028809 0.074707
vt 0.094238 0.074707
vt 0.028809 0.072754
vt 0.093750 0.062988
vt 0.235840 0.068848
vt 0.188965 0.068848
vt 0.202637 0.272949
vt 0.133301 0.318848
vt 0.202637 0.318848
vt 0.170200 0.854980
vt 0.165527 0.022949
vt 0.104004 0.272949
vt 0.161621 0.130371
vt -0.000488 0.082520
vt 0.080566 0.076660
vt 0.094238 0.074707
vt 0.251465 0.082520
vt 0.132324 0.272949
vt 0.093750 0.062988
vt 0.251465 0.082520
vt 0.104004 0.272949
vt 0.076660 0.272949
vt 0.161621 0.130371
vt 0.076660 0.272949
vt 0.080566 0.076660
vt 0.028809 0.062988
vt 0.028809 0.074707
vt 0.220143 0.068848
vt 0.028809 0.074707
vt 0.028809 0.076660
vt 0.093262 0.076660
vt 0.090332 0.130371
vt 0.028809 0.124512
vt 0.235840 0.068848
vt 0.028809 0.074707
vt 0.072754 0.792480
vt 0.104260 0.020996
vt 0.028809 0.076660
vt 0.028809 0.124512
vt 0.028809 0.074707
vt 0.028809 0.062988
vt 0.235840 0.022949
vt 0.132324 0.272949
vn 1.0000 0.0000 0.0005
vn -1.0000 0.0000 -0.0005
vn -0.0005 0.0000 -1.0000
vn 0.0005 0.0000 1.0000
vn 0.0014 0.0000 1.0000
vn 0.0003 0.9534 0.3019
vn -1.0000 0.0001 0.0007
vn -1.0000 -0.0004 0.0016
vn -1.0000 -0.0003 0.0017
vn 1.0000 0.0000 0.0000
vn -0.0003 0.0011 1.0000
vn 0.0001 -0.0005 1.0000
vn -1.0000 0.0005 -0.0000
vn -1.0000 0.0081 0.0042
vn -0.9999 0.0128 0.0002
vn -0.9999 0.0129 0.0002
vn 0.0034 -0.0009 1.0000
vn 0.0007 0.0032 1.0000
vn -0.0003 0.0056 1.0000
vn 0.0000 -0.0005 1.0000
vn -0.0029 -0.0018 -1.0000
vn -0.0008 0.0015 -1.0000
vn -0.0090 -0.0013 -1.0000
vn -0.0001 0.0010 -1.0000
vn -1.0000 0.0010 0.0006
vn -1.0000 0.0022 0.0003
vn -1.0000 0.0022 0.0001
vn -0.0004 -0.0028 -1.0000
vn 0.0005 -0.0055 -1.0000
vn -0.0007 -0.0056 -1.0000
vn -1.0000 0.0006 0.0010
vn -1.0000 -0.0010 0.0030
vn -1.0000 -0.0006 0.0034
vn -1.0000 -0.0015 0.0002
vn -1.0000 0.0015 0.0003
vn -1.0000 0.0016 -0.0003
vn -0.0021 0.0028 1.0000
vn 0.0024 0.0028 1.0000
vn -0.0018 0.0179 0.9998
vn -0.0189 -0.0053 0.9998
vn 0.0017 -0.0204 0.9998
vn -1.0000 0.0000 0.0004
vn 1.0000 -0.0005 -0.0016
vn 1.0000 0.0016 -0.0003
vn 1.0000 0.0005 0.0001
vn -0.0001 -0.0035 -1.0000
vn -0.0004 0.0014 -1.0000
vn 0.0008 0.0015 -1.0000
vn -0.0003 0.0007 -1.0000
vn -0.0006 0.0015 -1.0000
vn -1.0000 -0.0016 0.0000
vn -1.0000 -0.0032 -0.0014
vn -1.0000 -0.0046 0.0002
vn 0.0021 -0.0028 -1.0000
vn -0.0024 -0.0028 -1.0000
vn -0.0002 -0.0013 1.0000
vn -0.0003 -0.0034 1.0000
vn 0.0001 -0.0034 1.0000
vn -0.0032 0.0003 1.0000
vn -0.0030 0.0009 1.0000
vn -0.0031 0.0009 1.0000
vn 1.0000 0.0000 -0.0001
vn -0.0001 -0.0007 1.0000
vn -0.0007 -0.0012 1.0000
vn -0.0005 -0.0014 1.0000
vn -1.0000 -0.0004 -0.0003
vn -1.0000 0.0005 0.0003
vn -1.0000 0.0009 -0.0004
vn 0.0022 0.0056 1.0000
vn 0.0005 0.0082 1.0000
vn 0.0001 0.0000 -1.0000
vn -0.0012 0.0029 1.0000
vn -0.0009 -0.0030 1.0000
vn -0.0007 -0.0030 1.0000
vn 1.0000 0.0002 0.0003
vn 1.0000 -0.0003 -0.0003
vn -0.6617 0.7497 0.0005
vn -0.6611 0.7503 0.0007
vn -0.6610 0.7504 0.0006
vn -1.0000 -0.0000 -0.0022
vn -1.0000 -0.0007 -0.0012
vn -1.0000 0.0006 -0.0014
vn -1.0000 0.0006 -0.0015
vn 0.6620 0.7495 0.0002
vn 0.6627 0.7489 0.0005
vn 0.6628 0.7488 -0.0002
vn -0.0000 0.0000 -1.0000
vn -0.0002 0.0009 -1.0000
vn 0.0005 0.0016 -1.0000
vn 0.0006 0.0015 -1.0000
vn 0.0001 -0.0004 1.0000
vn -0.0002 0.0007 1.0000
vn -0.0007 0.0005 1.0000
vn 0.9999 0.0126 -0.0002
vn 0.9999 -0.0112 0.0045
vn 0.9999 -0.0126 -0.0015
vn 1.0000 -0.0026 0.0003
vn 1.0000 -0.0035 0.0001
vn -1.0000 0.0016 0.0000
vn 0.0003 0.9533 0.3019
vn -1.0000 0.0010 -0.0003
vn -1.0000 0.0008 -0.0004
vn -1.0000 0.0005 0.0006
vn 0.0013 0.0027 1.0000
vn 0.0005 0.0030 1.0000
vn 0.0003 0.0014 1.0000
vn -1.0000 0.0003 0.0000
vn -1.0000 -0.0042 -0.0005
vn -1.0000 0.0004 -0.0046
vn -0.0009 -0.0097 1.0000
vn -0.0036 -0.0056 1.0000
vn 0.0058 0.0066 1.0000
vn -0.0006 0.0120 0.9999
vn -0.0003 0.0060 1.0000
vn 0.0006 -0.0087 -1.0000
vn 0.0027 -0.0054 -1.0000
vn 0.0010 -0.0184 -0.9998
vn 0.0009 -0.0185 -0.9998
vn 0.0009 -0.0092 -1.0000
vn -1.0000 -0.0004 0.0007
vn -1.0000 -0.0003 0.0009
vn -1.0000 0.0008 0.0004
vn -0.0001 0.0005 -1.0000
vn -0.0006 -0.0023 -1.0000
vn -1.0000 0.0028 -0.0007
vn -1.0000 0.0023 -0.0011
vn -1.0000 0.0011 0.0013
vn -1.0000 -0.0045 -0.0002
vn -1.0000 -0.0046 0.0005
vn -1.0000 -0.0015 -0.0001
vn 0.0155 0.0409 0.9990
vn -0.0051 0.0560 0.9984
vn -0.0017 0.0177 0.9998
vn 1.0000 -0.0046 0.0005
vn 1.0000 -0.0026 0.0018
vn 1.0000 0.0007 0.0000
vn 0.0006 -0.0086 -1.0000
vn -0.0006 -0.0087 -1.0000
vn 0.0003 -0.0036 -1.0000
vn 0.0008 -0.0002 -1.0000
vn 0.0008 -0.0003 -1.0000
vn 0.0006 0.0006 -1.0000
vn -1.0000 0.0001 0.0014
vn -1.0000 0.0015 -0.0001
vn -1.0000 -0.0015 0.0000
vn 0.0001 0.0010 1.0000
vn -0.0004 0.0011 1.0000
vn -0.0001 -0.0011 1.0000
vn -0.0036 -0.0003 1.0000
vn -0.0034 0.0003 1.0000
vn 0.0006 -0.0002 1.0000
vn 0.0005 -0.0001 1.0000
vn 0.0001 -0.0008 1.0000
vn -1.0000 -0.0016 -0.0008
vn -1.0000 -0.0020 -0.0001
vn -1.0000 -0.0007 -0.0002
vn -1.0000 0.0007 0.0004
vn -0.0005 0.0000 1.0000
vn -0.0022 0.0026 1.0000
vn -0.0000 -0.0004 -1.0000
vn 0.0012 0.0091 1.0000
vn 0.0009 0.0092 1.0000
vn 0.0015 0.0032 1.0000
vn 1.0000 0.0009 0.0005
vn 1.0000 0.0004 -0.0001
vn -0.6627 0.7489 -0.0003
vn -0.6627 0.7489 -0.0002
vn -0.6620 0.7495 0.0000
vn -1.0000 0.0003 -0.0025
vn -1.0000 -0.0023 -0.0015
vn -1.0000 -0.0024 -0.0011
vn -1.0000 -0.0010 -0.0014
vn 0.6611 0.7503 0.0001
vn 0.6610 0.7504 0.0006
vn 0.6618 0.7496 0.0002
vn 0.0001 0.0002 -1.0000
vn -0.0006 -0.0002 -1.0000
vn -0.0007 -0.0002 -1.0000
vn 0.0001 0.0004 -1.0000
vn 0.0004 -0.0016 1.0000
vn 0.0009 -0.0015 1.0000
vn 0.9993 0.0366 -0.0055
vn 0.9993 0.0380 0.0005
vn 0.9999 0.0128 -0.0008
vn 1.0000 -0.0015 0.0000
vn 1.0000 -0.0025 -0.0002
s off
f 1/1/1 2/2/1 3/3/1
f 4/4/2 5/5/2 6/6/2
f 7/7/1 8/8/1 9/9/1
f 10/10/2 11/11/2 12/12/2
f 13/13/1 14/14/1 15/15/1
f 16/16/2 17/17/2 18/18/2
f 19/19/1 20/20/1 21/21/1
f 22/22/2 23/23/2 24/24/2
f 1/1/1 25/25/1 2/2/1
f 4/4/2 26/26/2 5/5/2
f 7/7/1 27/27/1 8/8/1
f 10/10/2 28/28/2 11/11/2
f 13/13/1 29/29/1 14/14/1
f 16/16/2 30/30/2 17/17/2
f 19/19/1 31/31/1 20/20/1
f 22/22/2 32/32/2 23/23/2
f 33/33/3 34/34/3 35/35/3
f 36/36/3 37/37/3 38/38/3
f 39/39/4 40/40/4 41/41/4
f 42/42/5 43/43/5 44/44/5
f 45/45/3 46/46/3 47/47/3
f 48/48/5 49/49/5 50/50/5
f 33/33/3 51/51/3 34/34/3
f 36/36/3 52/52/3 37/37/3
f 39/39/4 53/53/4 40/40/4
f 42/42/5 54/54/5 43/43/5
f 45/45/3 55/55/3 46/46/3
f 48/48/5 56/56/5 49/49/5
f 57/57/1 58/58/1 59/59/1
f 60/60/2 61/61/2 62/62/2
f 63/63/1 64/64/1 65/65/1
f 66/66/2 67/67/2 68/68/2
f 69/69/1 70/70/1 71/71/1
f 72/72/2 73/73/2 74/74/2
f 75/75/1 76/76/1 77/77/1
f 78/78/2 79/79/2 80/80/2
f 57/57/1 81/81/1 58/58/1
f 60/60/2 82/82/2 61/61/2
f 63/63/1 83/83/1 64/64/1
f 66/66/2 84/84/2 67/67/2
f 69/69/1 85/85/1 70/70/1
f 72/72/2 86/86/2 73/73/2
f 75/75/1 87/87/1 76/76/1
f 78/78/2 88/88/2 79/79/2
f 89/89/6 90/90/6 91/91/6
f 93/92/7 94/93/8 95/94/9
f 152/95/10 153/96/10 150/97/10
f 149/98/10 154/99/10 152/100/10
f 159/101/10 152/100/10 154/99/10
f 115/102/11 110/103/12 112/104/12
f 122/105/13 113/106/13 124/107/13
f 122/108/14 101/109/15 120/110/16
f 120/110/17 121/111/18 114/112/18
f 110/113/19 111/114/20 112/115/20
f 150/116/10 151/117/10 147/118/10
f 130/119/21 126/120/22 127/121/22
f 131/122/23 130/123/24 132/124/24
f 145/125/25 99/126/26 107/127/27
f 135/128/28 130/123/29 127/129/30
f 103/130/31 104/131/32 105/132/33
f 126/133/34 125/134/35 127/135/36
f 119/136/37 115/102/37 112/104/37
f 111/114/38 119/137/38 112/115/38
f 94/138/39 102/139/40 100/140/41
f 128/141/42 129/142/42 122/143/42
f 147/144/10 148/145/10 149/146/10
f 142/147/43 136/148/44 137/149/44
f 116/150/45 139/151/45 141/152/45
f 136/148/46 130/119/47 137/149/48
f 136/153/49 133/154/50 134/155/50
f 124/156/51 108/157/52 125/134/53
f 138/158/54 132/124/54 135/128/54
f 131/122/55 132/124/55 138/158/55
f 118/159/56 121/160/57 123/161/58
f 97/162/59 94/163/60 98/164/61
f 143/165/62 140/166/62 144/167/62
f 113/168/63 114/169/64 109/170/65
f 101/171/66 146/172/67 99/173/68
f 126/174/67 122/175/67 124/176/67
f 108/157/69 109/177/70 110/178/70
f 149/98/71 160/179/71 144/180/71
f 110/178/72 116/181/73 117/182/74
f 136/153/75 139/183/76 143/184/76
f 163/185/77 164/186/78 165/187/79
f 95/94/80 96/188/80 93/92/80
f 99/173/81 100/140/82 101/171/83
f 143/189/71 160/190/71 128/141/71
f 155/191/10 156/192/10 157/193/10
f 168/194/84 164/186/85 166/195/86
f 148/196/87 105/197/87 149/198/87
f 133/199/88 126/200/89 134/201/90
f 116/202/91 114/203/92 118/204/93
f 139/205/94 123/206/95 140/207/96
f 117/208/97 141/209/98 142/147/98
f 155/191/10 152/210/10 158/211/10
f 106/212/99 107/213/99 104/214/99
f 89/89/100 92/215/100 90/90/100
f 93/92/101 98/216/102 94/93/103
f 152/95/10 162/217/10 153/96/10
f 149/98/10 144/180/10 154/99/10
f 159/101/10 156/218/10 152/100/10
f 115/102/104 108/219/105 110/103/106
f 122/105/107 120/220/107 113/106/107
f 122/108/108 129/221/108 101/109/109
f 120/110/110 101/109/110 121/111/111
f 110/113/112 117/222/113 111/114/114
f 150/116/10 153/223/10 151/117/10
f 130/119/115 134/224/115 126/120/116
f 131/122/117 137/225/118 130/123/119
f 145/125/120 96/226/121 99/126/122
f 135/128/123 132/124/123 130/123/124
f 103/130/125 106/227/126 104/131/127
f 126/133/128 124/156/129 125/134/130
f 94/138/131 161/228/132 102/139/133
f 128/141/42 160/190/42 129/142/42
f 147/144/10 151/229/10 148/145/10
f 142/147/134 141/209/134 136/148/135
f 116/150/136 118/230/136 139/151/136
f 136/148/137 134/224/138 130/119/139
f 136/153/140 143/184/141 133/154/142
f 124/156/143 113/231/144 108/157/145
f 118/159/146 114/232/147 121/160/148
f 97/162/149 161/233/149 94/163/150
f 143/165/62 139/234/62 140/166/62
f 113/168/151 120/235/152 114/169/153
f 101/171/154 160/179/155 146/172/156
f 126/174/157 128/236/157 122/175/157
f 108/157/158 113/231/158 109/177/159
f 149/98/160 105/237/160 160/179/160
f 110/178/161 109/177/162 116/181/163
f 136/153/164 141/238/164 139/183/165
f 163/185/166 166/195/167 164/186/168
f 95/94/169 99/239/169 96/188/169
f 99/173/170 94/138/171 100/140/172
f 143/189/71 144/240/71 160/190/71
f 155/191/10 158/211/10 156/192/10
f 168/194/173 167/241/174 164/186/175
f 148/196/176 103/242/176 105/197/176
f 133/199/177 128/243/178 126/200/179
f 116/202/180 109/244/181 114/203/12
f 139/205/182 118/245/183 123/206/184
f 117/208/185 116/246/185 141/209/186
f 155/191/10 162/247/10 152/210/10
f 106/212/99 145/248/99 107/213/99
