# Blender v2.91.0 Beta OBJ File: 'HOUSE.blend'
# www.blender.org
o Circle
v 0.253693 0.402570 -12.191395
v -0.623626 0.402570 -11.383372
v -1.326494 0.402570 -10.944376
v -2.678342 0.402570 -10.524384
v -3.447361 0.402570 -8.929931
v -4.107557 0.402570 -6.599922
v -4.611557 0.402570 -4.439891
v -4.887969 0.402570 -1.761455
v -5.023696 0.402570 1.088711
v -5.170122 0.402570 3.429688
v -4.818234 0.402570 6.176398
v -4.552197 0.402570 7.516286
v -3.801775 0.640235 8.635377
v -2.954200 0.640235 9.553007
v -2.378701 0.402570 10.224306
v -1.243408 0.402570 11.170262
v -0.161049 0.402570 11.453091
v 0.965073 0.640235 10.690729
v 1.411112 0.402570 10.374351
v 2.070874 0.640235 9.550044
v 3.283863 0.640235 8.114262
v 3.641647 0.402570 7.176611
v 4.359181 0.640235 5.344983
v 5.024059 0.402570 3.526257
v 5.442968 0.402570 1.392292
v 5.006264 0.402570 -1.765993
v 4.831176 0.402570 -4.583078
v 4.038144 0.402570 -6.923710
v 3.672855 0.402570 -9.056903
v 3.156634 0.402570 -10.438643
v 2.043232 0.402570 -11.501310
v 0.895710 0.402570 -11.766089
v 0.237939 0.718995 -12.660156
v -0.630015 0.718995 -11.825565
v -1.325380 0.718995 -11.372133
v -2.662798 0.718995 -10.938332
v -3.423608 0.718995 -9.291450
v -4.076757 0.718995 -6.884825
v -4.575377 0.718995 -4.653769
v -4.848839 0.718995 -1.887261
v -4.983117 0.718995 1.056624
v -5.127979 0.718995 3.474576
v -4.779848 0.718995 6.311604
v -4.516650 0.718995 7.695549
v -4.048707 0.718995 9.198796
v -3.145305 0.718995 10.176867
v -2.366355 0.718995 10.492615
v -1.243181 0.718995 11.469675
v -0.172376 0.718995 11.761804
v 1.032117 0.718995 11.389526
v 1.383004 0.718995 10.647593
v 2.210754 0.718995 10.173709
v 3.503638 0.718995 8.643356
v 3.589730 0.718995 7.344704
v 4.649784 0.718995 5.691675
v 4.957386 0.718995 3.574321
v 5.371822 0.718995 1.370187
v 4.939781 0.718995 -1.891948
v 4.766562 0.718995 -4.801664
v 3.981993 0.718995 -7.219260
v 3.620605 0.718995 -9.422598
v 3.109893 0.718995 -10.849770
v 2.008377 0.718995 -11.947380
v 0.873103 0.718995 -12.220867
v 0.431289 -0.535324 -18.284849
v -1.013865 -0.535324 -17.081833
v -2.171656 -0.535324 -16.428240
v -4.398474 -0.535324 -15.802937
v -5.665232 -0.535324 -13.429049
v -6.752733 -0.535324 -9.960038
v -7.582941 -0.535324 -6.744096
v -8.038259 -0.535324 -2.756333
v -8.261832 -0.535324 1.487110
v -8.503030 -0.535324 4.972451
v -7.923387 -0.535324 9.061866
v -7.485160 -0.535324 11.056745
v -6.706028 -0.535324 13.223589
v -5.201854 -0.535324 14.633425
v -3.904893 -0.535324 15.088557
v -2.034794 -0.535324 16.496933
v -0.251890 -0.535324 16.918018
v 1.753604 -0.535324 16.381401
v 2.337836 -0.535324 15.311949
v 3.716048 -0.535324 14.628873
v 5.868715 -0.535324 12.422956
v 6.012061 -0.535324 10.551023
v 7.777063 -0.535324 8.168274
v 8.289225 -0.535324 5.116228
v 8.979268 -0.535324 1.939094
v 8.259912 -0.535324 -2.763088
v 7.971499 -0.535324 -6.957278
v 6.665184 -0.535324 -10.442106
v 6.063468 -0.535324 -13.618093
v 5.213127 -0.535324 -15.675279
v 3.379089 -0.535324 -17.257421
v 1.488844 -0.535324 -17.651640
v 6.189588 0.660262 1.452906
v 5.712674 0.660262 3.798515
v -5.189577 0.660262 8.184267
v -5.492451 0.660262 6.711493
v 5.692416 0.660262 -2.018612
v -4.651091 0.660262 9.784002
v 5.493083 0.660262 -5.115091
v -3.611501 0.660262 10.824851
v 4.590241 0.660262 -7.687862
v -2.715124 0.660262 11.160866
v -0.717029 0.660262 -12.589827
v 0.281770 0.660262 -13.477987
v 4.174373 0.660262 -10.032623
v -1.422631 0.660262 12.200640
v -1.517221 0.660262 -12.107292
v 3.586672 0.660262 -11.551400
v -0.190401 0.660262 12.511518
v -3.056256 0.660262 -11.645646
v 2.319102 0.660262 -12.719460
v 1.195670 0.660262 12.115345
v -3.931758 0.660262 -9.893057
v 1.012685 0.660262 -13.010501
v 1.599453 0.660262 11.325790
v -4.683370 0.660262 -7.331962
v 2.551987 0.660262 10.821490
v -5.257157 0.660262 -4.957703
v 4.039773 0.660262 9.192911
v -5.571844 0.660262 -2.013624
v 4.138844 0.660262 7.810903
v -5.726364 0.660262 1.119217
v 5.358701 0.660262 6.051773
v -5.893064 0.660262 3.692368
vt 0.910645 0.928223
vt 0.907715 0.932129
vt 0.892090 0.935059
vt 0.889160 0.934082
vt 0.883301 0.932129
vt 0.879395 0.927246
vt 0.873535 0.886230
vt 0.875488 0.883301
vt 0.910645 0.883301
vt 0.808105 0.103027
vt 0.816895 0.075684
vt 0.847168 0.054199
vt 0.832520 0.059082
vt 0.884277 0.875488
vt 0.889160 0.873535
vt 0.900879 0.875488
vt 0.894043 0.872559
vt 0.885254 0.030762
vt 0.906738 0.037598
vt 0.912598 0.051270
vt 0.927246 0.059082
vt 0.951660 0.109863
vt 0.949707 0.085449
vt 0.970215 0.138184
vt 0.975098 0.175293
vt 0.898926 0.935059
vt 0.895996 0.937012
vt 0.903809 0.935059
vt 0.799316 0.119629
vt 0.804199 0.093262
vt 0.941895 0.113770
vt 0.949707 0.070801
vt 0.947754 0.118652
vt 0.930176 0.148926
vt 0.934082 0.157715
vt 0.873535 0.231934
vt 0.858887 0.229004
vt 0.860840 0.220215
vt 0.924316 0.184082
vt 0.928223 0.191895
vt 0.830566 0.205566
vt 0.813965 0.189941
vt 0.817871 0.181152
vt 0.913574 0.038574
vt 0.804199 0.150879
vt 0.809082 0.145020
vt 0.882324 0.210449
vt 0.862793 0.200684
vt 0.882324 0.204590
vt 0.796387 0.115723
vt 0.800293 0.111816
vt 0.956543 0.101074
vt 0.878418 0.050293
vt 0.882324 0.061035
vt 0.876465 0.060059
vt 0.980957 0.170410
vt 0.804199 0.126465
vt 0.792480 0.173340
vt 0.849121 0.200684
vt 0.859863 0.207520
vt 0.945801 0.068848
vt 0.955566 0.019043
vt 0.913574 0.204590
vt 0.943848 0.196777
vt 0.920410 0.210449
vt 0.825684 0.193848
vt 0.810059 0.175293
vt 0.830566 0.186035
vt 0.908691 0.096191
vt 0.916504 0.106934
vt 0.909668 0.113770
vt 0.795410 0.147949
vt 0.780762 0.126465
vt 0.791504 0.126465
vt 0.915527 0.088379
vt 0.792480 0.070801
vt 0.943848 0.175293
vt 0.939941 0.187988
vt 0.923340 0.183105
vt 0.849121 0.196777
vt 0.846191 0.059082
vt 0.826660 0.062988
vt 0.843262 0.049316
vt 0.809082 0.088379
vt 0.793457 0.102051
vt 0.801270 0.080566
vt 0.865723 0.036621
vt 0.844238 0.041504
vt 0.916504 0.204590
vt 0.954590 0.075684
vt 0.975098 0.131348
vt 0.798340 0.176270
vt 0.882324 0.213379
vt 0.817871 0.196777
vt 0.806152 0.179199
vt 0.880371 0.043457
vt 0.885254 0.054199
vt 0.952637 0.149902
vt 0.961426 0.154785
vt 0.922363 0.083496
vt 0.923340 0.102051
vt 0.794434 0.219238
vt 0.800293 0.220215
vt 0.873535 0.900879
vt 0.916504 0.894043
vt 0.917480 0.898926
vt 0.892090 0.207520
vt 0.906738 0.193848
vt 0.970215 0.093262
vt 0.952637 0.121582
vt 0.961426 0.093262
vt 0.841309 0.041504
vt 0.859863 0.044434
vt 0.872559 0.894043
vt 0.810059 0.143066
vt 0.895996 0.067871
vt 0.899902 0.062012
vt 0.867676 0.163574
vt 0.786621 0.093262
vt 0.791504 0.062988
vt 0.795410 0.093262
vt 0.920410 0.216309
vt 0.899902 0.222168
vt 0.817871 0.167480
vt 0.983887 0.093262
vt 0.978027 0.058105
vt 0.986816 0.055176
vt 0.864746 0.022949
vt 0.939941 0.167480
vt 0.943848 0.143066
vt 0.785645 0.161621
vt 0.799316 0.126465
vt 0.794434 0.164551
vt 0.875488 0.915527
vt 0.916504 0.908691
vt 0.915527 0.916504
vt 0.930176 0.047363
vt 0.952637 0.179199
vt 0.885254 0.237793
vt 0.883301 0.224121
vt 0.793457 0.075684
vt 0.786621 0.097168
vt 0.892090 0.196777
vt 0.943848 0.190918
vt 0.928223 0.162598
vt 0.937012 0.159668
vt 0.924316 0.134277
vt 0.859863 0.055176
vt 0.897949 0.210449
vt 0.988770 0.213379
vt 0.820801 0.075684
vt 0.814941 0.067871
vt 0.788574 0.023926
vt 0.796387 0.068848
vt 0.773926 0.093262
vt 0.907715 0.023926
vt 0.885254 0.017090
vt 0.828613 0.047363
vt 0.945801 0.157715
vt 0.932129 0.129395
vt 0.940918 0.126465
vt 0.789551 0.122559
vt 0.802246 0.108887
vt 0.781738 0.117676
vt 0.911621 0.922363
vt 0.812012 0.064941
vt 0.964355 0.126465
vt 0.858887 0.037598
vt 0.791504 0.149902
vt 0.953613 0.189941
vt 0.826660 0.216309
vt 0.850098 0.212402
vt 0.848145 0.224121
vt 0.873535 0.908691
vt 0.769043 0.058105
vt 0.787598 0.194824
vt 0.796387 0.195801
vt 0.876465 0.922363
vt 0.978027 0.129395
vt 0.891113 0.075684
vt 0.899902 0.233887
vt 0.822754 0.056152
vt 0.775879 0.159668
vt 0.964355 0.058105
vt 0.851074 0.187988
vt 0.862793 0.193848
vt 0.795410 0.121582
vt 0.881348 0.069824
vt 0.778809 0.193848
vt 0.809082 0.061035
vt 0.951660 0.019043
vt 0.856934 0.170410
vt 0.780762 0.058105
vt 0.873535 0.245605
vt 0.932129 0.191895
vt 0.982910 0.214355
vt 0.831543 0.071777
vt 0.794434 0.025879
vn 0.0000 1.0000 0.0000
vn 0.7017 0.4363 -0.5632
vn 0.7277 -0.1364 -0.6722
vn -0.5654 0.0358 -0.8240
vn -0.7872 0.2808 -0.5491
vn -0.4448 0.8130 -0.3758
vn -0.9311 0.0936 -0.3526
vn 0.9824 -0.0045 -0.1868
vn -0.9853 -0.1607 0.0587
vn -0.9444 0.1187 0.3065
vn 0.4692 0.7214 0.5094
vn -0.9865 0.0241 0.1618
vn 0.8278 0.3940 0.3993
vn -0.1964 0.6308 -0.7507
vn 0.9512 0.1501 0.2695
vn -0.0667 0.9949 -0.0750
vn 0.9730 0.0422 0.2270
vn -0.9299 0.0415 -0.3654
vn 0.1090 0.9925 0.0557
vn -0.9349 -0.1480 -0.3224
vn 0.9902 -0.0682 -0.1215
vn -0.1484 0.9533 -0.2629
vn -0.9795 -0.1542 0.1297
vn 0.1085 0.9928 0.0513
vn 0.1817 0.9605 -0.2106
vn -0.0783 0.9962 -0.0391
vn 0.1007 0.9949 0.0067
vn -0.3960 0.9133 -0.0957
vn 0.1015 0.9948 0.0073
vn 0.9940 -0.0472 0.0983
vn 0.0782 0.9965 -0.0303
vn -0.1466 0.9589 -0.2431
vn -0.0538 0.9963 0.0669
vn -0.0733 0.9970 0.0247
vn 0.9802 -0.0358 -0.1946
vn 0.7826 0.2380 -0.5753
vn -0.9814 -0.1819 0.0610
vn -0.9467 0.0283 0.3208
vn -0.9855 -0.0173 0.1688
vn 0.5425 0.5309 -0.6511
vn -0.9088 0.2423 0.3395
vn 0.9412 0.2212 0.2554
vn 0.9709 0.1009 0.2170
vn -0.2952 0.9552 -0.0196
vn -0.2249 0.9738 -0.0327
vn 0.9855 -0.1133 -0.1263
vn -0.2017 0.9490 -0.2423
vn -0.3138 0.9346 -0.1675
vn 0.3744 0.9044 0.2045
vn 0.4215 0.9037 -0.0748
vn 0.4986 0.8660 0.0382
vn 0.9907 -0.1208 0.0620
vn 0.0155 0.9975 -0.0696
vn 0.0770 0.9970 -0.0046
vn 0.0496 0.9975 -0.0498
vn -0.0653 0.9637 0.2589
vn -0.0819 0.9964 -0.0198
vn 0.2318 0.9461 0.2262
vn 0.1486 0.9612 -0.2324
vn -0.0803 0.9968 -0.0037
vn -0.3191 0.9342 -0.1594
vn -0.5292 0.6423 0.5545
vn -0.0854 0.9960 -0.0251
vn 0.4022 0.9135 -0.0615
vn 0.1865 0.6752 -0.7137
vn 0.0854 0.9962 -0.0140
vn -0.0740 0.9972 0.0091
vn -0.1167 0.9883 -0.0986
vn 0.3837 0.9206 -0.0727
vn -0.3608 0.7571 0.5447
vn -0.3388 0.9329 0.1218
vn 0.3876 0.9003 0.1982
vn 0.0457 0.9968 -0.0661
vn 0.0731 0.9972 0.0149
vn 0.0690 0.9966 0.0443
vn -0.0205 0.9970 0.0751
vn 0.0509 0.9684 -0.2442
vn -0.0097 0.8286 0.5597
vn -0.9674 -0.1762 -0.1819
vn -0.0267 0.9971 0.0712
vn 0.9935 -0.1048 0.0453
vn -0.4268 0.9030 -0.0487
vn -0.2171 0.6777 -0.7026
vn 0.1240 0.6820 -0.7208
vn 0.3815 0.9244 0.0002
vn 0.3950 0.9163 0.0663
vn -0.0743 0.9971 0.0141
vn -0.3784 0.9224 0.0778
vn -0.4060 0.5764 -0.7092
vn 0.1017 0.9904 -0.0939
vn 0.4156 0.9092 -0.0268
vn -0.8326 0.1470 -0.5340
vn 0.0701 0.9625 0.2621
vn -0.3854 0.9158 -0.1131
vn 0.3840 0.9195 0.0834
vn -0.0513 0.9976 0.0474
vn 0.1895 0.7891 0.5842
vn 0.0707 0.9972 -0.0229
vn -0.4305 0.9023 -0.0227
vn 0.4276 0.7103 0.5591
vn -0.0792 0.9968 -0.0047
vn 0.3546 0.9267 -0.1244
vn 0.0627 0.9964 0.0573
vn 0.1302 0.9561 0.2626
vn 0.4999 0.8653 0.0358
vn -0.3644 0.9231 0.1226
vn 0.3529 0.7633 0.5411
vn -0.1339 0.8033 0.5803
vn -0.1878 0.9540 0.2335
vn -0.3946 0.9174 0.0524
vn 0.2771 0.9540 -0.1145
vn 0.0727 0.9973 -0.0104
vn -0.0238 0.9970 -0.0734
vn -0.4105 0.6995 0.5850
vn -0.0432 0.9965 -0.0717
vn -0.0819 0.9966 -0.0088
vn 0.0225 0.9967 0.0786
vn 0.2862 0.9344 0.2120
vn 0.0391 0.9965 0.0738
vn 0.0765 0.9970 0.0120
vn -0.4296 0.9026 -0.0278
vn 0.0520 0.9919 -0.1159
vn -0.2020 0.9554 0.2155
vn -0.0718 0.9640 -0.2559
vn -0.0927 0.9600 0.2641
vn -0.1978 0.9547 -0.2224
vn -0.9688 -0.2085 0.1340
vn -0.1935 0.9768 -0.0915
vn 0.9914 -0.0819 0.1023
vn 0.3559 0.9250 -0.1334
vn 0.9884 -0.1400 0.0592
vn 0.0171 0.9973 -0.0712
vn 0.0784 0.9969 -0.0050
vn 0.0510 0.9972 -0.0553
vn -0.0615 0.9635 0.2606
vn -0.0781 0.9968 -0.0175
vn 0.2369 0.9471 0.2164
vn 0.1406 0.9618 -0.2349
vn -0.0791 0.9969 -0.0039
vn -0.3849 0.9150 -0.1207
vn -0.5192 0.6774 0.5211
vn -0.0804 0.9965 -0.0218
vn 0.4075 0.9114 -0.0584
vn 0.1908 0.6890 -0.6992
vn 0.0884 0.9960 -0.0157
vn -0.0765 0.9970 0.0101
vn 0.4062 0.9001 -0.1572
vn -0.3659 0.7656 0.5291
vn -0.2081 0.9558 0.2079
vn 0.0443 0.9966 -0.0692
vn 0.0703 0.9974 0.0132
vn 0.0611 0.9972 0.0424
vn -0.0196 0.9968 0.0776
vn 0.0540 0.9686 -0.2426
vn 0.2958 0.9493 -0.1066
vn -0.9554 -0.2279 -0.1876
vn -0.0293 0.9970 0.0723
vn 0.9914 -0.1223 0.0472
vn -0.4246 0.9042 -0.0454
vn -0.2596 0.9621 -0.0835
vn 0.1688 0.9703 0.1734
vn 0.2975 0.6107 -0.7339
vn 0.3939 0.9171 0.0619
vn -0.0757 0.9970 0.0156
vn -0.3964 0.9164 0.0562
vn -0.3749 0.9265 -0.0329
vn 0.4169 0.9085 -0.0287
vn -0.2787 0.9603 0.0154
vn 0.0743 0.9627 0.2601
vn -0.3969 0.9121 -0.1025
vn 0.3813 0.9212 0.0775
vn -0.0526 0.9972 0.0525
vn 0.1867 0.7771 0.6010
vn 0.0758 0.9968 -0.0266
vn -0.4289 0.9031 -0.0212
vn 0.1072 0.9767 -0.1859
vn -0.0780 0.9969 -0.0051
vn 0.0585 0.9971 0.0495
vn 0.1368 0.9563 0.2585
vn -0.3574 0.9307 0.0785
vn 0.3485 0.7531 0.5580
vn -0.1374 0.8099 0.5703
vn -0.1805 0.9539 0.2397
vn 0.2373 0.9367 -0.2575
vn 0.0761 0.9970 -0.0101
vn -0.0213 0.9973 -0.0710
vn -0.1516 0.9613 -0.2302
vn -0.0444 0.9967 -0.0680
vn -0.0796 0.9968 -0.0079
vn 0.0233 0.9969 0.0754
vn 0.2881 0.9365 0.1998
vn 0.0398 0.9968 0.0694
vn 0.0743 0.9972 0.0108
vn -0.4283 0.9032 -0.0296
vn -0.0169 0.9952 0.0963
vn -0.0759 0.9645 -0.2529
vn -0.0977 0.9605 0.2607
s off
f 29/1/1 30/2/1 2/3/1
f 3/4/1 4/5/1 5/6/1
f 11/7/1 12/8/1 22/9/1
f 12/10/2 13/11/2 15/12/2
f 13/11/3 14/13/3 15/12/3
f 15/14/1 16/15/1 19/16/1
f 16/15/1 17/17/1 19/16/1
f 17/18/4 18/19/4 19/20/4
f 19/20/5 20/21/5 22/22/5
f 20/21/6 21/23/6 22/22/6
f 22/22/7 23/24/7 24/25/7
f 3/4/1 5/6/1 29/1/1
f 32/26/1 1/27/1 2/3/1
f 2/3/1 3/4/1 29/1/1
f 32/26/1 2/3/1 30/2/1
f 30/2/1 31/28/1 32/26/1
f 12/10/8 43/29/8 44/30/8
f 27/31/9 58/32/9 59/33/9
f 28/34/10 59/33/10 60/35/10
f 1/36/11 34/37/11 2/38/11
f 29/39/12 60/35/12 61/40/12
f 4/41/13 37/42/13 5/43/13
f 18/19/14 51/44/14 19/20/14
f 5/43/15 38/45/15 6/46/15
f 108/47/16 107/48/16 33/49/16
f 6/46/17 39/50/17 7/51/17
f 21/23/18 54/52/18 22/22/18
f 116/53/19 119/54/19 50/55/19
f 23/24/20 56/56/20 24/25/20
f 11/57/21 42/58/21 43/29/21
f 67/59/22 108/47/22 66/60/22
f 26/61/23 57/62/23 58/32/23
f 51/44/24 50/55/24 119/54/24
f 115/63/25 94/64/25 95/65/25
f 114/66/26 117/67/26 36/68/26
f 53/69/27 125/70/27 54/71/27
f 120/72/28 71/73/28 122/74/28
f 123/75/29 125/70/29 53/69/29
f 40/76/30 7/51/30 39/50/30
f 109/77/31 112/78/31 62/79/31
f 107/48/32 67/59/32 111/80/32
f 48/81/33 106/82/33 110/83/33
f 45/84/34 99/85/34 102/86/34
f 12/10/35 11/57/35 43/29/35
f 13/11/36 12/10/36 44/30/36
f 27/31/37 26/61/37 58/32/37
f 28/34/38 27/31/38 59/33/38
f 29/39/39 28/34/39 60/35/39
f 16/87/40 15/12/40 47/88/40
f 30/89/41 29/39/41 61/40/41
f 5/43/42 37/42/42 38/45/42
f 6/46/43 38/45/43 39/50/43
f 21/23/44 53/90/44 54/52/44
f 23/24/45 55/91/45 56/56/45
f 11/57/46 10/92/46 42/58/46
f 108/47/47 65/93/47 66/60/47
f 114/66/48 68/94/48 69/95/48
f 116/53/49 82/96/49 83/97/49
f 105/98/50 92/99/50 109/77/50
f 123/75/51 85/100/51 86/101/51
f 22/9/1 15/14/1 19/16/1
f 41/102/52 10/92/52 9/103/52
f 9/104/1 24/105/1 25/106/1
f 118/107/53 63/108/53 115/63/53
f 101/109/54 59/110/54 58/111/54
f 112/78/55 63/108/55 62/79/55
f 80/112/56 113/113/56 110/83/56
f 10/114/1 22/9/1 24/105/1
f 122/74/57 38/115/57 120/72/57
f 85/100/58 121/116/58 84/117/58
f 96/118/59 108/47/59 118/107/59
f 124/119/60 41/120/60 40/121/60
f 69/95/61 117/67/61 114/66/61
f 62/122/62 31/123/62 30/89/62
f 120/72/63 37/124/63 117/67/63
f 90/125/64 97/126/64 89/127/64
f 48/128/65 17/18/65 16/87/65
f 105/98/66 61/129/66 60/130/66
f 128/131/67 43/132/67 42/133/67
f 7/134/1 26/135/1 27/136/1
f 53/90/68 20/21/68 52/137/68
f 112/78/69 92/99/69 93/138/69
f 64/139/70 1/36/70 32/140/70
f 77/141/71 102/86/71 76/142/71
f 116/53/72 83/97/72 119/54/72
f 118/107/73 33/49/73 64/143/73
f 97/144/74 56/145/74 98/146/74
f 125/70/75 55/147/75 54/71/75
f 110/83/76 49/148/76 48/81/76
f 118/107/77 95/65/77 96/149/77
f 107/48/78 1/36/78 33/49/78
f 57/150/79 24/25/79 56/56/79
f 106/82/80 46/151/80 104/152/80
f 41/153/81 8/154/81 40/76/81
f 72/155/82 122/74/82 71/73/82
f 50/156/83 17/18/83 49/157/83
f 16/87/84 106/82/84 48/128/84
f 46/158/85 15/12/85 14/13/85
f 88/159/86 127/160/86 87/161/86
f 100/162/87 44/163/87 43/132/87
f 100/162/88 75/164/88 99/85/88
f 52/137/89 19/20/89 51/44/89
f 5/6/1 28/165/1 29/1/1
f 45/166/90 14/13/90 13/11/90
f 90/125/91 103/167/91 101/109/91
f 55/91/92 22/22/92 54/52/92
f 82/96/93 113/113/93 81/168/93
f 70/169/94 120/72/94 117/67/94
f 89/170/95 98/146/95 88/159/95
f 102/86/96 46/151/96 45/84/96
f 36/171/97 3/172/97 35/173/97
f 103/167/98 60/130/98 59/110/98
f 9/104/1 26/135/1 8/174/1
f 73/175/99 124/119/99 72/155/99
f 117/67/100 4/41/100 36/68/100
f 126/176/101 42/133/101 41/177/101
f 7/134/1 28/165/1 6/178/1
f 105/98/102 103/167/102 91/179/102
f 123/75/103 52/180/103 121/116/103
f 84/117/104 119/54/104 83/97/104
f 123/75/105 86/101/105 125/70/105
f 75/164/106 102/86/106 99/85/106
f 35/173/107 2/38/107 34/37/107
f 63/181/108 32/140/108 31/123/108
f 79/182/109 110/83/109 106/82/109
f 100/162/110 128/131/110 74/183/110
f 115/63/111 93/138/111 94/64/111
f 101/109/112 57/184/112 97/126/112
f 111/80/113 36/68/113 35/185/113
f 30/89/114 109/77/114 62/122/114
f 111/80/115 34/186/115 107/48/115
f 124/119/116 39/187/116 122/74/116
f 116/53/117 49/148/117 113/113/117
f 87/161/118 125/70/118 86/101/118
f 121/116/119 51/188/119 119/54/119
f 98/146/120 55/147/120 127/160/120
f 73/189/121 128/131/121 126/176/121
f 13/11/122 99/85/122 45/166/122
f 77/141/123 78/190/123 104/152/123
f 68/94/124 111/80/124 67/59/124
f 106/82/125 78/190/125 79/182/125
f 67/59/126 107/48/126 108/47/126
f 26/61/127 25/191/127 57/62/127
f 51/44/128 18/19/128 50/55/128
f 40/76/129 8/154/129 7/51/129
f 105/98/130 91/179/130 92/99/130
f 22/9/1 12/8/1 15/14/1
f 41/102/131 42/58/131 10/92/131
f 9/104/1 10/114/1 24/105/1
f 118/107/132 64/143/132 63/108/132
f 101/109/133 103/167/133 59/110/133
f 112/78/134 115/63/134 63/108/134
f 80/112/135 81/168/135 113/113/135
f 10/114/1 11/7/1 22/9/1
f 122/74/136 39/187/136 38/115/136
f 85/100/137 123/75/137 121/116/137
f 96/118/138 65/192/138 108/47/138
f 124/119/139 126/193/139 41/120/139
f 69/95/140 70/169/140 117/67/140
f 62/122/141 63/181/141 31/123/141
f 120/72/142 38/115/142 37/124/142
f 90/125/143 101/109/143 97/126/143
f 48/128/144 49/157/144 17/18/144
f 105/98/145 109/77/145 61/129/145
f 128/131/146 100/162/146 43/132/146
f 7/134/1 8/174/1 26/135/1
f 53/90/68 21/23/68 20/21/68
f 112/78/147 109/77/147 92/99/147
f 64/139/148 33/194/148 1/36/148
f 77/141/149 104/152/149 102/86/149
f 118/107/150 108/47/150 33/49/150
f 97/144/151 57/195/151 56/145/151
f 125/70/152 127/160/152 55/147/152
f 110/83/153 113/113/153 49/148/153
f 118/107/154 115/63/154 95/65/154
f 107/48/155 34/37/155 1/36/155
f 57/150/156 25/196/156 24/25/156
f 106/82/157 47/197/157 46/151/157
f 41/153/158 9/198/158 8/154/158
f 72/155/159 124/119/159 122/74/159
f 50/156/160 18/19/160 17/18/160
f 16/87/161 47/197/161 106/82/161
f 46/158/162 47/88/162 15/12/162
f 88/159/163 98/146/163 127/160/163
f 100/162/164 99/85/164 44/163/164
f 100/162/165 74/183/165 75/164/165
f 52/137/166 20/21/166 19/20/166
f 5/6/1 6/178/1 28/165/1
f 45/166/90 46/158/90 14/13/90
f 90/125/167 91/179/167 103/167/167
f 55/91/168 23/24/168 22/22/168
f 82/96/169 116/53/169 113/113/169
f 70/169/170 71/73/170 120/72/170
f 89/170/171 97/144/171 98/146/171
f 102/86/172 104/152/172 46/151/172
f 36/171/173 4/41/173 3/172/173
f 103/167/174 105/98/174 60/130/174
f 9/104/1 25/106/1 26/135/1
f 73/175/175 126/193/175 124/119/175
f 117/67/176 37/42/176 4/41/176
f 126/176/177 128/131/177 42/133/177
f 7/134/1 27/136/1 28/165/1
f 123/75/178 53/69/178 52/180/178
f 84/117/179 121/116/179 119/54/179
f 75/164/180 76/142/180 102/86/180
f 35/173/181 3/172/181 2/38/181
f 63/181/182 64/139/182 32/140/182
f 79/182/183 80/112/183 110/83/183
f 115/63/184 112/78/184 93/138/184
f 101/109/185 58/111/185 57/184/185
f 111/80/186 114/66/186 36/68/186
f 30/89/187 61/129/187 109/77/187
f 111/80/188 35/185/188 34/186/188
f 124/119/189 40/121/189 39/187/189
f 116/53/190 50/55/190 49/148/190
f 87/161/191 127/160/191 125/70/191
f 121/116/192 52/180/192 51/188/192
f 98/146/193 56/145/193 55/147/193
f 73/189/194 74/183/194 128/131/194
f 13/11/195 44/163/195 99/85/195
f 68/94/196 114/66/196 111/80/196
f 106/82/197 104/152/197 78/190/197
