# Blender v2.91.0 Beta OBJ File: 'HOUSE02.blend'
# www.blender.org
o tree.014
v 48.545567 0.024886 0.162376
v 49.897228 0.024878 5.262732
v 49.897228 0.024886 -1.111168
v 41.985523 0.024886 -1.111168
v 48.517475 0.024886 0.162376
v 49.837532 0.024886 -1.111168
v 1.580366 0.024886 0.162376
v 7.075975 0.024886 -1.111168
v 0.113560 0.024886 -1.111168
v 0.113560 0.024878 5.262732
v 8.307932 0.024886 0.162376
v 16.063711 0.024886 -1.111168
v 48.545567 0.024878 5.288249
v 25.508606 0.024886 0.162376
v 33.519669 0.024886 -1.111168
v 24.531929 0.024886 -1.111168
v 16.614538 0.024886 0.162376
v 42.706955 0.024886 0.162376
v 33.812885 0.024883 10.417158
v 41.985523 0.024882 11.690702
v 42.706955 0.024883 10.417158
v 1.580366 0.024878 5.288249
v 8.307932 0.024883 10.417158
v 16.063711 0.024882 11.690702
v 16.614538 0.024883 10.417158
v 0.113559 0.024878 5.316801
v 1.580367 0.024883 10.417158
v 1.580367 0.024878 5.291286
v 7.075976 0.024882 11.690702
v 48.517475 0.024883 10.417158
v 24.531929 0.024882 11.690702
v 25.508606 0.024883 10.417158
v 33.812885 0.024886 0.162376
v 33.517300 0.024886 -1.111168
v 33.519669 0.024882 11.690702
v 33.815216 0.024883 10.417158
v 48.545567 0.024883 10.417158
v 49.897228 0.024878 5.316801
v 48.545567 0.024878 5.291286
v 0.113559 0.024882 11.690702
v 49.837532 0.024882 11.690702
v 49.897228 0.024882 11.690702
v 33.815216 0.024886 0.162376
v 33.517300 0.024882 11.690702
v 0.000000 7.604414 10.579542
v 0.000000 9.913522 5.289773
v 0.000000 7.569498 5.289773
v 0.000000 0.024882 -0.000006
v 0.000000 2.054548 5.289771
v 0.000000 2.054556 -0.000006
v 25.000002 2.054553 10.579264
v 33.333336 7.604414 10.579542
v 25.000002 7.610200 10.579205
v 0.000000 2.054553 10.579540
v 49.999931 2.054548 5.289771
v 50.000004 0.024879 10.579540
v 49.999931 0.024876 5.289770
v 41.666672 2.054553 10.579264
v 50.000004 7.604414 10.579542
v 41.666672 7.610200 10.579205
v 41.666672 0.024879 10.579540
v 33.333336 2.054553 10.579540
v 33.333336 0.024879 10.579540
v 25.000002 10.024874 5.289773
v 16.666668 7.396290 11.156116
v 25.000002 7.396302 11.289772
v 16.666668 7.604414 10.579542
v 16.666668 2.054553 10.579540
v 8.333334 2.054553 10.579264
v 16.666668 0.024879 10.579540
v 25.000002 0.024879 10.579540
v 0.000000 0.024879 10.579540
v 8.333334 0.024879 10.579540
v 49.999931 2.054553 10.579540
v 41.666672 10.024874 5.289773
v 33.333336 7.396290 11.156116
v 41.666672 7.396302 11.289772
v 33.333336 0.024882 -0.000006
v 25.000002 2.054556 0.000270
v 33.333336 2.054556 -0.000006
v 49.999931 7.569498 5.289773
v 49.999931 2.054556 -0.000006
v 50.000004 7.604418 -0.000007
v 8.333334 10.024874 5.289773
v 0.000000 7.396290 11.156116
v 8.333334 7.396302 11.289772
v 49.999931 9.913522 5.289773
v 8.333334 7.610200 10.579205
v 16.666668 7.396294 -0.576581
v 16.666668 9.998060 5.289773
v 50.000004 7.396294 -0.576581
v 50.000004 9.998060 5.289773
v 33.333336 7.396294 -0.576581
v 33.333336 9.998060 5.289773
v 16.666668 0.024882 -0.000006
v 8.333334 2.054556 0.000270
v 16.666668 2.054556 -0.000006
v 16.666668 7.604418 -0.000007
v 50.000004 7.396290 11.156116
v 41.666672 2.054556 0.000270
v 33.333336 7.604418 -0.000007
v 41.666672 7.610204 0.000330
v 0.000000 7.396294 -0.576581
v 0.000000 9.998060 5.289773
v 41.666672 0.024882 -0.000006
v 8.333334 0.024882 -0.000006
v 25.000002 0.024882 -0.000006
v 0.000000 7.604418 -0.000007
v 8.333334 7.610204 0.000330
v 25.000002 7.610204 0.000330
v 50.000004 0.024882 -0.000006
v 0.000000 0.024876 5.289770
v 8.333334 7.396306 -0.710237
v 41.666672 7.396306 -0.710237
v 25.000002 7.396306 -0.710237
v 48.526730 0.024886 0.162376
v 49.878109 0.024886 -1.111168
v 48.526730 0.024883 10.417158
v 49.878109 0.024882 11.690702
v 49.859058 0.024882 11.690702
v 48.538685 0.024883 10.417158
v 49.859058 0.024886 -1.111168
v 48.538685 0.024886 0.162376
vt 0.699707 0.383301
vt 0.691895 0.436035
vt 0.691895 0.379395
vt 0.749512 0.437012
vt 0.734863 0.491699
vt 0.749512 0.488770
vt 0.734863 0.389160
vt 0.749512 0.437012
vt 0.749512 0.385254
vt 0.691895 0.436035
vt 0.699707 0.383301
vt 0.691895 0.379395
vt 0.734863 0.439941
vt 0.749512 0.488770
vt 0.699707 0.436035
vt 0.734863 0.439941
vt 0.749512 0.488770
vt 0.749512 0.437012
vt 0.734863 0.389160
vt 0.749512 0.385254
vt 0.734863 0.439941
vt 0.734863 0.389160
vt 0.749512 0.437012
vt 0.734863 0.439941
vt 0.699707 0.436035
vt 0.734863 0.491699
vt 0.734863 0.439941
vt 0.749512 0.488770
vt 0.734863 0.491699
vt 0.691895 0.436035
vt 0.699707 0.383301
vt 0.699707 0.436035
vt 0.734863 0.389160
vt 0.749512 0.437012
vt 0.734863 0.491699
vt 0.734863 0.389160
vt 0.749512 0.437012
vt 0.734863 0.439941
vt 0.734863 0.389160
vt 0.749512 0.385254
vt 0.749512 0.488770
vt 0.734863 0.491699
vt 0.699707 0.383301
vt 0.691895 0.436035
vt 0.699707 0.436035
vt 0.691895 0.379395
vt 0.749512 0.385254
vt 0.749512 0.488770
vt 0.691895 0.379395
vt 0.734863 0.491699
vt 0.749512 0.385254
vt 0.749512 0.385254
vt 0.011230 0.701660
vt 0.124512 0.723145
vt 0.116699 0.700684
vt 0.246582 0.000488
vt 0.175289 0.021973
vt 0.246582 0.021973
vt 0.123535 0.188965
vt 0.000488 0.212402
vt 0.123535 0.212402
vt 0.254395 0.187988
vt 0.171387 0.209473
vt 0.171387 0.187988
vt 0.175289 0.021973
vt 0.246582 0.000488
vt 0.175288 0.000488
vt 0.123535 0.188965
vt 0.000488 0.212402
vt 0.123535 0.212402
vt 0.123025 0.000488
vt -0.000488 0.021973
vt -0.000488 0.000488
vt 0.127028 0.926963
vt 0.020996 0.816895
vt 0.127043 0.813976
vt 0.000488 0.212402
vt 0.000488 0.188965
vt 0.123535 0.187988
vt 0.000488 0.211426
vt 0.000488 0.187988
vt 0.123041 0.021973
vt -0.000488 0.000488
vt 0.123025 0.000488
vt 0.123041 0.021973
vt -0.000488 0.000488
vt 0.123025 0.000488
vt -0.000488 0.021973
vt -0.000488 0.000488
vt 0.127028 0.926963
vt 0.020996 0.816895
vt 0.127043 0.813976
vt -0.000488 0.000488
vt 0.123041 0.021973
vt -0.000488 0.021973
vt 0.171387 0.149902
vt 0.254395 0.126465
vt 0.254395 0.149902
vt 0.127028 0.926963
vt 0.020996 0.816895
vt 0.127043 0.813976
vt 0.011230 0.701660
vt 0.124512 0.723145
vt 0.116699 0.700684
vt 0.000488 0.188965
vt 0.000488 0.211426
vt 0.123535 0.211426
vt 0.020996 0.816895
vt 0.020996 0.927246
vt 0.020996 0.816895
vt 0.020996 0.927246
vt 0.020996 0.816895
vt 0.020996 0.927246
vt -0.000488 0.021973
vt -0.000488 0.000488
vt 0.123041 0.021973
vt -0.000488 0.021973
vt 0.123535 0.187988
vt 0.000488 0.211426
vt 0.000488 0.187988
vt 0.020996 0.816895
vt 0.011230 0.701660
vt 0.123535 0.188965
vt 0.000488 0.212402
vt 0.123535 0.212402
vt 0.254395 0.126465
vt 0.171387 0.126465
vt 0.020996 0.816895
vt 0.020996 0.927246
vt -0.000488 0.021973
vt 0.123025 0.000488
vt 0.123041 0.021973
vt -0.000488 0.000488
vt 0.123025 0.000488
vt 0.123025 0.000488
vt 0.000488 0.211426
vt 0.123535 0.211426
vt 0.123535 0.188965
vt 0.000488 0.212402
vt 0.123535 0.212402
vt 0.000488 0.212402
vt 0.000488 0.188965
vt 0.246582 0.000488
vt 0.246582 0.021973
vt 0.254395 0.187988
vt 0.254395 0.209473
vt 0.000488 0.188965
vt 0.011230 0.701660
vt 0.246582 0.000488
vt 0.175288 0.000488
vt 0.254395 0.209473
vt 0.246582 0.021973
vt 0.000488 0.188965
vt 0.123041 0.021973
vt -0.000488 0.021973
vt 0.000488 0.187988
vt 0.127043 0.813976
vt 0.127043 0.813976
vt 0.127043 0.813976
vt 0.254395 0.149902
vt -0.000488 0.000488
vt -0.000488 0.021973
vt 0.000488 0.187988
vt 0.000488 0.188965
vt 0.246582 0.021973
vn 0.0000 1.0000 0.0000
vn -1.0000 0.0000 0.0000
vn 0.0000 0.0001 1.0000
vn -0.0000 0.0000 1.0000
vn 1.0000 0.0000 0.0000
vn -0.1507 0.9636 0.2209
vn -0.0051 0.8883 0.4592
vn -0.0001 0.8930 0.4500
vn -0.1519 0.9826 0.1070
vn -0.0000 0.0000 -1.0000
vn 0.0000 0.0001 -1.0000
vn -0.1519 0.9826 0.1069
vn -0.0568 0.9135 -0.4029
vn 0.1109 0.9590 -0.2607
vn -0.1449 0.9894 -0.0045
vn 0.0663 0.9129 0.4028
vn 0.0655 0.9129 0.4029
vn -0.0044 0.9380 -0.3465
vn 0.0796 0.9726 0.2186
vn -0.0029 0.9377 -0.3473
vn 0.0001 0.9361 -0.3516
vn 0.0648 0.9124 0.4042
vn -0.0069 0.9384 -0.3455
s off
f 1/1/1 2/2/1 3/3/1
f 4/4/1 5/5/1 6/6/1
f 7/7/1 8/8/1 9/9/1
f 10/10/1 7/11/1 9/12/1
f 11/13/1 12/14/1 8/8/1
f 1/1/1 13/15/1 2/2/1
f 14/16/1 15/17/1 16/18/1
f 17/19/1 16/18/1 12/20/1
f 4/4/1 18/21/1 5/5/1
f 19/22/1 20/23/1 21/24/1
f 7/7/1 11/13/1 8/8/1
f 10/10/1 22/25/1 7/11/1
f 11/13/1 17/26/1 12/14/1
f 23/27/1 24/28/1 25/29/1
f 26/30/1 27/31/1 28/32/1
f 27/33/1 29/34/1 23/27/1
f 20/23/1 30/35/1 21/24/1
f 25/36/1 31/37/1 32/38/1
f 33/39/1 4/4/1 34/40/1
f 32/38/1 35/41/1 36/42/1
f 37/43/1 38/44/1 39/45/1
f 23/27/1 29/34/1 24/28/1
f 26/30/1 40/46/1 27/31/1
f 27/33/1 40/47/1 29/34/1
f 20/23/1 41/48/1 30/35/1
f 37/43/1 42/49/1 38/44/1
f 14/16/1 43/50/1 15/17/1
f 17/19/1 14/16/1 16/18/1
f 19/22/1 44/51/1 20/23/1
f 25/36/1 24/52/1 31/37/1
f 33/39/1 18/21/1 4/4/1
f 32/38/1 31/37/1 35/41/1
s 1
f 45/53/2 46/54/2 47/55/2
f 48/56/2 49/57/2 50/58/2
f 51/59/3 52/60/4 53/61/4
f 54/62/2 47/63/2 49/64/2
f 55/65/5 56/66/5 57/67/5
f 58/68/3 59/69/4 60/70/4
f 61/71/3 62/72/4 63/73/4
f 64/74/6 65/75/7 66/76/8
f 51/59/3 67/77/4 68/78/4
f 69/79/3 45/80/4 54/81/4
f 51/82/3 70/83/4 71/84/3
f 69/85/3 72/86/4 73/87/3
f 74/88/4 61/71/3 56/89/4
f 75/90/9 76/91/7 77/92/8
f 78/93/10 79/94/11 80/95/10
f 81/96/5 82/97/5 83/98/5
f 84/99/12 85/100/7 86/101/8
f 83/102/5 87/103/5 81/104/5
f 58/68/3 52/60/4 62/105/4
f 69/79/3 67/106/4 88/107/4
f 89/108/13 84/99/12 90/109/14
f 91/110/13 75/90/9 92/111/14
f 93/112/13 64/74/15 94/113/14
f 69/85/3 70/83/4 68/114/4
f 95/115/10 96/116/11 97/117/10
f 76/91/16 64/74/6 66/76/8
f 96/118/11 98/119/10 97/120/10
f 99/121/17 75/90/9 77/92/8
f 65/75/16 84/99/12 86/101/8
f 59/122/5 81/104/5 87/103/5
f 100/123/11 101/124/10 102/125/10
f 81/96/5 74/126/5 55/127/5
f 51/82/3 63/73/4 62/72/4
f 84/99/12 103/128/18 104/129/19
f 75/90/9 93/112/20 94/113/19
f 82/130/10 105/131/11 100/132/11
f 48/133/11 96/116/11 106/134/11
f 95/115/10 79/94/11 107/135/11
f 96/118/11 108/136/10 109/137/10
f 79/138/11 98/139/10 110/140/10
f 64/74/6 89/108/20 90/109/19
f 78/93/10 100/132/11 105/131/11
f 100/123/11 83/141/10 82/142/10
f 55/65/5 111/143/5 82/144/5
f 50/145/2 47/63/2 108/146/2
f 79/138/11 101/124/10 80/147/10
f 108/148/2 47/55/2 46/54/2
f 72/149/2 49/57/2 112/150/2
f 48/56/2 112/150/2 49/57/2
f 51/59/3 62/105/4 52/60/4
f 54/62/2 45/151/2 47/63/2
f 55/65/5 74/152/5 56/66/5
f 58/68/3 74/153/4 59/69/4
f 61/71/3 58/154/3 62/72/4
f 64/74/6 90/109/19 65/75/7
f 51/59/3 53/61/4 67/77/4
f 69/79/3 88/107/4 45/80/4
f 51/82/3 68/114/4 70/83/4
f 69/85/3 54/155/4 72/86/4
f 74/88/4 58/154/3 61/71/3
f 75/90/9 94/113/19 76/91/7
f 78/93/10 107/135/11 79/94/11
f 81/96/5 55/127/5 82/97/5
f 84/99/12 104/129/19 85/100/7
f 58/68/3 60/70/4 52/60/4
f 69/79/3 68/156/4 67/106/4
f 89/108/13 113/157/21 84/99/12
f 91/110/13 114/158/21 75/90/9
f 93/112/13 115/159/21 64/74/15
f 69/85/3 73/87/3 70/83/4
f 95/115/10 106/134/11 96/116/11
f 76/91/22 94/113/14 64/74/15
f 96/118/11 109/137/10 98/119/10
f 99/121/17 92/111/14 75/90/9
f 65/75/22 90/109/14 84/99/12
f 100/123/11 80/147/10 101/124/10
f 81/96/5 59/160/5 74/126/5
f 51/82/3 71/84/3 63/73/4
f 84/99/12 113/157/21 103/128/18
f 75/90/9 114/158/21 93/112/23
f 82/130/10 111/161/10 105/131/11
f 48/133/10 50/162/10 96/116/11
f 95/115/10 97/117/10 79/94/11
f 96/118/11 50/163/10 108/136/10
f 79/138/11 97/164/10 98/139/10
f 64/74/15 115/159/21 89/108/23
f 78/93/10 80/95/10 100/132/11
f 100/123/11 102/125/10 83/141/10
f 55/65/5 57/67/5 111/143/5
f 50/145/2 49/64/2 47/63/2
f 79/138/11 110/140/10 101/124/10
f 72/149/2 54/165/2 49/57/2
l 116 117
l 118 119
l 120 121
l 122 123
