# Blender v2.91.0 Beta OBJ File: 'HOUSE02.blend'
# www.blender.org
o tree.011
v 2.370331 7.604420 10.579542
v 2.370331 9.913525 5.289773
v 2.370331 7.569501 5.289773
v 2.370331 2.054558 10.579540
v 2.370331 2.054551 5.289771
v 10.703665 2.054564 0.000276
v 19.036999 7.604426 0.000002
v 19.036999 2.054564 -0.000001
v 10.703665 2.054558 10.579264
v 19.036999 7.604420 10.579542
v 10.703665 7.610206 10.579205
v 2.370331 2.054564 -0.000001
v 2.370331 -1.318746 10.579540
v 2.370331 -1.318751 5.289770
v 19.036999 2.054558 10.579540
v 10.703665 -1.318746 10.579540
v 19.036999 -1.318746 10.579540
v 2.370331 -1.318740 -0.000001
v 2.370331 7.604426 0.000002
v 10.703665 7.610212 0.000339
v 10.703665 -1.318740 -0.000001
v 19.036999 -1.318740 -0.000001
v 19.036999 7.396296 11.156116
v 10.703665 10.024877 5.289773
v 10.703665 7.396308 11.289772
v 19.036999 7.396302 -0.576576
v 10.703665 7.396314 -0.710228
v 2.370331 7.396302 -0.576576
v 2.370331 7.396296 11.156116
v 27.370333 2.054564 0.000276
v 35.703667 7.604426 0.000002
v 35.703667 2.054564 -0.000001
v 27.370333 2.054558 10.579264
v 35.703667 7.604420 10.579542
v 27.370333 7.610206 10.579205
v 35.703667 2.054558 10.579540
v 27.370333 -1.318746 10.579540
v 35.703667 -1.318746 10.579540
v 27.370333 7.610212 0.000339
v 27.370333 -1.318740 -0.000001
v 35.703667 -1.318740 -0.000001
v 35.703667 7.396296 11.156116
v 27.370333 10.024877 5.289773
v 27.370333 7.396308 11.289772
v 35.703667 7.396302 -0.576576
v 27.370333 7.396314 -0.710228
v 44.037003 2.054564 0.000276
v 52.370262 7.604426 0.000002
v 52.370335 2.054564 -0.000001
v 44.037003 2.054558 10.579264
v 52.370335 7.604420 10.579542
v 44.037003 7.610206 10.579205
v 52.370262 2.054558 10.579540
v 44.037003 -1.318746 10.579540
v 52.370335 -1.318746 10.579540
v 44.037003 7.610212 0.000339
v 44.037003 -1.318740 -0.000001
v 52.370335 -1.318740 -0.000001
v 52.370335 7.396296 11.156116
v 44.037003 10.024877 5.289773
v 44.037003 7.396308 11.289772
v 52.370335 7.396302 -0.576576
v 44.037003 7.396314 -0.710228
v 60.703598 2.054564 0.000276
v 69.036926 7.604426 0.000002
v 69.036926 2.054564 -0.000001
v 60.703598 2.054558 10.579264
v 69.036926 7.604420 10.579542
v 60.703598 7.610206 10.579205
v 52.370262 7.604420 10.579542
v 52.370262 2.054558 10.579540
v 69.036926 2.054558 10.579540
v 60.703598 0.024884 10.579540
v 69.036926 0.024884 10.579540
v 52.370262 7.604426 0.000002
v 60.703598 7.610212 0.000339
v 60.703598 0.024890 -0.000001
v 69.036926 0.024890 -0.000001
v 52.370262 0.024884 10.579540
v 52.370262 2.054564 -0.000001
v 52.370262 0.024890 -0.000001
v 69.036926 7.396296 11.156116
v 60.703598 10.024877 5.289773
v 60.703598 7.396308 11.289772
v 69.036926 7.396302 -0.576576
v 60.703598 7.396314 -0.710228
v 52.370262 7.396302 -0.576576
v 52.370262 7.396296 11.156116
v 77.370262 2.054564 0.000276
v 85.703598 7.604426 0.000002
v 85.703598 2.054564 -0.000001
v 77.370262 2.054558 10.579264
v 85.703598 7.604420 10.579542
v 77.370262 7.610206 10.579205
v 85.703598 2.054558 10.579540
v 77.370262 0.024884 10.579540
v 85.703598 0.024884 10.579540
v 77.370262 7.610212 0.000339
v 77.370262 0.024890 -0.000001
v 85.703598 0.024890 -0.000001
v 85.703598 7.396296 11.156116
v 77.370262 10.024877 5.289773
v 77.370262 7.396308 11.289772
v 85.703598 7.396302 -0.576576
v 77.370262 7.396314 -0.710228
v 94.036934 2.054564 0.000276
v 102.370193 7.604426 0.000002
v 102.370270 2.054564 -0.000001
v 94.036934 2.054558 10.579264
v 102.370270 7.604420 10.579542
v 94.036934 7.610206 10.579205
v 102.370193 2.054558 10.579540
v 94.036934 0.024884 10.579540
v 102.370270 0.024884 10.579540
v 94.036934 7.610212 0.000339
v 94.036934 0.024890 -0.000001
v 102.370270 0.024890 -0.000001
v 102.370270 7.396296 11.156116
v 94.036934 10.024877 5.289773
v 94.036934 7.396308 11.289772
v 102.370270 7.396302 -0.576576
v 94.036934 7.396314 -0.710228
v 102.370193 7.569501 5.289773
v 102.370193 9.913525 5.289773
v 102.370193 2.054551 5.289771
v 102.370193 0.024879 5.289770
v 19.036999 9.998063 5.289773
v 2.370331 9.998063 5.289773
v 35.703667 9.998063 5.289773
v 52.370335 9.998063 5.289773
v 69.036926 9.998063 5.289773
v 52.370262 9.998063 5.289773
v 85.703598 9.998063 5.289773
v 102.370270 9.998063 5.289773
vt 0.011230 0.701660
vt 0.124512 0.723145
vt 0.116699 0.700684
vt 0.254395 0.147949
vt 0.171644 0.204590
vt 0.171644 0.147949
vt 0.184076 0.147949
vt 0.061035 0.204590
vt 0.061035 0.147949
vt 0.123535 0.147949
vt 0.000488 0.204590
vt 0.123535 0.204590
vt 0.000488 0.204590
vt 0.000488 0.147949
vt 0.254395 0.147949
vt 0.246582 0.000488
vt 0.175289 0.021973
vt 0.175288 0.000488
vt -0.000488 0.021973
vt 0.123025 0.000488
vt -0.000488 0.000488
vt 0.246582 0.000488
vt 0.061035 0.204590
vt 0.184080 0.204590
vt 0.123025 0.000488
vt -0.000488 0.021973
vt -0.000488 0.000488
vt 0.132324 0.700684
vt 0.236816 0.701660
vt -0.000488 0.021973
vt -0.000488 0.000488
vt -0.000488 0.021973
vt -0.000488 0.000488
vt 0.020996 0.816895
vt 0.127028 0.926963
vt 0.127043 0.813976
vt 0.020996 0.816895
vt 0.127043 0.813976
vt 0.020996 0.816895
vt 0.020996 0.816895
vt 0.184076 0.147949
vt 0.061035 0.204590
vt 0.061035 0.147949
vt 0.123535 0.147949
vt 0.000488 0.204590
vt 0.123535 0.204590
vt 0.000488 0.147949
vt -0.000488 0.021973
vt 0.123025 0.000488
vt -0.000488 0.000488
vt 0.184080 0.204590
vt 0.123025 0.000488
vt -0.000488 0.021973
vt -0.000488 0.000488
vt 0.020996 0.816895
vt 0.127028 0.926963
vt 0.127043 0.813976
vt 0.020996 0.816895
vt 0.127043 0.813976
vt 0.184076 0.147949
vt 0.061035 0.204590
vt 0.061035 0.147949
vt 0.123535 0.147949
vt 0.000488 0.204590
vt 0.123535 0.204590
vt 0.000488 0.147949
vt -0.000488 0.021973
vt 0.123025 0.000488
vt -0.000488 0.000488
vt 0.184080 0.204590
vt 0.123025 0.000488
vt -0.000488 0.021973
vt -0.000488 0.000488
vt 0.020996 0.816895
vt 0.127028 0.926963
vt 0.127043 0.813976
vt 0.020996 0.816895
vt 0.127043 0.813976
vt 0.184076 0.147949
vt 0.061035 0.204590
vt 0.061035 0.147949
vt 0.123535 0.147949
vt 0.000488 0.204590
vt 0.123535 0.204590
vt 0.000488 0.204590
vt 0.000488 0.147949
vt -0.000488 0.021973
vt 0.123025 0.000488
vt -0.000488 0.000488
vt 0.061035 0.204590
vt 0.184080 0.204590
vt 0.123025 0.000488
vt -0.000488 0.021973
vt -0.000488 0.000488
vt -0.000488 0.021973
vt -0.000488 0.000488
vt -0.000488 0.021973
vt -0.000488 0.000488
vt 0.020996 0.816895
vt 0.127028 0.926963
vt 0.127043 0.813976
vt 0.020996 0.816895
vt 0.127043 0.813976
vt 0.020996 0.816895
vt 0.020996 0.816895
vt 0.184076 0.147949
vt 0.061035 0.204590
vt 0.061035 0.147949
vt 0.123535 0.147949
vt 0.000488 0.204590
vt 0.123535 0.204590
vt 0.000488 0.147949
vt -0.000488 0.021973
vt 0.123025 0.000488
vt -0.000488 0.000488
vt 0.184080 0.204590
vt 0.123025 0.000488
vt -0.000488 0.021973
vt -0.000488 0.000488
vt 0.020996 0.816895
vt 0.127028 0.926963
vt 0.127043 0.813976
vt 0.020996 0.816895
vt 0.127043 0.813976
vt 0.184076 0.147949
vt 0.061035 0.204590
vt 0.061035 0.147949
vt 0.123535 0.147949
vt 0.000488 0.204590
vt 0.123535 0.204590
vt 0.000488 0.147949
vt -0.000488 0.021973
vt 0.123025 0.000488
vt -0.000488 0.000488
vt 0.184080 0.204590
vt 0.123025 0.000488
vt -0.000488 0.021973
vt -0.000488 0.000488
vt 0.020996 0.816895
vt 0.127028 0.926963
vt 0.127043 0.813976
vt 0.020996 0.816895
vt 0.127043 0.813976
vt 0.011230 0.701660
vt 0.116699 0.700684
vt 0.124512 0.723145
vt 0.171644 0.204590
vt 0.254395 0.147949
vt 0.171644 0.147949
vt 0.254395 0.147949
vt 0.175289 0.021973
vt 0.246582 0.000488
vt 0.175288 0.000488
vt 0.246582 0.000488
vt 0.132324 0.700684
vt 0.236816 0.701660
vt 0.254395 0.204590
vt 0.254395 0.204590
vt 0.246582 0.021973
vt 0.123041 0.021973
vt 0.246582 0.021973
vt 0.061035 0.147949
vt 0.123041 0.021973
vt 0.020996 0.927246
vt 0.020996 0.927246
vt 0.123041 0.021973
vt 0.123041 0.021973
vt 0.020996 0.927246
vt 0.000488 0.147949
vt 0.123041 0.021973
vt 0.123041 0.021973
vt 0.020996 0.927246
vt 0.123041 0.021973
vt 0.061035 0.147949
vt 0.123041 0.021973
vt 0.020996 0.927246
vt 0.020996 0.927246
vt 0.123041 0.021973
vt 0.123041 0.021973
vt 0.020996 0.927246
vt 0.000488 0.147949
vt 0.123041 0.021973
vt 0.123041 0.021973
vt 0.020996 0.927246
vt 0.254395 0.204590
vt 0.254395 0.204590
vt 0.246582 0.021973
vt 0.246582 0.021973
vn -1.0000 0.0000 0.0000
vn 0.0000 0.0000 -1.0000
vn 0.0000 0.0000 1.0000
vn 0.0000 0.0001 1.0000
vn 0.0000 0.0001 -1.0000
vn 0.0665 0.9129 0.4026
vn -0.0000 0.9984 0.0572
vn -0.0001 0.8925 0.4511
vn 0.0053 0.8885 -0.4589
vn -0.0309 0.8929 -0.4492
vn -0.0657 0.9130 -0.4027
vn -0.0053 0.8885 0.4589
vn -0.0029 0.9857 0.1682
vn 0.0059 0.9984 -0.0567
vn -0.0665 0.9129 -0.4026
vn 0.0657 0.9130 0.4027
vn 1.0000 0.0000 -0.0000
vn 0.0650 0.9124 0.4040
vn 0.0554 0.9982 -0.0235
vn -0.0554 0.9982 0.0235
vn -0.0650 0.9124 -0.4040
s 1
f 1/1/1 2/2/1 3/3/1
f 4/4/1 3/5/1 5/6/1
f 6/7/2 7/8/2 8/9/2
f 9/10/3 10/11/3 11/12/3
f 9/10/3 1/13/3 4/14/3
f 3/5/1 12/15/1 5/6/1
f 13/16/1 5/17/1 14/18/1
f 15/19/3 16/20/4 17/21/3
f 5/17/1 18/22/1 14/18/1
f 6/7/2 19/23/2 20/24/2
f 21/25/5 8/26/2 22/27/2
f 3/28/1 2/2/1 19/29/1
f 16/20/4 4/30/3 13/31/3
f 12/32/2 21/25/5 18/33/2
f 23/34/6 24/35/7 25/36/8
f 24/35/7 26/37/9 27/38/10
f 28/39/11 24/35/7 27/38/10
f 24/35/7 29/40/12 25/36/8
f 30/41/2 31/42/2 32/43/2
f 33/44/3 34/45/3 35/46/3
f 33/44/3 10/11/3 15/47/3
f 36/48/3 37/49/4 38/50/3
f 30/41/2 7/8/2 39/51/2
f 40/52/5 32/53/2 41/54/2
f 37/49/4 15/19/3 17/21/3
f 8/26/2 40/52/5 22/27/2
f 42/55/6 43/56/13 44/57/8
f 43/56/14 45/58/9 46/59/10
f 26/37/15 43/56/14 46/59/10
f 43/56/13 23/34/12 44/57/8
f 47/60/2 48/61/2 49/62/2
f 50/63/3 51/64/3 52/65/3
f 50/63/3 34/45/3 36/66/3
f 53/67/3 54/68/4 55/69/3
f 47/60/2 31/42/2 56/70/2
f 57/71/5 49/72/2 58/73/2
f 54/68/4 36/48/3 38/50/3
f 32/53/2 57/71/5 41/54/2
f 59/74/16 60/75/7 61/76/8
f 60/75/7 62/77/9 63/78/10
f 45/58/15 60/75/7 63/78/10
f 60/75/7 42/55/12 61/76/8
f 64/79/5 65/80/2 66/81/2
f 67/82/4 68/83/3 69/84/3
f 67/82/4 70/85/3 71/86/3
f 72/87/3 73/88/4 74/89/3
f 64/79/5 75/90/2 76/91/2
f 77/92/5 66/93/2 78/94/2
f 73/88/4 71/95/3 79/96/3
f 80/97/2 77/92/5 81/98/2
f 82/99/6 83/100/7 84/101/8
f 83/100/7 85/102/9 86/103/10
f 87/104/11 83/100/7 86/103/10
f 83/100/7 88/105/12 84/101/8
f 89/106/5 90/107/2 91/108/2
f 92/109/4 93/110/3 94/111/3
f 92/109/4 68/83/3 72/112/3
f 95/113/3 96/114/4 97/115/3
f 89/106/5 65/80/2 98/116/2
f 99/117/5 91/118/2 100/119/2
f 96/114/4 72/87/3 74/89/3
f 66/93/2 99/117/5 78/94/2
f 101/120/6 102/121/13 103/122/8
f 102/121/14 104/123/9 105/124/10
f 85/102/15 102/121/14 105/124/10
f 102/121/13 82/99/12 103/122/8
f 106/125/5 107/126/2 108/127/2
f 109/128/4 110/129/3 111/130/3
f 109/128/4 93/110/3 95/131/3
f 112/132/3 113/133/4 114/134/3
f 106/125/5 90/107/2 115/135/2
f 116/136/5 108/137/2 117/138/2
f 113/133/4 95/113/3 97/115/3
f 91/118/2 116/136/5 100/119/2
f 118/139/16 119/140/7 120/141/8
f 119/140/7 121/142/9 122/143/10
f 104/123/15 119/140/7 122/143/10
f 119/140/7 101/120/12 120/141/8
f 110/144/17 123/145/17 124/146/17
f 123/147/17 112/148/17 125/149/17
f 108/150/17 123/147/17 125/149/17
f 125/151/17 114/152/17 126/153/17
f 117/154/17 125/151/17 126/153/17
f 123/155/17 107/156/17 124/146/17
f 4/4/1 1/157/1 3/5/1
f 6/7/2 20/24/2 7/8/2
f 9/10/3 15/47/3 10/11/3
f 9/10/3 11/12/3 1/13/3
f 3/5/1 19/158/1 12/15/1
f 13/16/1 4/159/1 5/17/1
f 15/19/3 9/160/3 16/20/4
f 5/17/1 12/161/1 18/22/1
f 6/7/2 12/162/2 19/23/2
f 21/25/5 6/163/2 8/26/2
f 16/20/4 9/160/3 4/30/3
f 12/32/2 6/163/2 21/25/5
f 23/34/18 127/164/19 24/35/7
f 24/35/7 127/164/19 26/37/9
f 28/39/11 128/165/20 24/35/7
f 24/35/7 128/165/20 29/40/12
f 30/41/2 39/51/2 31/42/2
f 33/44/3 36/66/3 34/45/3
f 33/44/3 35/46/3 10/11/3
f 36/48/3 33/166/3 37/49/4
f 30/41/2 8/9/2 7/8/2
f 40/52/5 30/167/2 32/53/2
f 37/49/4 33/166/3 15/19/3
f 8/26/2 30/167/2 40/52/5
f 42/55/18 129/168/19 43/56/14
f 43/56/14 129/168/19 45/58/9
f 26/37/21 127/164/20 43/56/13
f 43/56/13 127/164/20 23/34/12
f 47/60/2 56/70/2 48/61/2
f 50/63/3 53/169/3 51/64/3
f 50/63/3 52/65/3 34/45/3
f 53/67/3 50/170/3 54/68/4
f 47/60/2 32/43/2 31/42/2
f 57/71/5 47/171/2 49/72/2
f 54/68/4 50/170/3 36/48/3
f 32/53/2 47/171/2 57/71/5
f 59/74/16 130/172/19 60/75/7
f 60/75/7 130/172/19 62/77/9
f 45/58/21 129/168/20 60/75/7
f 60/75/7 129/168/20 42/55/12
f 64/79/5 76/91/2 65/80/2
f 67/82/4 72/112/3 68/83/3
f 67/82/4 69/84/3 70/85/3
f 72/87/3 67/173/4 73/88/4
f 64/79/5 80/174/2 75/90/2
f 77/92/5 64/175/5 66/93/2
f 73/88/4 67/173/4 71/95/3
f 80/97/2 64/175/5 77/92/5
f 82/99/18 131/176/19 83/100/7
f 83/100/7 131/176/19 85/102/9
f 87/104/11 132/177/20 83/100/7
f 83/100/7 132/177/20 88/105/12
f 89/106/5 98/116/2 90/107/2
f 92/109/4 95/131/3 93/110/3
f 92/109/4 94/111/3 68/83/3
f 95/113/3 92/178/4 96/114/4
f 89/106/5 66/81/2 65/80/2
f 99/117/5 89/179/5 91/118/2
f 96/114/4 92/178/4 72/87/3
f 66/93/2 89/179/5 99/117/5
f 101/120/18 133/180/19 102/121/14
f 102/121/14 133/180/19 104/123/9
f 85/102/21 131/176/20 102/121/13
f 102/121/13 131/176/20 82/99/12
f 106/125/5 115/135/2 107/126/2
f 109/128/4 112/181/3 110/129/3
f 109/128/4 111/130/3 93/110/3
f 112/132/3 109/182/4 113/133/4
f 106/125/5 91/108/2 90/107/2
f 116/136/5 106/183/5 108/137/2
f 113/133/4 109/182/4 95/113/3
f 91/118/2 106/183/5 116/136/5
f 118/139/16 134/184/19 119/140/7
f 119/140/7 134/184/19 121/142/9
f 104/123/21 133/180/20 119/140/7
f 119/140/7 133/180/20 101/120/12
f 123/147/17 110/185/17 112/148/17
f 108/150/17 107/186/17 123/147/17
f 125/151/17 112/187/17 114/152/17
f 117/154/17 108/188/17 125/151/17
o tree.002_tree.010
v 10.837296 0.024884 10.417158
v 18.593075 0.024884 11.690702
v 19.143902 0.024884 10.417158
v 2.927849 0.024879 5.316801
v 4.394657 0.024884 10.417158
v 4.394657 0.024879 5.291286
v 10.837296 0.024890 0.064666
v 18.593071 0.024890 -1.171058
v 9.605339 0.024890 -1.171058
v 9.605339 0.024884 11.690702
v 28.037970 0.024884 10.417158
v 36.049030 0.024884 11.690702
v 36.344578 0.024884 10.417158
v 27.061293 0.024884 11.690702
v 45.236317 0.024884 10.417158
v 53.502617 0.024884 11.690702
v 53.542923 0.024884 10.417158
v 36.342247 0.024884 10.417158
v 44.514885 0.024884 11.690702
v 62.458199 0.024884 10.417158
v 70.980103 0.024884 11.690702
v 70.764816 0.024884 10.417158
v 53.564133 0.024884 10.417158
v 61.992359 0.024884 11.690702
v 79.446136 0.024884 11.690702
v 87.963348 0.024884 10.417158
v 79.656731 0.024884 10.417158
v 70.977921 0.024884 11.690702
v 70.762665 0.024884 10.417158
v 96.862000 0.024884 11.690702
v 100.867081 0.024884 10.417158
v 96.817902 0.024884 10.417158
v 88.393784 0.024884 11.690702
v 87.923836 0.024884 10.417158
v 4.394661 0.024890 0.064666
v 2.927845 0.024890 -1.171058
v 28.037971 0.024890 0.064666
v 36.049030 0.024890 -1.171058
v 27.061295 0.024890 -1.171058
v 19.143898 0.024890 0.064666
v 45.236317 0.024890 0.064666
v 53.502617 0.024890 -1.171058
v 44.514885 0.024890 -1.171058
v 36.342247 0.024890 0.064666
v 36.046661 0.024890 -1.171058
v 62.458199 0.024890 0.064666
v 70.980103 0.024890 -1.171058
v 61.992359 0.024890 -1.171058
v 53.564133 0.024890 0.064666
v 53.524143 0.024890 -1.171058
v 87.963348 0.024890 0.064666
v 79.446136 0.024890 -1.171058
v 79.656731 0.024890 0.064666
v 70.977921 0.024890 -1.171058
v 70.762665 0.024890 0.064666
v 100.867081 0.024890 0.064666
v 96.862000 0.024890 -1.171058
v 96.817902 0.024890 0.064666
v 88.393784 0.024890 -1.171058
v 87.923836 0.024890 0.064666
v 4.394657 0.024890 0.044496
v 100.885918 0.024884 10.417158
v 102.237579 0.024879 5.316801
v 100.885918 0.024879 5.291286
v 100.885918 0.024890 0.044496
v 2.927849 0.024884 11.690702
v 36.046661 0.024884 11.690702
v 53.524143 0.024884 11.690702
v 88.433884 0.024884 11.690702
v 102.218460 0.024884 11.690702
v 36.344578 0.024890 0.064666
v 53.542923 0.024890 0.064666
v 70.764816 0.024890 0.064666
v 88.433884 0.024890 -1.171058
v 102.218460 0.024890 -1.171058
v 2.927849 0.024890 -1.193872
v 102.237579 0.024884 11.690702
v 102.237579 0.024890 -1.193872
vt 0.734863 0.439941
vt 0.749512 0.488770
vt 0.734863 0.491699
vt 0.691895 0.436035
vt 0.699707 0.383301
vt 0.699707 0.436035
vt 0.734863 0.439941
vt 0.749512 0.488770
vt 0.749512 0.437012
vt 0.734863 0.389160
vt 0.749512 0.437012
vt 0.734863 0.439941
vt 0.749512 0.488770
vt 0.734863 0.491699
vt 0.734863 0.389160
vt 0.749512 0.437012
vt 0.734863 0.439941
vt 0.749512 0.488770
vt 0.734863 0.491699
vt 0.734863 0.389160
vt 0.749512 0.437012
vt 0.734863 0.439941
vt 0.749512 0.488770
vt 0.734863 0.491699
vt 0.734863 0.389160
vt 0.749512 0.437012
vt 0.749512 0.437012
vt 0.734863 0.491699
vt 0.734863 0.439941
vt 0.749512 0.385254
vt 0.734863 0.389160
vt 0.749512 0.437012
vt 0.734863 0.475140
vt 0.734863 0.439941
vt 0.749512 0.385254
vt 0.734863 0.389160
vt 0.734863 0.389160
vt 0.749512 0.385254
vt 0.734863 0.439941
vt 0.749512 0.488770
vt 0.749512 0.437012
vt 0.734863 0.389160
vt 0.749512 0.385254
vt 0.734863 0.439941
vt 0.749512 0.488770
vt 0.749512 0.437012
vt 0.734863 0.389160
vt 0.749512 0.385254
vt 0.734863 0.439941
vt 0.749512 0.488770
vt 0.749512 0.437012
vt 0.734863 0.389160
vt 0.749512 0.385254
vt 0.734863 0.491699
vt 0.749512 0.437012
vt 0.734863 0.439941
vt 0.749512 0.385254
vt 0.734863 0.389160
vt 0.734863 0.475140
vt 0.749512 0.437012
vt 0.734863 0.439941
vt 0.749512 0.385254
vt 0.734863 0.389160
vt 0.699707 0.383301
vt 0.699707 0.383301
vt 0.691895 0.436035
vt 0.699707 0.436035
vt 0.699707 0.383301
vt 0.691895 0.379395
vt 0.734863 0.491699
vt 0.749512 0.385254
vt 0.749512 0.385254
vt 0.749512 0.385254
vt 0.749512 0.385254
vt 0.749512 0.488770
vt 0.749512 0.472210
vt 0.734863 0.491699
vt 0.734863 0.491699
vt 0.734863 0.491699
vt 0.749512 0.488770
vt 0.749512 0.472210
vt 0.691895 0.379395
vt 0.691895 0.379395
vt 0.691895 0.379395
vn 0.0000 1.0000 0.0000
s off
f 135/189/22 136/190/22 137/191/22
f 138/192/22 139/193/22 140/194/22
f 141/195/22 142/196/22 143/197/22
f 139/198/22 144/199/22 135/189/22
f 145/200/22 146/201/22 147/202/22
f 137/203/22 148/204/22 145/200/22
f 149/205/22 150/206/22 151/207/22
f 152/208/22 153/209/22 149/205/22
f 154/210/22 155/211/22 156/212/22
f 157/213/22 158/214/22 154/210/22
f 159/215/22 160/216/22 161/217/22
f 162/218/22 161/217/22 163/219/22
f 164/220/22 165/221/22 166/222/22
f 167/223/22 166/222/22 168/224/22
f 169/225/22 143/197/22 170/226/22
f 171/227/22 172/228/22 173/229/22
f 174/230/22 173/229/22 142/231/22
f 175/232/22 176/233/22 177/234/22
f 178/235/22 177/234/22 179/236/22
f 180/237/22 181/238/22 182/239/22
f 183/240/22 182/239/22 184/241/22
f 185/242/22 186/243/22 187/244/22
f 187/244/22 188/245/22 189/246/22
f 190/247/22 191/248/22 192/249/22
f 192/249/22 193/250/22 194/251/22
f 195/252/22 138/192/22 140/194/22
f 196/253/22 197/254/22 198/255/22
f 197/254/22 199/256/22 198/255/22
f 135/189/22 144/199/22 136/190/22
f 138/192/22 200/257/22 139/193/22
f 141/195/22 174/258/22 142/196/22
f 139/198/22 200/259/22 144/199/22
f 145/200/22 148/204/22 146/201/22
f 137/203/22 136/260/22 148/204/22
f 149/205/22 153/209/22 150/206/22
f 152/208/22 201/261/22 153/209/22
f 154/210/22 158/214/22 155/211/22
f 157/213/22 202/262/22 158/214/22
f 159/215/22 203/263/22 160/216/22
f 162/218/22 159/215/22 161/217/22
f 164/220/22 204/264/22 165/221/22
f 167/223/22 164/220/22 166/222/22
f 169/225/22 141/195/22 143/197/22
f 171/227/22 205/265/22 172/228/22
f 174/230/22 171/227/22 173/229/22
f 175/232/22 206/266/22 176/233/22
f 178/235/22 175/232/22 177/234/22
f 180/237/22 207/267/22 181/238/22
f 183/240/22 180/237/22 182/239/22
f 185/242/22 208/268/22 186/243/22
f 187/244/22 186/243/22 188/245/22
f 190/247/22 209/269/22 191/248/22
f 192/249/22 191/248/22 193/250/22
f 195/252/22 210/270/22 138/192/22
f 196/253/22 211/271/22 197/254/22
f 197/254/22 212/272/22 199/256/22
