# Blender v2.90.0 Alpha OBJ File: 'Decos.blend'
# www.blender.org
o Cylinder.001
v -1.007276 -0.182261 0.204040
v -1.007276 0.182261 0.204040
v -1.007276 0.182261 -1.033982
v -1.007276 -0.182261 -1.033982
v 1.007276 0.182261 -1.033982
v 1.007276 -0.182261 -1.033982
v 1.007276 0.182261 0.204040
v 1.007276 -0.182261 0.204040
v -0.770146 0.182261 -0.888256
v 0.770146 0.182261 -0.888256
v 0.770146 -0.182261 0.058314
v 0.770146 -0.182261 -0.888256
v -0.770146 -0.182261 0.058314
v 0.770146 0.182261 0.058314
v -0.770146 -0.182261 -0.888256
v -0.770146 0.182261 0.058314
v 0.000000 4.177374 -0.995565
v -0.780471 3.948639 -0.766893
v 0.000000 3.236710 -0.398078
v -0.779961 2.845104 0.336350
v 0.000000 2.616732 0.564664
v 0.779961 2.845104 0.336350
v 1.103387 3.396690 -0.215092
v 0.780471 3.948639 -0.766893
v -1.103386 3.396690 -0.215092
v 2.119192 3.777267 0.164459
v 2.727432 4.255002 0.312684
v 0.000000 2.278767 1.663202
v 0.763629 2.256166 2.311519
v -1.498584 2.717694 1.224204
v -1.747165 2.576980 1.990705
v -1.498407 4.836716 -0.895161
v -2.338193 5.261659 -0.693973
v 1.498407 4.836716 -0.895161
v 1.845915 5.578933 -1.011246
v 1.498584 2.717693 1.224205
v 2.073366 2.866684 1.701002
v -2.119192 3.777267 0.164459
v 0.000000 5.275517 -1.334033
v -0.084118 6.106963 -1.539275
v -0.610383 6.067057 -1.499370
v 0.057181 3.171175 -0.360007
v 0.080867 3.191760 -0.413354
v 0.057181 3.212345 -0.466702
v 0.000000 3.220871 -0.488800
v -0.057181 3.212345 -0.466702
v -0.080867 3.191760 -0.413355
v -0.057181 3.171175 -0.360007
v 0.000000 3.162649 -0.337909
v 0.000000 0.000000 -0.494106
v -0.057181 0.000000 -0.470421
v 0.080867 0.000000 -0.413240
v 0.057181 0.000000 -0.470421
v 0.000000 0.000000 -0.332373
v 0.057181 0.000000 -0.356058
v -0.057181 0.000000 -0.356058
v -0.080867 0.000000 -0.413240
v 0.164597 5.069724 1.270090
v 0.186105 5.196915 1.396820
v 0.000000 5.065557 1.528655
v 0.000000 4.953547 1.386689
v -0.164598 5.069724 1.270090
v -0.186105 5.196915 1.396820
v 0.000000 5.328271 1.264985
v 0.000000 5.185899 1.153490
v -0.048422 4.914445 1.115375
v 0.000000 4.948623 1.081073
v 0.048422 4.914445 1.115375
v 0.000000 4.880269 1.149676
v -1.682330 5.544117 -0.958388
v -1.673458 5.516545 -0.959154
v -1.674188 5.547816 -0.985975
v -1.665315 5.520244 -0.986741
v -0.147430 5.159239 1.382117
v -0.156815 5.186811 1.382883
v -0.138817 5.162938 1.354530
v -0.148202 5.190510 1.355296
v -0.121998 5.199171 1.364638
v -0.112613 5.171598 1.363872
v -0.130612 5.195472 1.392226
v -0.121226 5.167900 1.391460
v -0.147430 5.120811 1.392024
v -0.156815 5.112771 1.365639
v -1.788781 2.677602 1.805405
v -1.779395 2.685642 1.831792
v 0.147430 5.159239 1.382117
v 1.690795 5.516545 -0.959154
v 1.699668 5.544117 -0.958388
v 0.156815 5.186811 1.382883
v 0.138817 5.162938 1.354530
v 0.112613 5.171598 1.363872
v 0.121998 5.199171 1.364638
v 0.148202 5.190510 1.355296
v 0.121226 5.167900 1.391460
v 0.130612 5.195472 1.392226
v 1.682653 5.520244 -0.986741
v 1.691526 5.547816 -0.985975
v -0.138817 5.093479 1.397288
v -0.148202 5.085439 1.370904
v -0.121998 5.091543 1.359722
v -0.112613 5.099583 1.386107
v -0.130612 5.118875 1.354458
v -0.121226 5.126915 1.380842
v -1.780168 2.650270 1.810670
v -1.770782 2.658310 1.837055
v 0.147430 5.120811 1.392024
v 1.779395 2.685642 1.831792
v 1.788781 2.677602 1.805405
v 0.156815 5.112771 1.365639
v 0.138817 5.093479 1.397288
v 0.112613 5.099583 1.386107
v 0.121998 5.091543 1.359722
v 0.148202 5.085439 1.370904
v 0.121226 5.126915 1.380842
v 0.130612 5.118875 1.354458
v 1.770782 2.658310 1.837055
v 1.780168 2.650270 1.810670
v 0.001233 5.066112 1.151073
v 0.085720 5.006479 1.210923
v 0.001233 4.946846 1.270773
v -0.083254 5.006479 1.210923
v 0.146015 4.943234 1.151755
v 0.002466 4.841916 1.253444
v -0.141082 4.943234 1.151755
v 0.002466 5.044553 1.050067
v -2.833996 4.209267 0.358419
v -2.446453 3.134398 1.433288
v -0.804983 2.243267 2.324419
v -0.284136 2.176716 2.390969
v 1.694580 2.605283 1.962402
v 2.708397 3.880985 0.686701
v 0.443318 6.075721 -1.508035
v -1.996262 5.547336 -0.979650
v -1.584050 5.782093 -1.214407
v -1.116458 5.957446 -1.389760
v 0.952860 5.974463 -1.406777
v 2.197150 5.298955 -0.731269
v 2.467103 4.977036 -0.409349
v 2.589604 3.516274 1.051412
v 1.252677 2.399296 2.168391
v -2.134446 2.832081 1.735605
v -2.764769 4.580311 -0.012626
v 2.131826 3.761752 0.149455
v -0.000230 2.254521 1.657078
v -1.506475 4.826785 -0.916648
v 0.000139 5.268109 -1.357919
v -2.131138 3.761966 0.148691
v -2.671909 3.473006 1.094680
v -2.802666 3.835664 0.732021
v 2.375346 3.174051 1.393636
v 1.507513 2.695934 1.215705
v 1.426094 5.806848 -1.239161
v 1.507167 4.827137 -0.916537
v -2.597486 4.935387 -0.367701
v -1.298607 2.378315 2.189370
v -1.507487 2.696250 1.214912
v 0.245111 2.181067 2.386617
v 2.646019 4.624808 -0.057121
v 1.112721 3.380278 -0.231493
v -0.786545 2.824032 0.324601
v 0.000000 4.167592 -1.018582
v -1.112720 3.380278 -0.231493
v 0.787087 3.936911 -0.787967
v 0.786545 2.824032 0.324601
v 0.000000 2.593736 0.554835
v -0.000000 3.219087 -0.415823
v -0.787087 3.936911 -0.787967
vt 0.195312 0.789062
vt 0.195312 0.789062
vt 0.195312 0.789062
vt 0.195312 0.789062
vt 0.195312 0.789062
vt 0.195312 0.789062
vt 0.195312 0.789062
vt 0.195312 0.789062
vt 0.195312 0.789062
vt 0.195312 0.789062
vt 0.195312 0.789062
vt 0.195312 0.789062
vt 0.195312 0.789062
vt 0.195312 0.789062
vt 0.195312 0.789062
vt 0.195312 0.789062
vt 0.179688 0.789062
vt 0.179688 0.789062
vt 0.179688 0.789062
vt 0.179688 0.789062
vt 0.179688 0.789062
vt 0.179688 0.789062
vt 0.179688 0.789062
vt 0.179688 0.789062
vt 0.179688 0.789062
vt 0.179688 0.789062
vt 0.179688 0.789062
vt 0.179688 0.789062
vt 0.179688 0.789062
vt 0.179688 0.789062
vt 0.179688 0.789062
vt 0.179688 0.789062
vt 0.179688 0.789062
vt 0.179688 0.789062
vt 0.179688 0.789062
vt 0.179688 0.789062
vt 0.179688 0.789062
vt 0.179688 0.789062
vt 0.179688 0.789062
vt 0.179688 0.789062
vt 0.179688 0.789062
vt 0.179688 0.789062
vt 0.179688 0.789062
vt 0.179688 0.789062
vt 0.179688 0.789062
vt 0.179688 0.789062
vt 0.179688 0.789062
vt 0.179688 0.789062
vt 0.179688 0.789062
vt 0.195312 0.789062
vt 0.195312 0.789062
vt 0.195312 0.789062
vt 0.195312 0.789062
vt 0.195312 0.789062
vt 0.195312 0.789062
vt 0.195312 0.789062
vt 0.195312 0.789062
vt 0.195312 0.789062
vt 0.195312 0.789062
vt 0.195312 0.789062
vt 0.195312 0.789062
vt 0.195312 0.789062
vt 0.195312 0.789062
vt 0.195312 0.789062
vt 0.195312 0.789062
vt 0.195312 0.789062
vt 0.195312 0.789062
vt 0.195312 0.789062
vt 0.195312 0.789062
vt 0.195312 0.789062
vt 0.195312 0.789062
vt 0.195312 0.789062
vt 0.195312 0.789062
vt 0.195312 0.789062
vt 0.195312 0.789062
vt 0.195312 0.789062
vt 0.195312 0.789062
vt 0.195312 0.789062
vt 0.195312 0.789062
vt 0.195312 0.789062
vt 0.195312 0.789062
vt 0.195312 0.789062
vt 0.195312 0.789062
vt 0.195312 0.789062
vt 0.195312 0.789062
vt 0.195312 0.789062
vt 0.195312 0.789062
vt 0.195312 0.789062
vt 0.195312 0.789062
vt 0.195312 0.789062
vt 0.195312 0.789062
vt 0.195312 0.789062
vt 0.195312 0.789062
vt 0.195312 0.789062
vt 0.195312 0.789062
vt 0.195312 0.789062
vt 0.195312 0.789062
vt 0.195312 0.789062
vt 0.195312 0.789062
vt 0.195312 0.789062
vt 0.195312 0.789062
vt 0.195312 0.789062
vt 0.195312 0.789062
vt 0.195312 0.789062
vt 0.195312 0.789062
vt 0.195312 0.789062
vt 0.195312 0.789062
vt 0.195312 0.789062
vt 0.195312 0.789062
vt 0.195312 0.789062
vt 0.195312 0.789062
vt 0.195312 0.789062
vt 0.195312 0.789062
vt 0.195312 0.789062
vt 0.195312 0.789062
vt 0.195312 0.789062
vt 0.195312 0.789062
vt 0.195312 0.789062
vt 0.195312 0.789062
vt 0.195312 0.789062
vt 0.195312 0.789062
vt 0.195312 0.789062
vt 0.195312 0.789062
vt 0.195312 0.789062
vt 0.195312 0.789062
vt 0.195312 0.789062
vt 0.195312 0.789062
vt 0.195312 0.789062
vt 0.195312 0.789062
vt 0.195312 0.789062
vt 0.195312 0.789062
vt 0.195312 0.789062
vt 0.195312 0.789062
vt 0.195312 0.789062
vt 0.179688 0.789062
vt 0.179688 0.789062
vt 0.179688 0.789062
vt 0.179688 0.789062
vt 0.179688 0.789062
vt 0.179688 0.789062
vt 0.179688 0.789062
vt 0.179688 0.789062
vt 0.179688 0.789062
vt 0.179688 0.789062
vt 0.179688 0.789062
vt 0.179688 0.789062
vt 0.179688 0.789062
vt 0.179688 0.789062
vt 0.179688 0.789062
vt 0.179688 0.789062
vt 0.179688 0.789062
vt 0.179687 0.789062
vt 0.179688 0.789062
vt 0.179688 0.789062
vt 0.179687 0.789062
vt 0.179688 0.789062
vt 0.179688 0.789062
vt 0.179688 0.789062
vt 0.179688 0.789062
vt 0.179688 0.789062
vt 0.179688 0.789063
vt 0.179688 0.789062
vt 0.179688 0.789062
vt 0.179688 0.789062
vt 0.179688 0.789062
vt 0.179688 0.789062
vt 0.179688 0.789062
vt 0.179688 0.789062
vn -1.0000 0.0000 0.0000
vn 0.0000 0.0000 -1.0000
vn 1.0000 -0.0000 0.0000
vn 0.0000 -0.0000 1.0000
vn 0.0000 1.0000 0.0000
vn -0.0000 0.3911 0.9203
vn 0.2646 0.4690 0.8427
vn 0.0000 0.7047 0.7095
vn 0.2633 0.8426 0.4698
vn -0.0000 0.9195 0.3930
vn -0.2633 0.8426 0.4698
vn -0.3732 0.6562 0.6558
vn -0.2646 0.4690 0.8427
vn 0.3732 0.6563 0.6558
vn -0.3760 0.5731 0.7282
vn -0.5772 0.5466 0.6067
vn -0.4905 0.5009 0.7131
vn 0.0092 0.9695 0.2449
vn -0.0708 0.9851 0.1570
vn -0.1750 0.9550 0.2395
vn 0.2281 0.9250 0.3040
vn 0.3322 0.9027 0.2734
vn 0.2159 0.9354 0.2800
vn 0.3226 0.3971 0.8592
vn 0.3955 0.4167 0.8185
vn 0.4210 0.4989 0.7575
vn -0.3503 0.3831 0.8547
vn -0.3665 0.3089 0.8776
vn -0.2370 0.3192 0.9176
vn -0.2534 0.9220 0.2928
vn -0.4630 0.8351 0.2972
vn -0.4775 0.7684 0.4261
vn 0.4678 0.6319 0.6180
vn 0.5086 0.6676 0.5438
vn 0.4347 0.7472 0.5027
vn 0.0163 0.4436 0.8961
vn 0.0086 0.2405 0.9706
vn 0.1162 0.3042 0.9455
vn 0.7163 -0.6666 0.2063
vn 0.9156 -0.2150 -0.3397
vn -0.0314 0.0481 -0.9984
vn 0.5943 0.1713 -0.7858
vn -0.0001 0.3146 -0.9492
vn -0.5943 0.1713 -0.7858
vn -0.9156 -0.2150 -0.3397
vn -0.7163 -0.6666 0.2063
vn 0.0001 -0.8795 0.4759
vn 0.0000 0.0014 -1.0000
vn -0.6984 0.0008 -0.7157
vn -0.6492 0.0009 -0.7606
vn 0.9958 0.0003 -0.0921
vn 1.0000 0.0003 0.0000
vn 0.6984 0.0008 -0.7157
vn 0.6492 0.0009 -0.7606
vn 0.0000 0.0015 1.0000
vn 0.6983 0.0009 0.7158
vn 0.7396 0.0008 0.6730
vn -0.7396 0.0008 0.6730
vn -0.6983 0.0009 0.7158
vn -1.0000 0.0003 0.0000
vn -0.9958 0.0003 -0.0921
vn 0.7046 -0.5571 0.4395
vn -0.7046 0.4375 -0.5587
vn -0.7046 -0.5571 0.4395
vn 0.7046 0.4375 -0.5587
vn -0.0000 -0.7084 -0.7058
vn 0.0000 0.7084 0.7058
vn -0.9086 -0.2839 -0.3062
vn -0.8222 -0.2859 0.4922
vn 0.2956 0.1269 -0.9468
vn 0.8994 0.2972 0.3206
vn -0.2956 -0.1269 0.9468
vn 0.3221 -0.9463 -0.0263
vn -0.3222 0.9463 0.0263
vn -0.8151 0.5674 0.1171
vn 0.0192 0.9902 0.1386
vn -0.0192 -0.9902 -0.1386
vn 0.8221 0.2859 -0.4923
vn 0.8197 -0.2852 0.4967
vn -0.2956 0.1269 -0.9468
vn -0.8994 0.2972 0.3206
vn 0.2956 -0.1269 0.9468
vn -0.3221 -0.9463 -0.0263
vn 0.3222 0.9463 0.0263
vn 0.9086 -0.2839 -0.3062
vn -0.0191 0.9902 0.1385
vn 0.0190 -0.9902 -0.1386
vn -0.8196 0.2852 -0.4969
vn 0.2956 -0.9381 0.1807
vn 0.8994 0.2095 -0.3838
vn -0.2956 0.9381 -0.1807
vn 0.3221 0.2759 0.9056
vn -0.3221 -0.2759 -0.9056
vn -0.8994 -0.2095 0.3838
vn 0.0120 -0.1855 -0.9826
vn -0.0120 0.1855 0.9826
vn 0.8151 -0.5674 -0.1171
vn 0.8151 0.5674 0.1171
vn -0.2956 -0.9381 0.1807
vn -0.8994 0.2095 -0.3838
vn 0.2956 0.9381 -0.1807
vn -0.3221 0.2759 0.9056
vn 0.3221 -0.2760 -0.9056
vn 0.8994 -0.2095 0.3838
vn -0.0120 -0.1855 -0.9826
vn 0.0120 0.1855 0.9826
vn -0.8151 -0.5674 -0.1171
vn 0.5884 0.0224 -0.8083
vn -0.5950 -0.8027 0.0401
vn -0.5829 0.0104 -0.8125
vn 0.6004 -0.7980 0.0525
vn 0.3779 -0.8655 -0.3289
vn -0.4232 -0.2688 -0.8652
vn -0.3912 -0.8662 -0.3109
vn 0.4083 -0.2902 -0.8655
vn 0.6287 -0.1195 0.7684
vn -0.6448 0.7459 -0.1671
vn -0.6338 -0.1333 0.7619
vn 0.6399 0.7531 -0.1529
vn 0.4682 0.5320 0.7055
vn 0.5223 0.5860 0.6195
vn 0.3357 0.8025 0.4932
vn 0.4133 0.8200 0.3961
vn 0.1275 0.9505 0.2832
vn 0.0851 0.9745 0.2075
vn -0.2424 0.9244 0.2946
vn -0.3236 0.9104 0.2578
vn -0.4780 0.7198 0.5034
vn -0.5397 0.6639 0.5176
vn -0.4307 0.4736 0.7683
vn -0.4318 0.4060 0.8054
vn -0.1604 0.3314 0.9298
vn -0.1084 0.2861 0.9520
vn 0.1679 0.3498 0.9217
vn 0.2515 0.3507 0.9021
vn 0.3550 0.3517 0.8662
vn -0.4713 -0.5325 -0.7031
vn -0.4603 -0.3958 -0.7946
vn -0.4271 -0.4090 -0.8064
vn -0.1902 -0.9484 -0.2537
vn -0.2537 -0.8997 -0.3553
vn -0.3732 -0.8830 -0.2847
vn -0.1623 -0.9613 -0.2225
vn 0.0507 -0.9808 -0.1881
vn -0.0988 -0.9565 -0.2746
vn -0.4496 -0.7833 -0.4293
vn -0.5574 -0.6816 -0.4741
vn -0.5075 -0.6812 -0.5276
vn -0.3286 -0.8945 -0.3031
vn -0.3828 -0.8136 -0.4376
vn 0.1881 -0.2781 -0.9420
vn 0.2673 -0.3971 -0.8780
vn 0.1577 -0.3742 -0.9138
vn -0.2118 -0.3140 -0.9255
vn 0.2685 -0.9129 -0.3073
vn 0.2536 -0.9407 -0.2254
vn -0.3774 -0.7343 -0.5643
vn -0.1022 -0.5234 -0.8459
vn 0.1532 -0.3124 -0.9375
vn -0.3693 -0.4305 -0.8236
vn -0.4380 -0.5866 -0.6812
vn 0.3598 -0.3461 -0.8665
vn 0.4087 -0.4621 -0.7871
vn 0.4232 -0.3873 -0.8191
vn 0.5277 -0.7172 -0.4551
vn 0.3892 -0.8266 -0.4065
vn 0.4785 -0.7396 -0.4733
vn 0.4853 -0.4414 -0.7547
vn 0.4608 -0.5865 -0.6662
vn 0.4434 -0.8473 -0.2924
vn 0.2451 -0.6824 -0.6887
vn -0.2601 -0.8399 -0.4764
vn 0.2022 -0.5754 -0.7925
vn 0.0782 -0.9583 -0.2748
vn -0.2463 -0.6842 -0.6865
vn 0.0297 -0.8976 -0.4398
vn 0.1530 -0.8220 -0.5486
vn 0.4270 -0.8477 -0.3147
vn 0.5480 -0.5773 -0.6053
vn 0.4809 -0.7002 -0.5277
vn -0.4903 -0.6660 -0.5622
vn 0.0065 -0.2723 -0.9622
vn 0.1308 -0.3391 -0.9316
vn -0.1837 -0.2869 -0.9402
vn -0.0958 -0.1804 -0.9789
vn -0.3402 -0.3749 -0.8624
s off
f 1/1/1 2/2/1 3/3/1 4/4/1
f 4/4/2 3/3/2 5/5/2 6/6/2
f 6/6/3 5/5/3 7/7/3 8/8/3
f 8/8/4 7/7/4 2/2/4 1/1/4
f 5/5/5 3/3/5 9/9/5 10/10/5
f 7/7/5 5/5/5 10/10/5 14/11/5
f 3/3/5 2/2/5 16/12/5 9/9/5
f 2/2/5 7/7/5 14/11/5 16/12/5
f 16/12/2 14/11/2 11/13/2 13/14/2
f 14/11/1 10/10/1 12/15/1 11/13/1
f 10/10/4 9/9/4 15/16/4 12/15/4
f 9/9/3 16/12/3 13/14/3 15/16/3
s 1
f 17/17/6 18/18/7 19/19/8
f 20/20/9 21/21/10 19/19/8
f 21/21/10 22/22/11 19/19/8
f 23/23/12 24/24/13 19/19/8
f 18/18/7 25/25/14 19/19/8
f 24/24/13 17/17/6 19/19/8
f 25/25/14 20/20/9 19/19/8
f 22/22/11 23/23/12 19/19/8
f 26/26/15 27/27/16 158/28/17
f 28/29/18 157/30/19 29/31/20
f 30/32/21 31/33/22 155/34/23
f 32/35/24 33/36/25 154/37/26
f 34/38/27 35/39/28 152/40/29
f 36/41/30 37/42/31 150/43/32
f 38/44/33 149/45/34 148/46/35
f 39/47/36 40/48/37 41/49/38
f 20/20/9 25/25/14 38/44/33
f 23/23/12 22/22/11 36/41/30 26/26/15
f 24/24/13 34/38/27 39/47/36
f 18/18/7 32/35/24 38/44/33
f 21/21/10 20/20/9 30/32/21
f 22/22/11 21/21/10 28/29/18 36/41/30
f 24/24/13 23/23/12 26/26/15
f 42/50/39 43/51/40 19/52/41
f 44/53/42 45/54/43 19/52/41
f 46/55/44 47/56/45 19/52/41
f 48/57/46 49/58/47 19/52/41
f 49/58/47 42/50/39 19/52/41
f 43/51/40 44/53/42 19/52/41
f 45/54/43 46/55/44 19/52/41
f 47/56/45 48/57/46 19/52/41
f 45/54/48 50/59/48 51/60/49 46/55/50
f 43/51/51 52/61/52 53/62/53 44/53/54
f 49/58/55 54/63/55 55/64/56 42/50/57
f 48/57/58 56/65/59 54/63/55 49/58/55
f 46/55/50 51/60/49 57/66/60 47/56/61
f 44/53/54 53/62/53 50/59/48 45/54/48
f 42/50/57 55/64/56 52/61/52 43/51/51
f 47/56/61 57/66/60 56/65/59 48/57/58
f 58/67/62 59/68/62 60/69/62 61/70/62
f 62/71/63 63/72/63 64/73/63 65/74/63
f 61/70/64 60/69/64 63/72/64 62/71/64
f 65/74/65 64/73/65 59/68/65 58/67/65
f 66/75/66 67/76/66 68/77/66 69/78/66
f 64/73/67 63/72/67 60/69/67 59/68/67
f 71/79/68 70/80/68 72/81/68 73/82/68
f 74/83/69 75/84/69 70/80/69 71/79/69
f 76/85/70 77/86/70 78/87/70 79/88/70
f 79/88/71 78/87/71 80/89/71 81/90/71
f 81/90/72 80/89/72 75/84/72 74/83/72
f 76/85/73 79/88/73 81/90/73 74/83/73
f 78/87/74 77/86/74 75/84/74 80/89/74
f 82/91/75 83/92/75 84/93/75 85/94/75
f 75/84/76 77/86/76 72/81/76 70/80/76
f 76/85/77 74/83/77 71/79/77 73/82/77
f 77/86/78 76/85/78 73/82/78 72/81/78
f 86/95/79 87/96/79 88/97/79 89/98/79
f 90/99/80 91/100/80 92/101/80 93/102/80
f 91/100/81 94/103/81 95/104/81 92/101/81
f 94/103/82 86/95/82 89/98/82 95/104/82
f 90/99/83 86/95/83 94/103/83 91/100/83
f 92/101/84 95/104/84 89/98/84 93/102/84
f 87/96/85 96/105/85 97/106/85 88/97/85
f 89/98/86 88/97/86 97/106/86 93/102/86
f 90/99/87 96/105/87 87/96/87 86/95/87
f 93/102/88 97/106/88 96/105/88 90/99/88
f 98/107/89 99/108/89 100/109/89 101/110/89
f 101/110/90 100/109/90 102/111/90 103/112/90
f 103/112/91 102/111/91 83/92/91 82/91/91
f 98/107/92 101/110/92 103/112/92 82/91/92
f 100/109/93 99/108/93 83/92/93 102/111/93
f 85/94/94 84/93/94 104/113/94 105/114/94
f 83/92/95 99/108/95 104/113/95 84/93/95
f 98/107/96 82/91/96 85/94/96 105/114/96
f 99/108/97 98/107/97 105/114/97 104/113/97
f 106/115/98 107/116/98 108/117/98 109/118/98
f 110/119/99 111/120/99 112/121/99 113/122/99
f 111/120/100 114/123/100 115/124/100 112/121/100
f 114/123/101 106/115/101 109/118/101 115/124/101
f 110/119/102 106/115/102 114/123/102 111/120/102
f 112/121/103 115/124/103 109/118/103 113/122/103
f 107/116/104 116/125/104 117/126/104 108/117/104
f 109/118/105 108/117/105 117/126/105 113/122/105
f 110/119/106 116/125/106 107/116/106 106/115/106
f 113/122/107 117/126/107 116/125/107 110/119/107
f 118/127/108 65/74/108 58/67/108 119/128/108
f 120/129/109 61/70/109 62/71/109 121/130/109
f 121/130/110 62/71/110 65/74/110 118/127/110
f 119/128/111 58/67/111 61/70/111 120/129/111
f 68/77/112 122/131/112 123/132/112 69/78/112
f 66/75/113 124/133/113 125/134/113 67/76/113
f 69/78/114 123/132/114 124/133/114 66/75/114
f 67/76/115 125/134/115 122/131/115 68/77/115
f 122/131/116 119/128/116 120/129/116 123/132/116
f 124/133/117 121/130/117 118/127/117 125/134/117
f 123/132/118 120/129/118 121/130/118 124/133/118
f 125/134/119 118/127/119 119/128/119 122/131/119
f 25/25/14 18/18/7 38/44/33
f 38/44/33 142/135/120 126/136/121
f 20/20/9 38/44/33 30/32/21
f 38/44/33 127/137/122 141/138/123
f 21/21/10 30/32/21 28/29/18
f 30/32/21 128/139/124 129/140/125
f 36/41/30 140/141/126 130/142/127
f 26/26/15 139/143/128 131/144/129
f 24/24/13 26/26/15 34/38/27
f 26/26/15 138/145/130 137/146/131
f 17/17/6 24/24/13 39/47/36
f 39/47/36 136/147/132 132/148/133
f 18/18/7 17/17/6 39/47/36 32/35/24
f 39/47/36 135/149/134 134/150/135
f 33/36/25 32/35/24 134/150/135 133/151/136
f 32/35/24 39/47/36 134/150/135
f 135/149/134 39/47/36 41/49/38
f 40/48/37 39/47/36 132/148/133
f 136/147/132 39/47/36 152/40/29
f 39/47/36 34/38/27 152/40/29
f 35/39/28 34/38/27 137/146/131
f 34/38/27 26/26/15 137/146/131
f 138/145/130 26/26/15 158/28/17
f 27/27/16 26/26/15 131/144/129
f 139/143/128 26/26/15 150/43/32
f 37/42/31 36/41/30 130/142/127
f 26/26/15 36/41/30 150/43/32
f 140/141/126 36/41/30 29/31/20
f 36/41/30 28/29/18 29/31/20
f 157/30/19 28/29/18 129/140/125
f 28/29/18 30/32/21 129/140/125
f 128/139/124 30/32/21 155/34/23
f 31/33/22 30/32/21 141/138/123
f 30/32/21 38/44/33 141/138/123
f 127/137/122 38/44/33 148/46/35
f 149/45/34 38/44/33 126/136/121
f 142/135/120 38/44/33 154/37/26
f 38/44/33 32/35/24 154/37/26
f 142/135/137 154/37/138 145/152/139
f 144/153/140 155/34/141 156/154/142
f 128/139/143 155/34/141 144/153/140
f 157/30/144 129/140/145 144/153/140
f 127/137/146 148/46/147 147/155/148
f 31/33/149 141/138/150 156/154/142
f 136/147/151 152/40/152 146/156/153
f 145/152/139 134/150/154 146/156/153
f 144/153/140 130/142/155 140/141/156
f 160/157/157 156/154/142 147/155/148
f 160/157/157 144/153/140 156/154/142
f 167/158/158 146/156/153 161/159/159
f 145/152/139 154/37/138 33/36/160
f 147/155/148 126/136/161 145/152/139
f 35/39/162 137/146/163 153/160/164
f 139/143/165 150/43/166 143/161/167
f 138/145/168 158/28/169 143/161/167
f 156/154/142 141/138/150 147/155/148
f 143/161/167 150/43/166 151/162/170
f 153/160/164 137/146/163 143/161/167
f 159/163/171 166/164/172 163/165/173
f 140/141/156 29/31/174 144/153/140
f 162/166/175 166/164/172 160/157/157
f 151/162/170 130/142/155 144/153/140
f 165/167/176 166/164/172 164/168/177
f 37/42/178 130/142/155 151/162/170
f 160/157/157 166/164/172 165/167/176
f 27/27/179 131/144/180 143/161/167
f 163/165/173 166/164/172 161/159/159
f 161/159/159 166/164/172 167/158/158
f 149/45/181 126/136/161 147/155/148
f 167/158/158 166/164/172 162/166/175
f 164/168/177 166/164/172 159/163/171
f 164/168/177 151/162/170 144/153/140
f 144/153/140 129/140/145 128/139/143
f 143/161/167 158/28/169 27/27/179
f 153/160/164 152/40/152 35/39/162
f 156/154/142 155/34/141 31/33/149
f 144/153/140 29/31/174 157/30/144
f 163/165/173 143/161/167 159/163/171
f 147/155/148 141/138/150 127/137/146
f 145/152/139 126/136/161 142/135/137
f 162/166/175 147/155/148 145/152/139
f 146/156/153 152/40/152 153/160/164
f 40/48/182 132/148/183 146/156/153
f 159/163/171 143/161/167 151/162/170 164/168/177
f 162/166/175 145/152/139 167/158/158
f 164/168/177 144/153/140 165/167/176
f 161/159/159 146/156/153 153/160/164 163/165/173
f 167/158/158 145/152/139 146/156/153
f 135/149/184 41/49/185 146/156/153
f 33/36/160 133/151/186 134/150/154 145/152/139
f 146/156/153 134/150/154 135/149/184
f 143/161/167 131/144/180 139/143/165
f 146/156/153 132/148/183 136/147/151
f 143/161/167 137/146/163 138/145/168
f 163/165/173 153/160/164 143/161/167
f 151/162/170 150/43/166 37/42/178
f 160/157/157 147/155/148 162/166/175
f 146/156/153 41/49/185 40/48/182
f 147/155/148 148/46/147 149/45/181
f 165/167/176 144/153/140 160/157/157
