# Blender v2.91.0 Beta OBJ File: 'decos.blend'
# www.blender.org
o Cube.007_Cube.005
v 0.586496 5.441432 -0.570802
v 0.000162 5.441432 0.015533
v 0.586496 5.441432 0.601867
v 1.172831 5.441432 0.015533
v 1.172831 -0.628589 0.015532
v 0.586496 -0.628589 0.601866
v 0.000162 -0.628589 0.015532
v 0.586496 -0.628589 -0.570803
v 0.379998 18.185392 0.019448
v 0.379998 18.218811 0.019448
v 0.624435 18.218811 -0.224989
v 0.624435 18.185392 -0.224989
v 0.868872 18.218811 0.019448
v 0.868872 18.185392 0.019448
v 0.624435 18.218811 0.263885
v 0.624435 18.185392 0.263885
v 0.624507 18.211824 0.016285
v 0.748184 18.211824 0.016285
v 0.624507 18.211824 0.139983
v 0.500831 18.211824 0.016285
v 0.624507 18.211824 -0.107413
v 0.624507 29.806498 0.016287
v 0.638583 10.185998 0.348440
v 0.645295 18.201326 0.210384
v 0.645295 18.202881 0.236364
v 0.638582 10.187175 0.373839
v 0.572313 7.392964 0.426202
v 0.631839 7.392964 0.426202
v 0.615138 4.440979 0.439942
v 0.557859 4.440979 0.439942
v 0.572309 7.394011 0.452705
v 0.557853 4.441887 0.463069
v 0.615135 4.441887 0.463069
v 0.631836 7.394011 0.452705
v 0.586424 10.187175 0.373839
v 0.586426 10.185998 0.348440
v 1.011263 7.388448 0.046908
v 1.010907 4.440978 0.044172
v 1.034030 4.441885 0.044173
v 1.037766 7.389495 0.046908
v 0.942515 10.195866 0.044288
v 0.967911 10.197047 0.044288
v 0.603575 18.202881 0.236364
v 0.257156 10.197047 0.044288
v 0.282554 10.195866 0.044288
v 0.433500 18.201323 0.040309
v 0.407521 18.202879 0.040309
v 0.623901 7.196561 0.436355
v 1.020502 7.196561 0.039754
v 1.018042 7.388746 0.039663
v 0.624581 7.388746 0.433125
v 0.634123 12.888801 0.292639
v 0.893022 12.888801 0.033740
v 0.892272 13.080986 0.033718
v 0.634433 13.080986 0.291557
v 0.603575 18.201326 0.210384
v 0.967911 10.197047 -0.007848
v 0.942515 10.195866 -0.007847
v 0.815369 18.201323 -0.001410
v 0.841349 18.202879 -0.001410
v 0.166338 7.389495 0.046908
v 0.166338 7.389495 -0.012633
v 0.138957 4.441885 -0.013108
v 0.138957 4.441885 0.044173
v 0.192848 7.388448 0.046908
v 0.162090 4.440978 0.044172
v 0.162090 4.440978 -0.013106
v 0.192848 7.388448 -0.012632
v 0.282554 10.195866 -0.007847
v 0.257156 10.197047 -0.007848
v 0.433500 18.201323 -0.001410
v 0.578491 7.196561 0.436355
v 0.579531 7.388746 0.433125
v 0.186069 7.388746 0.039663
v 0.181891 7.196561 0.039754
v 0.604480 12.888801 0.292639
v 0.604911 13.080986 0.291557
v 0.347072 13.080986 0.033718
v 0.345581 12.888801 0.033740
v 0.586426 10.185998 -0.312005
v 0.603575 18.201326 -0.171485
v 0.603575 18.202881 -0.197465
v 0.586424 10.187175 -0.337405
v 0.407521 18.202879 -0.001410
v 0.638583 10.185998 -0.312005
v 0.645295 18.201326 -0.171485
v 0.638582 10.187175 -0.337405
v 0.645295 18.202881 -0.197465
v 0.572313 7.392964 -0.391921
v 0.557859 4.440979 -0.408875
v 0.615138 4.440979 -0.408875
v 0.631839 7.392964 -0.391921
v 0.572309 7.394011 -0.418426
v 0.631836 7.394011 -0.418426
v 0.615135 4.441887 -0.432004
v 0.557853 4.441887 -0.432004
v 1.011263 7.388448 -0.012632
v 1.037766 7.389495 -0.012633
v 1.034030 4.441885 -0.013108
v 1.010907 4.440978 -0.013106
v 0.623901 7.196561 -0.402256
v 0.624581 7.388746 -0.398848
v 1.018042 7.388746 -0.005387
v 1.020502 7.196561 -0.005655
v 0.634123 12.888801 -0.254802
v 0.634433 13.080986 -0.253643
v 0.892272 13.080986 0.004196
v 0.893022 12.888801 0.004097
v 0.578491 7.196561 -0.402256
v 0.181891 7.196561 -0.005655
v 0.186069 7.388746 -0.005387
v 0.579531 7.388746 -0.398848
v 0.604480 12.888801 -0.254802
v 0.345581 12.888801 0.004097
v 0.347072 13.080986 0.004196
v 0.604911 13.080986 -0.253643
v 0.841349 18.202879 0.040309
v 0.815369 18.201323 0.040309
vt 0.257812 0.804688
vt 0.257812 0.804688
vt 0.257812 0.804688
vt 0.257812 0.804688
vt 0.257812 0.804688
vt 0.257812 0.804688
vt 0.257812 0.804688
vt 0.257812 0.804688
vt 0.257812 0.804688
vt 0.257812 0.804688
vt 0.257812 0.804688
vt 0.257812 0.804688
vt 0.257812 0.804688
vt 0.257812 0.804688
vt 0.257812 0.804688
vt 0.257812 0.804688
vt 0.257812 0.804688
vt 0.257812 0.804688
vt 0.257812 0.804688
vt 0.257812 0.804688
vt 0.257812 0.804688
vt 0.257812 0.804688
vt 0.257812 0.804688
vt 0.257812 0.804688
vt 0.257812 0.804688
vt 0.257812 0.804688
vt 0.257812 0.804688
vt 0.257812 0.804688
vt 0.257812 0.804688
vt 0.257812 0.804688
vt 0.257812 0.804688
vt 0.257812 0.804688
vt 0.257812 0.804688
vt 0.257812 0.804688
vt 0.257812 0.804688
vt 0.257812 0.804688
vt 0.257812 0.804688
vt 0.257812 0.804688
vt 0.257812 0.804688
vt 0.257812 0.804688
vt 0.257812 0.804688
vt 0.257812 0.804688
vt 0.257812 0.804688
vt 0.257812 0.804688
vt 0.257812 0.804688
vt 0.257812 0.804688
vt 0.257812 0.804688
vt 0.257812 0.804688
vt 0.257812 0.804688
vt 0.257812 0.804688
vt 0.257812 0.804688
vt 0.257812 0.804688
vt 0.257812 0.804688
vt 0.257812 0.804688
vt 0.257812 0.804688
vt 0.257812 0.804688
vt 0.257812 0.804688
vt 0.257812 0.804688
vt 0.257812 0.804688
vt 0.257812 0.804688
vt 0.257812 0.804688
vt 0.257812 0.804688
vt 0.257812 0.804688
vt 0.257812 0.804688
vt 0.257812 0.804688
vt 0.257812 0.804688
vt 0.257812 0.804688
vt 0.257812 0.804688
vt 0.257812 0.804688
vt 0.257812 0.804688
vt 0.257812 0.804688
vt 0.257812 0.804688
vt 0.257812 0.804688
vt 0.257812 0.804688
vt 0.257812 0.804688
vt 0.257812 0.804688
vt 0.257812 0.804688
vt 0.257812 0.804688
vt 0.257812 0.804688
vt 0.257812 0.804688
vt 0.257812 0.804688
vt 0.257812 0.804688
vt 0.257812 0.804688
vt 0.257812 0.804688
vt 0.257812 0.804688
vt 0.257812 0.804688
vt 0.257812 0.804688
vt 0.257812 0.804688
vt 0.257812 0.804688
vt 0.257812 0.804688
vt 0.257812 0.804688
vt 0.257812 0.804688
vt 0.257812 0.804688
vt 0.257812 0.804688
vt 0.257812 0.804688
vt 0.257812 0.804688
vt 0.257812 0.804688
vt 0.257812 0.804688
vt 0.257812 0.804688
vt 0.257812 0.804688
vt 0.257812 0.804688
vt 0.257812 0.804688
vt 0.257812 0.804688
vt 0.257812 0.804688
vt 0.257812 0.804688
vt 0.257812 0.804688
vt 0.257812 0.804688
vt 0.257812 0.804688
vt 0.257812 0.804688
vt 0.257812 0.804688
vt 0.257812 0.804688
vt 0.257812 0.804688
vt 0.257812 0.804688
vt 0.257812 0.804688
vt 0.257812 0.804688
vt 0.257812 0.804688
vt 0.257812 0.804688
vt 0.257812 0.804688
vn 0.0000 1.0000 -0.0000
vn 0.7071 -0.0000 0.7071
vn -0.7071 0.0000 -0.7071
vn 0.0000 -1.0000 -0.0000
vn 0.7071 0.0000 -0.7071
vn -0.7071 -0.0000 0.7071
vn -0.3827 0.0101 -0.9238
vn -0.9239 0.0101 -0.3826
vn -0.4188 0.2005 -0.8857
vn 0.9239 0.0101 -0.3826
vn 0.3827 0.0101 -0.9238
vn 0.8857 0.2004 -0.4187
vn 0.3827 0.0101 0.9238
vn 0.9239 0.0101 0.3826
vn 0.4188 0.2005 0.8857
vn -0.9239 0.0101 0.3826
vn -0.3827 0.0101 0.9238
vn -0.8857 0.2004 0.4187
vn 1.0000 -0.0016 0.0001
vn 1.0000 -0.0008 0.0001
vn 1.0000 -0.0019 0.0001
vn 0.0000 -0.0162 -0.9999
vn 0.0000 -0.0163 -0.9999
vn -0.0000 -0.0117 -0.9999
vn -0.0000 -0.0118 -0.9999
vn 0.0000 0.0158 0.9999
vn 0.0000 0.0108 0.9999
vn 0.0000 0.0107 0.9999
vn 0.0000 0.0159 0.9999
vn -0.0000 0.0248 0.9997
vn 0.0000 0.0246 0.9997
vn -0.0000 -0.0245 -0.9997
vn -0.0000 -0.0246 -0.9997
vn -0.0000 -0.0000 1.0000
vn 0.0000 -0.0009 1.0000
vn -0.0000 0.0007 1.0000
vn 1.0000 -0.0064 0.0004
vn 1.0000 -0.0041 0.0003
vn 1.0000 -0.0040 0.0003
vn -0.0000 0.0130 0.9999
vn 0.0000 0.0005 1.0000
vn 0.7071 0.0094 0.7071
vn 0.7071 0.0028 0.7071
vn -1.0000 0.0036 -0.0002
vn -1.0000 0.0040 -0.0003
vn -1.0000 0.0009 0.0000
vn -1.0000 0.0007 0.0000
vn 0.0000 -0.0133 -0.9999
vn -0.0001 0.0012 -1.0000
vn -0.0001 0.0013 -1.0000
vn -0.0001 0.0008 -1.0000
vn -0.9998 0.0208 0.0000
vn -0.9998 0.0178 0.0000
vn 0.9998 -0.0188 -0.0000
vn 0.9998 -0.0212 0.0000
vn 0.9996 -0.0279 -0.0000
vn -0.9996 0.0282 -0.0000
vn -1.0000 0.0060 -0.0004
vn -1.0000 0.0061 -0.0004
vn -1.0000 0.0050 -0.0004
vn 0.9999 -0.0138 0.0000
vn -0.7070 0.0157 0.7070
vn -0.7071 0.0056 0.7071
vn -1.0000 0.0042 0.0003
vn -1.0000 0.0010 -0.0000
vn -1.0000 0.0036 0.0002
vn -0.9999 0.0134 0.0000
vn 0.0000 -0.0134 0.9999
vn -0.0000 -0.0252 0.9997
vn -0.0000 -0.0251 0.9997
vn 1.0000 -0.0016 -0.0001
vn 1.0000 -0.0008 -0.0001
vn 0.0000 -0.0171 0.9999
vn -0.0000 -0.0131 0.9999
vn 0.0000 -0.0172 0.9999
vn 0.0000 0.0168 -0.9999
vn -0.0000 0.0121 -0.9999
vn 0.0000 0.0254 -0.9997
vn 0.0000 0.0255 -0.9997
vn -0.0001 0.0009 -1.0000
vn -0.0001 0.0002 -1.0000
vn -0.0001 0.0005 -1.0000
vn 1.0000 -0.0057 -0.0003
vn 1.0000 -0.0040 -0.0003
vn 1.0000 -0.0041 -0.0003
vn 0.0000 0.0131 -0.9999
vn 0.7071 0.0100 -0.7071
vn 0.7071 0.0031 -0.7071
vn 0.0001 0.0013 -1.0000
vn 0.0001 0.0012 -1.0000
vn 0.0001 0.0008 -1.0000
vn 0.0001 0.0009 -1.0000
vn 0.0001 0.0005 -1.0000
vn 0.0001 0.0006 -1.0000
vn -1.0000 0.0063 0.0004
vn -1.0000 0.0050 0.0004
vn -0.7070 0.0164 -0.7070
vn -0.7071 0.0059 -0.7071
s off
f 1/1/1 2/2/1 3/3/1 4/4/1
f 5/5/2 4/4/2 3/3/2 6/6/2
f 7/7/3 2/2/3 1/1/3 8/8/3
f 7/7/4 8/8/4 5/5/4 6/6/4
f 8/8/5 1/1/5 4/4/5 5/5/5
f 6/6/6 3/3/6 2/2/6 7/7/6
f 9/9/3 10/10/3 11/11/3 12/12/3
f 12/12/5 11/11/5 13/13/5 14/14/5
f 14/14/2 13/13/2 15/15/2 16/16/2
f 16/16/6 15/15/6 10/10/6 9/9/6
f 13/13/1 11/11/1 10/10/1 15/15/1
f 17/17/4 18/18/4 19/19/4
f 20/20/4 17/17/4 19/19/4
f 21/21/4 17/17/4 20/20/4
f 21/21/4 18/18/4 17/17/4
f 21/21/7 20/20/8 22/22/9
f 18/18/10 21/21/11 22/22/12
f 19/19/13 18/18/14 22/22/15
f 20/20/16 19/19/17 22/22/18
s 1
f 23/23/19 24/24/20 25/25/20 26/26/21
f 27/27/22 28/28/23 29/29/24 30/30/25
f 31/31/26 32/32/27 33/33/28 34/34/29
f 35/35/30 31/31/26 34/34/29 26/26/31
f 36/36/32 23/23/33 28/28/23 27/27/22
f 37/37/34 38/38/35 39/39/35 40/40/34
f 41/41/36 37/37/34 40/40/34 42/42/36
f 29/29/37 28/28/38 34/34/39 33/33/37
f 43/43/40 35/35/30 26/26/31 25/25/40
f 44/44/36 45/45/36 46/46/41 47/47/41
f 48/48/42 49/49/42 50/50/42 51/51/42
f 52/52/43 53/53/43 54/54/43 55/55/43
f 36/36/44 35/35/45 43/43/46 56/56/47
f 28/28/38 23/23/19 26/26/21 34/34/39
f 56/56/48 24/24/48 23/23/33 36/36/32
f 57/57/49 58/58/50 59/59/51 60/60/51
f 61/61/52 62/62/52 63/63/53 64/64/53
f 65/65/34 61/61/34 64/64/35 66/66/35
f 66/66/54 67/67/54 68/68/55 65/65/55
f 65/65/55 68/68/55 69/69/56 45/45/56
f 44/44/57 70/70/57 62/62/52 61/61/52
f 45/45/36 44/44/36 61/61/34 65/65/34
f 30/30/58 32/32/59 31/31/60 27/27/60
f 69/69/56 71/71/61 46/46/61 45/45/56
f 72/72/62 73/73/62 74/74/62 75/75/62
f 76/76/63 77/77/63 78/78/63 79/79/63
f 27/27/60 31/31/60 35/35/45 36/36/44
f 80/80/64 81/81/65 82/82/46 83/83/66
f 47/47/67 84/84/67 70/70/57 44/44/57
f 81/81/68 80/80/69 85/85/70 86/86/68
f 85/85/71 87/87/71 88/88/72 86/86/72
f 89/89/73 90/90/74 91/91/74 92/92/75
f 93/93/76 94/94/76 95/95/77 96/96/77
f 83/83/78 87/87/79 94/94/76 93/93/76
f 97/97/80 98/98/80 99/99/81 100/100/82
f 58/58/50 57/57/49 98/98/80 97/97/80
f 80/80/69 89/89/73 92/92/75 85/85/70
f 91/91/83 95/95/83 94/94/84 92/92/85
f 82/82/86 88/88/86 87/87/79 83/83/78
f 101/101/87 102/102/87 103/103/87 104/104/87
f 105/105/88 106/106/88 107/107/88 108/108/88
f 69/69/89 70/70/90 84/84/91 71/71/91
f 92/92/85 94/94/84 87/87/71 85/85/71
f 68/68/92 67/67/93 63/63/94 62/62/92
f 69/69/89 68/68/92 62/62/92 70/70/90
f 90/90/95 89/89/96 93/93/96 96/96/95
f 109/109/97 110/110/97 111/111/97 112/112/97
f 113/113/98 114/114/98 115/115/98 116/116/98
f 89/89/96 80/80/64 83/83/66 93/93/96
f 41/41/36 42/42/36 117/117/41 118/118/41
l 118 59
l 117 60
