# Blender v2.90.0 Alpha OBJ File: 'Decos.blend'
# www.blender.org
o Cube.007_Cube.001
v 0.000235 1.906255 0.005442
v 0.205642 -0.220209 0.005441
v -0.102467 -0.220209 0.108144
v 0.000235 -0.220209 -0.199965
v 0.013551 1.553543 -0.118436
v 0.075611 1.553543 0.067775
v -0.366824 4.368362 0.005442
v 0.092000 4.421654 0.280736
v 0.092000 4.315072 -0.269853
v 0.000236 8.334886 -0.210955
v 0.216632 8.405941 0.005442
v -0.107963 8.370413 0.113640
v 0.013551 12.403481 0.005705
v -0.110567 1.553543 0.005705
v -0.091529 6.482081 -0.269853
v 0.367295 6.428791 0.005442
v -0.091529 6.375500 0.280736
v 0.777395 0.150985 -0.754007
v 0.585438 -0.192355 -0.689846
v -0.950721 -0.178986 -0.254745
v 0.231353 -0.178592 0.963909
v 1.047106 -0.207648 -0.280571
v 0.286921 -0.202308 -1.053955
v -0.934953 -0.245415 -0.545153
v -0.545624 -0.239871 0.945048
v 0.775458 -0.202308 0.769291
v 0.626681 0.013333 0.227283
v 0.626681 0.013333 -0.227283
v -0.227283 0.013333 0.626681
v 0.227283 0.013333 0.626681
v -0.399398 0.013333 -0.000000
v -0.853964 0.013333 -0.000000
v 0.000000 0.013333 -0.399398
v 0.000000 0.013333 -0.853964
v 0.656376 0.133522 0.000040
v 0.596305 0.134216 0.000001
v -0.000040 0.133522 0.656376
v -0.000001 0.134216 0.596305
v -0.656376 0.133522 -0.000040
v -0.596305 0.134216 -0.000001
v 0.000040 0.133522 -0.656376
v 0.000001 0.134216 -0.596305
v 0.269335 4.370366 -0.000015
v 0.000015 4.370366 0.269335
v -0.269335 4.370366 0.000015
v -0.000015 4.370366 -0.269335
vt 0.006534 0.878746
vt 0.006534 0.878746
vt 0.006534 0.878746
vt 0.006534 0.878746
vt 0.006534 0.878746
vt 0.006534 0.878746
vt 0.006534 0.878746
vt 0.006534 0.878746
vt 0.006534 0.878746
vt 0.006534 0.878746
vt 0.007812 0.867187
vt 0.007812 0.867188
vt 0.007812 0.867188
vt 0.006534 0.878746
vt 0.006534 0.878746
vt 0.006534 0.878746
vt 0.007812 0.867188
vt 0.007812 0.867188
vt 0.007812 0.867188
vt 0.007812 0.882812
vt 0.007812 0.882812
vt 0.007812 0.882812
vt 0.007812 0.882812
vt 0.007812 0.882812
vt 0.007812 0.882812
vt 0.007812 0.882812
vt 0.007812 0.867188
vt 0.007812 0.867188
vt 0.007812 0.867188
vt 0.007812 0.867188
vt 0.007812 0.867188
vt 0.007812 0.867188
vt 0.007812 0.867188
vt 0.007812 0.867188
vt 0.007812 0.867188
vt 0.007812 0.867188
vt 0.007812 0.867188
vt 0.007812 0.867188
vt 0.007812 0.867188
vt 0.007812 0.882812
vt 0.007812 0.867188
vn 0.3161 0.0305 0.9482
vn -0.9482 0.0305 -0.3161
vn 0.7055 0.0681 -0.7055
vn -0.0000 0.9818 -0.1901
vn -0.1599 0.9741 -0.1599
vn -0.6063 0.1949 0.7710
vn -0.6552 0.0073 0.7554
vn 0.0708 0.0064 0.9975
vn 0.0000 -0.9818 -0.1900
vn 0.2726 0.0273 0.9617
vn -0.0803 0.9938 0.0775
vn -0.5738 -0.8046 0.1529
vn 0.6627 -0.3649 -0.6539
vn -0.0006 0.0000 1.0000
vn 1.0000 0.0000 0.0006
vn -1.0000 0.0000 -0.0006
vn 0.0006 0.0000 -1.0000
vn 0.0000 -0.9818 0.1901
vn 0.1599 -0.9741 0.1599
vn -0.8867 0.1984 -0.4175
vn -0.3827 0.0107 -0.9238
vn -0.9239 0.0108 -0.3826
vn 0.7711 0.1949 -0.6062
vn 0.9975 0.0064 0.0709
vn 0.7555 0.0073 -0.6551
vn -0.0000 0.9818 0.1900
vn 0.3553 0.9105 0.2116
vn -0.8716 0.4517 -0.1904
vn -0.2530 0.8729 -0.4172
vn 0.0675 -0.9501 0.3046
s off
f 2/1/1 1/2/1 3/3/1
f 1/2/2 4/4/2 3/3/2
f 1/2/3 2/1/3 4/4/3
f 7/5/4 8/6/4 9/7/4
f 12/8/5 11/9/5 10/10/5
f 13/11/6 14/12/7 6/13/8
f 16/14/9 17/15/9 15/16/9
f 20/17/10 19/18/10 18/19/10
f 25/20/11 21/21/11 20/22/11
f 25/20/12 20/22/12 24/23/12
f 23/24/13 18/25/13 22/26/13
f 40/27/14 45/28/14 39/29/14
f 38/30/15 44/31/15 37/32/15
f 42/33/16 46/34/16 41/35/16
f 36/36/17 43/37/17 35/38/17
f 9/7/18 8/6/18 7/5/18
f 10/10/19 11/9/19 12/8/19
f 13/11/20 5/39/21 14/12/22
f 13/11/23 6/13/24 5/39/25
f 15/16/26 17/15/26 16/14/26
f 18/25/27 21/21/27 26/40/27 22/26/27
f 18/19/28 19/18/28 21/41/28
f 18/25/29 23/24/29 24/23/29 20/22/29
f 25/20/30 26/40/30 21/21/30
f 38/30/16 37/32/16 44/31/16
f 42/33/15 41/35/15 46/34/15
f 36/36/14 35/38/14 43/37/14
f 40/27/17 39/29/17 45/28/17
l 27 28
l 29 30
l 31 32
l 33 34
