# Blender v2.91.0 Beta OBJ File: 'decos.blend'
# www.blender.org
o Cube.007_Cube.001
v 0.586496 5.441432 -0.570801
v 0.000162 5.441432 0.015534
v 0.586496 5.441432 0.601868
v 1.172831 5.441432 0.015534
v 1.172831 -0.628589 0.015532
v 0.586496 -0.628589 0.601866
v 0.000162 -0.628589 0.015532
v 0.586496 -0.628589 -0.570803
v 0.624506 4.265843 0.016288
v 1.039805 4.265843 0.016288
v 0.624506 4.265843 0.431657
v 0.209211 4.265843 0.016288
v 0.624506 4.265843 -0.399081
v 0.624507 29.806498 0.016292
vt 0.257812 0.804688
vt 0.257812 0.804688
vt 0.257812 0.804688
vt 0.257812 0.804688
vt 0.257812 0.804688
vt 0.257812 0.804688
vt 0.257812 0.804688
vt 0.257812 0.804688
vt 0.257812 0.804688
vt 0.257812 0.804688
vt 0.257812 0.804688
vt 0.257812 0.804688
vt 0.257812 0.804688
vt 0.257812 0.804688
vn 0.0000 1.0000 0.0000
vn 0.7071 -0.0000 0.7071
vn -0.7071 0.0000 -0.7071
vn -0.0000 -1.0000 -0.0000
vn 0.7071 0.0000 -0.7071
vn -0.7071 -0.0000 0.7071
vn -0.3827 0.0148 -0.9238
vn -0.9238 0.0148 -0.3825
vn -0.4184 0.2046 -0.8849
vn 0.9238 0.0148 -0.3825
vn 0.3827 0.0148 -0.9238
vn 0.8850 0.2045 -0.4183
vn 0.3827 0.0148 0.9238
vn 0.9238 0.0148 0.3825
vn 0.4184 0.2046 0.8849
vn -0.9238 0.0147 0.3825
vn -0.3827 0.0148 0.9238
vn -0.8850 0.2045 0.4183
s off
f 1/1/1 3/2/1 4/3/1
f 4/3/2 6/4/2 5/5/2
f 2/6/3 8/7/3 7/8/3
f 8/7/4 6/4/4 7/8/4
f 1/1/5 5/5/5 8/7/5
f 3/2/6 7/8/6 6/4/6
f 9/9/4 10/10/4 11/11/4
f 12/12/4 9/9/4 11/11/4
f 13/13/4 9/9/4 12/12/4
f 13/13/4 10/10/4 9/9/4
f 13/13/7 12/12/8 14/14/9
f 10/10/10 13/13/11 14/14/12
f 11/11/13 10/10/14 14/14/15
f 12/12/16 11/11/17 14/14/18
f 1/1/1 2/6/1 3/2/1
f 4/3/2 3/2/2 6/4/2
f 2/6/3 1/1/3 8/7/3
f 8/7/4 5/5/4 6/4/4
f 1/1/5 4/3/5 5/5/5
f 3/2/6 2/6/6 7/8/6
