# Blender v2.91.0 Beta OBJ File: 'decos.blend'
# www.blender.org
o Cube.007_Cube.013
v 0.048773 7.865488 -0.003890
v 0.048775 7.865488 0.015882
v 0.107440 7.865488 0.015883
v 0.107437 7.865488 -0.003889
v 1.408557 7.860652 -0.037410
v -1.324739 7.860652 -0.037410
v -1.324739 7.903424 0.005365
v 1.408557 7.903424 0.005365
v 1.408557 7.817880 0.005365
v -1.324739 7.817880 0.005365
v -1.324739 7.860652 0.048140
v 1.408557 7.860652 0.048140
v 1.327705 7.888129 -0.988808
v 1.327705 7.888129 0.999539
v 1.370480 7.930903 0.999539
v 1.370480 7.930903 -0.988808
v 1.370480 7.845359 -0.988808
v 1.370480 7.845359 0.999539
v 1.413255 7.888129 0.999539
v 1.413255 7.888129 -0.988808
v -1.303430 7.888129 -0.988808
v -1.303430 7.888129 0.999539
v -1.260656 7.930903 0.999539
v -1.260656 7.930903 -0.988808
v -1.260656 7.845359 -0.988808
v -1.260656 7.845359 0.999539
v -1.217881 7.888129 0.999539
v -1.217881 7.888129 -0.988808
v -0.924095 7.888129 -0.988808
v -0.924095 7.888129 0.999539
v -0.881320 7.930903 0.999539
v -0.881320 7.930903 -0.988808
v -0.881320 7.845359 -0.988808
v -0.881320 7.845359 0.999539
v -0.838545 7.888129 0.999539
v -0.838545 7.888129 -0.988808
v 0.883802 7.888129 -0.988808
v 0.883802 7.888129 0.999539
v 0.926577 7.930903 0.999539
v 0.926577 7.930903 -0.988808
v 0.926577 7.845359 -0.988808
v 0.926577 7.845359 0.999539
v 0.969352 7.888129 0.999539
v 0.969352 7.888129 -0.988808
v 0.302692 7.888129 -0.988808
v 0.302693 7.888129 0.999539
v 0.345467 7.930903 0.999539
v 0.345467 7.930903 -0.988808
v 0.345467 7.845359 -0.988808
v 0.345467 7.845359 0.999539
v 0.388242 7.888129 0.999539
v 0.388242 7.888129 -0.988808
v -0.431766 7.888129 -0.988808
v -0.431766 7.888129 0.999539
v -0.388991 7.930903 0.999539
v -0.388991 7.930903 -0.988808
v -0.388991 7.845359 -0.988808
v -0.388991 7.845359 0.999539
v -0.346216 7.888129 0.999539
v -0.346216 7.888129 -0.988808
v -0.168257 -0.118248 0.111541
v 0.061852 -0.118248 0.111541
v -0.168257 -0.118248 -0.118568
v 0.061852 -0.118248 -0.118568
vt 0.257812 0.789062
vt 0.257812 0.789062
vt 0.257812 0.789062
vt 0.257812 0.789062
vt 0.257812 0.804688
vt 0.257812 0.804688
vt 0.257812 0.804688
vt 0.257812 0.804688
vt 0.257812 0.804688
vt 0.257812 0.804688
vt 0.257812 0.804688
vt 0.257812 0.804688
vt 0.257812 0.804688
vt 0.257812 0.804688
vt 0.257812 0.804688
vt 0.257812 0.804688
vt 0.257812 0.804688
vt 0.257812 0.804688
vt 0.257812 0.804688
vt 0.257812 0.804688
vt 0.257812 0.804688
vt 0.257812 0.804688
vt 0.257812 0.804688
vt 0.257812 0.804688
vt 0.257812 0.804688
vt 0.257812 0.804688
vt 0.257812 0.804688
vt 0.257812 0.804688
vt 0.257812 0.804688
vt 0.257812 0.804688
vt 0.257812 0.804688
vt 0.257812 0.804688
vt 0.257812 0.804688
vt 0.257812 0.804688
vt 0.257812 0.804688
vt 0.257812 0.804688
vt 0.257812 0.804688
vt 0.257812 0.804688
vt 0.257812 0.804688
vt 0.257812 0.804688
vt 0.257812 0.804688
vt 0.257812 0.804688
vt 0.257812 0.804688
vt 0.257812 0.804688
vt 0.257812 0.804688
vt 0.257812 0.804688
vt 0.257812 0.804688
vt 0.257812 0.804688
vt 0.257812 0.804688
vt 0.257812 0.804688
vt 0.257812 0.804688
vt 0.257812 0.804688
vt 0.257812 0.804688
vt 0.257812 0.804688
vt 0.257812 0.804688
vt 0.257812 0.804688
vt 0.257812 0.804688
vt 0.257812 0.804688
vt 0.257812 0.804688
vt 0.257812 0.804688
vt 0.257812 0.789062
vt 0.257812 0.789062
vt 0.257812 0.789062
vt 0.257812 0.789062
vn 0.0000 1.0000 0.0000
vn 0.0000 0.7071 -0.7071
vn 0.0000 -0.7071 -0.7071
vn 0.0000 0.7071 0.7071
vn 0.0000 -0.7071 0.7071
vn -0.7071 0.7071 0.0000
vn -0.7071 -0.7071 0.0000
vn 0.7071 0.7071 0.0000
vn 0.7071 -0.7071 0.0000
vn 0.0003 0.0450 0.9990
vn 0.0002 0.0450 0.9990
vn -0.0001 0.0010 1.0000
vn -0.0003 0.0010 1.0000
vn -1.0000 0.0079 -0.0003
vn -0.9972 0.0748 0.0002
vn -0.9972 0.0747 -0.0006
vn -1.0000 0.0080 0.0001
vn 1.0000 0.0037 -0.0000
vn 1.0000 -0.0021 -0.0000
vn 1.0000 0.0036 0.0001
vn -0.0001 0.0018 -1.0000
vn 0.0003 0.0499 -0.9988
vn 0.0010 0.0499 -0.9988
s off
f 1/1/1 2/2/1 3/3/1
f 1/1/1 3/3/1 4/4/1
f 5/5/2 6/6/2 7/7/2 8/8/2
f 9/9/3 10/10/3 6/6/3 5/5/3
f 8/8/4 7/7/4 11/11/4 12/12/4
f 12/12/5 11/11/5 10/10/5 9/9/5
f 13/13/6 14/14/6 15/15/6 16/16/6
f 17/17/7 18/18/7 14/14/7 13/13/7
f 16/16/8 15/15/8 19/19/8 20/20/8
f 20/20/9 19/19/9 18/18/9 17/17/9
f 21/21/6 22/22/6 23/23/6 24/24/6
f 25/25/7 26/26/7 22/22/7 21/21/7
f 24/24/8 23/23/8 27/27/8 28/28/8
f 28/28/9 27/27/9 26/26/9 25/25/9
f 29/29/6 30/30/6 31/31/6 32/32/6
f 33/33/7 34/34/7 30/30/7 29/29/7
f 32/32/8 31/31/8 35/35/8 36/36/8
f 36/36/9 35/35/9 34/34/9 33/33/9
f 37/37/6 38/38/6 39/39/6 40/40/6
f 41/41/7 42/42/7 38/38/7 37/37/7
f 40/40/8 39/39/8 43/43/8 44/44/8
f 44/44/9 43/43/9 42/42/9 41/41/9
f 45/45/6 46/46/6 47/47/6 48/48/6
f 49/49/7 50/50/7 46/46/7 45/45/7
f 48/48/8 47/47/8 51/51/8 52/52/8
f 52/52/9 51/51/9 50/50/9 49/49/9
f 53/53/6 54/54/6 55/55/6 56/56/6
f 57/57/7 58/58/7 54/54/7 53/53/7
f 56/56/8 55/55/8 59/59/8 60/60/8
f 60/60/9 59/59/9 58/58/9 57/57/9
s 1
f 61/61/10 62/62/11 3/3/12 2/2/13
f 1/1/14 63/63/15 61/61/16 2/2/17
f 4/4/18 3/3/18 62/62/19 64/64/20
f 4/4/21 64/64/22 63/63/23 1/1/21
