# Blender v2.82 (sub 7) OBJ File: ''
# www.blender.org
mtllib antenna-oneworld.mtl
o Cube.007_Cube.005
v -0.107193 9.253304 0.126453
v 0.013551 9.481643 0.005709
v -0.107193 9.253304 -0.115035
v 0.134295 9.253304 -0.115035
v 0.134295 9.253304 0.126453
v 0.013551 9.024966 0.005709
v 0.202647 6.310929 0.005709
v 0.013551 6.310929 -0.183387
v -0.175545 6.310929 0.005709
v 0.013551 6.310929 0.194805
v 0.340351 3.318425 0.005709
v 0.013551 3.318425 -0.321091
v -0.313249 3.318425 0.005709
v 0.013551 3.318425 0.332509
v 0.000235 1.380571 -0.199965
v -0.205170 1.380571 0.005442
v 0.000235 1.380571 0.210847
v 0.205642 1.380571 0.005442
v 0.205642 -0.220209 0.005441
v 0.000235 -0.220209 0.210847
v -0.205170 -0.220209 0.005441
v 0.000235 -0.220209 -0.199965
v 0.013551 7.091862 -0.118434
v -0.110567 7.091862 0.005707
v 0.013551 9.253304 0.005709
v 0.137671 7.091862 0.005707
v 0.013551 7.091862 0.129847
v 0.000235 3.307043 -0.361617
v -0.366824 3.307043 0.005443
v 0.000235 3.307043 0.372502
v 0.367295 3.307043 0.005443
v 0.000235 3.147173 -0.361617
v 0.367295 3.147173 0.005443
v 0.000235 3.147173 0.372502
v -0.366824 3.147173 0.005443
v -0.203918 6.308510 0.005443
v -0.203918 6.148640 0.005443
v 0.012479 6.148640 0.221839
v 0.012479 6.308510 0.221839
v 0.012479 6.308510 -0.210954
v 0.228875 6.308510 0.005443
v 0.012479 6.148640 -0.210954
v 0.228875 6.148640 0.005443
v 0.013551 3.260168 -0.118435
v 0.137671 3.260168 0.005706
v 0.137671 1.116043 0.005705
v 0.013551 1.116043 -0.118436
v 0.013551 3.260168 0.129846
v -0.110567 3.260168 0.005706
v -0.110567 1.116043 0.005705
v 0.013551 1.116043 0.129845
v 0.013551 6.262169 0.129846
v 0.137671 6.262169 0.005706
v 0.013551 6.262169 -0.118435
v -0.110567 6.262169 0.005706
v 0.013551 4.826792 0.129846
v 0.137671 4.826792 0.005706
v 0.013551 4.826792 -0.118435
v -0.110567 4.826792 0.005706
v 0.000235 4.852328 -0.361617
v -0.366824 4.852328 0.005443
v 0.000235 4.852328 0.372502
v 0.367295 4.852328 0.005443
v 0.000235 4.692458 -0.361617
v 0.367295 4.692458 0.005443
v 0.000235 4.692458 0.372502
v -0.366824 4.692458 0.005443
v 0.874780 0.096178 -0.505055
v 0.505055 0.096178 -0.874780
v 0.538627 0.192355 -0.932930
v 0.932930 0.192355 -0.538627
v 1.077254 0.192355 0.000000
v 0.690868 0.192355 -0.398873
v 0.797746 0.192355 0.000000
v 0.690868 -0.192355 -0.398873
v 0.797746 -0.192355 -0.000000
v 0.000000 0.096178 -1.010109
v 0.000000 0.192355 -1.077254
v 0.398873 0.192355 -0.690868
v 0.398873 -0.192355 -0.690868
v -0.505054 0.096178 -0.874780
v -0.538627 0.192355 -0.932930
v 0.000000 0.192355 -0.797746
v 0.000000 -0.192355 -0.797746
v -0.874780 0.096178 -0.505055
v -0.932929 0.192355 -0.538627
v -0.398873 0.192355 -0.690868
v -0.398873 -0.192355 -0.690868
v -1.010109 0.096178 0.000000
v -1.077254 0.192355 0.000000
v -0.690868 0.192355 -0.398873
v -0.690868 -0.192355 -0.398873
v -0.874780 0.096178 0.505054
v -0.932930 0.192355 0.538627
v -0.797746 0.192355 0.000000
v -0.797746 -0.192355 -0.000000
v -0.505054 0.096178 0.874780
v -0.538627 0.192355 0.932930
v -0.690868 0.192355 0.398873
v -0.690868 -0.192355 0.398873
v 0.000000 0.096178 1.010109
v 0.000000 0.192355 1.077254
v -0.398873 0.192355 0.690868
v -0.398873 -0.192355 0.690868
v 0.505055 0.096178 0.874780
v 0.538627 0.192355 0.932930
v 0.000000 0.192355 0.797746
v 0.000000 -0.192355 0.797746
v 0.874780 0.096178 0.505055
v 0.932930 0.192355 0.538627
v 0.398873 0.192355 0.690868
v 0.398873 -0.192355 0.690868
v 1.010109 0.096178 0.000000
v 0.690868 0.192355 0.398873
v 0.690868 -0.192355 0.398873
v 1.010109 -0.096178 -0.000000
v 0.874780 -0.096178 -0.505055
v 0.932930 0.000000 -0.538627
v 1.077254 0.000000 0.000000
v 0.874780 -0.096178 0.505055
v 0.932930 -0.000000 0.538627
v 0.505055 -0.096178 0.874780
v 0.538627 -0.000000 0.932930
v 0.000000 -0.096178 1.010109
v 0.000000 -0.000000 1.077254
v -0.505054 -0.096178 0.874780
v -0.538627 -0.000000 0.932930
v -0.874780 -0.096178 0.505054
v -0.932930 -0.000000 0.538627
v -1.010109 -0.096178 -0.000000
v -1.077254 0.000000 0.000000
v -0.874780 -0.096178 -0.505055
v -0.932929 0.000000 -0.538627
v -0.505054 -0.096178 -0.874780
v -0.538627 0.000000 -0.932930
v 0.000000 -0.096178 -1.010109
v 0.000000 0.000000 -1.077254
v 0.505055 -0.096178 -0.874780
v 0.538627 0.000000 -0.932930
v 0.932930 -0.192355 -0.538627
v 0.538627 -0.192355 -0.932930
v 0.000000 -0.192355 -1.077254
v -0.538627 -0.192355 -0.932930
v -0.932929 -0.192355 -0.538627
v -1.077254 -0.192355 -0.000000
v -0.932930 -0.192355 0.538627
v -0.538627 -0.192355 0.932930
v 0.000000 -0.192355 1.077254
v 0.538627 -0.192355 0.932930
v 0.932930 -0.192355 0.538627
v 1.077254 -0.192355 -0.000000
v 0.399398 -0.039854 -0.227283
v 0.399398 -0.039854 0.227283
v 0.399398 0.063095 0.227283
v 0.399398 0.063095 -0.227283
v 0.853964 -0.039854 0.227283
v 0.853964 0.063095 0.227283
v 0.853964 -0.039854 -0.227283
v 0.853964 0.063095 -0.227283
v 0.227283 -0.039854 0.399398
v -0.227283 -0.039854 0.399398
v -0.227283 0.063095 0.399398
v 0.227283 0.063095 0.399398
v -0.227283 -0.039854 0.853964
v -0.227283 0.063095 0.853964
v 0.227283 -0.039854 0.853964
v 0.227283 0.063095 0.853964
v -0.399398 -0.039854 0.227283
v -0.399398 -0.039854 -0.227283
v -0.399398 0.063095 -0.227283
v -0.399398 0.063095 0.227283
v -0.853964 -0.039854 -0.227283
v -0.853964 0.063095 -0.227283
v -0.853964 -0.039854 0.227283
v -0.853964 0.063095 0.227283
v -0.227283 -0.039854 -0.399398
v 0.227283 -0.039854 -0.399398
v 0.227283 0.063095 -0.399398
v -0.227283 0.063095 -0.399398
v 0.227283 -0.039854 -0.853964
v 0.227283 0.063095 -0.853964
v -0.227283 -0.039854 -0.853964
v -0.227283 0.063095 -0.853964
v 0.656406 0.050970 0.030126
v 0.596255 0.051409 0.030008
v 0.596255 0.051409 -0.030008
v 0.656406 0.050970 -0.030126
v -0.030127 0.050970 0.656406
v -0.030008 0.051409 0.596255
v 0.030008 0.051409 0.596255
v 0.030126 0.050970 0.656406
v -0.656406 0.050970 -0.030127
v -0.596255 0.051409 -0.030008
v -0.596255 0.051409 0.030008
v -0.656406 0.050970 0.030126
v 0.030127 0.050970 -0.656406
v 0.030008 0.051409 -0.596255
v -0.030008 0.051409 -0.596255
v -0.030126 0.050970 -0.656406
v 0.276258 3.228335 0.006859
v 0.276258 3.228335 -0.006857
v 0.262410 3.228774 -0.006974
v 0.262410 3.228774 0.006976
v -0.006858 3.228335 0.276259
v 0.006858 3.228335 0.276259
v 0.006975 3.228774 0.262411
v -0.006975 3.228774 0.262411
v -0.276258 3.228335 -0.006857
v -0.276258 3.228335 0.006859
v -0.262410 3.228774 0.006976
v -0.262410 3.228774 -0.006974
v 0.006858 3.228335 -0.276257
v -0.006858 3.228335 -0.276257
v -0.006974 3.228774 -0.262409
v 0.006975 3.228774 -0.262409
vt 0.007812 0.695312
vt 0.007812 0.695312
vt 0.007812 0.695312
vt 0.007812 0.695312
vt 0.007812 0.695312
vt 0.007812 0.695312
vt 0.085938 0.742188
vt 0.085938 0.742188
vt 0.085938 0.742188
vt 0.085938 0.742188
vt 0.085938 0.742188
vt 0.085938 0.742188
vt 0.085938 0.742188
vt 0.085938 0.742188
vt 0.007812 0.867188
vt 0.007812 0.867188
vt 0.007812 0.867188
vt 0.007812 0.867188
vt 0.007812 0.867188
vt 0.007812 0.867188
vt 0.007812 0.867188
vt 0.007812 0.867188
vt 0.007812 0.851562
vt 0.007812 0.851562
vt 0.007812 0.851562
vt 0.007812 0.851562
vt 0.007812 0.851562
vt 0.007812 0.867188
vt 0.007812 0.867188
vt 0.007812 0.867188
vt 0.007812 0.867188
vt 0.007812 0.867188
vt 0.007812 0.867188
vt 0.007812 0.867188
vt 0.007812 0.867188
vt 0.007812 0.867188
vt 0.007812 0.867188
vt 0.007812 0.867188
vt 0.007812 0.867188
vt 0.007812 0.867188
vt 0.007812 0.867188
vt 0.007812 0.867188
vt 0.007812 0.867188
vt 0.007812 0.851562
vt 0.007812 0.851562
vt 0.007812 0.851562
vt 0.007812 0.851562
vt 0.007812 0.851562
vt 0.007812 0.851562
vt 0.007812 0.851562
vt 0.007812 0.851562
vt 0.007812 0.882812
vt 0.007812 0.882812
vt 0.007812 0.882812
vt 0.007812 0.882812
vt 0.007812 0.882812
vt 0.007812 0.882812
vt 0.007812 0.882812
vt 0.007812 0.882812
vt 0.007812 0.851562
vt 0.007812 0.851562
vt 0.007812 0.851562
vt 0.007812 0.851562
vt 0.007812 0.851562
vt 0.007812 0.851562
vt 0.007812 0.851562
vt 0.007812 0.851562
vt 0.007812 0.882812
vt 0.007812 0.882812
vt 0.007812 0.882812
vt 0.007812 0.882812
vt 0.007812 0.882812
vt 0.007812 0.882812
vt 0.007812 0.882812
vt 0.007812 0.882812
vt 0.007812 0.867188
vt 0.007812 0.867188
vt 0.007812 0.867188
vt 0.007812 0.867188
vt 0.007812 0.867188
vt 0.007812 0.867188
vt 0.007812 0.867188
vt 0.007812 0.867188
vt 0.007812 0.851562
vt 0.007812 0.851562
vt 0.007812 0.851562
vt 0.007812 0.851562
vt 0.007812 0.867188
vt 0.007812 0.867188
vt 0.007812 0.867188
vt 0.007812 0.867188
vt 0.007812 0.851562
vt 0.007812 0.851562
vt 0.007812 0.851562
vt 0.007812 0.851562
vt 0.007812 0.851562
vt 0.007812 0.851562
vt 0.007812 0.867188
vt 0.007812 0.867188
vt 0.007812 0.851562
vt 0.007812 0.851562
vt 0.007812 0.851562
vt 0.007812 0.851562
vt 0.007812 0.867188
vt 0.007812 0.867188
vt 0.007812 0.851562
vt 0.007812 0.851562
vt 0.007812 0.851562
vt 0.007812 0.851562
vt 0.007812 0.867188
vt 0.007812 0.867188
vt 0.007812 0.851562
vt 0.007812 0.851562
vt 0.007812 0.851562
vt 0.007812 0.851562
vt 0.007812 0.867188
vt 0.007812 0.867188
vt 0.007812 0.851562
vt 0.007812 0.851562
vt 0.007812 0.851562
vt 0.007812 0.851562
vt 0.007812 0.867188
vt 0.007812 0.867188
vt 0.007812 0.851562
vt 0.007812 0.851562
vt 0.007812 0.851562
vt 0.007812 0.851562
vt 0.007812 0.867188
vt 0.007812 0.867188
vt 0.007812 0.851562
vt 0.007812 0.851562
vt 0.007812 0.851562
vt 0.007812 0.851562
vt 0.007812 0.867188
vt 0.007812 0.867188
vt 0.007812 0.851562
vt 0.007812 0.851562
vt 0.007812 0.851562
vt 0.007812 0.851562
vt 0.007812 0.867188
vt 0.007812 0.867188
vt 0.007812 0.851562
vt 0.007812 0.851562
vt 0.007812 0.851562
vt 0.007812 0.851562
vt 0.007812 0.867188
vt 0.007812 0.867188
vt 0.007812 0.851562
vt 0.007812 0.851562
vt 0.007812 0.851562
vt 0.007812 0.851562
vt 0.007812 0.867188
vt 0.007812 0.867188
vt 0.007812 0.851562
vt 0.007812 0.851562
vt 0.007812 0.851562
vt 0.007812 0.851562
vt 0.007812 0.851562
vt 0.007812 0.851562
vt 0.007812 0.851562
vt 0.007812 0.851562
vt 0.007812 0.851562
vt 0.007812 0.851562
vt 0.007812 0.851562
vt 0.007812 0.851562
vt 0.007812 0.851562
vt 0.007812 0.851562
vt 0.007812 0.851562
vt 0.007812 0.851562
vt 0.007812 0.851562
vt 0.007812 0.851562
vt 0.007812 0.851562
vt 0.007812 0.851562
vt 0.007812 0.851562
vt 0.007812 0.851562
vt 0.007812 0.851562
vt 0.007812 0.851562
vt 0.007812 0.851562
vt 0.007812 0.851562
vt 0.007812 0.867188
vt 0.007812 0.867188
vt 0.007812 0.867188
vt 0.007812 0.867188
vt 0.007812 0.867188
vt 0.007812 0.867188
vt 0.007812 0.867188
vt 0.007812 0.867188
vt 0.007812 0.867188
vt 0.007812 0.867188
vt 0.007812 0.867188
vt 0.007812 0.867188
vt 0.007812 0.867188
vt 0.007812 0.867188
vt 0.007812 0.867188
vt 0.007812 0.867188
vt 0.007812 0.867188
vt 0.007812 0.867188
vt 0.007812 0.867188
vt 0.007812 0.867188
vt 0.007812 0.867188
vt 0.007812 0.867188
vt 0.007812 0.867188
vt 0.007812 0.867188
vt 0.007812 0.867188
vt 0.007812 0.867188
vt 0.007812 0.867188
vt 0.007812 0.867188
vt 0.007812 0.867188
vt 0.007812 0.867188
vt 0.007812 0.867188
vt 0.007812 0.867188
vt 0.007812 0.867188
vt 0.007812 0.867188
vt 0.007812 0.867188
vt 0.007812 0.867188
vt 0.007812 0.867188
vt 0.007812 0.867188
vt 0.007812 0.867188
vt 0.007812 0.867188
vt 0.007812 0.867188
vt 0.007812 0.867188
vt 0.007812 0.867188
vt 0.007812 0.867188
vt 0.007812 0.867188
vt 0.007812 0.867188
vt 0.007812 0.867188
vt 0.007812 0.867188
vt 0.007812 0.851562
vt 0.007812 0.851562
vt 0.007812 0.851562
vt 0.007812 0.851562
vt 0.007812 0.851562
vt 0.007812 0.851562
vt 0.007812 0.851562
vt 0.007812 0.851562
vt 0.007812 0.867188
vt 0.007812 0.867188
vt 0.007812 0.867188
vt 0.007812 0.867188
vt 0.007812 0.851562
vt 0.007812 0.851562
vt 0.007812 0.851562
vt 0.007812 0.851562
vt 0.007812 0.851562
vt 0.007812 0.851562
vt 0.007812 0.851562
vt 0.007812 0.851562
vt 0.007812 0.867188
vt 0.007812 0.867188
vt 0.007812 0.867188
vt 0.007812 0.867188
vt 0.007812 0.851562
vt 0.007812 0.851562
vt 0.007812 0.851562
vt 0.007812 0.851562
vt 0.007812 0.851562
vt 0.007812 0.851562
vt 0.007812 0.851562
vt 0.007812 0.851562
vt 0.007812 0.867188
vt 0.007812 0.867188
vt 0.007812 0.867188
vt 0.007812 0.867188
vt 0.007812 0.851562
vt 0.007812 0.851562
vt 0.007812 0.851562
vt 0.007812 0.851562
vt 0.007812 0.851562
vt 0.007812 0.851562
vt 0.007812 0.851562
vt 0.007812 0.851562
vt 0.007812 0.867188
vt 0.007812 0.867188
vt 0.007812 0.867188
vt 0.007812 0.867188
vt 0.007812 0.851562
vt 0.007812 0.851562
vt 0.007812 0.851562
vt 0.007812 0.851562
vt 0.007812 0.851562
vt 0.007812 0.851562
vt 0.007812 0.851562
vt 0.007812 0.851562
vt 0.007812 0.851562
vt 0.007812 0.851562
vt 0.007812 0.851562
vt 0.007812 0.851562
vt 0.007812 0.851562
vt 0.007812 0.851562
vt 0.007812 0.851562
vt 0.007812 0.851562
vt 0.007812 0.851562
vt 0.007812 0.851562
vt 0.007812 0.851562
vt 0.007812 0.851562
vt 0.007812 0.851562
vt 0.007812 0.851562
vt 0.007812 0.851562
vt 0.007812 0.851562
vt 0.007812 0.851562
vt 0.007812 0.851562
vt 0.007812 0.851562
vt 0.007812 0.851562
vt 0.007812 0.851562
vt 0.007812 0.851562
vt 0.007812 0.851562
vt 0.007812 0.851562
vn -0.9552 -0.2937 -0.0371
vn -0.9556 -0.2946 0.0000
vn -0.9552 -0.2937 0.0371
vn 0.0371 -0.2937 -0.9552
vn -0.0000 -0.2946 -0.9556
vn -0.0371 -0.2937 -0.9552
vn 0.9552 -0.2937 0.0371
vn 0.9556 -0.2946 -0.0000
vn 0.9552 -0.2937 -0.0371
vn -0.0371 -0.2937 0.9552
vn 0.0000 -0.2946 0.9556
vn 0.0371 -0.2937 0.9552
vn -0.0000 0.2946 0.9556
vn -0.0371 0.2937 0.9552
vn 0.0371 0.2937 0.9552
vn 0.9556 0.2946 -0.0000
vn 0.9552 0.2937 0.0371
vn 0.9552 0.2937 -0.0371
vn -0.0000 0.2945 -0.9556
vn 0.0371 0.2937 -0.9552
vn -0.0371 0.2937 -0.9552
vn -0.9556 0.2946 -0.0000
vn -0.9552 0.2937 -0.0371
vn -0.9552 0.2937 0.0371
vn 0.0000 1.0000 0.0000
vn 0.7071 -0.0000 0.7071
vn -0.7071 0.0000 -0.7071
vn 0.7071 0.0000 -0.7071
vn -0.7071 -0.0000 0.7071
vn -0.3820 0.0491 -0.9229
vn -0.9229 0.0491 -0.3819
vn -0.4152 0.2344 -0.8790
vn 0.9229 0.0491 -0.3819
vn 0.3820 0.0491 -0.9229
vn 0.8791 0.2344 -0.4151
vn 0.3820 0.0491 0.9229
vn 0.9229 0.0491 0.3819
vn 0.4152 0.2344 0.8790
vn -0.9229 0.0491 0.3819
vn -0.3820 0.0491 0.9229
vn -0.8791 0.2344 0.4151
vn 0.0000 -1.0000 -0.0000
vn 0.6542 0.3827 -0.6524
vn 0.6525 0.3827 -0.6541
vn 0.9239 0.0012 -0.3826
vn 0.3828 0.0012 -0.9238
vn -0.6542 0.3827 0.6524
vn -0.6525 0.3827 0.6541
vn -0.9239 0.0012 0.3826
vn -0.3828 0.0012 0.9238
vn -0.6525 0.3827 -0.6541
vn -0.6542 0.3827 -0.6524
vn -0.3828 0.0012 -0.9238
vn -0.9239 0.0012 -0.3826
vn 0.6525 0.3827 0.6541
vn 0.6542 0.3827 0.6524
vn 0.3828 0.0012 0.9238
vn 0.9239 0.0012 0.3826
vn 0.5863 -0.5591 -0.5863
vn -0.9659 0.0000 0.2588
vn 0.2146 -0.5591 -0.8008
vn -0.2146 -0.5591 -0.8008
vn -0.2588 0.0000 0.9659
vn -0.5863 -0.5591 -0.5863
vn 0.2588 0.0000 0.9659
vn -0.8008 -0.5591 -0.2146
vn -0.8008 -0.5591 0.2146
vn 0.9659 0.0000 0.2588
vn -0.5863 -0.5591 0.5863
vn 0.9659 0.0000 -0.2588
vn -0.2146 -0.5591 0.8008
vn 0.2146 -0.5591 0.8008
vn 0.2588 0.0000 -0.9659
vn 0.5863 -0.5591 0.5863
vn -0.2588 0.0000 -0.9659
vn 0.8008 -0.5591 0.2146
vn -0.9659 0.0000 -0.2588
vn 0.8008 -0.5591 -0.2146
vn -0.8009 -0.5591 -0.2146
vn 0.8008 0.5591 -0.2146
vn 0.8008 0.5591 0.2146
vn 0.5863 0.5591 0.5863
vn 0.2146 0.5591 0.8008
vn -0.2146 0.5591 0.8008
vn -0.5863 0.5591 0.5863
vn -0.8008 0.5591 0.2146
vn -0.8009 0.5591 -0.2146
vn -0.5863 0.5591 -0.5863
vn -0.2146 0.5591 -0.8008
vn 0.2146 0.5591 -0.8008
vn 0.5863 0.5591 -0.5863
vn -0.8008 0.5591 -0.2146
vn -1.0000 0.0000 0.0000
vn 0.0000 0.0000 1.0000
vn 1.0000 0.0000 0.0000
vn 0.0000 0.0000 -1.0000
vn -0.0073 -1.0000 0.0000
vn 0.0000 -1.0000 -0.0073
vn 0.0073 -1.0000 0.0000
vn 0.0000 -1.0000 0.0073
vn 0.0317 0.9995 0.0000
vn 0.0000 0.9995 0.0317
vn -0.0317 0.9995 0.0000
vn 0.0000 0.9995 -0.0317
vn -0.0001 0.0073 1.0000
vn -0.9945 -0.1045 0.0000
vn 0.9945 -0.1045 0.0000
vn -1.0000 0.0073 0.0001
vn 1.0000 0.0073 -0.0001
vn 0.0000 0.1188 0.9929
vn 0.0000 0.1188 -0.9929
vn 1.0000 0.0073 0.0001
vn -1.0000 0.0073 -0.0001
vn 0.0000 -0.1045 -0.9945
vn 0.0001 0.0073 1.0000
vn 0.0000 -0.1045 0.9945
vn -0.0001 0.0073 -1.0000
vn 0.9929 0.1188 0.0000
vn -0.9929 0.1188 0.0000
vn 0.0001 0.0073 -1.0000
usemtl Default_OBJ.004
s off
f 1/1/1 2/2/2 3/3/3
f 3/3/4 2/2/5 4/4/6
f 4/4/7 2/2/8 5/5/9
f 5/5/10 2/2/11 1/1/12
f 6/6/13 5/5/14 1/1/15
f 6/6/16 4/4/17 5/5/18
f 6/6/19 3/3/20 4/4/21
f 6/6/22 1/1/23 3/3/24
f 7/7/25 8/8/25 9/9/25 10/10/25
f 11/11/25 12/12/25 13/13/25 14/14/25
s 1
f 15/15/25 16/16/25 17/17/25 18/18/25
f 19/19/26 18/18/26 17/17/26 20/20/26
f 21/21/27 16/16/27 15/15/27 22/22/27
f 22/22/28 15/15/28 18/18/28 19/19/28
f 20/20/29 17/17/29 16/16/29 21/21/29
f 23/23/30 24/24/31 25/25/32
f 26/26/33 23/23/34 25/25/35
f 27/27/36 26/26/37 25/25/38
f 24/24/39 27/27/40 25/25/41
f 28/28/25 29/29/25 30/30/25 31/31/25
f 32/32/42 33/33/42 34/34/42 35/35/42
f 30/30/26 34/34/26 33/33/26 31/31/26
f 28/28/27 32/32/27 35/35/27 29/29/27
f 29/29/29 35/35/29 34/34/29 30/30/29
f 31/31/28 33/33/28 32/32/28 28/28/28
f 36/36/29 37/37/29 38/38/29 39/39/29
f 40/40/25 36/36/25 39/39/25 41/41/25
f 42/42/42 43/43/42 38/38/42 37/37/42
f 40/40/27 42/42/27 37/37/27 36/36/27
f 39/39/26 38/38/26 43/43/26 41/41/26
f 41/41/28 43/43/28 42/42/28 40/40/28
f 44/44/43 45/45/44 46/46/45 47/47/46
f 48/48/47 49/49/48 50/50/49 51/51/50
f 49/49/51 44/44/52 47/47/53 50/50/54
f 45/45/55 48/48/56 51/51/57 46/46/58
f 26/52/55 27/53/56 52/54/57 53/55/58
f 24/56/51 23/57/52 54/58/53 55/59/54
f 27/53/47 24/56/48 55/59/49 52/54/50
f 23/57/43 26/52/44 53/55/45 54/58/46
f 53/60/55 52/61/56 56/62/57 57/63/58
f 55/64/51 54/65/52 58/66/53 59/67/54
f 52/61/47 55/64/48 59/67/49 56/62/50
f 54/65/43 53/60/44 57/63/45 58/66/46
f 57/68/55 56/69/56 48/70/57 45/71/58
f 59/72/51 58/73/52 44/74/53 49/75/54
f 56/69/47 59/72/48 49/75/49 48/70/50
f 58/73/43 57/68/44 45/71/45 44/74/46
f 60/76/25 61/77/25 62/78/25 63/79/25
f 64/80/42 65/81/42 66/82/42 67/83/42
f 62/78/26 66/82/26 65/81/26 63/79/26
f 60/76/27 64/80/27 67/83/27 61/77/27
f 61/77/29 67/83/29 66/82/29 62/78/29
f 63/79/28 65/81/28 64/80/28 60/76/28
f 68/84/59 69/85/59 70/86/59 71/87/59
f 72/88/25 71/89/25 73/90/25 74/91/25
f 74/92/60 73/93/60 75/94/60 76/95/60
f 69/85/61 77/96/61 78/97/61 70/86/61
f 71/89/25 70/98/25 79/99/25 73/90/25
f 73/93/29 79/100/29 80/101/29 75/94/29
f 77/96/62 81/102/62 82/103/62 78/97/62
f 70/98/25 78/104/25 83/105/25 79/99/25
f 79/100/63 83/106/63 84/107/63 80/101/63
f 81/102/64 85/108/64 86/109/64 82/103/64
f 78/104/25 82/110/25 87/111/25 83/105/25
f 83/106/65 87/112/65 88/113/65 84/107/65
f 85/108/66 89/114/66 90/115/66 86/109/66
f 82/110/25 86/116/25 91/117/25 87/111/25
f 87/112/26 91/118/26 92/119/26 88/113/26
f 89/114/67 93/120/67 94/121/67 90/115/67
f 86/116/25 90/122/25 95/123/25 91/117/25
f 91/118/68 95/124/68 96/125/68 92/119/68
f 93/120/69 97/126/69 98/127/69 94/121/69
f 90/122/25 94/128/25 99/129/25 95/123/25
f 95/124/70 99/130/70 100/131/70 96/125/70
f 97/126/71 101/132/71 102/133/71 98/127/71
f 94/128/25 98/134/25 103/135/25 99/129/25
f 99/130/28 103/136/28 104/137/28 100/131/28
f 101/132/72 105/138/72 106/139/72 102/133/72
f 98/134/25 102/140/25 107/141/25 103/135/25
f 103/136/73 107/142/73 108/143/73 104/137/73
f 105/138/74 109/144/74 110/145/74 106/139/74
f 102/140/25 106/146/25 111/147/25 107/141/25
f 107/142/75 111/148/75 112/149/75 108/143/75
f 109/144/76 113/150/76 72/151/76 110/145/76
f 106/146/25 110/152/25 114/153/25 111/147/25
f 111/148/27 114/154/27 115/155/27 112/149/27
f 110/152/25 72/88/25 74/91/25 114/153/25
f 114/154/77 74/92/77 76/95/77 115/155/77
f 113/150/78 68/84/78 71/87/78 72/151/78
f 116/156/78 117/157/78 118/158/78 119/159/78
f 120/160/76 116/156/76 119/159/76 121/161/76
f 122/162/74 120/160/74 121/161/74 123/163/74
f 124/164/72 122/162/72 123/163/72 125/165/72
f 126/166/71 124/164/71 125/165/71 127/167/71
f 128/168/69 126/166/69 127/167/69 129/169/69
f 130/170/67 128/168/67 129/169/67 131/171/67
f 132/172/79 130/170/79 131/171/79 133/173/79
f 134/174/64 132/172/64 133/173/64 135/175/64
f 136/176/62 134/174/62 135/175/62 137/177/62
f 138/178/61 136/176/61 137/177/61 139/179/61
f 117/157/59 138/178/59 139/179/59 118/158/59
f 119/180/80 118/181/80 68/182/80 113/183/80
f 121/184/81 119/180/81 113/183/81 109/185/81
f 123/186/82 121/184/82 109/185/82 105/187/82
f 125/188/83 123/186/83 105/187/83 101/189/83
f 127/190/84 125/188/84 101/189/84 97/191/84
f 129/192/85 127/190/85 97/191/85 93/193/85
f 131/194/86 129/192/86 93/193/86 89/195/86
f 133/196/87 131/194/87 89/195/87 85/197/87
f 135/198/88 133/196/88 85/197/88 81/199/88
f 137/200/89 135/198/89 81/199/89 77/201/89
f 139/202/90 137/200/90 77/201/90 69/203/90
f 118/181/91 139/202/91 69/203/91 68/182/91
f 140/204/91 141/205/91 138/206/91 117/207/91
f 141/205/90 142/208/90 136/209/90 138/206/90
f 142/208/89 143/210/89 134/211/89 136/209/89
f 143/210/88 144/212/88 132/213/88 134/211/88
f 144/212/92 145/214/92 130/215/92 132/213/92
f 145/214/86 146/216/86 128/217/86 130/215/86
f 146/216/85 147/218/85 126/219/85 128/217/85
f 147/218/84 148/220/84 124/221/84 126/219/84
f 148/220/83 149/222/83 122/223/83 124/221/83
f 149/222/82 150/224/82 120/225/82 122/223/82
f 150/224/81 151/226/81 116/227/81 120/225/81
f 151/226/80 140/204/80 117/207/80 116/227/80
f 152/228/93 153/229/93 154/230/93 155/231/93
f 156/232/94 157/233/94 154/230/94 153/229/94
f 156/232/95 158/234/95 159/235/95 157/233/95
f 158/234/96 152/228/96 155/231/96 159/235/96
f 157/236/25 159/237/25 155/238/25 154/239/25
f 160/240/96 161/241/96 162/242/96 163/243/96
f 164/244/93 165/245/93 162/242/93 161/241/93
f 164/244/94 166/246/94 167/247/94 165/245/94
f 166/246/95 160/240/95 163/243/95 167/247/95
f 165/248/25 167/249/25 163/250/25 162/251/25
f 168/252/95 169/253/95 170/254/95 171/255/95
f 172/256/96 173/257/96 170/254/96 169/253/96
f 172/256/93 174/258/93 175/259/93 173/257/93
f 174/258/94 168/252/94 171/255/94 175/259/94
f 173/260/25 175/261/25 171/262/25 170/263/25
f 176/264/94 177/265/94 178/266/94 179/267/94
f 180/268/95 181/269/95 178/266/95 177/265/95
f 180/268/96 182/270/96 183/271/96 181/269/96
f 182/270/93 176/264/93 179/267/93 183/271/93
f 181/272/25 183/273/25 179/274/25 178/275/25
f 184/276/97 185/277/97 186/278/97 187/279/97
f 188/280/98 189/281/98 190/282/98 191/283/98
f 192/284/99 193/285/99 194/286/99 195/287/99
f 196/288/100 197/289/100 198/290/100 199/291/100
f 200/292/101 201/293/101 202/294/101 203/295/101
f 204/296/102 205/297/102 206/298/102 207/299/102
f 208/300/103 209/301/103 210/302/103 211/303/103
f 212/304/104 213/305/104 214/306/104 215/307/104
f 195/287/105 194/286/105 210/302/105 209/301/105
f 186/278/106 185/277/106 203/295/106 202/294/106
f 194/286/107 193/285/107 211/303/107 210/302/107
f 189/281/108 188/280/108 204/296/108 207/299/108
f 197/289/109 196/288/109 212/304/109 215/307/109
f 188/280/110 191/283/110 205/297/110 204/296/110
f 196/288/111 199/291/111 213/305/111 212/304/111
f 191/283/112 190/282/112 206/298/112 205/297/112
f 199/291/113 198/290/113 214/306/113 213/305/113
f 190/282/114 189/281/114 207/299/114 206/298/114
f 185/277/115 184/276/115 200/292/115 203/295/115
f 198/290/116 197/289/116 215/307/116 214/306/116
f 193/285/117 192/284/117 208/300/117 211/303/117
f 184/276/118 187/279/118 201/293/118 200/292/118
f 192/284/119 195/287/119 209/301/119 208/300/119
f 187/279/120 186/278/120 202/294/120 201/293/120
