# Blender v2.91.0 Beta OBJ File: 'decos.blend'
# www.blender.org
o Cube.007_Cube.017
v -0.055949 22.949663 0.019454
v -0.055949 22.983082 0.019454
v 0.188488 22.983082 -0.224983
v 0.188488 22.949663 -0.224983
v 0.432925 22.983082 0.019454
v 0.432925 22.949663 0.019454
v 0.188488 22.983082 0.263891
v 0.188488 22.949663 0.263891
v 0.188560 26.180817 0.016291
v 0.188560 26.180817 0.036009
v 0.208275 26.180817 0.016291
v 0.168845 26.180817 0.016291
v 0.188560 26.180817 -0.003428
v 0.188560 22.976095 -0.033922
v 0.138355 22.976095 0.016291
v 0.238764 22.976095 0.016291
v 0.188560 22.976095 0.066504
v 4.695189 26.202173 -0.030378
v -4.415796 26.202173 -0.030378
v -4.415796 26.250418 0.017875
v 4.695189 26.250418 0.017875
v 4.695189 26.153931 0.017875
v -4.415796 26.153931 0.017875
v -4.415796 26.202173 0.017875
v 4.695189 26.202173 0.017875
v 4.695189 26.202173 0.066128
v -4.415796 26.202173 0.066128
v 4.520013 26.293766 -3.296037
v 4.520014 26.293766 3.331787
v 4.568266 26.342012 3.331787
v 4.568266 26.342012 -3.296037
v 4.568266 26.245525 -3.296037
v 4.568266 26.245525 3.331787
v 4.568266 26.293766 -3.296037
v 4.616519 26.293766 -3.296037
v 4.616519 26.293766 3.331787
v -4.250438 26.293766 -3.296037
v -4.250438 26.293766 3.331787
v -4.202185 26.342012 3.331787
v -4.202185 26.342012 -3.296037
v -4.202185 26.245525 -3.296037
v -4.202185 26.245525 3.331787
v -4.153932 26.293766 3.331787
v -4.153933 26.293766 -3.296037
v -2.985986 26.293766 -3.296037
v -2.985986 26.293766 3.331787
v -2.937733 26.342012 3.331787
v -2.937733 26.342012 -3.296037
v -2.937733 26.245525 -3.296037
v -2.937733 26.245525 3.331787
v -2.889480 26.293766 3.331787
v -2.889480 26.293766 -3.296037
v 3.040336 26.293766 -3.296037
v 3.040337 26.293766 3.331787
v 3.088589 26.342012 3.331787
v 3.088589 26.342012 -3.296037
v 3.088589 26.245525 -3.296037
v 3.088589 26.245525 3.331787
v 3.088589 26.293766 -3.296037
v 3.136842 26.293766 -3.296037
v 3.136842 26.293766 3.331787
v 1.103304 26.293766 -3.296037
v 1.103305 26.293766 3.331787
v 1.151557 26.342012 3.331787
v 1.151557 26.342012 -3.296037
v 1.151557 26.245525 -3.296037
v 1.151557 26.245525 3.331787
v 1.151557 26.293766 -3.296037
v 1.199810 26.293766 -3.296037
v 1.199810 26.293766 3.331787
v -1.344890 26.293766 -3.296037
v -1.344889 26.293766 3.331787
v -1.296636 26.342012 3.331787
v -1.296637 26.342012 -3.296037
v -1.296637 26.245525 -3.296037
v -1.296636 26.245525 3.331787
v -1.296637 26.293766 -3.296037
v -1.248384 26.293766 -3.296037
v -1.248383 26.293766 3.331787
v 0.202636 14.950268 0.348442
v 0.209348 22.965597 0.210390
v 0.209348 22.967154 0.236369
v 0.202635 14.951445 0.373842
v 0.150479 14.950268 0.348442
v 0.171291 6.253721 0.688612
v 0.085977 6.253721 0.688612
v 0.062179 -0.395717 0.963622
v -0.045395 -0.395717 0.963622
v 0.085956 6.253721 0.719760
v -0.045395 -0.394161 0.994191
v 0.062179 -0.394161 0.994191
v 0.171280 6.253721 0.719760
v 0.803972 6.253721 0.055930
v 0.971148 -0.395716 0.054653
v 1.001718 -0.394161 0.054653
v 0.835106 6.253721 0.055933
v 0.150477 14.951445 0.373842
v 0.167628 22.967154 0.236369
v -0.178791 14.961317 0.044291
v -0.153393 14.960135 0.044291
v -0.002447 22.965595 0.040315
v -0.028427 22.967152 0.040315
v 0.164730 6.156833 0.695708
v 0.810295 6.156833 0.050142
v 0.804063 6.349018 0.049888
v 0.165997 6.349018 0.687953
v 0.198176 17.653072 0.292644
v 0.457075 17.653072 0.033745
v 0.456325 17.845257 0.033722
v 0.198486 17.845257 0.291562
v 0.167628 22.965597 0.210390
v 0.531964 14.961317 -0.007845
v 0.506568 14.960135 -0.007845
v 0.379422 22.965595 -0.001405
v 0.405402 22.967152 -0.001405
v 0.835106 6.253721 -0.029390
v 0.405402 22.967152 0.040315
v 0.531964 14.961317 0.044291
v 1.001718 -0.394161 -0.052921
v 0.803972 6.253721 -0.029384
v 0.971148 -0.395716 -0.052921
v 0.506568 14.960135 0.044291
v 0.379422 22.965595 0.040315
v -0.178791 14.961317 -0.007845
v -0.577870 6.253721 -0.029390
v -0.577870 6.253721 0.055933
v -0.984933 -0.394161 -0.052921
v -0.984933 -0.394161 0.054653
v -0.546704 6.253721 0.055930
v -0.954364 -0.395716 0.054653
v -0.954364 -0.395716 -0.052921
v -0.546704 6.253721 -0.029384
v -0.153393 14.960135 -0.007845
v 0.150479 14.950268 -0.312003
v 0.085977 6.253721 -0.662065
v 0.171291 6.253721 -0.662065
v 0.202636 14.950268 -0.312003
v 0.062179 -0.395716 -0.961890
v 0.062179 -0.394161 -0.992460
v 0.171280 6.253721 -0.693216
v -0.002447 22.965595 -0.001405
v 0.090815 6.156833 0.695708
v 0.092941 6.349018 0.687953
v -0.545124 6.349018 0.049888
v -0.554751 6.156833 0.050142
v 0.168533 17.653072 0.292644
v 0.168964 17.845257 0.291562
v -0.088875 17.845257 0.033722
v -0.090366 17.653072 0.033745
v 0.167628 22.965597 -0.171480
v 0.167628 22.967154 -0.197459
v 0.150477 14.951445 -0.337403
v -0.028427 22.967152 -0.001405
v 0.209348 22.965597 -0.171480
v 0.202635 14.951445 -0.337403
v 0.209348 22.967154 -0.197459
v 0.085956 6.253721 -0.693216
v -0.045395 -0.394161 -0.992460
v -0.045395 -0.395716 -0.961890
v 0.164730 6.156833 -0.669339
v 0.165997 6.349018 -0.661234
v 0.804063 6.349018 -0.023168
v 0.810295 6.156833 -0.023773
v 0.198176 17.653072 -0.254798
v 0.198486 17.845257 -0.253639
v 0.456325 17.845257 0.004201
v 0.457075 17.653072 0.004102
v 0.090815 6.156833 -0.669339
v -0.554751 6.156833 -0.023773
v -0.545124 6.349018 -0.023168
v 0.092941 6.349018 -0.661234
v 0.168533 17.653072 -0.254798
v -0.090366 17.653072 0.004102
v -0.088875 17.845257 0.004201
v 0.168964 17.845257 -0.253639
vt 0.257812 0.804688
vt 0.257812 0.804688
vt 0.257812 0.804688
vt 0.257812 0.804688
vt 0.257812 0.804688
vt 0.257812 0.804688
vt 0.257812 0.804688
vt 0.257812 0.804688
vt 0.257812 0.804688
vt 0.257812 0.804688
vt 0.257812 0.804688
vt 0.257812 0.804688
vt 0.257812 0.804688
vt 0.257812 0.804688
vt 0.257812 0.804688
vt 0.257812 0.804688
vt 0.257812 0.804688
vt 0.257812 0.804688
vt 0.257812 0.804688
vt 0.257812 0.804688
vt 0.257812 0.804688
vt 0.257812 0.804688
vt 0.257812 0.804688
vt 0.257812 0.804688
vt 0.257812 0.804688
vt 0.257812 0.804688
vt 0.257812 0.804688
vt 0.257812 0.804688
vt 0.257812 0.804688
vt 0.257812 0.804688
vt 0.257812 0.804688
vt 0.257812 0.804688
vt 0.257812 0.804688
vt 0.257812 0.804688
vt 0.257812 0.804688
vt 0.257812 0.804688
vt 0.257812 0.804688
vt 0.257812 0.804688
vt 0.257812 0.804688
vt 0.257812 0.804688
vt 0.257812 0.804688
vt 0.257812 0.804688
vt 0.257812 0.804688
vt 0.257812 0.804688
vt 0.257812 0.804688
vt 0.257812 0.804688
vt 0.257812 0.804688
vt 0.257812 0.804688
vt 0.257812 0.804688
vt 0.257812 0.804688
vt 0.257812 0.804688
vt 0.257812 0.804688
vt 0.257812 0.804688
vt 0.257812 0.804688
vt 0.257812 0.804688
vt 0.257812 0.804688
vt 0.257812 0.804688
vt 0.257812 0.804688
vt 0.257812 0.804688
vt 0.257812 0.804688
vt 0.257812 0.804688
vt 0.257812 0.804688
vt 0.257812 0.804688
vt 0.257812 0.804688
vt 0.257812 0.804688
vt 0.257812 0.804688
vt 0.257812 0.804688
vt 0.257812 0.804688
vt 0.257812 0.804688
vt 0.257812 0.804688
vt 0.257812 0.804688
vt 0.257812 0.804688
vt 0.257812 0.804688
vt 0.257812 0.804688
vt 0.257812 0.804688
vt 0.257812 0.804688
vt 0.257812 0.804688
vt 0.257812 0.804688
vt 0.257812 0.804688
vt 0.257812 0.804688
vt 0.257812 0.804688
vt 0.257812 0.804688
vt 0.257812 0.804688
vt 0.257812 0.804688
vt 0.257812 0.804688
vt 0.257812 0.804688
vt 0.257812 0.804688
vt 0.257812 0.804688
vt 0.257812 0.804688
vt 0.257812 0.804688
vt 0.257812 0.804688
vt 0.257812 0.804688
vt 0.257812 0.804688
vt 0.257812 0.804688
vt 0.257812 0.804688
vt 0.257812 0.804688
vt 0.257812 0.804688
vt 0.257812 0.804688
vt 0.257812 0.804688
vt 0.257812 0.804688
vt 0.257812 0.804688
vt 0.257812 0.804688
vt 0.257812 0.804688
vt 0.257812 0.804688
vt 0.257812 0.804688
vt 0.257812 0.804688
vt 0.257812 0.804688
vt 0.257812 0.804688
vt 0.257812 0.804688
vt 0.257812 0.804688
vt 0.257812 0.804688
vt 0.257812 0.804688
vt 0.257812 0.804688
vt 0.257812 0.804688
vt 0.257812 0.804688
vt 0.257812 0.804688
vt 0.257812 0.804688
vt 0.257812 0.804688
vt 0.257812 0.804688
vt 0.257812 0.804688
vt 0.257812 0.804688
vt 0.257812 0.804688
vt 0.257812 0.804688
vt 0.257812 0.804688
vt 0.257812 0.804688
vt 0.257812 0.804688
vt 0.257812 0.804688
vt 0.257812 0.804688
vt 0.257812 0.804688
vt 0.257812 0.804688
vt 0.257812 0.804688
vt 0.257812 0.804688
vt 0.257812 0.804688
vt 0.257812 0.804688
vt 0.257812 0.804688
vt 0.257812 0.804688
vt 0.257812 0.804688
vt 0.257812 0.804688
vt 0.257812 0.804688
vt 0.257812 0.804688
vt 0.257812 0.804688
vt 0.257812 0.804688
vt 0.257812 0.804688
vt 0.257812 0.804688
vt 0.257812 0.804688
vt 0.257812 0.804688
vt 0.257812 0.804688
vt 0.257812 0.804688
vt 0.257812 0.804688
vt 0.257812 0.804688
vt 0.257812 0.804688
vt 0.257812 0.804688
vt 0.257812 0.804688
vt 0.257812 0.804688
vt 0.257812 0.804688
vt 0.257812 0.804688
vt 0.257812 0.804688
vt 0.257812 0.804688
vt 0.257812 0.804688
vt 0.257812 0.804688
vt 0.257812 0.804688
vt 0.257812 0.804688
vt 0.257812 0.804688
vt 0.257812 0.804688
vt 0.257812 0.804688
vt 0.257812 0.804688
vt 0.257812 0.804688
vt 0.257812 0.804688
vt 0.257812 0.804688
vt 0.257812 0.804688
vt 0.257812 0.804688
vt 0.257812 0.804688
vt 0.257812 0.804688
vt 0.257812 0.804688
vt 0.257812 0.804688
vn -0.7071 0.0000 -0.7071
vn 0.7071 0.0000 -0.7071
vn 0.7071 -0.0000 0.7071
vn -0.7071 -0.0000 0.7071
vn 0.0000 1.0000 0.0000
vn -0.3827 0.0091 -0.9238
vn -0.9239 0.0091 -0.3826
vn 0.9239 0.0091 -0.3826
vn 0.3827 0.0091 -0.9238
vn 0.3827 0.0091 0.9238
vn 0.9239 0.0091 0.3826
vn -0.9239 0.0091 0.3826
vn -0.3827 0.0091 0.9238
vn 0.0000 0.7072 -0.7070
vn 0.0000 -0.7072 -0.7070
vn -1.0000 0.0000 0.0000
vn 1.0000 0.0000 0.0000
vn 0.0000 0.7072 0.7070
vn 0.0000 -0.7072 0.7070
vn -0.7071 0.7072 0.0000
vn -0.7070 -0.7072 0.0000
vn 0.0000 0.0000 -1.0000
vn 0.7071 0.7072 0.0000
vn 0.7070 -0.7072 0.0000
vn -0.7071 0.7071 0.0000
vn 1.0000 -0.0019 0.0001
vn 1.0000 -0.0008 0.0001
vn 1.0000 -0.0022 0.0002
vn 0.0000 -0.0245 -0.9997
vn 0.0000 -0.0250 -0.9997
vn -0.0001 -0.0361 -0.9993
vn 0.0000 -0.0359 -0.9994
vn -0.0000 -0.0566 -0.9984
vn -0.0000 0.0360 0.9994
vn -0.0000 0.0570 0.9984
vn -0.0000 0.0362 0.9993
vn -0.0001 0.0006 1.0000
vn -0.0000 -0.0002 1.0000
vn -0.9997 0.0236 -0.0011
vn -0.9999 0.0121 -0.0007
vn -1.0000 0.0047 -0.0004
vn -1.0000 0.0039 -0.0003
vn -0.0000 0.0130 0.9999
vn -0.0000 0.0252 0.9997
vn -0.0000 0.0247 0.9997
vn 0.0001 0.0009 1.0000
vn 0.0000 0.0005 1.0000
vn 0.7069 0.0239 0.7069
vn 0.7071 0.0028 0.7071
vn -1.0000 0.0010 -0.0000
vn -1.0000 0.0007 -0.0000
vn 0.0000 -0.0133 -0.9999
vn -0.0001 0.0016 -1.0000
vn 0.0000 0.0010 -1.0000
vn -0.0000 0.0008 -1.0000
vn 0.9996 0.0274 0.0000
vn 0.9996 0.0268 0.0000
vn 0.9996 0.0265 -0.0000
vn -0.9996 -0.0267 -0.0000
vn -0.9997 -0.0263 -0.0000
vn -0.9996 0.0281 0.0000
vn -0.9996 0.0286 -0.0000
vn -0.9989 0.0477 -0.0000
vn -0.9989 0.0478 0.0000
vn -0.9968 0.0803 -0.0000
vn 0.0001 0.0006 1.0000
vn 0.0001 0.0002 1.0000
vn 0.9968 -0.0798 0.0000
vn 0.9989 -0.0477 0.0000
vn 0.9996 -0.0278 0.0000
vn 0.9996 -0.0282 0.0000
vn 0.0000 -0.0256 0.9997
vn -0.0000 -0.0381 0.9993
vn 0.0000 -0.0383 0.9993
vn 0.0000 -0.0251 0.9997
vn 0.9998 -0.0186 -0.0008
vn 1.0000 -0.0094 -0.0004
vn 1.0000 -0.0091 -0.0004
vn 0.9999 -0.0140 0.0000
vn -0.7066 0.0363 0.7066
vn -0.7071 0.0056 0.7071
vn -1.0000 0.0048 0.0004
vn -1.0000 0.0021 0.0002
vn -1.0000 0.0018 0.0001
vn -1.0000 0.0034 0.0002
vn -0.9999 0.0134 0.0000
vn 0.0000 -0.0135 0.9999
vn 1.0000 -0.0022 -0.0002
vn 1.0000 -0.0005 -0.0000
vn -0.0000 0.0254 -0.9997
vn -0.0000 0.0258 -0.9997
vn -0.0000 0.0384 -0.9993
vn 0.0000 0.0382 -0.9993
vn 0.0000 0.0614 -0.9981
vn -0.0002 0.0030 -1.0000
vn -0.0000 -0.0610 0.9981
vn -0.0003 0.0046 -1.0000
vn -0.9997 0.0236 0.0011
vn -0.9999 0.0121 0.0007
vn -0.9999 0.0123 0.0007
vn 0.0000 0.0131 -0.9999
vn 0.7069 0.0251 -0.7069
vn 0.7071 0.0031 -0.7071
vn 0.0001 0.0016 -1.0000
vn 0.0002 0.0030 -1.0000
vn 0.0003 0.0046 -1.0000
vn 0.9998 -0.0186 0.0008
vn 1.0000 -0.0090 0.0004
vn 1.0000 -0.0092 0.0004
vn 0.9998 -0.0185 0.0008
vn -0.7066 0.0376 -0.7066
vn -0.7071 0.0059 -0.7071
vn -0.0001 0.0009 1.0000
s off
f 1/1/1 2/2/1 3/3/1 4/4/1
f 4/4/2 3/3/2 5/5/2 6/6/2
f 6/6/3 5/5/3 7/7/3 8/8/3
f 8/8/4 7/7/4 2/2/4 1/1/4
f 5/5/5 3/3/5 2/2/5 7/7/5
f 9/9/5 10/10/5 11/11/5
f 12/12/5 10/10/5 9/9/5
f 13/13/5 12/12/5 9/9/5
f 13/13/5 9/9/5 11/11/5
f 14/14/6 15/15/7 12/12/7 13/13/6
f 16/16/8 14/14/9 13/13/9 11/11/8
f 17/17/10 16/16/11 11/11/11 10/10/10
f 15/15/12 17/17/13 10/10/13 12/12/12
f 18/18/14 19/19/14 20/20/14 21/21/14
f 22/22/15 23/23/15 19/19/15 18/18/15
f 19/19/16 24/24/16 20/20/16
f 19/19/16 23/23/16 24/24/16
f 25/25/17 26/26/17 22/22/17
f 21/21/17 26/26/17 25/25/17
f 18/18/17 21/21/17 25/25/17
f 18/18/17 25/25/17 22/22/17
f 20/20/16 24/24/16 27/27/16
f 24/24/16 23/23/16 27/27/16
f 21/21/18 20/20/18 27/27/18 26/26/18
f 26/26/19 27/27/19 23/23/19 22/22/19
f 28/28/20 29/29/20 30/30/20 31/31/20
f 32/32/21 33/33/21 29/29/21 28/28/21
f 34/34/22 35/35/22 32/32/22
f 31/31/22 35/35/22 34/34/22
f 28/28/22 31/31/22 34/34/22
f 28/28/22 34/34/22 32/32/22
f 31/31/23 30/30/23 36/36/23 35/35/23
f 35/35/24 36/36/24 33/33/24 32/32/24
f 37/37/20 38/38/20 39/39/20 40/40/20
f 41/41/21 42/42/21 38/38/21 37/37/21
f 40/40/23 39/39/23 43/43/23 44/44/23
f 44/44/24 43/43/24 42/42/24 41/41/24
f 45/45/20 46/46/20 47/47/20 48/48/20
f 49/49/21 50/50/21 46/46/21 45/45/21
f 48/48/23 47/47/23 51/51/23 52/52/23
f 52/52/24 51/51/24 50/50/24 49/49/24
f 53/53/25 54/54/25 55/55/25 56/56/25
f 57/57/21 58/58/21 54/54/21 53/53/21
f 59/59/22 60/60/22 57/57/22
f 56/56/22 60/60/22 59/59/22
f 53/53/22 56/56/22 59/59/22
f 53/53/22 59/59/22 57/57/22
f 56/56/23 55/55/23 61/61/23 60/60/23
f 60/60/24 61/61/24 58/58/24 57/57/24
f 62/62/20 63/63/20 64/64/20 65/65/20
f 66/66/21 67/67/21 63/63/21 62/62/21
f 68/68/22 69/69/22 66/66/22
f 65/65/22 69/69/22 68/68/22
f 62/62/22 65/65/22 68/68/22
f 62/62/22 68/68/22 66/66/22
f 65/65/23 64/64/23 70/70/23 69/69/23
f 69/69/24 70/70/24 67/67/24 66/66/24
f 71/71/20 72/72/20 73/73/20 74/74/20
f 75/75/21 76/76/21 72/72/21 71/71/21
f 77/77/22 78/78/22 75/75/22
f 74/74/22 78/78/22 77/77/22
f 71/71/22 74/74/22 77/77/22
f 71/71/22 77/77/22 75/75/22
f 74/74/23 73/73/23 79/79/23 78/78/23
f 78/78/24 79/79/24 76/76/24 75/75/24
s 1
f 80/80/26 81/81/27 82/82/27 83/83/28
f 84/84/29 80/80/30 85/85/31 86/86/32
f 86/86/32 85/85/31 87/87/33 88/88/33
f 89/89/34 90/90/35 91/91/35 92/92/36
f 93/93/37 94/94/38 95/95/38 96/96/37
f 88/88/39 90/90/39 89/89/40 86/86/40
f 89/89/40 97/97/41 84/84/42 86/86/40
f 98/98/43 97/97/44 83/83/45 82/82/43
f 99/99/46 100/100/46 101/101/47 102/102/47
f 103/103/48 104/104/48 105/105/48 106/106/48
f 107/107/49 108/108/49 109/109/49 110/110/49
f 84/84/42 97/97/41 98/98/50 111/111/51
f 111/111/52 81/81/52 80/80/30 84/84/29
f 112/112/53 113/113/54 114/114/55 115/115/55
f 116/116/56 112/112/57 115/115/58 117/117/58 118/118/57 96/96/56 95/95/58 119/119/57
f 113/113/59 120/120/60 121/121/59 94/94/59 93/93/60 122/122/59 123/123/60 114/114/60
f 99/99/61 124/124/62 125/125/63 126/126/64
f 126/126/64 125/125/63 127/127/65 128/128/65
f 129/129/66 126/126/67 128/128/38 130/130/38
f 130/130/68 131/131/68 132/132/69 129/129/69
f 100/100/46 99/99/46 126/126/67 129/129/66
f 132/132/69 133/133/70 100/100/71 129/129/69
f 134/134/72 135/135/73 136/136/74 137/137/75
f 138/138/76 139/139/76 140/140/77 136/136/78
f 133/133/70 141/141/79 101/101/79 100/100/71
f 142/142/80 143/143/80 144/144/80 145/145/80
f 146/146/81 147/147/81 148/148/81 149/149/81
f 134/134/82 150/150/83 151/151/84 152/152/85
f 102/102/86 153/153/86 124/124/62 99/99/61
f 150/150/87 134/134/72 137/137/75 154/154/87
f 140/140/77 155/155/88 137/137/88 136/136/78
f 137/137/88 155/155/88 156/156/89 154/154/89
f 152/152/90 155/155/91 140/140/92 157/157/93
f 157/157/93 140/140/92 139/139/94 158/158/94
f 113/113/54 112/112/53 116/116/95 120/120/95
f 135/135/73 159/159/96 138/138/96 136/136/74
f 120/120/95 116/116/95 119/119/97 121/121/97
f 159/159/98 135/135/99 157/157/100 158/158/98
f 135/135/99 134/134/82 152/152/85 157/157/100
f 151/151/101 156/156/101 155/155/91 152/152/90
f 160/160/102 161/161/102 162/162/102 163/163/102
f 164/164/103 165/165/103 166/166/103 167/167/103
f 133/133/104 124/124/104 153/153/55 141/141/55
f 133/133/104 132/132/105 125/125/105 124/124/104
f 132/132/105 131/131/106 127/127/106 125/125/105
f 87/87/107 85/85/108 92/92/109 91/91/110
f 85/85/108 80/80/26 83/83/28 92/92/109
f 168/168/111 169/169/111 170/170/111 171/171/111
f 172/172/112 173/173/112 174/174/112 175/175/112
f 122/122/113 93/93/37 96/96/37 118/118/113
f 97/97/44 89/89/34 92/92/36 83/83/45
f 122/122/113 118/118/113 117/117/47 123/123/47
