# Blender v2.91.0 Beta OBJ File: 'decos.blend'
# www.blender.org
o Cube.001_Cube.001
v 9.217097 2.158762 -2.530998
v -9.217097 2.158762 -2.530998
v -7.168854 2.158762 -2.530998
v -5.120610 2.158762 -2.530998
v -3.072366 2.158762 -2.530998
v -1.024122 2.158762 -2.530998
v 1.024122 2.158762 -2.530998
v 3.072366 2.158762 -2.530998
v 5.120610 2.158762 -2.530998
v 7.168854 2.158762 -2.530998
v -7.168854 1.021734 1.208126
v -3.072366 1.021734 1.208126
v 7.168855 1.021734 1.208126
v 9.217097 1.021734 1.208126
v -9.217097 1.021734 1.208126
v -5.120610 1.021734 1.208126
v -1.024122 1.021734 1.208126
v 1.024122 1.021734 1.208126
v 3.072366 1.021734 1.208126
v 5.120610 1.021734 1.208126
v -7.168854 -0.066596 1.340954
v -3.072366 -0.066596 1.340954
v 7.168855 -0.066596 1.340954
v 9.217097 -0.066596 1.340954
v -9.217097 -0.066596 1.340954
v -5.120610 -0.066596 1.340954
v -1.024122 -0.066596 1.340954
v 1.024122 -0.066596 1.340954
v 3.072366 -0.066596 1.340954
v 5.120610 -0.066596 1.340954
v -9.340758 1.885124 -2.530998
v -9.340758 2.158762 -2.257360
v -9.340758 2.158762 -2.804636
v -9.340758 2.432400 -2.530998
v 9.341651 1.885124 -2.530998
v 9.341651 2.158762 -2.257360
v 9.341651 2.158762 -2.804636
v 9.341651 2.432400 -2.530998
vt 0.835938 0.289062
vt 0.835938 0.289062
vt 0.835938 0.289062
vt 0.835938 0.289062
vt 0.835938 0.289062
vt 0.835938 0.289062
vt 0.835938 0.289062
vt 0.835938 0.289062
vt 0.835938 0.320312
vt 0.835938 0.320312
vt 0.835938 0.320312
vt 0.835938 0.320312
vt 0.835938 0.320312
vt 0.835938 0.320312
vt 0.835938 0.320312
vt 0.835938 0.320312
vt 0.757812 0.257812
vt 0.757812 0.257812
vt 0.757812 0.257812
vt 0.757812 0.257812
vt 0.835938 0.320312
vt 0.835938 0.320312
vt 0.835938 0.320312
vt 0.835938 0.320312
vt 0.757812 0.257812
vt 0.757812 0.257812
vt 0.757812 0.257812
vt 0.757812 0.257812
vt 0.835938 0.320312
vt 0.835938 0.320312
vt 0.835938 0.320312
vt 0.835938 0.320312
vt 0.757812 0.257812
vt 0.757812 0.257812
vt 0.757812 0.257812
vt 0.757812 0.257812
vt 0.835938 0.320312
vt 0.835938 0.320312
vt 0.835938 0.320312
vt 0.835938 0.320312
vt 0.757812 0.257812
vt 0.757812 0.257812
vt 0.757812 0.257812
vt 0.757812 0.257812
vt 0.835938 0.320312
vt 0.835938 0.320312
vt 0.835938 0.320312
vt 0.835938 0.320312
vt 0.757812 0.257812
vt 0.757812 0.257812
vt 0.835938 0.320312
vt 0.835938 0.320312
vt 0.835938 0.320312
vt 0.835938 0.320312
vt 0.757812 0.257812
vt 0.757812 0.257812
vt 0.835938 0.320312
vt 0.835938 0.320312
vt 0.757812 0.257812
vt 0.757812 0.257812
vt 0.757812 0.257812
vt 0.757812 0.257812
vn -1.0000 0.0000 0.0000
vn 1.0000 -0.0000 0.0000
vn 0.0000 0.7071 -0.7071
vn 0.0000 -0.7071 0.7071
vn 0.0000 -0.7071 -0.7071
vn 0.0000 0.7071 0.7071
vn 0.0000 0.9567 0.2909
vn 0.0000 0.1211 0.9926
s off
f 31/1/1 32/2/1 34/3/1 33/4/1
f 37/5/2 38/6/2 36/7/2 35/8/2
f 33/4/3 34/3/3 38/6/3 37/5/3
f 35/8/4 36/7/4 32/2/4 31/1/4
f 33/4/5 37/5/5 35/8/5 31/1/5
f 38/6/6 34/3/6 32/2/6 36/7/6
s 1
f 15/9/7 11/10/7 3/11/7 2/12/7
f 13/13/7 14/14/7 1/15/7 10/16/7
f 20/17/7 13/18/7 10/19/7 9/20/7
f 19/21/7 20/22/7 9/23/7 8/24/7
f 18/25/7 19/26/7 8/27/7 7/28/7
f 17/29/7 18/30/7 7/31/7 6/32/7
f 12/33/7 17/34/7 6/35/7 5/36/7
f 16/37/7 12/38/7 5/39/7 4/40/7
f 11/41/7 16/42/7 4/43/7 3/44/7
f 12/38/8 16/37/8 26/45/8 22/46/8
f 14/14/8 13/13/8 23/47/8 24/48/8
f 17/34/8 12/33/8 22/49/8 27/50/8
f 20/22/8 19/21/8 29/51/8 30/52/8
f 11/10/8 15/9/8 25/53/8 21/54/8
f 19/26/8 18/25/8 28/55/8 29/56/8
f 18/30/8 17/29/8 27/57/8 28/58/8
f 13/18/8 20/17/8 30/59/8 23/60/8
f 16/42/8 11/41/8 21/61/8 26/62/8
