# Blender v2.90.0 Alpha OBJ File: 'Decos.blend'
# www.blender.org
o porch1
v 5.108378 1.308384 0.914772
v 5.108378 -0.189341 0.914772
v -4.459130 1.308384 0.914772
v -4.459130 -0.189341 0.914772
v 5.108378 1.308388 -2.150362
v 5.108378 -0.189337 -2.150362
v -4.459130 1.308384 -2.150362
v -4.459130 -0.189341 -2.150362
vt 0.132812 0.789062
vt 0.132812 0.789062
vt 0.132812 0.789062
vt 0.132812 0.789062
vt 0.132812 0.789062
vt 0.132812 0.789062
vt 0.132812 0.789062
vt 0.132812 0.789062
vn 0.0000 -0.0000 1.0000
vn 1.0000 0.0000 0.0000
vn -1.0000 -0.0000 0.0000
s 1
f 3/1/1 4/2/1 2/3/1 1/4/1
f 1/4/2 2/3/2 6/5/2 5/6/2
f 4/2/3 3/1/3 7/7/3 8/8/3
