# Blender v2.90.0 Alpha OBJ File: 'Decos.blend'
# www.blender.org
o balcony.002
v -5.296686 -0.189341 1.085424
v 5.296686 -0.189341 1.085424
v 5.296686 -0.189337 -2.321014
v 5.296686 0.777004 1.085424
v -5.296686 -0.189337 -2.321014
v -5.296686 0.777004 1.085424
v 4.646221 0.256681 -2.321014
v 4.646221 0.256677 0.706462
v -4.646221 0.256681 -2.321014
v -4.682429 0.256677 0.706462
v 5.296686 0.777004 -2.321014
v -5.296686 0.777004 -2.321014
v -1.611144 0.256677 0.706462
v 1.611144 0.256677 0.706462
v 0.000000 -0.189341 1.085424
v -1.611144 0.777004 1.085424
v 1.611144 0.777004 1.085424
v -4.682429 0.777004 1.085424
v -4.682429 -0.189341 1.085424
v 4.646221 0.777004 1.085424
v 4.646221 -0.189341 1.085424
v -5.296686 0.185090 1.085424
v 5.296686 0.185090 1.085424
v 5.296686 0.185095 -2.321014
v -5.296686 0.185095 -2.321014
v 1.611144 0.185090 1.085424
v -1.611144 0.185090 1.085424
v 4.646221 0.185090 1.085424
v -4.682429 0.185090 1.085424
v 1.611144 0.777004 0.895943
v 4.971454 0.777004 0.895943
v 4.971454 0.777004 -2.321014
v 4.646221 0.777004 0.888606
v -1.611145 0.256677 0.706462
v -1.611144 0.777004 0.895943
v -4.971454 0.777004 0.895943
v -4.971454 0.777004 -2.321014
v -4.682429 0.777004 0.888606
v 4.629596 0.294091 0.801474
v -4.629596 0.743273 0.910954
v -1.627769 0.743507 0.914718
v 1.627769 0.294536 0.800828
v -4.629596 0.227840 1.029253
v 1.627769 0.743507 1.028607
v -1.627769 0.228285 1.028607
v 4.629596 0.743273 1.029253
v 1.627769 0.228285 1.028607
v -4.629596 0.743273 1.029253
v 4.629596 0.227840 1.029253
v -1.627769 0.743507 1.028607
v 1.627769 0.743507 0.914718
v 4.629596 0.743273 0.910954
v -1.627769 0.294536 0.800828
v -4.629596 0.294091 0.801474
vt 0.117188 0.789062
vt 0.117188 0.789062
vt 0.117188 0.789062
vt 0.117188 0.789062
vt 0.117188 0.789062
vt 0.117188 0.789062
vt 0.117188 0.789062
vt 0.117188 0.789062
vt 0.117188 0.789062
vt 0.117188 0.789062
vt 0.117188 0.789062
vt 0.117188 0.789062
vt 0.117188 0.789062
vt 0.117188 0.789062
vt 0.117188 0.789062
vt 0.117188 0.789062
vt 0.117188 0.789062
vt 0.117188 0.789062
vt 0.117188 0.789062
vt 0.117188 0.789062
vt 0.117188 0.789062
vt 0.117188 0.789062
vt 0.117188 0.789062
vt 0.117188 0.789062
vt 0.117188 0.789062
vt 0.117188 0.789062
vt 0.117188 0.789062
vt 0.117188 0.789062
vt 0.117188 0.789062
vt 0.117188 0.789062
vt 0.117188 0.789062
vt 0.117188 0.789062
vt 0.117188 0.789062
vt 0.117188 0.789062
vt 0.117188 0.789062
vt 0.117188 0.789062
vt 0.117188 0.789062
vt 0.117188 0.789062
vt 0.210938 0.789062
vt 0.210938 0.789062
vt 0.210938 0.789062
vt 0.210938 0.789062
vt 0.210938 0.789062
vt 0.210938 0.789062
vt 0.210938 0.789062
vt 0.210938 0.789062
vt 0.210938 0.789062
vt 0.210938 0.789062
vt 0.210938 0.789062
vt 0.210938 0.789062
vt 0.210938 0.789062
vt 0.210938 0.789062
vt 0.210938 0.789062
vt 0.210938 0.789062
vn 0.0000 0.0000 -1.0000
vn -1.0000 0.0000 0.0000
vn 0.0000 0.0000 1.0000
vn 1.0000 0.0000 0.0000
vn -0.0240 0.3303 -0.9436
vn 0.0000 0.3422 -0.9396
vn -0.0000 0.9826 0.1856
vn 0.0000 1.0000 0.0000
vn 0.0213 0.3303 -0.9436
vn -0.8480 0.5300 0.0000
vn 0.0000 -1.0000 -0.0000
vn 0.8616 0.5076 0.0050
vn -0.0005 0.2413 -0.9704
vn -0.0002 -0.0000 1.0000
vn -0.0001 -0.9602 -0.2793
vn 0.0001 1.0000 0.0000
vn 0.0005 0.2413 -0.9704
vn 0.0002 -0.0000 1.0000
vn 0.0001 -0.9602 -0.2793
vn -0.0001 1.0000 0.0000
s off
f 3/1/1 5/2/1 9/3/1 7/4/1
s 1
f 27/5/2 16/6/2 35/7/2 13/8/2
f 6/9/2 12/10/2 25/11/2 22/12/2
f 28/13/3 21/14/3 2/15/3 23/16/3
f 7/4/1 32/17/1 11/18/1 24/19/1
f 23/16/4 2/15/4 3/1/4 24/19/4
f 27/5/3 29/20/3 19/21/3 15/22/3
f 10/23/1 13/8/1 34/24/1
f 36/25/5 38/26/5 10/23/5
f 35/7/6 30/27/6 14/28/6 13/8/6
f 9/3/1 25/11/1 12/10/1 37/29/1
f 26/30/3 15/22/3 21/14/3 28/13/3
f 10/23/7 29/20/7 27/5/7 13/8/7
f 16/6/8 17/31/8 30/27/8 35/7/8
f 9/3/1 5/2/1 25/11/1
f 38/26/4 29/20/4 10/23/4
f 29/20/3 22/12/3 1/32/3 19/21/3
f 17/31/3 15/22/3 26/30/3
f 12/10/8 6/9/8 36/25/8 37/29/8
f 4/33/4 23/16/4 24/19/4 11/18/4
f 20/34/3 28/13/3 23/16/3 4/33/3
f 6/9/8 18/35/8 38/26/8 36/25/8
f 31/36/9 8/37/9 33/38/9
f 18/35/3 6/9/3 22/12/3 29/20/3
f 7/4/1 24/19/1 3/1/1
f 32/17/10 7/4/10 8/37/10 31/36/10
f 22/12/2 25/11/2 5/2/2 1/32/2
f 8/37/7 14/28/7 26/30/7 28/13/7
f 33/38/2 8/37/2 28/13/2
f 26/30/4 14/28/4 30/27/4 17/31/4
f 34/24/8 14/28/8 7/4/8 9/3/8
f 15/22/11 5/2/11 3/1/11
f 11/18/8 32/17/8 31/36/8 4/33/8
f 4/33/8 31/36/8 33/38/8 20/34/8
f 20/34/2 33/38/2 28/13/2
f 19/21/11 1/32/11 5/2/11 15/22/11
f 8/37/8 7/4/8 14/28/8
f 16/6/3 27/5/3 15/22/3
f 21/14/11 15/22/11 3/1/11 2/15/11
f 13/8/3 14/28/3 34/24/3
f 18/35/4 29/20/4 38/26/4
f 37/29/12 36/25/12 10/23/12 9/3/12
f 10/23/8 34/24/8 9/3/8
f 17/31/3 16/6/3 15/22/3
f 45/39/4 53/40/4 41/41/4 50/42/4
f 48/43/2 40/44/2 43/45/2
f 52/46/4 49/47/4 39/48/4
f 47/49/2 44/50/2 51/51/2 42/52/2
f 46/53/4 49/47/4 52/46/4
f 43/45/2 48/43/2 40/44/2 54/54/2
f 49/47/4 39/48/4 52/46/4 46/53/4
f 42/52/13 51/51/13 52/46/13 39/48/13
f 44/50/14 47/49/14 49/47/14 46/53/14
f 47/49/15 42/52/15 39/48/15 49/47/15
f 51/51/16 44/50/16 46/53/16 52/46/16
f 40/44/2 54/54/2 43/45/2
f 53/40/17 54/54/17 40/44/17 41/41/17
f 50/42/18 48/43/18 43/45/18 45/39/18
f 45/39/19 43/45/19 54/54/19 53/40/19
f 41/41/20 40/44/20 48/43/20 50/42/20
