# Blender v2.90.0 Alpha OBJ File: 'Decos.blend'
# www.blender.org
o balcony.003
v -4.459130 1.308384 0.914772
v -3.996973 1.308384 0.706462
v -3.996973 1.308384 -2.150362
v -4.459130 1.308384 -2.150362
v 4.459130 1.308384 0.914772
v -4.459130 0.256677 0.914772
v -4.459130 -0.189341 0.914772
v 3.996973 1.308384 0.706462
v -4.459130 -0.189341 -2.150362
v -3.996973 -0.189341 -2.150362
v 3.996973 1.308384 -2.150362
v 4.459130 1.308384 -2.150362
v 4.459130 0.256677 0.914772
v 4.459130 -0.189341 0.914772
v -4.459130 0.256677 -2.150362
v 4.459130 -0.189341 -2.150362
v 3.996973 -0.189341 -2.150362
v 4.459130 0.256677 -2.150362
v 4.459130 1.172402 0.914772
v -4.459130 1.172402 0.914772
v -4.459130 1.172402 -2.150362
v 4.459130 1.172402 -2.150362
v 4.361978 0.256677 0.833069
v 4.361978 0.256677 -2.169815
v -4.361978 0.256677 0.833069
v 4.361978 1.172402 0.833069
v -4.361978 0.256677 -2.169815
v 4.361978 1.172402 -2.169815
v -4.361978 1.172402 0.833069
v -4.361978 1.172402 -2.169815
vt 0.242188 0.804688
vt 0.242188 0.804688
vt 0.242188 0.804688
vt 0.242188 0.804688
vt 0.242188 0.804688
vt 0.242188 0.804688
vt 0.242188 0.804688
vt 0.242188 0.804688
vt 0.242188 0.804688
vt 0.242188 0.804688
vt 0.242188 0.804688
vt 0.242188 0.804688
vt 0.242188 0.804688
vt 0.242188 0.804688
vt 0.242188 0.804688
vt 0.242188 0.804688
vt 0.242188 0.804688
vt 0.242188 0.804688
vt 0.242188 0.804688
vt 0.242188 0.804688
vt 0.242188 0.804688
vt 0.242188 0.804688
vt 0.242188 0.804688
vt 0.242188 0.804688
vt 0.242188 0.804688
vt 0.242188 0.804688
vt 0.242188 0.804688
vt 0.242188 0.804688
vt 0.242188 0.804688
vt 0.242188 0.804688
vt 0.226562 0.789062
vt 0.226562 0.789062
vt 0.226562 0.789062
vt 0.226562 0.789062
vt 0.226562 0.789062
vt 0.226562 0.789062
vt 0.226562 0.789062
vt 0.226562 0.789062
vt 0.226562 0.789062
vt 0.226562 0.789062
vt 0.226562 0.789062
vt 0.226562 0.789062
vn 0.0000 1.0000 -0.0000
vn 0.0000 -1.0000 -0.0000
vn 0.0000 -0.0000 1.0000
vn -0.0962 -0.0997 -0.9904
vn 0.0083 -0.0155 -0.9998
vn 0.0000 0.0000 -1.0000
vn 1.0000 0.0000 0.0000
vn -1.0000 0.0000 0.0000
vn 0.0962 -0.0997 -0.9904
vn -0.0083 -0.0155 -0.9998
vn 0.0646 -0.0962 -0.9933
vn 0.0322 0.0305 -0.9990
vn -0.0358 0.1216 -0.9919
vn 0.0358 0.1216 -0.9919
vn -0.0322 0.0305 -0.9990
vn -0.0646 -0.0962 -0.9933
vn -0.0770 0.3408 -0.9370
vn 0.0770 0.3408 -0.9370
s 1
f 1/1/1 2/2/1 3/3/1 4/4/1
f 13/5/1 23/6/1 25/7/1 6/8/1
f 9/9/2 10/10/2 7/11/2
f 20/12/3 19/13/3 5/14/3 1/1/3
f 15/15/4 10/10/5 9/9/6
f 19/13/7 22/16/7 12/17/7 5/14/7
f 20/12/8 1/1/8 4/4/8 21/18/8
f 18/19/9 16/20/6 17/21/10
f 18/19/1 24/22/1 23/6/1 13/5/1
f 20/12/2 21/18/2 30/23/2 29/24/2
f 17/21/10 24/22/11 18/19/9
f 4/4/6 3/3/12 21/18/13
f 12/17/6 22/16/14 11/25/15
f 7/11/2 9/9/2 16/20/2 14/26/2
f 19/13/2 26/27/2 28/28/2 22/16/2
f 7/11/8 6/8/8 15/15/8 9/9/8
f 1/1/1 5/14/1 8/29/1 2/2/1
f 15/15/1 6/8/1 25/7/1 27/30/1
f 10/10/5 15/15/4 27/30/16
f 25/31/8 29/32/8 30/33/8 27/34/8
f 23/35/7 24/36/7 28/37/7 26/38/7
f 30/33/17 3/39/12 10/40/5 27/34/16
f 29/24/2 26/27/2 19/13/2 20/12/2
f 21/18/13 3/3/12 30/23/17
f 14/26/7 16/20/7 18/19/7 13/5/7
f 7/11/3 14/26/3 13/5/3 6/8/3
f 28/37/18 24/36/11 17/41/10 11/42/15
f 22/16/14 28/28/18 11/25/15
f 16/20/2 14/26/2 17/21/2
f 5/14/1 12/17/1 11/25/1 8/29/1
f 29/32/3 25/31/3 23/35/3 26/38/3
