# Blender v2.90.0 Alpha OBJ File: 'Decos.blend'
# www.blender.org
o Sphere_Sphere.003
v 0.606292 2.958186 0.222586
v 0.021881 4.401295 -1.012228
v 0.606293 5.625989 0.000001
v 1.744709 4.304533 0.000001
v -0.067314 4.522667 0.923194
v -1.160227 4.316095 -0.154561
v -0.917263 6.781477 -0.218467
v 0.462854 5.449168 0.060765
v -0.604297 5.472048 1.189977
v 0.156208 4.151251 -1.427948
v 0.076737 5.578244 -2.654009
v 1.502977 5.499348 -2.129215
v 0.227562 6.792667 -1.446774
v 1.083771 5.412839 -0.635481
v 0.480432 5.039361 -0.062844
v -0.109400 6.548677 -1.146260
v 1.533672 6.566489 -0.745198
v 0.643887 7.693643 -0.140792
v 0.928892 6.562036 0.893076
v -0.452981 6.658995 0.414744
v -0.454401 3.934853 -1.360277
v -1.434719 5.273125 -2.036096
v -0.978337 6.539948 -1.200946
v 0.392955 5.536190 -1.163733
v -1.343377 5.393228 -0.081667
v -0.681551 5.833761 -1.435846
v -0.036699 -0.326403 -0.556099
v 0.487108 4.282984 -1.496477
v 0.029149 -0.426050 -0.572013
v 0.617213 2.979520 0.000024
v 0.045606 -0.491841 -0.500529
v 0.457092 5.854274 -0.194189
v 0.035924 -0.325691 -0.511629
v -0.480692 4.143460 -0.033294
v -0.020006 -0.423670 -0.485227
v 1.279990 4.619186 -1.525706
v 1.754027 6.453861 -0.528665
v 2.397785 4.865353 -0.458930
v 1.368597 5.269185 0.510011
v 0.267758 5.559069 -0.667260
v 0.877780 4.400468 -0.660919
v 0.163318 -0.428279 -0.626260
vt 0.070312 0.757812
vt 0.070312 0.757812
vt 0.070312 0.757812
vt 0.070312 0.757812
vt 0.070312 0.757812
vt 0.023438 0.804688
vt 0.023438 0.804688
vt 0.023438 0.804688
vt 0.023438 0.804688
vt 0.054688 0.757812
vt 0.054688 0.757812
vt 0.054688 0.757812
vt 0.054688 0.757812
vt 0.054688 0.757812
vt 0.007812 0.710938
vt 0.007812 0.710938
vt 0.007812 0.710938
vt 0.007812 0.710938
vt 0.007812 0.710938
vt 0.007812 0.710938
vt 0.054688 0.820312
vt 0.054688 0.820312
vt 0.054688 0.820312
vt 0.054688 0.820312
vt 0.054688 0.820312
vt 0.054688 0.820312
vt 0.054688 0.820312
vt 0.054688 0.820312
vt 0.054688 0.820312
vt 0.054688 0.820312
vn 0.0021 -0.9886 0.1506
vn -0.4735 0.0001 -0.8808
vn 0.9999 -0.0167 -0.0033
vn 0.0524 0.9986 0.0019
vn -0.5597 0.1179 0.8203
vn -0.2942 0.8945 -0.3366
vn 0.9790 -0.0653 -0.1929
vn -0.4602 -0.8333 -0.3062
vn -0.0854 -0.0109 0.9963
vn -0.3637 -0.9170 0.1639
vn -0.4984 0.0490 -0.8655
vn 0.8892 -0.0011 -0.4576
vn -0.3167 0.9287 0.1931
vn 0.4034 -0.0377 0.9143
vn -0.0122 -0.9986 0.0524
vn -0.5291 0.0449 -0.8474
vn 0.8724 0.0309 -0.4878
vn 0.0974 0.9952 0.0025
vn 0.4131 0.0479 0.9094
vn -0.8679 0.1386 0.4770
vn -0.5875 -0.0480 -0.8078
vn 0.9806 0.1952 -0.0177
vn 0.2034 -0.9701 -0.1322
vn -0.1426 0.9864 -0.0813
vn -0.4596 -0.0100 0.8881
vn -0.1053 -0.6055 -0.7888
vn 0.3090 0.9485 -0.0701
vn 0.8807 -0.4698 0.0606
vn -0.0954 -0.1800 0.9790
vn -0.9857 0.1374 -0.0979
s 1
f 1/1/1 2/2/2 4/3/3
f 2/2/2 3/4/4 4/3/3
f 4/3/3 5/5/5 1/1/1
f 3/4/4 5/5/5 4/3/3
f 1/1/1 5/5/5 2/2/2
f 3/4/4 2/2/2 5/5/5
f 7/6/6 8/7/7 6/8/8
f 6/8/8 8/7/7 9/9/9
f 7/6/6 9/9/9 8/7/7
f 10/10/10 11/11/11 12/12/12
f 13/13/13 12/12/12 11/11/11
f 10/10/10 12/12/12 14/14/14
f 12/12/12 13/13/13 14/14/14
f 15/15/15 16/16/16 17/17/17
f 18/18/18 17/17/17 16/16/16
f 15/15/15 19/19/19 20/20/20
f 18/18/18 20/20/20 19/19/19
f 15/15/15 20/20/20 16/16/16
f 18/18/18 16/16/16 20/20/20
f 22/21/21 24/22/22 21/23/23
f 23/24/24 24/22/22 22/21/21
f 21/23/23 24/22/22 25/25/25
f 23/24/24 25/25/25 24/22/22
f 21/23/23 25/25/25 22/21/21
f 25/25/25 23/24/24 22/21/21
f 36/26/26 37/27/27 38/28/28
f 36/26/26 38/28/28 39/29/29
f 37/27/27 39/29/29 38/28/28
f 36/26/26 39/29/29 40/30/30
f 37/27/27 36/26/26 40/30/30
f 9/9/9 7/6/6 6/8/8
f 14/14/14 13/13/13 10/10/10
f 10/10/10 13/13/13 11/11/11
f 17/17/17 19/19/19 15/15/15
f 17/17/17 18/18/18 19/19/19
f 39/29/29 37/27/27 40/30/30
l 26 27
l 28 29
l 30 31
l 32 33
l 34 35
l 41 42
