# Blender v2.91.0 Beta OBJ File: 'decos.blend'
# www.blender.org
o Cube.023_Cube.015
v -2.333252 0.000000 0.961058
v -2.478479 0.000000 -2.132908
v 1.737940 0.000000 1.918325
v 2.336869 0.000000 -2.243010
v -2.478479 0.000000 -0.362068
v 2.726122 0.000000 -0.508726
v -0.425245 0.000000 -2.382810
v -0.685941 0.000000 2.842053
v -0.697058 0.000000 -0.570871
v -2.268445 0.000000 2.487055
v 1.079392 0.000000 -2.234185
v 0.727257 0.000000 -0.907822
v 0.215312 0.000000 2.558420
v 2.505644 0.000000 0.398247
v -1.035434 0.000000 1.021307
v 2.960158 0.000000 -1.568839
v -0.262990 0.000000 -1.763301
v -0.445533 0.000000 -0.889785
v -2.478479 0.000000 -1.153040
v -1.059433 0.000000 -2.121821
v -1.059433 0.000000 -1.105540
v -1.808620 0.000000 -0.197939
v -1.742606 0.000105 -1.739908
v -1.800096 0.000000 -0.978475
v -1.515501 0.000000 3.014075
v -2.196822 0.000000 -2.382810
v -2.173141 0.000000 -0.260009
v -2.184630 0.000000 -0.978475
v -1.607610 0.000105 -1.740605
v -1.193138 0.000000 -0.977568
v -1.195181 0.000000 -2.333050
v -2.164012 0.000000 -2.333050
v -2.208649 0.000000 -2.251183
v -1.612697 0.000000 -2.333050
v -0.309816 0.000000 -1.197011
v -1.141917 0.000000 -1.067597
v -1.741398 0.000105 -1.506086
v -2.404191 0.000000 -1.139193
v -1.606402 0.000105 -1.506784
v -0.331094 0.000000 -2.081403
v -1.141917 0.000000 -2.206516
v -2.404191 0.000000 -2.121821
v -1.809501 0.000105 -1.622648
v -1.539507 0.000105 -1.624043
v -0.260314 0.000000 -1.483667
v -1.791763 0.000105 -1.690240
v -1.557942 0.000105 -1.691448
v -1.791066 0.000105 -1.555243
v -1.557245 0.000105 -1.556451
v -1.408221 0.000000 -0.205170
v -1.675201 0.000105 -1.758343
v -1.504924 0.000000 -0.978021
v -1.736895 0.000000 -2.333050
v -1.673807 0.000105 -1.488349
v -1.677582 0.000105 -1.618617
v -0.470819 0.000000 -2.648948
v -1.020544 0.000000 -0.345065
v -1.583365 0.000000 -1.214148
v -2.270419 0.000000 -1.088783
v -2.245574 0.000000 -2.489426
v -2.594720 0.000000 -2.200865
v -2.341103 0.000000 -2.557383
v -2.643472 0.000000 -2.307481
v -2.270735 0.000000 -2.161849
v -2.564428 0.000000 -2.519719
v -2.457812 0.000000 -2.568471
v -2.632385 0.000000 -2.424190
v -2.703125 0.000000 -0.335674
v -3.074499 0.000000 -1.848098
v -2.890651 0.000000 -1.200841
v -3.149612 0.000000 -2.283284
v -1.636183 0.000000 -2.958717
v -2.836127 0.000000 -2.878628
v -3.029856 0.000000 -2.641157
v -2.225953 0.000000 -3.066397
v -2.566858 0.000000 -3.026852
v -2.540103 0.000000 1.136870
v 1.823865 0.000000 2.220474
v 2.116420 0.000000 -2.465078
v 3.063251 0.000000 -0.416782
v -1.040317 0.000000 3.158909
v -2.496678 0.000000 2.604953
v 1.239731 0.000000 -2.457147
v 0.091759 0.000000 2.913858
v 2.830335 0.000000 0.463952
v 3.234225 0.000000 -1.516450
v -1.906039 0.000000 3.109088
v -0.398287 0.000000 -2.902061
v -2.998965 0.000000 -0.369344
v -3.112952 0.000000 -1.153610
v -3.294028 0.000000 -2.324832
v -1.589556 0.000000 -3.113690
v -2.994596 0.000000 -3.008087
v -3.222937 0.000000 -2.717786
v -2.130019 0.000000 -3.225136
v -2.519779 0.000000 -3.218415
v 2.522319 0.000000 -2.421989
v 2.982741 0.000000 -2.057690
v -1.947286 0.000000 2.824075
v -2.600714 0.001408 -1.291182
v -2.545805 0.001408 -1.291182
v -2.600714 0.001408 -1.313547
v -2.522392 0.001408 -1.313547
v -2.545805 0.001408 -1.012349
v -2.522392 0.001408 -0.991773
v -2.597598 0.001408 -1.012349
v -2.597598 0.001408 -0.991773
v -1.035380 0.001408 -2.591002
v -1.035380 0.001408 -2.536093
v -1.013015 0.001408 -2.591002
v -1.013015 0.001408 -2.512680
v -1.314213 0.001408 -2.536093
v -1.334789 0.001408 -2.512680
v -1.314213 0.001408 -2.587886
v -1.334789 0.001408 -2.587886
v -2.865661 0.002776 -2.051938
v -2.890073 0.002776 -2.041826
v -2.900185 0.002776 -2.017415
v -2.890073 0.002776 -1.993003
v -2.865661 0.002776 -1.982891
v -2.841250 0.002776 -1.993003
v -2.831138 0.002776 -2.017415
v -2.841250 0.002776 -2.041826
v -1.070761 0.002776 -2.200648
v -1.086597 0.002776 -2.194089
v -1.093156 0.002776 -2.178253
v -1.086597 0.002776 -2.162418
v -1.070761 0.002776 -2.155859
v -1.054926 0.002776 -2.162418
v -1.048367 0.002776 -2.178253
v -1.054926 0.002776 -2.194089
v -1.070761 0.002776 -1.019992
v -1.086597 0.002776 -1.013432
v -1.093156 0.002776 -0.997597
v -1.086597 0.002776 -0.981761
v -1.070761 0.002776 -0.975202
v -1.054926 0.002776 -0.981761
v -1.048367 0.002776 -0.997597
v -1.054926 0.002776 -1.013432
v -2.226970 0.002776 -0.933049
v -2.242805 0.002776 -0.926490
v -2.249365 0.002776 -0.910654
v -2.242805 0.002776 -0.894819
v -2.226970 0.002776 -0.888260
v -2.211134 0.002776 -0.894819
v -2.204576 0.002776 -0.910654
v -2.211134 0.002776 -0.926490
v -2.068632 0.002776 -2.865897
v -2.058521 0.002776 -2.841485
v -2.068632 0.002776 -2.817074
v -2.093044 0.002776 -2.806962
v -2.117455 0.002776 -2.817074
v -2.127567 0.002776 -2.841485
v -2.117455 0.002776 -2.865897
v -2.093044 0.002776 -2.876009
v -1.718700 0.002435 -1.593242
v -2.249394 0.004189 -2.351782
v -2.226671 0.004189 -2.340893
v 0.576251 0.003118 -2.368215
v 0.678472 0.003118 -2.340893
v -2.422517 0.003118 0.641127
v -2.454874 0.003118 0.529925
v -2.422517 0.004189 -2.157713
v -2.433406 0.004189 -2.180437
v -1.634017 0.002435 -1.655470
v -1.708696 0.002435 -1.583562
v -1.644021 0.002435 -1.665149
v -2.454874 0.004189 -2.157713
v -2.367674 0.004189 -2.212555
v -2.402815 0.004189 -2.212818
v -2.563998 0.004189 -2.321133
v -2.530006 0.004189 -2.349850
v -2.604305 0.004189 -2.316760
v -2.526102 0.004189 -2.381295
v -2.226671 0.004189 -2.368215
v -2.281513 0.004189 -2.286050
v -2.281776 0.004189 -2.321191
v -2.381921 0.004189 -2.486004
v -2.414269 0.004189 -2.453829
v -2.382087 0.004189 -2.519958
v -2.448891 0.004189 -2.453556
v -2.423871 0.004265 -2.353612
v -2.328326 0.004265 -2.316365
v -2.393630 0.004265 -2.256998
v -2.365767 0.004265 -2.357550
v -2.431070 0.004265 -2.298182
v -1.499652 0.000000 3.218716
v 2.185330 0.000000 1.311836
v 2.390638 0.000000 1.495763
v 2.749571 0.000000 -1.976973
v -2.219743 0.000000 2.942816
v -3.261687 0.000000 -1.848728
v -2.540103 -0.615489 1.136870
v 1.823865 -0.615489 2.220474
v 2.116420 -0.615489 -2.465078
v 3.063251 -0.615489 -0.416782
v -1.040317 -0.615489 3.158909
v -2.496678 -0.615489 2.604953
v 1.239731 -0.615489 -2.457147
v 0.091759 -0.615489 2.913858
v 2.830335 -0.615489 0.463952
v 3.234225 -0.615489 -1.516450
v -1.906039 -0.615489 3.109088
v -0.398287 -0.615489 -2.902061
v -2.998965 -0.615489 -0.369344
v -3.112952 -0.615489 -1.153610
v -3.294028 -0.615489 -2.324832
v -1.589556 -0.615489 -3.113690
v -2.994596 -0.615489 -3.008087
v -3.222937 -0.615489 -2.717786
v -2.130019 -0.615489 -3.225136
v -2.519779 -0.615489 -3.218415
v 2.544284 -0.615489 -2.421989
v 2.982741 -0.615489 -2.057690
v -1.499652 -0.615489 3.218716
v 2.390638 -0.615489 1.495763
v -2.219743 -0.615489 2.942816
v -3.261687 -0.615489 -1.848728
v 2.776239 0.000000 -2.291501
vt 0.257812 0.835938
vt 0.257812 0.835938
vt 0.257812 0.835938
vt 0.257812 0.835938
vt 0.257812 0.835938
vt 0.210938 0.867188
vt 0.210938 0.867188
vt 0.210938 0.867188
vt 0.210938 0.867188
vt 0.257812 0.835938
vt 0.257812 0.835938
vt 0.257812 0.835938
vt 0.257812 0.835938
vt 0.257812 0.835938
vt 0.257812 0.835938
vt 0.257812 0.835938
vt 0.257812 0.835938
vt 0.257812 0.835938
vt 0.257812 0.835938
vt 0.257812 0.835938
vt 0.257812 0.835938
vt 0.257812 0.835938
vt 0.257812 0.835938
vt 0.257812 0.835938
vt 0.257812 0.835938
vt 0.257812 0.835938
vt 0.257812 0.835938
vt 0.210938 0.867188
vt 0.210938 0.867188
vt 0.210938 0.867188
vt 0.210938 0.867188
vt 0.210938 0.867188
vt 0.210938 0.867188
vt 0.210938 0.867188
vt 0.210938 0.867188
vt 0.210938 0.867188
vt 0.210938 0.867188
vt 0.257812 0.835938
vt 0.210938 0.867188
vt 0.210938 0.867188
vt 0.257812 0.835938
vt 0.257812 0.835938
vt 0.257812 0.835938
vt 0.257812 0.835938
vt 0.257812 0.835938
vt 0.257812 0.835938
vt 0.257812 0.835938
vt 0.257812 0.835938
vt 0.257812 0.835938
vt 0.210938 0.867188
vt 0.210938 0.867188
vt 0.210938 0.867188
vt 0.210938 0.867188
vt 0.257812 0.835938
vt 0.257812 0.835938
vt 0.257812 0.835938
vt 0.257812 0.835938
vt 0.257812 0.835938
vt 0.210938 0.867188
vt 0.210938 0.867188
vt 0.257812 0.835938
vt 0.257812 0.835938
vt 0.257812 0.835938
vt 0.257812 0.835938
vt 0.257812 0.835938
vt 0.257812 0.835938
vt 0.257812 0.835938
vt 0.210938 0.867188
vt 0.210938 0.867188
vt 0.210938 0.867188
vt 0.210938 0.867188
vt 0.210938 0.867188
vt 0.210938 0.867188
vt 0.210938 0.867188
vt 0.210938 0.867188
vt 0.257812 0.835938
vt 0.257812 0.835938
vt 0.257812 0.835938
vt 0.257812 0.835938
vt 0.257812 0.835938
vt 0.210938 0.867188
vt 0.210938 0.867188
vt 0.210938 0.867188
vt 0.210938 0.867188
vt 0.210938 0.867188
vt 0.257812 0.835938
vt 0.210938 0.867188
vt 0.210938 0.867188
vt 0.257812 0.835938
vt 0.257812 0.835938
vt 0.257812 0.835938
vt 0.257812 0.835938
vt 0.210938 0.867188
vt 0.210938 0.867188
vt 0.257812 0.835938
vt 0.257812 0.835938
vt 0.257812 0.835938
vt 0.210938 0.867188
vt 0.210938 0.867188
vt 0.210938 0.867188
vt 0.210938 0.867188
vt 0.210938 0.867188
vt 0.257812 0.835938
vt 0.210938 0.867188
vt 0.210938 0.867188
vt 0.210938 0.867188
vt 0.210938 0.867188
vt 0.210938 0.867188
vt 0.210938 0.867188
vt 0.210938 0.867188
vt 0.257812 0.835938
vt 0.257812 0.835938
vt 0.257812 0.835938
vt 0.257812 0.835938
vt 0.257812 0.835938
vt 0.257812 0.835938
vt 0.257812 0.835938
vt 0.257812 0.835938
vt 0.257812 0.835938
vt 0.257812 0.835938
vt 0.257812 0.835938
vt 0.257812 0.835938
vt 0.257812 0.835938
vt 0.257812 0.835938
vt 0.257812 0.835938
vt 0.257812 0.835938
vt 0.257812 0.835938
vt 0.257812 0.835938
vt 0.210938 0.867188
vt 0.210938 0.867188
vt 0.210938 0.867188
vt 0.210938 0.867188
vt 0.210938 0.867188
vt 0.210938 0.867188
vt 0.210938 0.867188
vt 0.210938 0.867188
vt 0.210938 0.867188
vt 0.210938 0.867188
vt 0.210937 0.867188
vt 0.210938 0.867188
vt 0.210938 0.867188
vt 0.210938 0.867188
vt 0.210938 0.867188
vt 0.210938 0.867188
vt 0.210938 0.867188
vt 0.210938 0.867188
vt 0.210938 0.867188
vt 0.210938 0.867188
vt 0.210938 0.867188
vt 0.210938 0.867188
vt 0.210938 0.867188
vt 0.210938 0.867188
vt 0.210938 0.867188
vt 0.210938 0.867188
vt 0.210938 0.867188
vt 0.210938 0.867188
vt 0.210938 0.867188
vt 0.210938 0.867188
vt 0.210938 0.867188
vt 0.210938 0.867188
vt 0.210938 0.867188
vt 0.210938 0.867188
vt 0.210938 0.867188
vt 0.210938 0.867188
vt 0.210938 0.867188
vt 0.210938 0.867188
vt 0.210938 0.867188
vt 0.210938 0.867188
vt 0.210938 0.867188
vt 0.210938 0.867188
vt 0.210938 0.867188
vt 0.210938 0.867188
vt 0.210938 0.867188
vt 0.210938 0.867188
vt 0.210938 0.867188
vt 0.210938 0.867188
vt 0.210938 0.867188
vt 0.210938 0.867188
vt 0.210938 0.867188
vt 0.210938 0.867188
vt 0.210938 0.867188
vt 0.210938 0.867188
vt 0.210938 0.867188
vt 0.210938 0.867188
vt 0.210938 0.867188
vt 0.210938 0.867188
vt 0.210938 0.867188
vt 0.210938 0.867188
vt 0.210938 0.867188
vt 0.210938 0.867188
vt 0.210938 0.867188
vt 0.210938 0.867188
vt 0.210938 0.867188
vt 0.242188 0.789062
vt 0.242188 0.789062
vt 0.242188 0.789062
vt 0.242188 0.789062
vt 0.242188 0.789062
vt 0.242188 0.789062
vt 0.242188 0.789062
vt 0.242188 0.789062
vt 0.242188 0.789062
vt 0.242188 0.789062
vt 0.242188 0.789062
vt 0.242188 0.789062
vt 0.242188 0.789062
vt 0.242188 0.789062
vt 0.242188 0.789062
vt 0.242188 0.789062
vt 0.242188 0.789062
vt 0.242188 0.789062
vt 0.242188 0.789062
vt 0.242188 0.789062
vt 0.242188 0.789062
vt 0.242188 0.789062
vt 0.242188 0.789062
vt 0.242188 0.789062
vt 0.242188 0.789062
vt 0.242188 0.789062
vt 0.242188 0.789062
vt 0.242188 0.789062
vt 0.242188 0.789062
vt 0.242188 0.789062
vt 0.242188 0.789062
vt 0.242188 0.789062
vt 0.242188 0.789062
vt 0.242188 0.789062
vt 0.242188 0.789062
vt 0.242188 0.789062
vt 0.242188 0.789062
vt 0.242188 0.789062
vt 0.242188 0.789062
vt 0.242188 0.789062
vt 0.242188 0.789062
vt 0.242188 0.789062
vt 0.242188 0.789062
vt 0.242188 0.789062
vt 0.242188 0.789062
vt 0.242188 0.789062
vt 0.242188 0.789062
vt 0.242188 0.789062
vt 0.242188 0.789062
vt 0.242188 0.789062
vt 0.242188 0.789062
vt 0.242188 0.789062
vt 0.242188 0.789062
vt 0.242188 0.789062
vt 0.242188 0.789062
vt 0.242188 0.789062
vt 0.242188 0.789062
vt 0.242188 0.789062
vt 0.242188 0.789062
vt 0.242188 0.789062
vt 0.242188 0.789062
vt 0.242188 0.789062
vt 0.242188 0.789062
vt 0.242188 0.789062
vt 0.242188 0.789062
vt 0.242188 0.789062
vt 0.242188 0.789062
vt 0.242188 0.789062
vt 0.242188 0.789062
vt 0.242188 0.789062
vt 0.242188 0.789062
vt 0.210938 0.867188
vt 0.210938 0.867188
vt 0.210938 0.867188
vt 0.257812 0.835938
vt 0.210938 0.867188
vt 0.210938 0.867188
vt 0.210938 0.867188
vt 0.210938 0.867188
vt 0.210937 0.867188
vt 0.210938 0.867188
vt 0.210938 0.867188
vt 0.210938 0.867188
vt 0.210938 0.867188
vt 0.210938 0.867188
vt 0.210938 0.867188
vt 0.210938 0.867188
vt 0.210938 0.867188
vt 0.210938 0.867188
vt 0.210938 0.867188
vt 0.210938 0.867188
vt 0.210938 0.867188
vt 0.210938 0.867188
vt 0.210938 0.867188
vt 0.210938 0.867188
vt 0.210938 0.867188
vt 0.210938 0.867188
vt 0.210938 0.867188
vt 0.210938 0.867188
vt 0.210938 0.867188
vt 0.210938 0.867188
vn 0.0000 1.0000 0.0000
vn -0.0000 1.0000 -0.0002
vn -0.0001 1.0000 -0.0002
vn 0.0001 1.0000 -0.0002
vn 0.0001 1.0000 0.0001
vn -0.0002 1.0000 0.0000
vn -0.0001 1.0000 -0.0000
vn 0.0003 1.0000 -0.0001
vn 0.0002 1.0000 -0.0000
vn -0.0001 1.0000 -0.0001
vn -0.0002 1.0000 0.0001
vn 0.0001 1.0000 0.0004
vn -0.0001 1.0000 0.0004
vn 0.0000 1.0000 0.0003
vn 0.0004 1.0000 -0.0007
vn -0.0007 1.0000 0.0004
vn -0.6878 0.6566 -0.3094
vn -0.4628 0.6566 -0.5955
vn -0.6136 0.0000 -0.7896
vn -0.9120 0.0000 -0.4102
vn 0.7032 0.6955 0.1472
vn 0.6835 0.6912 0.2346
vn 0.9458 0.0000 0.3247
vn 0.9788 0.0000 0.2049
vn 0.0678 0.6831 -0.7271
vn 0.1327 0.7102 -0.6914
vn 0.1884 0.0000 -0.9821
vn 0.0929 0.0000 -0.9957
vn 0.7548 0.6472 -0.1066
vn 0.9901 0.0000 -0.1399
vn -0.7317 0.6804 -0.0407
vn -0.9984 0.0000 -0.0555
vn -0.0500 0.6657 0.7445
vn -0.2679 0.6828 0.6797
vn -0.3666 0.0000 0.9303
vn -0.0670 0.0000 0.9977
vn -0.1609 0.6650 -0.7293
vn -0.2154 0.0000 -0.9765
vn 0.1568 0.6972 -0.6995
vn 0.0860 0.7392 -0.6679
vn 0.1277 0.0000 -0.9918
vn 0.2187 0.0000 -0.9758
vn -0.4728 0.6653 0.5778
vn -0.7187 0.6412 0.2690
vn -0.9366 0.0000 0.3505
vn -0.6333 0.0000 0.7739
vn 0.6322 0.6789 0.3732
vn 0.4547 0.6530 0.6057
vn 0.6003 0.0000 0.7997
vn 0.8611 0.0000 0.5083
vn 0.1221 0.6978 0.7058
vn 0.1705 0.0000 0.9854
vn 0.5818 0.6750 -0.4537
vn 0.7885 -0.0176 -0.6148
vn 0.2791 0.6703 -0.6875
vn 0.4528 0.6949 -0.5586
vn 0.3875 -0.0173 -0.9217
vn 0.2121 0.6887 0.6933
vn 0.2926 0.0000 0.9562
vn 0.0338 0.6947 -0.7185
vn 0.0469 0.0009 -0.9989
vn -0.7155 0.6914 0.1003
vn -0.9903 0.0000 0.1388
vn -0.6656 0.7382 0.1092
vn -0.7059 0.6905 0.1579
vn -0.9759 0.0000 0.2182
vn -0.9868 0.0000 0.1619
vn -0.6885 0.7147 0.1235
vn -0.9843 0.0000 0.1766
s off
f 99/1/1 1/2/1 10/3/1
f 27/4/1 5/5/1 1/2/1
f 28/6/1 19/7/1 5/8/1 27/9/1
f 12/10/1 18/11/1 9/12/1
f 15/13/1 8/14/1 13/15/1
f 15/13/1 13/15/1 3/16/1
f 6/17/1 12/10/1 15/13/1 14/18/1
f 190/19/1 4/20/1 12/10/1
f 12/10/1 9/12/1 15/13/1
f 14/18/1 15/13/1 3/16/1 188/21/1
f 4/20/1 17/22/1 45/23/1
f 11/24/1 7/25/1 40/26/1
f 12/10/1 35/27/1 18/11/1
f 38/28/1 19/7/1 28/6/1 59/29/1
f 35/30/1 21/31/1 18/32/1
f 40/33/1 41/34/1 20/35/1 17/36/1
f 17/36/1 20/35/1 45/37/1
f 9/12/1 57/38/1 15/13/1
f 18/32/1 21/31/1 57/39/1 9/40/1
f 58/41/1 24/42/1 52/43/1
f 53/44/2 32/45/2 23/46/2 51/47/2
f 50/48/1 22/49/1 15/13/1
f 52/50/1 24/51/1 22/52/1 50/53/1
f 58/41/1 59/54/1 28/55/1 24/42/1
f 64/56/3 42/57/3 23/46/3
f 24/51/1 28/6/1 27/9/1 22/52/1
f 15/13/1 27/4/1 1/2/1
f 8/14/1 1/2/1 99/1/1 25/58/1
f 36/59/1 30/60/1 57/39/1
f 20/61/4 34/62/4 29/63/4
f 41/64/1 34/62/1 20/61/1
f 21/65/1 58/41/1 30/66/1 36/67/1
f 7/68/1 34/69/1 31/70/1
f 7/68/1 26/71/1 32/72/1
f 7/68/1 32/72/1 53/73/1
f 7/68/1 31/70/1 40/33/1
f 26/71/1 2/74/1 64/75/1
f 21/65/5 49/76/5 39/77/5
f 48/78/6 42/57/6 38/79/6 37/80/6
f 55/81/1 48/82/1 37/83/1 54/84/1
f 42/85/1 2/74/1 19/7/1 38/28/1
f 31/86/1 34/62/1 41/64/1
f 40/33/1 31/70/1 41/34/1
f 4/20/1 40/26/1 17/22/1
f 2/74/1 42/85/1 64/75/1
f 12/10/1 45/23/1 35/27/1
f 45/37/1 21/31/1 35/30/1
f 55/81/1 46/87/1 43/88/1
f 46/89/7 42/57/7 43/90/7
f 21/65/8 47/91/8 44/92/8
f 20/61/9 29/63/9 47/91/9 21/65/9
f 23/46/10 42/57/10 46/89/10
f 51/93/1 23/94/1 46/87/1 55/81/1
f 45/37/1 20/35/1 21/31/1
f 4/20/1 45/23/1 12/10/1
f 60/95/1 56/96/1 72/97/1
f 55/81/1 43/88/1 48/82/1
f 43/90/11 42/57/11 48/78/11
f 21/65/9 44/92/9 49/76/9
f 44/98/1 55/81/1 49/99/1
f 29/100/1 51/93/1 55/81/1 47/101/1
f 47/101/1 55/81/1 44/98/1
f 49/99/1 55/81/1 54/84/1 39/102/1
f 7/68/1 53/73/1 34/69/1
f 30/60/1 52/50/1 50/53/1 57/39/1
f 34/62/2 53/44/2 51/47/2 29/63/2
f 58/41/1 52/43/1 30/66/1
f 21/31/1 36/59/1 57/39/1
f 22/49/1 27/4/1 15/13/1
f 57/38/1 50/48/1 15/13/1
f 39/77/12 54/103/12 58/41/12
f 61/104/1 60/105/1 62/106/1 63/107/1
f 21/65/13 39/77/13 58/41/13
f 37/80/14 38/79/14 59/54/14 58/41/14
f 54/103/13 37/80/13 58/41/13
f 67/108/1 66/109/1 65/110/1
f 63/107/1 62/106/1 66/109/1 67/108/1
f 61/111/1 63/112/1 71/113/1
f 2/114/1 61/111/1 71/113/1 69/115/1
f 1/2/1 5/5/1 68/116/1
f 5/5/1 19/117/1 70/118/1 68/116/1
f 19/117/1 2/114/1 69/115/1 70/118/1
f 67/119/1 65/120/1 73/121/1 74/122/1
f 63/112/1 67/119/1 74/122/1 71/113/1
f 66/123/1 62/124/1 75/125/1 76/126/1
f 65/120/1 66/123/1 76/126/1 73/121/1
f 62/124/1 60/95/1 72/97/1 75/125/1
f 60/95/1 26/127/1 7/25/1 56/96/1
f 56/96/1 7/25/1 11/24/1
f 4/20/1 11/24/1 40/26/1
f 6/17/1 16/128/1 12/10/1
f 69/129/1 71/130/1 91/131/1
f 13/132/1 8/133/1 81/134/1 84/135/1
f 72/136/1 56/137/1 88/138/1 92/139/1
f 75/140/1 72/136/1 92/139/1 95/141/1
f 6/142/1 14/143/1 85/144/1 80/145/1
f 1/146/1 68/147/1 89/148/1 77/149/1
f 3/150/1 13/132/1 84/135/1 78/151/1
f 71/130/1 74/152/1 94/153/1 91/131/1
f 16/154/1 6/142/1 80/145/1 86/155/1
f 76/156/1 75/140/1 95/141/1 96/157/1
f 68/147/1 70/158/1 90/159/1 89/148/1
f 10/160/1 1/146/1 77/149/1 82/161/1
f 11/162/1 4/163/1 79/164/1 83/165/1
f 56/137/1 11/162/1 83/165/1 88/138/1
f 190/166/1 16/154/1 86/155/1 98/167/1
f 25/168/1 87/169/1 187/170/1 81/134/1
f 70/158/1 69/129/1 192/171/1 90/159/1
f 74/152/1 73/172/1 93/173/1 94/153/1
f 188/174/1 3/150/1 78/151/1 189/175/1
f 73/172/1 76/156/1 96/157/1 93/173/1
f 4/163/1 219/176/1 97/177/1 79/164/1
f 100/178/1 101/179/1 103/180/1 102/181/1
f 103/180/1 101/179/1 104/182/1 105/183/1
f 105/183/1 104/182/1 106/184/1 107/185/1
f 108/186/1 109/187/1 111/188/1 110/189/1
f 111/188/1 109/187/1 112/190/1 113/191/1
f 113/191/1 112/190/1 114/192/1 115/193/1
f 122/194/1 123/195/1 121/196/1
f 121/196/1 123/195/1 116/197/1 120/198/1
f 117/199/1 119/200/1 120/198/1 116/197/1
f 118/201/1 119/200/1 117/199/1
f 130/202/1 131/203/1 129/204/1
f 129/204/1 131/203/1 124/205/1 128/206/1
f 125/207/1 127/208/1 128/206/1 124/205/1
f 126/209/1 127/208/1 125/207/1
f 138/210/1 139/211/1 137/212/1
f 137/212/1 139/211/1 132/213/1 136/214/1
f 133/215/1 135/216/1 136/214/1 132/213/1
f 134/217/1 135/216/1 133/215/1
f 146/218/1 147/219/1 145/220/1
f 145/220/1 147/219/1 140/221/1 144/222/1
f 141/223/1 143/224/1 144/222/1 140/221/1
f 142/225/1 143/224/1 141/223/1
f 149/226/1 148/227/1 150/228/1
f 154/229/1 152/230/1 151/231/1 155/232/1
f 153/233/1 152/230/1 154/229/1
f 150/228/1 148/227/1 155/232/1 151/231/1
f 166/234/1 165/235/1 167/236/1 156/237/1
f 159/238/15 175/239/15 158/240/15 160/241/15
f 162/242/16 161/243/16 163/244/16 168/245/16
f 164/246/1 163/244/1 169/247/1 170/248/1
f 168/245/1 163/244/1 164/246/1
f 168/245/1 164/246/1 171/249/1 173/250/1
f 170/248/1 169/247/1 174/251/1 172/252/1
f 171/249/1 172/252/1 174/251/1 173/250/1
f 157/253/1 177/254/1 176/255/1 158/240/1
f 175/239/1 157/253/1 158/240/1
f 175/239/1 180/256/1 178/257/1 157/253/1
f 177/254/1 179/258/1 181/259/1 176/255/1
f 178/257/1 180/256/1 181/259/1 179/258/1
f 185/260/1 186/261/1 184/262/1 183/263/1
f 182/264/1 186/261/1 185/260/1
f 99/265/1 82/161/1 191/266/1
f 16/128/1 190/19/1 12/10/1
f 87/169/1 99/265/1 191/266/1
f 10/160/1 82/161/1 99/265/1
f 26/71/1 64/75/1 33/267/1 32/72/1
f 2/74/1 26/71/1 60/105/1 61/104/1
f 32/45/10 33/268/10 64/56/10 23/46/10
f 8/133/1 25/168/1 81/134/1
f 14/143/1 188/174/1 189/175/1 85/144/1
f 87/169/1 25/168/1 99/265/1
f 4/163/1 190/166/1 219/176/1
f 192/171/1 69/129/1 91/131/1
f 219/176/1 190/166/1 98/167/1
f 8/14/1 15/13/1 1/2/1
s 1
f 94/153/17 93/173/18 209/269/19 210/270/20
f 80/145/21 85/144/22 201/271/23 196/272/24
f 95/141/25 92/139/26 208/273/27 211/274/28
f 86/155/29 80/145/21 196/272/24 202/275/30
f 91/131/31 94/153/17 210/270/20 207/276/32
f 187/170/33 87/169/34 203/277/35 215/278/36
f 96/157/37 95/141/25 211/274/28 212/279/38
f 88/138/39 83/165/40 199/280/41 204/281/42
f 191/266/43 82/161/44 198/282/45 217/283/46
f 189/175/47 78/151/48 194/284/49 216/285/50
f 93/173/18 96/157/37 212/279/38 209/269/19
f 81/134/51 187/170/33 215/278/36 197/286/52
f 92/139/26 88/138/39 204/281/42 208/273/27
f 98/167/53 86/155/29 202/275/30 214/287/54
f 97/177/55 219/176/56 98/167/53 214/287/54 213/288/57
f 84/135/58 81/134/51 197/286/52 200/289/59
f 83/165/40 79/164/60 195/290/61 199/280/41
f 87/169/34 191/266/43 217/283/46 203/277/35
f 192/171/62 91/131/31 207/276/32 218/291/63
f 77/149/64 89/148/65 205/292/66 193/293/67
f 79/164/60 97/177/55 213/288/57 195/290/61
f 78/151/48 84/135/58 200/289/59 194/284/49
f 89/148/65 90/159/68 206/294/69 205/292/66
f 90/159/68 192/171/62 218/291/63 206/294/69
f 82/161/44 77/149/64 193/293/67 198/282/45
f 85/144/22 189/175/47 216/285/50 201/271/23
