# Blender v2.90.0 Alpha OBJ File: 'Decos.blend'
# www.blender.org
o Sphere_Sphere.001
v 0.606292 2.958186 0.222586
v 0.021881 4.401295 -1.012227
v 1.744709 4.304533 0.000002
v 0.606293 5.625989 0.000002
v -0.067314 4.522667 0.923195
v -0.528420 4.160820 0.372891
v -1.138386 5.490957 -0.877394
v 0.419939 5.135556 0.108503
v -1.295796 5.781027 0.987652
v -0.323842 6.832584 0.104175
v 0.063621 4.091508 -1.446198
v 0.939951 5.683517 -2.375384
v 0.912607 5.471785 -0.362779
v -0.818368 5.474147 -1.272527
v 0.083421 6.713389 -1.216155
v 0.310020 6.170714 -0.812696
v 1.604169 7.227749 -0.219713
v 0.468832 7.275169 0.922673
v 0.446885 8.512250 -0.343617
v -0.660388 7.416323 0.025361
v -1.087873 5.796003 -1.102450
v -1.413649 7.388015 -2.255371
v 0.315645 7.176282 -1.225387
v -1.204033 7.364856 -0.128208
v -0.838527 8.426326 -1.097323
v -0.834845 5.803374 -1.202732
v -0.038527 -0.328451 -0.570031
v 0.321244 4.097388 -1.353843
v 0.028323 -0.427245 -0.578745
v 0.617213 2.979520 0.000024
v 0.045606 -0.491841 -0.500529
v 0.457092 5.854274 -0.194188
v 0.035924 -0.325691 -0.511629
v -0.563602 4.168015 0.108905
v -0.022527 -0.422984 -0.494255
vt 0.070312 0.757812
vt 0.070312 0.757812
vt 0.070312 0.757812
vt 0.070312 0.757812
vt 0.070312 0.757812
vt 0.023438 0.804688
vt 0.023438 0.804688
vt 0.023438 0.804688
vt 0.023438 0.804688
vt 0.023438 0.804688
vt 0.054688 0.757812
vt 0.054688 0.757812
vt 0.054688 0.757812
vt 0.054688 0.757812
vt 0.054688 0.757812
vt 0.007812 0.710938
vt 0.007812 0.710938
vt 0.007812 0.710938
vt 0.007812 0.710938
vt 0.007812 0.710938
vt 0.054688 0.820312
vt 0.054688 0.820312
vt 0.054688 0.820312
vt 0.054688 0.820312
vt 0.054688 0.820312
vn 0.0021 -0.9886 0.1506
vn -0.4735 0.0001 -0.8808
vn 0.9999 -0.0167 -0.0033
vn 0.0524 0.9986 0.0019
vn -0.5597 0.1179 0.8203
vn 0.0022 -0.9763 0.2163
vn -0.4725 -0.0254 -0.8809
vn 0.9800 -0.1991 -0.0035
vn -0.5945 0.1873 0.7820
vn 0.2626 0.9649 -0.0076
vn -0.1336 -0.9874 -0.0851
vn 0.5245 0.1345 -0.8407
vn 0.5487 -0.0303 0.8355
vn -0.9989 0.0098 0.0463
vn -0.1674 0.9812 0.0961
vn -0.1093 -0.8274 -0.5509
vn 0.9911 -0.0677 -0.1148
vn 0.0542 -0.0921 0.9943
vn 0.0148 0.9621 -0.2722
vn -0.9955 0.0647 0.0693
vn -0.1952 -0.9795 0.0496
vn -0.4894 0.1187 -0.8639
vn 0.9972 -0.0477 -0.0569
vn -0.3700 0.1039 0.9232
vn -0.0185 0.9981 0.0596
s 1
f 1/1/1 2/2/2 3/3/3
f 2/2/2 4/4/4 3/3/3
f 3/3/3 5/5/5 1/1/1
f 4/4/4 5/5/5 3/3/3
f 1/1/1 5/5/5 2/2/2
f 4/4/4 2/2/2 5/5/5
f 6/6/6 7/7/7 8/8/8
f 6/6/6 9/9/9 7/7/7
f 9/9/9 10/10/10 7/7/7
f 11/11/11 12/12/12 13/13/13
f 11/11/11 13/13/13 14/14/14
f 14/14/14 12/12/12 11/11/11
f 15/15/15 12/12/12 14/14/14
f 16/16/16 17/17/17 18/18/18
f 19/19/19 18/18/18 17/17/17
f 16/16/16 18/18/18 20/20/20
f 19/19/19 20/20/20 18/18/18
f 21/21/21 22/22/22 23/23/23
f 21/21/21 23/23/23 24/24/24
f 25/25/25 24/24/24 23/23/23
f 25/25/25 22/22/22 24/24/24
f 7/7/7 10/10/10 8/8/8
f 8/8/8 10/10/10 9/9/9
f 8/8/8 9/9/9 6/6/6
f 12/12/12 15/15/15 13/13/13
f 13/13/13 15/15/15 14/14/14
f 16/16/16 19/19/19 17/17/17
f 20/20/20 19/19/19 16/16/16
f 22/22/22 25/25/25 23/23/23
f 21/21/21 24/24/24 22/22/22
l 34 35
l 32 33
l 30 31
l 28 29
l 26 27
