# Blender v2.83.4 OBJ File: 'decos.blend'
# www.blender.org
o Cube
v -12.550015 -1.373921 12.550014
v -12.550014 11.371699 12.550015
v -12.550014 -1.373921 -12.550015
v -12.550015 11.371699 -12.550014
v 12.550014 -1.373921 12.550015
v 12.550015 11.371699 12.550014
v 12.550015 -1.373921 -12.550014
v 12.550014 11.371699 -12.550015
v -17.748402 -1.373921 -0.000001
v -17.748402 11.371699 0.000001
v 17.748402 -1.373921 0.000001
v 17.748402 11.371699 -0.000001
v 0.000001 -1.373921 -17.748402
v -0.000001 11.371699 -17.748402
v -0.000001 -1.373921 17.748402
v 0.000001 11.371699 17.748402
v -15.305984 10.872319 0.000001
v 0.000000 -1.373921 -0.000000
v -12.550015 10.245879 12.550015
v -12.550015 10.245879 -12.550015
v 12.550015 10.245879 -12.550015
v 12.550015 10.245879 12.550015
v 17.748402 10.245879 -0.000000
v -17.748402 10.245879 -0.000000
v 0.000000 10.245879 17.748402
v 0.000000 10.245879 -17.748402
v -10.987594 8.808640 -10.987594
v -10.987594 0.063316 -10.987594
v 10.987594 8.808640 -10.987594
v 10.987594 0.063316 -10.987594
v 10.987594 8.808640 10.987594
v 10.987594 0.063316 10.987594
v 15.538804 8.808640 0.000000
v 15.538804 0.063316 0.000000
v -15.538804 8.808640 -0.000000
v -15.538804 0.063316 -0.000000
v -0.000000 8.808640 15.538804
v -0.000000 0.063316 15.538804
v 0.000000 8.808640 -15.538804
v 0.000000 0.063316 -15.538804
v -10.987594 0.063317 10.987593
v -10.987594 8.808642 10.987594
v -16.140625 11.371699 0.000001
v -11.413146 11.371699 -11.413145
v -0.000001 11.371699 -16.140625
v 11.413145 11.371699 -11.413146
v 16.140625 11.371699 -0.000001
v 11.413146 11.371699 11.413145
v 0.000001 11.371699 16.140625
v -11.413145 11.371699 11.413146
v -10.822968 10.872319 -10.822967
v -0.000001 10.872319 -15.305984
v 10.822967 10.872319 -10.822968
v 15.305984 10.872319 -0.000001
v 10.822968 10.872319 10.822967
v 0.000001 10.872319 15.305984
v -10.822967 10.872319 10.822968
v 0.000000 10.872319 -0.000000
v 0.000000 8.808640 0.000000
v 0.000000 5.162399 -0.000000
v -10.668929 -0.056314 -10.668929
v 10.668929 -0.056314 -10.668929
v 10.668929 -0.056314 10.668929
v 15.088144 -0.056314 0.000000
v -15.088144 -0.056314 -0.000000
v -0.000000 -0.056314 15.088144
v 0.000000 -0.056314 -15.088144
v -10.668929 -0.056313 10.668928
v -10.668929 5.311600 -10.668929
v 10.668929 5.311600 -10.668929
v 10.668929 5.311600 10.668929
v 15.088144 5.311600 0.000000
v -15.088144 5.311600 -0.000000
v -0.000000 5.311600 15.088144
v 0.000000 5.311600 -15.088144
v -10.668929 5.311601 10.668928
v -10.482903 -0.056314 -10.482903
v 10.482903 -0.056314 -10.482903
v 10.482903 -0.056314 10.482903
v 14.825064 -0.056314 0.000000
v -14.825064 -0.056314 -0.000000
v -0.000000 -0.056314 14.825064
v 0.000000 -0.056314 -14.825064
v -10.482903 -0.056313 10.482902
v -10.442337 5.064380 -10.160439
v -10.160439 5.064380 -10.442337
v 10.160439 5.064380 -10.442337
v 10.442337 5.064380 -10.160439
v 10.442337 5.064380 10.160439
v 10.160439 5.064380 10.442337
v 14.568362 5.064380 -0.199332
v 14.568362 5.064380 0.199332
v -14.568362 5.064380 0.199332
v -14.568362 5.064380 -0.199332
v 0.199332 5.064380 14.568362
v -0.199332 5.064380 14.568362
v -0.199332 5.064380 -14.568362
v 0.199332 5.064380 -14.568362
v -10.160439 5.064381 10.442336
v -10.442337 5.064381 10.160438
v -10.160439 9.174942 -10.442337
v -10.442337 9.174942 -10.160439
v 10.442337 9.174942 -10.160439
v 10.160439 9.174942 -10.442337
v 10.160439 9.174942 10.442337
v 10.442337 9.174942 10.160439
v 14.568362 9.174942 0.199332
v 14.568362 9.174942 -0.199332
v -14.568362 9.174942 -0.199333
v -14.568362 9.174942 0.199331
v -0.199332 9.174942 14.568362
v 0.199332 9.174942 14.568362
v 0.199333 9.174942 -14.568362
v -0.199331 9.174942 -14.568362
v -10.442337 9.174943 10.160438
v -10.160439 9.174943 10.442336
vt 0.320312 0.929688
vt 0.320312 0.929688
vt 0.320312 0.929688
vt 0.320312 0.929688
vt 0.320312 0.929688
vt 0.320312 0.929688
vt 0.320312 0.929688
vt 0.320312 0.929688
vt 0.320312 0.929688
vt 0.320312 0.929688
vt 0.320312 0.929688
vt 0.320312 0.929688
vt 0.320312 0.929688
vt 0.320312 0.929688
vt 0.320312 0.929688
vt 0.320312 0.929688
vt 0.320312 0.929688
vt 0.320312 0.929688
vt 0.320312 0.929688
vt 0.320312 0.929688
vt 0.320312 0.929688
vt 0.320312 0.929688
vt 0.320312 0.929688
vt 0.320312 0.929688
vt 0.320312 0.929688
vt 0.320312 0.929688
vt 0.320312 0.929688
vt 0.320312 0.929688
vt 0.320312 0.929688
vt 0.320312 0.929688
vt 0.320312 0.929688
vt 0.320312 0.929688
vt 0.320312 0.929688
vt 0.320312 0.929688
vt 0.320312 0.929688
vt 0.320312 0.929688
vt 0.320312 0.929688
vt 0.320312 0.929688
vt 0.320312 0.929688
vt 0.320312 0.929688
vt 0.320312 0.929688
vt 0.320312 0.929688
vt 0.320312 0.929688
vt 0.320312 0.929688
vt 0.320312 0.929688
vt 0.320312 0.929688
vt 0.320312 0.929688
vt 0.320312 0.929688
vt 0.320312 0.929688
vt 0.320312 0.929688
vt 0.320312 0.929688
vt 0.320312 0.929688
vt 0.320312 0.929688
vt 0.320312 0.929688
vt 0.320312 0.929688
vt 0.367188 0.929688
vt 0.367188 0.929688
vt 0.367188 0.929688
vt 0.367188 0.929688
vt 0.367188 0.929688
vt 0.367188 0.929688
vt 0.367188 0.929688
vt 0.367188 0.929688
vt 0.367188 0.929688
vt 0.320312 0.929688
vt 0.320312 0.929688
vt 0.320312 0.929688
vt 0.289062 0.929688
vt 0.289062 0.929688
vt 0.289062 0.929688
vt 0.289062 0.929688
vt 0.289062 0.929688
vt 0.289062 0.929688
vt 0.289062 0.929688
vt 0.289062 0.929688
vt 0.289062 0.929688
vt 0.398438 0.898438
vt 0.398438 0.898438
vt 0.398438 0.898438
vt 0.398438 0.898438
vt 0.398438 0.898438
vt 0.398438 0.898438
vt 0.398438 0.898438
vt 0.398438 0.898438
vt 0.398438 0.898438
vt 0.398438 0.898438
vt 0.398438 0.898438
vt 0.398438 0.898438
vt 0.398438 0.898438
vt 0.398438 0.898438
vt 0.398438 0.898438
vt 0.398438 0.898438
vt 0.320312 0.929688
vt 0.320312 0.929688
vt 0.320312 0.929688
vt 0.320312 0.929688
vt 0.320312 0.929688
vt 0.320312 0.929688
vt 0.320312 0.929688
vt 0.320312 0.929688
vt 0.320312 0.929688
vt 0.320312 0.929688
vt 0.320312 0.929688
vt 0.320312 0.929688
vt 0.000000 0.000000
vt 0.000000 0.000000
vt 0.000000 0.000000
vt 0.000000 0.000000
vt 0.320312 0.929688
vt 0.320312 0.929688
vt 0.320312 0.929688
vt 0.320312 0.929688
vt 0.320312 0.929688
vt 0.320312 0.929688
vt 0.320312 0.929688
vt 0.320312 0.929688
vt 0.320312 0.929688
vt 0.320312 0.929688
vt 0.320312 0.929688
vt 0.320312 0.929688
vt 0.320312 0.929688
vt 0.320312 0.929688
vt 0.320312 0.929688
vt 0.320312 0.929688
vn -0.9239 0.0000 -0.3827
vn 0.3827 0.0000 -0.9239
vn 0.9239 0.0000 0.3827
vn -0.3827 0.0000 0.9239
vn 0.0000 -1.0000 0.0000
vn 0.0000 1.0000 0.0000
vn 0.9239 0.0000 -0.3827
vn -0.9239 0.0000 0.3827
vn 0.3827 0.0000 0.9239
vn -0.3827 0.0000 -0.9239
vn -0.2203 -0.8177 -0.5319
vn 0.2203 -0.8177 0.5319
vn -0.5319 -0.8177 0.2203
vn 0.5319 -0.8177 -0.2203
vn -0.2203 -0.8177 0.5319
vn 0.5319 -0.8177 0.2203
vn 0.2203 -0.8177 -0.5319
vn -0.5319 -0.8177 -0.2203
vn -0.5319 0.8177 -0.2203
vn 0.2203 0.8177 -0.5319
vn 0.5319 0.8177 0.2203
vn -0.2203 0.8177 0.5319
vn 0.5319 0.8177 -0.2203
vn -0.5319 0.8177 0.2203
vn 0.2203 0.8177 0.5319
vn -0.2203 0.8177 -0.5319
vn -0.2080 0.8394 0.5022
vn 0.2080 0.8394 -0.5022
vn -0.5022 0.8394 0.2080
vn 0.2080 0.8394 0.5022
vn -0.2080 0.8394 -0.5022
vn 0.5022 0.8394 -0.2080
vn -0.5022 0.8394 -0.2080
vn 0.5022 0.8394 0.2080
vn -0.3092 0.9423 0.1281
vn 0.3092 0.9423 -0.1281
vn -0.1281 0.9423 0.3092
vn 0.3092 0.9423 0.1281
vn 0.1281 0.9423 -0.3092
vn -0.3092 0.9423 -0.1281
vn -0.1281 0.9423 -0.3092
vn 0.1281 0.9423 0.3092
vn 1.0000 0.0000 0.0000
vn 0.7071 0.0000 0.7071
vn -1.0000 0.0000 0.0000
vn -0.7071 0.0000 -0.7071
vn 0.0000 0.0000 -1.0000
vn -0.7071 0.0000 0.7071
vn 0.0000 0.0000 1.0000
vn 0.7071 0.0000 -0.7071
s off
f 24/1/1 10/2/1 4/3/1 20/4/1
f 26/5/2 14/6/2 8/7/2 21/8/2
f 23/9/3 12/10/3 6/11/3 22/12/3
f 25/13/4 16/14/4 2/15/4 19/16/4
f 18/17/5 11/18/5 5/19/5 15/20/5
f 12/10/6 8/7/6 46/21/6 47/22/6
f 6/11/6 12/10/6 47/22/6 48/23/6
f 13/24/5 7/25/5 11/18/5 18/17/5
f 21/8/7 8/7/7 12/10/7 23/9/7
f 19/16/8 2/15/8 10/2/8 24/1/8
f 3/26/5 13/24/5 18/17/5 9/27/5
f 14/6/6 4/3/6 44/28/6 45/29/6
f 16/14/6 6/11/6 48/23/6 49/30/6
f 9/27/5 18/17/5 15/20/5 1/31/5
f 22/12/9 6/11/9 16/14/9 25/13/9
f 20/4/10 4/3/10 14/6/10 26/5/10
f 27/32/11 20/4/11 26/5/11 39/33/11
f 31/34/12 22/12/12 25/13/12 37/35/12
f 42/36/13 19/16/13 24/1/13 35/37/13
f 29/38/14 21/8/14 23/9/14 33/39/14
f 37/35/15 25/13/15 19/16/15 42/36/15
f 33/39/16 23/9/16 22/12/16 31/34/16
f 39/33/17 26/5/17 21/8/17 29/38/17
f 35/37/18 24/1/18 20/4/18 27/32/18
f 9/27/19 36/40/19 28/41/19 3/26/19
f 13/24/20 40/42/20 30/43/20 7/25/20
f 11/18/21 34/44/21 32/45/21 5/19/21
f 15/20/22 38/46/22 41/47/22 1/31/22
f 7/25/23 30/43/23 34/44/23 11/18/23
f 1/31/24 41/47/24 36/40/24 9/27/24
f 5/19/25 32/45/25 38/46/25 15/20/25
f 3/26/26 28/41/26 40/42/26 13/24/26
f 46/21/27 45/29/27 52/48/27 53/49/27
f 50/50/28 49/30/28 56/51/28 57/52/28
f 47/22/29 46/21/29 53/49/29 54/53/29
f 45/29/30 44/28/30 51/54/30 52/48/30
f 10/2/6 2/15/6 50/50/6 43/55/6
f 4/3/6 10/2/6 43/55/6 44/28/6
f 2/15/6 16/14/6 49/30/6 50/50/6
f 8/7/6 14/6/6 45/29/6 46/21/6
f 58/56/6 17/57/6 57/58/6 56/59/6
f 52/60/6 51/61/6 17/57/6 58/56/6
f 53/62/6 52/60/6 58/56/6 54/63/6
f 54/63/6 58/56/6 56/59/6 55/64/6
f 49/30/31 48/23/31 55/65/31 56/51/31
f 43/55/32 50/50/32 57/52/32 17/66/32
f 48/23/33 47/22/33 54/53/33 55/65/33
f 44/28/34 43/55/34 17/66/34 51/54/34
f 42/36/5 35/37/5 59/67/5
f 29/38/5 33/39/5 59/67/5
f 37/35/5 42/36/5 59/67/5
f 33/39/5 31/34/5 59/67/5
f 39/33/5 29/38/5 59/67/5
f 35/37/5 27/32/5 59/67/5
f 27/32/5 39/33/5 59/67/5
f 31/34/5 37/35/5 59/67/5
f 36/68/35 41/69/35 60/70/35
f 34/71/36 30/72/36 60/70/36
f 41/69/37 38/73/37 60/70/37
f 32/74/38 34/71/38 60/70/38
f 30/72/39 40/75/39 60/70/39
f 28/76/40 36/68/40 60/70/40
f 40/75/41 28/76/41 60/70/41
f 38/73/42 32/74/42 60/70/42
f 62/77/2 67/78/2 75/79/2 70/80/2
f 66/81/9 63/82/9 71/83/9 74/84/9
f 64/85/7 62/77/7 70/80/7 72/86/7
f 63/82/3 64/85/3 72/86/3 71/83/3
f 61/87/1 65/88/1 73/89/1 69/90/1
f 67/78/10 61/87/10 69/90/10 75/79/10
f 65/88/8 68/91/8 76/92/8 73/89/8
f 68/91/4 66/81/4 74/84/4 76/92/4
f 91/93/43 108/94/43 107/95/43 92/96/43
f 105/97/44 90/98/44 89/99/44 106/100/44
f 93/101/45 110/102/45 109/103/45 94/104/45
f 101/105/46 86/106/46 85/107/46 102/108/46
f 113/109/47 98/110/47 97/111/47 114/112/47
f 99/113/48 116/114/48 115/115/48 100/116/48
f 95/117/49 112/118/49 111/119/49 96/120/49
f 103/121/50 88/122/50 87/123/50 104/124/50
l 81 77
l 83 78
l 80 79
l 82 84
l 78 80
l 84 81
l 79 82
l 77 83
