# Blender v2.91.0 Beta OBJ File: 'HOUSE.blend'
# www.blender.org
o tree.002_tree.009_tree.002_tree.002_tree.002_tree.009_tree..009
v -2.861665 3.126280 10.068716
v -4.309516 3.126280 10.305748
v -4.309516 3.126280 10.068716
v 1.803402 0.748860 11.025559
v -2.021818 0.748860 10.259391
v 1.803402 0.748860 10.259391
v -4.309516 3.919086 10.305748
v -4.309516 3.919086 10.068716
v -1.896752 0.112438 11.025559
v -1.896752 0.737962 10.259391
v -1.896752 0.112438 10.259391
v -2.861665 3.919086 10.305748
v -2.861665 3.919086 10.068716
v 1.697535 0.112438 11.025559
v 1.697535 0.737962 10.259391
v 1.697535 0.112438 10.259391
v 1.665777 0.333828 10.718665
v -1.924252 0.333828 10.566285
v -1.924252 0.333828 10.718665
v -2.861665 3.126280 10.305748
v -1.964726 0.748860 10.973550
v -2.021818 0.748860 11.025559
v 1.746310 0.748860 10.311400
v 1.746310 0.748860 10.973550
v -1.964726 0.748860 10.311400
v 1.712048 0.112438 11.025559
v 1.712048 0.737962 10.259391
v 1.712048 0.737962 11.025559
v -1.882239 0.112438 11.025559
v -1.882239 0.737962 10.259391
v -1.882239 0.737962 11.025559
v -1.896752 0.737962 11.025559
v 1.697535 0.737962 11.025559
v 1.665777 0.333828 10.566285
v 1.712048 0.112438 10.259391
v -1.882239 0.112438 10.259391
v -4.542606 5.236089 11.778408
v -4.542606 4.413491 10.076745
v -4.542606 4.413489 11.778408
v 3.279035 4.413489 11.778408
v 0.000000 5.236087 11.778408
v 0.000000 4.413488 11.778408
v 6.530992 6.587948 -4.846796
v -6.666702 6.587944 10.076745
v 6.530992 6.587944 10.076745
v -6.666702 0.015854 -4.846804
v 6.530992 4.364511 -4.846797
v 6.530992 0.015854 -4.846804
v 4.227560 1.334569 9.867096
v -2.646972 1.334567 10.076738
v 4.227560 1.334568 10.076738
v 6.525188 -0.729395 -4.846804
v 6.525188 0.015848 10.076737
v 6.525188 -0.729401 10.076737
v 0.000000 4.192359 11.778408
v 3.279035 4.192360 11.778408
v -6.666702 0.015848 10.076737
v -6.666702 4.364511 -4.846797
v -6.661242 0.015853 -4.846804
v -6.665935 -0.729396 -4.846804
v -4.501642 -0.729402 10.076737
v -3.569173 0.015846 10.076737
v -4.501642 0.015847 10.076737
v 5.842704 4.191682 10.381245
v 5.842698 7.036485 9.833427
v 5.842704 4.191682 9.833427
v 6.530992 0.015848 10.076737
v 6.530992 4.364508 10.076745
v -5.842704 4.191682 10.381245
v -5.842698 7.036485 9.833427
v -5.842704 4.191682 9.833427
v -6.665935 -0.729402 10.076737
v -6.661242 0.015847 10.076737
v 5.826950 7.016301 10.381246
v 5.826955 4.205984 9.833427
v 5.826950 7.016303 9.833427
v -3.569173 4.364507 10.076745
v 4.913613 0.015848 10.076737
v 4.542606 5.236089 11.778408
v 3.279035 6.184540 10.076745
v 3.279035 5.236089 11.778408
v -5.044768 0.015847 10.076737
v -4.501642 4.364507 10.076745
v -5.044768 4.364507 10.076745
v -2.646972 3.709346 9.867103
v -2.646972 3.709346 10.076745
v -5.826950 7.016301 10.381246
v -5.826955 4.205984 9.833427
v -5.826950 7.016303 9.833427
v -6.666702 6.587948 -4.846796
v -5.049461 -0.729402 10.076737
v 4.913613 4.364508 10.076745
v -6.666702 4.364508 10.076745
v 6.583671 1.269226 1.116038
v 6.583671 3.111131 -1.340289
v 6.583671 3.111129 1.116041
v 4.227560 3.709346 10.076745
v 4.542606 4.192361 10.076745
v 4.542606 4.413489 11.778408
v 4.542606 4.192360 11.778408
v 4.542606 5.236091 10.076745
v 4.542606 6.184541 10.076745
v -2.646972 1.334567 9.867096
v 4.227560 3.709347 9.867103
v -3.569173 -0.729403 10.076737
v 4.913613 -0.729401 10.076737
v 4.542606 4.413491 10.076745
v -4.542606 6.184541 10.076745
v -4.542606 5.236091 10.076745
v 6.623554 1.450879 0.278318
v 6.623554 2.494275 -0.283351
v 6.623554 2.494275 0.278319
v -6.877801 1.269226 9.906740
v -6.877801 3.111131 7.450414
v -6.877801 1.269228 7.450412
v -6.837918 0.737074 8.901646
v -6.837918 1.780470 8.339976
v -6.837918 0.737074 8.339976
v 5.107600 1.334033 10.028298
v 2.651273 2.841270 10.028298
v 2.651272 1.334035 10.028298
v 4.102506 0.737073 9.988416
v 3.540836 1.780469 9.988416
v 3.540836 0.737073 9.988416
v 2.651272 1.161007 10.208273
v 5.107600 1.161006 10.208273
v -3.279035 5.236089 11.778408
v -3.279035 6.184540 10.076745
v -3.279035 4.192360 11.778408
v -4.542606 4.192360 11.778408
v 0.000000 6.184538 10.076745
v -4.542606 4.192361 10.076745
v 2.731145 5.236089 11.819667
v -0.188141 4.413488 11.819667
v 2.731145 4.413489 11.819667
v -2.714631 4.413489 11.819667
v -0.188141 5.236087 11.819667
v -2.714631 5.236089 11.819667
v -3.279035 4.413489 11.778408
v -3.403964 4.413489 11.811643
v -2.695510 5.236089 11.811643
v -3.403964 5.236089 11.811643
v 3.403964 4.413489 11.811643
v 2.695510 5.236089 11.811643
v 3.403964 5.236089 11.811643
v 6.121938 7.027623 10.101042
v 5.574120 4.114445 10.101047
v 5.574119 7.027623 10.101042
v -6.121938 7.027623 10.101042
v -5.574120 4.114445 10.101047
v -5.574119 7.027623 10.101042
v 6.525188 0.015854 -4.846804
v 5.842698 7.036484 10.381246
v -5.842698 7.036484 10.381246
v 5.826955 4.205983 10.381245
v -5.826955 4.205983 10.381245
v 6.583671 1.269228 -1.340291
v 6.623554 1.450879 -0.283351
v -6.877801 3.111129 9.906744
v -6.837918 1.780470 8.901647
v 5.107602 2.841270 10.028298
v 4.102507 1.780469 9.988416
v -2.695510 4.413489 11.811643
v 2.695510 4.413489 11.811643
v 6.121939 4.114445 10.101047
v -6.121939 4.114445 10.101047
v 6.567333 0.472023 1.961606
v 6.567333 2.313927 -0.494721
v 6.567333 2.313926 1.961609
v 6.611770 0.741037 1.035700
v 6.611770 1.784433 0.474031
v 6.611770 1.784433 1.035701
v 6.567333 0.472024 -0.494723
v 6.611770 0.741037 0.474031
vt 0.005371 0.106934
vt 0.005371 0.106934
vt 0.005371 0.106934
vt 0.005371 0.106934
vt 0.005371 0.106934
vt 0.005371 0.106934
vt 0.116367 0.065423
vt 0.133592 0.065423
vt 0.116367 0.065423
vt 0.133592 0.055744
vt 0.116367 0.055744
vt 0.133592 0.055744
vt 0.005371 0.106934
vt 0.005371 0.106934
vt 0.005371 0.106934
vt 0.005371 0.106934
vt 0.005371 0.106934
vt 0.005371 0.106934
vt 0.005371 0.106934
vt 0.005371 0.106934
vt 0.005371 0.106934
vt 0.005371 0.106934
vt 0.005371 0.106934
vt 0.005371 0.106934
vt 0.005371 0.106934
vt 0.005371 0.106934
vt 0.133592 0.065423
vt 0.032715 0.198730
vt 0.032715 0.198730
vt 0.032715 0.198730
vt 0.005371 0.106934
vt 0.005371 0.106934
vt 0.005371 0.106934
vt 0.004395 0.106934
vt 0.004395 0.106934
vt 0.004395 0.106934
vt 0.116367 0.055744
vt 0.005371 0.106934
vt 0.005371 0.106934
vt 0.005371 0.106934
vt 0.005371 0.106934
vt 0.032715 0.198730
vt 0.005371 0.106934
vt 0.004395 0.106934
vt 0.016113 0.202637
vt 0.039551 0.189941
vt 0.016113 0.189941
vt 0.039551 0.189941
vt 0.016113 0.186035
vt 0.039551 0.186035
vt 0.016113 0.202637
vt 0.016113 0.189941
vt 0.013184 0.158691
vt 0.004395 0.171387
vt 0.004395 0.158691
vt -0.000488 0.001465
vt 0.250488 0.017090
vt -0.000488 0.017090
vt 0.037598 0.188965
vt 0.037598 0.187012
vt 0.037598 0.187012
vt 0.060059 0.189941
vt 0.023926 0.202637
vt 0.023926 0.189941
vt 0.237793 0.070801
vt 0.237793 0.070801
vt 0.237793 0.070801
vt 0.203344 0.001465
vt 0.196361 0.017090
vt 0.196301 0.001465
vt 0.215332 0.017090
vt 0.131348 0.001465
vt 0.131348 0.017090
vt 0.024902 0.186035
vt 0.060059 0.186035
vt 0.713379 0.754840
vt 0.748535 0.751465
vt 0.713379 0.751465
vt 0.223145 0.001465
vt 0.196361 0.017090
vt 0.196301 0.001465
vt 0.237793 0.018066
vt 0.237793 0.070801
vt 0.237793 0.070801
vt 0.004395 0.114342
vt 0.015137 0.149902
vt 0.004395 0.149902
vt 0.234863 0.018066
vt 0.234863 0.070801
vt 0.234863 0.018066
vt 0.015137 0.149902
vt 0.004395 0.115123
vt 0.004395 0.149902
vt 0.131348 0.017090
vt 0.001465 0.001465
vt 0.131348 0.001465
vt 0.063965 0.127441
vt 0.116699 0.114746
vt 0.116699 0.127441
vt 0.039551 0.214355
vt 0.039551 0.202637
vt 0.039551 0.214355
vt 0.016113 0.214355
vt 0.237793 0.018066
vt 0.237793 0.018066
vt 0.136721 0.034058
vt 0.227734 0.034058
vt 0.227734 0.034058
vt 0.203344 0.017090
vt 0.012207 0.018066
vt 0.019043 0.070801
vt 0.019526 0.018066
vt 0.136721 0.034058
vt 0.236816 0.018066
vt 0.024902 0.202637
vt 0.060059 0.214355
vt 0.024902 0.214355
vt 0.249512 0.073730
vt 0.236816 0.073730
vt 0.249512 0.073730
vt 0.019043 0.073730
vt 0.012207 0.073730
vt 0.019043 0.073730
vt 0.249512 0.073730
vt 0.231934 0.073730
vt 0.249512 0.073730
vt 0.247559 0.072754
vt 0.248535 0.072754
vt 0.247559 0.072754
vt 0.248535 0.072754
vt 0.248535 0.072754
vt 0.124512 0.070801
vt 0.136536 0.018066
vt 0.124512 0.018066
vt 0.713379 0.751465
vt 0.748535 0.786621
vt 0.748535 0.751465
vt 0.236816 0.070801
vt 0.227734 0.062856
vt 0.136721 0.062856
vt 0.222168 0.017090
vt 0.118652 0.001465
vt 0.222168 0.001465
vt 0.136721 0.062856
vt 0.713379 0.751465
vt 0.748535 0.786621
vt 0.713379 0.786621
vt 0.037598 0.202637
vt 0.037598 0.202637
vt 0.037598 0.214355
vt 0.004395 0.115123
vt 0.015137 0.149902
vt 0.015137 0.115123
vt 0.246582 0.070801
vt 0.237793 0.070801
vt 0.037598 0.188965
vt 0.037598 0.187012
vt 0.037598 0.188965
vt 0.037598 0.202637
vt 0.037598 0.214355
vt 0.037598 0.202637
vt 0.248535 0.072754
vt 0.063965 0.114746
vt 0.016113 0.127441
vt 0.016113 0.114746
vt 0.015137 0.149902
vt 0.004395 0.115123
vt 0.015137 0.115123
vt 0.713379 0.759277
vt 0.729004 0.771973
vt 0.729004 0.759277
vt 0.037598 0.188965
vt 0.024902 0.202637
vt 0.060059 0.202637
vt 0.748535 0.785383
vt 0.748535 0.754840
vt 0.016113 0.186035
vt 0.249512 0.018066
vt 0.231934 0.070801
vt 0.249512 0.070801
vt 0.004395 0.171387
vt 0.013184 0.158691
vt 0.004395 0.158691
vt 0.234863 0.070801
vt 0.234863 0.070801
vt 0.713379 0.759277
vt 0.729004 0.771973
vt 0.729004 0.759277
vt 0.023926 0.202637
vt 0.023926 0.189941
vt 0.713379 0.759277
vt 0.729004 0.771973
vt 0.713379 0.771973
vt 0.015137 0.149902
vt 0.004395 0.114342
vt 0.004395 0.149902
vt 0.131348 0.017090
vt 0.118652 0.001465
vt 0.131348 0.001465
vt 0.230957 0.070801
vt 0.250488 0.018066
vt 0.230957 0.018066
vt 0.024902 0.189941
vt 0.024902 0.186035
vt 0.015137 0.149902
vt 0.004395 0.115123
vt 0.015137 0.115123
vt 0.713379 0.751465
vt 0.748535 0.786621
vt 0.713379 0.786621
vt 0.713379 0.759277
vt 0.729004 0.771973
vt 0.713379 0.771973
vt 0.039551 0.202637
vt 0.013184 0.171387
vt 0.249512 0.001465
vt 0.215332 0.001465
vt 0.024902 0.189941
vt 0.223145 0.017090
vt 0.015137 0.114342
vt 0.015137 0.115123
vt 0.001465 0.017090
vt 0.016113 0.214355
vt 0.012207 0.070801
vt 0.136230 0.070801
vt 0.713379 0.786621
vt 0.118652 0.017090
vt 0.748535 0.751465
vt 0.004395 0.149902
vt 0.227734 0.062856
vt 0.246582 0.070801
vt 0.037598 0.187012
vt 0.004395 0.149902
vt 0.713379 0.771973
vt 0.024902 0.214355
vt 0.713379 0.785383
vt 0.039551 0.186035
vt 0.231934 0.018066
vt 0.013184 0.171387
vt 0.234863 0.070801
vt 0.713379 0.771973
vt 0.729004 0.759277
vt 0.015137 0.114342
vt 0.118652 0.017090
vt 0.250488 0.070801
vt 0.004395 0.149902
vt 0.748535 0.751465
vt 0.729004 0.759277
vn -1.0000 0.0000 0.0000
vn 0.0000 1.0000 0.0000
vn 1.0000 0.0000 0.0000
vn 0.0000 -1.0000 -0.0000
vn 0.0000 0.0000 1.0000
vn -1.0000 0.0063 0.0000
vn 0.0000 0.0000 -1.0000
vn 0.0000 0.3918 0.9201
vn 0.0000 0.7209 0.6931
vn -0.0000 0.8735 0.4869
s off
f 32/1/1 11/2/1 9/3/1
f 34/4/2 19/5/2 17/6/2
f 2/7/1 8/8/1 3/9/1
f 12/10/3 1/11/3 13/12/3
f 36/13/3 31/14/3 29/15/3
f 4/16/2 21/17/2 22/18/2
f 5/19/2 23/20/2 6/21/2
f 4/16/2 23/20/2 24/22/2
f 22/18/2 25/23/2 5/19/2
f 4/16/2 24/22/2 21/17/2
f 5/19/2 25/23/2 23/20/2
f 4/16/2 6/21/2 23/20/2
f 22/18/2 21/17/2 25/23/2
f 33/24/1 16/25/1 14/26/1
f 7/27/2 13/12/2 8/8/2
f 23/28/2 21/29/2 24/30/2
f 35/31/3 28/32/3 26/33/3
f 22/34/4 6/35/4 4/36/4
f 2/7/5 12/10/5 7/27/5
f 20/37/4 3/9/4 1/11/4
f 32/1/1 10/38/1 11/2/1
f 34/4/2 18/39/2 19/5/2
f 2/7/1 7/27/1 8/8/1
f 12/10/3 20/37/3 1/11/3
f 36/13/3 30/40/3 31/14/3
f 33/24/1 15/41/1 16/25/1
f 7/27/2 12/10/2 13/12/2
f 23/28/2 25/42/2 21/29/2
f 35/31/3 27/43/3 28/32/3
f 22/34/4 5/44/4 6/35/4
f 2/7/5 20/37/5 12/10/5
f 20/37/4 2/7/4 3/9/4
s 1
f 79/45/5 40/46/5 99/47/5
f 139/48/5 130/49/5 129/50/5
f 139/48/5 37/51/5 39/52/5
f 163/53/5 142/54/5 140/55/5
f 60/56/6 73/57/6 59/58/6
f 107/59/3 100/60/3 98/61/3
f 42/62/5 127/63/5 139/64/5
f 43/65/7 58/66/7 90/67/7
f 61/68/5 82/69/5 91/70/5
f 62/71/5 106/72/5 78/73/5
f 42/62/5 129/74/5 55/75/5
f 119/76/8 125/77/9 126/78/9
f 91/79/5 73/80/5 72/81/5
f 67/82/3 47/83/3 68/84/3
f 166/85/5 151/86/5 149/87/5
f 57/88/1 58/89/1 46/90/1
f 87/91/3 88/92/3 89/93/3
f 152/94/3 54/95/3 52/96/3
f 137/97/5 135/98/5 133/99/5
f 79/45/10 80/100/10 81/101/10
f 37/51/10 128/102/10 108/103/10
f 58/66/7 48/104/7 46/105/7
f 103/106/2 51/107/2 49/108/2
f 61/68/5 62/71/5 63/109/5
f 63/110/5 84/111/5 82/112/5
f 50/113/5 78/114/5 51/107/5
f 127/115/10 131/116/10 128/117/10
f 92/118/5 68/119/5 45/120/5
f 84/121/5 83/122/5 44/123/5
f 93/124/5 84/125/5 44/126/5
f 77/127/5 45/128/5 44/129/5
f 83/130/5 77/127/5 44/131/5
f 77/132/5 63/133/5 62/134/5
f 113/135/1 114/136/1 115/137/1
f 51/107/5 92/138/5 97/139/5
f 86/140/5 92/138/5 77/132/5
f 50/113/5 77/132/5 62/134/5
f 43/65/3 68/84/3 47/83/3
f 59/141/7 52/142/7 60/143/7
f 50/113/3 85/144/3 86/140/3
f 94/145/3 95/146/3 96/147/3
f 79/148/3 101/149/3 102/150/3
f 66/151/3 153/152/3 64/153/3
f 49/108/5 85/144/5 103/106/5
f 90/154/2 45/155/2 43/65/2
f 38/156/1 130/157/1 39/158/1
f 37/159/1 108/160/1 109/161/1
f 77/127/5 92/162/5 45/128/5
f 51/107/5 78/114/5 92/138/5
f 86/140/5 97/139/5 92/138/5
f 50/113/5 86/140/5 77/132/5
f 134/163/5 138/164/5 136/165/5
f 154/166/1 71/167/1 69/168/1
f 122/169/5 123/170/5 124/171/5
f 107/59/3 79/148/3 99/172/3
f 81/173/10 131/116/10 41/174/10
f 97/139/1 49/108/1 51/107/1
f 119/76/8 120/175/5 121/176/8
f 40/46/5 100/177/5 99/47/5
f 57/178/5 84/179/5 93/180/5
f 145/181/5 164/182/5 143/183/5
f 37/159/1 38/156/1 39/158/1
f 93/184/1 90/185/1 58/89/1
f 116/186/1 117/187/1 118/188/1
f 81/189/5 42/62/5 40/190/5
f 110/191/3 111/192/3 112/193/3
f 148/194/5 165/195/5 146/196/5
f 53/197/5 106/198/5 54/199/5
f 68/200/5 78/201/5 67/202/5
f 40/203/5 55/75/5 56/204/5
f 74/205/1 75/206/1 155/207/1
f 167/208/3 168/209/3 169/210/3
f 170/211/3 171/212/3 172/213/3
f 79/45/5 81/101/5 40/46/5
f 139/48/5 39/52/5 130/49/5
f 139/48/5 127/214/5 37/51/5
f 163/53/5 141/215/5 142/54/5
f 60/56/6 72/216/6 73/57/6
f 107/59/3 99/172/3 100/60/3
f 42/62/5 41/174/5 127/63/5
f 43/65/7 47/83/7 58/66/7
f 61/68/5 63/109/5 82/69/5
f 62/71/5 105/217/5 106/72/5
f 42/62/5 139/218/5 129/74/5
f 119/76/8 121/176/8 125/77/9
f 91/79/5 82/219/5 73/80/5
f 67/82/3 48/104/3 47/83/3
f 166/85/5 150/220/5 151/86/5
f 57/88/1 93/184/1 58/89/1
f 87/91/3 156/221/3 88/92/3
f 152/94/3 53/222/3 54/95/3
f 137/97/5 134/163/5 135/98/5
f 79/45/10 102/223/10 80/100/10
f 37/51/10 127/214/10 128/102/10
f 58/66/7 47/83/7 48/104/7
f 103/106/2 50/113/2 51/107/2
f 61/68/5 105/217/5 62/71/5
f 63/110/5 83/224/5 84/111/5
f 50/113/5 62/134/5 78/114/5
f 127/115/10 41/174/10 131/116/10
f 77/132/5 83/225/5 63/133/5
f 113/135/1 159/226/1 114/136/1
f 43/65/3 45/155/3 68/84/3
f 59/141/7 152/227/7 52/142/7
f 50/113/3 103/106/3 85/144/3
f 94/145/3 157/228/3 95/146/3
f 66/151/3 65/229/3 153/152/3
f 49/108/5 104/230/5 85/144/5
f 90/154/2 44/231/2 45/155/2
f 38/156/1 132/232/1 130/157/1
f 134/163/5 137/97/5 138/164/5
f 154/166/1 70/233/1 71/167/1
f 122/169/5 162/234/5 123/170/5
f 107/59/3 101/149/3 79/148/3
f 81/173/10 80/235/10 131/116/10
f 97/139/1 104/230/1 49/108/1
f 119/76/8 161/236/5 120/175/5
f 40/46/5 56/237/5 100/177/5
f 57/178/5 82/238/5 84/179/5
f 145/181/5 144/239/5 164/182/5
f 37/159/1 109/161/1 38/156/1
f 93/184/1 44/240/1 90/185/1
f 116/186/1 160/241/1 117/187/1
f 81/189/5 41/174/5 42/62/5
f 110/191/3 158/242/3 111/192/3
f 148/194/5 147/243/5 165/195/5
f 53/197/5 78/244/5 106/198/5
f 68/200/5 92/245/5 78/201/5
f 40/203/5 42/62/5 55/75/5
f 74/205/1 76/246/1 75/206/1
f 167/208/3 173/247/3 168/209/3
f 170/211/3 174/248/3 171/212/3
