# Blender v2.83.4 OBJ File: 'decos.blend'
# www.blender.org
o Cube.002_Cube.006
v -3.637644 4.247634 -0.006975
v 3.637644 4.247634 -0.006975
v 3.528820 4.129337 -0.006975
v -3.528820 4.129337 -0.006975
v -3.637644 4.247634 0.006977
v -3.528820 4.129337 0.006977
v 3.528820 4.129337 0.006977
v 3.637644 4.247634 0.006977
v 3.622621 -5.253899 -0.000002
v 3.622621 4.407225 0.000001
v 3.736910 4.407225 -0.180016
v 3.736910 -5.253899 -0.180019
v 3.851198 -5.253899 -0.000002
v 3.851198 4.407225 0.000001
v 3.736910 4.407225 0.180018
v 3.736910 -5.253899 0.180015
v 3.768260 -1.554101 -0.093320
v -3.768260 -1.554101 -0.093320
v -3.768260 -1.554101 0.093320
v 3.768260 -1.554101 0.093320
v 3.736910 4.407225 0.000001
v 3.768260 1.412288 -0.093320
v 3.768260 1.412288 0.093320
v 3.768260 1.265625 0.093320
v 3.768260 1.265625 -0.093320
v -3.622621 4.407225 0.000001
v -3.736910 4.407225 0.000001
v -3.736910 4.407225 0.180018
v -3.736910 -5.253899 -0.180019
v -3.851198 -5.253899 -0.000002
v -3.851198 4.407225 0.000001
v -3.736910 4.407225 -0.180016
v 3.768260 -1.700764 0.093320
v 3.768260 -1.700764 -0.093320
v -3.768260 -1.700764 -0.093320
v -3.768260 -1.700764 0.093320
v -3.768260 1.412288 -0.093320
v -3.768260 1.412288 0.093320
v -3.768260 1.265625 0.093320
v -3.768260 1.265625 -0.093320
v -3.622621 -5.253899 -0.000002
v -3.736910 -5.253899 0.180015
v 3.768260 4.348003 -0.093319
v 3.768260 4.348003 0.093321
v 3.768260 4.201340 0.093321
v 3.768260 4.201340 -0.093319
v -3.768260 4.348003 -0.093319
v -3.768260 4.348003 0.093321
v -3.768260 4.201340 0.093321
v -3.768260 4.201340 -0.093319
vt 0.195312 0.773438
vt 0.195312 0.773438
vt 0.195312 0.773438
vt 0.195312 0.773438
vt 0.195312 0.773438
vt 0.195312 0.773438
vt 0.195312 0.773438
vt 0.195312 0.773438
vt 0.195312 0.773438
vt 0.195312 0.773438
vt 0.195312 0.773438
vt 0.195312 0.773438
vt 0.195312 0.773438
vt 0.195312 0.773438
vt 0.195312 0.773438
vt 0.195312 0.773438
vt 0.195312 0.773438
vt 0.195312 0.773438
vt 0.195312 0.773438
vt 0.195312 0.773438
vt 0.195312 0.773438
vt 0.195312 0.773438
vt 0.195312 0.773438
vt 0.195312 0.773438
vt 0.195312 0.773438
vt 0.195312 0.773438
vt 0.195312 0.773438
vt 0.195312 0.773438
vt 0.195312 0.773438
vt 0.195312 0.773438
vt 0.195312 0.773438
vt 0.195312 0.773438
vt 0.195312 0.773438
vt 0.195312 0.773438
vt 0.195312 0.773438
vt 0.195312 0.773438
vt 0.195312 0.773438
vt 0.195312 0.773438
vt 0.195312 0.773438
vt 0.195312 0.773438
vt 0.195312 0.773438
vt 0.195312 0.773438
vt 0.195312 0.773438
vt 0.195312 0.773438
vt 0.195312 0.773438
vt 0.195312 0.773438
vt 0.195312 0.773438
vt 0.195312 0.773438
vt 0.195312 0.773438
vt 0.195312 0.773438
vn 0.0000 0.0000 -1.0000
vn 0.0000 -0.0000 1.0000
vn -0.8442 0.0000 -0.5360
vn 0.8442 -0.0000 0.5360
vn 0.0000 1.0000 0.0000
vn 1.0000 0.0000 0.0000
vn 0.8442 0.0000 -0.5360
vn -0.8442 -0.0000 0.5360
vn 0.0000 -1.0000 0.0000
vn -1.0000 0.0000 0.0000
s off
f 1/1/1 2/2/1 3/3/1 4/4/1
f 5/5/2 6/6/2 7/7/2 8/8/2
s 1
f 9/9/3 10/10/3 11/11/3 12/12/3
f 13/13/4 14/14/4 15/15/4 16/16/4
f 17/17/5 18/18/5 19/19/5 20/20/5
f 21/21/5 15/15/5 14/14/5
f 22/22/6 23/23/6 24/24/6 25/25/6
f 26/26/5 27/27/5 28/28/5
f 29/29/3 30/30/3 31/31/3 32/32/3
f 17/17/6 20/20/6 33/33/6 34/34/6
f 11/11/5 21/21/5 14/14/5
f 12/12/7 11/11/7 14/14/7 13/13/7
f 16/16/8 15/15/8 10/10/8 9/9/8
f 11/11/5 10/10/5 21/21/5
f 10/10/5 15/15/5 21/21/5
f 34/34/1 35/35/1 18/18/1 17/17/1
f 20/20/2 19/19/2 36/36/2 33/33/2
f 22/22/5 37/37/5 38/38/5 23/23/5
f 23/23/2 38/38/2 39/39/2 24/24/2
f 25/25/1 40/40/1 37/37/1 22/22/1
f 24/24/9 39/39/9 40/40/9 25/25/9
f 41/41/7 29/29/7 32/32/7 26/26/7
f 27/27/5 31/31/5 28/28/5
f 30/30/8 42/42/8 28/28/8 31/31/8
f 42/42/4 41/41/4 26/26/4 28/28/4
f 32/32/5 27/27/5 26/26/5
f 37/37/10 40/40/10 39/39/10 38/38/10
f 18/18/10 35/35/10 36/36/10 19/19/10
f 32/32/5 31/31/5 27/27/5
f 43/43/6 44/44/6 45/45/6 46/46/6
f 43/43/5 47/47/5 48/48/5 44/44/5
f 44/44/2 48/48/2 49/49/2 45/45/2
f 46/46/1 50/50/1 47/47/1 43/43/1
f 45/45/9 49/49/9 50/50/9 46/46/9
f 47/47/10 50/50/10 49/49/10 48/48/10
