# Blender v2.90.0 Alpha OBJ File: 'Decos.blend'
# www.blender.org
o Plane_Plane.030
v -1.986359 4.811270 1.530127
v -1.986359 4.811271 -1.941270
v 1.626952 4.811272 -1.941270
v 1.626952 4.811271 1.530127
v -2.562726 4.853081 -2.477138
v 2.437274 4.853082 -2.477138
v -2.562726 4.853079 2.326484
v 2.437274 4.853080 2.326484
v 2.437274 5.322577 -2.477138
v 2.437273 5.322575 2.326484
v -2.562726 5.322574 2.326484
v -2.562726 5.322576 -2.477138
v -1.879223 0.031277 -1.843488
v -1.879223 0.031276 1.380880
v 1.476961 0.031277 1.380880
v 1.476962 0.031278 -1.843488
v -1.403917 0.070156 1.437106
v -1.456825 2.203866 1.468194
v 1.222122 2.203866 1.468194
v 1.148052 0.070156 1.437106
v -1.456825 4.422076 1.534037
v 1.222122 4.422076 1.534037
v -1.197178 2.205924 1.626178
v -1.154552 0.228125 1.602174
v -1.104773 0.324628 1.540151
v 0.901431 0.228125 1.602174
v 0.852198 0.324628 1.540151
v -1.197178 4.262049 1.692022
v 0.961105 2.205924 1.626178
v 0.961105 4.262049 1.692022
v -1.145347 4.164288 1.625672
v 0.908998 4.164288 1.625672
v -2.097035 -0.034464 -1.861101
v 1.659520 -0.034463 -1.861101
v -2.097035 -0.034465 1.747913
v 1.659520 -0.034464 1.747913
v 1.659520 0.227439 -1.861101
v 1.659520 0.227438 1.747913
v -2.097035 0.227437 1.747913
v -2.097035 0.227438 -1.861101
vt 0.242188 0.804688
vt 0.242188 0.804688
vt 0.242188 0.804688
vt 0.242188 0.804688
vt 0.273438 0.835938
vt 0.273438 0.835938
vt 0.273438 0.835938
vt 0.273438 0.835938
vt 0.242188 0.804688
vt 0.242188 0.804688
vt 0.273438 0.835938
vt 0.273438 0.835938
vt 0.273438 0.835938
vt 0.273438 0.835938
vt 0.273438 0.835938
vt 0.273438 0.835938
vt 0.273438 0.835938
vt 0.273438 0.835938
vt 0.242188 0.804688
vt 0.242188 0.804688
vt 0.273438 0.835938
vt 0.273438 0.835938
vt 0.273438 0.835938
vt 0.273438 0.835938
vt 0.273438 0.835938
vt 0.273438 0.835938
vt 0.257812 0.789062
vt 0.257812 0.789062
vt 0.257812 0.789062
vt 0.257812 0.789062
vt 0.257812 0.789062
vt 0.257812 0.789062
vt 0.257812 0.789062
vt 0.257812 0.789062
vt 0.257812 0.789062
vt 0.257812 0.789062
vt 0.257812 0.789062
vt 0.257812 0.789062
vt 0.257812 0.789062
vt 0.257812 0.789062
vt 0.257812 0.789062
vt 0.257812 0.789062
vt 0.257812 0.804688
vt 0.257812 0.804688
vt 0.257812 0.804688
vt 0.257812 0.804688
vt 0.257812 0.789062
vt 0.257812 0.789062
vt 0.257812 0.789062
vt 0.257812 0.789062
vt 0.273438 0.835938
vt 0.273438 0.835938
vt 0.273438 0.835938
vt 0.273438 0.835938
vt 0.273438 0.835938
vt 0.273438 0.835938
vt 0.273438 0.835938
vt 0.273438 0.835938
vt 0.257812 0.789062
vt 0.257812 0.789062
vt 0.257812 0.789062
vt 0.257812 0.789062
vn -0.0000 -0.0134 -0.9999
vn -0.0000 -0.0287 -0.9996
vn -0.0000 1.0000 0.0000
vn 0.9991 -0.0417 -0.0000
vn 0.9997 -0.0225 0.0000
vn 0.0000 -1.0000 -0.0000
vn 1.0000 0.0000 0.0000
vn -1.0000 0.0000 0.0000
vn -0.0000 0.0000 -1.0000
vn -0.0000 -0.0000 1.0000
vn -0.0000 -0.0065 1.0000
vn -0.0211 -0.0212 0.9996
vn 0.0000 -0.0438 0.9990
vn 0.0000 0.0146 -0.9999
vn 0.0000 0.0297 -0.9996
vn 0.7810 -0.0115 0.6244
vn 0.7804 0.0097 0.6252
vn 0.7806 -0.0053 0.6250
vn 0.0000 0.5407 0.8412
vn -0.5254 -0.0262 0.8504
vn 0.5302 -0.0286 0.8474
vn 0.5234 -0.0262 0.8517
vn 0.0000 0.7026 0.7116
vn 0.0000 -0.7225 0.6914
vn -0.5304 -0.0237 0.8474
vn 0.7806 -0.0205 0.6247
vn -0.5791 -0.0038 0.8152
vn -0.5820 -0.0040 0.8132
vn -0.7683 -0.0201 0.6397
vn -0.7715 -0.0204 0.6359
vn 0.0000 -0.5616 0.8274
vn 0.0000 -0.0085 1.0000
vn 0.0002 -0.0085 1.0000
vn -0.9996 -0.0298 -0.0000
vn -1.0000 0.0041 -0.0001
vn -0.9995 -0.0182 -0.0264
s 1
f 2/1/1 3/2/1 16/3/2 13/4/2
f 2/5/3 1/6/3 3/7/3
f 1/6/3 4/8/3 3/7/3
f 15/9/4 16/3/4 3/2/5 4/10/5
f 5/11/6 6/12/6 7/13/6
f 7/13/6 6/12/6 8/14/6
f 8/14/7 6/12/7 9/15/7 10/16/7
f 5/11/8 7/13/8 11/17/8 12/18/8
f 6/12/9 5/11/9 12/18/9 9/15/9
f 7/13/10 8/14/10 10/16/10 11/17/10
f 4/10/11 1/19/12 14/20/13 15/9/13
f 17/21/14 18/22/14 19/23/14 20/24/14
f 18/22/15 21/25/15 22/26/15 19/23/15
f 23/27/16 24/28/17 25/29/18
f 24/28/19 26/30/19 27/31/19 25/29/19
f 21/32/20 18/33/20 23/27/20 28/34/20
f 20/35/21 19/36/21 29/37/21 26/30/21
f 19/36/22 22/38/22 30/39/22 29/37/22
f 22/38/23 21/32/23 28/34/23 30/39/23
f 17/40/24 20/35/24 26/30/24 24/28/24
f 18/33/25 17/40/25 24/28/25 23/27/25
f 28/34/26 23/27/16 25/29/18 31/41/26
f 26/30/27 29/37/28 32/42/29 27/31/27
f 29/37/28 30/39/30 32/42/29
f 30/39/31 28/34/31 31/41/31 32/42/31
f 25/43/32 27/44/33 32/45/32 31/46/32
f 11/47/3 10/48/3 9/49/3 12/50/3
f 13/4/34 14/20/34 1/19/35 2/1/36
f 33/51/6 34/52/6 35/53/6
f 35/53/6 34/52/6 36/54/6
f 36/54/7 34/52/7 37/55/7 38/56/7
f 33/51/8 35/53/8 39/57/8 40/58/8
f 34/52/9 33/51/9 40/58/9 37/55/9
f 35/53/10 36/54/10 38/56/10 39/57/10
f 39/59/3 38/60/3 37/61/3 40/62/3
