# Blender v2.90.0 Alpha OBJ File: 'Decos.blend'
# www.blender.org
o Plane_Plane.029
v 4.424980 -0.234721 -1.477382
v 4.424980 -0.234722 1.477382
v 5.649890 -0.234722 1.477382
v 5.649890 -0.234721 -1.477382
v -1.699574 -0.234720 -1.477382
v -1.699574 -0.234721 1.477382
v -0.474664 -0.234721 1.477382
v -0.474664 -0.234720 -1.477382
v 0.750247 -0.234721 1.477382
v 0.750247 -0.234720 -1.477382
v 1.975158 -0.234722 1.477382
v 1.975158 -0.234721 -1.477382
v 3.200069 -0.234722 1.477382
v 3.200069 -0.234721 -1.477382
vt 0.101562 0.835938
vt 0.101562 0.835938
vt 0.101562 0.835938
vt 0.101562 0.835938
vt 0.257812 0.789062
vt 0.257812 0.789062
vt 0.257812 0.789062
vt 0.257812 0.789062
vt 0.101562 0.835938
vt 0.101562 0.835938
vt 0.101562 0.835938
vt 0.101562 0.835938
vt 0.257812 0.789062
vt 0.257812 0.789062
vt 0.257812 0.789062
vt 0.257812 0.789062
vt 0.101562 0.835938
vt 0.101562 0.835938
vt 0.101562 0.835938
vt 0.101562 0.835938
vt 0.257812 0.789062
vt 0.257812 0.789062
vt 0.257812 0.789062
vt 0.257812 0.789062
vn 0.0000 1.0000 0.0000
s 1
f 1/1/1 2/2/1 3/3/1 4/4/1
f 5/5/1 6/6/1 7/7/1 8/8/1
f 8/9/1 7/10/1 9/11/1 10/12/1
f 10/13/1 9/14/1 11/15/1 12/16/1
f 12/17/1 11/18/1 13/19/1 14/20/1
f 14/21/1 13/22/1 2/23/1 1/24/1
