# Blender v2.90.0 Alpha OBJ File: 'Decos.blend'
# www.blender.org
o Plane_Plane.027
v 5.649890 -0.203970 -1.477382
v -1.699574 -0.203968 -1.477382
v -1.699574 -0.203969 -1.058003
v 5.649890 -0.203970 -1.058003
v 5.649890 -0.203970 -0.674295
v -1.699574 -0.203969 -0.674295
v -1.699574 -0.203969 0.674295
v 5.649890 -0.203970 0.674295
v -1.699574 -0.203969 1.058003
v 5.649890 -0.203970 1.058003
v -1.699574 -0.203970 1.477382
v 5.649890 -0.203971 1.477382
vt 0.257812 0.851562
vt 0.257812 0.851562
vt 0.257812 0.851562
vt 0.257812 0.851562
vt 0.257812 0.851562
vt 0.257812 0.851562
vt 0.257812 0.851562
vt 0.257812 0.851562
vt 0.257812 0.835938
vt 0.257812 0.835938
vt 0.257812 0.835938
vt 0.257812 0.835938
vt 0.257812 0.835938
vt 0.257812 0.835938
vt 0.257812 0.835938
vt 0.257812 0.835938
vt 0.257812 0.851562
vt 0.257812 0.851562
vt 0.257812 0.851562
vt 0.257812 0.851562
vn 0.0000 1.0000 0.0000
s 1
f 1/1/1 2/2/1 3/3/1 4/4/1
f 5/5/1 6/6/1 7/7/1 8/8/1
f 9/9/1 10/10/1 8/11/1 7/12/1
f 6/13/1 5/14/1 4/15/1 3/16/1
f 10/17/1 9/18/1 11/19/1 12/20/1
