# Blender v2.90.0 Alpha OBJ File: 'Decos.blend'
# www.blender.org
o Cube.001_Cube.036
v 0.054765 0.455953 0.500000
v -0.253119 0.455953 0.500000
v -0.561002 0.455953 0.500000
v -0.868886 0.455953 0.500000
v -1.050855 -0.213921 0.573832
v -0.402880 0.818759 0.573832
v -0.398333 0.764833 0.527413
v -1.009069 -0.234137 0.527413
v -1.009068 -0.234137 0.620251
v -0.398333 0.764833 0.620251
v -0.387318 0.740043 0.573832
v -1.027791 -0.304006 0.599957
v -1.071337 -0.290358 0.543776
v -1.039335 -0.347093 -0.551935
v -1.039335 -0.347093 0.551936
v -1.071337 -0.290358 -0.543776
v 0.262367 -0.182140 0.527413
v 0.295060 -0.149187 0.573832
v 0.262367 -0.182140 0.620251
v 0.325606 -0.169756 0.557921
v 0.316900 -0.218861 0.599910
v 0.359367 -0.247457 0.551935
v 0.351326 -0.187075 0.527464
v 0.359367 -0.247457 -0.000000
v 0.351326 -0.187075 -0.000000
v 0.276027 -0.191338 0.526268
v 0.287273 -0.198911 0.519305
v 0.287273 -0.198911 -0.000000
v -0.858119 0.749176 0.573832
v -0.858119 0.819396 0.518448
v -0.025962 0.819396 0.518448
v -0.025962 0.749176 0.573832
v -0.025962 0.819396 0.629217
v -0.858119 0.819396 0.629217
v 0.827129 2.025007 0.499999
v 0.699736 2.022754 0.499999
v 0.592242 1.761620 0.499999
v 0.484746 1.500487 0.499999
v 0.377251 1.239353 0.500000
v 0.269756 0.978220 0.500000
v 0.162261 0.717086 0.500000
v -1.016840 -0.263140 0.519306
v -0.891642 0.407588 0.620251
v 0.089846 0.406551 0.626723
v 0.752611 2.009877 0.626722
v 0.791673 2.121284 0.592800
v 0.829323 2.017127 0.504339
v 0.190756 0.456952 0.535204
v 0.190756 0.456953 0.000000
v 0.829323 2.017127 -0.000001
v 0.054765 0.455953 -0.500000
v -0.868886 0.455953 -0.500000
v -0.561002 0.455953 -0.500000
v -0.253119 0.455953 -0.500000
v -1.050856 -0.213921 -0.573832
v -1.009069 -0.234136 -0.527413
v -0.398333 0.764833 -0.527413
v -0.402880 0.818759 -0.573832
v -1.009069 -0.234136 -0.620251
v -0.398333 0.764833 -0.620251
v -0.387318 0.740043 -0.573832
v -1.027791 -0.304005 -0.599956
v 0.262367 -0.182139 -0.527413
v 0.295060 -0.149186 -0.573832
v 0.262367 -0.182139 -0.620251
v 0.325606 -0.169755 -0.557921
v 0.351326 -0.187075 -0.527465
v 0.359367 -0.247457 -0.551936
v 0.316900 -0.218860 -0.599911
v 0.276027 -0.191337 -0.526268
v 0.287273 -0.198910 -0.519306
v -0.858119 0.749177 -0.573832
v -0.025962 0.749177 -0.573832
v -0.025962 0.819396 -0.518447
v -0.858119 0.819396 -0.518447
v -0.858119 0.819396 -0.629216
v -0.025962 0.819396 -0.629216
v 0.827129 2.025007 -0.500001
v 0.699736 2.022754 -0.500001
v 0.162261 0.717087 -0.500000
v 0.269756 0.978220 -0.500000
v 0.377250 1.239354 -0.500000
v 0.484746 1.500487 -0.500001
v 0.592242 1.761621 -0.500001
v -1.016840 -0.263139 -0.519305
v 0.089846 0.406552 -0.626723
v -0.891642 0.407588 -0.620251
v 0.752611 2.009877 -0.626724
v 0.791673 2.121284 -0.592802
v 0.829323 2.017127 -0.504340
v 0.190756 0.456953 -0.535203
vt 0.117188 0.835938
vt 0.117188 0.835938
vt 0.117188 0.835938
vt 0.117188 0.835938
vt 0.148438 0.804688
vt 0.148438 0.804688
vt 0.148438 0.804688
vt 0.148438 0.804688
vt 0.148438 0.804688
vt 0.148438 0.804688
vt 0.148438 0.804688
vt 0.148438 0.804688
vt 0.148438 0.804688
vt 0.148438 0.804688
vt 0.148438 0.804688
vt 0.148438 0.804688
vt 0.148438 0.804688
vt 0.148438 0.804688
vt 0.148438 0.804688
vt 0.148438 0.804688
vt 0.148438 0.804688
vt 0.148438 0.804688
vt 0.148438 0.804688
vt 0.148438 0.804688
vt 0.148438 0.804688
vt 0.148438 0.804688
vt 0.148438 0.804688
vt 0.148438 0.804688
vt 0.257812 0.804688
vt 0.257812 0.804688
vt 0.257812 0.804688
vt 0.257812 0.804688
vt 0.257812 0.804688
vt 0.257812 0.804688
vt 0.117188 0.835938
vt 0.117188 0.835938
vt 0.117187 0.835938
vt 0.117187 0.835938
vt 0.117188 0.835938
vt 0.117188 0.835938
vt 0.117188 0.835938
vt 0.148438 0.804688
vt 0.148438 0.804688
vt 0.148438 0.804688
vt 0.148438 0.804688
vt 0.148438 0.804688
vt 0.148438 0.804688
vt 0.148438 0.804688
vt 0.148437 0.804687
vt 0.148438 0.851562
vt 0.148438 0.851562
vt 0.148438 0.851562
vt 0.148438 0.851562
vt 0.117188 0.835938
vt 0.117188 0.835938
vt 0.117188 0.835938
vt 0.117188 0.835938
vt 0.148438 0.804688
vt 0.148438 0.804688
vt 0.148438 0.804688
vt 0.148438 0.804688
vt 0.148438 0.804688
vt 0.148438 0.804688
vt 0.148438 0.804688
vt 0.148438 0.804688
vt 0.148438 0.851562
vt 0.148438 0.851562
vt 0.148438 0.851562
vt 0.148438 0.851562
vt 0.148438 0.804688
vt 0.148438 0.804688
vt 0.148438 0.804688
vt 0.148438 0.804688
vt 0.148438 0.804688
vt 0.148438 0.804688
vt 0.148438 0.804688
vt 0.148438 0.804688
vt 0.148438 0.804688
vt 0.257812 0.804688
vt 0.257812 0.804688
vt 0.257812 0.804688
vt 0.257812 0.804688
vt 0.257812 0.804688
vt 0.257812 0.804688
vt 0.148438 0.851562
vt 0.148438 0.851562
vt 0.148438 0.851562
vt 0.148438 0.851562
vt 0.117188 0.835938
vt 0.117188 0.835938
vt 0.117188 0.835938
vt 0.117187 0.835938
vt 0.117187 0.835938
vt 0.117188 0.835938
vt 0.117188 0.835938
vt 0.148438 0.804688
vt 0.148438 0.804688
vt 0.148438 0.804688
vt 0.148438 0.804688
vt 0.148438 0.804688
vt 0.148438 0.804688
vt 0.148438 0.804688
vt 0.148437 0.804687
vt 0.117187 0.835937
vt 0.117187 0.835937
vt 0.148438 0.851562
vt 0.148438 0.851562
vt 0.148438 0.851562
vt 0.148438 0.851562
vt 0.148438 0.851562
vt 0.148438 0.851562
vt 0.148438 0.851562
vt 0.148438 0.851562
vt 0.148438 0.851562
vt 0.148438 0.851562
vt 0.148438 0.851562
vt 0.148438 0.851562
vt 0.148438 0.851562
vt 0.148438 0.851562
vt 0.148438 0.851562
vt 0.148438 0.851562
vn -0.3827 0.0000 -0.9239
vn 0.2706 0.2706 -0.9239
vn 0.3827 0.0000 -0.9239
vn -0.6494 0.4023 -0.6454
vn -0.6494 0.4023 0.6454
vn 0.9810 0.1939 0.0000
vn -0.7932 -0.0267 0.6084
vn -0.8710 -0.4913 -0.0000
vn 0.6403 0.4543 -0.6193
vn 0.6403 0.4543 0.6193
vn 0.7999 0.3079 0.5152
vn 0.9913 0.1320 0.0000
vn -0.0369 0.8148 -0.5785
vn -0.1817 0.9834 0.0000
vn 0.1989 0.6926 -0.6934
vn 0.5858 0.4387 0.6815
vn 0.0000 -0.6193 -0.7852
vn 0.0000 -0.6193 0.7852
vn 0.0000 1.0000 0.0000
vn 0.0000 0.0000 1.0000
vn -0.5598 0.4105 -0.7198
vn -0.7768 -0.3643 0.5136
vn -0.7423 0.0043 0.6701
vn -0.0007 0.9298 0.3681
vn -0.9105 0.4119 -0.0368
vn -0.8597 0.1531 -0.4873
vn 0.9255 -0.3788 -0.0000
vn -0.3827 0.4844 -0.7867
vn 0.3827 0.4844 -0.7867
vn -0.2705 0.2540 -0.9286
vn -0.6493 0.4023 0.6454
vn -0.7932 -0.0267 -0.6083
vn 0.7999 0.3079 -0.5152
vn -0.0369 0.8148 0.5785
vn 0.1989 0.6926 0.6934
vn 0.5858 0.4387 -0.6815
vn -0.0177 0.9998 0.0000
vn 0.0000 -0.0000 -1.0000
vn -0.5598 0.4105 0.7198
vn -0.7768 -0.3643 -0.5136
vn -0.7423 0.0043 -0.6701
vn -0.0007 0.9298 -0.3681
vn -0.9105 0.4119 0.0368
vn -0.8597 0.1531 0.4873
vn -0.9384 -0.3456 0.0000
vn -0.9247 0.3807 0.0000
vn -0.4468 0.8946 0.0000
s 1
f 1/1/1 2/2/2 3/3/2 4/4/3
f 5/5/4 6/6/4 7/7/4 8/8/4
f 9/9/5 10/10/5 6/6/5 5/5/5
f 11/11/6 7/7/6 6/6/6 10/10/6
f 12/12/7 5/5/7 13/13/7
f 14/14/8 15/15/8 13/13/8 16/16/8
f 17/17/9 7/7/9 6/6/9 18/18/9
f 18/18/10 6/6/10 10/10/10 19/19/10
f 20/20/11 21/21/11 22/22/11 23/23/11
f 23/23/12 22/22/12 24/24/12 25/25/12
f 26/26/13 20/20/13 23/23/13 27/27/13
f 27/27/14 23/23/14 25/25/14 28/28/14
f 17/17/15 18/18/15 20/20/15 26/26/15
f 18/18/16 19/19/16 21/21/16 20/20/16
f 29/29/17 30/30/17 31/31/17 32/32/17
f 32/32/18 33/33/18 34/34/18 29/29/18
f 33/33/19 31/31/19 30/30/19 34/34/19
f 1/1/20 35/35/20 36/36/20 37/37/20 38/38/20 39/39/20 40/40/20 41/41/20
f 5/5/21 8/8/21 42/42/21 13/13/21
f 15/15/22 12/12/22 13/13/22
f 9/9/23 5/5/23 12/12/23
f 4/43/24 43/44/24 44/45/24 1/46/24
f 1/46/25 44/45/25 45/47/25 35/48/25
f 35/48/26 45/47/26 46/49/26
f 47/50/27 48/51/27 49/52/27 50/53/27
f 51/54/28 52/55/29 53/56/30 54/57/30
f 55/58/31 56/59/31 57/60/31 58/61/31
f 59/62/4 55/58/4 58/61/4 60/63/4
f 61/64/6 60/63/6 58/61/6 57/60/6
f 62/65/32 16/16/32 55/58/32
f 53/66/19 52/67/19 4/68/19 3/69/19
f 63/70/10 64/71/10 58/61/10 57/60/10
f 64/71/9 65/72/9 60/63/9 58/61/9
f 66/73/33 67/74/33 68/75/33 69/76/33
f 67/74/12 25/25/12 24/24/12 68/75/12
f 70/77/34 71/78/34 67/74/34 66/73/34
f 71/78/14 28/28/14 25/25/14 67/74/14
f 63/70/35 70/77/35 66/73/35 64/71/35
f 64/71/36 66/73/36 69/76/36 65/72/36
f 72/79/18 73/80/18 74/81/18 75/82/18
f 73/80/17 72/79/17 76/83/17 77/84/17
f 77/84/19 76/83/19 75/82/19 74/81/19
f 35/85/37 78/86/37 79/87/37 36/88/37
f 51/54/38 80/89/38 81/90/38 82/91/38 83/92/38 84/93/38 79/94/38 78/95/38
f 55/58/39 16/16/39 85/96/39 56/59/39
f 14/14/40 16/16/40 62/65/40
f 59/62/41 62/65/41 55/58/41
f 52/97/42 51/98/42 86/99/42 87/100/42
f 51/98/43 78/101/43 88/102/43 86/99/43
f 78/101/44 89/103/44 88/102/44
f 78/95/45 35/35/45 46/104/45 89/105/45
f 37/106/46 36/88/46 79/87/46 84/107/46
f 41/108/46 40/109/46 81/110/46 80/111/46
f 39/112/46 38/113/46 83/114/46 82/115/46
f 51/116/19 54/117/19 2/118/19 1/119/19
f 54/57/19 53/56/19 3/3/19 2/2/19
f 1/1/46 41/41/46 80/89/46 51/54/46
f 40/40/46 39/39/46 82/91/46 81/90/46
f 38/38/46 37/37/46 84/93/46 83/92/46
f 90/120/27 50/53/27 49/52/27 91/121/27
f 16/16/47 13/13/47 42/42/47 85/96/47
