# Blender v2.90.0 Alpha OBJ File: 'Decos.blend'
# www.blender.org
o Cube.001_Cube.040
v -2.082751 -0.213922 0.573832
v -0.402880 0.818759 0.573832
v -0.398333 0.764833 0.527413
v -2.040963 -0.234137 0.527413
v -2.040963 -0.234137 0.620251
v -0.398333 0.764833 0.620251
v -0.387318 0.740043 0.573832
v -2.059685 -0.304006 0.599957
v -2.103231 -0.290359 0.543776
v -2.071231 -0.347093 -0.551935
v -2.071230 -0.347094 0.551936
v -2.103231 -0.290358 -0.543776
v 0.262367 -0.182140 0.527413
v 0.295060 -0.149187 0.573832
v 0.262367 -0.182140 0.620251
v 0.325606 -0.169756 0.557921
v 0.316900 -0.218861 0.599910
v 0.359367 -0.247457 0.551935
v 0.351326 -0.187075 0.527464
v 0.359367 -0.247457 -0.000000
v 0.351326 -0.187075 -0.000000
v 0.276027 -0.191338 0.526268
v 0.287273 -0.198911 0.519305
v 0.287273 -0.198911 -0.000000
v -1.890015 0.749176 0.573833
v -1.890015 0.819395 0.518448
v -0.025962 0.819396 0.518448
v -0.025962 0.749176 0.573832
v -0.025962 0.819396 0.629217
v -1.890015 0.819395 0.629217
v 0.072996 0.443346 0.500000
v 0.706042 0.740476 0.500000
v 0.665694 0.771586 0.500000
v -2.048736 -0.263140 0.519306
v -2.044569 0.455952 0.500001
v -2.067326 0.407587 0.560842
v 0.071615 0.419158 0.566693
v 0.678991 0.754361 0.566692
v 0.719012 0.779398 0.536020
v 0.704759 0.737467 0.504339
v 0.115716 0.409698 0.535204
v 0.115716 0.409698 0.000000
v 0.704759 0.737468 -0.000000
v -2.082751 -0.213921 -0.573832
v -2.040964 -0.234137 -0.527413
v -0.398333 0.764833 -0.527413
v -0.402880 0.818759 -0.573832
v -2.040964 -0.234137 -0.620251
v -0.398333 0.764833 -0.620251
v -0.387318 0.740043 -0.573832
v -2.059685 -0.304006 -0.599956
v 0.072996 0.443347 -0.500000
v -2.044570 0.455953 -0.499999
v 0.262367 -0.182139 -0.527413
v 0.295060 -0.149186 -0.573832
v 0.262367 -0.182139 -0.620251
v 0.325606 -0.169755 -0.557921
v 0.351326 -0.187075 -0.527465
v 0.359367 -0.247457 -0.551936
v 0.316900 -0.218860 -0.599911
v 0.276027 -0.191337 -0.526268
v 0.287273 -0.198910 -0.519306
v -1.890015 0.749176 -0.573831
v -0.025962 0.749177 -0.573832
v -0.025962 0.819396 -0.518447
v -1.890015 0.819396 -0.518447
v -1.890015 0.819396 -0.629216
v -0.025962 0.819396 -0.629216
v 0.706042 0.740477 -0.500000
v 0.665694 0.771587 -0.500000
v -2.048736 -0.263140 -0.519305
v 0.071615 0.419158 -0.566692
v -2.067326 0.407588 -0.560840
v 0.678991 0.754361 -0.566693
v 0.719012 0.779399 -0.536020
v 0.704759 0.737468 -0.504340
v 0.115716 0.409698 -0.535203
vt 0.148438 0.804688
vt 0.148438 0.804688
vt 0.148438 0.804688
vt 0.148438 0.804688
vt 0.148438 0.804688
vt 0.148438 0.804688
vt 0.148438 0.804688
vt 0.148438 0.804688
vt 0.148438 0.804688
vt 0.148438 0.804688
vt 0.148438 0.804688
vt 0.148438 0.804688
vt 0.148438 0.804688
vt 0.148438 0.804688
vt 0.148438 0.804688
vt 0.148438 0.804688
vt 0.148438 0.804688
vt 0.148438 0.804688
vt 0.148438 0.804688
vt 0.148438 0.804688
vt 0.148438 0.804688
vt 0.148438 0.804688
vt 0.148438 0.804688
vt 0.148438 0.804688
vt 0.257812 0.804688
vt 0.257812 0.804688
vt 0.257812 0.804688
vt 0.257812 0.804688
vt 0.257812 0.804688
vt 0.257812 0.804688
vt 0.101562 0.835938
vt 0.101562 0.835938
vt 0.101563 0.835938
vt 0.148438 0.804688
vt 0.148438 0.804688
vt 0.148438 0.804688
vt 0.148438 0.804688
vt 0.148438 0.804688
vt 0.148438 0.804688
vt 0.148438 0.804688
vt 0.148437 0.804687
vt 0.242188 0.804688
vt 0.242188 0.804688
vt 0.242188 0.804688
vt 0.242188 0.804688
vt 0.148438 0.804688
vt 0.148438 0.804688
vt 0.148438 0.804688
vt 0.148438 0.804688
vt 0.148438 0.804688
vt 0.148438 0.804688
vt 0.148438 0.804688
vt 0.148438 0.804688
vt 0.148438 0.898438
vt 0.148438 0.898438
vt 0.148438 0.898438
vt 0.148438 0.898438
vt 0.148438 0.804688
vt 0.148438 0.804688
vt 0.148438 0.804688
vt 0.148438 0.804688
vt 0.148438 0.804688
vt 0.148438 0.804688
vt 0.148438 0.804688
vt 0.148438 0.804688
vt 0.148438 0.804688
vt 0.257812 0.804688
vt 0.257812 0.804688
vt 0.257812 0.804688
vt 0.257812 0.804688
vt 0.257812 0.804688
vt 0.257812 0.804688
vt 0.148438 0.898438
vt 0.148438 0.898438
vt 0.148438 0.898438
vt 0.148438 0.898438
vt 0.101562 0.835938
vt 0.101562 0.835938
vt 0.101562 0.835938
vt 0.148438 0.804688
vt 0.148438 0.804688
vt 0.148438 0.804688
vt 0.148438 0.804688
vt 0.148438 0.804688
vt 0.148438 0.804688
vt 0.148438 0.804688
vt 0.148437 0.804687
vt 0.148438 0.898438
vt 0.148438 0.898438
vt 0.242188 0.804688
vt 0.242188 0.804688
vn -0.3798 0.6211 -0.6856
vn -0.3798 0.6211 0.6856
vn 0.9810 0.1939 0.0000
vn -0.7932 -0.0267 0.6084
vn -0.8710 -0.4913 0.0000
vn 0.6403 0.4543 -0.6193
vn 0.6403 0.4543 0.6193
vn 0.7999 0.3079 0.5152
vn 0.9913 0.1320 0.0000
vn -0.0369 0.8148 -0.5785
vn -0.1817 0.9834 0.0000
vn 0.1989 0.6926 -0.6934
vn 0.5858 0.4387 0.6815
vn -0.0000 -0.6193 -0.7852
vn 0.0000 -0.6193 0.7852
vn -0.0000 1.0000 0.0000
vn 0.0000 0.0000 1.0000
vn -0.5598 0.4105 -0.7198
vn -0.7768 -0.3643 0.5136
vn -0.7423 0.0043 0.6701
vn -0.0005 0.8692 0.4944
vn -0.4540 0.8906 -0.0280
vn -0.6874 0.6033 -0.4044
vn 0.4862 -0.8738 -0.0000
vn -0.7932 -0.0267 -0.6084
vn 0.0060 1.0000 0.0000
vn 0.7999 0.3079 -0.5152
vn -0.0369 0.8148 0.5785
vn 0.1989 0.6926 0.6934
vn 0.5858 0.4387 -0.6815
vn 0.6106 0.7919 0.0000
vn 0.0000 -0.0000 -1.0000
vn -0.5598 0.4105 0.7198
vn -0.7768 -0.3643 -0.5136
vn -0.7423 0.0043 -0.6701
vn -0.0005 0.8692 -0.4944
vn -0.4540 0.8906 0.0280
vn -0.6874 0.6033 0.4044
vn -0.9487 0.3162 0.0000
vn -0.4845 0.8748 0.0000
vn -0.4468 0.8946 0.0000
s 1
f 1/1/1 2/2/1 3/3/1 4/4/1
f 5/5/2 6/6/2 2/2/2 1/1/2
f 7/7/3 3/3/3 2/2/3 6/6/3
f 8/8/4 1/1/4 9/9/4
f 10/10/5 11/11/5 9/9/5 12/12/5
f 13/13/6 3/3/6 2/2/6 14/14/6
f 14/14/7 2/2/7 6/6/7 15/15/7
f 16/16/8 17/17/8 18/18/8 19/19/8
f 19/19/9 18/18/9 20/20/9 21/21/9
f 22/22/10 16/16/10 19/19/10 23/23/10
f 23/23/11 19/19/11 21/21/11 24/24/11
f 13/13/12 14/14/12 16/16/12 22/22/12
f 14/14/13 15/15/13 17/17/13 16/16/13
f 25/25/14 26/26/14 27/27/14 28/28/14
f 28/28/15 29/29/15 30/30/15 25/25/15
f 29/29/16 27/27/16 26/26/16 30/30/16
f 31/31/17 32/32/17 33/33/17
f 1/1/18 4/4/18 34/34/18 9/9/18
f 11/11/19 8/8/19 9/9/19
f 5/5/20 1/1/20 8/8/20
f 35/35/21 36/36/21 37/37/21 31/38/21
f 31/38/22 37/37/22 38/39/22 32/40/22
f 32/40/23 38/39/23 39/41/23
f 40/42/24 41/43/24 42/44/24 43/45/24
f 44/46/2 45/47/2 46/48/2 47/49/2
f 48/50/1 44/46/1 47/49/1 49/51/1
f 50/52/3 49/51/3 47/49/3 46/48/3
f 51/53/25 12/12/25 44/46/25
f 52/54/26 53/55/26 35/56/26 31/57/26
f 54/58/7 55/59/7 47/49/7 46/48/7
f 55/59/6 56/60/6 49/51/6 47/49/6
f 57/61/27 58/62/27 59/63/27 60/64/27
f 58/62/9 21/21/9 20/20/9 59/63/9
f 61/65/28 62/66/28 58/62/28 57/61/28
f 62/66/11 24/24/11 21/21/11 58/62/11
f 54/58/29 61/65/29 57/61/29 55/59/29
f 55/59/30 57/61/30 60/64/30 56/60/30
f 63/67/15 64/68/15 65/69/15 66/70/15
f 64/68/14 63/67/14 67/71/14 68/72/14
f 68/72/16 67/71/16 66/70/16 65/69/16
f 32/73/31 69/74/31 70/75/31 33/76/31
f 52/77/32 70/78/32 69/79/32
f 44/46/33 12/12/33 71/80/33 45/47/33
f 10/10/34 12/12/34 51/53/34
f 48/50/35 51/53/35 44/46/35
f 53/81/36 52/82/36 72/83/36 73/84/36
f 52/82/37 69/85/37 74/86/37 72/83/37
f 69/85/38 75/87/38 74/86/38
f 69/74/39 32/73/39 39/88/39 75/89/39
f 31/57/40 33/76/40 70/75/40 52/54/40
f 76/90/24 43/45/24 42/44/24 77/91/24
f 12/12/41 9/9/41 34/34/41 71/80/41
