# Blender v2.90.0 Alpha OBJ File: 'Decos.blend'
# www.blender.org
o Cube.001_Cube.043
v -1.050855 0.036079 0.573832
v -0.402880 1.068759 0.573832
v -0.398333 1.014833 0.527413
v -1.009069 0.015863 0.527413
v -1.009069 0.015863 0.620251
v -0.398333 1.014833 0.620251
v -0.387318 0.990043 0.573832
v -1.027791 -0.054006 0.599957
v -1.071337 -0.040358 0.543776
v -1.039335 -0.097093 -0.551935
v -1.039335 -0.097093 0.551935
v -1.071337 -0.040358 -0.543776
v 0.262367 0.067860 0.527413
v 0.295060 0.100813 0.573832
v 0.262367 0.067860 0.620251
v 0.325606 0.080244 0.557921
v 0.316900 0.031139 0.599910
v 0.359367 0.002543 0.551935
v 0.351326 0.062925 0.527465
v 0.359367 0.002543 0.000000
v 0.351326 0.062925 0.000000
v 0.276027 0.058662 0.526268
v 0.287273 0.051089 0.519306
v 0.287273 0.051089 0.000000
v -0.858119 0.999176 0.573832
v -0.858119 1.069396 0.518448
v -0.025962 1.069396 0.518448
v -0.025962 0.999176 0.573832
v -0.025962 1.069396 0.629217
v -0.858119 1.069396 0.629217
v 0.054765 0.705953 0.500000
v 0.827129 2.275007 0.500000
v 0.699736 2.272754 0.500000
v -1.016840 -0.013140 0.519306
v -0.868886 0.705953 0.500000
v -0.891642 0.657588 0.620251
v 0.089846 0.656551 0.626723
v 0.752611 2.259877 0.626723
v 0.829322 2.267127 0.504340
v 0.190756 0.706952 0.535204
v 0.190756 0.706953 0.000000
v 0.829322 2.267127 0.000000
v -1.050855 0.036079 -0.573832
v -1.009069 0.015864 -0.527413
v -0.398333 1.014833 -0.527413
v -0.402880 1.068759 -0.573832
v -1.009069 0.015864 -0.620251
v -0.398333 1.014833 -0.620251
v -0.387318 0.990043 -0.573832
v -1.027791 -0.054005 -0.599957
v 0.262367 0.067861 -0.527413
v 0.295060 0.100814 -0.573832
v 0.262367 0.067861 -0.620251
v 0.325606 0.080245 -0.557921
v 0.351326 0.062925 -0.527465
v 0.359367 0.002543 -0.551935
v 0.316900 0.031140 -0.599910
v 0.276027 0.058663 -0.526268
v 0.287273 0.051090 -0.519306
v -0.858119 0.999177 -0.573832
v -0.025962 0.999177 -0.573832
v -0.025962 1.069396 -0.518447
v -0.858119 1.069396 -0.518447
v -0.858119 1.069396 -0.629216
v -0.025962 1.069396 -0.629216
v 0.827129 2.275007 -0.500000
v 0.699736 2.272754 -0.500000
v 0.054765 0.705953 -0.500000
v -1.016840 -0.013139 -0.519306
v -0.868886 0.705953 -0.500000
v 0.089846 0.656552 -0.626723
v -0.891642 0.657588 -0.620251
v 0.752611 2.259877 -0.626723
v 0.829322 2.267127 -0.504339
v 0.190756 0.706953 -0.535203
v -0.407061 0.606957 -0.500000
v -0.868886 0.705953 -0.500000
v -0.868886 0.705953 0.500000
v -0.407061 0.606957 0.500000
v 0.054765 0.705953 0.500000
v 0.699736 2.272754 0.500000
v 0.699736 2.272754 -0.500000
v 0.054765 0.705953 -0.500000
vt 0.179688 0.804688
vt 0.179688 0.804688
vt 0.179688 0.804688
vt 0.179688 0.804688
vt 0.179688 0.804688
vt 0.179688 0.804688
vt 0.179688 0.804688
vt 0.179688 0.804688
vt 0.179688 0.804688
vt 0.179688 0.804688
vt 0.179688 0.804688
vt 0.179688 0.804688
vt 0.179688 0.804688
vt 0.179688 0.804688
vt 0.179688 0.804688
vt 0.179688 0.804688
vt 0.179688 0.804688
vt 0.179688 0.804688
vt 0.179688 0.804688
vt 0.179688 0.804688
vt 0.179688 0.804688
vt 0.179688 0.804688
vt 0.179688 0.804688
vt 0.179688 0.804688
vt 0.179688 0.804688
vt 0.179688 0.804688
vt 0.179688 0.804688
vt 0.179688 0.804688
vt 0.179688 0.804688
vt 0.179688 0.804688
vt 0.179688 0.804688
vt 0.179688 0.804688
vt 0.179688 0.804688
vt 0.179688 0.804688
vt 0.179688 0.804688
vt 0.179688 0.804688
vt 0.179688 0.804688
vt 0.179688 0.804688
vt 0.179688 0.804688
vt 0.179688 0.804688
vt 0.179688 0.804688
vt 0.179688 0.804688
vt 0.179688 0.804688
vt 0.179688 0.804688
vt 0.179688 0.804688
vt 0.179688 0.804688
vt 0.179688 0.804688
vt 0.179688 0.804688
vt 0.179688 0.804688
vt 0.179688 0.804688
vt 0.179688 0.804688
vt 0.179688 0.804688
vt 0.179688 0.804688
vt 0.179688 0.804688
vt 0.179688 0.804688
vt 0.179688 0.804688
vt 0.179688 0.804688
vt 0.179688 0.804688
vt 0.179688 0.804688
vt 0.179688 0.804688
vt 0.179688 0.804688
vt 0.179688 0.804688
vt 0.179688 0.804688
vt 0.179688 0.804688
vt 0.179688 0.804688
vt 0.117188 0.898438
vt 0.117188 0.898438
vt 0.117188 0.898438
vt 0.117188 0.898438
vt 0.179688 0.804688
vt 0.179688 0.804688
vt 0.179688 0.804688
vt 0.179688 0.804688
vt 0.179688 0.804688
vt 0.179688 0.804688
vt 0.179688 0.804688
vt 0.179688 0.804688
vt 0.179688 0.804688
vt 0.179688 0.804688
vt 0.117188 0.898438
vt 0.117188 0.898438
vt 0.117188 0.898438
vt 0.117188 0.898438
vt 0.117188 0.898438
vt 0.117188 0.898438
vt 0.117188 0.898438
vt 0.117188 0.898438
vn -0.6494 0.4023 -0.6454
vn -0.6494 0.4023 0.6454
vn 0.9810 0.1939 0.0000
vn -0.7932 -0.0267 0.6084
vn -0.8710 -0.4913 -0.0000
vn 0.6403 0.4543 -0.6193
vn 0.6403 0.4543 0.6193
vn 0.7999 0.3079 0.5152
vn 0.9913 0.1320 0.0000
vn -0.0369 0.8148 -0.5785
vn -0.1817 0.9834 0.0000
vn 0.1989 0.6926 -0.6934
vn 0.5858 0.4387 0.6815
vn 0.0000 -0.6193 -0.7852
vn 0.0000 -0.6193 0.7852
vn 0.0000 1.0000 0.0000
vn 0.0000 -0.0000 1.0000
vn -0.5598 0.4105 -0.7198
vn -0.7768 -0.3643 0.5136
vn -0.7423 0.0043 0.6701
vn -0.0007 0.9298 0.3681
vn -0.9105 0.4119 -0.0368
vn 0.9255 -0.3788 0.0000
vn -0.7932 -0.0267 -0.6084
vn 0.7999 0.3079 -0.5152
vn -0.0369 0.8148 0.5785
vn 0.1989 0.6926 0.6934
vn 0.5858 0.4387 -0.6815
vn -0.0177 0.9998 0.0000
vn -0.0000 0.0000 -1.0000
vn -0.5598 0.4105 0.7198
vn -0.7768 -0.3643 -0.5136
vn -0.7423 0.0043 -0.6701
vn -0.0007 0.9298 -0.3681
vn -0.9105 0.4119 0.0368
vn -0.4468 0.8946 0.0000
vn 0.2096 0.9778 0.0000
vn -0.6409 0.7676 0.0000
vn -0.9247 0.3807 0.0000
s 1
f 1/1/1 2/2/1 3/3/1 4/4/1
f 5/5/2 6/6/2 2/2/2 1/1/2
f 7/7/3 3/3/3 2/2/3 6/6/3
f 8/8/4 1/1/4 9/9/4
f 10/10/5 11/11/5 9/9/5 12/12/5
f 13/13/6 3/3/6 2/2/6 14/14/6
f 14/14/7 2/2/7 6/6/7 15/15/7
f 16/16/8 17/17/8 18/18/8 19/19/8
f 19/19/9 18/18/9 20/20/9 21/21/9
f 22/22/10 16/16/10 19/19/10 23/23/10
f 23/23/11 19/19/11 21/21/11 24/24/11
f 13/13/12 14/14/12 16/16/12 22/22/12
f 14/14/13 15/15/13 17/17/13 16/16/13
f 25/25/14 26/26/14 27/27/14 28/28/14
f 28/28/15 29/29/15 30/30/15 25/25/15
f 29/29/16 27/27/16 26/26/16 30/30/16
f 31/31/17 32/32/17 33/33/17
f 1/1/18 4/4/18 34/34/18 9/9/18
f 11/11/19 8/8/19 9/9/19
f 5/5/20 1/1/20 8/8/20
f 35/35/21 36/36/21 37/37/21 31/31/21
f 31/31/22 37/37/22 38/38/22 32/32/22
f 39/39/23 40/40/23 41/41/23 42/42/23
f 43/43/2 44/44/2 45/45/2 46/46/2
f 47/47/1 43/43/1 46/46/1 48/48/1
f 49/49/3 48/48/3 46/46/3 45/45/3
f 50/50/24 12/12/24 43/43/24
f 51/51/7 52/52/7 46/46/7 45/45/7
f 52/52/6 53/53/6 48/48/6 46/46/6
f 54/54/25 55/55/25 56/56/25 57/57/25
f 55/55/9 21/21/9 20/20/9 56/56/9
f 58/58/26 59/59/26 55/55/26 54/54/26
f 59/59/11 24/24/11 21/21/11 55/55/11
f 51/51/27 58/58/27 54/54/27 52/52/27
f 52/52/28 54/54/28 57/57/28 53/53/28
f 60/60/15 61/61/15 62/62/15 63/63/15
f 61/61/14 60/60/14 64/64/14 65/65/14
f 65/65/16 64/64/16 63/63/16 62/62/16
f 32/66/29 66/67/29 67/68/29 33/69/29
f 68/70/30 67/71/30 66/72/30
f 43/43/31 12/12/31 69/73/31 44/44/31
f 10/10/32 12/12/32 50/50/32
f 47/47/33 50/50/33 43/43/33
f 70/74/34 68/70/34 71/75/34 72/76/34
f 68/70/35 66/72/35 73/77/35 71/75/35
f 74/78/23 42/42/23 41/41/23 75/79/23
f 12/12/36 9/9/36 34/34/36 69/73/36
f 76/80/16 77/81/37 78/82/37 79/83/16
f 80/84/38 81/85/39 82/86/39 83/87/38
f 83/87/38 76/80/16 79/83/16 80/84/38
