# Blender v2.91.0 Beta OBJ File: 'decos.blend'
# www.blender.org
o Torus.003
v -2.198766 11.965123 0.360947
v -2.130414 12.112217 0.360947
v -2.130414 12.112217 -0.360939
v -2.198766 11.965123 -0.360939
v 2.031357 12.178601 -0.360939
v 2.130414 12.112217 -0.360939
v 2.198767 11.965123 -0.360939
v 2.130414 12.112217 0.360947
v 2.198767 11.965123 0.360947
v -2.031356 12.178601 0.360947
v 2.031356 10.045833 -0.360939
v 2.150966 10.112217 -0.360939
v 2.150966 10.112217 0.360947
v 2.031357 10.045833 0.360947
v -2.031356 12.178601 -0.360939
v 2.031356 12.178601 0.360947
v -2.150966 10.112217 -0.360939
v -2.031356 10.045833 -0.360939
v -2.031356 10.045833 0.360947
v -2.150966 10.112217 0.360947
v -2.198766 10.238448 -0.360939
v 2.198767 10.238448 0.360947
v -2.198766 10.238448 0.360947
v 2.198767 10.238448 -0.360939
v 0.000000 2.617764 0.214999
v 0.000000 10.140388 0.215003
v -0.214999 10.140388 0.000004
v -0.214999 2.617764 0.000000
v 0.000000 10.140388 -0.214995
v 0.000000 2.617764 -0.214999
v 0.214999 10.140388 0.000004
v 0.214999 2.617764 0.000000
v 2.135619 15.518783 0.000005
v 1.572443 15.193633 -0.664312
v 0.984131 14.853971 0.000004
v 1.572443 15.193633 0.664322
v 2.135621 13.052779 0.000004
v 1.572444 13.377930 -0.664313
v 0.984130 13.717593 0.000004
v 1.572444 13.377930 0.664321
v 0.000001 11.819778 0.000004
v 0.000000 12.470079 -0.664313
v -0.000000 13.149405 0.000004
v 0.000000 12.470079 0.664321
v -2.135620 13.052781 0.000004
v -1.572444 13.377931 -0.664313
v -0.984132 13.717593 0.000004
v -1.572444 13.377931 0.664321
v -2.135619 15.518782 0.000006
v -1.572444 15.193632 -0.664311
v -0.984132 14.853971 0.000005
v -1.572444 15.193632 0.664323
v 0.000001 16.751781 0.000006
v -0.000000 16.101484 -0.664311
v -0.000001 15.422159 0.000006
v -0.000000 16.101484 0.664323
vt 0.335938 0.554688
vt 0.335938 0.554688
vt 0.335938 0.554688
vt 0.335938 0.554688
vt 0.335938 0.554688
vt 0.335938 0.554688
vt 0.335938 0.554688
vt 0.335938 0.554688
vt 0.335938 0.554688
vt 0.335938 0.554688
vt 0.335938 0.554688
vt 0.335938 0.554688
vt 0.335938 0.554688
vt 0.335938 0.554688
vt 0.335938 0.554688
vt 0.335938 0.554688
vt 0.335938 0.554688
vt 0.335938 0.554688
vt 0.335938 0.554688
vt 0.335938 0.554688
vt 0.335938 0.554688
vt 0.335938 0.554688
vt 0.335938 0.554688
vt 0.335938 0.554688
vt 0.320312 0.539062
vt 0.320312 0.539062
vt 0.320312 0.539062
vt 0.320312 0.539062
vt 0.320312 0.539062
vt 0.320312 0.539062
vt 0.320312 0.539062
vt 0.320312 0.539062
vt 0.195312 0.554688
vt 0.179688 0.804688
vt 0.179688 0.804688
vt 0.195312 0.554688
vt 0.195312 0.554688
vt 0.195312 0.554688
vt 0.210938 0.554688
vt 0.179688 0.804688
vt 0.210938 0.554688
vt 0.179688 0.804688
vt 0.195312 0.554688
vt 0.195312 0.554688
vt 0.195312 0.554688
vt 0.179688 0.804688
vt 0.210938 0.554688
vt 0.210938 0.554688
vt 0.195312 0.554688
vt 0.195312 0.554688
vt 0.195312 0.554688
vt 0.195312 0.554688
vt 0.210938 0.554688
vt 0.179688 0.804688
vt 0.195312 0.554688
vt 0.195312 0.554688
vt 0.195312 0.554688
vt 0.195312 0.554688
vt 0.195312 0.554688
vt 0.195312 0.554688
vt 0.210938 0.554688
vt 0.195312 0.554688
vn -0.9069 0.4214 0.0000
vn -0.0000 0.0000 -1.0000
vn 0.9069 0.4214 0.0000
vn 0.0000 -0.0000 1.0000
vn 0.4853 -0.8744 -0.0000
vn -0.5567 0.8307 0.0000
vn 0.5567 0.8307 0.0000
vn 0.0000 1.0000 -0.0000
vn -0.4853 -0.8744 0.0000
vn 0.9352 -0.3541 0.0000
vn 1.0000 0.0000 0.0000
vn -0.9352 -0.3541 0.0000
vn -1.0000 -0.0000 0.0000
vn 0.0000 -1.0000 0.0000
vn -0.7071 -0.0000 0.7071
vn -0.7071 0.0000 -0.7071
vn 0.7071 0.0000 -0.7071
vn 0.7071 -0.0000 0.7071
vn 0.8660 -0.5000 0.0000
vn 0.0000 0.0803 0.9968
vn -0.0709 0.0409 0.9966
vn -0.0490 0.0880 -0.9949
vn -0.8641 0.4989 -0.0669
vn -0.0000 0.9978 -0.0666
vn 0.1496 -0.2595 0.9541
vn 0.8641 0.4989 -0.0666
vn 0.0707 0.0408 0.9967
vn -0.8660 0.5000 0.0000
vn 0.0707 0.0408 -0.9967
vn 0.0717 -0.0414 -0.9966
vn -0.1007 -0.0016 0.9949
vn -0.8641 -0.4989 -0.0669
vn -0.8660 -0.5000 -0.0000
vn 0.0000 -0.9978 -0.0666
vn 0.0001 -0.0835 -0.9965
vn -0.0000 -0.0835 0.9965
vn -0.1491 0.2605 -0.9539
vn 0.8660 0.5000 -0.0000
vn -0.3320 -0.0351 -0.9426
vn 0.8641 -0.4990 -0.0657
s off
f 2/1/1 4/2/1 1/3/1
f 5/4/2 6/5/2 7/6/2
f 6/5/3 9/7/3 7/6/3
f 10/8/4 2/1/4 1/3/4
f 12/9/5 14/10/5 11/11/5
f 3/12/6 10/8/6 15/13/6
f 5/4/7 8/14/7 6/5/7
f 15/13/8 16/15/8 5/4/8
f 18/16/9 20/17/9 17/18/9
f 11/11/2 15/13/2 5/4/2
f 9/7/4 8/14/4 16/15/4
f 4/2/2 3/12/2 15/13/2
f 17/18/2 21/19/2 18/16/2
f 4/2/2 18/16/2 21/19/2
f 13/20/4 22/21/4 14/10/4
f 9/7/4 14/10/4 22/21/4
f 19/22/4 23/23/4 20/17/4
f 19/22/4 1/3/4 23/23/4
f 24/24/10 13/20/10 12/9/10
f 7/6/11 22/21/11 24/24/11
f 11/11/2 24/24/2 12/9/2
f 11/11/2 7/6/2 24/24/2
f 23/23/12 17/18/12 20/17/12
f 1/3/13 21/19/13 23/23/13
f 19/22/4 16/15/4 10/8/4
f 11/11/14 19/22/14 18/16/14
f 26/25/15 28/26/15 25/27/15
f 27/28/16 30/29/16 28/26/16
f 29/30/17 32/31/17 30/29/17
f 31/32/18 25/27/18 32/31/18
f 2/1/1 3/12/1 4/2/1
f 6/5/3 8/14/3 9/7/3
f 12/9/5 13/20/5 14/10/5
f 3/12/6 2/1/6 10/8/6
f 5/4/7 16/15/7 8/14/7
f 15/13/8 10/8/8 16/15/8
f 18/16/9 19/22/9 20/17/9
f 11/11/2 18/16/2 15/13/2
f 4/2/2 15/13/2 18/16/2
f 9/7/4 16/15/4 14/10/4
f 19/22/4 10/8/4 1/3/4
f 24/24/10 22/21/10 13/20/10
f 7/6/11 9/7/11 22/21/11
f 11/11/2 5/4/2 7/6/2
f 23/23/12 21/19/12 17/18/12
f 1/3/13 4/2/13 21/19/13
f 19/22/4 14/10/4 16/15/4
f 11/11/14 14/10/14 19/22/14
f 26/25/15 27/28/15 28/26/15
f 27/28/16 29/30/16 30/29/16
f 29/30/17 31/32/17 32/31/17
f 31/32/18 26/25/18 25/27/18
s 1
f 51/33/19 56/34/20 52/35/21
f 54/36/22 49/37/23 53/38/24
f 56/34/20 49/39/23 52/35/21
f 40/40/25 33/41/26 36/42/27
f 36/42/27 39/43/28 40/40/25
f 39/43/28 34/44/29 38/45/30
f 48/46/31 49/39/23 45/47/32
f 36/42/27 53/48/24 56/34/20
f 53/38/24 34/44/29 54/36/22
f 56/34/20 35/49/33 36/42/27
f 38/45/30 41/50/34 42/51/35
f 43/52/8 38/45/30 42/51/35
f 41/53/34 40/40/25 44/54/36
f 50/55/37 45/56/32 49/37/23
f 51/33/19 54/36/22 55/57/14
f 43/52/8 48/46/31 44/54/36
f 45/47/32 44/54/36 48/46/31
f 40/40/25 43/52/8 44/54/36
f 33/58/26 38/45/30 34/44/29
f 47/59/38 50/55/37 51/33/19
f 48/46/31 51/33/19 52/35/21
f 42/51/35 45/56/32 46/60/39
f 35/49/33 54/36/22 34/44/29
f 43/52/8 46/60/39 47/59/38
f 51/33/19 55/57/14 56/34/20
f 54/36/22 50/55/37 49/37/23
f 56/34/20 53/48/24 49/39/23
f 40/40/25 37/61/40 33/41/26
f 36/42/27 35/49/33 39/43/28
f 39/43/28 35/49/33 34/44/29
f 48/46/31 52/35/21 49/39/23
f 36/42/27 33/41/26 53/48/24
f 53/38/24 33/58/26 34/44/29
f 56/34/20 55/57/14 35/49/33
f 38/45/30 37/62/40 41/50/34
f 43/52/8 39/43/28 38/45/30
f 41/53/34 37/61/40 40/40/25
f 50/55/37 46/60/39 45/56/32
f 51/33/19 50/55/37 54/36/22
f 43/52/8 47/59/38 48/46/31
f 45/47/32 41/53/34 44/54/36
f 40/40/25 39/43/28 43/52/8
f 33/58/26 37/62/40 38/45/30
f 47/59/38 46/60/39 50/55/37
f 48/46/31 47/59/38 51/33/19
f 42/51/35 41/50/34 45/56/32
f 35/49/33 55/57/14 54/36/22
f 43/52/8 42/51/35 46/60/39
