# Blender v2.90.0 Alpha OBJ File: 'Decos.blend'
# www.blender.org
o Billboard_Cube.008
v -0.260884 0.000000 0.260884
v -0.260884 12.583945 0.260884
v -0.260884 0.000000 -0.260884
v -0.260884 12.583945 -0.260884
v 0.260884 0.000000 0.260884
v 0.260884 12.583945 0.260884
v 0.260884 0.000000 -0.260884
v 0.260884 12.583945 -0.260884
v 0.000000 0.000000 -0.368945
v 0.000000 12.583945 -0.368945
v 0.000000 0.000000 0.368945
v 0.000000 12.583945 0.368945
v -0.368945 0.000000 -0.000000
v -0.368945 12.583945 0.000000
v 0.368945 0.000000 0.000000
v 0.368945 12.583945 0.000000
v -4.030462 12.596670 0.376126
v 4.030462 17.068260 0.376123
v -4.030469 17.068264 0.376126
v 4.030471 12.596666 0.376123
v -4.486281 12.606292 -0.633295
v 4.486282 12.606292 0.633296
v -4.486289 12.606292 0.633297
v 4.486291 12.606292 -0.633296
v -4.486281 12.466597 -0.633295
v 4.486282 12.466597 0.633296
v -4.486289 12.466597 0.633297
v 4.486291 12.466597 -0.633296
v -4.030462 12.596670 -0.408557
v 4.030462 17.068260 -0.408554
v -4.030469 17.068264 -0.408557
v 4.030471 12.596666 -0.408554
v -4.030469 17.068264 0.261749
v -4.030469 17.068264 -0.294180
v -4.030462 12.596670 0.261749
v -4.030462 12.596670 -0.294180
v 4.030462 17.068260 0.261747
v 4.030462 17.068260 -0.294178
v 4.030471 12.596666 0.261747
v 4.030471 12.596666 -0.294178
v -3.780474 16.790909 0.244508
v -3.780474 16.790909 -0.276939
v -3.780467 12.596670 0.244508
v -3.780467 12.596670 -0.276939
v 3.780468 16.790905 0.244506
v 3.780468 16.790905 -0.276937
v 3.780476 12.596666 0.244506
v 3.780476 12.596666 -0.276937
vt 0.012447 0.893016
vt 0.012447 0.893016
vt 0.012447 0.893016
vt 0.012447 0.893016
vt 0.012447 0.893016
vt 0.012447 0.893016
vt 0.012447 0.893016
vt 0.012447 0.893016
vt 0.012447 0.893016
vt 0.012447 0.893016
vt 0.012447 0.893016
vt 0.012447 0.893016
vt 0.012447 0.893016
vt 0.012447 0.893016
vt 0.012447 0.893016
vt 0.012447 0.893016
vt 0.047666 0.894234
vt 0.047666 0.894234
vt 0.047666 0.894234
vt 0.047666 0.894234
vt 0.010602 0.885019
vt 0.010602 0.885019
vt 0.010602 0.885019
vt 0.010602 0.885019
vt 0.010602 0.885019
vt 0.010602 0.885019
vt 0.010602 0.885019
vt 0.010602 0.885019
vt 0.010602 0.885019
vt 0.010602 0.885019
vt 0.010602 0.885019
vt 0.010602 0.885019
vt 0.010602 0.885019
vt 0.010602 0.885019
vt 0.010602 0.885019
vt 0.010602 0.885019
vt 0.047666 0.894234
vt 0.047666 0.894234
vt 0.047666 0.894234
vt 0.047666 0.894234
vt 0.010602 0.885019
vt 0.010602 0.885019
vt 0.010602 0.885019
vt 0.010602 0.885019
vt 0.010602 0.885019
vt 0.010602 0.885019
vt 0.010602 0.885019
vt 0.010602 0.885019
vt 0.010602 0.885019
vt 0.010602 0.885019
vt 0.010602 0.885019
vt 0.010602 0.885019
vt 0.010602 0.885019
vt 0.010602 0.885019
vt 0.010602 0.885019
vt 0.010602 0.885019
vn -1.0000 -0.0000 0.0000
vn -0.7071 0.0000 -0.7071
vn 0.0000 0.0000 -1.0000
vn 0.7071 0.0000 -0.7071
vn 1.0000 0.0000 0.0000
vn 0.7071 0.0000 0.7071
vn 0.0000 0.0000 1.0000
vn -0.7071 -0.0000 0.7071
vn 0.0000 1.0000 0.0000
vn 0.0000 -1.0000 -0.0000
vn -0.0688 -0.0000 -0.9976
vn -0.0000 0.0620 -0.9981
vn 0.0688 0.0000 -0.9976
vn -0.0688 -0.0000 0.9976
vn -0.0000 0.0620 0.9981
vn 0.0688 0.0000 0.9976
s 1
f 13/1/1 14/2/1 4/3/2 3/4/2
f 9/5/3 10/6/3 8/7/4 7/8/4
f 15/9/5 16/10/5 6/11/6 5/12/6
f 11/13/7 12/14/7 2/15/8 1/16/8
f 5/12/6 6/11/6 12/14/7 11/13/7
f 3/4/2 4/3/2 10/6/3 9/5/3
f 7/8/4 8/7/4 16/10/5 15/9/5
f 1/16/8 2/15/8 14/2/1 13/1/1
f 29/17/3 31/18/3 30/19/3 32/20/3
f 22/21/9 24/22/9 21/23/9 23/24/9
f 23/24/7 27/25/7 26/26/7 22/21/7
f 21/23/1 25/27/1 27/25/1 23/24/1
f 24/22/3 28/28/3 25/27/3 21/23/3
f 22/21/5 26/26/5 28/28/5 24/22/5
f 25/27/10 28/28/10 26/26/10 27/25/10
f 36/29/1 34/30/1 31/31/1 29/32/1
f 34/30/9 38/33/9 30/34/9 31/31/9
f 38/33/5 40/35/5 32/36/5 30/34/5
f 17/37/7 20/38/7 18/39/7 19/40/7
f 18/41/5 20/42/5 39/43/5 37/44/5
f 33/45/11 41/46/11 43/47/11 35/48/11
f 19/49/9 18/41/9 37/44/9 33/45/9
f 35/48/9 43/47/9 44/50/9 36/29/9
f 17/51/1 19/49/1 33/45/1 35/48/1
f 40/35/9 48/52/9 47/53/9 39/43/9
f 45/54/5 47/53/5 48/52/5 46/55/5
f 41/46/9 45/54/9 46/55/9 42/56/9
f 43/47/1 41/46/1 42/56/1 44/50/1
f 37/44/12 45/54/12 41/46/12 33/45/12
f 39/43/13 47/53/13 45/54/13 37/44/13
f 36/29/14 44/50/14 42/56/14 34/30/14
f 34/30/15 42/56/15 46/55/15 38/33/15
f 38/33/16 46/55/16 48/52/16 40/35/16
