# Blender v2.82 (sub 7) OBJ File: ''
# www.blender.org
mtllib blast-furnace.mtl
o Tank_Cube.002
v 0.000000 1.130307 -0.000001
v 0.000000 1.130305 17.358763
v 12.274499 1.130305 12.274498
v 17.358763 1.130307 -0.000001
v -17.358763 1.130307 -0.000001
v -12.274499 1.130305 12.274498
v -12.274499 1.130308 -12.274500
v 0.000000 1.130308 -17.358763
v 12.274499 1.130308 -12.274500
v 12.274499 -3.199409 -12.274500
v 0.000000 -3.199408 -17.358763
v -12.274499 -3.199409 -12.274500
v -17.358763 -3.199410 -0.000001
v -12.274499 -3.199413 12.274498
v 0.000000 -3.199414 17.358763
v 12.274499 -3.199413 12.274498
v 17.358763 -3.199410 -0.000001
v -5.240993 1.146179 -12.652879
v -9.684093 1.146178 -9.684093
v -12.844417 13.999999 -12.844416
v -6.951348 13.999999 -16.782038
v -4.027349 39.999996 9.722884
v -6.951348 13.999999 16.782040
v 0.000000 13.999999 18.164749
v 0.000000 39.999996 10.523973
v -12.652878 1.146178 5.240993
v -9.684093 1.146177 9.684092
v -12.844417 13.999999 12.844419
v -16.782040 14.000001 6.951351
v 5.240993 1.146176 12.652877
v 9.684093 1.146177 9.684092
v 12.844417 13.999995 12.844419
v 6.951348 13.999999 16.782040
v 4.027349 39.999996 -9.722875
v 6.951348 14.000003 -16.782038
v 0.000000 13.999999 -18.164747
v 0.000000 39.999996 -10.523964
v 12.652878 1.146178 -5.240994
v 9.684093 1.146178 -9.684093
v 12.844417 13.999999 -12.844416
v 16.782040 13.999997 -6.951346
v -9.722879 39.999996 -4.027343
v -16.782040 14.000001 -6.951346
v -18.164749 14.000001 0.000002
v -10.523969 39.999996 0.000005
v 9.722879 39.999996 4.027354
v 16.782040 14.000001 6.951351
v 18.164749 13.999997 0.000002
v 10.523969 39.999996 0.000005
v 7.441569 39.999996 7.441575
v -13.695375 1.146178 -0.000001
v -7.441569 39.999996 7.441575
v 0.000000 1.146179 -13.695376
v 7.441569 39.999996 -7.441564
v 0.000000 1.146176 13.695374
v -7.441569 39.999996 -7.441564
v 13.695375 1.146178 -0.000001
v -4.027349 39.999996 -9.722875
v 0.000000 39.999992 0.000005
v -9.722879 39.999996 4.027354
v 4.027349 39.999996 9.722884
v -5.240993 1.146176 12.652877
v 5.240993 1.146179 -12.652879
v 9.722879 39.999996 -4.027343
v -12.652878 1.146178 -5.240994
v 12.652878 1.146178 5.240993
vt 0.007812 0.898438
vt 0.007812 0.898438
vt 0.007812 0.898438
vt 0.007812 0.898438
vt 0.007812 0.898438
vt 0.007812 0.898438
vt 0.007812 0.898438
vt 0.007812 0.898438
vt 0.007812 0.898438
vt 0.007812 0.898438
vt 0.007812 0.898438
vt 0.007812 0.898438
vt 0.007812 0.898438
vt 0.007812 0.898438
vt 0.007812 0.898438
vt 0.007812 0.898438
vt 0.007812 0.898438
vt 0.039062 0.898438
vt 0.039062 0.898438
vt 0.039062 0.898437
vt 0.039062 0.898437
vt 0.039062 0.898438
vt 0.039062 0.898438
vt 0.039062 0.898438
vt 0.039062 0.898438
vt 0.039062 0.898438
vt 0.039062 0.898438
vt 0.039062 0.898438
vt 0.039062 0.898438
vt 0.039062 0.898438
vt 0.039062 0.898438
vt 0.039062 0.898438
vt 0.039062 0.898437
vt 0.039062 0.898438
vt 0.039062 0.898437
vt 0.039062 0.898437
vt 0.039062 0.898438
vt 0.039062 0.898438
vt 0.039062 0.898438
vt 0.039062 0.898437
vt 0.039062 0.898438
vt 0.039062 0.898438
vt 0.039062 0.898437
vt 0.039062 0.898437
vt 0.039062 0.898438
vt 0.039062 0.898438
vt 0.039062 0.898438
vt 0.039062 0.898437
vt 0.039062 0.898438
vt 0.039062 0.898438
vt 0.039062 0.898438
vt 0.039062 0.898438
vt 0.039062 0.898438
vt 0.039062 0.898438
vt 0.039062 0.898438
vt 0.039062 0.898438
vt 0.039062 0.898438
vt 0.039062 0.898438
vt 0.039062 0.898438
vt 0.039062 0.898438
vt 0.039062 0.898438
vt 0.039062 0.898438
vt 0.039062 0.898438
vt 0.039062 0.898438
vt 0.039062 0.898438
vt 0.039062 0.898438
vn 0.0000 1.0000 0.0000
vn 0.3827 0.0000 -0.9239
vn -0.9239 0.0000 -0.3827
vn -0.3827 0.0000 0.9239
vn 0.3827 0.0000 0.9239
vn 0.9239 0.0000 -0.3827
vn -0.3827 0.0000 -0.9239
vn -0.9239 0.0000 0.3827
vn 0.9239 0.0000 0.3827
vn -0.3615 -0.3284 -0.8726
vn -0.6679 -0.3284 -0.6679
vn -0.7069 -0.0235 -0.7069
vn -0.3826 -0.0235 -0.9236
vn -0.3672 0.2820 0.8864
vn -0.3826 -0.0235 0.9236
vn -0.0000 -0.0235 0.9997
vn 0.0000 0.2820 0.9594
vn -0.8726 -0.3284 0.3615
vn -0.6679 -0.3284 0.6679
vn -0.7069 -0.0235 0.7069
vn -0.9236 -0.0235 0.3826
vn 0.3615 -0.3284 0.8726
vn 0.6679 -0.3284 0.6679
vn 0.7069 -0.0235 0.7069
vn 0.3826 -0.0235 0.9236
vn 0.3672 0.2820 -0.8864
vn 0.3826 -0.0235 -0.9236
vn -0.0000 -0.0235 -0.9997
vn -0.0000 0.2820 -0.9594
vn 0.8726 -0.3284 -0.3615
vn 0.6679 -0.3284 -0.6679
vn 0.7069 -0.0235 -0.7069
vn 0.9236 -0.0235 -0.3826
vn -0.8864 0.2820 -0.3672
vn -0.9236 -0.0235 -0.3826
vn -0.9997 -0.0235 -0.0000
vn -0.9594 0.2820 0.0000
vn 0.8864 0.2820 0.3672
vn 0.9236 -0.0235 0.3826
vn 0.9997 -0.0235 -0.0000
vn 0.9594 0.2820 -0.0000
vn 0.6784 0.2820 0.6784
vn -0.9445 -0.3284 -0.0000
vn -0.6784 0.2820 0.6784
vn 0.0000 -0.3284 -0.9445
vn 0.6784 0.2820 -0.6784
vn 0.0000 -0.3284 0.9445
vn -0.6784 0.2820 -0.6784
vn 0.9445 -0.3284 0.0000
vn -0.3672 0.2820 -0.8864
vn -0.3615 -0.3284 0.8726
vn -0.8864 0.2820 0.3672
vn 0.3672 0.2820 0.8864
vn 0.3615 -0.3284 -0.8726
vn 0.8864 0.2820 -0.3672
vn -0.8726 -0.3284 -0.3615
vn 0.8726 -0.3284 0.3615
usemtl Default_OBJ.035
s off
f 1/1/1 2/2/1 3/3/1 4/4/1
f 5/5/1 6/6/1 2/2/1 1/1/1
f 7/7/1 5/5/1 1/1/1 8/8/1
f 8/8/1 1/1/1 4/4/1 9/9/1
f 8/8/2 9/9/2 10/10/2 11/11/2
f 5/5/3 7/7/3 12/12/3 13/13/3
f 2/2/4 6/6/4 14/14/4 15/15/4
f 3/3/5 2/2/5 15/15/5 16/16/5
f 9/9/6 4/4/6 17/17/6 10/10/6
f 7/7/7 8/8/7 11/11/7 12/12/7
f 6/6/8 5/5/8 13/13/8 14/14/8
f 4/4/9 3/3/9 16/16/9 17/17/9
s 1
f 18/18/10 19/19/11 20/20/12 21/21/13
f 22/22/14 23/23/15 24/24/16 25/25/17
f 26/26/18 27/27/19 28/28/20 29/29/21
f 30/30/22 31/31/23 32/32/24 33/33/25
f 34/34/26 35/35/27 36/36/28 37/37/29
f 38/38/30 39/39/31 40/40/32 41/41/33
f 42/42/34 43/43/35 44/44/36 45/45/37
f 46/46/38 47/47/39 48/48/40 49/49/41
f 50/50/42 32/32/24 47/47/39 46/46/38
f 51/51/43 26/26/18 29/29/21 44/44/36
f 52/52/44 28/28/20 23/23/15 22/22/14
f 53/53/45 18/18/10 21/21/13 36/36/28
f 54/54/46 40/40/32 35/35/27 34/34/26
f 55/55/47 30/30/22 33/33/25 24/24/16
f 56/56/48 20/20/12 43/43/35 42/42/34
f 57/57/49 38/38/30 41/41/33 48/48/40
f 21/21/13 20/20/12 56/56/48 58/58/50
f 59/59/1 60/60/1 52/52/1 22/22/1
f 59/59/1 25/25/1 61/61/1
f 59/59/1 42/42/1 45/45/1
f 23/23/15 62/62/51 55/55/47 24/24/16
f 29/29/21 28/28/20 52/52/44 60/60/52
f 33/33/25 32/32/24 50/50/42 61/61/53
f 35/35/27 63/63/54 53/53/45 36/36/28
f 41/41/33 40/40/32 54/54/46 64/64/55
f 43/43/35 65/65/56 51/51/43 44/44/36
f 47/47/39 66/66/57 57/57/49 48/48/40
f 32/32/24 31/31/23 66/66/57 47/47/39
f 44/44/36 29/29/21 60/60/52 45/45/37
f 59/59/1 45/45/1 60/60/1
f 28/28/20 27/27/19 62/62/51 23/23/15
f 59/59/1 22/22/1 25/25/1
f 36/36/28 21/21/13 58/58/50 37/37/29
f 49/49/1 59/59/1 46/46/1
f 40/40/32 39/39/31 63/63/54 35/35/27
f 24/24/16 33/33/25 61/61/53 25/25/17
f 64/64/1 59/59/1 49/49/1
f 46/46/1 59/59/1 61/61/1 50/50/1
f 54/54/1 34/34/1 59/59/1 64/64/1
f 37/37/1 58/58/1 59/59/1
f 20/20/12 19/19/11 65/65/56 43/43/35
f 48/48/40 41/41/33 64/64/55 49/49/41
f 58/58/1 56/56/1 42/42/1 59/59/1
f 34/34/1 37/37/1 59/59/1
