# Blender v2.83.4 OBJ File: 'decos.blend'
# www.blender.org
o Cube_Cube.004
v 2.100000 -0.329045 0.429265
v 2.100000 2.729045 0.429266
v 1.670735 2.729045 0.000001
v 1.670735 -0.329045 -0.000000
v 2.038885 2.954825 -0.429264
v 2.100000 2.729045 -0.429264
v -2.038885 2.954825 -0.429264
v -2.100000 2.729045 -0.429264
v -2.100000 2.729046 -1.905592
v -2.038885 2.954826 -1.905592
v 2.589356 -0.329023 0.239284
v 2.590659 2.767761 0.234610
v 2.100000 -0.329045 -0.429265
v -2.529265 -0.329045 -0.000000
v -2.529265 2.729045 0.000001
v -2.529265 2.729047 -3.811184
v -2.529265 -0.329044 -3.811185
v -2.100000 -0.329045 0.429265
v -1.670735 -0.329045 -0.000000
v -1.670735 2.729045 0.000001
v -2.100000 2.729045 0.429266
v -2.589356 -0.329023 0.239284
v -2.590659 2.767761 0.234610
v -2.408679 3.172820 -3.811184
v -2.408679 3.172819 0.000001
v 1.670735 2.729047 -3.811184
v 0.640833 3.554460 -3.811184
v 0.825318 3.846747 -4.240449
v 2.038885 2.954826 -4.240449
v -2.455014 3.225063 0.230148
v -1.005556 4.306066 0.217758
v -1.010215 4.209440 0.000001
v -0.825318 3.846746 -0.429264
v -0.640833 3.554458 0.000001
v 2.038885 2.954825 0.429266
v 0.825318 3.846746 0.429266
v 0.640833 3.554458 0.000001
v 2.455014 3.225063 0.230148
v 1.005556 4.306066 0.217758
v 2.100000 2.729046 -1.905592
v 2.100000 -0.329044 -1.905593
v -2.100000 -0.329045 -0.429265
v -0.825318 3.846746 0.429266
v -2.038885 2.954825 0.429266
v 1.010215 4.209440 0.000001
v 0.000000 4.209440 0.000001
v 0.000000 4.325072 0.211370
v 2.100000 2.729046 -3.381919
v 2.100000 -0.329044 -3.381920
v -2.100000 -0.329044 -3.381920
v -2.100000 2.729046 -3.381919
v -2.100000 -0.329044 -1.905593
v 0.000000 3.846746 0.429266
v 0.825318 3.846746 -0.429264
v 0.000000 3.554458 0.000001
v 0.000000 3.846746 -0.429264
v 1.670735 -0.329044 -3.811185
v 2.100000 2.729047 -4.240449
v 2.589356 -0.329022 -4.050470
v 2.100000 -0.329044 -4.240450
v 2.590659 2.767762 -4.045793
v 0.000000 4.209441 -3.811184
v -1.010215 4.209441 -3.811184
v 2.455014 3.225064 -4.041331
v -1.670735 -0.329044 -3.811185
v -1.670735 2.729047 -3.811184
v -2.100000 2.729047 -4.240449
v -2.038885 2.954826 -4.240449
v 2.038885 2.954826 -3.381919
v 2.038885 2.954826 -1.905592
v -2.589356 -0.329022 -4.050470
v -2.590659 2.767762 -4.045793
v -2.100000 -0.329044 -4.240450
v 1.005556 4.306067 -4.028941
v 1.010215 4.209441 -3.811184
v 2.408679 3.172820 -3.811184
v 2.529265 2.729047 -3.811184
v 2.408679 3.172819 0.000001
v 2.529265 2.729045 0.000001
v -0.825318 3.846747 -4.240449
v -0.640833 3.554460 -3.811184
v 0.825318 3.846747 -3.381919
v 0.000000 3.846747 -3.381919
v 0.825318 3.846746 -1.905591
v 0.000000 3.846746 -1.905591
v -2.455014 3.225064 -4.041331
v -1.424306 0.300001 -3.600648
v -2.373844 0.300001 -3.600648
v -2.373844 0.300000 -0.228591
v -1.424306 0.300000 -0.228591
v -0.825318 3.846747 -3.381919
v -2.038885 2.954826 -3.381919
v -1.005556 4.306067 -4.028941
v 0.000000 3.846747 -4.240449
v 0.000000 4.325073 -4.022553
v 0.000000 3.554460 -3.811184
v -0.825318 3.846746 -1.905592
v -1.424306 -0.300000 -0.228591
v -2.373844 -0.300000 -0.228591
v 1.424306 -0.299999 -3.600648
v 1.424306 0.300001 -3.600648
v 2.373844 0.300001 -3.600648
v 2.373844 -0.299999 -3.600648
v -2.373844 -0.299999 -3.600648
v -1.424306 -0.299999 -3.600648
v -0.474769 0.300001 -3.600648
v -0.474769 -0.299999 -3.600648
v 0.474769 0.300001 -3.600648
v 0.474769 -0.299999 -3.600648
v 2.373844 -0.300000 -0.228591
v 2.373844 0.300000 -0.228591
v 1.424306 0.300000 -0.228591
v 1.424306 -0.300000 -0.228591
v 0.474769 0.300000 -0.228591
v 0.474769 -0.300000 -0.228591
v -0.474769 0.300000 -0.228591
v -0.474769 -0.300000 -0.228591
v -1.137488 3.203043 -3.974416
v -1.895813 3.203043 -3.974416
v -1.895813 -0.169013 -3.974417
v -1.137488 -0.169013 -3.974417
v -0.379163 3.203043 -4.012788
v -0.379163 -0.169013 -4.012789
v -1.137488 -0.169013 -4.012789
v -1.137488 3.203043 -4.012788
v 0.379163 3.203043 -4.012788
v 0.379163 -0.169013 -4.012789
v 1.137488 3.203043 -4.012788
v 1.137488 -0.169013 -4.012789
v 1.895813 3.203043 -4.012788
v 1.895813 -0.169013 -4.012789
v -1.895813 -0.169013 -4.012789
v -1.895813 3.203043 -4.012788
v 1.895813 3.203043 -3.974416
v 1.137488 3.203043 -3.974416
v 1.137488 -0.169013 -3.974417
v 1.895813 -0.169013 -3.974417
v 0.379163 3.203043 -3.974416
v 0.379163 -0.169013 -3.974417
v -0.379163 3.203043 -3.974416
v -0.379163 -0.169013 -3.974417
v 2.529265 -0.329045 -0.000000
v 2.529265 -0.329044 -3.811185
vt 0.195312 0.867188
vt 0.195312 0.867188
vt 0.195312 0.867188
vt 0.195312 0.867188
vt 0.289062 0.960938
vt 0.289062 0.960938
vt 0.289062 0.960938
vt 0.367188 0.960938
vt 0.367188 0.960938
vt 0.367188 0.960938
vt 0.367188 0.960938
vt 0.195312 0.867188
vt 0.195312 0.867188
vt 0.195312 0.867188
vt 0.195312 0.867188
vt 0.367188 0.960938
vt 0.367188 0.960938
vt 0.367188 0.960938
vt 0.367188 0.960938
vt 0.195312 0.867188
vt 0.195312 0.867188
vt 0.195312 0.867188
vt 0.195312 0.867188
vt 0.289062 0.960938
vt 0.289062 0.960938
vt 0.289062 0.960938
vt 0.195312 0.867188
vt 0.195312 0.867188
vt 0.367188 0.960938
vt 0.367188 0.960938
vt 0.289062 0.960938
vt 0.289062 0.960938
vt 0.289062 0.960938
vt 0.289062 0.960938
vt 0.289062 0.960938
vt 0.289062 0.960938
vt 0.289062 0.960938
vt 0.289062 0.960938
vt 0.289062 0.960938
vt 0.289062 0.960938
vt 0.289062 0.960938
vt 0.289062 0.960938
vt 0.289062 0.960938
vt 0.289062 0.960938
vt 0.289062 0.960938
vt 0.289062 0.960938
vt 0.289062 0.960938
vt 0.367188 0.960938
vt 0.367188 0.960938
vt 0.367188 0.960938
vt 0.367188 0.960938
vt 0.195312 0.867188
vt 0.195312 0.867188
vt 0.289062 0.960938
vt 0.289062 0.960938
vt 0.289062 0.960938
vt 0.289062 0.960938
vt 0.195312 0.867187
vt 0.195312 0.867188
vt 0.195312 0.867188
vt 0.195312 0.867188
vt 0.367188 0.960938
vt 0.367188 0.960938
vt 0.367188 0.960938
vt 0.367188 0.960938
vt 0.367188 0.960938
vt 0.195312 0.867188
vt 0.195312 0.867188
vt 0.195312 0.867188
vt 0.195312 0.867188
vt 0.195312 0.867188
vt 0.195312 0.867188
vt 0.195312 0.867188
vt 0.195312 0.867188
vt 0.195312 0.867188
vt 0.195312 0.867188
vt 0.195312 0.867188
vt 0.195312 0.867188
vt 0.195312 0.867188
vt 0.195312 0.867188
vt 0.289062 0.960938
vt 0.195312 0.867188
vt 0.195312 0.867188
vt 0.195312 0.867188
vt 0.195312 0.867188
vt 0.367188 0.960938
vt 0.367188 0.960938
vt 0.367188 0.960938
vt 0.367188 0.960938
vt 0.289062 0.960938
vt 0.289062 0.960938
vt 0.195312 0.867188
vt 0.195312 0.867188
vt 0.195312 0.867188
vt 0.195312 0.867188
vt 0.289062 0.960938
vt 0.289062 0.960938
vt 0.289062 0.960938
vt 0.367188 0.960938
vt 0.367188 0.960938
vt 0.195312 0.867188
vt 0.195312 0.867188
vt 0.195312 0.867188
vt 0.195312 0.867188
vt 0.289062 0.960938
vt 0.289062 0.960938
vt 0.289062 0.960938
vt 0.367188 0.960938
vt 0.367188 0.960938
vt 0.367188 0.960938
vt 0.367188 0.960938
vt 0.289062 0.960938
vt 0.289062 0.960938
vt 0.289062 0.960938
vt 0.289062 0.960938
vt 0.367188 0.960938
vt 0.367188 0.960938
vt 0.367188 0.960938
vt 0.367188 0.960938
vt 0.289062 0.960938
vt 0.289062 0.960938
vt 0.289062 0.960938
vt 0.304688 0.867188
vt 0.304688 0.867188
vt 0.304688 0.867188
vt 0.304688 0.867188
vt 0.289062 0.960938
vt 0.289062 0.960938
vt 0.289062 0.960938
vt 0.289062 0.960938
vt 0.367188 0.960938
vt 0.195312 0.867188
vt 0.195312 0.867188
vt 0.195312 0.867188
vt 0.195312 0.867188
vt 0.195312 0.867188
vt 0.195312 0.867188
vt 0.195312 0.867188
vt 0.367188 0.960938
vt 0.367188 0.960938
vt 0.195312 0.867188
vt 0.195312 0.867188
vt 0.195312 0.867188
vt 0.195312 0.867188
vt 0.195312 0.867188
vt 0.195312 0.867188
vt 0.195312 0.867188
vt 0.289062 0.960938
vt 0.367188 0.960938
vt 0.367188 0.960938
vt 0.304688 0.867188
vt 0.304688 0.867188
vt 0.367188 0.960938
vt 0.304688 0.867188
vt 0.304688 0.867188
vt 0.304688 0.867188
vt 0.304688 0.867188
vt 0.367188 0.960938
vt 0.367188 0.960938
vt 0.367188 0.960938
vt 0.367188 0.960938
vt 0.304688 0.867188
vt 0.304688 0.867188
vt 0.289062 0.898438
vt 0.289062 0.898438
vt 0.289062 0.898438
vt 0.289062 0.898438
vt 0.304688 0.867188
vt 0.304688 0.867188
vt 0.304688 0.867188
vt 0.304688 0.867188
vt 0.289062 0.898438
vt 0.289062 0.898438
vt 0.289062 0.898438
vt 0.289062 0.898438
vt 0.304688 0.867188
vt 0.304688 0.867188
vt 0.304688 0.867188
vt 0.304688 0.867188
vt 0.289062 0.898438
vt 0.289062 0.898438
vt 0.289062 0.898438
vt 0.289062 0.898438
vt 0.304688 0.867188
vt 0.304688 0.867188
vt 0.304688 0.867188
vt 0.304688 0.867188
vt 0.289062 0.898438
vt 0.289062 0.898438
vt 0.289062 0.898438
vt 0.289062 0.898438
vt 0.304688 0.867188
vt 0.304688 0.867188
vt 0.304688 0.867188
vt 0.304688 0.867188
vt 0.289062 0.898438
vt 0.289062 0.898438
vt 0.289062 0.898438
vt 0.289062 0.898438
vt 0.304688 0.867188
vt 0.304688 0.867188
vt 0.304688 0.867188
vt 0.304688 0.867188
vt 0.289062 0.898438
vt 0.289062 0.898438
vt 0.289062 0.898438
vt 0.289062 0.898438
vt 0.304688 0.867188
vt 0.304688 0.867188
vt 0.304688 0.867188
vt 0.304688 0.867188
vt 0.304688 0.867188
vt 0.304688 0.867188
vt 0.304688 0.867188
vt 0.304688 0.867188
vt 0.304688 0.867188
vt 0.304688 0.867188
vt 0.304688 0.867188
vt 0.304688 0.867188
vt 0.289062 0.898438
vt 0.289062 0.898438
vt 0.289062 0.898438
vt 0.289062 0.898438
vt 0.304688 0.867188
vt 0.304688 0.867188
vt 0.304688 0.867188
vt 0.304688 0.867188
vt 0.289062 0.898438
vt 0.289062 0.898438
vt 0.289062 0.898438
vt 0.289062 0.898438
vt 0.195312 0.867188
vt 0.289062 0.960938
vt 0.289062 0.960938
vt 0.289062 0.960938
vt 0.289062 0.960938
vt 0.195312 0.867188
vt 0.195312 0.867188
vt 0.195312 0.867188
vt 0.195312 0.867188
vt 0.195312 0.867188
vt 0.289062 0.960938
vt 0.289062 0.960938
vt 0.289062 0.960938
vt 0.195312 0.867188
vt 0.195312 0.867188
vt 0.289062 0.960938
vt 0.195312 0.867188
vt 0.195312 0.867188
vt 0.367188 0.960938
vt 0.367188 0.960938
vn -0.7071 -0.0000 0.7071
vn -0.6945 -0.1880 -0.6945
vn 0.9653 -0.2613 -0.0000
vn 0.3653 0.0006 0.9309
vn -0.7071 0.0000 -0.7071
vn -1.0000 0.0000 0.0000
vn 0.7071 -0.0000 0.7071
vn 0.6945 -0.1880 -0.6945
vn -0.3653 0.0006 0.9309
vn -0.9650 0.2622 0.0000
vn -0.4585 -0.5989 -0.6565
vn -0.5688 0.7632 -0.3066
vn 0.4585 -0.5989 -0.6565
vn -0.4585 -0.5989 0.6565
vn 0.2354 0.3235 0.9165
vn 0.3638 0.1108 0.9248
vn -0.6945 -0.1880 0.6945
vn 0.7071 0.0000 -0.7071
vn 0.4585 -0.5989 0.6565
vn -0.3638 0.1108 0.9248
vn 0.6945 -0.1880 0.6945
vn 0.0099 0.8963 -0.4433
vn 1.0000 -0.0000 0.0000
vn -0.0011 0.4162 0.9093
vn 0.0000 0.4162 0.9093
vn 0.0000 -0.8266 -0.5628
vn 0.0000 -0.8266 0.5628
vn 0.3653 0.0006 -0.9309
vn 0.0000 1.0000 0.0000
vn 0.3638 0.1108 -0.9248
vn -0.9653 -0.2613 -0.0000
vn -0.3653 0.0006 -0.9309
vn 0.5688 0.7632 0.3066
vn 0.9650 0.2622 0.0000
vn 0.0000 -1.0000 -0.0000
vn -0.3638 0.1108 -0.9248
vn -0.2354 0.3235 -0.9165
vn 0.0011 0.4162 -0.9093
vn 0.0000 0.4162 -0.9093
vn -0.0099 0.8963 0.4433
vn -0.5922 -0.8058 -0.0000
vn 0.5922 -0.8058 -0.0000
vn 0.0000 -0.0000 1.0000
vn 0.0000 0.0000 -1.0000
vn -0.5955 0.8034 0.0000
vn 0.5955 0.8034 0.0000
vn -0.0099 0.8963 -0.4433
vn 0.0011 0.4162 0.9093
vn -0.9275 0.2624 -0.2663
vn 0.9275 0.2624 -0.2663
vn 0.5688 0.7632 -0.3066
vn -0.2354 0.3235 0.9165
vn -0.9687 -0.0004 -0.2483
vn 0.9687 -0.0004 -0.2483
vn -0.0011 0.4162 -0.9093
vn 0.0099 0.8963 0.4433
vn -0.5688 0.7632 0.3066
vn -0.9275 0.2624 0.2663
vn 0.2354 0.3235 -0.9165
vn -0.9687 -0.0004 0.2483
vn 0.9275 0.2624 0.2663
vn 0.9687 -0.0004 0.2483
s 1
f 1/1/1 2/2/1 3/3/1 4/4/1
f 3/5/2 5/6/2 6/7/2
f 7/8/3 8/9/3 9/10/3 10/11/3
f 11/12/4 12/13/4 2/2/4 1/1/4
f 13/14/5 4/4/5 3/3/5 6/15/5
f 14/16/6 15/17/6 16/18/6 17/19/6
f 18/20/7 19/21/7 20/22/7 21/23/7
f 20/24/8 8/25/8 7/26/8
f 22/27/9 18/20/9 21/23/9 23/28/9
f 24/29/10 16/18/10 15/17/10 25/30/10
f 26/31/11 27/32/11 28/33/11 29/34/11
f 30/35/12 31/36/12 32/37/12 25/38/12
f 7/26/13 33/39/13 34/40/13 20/24/13
f 35/41/14 36/42/14 37/43/14 3/5/14
f 38/44/15 39/45/15 36/42/15 35/41/15
f 12/46/16 38/44/16 35/41/16 2/47/16
f 3/5/17 2/47/17 35/41/17
f 13/48/6 6/49/6 40/50/6 41/51/6
f 42/52/18 8/53/18 20/22/18 19/21/18
f 20/24/19 34/40/19 43/54/19 44/55/19
f 23/56/20 21/57/20 44/55/20 30/35/20
f 20/24/21 44/55/21 21/57/21
f 39/58/22 45/59/22 46/60/22 47/61/22
f 48/62/6 49/63/6 41/51/6 40/50/6
f 50/64/23 51/65/23 9/10/23 52/66/23
f 31/67/24 43/68/24 53/69/25 47/61/25
f 54/70/26 37/71/26 55/72/26 56/73/26
f 34/74/26 33/75/26 56/73/26 55/72/26
f 37/71/27 36/76/27 53/69/27 55/72/27
f 43/68/27 34/74/27 55/72/27 53/69/27
f 49/77/1 48/78/1 26/79/1 57/80/1
f 26/31/2 29/34/2 58/81/2
f 59/82/28 60/83/28 58/84/28 61/85/28
f 62/86/29 63/87/29 32/88/29 46/89/29
f 60/83/5 57/80/5 26/79/5 58/84/5
f 61/90/30 58/81/30 29/34/30 64/91/30
f 50/92/7 65/93/7 66/94/7 51/95/7
f 66/96/8 67/97/8 68/98/8
f 69/99/31 48/62/31 40/50/31 70/100/31
f 71/101/32 72/102/32 67/103/32 73/104/32
f 64/91/33 74/105/33 75/106/33 76/107/33
f 77/108/34 76/109/34 78/110/34 79/111/34
f 68/98/13 80/112/13 81/113/13 66/96/13
f 69/114/14 82/115/14 27/32/14 26/31/14
f 83/116/35 82/117/35 84/118/35 85/119/35
f 26/31/17 48/120/17 69/114/17
f 72/121/36 86/122/36 68/98/36 67/97/36
f 87/123/29 88/124/29 89/125/29 90/126/29
f 73/104/18 67/103/18 66/94/18 65/93/18
f 66/96/19 81/113/19 91/127/19 92/128/19
f 86/122/37 93/129/37 80/112/37 68/98/37
f 66/96/21 92/128/21 51/130/21
f 51/65/3 92/131/3 10/11/3 9/10/3
f 74/132/38 28/133/38 94/134/39 95/135/39
f 93/136/40 63/137/40 62/138/40 95/135/40
f 5/139/41 54/140/41 84/118/41 70/100/41
f 28/133/26 27/141/26 96/142/26 94/134/26
f 81/143/26 80/144/26 94/134/26 96/142/26
f 27/141/27 82/145/27 83/146/27 96/142/27
f 91/147/27 81/143/27 96/142/27 83/146/27
f 3/5/11 37/43/11 54/148/11 5/6/11
f 33/149/42 7/8/42 10/11/42 97/150/42
f 98/151/43 90/126/43 89/125/43 99/152/43
f 8/9/23 42/153/23 52/66/23 9/10/23
f 100/154/44 101/155/44 102/156/44 103/157/44
f 25/30/45 32/88/45 63/87/45 24/29/45
f 91/158/35 83/116/35 85/119/35 97/150/35
f 45/159/46 78/110/46 76/109/46 75/160/46
f 56/161/35 33/149/35 97/150/35 85/119/35
f 6/49/31 5/139/31 70/100/31 40/50/31
f 75/160/29 62/86/29 46/89/29 45/159/29
f 82/117/41 69/99/41 70/100/41 84/118/41
f 54/140/35 56/161/35 85/119/35 84/118/35
f 92/131/42 91/158/42 97/150/42 10/11/42
f 104/162/44 88/124/44 87/123/44 105/163/44
f 105/164/44 87/165/44 106/166/44 107/167/44
f 107/168/44 106/169/44 108/170/44 109/171/44
f 109/172/44 108/173/44 101/174/44 100/175/44
f 110/176/43 111/177/43 112/178/43 113/179/43
f 113/180/43 112/181/43 114/182/43 115/183/43
f 115/184/43 114/185/43 116/186/43 117/187/43
f 117/188/43 116/189/43 90/190/43 98/191/43
f 102/156/29 101/155/29 112/178/29 111/177/29
f 101/174/29 108/173/29 114/182/29 112/181/29
f 108/170/29 106/169/29 116/186/29 114/185/29
f 106/166/29 87/165/29 90/190/29 116/189/29
f 118/192/43 119/193/43 120/194/43 121/195/43
f 122/196/44 123/197/44 124/198/44 125/199/44
f 126/200/44 127/201/44 123/202/44 122/203/44
f 128/204/44 129/205/44 127/206/44 126/207/44
f 130/208/44 131/209/44 129/210/44 128/211/44
f 125/212/44 124/213/44 132/214/44 133/215/44
f 134/216/43 135/217/43 136/218/43 137/219/43
f 135/220/43 138/221/43 139/222/43 136/223/43
f 138/224/43 140/225/43 141/226/43 139/227/43
f 140/228/43 118/229/43 121/230/43 141/231/43
f 32/232/47 31/67/47 47/61/47 46/60/47
f 36/76/48 39/58/48 47/61/25 53/69/25
f 15/233/49 23/56/49 30/35/49 25/38/49
f 79/234/50 78/235/50 38/44/50 12/46/50
f 78/235/51 45/236/51 39/45/51 38/44/51
f 44/55/52 43/54/52 31/36/52 30/35/52
f 14/237/53 22/27/53 23/28/53 15/238/53
f 142/239/54 79/240/54 12/13/54 11/12/54
f 80/144/55 93/136/55 95/135/39 94/134/39
f 75/241/56 74/132/56 95/135/56 62/138/56
f 24/242/57 63/243/57 93/129/57 86/122/57
f 16/244/58 24/242/58 86/122/58 72/121/58
f 29/34/59 28/33/59 74/105/59 64/91/59
f 17/245/60 16/246/60 72/102/60 71/101/60
f 77/247/61 61/90/61 64/91/61 76/107/61
f 143/248/62 59/82/62 61/85/62 77/249/62
f 143/250/23 77/108/23 79/111/23 142/251/23
