# Blender v2.90.0 Alpha OBJ File: 'Decos.blend'
# www.blender.org
o BoxTruck_Cube.007
v -0.785405 2.010430 1.165569
v -0.785405 0.388597 1.165569
v -0.785406 1.363073 2.650117
v 0.000000 1.280725 3.239963
v 0.000000 1.363073 2.650116
v -0.785405 1.280725 3.239963
v -0.785405 0.388596 3.290730
v 0.785405 0.388596 3.290730
v -0.785406 2.010430 2.073225
v -0.785405 1.118001 3.417730
v 0.000000 1.118001 3.417730
v -0.947765 0.388597 1.143074
v -0.947765 2.162967 1.143074
v -0.947765 0.388598 -3.417734
v -0.947765 2.969236 -3.417733
v -0.947765 2.969236 1.992867
v -0.947765 2.162967 1.992867
v 0.785405 2.010430 1.165569
v 0.785405 0.388597 1.165569
v 0.785406 1.363073 2.650117
v 0.785405 1.280725 3.239963
v 0.785406 2.010430 2.073225
v 0.785405 1.118001 3.417730
v -0.674163 1.408918 2.609262
v -0.674163 1.964585 2.114080
v 0.947765 0.388597 1.143074
v -0.785405 1.363073 1.165569
v -0.785405 1.953925 1.278364
v -0.785406 1.419578 2.503753
v -0.785406 1.953925 2.027570
v 0.947765 2.162967 1.143074
v 0.947765 0.388598 -3.417734
v -0.785405 1.419578 1.278363
v -0.785405 0.388597 2.650117
v 0.947765 2.969236 -3.417733
v 0.947765 2.969236 1.992867
v 0.947765 2.162967 1.992867
v 0.674163 1.408918 2.609262
v 0.674163 1.964585 2.114080
v 0.785405 1.363073 1.165569
v 0.785405 1.953925 1.278364
v 0.785406 1.419578 2.503753
v 0.785406 1.953925 2.027570
v 0.785405 1.419578 1.278363
v 0.785405 0.388597 2.650117
v 0.878204 0.483300 -3.417734
v 0.878204 2.874534 -3.417733
v -0.878204 0.483300 -3.417734
v -0.878204 2.874534 -3.417733
vt 0.132812 0.867188
vt 0.132812 0.867188
vt 0.132812 0.867188
vt 0.132812 0.867188
vt 0.132812 0.867188
vt 0.132812 0.867188
vt 0.132812 0.867188
vt 0.132812 0.867188
vt 0.101562 0.835938
vt 0.101562 0.835938
vt 0.101562 0.835938
vt 0.101562 0.835938
vt 0.132812 0.867188
vt 0.132812 0.867188
vt 0.101562 0.835938
vt 0.101562 0.835938
vt 0.101562 0.835938
vt 0.101562 0.835938
vt 0.101562 0.835938
vt 0.101562 0.835938
vt 0.101562 0.835938
vt 0.101562 0.835938
vt 0.101562 0.835938
vt 0.101562 0.835938
vt 0.101562 0.835938
vt 0.101562 0.835938
vt 0.101562 0.835938
vt 0.101562 0.835938
vt 0.101562 0.773438
vt 0.101562 0.773438
vt 0.101562 0.773438
vt 0.132812 0.867188
vt 0.132812 0.867188
vt 0.132812 0.867188
vt 0.101562 0.835938
vt 0.101562 0.835938
vt 0.101562 0.835938
vt 0.101562 0.835938
vt 0.101562 0.835938
vt 0.101562 0.835938
vt 0.101562 0.835938
vt 0.101562 0.835938
vt 0.101562 0.835938
vt 0.101562 0.835938
vt 0.101562 0.835938
vt 0.132812 0.867188
vt 0.101562 0.835938
vt 0.101562 0.835938
vt 0.101562 0.835938
vt 0.101562 0.835938
vt 0.101562 0.835938
vt 0.132812 0.867188
vt 0.132812 0.867188
vt 0.132812 0.867188
vt 0.132812 0.867188
vt 0.101562 0.773438
vt 0.101562 0.773438
vt 0.101562 0.773438
vt 0.101562 0.773438
vt 0.132812 0.867188
vt 0.132812 0.867188
vt 0.132812 0.867188
vt 0.132812 0.867188
vt 0.101562 0.773438
vt 0.101562 0.773438
vt 0.101562 0.773438
vt 0.101562 0.773438
vt 0.101562 0.835938
vt 0.101562 0.773438
vt 0.101562 0.835938
vt 0.226562 0.789062
vt 0.226562 0.789062
vt 0.226562 0.789062
vt 0.226562 0.789062
vt 0.101562 0.835938
vn -1.0000 -0.0000 -0.0000
vn 1.0000 0.0000 -0.0000
vn 0.0000 0.0000 -1.0000
vn 0.0000 0.9048 0.4259
vn 0.0000 0.9904 0.1383
vn 0.0000 1.0000 0.0000
vn 0.0000 0.6653 0.7466
vn 0.0000 -0.1715 0.9852
vn 0.0000 0.7376 0.6752
vn 0.0000 -0.0000 1.0000
vn 0.0000 -1.0000 0.0000
s off
f 1/1/1 27/2/1 33/3/1 28/4/1
f 18/5/2 41/6/2 44/7/2 40/8/2
f 32/9/3 14/10/3 48/11/3 46/12/3
s 1
f 27/2/1 2/13/1 3/14/1
f 4/15/4 5/16/5 3/17/5 6/18/4
f 1/19/6 9/20/6 22/21/6 18/22/6
f 9/20/7 3/17/7 24/23/7 25/24/7
f 10/25/8 7/26/8 8/27/8 11/28/8
f 10/25/1 6/18/1 3/17/1
f 10/25/1 3/17/1 7/26/1
f 10/25/9 4/15/4 6/18/4
f 11/28/9 4/15/4 10/25/9
f 42/29/2 41/30/2 43/31/2
f 40/8/2 44/7/2 42/32/2 20/33/2
f 3/14/1 2/13/1 34/34/1
f 12/35/10 26/36/10 31/37/10 13/38/10
f 13/38/1 14/10/1 12/35/1
f 36/39/6 35/40/6 15/41/6 16/42/6
f 13/38/1 17/43/1 16/42/1
f 13/38/1 16/42/1 15/41/1
f 13/38/1 15/41/1 14/10/1
f 14/10/3 15/41/3 49/44/3 48/11/3
f 37/45/10 36/39/10 16/42/10 17/43/10
f 31/37/11 37/45/11 17/43/11 13/38/11
f 31/37/2 32/9/2 35/40/2
f 40/8/2 20/33/2 19/46/2
f 22/21/7 39/47/7 38/48/7 20/49/7
f 31/37/2 36/39/2 37/45/2
f 23/50/9 21/51/4 4/15/4
f 23/50/8 11/28/8 8/27/8
f 23/50/2 20/49/2 21/51/2
f 3/14/1 9/52/1 30/53/1 29/54/1
f 23/50/2 8/27/2 20/49/2
f 11/28/9 23/50/9 4/15/4
f 20/49/7 38/48/7 5/16/7
f 4/15/4 21/51/4 20/49/5 5/16/5
f 20/33/2 45/55/2 19/46/2
f 38/56/7 39/57/7 25/58/7 24/59/7
f 31/37/2 26/36/2 32/9/2
f 31/37/2 35/40/2 36/39/2
f 3/17/7 5/16/7 38/48/7 24/23/7
f 22/60/7 9/52/7 25/61/7 39/62/7
f 20/33/2 42/32/2 43/63/2 22/60/2
f 29/64/1 30/65/1 28/66/1
f 28/66/1 33/67/1 29/64/1
f 9/52/1 1/1/1 28/4/1 30/53/1
f 27/2/1 3/14/1 29/54/1 33/3/1
f 7/26/1 3/17/1 34/68/1
f 41/30/2 42/29/2 44/69/2
f 8/27/2 45/70/2 20/49/2
f 22/60/2 43/63/2 41/6/2 18/5/2
f 48/71/3 49/72/3 47/73/3 46/74/3
f 35/40/3 32/9/3 46/12/3 47/75/3
f 15/41/3 35/40/3 47/75/3 49/44/3
