# Blender v2.91.0 Beta OBJ File: 'HOUSE.blend'
# www.blender.org
o richbrick_01.002_tree.002_tree.013_tree.002_tree.006
v -16.323490 1.450057 17.367586
v 16.323490 1.450057 17.367586
v 16.323490 1.450069 -16.227716
v -16.323490 1.450069 -16.227716
v -18.274570 0.760291 -17.479153
v 18.274570 0.760291 -17.479153
v 18.274570 0.760278 18.619030
v -18.274570 0.760278 18.619030
v 0.000000 1.450069 -16.227716
v 0.000000 0.760291 -17.479153
v 0.000000 0.760278 18.619030
v 0.000000 1.450057 17.367586
v 0.000000 1.070757 -16.915884
v 0.000000 1.172737 17.870720
vt 0.984863 0.224121
vt 0.959473 0.044434
vt 0.984863 0.025879
vt 0.880572 0.057985
vt 0.974251 0.222142
vt 0.880572 0.222142
vt 0.974251 0.222142
vt 0.878993 0.057985
vt 0.974251 0.057985
vt 0.884277 0.030762
vt 0.884277 0.044434
vt 0.808105 0.044434
vt 0.782715 0.224121
vt 0.782715 0.025879
vt 0.884277 0.025879
vt 0.808105 0.200684
vt 0.884277 0.221191
vt 0.884277 0.224121
vt 0.974251 0.222142
vt 0.974251 0.057985
vt 0.974251 0.222142
vt 0.959473 0.200684
vt 0.974251 0.057985
vt 0.878993 0.222142
vt 0.884277 0.200684
vt 0.974251 0.057985
vn 0.3333 0.9428 0.0000
vn 0.0000 1.0000 0.0000
vn 0.0000 -1.0000 -0.0000
vn 0.0000 0.8758 0.4827
vn -0.3333 0.9428 0.0000
vn 0.0000 0.8758 -0.4827
s 1
f 6/1/1 2/2/1 7/3/1
f 12/4/2 3/5/2 9/6/2
f 5/7/3 11/8/3 8/9/3
f 14/10/4 2/2/4 12/11/4
f 1/12/5 5/13/5 8/14/5
f 11/15/4 2/2/4 14/10/4
f 14/10/4 12/11/4 1/12/4
f 4/16/6 13/17/6 5/13/6
f 11/15/4 1/12/4 8/14/4
f 5/13/6 13/17/6 10/18/6
f 6/1/6 10/18/6 13/17/6
f 11/8/3 6/19/3 7/20/3
f 4/21/2 12/4/2 9/6/2
f 13/17/6 3/22/6 6/1/6
f 6/1/1 3/22/1 2/2/1
f 12/4/2 2/23/2 3/5/2
f 5/7/3 10/24/3 11/8/3
f 1/12/5 4/16/5 5/13/5
f 11/15/4 7/3/4 2/2/4
f 4/16/6 9/25/6 13/17/6
f 11/15/4 14/10/4 1/12/4
f 11/8/3 10/24/3 6/19/3
f 4/21/2 1/26/2 12/4/2
f 13/17/6 9/25/6 3/22/6
