# Blender v2.90.0 Alpha OBJ File: 'Decos.blend'
# www.blender.org
o Cube.002_Cube.005
v -2.288565 -4.029068 0.588066
v -1.409708 -4.029068 0.588066
v -1.409708 2.263512 0.588067
v -2.288565 4.446126 0.588070
v 2.288565 -4.029068 0.588066
v 1.409708 -4.029068 0.588066
v 1.409708 -4.029068 -0.588068
v 2.288565 -4.029068 -0.588068
v -2.288565 -4.029068 -0.588068
v -1.409708 -4.029068 -0.588068
v -1.409708 2.263512 -0.588067
v -2.288565 4.446126 -0.588064
v 1.409708 2.263512 0.588067
v 2.288565 4.446126 0.588070
v 1.409708 2.263512 -0.588067
v 2.288565 4.446126 -0.588064
vt 0.164062 0.882812
vt 0.164062 0.882812
vt 0.164062 0.882812
vt 0.164062 0.882812
vt 0.164062 0.882812
vt 0.164062 0.882812
vt 0.164062 0.882812
vt 0.164062 0.882812
vt 0.164062 0.882812
vt 0.164062 0.882812
vt 0.164062 0.882812
vt 0.164062 0.882812
vt 0.164062 0.882812
vt 0.164062 0.882812
vt 0.164062 0.882812
vt 0.164062 0.882812
vn 0.0000 -0.0000 1.0000
vn 0.0000 -1.0000 0.0000
vn -0.0000 0.0000 -1.0000
vn -1.0000 0.0000 0.0000
vn 1.0000 -0.0000 0.0000
vn 0.0000 1.0000 0.0000
s 1
f 1/1/1 2/2/1 3/3/1 4/4/1
f 5/5/2 6/6/2 7/7/2 8/8/2
f 2/2/2 1/1/2 9/9/2 10/10/2
f 11/11/3 10/10/3 9/9/3 12/12/3
f 13/13/1 6/6/1 5/5/1 14/14/1
f 8/8/3 7/7/3 15/15/3 16/16/3
f 9/9/4 1/1/4 4/4/4 12/12/4
f 8/8/5 16/16/5 14/14/5 5/5/5
f 15/15/3 11/11/3 12/12/3 16/16/3
f 3/3/1 13/13/1 14/14/1 4/4/1
f 14/14/6 16/16/6 12/12/6 4/4/6
f 7/7/4 6/6/4 13/13/4 15/15/4
f 3/3/5 2/2/5 10/10/5 11/11/5
f 15/15/2 13/13/2 3/3/2 11/11/2
