# Blender v2.91.0 Beta OBJ File: 'HOUSE02.blend'
# www.blender.org
o alumsiding01.019_tree.002_tree.005_alumsiding01.019_tree.004
v 0.003059 10.819254 -11.539780
v 0.003059 26.855267 -11.539772
v 0.003059 10.819250 11.466789
v -11.441742 10.819252 0.021988
v -11.441742 4.325489 0.021988
v -11.441742 4.325490 -11.414658
v 11.439702 10.819254 -11.539780
v 11.439702 4.325486 11.466789
v 0.003059 4.325486 11.466789
v -11.441742 10.819254 -11.539780
v 0.003059 4.325490 -11.539780
v 11.439702 26.855261 11.466789
v 11.439702 10.819253 0.030144
v 11.439702 26.855265 0.030151
v 11.439702 4.325489 0.030144
v 11.439702 4.325490 -11.414658
v 11.439702 10.819250 11.466789
v 0.003059 33.349037 -11.539780
v 0.003059 49.385048 -11.539772
v 0.003059 33.349030 11.466789
v 0.003059 49.385044 11.466789
v -11.441742 33.349033 0.021988
v -11.441742 49.385048 0.021996
v -11.441742 26.855270 0.021988
v -11.441742 26.855272 -11.414658
v 11.439702 33.349037 -11.539780
v 0.003059 26.855267 11.466789
v -11.441742 49.385048 -11.414650
v -11.441742 33.349037 -11.539780
v 11.439702 49.385040 11.466789
v 11.439702 33.349033 0.030144
v 11.439702 49.385048 0.030151
v 11.439702 49.385048 -11.414650
v 11.439702 26.855272 -11.414658
v 11.439702 33.349030 11.466789
v 0.003059 55.878815 -11.539780
v 0.003059 71.914825 -11.539772
v 0.003059 55.878815 11.466789
v -11.441742 55.878815 0.021988
v -11.441742 71.914825 0.021996
v 11.439702 55.878815 -11.539780
v -11.441742 55.878815 -11.539780
v 11.439702 55.878815 0.030144
v 11.439702 71.914825 -11.414650
v 11.439702 55.878815 11.466789
v 0.003059 78.408592 -11.539780
v 0.003059 94.444611 -11.539772
v 0.003059 78.408592 11.466789
v 0.003059 94.444603 11.466789
v -11.441742 78.408592 0.021988
v -11.441742 94.444603 0.021996
v -11.441742 71.914833 -11.414658
v 11.439702 78.408592 -11.539780
v 11.439702 71.914825 11.466789
v 0.003059 71.914825 11.466789
v -11.441742 94.444603 -11.414650
v -11.441742 78.408592 -11.539780
v 11.439702 94.444603 11.466789
v 11.439702 78.408592 0.030144
v 11.439702 94.444603 0.030151
v 11.439702 71.914825 0.030144
v 11.439702 94.444603 -11.414650
v 11.439702 78.408592 11.466789
v -5.727951 10.819251 5.744389
v -5.727951 4.325487 5.744388
v -5.727951 33.349030 5.744389
v -5.727951 26.855265 5.744388
v -5.727951 55.878807 5.744389
v -5.727951 71.914818 5.744392
v -5.727951 49.385040 5.744388
v -5.727951 78.408585 5.744389
v -5.727951 94.444595 5.744392
v -11.441742 10.819251 4.741138
v -10.438491 10.819251 5.744389
v -10.438491 26.855263 5.744391
v -11.441742 26.855265 4.741141
v -10.438491 4.325487 5.744388
v -11.441742 4.325487 4.741138
v -11.441742 33.349033 4.741138
v -10.438491 33.349033 5.744389
v -10.438491 49.385044 5.744391
v -11.441742 49.385044 4.741141
v -11.441742 55.878815 4.741138
v -10.438491 55.878815 5.744389
v -10.438491 71.914825 5.744392
v -11.441742 71.914825 4.741141
v -11.441742 78.408592 4.741138
v -10.438491 78.408592 5.744389
v -11.441742 94.444603 4.741141
v -10.438491 94.444603 5.744392
v -4.724700 10.819250 11.466789
v -5.727951 10.819250 10.463538
v -4.724700 4.325486 11.466789
v -5.727951 4.325486 10.463538
v -4.724700 33.349030 11.466789
v -5.727951 33.349030 10.463538
v -5.727951 26.855263 10.463538
v -4.724700 26.855263 11.466789
v -4.724700 55.878807 11.466789
v -5.727951 55.878807 10.463538
v -5.727951 49.385040 10.463538
v -4.724700 49.385040 11.466789
v -5.727951 78.408585 10.463538
v -4.724700 78.408585 11.466789
v -5.727951 94.444595 10.463538
v -4.724700 94.444595 11.466789
v -5.727951 71.914818 10.463538
v -4.724700 71.914818 11.466789
v 10.118144 95.023712 10.215331
v 10.118144 95.023712 0.047908
v -10.223967 95.023712 0.040657
v -10.223967 95.023712 -10.126776
v 10.118144 95.023712 -10.126776
v -0.049285 95.023720 -10.238012
v -0.049285 95.023712 10.215331
v -9.332054 95.023712 5.127993
v -10.223967 95.023712 4.236081
v -4.252367 95.023705 10.215331
v -5.144279 95.023705 9.323419
v -5.144279 95.023705 5.127993
v -5.143331 4.325489 5.130121
v -5.143331 93.979370 5.130118
v -8.358572 4.325489 5.130121
v -8.358572 93.979393 5.130118
v -5.143331 93.979370 8.351235
v -5.143331 4.325489 8.351234
v -8.345711 93.979370 8.351235
v -8.345711 4.325489 8.351234
vt 0.019043 0.222168
vt 0.190918 0.161621
vt 0.019043 0.161621
vt 0.175851 0.222168
vt 0.104980 0.401307
vt 0.104980 0.222168
vt 0.190918 0.222168
vt 0.019043 0.401307
vt 0.190918 0.401307
vt 0.019043 0.222168
vt 0.019043 0.401307
vt 0.019043 0.222168
vt 0.190918 0.161621
vt 0.190918 0.222168
vt 0.019043 0.161621
vt 0.190918 0.401307
vt 0.019043 0.401307
vt 0.190918 0.401307
vt 0.019043 0.401307
vt 0.019043 0.161621
vt 0.089937 0.401307
vt 0.190918 0.222168
vt 0.019043 0.222168
vt 0.019043 0.161621
vt 0.190918 0.161621
vt 0.104980 0.161621
vt 0.175829 0.222168
vt 0.175829 0.161621
vt 0.089914 0.401307
vt 0.019043 0.222168
vt 0.190918 0.161621
vt 0.019043 0.161621
vt 0.175851 0.222168
vt 0.104980 0.401307
vt 0.104980 0.222168
vt 0.190918 0.401307
vt 0.019043 0.222168
vt 0.019043 0.401307
vt 0.019043 0.222168
vt 0.019043 0.401307
vt 0.190918 0.161621
vt 0.190918 0.222168
vt 0.190918 0.222168
vt 0.019043 0.161621
vt 0.190918 0.401307
vt 0.019043 0.401307
vt 0.190918 0.401307
vt 0.019043 0.401307
vt 0.019043 0.161621
vt 0.089937 0.401307
vt 0.190918 0.222168
vt 0.019043 0.222168
vt 0.019043 0.161621
vt 0.190918 0.161621
vt 0.175829 0.222168
vt 0.175829 0.401307
vt 0.104980 0.161621
vt 0.175829 0.161621
vt 0.019043 0.222168
vt 0.190918 0.161621
vt 0.019043 0.161621
vt 0.175851 0.222168
vt 0.104980 0.401307
vt 0.104980 0.222168
vt 0.190918 0.222168
vt 0.019043 0.401307
vt 0.190918 0.401307
vt 0.019043 0.401307
vt 0.019043 0.222168
vt 0.019043 0.222168
vt 0.190918 0.161621
vt 0.190918 0.222168
vt 0.019043 0.161621
vt 0.190918 0.401307
vt 0.019043 0.401307
vt 0.190918 0.401307
vt 0.019043 0.401307
vt 0.019043 0.161621
vt 0.089937 0.401307
vt 0.190918 0.222168
vt 0.019043 0.222168
vt 0.019043 0.161621
vt 0.190918 0.161621
vt 0.175829 0.222168
vt 0.175829 0.401307
vt 0.175829 0.161621
vt 0.019043 0.222168
vt 0.190918 0.161621
vt 0.019043 0.161621
vt 0.104980 0.161621
vt 0.190918 0.222168
vt 0.019043 0.401307
vt 0.190918 0.401307
vt 0.019043 0.401307
vt 0.019043 0.222168
vt 0.019043 0.222168
vt 0.190918 0.161621
vt 0.190918 0.222168
vt 0.019043 0.161621
vt 0.190918 0.401307
vt 0.019043 0.401307
vt 0.190918 0.401307
vt 0.019043 0.401307
vt 0.019043 0.161621
vt 0.089937 0.401307
vt 0.190918 0.222168
vt 0.019043 0.222168
vt 0.019043 0.161621
vt 0.190918 0.161621
vt 0.175829 0.222168
vt 0.175829 0.401307
vt 0.175829 0.161621
vt 0.089937 0.222168
vt 0.089937 0.161621
vt 0.175851 0.222168
vt 0.104980 0.222168
vt 0.089937 0.222168
vt 0.089937 0.161621
vt 0.089937 0.222168
vt 0.089937 0.161621
vt 0.175851 0.161621
vt 0.089937 0.222168
vt 0.089937 0.161621
vt 0.175829 0.401307
vt 0.104980 0.401307
vt 0.089914 0.222168
vt 0.089914 0.222168
vt 0.089914 0.222168
vt 0.175851 0.401307
vt 0.104980 0.401307
vt 0.089914 0.222168
vt 0.104980 0.222168
vt 0.089914 0.161621
vt 0.104980 0.161621
vt 0.104980 0.401307
vt 0.104980 0.222168
vt 0.104980 0.401307
vt 0.104980 0.222168
vt 0.104980 0.401307
vt 0.104980 0.222168
vt 0.104980 0.161621
vt 0.104980 0.161621
vt 0.104980 0.161621
vt 0.104980 0.222168
vt 0.104980 0.161621
vt 0.104980 0.222168
vt 0.089914 0.161621
vt 0.104980 0.161621
vt 0.104980 0.222168
vt 0.089914 0.161621
vt 0.104980 0.161621
vt 0.104980 0.222168
vt 0.089914 0.161621
vt 0.104980 0.161621
vt 0.237005 0.793824
vt 0.237005 0.793824
vt 0.237005 0.793824
vt 0.237005 0.793824
vt 0.237005 0.793824
vt 0.237005 0.793824
vt 0.237005 0.793824
vt 0.237005 0.793824
vt 0.237005 0.793824
vt 0.237005 0.793824
vt 0.237005 0.793824
vt 0.237005 0.793824
vt 0.237005 0.793824
vt 0.237005 0.793824
vt 0.237005 0.793824
vt 0.237005 0.793824
vt 0.237005 0.793824
vt 0.237005 0.793824
vt 0.237005 0.793824
vt 0.237005 0.793824
vt 0.237005 0.793824
vt 0.237005 0.793824
vt 0.092612 0.816088
vt 0.128402 0.816088
vt 0.085017 0.859408
vt 0.214979 0.816088
vt 0.214979 0.902665
vt 0.214979 0.989304
vt 0.128402 0.990251
vt 0.041763 0.989304
vt 0.041763 0.902727
vt 0.041763 0.867003
vt 0.049358 0.859408
vt 0.085017 0.823683
vt 0.237005 0.793824
vt 0.237005 0.793824
vt 0.104980 0.161621
vt 0.175851 0.222168
vt 0.104980 0.222168
vt 0.175829 0.161621
vt 0.175829 0.222168
vt 0.104980 0.161621
vt 0.175851 0.222168
vt 0.104980 0.222168
vt 0.104980 0.161621
vt 0.175829 0.222168
vt 0.175829 0.161621
vt 0.175851 0.401307
vt 0.175851 0.401307
vt 0.175851 0.401307
vt 0.104980 0.161621
vt 0.175851 0.161621
vt 0.175851 0.161621
vt 0.175851 0.161621
vt 0.089914 0.401307
vt 0.089914 0.401307
vt 0.089914 0.401307
vt 0.104980 0.401307
vt 0.104980 0.401307
vt 0.104980 0.401307
vt 0.104980 0.401307
vt 0.175851 0.161621
vt 0.175851 0.161621
vt 0.104980 0.222168
vn -1.0000 0.0000 0.0000
vn 1.0000 0.0000 0.0000
vn -0.0000 0.0000 1.0000
vn 0.0058 -0.0049 -1.0000
vn 0.0000 0.0047 -1.0000
vn 0.0109 0.0078 -0.9999
vn 0.0000 -0.0063 -1.0000
vn 0.0109 -0.0193 -0.9998
vn -0.0058 -0.0049 -1.0000
vn 0.0000 0.0000 -1.0000
vn -0.7071 -0.0000 0.7071
vn -0.0000 0.9075 0.4200
vn -0.4295 0.9031 0.0000
vn -0.3034 0.9032 0.3034
vn 0.0000 0.7288 0.6847
vn 0.0001 0.9137 -0.4064
vn -0.0044 0.9136 -0.4066
vn -0.0001 0.9137 -0.4065
vn 0.4014 0.9159 0.0000
vn -0.7043 0.7099 0.0000
vn 0.0044 0.9137 -0.4063
vn -0.0000 1.0000 0.0000
vn -0.3036 0.9031 0.3036
vn -1.0000 0.0000 0.0040
vn -0.0000 -1.0000 -0.0000
vn -0.0109 0.0078 -0.9999
vn -0.0109 -0.0193 -0.9998
s 1
f 4/1/1 6/2/1 5/3/1
f 96/4/1 70/5/1 66/6/1
f 17/7/2 14/8/2 12/9/2
f 3/10/3 12/9/3 27/11/3
f 13/12/2 16/13/2 7/14/2
f 17/7/2 15/15/2 13/12/2
f 25/16/1 4/1/1 24/17/1
f 13/12/2 34/18/2 14/8/2
f 7/14/4 2/19/5 34/18/6
f 11/20/7 7/14/4 16/13/8
f 98/21/3 3/10/3 27/11/3
f 10/22/9 2/19/5 1/23/10
f 11/20/7 10/22/9 1/23/10
f 17/7/3 9/24/3 8/25/3
f 65/26/3 74/27/3 77/28/3
f 4/1/1 76/29/1 24/17/1
f 22/30/1 25/31/1 24/32/1
f 100/33/1 69/34/1 68/35/1
f 30/36/2 31/37/2 32/38/2
f 20/39/3 30/36/3 21/40/3
f 31/37/2 34/41/2 26/42/2
f 35/43/2 14/44/2 31/37/2
f 28/45/1 22/30/1 23/46/1
f 31/37/2 33/47/2 32/38/2
f 26/42/4 19/48/5 33/47/6
f 2/49/7 26/42/4 34/41/8
f 102/50/3 20/39/3 21/40/3
f 29/51/9 19/48/5 18/52/10
f 2/49/7 29/51/9 18/52/10
f 35/43/3 27/53/3 12/54/3
f 80/55/3 70/5/3 81/56/3
f 67/57/3 80/55/3 75/58/3
f 39/59/1 28/60/1 23/61/1
f 103/62/1 72/63/1 71/64/1
f 45/65/2 61/66/2 54/67/2
f 45/65/3 55/68/3 38/69/3
f 43/70/2 33/71/2 41/72/2
f 45/65/2 32/73/2 43/70/2
f 52/74/1 39/59/1 40/75/1
f 43/70/2 44/76/2 61/66/2
f 41/72/4 37/77/5 44/76/6
f 19/78/7 41/72/4 33/71/8
f 108/79/3 38/69/3 55/68/3
f 42/80/9 37/77/5 36/81/10
f 19/78/7 42/80/9 36/81/10
f 45/65/3 21/82/3 30/83/3
f 84/84/3 69/34/3 85/85/3
f 81/86/3 68/35/3 84/84/3
f 50/87/1 52/88/1 40/89/1
f 69/90/1 103/62/1 71/64/1
f 63/91/2 60/92/2 58/93/2
f 63/91/3 49/94/3 48/95/3
f 59/96/2 44/97/2 53/98/2
f 63/91/2 61/99/2 59/96/2
f 56/100/1 50/87/1 51/101/1
f 59/96/2 62/102/2 60/92/2
f 53/98/4 47/103/5 62/102/6
f 37/104/7 53/98/4 44/97/8
f 106/105/3 48/95/3 49/94/3
f 57/106/9 47/103/5 46/107/10
f 37/104/7 57/106/9 46/107/10
f 63/91/3 55/108/3 54/109/3
f 88/110/3 72/63/3 90/111/3
f 85/112/3 71/64/3 88/110/3
f 9/24/3 91/113/3 93/114/3
f 65/26/1 92/115/1 64/116/1
f 27/53/3 95/117/3 98/118/3
f 67/57/1 96/4/1 66/6/1
f 21/82/3 99/119/3 102/120/3
f 68/35/1 101/121/1 100/33/1
f 55/108/3 104/122/3 108/123/3
f 75/124/3 64/116/3 67/125/3
f 24/32/1 79/126/1 22/30/1
f 79/126/1 23/46/1 22/30/1
f 23/61/1 83/127/1 39/59/1
f 83/127/1 40/75/1 39/59/1
f 40/89/1 87/128/1 50/87/1
f 87/128/1 51/101/1 50/87/1
f 64/116/1 97/129/1 67/125/1
f 75/130/11 73/131/11 74/132/11
f 74/132/11 78/133/11 77/134/11
f 81/135/11 79/126/11 80/136/11
f 85/137/11 83/127/11 84/138/11
f 90/139/11 87/128/11 88/140/11
f 91/113/11 94/141/11 93/114/11
f 95/117/11 97/142/11 98/118/11
f 99/119/11 101/143/11 102/120/11
f 106/105/11 103/144/11 104/122/11
f 104/122/11 107/145/11 108/123/11
f 98/21/11 92/146/11 91/113/11
f 80/136/11 76/147/11 75/148/11
f 102/50/11 96/149/11 95/117/11
f 84/138/11 82/150/11 81/151/11
f 108/79/11 100/152/11 99/119/11
f 88/140/11 86/153/11 85/154/11
f 5/3/1 73/131/1 4/1/1
f 49/155/12 109/156/12 115/157/12
f 51/158/13 112/159/13 56/160/13
f 105/161/14 118/162/14 119/163/14
f 72/164/15 116/165/15 90/166/15
f 47/167/16 112/159/17 114/168/18
f 60/169/19 113/170/19 110/171/19
f 60/169/19 109/156/19 58/172/19
f 51/158/13 117/173/13 111/174/13
f 72/164/20 119/163/20 120/175/20
f 47/167/16 113/170/21 62/176/21
f 118/177/22 115/178/22 120/179/22
f 109/180/22 110/181/22 115/178/22
f 110/181/22 113/182/22 114/183/22
f 115/178/22 110/181/22 120/179/22
f 114/183/22 112/184/22 111/185/22
f 111/185/22 117/186/22 120/179/22
f 117/186/22 116/187/22 120/179/22
f 114/183/22 111/185/22 120/179/22
f 120/179/22 110/181/22 114/183/22
f 119/188/22 118/177/22 120/179/22
f 49/155/12 118/162/12 106/189/12
f 90/166/23 117/173/23 89/190/23
f 121/191/1 125/192/1 122/193/1
f 123/194/3 122/193/3 124/195/3
f 123/196/24 127/197/24 124/198/24
f 126/199/3 127/200/3 128/201/3
f 122/193/25 127/200/25 124/198/25
f 4/1/1 10/22/1 6/2/1
f 96/4/1 101/202/1 70/5/1
f 17/7/2 13/12/2 14/8/2
f 3/10/3 17/7/3 12/9/3
f 13/12/2 15/15/2 16/13/2
f 17/7/2 8/25/2 15/15/2
f 25/16/1 10/22/1 4/1/1
f 13/12/2 7/14/2 34/18/2
f 7/14/4 1/23/10 2/19/5
f 11/20/7 1/23/10 7/14/4
f 98/21/3 91/113/3 3/10/3
f 10/22/9 25/16/26 2/19/5
f 11/20/7 6/2/27 10/22/9
f 17/7/3 3/10/3 9/24/3
f 65/26/3 64/116/3 74/27/3
f 4/1/1 73/131/1 76/29/1
f 22/30/1 29/51/1 25/31/1
f 100/33/1 107/203/1 69/34/1
f 30/36/2 35/43/2 31/37/2
f 20/39/3 35/43/3 30/36/3
f 31/37/2 14/44/2 34/41/2
f 35/43/2 12/54/2 14/44/2
f 28/45/1 29/51/1 22/30/1
f 31/37/2 26/42/2 33/47/2
f 26/42/4 18/52/10 19/48/5
f 2/49/7 18/52/10 26/42/4
f 102/50/3 95/117/3 20/39/3
f 29/51/9 28/45/26 19/48/5
f 2/49/7 25/31/27 29/51/9
f 35/43/3 20/39/3 27/53/3
f 80/55/3 66/6/3 70/5/3
f 67/57/3 66/6/3 80/55/3
f 39/59/1 42/80/1 28/60/1
f 103/62/1 105/204/1 72/63/1
f 45/65/2 43/70/2 61/66/2
f 45/65/3 54/67/3 55/68/3
f 43/70/2 32/73/2 33/71/2
f 45/65/2 30/83/2 32/73/2
f 52/74/1 42/80/1 39/59/1
f 43/70/2 41/72/2 44/76/2
f 41/72/4 36/81/10 37/77/5
f 19/78/7 36/81/10 41/72/4
f 108/79/3 99/119/3 38/69/3
f 42/80/9 52/74/26 37/77/5
f 19/78/7 28/60/27 42/80/9
f 45/65/3 38/69/3 21/82/3
f 84/84/3 68/35/3 69/34/3
f 81/86/3 70/205/3 68/35/3
f 50/87/1 57/106/1 52/88/1
f 69/90/1 107/206/1 103/62/1
f 63/91/2 59/96/2 60/92/2
f 63/91/3 58/93/3 49/94/3
f 59/96/2 61/99/2 44/97/2
f 63/91/2 54/109/2 61/99/2
f 56/100/1 57/106/1 50/87/1
f 59/96/2 53/98/2 62/102/2
f 53/98/4 46/107/10 47/103/5
f 37/104/7 46/107/10 53/98/4
f 106/105/3 104/122/3 48/95/3
f 57/106/9 56/100/26 47/103/5
f 37/104/7 52/88/27 57/106/9
f 63/91/3 48/95/3 55/108/3
f 88/110/3 71/64/3 72/63/3
f 85/112/3 69/90/3 71/64/3
f 9/24/3 3/10/3 91/113/3
f 65/26/1 94/207/1 92/115/1
f 27/53/3 20/39/3 95/117/3
f 67/57/1 97/208/1 96/4/1
f 21/82/3 38/69/3 99/119/3
f 68/35/1 70/205/1 101/121/1
f 55/108/3 48/95/3 104/122/3
f 75/124/3 74/27/3 64/116/3
f 24/32/1 76/147/1 79/126/1
f 79/126/1 82/209/1 23/46/1
f 23/61/1 82/150/1 83/127/1
f 83/127/1 86/210/1 40/75/1
f 40/89/1 86/153/1 87/128/1
f 87/128/1 89/211/1 51/101/1
f 64/116/1 92/115/1 97/129/1
f 75/130/11 76/29/11 73/131/11
f 74/132/11 73/131/11 78/133/11
f 81/135/11 82/209/11 79/126/11
f 85/137/11 86/210/11 83/127/11
f 90/139/11 89/211/11 87/128/11
f 91/113/11 92/146/11 94/141/11
f 95/117/11 96/149/11 97/142/11
f 99/119/11 100/152/11 101/143/11
f 106/105/11 105/212/11 103/144/11
f 104/122/11 103/144/11 107/145/11
f 98/21/11 97/213/11 92/146/11
f 80/136/11 79/126/11 76/147/11
f 102/50/11 101/214/11 96/149/11
f 84/138/11 83/127/11 82/150/11
f 108/79/11 107/215/11 100/152/11
f 88/140/11 87/128/11 86/153/11
f 5/3/1 78/133/1 73/131/1
f 49/155/12 58/172/12 109/156/12
f 51/158/13 111/174/13 112/159/13
f 105/161/14 106/189/14 118/162/14
f 72/164/15 120/175/15 116/165/15
f 47/167/16 56/160/17 112/159/17
f 60/169/19 62/176/19 113/170/19
f 60/169/19 110/171/19 109/156/19
f 51/158/13 89/190/13 117/173/13
f 72/164/20 105/161/20 119/163/20
f 47/167/16 114/168/18 113/170/21
f 49/155/12 115/157/12 118/162/12
f 90/166/23 116/165/23 117/173/23
f 121/191/1 126/216/1 125/192/1
f 123/194/3 121/191/3 122/193/3
f 123/196/24 128/217/24 127/197/24
f 126/199/3 125/218/3 127/200/3
f 122/193/25 125/192/25 127/200/25
