# Blender v2.91.0 Beta OBJ File: 'HOUSE02.blend'
# www.blender.org
o alumsiding01.019_tree.002_tree.005_alumsiding01.019_tree.001_al
v 18.851799 7.193320 19.819134
v 14.133522 5.593005 19.047178
v 18.107843 5.593006 19.047178
v 0.000000 7.193326 -19.819126
v 18.851799 7.193326 -19.819130
v 14.133522 5.593011 -19.047178
v 18.107843 5.593012 -19.047178
v 19.768530 7.193320 18.895346
v 19.040396 5.593006 18.103909
v 19.040396 5.593007 14.140307
v 19.768532 7.193325 0.000001
v 19.040398 5.593011 0.006784
v 0.000000 7.193319 19.819130
v 0.000000 5.593005 19.047174
v 19.040396 5.593011 -14.140306
v 19.768530 7.193326 -18.895342
v 19.040396 5.593012 -18.103909
v 0.000000 5.593011 -19.047174
v -18.851799 7.193320 19.819134
v -18.107843 5.593006 19.047178
v -14.133522 5.593005 19.047178
v -14.133522 5.593011 -19.047178
v -18.851799 7.193326 -19.819130
v -18.107843 5.593012 -19.047178
v -19.768530 7.193320 18.895346
v -19.040396 5.593007 14.140307
v -19.040396 5.593006 18.103909
v -19.768532 7.193325 0.050602
v -19.040398 5.593011 0.006784
v -19.040396 5.593011 -14.140306
v -19.768530 7.193326 -18.895342
v -19.040396 5.593012 -18.103909
v -18.374182 27.291718 -17.303238
v -19.768530 27.291399 0.050607
v -18.374186 27.291456 0.000004
v 19.768530 27.291399 0.050607
v 18.270866 27.291456 0.000004
v 18.270863 27.291714 17.303246
v -18.374182 26.494253 -17.303238
v -0.051660 26.493992 -18.140865
v -17.538818 26.494251 -18.140865
v -0.051660 26.493984 18.140873
v 17.435499 26.494244 18.140873
v 18.270863 26.494249 17.303246
v -18.374182 27.291714 17.303246
v 18.270863 26.494253 -17.303238
v 17.435499 26.494251 -18.140865
v 0.000000 27.291393 19.819138
v 17.435499 27.291708 18.140873
v -0.051660 27.291449 18.140873
v 0.000000 27.291401 -19.819130
v 17.435499 27.291716 -18.140865
v 18.867235 27.291672 -19.819130
v 18.148613 26.493990 0.000004
v -18.374182 26.494249 17.303246
v -17.538818 26.494244 18.140873
v 19.768526 27.291674 -18.912436
v 18.270863 27.291718 -17.303238
v -19.768526 27.291674 -18.912436
v -19.040396 -0.900756 14.140305
v 19.768526 27.291666 18.912443
v 19.329075 27.291416 0.000004
v -19.768526 26.255823 -18.911144
v -18.861259 21.988121 -19.819130
v -19.768526 21.988121 -18.905821
v 19.768526 26.255816 18.911152
v 19.768530 26.255602 0.050608
v 19.768532 21.988119 0.050610
v 0.000000 26.255596 19.819138
v -18.861259 21.988113 19.819138
v 0.000000 21.988113 19.819138
v -19.768530 26.255602 0.050608
v -19.768526 21.988113 18.905828
v -19.768526 26.255816 18.911152
v 0.000000 21.988121 -19.819130
v 19.768526 21.988121 -18.905821
v -19.768526 27.291666 18.912443
v -18.866068 26.255814 19.819138
v -18.867235 27.291664 19.819138
v 14.133522 -0.900752 -19.047178
v 0.000000 -0.900753 -19.047174
v 0.000000 26.255604 -19.819130
v -18.866068 26.255821 -19.819130
v -19.768532 21.988119 0.050610
v 19.768526 21.988113 18.905828
v 18.861259 21.988113 19.819138
v -19.359392 27.291416 0.000004
v -18.101763 -0.900751 -19.047178
v -19.040396 -0.900751 -18.097162
v 18.866068 26.255814 19.819138
v 19.768526 26.255823 -18.911144
v -19.040396 -0.900752 -14.140305
v 18.101763 -0.900757 19.047178
v 19.040396 -0.900757 18.097162
v 19.040396 -0.900752 -14.140305
v 18.101763 -0.900751 -19.047178
v 19.040396 -0.900751 -18.097162
v -18.251934 26.493990 0.000004
v -19.040396 -0.900757 18.097162
v 14.133522 -0.900758 19.047178
v -17.538818 27.291708 18.140873
v 18.861259 21.988121 -19.819130
v -18.101763 -0.900757 19.047178
v 18.866068 26.255821 -19.819130
v -14.133522 -0.900752 -19.047178
v 18.867235 27.291664 19.819138
v -17.538818 27.291716 -18.140865
v -0.051660 27.291456 -18.140865
v -14.133522 -0.900758 19.047178
v 0.000000 -0.900759 19.047174
v -18.867235 27.291672 -19.819130
v 19.040396 -0.900756 14.140305
v -19.040400 -0.900753 0.006783
v 19.040400 -0.900753 0.006783
vt 0.227716 0.841465
vt 0.202199 0.832811
vt 0.223692 0.832811
vt 0.125763 0.841465
vt 0.227716 0.841465
vt 0.202199 0.832811
vt 0.223692 0.832811
vt 0.015774 0.835175
vt 0.020239 0.826146
vt 0.042603 0.826146
vt 0.122102 0.835175
vt 0.122349 0.826146
vt 0.125763 0.841465
vt 0.125763 0.832811
vt 0.042603 0.826146
vt 0.015774 0.835175
vt 0.020239 0.826146
vt 0.125763 0.832811
vt 0.227716 0.841465
vt 0.223692 0.832811
vt 0.202199 0.832811
vt 0.202199 0.832811
vt 0.227716 0.841465
vt 0.223692 0.832811
vt 0.015774 0.835175
vt 0.042603 0.826146
vt 0.020239 0.826146
vt 0.122102 0.835175
vt 0.122349 0.826146
vt 0.042603 0.826146
vt 0.015774 0.835175
vt 0.020239 0.826146
vt 0.042007 0.796529
vt 0.035448 0.877689
vt 0.042007 0.877927
vt 0.221438 0.877689
vt 0.214393 0.877927
vt 0.214393 0.796529
vt 0.031928 0.980067
vt 0.132642 0.984671
vt 0.036520 0.984671
vt 0.132642 0.785239
vt 0.228764 0.785239
vt 0.233356 0.789844
vt 0.042007 0.796529
vt 0.233356 0.980067
vt 0.228764 0.984671
vt 0.232673 0.841465
vt 0.128443 0.784694
vt 0.210463 0.792588
vt 0.128200 0.792588
vt 0.128443 0.784694
vt 0.210463 0.792588
vt 0.217198 0.784694
vt 0.232684 0.884955
vt 0.031928 0.789844
vt 0.036520 0.785239
vt 0.221438 0.788959
vt 0.232673 0.841465
vt 0.228736 0.832811
vt 0.232673 0.841465
vt 0.221438 0.788959
vt 0.214393 0.796529
vt 0.035448 0.788959
vt 0.225219 0.773847
vt 0.207990 0.781274
vt 0.211996 0.785290
vt 0.219371 0.877927
vt 0.204717 0.618957
vt 0.204735 0.658572
vt 0.204641 0.658572
vt 0.049361 0.812718
vt 0.207575 0.802910
vt 0.049361 0.803103
vt 0.125045 0.178613
vt 0.283206 0.335631
vt 0.125045 0.335707
vt 0.125045 0.658572
vt 0.283264 0.618799
vt 0.283305 0.658379
vt 0.125045 0.658572
vt 0.283213 0.618799
vt 0.125045 0.618957
vt 0.125045 0.335707
vt 0.283174 0.178512
vt 0.283257 0.335631
vt 0.204890 0.335707
vt 0.204929 0.178613
vt 0.205047 0.178613
vt 0.128958 0.803103
vt 0.129030 0.812718
vt 0.128939 0.812718
vt 0.218358 0.056229
vt 0.125595 0.020623
vt 0.125595 0.056229
vt 0.283264 0.618799
vt 0.125045 0.618957
vt 0.125045 0.335707
vt 0.283115 0.178512
vt 0.125045 0.178613
vt 0.204890 0.335707
vt 0.204929 0.178613
vt 0.204788 0.335707
vt 0.037372 0.877927
vt 0.035448 0.788959
vt 0.129030 0.812718
vt 0.128958 0.803103
vt 0.128939 0.812718
vt 0.204735 0.658572
vt 0.204717 0.618957
vt 0.204641 0.658572
vt 0.204929 0.178613
vt 0.204890 0.335707
vt 0.205047 0.178613
vt 0.124141 0.781274
vt 0.031787 0.769322
vt 0.126247 0.769322
vt 0.124780 0.018379
vt 0.031814 0.056229
vt 0.031814 0.018379
vt 0.262235 0.077746
vt 0.262154 0.017199
vt 0.262352 0.017199
vt 0.031814 0.018379
vt 0.124780 0.056229
vt 0.031814 0.056229
vt 0.262235 0.077746
vt 0.262154 0.017199
vt 0.262048 0.077746
vt 0.261981 0.017297
vt 0.235936 0.077788
vt 0.235936 0.017297
vt 0.262045 0.077786
vt 0.236018 0.017250
vt 0.262045 0.017250
vt 0.125045 0.658572
vt 0.283264 0.618799
vt 0.125045 0.618957
vt 0.032600 0.884955
vt 0.262045 0.077786
vt 0.236018 0.017250
vt 0.235974 0.077786
vt 0.049361 0.812718
vt 0.207575 0.802910
vt 0.049361 0.803103
vt 0.207575 0.802910
vt 0.207586 0.812516
vt 0.261981 0.017297
vt 0.235936 0.077788
vt 0.262021 0.077788
vt 0.283174 0.178512
vt 0.125045 0.178613
vt 0.125045 0.658572
vt 0.283213 0.618799
vt 0.125045 0.618957
vt 0.283213 0.618799
vt 0.283258 0.658379
vt 0.040292 0.781274
vt 0.027275 0.773847
vt 0.204735 0.658572
vt 0.204717 0.618957
vt 0.204819 0.618957
vt 0.261981 0.017297
vt 0.235936 0.077788
vt 0.235936 0.017297
vt 0.261981 0.017297
vt 0.235936 0.077788
vt 0.262021 0.077788
vt 0.049361 0.812718
vt 0.207621 0.802910
vt 0.207631 0.812517
vt 0.128958 0.803103
vt 0.129030 0.812718
vt 0.129051 0.803103
vt 0.207575 0.802910
vt 0.207586 0.812516
vt 0.262045 0.077786
vt 0.236018 0.017250
vt 0.235974 0.077786
vt 0.283213 0.618799
vt 0.283258 0.658378
vt 0.207621 0.802910
vt 0.049361 0.803103
vt 0.211996 0.868257
vt 0.225219 0.867313
vt 0.045937 0.792588
vt 0.218358 0.056229
vt 0.220707 0.769322
vt 0.124141 0.781274
vt 0.045937 0.792588
vt 0.128200 0.792588
vt 0.036287 0.868258
vt 0.027275 0.867313
vt 0.125045 0.335707
vt 0.283174 0.178512
vt 0.125045 0.178613
vt 0.283115 0.178512
vt 0.232673 0.841465
vt 0.228736 0.832811
vt 0.283115 0.178512
vt 0.283207 0.335631
vt 0.217198 0.784694
vt 0.039687 0.784694
vt 0.225219 0.773847
vt 0.207990 0.781274
vt 0.220707 0.769322
vt 0.283264 0.618799
vt 0.283305 0.658379
vt 0.031787 0.769322
vt 0.126247 0.769322
vt 0.049361 0.812718
vt 0.207621 0.802910
vt 0.207631 0.812517
vt 0.262235 0.077746
vt 0.262154 0.017199
vt 0.262352 0.017199
vt 0.027275 0.773847
vt 0.040292 0.781274
vt 0.129030 0.812718
vt 0.128958 0.803103
vt 0.129051 0.803103
vt 0.207621 0.802910
vt 0.049361 0.803103
vt 0.283174 0.178512
vt 0.283257 0.335631
vt 0.204929 0.178613
vt 0.204890 0.335707
vt 0.204788 0.335707
vt 0.031814 0.056229
vt 0.124780 0.056229
vt 0.125595 0.020623
vt 0.218358 0.056229
vt 0.125595 0.056229
vt 0.036287 0.785290
vt 0.204717 0.618957
vt 0.204735 0.658572
vt 0.204819 0.618957
vt 0.124780 0.018379
vt 0.031814 0.056229
vt 0.262235 0.077746
vt 0.262154 0.017199
vt 0.262048 0.077746
vt 0.262045 0.077786
vt 0.236018 0.017250
vt 0.262045 0.017250
vt 0.218358 0.056229
vt 0.228736 0.832811
vt 0.228736 0.832811
vt 0.204819 0.618957
vt 0.207586 0.812516
vt 0.283115 0.178512
vt 0.283258 0.658378
vt 0.204788 0.335707
vt 0.129051 0.803103
vt 0.218358 0.020623
vt 0.283305 0.658379
vt 0.283207 0.335631
vt 0.205047 0.178613
vt 0.129051 0.803103
vt 0.204819 0.618957
vt 0.204788 0.335707
vt 0.262048 0.077746
vt 0.262352 0.017199
vt 0.262021 0.077788
vt 0.235974 0.077786
vt 0.283305 0.658379
vt 0.262045 0.017250
vt 0.207586 0.812516
vt 0.235936 0.017297
vt 0.283257 0.335631
vt 0.283258 0.658379
vt 0.036287 0.785290
vt 0.204641 0.658572
vt 0.262021 0.077788
vt 0.235936 0.017297
vt 0.128939 0.812718
vt 0.262045 0.017250
vt 0.207631 0.812517
vt 0.218358 0.020623
vt 0.039687 0.784694
vt 0.283257 0.335631
vt 0.283206 0.335631
vt 0.211996 0.785290
vt 0.262048 0.077746
vt 0.128939 0.812718
vt 0.207631 0.812517
vt 0.205047 0.178613
vt 0.031814 0.018379
vt 0.218358 0.020623
vt 0.204641 0.658572
vt 0.031814 0.018379
vt 0.262352 0.017199
vt 0.235974 0.077786
vt 0.218358 0.020623
vn -0.0000 -0.4345 0.9007
vn 0.0000 -0.4345 -0.9007
vn 0.9102 -0.4141 -0.0000
vn -0.9102 -0.4141 -0.0000
vn -0.0000 1.0000 0.0000
vn 0.5898 -0.5566 -0.5851
vn 0.5902 -0.5570 -0.5843
vn 0.5894 -0.5560 -0.5860
vn -0.5900 -0.5568 -0.5847
vn -0.5902 -0.5570 -0.5843
vn -0.5908 -0.5578 -0.5830
vn -0.5898 -0.5566 0.5851
vn -0.5902 -0.5570 0.5843
vn -0.5894 -0.5560 0.5860
vn -0.7081 0.0000 -0.7061
vn 0.7094 -0.0007 0.7048
vn 0.7093 -0.0008 0.7049
vn 0.7092 -0.0008 0.7050
vn -1.0000 -0.0000 0.0000
vn 1.0000 0.0000 -0.0000
vn 0.0000 0.0000 -1.0000
vn 0.0000 -0.0000 1.0000
vn -0.7095 -0.0007 -0.7047
vn -0.7098 -0.0005 -0.7044
vn -0.7095 -0.0007 0.7047
vn -0.7098 -0.0005 0.7044
vn -0.7094 -0.0007 0.7048
vn -0.0000 1.0000 0.0002
vn -0.7092 -0.0008 0.7050
vn -0.7093 -0.0008 0.7049
vn 0.7098 -0.0005 -0.7044
vn 0.7095 -0.0007 -0.7047
vn -0.7112 -0.0007 -0.7030
vn -0.7113 -0.0007 -0.7029
vn -0.7114 -0.0007 -0.7028
vn -0.7112 -0.0007 0.7030
vn -0.7111 -0.0007 0.7031
vn -0.7109 -0.0006 0.7033
vn 0.7081 0.0000 0.7061
vn 0.7081 0.0000 0.7062
vn -0.7093 -0.0008 -0.7049
vn -0.7094 -0.0007 -0.7048
vn 0.7092 -0.0008 -0.7050
vn 0.7093 -0.0008 -0.7049
vn -0.9976 -0.0692 -0.0032
vn -0.9759 0.2183 -0.0000
vn -0.9744 0.2246 0.0000
vn 0.9976 -0.0692 0.0032
vn 0.9759 0.2183 0.0000
vn 0.9744 0.2246 -0.0000
vn 0.5900 -0.5568 0.5847
vn 0.5902 -0.5570 0.5843
vn 0.5908 -0.5578 0.5830
vn -0.7081 0.0000 0.7061
vn 0.7112 -0.0007 0.7030
vn 0.7113 -0.0007 0.7029
vn 0.7114 -0.0007 0.7028
vn 0.7081 0.0000 -0.7061
vn -0.7092 -0.0008 -0.7050
vn -0.9976 -0.0692 0.0032
vn 0.7098 -0.0005 0.7044
vn 0.7095 -0.0007 0.7047
vn 0.9976 -0.0692 -0.0032
vn 0.9972 -0.0745 -0.0034
vn 0.7094 -0.0007 -0.7048
vn 0.7112 -0.0007 -0.7030
vn 0.7111 -0.0007 -0.7031
vn 0.7109 -0.0006 -0.7033
vn 0.5908 -0.5578 -0.5830
vn -0.5894 -0.5561 -0.5859
vn -0.5908 -0.5578 0.5830
vn -0.7111 -0.0007 -0.7031
vn -0.7114 -0.0007 0.7028
vn -0.9972 -0.0745 -0.0034
vn 0.9972 -0.0745 0.0034
vn 0.5894 -0.5561 0.5859
vn -0.7081 0.0000 0.7062
vn 0.7111 -0.0007 0.7031
vn -0.9972 -0.0745 0.0034
vn 0.7114 -0.0007 -0.7028
s 1
f 1/1/1 2/2/1 3/3/1
f 4/4/2 5/5/2 6/6/2
f 5/5/2 7/7/2 6/6/2
f 8/8/3 9/9/3 10/10/3
f 11/11/3 10/10/3 12/12/3
f 13/13/1 14/14/1 2/2/1
f 11/11/3 12/12/3 15/15/3
f 11/11/3 15/15/3 16/16/3
f 11/11/3 8/8/3 10/10/3
f 16/16/3 15/15/3 17/17/3
f 4/4/2 6/6/2 18/18/2
f 13/13/1 2/2/1 1/1/1
f 19/19/1 20/20/1 21/21/1
f 4/4/2 22/22/2 23/23/2
f 23/23/2 22/22/2 24/24/2
f 25/25/4 26/26/4 27/27/4
f 28/28/4 29/29/4 26/26/4
f 13/13/1 21/21/1 14/14/1
f 28/28/4 30/30/4 29/29/4
f 28/28/4 31/31/4 30/30/4
f 28/28/4 26/26/4 25/25/4
f 31/31/4 32/32/4 30/30/4
f 4/4/2 18/18/2 22/22/2
f 13/13/1 19/19/1 21/21/1
f 33/33/5 34/34/5 35/35/5
f 36/36/5 37/37/5 38/38/5
f 39/39/5 40/40/5 41/41/5
f 42/42/5 43/43/5 44/44/5
f 45/45/5 35/35/5 34/34/5
f 40/40/5 46/46/5 47/47/5
f 16/48/6 7/7/7 5/5/8
f 48/49/5 49/50/5 50/51/5
f 51/52/5 52/53/5 53/54/5
f 44/44/5 54/55/5 42/42/5
f 55/56/5 56/57/5 42/42/5
f 49/50/5 61/58/5 38/38/5
f 31/59/9 24/24/10 32/60/11
f 25/61/12 20/20/13 19/19/14
f 57/62/5 52/53/5 58/63/5
f 59/64/5 34/34/5 33/33/5
f 44/65/15 49/66/15 38/67/15
f 38/38/5 61/58/5 36/36/5
f 36/36/5 62/68/5 37/37/5
f 86/69/16 66/70/17 90/71/18
f 34/72/19 63/73/19 72/74/19
f 11/75/20 76/76/20 68/77/20
f 82/78/21 64/79/21 83/80/21
f 72/81/19 65/82/19 84/83/19
f 71/84/22 1/85/22 86/86/22
f 65/87/23 23/88/24 31/89/24
f 90/90/18 61/91/18 106/92/18
f 21/93/22 110/94/22 14/95/22
f 82/78/21 102/96/21 75/97/21
f 84/98/19 31/99/19 28/100/19
f 73/101/25 19/102/26 70/103/27
f 87/104/28 34/34/28 35/35/28
f 34/34/5 77/105/5 45/45/5
f 77/106/29 78/107/29 79/108/29
f 74/109/30 70/110/27 78/111/29
f 5/112/31 76/113/32 16/114/31
f 108/115/22 41/116/22 40/117/22
f 114/118/20 10/119/20 112/120/20
f 36/36/5 57/62/5 58/63/5
f 58/63/5 37/37/5 36/36/5
f 32/121/33 88/122/34 89/123/35
f 92/124/19 29/125/19 30/126/19
f 27/127/36 103/128/37 20/129/38
f 88/130/21 22/131/21 105/132/21
f 10/133/20 94/134/20 112/135/20
f 69/136/22 70/137/22 71/138/22
f 55/56/5 42/42/5 98/139/5
f 15/140/20 97/141/20 17/142/20
f 36/143/20 66/144/20 67/145/20
f 36/143/20 91/146/20 57/147/20
f 103/148/22 21/149/22 20/150/22
f 71/84/22 19/151/22 13/152/22
f 67/153/20 85/154/20 68/155/20
f 67/153/20 76/156/20 91/157/20
f 107/158/39 39/159/40 41/116/39
f 63/160/41 64/161/42 65/162/23
f 93/163/22 2/164/22 100/165/22
f 96/166/21 6/167/21 7/168/21
f 48/169/22 90/170/22 106/171/22
f 104/172/43 57/173/43 91/174/44
f 34/72/19 74/175/19 77/176/19
f 26/177/19 99/178/19 27/179/19
f 72/81/19 73/180/19 74/181/19
f 48/169/22 78/182/22 69/183/22
f 44/65/45 37/184/46 54/185/47
f 101/186/5 48/49/5 50/51/5
f 110/94/22 2/187/22 14/95/22
f 43/188/21 50/189/21 49/66/21
f 51/52/5 107/190/5 108/191/5
f 39/159/48 35/192/49 98/193/50
f 75/194/21 5/195/21 4/196/21
f 68/77/20 8/197/20 11/75/20
f 8/198/51 3/3/52 9/199/53
f 84/98/19 25/200/19 73/201/19
f 48/49/5 106/202/5 49/50/5
f 51/52/5 108/191/5 52/53/5
f 101/186/5 77/105/5 79/203/5
f 46/204/54 52/205/54 47/206/54
f 69/136/22 86/207/22 90/208/22
f 40/40/5 42/42/5 54/55/5
f 56/209/21 50/189/21 42/210/21
f 47/206/22 108/115/22 40/117/22
f 51/211/21 83/212/21 111/213/21
f 46/46/5 40/40/5 54/55/5
f 98/139/5 40/40/5 39/39/5
f 9/214/55 93/215/56 94/216/57
f 55/217/58 101/218/58 56/209/58
f 59/219/59 83/220/59 63/221/41
f 37/184/46 46/204/60 54/185/47
f 51/211/21 104/222/21 82/223/21
f 75/194/21 23/224/21 64/225/21
f 1/226/61 85/227/62 86/228/16
f 107/190/5 59/64/5 33/33/5
f 114/118/20 15/229/20 12/230/20
f 81/231/21 22/232/21 18/233/21
f 55/217/63 35/192/49 45/234/64
f 102/235/65 91/236/44 76/237/32
f 113/238/19 26/239/19 29/125/19
f 17/240/66 96/241/67 7/242/68
f 30/243/19 89/244/19 92/245/19
f 6/246/21 81/231/21 18/233/21
f 16/48/6 17/247/69 7/7/7
f 49/50/5 106/202/5 61/58/5
f 31/59/9 23/23/70 24/24/10
f 25/61/12 27/248/71 20/20/13
f 57/62/5 53/54/5 52/53/5
f 44/65/15 43/188/15 49/66/15
f 86/69/16 85/249/62 66/70/17
f 34/72/19 59/250/19 63/73/19
f 11/75/20 16/251/20 76/76/20
f 82/78/21 75/97/21 64/79/21
f 72/81/19 63/252/19 65/82/19
f 71/84/22 13/152/22 1/85/22
f 65/87/23 64/253/42 23/88/24
f 90/90/18 66/254/17 61/91/18
f 21/93/22 109/255/22 110/94/22
f 82/78/21 104/256/21 102/96/21
f 84/98/19 65/257/19 31/99/19
f 73/101/25 25/258/26 19/102/26
f 77/106/29 74/259/30 78/107/29
f 74/109/30 73/260/25 70/110/27
f 5/112/31 102/261/65 76/113/32
f 108/115/22 107/158/22 41/116/22
f 114/118/20 12/230/20 10/119/20
f 32/121/33 24/262/72 88/122/34
f 92/124/19 113/238/19 29/125/19
f 27/127/36 99/263/73 103/128/37
f 88/130/21 24/264/21 22/131/21
f 10/133/20 9/265/20 94/134/20
f 69/136/22 78/266/22 70/137/22
f 15/140/20 95/267/20 97/141/20
f 36/143/20 61/268/20 66/144/20
f 36/143/20 67/145/20 91/146/20
f 103/148/22 109/269/22 21/149/22
f 71/84/22 70/270/22 19/151/22
f 67/153/20 66/271/20 85/154/20
f 67/153/20 68/155/20 76/156/20
f 107/158/39 33/272/40 39/159/40
f 63/160/41 83/273/59 64/161/42
f 93/163/22 3/274/22 2/164/22
f 96/166/21 80/275/21 6/167/21
f 48/169/22 69/183/22 90/170/22
f 104/172/43 53/276/43 57/173/43
f 34/72/19 72/74/19 74/175/19
f 26/177/19 60/277/19 99/178/19
f 72/81/19 84/83/19 73/180/19
f 48/169/22 79/278/22 78/182/22
f 44/65/45 38/67/74 37/184/46
f 101/186/5 79/203/5 48/49/5
f 110/94/22 100/279/22 2/187/22
f 43/188/21 42/210/21 50/189/21
f 51/52/5 111/280/5 107/190/5
f 39/159/48 33/272/75 35/192/49
f 75/194/21 102/281/21 5/195/21
f 68/77/20 85/282/20 8/197/20
f 8/198/51 1/1/76 3/3/52
f 84/98/19 28/100/19 25/200/19
f 101/186/5 45/45/5 77/105/5
f 46/204/54 58/283/77 52/205/54
f 69/136/22 71/138/22 86/207/22
f 40/40/5 98/139/5 42/42/5
f 56/209/21 101/218/21 50/189/21
f 47/206/22 52/205/22 108/115/22
f 51/211/21 82/223/21 83/212/21
f 9/214/55 3/284/78 93/215/56
f 55/217/58 45/234/58 101/218/58
f 59/219/59 111/285/59 83/220/59
f 37/184/46 58/283/79 46/204/60
f 51/211/21 53/286/21 104/222/21
f 75/194/21 4/196/21 23/224/21
f 1/226/61 8/287/61 85/227/62
f 107/190/5 111/280/5 59/64/5
f 114/118/20 95/288/20 15/229/20
f 81/231/21 105/289/21 22/232/21
f 55/217/63 98/193/50 35/192/49
f 102/235/65 104/290/43 91/236/44
f 113/238/19 60/291/19 26/239/19
f 17/240/66 97/292/80 96/241/67
f 30/243/19 32/293/19 89/244/19
f 6/246/21 80/294/21 81/231/21
