# Blender v2.91.0 Beta OBJ File: 'stadium.blend'
# www.blender.org
o Cube
v -1.000000 -0.130326 -4.000000
v 1.000000 -0.130326 -4.000000
v 0.000000 -0.130326 -4.000000
v 0.000000 -0.130326 4.000000
v 1.000009 3.858271 -4.000000
v 1.000009 3.858271 4.000000
v 1.000000 -0.130326 4.000000
v 1.000004 3.858321 0.000000
v -1.000009 3.858271 4.000000
v 0.000000 3.860834 -4.000000
v 0.000000 3.860834 4.000000
v 0.000000 3.860837 0.000000
v -1.005769 3.860829 -4.000000
v -1.000000 -0.130326 4.000000
v -1.005818 3.860834 0.000000
vt 0.637207 0.750488
vt 0.592285 0.766113
vt 0.637207 0.766113
vt 0.637207 0.750488
vt 0.592285 0.766113
vt 0.637207 0.766113
vt 0.611816 0.730957
vt 0.576660 0.730957
vt 0.576660 0.686035
vt 0.611816 0.730957
vt 0.576660 0.686035
vt 0.576660 0.730957
vt 0.646973 0.686035
vt 0.592285 0.766113
vt 0.637207 0.766113
vt 0.623535 0.712956
vt 0.580566 0.701660
vt 0.623535 0.701660
vt 0.580566 0.701660
vt 0.637207 0.766113
vt 0.592285 0.750488
vt 0.646973 0.686035
vt 0.646973 0.730957
vt 0.580566 0.701660
vt 0.623535 0.701660
vt 0.580566 0.701660
vt 0.592285 0.750488
vt 0.646973 0.730957
vt 0.580566 0.712956
vt 0.580566 0.712956
vt 0.592285 0.766113
vn 0.0000 0.0000 1.0000
vn 0.0000 0.0000 -1.0000
vn 1.0000 -0.0000 -0.0000
vn -1.0000 -0.0000 0.0015
vn -1.0000 -0.0015 0.0000
vn -0.0000 1.0000 -0.0000
vn -0.0000 1.0000 0.0006
vn 0.0025 1.0000 0.0000
vn -1.0000 -0.0014 -0.0000
vn -0.0026 1.0000 0.0000
vn 0.0026 1.0000 0.0000
s off
f 4/1/1 9/2/1 14/3/1
f 3/4/2 5/5/2 2/6/2
f 8/7/3 6/8/3 7/9/3
f 15/10/4 14/11/4 9/12/4
f 15/10/5 1/13/5 14/11/5
f 6/14/1 4/1/1 7/15/1
f 12/16/6 13/17/6 15/18/6
f 9/19/7 12/16/7 15/18/7
f 1/20/2 10/21/2 3/4/2
f 8/7/3 2/22/3 5/23/3
f 12/16/8 6/24/8 8/25/8
f 5/26/8 12/16/8 8/25/8
f 4/1/1 11/27/1 9/2/1
f 3/4/2 10/21/2 5/5/2
f 15/10/9 13/28/9 1/13/9
f 6/14/1 11/27/1 4/1/1
f 12/16/6 10/29/6 13/17/6
f 9/19/10 11/30/10 12/16/10
f 1/20/2 13/31/2 10/21/2
f 8/7/3 7/9/3 2/22/3
f 12/16/11 11/30/11 6/24/11
f 5/26/11 10/29/11 12/16/11
