# Blender v2.91.0 Beta OBJ File: 'stadium.blend'
# www.blender.org
o Plane_Plane.001
v 4.718045 0.000000 0.000000
v 0.000000 0.000000 10.000000
v 4.718045 0.000000 10.000000
v 0.000000 0.000004 -10.000000
v 4.718045 0.000004 -10.000000
v -4.718045 0.000000 0.000000
v -4.718045 0.000000 10.000000
v -4.718045 0.000004 -10.000000
v 5.000000 0.000000 0.000000
v 5.000000 0.000000 10.000000
v 5.000000 0.000004 -10.000000
v -5.000000 0.000000 0.000000
v -5.000000 0.000000 10.000000
v -5.000000 0.000004 -10.000000
v 0.000000 0.000000 0.000000
vt 0.943191 0.417480
vt 0.997559 0.475098
vt 0.943191 0.475098
vt 0.997559 0.475098
vt 0.943191 0.475098
vt 0.943191 0.417480
vt 0.943191 0.475098
vt 0.943191 0.475098
vt 0.668457 0.758301
vt 0.671387 0.794434
vt 0.668457 0.794434
vt 0.671387 0.794434
vt 0.668457 0.794434
vt 0.671387 0.794434
vt 0.668457 0.758301
vt 0.668457 0.794434
vt 0.671387 0.794434
vt 0.668457 0.794434
vt 0.997559 0.417480
vt 0.671387 0.758301
vt 0.671387 0.758301
vn 0.0000 1.0000 0.0000
s 1
f 1/1/1 2/2/1 3/3/1
f 4/4/1 1/1/1 5/5/1
f 2/2/1 6/6/1 7/7/1
f 6/6/1 4/4/1 8/8/1
f 9/9/1 3/10/1 10/11/1
f 5/12/1 9/9/1 11/13/1
f 7/14/1 12/15/1 13/16/1
f 12/15/1 8/17/1 14/18/1
f 1/1/1 15/19/1 2/2/1
f 4/4/1 15/19/1 1/1/1
f 2/2/1 15/19/1 6/6/1
f 6/6/1 15/19/1 4/4/1
f 9/9/1 1/20/1 3/10/1
f 5/12/1 1/20/1 9/9/1
f 7/14/1 6/21/1 12/15/1
f 12/15/1 6/21/1 8/17/1
