# Blender v2.91.0 Beta OBJ File: 'stadium.blend'
# www.blender.org
o Cylinder_Cylinder.002
v 0.000000 14.635883 -0.258182
v 0.411545 12.676527 -0.237603
v 0.000000 12.676527 -0.475209
v 0.223593 14.635883 -0.129090
v 0.411545 12.676527 0.237607
v 0.223593 14.635883 0.129094
v 0.000000 12.676527 0.475213
v 0.000000 14.635883 0.258185
v -0.411545 12.676527 0.237607
v 0.000000 15.718977 0.000003
v -0.223594 14.635883 0.129094
v -0.411545 12.676527 -0.237603
v -0.223594 14.635883 -0.129090
v 0.910335 0.065862 0.525582
v 0.542236 -0.156901 -0.313060
v 0.910335 0.065862 -0.525582
v -0.910335 0.065862 -0.525582
v -0.542236 -0.156901 0.313060
v -0.910335 0.065862 0.525582
v 0.000000 -0.156901 -0.626121
v 0.000000 0.065862 -1.051164
v 0.000000 0.065862 1.051164
v 0.542236 -0.156901 0.313060
v -0.542236 -0.156901 -0.313060
v 0.000000 -0.156901 0.626121
v -1.028900 0.538968 0.594035
v 0.000000 0.538968 1.188071
v 0.000000 0.538968 -1.188071
v -1.028900 0.538968 -0.594035
v 1.028900 0.538968 0.594036
v 1.028900 0.538968 -0.594035
v -0.975847 2.176467 -0.563405
v 0.000000 2.176467 1.126810
v 0.975847 2.176467 0.563405
v 0.975847 2.176467 -0.563405
v 0.000000 9.083624 -0.735763
v -0.637190 9.083624 -0.367881
v -0.637190 9.083624 0.367884
v 0.000000 9.083624 0.735766
v 0.637190 9.083624 0.367884
v 0.637190 9.083624 -0.367881
v 0.000000 5.490721 -0.996315
v 0.000000 2.176467 -1.126810
v 0.862835 5.490721 0.498159
v 0.000000 5.490721 0.996317
v -0.975847 2.176467 0.563405
v -0.862836 5.490721 0.498159
v -0.862836 5.490721 -0.498157
v 0.862836 5.490721 -0.498157
vt 0.623535 0.719238
vt 0.631348 0.697754
vt 0.628418 0.719238
vt 0.614746 0.719238
vt 0.622559 0.697754
vt 0.622559 0.719238
vt 0.614746 0.719238
vt 0.623535 0.697754
vt 0.612793 0.699707
vt 0.583496 0.715332
vt 0.612793 0.715332
vt 0.638184 0.708496
vt 0.638184 0.708496
vt 0.632324 0.727051
vt 0.623535 0.719238
vt 0.614746 0.697754
vt 0.631348 0.697754
vt 0.623535 0.697754
vt 0.620605 0.685059
vt 0.597168 0.693848
vt 0.620605 0.693848
vt 0.644043 0.693848
vt 0.620605 0.685059
vt 0.620605 0.693848
vt 0.620605 0.685059
vt 0.644043 0.693848
vt 0.620605 0.693848
vt 0.597168 0.693848
vt 0.612793 0.715332
vt 0.591309 0.699707
vt 0.583496 0.715332
vt 0.620605 0.685059
vt 0.620605 0.693848
vt 0.634277 0.699707
vt 0.642090 0.715332
vt 0.591309 0.699707
vt 0.612793 0.715332
vt 0.612793 0.699707
vt 0.612793 0.715332
vt 0.634277 0.699707
vt 0.642090 0.715332
vt 0.623535 0.708496
vt 0.623535 0.708496
vt 0.632324 0.708496
vt 0.632324 0.708496
vt 0.605957 0.734863
vt 0.621582 0.681152
vt 0.621582 0.734863
vt 0.640137 0.712402
vt 0.620605 0.686035
vt 0.620605 0.712402
vt 0.616699 0.712402
vt 0.640137 0.686035
vt 0.616699 0.686035
vt 0.612793 0.712402
vt 0.593262 0.686035
vt 0.612793 0.686035
vt 0.593262 0.712402
vt 0.616699 0.686035
vt 0.616699 0.712402
vt 0.593262 0.712402
vt 0.627441 0.735840
vt 0.616699 0.683105
vt 0.627441 0.683105
vt 0.622559 0.697754
vt 0.622559 0.719238
vt 0.627441 0.735840
vt 0.638184 0.683105
vt 0.627441 0.683105
vt 0.642090 0.734863
vt 0.635254 0.682129
vt 0.634277 0.734863
vt 0.620605 0.735840
vt 0.627441 0.683105
vt 0.627441 0.735840
vt 0.638184 0.683105
vt 0.634277 0.735840
vt 0.621582 0.734863
vt 0.600098 0.681152
vt 0.620605 0.734863
vt 0.627441 0.682129
vt 0.628418 0.734863
vt 0.621582 0.734863
vt 0.643066 0.681152
vt 0.621582 0.681152
vt 0.643066 0.681152
vt 0.621582 0.681152
vt 0.621582 0.734863
vt 0.600098 0.681152
vt 0.621582 0.681152
vt 0.637207 0.734863
vt 0.620605 0.734863
vt 0.631348 0.682129
vt 0.631348 0.734863
vt 0.642090 0.734863
vt 0.631348 0.682129
vt 0.631348 0.734863
vt 0.616699 0.683105
vt 0.616699 0.682129
vt 0.645996 0.682129
vt 0.627441 0.683105
vt 0.627441 0.735840
vt 0.640137 0.686035
vt 0.614746 0.697754
vt 0.628418 0.719238
vt 0.605957 0.685059
vt 0.635254 0.685059
vt 0.635254 0.685059
vt 0.605957 0.685059
vt 0.612793 0.699707
vt 0.612793 0.699707
vt 0.640137 0.712402
vt 0.593262 0.686035
vt 0.620605 0.735840
vt 0.634277 0.735840
vt 0.637207 0.734863
vt 0.605957 0.734863
vt 0.616699 0.682129
vt 0.645996 0.682129
vn 0.0000 0.1681 0.9858
vn 0.8625 0.0907 0.4979
vn 0.8537 0.1681 0.4929
vn -0.8537 0.1681 -0.4929
vn -0.8625 0.0907 0.4979
vn -0.8537 0.1681 0.4929
vn 0.0000 0.0907 0.9959
vn -0.7073 -0.5770 -0.4084
vn -0.8602 -0.1161 0.4966
vn -0.8602 -0.1161 -0.4966
vn 0.8537 0.1681 -0.4929
vn 0.0000 1.0000 -0.0000
vn 0.0000 0.1681 -0.9858
vn -0.8625 0.0907 -0.4979
vn 0.8625 0.0907 -0.4979
vn 0.0000 0.0907 -0.9959
vn -0.4020 -0.8857 -0.2321
vn -0.7073 -0.5770 0.4084
vn 0.7073 -0.5770 -0.4084
vn -0.0000 -0.8857 -0.4642
vn -0.0000 -0.5770 -0.8168
vn -0.0000 -0.8857 0.4642
vn 0.7073 -0.5770 0.4084
vn -0.0000 -0.5770 0.8168
vn 0.0000 -0.1161 -0.9932
vn 0.4020 -0.8857 0.2321
vn 0.8602 -0.1161 -0.4966
vn -0.0000 -0.1161 0.9932
vn 0.8602 -0.1161 0.4966
vn -0.8647 0.0556 -0.4992
vn -0.8654 0.0384 0.4996
vn -0.8647 0.0556 0.4992
vn 0.8654 0.0384 0.4996
vn 0.8654 0.0384 -0.4996
vn 0.0000 0.0384 -0.9993
vn 0.0000 0.0384 0.9993
vn -0.8654 0.0384 -0.4996
vn -0.8638 0.0723 0.4987
vn 0.0000 0.0723 0.9974
vn 0.8638 0.0723 -0.4987
vn 0.0000 0.0723 -0.9974
vn 0.8638 0.0723 0.4987
vn 0.8647 0.0556 -0.4992
vn 0.0000 0.0556 -0.9985
vn -0.8638 0.0723 -0.4987
vn 0.0000 0.0556 0.9985
vn 0.8647 0.0556 0.4992
vn -0.4020 -0.8857 0.2321
vn 0.4020 -0.8857 -0.2321
s 1
f 8/1/1 5/2/2 6/3/3
f 13/4/4 9/5/5 11/6/6
f 11/7/6 7/8/7 8/1/1
f 17/9/8 26/10/9 29/11/10
f 6/12/3 4/13/11 10/14/12
f 1/15/13 12/16/14 13/4/4
f 1/15/13 2/17/15 3/18/16
f 24/19/17 19/20/18 17/21/8
f 16/22/19 20/23/20 21/24/21
f 25/25/22 14/26/23 22/27/24
f 20/23/20 17/28/8 21/24/21
f 19/20/18 25/25/22 22/27/24
f 28/29/25 17/30/8 29/31/10
f 23/32/26 16/22/19 14/33/23
f 16/34/19 28/29/25 31/35/27
f 19/36/18 27/37/28 26/10/9
f 14/38/23 31/35/27 30/39/29
f 27/37/28 14/40/23 30/41/29
f 13/42/4 11/43/6 10/14/12
f 4/13/11 1/44/13 10/14/12
f 8/45/1 6/12/3 10/14/12
f 1/44/13 13/42/4 10/14/12
f 11/43/6 8/45/1 10/14/12
f 48/46/30 46/47/31 47/48/32
f 34/49/33 31/50/27 35/51/34
f 43/52/35 31/53/27 28/54/25
f 46/55/31 29/56/10 26/57/9
f 46/58/31 27/59/28 33/60/36
f 43/52/35 29/56/10 32/61/37
f 7/62/7 38/63/38 39/64/39
f 6/3/3 2/65/15 4/66/11
f 3/67/16 41/68/40 36/69/41
f 40/70/42 49/71/43 41/72/40
f 12/73/14 38/74/38 9/75/5
f 7/62/7 40/76/42 5/77/2
f 42/78/44 32/79/37 48/46/30
f 37/80/45 47/81/32 38/82/38
f 49/83/43 34/84/33 35/85/34
f 42/78/44 35/86/34 43/87/35
f 45/88/46 46/89/31 33/90/36
f 45/88/46 34/84/33 44/91/47
f 38/92/38 45/93/46 39/94/39
f 41/95/40 42/96/44 36/97/41
f 3/67/16 37/98/45 12/73/14
f 36/97/41 48/99/30 37/80/45
f 39/94/39 44/100/47 40/70/42
f 5/77/2 41/101/40 2/102/15
f 33/60/36 30/103/29 34/49/33
f 8/1/1 7/8/7 5/2/2
f 13/4/4 12/16/14 9/5/5
f 11/7/6 9/104/5 7/8/7
f 17/9/8 19/36/18 26/10/9
f 1/15/13 3/18/16 12/16/14
f 1/15/13 4/105/11 2/17/15
f 24/19/17 18/106/48 19/20/18
f 16/22/19 15/107/49 20/23/20
f 25/25/22 23/108/26 14/26/23
f 20/23/20 24/109/17 17/28/8
f 19/20/18 18/106/48 25/25/22
f 28/29/25 21/110/21 17/30/8
f 23/32/26 15/107/49 16/22/19
f 16/34/19 21/110/21 28/29/25
f 19/36/18 22/111/24 27/37/28
f 14/38/23 16/34/19 31/35/27
f 27/37/28 22/111/24 14/40/23
f 48/46/30 32/79/37 46/47/31
f 34/49/33 30/103/29 31/50/27
f 43/52/35 35/112/34 31/53/27
f 46/55/31 32/61/37 29/56/10
f 46/58/31 26/113/9 27/59/28
f 43/52/35 28/54/25 29/56/10
f 7/62/7 9/114/5 38/63/38
f 6/3/3 5/2/2 2/65/15
f 3/67/16 2/115/15 41/68/40
f 40/70/42 44/100/47 49/71/43
f 12/73/14 37/98/45 38/74/38
f 7/62/7 39/64/39 40/76/42
f 42/78/44 43/87/35 32/79/37
f 37/80/45 48/99/30 47/81/32
f 49/83/43 44/91/47 34/84/33
f 42/78/44 49/116/43 35/86/34
f 45/88/46 47/117/32 46/89/31
f 45/88/46 33/90/36 34/84/33
f 38/92/38 47/118/32 45/93/46
f 41/95/40 49/119/43 42/96/44
f 3/67/16 36/69/41 37/98/45
f 36/97/41 42/96/44 48/99/30
f 39/94/39 45/93/46 44/100/47
f 5/77/2 40/76/42 41/101/40
f 33/60/36 27/59/28 30/103/29
