# Blender v2.91.0 Beta OBJ File: 'stadium.blend'
# www.blender.org
o tree.002_tree.009_tree.002_tree.005
v -0.340538 2.917004 -0.609302
v -3.657248 -0.289716 0.108878
v -0.268804 -0.289716 -0.544738
v 0.025654 -0.289715 -3.983060
v -0.023854 2.973479 -3.986965
v -3.666328 2.973478 0.060052
v 1.934460 2.973868 1.370587
v -3.594816 -0.289716 0.017922
v -3.603894 2.973478 -0.030904
v -0.058248 -0.289715 -3.911428
v -0.107756 2.973479 -3.915334
v 1.867134 2.973868 1.445390
v 1.878550 -0.289716 1.424334
v -1.680376 3.080624 0.888600
v -3.859358 -0.289716 2.785300
v -1.600380 -0.289716 0.907316
v -2.791732 -0.289716 -1.777920
v -2.830260 3.131232 -1.760517
v -3.886168 3.131232 2.752610
v 0.828862 3.131580 1.431677
v -3.850120 -0.289716 2.691844
v -3.876930 3.131232 2.659154
v -2.824914 -0.289716 -1.690066
v -2.863442 3.131232 -1.672662
v 0.809346 3.131580 1.515096
v 0.809218 -0.289716 1.494708
v 2.529476 2.409482 -1.171832
v 2.894950 -0.289716 0.776340
v 2.568336 -0.289716 -1.212668
v 0.565598 -0.289716 -1.440410
v 0.562514 2.451932 -1.411568
v 2.866296 2.451932 0.780848
v 3.729996 -0.289716 -2.456238
v 3.722398 2.452224 -2.467986
v 2.842860 -0.289716 0.738412
v 2.814204 2.451932 0.742920
v 0.606060 -0.289716 -1.390258
v 0.602974 2.451932 -1.361416
v 3.752870 -0.289716 -2.434468
v 3.764980 2.452224 -2.427462
v 0.135888 1.741948 2.560068
v -1.976418 -0.289716 3.017452
v 0.181574 -0.289716 2.601186
v 0.369104 -0.289716 0.411428
v 0.337574 1.773870 0.408942
v -1.982200 1.773870 2.986356
v 1.584762 1.774089 3.820994
v -1.936656 -0.289716 2.959524
v -1.942438 1.773870 2.928430
v 0.315670 -0.289716 0.457048
v 0.284138 1.773870 0.454560
v 1.541884 1.774089 3.868634
v 1.549154 -0.289717 3.855224
v -1.170754 1.496012 -2.677116
v -3.678770 -0.289716 -1.642404
v -1.105168 -0.289716 -2.636472
v -1.360320 -0.289715 -5.383562
v -1.399828 1.524827 -5.379623
v -3.692828 1.524826 -1.679536
v 0.899636 1.525024 -1.441394
v -3.642524 -0.289716 -1.722812
v -3.656582 1.524826 -1.759944
v -1.416196 -0.289715 -5.315318
v -1.455704 1.524827 -5.311381
v 0.857254 1.525024 -1.373002
v 0.863254 -0.289716 -1.391186
v 1.914718 -0.289716 1.384148
v 0.819704 -0.289716 1.449894
v 1.572188 -0.289717 3.829630
v 0.886022 -0.289716 -1.427926
vt 0.609784 0.775840
vt 0.569103 0.749512
vt 0.610479 0.749512
vt 0.609887 0.774114
vt 0.569103 0.749512
vt 0.567834 0.775879
vt 0.609782 0.775879
vt 0.567834 0.775879
vt 0.651855 0.775879
vt 0.610436 0.751277
vt 0.569103 0.749512
vt 0.567834 0.775879
vt 0.569103 0.749512
vt 0.567834 0.775879
vt 0.651855 0.775879
vt 0.611868 0.749512
vt 0.651855 0.749512
vt 0.609784 0.775840
vt 0.569103 0.749512
vt 0.610479 0.749512
vt 0.609887 0.774114
vt 0.569103 0.749512
vt 0.567834 0.775879
vt 0.609782 0.775879
vt 0.567834 0.775879
vt 0.651855 0.775879
vt 0.610436 0.751277
vt 0.569103 0.749512
vt 0.567834 0.775879
vt 0.569103 0.749512
vt 0.567834 0.775879
vt 0.651855 0.775879
vt 0.611868 0.749512
vt 0.651855 0.749512
vt 0.609784 0.775840
vt 0.569103 0.749512
vt 0.610479 0.749512
vt 0.609887 0.774114
vt 0.569103 0.749512
vt 0.567834 0.775879
vt 0.609782 0.775879
vt 0.567834 0.775879
vt 0.651855 0.749512
vt 0.651855 0.775879
vt 0.569103 0.749512
vt 0.567834 0.775879
vt 0.569103 0.749512
vt 0.567834 0.775879
vt 0.651855 0.749512
vt 0.651855 0.775879
vt 0.609784 0.775840
vt 0.569103 0.749512
vt 0.610479 0.749512
vt 0.609887 0.774114
vt 0.569103 0.749512
vt 0.567834 0.775879
vt 0.609782 0.775879
vt 0.567834 0.775879
vt 0.651855 0.775879
vt 0.610436 0.751277
vt 0.569103 0.749512
vt 0.567834 0.775879
vt 0.569103 0.749512
vt 0.567834 0.775879
vt 0.651855 0.775879
vt 0.611868 0.749512
vt 0.651855 0.749512
vt 0.609784 0.775840
vt 0.569103 0.749512
vt 0.610479 0.749512
vt 0.609887 0.774114
vt 0.569103 0.749512
vt 0.567834 0.775879
vt 0.609782 0.775879
vt 0.567834 0.775879
vt 0.651855 0.775879
vt 0.610436 0.751277
vt 0.569103 0.749512
vt 0.567834 0.775879
vt 0.569103 0.749512
vt 0.567834 0.775879
vt 0.651855 0.775879
vt 0.611868 0.749512
vt 0.651855 0.749512
vt 0.651855 0.749512
vt 0.651855 0.749512
vt 0.610436 0.751277
vt 0.611868 0.749512
vt 0.651855 0.749512
vt 0.651855 0.749512
vn 0.1933 0.0198 0.9809
vn 0.1936 0.0195 0.9809
vn 0.1893 0.0240 0.9816
vn 0.9958 0.0198 0.0893
vn 0.9961 0.0240 0.0853
vn 0.9958 0.0195 0.0896
vn 0.9955 0.0152 0.0936
vn 0.1975 0.0152 0.9802
vn 0.6591 -0.0036 -0.7520
vn 0.6594 -0.0040 -0.7518
vn 0.6565 -0.0005 -0.7543
vn -0.1707 -0.0195 -0.9851
vn -0.1668 -0.0236 -0.9857
vn -0.1708 -0.0193 -0.9851
vn -0.1748 -0.0152 -0.9845
vn -0.9976 -0.0195 -0.0664
vn -0.9976 -0.0193 -0.0665
vn -0.9978 -0.0236 -0.0624
vn -0.9974 -0.0152 -0.0705
vn -0.6787 -0.0036 0.7344
vn -0.6784 -0.0040 0.7347
vn -0.6758 -0.0071 0.7370
vn 0.6427 0.0156 0.7660
vn 0.6421 0.0162 0.7665
vn 0.6392 0.0194 0.7688
vn 0.9158 0.0156 -0.4013
vn 0.9139 0.0194 -0.4055
vn 0.9155 0.0162 -0.4021
vn 0.9173 0.0124 -0.3979
vn 0.6456 0.0124 0.7636
vn 0.2145 -0.0026 -0.9767
vn 0.2158 -0.0036 -0.9764
vn 0.2115 -0.0004 -0.9774
vn -0.6249 -0.0153 -0.7806
vn -0.6213 -0.0191 -0.7833
vn -0.6242 -0.0161 -0.7811
vn -0.6277 -0.0124 -0.7784
vn -0.9063 -0.0153 0.4223
vn -0.9059 -0.0161 0.4231
vn -0.9044 -0.0191 0.4264
vn -0.9079 -0.0124 0.4191
vn -0.2411 -0.0026 0.9705
vn -0.2398 -0.0036 0.9708
vn -0.2368 -0.0058 0.9715
vn 0.9859 0.0130 -0.1669
vn 0.9861 0.0142 -0.1653
vn 0.9866 0.0167 -0.1620
vn 0.1179 0.0130 -0.9929
vn 0.1130 0.0167 -0.9935
vn 0.1163 0.0142 -0.9931
vn 0.1212 0.0106 -0.9926
vn 0.9854 0.0106 -0.1702
vn -0.7326 -0.0019 -0.6807
vn -0.7340 -0.0033 -0.6792
vn -0.7357 -0.0049 -0.6773
vn -0.9895 -0.0129 0.1441
vn -0.9901 -0.0164 0.1393
vn -0.9897 -0.0141 0.1425
vn -0.9890 -0.0106 0.1473
vn -0.0950 -0.0129 0.9954
vn -0.0933 -0.0141 0.9955
vn -0.0901 -0.0164 0.9958
vn -0.0982 -0.0106 0.9951
vn 0.7147 -0.0033 0.6994
vn 0.7161 -0.0019 0.6980
vn 0.7129 -0.0049 0.7013
vn 0.1933 0.0199 0.9809
vn 0.1936 0.0196 0.9809
vn 0.1893 0.0241 0.9816
vn 0.9958 0.0199 0.0893
vn 0.9961 0.0241 0.0853
vn 0.9958 0.0196 0.0896
vn 0.9955 0.0153 0.0936
vn 0.1975 0.0153 0.9802
vn -0.1706 -0.0196 -0.9851
vn -0.1668 -0.0237 -0.9857
vn -0.1708 -0.0194 -0.9851
vn -0.1747 -0.0153 -0.9845
vn -0.9976 -0.0196 -0.0663
vn -0.9976 -0.0194 -0.0665
vn -0.9978 -0.0237 -0.0624
vn -0.9974 -0.0153 -0.0705
vn -0.6784 -0.0040 0.7346
vn -0.6758 -0.0072 0.7370
vn 0.3630 0.0298 0.9313
vn 0.3650 0.0265 0.9306
vn 0.3601 0.0344 0.9323
vn 0.9955 0.0298 -0.0894
vn 0.9951 0.0344 -0.0924
vn 0.9958 0.0265 -0.0873
vn 0.9962 0.0219 -0.0842
vn 0.3679 0.0219 0.9296
vn 0.5162 -0.0063 -0.8564
vn 0.5151 -0.0046 -0.8571
vn 0.5125 -0.0007 -0.8587
vn -0.3415 -0.0293 -0.9394
vn -0.3386 -0.0338 -0.9403
vn -0.3434 -0.0264 -0.9388
vn -0.3463 -0.0219 -0.9379
vn -0.9932 -0.0293 0.1123
vn -0.9935 -0.0264 0.1103
vn -0.9928 -0.0338 0.1153
vn -0.9940 -0.0219 0.1073
vn -0.5372 -0.0063 0.8434
vn -0.5383 -0.0046 0.8427
vn -0.5346 -0.0102 0.8450
vn 0.6620 -0.0071 -0.7494
vn -0.6813 -0.0005 0.7320
vn 0.2188 -0.0058 -0.9758
vn -0.2440 -0.0004 0.9698
vn -0.7308 -0.0002 -0.6826
vn 0.7180 -0.0002 0.6961
vn 0.6620 -0.0072 -0.7494
vn 0.5188 -0.0102 -0.8548
vn -0.5409 -0.0007 0.8411
s 1
f 1/1/1 2/2/2 3/3/3
f 1/4/4 3/3/5 4/5/6
f 1/1/4 4/5/6 5/6/7
f 1/7/1 6/8/8 2/2/2
f 7/9/9 3/10/10 1/7/11
f 1/4/12 3/3/13 8/11/14
f 1/1/12 8/11/14 9/12/15
f 1/1/16 10/13/17 3/3/18
f 1/7/16 11/14/19 10/13/17
f 12/15/20 3/16/21 13/17/22
f 14/18/23 15/19/24 16/20/25
f 14/21/26 16/20/27 17/22/28
f 14/18/26 17/22/28 18/23/29
f 14/24/23 19/25/30 15/19/24
f 20/26/31 16/27/32 14/24/33
f 14/21/34 16/20/35 21/28/36
f 14/18/34 21/28/36 22/29/37
f 14/18/38 23/30/39 16/20/40
f 14/24/38 24/31/41 23/30/39
f 25/32/42 16/33/43 26/34/44
f 27/35/45 28/36/46 29/37/47
f 27/38/48 29/37/49 30/39/50
f 27/35/48 30/39/50 31/40/51
f 27/41/45 32/42/52 28/36/46
f 33/43/53 27/41/54 34/44/55
f 27/38/56 29/37/57 35/45/58
f 27/35/56 35/45/58 36/46/59
f 27/35/60 37/47/61 29/37/62
f 27/41/60 38/48/63 37/47/61
f 27/41/64 39/49/65 40/50/66
f 41/51/67 42/52/68 43/53/69
f 41/54/70 43/53/71 44/55/72
f 41/51/70 44/55/72 45/56/73
f 41/57/67 46/58/74 42/52/68
f 47/59/9 43/60/10 41/57/11
f 41/54/75 43/53/76 48/61/77
f 41/51/75 48/61/77 49/62/78
f 41/51/79 50/63/80 43/53/81
f 41/57/79 51/64/82 50/63/80
f 52/65/20 43/66/83 53/67/84
f 54/68/85 55/69/86 56/70/87
f 54/71/88 56/70/89 57/72/90
f 54/68/88 57/72/90 58/73/91
f 54/74/85 59/75/92 55/69/86
f 60/76/93 56/77/94 54/74/95
f 54/71/96 56/70/97 61/78/98
f 54/68/96 61/78/98 62/79/99
f 54/68/100 63/80/101 56/70/102
f 54/74/100 64/81/103 63/80/101
f 65/82/104 56/83/105 66/84/106
f 7/9/9 67/85/107 3/10/10
f 12/15/20 1/7/108 3/16/21
f 20/26/31 68/86/109 16/27/32
f 25/32/42 14/24/110 16/33/43
f 33/43/53 29/87/111 27/41/54
f 27/41/64 29/88/112 39/49/65
f 47/59/9 69/89/113 43/60/10
f 52/65/20 41/57/108 43/66/83
f 60/76/93 70/90/114 56/77/94
f 65/82/104 54/74/115 56/83/105
