# Blender v2.90.0 Alpha OBJ File: 'Props.blend'
# www.blender.org
o Detail_Cube.025
v 2.687706 0.000000 0.245295
v 2.687706 0.000000 -0.245296
v -2.687706 0.000000 0.245296
v -2.687706 0.000000 -0.245295
v -2.016275 0.000000 0.245295
v -2.016275 6.661300 0.245295
v -2.016275 0.000000 -0.245295
v -2.016275 6.661300 -0.245295
v 2.016275 0.000000 0.245295
v 2.016275 6.661300 0.245295
v 2.016275 0.000000 -0.245295
v 2.016275 6.661300 -0.245295
v 2.687706 7.385048 0.245295
v 2.687706 7.385048 -0.245296
v -2.687706 7.385048 0.245296
v -2.687706 7.385048 -0.245295
vt 0.520613 0.806886
vt 0.520613 0.806886
vt 0.520613 0.806886
vt 0.520613 0.806886
vt 0.520613 0.806886
vt 0.520613 0.806886
vt 0.520613 0.806886
vt 0.520613 0.806886
vt 0.520613 0.806886
vt 0.520613 0.806886
vt 0.520613 0.806886
vt 0.520613 0.806886
vt 0.520613 0.806886
vt 0.520613 0.806886
vt 0.520613 0.806886
vt 0.520613 0.806886
vn 1.0000 0.0000 0.0000
vn 0.0000 -0.0000 1.0000
vn 0.0000 -1.0000 0.0000
vn -1.0000 0.0000 0.0000
vn -0.0000 0.0000 -1.0000
vn 0.0000 1.0000 0.0000
s off
f 1/1/1 2/2/1 14/3/1 13/4/1
f 10/5/2 13/4/2 15/6/2 6/7/2
f 3/8/3 4/9/3 7/10/3 5/11/3
f 15/6/4 16/12/4 4/9/4 3/8/4
f 16/12/5 8/13/5 7/10/5 4/9/5
f 3/8/2 5/11/2 6/7/2 15/6/2
f 14/3/5 2/2/5 11/14/5 12/15/5
f 1/1/2 13/4/2 10/5/2 9/16/2
f 1/1/3 9/16/3 11/14/3 2/2/3
f 9/16/4 10/5/4 12/15/4 11/14/4
f 7/10/1 8/13/1 6/7/1 5/11/1
f 13/4/6 14/3/6 16/12/6 15/6/6
f 14/3/5 12/15/5 8/13/5 16/12/5
f 12/15/3 10/5/3 6/7/3 8/13/3
