# Blender v2.91.0 Beta OBJ File: 'HOUSE02.blend'
# www.blender.org
o alumsiding01.019_tree.002_tree.005_alumsiding01.019_tree.003_alumsiding01.019_tree.002_tree.005_alumsiding01.019_tree.008
v -23.641714 5.463934 5.454588
v -33.422127 5.440656 7.798552
v -21.183609 5.440659 7.843932
v -23.641714 5.463939 -5.777971
v -33.422127 5.440659 -8.131060
v -21.183609 5.440659 -8.113726
v -47.179405 5.440659 -8.055076
v -43.202545 5.463934 5.454588
v -43.202545 5.463939 -5.777971
v -33.422127 5.463934 5.454588
v -33.422127 5.463936 -5.785982
v -21.183609 7.372752 7.798553
v -21.183609 7.372755 -8.113726
v -47.207970 7.372752 7.798553
v -47.207970 5.440656 7.798552
v -47.179405 7.372755 -8.055076
v -44.596237 10.676678 -5.843411
v -33.240520 10.676678 -6.930544
v -33.240829 10.676678 -5.843411
v -45.898018 10.676676 6.598610
v -44.596237 10.676676 5.511993
v -33.240520 10.676676 6.598610
v -33.240829 10.676676 5.511993
v -21.808304 10.676676 5.511993
v -21.808304 10.676676 6.598610
v -21.808304 10.676683 -6.920904
v -21.808304 10.676682 -5.835319
v -45.898018 10.676678 -6.930544
v -45.898018 11.425234 -0.164360
v -33.240520 11.425234 -0.164360
v -21.808304 11.425234 -0.164360
v -10.367542 10.676678 -5.843411
v -21.808304 10.676678 -6.930544
v -10.367233 10.676678 -6.930544
v -10.367542 10.676676 5.511993
v -10.367233 10.676676 6.598610
v 0.000000 10.676676 5.511993
v 0.000000 10.676676 6.598610
v 0.000000 10.676682 -6.922642
v 0.000000 10.676682 -5.836018
v -10.367233 11.425234 -0.164360
v 0.000000 11.425234 -0.164360
v 43.202545 5.463934 5.454588
v 47.179405 5.440659 -8.055076
v 43.202545 5.463939 -5.777971
v 33.422127 5.440659 -8.131060
v -21.183609 5.440656 7.798552
v -9.791969 5.463934 5.454588
v -21.183609 5.463934 5.454588
v -21.183609 5.440659 -8.055076
v -9.791969 5.463936 -5.785982
v -21.183609 5.463939 -5.777971
v 21.183609 5.440659 -8.113726
v 23.641714 5.463934 5.454588
v 23.641714 5.463939 -5.777971
v -9.791969 5.440656 7.798552
v 0.000000 7.372752 7.798553
v 0.000000 5.440658 7.830719
v -9.791969 5.440659 -8.131060
v 0.000000 7.372755 -8.118783
v 0.000000 5.440659 -8.118783
v -21.183609 7.372755 -8.055076
v 21.183609 7.372755 -8.113726
v 21.183609 7.372752 7.798553
v 33.422127 5.440656 7.798552
v 21.183609 5.440659 7.843932
v -0.011557 5.463939 -5.777971
v -0.011557 5.463934 5.454588
v 0.000000 5.463872 -5.784644
v 33.422127 5.463934 5.454588
v 33.422127 5.463936 -5.785982
v 47.207970 5.440656 7.798552
v 47.207970 7.372752 7.798553
v 47.179405 7.372755 -8.055076
v 33.240520 10.676678 -6.930544
v 44.596237 10.676678 -5.843411
v 33.240829 10.676678 -5.843411
v 45.898018 10.676676 6.598610
v 44.596237 10.676676 5.511993
v 33.240520 10.676676 6.598610
v 33.240829 10.676676 5.511993
v 21.808304 10.676676 5.511993
v 21.808304 10.676683 -6.920904
v 21.808304 10.676682 -5.835319
v 45.898018 11.425234 -0.164360
v 45.898018 10.676678 -6.930544
v 33.240520 11.425234 -0.164360
v 21.808304 11.425234 -0.164360
v 21.808304 10.676676 6.598610
v 10.367542 10.676678 -5.843411
v 21.808304 10.676678 -6.930544
v 21.808304 10.676678 -5.843411
v 10.367542 10.676676 5.511993
v 10.367233 10.676676 6.598610
v 10.367233 11.425234 -0.164360
v 10.367233 10.676678 -6.930544
v 9.791969 5.463934 5.454588
v 21.183609 5.440656 7.798552
v 21.183609 5.463934 5.454588
v 9.791969 5.463936 -5.785982
v 21.183609 5.440659 -8.055076
v 21.183609 5.463939 -5.777971
v 9.791969 5.440656 7.798552
v 9.791969 5.440659 -8.131060
v 21.183609 7.372755 -8.055076
v 0.011557 5.463939 -5.777971
v 0.011557 5.463934 5.454588
v -33.422127 7.372752 7.798553
v -33.422127 7.372755 -8.131060
v -21.808304 10.676678 -5.843411
v -9.791969 7.372752 7.798553
v -9.791969 7.372755 -8.131060
v 33.422127 7.372755 -8.131060
v 33.422127 7.372752 7.798553
v 0.000000 5.463867 5.461433
v 9.791969 7.372752 7.798553
v 9.791969 7.372755 -8.131060
v -44.685608 -0.038095 -5.888123
v -44.685608 5.355916 5.556680
v -44.685608 5.355922 -5.888122
v -21.804167 5.355917 5.556680
v -33.240807 -0.038097 5.556679
v -21.804167 -0.038097 5.556679
v -44.685608 -0.038097 5.556679
v -21.804167 -0.038092 -5.879967
v -33.240807 5.355919 -5.888122
v -33.240807 -0.038095 -5.888123
v -44.685608 10.749933 5.556681
v -44.685608 10.749935 -5.888121
v -33.240807 5.355920 5.556680
v -21.804167 5.355925 -5.879966
v 0.000000 5.355917 5.556680
v -10.367521 -0.038097 5.556679
v 0.000000 -0.038097 5.556679
v -21.812323 5.355916 5.556680
v -21.812323 -0.038097 5.556679
v 44.685608 5.355916 5.556680
v 33.240807 -0.038097 5.556679
v 44.685608 -0.038097 5.556679
v 0.000000 -0.038092 -5.880729
v -10.367521 5.355919 -5.888122
v -10.367521 -0.038095 -5.888123
v -21.812323 5.355922 -5.888122
v -21.812323 -0.038095 -5.888123
v -10.367521 5.355920 5.556680
v -21.808304 10.749933 5.556681
v 44.685608 10.749933 5.556681
v 44.685608 5.355922 -5.888122
v 44.685608 10.749935 -5.888121
v 0.000000 5.355924 -5.880728
v -21.808304 10.749935 -5.888121
v 33.240807 5.355920 5.556680
v 33.240807 5.355919 -5.888122
v 21.804167 5.355917 5.556680
v 21.808304 10.749933 5.556681
v 21.804167 5.355925 -5.879966
v 21.808304 10.749939 -5.879965
v 21.804167 -0.038092 -5.879967
v 33.240807 -0.038095 -5.888123
v 44.685608 -0.038095 -5.888123
v 21.804167 -0.038097 5.556679
v 10.367521 -0.038097 5.556679
v 21.812323 5.355916 5.556680
v 21.812323 -0.038097 5.556679
v 10.367521 5.355919 -5.888122
v 21.812323 5.355922 -5.888122
v 10.367521 -0.038095 -5.888123
v 21.812323 -0.038095 -5.888123
v 0.000000 10.743085 5.552503
v 10.367521 5.355920 5.556680
v 0.000000 10.743091 -5.876548
v -21.808304 10.749939 -5.879965
v 21.808304 10.749935 -5.888121
vt 0.098220 0.157954
vt 0.098220 0.157954
vt 0.098220 0.157954
vt 0.098220 0.157954
vt 0.098220 0.157954
vt 0.098220 0.157954
vt 0.098220 0.157954
vt 0.098220 0.157954
vt 0.098220 0.157954
vt 0.098220 0.157954
vt 0.098220 0.157954
vt 0.098220 0.157954
vt 0.098220 0.157954
vt 0.984875 0.540888
vt 0.751783 0.500109
vt 0.751783 0.540888
vt 0.751783 0.540888
vt 0.984875 0.500109
vt 0.984875 0.540888
vt 0.751783 0.540888
vt 0.984875 0.500109
vt 0.751783 0.500109
vt 0.984875 0.500109
vt 0.984875 0.540888
vt 0.048828 0.866211
vt 0.048828 0.866211
vt 0.048828 0.866211
vt 0.048828 0.866211
vt 0.048828 0.866211
vt 0.048828 0.866211
vt 0.048828 0.866211
vt 0.048828 0.866211
vt 0.048828 0.866211
vt 0.048828 0.866211
vt 0.048828 0.866211
vt 0.048828 0.866211
vt 0.048828 0.866211
vt 0.048828 0.866211
vt 0.048828 0.866211
vt 0.048828 0.866211
vt 0.048828 0.866211
vt 0.048828 0.866211
vt 0.048828 0.866211
vt 0.048828 0.866211
vt 0.048828 0.866211
vt 0.048828 0.866211
vt 0.048828 0.866211
vt 0.048828 0.866211
vt 0.048828 0.866211
vt 0.048828 0.866211
vt 0.048828 0.866211
vt 0.048828 0.866211
vt 0.984875 0.500109
vt 0.751783 0.540888
vt 0.984875 0.540888
vt 0.048828 0.866211
vt 0.048828 0.866211
vt 0.048828 0.866211
vt 0.048828 0.866211
vt 0.048828 0.866211
vt 0.048828 0.866211
vt 0.048828 0.866211
vt 0.048828 0.866211
vt 0.048828 0.866211
vt 0.984875 0.500109
vt 0.751783 0.540888
vt 0.984875 0.540888
vt 0.098220 0.157954
vt 0.098220 0.157954
vt 0.098220 0.157954
vt 0.098220 0.157954
vt 0.048828 0.866211
vt 0.098220 0.157954
vt 0.098220 0.157954
vt 0.098220 0.157954
vt 0.098220 0.157954
vt 0.098220 0.157954
vt 0.751783 0.500109
vt 0.751783 0.540888
vt 0.098220 0.157954
vt 0.098220 0.157954
vt 0.098220 0.157954
vt 0.048828 0.866211
vt 0.751783 0.540888
vt 0.916870 0.500109
vt 0.751783 0.500109
vt 0.098220 0.157954
vt 0.098220 0.157954
vt 0.098220 0.157954
vt 0.098220 0.157954
vt 0.098220 0.157954
vt 0.098220 0.157954
vt 0.098220 0.157954
vt 0.751783 0.540888
vt 0.984875 0.500109
vt 0.751783 0.500109
vt 0.048828 0.866211
vt 0.048828 0.866211
vt 0.048828 0.866211
vt 0.098220 0.157954
vt 0.098220 0.157954
vt 0.098220 0.157954
vt 0.048828 0.866211
vt 0.048828 0.866211
vt 0.984875 0.500109
vt 0.751783 0.540888
vt 0.751783 0.500109
vt 0.048828 0.866211
vt 0.048828 0.866211
vt 0.048828 0.866211
vt 0.048828 0.866211
vt 0.098220 0.157954
vt 0.984875 0.540888
vt 0.984875 0.500109
vt 0.984875 0.540888
vt 0.098220 0.157954
vt 0.098220 0.157954
vt 0.098220 0.157954
vt 0.751783 0.500109
vt 0.917347 0.540888
vt 0.984875 0.500109
vt 0.751783 0.540888
vt 0.751783 0.500109
vt 0.916870 0.540888
vt 0.098220 0.157954
vt 0.098220 0.157954
vt 0.098220 0.157954
vt 0.098220 0.157954
vt 0.098220 0.157954
vt 0.098220 0.157954
vt 0.098220 0.157954
vt 0.984875 0.500109
vt 0.751783 0.500109
vt 0.984875 0.500109
vt 0.984875 0.540888
vt 0.751783 0.500109
vt 0.984875 0.500109
vt 0.098220 0.157954
vt 0.984875 0.540888
vt 0.098220 0.157954
vt 0.917006 0.500109
vt 0.048828 0.866211
vt 0.984875 0.540888
vt 0.173764 0.156238
vt 0.007417 0.213760
vt 0.007417 0.156238
vt 0.190918 0.156238
vt 0.007417 0.213760
vt 0.190918 0.213760
vt 0.007417 0.213760
vt 0.173764 0.156238
vt 0.007417 0.156238
vt 0.190918 0.156238
vt 0.007417 0.213760
vt 0.007417 0.156238
vt 0.190918 0.156238
vt 0.007417 0.213760
vt 0.007417 0.156238
vt 0.190918 0.156238
vt 0.007417 0.213760
vt 0.190918 0.213760
vt 0.190918 0.156238
vt 0.007417 0.156238
vt 0.190918 0.156238
vt 0.007417 0.213760
vt 0.190918 0.213760
vt 0.190918 0.156238
vt 0.007417 0.213760
vt 0.007417 0.156238
vt 0.190918 0.156238
vt 0.190918 0.213760
vt 0.190918 0.156238
vt 0.190918 0.213760
vt 0.007417 0.213760
vt 0.190918 0.156238
vt 0.190918 0.213760
vt 0.190918 0.213760
vt 0.007417 0.156238
vt 0.007417 0.213760
vt 0.173764 0.213760
vt 0.007417 0.156238
vt 0.173764 0.156238
vt 0.007417 0.213760
vt 0.190918 0.156238
vt 0.007417 0.156238
vt 0.007417 0.213760
vt 0.173764 0.213760
vt 0.190918 0.156238
vt 0.007417 0.213760
vt 0.190918 0.213760
vt 0.007417 0.213760
vt 0.007417 0.156238
vt 0.190918 0.156238
vt 0.007417 0.213760
vt 0.190918 0.213760
vt 0.190918 0.156238
vt 0.007417 0.156238
vt 0.190918 0.156238
vt 0.007417 0.156238
vt 0.190918 0.156238
vt 0.007417 0.213760
vt 0.007417 0.156238
vt 0.190918 0.156238
vt 0.007417 0.156238
vt 0.190918 0.156238
vt 0.190918 0.213760
vt 0.007417 0.156238
vt 0.190918 0.156238
vt 0.007417 0.156238
vt 0.190918 0.156238
vt 0.007417 0.213760
vt 0.173764 0.213760
vt 0.007417 0.213760
vt 0.007417 0.156238
vt 0.007417 0.213760
vt 0.190918 0.156238
vt 0.190918 0.213760
vt 0.190918 0.156238
vt 0.190918 0.213760
vt 0.173764 0.156238
vt 0.007417 0.156238
vt 0.190918 0.156238
vt 0.190918 0.213760
vt 0.007417 0.213760
vt 0.173764 0.213760
vt 0.190918 0.156238
vt 0.007417 0.156238
vt 0.190918 0.213760
vt 0.190918 0.213760
vt 0.190918 0.213760
vt 0.190918 0.213760
vt 0.190918 0.213760
vt 0.190918 0.213760
vt 0.190918 0.213760
vt 0.190918 0.213760
vt 0.007417 0.156238
vt 0.190918 0.213760
vn -0.0000 1.0000 0.0098
vn -0.0000 -1.0000 0.0100
vn 0.0059 1.0000 0.0000
vn 0.0000 1.0000 0.0099
vn 0.0000 -1.0000 0.0099
vn 0.0095 1.0000 0.0000
vn 0.0112 -0.0042 0.9999
vn 0.0019 0.0118 0.9999
vn -0.0018 -0.0117 0.9999
vn -0.0055 0.0000 -1.0000
vn 0.0055 0.0000 -1.0000
vn -0.0014 0.0000 -1.0000
vn 0.0000 0.9939 -0.1100
vn 0.0000 -1.0000 0.0000
vn -0.0000 1.0000 0.0000
vn 1.0000 -0.0000 0.0000
vn 0.0000 0.9939 0.1100
vn -0.0001 0.9939 -0.1100
vn 0.0000 -0.0000 1.0000
vn 0.0000 0.9939 -0.1101
vn 1.0000 0.0000 -0.0018
vn -0.0058 1.0000 0.0000
vn -0.0001 -0.9999 0.0101
vn -0.0095 1.0000 0.0000
vn 0.0031 -0.0115 0.9999
vn 0.0032 0.0115 0.9999
vn 0.0018 -0.0117 0.9999
vn 0.0013 0.0000 -1.0000
vn -0.0059 1.0000 0.0000
vn 0.0067 0.0000 -1.0000
vn -1.0000 -0.0000 0.0000
vn -1.0000 0.0000 -0.0018
vn -0.0067 0.0000 -1.0000
vn 0.0000 -0.9999 0.0102
vn 0.0001 -0.9999 0.0106
vn -0.0001 -0.9999 0.0106
vn 0.0028 -0.0080 1.0000
vn 0.0017 0.0083 1.0000
vn 0.0016 -0.0083 1.0000
vn -0.0013 0.0000 -1.0000
vn 0.0058 1.0000 0.0000
vn 0.0001 -0.9999 0.0101
vn -0.0001 -1.0000 0.0099
vn 0.0001 -1.0000 0.0099
vn 0.0077 -0.0037 1.0000
vn -0.0016 -0.0083 1.0000
vn 0.0014 0.0000 -1.0000
vn 0.0018 0.0117 0.9999
vn 0.0056 0.0352 0.9994
vn -0.0075 0.0277 0.9996
vn 0.0001 0.9939 -0.1100
vn -0.0069 0.0120 0.9999
vn -0.0056 0.0352 0.9994
vn -0.0068 0.0350 0.9994
vn -0.0050 0.0083 1.0000
vn -0.0049 0.0250 0.9997
vn -0.0061 0.0247 0.9997
vn -0.0004 -0.9999 0.0101
vn 0.0016 0.0083 1.0000
vn 0.0049 0.0250 0.9997
vn -0.0044 0.0203 0.9998
vn 0.0005 0.0013 1.0000
vn -0.0001 0.0077 1.0000
vn 0.0000 0.0062 1.0000
vn -0.0000 0.0000 -1.0000
vn -0.0004 0.0063 -1.0000
vn -0.0019 0.0002 -1.0000
vn -0.0009 0.0060 1.0000
vn -0.4919 0.7183 -0.4920
vn 0.0004 0.0063 -1.0000
vn 0.0004 0.0000 -1.0000
vn -0.9986 0.0006 0.0520
vn 0.4920 0.7183 -0.4919
vn 0.4726 0.7439 -0.4725
vn -0.0007 0.0000 -1.0000
vn -0.0004 0.0000 -1.0000
vn -0.0003 0.0077 -1.0000
vn -0.0058 -0.0041 -1.0000
vn -0.0018 0.0003 1.0000
vn 0.0000 0.0079 1.0000
vn -0.0000 0.0063 1.0000
vn 0.0018 0.0003 1.0000
vn 0.0058 -0.0042 1.0000
vn -0.0019 0.0002 1.0000
vn 0.4978 0.7082 -0.5006
vn -0.0002 0.0011 -1.0000
vn 0.0001 0.0077 1.0000
vn -0.0000 -0.0030 1.0000
vn -0.0004 0.0079 -1.0000
vn -0.0009 0.0061 1.0000
vn 0.0058 -0.0041 1.0000
vn 0.0011 0.0003 -1.0000
vn 0.0004 0.0079 -1.0000
vn -0.0011 0.0003 -1.0000
vn -0.0051 -0.0041 -1.0000
vn 0.0024 0.0042 -1.0000
vn -0.5000 -0.7082 -0.4984
vn 0.0007 0.0000 -1.0000
vn 0.0019 0.0002 1.0000
vn 0.0003 0.0077 -1.0000
vn -0.0000 -0.0031 -1.0000
vn 0.0019 0.0002 -1.0000
vn -0.0058 -0.0041 1.0000
vn 0.0051 -0.0041 -1.0000
vn -0.0058 -0.0042 1.0000
vn 0.0058 -0.0041 -1.0000
s off
f 1/1/1 2/2/1 3/3/1
f 4/4/2 5/5/2 6/6/2
f 43/7/3 44/8/3 45/9/3
f 8/10/4 2/2/4 10/11/4
f 9/12/5 5/5/5 11/13/5
f 1/1/6 6/6/6 4/4/6
f 64/14/7 65/15/8 114/16/9
f 109/17/10 7/18/10 16/19/10
f 113/20/11 44/21/11 46/22/11
f 113/20/12 53/23/12 63/24/12
f 31/25/13 34/26/13 33/27/13
f 17/28/14 18/29/14 19/30/14
f 78/31/15 76/32/15 79/33/15
f 21/34/15 22/35/15 23/36/15
f 82/37/15 80/38/15 81/39/15
f 83/40/14 77/41/14 84/42/14
f 20/43/16 28/44/16 29/45/16
f 88/46/13 96/47/13 95/48/13
f 38/49/17 95/48/17 42/50/17
f 83/40/18 87/51/18 75/52/18
f 47/53/19 111/54/19 12/55/19
f 90/56/14 91/57/14 92/58/14
f 39/59/20 41/60/20 42/50/20
f 93/61/15 89/62/15 82/37/15
f 19/30/14 26/63/14 27/64/14
f 72/65/19 114/16/19 65/15/19
f 22/35/17 29/45/17 20/43/17
f 39/59/18 95/48/18 96/47/18
f 72/65/21 74/66/21 73/67/21
f 69/68/22 107/69/22 106/70/22
f 45/9/23 46/71/23 44/8/23
f 85/72/13 75/52/13 87/51/13
f 107/69/4 103/73/4 97/74/4
f 53/75/24 54/76/24 55/77/24
f 2/78/25 12/55/26 108/79/27
f 56/80/4 49/81/4 47/82/4
f 38/49/17 41/60/17 36/83/17
f 112/84/28 61/85/28 59/86/28
f 80/38/17 85/72/17 87/51/17
f 7/87/29 8/10/29 9/12/29
f 106/70/5 104/88/5 100/89/5
f 17/28/15 20/43/15 21/34/15
f 54/76/4 65/90/4 70/91/4
f 55/77/5 46/71/5 71/92/5
f 43/7/4 65/90/4 72/93/4
f 117/94/30 101/95/30 104/96/30
f 25/97/17 30/98/17 22/35/17
f 75/52/14 76/32/14 77/41/14
f 80/38/15 79/33/15 81/39/15
f 35/99/15 25/97/15 36/83/15
f 67/100/5 59/101/5 61/102/5
f 78/31/31 85/72/31 86/103/31
f 36/83/17 31/25/17 25/97/17
f 29/45/13 18/29/13 28/44/13
f 39/59/14 90/56/14 40/104/14
f 15/105/32 16/106/32 7/107/32
f 37/108/15 94/109/15 93/61/15
f 24/110/15 22/35/15 25/97/15
f 37/108/15 36/83/15 38/49/15
f 32/111/14 39/59/14 40/104/14
f 103/73/4 99/112/4 97/74/4
f 15/105/19 108/79/19 14/113/19
f 26/63/20 30/98/20 31/25/20
f 112/84/33 50/114/33 62/115/33
f 89/62/17 87/51/17 88/46/17
f 50/116/34 51/117/35 52/118/36
f 56/119/37 57/120/38 111/54/39
f 98/121/19 116/122/19 103/123/19
f 94/109/17 88/46/17 95/48/17
f 117/94/40 61/85/40 60/124/40
f 100/89/34 101/125/35 102/126/35
f 68/127/41 69/68/41 67/100/41
f 68/127/1 56/80/1 58/128/1
f 1/1/4 10/11/4 2/2/4
f 4/4/5 11/13/5 5/5/5
f 8/10/4 15/129/4 2/2/4
f 9/12/42 7/87/42 5/5/42
f 1/1/6 3/3/6 6/6/6
f 17/28/14 28/44/14 18/29/14
f 21/34/15 20/43/15 22/35/15
f 45/9/5 71/92/5 46/71/5
f 53/75/24 66/130/24 54/76/24
f 69/68/43 67/100/43 61/102/43
f 115/131/1 68/127/1 58/128/1
f 54/76/1 66/130/1 65/90/1
f 55/77/2 53/75/2 46/71/2
f 43/7/4 70/91/4 65/90/4
f 75/52/14 86/103/14 76/32/14
f 80/38/15 78/31/15 79/33/15
f 106/70/44 69/68/44 61/102/44
f 107/69/1 115/131/1 58/128/1
f 32/111/14 33/27/14 34/26/14
f 57/120/45 103/123/38 116/122/46
f 109/17/47 6/132/47 5/133/47
f 43/7/41 72/93/41 44/8/41
f 64/14/48 66/134/49 65/15/50
f 109/17/10 5/133/10 7/18/10
f 113/20/11 74/135/11 44/21/11
f 113/20/12 46/22/12 53/23/12
f 31/25/13 41/60/13 34/26/13
f 78/31/15 86/103/15 76/32/15
f 82/37/15 89/62/15 80/38/15
f 83/40/14 75/52/14 77/41/14
f 88/46/13 91/57/13 96/47/13
f 38/49/17 94/109/17 95/48/17
f 83/40/20 88/46/20 87/51/20
f 47/53/19 56/119/19 111/54/19
f 90/56/14 96/47/14 91/57/14
f 39/59/51 34/26/51 41/60/51
f 93/61/15 94/109/15 89/62/15
f 19/30/14 18/29/14 26/63/14
f 72/65/19 73/67/19 114/16/19
f 22/35/17 30/98/17 29/45/17
f 39/59/20 42/50/20 95/48/20
f 72/65/21 44/136/21 74/66/21
f 69/68/22 115/131/22 107/69/22
f 85/72/13 86/103/13 75/52/13
f 107/69/1 58/128/1 103/73/1
f 2/78/52 3/137/53 12/55/54
f 56/80/4 48/138/4 49/81/4
f 38/49/17 42/50/17 41/60/17
f 112/84/28 60/124/28 61/85/28
f 80/38/17 78/31/17 85/72/17
f 7/87/22 15/129/22 8/10/22
f 106/70/5 61/102/5 104/88/5
f 17/28/15 28/44/15 20/43/15
f 117/94/30 105/139/30 101/95/30
f 25/97/17 31/25/17 30/98/17
f 35/99/15 24/110/15 25/97/15
f 67/100/5 51/117/5 59/101/5
f 36/83/17 41/60/17 31/25/17
f 29/45/13 30/98/13 18/29/13
f 39/59/14 96/47/14 90/56/14
f 15/105/32 14/113/32 16/106/32
f 37/108/15 38/49/15 94/109/15
f 24/110/15 23/36/15 22/35/15
f 37/108/15 35/99/15 36/83/15
f 32/111/14 34/26/14 39/59/14
f 103/73/4 98/140/4 99/112/4
f 15/105/19 2/78/19 108/79/19
f 26/63/51 18/29/51 30/98/51
f 112/84/33 59/86/33 50/114/33
f 89/62/17 80/38/17 87/51/17
f 50/116/44 59/101/44 51/117/34
f 56/119/55 58/141/56 57/120/57
f 98/121/19 64/14/19 116/122/19
f 94/109/17 89/62/17 88/46/17
f 117/94/40 104/96/40 61/85/40
f 100/89/43 104/88/43 101/125/58
f 68/127/41 115/131/41 69/68/41
f 68/127/4 48/138/4 56/80/4
f 32/111/14 110/142/14 33/27/14
f 57/120/59 58/141/60 103/123/61
f 109/17/47 13/143/47 6/132/47
s 1
f 132/144/62 35/145/63 145/146/64
f 168/147/65 165/148/66 166/149/67
f 170/150/68 134/151/19 162/152/19
f 118/153/69 126/154/70 127/155/71
f 124/156/31 120/157/72 118/158/69
f 160/159/73 153/160/66 148/161/74
f 158/162/75 153/160/66 159/163/76
f 166/164/67 90/165/77 173/166/78
f 137/167/79 81/168/80 152/169/81
f 154/170/82 81/168/80 155/171/83
f 170/150/68 164/172/19 163/173/84
f 152/174/81 139/175/19 137/176/79
f 147/177/16 148/178/74 149/179/85
f 150/180/86 167/181/76 140/182/65
f 145/183/64 136/184/19 133/185/19
f 132/144/62 93/186/87 169/187/88
f 148/188/74 77/189/89 149/190/85
f 130/191/90 124/156/19 122/192/19
f 119/193/82 23/194/80 128/195/91
f 156/196/92 77/189/89 153/197/66
f 163/198/84 93/186/87 170/199/68
f 120/200/72 19/201/93 126/202/70
f 121/203/79 23/194/80 130/204/90
f 131/205/94 19/201/93 172/206/95
f 142/207/71 150/180/86 140/182/65
f 152/174/81 161/208/19 138/209/19
f 144/210/65 141/211/96 142/207/71
f 145/183/64 134/151/19 132/212/62
f 139/175/16 148/213/74 137/176/16
f 120/214/72 128/195/31 129/215/97
f 125/216/98 126/154/70 131/217/94
f 130/191/90 123/218/19 121/219/79
f 150/220/86 90/165/77 165/221/66
f 135/222/99 35/145/63 146/223/91
f 150/220/86 32/224/100 171/225/101
f 143/226/102 32/224/100 141/227/96
f 132/144/62 169/187/88 35/145/63
f 168/147/65 167/181/76 165/148/66
f 170/150/68 132/212/62 134/151/19
f 118/153/69 120/228/72 126/154/70
f 124/156/31 119/229/31 120/157/72
f 160/159/73 159/163/76 153/160/66
f 158/162/75 156/230/92 153/160/66
f 166/164/67 165/221/66 90/165/77
f 137/167/79 147/177/103 81/168/80
f 154/170/82 152/169/81 81/168/80
f 170/150/68 162/152/19 164/172/19
f 152/174/81 138/209/19 139/175/19
f 147/177/16 137/167/16 148/178/74
f 150/180/86 165/148/66 167/181/76
f 145/183/64 135/231/99 136/184/19
f 132/144/62 170/199/68 93/186/87
f 148/188/74 153/197/66 77/189/89
f 130/191/90 119/229/82 124/156/19
f 119/193/82 130/204/90 23/194/80
f 156/196/92 157/232/104 77/189/89
f 163/198/84 155/171/103 93/186/87
f 120/200/72 129/233/97 19/201/93
f 121/203/79 146/223/105 23/194/80
f 131/205/94 126/202/70 19/201/93
f 142/207/71 141/211/96 150/180/86
f 152/174/81 154/234/82 161/208/19
f 144/210/65 143/235/102 141/211/96
f 145/183/64 133/185/19 134/151/19
f 139/175/16 160/236/73 148/213/74
f 120/214/72 119/193/31 128/195/31
f 125/216/98 127/155/71 126/154/70
f 130/191/90 122/192/19 123/218/19
f 150/220/86 171/225/101 90/165/77
f 135/222/99 145/146/64 35/145/63
f 150/220/86 141/227/96 32/224/100
f 143/226/102 151/237/106 32/224/100
