# Blender v2.91.0 Beta OBJ File: 'HOUSE02.blend'
# www.blender.org
o tree.002_tree.008_tree.002_tree.010
v 1.406960 0.451875 0.335871
v 0.711926 0.451876 -0.359164
v 0.711926 0.451875 0.335871
v 1.588185 1.201367 -0.359164
v 1.406960 0.451876 -0.359164
v 0.711926 0.436896 0.335871
v 1.406960 -0.086218 0.335871
v 1.406960 0.436896 0.335871
v 1.406960 0.436897 -0.359164
v 0.711926 -0.086217 -0.359164
v 0.711926 0.436897 -0.359164
v -1.351662 0.451876 -0.352756
v -0.656628 0.451875 0.342279
v -0.656628 0.451876 -0.352756
v -1.532888 1.201366 0.342279
v -1.351662 0.451875 0.342279
v -0.656628 0.436897 -0.352756
v -1.351662 -0.086217 -0.352756
v -1.351662 0.436897 -0.352756
v -1.351662 0.436896 0.342279
v -0.656628 -0.086218 0.342279
v -0.656628 0.436896 0.342279
v -0.620945 0.625538 0.355756
v -0.002962 0.625537 0.712550
v 0.615024 0.625538 0.355756
v -0.722925 0.618219 -0.416709
v -0.002962 0.625538 -0.714626
v -0.002962 0.618219 -0.832381
v -0.722925 0.618218 0.414633
v -0.620945 0.625538 -0.357831
v -0.002962 0.618218 0.830305
v 0.717002 0.618219 -0.416709
v 0.717002 0.618218 0.414633
v 0.615024 0.625538 -0.357831
v 0.043879 -0.067716 -0.028080
v -0.002962 0.619100 -0.055123
v 0.043879 0.619100 -0.028080
v -0.002962 -0.067716 -0.055123
v -0.049802 0.619100 -0.028080
v -0.049802 -0.067716 0.026006
v -0.002962 0.619099 0.053049
v -0.049802 0.619099 0.026006
v 0.043879 -0.067716 0.026006
v 0.043879 0.619099 0.026006
v -0.049802 -0.067716 -0.028080
v -0.002962 -0.067716 0.053049
v 1.598565 1.198857 -0.359164
v 1.417337 0.449366 0.335871
v 1.417337 0.449367 -0.359164
v -1.543267 1.198857 0.342279
v -1.362041 0.449367 -0.352756
v -1.362041 0.449366 0.342279
v 0.345041 0.451876 -1.378859
v -0.349994 0.451876 -0.683825
v 0.345041 0.451876 -0.683825
v -0.349994 1.201367 -1.560086
v -0.349994 0.451876 -1.378859
v -0.343585 0.451875 1.379762
v 0.351449 0.451875 0.684727
v -0.343585 0.451875 0.684727
v 0.351449 1.201366 1.560988
v 0.351449 0.451875 1.379762
v -0.343585 0.436896 0.684727
v -0.343585 -0.086218 1.379762
v -0.343585 0.436896 1.379762
v 0.351449 0.436896 1.379762
v 0.351449 -0.086218 0.684727
v 0.351449 0.436896 0.684727
v -0.349994 1.198857 -1.570464
v 0.345041 0.449367 -1.389238
v -0.349994 0.449367 -1.389238
v 0.351449 1.198856 1.571367
v -0.343585 0.449366 1.390140
v 0.351449 0.449366 1.390140
v 1.588185 1.201366 0.335871
v 0.711926 -0.086218 0.335871
v 1.406960 -0.086217 -0.359164
v -1.532888 1.201367 -0.352756
v -0.656628 -0.086217 -0.352756
v -1.351662 -0.086218 0.342279
v 1.598565 1.198857 0.335871
v -1.543267 1.198857 -0.352756
v 0.345041 1.201367 -1.560086
v -0.343585 1.201366 1.560988
v -0.343585 -0.086218 0.684727
v 0.351449 -0.086218 1.379762
v 0.345041 1.198857 -1.570464
v -0.343585 1.198856 1.571367
v -0.343585 0.436896 -1.375416
v -0.343585 -0.086218 -0.680381
v -0.343585 0.436896 -0.680381
v 0.351449 0.436896 -0.680381
v 0.351449 -0.086218 -1.375416
v 0.351449 0.436896 -1.375416
v -0.343585 -0.086218 -1.375416
v 0.351449 -0.086218 -0.680381
vt 0.784668 0.505371
vt 0.783691 0.535645
vt 0.783691 0.505371
vt 0.801270 0.541504
vt 0.767090 0.502441
vt 0.767090 0.541504
vt 0.801270 0.528809
vt 0.807129 0.512207
vt 0.807129 0.528809
vt 0.807129 0.528809
vt 0.801270 0.512207
vt 0.801270 0.528809
vt 0.784668 0.505371
vt 0.783691 0.535645
vt 0.783691 0.505371
vt 0.801270 0.541504
vt 0.767090 0.502441
vt 0.767090 0.541504
vt 0.801270 0.528809
vt 0.807129 0.512207
vt 0.807129 0.528809
vt 0.807129 0.528809
vt 0.801270 0.512207
vt 0.801270 0.528809
vt 0.764026 0.502444
vt 0.764026 0.502444
vt 0.764026 0.502444
vt 0.765069 0.502584
vt 0.765069 0.502584
vt 0.765069 0.502584
vt 0.765069 0.502584
vt 0.765069 0.502584
vt 0.765069 0.502584
vt 0.765069 0.502584
vt 0.765069 0.502584
vt 0.765069 0.502584
vt 0.765069 0.502584
vt 0.765069 0.502584
vt 0.765069 0.502584
vt 0.620605 0.484863
vt 0.620605 0.484863
vt 0.620605 0.484863
vt 0.620605 0.484863
vt 0.620605 0.484863
vt 0.620605 0.484863
vt 0.620605 0.484863
vt 0.620605 0.484863
vt 0.620605 0.484863
vt 0.620605 0.484863
vt 0.620605 0.484863
vt 0.620605 0.484863
vt 0.767090 0.502441
vt 0.801270 0.541504
vt 0.767090 0.541504
vt 0.767090 0.502441
vt 0.801270 0.541504
vt 0.767090 0.541504
vt 0.784668 0.505371
vt 0.783691 0.535645
vt 0.783691 0.505371
vt 0.801270 0.541504
vt 0.767090 0.502441
vt 0.767090 0.541504
vt 0.784668 0.505371
vt 0.783691 0.535645
vt 0.783691 0.505371
vt 0.801270 0.541504
vt 0.767090 0.502441
vt 0.767090 0.541504
vt 0.801270 0.528809
vt 0.807129 0.512207
vt 0.807129 0.528809
vt 0.807129 0.528809
vt 0.801270 0.512207
vt 0.801270 0.528809
vt 0.767090 0.502441
vt 0.801270 0.541504
vt 0.767090 0.541504
vt 0.767090 0.502441
vt 0.801270 0.541504
vt 0.767090 0.541504
vt 0.784668 0.535645
vt 0.801270 0.502441
vt 0.801270 0.512207
vt 0.807129 0.512207
vt 0.784668 0.535645
vt 0.801270 0.502441
vt 0.801270 0.512207
vt 0.807129 0.512207
vt 0.764026 0.502444
vt 0.764026 0.502444
vt 0.764026 0.502444
vt 0.801270 0.502441
vt 0.801270 0.502441
vt 0.784668 0.535645
vt 0.801270 0.502441
vt 0.784668 0.535645
vt 0.801270 0.502441
vt 0.801270 0.512207
vt 0.807129 0.512207
vt 0.801270 0.502441
vt 0.801270 0.502441
vt 0.801270 0.528809
vt 0.807129 0.512207
vt 0.807129 0.528809
vt 0.807129 0.528809
vt 0.801270 0.512207
vt 0.801270 0.528809
vt 0.801270 0.512207
vt 0.807129 0.512207
vn 0.0000 1.0000 0.0000
vn -0.9720 0.2350 0.0000
vn 0.0000 0.0000 1.0000
vn 0.0000 0.0000 -1.0000
vn 0.9720 0.2350 0.0000
vn -0.0358 0.9974 -0.0620
vn -0.0716 0.9974 0.0000
vn -0.0358 0.9974 0.0620
vn 0.0358 0.9974 0.0620
vn 0.0716 0.9974 0.0000
vn 0.0358 0.9974 -0.0620
vn 0.5000 0.0000 -0.8660
vn -0.5000 0.0000 -0.8660
vn -0.5000 0.0000 0.8660
vn 1.0000 0.0000 0.0000
vn -1.0000 0.0000 0.0000
vn 0.5000 0.0000 0.8660
vn 0.9720 -0.2350 -0.0000
vn -0.9720 -0.2350 -0.0000
vn 0.0000 0.2350 0.9720
vn 0.0000 0.2350 -0.9720
vn 0.0000 -0.2350 -0.9720
vn 0.0000 -0.2350 0.9720
s off
f 1/1/1 2/2/1 3/3/1
f 1/4/2 4/5/2 5/6/2
f 6/7/3 7/8/3 8/9/3
f 9/10/4 10/11/4 11/12/4
f 12/13/1 13/14/1 14/15/1
f 12/16/5 15/17/5 16/18/5
f 17/19/4 18/20/4 19/21/4
f 20/22/3 21/23/3 22/24/3
f 23/25/1 24/26/1 25/27/1
f 26/28/6 27/29/6 28/30/6
f 29/31/7 30/32/7 26/28/7
f 29/31/8 24/33/8 23/34/8
f 31/35/9 25/36/9 24/33/9
f 32/37/10 25/36/10 33/38/10
f 28/30/11 34/39/11 32/37/11
f 35/40/12 36/41/12 37/42/12
f 38/43/13 39/44/13 36/41/13
f 40/45/14 41/46/14 42/47/14
f 43/48/15 37/42/15 44/49/15
f 45/50/16 42/47/16 39/44/16
f 46/51/17 44/49/17 41/46/17
f 47/52/18 48/53/18 49/54/18
f 50/55/19 51/56/19 52/57/19
f 53/58/1 54/59/1 55/60/1
f 53/61/20 56/62/20 57/63/20
f 58/64/1 59/65/1 60/66/1
f 58/67/21 61/68/21 62/69/21
f 63/70/16 64/71/16 65/72/16
f 66/73/15 67/74/15 68/75/15
f 69/76/22 70/77/22 71/78/22
f 72/79/23 73/80/23 74/81/23
f 1/1/1 5/82/1 2/2/1
f 1/4/2 75/83/2 4/5/2
f 6/7/3 76/84/3 7/8/3
f 9/10/4 77/85/4 10/11/4
f 12/13/1 16/86/1 13/14/1
f 12/16/5 78/87/5 15/17/5
f 17/19/4 79/88/4 18/20/4
f 20/22/3 80/89/3 21/23/3
f 25/27/1 34/90/1 27/91/1
f 27/91/1 30/92/1 25/27/1
f 30/92/1 23/25/1 25/27/1
f 26/28/6 30/32/6 27/29/6
f 29/31/7 23/34/7 30/32/7
f 29/31/8 31/35/8 24/33/8
f 31/35/9 33/38/9 25/36/9
f 32/37/10 34/39/10 25/36/10
f 28/30/11 27/29/11 34/39/11
f 35/40/12 38/43/12 36/41/12
f 38/43/13 45/50/13 39/44/13
f 40/45/14 46/51/14 41/46/14
f 43/48/15 35/40/15 37/42/15
f 45/50/16 40/45/16 42/47/16
f 46/51/17 43/48/17 44/49/17
f 47/52/18 81/93/18 48/53/18
f 50/55/19 82/94/19 51/56/19
f 53/58/1 57/95/1 54/59/1
f 53/61/20 83/96/20 56/62/20
f 58/64/1 62/97/1 59/65/1
f 58/67/21 84/98/21 61/68/21
f 63/70/16 85/99/16 64/71/16
f 66/73/15 86/100/15 67/74/15
f 69/76/22 87/101/22 70/77/22
f 72/79/23 88/102/23 73/80/23
f 89/103/16 90/104/16 91/105/16
f 92/106/15 93/107/15 94/108/15
f 89/103/16 95/109/16 90/104/16
f 92/106/15 96/110/15 93/107/15
