# Blender v2.91.0 Beta OBJ File: 'stadium.blend'
# www.blender.org
o Plane_Plane.003
v -5.000000 0.000002 -10.000000
v 5.000000 0.000002 -10.000000
v -5.000000 0.000002 10.000000
v 5.000000 0.000002 10.000000
v 0.000000 0.000002 -10.000000
v 0.000000 0.000002 10.000000
v 0.000000 0.000000 0.000000
v 5.000000 0.000000 0.000000
v 4.718045 0.000002 -10.000000
v 4.718045 0.000000 0.000000
v 4.718045 0.000002 10.000000
v -5.000000 0.000000 0.000000
v -4.718045 0.000002 -10.000000
v -4.718045 0.000000 0.000000
v -4.718045 0.000002 10.000000
v 5.000000 0.000002 9.493671
v 0.000000 0.000002 9.493671
v 4.718045 0.000002 9.493671
v -5.000000 0.000002 9.493671
v -4.718045 0.000002 9.493671
vt 0.943191 0.417480
vt 0.997559 0.472180
vt 0.943191 0.472180
vt 0.997559 0.475098
vt 0.943191 0.475098
vt 0.943191 0.417480
vt 0.943191 0.472180
vt 0.943191 0.475098
vt 0.668457 0.758301
vt 0.671387 0.792604
vt 0.668457 0.792604
vt 0.671387 0.794434
vt 0.668457 0.794434
vt 0.671387 0.792604
vt 0.668457 0.758301
vt 0.668457 0.792604
vt 0.671387 0.794434
vt 0.668457 0.794434
vt 0.671387 0.794434
vt 0.668457 0.794434
vt 0.671387 0.794434
vt 0.668457 0.794434
vt 0.668457 0.797363
vt 0.671387 0.756348
vt 0.668457 0.756348
vt 0.671387 0.756348
vt 0.668457 0.756348
vt 0.997559 0.417480
vt 0.671387 0.758301
vt 0.671387 0.758301
vt 0.671387 0.797363
vn 0.0000 1.0000 -0.0000
s 1
f 10/1/1 17/2/1 18/3/1
f 5/4/1 10/1/1 9/5/1
f 17/2/1 14/6/1 20/7/1
f 14/6/1 5/4/1 13/8/1
f 8/9/1 18/10/1 16/11/1
f 9/12/1 8/9/1 2/13/1
f 20/14/1 12/15/1 19/16/1
f 12/15/1 13/17/1 1/18/1
f 15/19/1 19/16/1 3/20/1
f 16/11/1 11/21/1 4/22/1
f 6/23/1 20/24/1 15/25/1
f 18/26/1 6/23/1 11/27/1
f 10/1/1 7/28/1 17/2/1
f 5/4/1 7/28/1 10/1/1
f 17/2/1 7/28/1 14/6/1
f 14/6/1 7/28/1 5/4/1
f 8/9/1 10/29/1 18/10/1
f 9/12/1 10/29/1 8/9/1
f 20/14/1 14/30/1 12/15/1
f 12/15/1 14/30/1 13/17/1
f 15/19/1 20/14/1 19/16/1
f 16/11/1 18/10/1 11/21/1
f 6/23/1 17/31/1 20/24/1
f 18/26/1 17/31/1 6/23/1
