# Blender v2.91.0 Beta OBJ File: 'decos.blend'
# www.blender.org
o PillarSquare_Cube_Cube.001
v -5.085240 2.796157 0.266477
v -5.085240 2.529681 0.000001
v 5.085240 2.529681 0.000001
v 5.085240 2.796157 0.266477
v -5.085240 0.000000 -0.266476
v -5.085240 -0.266476 -0.000000
v 5.085240 -0.266476 -0.000000
v 5.085240 0.000000 -0.266476
v -5.085240 2.796157 -0.266475
v -5.085240 3.062633 0.000001
v 5.085240 3.062633 0.000001
v 5.085240 2.796157 -0.266475
v -5.085240 -0.000000 0.266476
v 5.085240 -0.000000 0.266476
v -5.085240 0.266476 0.000000
v 5.085240 0.266476 0.000000
vt 0.257812 0.804688
vt 0.257812 0.804688
vt 0.257812 0.804688
vt 0.257812 0.804688
vt 0.257812 0.804688
vt 0.257812 0.804688
vt 0.257812 0.804688
vt 0.257812 0.804688
vt 0.257812 0.804688
vt 0.257812 0.804688
vt 0.257812 0.804688
vt 0.257812 0.804688
vt 0.257812 0.804688
vt 0.257812 0.804688
vt 0.257812 0.804688
vt 0.257812 0.804688
vn 0.0000 -0.7071 0.7071
vn 0.0000 0.7071 0.7071
vn 0.0000 0.7071 -0.7071
vn 0.0000 -0.7071 -0.7071
s 1
f 1/1/1 2/2/1 3/3/1 4/4/1
f 5/5/2 6/6/2 7/7/2 8/8/2
f 9/9/3 10/10/3 11/11/3 12/12/3
f 10/10/2 1/1/2 4/4/2 11/11/2
f 2/2/4 9/9/4 12/12/4 3/3/4
f 6/6/3 13/13/3 14/14/3 7/7/3
f 15/15/1 5/5/1 8/8/1 16/16/1
f 15/15/2 13/13/2 14/14/2 16/16/2
