# Blender v2.91.0 Beta OBJ File: ''
# www.blender.org
o PillarSquare_Cube_Cube.002
v 3.209971 3.192996 3.209970
v 3.209971 3.192997 -3.209970
v -3.209971 3.192997 -3.209970
v -3.209971 3.192996 3.209970
v -3.209971 -0.016974 -3.209971
v 3.209971 -0.016974 -3.209971
v 3.209971 -0.016976 3.209970
v -3.209971 -0.016976 3.209970
vt 0.257812 0.804688
vt 0.257812 0.804688
vt 0.257812 0.804688
vt 0.257812 0.804688
vt 0.257812 0.804688
vt 0.257812 0.804688
vt 0.257812 0.804688
vt 0.257812 0.804688
vn 0.0000 1.0000 0.0000
vn 0.0000 -1.0000 -0.0000
vn 0.0000 -0.0000 1.0000
vn 1.0000 -0.0000 0.0000
vn 0.0000 0.0000 -1.0000
vn -1.0000 0.0000 0.0000
s 1
f 1/1/1 2/2/1 3/3/1 4/4/1
f 5/5/2 6/6/2 7/7/2 8/8/2
f 7/7/3 1/1/3 4/4/3 8/8/3
f 6/6/4 2/2/4 1/1/4 7/7/4
f 5/5/5 3/3/5 2/2/5 6/6/5
f 8/8/6 4/4/6 3/3/6 5/5/6
