# Blender v2.91.0 Beta OBJ File: 'HOUSE02.blend'
# www.blender.org
o Plane.008_Plane.001
v 2.953994 -0.146805 0.107837
v -2.953994 10.325657 0.107839
v -2.953994 -0.146805 0.107837
v -2.953994 10.325657 -0.028823
v 2.953994 -0.146805 -0.028825
v -2.953994 -0.146805 -0.028825
v 2.953994 10.325657 0.107839
v 2.953994 10.325657 -0.028823
vt 0.340332 0.457520
vt 0.271212 0.579169
vt 0.271212 0.457433
vt 0.340332 0.579590
vt 0.271212 0.457433
vt 0.340332 0.457520
vt 0.340332 0.579590
vt 0.271212 0.579169
vn 0.0000 -0.0000 1.0000
vn 0.0000 0.0000 -1.0000
s 1
f 1/1/1 2/2/1 3/3/1
f 4/4/2 5/5/2 6/6/2
f 1/1/1 7/7/1 2/2/1
f 4/4/2 8/8/2 5/5/2
