# Blender v2.91.0 Beta OBJ File: 'HOUSE02.blend'
# www.blender.org
o alumsiding01.019_tree.002_tree.005_alumsiding01.019_tree.003_alumsiding01.019_tree.002_tree.005_alumsiding01.019_tree.006
v 9.780414 5.463934 5.454588
v 0.000000 5.440656 7.798552
v 12.238520 5.440659 7.843932
v 9.780414 5.463939 -5.777971
v 0.000000 5.440659 -8.131060
v 12.238520 5.440659 -8.113726
v -13.757275 5.440659 -8.055076
v -9.780414 5.463934 5.454588
v -9.780414 5.463939 -5.777971
v 0.000000 5.463934 5.454588
v 0.000000 5.463936 -5.785982
v 12.238520 7.372752 7.798553
v 12.238520 7.372755 -8.113726
v -13.785843 7.372752 7.798553
v -13.785843 5.440656 7.798552
v -13.757275 7.372755 -8.055076
v -11.174106 10.676678 -5.843411
v 0.181608 10.676678 -6.930544
v 0.181299 10.676678 -5.843411
v -12.475887 10.676676 6.598610
v -11.174106 10.676676 5.511993
v 0.181608 10.676676 6.598610
v 0.181299 10.676676 5.511993
v 11.613825 10.676676 5.511993
v 11.613825 10.676676 6.598610
v 11.613825 10.676683 -6.920904
v 11.613825 10.676682 -5.835319
v -12.475887 10.676678 -6.930544
v -12.475887 11.425234 -0.164360
v 0.181608 11.425234 -0.164360
v 11.613825 11.425234 -0.164360
v 23.054586 10.676678 -5.843411
v 11.613825 10.676678 -6.930544
v 23.054895 10.676678 -6.930544
v 34.401894 10.676676 5.511993
v 35.703365 10.676683 -6.920904
v 34.401894 10.676682 -5.835319
v 23.054586 10.676676 5.511993
v 23.054895 10.676676 6.598610
v 35.703365 10.676676 6.598610
v 23.054895 11.425234 -0.164360
v 35.703365 11.425234 -0.164360
v 33.410572 5.463934 5.454588
v 23.630159 5.440656 7.798552
v 37.444416 5.440659 7.843932
v 33.410572 5.463939 -5.777971
v 23.630159 5.440659 -8.131060
v 37.455765 5.440659 -8.113726
v 12.238520 5.440656 7.798552
v 23.630159 5.463934 5.454588
v 12.238520 5.463934 5.454588
v 12.238520 5.440659 -8.055076
v 23.630159 5.463936 -5.785982
v 12.238520 5.463939 -5.777971
v 37.416000 7.372752 7.798553
v 37.455765 7.372755 -8.113726
v 12.238520 7.372755 -8.055076
v 0.000000 7.372752 7.798553
v 0.000000 7.372755 -8.131060
v 11.613825 10.676678 -5.843411
v 23.630159 7.372752 7.798553
v 23.630159 7.372755 -8.131060
v -11.263481 -0.038095 -5.888123
v -11.263481 5.355916 5.556680
v -11.263481 5.355922 -5.888122
v 11.617962 5.355917 5.556680
v 0.181320 -0.038097 5.556679
v 11.617962 -0.038097 5.556679
v -11.263481 -0.038097 5.556679
v 11.617962 -0.038092 -5.879967
v 0.181320 5.355919 -5.888122
v 0.181320 -0.038095 -5.888123
v -11.263481 10.749933 5.556681
v -11.263481 10.749935 -5.888121
v 0.181320 5.355920 5.556680
v 11.617962 5.355925 -5.879966
v 34.491249 5.355917 5.556680
v 23.054607 -0.038097 5.556679
v 34.491249 -0.038097 5.556679
v 11.609806 5.355916 5.556680
v 11.609806 -0.038097 5.556679
v 34.491249 -0.038092 -5.879967
v 34.491249 5.355925 -5.879966
v 23.054607 5.355919 -5.888122
v 23.054607 -0.038095 -5.888123
v 11.609806 5.355922 -5.888122
v 11.609806 -0.038095 -5.888123
v 23.054607 5.355920 5.556680
v 11.613825 10.749933 5.556681
v 34.491249 10.749933 5.556681
v 34.491249 10.749939 -5.879965
v 11.613825 10.749935 -5.888121
v 11.613825 10.749939 -5.879965
vt 0.098220 0.157954
vt 0.098220 0.157954
vt 0.098220 0.157954
vt 0.098220 0.157954
vt 0.098220 0.157954
vt 0.098220 0.157954
vt 0.098220 0.157954
vt 0.098220 0.157954
vt 0.098220 0.157954
vt 0.098220 0.157954
vt 0.098220 0.157954
vt 0.098220 0.157954
vt 0.098220 0.157954
vt 0.751783 0.500109
vt 0.984875 0.540888
vt 0.984875 0.500109
vt 0.984875 0.500109
vt 0.751783 0.540888
vt 0.751783 0.500109
vt 0.751783 0.540888
vt 0.984875 0.500109
vt 0.751783 0.500109
vt 0.984875 0.500109
vt 0.751783 0.540888
vt 0.984875 0.540888
vt 0.048828 0.866211
vt 0.048828 0.866211
vt 0.048828 0.866211
vt 0.048828 0.866211
vt 0.048828 0.866211
vt 0.048828 0.866211
vt 0.048828 0.866211
vt 0.048828 0.866211
vt 0.048828 0.866211
vt 0.098220 0.157954
vt 0.098220 0.157954
vt 0.098220 0.157954
vt 0.048828 0.866211
vt 0.048828 0.866211
vt 0.048828 0.866211
vt 0.048828 0.866211
vt 0.048828 0.866211
vt 0.048828 0.866211
vt 0.048828 0.866211
vt 0.048828 0.866211
vt 0.751783 0.540888
vt 0.984875 0.540888
vt 0.048828 0.866211
vt 0.048828 0.866211
vt 0.048828 0.866211
vt 0.048828 0.866211
vt 0.048828 0.866211
vt 0.048828 0.866211
vt 0.048828 0.866211
vt 0.098220 0.157954
vt 0.098220 0.157954
vt 0.098220 0.157954
vt 0.048828 0.866211
vt 0.098220 0.157954
vt 0.098220 0.157954
vt 0.751783 0.540888
vt 0.984875 0.500109
vt 0.751783 0.500109
vt 0.098220 0.157954
vt 0.984875 0.500109
vt 0.984875 0.540888
vt 0.751783 0.500109
vt 0.098220 0.157954
vt 0.048828 0.866211
vt 0.098220 0.157954
vt 0.751783 0.500109
vt 0.984875 0.500109
vt 0.984875 0.540888
vt 0.751783 0.540888
vt 0.984875 0.540888
vt 0.984875 0.540888
vt 0.984875 0.500109
vt 0.048828 0.866211
vt 0.007417 0.213760
vt 0.190918 0.156238
vt 0.190918 0.213760
vt 0.190918 0.156238
vt 0.007417 0.213760
vt 0.190918 0.213760
vt 0.007417 0.156238
vt 0.007417 0.213760
vt 0.190918 0.156238
vt 0.007417 0.213760
vt 0.007417 0.156238
vt 0.190918 0.156238
vt 0.007417 0.156238
vt 0.007417 0.156238
vt 0.007417 0.213760
vt 0.190918 0.156238
vt 0.007417 0.213760
vt 0.007417 0.156238
vt 0.007417 0.213760
vt 0.007417 0.156238
vt 0.190918 0.156238
vt 0.007417 0.213760
vt 0.007417 0.156238
vt 0.190918 0.156238
vt 0.007417 0.213760
vt 0.007417 0.156238
vt 0.190918 0.156238
vt 0.007417 0.156238
vt 0.190918 0.156238
vt 0.007417 0.213760
vt 0.007417 0.156238
vt 0.190918 0.156238
vt 0.190918 0.213760
vt 0.190918 0.213760
vt 0.007417 0.156238
vt 0.007417 0.213760
vt 0.190918 0.156238
vt 0.190918 0.213760
vt 0.190918 0.156238
vt 0.190918 0.213760
vt 0.190918 0.156238
vt 0.190918 0.213760
vt 0.190918 0.156238
vt 0.007417 0.213760
vt 0.007417 0.156238
vt 0.190918 0.156238
vt 0.190918 0.213760
vt 0.190918 0.156238
vt 0.190918 0.213760
vt 0.190918 0.213760
vt 0.190918 0.213760
vt 0.190918 0.213760
vt 0.190918 0.213760
vt 0.190918 0.213760
vt 0.190918 0.213760
vn -0.0000 1.0000 0.0098
vn -0.0000 -1.0000 0.0100
vn 0.0058 1.0000 0.0000
vn 0.0000 1.0000 0.0099
vn 0.0000 -1.0000 0.0099
vn 0.0095 1.0000 0.0000
vn 1.0000 0.0077 -0.0017
vn 0.9998 0.0220 -0.0008
vn 0.9998 0.0220 -0.0002
vn -1.0000 0.0000 -0.0018
vn 0.0014 0.0000 -1.0000
vn 0.0000 -0.0000 1.0000
vn 0.0000 -1.0000 0.0000
vn 0.0000 1.0000 0.0000
vn 0.0000 -0.9999 0.0102
vn 0.0001 -0.9999 0.0106
vn -0.0001 -0.9999 0.0106
vn -1.0000 -0.0000 0.0000
vn 0.0000 0.9939 0.1100
vn 0.0000 0.9939 -0.1100
vn 0.0000 0.9939 -0.1101
vn 1.0000 -0.0000 0.0000
vn 0.0013 0.0000 -1.0000
vn -0.0059 1.0000 0.0000
vn -0.0067 0.0000 -1.0000
vn 0.0028 -0.0116 0.9999
vn 0.0035 0.0113 0.9999
vn 0.0016 -0.0117 0.9999
vn 0.0001 -0.9999 0.0101
vn 0.0031 -0.0115 0.9999
vn 0.0032 0.0115 0.9999
vn 0.0018 -0.0117 0.9999
vn -0.0055 0.0000 -1.0000
vn 1.0000 -0.0073 0.0040
vn 1.0000 -0.0073 0.0034
vn 1.0000 0.0070 0.0049
vn 0.0001 -1.0000 0.0099
vn 0.0001 0.9939 -0.1100
vn -0.0058 1.0000 -0.0000
vn -0.0067 0.0121 0.9999
vn -0.0049 0.0351 0.9994
vn -0.0061 0.0349 0.9994
vn -0.0069 0.0120 0.9999
vn -0.0056 0.0352 0.9994
vn -0.0068 0.0350 0.9994
vn -0.0019 0.0051 1.0000
vn -0.0018 0.0003 1.0000
vn 0.0018 0.0003 1.0000
vn -0.0000 0.0078 1.0000
vn 0.0058 -0.0042 1.0000
vn -0.1806 0.6191 -0.7643
vn -0.5000 -0.7082 -0.4984
vn -0.4919 0.7183 -0.4920
vn 0.4874 0.7247 -0.4871
vn 0.4795 -0.7348 -0.4798
vn 0.0000 0.0000 -1.0000
vn 0.0004 0.0063 -1.0000
vn 0.0004 0.0000 -1.0000
vn -0.0019 0.0033 1.0000
vn 0.0019 0.0002 -1.0000
vn 0.0004 0.0079 -1.0000
vn -0.0016 0.0009 1.0000
vn 0.4982 0.7079 -0.5007
vn 0.0007 0.0000 -1.0000
vn -0.0007 0.0012 -1.0000
vn 0.0019 0.0002 1.0000
vn 0.0058 -0.0041 1.0000
vn -0.0052 -0.0042 -1.0000
vn 0.0058 -0.0041 -1.0000
vn -0.0058 -0.0041 1.0000
s off
f 1/1/1 2/2/1 3/3/1
f 4/4/2 5/5/2 6/6/2
f 43/7/3 48/8/3 46/9/3
f 8/10/4 2/2/4 10/11/4
f 9/12/5 5/5/5 11/13/5
f 1/1/6 6/6/6 4/4/6
f 48/14/7 55/15/8 45/16/9
f 15/17/10 16/18/10 7/19/10
f 59/20/11 6/21/11 5/22/11
f 49/23/12 61/24/12 12/25/12
f 17/26/13 18/27/13 19/28/13
f 21/29/14 22/30/14 23/31/14
f 38/32/14 25/33/14 39/34/14
f 52/35/15 53/36/16 54/37/17
f 20/38/18 29/39/18 28/40/18
f 39/34/19 31/41/19 25/33/19
f 31/41/20 34/42/20 33/43/20
f 19/28/13 26/44/13 27/45/13
f 15/17/12 58/46/12 14/47/12
f 24/48/14 22/30/14 25/33/14
f 17/26/14 20/38/14 21/29/14
f 36/49/21 41/50/21 42/51/21
f 35/52/14 39/34/14 40/53/14
f 37/54/13 34/42/13 36/49/13
f 40/53/19 41/50/19 39/34/19
f 44/55/4 51/56/4 49/57/4
f 26/44/21 30/58/21 31/41/21
f 22/30/19 29/39/19 20/38/19
f 36/49/22 42/51/22 40/53/22
f 43/7/1 44/55/1 45/59/1
f 46/9/5 47/60/5 48/8/5
f 62/61/23 48/62/23 47/63/23
f 35/52/14 36/49/14 37/54/14
f 7/64/24 8/10/24 9/12/24
f 62/61/25 52/65/25 57/66/25
f 25/33/19 30/58/19 22/30/19
f 29/39/20 18/27/20 28/40/20
f 44/67/26 55/15/27 61/24/28
f 1/1/4 10/11/4 2/2/4
f 4/4/5 11/13/5 5/5/5
f 8/10/4 15/68/4 2/2/4
f 9/12/29 7/64/29 5/5/29
f 1/1/6 3/3/6 6/6/6
f 17/26/13 28/40/13 18/27/13
f 21/29/14 20/38/14 22/30/14
f 35/52/14 38/32/14 39/34/14
f 37/54/13 32/69/13 34/42/13
f 43/7/4 50/70/4 44/55/4
f 46/9/5 53/36/5 47/60/5
f 2/71/30 12/25/31 58/46/32
f 32/69/13 33/43/13 34/42/13
f 59/20/33 7/72/33 16/73/33
f 43/7/3 45/59/3 48/8/3
f 48/14/34 56/74/35 55/15/36
f 15/17/10 14/47/10 16/18/10
f 59/20/11 13/75/11 6/21/11
f 49/23/12 44/67/12 61/24/12
f 38/32/14 24/48/14 25/33/14
f 52/35/37 47/60/37 53/36/15
f 39/34/19 41/50/19 31/41/19
f 31/41/20 41/50/20 34/42/20
f 19/28/13 18/27/13 26/44/13
f 15/17/12 2/71/12 58/46/12
f 24/48/14 23/31/14 22/30/14
f 17/26/14 28/40/14 20/38/14
f 36/49/38 34/42/38 41/50/38
f 40/53/19 42/51/19 41/50/19
f 44/55/4 50/70/4 51/56/4
f 26/44/38 18/27/38 30/58/38
f 22/30/19 30/58/19 29/39/19
f 62/61/23 56/76/23 48/62/23
f 35/52/14 40/53/14 36/49/14
f 7/64/39 15/68/39 8/10/39
f 62/61/25 47/63/25 52/65/25
f 25/33/19 31/41/19 30/58/19
f 29/39/20 30/58/20 18/27/20
f 44/67/40 45/16/41 55/15/42
f 2/71/43 3/77/44 12/25/45
f 32/69/13 60/78/13 33/43/13
f 59/20/33 5/22/33 7/72/33
s 1
f 88/79/46 79/80/12 77/81/47
f 64/82/48 23/83/49 73/84/50
f 65/85/51 73/84/18 74/86/52
f 69/87/18 65/88/51 63/89/53
f 88/79/46 81/90/12 78/91/12
f 77/81/22 82/92/54 83/93/55
f 87/94/56 84/95/57 85/96/58
f 75/97/59 69/87/12 67/98/12
f 86/99/60 32/100/61 84/101/57
f 77/102/47 38/103/49 88/104/46
f 66/105/62 23/83/49 75/106/59
f 63/107/53 71/108/57 72/109/58
f 82/110/54 84/95/57 83/111/55
f 90/112/22 83/113/55 91/114/63
f 70/115/64 71/108/57 76/116/65
f 75/97/59 68/117/12 66/118/62
f 80/119/66 38/103/49 89/120/67
f 65/121/51 19/122/61 71/123/57
f 76/124/65 19/122/61 93/125/68
f 83/126/55 32/100/61 91/127/63
f 88/79/46 78/91/12 79/80/12
f 64/82/48 75/106/59 23/83/49
f 65/85/51 64/82/18 73/84/18
f 69/87/18 64/128/18 65/88/51
f 88/79/46 80/129/66 81/90/12
f 77/81/22 79/80/22 82/92/54
f 87/94/56 86/130/60 84/95/57
f 75/97/59 64/128/48 69/87/12
f 86/99/60 92/131/69 32/100/61
f 77/102/47 90/112/70 38/103/49
f 66/105/62 89/120/70 23/83/49
f 63/107/53 65/132/51 71/108/57
f 82/110/54 85/96/58 84/95/57
f 90/112/22 77/102/22 83/113/55
f 70/115/64 72/109/58 71/108/57
f 75/97/59 67/98/12 68/117/12
f 80/119/66 88/104/46 38/103/49
f 65/121/51 74/133/52 19/122/61
f 76/124/65 71/123/57 19/122/61
f 83/126/55 84/101/57 32/100/61
