# Blender v2.91.0 Beta OBJ File: 'HOUSE02.blend'
# www.blender.org
o Sphere
v -1.760792 1.216220 3.238865
v 1.760792 1.983930 3.238865
v -1.760792 1.983930 3.238865
v 1.961317 1.997906 3.386067
v -1.961317 1.997906 3.386067
v -2.463676 -0.437058 -0.875628
v 2.463676 -0.583681 -0.875628
v -2.463676 -0.583681 -0.875628
v -2.461383 -0.437058 0.875530
v 2.461383 -0.583681 0.875530
v 2.461383 -0.437058 0.875530
v -2.461383 -0.583681 0.875530
v 2.463676 -0.437058 -0.875628
v -1.760792 1.215812 1.106447
v -1.760792 1.983931 1.106447
v 1.760792 1.215812 1.106447
v 1.760792 1.983931 1.106447
v -1.411836 1.390620 3.283420
v 1.411836 1.864959 3.283420
v -1.411836 1.864959 3.283420
v 1.961317 1.997907 0.959245
v -1.961317 1.997907 0.959245
v 1.760792 1.216220 3.238865
v -1.760792 1.215811 3.238865
v 1.760792 1.215811 3.238865
v 1.411836 1.390620 3.283420
v -3.278367 2.043884 -0.880978
v -2.461383 2.880080 -0.875530
v -2.459166 2.043884 -1.229363
v -3.648904 2.043884 0.000000
v -3.280962 2.639763 -0.627317
v -3.283549 2.892306 0.000000
v -2.463676 3.234440 0.000001
v -3.280962 2.639762 0.627317
v -2.461383 2.880080 0.875530
v -3.278367 2.043883 0.880978
v -2.459166 2.043883 1.229363
v 3.283549 2.892306 0.000000
v 3.280962 2.639762 0.627317
v 3.648904 2.043884 0.000000
v 3.280962 2.639763 -0.627317
v 2.463676 3.234440 0.000001
v 2.461383 2.880080 -0.875530
v -2.461383 1.207687 0.875530
v -3.280962 1.448004 0.627317
v 3.278367 2.043883 0.880978
v -3.280962 1.448004 -0.627317
v 3.278367 2.043884 -0.880978
v 2.459166 2.043884 -1.229363
v 2.461383 2.880080 0.875530
v -2.461383 1.207687 -0.875530
v 2.461383 1.207687 0.875530
v 2.459166 2.043883 1.229363
v 3.280962 1.448004 -0.627317
v 3.280962 1.448004 0.627317
v -2.461383 1.246611 -0.875530
v 2.459166 0.410415 -1.229363
v -2.459166 0.410415 -1.229363
v 2.461383 1.207687 -0.875530
v -2.459166 0.410415 1.229363
v 2.461383 -0.425782 0.875530
v 2.459166 0.410415 1.229363
v 3.280962 -0.185464 0.627317
v 3.280962 -0.185464 -0.627317
v 3.648904 0.410415 0.000000
v 3.278367 0.410415 0.880978
v 2.461383 -0.425782 -0.875530
v -3.648904 0.410415 0.000000
v -3.280962 -0.185464 -0.627317
v -3.280962 -0.185464 0.627317
v -2.461383 1.246611 0.875530
v 2.461383 1.246611 0.875530
v -3.278367 0.410415 -0.880978
v 3.280962 1.006294 0.627317
v -2.461383 -0.425782 -0.875530
v 2.463676 1.600971 0.000000
v 3.280962 1.006294 -0.627317
v 2.461383 1.246611 -0.875530
v 3.278367 0.410415 -0.880978
v -3.278367 0.410415 0.880978
v -2.461383 -0.425782 0.875530
v 3.283549 1.258837 0.000000
v -2.463676 1.600971 0.000000
v -3.280962 1.006294 0.627317
v -3.283549 1.258837 0.000000
v -3.280962 1.006294 -0.627317
v 4.174631 1.397968 -0.588364
v 4.586740 1.037242 0.000000
v 4.260488 0.816502 0.000000
v 4.690666 1.485495 0.000000
v 4.525942 1.457263 0.425200
v 3.487902 1.246018 -0.590071
v 3.487902 1.246018 0.590072
v 2.057594 0.636765 0.000000
v 3.562084 0.666828 0.000000
v 4.174631 1.397968 0.588364
v 3.413530 1.832825 0.000000
v 4.525942 1.457263 -0.425199
v 4.465144 1.877285 0.000000
v -4.525942 1.457263 -0.425199
v -4.089005 1.978307 0.000000
v -4.174631 1.397968 -0.588364
v 2.056359 1.226541 0.590394
v -3.413530 1.832825 0.000000
v -4.690666 1.485495 0.000000
v -4.586740 1.037242 0.000000
v -4.525942 1.457263 0.425200
v -4.465144 1.877285 0.000000
v -4.174631 1.397968 0.588364
v -2.057594 0.636765 0.000000
v -3.487902 1.246018 0.590072
v -3.562084 0.666828 0.000000
v -4.260488 0.816502 0.000000
v -2.056358 1.226541 0.590394
v -3.487902 1.246018 -0.590071
v -2.056359 1.226541 -0.590394
v 2.056359 1.226541 -0.590394
v -2.055104 1.817537 0.000000
v 4.089005 1.978307 0.000000
v 2.055105 1.817537 0.000000
vt 0.125488 0.295410
vt 0.177246 0.313965
vt 0.125488 0.313965
vt 0.177246 0.313965
vt 0.125488 0.313965
vt 0.153809 0.270996
vt 0.142090 0.270996
vt 0.153809 0.270996
vt 0.153809 0.274902
vt 0.142090 0.274902
vt 0.142090 0.274902
vt 0.153809 0.274902
vt 0.142090 0.270996
vt 0.177246 0.294434
vt 0.177246 0.313965
vt 0.125488 0.313965
vt 0.177246 0.294434
vt 0.177246 0.313965
vt 0.006348 0.275879
vt 0.063965 0.296387
vt 0.006348 0.296387
vt 0.177246 0.256348
vt 0.177246 0.256348
vt 0.177246 0.256348
vt 0.177246 0.313965
vt 0.125488 0.313965
vt 0.000000 0.000000
vt 0.000000 0.000000
vt 0.000000 0.000000
vt 0.177246 0.295410
vt 0.125488 0.294434
vt 0.125488 0.294434
vt 0.063965 0.275879
vt 0.177246 0.256348
vt 0.177246 0.313965
vt 0.000000 0.000000
vt 0.010254 0.240723
vt 0.028809 0.256348
vt 0.028809 0.240723
vt 0.001465 0.240723
vt 0.010254 0.250488
vt 0.010254 0.256348
vt 0.028809 0.262207
vt 0.010254 0.250488
vt 0.028809 0.256348
vt 0.010254 0.240723
vt 0.028809 0.240723
vt 0.170410 0.256348
vt 0.170410 0.250488
vt 0.179199 0.240723
vt 0.170410 0.250488
vt 0.152832 0.262207
vt 0.152832 0.256348
vt 0.028809 0.229980
vt 0.010254 0.229004
vt 0.170410 0.240723
vt 0.010254 0.229004
vt 0.170410 0.240723
vt 0.152832 0.240723
vt 0.152832 0.256348
vt 0.028809 0.229980
vt 0.152832 0.229980
vt 0.152832 0.240723
vt 0.170410 0.229004
vt 0.170410 0.229004
vt 0.136230 0.220215
vt 0.139160 0.204590
vt 0.136230 0.204590
vt 0.152832 0.229980
vt 0.028809 0.204590
vt 0.152832 0.193848
vt 0.152832 0.204590
vt 0.170410 0.192871
vt 0.170410 0.192871
vt 0.179199 0.204590
vt 0.170410 0.204590
vt 0.152832 0.193848
vt 0.001465 0.204590
vt 0.010254 0.192871
vt 0.010254 0.192871
vt 0.028809 0.220215
vt 0.152832 0.220215
vt 0.010254 0.204590
vt 0.170410 0.214355
vt 0.028809 0.193848
vt 0.028809 0.204590
vt 0.152832 0.226074
vt 0.170410 0.214355
vt 0.152832 0.220215
vt 0.170410 0.204590
vt 0.152832 0.204590
vt 0.010254 0.204590
vt 0.028809 0.193848
vt 0.170410 0.220215
vt 0.028809 0.226074
vt 0.010254 0.214355
vt 0.010254 0.220215
vt 0.010254 0.214355
vt 0.028809 0.220215
vt 0.154785 0.273926
vt 0.160645 0.269043
vt 0.154785 0.267090
vt 0.162598 0.273926
vt 0.160645 0.273926
vt 0.140625 0.273926
vt 0.140625 0.273926
vt 0.126465 0.267090
vt 0.140625 0.267090
vt 0.154785 0.273926
vt 0.140625 0.280762
vt 0.160645 0.273926
vt 0.160645 0.278809
vt 0.160645 0.273926
vt 0.154785 0.280762
vt 0.154785 0.273926
vt 0.126465 0.273926
vt 0.140625 0.280762
vt 0.162598 0.273926
vt 0.160645 0.269043
vt 0.160645 0.273926
vt 0.160645 0.278809
vt 0.154785 0.273926
vt 0.126465 0.267090
vt 0.140625 0.273926
vt 0.140625 0.267090
vt 0.154785 0.267090
vt 0.126465 0.273926
vt 0.140625 0.273926
vt 0.126465 0.273926
vt 0.126465 0.273926
vt 0.126465 0.280762
vt 0.154785 0.280762
vt 0.137207 0.229980
vt 0.139160 0.220215
vt 0.126465 0.280762
vt 0.137207 0.240723
vn 0.0000 0.0000 1.0000
vn 0.0000 -0.9955 0.0945
vn 0.0000 0.0000 -1.0000
vn -1.0000 0.0000 0.0013
vn 1.0000 0.0000 0.0013
vn -1.0000 0.0000 0.0000
vn 1.0000 0.0000 0.0000
vn 0.0000 1.0000 0.0000
vn -0.0695 -0.9976 -0.0000
vn 0.0695 -0.9976 -0.0000
vn 0.0000 -0.9955 -0.0945
vn -0.6639 0.0000 -0.7478
vn -0.1892 0.6990 -0.6897
vn -0.1904 0.0000 -0.9817
vn -0.9993 -0.0366 0.0000
vn -0.6627 0.5334 -0.5256
vn -0.6614 0.7501 0.0000
vn -0.1879 0.9822 0.0000
vn -0.6627 0.5334 0.5256
vn -0.1892 0.6990 0.6897
vn -0.6639 -0.0000 0.7478
vn -0.1904 -0.0000 0.9817
vn 0.6614 0.7501 0.0000
vn 0.6627 0.5334 0.5256
vn 0.9993 -0.0366 0.0000
vn 0.6627 0.5334 -0.5256
vn 0.1879 0.9822 0.0000
vn 0.1892 0.6990 -0.6897
vn -0.2408 -0.6434 0.7267
vn -0.6390 -0.6484 0.4138
vn 0.6639 -0.0000 0.7478
vn -0.6390 -0.6484 -0.4138
vn 0.6639 0.0000 -0.7478
vn 0.1904 0.0000 -0.9817
vn 0.1892 0.6990 0.6897
vn -0.2408 -0.6434 -0.7267
vn 0.2408 -0.6434 0.7267
vn 0.1904 -0.0000 0.9817
vn 0.6390 -0.6484 -0.4138
vn 0.6390 -0.6484 0.4138
vn -0.2528 0.5765 -0.7770
vn 0.2408 -0.6434 -0.7267
vn -0.2528 0.5765 0.7770
vn 0.2528 0.5765 0.7770
vn 0.3846 0.9231 0.0000
vn 0.2528 0.5765 -0.7770
vn -0.3846 0.9231 0.0000
vn 0.1918 0.0435 -0.9805
vn 0.7592 -0.6509 -0.0000
vn 0.3760 -0.9266 -0.0000
vn 0.9889 0.1484 -0.0000
vn 0.6404 0.1010 0.7614
vn 0.0063 -0.0473 -0.9989
vn 0.0063 -0.0473 0.9989
vn 0.0159 -0.9999 -0.0000
vn 0.1158 -0.9933 -0.0000
vn 0.1918 0.0435 0.9805
vn -0.1123 0.9937 -0.0000
vn 0.6404 0.1010 -0.7614
vn 0.5209 0.8536 -0.0000
vn -0.6404 0.1010 -0.7614
vn -0.0098 1.0000 -0.0000
vn -0.1918 0.0435 -0.9805
vn 0.0010 -0.0053 1.0000
vn 0.1123 0.9937 -0.0000
vn -0.9889 0.1484 -0.0000
vn -0.7592 -0.6509 -0.0000
vn -0.6404 0.1010 0.7614
vn -0.5209 0.8536 -0.0000
vn -0.1918 0.0435 0.9805
vn -0.0159 -0.9999 0.0000
vn -0.0063 -0.0473 0.9989
vn -0.1158 -0.9933 -0.0000
vn -0.3760 -0.9266 -0.0000
vn -0.0010 -0.0053 1.0000
vn -0.0063 -0.0473 -0.9989
vn -0.0010 -0.0053 -1.0000
vn 0.0010 -0.0053 -1.0000
vn 0.0113 0.9999 0.0000
vn 0.0098 1.0000 0.0000
vn -0.0113 0.9999 0.0000
s 1
f 1/1/1 2/2/1 3/3/1
f 3/3/2 4/4/2 5/5/2
f 6/6/3 7/7/3 8/8/3
f 9/9/1 10/10/1 11/11/1
f 9/9/4 8/8/4 12/12/4
f 13/13/5 10/10/5 7/7/5
f 14/14/6 3/3/6 15/15/6
f 2/16/7 16/17/7 17/18/7
f 18/19/1 19/20/1 20/21/1
f 5/22/8 21/23/8 22/24/8
f 3/3/9 22/25/9 15/15/9
f 17/18/10 4/26/10 2/16/10
f 17/27/11 22/28/11 21/29/11
f 1/1/1 23/30/1 2/2/1
f 3/3/2 2/2/2 4/4/2
f 6/6/3 13/13/3 7/7/3
f 9/9/1 12/12/1 10/10/1
f 9/9/4 6/6/4 8/8/4
f 13/13/5 11/11/5 10/10/5
f 14/14/6 24/31/6 3/3/6
f 2/16/7 25/32/7 16/17/7
f 18/19/1 26/33/1 19/20/1
f 5/22/8 4/34/8 21/23/8
f 3/3/9 5/5/9 22/25/9
f 17/18/10 21/35/10 4/26/10
f 17/27/11 15/36/11 22/28/11
f 27/37/12 28/38/13 29/39/14
f 27/37/12 30/40/15 31/41/16
f 31/41/16 30/40/15 32/42/17
f 31/41/16 33/43/18 28/38/13
f 32/42/17 30/40/15 34/44/19
f 33/43/18 34/44/19 35/45/20
f 35/45/20 36/46/21 37/47/22
f 38/48/23 39/49/24 40/50/25
f 34/44/19 30/40/15 36/46/21
f 41/51/26 38/48/23 40/50/25
f 42/52/27 41/51/26 43/53/28
f 36/46/21 44/54/29 37/47/22
f 42/52/27 39/49/24 38/48/23
f 36/46/21 30/40/15 45/55/30
f 39/49/24 46/56/31 40/50/25
f 30/40/15 47/57/32 45/55/30
f 48/58/33 41/51/26 40/50/25
f 43/53/28 48/58/33 49/59/34
f 50/60/35 46/56/31 39/49/24
f 51/61/36 27/37/12 29/39/14
f 47/57/32 30/40/15 27/37/12
f 37/47/22 52/62/37 53/63/38
f 52/62/37 54/64/39 55/65/40
f 35/45/20 53/63/38 50/60/35
f 33/43/18 50/60/35 42/52/27
f 28/38/13 42/52/27 43/53/28
f 29/39/14 43/53/28 49/59/34
f 56/66/41 57/67/34 58/68/14
f 52/62/37 46/56/31 53/63/38
f 46/56/31 55/65/40 40/50/25
f 55/65/40 54/64/39 40/50/25
f 59/69/42 48/58/33 54/64/39
f 54/64/39 48/58/33 40/50/25
f 60/70/22 61/71/37 62/72/38
f 63/73/40 64/74/39 65/75/25
f 66/76/31 63/73/40 65/75/25
f 67/77/42 63/73/40 61/71/37
f 68/78/15 69/79/32 70/80/30
f 71/81/43 62/72/38 72/82/44
f 69/79/32 68/78/15 73/83/12
f 72/82/44 66/76/31 74/84/24
f 75/85/36 73/83/12 58/86/14
f 76/87/45 77/88/26 78/89/46
f 79/90/33 77/88/26 65/75/25
f 78/89/46 79/90/33 57/91/34
f 67/77/42 79/90/33 64/74/39
f 80/92/21 68/78/15 70/80/30
f 80/92/21 81/93/29 60/70/22
f 70/80/30 75/85/36 81/93/29
f 58/86/14 67/77/42 75/85/36
f 76/87/45 74/84/24 82/94/23
f 61/71/37 66/76/31 62/72/38
f 64/74/39 79/90/33 65/75/25
f 83/95/47 84/96/19 71/81/43
f 85/97/17 68/78/15 84/96/19
f 73/83/12 68/78/15 86/98/16
f 86/98/16 83/95/47 56/99/41
f 73/83/12 56/99/41 58/86/14
f 86/98/16 68/78/15 85/97/17
f 71/81/43 80/92/21 60/70/22
f 84/96/19 68/78/15 80/92/21
f 82/94/23 74/84/24 65/75/25
f 77/88/26 82/94/23 65/75/25
f 74/84/24 66/76/31 65/75/25
f 87/100/48 88/101/49 89/102/50
f 90/103/51 91/104/52 88/101/49
f 89/102/50 92/105/53 87/100/48
f 93/106/54 94/107/55 95/108/56
f 96/109/57 97/110/58 93/106/54
f 94/107/55 92/105/53 95/108/56
f 98/111/59 99/112/60 90/103/51
f 100/113/61 101/114/62 102/115/63
f 89/102/50 93/106/54 95/108/56
f 88/101/49 96/109/57 89/102/50
f 97/110/58 103/116/64 93/106/54
f 104/117/65 102/115/63 101/114/62
f 105/118/66 100/113/61 106/119/67
f 105/118/66 107/120/68 108/121/69
f 109/122/70 104/117/65 101/114/62
f 110/123/71 111/124/72 112/125/73
f 111/124/72 113/126/74 112/125/73
f 114/127/75 104/117/65 111/124/72
f 110/123/71 115/128/76 116/129/77
f 117/130/78 97/110/58 92/105/53
f 116/129/77 104/117/65 118/131/79
f 105/118/66 108/121/69 100/113/61
f 105/118/66 106/119/67 107/120/68
f 106/119/67 102/115/63 113/126/74
f 119/132/80 91/104/52 99/112/60
f 115/128/76 113/126/74 102/115/63
f 106/119/67 109/122/70 107/120/68
f 87/100/48 97/110/58 119/132/80
f 88/101/49 98/111/59 90/103/51
f 99/112/60 91/104/52 90/103/51
f 107/120/68 101/114/62 108/121/69
f 119/132/80 98/111/59 87/100/48
f 47/57/32 44/54/29 45/55/30
f 51/133/36 49/59/34 59/69/42
f 27/37/12 31/41/16 28/38/13
f 31/41/16 32/42/17 33/43/18
f 33/43/18 32/42/17 34/44/19
f 35/45/20 34/44/19 36/46/21
f 42/52/27 38/48/23 41/51/26
f 36/46/21 45/55/30 44/54/29
f 42/52/27 50/60/35 39/49/24
f 43/53/28 41/51/26 48/58/33
f 50/60/35 53/63/38 46/56/31
f 51/61/36 47/57/32 27/37/12
f 37/47/22 44/54/29 52/62/37
f 52/62/37 59/69/42 54/64/39
f 35/45/20 37/47/22 53/63/38
f 33/43/18 35/45/20 50/60/35
f 28/38/13 33/43/18 42/52/27
f 29/39/14 28/38/13 43/53/28
f 56/66/41 78/134/46 57/67/34
f 52/62/37 55/65/40 46/56/31
f 59/69/42 49/59/34 48/58/33
f 60/70/22 81/93/29 61/71/37
f 67/77/42 64/74/39 63/73/40
f 71/81/43 60/70/22 62/72/38
f 72/82/44 62/72/38 66/76/31
f 75/85/36 69/79/32 73/83/12
f 76/87/45 82/94/23 77/88/26
f 78/89/46 77/88/26 79/90/33
f 67/77/42 57/91/34 79/90/33
f 80/92/21 70/80/30 81/93/29
f 70/80/30 69/79/32 75/85/36
f 58/86/14 57/91/34 67/77/42
f 76/87/45 72/82/44 74/84/24
f 61/71/37 63/73/40 66/76/31
f 83/95/47 85/97/17 84/96/19
f 86/98/16 85/97/17 83/95/47
f 73/83/12 86/98/16 56/99/41
f 71/81/43 84/96/19 80/92/21
f 87/100/48 98/111/59 88/101/49
f 89/102/50 95/108/56 92/105/53
f 93/106/54 103/116/64 94/107/55
f 96/109/57 119/132/80 97/110/58
f 94/107/55 117/130/78 92/105/53
f 100/113/61 108/121/69 101/114/62
f 89/102/50 96/109/57 93/106/54
f 88/101/49 91/104/52 96/109/57
f 97/110/58 120/135/81 103/116/64
f 104/117/65 115/128/76 102/115/63
f 109/122/70 111/124/72 104/117/65
f 110/123/71 114/127/75 111/124/72
f 111/124/72 109/122/70 113/126/74
f 114/127/75 118/131/79 104/117/65
f 110/123/71 112/125/73 115/128/76
f 117/130/78 120/135/81 97/110/58
f 116/129/77 115/128/76 104/117/65
f 106/119/67 100/113/61 102/115/63
f 119/132/80 96/109/57 91/104/52
f 115/128/76 112/125/73 113/126/74
f 106/119/67 113/126/74 109/122/70
f 87/100/48 92/105/53 97/110/58
f 107/120/68 109/122/70 101/114/62
f 119/132/80 99/112/60 98/111/59
f 47/57/32 51/61/36 44/54/29
f 51/133/36 29/136/14 49/59/34
