# Blender v2.91.0 Beta OBJ File: 'HOUSE.blend'
# www.blender.org
o tree.002_tree.005_tree.002_tree.018
v 7.842042 2.388685 0.000107
v 7.873859 -0.114960 3.824986
v 7.873859 -0.114959 -0.000000
v -6.913405 -0.114961 5.012200
v -7.842042 2.388684 5.011934
v -7.873859 -0.114960 5.012243
v -2.846620 1.189511 5.255795
v -1.374673 -0.118885 5.255795
v -1.374673 1.189511 5.255795
v -3.779638 1.189511 5.230269
v -2.307692 -0.118885 5.230269
v -2.307692 1.189511 5.230269
v -4.589511 1.189511 5.208876
v -3.117565 -0.118885 5.208876
v -3.117565 1.189511 5.208876
v -5.319836 1.189511 5.183350
v -3.847889 -0.118885 5.183350
v -3.847889 1.189511 5.183350
v -6.089443 1.189511 5.160230
v -4.617496 -0.118885 5.160230
v -4.617496 1.189511 5.160230
v -5.550515 1.189511 5.134704
v -7.022460 -0.118886 5.134704
v -5.550515 -0.118885 5.134704
v 0.000000 -0.114962 5.011893
v -1.355415 2.388684 5.011891
v -1.360914 -0.114962 5.011954
v 6.913405 -0.114961 5.012200
v 7.842042 2.388684 5.011934
v 6.885469 2.388684 5.011929
v 1.355415 2.388684 5.011891
v 0.000000 2.388684 5.011893
v 0.000000 -0.114960 -5.011893
v 1.355415 2.388686 -5.011890
v 1.360914 -0.114960 -5.011954
v -6.913405 -0.114959 -5.012200
v -7.842042 2.388686 -5.011933
v -6.885469 2.388686 -5.011928
v -7.836619 2.420813 -5.011882
v 7.836619 4.270155 -5.011884
v 7.836619 2.420813 -5.011882
v -1.355415 2.388686 -5.011890
v 0.000000 2.388686 -5.011892
v 6.913405 -0.114958 -5.012200
v 7.842042 2.388686 -5.011933
v 7.873859 -0.114958 -5.012243
v -7.842042 2.388684 3.824929
v -7.873859 -0.114959 0.000157
v -7.873859 -0.114960 3.825201
v -6.885469 2.388684 5.011929
v 7.836619 4.270153 5.011885
v -7.836619 4.270155 -5.011884
v -7.836619 4.270153 5.011885
v 7.873859 -0.114960 3.825201
v 7.873859 -0.114960 5.012243
v -7.842042 2.388685 0.000000
v -7.873859 -0.114959 0.000057
v -7.836619 2.420811 5.011883
v -7.873859 -0.114958 -3.825201
v -7.873859 -0.114958 -5.012243
v 7.842042 2.388686 -3.824929
v 7.873859 -0.114958 -3.825201
v -7.873859 -0.114959 -0.000157
v -1.265887 0.776636 5.509223
v -7.028125 0.710640 5.509223
v -1.265887 0.710640 5.509223
v -1.265887 0.776636 5.497953
v -7.028125 0.710640 5.497953
v -7.028126 0.776636 5.497953
v -1.337532 -0.113857 5.501639
v -1.271536 0.743638 5.501639
v -1.337532 0.743638 5.501639
v -7.012978 -0.113857 5.501639
v -6.946981 0.743638 5.501639
v -7.012978 0.743638 5.501639
v -4.175255 -0.113857 5.501639
v -4.109258 0.743638 5.501639
v -4.175255 0.743638 5.501639
v -1.266079 0.710640 4.651651
v -1.266079 0.776636 5.509146
v -1.266079 0.710640 5.509146
v -7.026783 0.776636 5.509146
v -7.026783 0.710640 4.651651
v -7.026783 0.710640 5.509146
v 7.290690 2.343578 5.054023
v 5.141340 3.592485 5.054025
v 5.141340 2.343578 5.054023
v -5.730579 2.343578 5.054023
v -7.316002 3.592485 5.054025
v -7.316002 2.343578 5.054023
v -6.188635 2.530894 5.121713
v -7.028685 3.405168 5.121715
v -7.028685 2.530894 5.121714
v -4.530959 2.530894 5.121713
v -5.240029 3.405168 5.121714
v -5.240029 2.530894 5.121713
v -2.276266 2.530894 5.121713
v -3.116967 3.405168 5.121714
v -3.116967 2.530894 5.121713
v 2.239227 3.405168 5.121714
v 1.355529 2.530894 5.121713
v 2.239227 2.530894 5.121713
v 4.474599 3.405168 5.121714
v 3.536468 2.530894 5.121713
v 4.474599 2.530894 5.121713
v 6.739158 3.405168 5.121715
v 5.904266 2.530894 5.121713
v 6.739158 2.530894 5.121714
v -3.756008 2.343578 5.054023
v -5.660756 3.592485 5.054025
v -5.660756 2.343578 5.054023
v -1.551786 2.343578 5.054023
v -3.686184 3.592485 5.054025
v -3.686184 2.343578 5.054023
v 5.071517 2.343578 5.054023
v 2.944722 3.592485 5.054025
v 2.944722 2.343578 5.054023
v -0.014680 2.530894 5.121713
v -0.811033 3.405168 5.121714
v -0.811033 2.530894 5.121713
v -1.481963 3.592485 5.054025
v -1.481963 2.343578 5.054023
v 0.707162 3.592485 5.054025
v 0.637338 2.343578 5.054023
v 0.707162 2.343578 5.054023
v 2.874898 2.343578 5.054023
v 6.885469 2.388686 -5.011928
v -6.896688 -0.114960 -5.011954
v -1.372132 2.388686 -5.011928
v -1.344196 -0.114958 -5.012200
v -7.842042 2.388685 -0.000215
v -7.873859 -0.114958 -3.824986
v 7.836619 2.420811 5.011883
v 3.619908 0.260638 5.012076
v 6.896688 -0.114962 5.011954
v 5.472295 0.260638 5.011989
v 3.627282 2.341957 5.011917
v 6.902187 2.388684 5.011891
v 1.372132 2.388684 5.011929
v 5.467837 2.341957 5.011904
v 7.842042 2.388684 3.825145
v -2.846620 -0.118886 5.255795
v -3.779638 -0.118886 5.230269
v -4.589511 -0.118886 5.208876
v -5.319836 -0.118886 5.183350
v -6.089443 -0.118886 5.160230
v -7.022461 1.189511 5.134704
v 1.360914 -0.114962 5.011954
v -1.360914 -0.114960 -5.011954
v 7.842042 2.388684 3.824929
v -7.842042 2.388686 -3.824929
v -7.028126 0.776636 5.509223
v -1.265887 0.710640 5.497953
v -1.271536 -0.113857 5.501639
v -6.946981 -0.113857 5.501639
v -4.109258 -0.113857 5.501639
v -1.266079 0.776636 4.651651
v -7.026783 0.776636 4.651651
v 7.290690 3.592485 5.054025
v -5.730579 3.592485 5.054025
v -6.188635 3.405168 5.121714
v -4.530959 3.405168 5.121714
v -2.276266 3.405168 5.121714
v 1.355529 3.405168 5.121714
v 3.536468 3.405168 5.121714
v 5.904266 3.405168 5.121714
v -3.756008 3.592485 5.054025
v -1.551786 3.592485 5.054025
v 5.071517 3.592485 5.054025
v -0.014680 3.405168 5.121714
v 0.637338 3.592485 5.054025
v 2.874898 3.592485 5.054025
v -6.902187 2.388686 -5.011890
v -7.842042 2.388686 -3.825144
v 1.344196 -0.114960 5.012200
vt 0.071855 0.062012
vt 0.024902 0.020996
vt 0.071855 0.020996
vt 0.020996 0.020996
vt 0.017090 0.062012
vt 0.017090 0.020996
vt 0.179199 0.155762
vt 0.246582 0.101074
vt 0.246582 0.155762
vt 0.179199 0.155762
vt 0.246582 0.101074
vt 0.246582 0.155762
vt 0.179199 0.155762
vt 0.246582 0.101074
vt 0.246582 0.155762
vt 0.179199 0.155762
vt 0.246582 0.101074
vt 0.246582 0.155762
vt 0.179199 0.155762
vt 0.246582 0.101074
vt 0.246582 0.155762
vt 0.246582 0.155762
vt 0.179199 0.101074
vt 0.246582 0.101074
vt 0.124512 0.020996
vt 0.104004 0.062012
vt 0.104004 0.020996
vt 0.020996 0.020996
vt 0.017090 0.062012
vt 0.020996 0.062012
vt 0.104004 0.062012
vt 0.124512 0.062012
vt 0.124512 0.020996
vt 0.104004 0.062012
vt 0.104004 0.020996
vt 0.020996 0.020996
vt 0.017090 0.062012
vt 0.020996 0.062012
vt 0.007324 0.099121
vt 0.007324 0.068848
vt 0.007324 0.099121
vt 0.104004 0.062012
vt 0.124512 0.062012
vt 0.020996 0.020996
vt 0.017090 0.062012
vt 0.017090 0.020996
vt 0.071855 0.062012
vt 0.024902 0.020996
vt 0.071855 0.020996
vt 0.020996 0.062012
vt 0.017090 0.020996
vt 0.020996 0.020996
vt 0.104091 0.020996
vt 0.021495 0.061879
vt 0.020762 0.020996
vt 0.007324 0.068848
vt 0.007324 0.068848
vt 0.007324 0.068848
vt 0.017090 0.020996
vt 0.020996 0.062012
vt 0.020996 0.020996
vt 0.054199 0.020996
vt 0.054199 0.062012
vt 0.054198 0.020996
vt 0.007324 0.099121
vt 0.017090 0.020996
vt 0.020996 0.062012
vt 0.020996 0.020996
vt 0.071855 0.062012
vt 0.024902 0.020996
vt 0.071855 0.020996
vt 0.020996 0.062012
vt 0.017090 0.020996
vt 0.020996 0.020996
vt 0.054199 0.020996
vt 0.243652 0.159668
vt 0.241699 0.156738
vt 0.243652 0.156738
vt 0.243652 0.159668
vt 0.241699 0.156738
vt 0.241699 0.159668
vt 0.242676 0.156738
vt 0.242676 0.156738
vt 0.242676 0.156738
vt 0.242676 0.156738
vt 0.242676 0.156738
vt 0.242676 0.156738
vt 0.242676 0.156738
vt 0.242676 0.156738
vt 0.242676 0.156738
vt 0.242676 0.156738
vt 0.242676 0.156738
vt 0.242676 0.156738
vt 0.242676 0.156738
vt 0.242676 0.156738
vt 0.242676 0.156738
vt 0.057129 0.188965
vt 0.056858 0.199707
vt 0.056858 0.188965
vt 0.041103 0.188965
vt 0.038574 0.199707
vt 0.038574 0.188965
vt 0.043938 0.168457
vt 0.033691 0.185059
vt 0.033691 0.168457
vt 0.052586 0.168457
vt 0.043938 0.185059
vt 0.043938 0.168457
vt 0.062841 0.168457
vt 0.052586 0.185059
vt 0.052586 0.168457
vt 0.082077 0.185059
vt 0.072122 0.168457
vt 0.082077 0.168457
vt 0.092645 0.185059
vt 0.082077 0.168457
vt 0.092645 0.168457
vt 0.102051 0.185059
vt 0.092645 0.168457
vt 0.102051 0.168457
vt 0.044333 0.188965
vt 0.041347 0.199707
vt 0.041347 0.188965
vt 0.047939 0.188965
vt 0.044577 0.199707
vt 0.044577 0.188965
vt 0.056796 0.188965
vt 0.055355 0.199707
vt 0.055355 0.188965
vt 0.072122 0.168457
vt 0.062841 0.185059
vt 0.062841 0.168457
vt 0.105957 0.055176
vt 0.105957 0.044434
vt 0.105957 0.044434
vt 0.105957 0.055176
vt 0.105957 0.044434
vt 0.105957 0.044434
vt 0.105957 0.055176
vt 0.105957 0.044434
vt 0.105957 0.044434
vt 0.105957 0.055176
vt 0.105957 0.044434
vt 0.105957 0.044434
vt 0.105957 0.055176
vt 0.105957 0.044434
vt 0.105957 0.044434
vt 0.105957 0.055176
vt 0.105957 0.044434
vt 0.105957 0.044434
vt 0.055180 0.188965
vt 0.051764 0.199707
vt 0.051764 0.188965
vt 0.104091 0.020996
vt 0.021495 0.061879
vt 0.020762 0.020996
vt 0.104091 0.020996
vt 0.021495 0.061879
vt 0.020762 0.020996
vt 0.071855 0.062012
vt 0.024902 0.020996
vt 0.071855 0.020996
vt 0.007324 0.099121
vt 0.051520 0.188965
vt 0.048183 0.199707
vt 0.048183 0.188965
vt 0.054946 0.027129
vt 0.104091 0.020996
vt 0.082737 0.027129
vt 0.055236 0.061116
vt 0.104242 0.061879
vt 0.021495 0.061879
vt 0.082777 0.061116
vt 0.024902 0.062012
vt 0.020996 0.062012
vt 0.179199 0.101074
vt 0.179199 0.101074
vt 0.179199 0.101074
vt 0.179199 0.101074
vt 0.179199 0.101074
vt 0.179199 0.155762
vt 0.017090 0.020996
vt 0.104004 0.020996
vt 0.017090 0.020996
vt 0.104004 0.020996
vt 0.020996 0.062012
vt 0.024902 0.062012
vt 0.017090 0.062012
vt 0.104242 0.061879
vt 0.017090 0.062012
vt 0.017090 0.062012
vt 0.024902 0.062012
vt 0.017090 0.062012
vt 0.241699 0.159668
vt 0.243652 0.156738
vt 0.242676 0.156738
vt 0.242676 0.156738
vt 0.242676 0.156738
vt 0.242676 0.156738
vt 0.242676 0.156738
vt 0.057129 0.199707
vt 0.041103 0.199707
vt 0.043938 0.185059
vt 0.052586 0.185059
vt 0.062841 0.185059
vt 0.072122 0.185059
vt 0.082077 0.185059
vt 0.092645 0.185059
vt 0.044333 0.199707
vt 0.047939 0.199707
vt 0.056796 0.199707
vt 0.072122 0.185059
vt 0.105957 0.055176
vt 0.105957 0.055176
vt 0.105957 0.055176
vt 0.105957 0.055176
vt 0.105957 0.055176
vt 0.105957 0.055176
vt 0.055180 0.199707
vt 0.104242 0.061879
vt 0.104242 0.061879
vt 0.024902 0.062012
vt 0.051520 0.199707
vt 0.020762 0.020996
vn 0.9999 0.0127 0.0000
vn 0.0000 0.0001 1.0000
vn 0.0000 0.0000 1.0000
vn 0.0000 0.0000 -1.0000
vn 0.0000 0.0001 -1.0000
vn -0.9999 0.0127 0.0000
vn 0.0000 1.0000 0.0000
vn 1.0000 0.0000 0.0000
vn -1.0000 -0.0000 0.0000
s 1
f 1/1/1 2/2/1 3/3/1
f 4/4/2 5/5/2 6/6/2
f 7/7/3 8/8/3 9/9/3
f 10/10/3 11/11/3 12/12/3
f 13/13/3 14/14/3 15/15/3
f 16/16/3 17/17/3 18/18/3
f 19/19/3 20/20/3 21/21/3
f 22/22/3 23/23/3 24/24/3
f 25/25/3 26/26/3 27/27/3
f 28/28/2 29/29/2 30/30/2
f 25/25/3 31/31/3 32/32/3
f 33/33/4 34/34/4 35/35/4
f 36/36/5 37/37/5 38/38/5
f 39/39/4 40/40/4 41/41/4
f 33/33/4 42/42/4 43/43/4
f 44/44/5 45/45/5 46/46/5
f 47/47/6 48/48/6 49/49/6
f 5/50/6 49/51/6 6/52/6
f 27/53/3 50/54/2 4/55/2
f 51/56/7 52/57/7 53/58/7
f 54/59/1 29/60/1 55/61/1
f 51/56/8 41/41/8 40/40/8
f 48/62/6 56/63/6 57/64/6
f 58/65/9 52/57/9 39/39/9
f 59/66/6 37/67/6 60/68/6
f 61/69/1 3/70/1 62/71/1
f 45/72/1 62/73/1 46/74/1
f 63/75/6 57/64/6 56/63/6
f 64/76/3 65/77/3 66/78/3
f 67/79/4 68/80/4 69/81/4
f 70/82/3 71/83/3 72/84/3
f 73/85/3 74/86/3 75/87/3
f 76/88/3 77/89/3 78/90/3
f 79/91/8 80/92/8 81/93/8
f 82/94/9 83/95/9 84/96/9
f 85/97/3 86/98/3 87/99/3
f 88/100/3 89/101/3 90/102/3
f 91/103/3 92/104/3 93/105/3
f 94/106/3 95/107/3 96/108/3
f 97/109/3 98/110/3 99/111/3
f 100/112/3 101/113/3 102/114/3
f 103/115/3 104/116/3 105/117/3
f 106/118/3 107/119/3 108/120/3
f 109/121/3 110/122/3 111/123/3
f 112/124/3 113/125/3 114/126/3
f 115/127/3 116/128/3 117/129/3
f 118/130/3 119/131/3 120/132/3
f 110/133/3 88/134/3 111/135/3
f 113/136/3 109/137/3 114/138/3
f 121/139/3 112/140/3 122/141/3
f 123/142/3 124/143/3 125/144/3
f 116/145/3 126/146/3 117/147/3
f 86/148/3 115/149/3 87/150/3
f 126/151/3 123/152/3 125/153/3
f 35/154/4 127/155/5 44/156/5
f 128/157/4 129/158/5 130/159/5
f 131/160/6 132/161/6 57/162/6
f 51/56/3 58/65/3 133/163/3
f 124/164/3 121/165/3 122/166/3
f 134/167/2 135/168/3 136/169/2
f 137/170/2 138/171/3 139/172/2
f 136/169/2 138/171/3 140/173/2
f 137/170/3 136/169/3 140/173/3
f 139/172/2 134/167/2 137/170/2
f 1/1/1 141/174/1 2/2/1
f 4/4/2 50/175/2 5/5/2
f 7/7/3 142/176/3 8/8/3
f 10/10/3 143/177/3 11/11/3
f 13/13/3 144/178/3 14/14/3
f 16/16/3 145/179/3 17/17/3
f 19/19/3 146/180/3 20/20/3
f 22/22/3 147/181/3 23/23/3
f 25/25/3 32/32/3 26/26/3
f 28/28/2 55/182/2 29/29/2
f 25/25/3 148/183/3 31/31/3
f 33/33/4 43/43/4 34/34/4
f 36/36/5 60/184/5 37/37/5
f 39/39/4 52/57/4 40/40/4
f 33/33/4 149/185/4 42/42/4
f 44/44/5 127/186/5 45/45/5
f 47/47/6 56/187/6 48/48/6
f 5/50/6 47/188/6 49/51/6
f 27/53/3 26/189/3 50/54/2
f 51/56/7 40/40/7 52/57/7
f 54/59/1 150/190/1 29/60/1
f 51/56/8 133/163/8 41/41/8
f 58/65/9 53/58/9 52/57/9
f 59/66/6 151/191/6 37/67/6
f 61/69/1 1/192/1 3/70/1
f 45/72/1 61/193/1 62/73/1
f 64/76/3 152/194/3 65/77/3
f 67/79/4 153/195/4 68/80/4
f 70/82/3 154/196/3 71/83/3
f 73/85/3 155/197/3 74/86/3
f 76/88/3 156/198/3 77/89/3
f 79/91/8 157/199/8 80/92/8
f 82/94/9 158/200/9 83/95/9
f 85/97/3 159/201/3 86/98/3
f 88/100/3 160/202/3 89/101/3
f 91/103/3 161/203/3 92/104/3
f 94/106/3 162/204/3 95/107/3
f 97/109/3 163/205/3 98/110/3
f 100/112/3 164/206/3 101/113/3
f 103/115/3 165/207/3 104/116/3
f 106/118/3 166/208/3 107/119/3
f 109/121/3 167/209/3 110/122/3
f 112/124/3 168/210/3 113/125/3
f 115/127/3 169/211/3 116/128/3
f 118/130/3 170/212/3 119/131/3
f 110/133/3 160/213/3 88/134/3
f 113/136/3 167/214/3 109/137/3
f 121/139/3 168/215/3 112/140/3
f 123/142/3 171/216/3 124/143/3
f 116/145/3 172/217/3 126/146/3
f 86/148/3 169/218/3 115/149/3
f 126/151/3 172/219/3 123/152/3
f 35/154/4 34/220/4 127/155/5
f 128/157/4 173/221/4 129/158/5
f 131/160/6 174/222/6 132/161/6
f 51/56/3 53/58/3 58/65/3
f 124/164/3 171/223/3 121/165/3
f 134/167/2 175/224/2 135/168/3
f 137/170/2 140/173/2 138/171/3
f 136/169/2 135/168/3 138/171/3
f 137/170/2 134/167/2 136/169/2
f 139/172/2 175/224/2 134/167/2
