# Blender v2.90.0 Alpha OBJ File: 'Props.blend'
# www.blender.org
o Detail_Cube.025
v -6.823677 1.000000 8.837947
v -6.534259 0.000000 8.548529
v -6.823677 0.500000 8.837947
v -6.708072 0.467268 8.722342
v -6.979880 0.750000 8.994150
v 6.823677 1.000000 8.837947
v 6.534259 0.000000 8.548529
v 6.823677 0.500000 8.837947
v 6.708072 0.467268 8.722342
v 6.979880 0.750000 8.994150
v 0.000000 1.000000 8.837947
v 0.000000 0.000000 8.548529
v 0.000000 0.500000 8.837947
v 0.000000 0.467268 8.722342
v 0.000000 0.750000 8.994150
v -6.823677 1.000000 -8.837947
v -6.534259 0.000000 -8.548529
v -6.823677 0.500000 -8.837947
v -6.708072 0.467268 -8.722342
v -6.979880 0.750000 -8.994150
v -6.823677 1.000000 0.000000
v -6.534259 0.000000 0.000000
v -6.823677 0.500000 0.000000
v -6.708072 0.467268 0.000000
v -6.979880 0.750000 0.000000
v 6.823677 1.000000 -8.837947
v 6.534259 0.000000 -8.548529
v 6.823677 0.500000 -8.837947
v 6.708072 0.467268 -8.722342
v 6.979880 0.750000 -8.994150
v 0.000000 1.000000 -8.837947
v 0.000000 0.000000 -8.548529
v 0.000000 0.500000 -8.837947
v 0.000000 0.467268 -8.722342
v 0.000000 0.750000 -8.994150
v 6.823677 1.000000 0.000000
v 6.534259 0.000000 0.000000
v 6.823677 0.500000 0.000000
v 6.708072 0.467268 0.000000
v 6.979880 0.750000 0.000000
v 0.000000 0.000000 0.000000
v 0.000000 1.000000 0.000000
vt 0.520613 0.806886
vt 0.520613 0.806886
vt 0.520613 0.806886
vt 0.520613 0.806886
vt 0.520613 0.806886
vt 0.520613 0.806886
vt 0.520613 0.806886
vt 0.520613 0.806886
vt 0.520613 0.806886
vt 0.520613 0.806886
vt 0.520613 0.806886
vt 0.520613 0.806886
vt 0.520613 0.806886
vt 0.520613 0.806886
vt 0.520613 0.806886
vt 0.520613 0.806886
vt 0.520613 0.806886
vt 0.520613 0.806886
vt 0.520613 0.806886
vt 0.520613 0.806886
vt 0.520613 0.806886
vt 0.520613 0.806886
vt 0.520613 0.806886
vt 0.520613 0.806886
vt 0.520613 0.806886
vt 0.520613 0.806886
vt 0.520613 0.806886
vt 0.520613 0.806886
vt 0.520613 0.806886
vt 0.520613 0.806886
vt 0.520613 0.806886
vt 0.520613 0.806886
vt 0.520613 0.806886
vt 0.520613 0.806886
vt 0.520613 0.806886
vt 0.520613 0.806886
vt 0.520613 0.806886
vt 0.520613 0.806886
vt 0.520613 0.806886
vt 0.520613 0.806886
vt 0.520613 0.806886
vt 0.520613 0.806886
vn 0.0000 0.5299 0.8481
vn 0.0000 1.0000 0.0000
vn 0.0000 -0.9622 0.2724
vn 0.0000 -0.3486 0.9373
vn 0.0000 -0.5299 0.8481
vn -0.8481 -0.5299 0.0000
vn -0.9373 -0.3486 0.0000
vn -0.2724 -0.9622 0.0000
vn 0.0000 -1.0000 0.0000
vn -0.8481 0.5299 0.0000
vn 0.8481 -0.5299 0.0000
vn 0.9373 -0.3486 0.0000
vn 0.2724 -0.9622 0.0000
vn 0.8481 0.5299 0.0000
vn 0.0000 0.5299 -0.8481
vn 0.0000 -0.9622 -0.2724
vn 0.0000 -0.3486 -0.9373
vn 0.0000 -0.5299 -0.8481
s off
f 15/1/1 11/2/1 1/3/1 5/4/1
f 42/5/2 21/6/2 1/3/2 11/2/2
f 14/7/3 13/8/3 3/9/3 4/10/3
f 12/11/4 14/7/4 4/10/4 2/12/4
f 13/8/5 15/1/5 5/4/5 3/9/5
f 3/9/6 5/4/6 25/13/6 23/14/6
f 2/12/7 4/10/7 24/15/7 22/16/7
f 4/10/8 3/9/8 23/14/8 24/15/8
f 12/11/9 2/12/9 22/16/9 41/17/9
f 5/4/10 1/3/10 21/6/10 25/13/10
f 15/1/1 10/18/1 6/19/1 11/2/1
f 42/5/2 11/2/2 6/19/2 36/20/2
f 14/7/3 9/21/3 8/22/3 13/8/3
f 12/11/4 7/23/4 9/21/4 14/7/4
f 13/8/5 8/22/5 10/18/5 15/1/5
f 8/22/11 38/24/11 40/25/11 10/18/11
f 7/23/12 37/26/12 39/27/12 9/21/12
f 9/21/13 39/27/13 38/24/13 8/22/13
f 12/11/9 41/17/9 37/26/9 7/23/9
f 10/18/14 40/25/14 36/20/14 6/19/14
f 35/28/15 20/29/15 16/30/15 31/31/15
f 42/5/2 31/31/2 16/30/2 21/6/2
f 34/32/16 19/33/16 18/34/16 33/35/16
f 32/36/17 17/37/17 19/33/17 34/32/17
f 33/35/18 18/34/18 20/29/18 35/28/18
f 18/34/6 23/14/6 25/13/6 20/29/6
f 17/37/7 22/16/7 24/15/7 19/33/7
f 19/33/8 24/15/8 23/14/8 18/34/8
f 32/36/9 41/17/9 22/16/9 17/37/9
f 20/29/10 25/13/10 21/6/10 16/30/10
f 35/28/15 31/31/15 26/38/15 30/39/15
f 42/5/2 36/20/2 26/38/2 31/31/2
f 34/32/16 33/35/16 28/40/16 29/41/16
f 32/36/17 34/32/17 29/41/17 27/42/17
f 33/35/18 35/28/18 30/39/18 28/40/18
f 28/40/11 30/39/11 40/25/11 38/24/11
f 27/42/12 29/41/12 39/27/12 37/26/12
f 29/41/13 28/40/13 38/24/13 39/27/13
f 32/36/9 27/42/9 37/26/9 41/17/9
f 30/39/14 26/38/14 36/20/14 40/25/14
