# Blender v2.91.0 Beta OBJ File: 'decos.blend'
# www.blender.org
o Cube.001_Cube.022
v 1.895972 1.237824 2.686748
v 1.770351 0.519566 2.584934
v 1.817455 0.739051 -2.713546
v 1.862768 0.302850 -3.211307
v 2.032693 0.975678 -2.218143
v 1.530471 1.344627 -3.054125
v 1.858453 0.748548 2.156535
v 1.839531 0.161769 3.005262
v 1.781582 1.335329 3.005262
v -1.895972 1.237824 2.686748
v -1.817455 0.739051 -2.713546
v -1.770351 0.519566 2.584934
v -1.582650 0.171403 -2.551285
v -2.104439 0.501646 -3.403300
v -1.834337 1.349438 -2.777796
v -1.836587 0.516899 2.177433
v -1.626132 0.264559 3.149206
v -1.874852 1.335329 3.005262
v -1.371823 3.886560 -1.163596
v -1.335560 3.993566 -3.558064
v 1.371823 3.886560 -3.595895
v 1.335560 3.993566 -1.201427
v 2.634634 1.004458 3.996614
v 2.638916 0.801823 -1.391641
v 2.634634 0.599186 3.996613
v -2.638916 0.801823 -1.391641
v -2.524868 1.006779 4.027484
v -2.692711 0.701118 3.980280
v 0.719177 4.728827 0.138074
v 0.000000 1.950535 -0.046535
v 0.752767 2.140679 2.296545
v 0.531842 3.556706 -0.101523
v -0.722552 2.377501 2.339175
v 0.707306 4.267883 2.066364
v -0.546327 3.541677 -0.101479
v 0.662601 3.381446 1.093193
v 0.582169 4.607181 0.562510
v 0.601913 3.221031 0.557425
v -0.641161 3.135894 1.413776
v -0.760787 4.816947 0.318937
v -0.728833 4.700132 1.966776
v -0.690202 4.748690 1.502697
v -0.695397 3.381763 1.521887
v -0.700592 4.748690 1.541078
v -0.582169 4.607181 0.562510
v -0.601913 3.221031 0.557425
v 0.690202 3.381763 1.541078
v 0.700592 3.381763 1.502697
v 0.695397 4.748690 1.521887
v -1.932879 3.503350 -0.100820
v 1.890344 3.482156 -3.926596
v 1.932879 3.503350 -0.100820
v -1.859662 3.497459 -3.973945
v -1.904008 1.950536 -4.008543
v 1.890306 1.950536 -4.033816
v 1.975574 1.950535 -0.617115
v 0.000000 1.950535 -0.426084
v -1.997190 1.950535 -0.629625
v 0.675663 3.360466 2.148014
v 0.693003 3.371927 1.034985
v 0.676499 3.381763 1.521887
v 0.671305 4.748690 1.541078
v 0.681694 4.748690 1.502697
v -1.737310 0.939886 -0.100821
v -1.196953 3.568328 0.912508
v -0.775063 1.552211 0.659177
v -0.967513 3.145972 -3.426594
v -0.580479 2.818668 2.186759
v 0.595032 2.702080 2.191213
v -0.580479 2.702080 2.191213
v 0.655938 2.758532 2.226549
v -0.641459 2.761633 2.226302
v 0.595032 2.818668 2.186759
v 2.287785 0.721761 -3.676181
v 2.146097 0.814370 -3.459963
v 1.619439 1.834209 2.284623
v 2.350086 1.776869 1.702206
v 2.324793 0.351302 3.444738
v 2.309889 0.493896 3.295272
v 1.291769 1.572077 2.782537
v 1.319614 0.385576 3.320751
v 1.334746 0.797521 -3.576649
v -2.350086 1.776869 1.702206
v -2.324793 0.351302 3.444738
v -2.287785 0.721761 -3.676181
v -1.291769 1.572077 2.782537
v -1.619439 1.834209 2.284623
v -2.146097 0.814370 -3.459963
v -1.319614 0.385576 3.320751
v -2.309889 0.493896 3.295272
v -1.334746 0.797521 -3.576649
v -0.518740 4.628777 -3.443428
v -0.418448 4.092042 -2.843945
v -0.640714 4.324188 -3.270948
v 2.604868 0.855715 0.789594
v 2.518862 1.890282 3.675285
v 2.673337 1.847042 3.685350
v 2.622483 2.002788 3.667521
v 2.604868 2.427277 5.214662
v 3.601655 0.543229 4.959125
v -3.601669 0.574263 4.978034
v 3.265475 0.089342 6.299834
v 3.559238 1.057854 5.401826
v 3.515299 3.331024 5.291596
v -3.548272 1.094951 5.372807
v -2.604868 0.855715 0.789594
v -2.518862 1.890282 3.675286
v -2.622483 2.002788 3.667521
v -2.673337 1.847042 3.685350
v -2.604868 2.427277 5.214662
v -3.298206 0.080604 6.353124
v -3.523318 3.297122 5.325429
v 1.124378 3.568328 0.912508
v 1.738717 1.092967 -0.100821
v 0.814960 1.552211 0.659177
v 1.353818 1.092968 -3.426594
v -1.544861 1.092968 -3.426594
v 1.353818 3.145972 -3.426594
v 0.007276 0.633723 -0.100821
v 0.007276 0.633724 -3.426594
v 0.007276 1.552212 -3.426594
v 0.007276 1.552211 -0.100821
vt 0.367188 0.867188
vt 0.367188 0.867188
vt 0.367188 0.867188
vt 0.367188 0.867188
vt 0.367188 0.867188
vt 0.367188 0.867188
vt 0.367188 0.867188
vt 0.367188 0.867188
vt 0.367188 0.867188
vt 0.835938 0.398438
vt 0.835938 0.398438
vt 0.835938 0.398438
vt 0.835938 0.398438
vt 0.835938 0.382812
vt 0.835938 0.382812
vt 0.835938 0.382812
vt 0.835938 0.382812
vt 0.835938 0.382812
vt 0.835938 0.382812
vt 0.367188 0.867188
vt 0.367188 0.867188
vt 0.367188 0.867188
vt 0.367188 0.867188
vt 0.367188 0.867188
vt 0.367188 0.867188
vt 0.367188 0.867188
vt 0.367188 0.867188
vt 0.367188 0.867188
vt 0.835938 0.398438
vt 0.835938 0.398438
vt 0.835938 0.398438
vt 0.367188 0.867188
vt 0.367188 0.867188
vt 0.367188 0.867188
vt 0.367188 0.867187
vt 0.835938 0.398438
vt 0.835938 0.398438
vt 0.835938 0.398438
vt 0.835938 0.398438
vt 0.289062 0.835938
vt 0.289062 0.835938
vt 0.289062 0.835938
vt 0.367188 0.867188
vt 0.367188 0.867188
vt 0.835938 0.398438
vt 0.835938 0.398438
vt 0.835938 0.398438
vt 0.835938 0.398438
vt 0.835938 0.398438
vt 0.367188 0.867187
vt 0.835938 0.398438
vt 0.835938 0.398438
vt 0.835938 0.398438
vt 0.835938 0.398438
vt 0.367188 0.929688
vt 0.367188 0.929688
vt 0.367188 0.929688
vt 0.367188 0.867188
vt 0.367188 0.867188
vt 0.367188 0.867188
vt 0.367188 0.867188
vt 0.367188 0.867188
vt 0.367188 0.867188
vt 0.367188 0.867188
vt 0.367188 0.867188
vt 0.367188 0.867188
vt 0.367188 0.867188
vt 0.835938 0.398437
vt 0.835938 0.398437
vt 0.835938 0.398438
vt 0.835938 0.398438
vt 0.835938 0.398438
vt 0.835938 0.398438
vt 0.367188 0.867188
vt 0.367188 0.867188
vt 0.367188 0.867188
vt 0.367188 0.867188
vt 0.367188 0.867188
vt 0.367188 0.867188
vt 0.367188 0.867188
vt 0.367188 0.867188
vt 0.367188 0.867188
vt 0.367188 0.867188
vt 0.367188 0.867188
vt 0.367188 0.867188
vt 0.367188 0.867188
vt 0.367188 0.867188
vt 0.367188 0.867188
vt 0.367188 0.867188
vt 0.367188 0.867188
vt 0.367188 0.867188
vt 0.835938 0.398438
vt 0.835938 0.398438
vt 0.835938 0.398438
vt 0.835938 0.398438
vt 0.835938 0.398438
vt 0.835938 0.398438
vt 0.835938 0.429688
vt 0.835938 0.429688
vt 0.835938 0.429688
vt 0.835938 0.382812
vt 0.835938 0.382812
vt 0.835938 0.382812
vt 0.367188 0.867188
vt 0.367188 0.867188
vt 0.367188 0.867188
vt 0.835938 0.382812
vt 0.367188 0.867188
vt 0.835938 0.414062
vt 0.835938 0.414062
vt 0.835938 0.414062
vt 0.835938 0.429688
vt 0.835938 0.429688
vt 0.835938 0.429688
vt 0.835938 0.429688
vt 0.835938 0.382812
vt 0.835938 0.382812
vt 0.367188 0.867188
vt 0.367188 0.867188
vt 0.367188 0.867188
vt 0.367188 0.867188
vt 0.367188 0.867188
vt 0.367188 0.867188
vt 0.367188 0.867188
vt 0.367188 0.867188
vt 0.367188 0.867188
vt 0.367188 0.867188
vt 0.367188 0.867188
vt 0.367188 0.867188
vt 0.289062 0.835938
vt 0.289062 0.835938
vt 0.289062 0.835938
vt 0.835938 0.398438
vt 0.835938 0.398438
vt 0.835938 0.398438
vt 0.835938 0.398438
vt 0.289062 0.835938
vt 0.835938 0.398438
vt 0.835938 0.398438
vt 0.367188 0.929688
vt 0.367188 0.929688
vt 0.835938 0.398438
vt 0.835938 0.398438
vt 0.835938 0.398438
vt 0.835938 0.398438
vt 0.835938 0.429688
vt 0.835938 0.382812
vt 0.835938 0.382812
vt 0.367188 0.867188
vt 0.835938 0.414062
vt 0.367188 0.867188
vn 0.9850 -0.1725 0.0016
vn -0.9850 -0.1725 0.0016
vn 0.8644 0.0896 -0.4947
vn -0.0401 -0.9982 -0.0452
vn 0.0388 0.9983 -0.0440
vn -1.0000 -0.0000 -0.0008
vn 1.0000 0.0000 0.0008
vn 0.8766 -0.4813 -0.0002
vn -0.9850 0.1725 -0.0016
vn 0.8660 0.3326 -0.3735
vn -0.8660 -0.3326 0.3735
vn 0.9972 0.0492 0.0563
vn -0.9972 -0.0492 -0.0563
vn 0.9850 0.1725 -0.0016
vn -0.8644 -0.0896 0.4947
vn -0.9665 -0.2035 0.1565
vn 0.9665 0.2035 -0.1565
vn 0.0401 -0.9982 0.0452
vn -0.0388 0.9983 0.0440
vn -0.8766 0.4813 0.0002
vn 0.5795 -0.7718 -0.2619
vn 0.6026 -0.5747 0.5537
vn -0.6470 -0.4609 0.6073
vn 0.9843 -0.1255 -0.1241
vn 0.7974 -0.0851 -0.5974
vn 0.6540 0.4516 0.6069
vn 0.8983 -0.0057 -0.4394
vn -0.9426 -0.2376 -0.2348
vn 0.0860 0.9387 -0.3337
vn -0.9066 -0.1100 -0.4074
vn -0.6256 0.6527 -0.4274
vn 0.1826 0.8947 0.4077
vn 0.1381 0.9431 0.3023
vn 0.1860 0.8979 0.3990
vn -0.9342 -0.3258 -0.1457
vn -0.5323 0.6438 0.5497
vn 0.5678 -0.5611 -0.6023
vn -0.0000 -1.0000 -0.0000
vn -0.5606 0.5920 -0.5790
vn 0.0133 0.6068 0.7948
vn 0.5621 0.4838 0.6707
vn -0.5782 -0.5658 -0.5879
vn -0.7897 -0.1682 0.5899
vn 0.5785 0.5949 -0.5581
vn 0.7804 -0.1807 0.5986
vn 0.3132 -0.3552 0.8808
vn 0.1429 0.5800 -0.8020
vn -0.0300 0.7733 0.6333
vn 0.0000 -0.0382 -0.9993
vn -0.0014 -0.5087 0.8610
vn 0.0000 0.5698 0.8218
vn 0.0888 -0.9933 -0.0745
vn 0.5202 -0.3945 0.7575
vn 0.7028 0.0780 0.7071
vn -0.9030 -0.2477 0.3510
vn -0.3406 0.3966 -0.8525
vn 0.5681 -0.3964 0.7212
vn -0.1013 -0.0802 -0.9916
vn 0.7751 0.4956 0.3919
vn -0.1067 0.9625 0.2494
vn 0.1257 0.9902 0.0601
vn 0.0362 0.0523 0.9980
vn -0.6513 0.0166 0.7587
vn 0.1067 0.9625 0.2494
vn 0.1013 -0.0802 -0.9916
vn -0.1257 0.9902 0.0601
vn 0.9030 -0.2477 0.3510
vn -0.7028 0.0780 0.7071
vn 0.3406 0.3966 -0.8525
vn -0.5202 -0.3945 0.7575
vn -0.0888 -0.9933 -0.0745
vn -0.5681 -0.3964 0.7212
vn 0.6513 0.0166 0.7587
vn -0.0362 0.0523 0.9980
vn 0.2262 0.0003 -0.9741
vn -0.7751 0.4956 0.3919
vn -0.2262 0.0003 -0.9741
vn -0.1173 0.7920 -0.5991
vn -0.0895 0.7991 -0.5945
vn -0.0837 0.8183 -0.5687
vn -0.0005 -0.3445 -0.9388
vn 0.7258 -0.6460 0.2363
vn -0.9668 -0.2380 0.0926
vn 0.2162 0.9279 -0.3036
vn 0.0000 0.3165 0.9486
vn 0.6464 -0.4427 -0.6214
vn -0.4448 -0.4826 0.7545
vn -0.6541 -0.4262 -0.6249
vn -0.7606 0.1914 0.6203
vn 0.4276 -0.4915 0.7586
vn 0.7705 0.1831 0.6106
vn 0.5150 0.8566 0.0306
vn 0.9668 -0.2380 0.0926
vn 0.0004 -0.3440 -0.9390
vn -0.2162 0.9279 -0.3036
vn -0.7258 -0.6460 0.2363
vn -0.5293 0.8471 0.0477
vn -0.0624 0.8024 0.5935
vn 0.3209 -0.8002 -0.5066
vn -0.1570 -0.4358 0.8863
vn -0.5606 0.4817 0.6736
vn 0.7909 -0.5198 0.3230
vn -0.0123 0.6352 -0.7723
vn -0.4002 -0.8835 -0.2434
vn -0.7688 -0.5449 0.3347
vn 0.2735 -0.9616 -0.0220
vn -0.2493 -0.9675 -0.0417
vn -0.1729 -0.9849 -0.0000
vn 0.3435 -0.4075 0.8461
vn -0.2833 0.9575 -0.0542
vn -1.0000 -0.0000 0.0000
vn 0.2532 -0.7424 -0.6203
vn -0.0000 0.0000 -1.0000
vn 0.0932 0.9907 -0.0991
vn 0.6968 -0.0000 0.7173
vn -0.6853 -0.0000 0.7283
vn -0.1372 0.9444 0.2988
vn -0.1390 0.9419 0.3057
vn -0.1843 0.8963 0.4033
vn -0.0028 0.2007 -0.9796
vn 0.1356 0.9446 0.2989
vn 0.1332 0.9427 0.3059
vn 0.1794 0.8971 0.4037
vn 0.0000 -0.5306 0.8476
vn 0.0012 0.5526 0.8334
vn 0.1910 -0.7200 0.6672
vn 0.0000 1.0000 0.0000
vn 0.3228 0.9465 0.0000
s off
f 3/1/1 1/2/1 2/3/1
f 10/4/2 11/5/2 12/6/2
f 13/7/3 14/8/3 15/9/3
f 21/10/4 19/11/4 20/12/4
f 20/12/5 22/13/5 21/10/5
f 23/14/6 24/15/6 25/16/6
f 24/15/7 23/14/7 25/16/7
f 26/17/8 27/18/8 28/19/8
f 2/3/9 1/2/9 3/1/9
f 5/20/10 4/21/10 6/22/10
f 4/21/11 5/20/11 6/22/11
f 7/23/12 9/24/12 8/25/12
f 7/23/13 8/25/13 9/24/13
f 11/5/14 10/4/14 12/6/14
f 14/8/15 13/7/15 15/9/15
f 16/26/16 17/27/16 18/28/16
f 18/28/17 17/27/17 16/26/17
f 21/10/18 22/13/18 19/11/18
f 20/12/19 19/11/19 22/13/19
f 26/17/20 28/19/20 27/18/20
s 1
f 30/29/21 31/30/22 33/31/23
f 30/32/21 36/33/24 31/34/22
f 32/35/25 36/33/24 30/32/21
f 34/36/26 36/37/24 29/38/27
f 32/39/25 29/38/27 36/37/24
f 36/40/24 34/41/26 31/42/22
f 30/32/21 33/43/23 39/44/28
f 29/38/29 35/45/30 40/46/31
f 47/47/32 49/48/33 48/49/34
f 48/49/34 49/48/33 47/47/32
f 35/50/30 30/32/35 39/44/28
f 29/38/29 41/51/36 34/36/26
f 55/52/37 56/53/38 57/54/38
f 53/55/39 32/56/40 52/57/41
f 54/58/42 53/59/39 55/60/37
f 58/61/43 53/59/39 54/58/42
f 51/62/44 56/63/45 55/60/37
f 32/35/40 56/63/45 52/64/41
f 66/65/46 67/66/47 65/67/48
f 68/68/49 69/69/49 70/70/49
f 70/70/50 71/71/50 72/72/50
f 72/72/51 73/73/51 68/68/51
f 77/74/52 75/75/53 74/76/54
f 74/76/54 81/77/55 79/78/56
f 78/79/57 74/76/58 79/78/59
f 76/80/60 79/78/59 77/74/61
f 77/74/52 82/81/62 75/75/53
f 79/78/56 80/82/63 77/74/52
f 87/83/64 85/84/65 83/85/66
f 89/86/67 85/84/68 90/87/69
f 88/88/70 83/85/71 85/84/68
f 84/89/72 86/90/73 87/83/64
f 91/91/74 83/85/71 88/88/70
f 86/90/73 90/87/69 83/85/71
f 91/91/75 84/89/72 85/84/65
f 87/83/64 90/87/76 84/89/72
f 88/88/70 89/86/67 91/91/74
f 74/76/58 76/80/60 77/74/61
f 78/79/57 80/82/63 81/77/55
f 78/79/57 82/81/77 74/76/58
f 81/77/55 75/75/53 82/81/62
f 76/80/60 82/81/77 80/82/63
f 94/92/78 92/93/79 93/94/80
f 95/95/81 97/96/82 96/97/83
f 98/98/84 99/99/85 97/100/82
f 100/101/86 111/102/87 101/103/88
f 105/104/89 102/105/90 103/106/91
f 104/107/92 100/101/86 101/103/88
f 104/108/92 105/104/89 103/106/91
f 107/109/93 106/110/94 108/111/95
f 108/112/95 110/113/85 107/114/93
f 107/114/93 110/113/85 109/115/96
f 110/113/85 108/112/95 109/115/96
f 101/103/88 111/102/87 105/116/89
f 101/103/88 105/116/89 112/117/97
f 113/118/98 116/119/99 115/120/100
f 58/61/43 32/35/40 50/121/101
f 114/122/102 118/123/103 113/118/98
f 65/67/48 117/124/104 64/125/105
f 119/126/106 116/119/99 114/122/102
f 64/125/105 120/127/107 119/126/108
f 66/65/46 64/125/105 119/126/109
f 66/65/110 121/128/110 117/124/110
f 121/128/111 119/126/111 122/129/111
f 116/119/99 120/127/112 121/128/113
f 120/127/113 117/124/113 121/128/113
f 116/119/114 122/129/114 115/120/114
f 66/65/46 119/126/109 122/129/115
f 119/126/116 115/120/116 122/129/116
f 40/130/31 33/131/23 41/132/36
f 42/133/117 44/134/118 43/135/119
f 29/38/27 32/39/25 35/45/120
f 39/136/28 40/46/31 35/45/30
f 39/137/28 33/131/23 40/130/31
f 34/41/26 33/131/23 31/42/22
f 34/41/26 41/132/36 33/131/23
f 29/38/29 40/46/31 41/51/36
f 44/134/118 42/133/117 43/135/119
f 55/52/37 57/54/38 54/138/42
f 57/54/38 58/139/38 54/138/42
f 50/140/101 32/56/40 53/55/39
f 52/57/41 51/141/44 53/55/39
f 58/61/43 50/121/101 53/59/39
f 53/59/39 51/62/44 55/60/37
f 51/62/44 52/64/41 56/63/45
f 63/142/121 62/143/122 61/144/123
f 62/143/122 63/142/121 61/144/123
f 64/125/105 66/65/46 65/67/48
f 66/65/46 117/124/104 67/66/47
f 68/68/49 73/73/49 69/69/49
f 70/70/124 69/69/124 71/71/124
f 72/72/125 71/71/125 73/73/125
f 74/76/54 75/75/53 81/77/55
f 76/80/60 78/79/57 79/78/59
f 77/74/52 80/82/63 82/81/62
f 79/78/56 81/77/55 80/82/63
f 87/83/64 91/91/75 85/84/65
f 89/86/67 88/88/70 85/84/68
f 87/83/64 86/90/73 91/91/75
f 84/89/72 89/86/67 86/90/73
f 84/89/72 90/87/76 85/84/65
f 91/91/74 86/90/73 83/85/71
f 86/90/73 89/86/67 90/87/69
f 91/91/75 89/86/67 84/89/72
f 87/83/64 83/85/66 90/87/76
f 74/76/58 82/81/77 76/80/60
f 78/79/57 76/80/60 80/82/63
f 78/79/57 81/77/55 82/81/77
f 94/92/78 93/94/80 92/93/79
f 96/97/83 98/145/84 95/95/81
f 95/95/81 98/145/84 97/96/82
f 98/98/84 96/146/83 99/99/85
f 96/146/83 97/100/82 99/99/85
f 103/147/91 102/148/90 100/101/86
f 100/101/86 102/148/90 111/102/87
f 104/108/92 112/149/97 105/104/89
f 100/101/86 104/107/92 103/147/91
f 109/150/96 108/111/95 106/110/94
f 106/110/94 107/109/93 109/150/96
f 101/103/88 112/117/97 104/107/92
f 111/151/87 102/105/90 105/104/89
f 113/118/98 115/120/100 114/122/102
f 113/118/98 118/123/103 116/119/99
f 58/61/43 56/63/45 32/35/40
f 114/122/102 116/119/99 118/123/103
f 65/67/48 67/66/47 117/124/104
f 119/126/106 120/127/112 116/119/99
f 64/125/105 117/124/104 120/127/107
f 115/120/100 119/126/126 114/122/102
f 66/65/127 122/129/127 121/128/127
f 121/128/111 120/127/111 119/126/111
f 116/119/128 121/128/128 122/129/128
l 45 46
l 37 38
l 59 60
