# Blender v2.90.0 Alpha OBJ File: 'Decos.blend'
# www.blender.org
o Cube.001_Cube.015
v -0.716721 -0.809522 0.716721
v -0.716721 0.090297 0.716721
v -0.716721 -0.809522 -0.716721
v -0.716721 0.090297 -0.716721
v 0.716721 -0.809522 0.716721
v 0.716721 0.090297 0.716721
v 0.716721 -0.809522 -0.716721
v 0.716721 0.090297 -0.716721
v 0.000000 -0.809522 -1.013597
v -0.000000 0.090297 -1.013597
v -0.000000 -0.809522 1.013597
v 0.000000 0.090297 1.013597
v -1.013597 -0.809522 -0.000000
v -1.013597 0.090297 0.000000
v 1.013597 -0.809522 0.000000
v 1.013597 0.090297 -0.000000
v 0.000000 -0.142052 0.000000
v -0.541698 0.090297 0.541698
v -0.541698 0.090297 -0.541698
v 0.541698 0.090297 0.541698
v 0.541698 0.090297 -0.541698
v -0.000000 0.090297 -0.766077
v 0.000000 0.090297 0.766077
v -0.766077 0.090297 0.000000
v 0.766077 0.090297 -0.000000
v -0.532174 2.209524 0.532174
v -0.532174 3.839851 0.532174
v -0.532174 2.209524 -0.532174
v -0.532174 3.839851 -0.532174
v 0.532174 2.209524 0.532174
v 0.532174 3.839851 0.532174
v 0.532174 2.209524 -0.532174
v 0.532174 3.839851 -0.532174
v -0.618403 0.811662 0.618403
v -0.618403 0.925503 0.618403
v -0.618403 0.925503 -0.618403
v -0.618403 0.811662 -0.618403
v 0.618403 0.925503 -0.618403
v 0.618403 0.811662 -0.618403
v 0.618403 0.925503 0.618403
v 0.618403 0.811662 0.618403
v -0.577341 3.115549 0.577341
v -0.577341 3.202262 0.577341
v -0.577341 3.202262 -0.577341
v -0.577341 3.115549 -0.577341
v 0.577341 3.202262 -0.577341
v 0.577341 3.115549 -0.577341
v 0.577341 3.202262 0.577341
v 0.577341 3.115549 0.577341
v 0.000000 2.209524 0.000000
v 0.000000 3.839851 -0.092460
v 0.000000 3.839851 0.092460
v -0.092460 3.839851 0.000000
v 0.092460 3.839851 0.000000
v 0.824131 3.935114 0.000000
v 0.824131 3.744589 0.000000
v 0.582749 3.935114 -0.582749
v 0.582749 3.744589 -0.582749
v 0.000000 3.935114 -0.824131
v 0.000000 3.744589 -0.824131
v -0.582749 3.935114 -0.582749
v -0.582749 3.744589 -0.582749
v -0.824131 3.935114 -0.000000
v -0.824131 3.744589 -0.000000
v -0.582749 3.935114 0.582749
v -0.582749 3.744589 0.582749
v 0.000000 3.935114 0.824131
v 0.000000 3.744589 0.824131
v 0.582748 3.935114 0.582749
v 0.582748 3.744589 0.582749
v 0.747757 3.839851 0.000000
v 0.528744 3.839851 -0.528744
v 0.000000 3.839851 -0.747757
v -0.528744 3.839851 -0.528744
v -0.747757 3.839851 -0.000000
v -0.528744 3.839851 0.528744
v 0.000000 3.839851 0.747757
v 0.528744 3.839851 0.528744
v 0.125219 3.971910 -0.125219
v 0.125219 3.841648 -0.125219
v 0.125219 3.971910 0.125219
v 0.125219 3.841648 0.125219
v -0.125219 3.971910 -0.125219
v -0.125219 3.841648 -0.125219
v -0.125219 3.971910 0.125219
v -0.125219 3.841648 0.125219
v 0.084728 3.958046 -0.084728
v 0.084728 3.958046 0.084728
v -0.084728 3.958046 -0.084728
v -0.084728 3.958046 0.084728
v 0.000000 3.958046 0.119824
v 0.119824 3.958046 -0.000000
v -0.000000 3.958046 -0.119824
v -0.119824 3.958046 0.000000
v 0.000000 3.958046 0.000000
v 0.000000 4.202473 0.119824
v -0.084728 4.202473 0.084728
v 0.119824 4.202473 -0.000000
v 0.084728 4.202473 0.084728
v -0.000000 4.202473 -0.119824
v 0.084728 4.202473 -0.084728
v -0.119824 4.202473 0.000000
v -0.084728 4.202473 -0.084728
v 0.000000 4.331940 0.000000
v 0.286171 4.359613 -0.286171
v 0.286171 4.321102 -0.286171
v 0.286171 4.359613 0.286171
v 0.286171 4.321102 0.286171
v -0.286171 4.359613 -0.286171
v -0.286171 4.321102 -0.286171
v -0.286171 4.359613 0.286171
v -0.286171 4.321102 0.286171
v -0.203752 4.340358 0.203752
v 0.203752 4.340358 0.203752
v 0.203752 4.340358 -0.203752
v -0.203752 4.340358 -0.203752
v 0.336986 0.182555 -0.336986
v 0.336986 -0.248233 -0.336986
v 0.336986 0.182555 0.336986
v 0.336986 -0.248233 0.336986
v -0.336986 0.182555 -0.336986
v -0.336986 -0.248233 -0.336986
v -0.336986 0.182555 0.336986
v -0.336986 -0.248233 0.336986
v -0.618403 1.626218 0.618403
v -0.618403 1.740058 0.618403
v -0.618403 1.740058 -0.618403
v -0.618403 1.626218 -0.618403
v 0.618403 1.740058 -0.618403
v 0.618403 1.626218 -0.618403
v 0.618403 1.740058 0.618403
v 0.618403 1.626218 0.618403
v -0.609223 2.181404 0.609223
v -0.609223 2.181404 -0.609223
v 0.609223 2.181404 -0.609223
v 0.609223 2.181404 0.609223
v -0.609223 2.268117 0.609223
v -0.609223 2.268117 -0.609223
v 0.609223 2.268117 -0.609223
v 0.609223 2.268117 0.609223
vt 0.195312 0.867188
vt 0.195312 0.867188
vt 0.195312 0.867188
vt 0.195312 0.867188
vt 0.195312 0.867188
vt 0.195312 0.867188
vt 0.195312 0.867188
vt 0.195312 0.867188
vt 0.195312 0.867188
vt 0.195312 0.867188
vt 0.195312 0.867188
vt 0.195312 0.867188
vt 0.195312 0.867188
vt 0.195312 0.867188
vt 0.195312 0.867188
vt 0.195312 0.867188
vt 0.195312 0.867188
vt 0.195312 0.867188
vt 0.195312 0.867188
vt 0.195312 0.867188
vt 0.195312 0.867188
vt 0.195312 0.867188
vt 0.195312 0.867188
vt 0.195312 0.867188
vt 0.195312 0.867188
vt 0.195312 0.867188
vt 0.195312 0.867188
vt 0.195312 0.867188
vt 0.195312 0.867188
vt 0.226562 0.789062
vt 0.226562 0.789062
vt 0.226562 0.789062
vt 0.226562 0.789062
vt 0.226562 0.789062
vt 0.226562 0.789062
vt 0.226562 0.789062
vt 0.226562 0.789062
vt 0.070312 0.742188
vt 0.070312 0.742188
vt 0.070312 0.742188
vt 0.070312 0.742188
vt 0.070312 0.742188
vt 0.070312 0.742188
vt 0.070312 0.742188
vt 0.070312 0.742188
vt 0.070312 0.742188
vt 0.070312 0.742188
vt 0.070312 0.742188
vt 0.070312 0.742188
vt 0.070312 0.742188
vt 0.070312 0.742188
vt 0.070312 0.742188
vt 0.070312 0.742188
vt 0.070312 0.742188
vt 0.070312 0.742188
vt 0.257812 0.804688
vt 0.257812 0.804688
vt 0.257812 0.804688
vt 0.257812 0.804688
vt 0.257812 0.804688
vt 0.257812 0.804688
vt 0.257812 0.804688
vt 0.257812 0.804688
vt 0.257812 0.804688
vt 0.257812 0.804688
vt 0.257812 0.804688
vt 0.257812 0.804688
vt 0.195312 0.867188
vt 0.195312 0.867188
vt 0.195312 0.867188
vt 0.195312 0.867188
vt 0.195312 0.867188
vt 0.195312 0.867188
vt 0.195312 0.867188
vt 0.195312 0.867188
vt 0.195312 0.867188
vt 0.195312 0.867188
vt 0.195312 0.867188
vt 0.195312 0.867188
vt 0.195312 0.867188
vt 0.195312 0.867188
vt 0.195312 0.867188
vt 0.195312 0.867188
vt 0.195312 0.867188
vt 0.195312 0.867188
vt 0.195312 0.867188
vt 0.195312 0.867188
vt 0.195312 0.867188
vt 0.195312 0.867188
vt 0.195312 0.867188
vt 0.195312 0.867188
vt 0.195312 0.867188
vt 0.195312 0.867188
vt 0.195312 0.867188
vt 0.195312 0.867188
vt 0.195312 0.867188
vt 0.195312 0.867188
vt 0.195312 0.867188
vt 0.195312 0.867188
vt 0.195312 0.867188
vt 0.195312 0.867188
vt 0.195312 0.867188
vt 0.195312 0.867188
vt 0.195312 0.867188
vt 0.195312 0.867188
vt 0.195312 0.867188
vt 0.195312 0.867188
vt 0.195312 0.867188
vt 0.195312 0.867188
vt 0.195312 0.867188
vt 0.195312 0.867188
vt 0.195312 0.867188
vt 0.195312 0.867188
vt 0.195312 0.867188
vt 0.195312 0.867188
vt 0.195312 0.867188
vt 0.195312 0.867188
vt 0.195312 0.867188
vt 0.195312 0.867188
vt 0.195312 0.867188
vt 0.195312 0.867188
vt 0.195312 0.867188
vt 0.195312 0.867188
vt 0.195312 0.867188
vt 0.195312 0.867188
vt 0.195312 0.867188
vt 0.195312 0.867188
vt 0.195312 0.867188
vt 0.195312 0.867188
vt 0.195312 0.867188
vt 0.195312 0.867188
vt 0.195312 0.867188
vt 0.195312 0.867188
vt 0.195312 0.867188
vt 0.195312 0.867188
vt 0.195312 0.867188
vt 0.195312 0.867188
vt 0.195312 0.867188
vt 0.195312 0.867188
vt 0.195312 0.867188
vn 0.0000 1.0000 0.0000
vn 0.6742 -0.0209 0.7383
vn 0.7383 -0.0209 -0.6742
vn -0.6742 -0.0209 -0.7383
vn -0.7383 -0.0209 0.6742
vn 0.0000 0.0000 1.0000
vn 1.0000 0.0000 0.0000
vn 0.0000 0.0000 -1.0000
vn -1.0000 0.0000 0.0000
vn 0.6742 -0.0209 -0.7383
vn -0.6742 -0.0209 0.7383
vn -0.7383 -0.0209 -0.6742
vn 0.7383 -0.0209 0.6742
vn 0.0000 -1.0000 0.0000
vn -0.7022 0.6499 0.2909
vn -0.2909 0.6499 0.7022
vn 0.2909 0.6499 -0.7022
vn 0.2909 0.6499 0.7022
vn 0.9239 0.0000 -0.3827
vn -0.9239 0.0000 -0.3827
vn 0.9239 0.0000 0.3827
vn -0.3827 0.0000 -0.9239
vn 0.3827 0.0000 0.9239
vn 0.3827 0.0000 -0.9239
vn -0.3827 0.0000 0.9239
vn -0.9239 0.0000 0.3827
vn 0.7022 0.6499 -0.2909
vn -0.7022 0.6499 -0.2909
vn 0.7022 0.6499 0.2909
vn -0.2909 0.6499 -0.7022
vn 0.0000 0.9738 -0.2275
vn 0.2275 0.9738 0.0000
vn -0.2275 0.9738 0.0000
vn 0.0000 0.9738 0.2275
vn -0.7071 -0.0000 -0.7071
vn 0.7071 0.0000 -0.7071
vn 0.7071 -0.0000 0.7071
vn -0.7071 0.0000 0.7071
vn -0.0000 0.9570 0.2902
vn 0.2052 0.9570 0.2052
vn -0.2902 0.9570 0.0000
vn -0.2052 0.9570 0.2052
vn 0.2052 0.9570 -0.2052
vn 0.0000 0.9570 -0.2902
vn -0.2052 0.9570 -0.2052
vn 0.2902 0.9570 -0.0000
vn -0.5517 0.6255 -0.5517
vn -0.7802 0.6255 -0.0000
vn -0.0000 0.6255 -0.7802
vn 0.5517 0.6255 -0.5517
vn 0.7802 0.6255 0.0000
vn 0.5517 0.6255 0.5517
vn -0.0000 0.6255 0.7802
vn -0.5517 0.6255 0.5517
s off
f 51/1/1 53/2/1 27/3/1 52/4/1
f 50/5/2 52/4/2 27/3/2 26/6/2
f 50/5/3 54/7/3 31/8/3 30/9/3
f 50/5/4 51/1/4 33/10/4 32/11/4
f 50/5/5 53/2/5 29/12/5 28/13/5
f 41/14/6 40/15/6 35/16/6 34/17/6
f 39/18/7 38/19/7 40/15/7 41/14/7
f 37/20/8 36/21/8 38/19/8 39/18/8
f 34/17/9 35/16/9 36/21/9 37/20/9
f 49/22/6 48/23/6 43/24/6 42/25/6
f 47/26/7 46/27/7 48/23/7 49/22/7
f 45/28/8 44/29/8 46/27/8 47/26/8
f 42/25/9 43/24/9 44/29/9 45/28/9
f 28/13/10 29/12/10 51/1/10 50/5/10
f 30/9/11 31/8/11 52/4/11 50/5/11
f 54/7/1 51/1/1 52/4/1 31/8/1
f 33/10/1 51/1/1 54/7/1
f 26/6/12 27/3/12 53/2/12 50/5/12
f 32/11/13 33/10/13 54/7/13 50/5/13
f 51/1/1 29/12/1 53/2/1
f 86/30/9 85/31/9 83/32/9 84/33/9
f 84/33/8 83/32/8 79/34/8 80/35/8
f 80/35/7 79/34/7 81/36/7 82/37/7
f 82/37/6 81/36/6 85/31/6 86/30/6
f 79/34/1 83/32/1 85/31/1 81/36/1
f 95/38/14 91/39/14 90/40/14 94/41/14
f 92/42/14 88/43/14 91/39/14 95/38/14
f 87/44/14 92/42/14 95/38/14 93/45/14
f 93/45/14 95/38/14 94/41/14 89/46/14
f 102/47/15 97/48/15 104/49/15
f 97/48/16 96/50/16 104/49/16
f 101/51/17 100/52/17 104/49/17
f 96/50/18 99/53/18 104/49/18
f 92/42/19 87/44/19 101/51/19 98/54/19
f 89/46/20 94/41/20 102/47/20 103/55/20
f 88/43/21 92/42/21 98/54/21 99/53/21
f 93/45/22 89/46/22 103/55/22 100/52/22
f 91/39/23 88/43/23 99/53/23 96/50/23
f 87/44/24 93/45/24 100/52/24 101/51/24
f 90/40/25 91/39/25 96/50/25 97/48/25
f 94/41/26 90/40/26 97/48/26 102/47/26
f 98/54/27 101/51/27 104/49/27
f 103/55/28 102/47/28 104/49/28
f 99/53/29 98/54/29 104/49/29
f 100/52/30 103/55/30 104/49/30
f 112/56/9 111/57/9 109/58/9 110/59/9
f 110/59/8 109/58/8 105/60/8 106/61/8
f 106/61/7 105/60/7 107/62/7 108/63/7
f 108/63/6 107/62/6 111/57/6 112/56/6
f 111/57/31 107/62/31 114/64/31 113/65/31
f 109/58/32 111/57/32 113/65/32 116/66/32
f 107/62/33 105/60/33 115/67/33 114/64/33
f 105/60/34 109/58/34 116/66/34 115/67/34
f 124/68/9 123/69/9 121/70/9 122/71/9
f 122/71/8 121/70/8 117/72/8 118/73/8
f 118/73/7 117/72/7 119/74/7 120/75/7
f 120/75/6 119/74/6 123/69/6 124/68/6
f 117/72/1 121/70/1 123/69/1 119/74/1
f 132/76/6 131/77/6 126/78/6 125/79/6
f 130/80/7 129/81/7 131/77/7 132/76/7
f 128/82/8 127/83/8 129/81/8 130/80/8
f 125/79/9 126/78/9 127/83/9 128/82/9
f 136/84/6 140/85/6 137/86/6 133/87/6
f 135/88/7 139/89/7 140/85/7 136/84/7
f 134/90/8 138/91/8 139/89/8 135/88/8
f 133/87/9 137/86/9 138/91/9 134/90/9
s 1
f 13/92/9 14/93/9 4/94/35 3/95/35
f 9/96/8 10/97/8 8/98/36 7/99/36
f 15/100/7 16/101/7 6/102/37 5/103/37
f 11/104/6 12/105/6 2/106/38 1/107/38
f 8/98/1 10/97/1 22/108/1 21/109/1
f 2/106/1 12/105/1 23/110/1 18/111/1
f 5/103/37 6/102/37 12/105/6 11/104/6
f 3/95/35 4/94/35 10/97/8 9/96/8
f 4/94/1 14/93/1 24/112/1 19/113/1
f 10/97/1 4/94/1 19/113/1 22/108/1
f 7/99/36 8/98/36 16/101/7 15/100/7
f 1/107/38 2/106/38 14/93/9 13/92/9
f 22/108/39 19/113/40 17/114/1
f 25/115/41 21/109/42 17/114/1
f 21/109/42 22/108/39 17/114/1
f 18/111/43 23/110/44 17/114/1
f 16/101/1 8/98/1 21/109/1 25/115/1
f 14/93/1 2/106/1 18/111/1 24/112/1
f 6/102/1 16/101/1 25/115/1 20/116/1
f 12/105/1 6/102/1 20/116/1 23/110/1
f 20/116/45 25/115/41 17/114/1
f 19/113/40 24/112/46 17/114/1
f 24/112/46 18/111/43 17/114/1
f 23/110/44 20/116/45 17/114/1
f 58/117/36 60/118/8 59/119/8 57/120/36
f 60/118/8 62/121/35 61/122/35 59/119/8
f 62/121/35 64/123/9 63/124/9 61/122/35
f 64/123/9 66/125/38 65/126/38 63/124/9
f 66/125/38 68/127/6 67/128/6 65/126/38
f 68/127/6 70/129/37 69/130/37 67/128/6
f 70/129/37 56/131/7 55/132/7 69/130/37
f 69/130/47 55/132/48 71/133/48 78/134/47
f 67/128/49 69/130/47 78/134/47 77/135/49
f 65/126/50 67/128/49 77/135/49 76/136/50
f 63/124/51 65/126/50 76/136/50 75/137/51
f 61/122/52 63/124/51 75/137/51 74/138/52
f 59/119/53 61/122/52 74/138/52 73/139/53
f 57/120/54 59/119/53 73/139/53 72/140/54
f 55/132/48 57/120/54 72/140/54 71/133/48
f 56/131/7 58/117/36 57/120/36 55/132/7
o Cube.002_Cube.016
v 0.443122 -1.142052 -0.443122
v 0.443122 3.880268 -0.443122
v 0.443122 -1.142052 -0.573481
v 0.443122 3.880268 -0.573481
v 0.573481 -1.142052 -0.443122
v 0.573481 3.880268 -0.443122
v 0.573481 -1.142052 -0.573481
v 0.573481 3.880268 -0.573481
v 0.211484 4.341353 0.180775
v 0.139119 3.807647 0.096715
v 0.211484 4.341353 0.212201
v 0.139119 3.807647 0.128141
v 0.180059 4.341353 0.180775
v 0.107694 3.807647 0.096715
v 0.180059 4.341353 0.212201
v 0.107694 3.807647 0.128141
v 0.242184 4.647735 0.201242
v 0.242184 4.647735 0.232668
v 0.210759 4.647735 0.201242
v 0.210759 4.647735 0.232668
v -0.443122 -1.142052 -0.443122
v -0.443122 3.880268 -0.443122
v -0.443122 -1.142052 -0.573481
v -0.443122 3.880268 -0.573481
v -0.573481 -1.142052 -0.443122
v -0.573481 3.880268 -0.443122
v -0.573481 -1.142052 -0.573481
v -0.573481 3.880268 -0.573481
v -0.211484 4.341353 0.180775
v -0.139119 3.807647 0.096715
v -0.211484 4.341353 0.212201
v -0.139119 3.807647 0.128141
v -0.180059 4.341353 0.180775
v -0.107694 3.807647 0.096715
v -0.180059 4.341353 0.212201
v -0.107694 3.807647 0.128141
v -0.242184 4.647735 0.201242
v -0.242184 4.647735 0.232668
v -0.210759 4.647735 0.201242
v -0.210759 4.647735 0.232668
v 0.443122 -1.142052 0.443122
v 0.443122 3.880268 0.443122
v 0.443122 -1.142052 0.573481
v 0.443122 3.880268 0.573481
v 0.573481 -1.142052 0.443122
v 0.573481 3.880268 0.443122
v 0.573481 -1.142052 0.573481
v 0.573481 3.880268 0.573481
v 0.211484 4.341353 -0.180775
v 0.139119 3.807647 -0.096715
v 0.211484 4.341353 -0.212201
v 0.139119 3.807647 -0.128141
v 0.180059 4.341353 -0.180775
v 0.107694 3.807647 -0.096715
v 0.180059 4.341353 -0.212201
v 0.107694 3.807647 -0.128141
v 0.242184 4.647735 -0.201242
v 0.242184 4.647735 -0.232668
v 0.210759 4.647735 -0.201242
v 0.210759 4.647735 -0.232668
v -0.443122 -1.142052 0.443122
v -0.443122 3.880268 0.443122
v -0.443122 -1.142052 0.573481
v -0.443122 3.880268 0.573481
v -0.573481 -1.142052 0.443122
v -0.573481 3.880268 0.443122
v -0.573481 -1.142052 0.573481
v -0.573481 3.880268 0.573481
v -0.211484 4.341353 -0.180775
v -0.139119 3.807647 -0.096715
v -0.211484 4.341353 -0.212201
v -0.139119 3.807647 -0.128141
v -0.180059 4.341353 -0.180775
v -0.107694 3.807647 -0.096715
v -0.180059 4.341353 -0.212201
v -0.107694 3.807647 -0.128141
v -0.242184 4.647735 -0.201242
v -0.242184 4.647735 -0.232668
v -0.210759 4.647735 -0.201242
v -0.210759 4.647735 -0.232668
vt 0.554688 0.460938
vt 0.554688 0.460938
vt 0.554688 0.460938
vt 0.554688 0.460938
vt 0.554688 0.460938
vt 0.554688 0.460938
vt 0.554688 0.460938
vt 0.554688 0.460938
vt 0.257812 0.804688
vt 0.257812 0.804688
vt 0.257812 0.804688
vt 0.257812 0.804688
vt 0.257812 0.804688
vt 0.257812 0.804688
vt 0.257812 0.804688
vt 0.257812 0.804688
vt 0.257812 0.804688
vt 0.257812 0.804688
vt 0.257812 0.804688
vt 0.257812 0.804688
vt 0.554688 0.460938
vt 0.554688 0.460938
vt 0.554688 0.460938
vt 0.554688 0.460938
vt 0.554688 0.460938
vt 0.554688 0.460938
vt 0.554688 0.460938
vt 0.554688 0.460938
vt 0.257812 0.804688
vt 0.257812 0.804688
vt 0.257812 0.804688
vt 0.257812 0.804688
vt 0.257812 0.804688
vt 0.257812 0.804688
vt 0.257812 0.804688
vt 0.257812 0.804688
vt 0.257812 0.804688
vt 0.257812 0.804688
vt 0.257812 0.804688
vt 0.257812 0.804688
vt 0.554688 0.460938
vt 0.554688 0.460938
vt 0.554688 0.460938
vt 0.554688 0.460938
vt 0.554688 0.460938
vt 0.554688 0.460938
vt 0.554688 0.460938
vt 0.554688 0.460938
vt 0.257812 0.804688
vt 0.257812 0.804688
vt 0.257812 0.804688
vt 0.257812 0.804688
vt 0.257812 0.804688
vt 0.257812 0.804688
vt 0.257812 0.804688
vt 0.257812 0.804688
vt 0.257812 0.804688
vt 0.257812 0.804688
vt 0.257812 0.804688
vt 0.257812 0.804688
vt 0.554688 0.460938
vt 0.554688 0.460938
vt 0.554688 0.460938
vt 0.554688 0.460938
vt 0.554688 0.460938
vt 0.554688 0.460938
vt 0.554688 0.460938
vt 0.554688 0.460938
vt 0.257812 0.804688
vt 0.257812 0.804688
vt 0.257812 0.804688
vt 0.257812 0.804688
vt 0.257812 0.804688
vt 0.257812 0.804688
vt 0.257812 0.804688
vt 0.257812 0.804688
vt 0.257812 0.804688
vt 0.257812 0.804688
vt 0.257812 0.804688
vt 0.257812 0.804688
vn -1.0000 0.0000 0.0000
vn 0.0000 0.0000 -1.0000
vn 1.0000 0.0000 0.0000
vn 0.0000 0.0000 1.0000
vn -0.9909 0.1344 0.0000
vn 0.0000 0.1556 -0.9878
vn 0.9909 -0.1344 0.0000
vn 0.0000 -0.1556 0.9878
vn 0.0000 0.0667 -0.9978
vn 0.0000 -0.0667 0.9978
vn -0.9950 0.0997 0.0000
vn 0.9950 -0.0997 0.0000
vn 0.9909 0.1344 0.0000
vn -0.9909 -0.1344 0.0000
vn 0.9950 0.0997 0.0000
vn -0.9950 -0.0997 0.0000
vn 0.0000 0.1556 0.9878
vn 0.0000 -0.1556 -0.9878
vn 0.0000 0.0667 0.9978
vn 0.0000 -0.0667 -0.9978
s off
f 141/141/55 142/142/55 144/143/55 143/144/55
f 143/144/56 144/143/56 148/145/56 147/146/56
f 147/146/57 148/145/57 146/147/57 145/148/57
f 145/148/58 146/147/58 142/142/58 141/141/58
f 156/149/59 155/150/59 153/151/59 154/152/59
f 154/152/60 153/151/60 149/153/60 150/154/60
f 150/154/61 149/153/61 151/155/61 152/156/61
f 152/156/62 151/155/62 155/150/62 156/149/62
f 149/153/63 153/151/63 159/157/63 157/158/63
f 155/150/64 151/155/64 158/159/64 160/160/64
f 153/151/65 155/150/65 160/160/65 159/157/65
f 151/155/66 149/153/66 157/158/66 158/159/66
f 161/161/57 163/162/57 164/163/57 162/164/57
f 163/162/56 167/165/56 168/166/56 164/163/56
f 167/165/55 165/167/55 166/168/55 168/166/55
f 165/167/58 161/161/58 162/164/58 166/168/58
f 176/169/67 174/170/67 173/171/67 175/172/67
f 174/170/60 170/173/60 169/174/60 173/171/60
f 170/173/68 172/175/68 171/176/68 169/174/68
f 172/175/62 176/169/62 175/172/62 171/176/62
f 169/174/63 177/177/63 179/178/63 173/171/63
f 175/172/64 180/179/64 178/180/64 171/176/64
f 173/171/69 179/178/69 180/179/69 175/172/69
f 171/176/70 178/180/70 177/177/70 169/174/70
f 181/181/55 183/182/55 184/183/55 182/184/55
f 183/182/58 187/185/58 188/186/58 184/183/58
f 187/185/57 185/187/57 186/188/57 188/186/57
f 185/187/56 181/181/56 182/184/56 186/188/56
f 196/189/59 194/190/59 193/191/59 195/192/59
f 194/190/71 190/193/71 189/194/71 193/191/71
f 190/193/61 192/195/61 191/196/61 189/194/61
f 192/195/72 196/189/72 195/192/72 191/196/72
f 189/194/73 197/197/73 199/198/73 193/191/73
f 195/192/74 200/199/74 198/200/74 191/196/74
f 193/191/65 199/198/65 200/199/65 195/192/65
f 191/196/66 198/200/66 197/197/66 189/194/66
f 201/201/57 202/202/57 204/203/57 203/204/57
f 203/204/58 204/203/58 208/205/58 207/206/58
f 207/206/55 208/205/55 206/207/55 205/208/55
f 205/208/56 206/207/56 202/202/56 201/201/56
f 216/209/67 215/210/67 213/211/67 214/212/67
f 214/212/71 213/211/71 209/213/71 210/214/71
f 210/214/68 209/213/68 211/215/68 212/216/68
f 212/216/72 211/215/72 215/210/72 216/209/72
f 209/213/73 213/211/73 219/217/73 217/218/73
f 215/210/74 211/215/74 218/219/74 220/220/74
f 213/211/69 215/210/69 220/220/69 219/217/69
f 211/215/70 209/213/70 217/218/70 218/219/70
