# Blender v2.91.0 Beta OBJ File: 'HOUSE.blend'
# www.blender.org
o Plane
v 0.012467 4.350653 4.415888
v 0.012468 4.350652 -4.639128
v 0.012467 12.378864 5.168383
v 0.012468 12.378864 -5.391625
v 0.012467 -1.653314 5.168385
v 0.012468 -1.653315 -5.391625
v -0.052413 4.350653 5.168385
v -0.052412 4.350652 -5.391625
v -0.052413 12.378864 5.168383
v -0.052412 12.378864 -5.391625
v -0.052413 -1.653314 5.168385
v -0.052412 -1.653315 -5.391625
v 0.012467 8.074144 5.168384
v 0.012467 8.074144 -5.391625
v 0.012467 8.603114 -5.391625
v 0.012467 8.603114 5.168384
v 0.012467 4.336456 5.168385
v 0.012468 4.336455 -5.391625
vt 0.252441 0.148058
vt 0.145996 0.185776
vt 0.145996 0.148058
vt 0.145996 0.103063
vt 0.252441 0.104980
vt 0.252441 0.103063
vt 0.145996 0.105579
vt 0.252441 0.185776
vt 0.252441 0.105579
vt 0.252441 0.103027
vt 0.145996 0.104980
vt 0.145996 0.103027
vt 0.252441 0.105579
vt 0.145996 0.142774
vt 0.145996 0.105579
vt 0.252441 0.142774
vt 0.252441 0.103027
vt 0.252441 0.185776
vt 0.145996 0.104980
vt 0.145996 0.185776
vt 0.252441 0.104980
vt 0.145996 0.103027
vn 1.0000 0.0000 0.0000
vn -1.0000 0.0000 -0.0000
s off
f 15/1/1 3/2/1 16/3/1
f 17/4/1 6/5/1 18/6/1
f 7/7/2 10/8/2 8/9/2
f 8/10/2 11/11/2 7/12/2
f 2/13/1 13/14/1 1/15/1
f 14/16/1 16/3/1 13/14/1
f 2/17/1 17/4/1 18/6/1
f 15/1/1 4/18/1 3/2/1
f 17/4/1 5/19/1 6/5/1
f 7/7/2 9/20/2 10/8/2
f 8/10/2 12/21/2 11/11/2
f 2/13/1 14/16/1 13/14/1
f 14/16/1 15/1/1 16/3/1
f 2/17/1 1/22/1 17/4/1
o tree.002_tree.002_tree.002_tree.007
v 0.215398 6.771829 4.772520
v 0.215397 6.771829 -4.996632
v 0.201438 7.864170 4.772520
v 0.201437 7.864170 -4.996632
v 0.217068 5.637376 2.812250
v 0.199768 6.439980 2.812250
v 0.217068 5.637376 -2.354633
v 0.199768 6.439980 -2.354633
v 0.217068 5.637376 0.540547
v 0.199768 6.439980 0.540547
v 0.217068 5.637376 0.823372
v 0.199768 6.439980 0.823372
v -0.143552 6.771829 -4.961195
v -0.143553 6.771829 4.807956
v -0.157512 7.864170 -4.961195
v -0.157513 7.864170 4.807956
v -0.141882 5.637376 -3.000925
v -0.159182 6.439980 -3.000925
v -0.141882 5.637376 2.165958
v -0.159182 6.439980 2.165958
v -0.141882 5.637376 -0.729222
v -0.159182 6.439980 -0.729222
v -0.141882 5.637376 -1.012047
v -0.159182 6.439980 -1.012047
vt 0.105957 0.101074
vt 0.014160 0.114746
vt 0.014160 0.101074
vt 0.168457 0.190918
vt 0.099510 0.203613
vt 0.099510 0.190918
vt 0.097168 0.190918
vt 0.090481 0.203613
vt 0.090481 0.190918
vt 0.091309 0.190918
vt 0.044434 0.203613
vt 0.044434 0.190918
vt 0.105957 0.101074
vt 0.014160 0.114746
vt 0.014160 0.101074
vt 0.168457 0.190918
vt 0.099510 0.203613
vt 0.099510 0.190918
vt 0.097168 0.190918
vt 0.090481 0.203613
vt 0.090481 0.190918
vt 0.091309 0.190918
vt 0.044434 0.203613
vt 0.044434 0.190918
vt 0.105957 0.114746
vt 0.168457 0.203613
vt 0.097168 0.203613
vt 0.091309 0.203613
vt 0.105957 0.114746
vt 0.168457 0.203613
vt 0.097168 0.203613
vt 0.091309 0.203613
vn 0.9999 0.0128 -0.0000
vn 0.9998 0.0215 0.0000
vn -0.9999 -0.0128 -0.0000
vn -0.9998 -0.0215 0.0000
s off
f 20/23/3 21/24/3 19/25/3
f 25/26/4 28/27/4 27/28/4
f 27/29/4 30/30/4 29/31/4
f 29/32/4 24/33/4 23/34/4
f 32/35/5 33/36/5 31/37/5
f 37/38/6 40/39/6 39/40/6
f 39/41/6 42/42/6 41/43/6
f 41/44/6 36/45/6 35/46/6
f 20/23/3 22/47/3 21/24/3
f 25/26/4 26/48/4 28/27/4
f 27/29/4 28/49/4 30/30/4
f 29/32/4 30/50/4 24/33/4
f 32/35/5 34/51/5 33/36/5
f 37/38/6 38/52/6 40/39/6
f 39/41/6 40/53/6 42/42/6
f 41/44/6 42/54/6 36/45/6
