# Blender v2.90.0 Alpha OBJ File: 'Decos.blend'
# www.blender.org
o Cube.003_Cube.004
v 0.749753 18.411795 -0.749750
v -0.749753 18.411795 -0.749750
v -0.749753 18.411795 0.749756
v 0.749753 18.411795 0.749756
v 1.000000 9.205897 1.000002
v -1.000000 9.205897 1.000002
v -1.000000 9.205897 -0.999999
v -1.000000 0.000000 -1.000000
v 1.000000 0.000000 -1.000000
v 1.000000 -0.000000 1.000000
v -1.000000 -0.000000 1.000000
v 1.000000 9.205897 -0.999999
v 1.026151 11.461806 -3.458505
v -0.242368 11.461806 -3.458505
v -0.242368 11.461805 -2.189985
v 1.026151 11.461805 -2.189985
v 1.026151 6.844314 -1.458493
v -0.242368 6.844314 -1.458493
v -0.242368 6.424695 -2.655599
v 0.391891 5.838889 -0.323742
v 1.026151 6.424695 -2.655599
v -1.026151 11.461804 3.458509
v 0.242369 11.461804 3.458509
v 0.242369 11.461805 2.189989
v -1.026151 11.461805 2.189989
v -1.026151 6.844314 1.458495
v 0.242369 6.844314 1.458495
v 0.242369 6.424694 2.655601
v -0.391891 5.838889 0.323745
v -1.026151 6.424694 2.655601
v 3.458507 10.237157 1.026153
v 3.458507 10.237157 -0.242367
v 2.189987 10.237157 -0.242367
v 2.189987 10.237157 1.026153
v 1.458494 5.619666 1.026152
v 1.458494 5.619666 -0.242368
v 2.655600 5.200046 -0.242368
v 0.323744 4.614241 0.391892
v 2.655600 5.200046 1.026152
v -3.458507 10.507900 -1.026148
v -3.458507 10.507900 0.242371
v -2.189987 10.507900 0.242371
v -2.189987 10.507900 -1.026149
v -1.458494 5.890409 -1.026150
v -1.458494 5.890409 0.242370
v -2.655600 5.470790 0.242370
v -0.323744 4.884985 -0.391890
v -2.655600 5.470790 -1.026150
vt 0.226562 0.851562
vt 0.226562 0.851562
vt 0.226562 0.851562
vt 0.226562 0.851562
vt 0.257812 0.835938
vt 0.257812 0.835938
vt 0.257812 0.835938
vt 0.257812 0.835938
vt 0.257812 0.835938
vt 0.257812 0.835938
vt 0.257812 0.835938
vt 0.257812 0.835938
vt 0.257812 0.835938
vt 0.257812 0.835938
vt 0.257812 0.835938
vt 0.257812 0.835938
vt 0.226562 0.851562
vt 0.226562 0.851562
vt 0.226562 0.851562
vt 0.226562 0.851562
vt 0.257812 0.835938
vt 0.257812 0.835938
vt 0.257812 0.835938
vt 0.257812 0.835938
vt 0.257812 0.835938
vt 0.257812 0.835938
vt 0.257812 0.835938
vt 0.257812 0.835938
vt 0.257812 0.835938
vt 0.226562 0.851562
vt 0.226562 0.851562
vt 0.226562 0.851562
vt 0.226562 0.851562
vt 0.257812 0.835938
vt 0.257812 0.835938
vt 0.257812 0.835938
vt 0.257812 0.835938
vt 0.257812 0.835938
vt 0.257812 0.835938
vt 0.257812 0.835938
vt 0.257812 0.835938
vt 0.257812 0.835938
vt 0.226562 0.851562
vt 0.226562 0.851562
vt 0.226562 0.851562
vt 0.226562 0.851562
vt 0.257812 0.835938
vt 0.257812 0.835938
vt 0.257812 0.835938
vt 0.257812 0.835938
vt 0.257812 0.835938
vt 0.257812 0.835938
vt 0.257812 0.835938
vt 0.257812 0.835938
vt 0.257812 0.835938
vt 0.226562 0.851562
vt 0.226562 0.851562
vt 0.226562 0.851562
vt 0.226562 0.851562
vt 0.257812 0.835938
vt 0.257812 0.835938
vt 0.257812 0.835938
vt 0.257812 0.835938
vt 0.257812 0.835938
vt 0.257812 0.835938
vt 0.257812 0.835938
vt 0.257812 0.835938
vt 0.257812 0.835938
vn 0.0000 1.0000 0.0000
vn 0.0000 0.0272 0.9996
vn -0.9996 0.0272 0.0000
vn 0.0000 -1.0000 -0.0000
vn 0.9996 0.0272 0.0000
vn 0.0000 0.0272 -0.9996
vn 0.0000 0.1565 0.9877
vn -1.0000 0.0000 0.0000
vn -0.9019 -0.4077 0.1429
vn 1.0000 0.0000 0.0000
vn 0.0000 -0.1574 -0.9875
vn 0.9019 -0.4077 0.1429
vn 0.0000 -0.9699 -0.2436
vn 0.0000 0.7485 0.6632
vn 0.0000 0.0000 -1.0000
vn 0.0000 -0.0000 1.0000
vn 0.0000 0.1565 -0.9877
vn 0.9019 -0.4077 -0.1429
vn 0.0000 -0.1574 0.9875
vn -0.9019 -0.4077 -0.1429
vn 0.0000 -0.9699 0.2436
vn 0.0000 0.7485 -0.6632
vn -0.9877 0.1565 0.0000
vn -0.1429 -0.4077 -0.9019
vn 0.9875 -0.1574 0.0000
vn -0.1429 -0.4077 0.9019
vn 0.2436 -0.9699 0.0000
vn -0.6632 0.7485 0.0000
vn 0.9877 0.1565 0.0000
vn 0.1429 -0.4077 0.9019
vn -0.9875 -0.1574 0.0000
vn 0.1429 -0.4077 -0.9019
vn -0.2436 -0.9699 0.0000
vn 0.6632 0.7485 0.0000
s 1
f 1/1/1 2/2/1 3/3/1 4/4/1
f 5/5/2 4/6/2 3/7/2 6/8/2
f 6/8/3 3/7/3 2/9/3 7/10/3
f 8/11/4 9/12/4 10/13/4 11/14/4
f 12/15/5 1/16/5 4/6/5 5/5/5
f 7/10/6 2/9/6 1/16/6 12/15/6
f 13/17/1 14/18/1 15/19/1 16/20/1
f 17/21/7 16/22/7 15/23/7 18/24/7
f 18/24/8 15/23/8 14/25/8 19/26/8
f 18/24/9 19/26/9 20/27/9
f 21/28/10 13/29/10 16/22/10 17/21/10
f 19/26/11 14/25/11 13/29/11 21/28/11
f 21/28/12 17/21/12 20/27/12
f 19/26/13 21/28/13 20/27/13
f 17/21/14 18/24/14 20/27/14
f 8/11/15 7/10/15 12/15/15 9/12/15
f 9/12/10 12/15/10 5/5/10 10/13/10
f 11/14/8 6/8/8 7/10/8 8/11/8
f 10/13/16 5/5/16 6/8/16 11/14/16
f 22/30/1 23/31/1 24/32/1 25/33/1
f 26/34/17 25/35/17 24/36/17 27/37/17
f 27/37/10 24/36/10 23/38/10 28/39/10
f 27/37/18 28/39/18 29/40/18
f 30/41/8 22/42/8 25/35/8 26/34/8
f 28/39/19 23/38/19 22/42/19 30/41/19
f 30/41/20 26/34/20 29/40/20
f 28/39/21 30/41/21 29/40/21
f 26/34/22 27/37/22 29/40/22
f 31/43/1 32/44/1 33/45/1 34/46/1
f 35/47/23 34/48/23 33/49/23 36/50/23
f 36/50/15 33/49/15 32/51/15 37/52/15
f 36/50/24 37/52/24 38/53/24
f 39/54/16 31/55/16 34/48/16 35/47/16
f 37/52/25 32/51/25 31/55/25 39/54/25
f 39/54/26 35/47/26 38/53/26
f 37/52/27 39/54/27 38/53/27
f 35/47/28 36/50/28 38/53/28
f 40/56/1 41/57/1 42/58/1 43/59/1
f 44/60/29 43/61/29 42/62/29 45/63/29
f 45/63/16 42/62/16 41/64/16 46/65/16
f 45/63/30 46/65/30 47/66/30
f 48/67/15 40/68/15 43/61/15 44/60/15
f 46/65/31 41/64/31 40/68/31 48/67/31
f 48/67/32 44/60/32 47/66/32
f 46/65/33 48/67/33 47/66/33
f 44/60/34 45/63/34 47/66/34
