# Blender v2.90.0 Alpha OBJ File: 'Decos.blend'
# www.blender.org
o Cube.003_Cube.056
v 0.749753 13.172955 -0.749747
v -0.749753 13.172955 -0.749747
v -0.749753 13.172955 0.749759
v 0.749753 13.172955 0.749759
v -1.000000 0.000000 -1.000000
v 1.000000 0.000000 -1.000000
v 1.000000 -0.000000 1.000000
v -1.000000 -0.000000 1.000000
vt 0.226562 0.851562
vt 0.226562 0.851562
vt 0.226562 0.851562
vt 0.226562 0.851562
vt 0.257812 0.835938
vt 0.257812 0.835938
vt 0.257812 0.835938
vt 0.257812 0.835938
vt 0.257812 0.835938
vt 0.257812 0.835938
vt 0.257812 0.835938
vt 0.257812 0.835938
vn 0.0000 1.0000 0.0000
vn -1.0000 0.0014 0.0000
vn -0.9987 0.0511 -0.0000
vn 1.0000 0.0014 -0.0000
vn 0.9987 0.0511 0.0000
vn -0.0000 0.0014 -1.0000
vn 0.0000 0.0511 -0.9987
vn 0.0000 0.0014 1.0000
vn -0.0000 0.0511 0.9987
s 1
f 1/1/1 2/2/1 3/3/1 4/4/1
f 8/5/2 3/6/3 2/7/3 5/8/2
f 6/9/4 1/10/5 4/11/5 7/12/4
f 5/8/6 2/7/7 1/10/7 6/9/6
f 7/12/8 4/11/9 3/6/9 8/5/8
