# Blender v2.90.0 Alpha OBJ File: 'Decos.blend'
# www.blender.org
o Cube.003_Cube.004
v 0.749753 18.411795 -0.749750
v -0.749753 18.411795 -0.749750
v -0.749753 18.411795 0.749756
v 0.749753 18.411795 0.749756
v 0.000000 -5.490298 -0.000000
v 1.026151 11.461806 -3.458505
v -0.242368 11.461806 -3.458505
v -0.242368 11.461805 -2.189985
v 1.026151 11.461805 -2.189985
v -0.125764 5.771620 0.000001
v -1.026151 11.461804 3.458509
v 0.242369 11.461804 3.458509
v 0.242369 11.461805 2.189989
v -1.026151 11.461805 2.189989
v 3.458507 12.017831 0.696398
v 3.458507 12.017831 -0.572122
v 2.189987 12.017831 -0.572122
v 2.189987 12.017831 0.696398
v -3.458507 12.024771 -0.564492
v -3.458507 12.024771 0.704027
v -2.189987 12.024771 0.704027
v -2.189987 12.024771 -0.564493
v -0.374876 6.460749 0.374878
vt 0.226562 0.851562
vt 0.226562 0.851562
vt 0.226562 0.851562
vt 0.226562 0.851562
vt 0.257812 0.835938
vt 0.257812 0.835938
vt 0.257812 0.835938
vt 0.257812 0.835938
vt 0.257812 0.835938
vt 0.257812 0.835938
vt 0.226562 0.851562
vt 0.226562 0.851562
vt 0.226562 0.851562
vt 0.226562 0.851562
vt 0.257812 0.835938
vt 0.257812 0.835938
vt 0.257812 0.835938
vt 0.257812 0.835938
vt 0.257812 0.835938
vt 0.226562 0.851562
vt 0.226562 0.851562
vt 0.226562 0.851562
vt 0.226562 0.851562
vt 0.257812 0.835938
vt 0.257812 0.835938
vt 0.257812 0.835938
vt 0.257812 0.835938
vt 0.226562 0.851562
vt 0.226562 0.851562
vt 0.226562 0.851562
vt 0.226562 0.851562
vt 0.257812 0.835938
vt 0.257812 0.835938
vt 0.257812 0.835938
vt 0.257812 0.835938
vt 0.226562 0.851562
vt 0.226562 0.851562
vt 0.226562 0.851562
vt 0.226562 0.851562
vt 0.257812 0.835938
vt 0.257812 0.835938
vt 0.257812 0.835938
vt 0.257812 0.835938
vn 0.0000 1.0000 0.0000
vn -0.9995 -0.0314 0.0000
vn 0.9995 -0.0314 0.0000
vn 0.0000 -0.0314 -0.9995
vn 0.0000 0.3592 0.9333
vn -0.9998 -0.0205 0.0000
vn 0.9801 -0.1984 -0.0000
vn 0.0000 -0.5194 -0.8545
vn 0.0000 0.3592 -0.9333
vn 0.9979 -0.0646 0.0000
vn -0.9877 -0.1563 0.0000
vn 0.0000 -0.5194 0.8545
vn 0.0000 -0.0912 -0.9958
vn 0.0000 -0.1108 0.9938
vn 0.8673 -0.4977 0.0000
vn 0.9496 0.3135 0.0000
vn 0.0000 -0.1119 0.9937
vn -0.0000 -0.0899 -0.9960
vn -0.8825 -0.4703 0.0000
vn -0.9376 0.3476 0.0000
vn 0.0000 -0.0314 0.9995
s 1
f 1/1/1 2/2/1 3/3/1 4/4/1
f 5/5/2 23/6/2 3/7/2 2/8/2
f 5/5/3 1/9/3 4/10/3
f 5/5/4 2/8/4 1/9/4
f 6/11/1 7/12/1 8/13/1 9/14/1
f 10/15/5 9/16/5 8/17/5
f 10/15/6 8/17/6 7/18/6
f 10/15/7 6/19/7 9/16/7
f 10/15/8 7/18/8 6/19/8
f 11/20/1 12/21/1 13/22/1 14/23/1
f 10/15/9 14/24/9 13/25/9
f 10/15/10 13/25/10 12/26/10
f 10/15/11 11/27/11 14/24/11
f 10/15/12 12/26/12 11/27/12
f 15/28/1 16/29/1 17/30/1 18/31/1
f 16/32/13 10/15/13 17/33/13
f 18/34/14 10/15/14 15/35/14
f 15/35/15 10/15/15 16/32/15
f 19/36/1 20/37/1 21/38/1 22/39/1
f 10/15/16 22/40/16 21/41/16
f 10/15/17 21/41/17 20/42/17
f 10/15/18 19/43/18 22/40/18
f 10/15/19 20/42/19 19/43/19
f 17/33/20 10/15/20 18/34/20
f 5/5/21 4/10/21 3/7/21 23/6/21
