# Blender v2.91.0 Beta OBJ File: 'decos.blend'
# www.blender.org
o Cube.002_Cube.019
v 5.000000 -1.576973 0.614550
v 5.000000 6.096358 0.600227
v -4.962993 6.093653 0.599807
v -4.993288 -1.576973 0.614550
v 5.000000 -1.576973 0.450530
v -4.993288 -1.576973 0.450530
v -4.962993 6.093653 0.435788
v 5.000000 6.096358 0.436208
vt 0.226562 0.882812
vt 0.226562 0.882812
vt 0.226562 0.882812
vt 0.226562 0.882812
vt 0.226562 0.882812
vt 0.226562 0.882812
vt 0.226562 0.882812
vt 0.226562 0.882812
vn -0.0000 0.0019 1.0000
vn 0.0000 -0.0019 -1.0000
vn -1.0000 0.0039 0.0000
vn 0.0000 -1.0000 0.0000
vn -0.0003 1.0000 0.0000
vn 1.0000 0.0000 0.0000
s 1
f 1/1/1 2/2/1 3/3/1 4/4/1
f 5/5/2 6/6/2 7/7/2 8/8/2
f 3/3/3 7/7/3 6/6/3 4/4/3
f 4/4/4 6/6/4 5/5/4 1/1/4
f 2/2/5 8/8/5 7/7/5 3/3/5
f 1/1/6 5/5/6 8/8/6 2/2/6
