# Blender v2.90.0 Alpha OBJ File: 'Decos.blend'
# www.blender.org
o Cube.002_Cube
v -0.874876 -0.978437 1.300710
v -0.874876 -0.978437 -1.300710
v 0.874876 -0.978437 1.300710
v 0.874876 -0.978437 -1.300710
v -0.844581 0.587174 1.285966
v -0.844588 0.587204 -1.286123
v 0.853090 0.589905 -1.286538
v 0.853084 0.589879 1.286386
v -1.326746 0.988026 1.300710
v -1.326746 0.988026 -1.300710
v -0.874876 0.751923 -1.781854
v 0.874876 0.751923 -1.781854
v 0.874876 0.753717 1.781568
v -0.874876 0.753717 1.781568
v 1.341405 0.852453 -1.300710
v 1.341405 0.852453 1.300710
vt 0.039062 0.835938
vt 0.039062 0.835938
vt 0.039062 0.835938
vt 0.039062 0.835938
vt 0.039062 0.835938
vt 0.039062 0.835938
vt 0.039062 0.835938
vt 0.039062 0.835938
vt 0.039062 0.835938
vt 0.039062 0.835938
vt 0.039062 0.835938
vt 0.039062 0.835938
vt 0.039062 0.835938
vt 0.039062 0.835938
vt 0.039062 0.835938
vt 0.039062 0.835938
vn 0.0001 -0.0092 1.0000
vn 0.9999 0.0139 0.0000
vn -0.0001 0.0093 1.0000
vn 0.0000 1.0000 0.0000
vn 0.6393 0.7690 0.0000
vn -0.0007 0.9497 0.3131
vn -0.0007 0.9486 -0.3163
vn -0.4736 0.8808 0.0000
vn 0.9998 -0.0193 -0.0000
s off
f 2/1/1 4/2/1 7/3/1 6/4/1
f 4/2/2 7/3/2 8/5/2 3/6/2
f 3/6/3 8/5/3 5/7/3 1/8/3
f 2/1/4 1/8/4 3/6/4 4/2/4
f 6/4/5 10/9/5 9/10/5 5/7/5
f 7/3/6 12/11/6 11/12/6 6/4/6
f 5/7/7 14/13/7 13/14/7 8/5/7
f 8/5/8 16/15/8 15/16/8 7/3/8
f 1/8/9 2/1/9 6/4/9 5/7/9
