# Blender v2.91.0 Beta OBJ File: 'decos.blend'
# www.blender.org
o Cube_Cube.005_Cube_Cube.011
v 6.349954 -0.770931 2.792209
v 8.547298 -0.771193 1.542863
v 6.336463 6.399551 2.755844
v 6.134231 1.392030 2.200739
v 8.148232 1.391967 1.066463
v 8.522882 6.399641 1.513362
v 10.266981 -0.772060 -0.949626
v 10.232951 6.400042 -0.965438
v 9.717311 1.391611 -1.206144
v 10.455931 1.391668 -3.704045
v 3.843452 1.391727 2.460135
v 7.045759 5.525722 3.450544
v 9.211602 0.040166 2.213356
v 7.047230 0.042410 3.448284
v 7.011062 -0.037395 3.735675
v 9.360914 -0.040222 2.394065
v 7.011477 5.708830 3.744124
v 11.136346 -0.050133 -0.146215
v 9.368180 5.710063 2.398237
v 11.141846 5.714482 -0.142751
v 11.410592 1.597320 -2.711422
v 4.597201 1.598042 3.544245
v 6.879372 1.619819 2.998227
v 8.910391 1.619409 1.846997
v 10.852021 0.032130 -0.137765
v 9.214403 5.526709 2.213010
v 10.852297 5.530309 -0.137104
v 10.431513 1.616158 -0.333237
v 11.096328 1.616335 -2.536623
v 4.798156 1.616889 3.254783
v 6.772548 -0.337118 3.724234
v 6.594207 -0.542500 3.540086
v 9.077255 -0.544605 2.124023
v 9.256942 -0.338941 2.307275
v 6.764991 6.097389 3.723667
v 6.588355 6.303833 3.529222
v 10.980190 -0.550774 -0.609355
v 11.144673 -0.349301 -0.401585
v 9.070945 6.304747 2.113428
v 9.255501 6.099093 2.302504
v 11.142488 6.103833 -0.407519
v 10.968678 6.307508 -0.614242
v 11.238884 1.458565 -3.473102
v 11.421038 1.513425 -3.194192
v 3.936118 1.458990 3.270655
v 4.165595 1.514989 3.490583
v 10.985014 -0.449341 -3.705009
v 10.970993 -0.772384 -3.342002
v 11.019368 -0.677787 -3.598757
v 10.935217 6.400225 -3.351117
v 10.998960 6.055218 -3.704134
v 10.996931 6.299187 -3.600741
v 3.843407 6.052151 3.002802
v 4.201654 6.399825 3.001985
v 3.948334 6.298013 3.019334
v 4.211211 -0.771482 3.039177
v 3.843050 -0.448611 2.988903
v 3.950853 -0.676955 3.042065
v 11.797127 -0.053955 -2.341672
v 11.812873 0.272765 -2.721789
v 11.849447 0.041462 -2.611519
v 11.871947 5.363843 -2.712409
v 11.804881 5.716239 -2.346076
v 11.870199 5.613147 -2.605152
v 4.966156 5.711664 4.001711
v 4.596765 5.356360 4.004649
v 4.704940 5.607809 4.021843
v 4.592722 0.281922 3.942751
v 4.976103 -0.043652 3.993059
v 4.704551 0.051217 3.998468
v 11.459920 0.029032 -2.163620
v 11.476272 0.355890 -2.544900
v 11.512366 0.124524 -2.434115
v 11.529568 5.179059 -2.537424
v 11.462423 5.531728 -2.170668
v 11.527678 5.428539 -2.430037
v 5.167122 5.528020 3.684491
v 4.797764 5.172517 3.687203
v 4.905929 5.424084 3.704340
v 4.794690 0.363129 3.631753
v 5.178357 0.037357 3.681936
v 4.906690 0.132342 3.687153
v 11.729303 -0.552958 -3.115503
v 11.742188 -0.230109 -3.479598
v 11.778311 -0.458529 -3.373472
v 11.884925 -0.032629 -3.200191
v 11.870660 -0.356706 -2.827689
v 11.921165 -0.262258 -3.091610
v 11.869267 6.106264 -2.834099
v 11.935035 5.756619 -3.195166
v 11.933334 6.004008 -3.089448
v 11.781664 5.962317 -3.472808
v 11.717319 6.308519 -3.117993
v 11.780107 6.207178 -3.368875
v 4.296150 6.305474 3.810912
v 3.936200 5.956595 3.813042
v 4.041630 6.203396 3.829858
v 4.163901 5.746412 4.003105
v 4.528981 6.099243 4.000638
v 4.270771 5.996027 4.020100
v 4.540940 -0.345163 4.001319
v 4.163801 -0.021462 3.950822
v 4.274106 -0.250917 4.005945
v 3.933399 -0.223605 3.771676
v 4.303186 -0.546090 3.822264
v 4.041492 -0.451876 3.826339
vt 0.851562 0.320312
vt 0.851562 0.320312
vt 0.851562 0.320312
vt 0.851562 0.320312
vt 0.851562 0.320312
vt 0.851562 0.320312
vt 0.851562 0.320312
vt 0.851562 0.320312
vt 0.851562 0.320312
vt 0.851562 0.320312
vt 0.851562 0.320312
vt 0.851562 0.320312
vt 0.851562 0.320312
vt 0.851562 0.320312
vt 0.851562 0.320312
vt 0.851562 0.320312
vt 0.851562 0.320312
vt 0.851562 0.320312
vt 0.851562 0.320312
vt 0.851562 0.320312
vt 0.851562 0.320312
vt 0.851562 0.320312
vt 0.851562 0.320312
vt 0.851562 0.320312
vt 0.851562 0.320312
vt 0.861979 0.330729
vt 0.851562 0.320312
vt 0.851562 0.320312
vt 0.851562 0.320312
vt 0.851562 0.320312
vt 0.835938 0.210938
vt 0.835938 0.210938
vt 0.835938 0.210938
vt 0.851562 0.320312
vt 0.851562 0.320312
vt 0.851562 0.320312
vt 0.851562 0.320312
vt 0.851562 0.320312
vt 0.851562 0.320312
vt 0.851562 0.320312
vt 0.851562 0.320312
vt 0.851562 0.320312
vt 0.851562 0.320312
vt 0.851562 0.320312
vt 0.851562 0.320312
vt 0.851562 0.320312
vt 0.851562 0.320312
vt 0.851562 0.320312
vt 0.851562 0.320312
vt 0.851562 0.320312
vt 0.851562 0.320312
vt 0.851562 0.320312
vt 0.851562 0.320312
vt 0.851562 0.320312
vt 0.851562 0.320312
vt 0.851562 0.320312
vt 0.851562 0.320312
vt 0.851562 0.320312
vt 0.861979 0.330729
vt 0.861979 0.330729
vt 0.851562 0.320312
vt 0.851562 0.320312
vt 0.851562 0.320312
vt 0.851562 0.320312
vt 0.851562 0.320312
vt 0.861979 0.330729
vt 0.851562 0.320312
vt 0.851562 0.320312
vt 0.851562 0.320312
vt 0.851562 0.320312
vt 0.851563 0.320312
vt 0.851562 0.320312
vt 0.851562 0.320312
vt 0.851562 0.320312
vt 0.851562 0.320312
vt 0.851562 0.320312
vt 0.851562 0.320312
vt 0.851562 0.320312
vt 0.851562 0.320313
vt 0.851562 0.320312
vt 0.851562 0.320312
vt 0.851562 0.320312
vt 0.851562 0.320312
vt 0.851562 0.320312
vt 0.851562 0.320312
vt 0.851562 0.320312
vt 0.835938 0.210938
vt 0.835938 0.210938
vt 0.835938 0.210938
vt 0.835938 0.210938
vt 0.835937 0.210938
vt 0.835938 0.210938
vt 0.835937 0.210938
vt 0.835938 0.210938
vt 0.835938 0.210938
vt 0.835938 0.210938
vt 0.851562 0.320312
vt 0.835938 0.210938
vt 0.835938 0.210938
vt 0.851562 0.320312
vt 0.851562 0.320312
vt 0.851562 0.320312
vt 0.851562 0.320312
vt 0.851562 0.320312
vt 0.851562 0.320312
vt 0.851562 0.320312
vt 0.851562 0.320312
vt 0.851562 0.320312
vt 0.851562 0.320312
vt 0.851562 0.320312
vt 0.851562 0.320312
vt 0.851562 0.320312
vt 0.851562 0.320312
vt 0.851562 0.320312
vt 0.851562 0.320312
vt 0.851562 0.320312
vt 0.851562 0.320312
vt 0.851562 0.320312
vt 0.851562 0.320312
vt 0.851562 0.320312
vt 0.851562 0.320312
vt 0.851562 0.320312
vt 0.835938 0.210938
vt 0.835938 0.210938
vt 0.835938 0.210938
vt 0.835938 0.210938
vt 0.835938 0.210938
vt 0.835938 0.210938
vt 0.835938 0.210938
vt 0.835938 0.210938
vn -0.3076 0.1169 -0.9443
vn -0.6698 0.1160 -0.7334
vn -0.6735 -0.0844 -0.7344
vn -0.3073 -0.0848 -0.9478
vn 0.2764 0.0239 -0.9608
vn 0.2995 0.1743 -0.9380
vn 0.2995 0.1742 -0.9381
vn 0.2764 0.0237 -0.9608
vn -0.9731 0.1872 0.1342
vn -0.9938 0.0095 0.1108
vn -0.9938 0.0096 0.1108
vn -0.9731 0.1871 0.1342
vn -0.8967 0.1128 -0.4280
vn -0.8993 -0.0815 -0.4296
vn -0.3902 -0.9021 -0.1845
vn -0.2700 -0.9165 -0.2952
vn -0.8010 -0.3133 -0.5101
vn -0.9704 -0.1770 0.1643
vn -0.3699 -0.2796 -0.8860
vn 0.3221 -0.1377 -0.9366
vn -0.1256 -0.9130 -0.3880
vn 0.0365 0.9933 0.1099
vn -0.1759 0.9751 0.1352
vn -0.1763 0.9750 0.1352
vn 0.0364 0.9933 0.1099
vn -0.1132 -0.0822 -0.9902
vn -0.1822 -0.8875 -0.4232
vn -0.5864 -0.7119 -0.3863
vn 0.2789 0.9529 0.1190
vn 0.3725 0.8797 0.2956
vn 0.3211 0.9309 0.1742
vn 0.2785 0.9485 0.1510
vn 0.8969 0.0850 0.4341
vn 0.8645 0.2804 0.4172
vn 0.9202 0.2770 0.2767
vn 0.0870 -0.9610 0.2624
vn -0.1464 -0.9453 0.2914
vn 0.7472 -0.2469 0.6170
vn 0.8193 0.0590 0.5703
vn 0.8207 0.0400 0.5700
vn 0.7823 -0.1744 0.5980
vn 0.0772 0.9934 0.0852
vn 0.2256 0.8969 0.3802
vn 0.0769 0.9581 0.2760
vn 0.1135 0.9534 0.2796
vn 0.1235 0.9378 0.3245
vn 0.5760 -0.7416 0.3439
vn 0.5252 -0.8191 0.2308
vn 0.5195 -0.8074 0.2797
vn 0.5563 -0.7921 0.2514
vn 0.2436 -0.9626 0.1183
vn 0.1843 -0.9616 0.2035
vn 0.1545 -0.8305 0.5351
vn 0.2445 -0.7637 0.5975
vn 0.1627 -0.8051 0.5704
vn 0.2109 -0.8182 0.5348
vn 0.8930 0.2528 0.3723
vn 0.6257 0.3551 0.6946
vn 0.6340 0.3556 0.6867
vn 0.8339 0.3082 0.4579
vn -0.9532 0.1113 -0.2812
vn -0.9559 -0.0817 -0.2820
vn -0.2812 -0.7009 -0.6555
vn -0.3926 -0.8837 -0.2546
vn 0.4869 0.0491 0.8721
vn 0.5391 -0.2303 0.8102
vn 0.5181 -0.1625 0.8397
vn 0.4863 0.0323 0.8732
vn -0.1128 0.1144 -0.9870
vn 0.6079 -0.4127 0.6784
vn 0.8890 -0.2836 0.3595
vn 0.8114 -0.3643 0.4571
vn 0.6178 -0.4135 0.6688
vn 0.7394 0.3535 0.5730
vn 0.7635 0.2960 0.5739
vn 0.2326 -0.2263 0.9459
vn 0.3642 -0.3247 0.8729
vn 0.9941 0.1087 -0.0030
vn 0.9948 -0.0636 0.0800
vn 0.9941 -0.0901 0.0602
vn 0.9980 0.0628 0.0051
vn -0.1488 0.1070 0.9831
vn -0.1349 0.2192 0.9663
vn -0.1514 0.2443 0.9578
vn -0.1407 0.0611 0.9882
vn 0.9774 -0.0780 0.1965
vn 0.9511 -0.1744 0.2547
vn 0.2190 0.9459 0.2394
vn 0.2224 0.9458 0.2366
vn -0.0650 -0.0703 0.9954
vn -0.0851 -0.0949 0.9918
vn 0.4067 -0.7961 0.4482
vn 0.4116 -0.7959 0.4440
vn 0.9667 0.1215 0.2251
vn 0.9513 0.1656 0.2599
vn 0.1592 0.9761 -0.1482
vn 0.1019 0.9936 0.0496
vn 0.1019 0.9936 0.0495
vn 0.1591 0.9761 -0.1479
vn 0.5017 0.3241 0.8021
vn 0.4992 0.2670 0.8243
vn 0.2462 0.2094 0.9463
vn 0.3594 0.2760 0.8915
vn 0.3131 -0.1219 0.9419
vn 0.3126 0.0882 0.9458
vn 0.6725 0.0878 0.7348
vn 0.6685 -0.1211 0.7338
vn 0.1217 -0.1198 0.9853
vn 0.1218 0.0864 0.9888
vn 0.1179 0.2844 0.9514
vn 0.3025 0.2901 0.9079
vn 0.8942 -0.1179 0.4318
vn 0.6443 0.2882 0.7084
vn 0.5964 -0.7589 0.2613
vn 0.7885 -0.6142 0.0322
vn 0.7172 -0.6864 0.1203
vn 0.5662 -0.7681 0.2990
vn 0.9541 0.0852 0.2871
vn 0.9512 -0.1163 0.2858
vn 0.9763 0.2160 0.0111
vn 0.9699 0.2433 -0.0060
vn 0.0414 -0.0316 0.9986
vn 0.0953 -0.1051 0.9899
vn 0.0705 0.0812 0.9942
vn 0.1006 0.1124 0.9886
vn 0.1807 -0.7423 0.6453
vn 0.4168 -0.7822 0.4630
vn 0.4202 -0.7824 0.4596
vn 0.2312 -0.7550 0.6136
vn 0.8283 0.0575 -0.5573
vn 0.8508 0.1153 -0.5127
vn 0.8703 0.0655 -0.4881
vn 0.8245 0.0831 -0.5598
vn 0.4143 0.7900 0.4519
vn 0.5609 0.7743 0.2930
vn 0.5893 0.7655 0.2584
vn 0.4111 0.7899 0.4550
vn 0.8782 0.0044 -0.4783
vn 0.8948 0.0682 -0.4413
vn -0.6998 0.0488 0.7126
vn -0.6318 0.0119 0.7750
vn -0.5935 0.0786 0.8010
vn -0.7015 0.0705 0.7092
vn -0.0013 -0.6606 0.7508
vn -0.0939 -0.5972 0.7966
vn -0.6566 0.0873 0.7492
vn -0.6328 0.0386 0.7733
vn 0.7091 0.6952 0.1176
vn 0.7689 0.6379 0.0432
vn 0.1783 0.7524 0.6341
vn -0.0819 0.6227 0.7782
vn -0.0043 0.6731 0.7395
vn 0.2252 0.7640 0.6046
vn 0.4644 0.6845 0.5619
vn 0.4782 0.6267 0.6153
vn 0.5353 -0.5386 0.6507
vn 0.5254 -0.5487 0.6503
vn 0.5949 -0.5319 0.6026
vn 0.5933 -0.5095 0.6232
vn 0.5392 0.6606 0.5223
vn 0.4970 0.7046 0.5064
vn 0.9123 -0.3439 -0.2221
vn 0.9208 -0.2800 -0.2715
vn 0.9010 0.3715 -0.2238
vn 0.8953 0.3971 -0.2019
vn -0.3569 0.3858 0.8508
vn -0.3691 0.3729 0.8513
vn -0.4152 -0.2897 0.8624
vn -0.3729 -0.3393 0.8636
vn -0.0589 0.1091 0.9923
vn -0.0387 0.0805 0.9960
vn -0.6648 -0.6940 0.2764
vn 0.0041 0.0087 1.0000
vn -0.0005 0.0036 1.0000
vn -0.6904 0.7051 0.1619
vn -0.6899 0.7056 0.1619
vn 0.3825 -0.6850 -0.6201
vn 0.3043 -0.9477 -0.0962
vn 0.9919 0.0511 0.1163
vn 0.9917 0.0909 0.0910
vn 0.2762 0.7059 -0.6523
vn 0.2761 0.7060 -0.6522
vn 0.9887 0.0237 0.1482
vn 0.9869 0.0350 0.1572
vn 0.9202 0.2768 0.2769
vn 0.9202 0.2769 0.2767
vn 0.9512 -0.1163 0.2859
vn 0.9511 -0.1160 0.2863
vn 0.1174 0.2849 0.9513
vn 0.1170 0.2854 0.9512
vn 0.1225 -0.1194 0.9853
vn 0.1222 -0.1195 0.9853
s 1
f 3/1/1 6/2/2 5/3/3 4/4/4
f 10/5/5 51/6/6 92/7/7 43/8/8
f 53/9/9 11/10/10 45/11/11 96/12/12
f 6/2/2 8/13/13 9/14/14 5/3/3
f 5/3/3 9/14/14 7/15/15 2/16/16
f 11/10/10 57/17/17 104/18/18 45/11/11
f 47/19/19 10/5/5 43/8/8 84/20/20
f 4/4/4 5/3/3 2/16/16 1/21/21
f 3/1/22 54/22/23 95/23/24 36/24/25
f 11/10/26 4/4/4 1/21/21 56/25/27 58/26/28 57/17/17
f 18/27/29 59/28/30 71/29/31 25/30/32
f 28/31/33 25/32/34 71/33/35
f 56/25/27 1/21/21 32/34/36 105/35/37
f 66/36/38 22/37/39 30/38/40 78/39/41
f 6/2/42 3/1/22 36/24/25 39/40/42
f 69/41/43 15/42/44 14/43/45 81/44/46
f 63/45/47 20/46/48 27/47/49 75/48/50
f 2/16/16 7/15/15 37/49/51 33/50/52
f 17/51/53 65/52/54 77/53/55 12/54/56
f 41/55/57 40/56/58 19/57/59 20/46/60
f 8/13/13 50/58/61 52/59/61 51/6/61 10/5/62 9/14/14
f 9/14/14 10/5/62 47/19/19 49/60/63 48/61/64 7/15/15
f 21/62/65 62/63/66 74/64/67 29/65/68
f 53/9/69 55/66/69 54/22/69 3/1/1 4/4/4 11/10/26
f 34/67/70 38/68/71 18/27/72 16/69/73
f 22/37/39 68/70/74 80/71/75 30/38/40
f 31/72/76 34/67/70 16/69/73 15/42/77
f 44/73/78 90/74/79 62/63/80 21/62/81
f 46/75/82 102/76/83 68/70/84 22/37/85
f 38/68/71 87/77/86 59/28/87 18/27/72
f 15/42/44 16/69/88 13/78/89 14/43/45
f 98/79/90 46/75/82 22/37/85 66/36/91
f 16/69/88 18/27/29 25/30/32 13/78/89
f 19/57/92 17/51/53 12/54/56 26/80/93
f 89/81/94 41/55/57 20/46/60 63/45/95
f 50/58/96 8/13/97 42/82/98 93/83/99
f 8/13/97 6/2/42 39/40/42 42/82/98
f 60/84/100 21/62/65 29/65/68 72/85/101
f 40/56/58 35/86/102 17/51/103 19/57/59
f 12/87/104 23/88/105 24/89/106 26/90/107
f 78/91/108 30/92/109 23/88/105
f 23/88/105 81/93/110 14/94/111
f 26/90/107 24/89/106 28/31/33 27/95/112
f 24/89/106 13/96/113 25/32/34 28/31/33
f 37/49/114 83/97/115 87/77/116 38/68/117
f 28/31/33 29/98/118 74/99/119
f 23/88/105 14/94/111 13/96/113 24/89/106
f 86/100/120 44/73/78 21/62/81 60/84/121
f 20/46/48 19/57/92 26/80/93 27/47/49
f 101/101/122 31/72/76 15/42/77 69/41/123
f 35/86/102 99/102/124 65/52/125 17/51/103
f 32/34/126 33/50/127 34/67/128 31/72/129
f 33/50/127 37/49/114 38/68/117 34/67/128
f 44/73/130 86/100/131 84/20/132 43/8/133
f 40/56/134 41/55/135 42/82/136 39/40/137
f 90/74/138 44/73/130 43/8/133 92/7/139
f 46/75/140 98/79/141 96/12/142 45/11/143
f 31/72/129 101/101/144 105/35/145 32/34/126
f 102/76/146 46/75/140 45/11/143 104/18/147
f 41/55/135 89/81/148 93/83/149 42/82/136
f 36/24/150 95/23/151 99/102/152 35/86/153
f 35/86/153 40/56/134 39/40/137 36/24/150
f 1/21/21 2/16/16 33/50/52 32/34/36
f 60/84/100 72/85/101 73/103/154 61/104/155
f 61/104/155 73/103/154 71/29/31 59/28/30
f 77/53/55 65/52/54 67/105/156 79/106/157
f 79/106/157 67/105/156 66/36/38 78/39/41
f 63/45/47 75/48/50 76/107/158 64/108/159
f 64/108/159 76/107/158 74/64/67 62/63/66
f 80/71/75 68/70/74 70/109/160 82/110/161
f 82/110/161 70/109/160 69/41/43 81/44/46
f 84/20/132 86/100/131 88/111/162 85/112/163
f 85/112/163 88/111/162 87/77/116 83/97/115
f 90/74/138 92/7/139 94/113/164 91/114/165
f 91/114/165 94/113/164 93/83/149 89/81/148
f 96/12/142 98/79/141 100/115/166 97/116/167
f 97/116/167 100/115/166 99/102/152 95/23/151
f 102/76/146 104/18/147 106/117/168 103/118/169
f 103/118/169 106/117/168 105/35/145 101/101/144
f 68/70/84 102/76/83 103/118/170 70/109/171
f 70/109/171 103/118/170 101/101/122 69/41/123
f 104/18/18 57/17/17 58/119/28 106/117/172
f 106/117/172 58/119/28 56/25/27 105/35/37
f 98/79/90 66/36/91 67/105/173 100/115/174
f 100/115/174 67/105/173 65/52/125 99/102/124
f 53/9/9 96/12/12 97/116/175 55/120/176
f 55/120/176 97/116/175 95/23/24 54/22/23
f 47/19/19 84/20/20 85/112/177 49/121/63
f 49/121/63 85/112/177 83/97/178 48/61/64
f 86/100/120 60/84/121 61/104/179 88/111/180
f 88/111/180 61/104/179 59/28/87 87/77/86
f 92/7/7 51/6/6 52/122/181 94/113/182
f 94/113/182 52/122/181 50/58/96 93/83/99
f 62/63/80 90/74/79 91/114/183 64/108/184
f 64/108/184 91/114/183 89/81/94 63/45/95
f 7/15/15 48/61/64 83/97/178 37/49/51
f 28/31/33 71/33/35 73/123/185
f 29/98/118 28/31/33 72/124/186
f 72/124/186 28/31/33 73/123/185
f 28/31/33 74/99/119 76/125/187
f 27/95/112 28/31/33 75/126/188
f 75/126/188 28/31/33 76/125/187
f 82/127/189 81/93/110 23/88/105
f 30/92/109 80/128/190 23/88/105
f 80/128/190 82/127/189 23/88/105
f 12/87/104 77/129/191 23/88/105
f 77/129/191 79/130/192 23/88/105
f 79/130/192 78/91/108 23/88/105
