# Blender v2.91.0 Beta OBJ File: 'decos.blend'
# www.blender.org
o Cube_Cube.004_Cube_Cube.010
v 10.154783 -3.829692 -1.002954
v 4.170348 -3.829651 -3.738659
v 10.958187 -3.829653 -3.738659
v 10.225755 10.985491 -0.969808
v 11.505423 10.446113 -3.738659
v 11.038450 10.985530 -3.738659
v 4.170351 10.985532 -3.738659
v 6.339100 10.985511 2.750645
v 8.515412 10.985491 1.512466
v 6.313344 -0.805099 2.679878
v 8.467632 -0.805119 1.455522
v 6.311290 -3.829673 2.674236
v 8.463822 -3.829692 1.450981
v 6.298709 6.413867 2.639672
v 6.096512 1.381641 2.084139
v 8.065392 1.381620 0.976149
v 8.440484 6.413847 1.423169
v 10.160036 -0.805109 -1.000584
v 10.713403 -2.991839 -0.742253
v 10.964115 -0.805080 -3.738659
v 10.122634 6.413857 -1.018024
v 9.606670 1.381620 -1.258916
v 10.338339 1.381661 -3.738659
v 10.921881 6.413888 -3.738659
v 3.829652 -3.829653 2.958186
v 3.829652 -3.829651 -3.829653
v 3.829652 10.985530 3.038449
v 3.829652 10.446113 3.505421
v 3.829652 6.413888 2.921880
v 3.829652 1.381661 2.338338
v 3.829652 -0.805079 2.964114
v 3.829652 10.985532 -3.829650
v 3.829652 1.381662 -3.829652
v 4.170350 1.381662 -3.863601
v 10.380615 8.429976 -0.897578
v 3.829652 8.429999 3.213650
v 6.421760 -1.898469 2.977748
v 3.829652 -1.898449 3.277002
v 10.638597 10.446094 -0.777132
v 6.530175 -2.991839 3.275618
v 8.869874 -2.991858 1.934893
v 6.500906 10.446093 3.195205
v 8.815577 10.446074 1.870188
v 10.436720 -1.898474 -0.871419
v 11.589890 -2.991818 -3.738659
v 11.213652 8.429999 -3.738659
v 8.668753 -1.898489 1.695208
v 3.829652 -2.991818 3.589890
v 8.628031 8.429960 1.646678
v 6.399807 8.429980 2.917439
v 11.277002 -1.898449 -3.738659
v 3.945287 8.141862 5.208611
v 3.944081 10.157960 5.500449
v 3.940526 -2.438177 5.528304
v 3.942786 -1.344862 5.215302
v 12.448615 10.163860 0.071656
v 13.503583 10.156940 -3.738661
v 7.025107 -1.337401 4.820962
v 7.137678 -2.430765 5.117464
v 10.181305 -2.435173 3.365458
v 7.125029 10.153834 5.092919
v 10.166553 10.156237 3.342303
v 12.197315 -1.355556 -0.045703
v 12.474077 -2.448922 0.083293
v 13.530951 -2.436348 -3.738659
v 9.981712 8.140157 3.116313
v 7.021688 8.137723 4.815889
v 12.190590 8.147742 -0.048697
v 13.211812 8.140827 -3.738661
v 13.218063 -1.342979 -3.738659
v 9.985276 -1.341919 3.121132
vt 0.835938 0.304688
vt 0.835938 0.304688
vt 0.835938 0.304688
vt 0.835938 0.304688
vt 0.835938 0.304688
vt 0.835938 0.304688
vt 0.835938 0.304688
vt 0.835938 0.304688
vt 0.835938 0.304688
vt 0.835938 0.304688
vt 0.835938 0.304688
vt 0.835938 0.304688
vt 0.835938 0.304688
vt 0.835938 0.304688
vt 0.820312 0.242188
vt 0.820312 0.242188
vt 0.820312 0.242188
vt 0.820312 0.242188
vt 0.835938 0.304688
vt 0.835938 0.304688
vt 0.835938 0.304688
vt 0.835938 0.304688
vt 0.820312 0.242188
vt 0.820312 0.242188
vt 0.820312 0.242188
vt 0.820312 0.242188
vt 0.835938 0.304688
vt 0.835938 0.304688
vt 0.835938 0.304688
vt 0.835938 0.304688
vt 0.820312 0.242188
vt 0.820312 0.242188
vt 0.835938 0.304688
vt 0.835938 0.304688
vt 0.820312 0.242188
vt 0.820312 0.242188
vt 0.820312 0.242188
vt 0.820312 0.242188
vt 0.820312 0.242188
vt 0.820312 0.242188
vt 0.820312 0.242188
vt 0.820312 0.242188
vt 0.820312 0.242188
vt 0.820312 0.242188
vt 0.820312 0.242188
vt 0.820312 0.242188
vt 0.820312 0.242188
vt 0.820312 0.242188
vt 0.820312 0.242188
vt 0.820312 0.242188
vt 0.820312 0.242188
vt 0.820312 0.242188
vt 0.820312 0.242188
vt 0.820312 0.242188
vt 0.820312 0.242188
vt 0.820312 0.242188
vt 0.820312 0.242188
vt 0.820312 0.242188
vt 0.820312 0.242188
vt 0.820312 0.242188
vt 0.820312 0.242188
vt 0.820312 0.242188
vt 0.820312 0.242188
vt 0.820312 0.242188
vt 0.820312 0.242188
vt 0.835938 0.304688
vt 0.835938 0.304688
vt 0.835938 0.304688
vt 0.835938 0.304688
vt 0.835938 0.304688
vt 0.835938 0.304688
vt 0.835938 0.304688
vt 0.835938 0.304688
vt 0.835938 0.304688
vt 0.835938 0.304688
vt 0.835938 0.304688
vt 0.835938 0.304688
vt 0.835938 0.304688
vt 0.835938 0.304688
vt 0.835938 0.304688
vt 0.835938 0.304688
vt 0.835938 0.304688
vt 0.835938 0.304688
vt 0.835938 0.304688
vt 0.835938 0.304688
vt 0.835938 0.304688
vt 0.835938 0.304688
vt 0.835938 0.304688
vt 0.835938 0.304688
vt 0.835938 0.304688
vt 0.835938 0.304688
vt 0.835938 0.304688
vt 0.835938 0.304688
vt 0.835938 0.304688
vt 0.835938 0.304688
vn -0.0000 -1.0000 -0.0000
vn 0.6899 0.6449 0.3287
vn 0.6903 0.6449 0.3280
vn 0.7374 0.6400 0.2161
vn 0.0000 1.0000 0.0000
vn 0.2497 -0.6062 0.7551
vn 0.2459 -0.6062 0.7564
vn 0.5426 -0.6028 0.5850
vn 0.5379 -0.6030 0.5891
vn 0.3069 -0.1308 0.9427
vn 0.3060 -0.1164 0.9449
vn 0.6710 -0.1155 0.7324
vn 0.6700 -0.1298 0.7310
vn 0.2325 0.6585 0.7157
vn 0.2364 0.6586 0.7144
vn 0.5091 0.6554 0.5578
vn 0.5140 0.6552 0.5536
vn 0.7277 -0.5923 0.3459
vn 0.7274 -0.5923 0.3465
vn 0.7768 -0.5872 0.2276
vn 0.8955 -0.1262 0.4267
vn 0.8969 -0.1123 0.4277
vn 0.9534 -0.1109 0.2807
vn 0.9519 -0.1247 0.2798
vn 0.0871 0.6505 0.7545
vn 0.1124 -0.1280 0.9854
vn 0.1118 -0.1140 0.9872
vn 0.0919 -0.5979 0.7962
vn 0.0834 -0.0119 -0.9964
vn 0.0834 0.0065 -0.9965
vn 0.6685 -0.1436 0.7297
vn 0.8941 -0.1397 0.4256
vn 0.1129 -0.1417 0.9834
vn 0.3079 -0.1447 0.9403
vn 0.9504 -0.1379 0.2789
vn 0.6502 0.2758 0.7080
vn 0.6496 0.2758 0.7085
vn 0.8696 0.2687 0.4143
vn 0.8694 0.2687 0.4147
vn 0.1084 0.2724 0.9561
vn 0.1091 0.2724 0.9560
vn 0.2976 0.2778 0.9134
vn 0.2954 0.2778 0.9141
vn 0.9250 0.2655 0.2718
vn 0.9249 0.2654 0.2722
vn 0.6489 0.2758 0.7092
vn 0.8698 0.2687 0.4138
vn 0.1099 0.2724 0.9559
vn 0.2997 0.2779 0.9127
vn 0.9251 0.2655 0.2714
vn 0.2988 0.2779 0.9129
vn 0.3009 0.2779 0.9123
vn 0.6496 0.2757 0.7086
vn 0.6521 0.2757 0.7063
vn 0.8698 0.2687 0.4139
vn 0.8699 0.2687 0.4136
vn 0.9253 0.2655 0.2709
vn 0.1108 0.2724 0.9558
vn 0.3091 -0.1448 0.9399
vn 0.3080 -0.1448 0.9403
vn 0.6705 -0.1435 0.7279
vn 0.6691 -0.1436 0.7291
vn 0.8942 -0.1397 0.4253
vn 0.8941 -0.1397 0.4255
vn 0.9505 -0.1379 0.2784
vn 0.1138 -0.1417 0.9833
vn 0.3051 0.2780 0.9108
vn 0.3074 0.2780 0.9100
vn 0.6482 0.2757 0.7098
vn 0.6513 0.2756 0.7070
vn 0.8715 0.2690 0.4101
vn 0.8716 0.2690 0.4099
vn 0.9290 0.2657 0.2577
vn 0.1217 0.2722 0.9545
vn 0.3159 -0.1448 0.9377
vn 0.3149 -0.1448 0.9380
vn 0.6694 -0.1435 0.7290
vn 0.6680 -0.1435 0.7302
vn 0.8960 -0.1399 0.4214
vn 0.8960 -0.1399 0.4215
vn 0.9545 -0.1380 0.2645
vn 0.1254 -0.1417 0.9819
vn 0.2478 -0.9617 0.1172
vn 0.2684 -0.9604 0.0743
vn 0.2479 -0.9617 0.1170
vn 0.0000 0.0000 -1.0000
vn 0.1289 0.9898 0.0610
vn 0.0956 0.9898 0.1056
vn 0.1290 0.9898 0.0609
vn -0.2477 0.9617 -0.1172
vn -0.1835 0.9618 -0.2031
vn -0.1837 0.9618 -0.2029
vn -0.2478 0.9617 -0.1170
vn 0.1839 -0.9618 0.2028
vn 0.1838 -0.9618 0.2029
vn 0.0352 -0.9604 0.2765
vn 0.0878 -0.9612 0.2614
vn 0.0876 -0.9612 0.2614
vn -0.2684 0.9604 -0.0743
vn -0.0876 0.9612 -0.2615
vn -0.0873 0.9612 -0.2616
vn -0.0183 -0.9894 -0.1440
vn -0.0456 -0.9896 -0.1361
vn -0.0455 -0.9896 -0.1362
vn -0.0955 -0.9898 -0.1057
vn 0.1398 0.9894 0.0387
vn -0.1289 -0.9898 -0.0610
vn -0.1398 -0.9894 -0.0387
vn -0.1290 -0.9898 -0.0609
vn 0.0457 0.9896 0.1361
vn 0.0184 0.9894 0.1440
vn 0.0456 0.9896 0.1361
vn -0.0350 0.9604 -0.2764
s 1
f 1/1/1 2/2/1 3/3/1
f 4/4/2 39/5/3 5/6/4 6/7/4
f 7/8/5 8/9/5 9/10/5
f 40/11/6 12/12/7 13/13/8 41/14/9
f 14/15/10 15/16/11 16/17/12 17/18/13
f 8/9/14 42/19/15 43/20/16 9/10/17
f 12/12/1 2/2/1 13/13/1
f 7/8/5 4/4/5 6/7/5
f 19/21/18 1/1/19 3/3/20 45/22/20
f 21/23/21 22/24/22 23/25/23 24/26/24
f 25/27/1 26/28/1 2/2/1 12/12/1
f 27/29/25 28/30/25 42/19/15 8/9/14
f 29/31/26 30/32/27 15/16/11 14/15/10
f 48/33/28 25/27/28 12/12/7 40/11/6
f 32/34/5 27/29/5 8/9/5 7/8/5
f 26/35/29 33/36/29 34/37/29 2/38/29
f 33/36/30 32/39/30 7/40/30 34/37/30
f 17/18/13 16/17/12 22/24/22 21/23/21
f 41/14/9 13/13/8 1/1/19 19/21/18
f 7/8/5 9/10/5 4/4/5
f 9/10/17 43/20/16 39/5/3 4/4/2
f 13/13/1 2/2/1 1/1/1
f 49/41/31 17/18/13 21/23/21 35/42/32
f 36/43/33 29/31/26 14/15/10 50/44/34
f 35/42/32 21/23/21 24/26/24 46/45/35
f 50/44/34 14/15/10 17/18/13 49/41/31
f 16/17/36 11/46/37 18/47/38 22/24/39
f 30/32/40 31/48/41 10/49/42 15/16/43
f 22/24/39 18/47/38 20/50/44 23/25/45
f 15/16/43 10/49/42 11/46/37 16/17/36
f 11/46/37 47/51/46 44/52/47 18/47/38
f 31/48/41 38/53/48 37/54/49 10/49/42
f 18/47/38 44/52/47 51/55/50 20/50/44
f 10/49/42 37/54/49 47/51/46 11/46/37
f 37/54/51 40/56/52 41/57/53 47/51/54
f 44/52/55 19/58/56 45/59/57 51/55/57
f 38/53/58 48/60/58 40/56/52 37/54/51
f 47/51/54 41/57/53 19/58/56 44/52/55
f 42/61/59 50/44/60 49/41/61 43/62/62
f 39/63/63 35/42/64 46/45/65 5/64/65
f 28/65/66 36/43/66 50/44/60 42/61/59
f 43/62/62 49/41/61 35/42/64 39/63/63
f 58/66/67 59/67/68 60/68/69 71/69/70
f 63/70/71 64/71/72 65/72/73 70/73/73
f 55/74/74 54/75/74 59/67/68 58/66/67
f 71/69/70 60/68/69 64/71/72 63/70/71
f 61/76/75 67/77/76 66/78/77 62/79/78
f 56/80/79 68/81/80 69/82/81 57/83/81
f 53/84/82 52/85/82 67/77/76 61/76/75
f 62/79/78 66/78/77 68/81/80 56/80/79
f 19/21/83 45/22/84 65/72/84 64/71/85
f 45/22/86 51/86/86 70/73/86 65/72/86
f 39/5/87 43/20/88 62/79/88 56/80/89
f 44/87/90 47/88/91 71/69/92 63/70/93
f 41/14/94 19/21/83 64/71/85 60/68/95
f 48/33/96 40/11/97 59/67/98 54/75/96
f 51/86/99 44/87/90 63/70/93 70/73/99
f 47/88/91 37/89/100 58/66/101 71/69/92
f 36/90/102 50/91/103 67/77/104 52/85/102
f 46/92/86 5/6/86 57/83/86 69/82/86
f 50/91/103 49/93/105 66/78/105 67/77/104
f 5/6/106 39/5/87 56/80/89 57/83/106
f 35/94/107 46/92/108 69/82/108 68/81/109
f 49/93/105 35/94/107 68/81/109 66/78/105
f 40/11/97 41/14/94 60/68/95 59/67/98
f 42/19/110 28/30/111 53/84/111 61/76/112
f 43/20/88 42/19/110 61/76/112 62/79/88
f 37/89/100 38/95/113 55/74/113 58/66/101
