# Blender v2.91.0 Beta OBJ File: 'decos.blend'
# www.blender.org
o Cube_Cube.002_Cube_Cube.006
v -24.349243 8.429999 3.213650
v -24.349243 10.446113 3.505421
v -25.261341 8.429999 3.213651
v -25.261341 10.446113 3.505422
v 3.829652 8.429999 3.213650
v 3.829652 10.446113 3.505421
v 2.917560 8.429999 3.213650
v 2.917560 10.446113 3.505421
v -24.349243 -1.898448 3.277002
v -24.349243 -2.991818 3.589890
v -25.261341 -1.898449 3.277002
v -25.261341 -2.991818 3.589890
v 3.829652 -2.991818 3.589890
v 2.917560 -2.991818 3.589890
v 3.829652 -1.898449 3.277002
v 2.917560 -1.898448 3.277002
v -24.349243 8.140827 5.211811
v -24.349243 10.156940 5.503581
v -25.261339 8.140827 5.211811
v -25.261339 10.156940 5.503582
v 3.945287 8.141862 5.208611
v 3.944081 10.157960 5.500449
v 2.917560 8.140827 5.211811
v 2.917560 10.156940 5.503581
v -24.349243 -1.342978 5.218062
v -24.349243 -2.436348 5.530950
v -25.261341 -1.342979 5.218062
v -25.261341 -2.436348 5.530950
v 3.940526 -2.438177 5.528304
v 2.917560 -2.436348 5.530950
v 3.942786 -1.344862 5.215302
v 2.917560 -1.342978 5.218062
v -24.349243 -0.805079 2.964114
v -24.349243 1.381661 2.338338
v -25.261341 1.381661 2.338338
v -25.261341 -0.805079 2.964114
v 2.917560 -1.223994 -3.829652
v 2.917560 1.381662 -3.829652
v 3.829652 1.381662 -3.829652
v 3.829652 -1.223994 -3.829652
v 3.829652 1.381661 2.338338
v 3.829652 -0.805079 2.964114
v -25.261341 1.381662 -3.829652
v -25.261341 -1.223994 -3.829652
v 3.829652 10.985532 -3.829650
v 2.917560 10.985532 -3.829650
v 2.917560 10.985530 3.038449
v 3.829652 10.985530 3.038449
v -25.261341 6.413888 2.921880
v -24.349243 6.413887 2.921880
v -25.261341 10.446113 3.505422
v -24.349243 10.985532 -3.829650
v -24.349243 10.985530 3.038449
v -24.349243 6.683597 -3.829651
v -25.261341 6.683597 -3.829651
v -25.261341 10.985532 -3.829650
v 2.917560 6.413888 2.921880
v 3.829652 6.413888 2.921880
v 3.829652 10.446113 3.505421
v 2.917560 10.446113 3.505421
v 2.917560 -3.829652 2.958186
v 3.829652 -3.829653 2.958186
v 3.829652 -2.991818 3.589890
v 2.917560 -3.829650 -3.829653
v 3.829652 -3.829651 -3.829653
v -25.261341 -3.829651 -3.829653
v -24.349243 -3.829650 -3.829653
v -24.349243 -3.829652 2.958186
v -25.261341 -3.829653 2.958186
v 3.829652 6.683597 -3.829651
v 2.917560 6.683597 -3.829651
v -25.261341 10.985530 3.038449
v -24.349243 1.381662 -3.829652
v -24.349243 -1.223994 -3.829652
v 2.917560 1.381661 2.338338
v 2.917560 -0.805079 2.964114
v -25.261341 8.429999 3.213651
v -24.349243 8.834564 -3.829651
v -25.261341 8.834564 -3.829651
v 3.829652 8.834564 -3.829651
v 2.917560 8.834564 -3.829651
v -25.261341 -2.526823 -3.829653
v -24.349243 -1.898448 3.277002
v -25.261341 -1.898449 3.277002
v 3.829652 -2.526823 -3.829653
v -24.349243 -2.526822 -3.829653
v 2.917560 -2.526822 -3.829653
v 3.829652 -1.898449 3.277002
v -24.349243 8.429999 3.213650
v -24.349243 10.446113 3.505421
v 3.829652 8.429999 3.213650
v 2.917560 8.429999 3.213650
v -24.349243 -2.991818 3.589890
v -25.261341 -2.991818 3.589890
v 2.917560 -2.991818 3.589890
v 2.917560 -1.898448 3.277002
vt 0.835938 0.304688
vt 0.835938 0.304688
vt 0.835938 0.304688
vt 0.835938 0.304688
vt 0.835938 0.304688
vt 0.835938 0.304688
vt 0.835938 0.304688
vt 0.835938 0.304688
vt 0.835938 0.304688
vt 0.835938 0.304688
vt 0.835938 0.304688
vt 0.835938 0.304688
vt 0.835938 0.304688
vt 0.835938 0.304688
vt 0.835938 0.304688
vt 0.835938 0.304688
vt 0.835938 0.304688
vt 0.835938 0.304688
vt 0.835938 0.304688
vt 0.835938 0.304688
vt 0.835938 0.304688
vt 0.835938 0.304688
vt 0.835938 0.304688
vt 0.835938 0.304688
vt 0.835938 0.304688
vt 0.835938 0.304688
vt 0.835938 0.304688
vt 0.835938 0.304688
vt 0.835938 0.304688
vt 0.835938 0.304688
vt 0.835938 0.304688
vt 0.835938 0.304688
vt 0.820312 0.242188
vt 0.820312 0.242188
vt 0.820312 0.242188
vt 0.820312 0.242188
vt 0.820312 0.242188
vt 0.820312 0.242188
vt 0.820312 0.242188
vt 0.820312 0.242188
vt 0.820312 0.242188
vt 0.820312 0.242188
vt 0.820312 0.242188
vt 0.820312 0.242188
vt 0.835938 0.304688
vt 0.835938 0.304688
vt 0.835938 0.304688
vt 0.835938 0.304688
vt 0.835938 0.304688
vt 0.835938 0.304688
vt 0.820312 0.242188
vt 0.820312 0.242188
vt 0.820312 0.242188
vt 0.820312 0.242188
vt 0.835938 0.304688
vt 0.835938 0.304688
vt 0.835938 0.304688
vt 0.835938 0.304688
vt 0.820312 0.242188
vt 0.820312 0.242188
vt 0.820312 0.242188
vt 0.820312 0.242188
vt 0.820312 0.242188
vt 0.820312 0.242188
vt 0.820312 0.242188
vt 0.820312 0.242188
vt 0.835938 0.304688
vt 0.835938 0.304688
vt 0.835938 0.304688
vt 0.835938 0.304688
vt 0.820312 0.242188
vt 0.820312 0.242188
vt 0.820312 0.242188
vt 0.820312 0.242188
vt 0.820312 0.242188
vt 0.820312 0.242187
vt 0.820312 0.242188
vt 0.820312 0.242188
vt 0.820312 0.242188
vt 0.820312 0.242188
vt 0.820312 0.242188
vt 0.820312 0.242188
vt 0.820312 0.242188
vt 0.835938 0.304688
vt 0.835938 0.304688
vt 0.835938 0.304688
vt 0.835938 0.304688
vt 0.835938 0.304688
vt 0.835938 0.304688
vt 0.820312 0.242188
vt 0.820312 0.242188
vt 0.820312 0.242188
vt 0.820312 0.242188
vt 0.820312 0.242188
vt 0.820312 0.242188
vt 0.820312 0.242188
vt 0.820312 0.242188
vt 0.820312 0.242188
vt 0.820312 0.242188
vt 0.820312 0.242188
vt 0.820312 0.242188
vt 0.820312 0.242188
vt 0.820312 0.242188
vt 0.820312 0.242188
vt 0.820312 0.242188
vt 0.820312 0.242188
vt 0.820312 0.242188
vt 0.820312 0.242188
vt 0.820312 0.242188
vt 0.820312 0.242188
vt 0.820312 0.242188
vt 0.820312 0.242188
vt 0.820312 0.242188
vt 0.820312 0.242188
vn -0.0000 0.1432 -0.9897
vn 0.0000 -0.2751 -0.9614
vn 0.0000 -0.1432 0.9897
vn 0.0016 -0.1432 0.9897
vn 0.0032 -0.1432 0.9897
vn -0.0000 0.2751 0.9614
vn 0.0030 0.2752 0.9614
vn 0.0015 0.2751 0.9614
vn -0.0003 0.9897 0.1431
vn -0.0001 0.9897 0.1432
vn -1.0000 -0.0000 0.0000
vn -0.0003 -0.9614 0.2750
vn -0.0005 -0.9615 0.2749
vn 0.0000 -0.9614 0.2751
vn 0.0000 0.9897 0.1432
vn -0.0000 0.9614 -0.2751
vn 0.0005 0.9615 -0.2749
vn 0.0003 0.9614 -0.2750
vn -0.0000 -0.9897 -0.1432
vn 0.0001 -0.9897 -0.1432
vn 0.0003 -0.9897 -0.1431
vn 0.0000 0.0000 -1.0000
vn 1.0000 0.0000 0.0000
vn 0.0000 1.0000 0.0000
vn -0.0000 -0.6020 0.7985
vn -0.0000 -1.0000 -0.0000
vn 0.0000 0.6545 0.7561
vn 0.0000 -0.1152 0.9933
s 1
f 3/1/1 4/2/1 2/3/1 1/4/1
f 7/5/1 8/6/1 6/7/1 5/8/1
f 1/4/1 2/3/1 8/6/1 7/5/1
f 10/9/2 12/10/2 11/11/2 9/12/2
f 13/13/2 14/14/2 16/15/2 15/16/2
f 14/14/2 10/9/2 9/12/2 16/15/2
f 19/17/3 17/18/3 18/19/3 20/20/3
f 23/21/4 21/22/5 22/23/5 24/24/4
f 17/18/3 23/21/4 24/24/4 18/19/3
f 26/25/6 25/26/6 27/27/6 28/28/6
f 29/29/7 31/30/7 32/31/8 30/32/8
f 30/32/8 32/31/8 25/26/6 26/25/6
f 6/7/9 8/6/10 24/24/10 22/23/9
f 11/11/11 12/10/11 28/28/11 27/27/11
f 14/14/12 13/13/13 29/29/13 30/32/12
f 10/9/14 14/14/12 30/32/12 26/25/14
f 2/3/15 4/2/15 20/20/15 18/19/15
f 12/10/14 10/9/14 26/25/14 28/28/14
f 9/12/16 11/11/16 27/27/16 25/26/16
f 15/16/17 16/15/18 32/31/18 31/30/17
f 16/15/18 9/12/16 25/26/16 32/31/18
f 4/2/11 3/1/11 19/17/11 20/20/11
f 1/4/19 7/5/20 23/21/20 17/18/19
f 7/5/20 5/8/21 21/22/21 23/21/20
f 8/6/10 2/3/15 18/19/15 24/24/10
f 3/1/19 1/4/19 17/18/19 19/17/19
f 33/33/6 34/34/6 35/35/6 36/36/6
f 37/37/22 38/38/22 39/39/22 40/40/22
f 40/40/23 39/39/23 41/41/23 42/42/23
f 36/36/11 35/35/11 43/43/11 44/44/11
f 45/45/24 46/46/24 47/47/24 48/48/24
f 46/46/24 52/49/24 53/50/24 47/47/24
f 78/51/22 79/52/22 56/53/22 52/54/22
f 61/55/25 62/56/25 63/57/25 95/58/25
f 64/59/26 65/60/26 62/61/26 61/62/26
f 66/63/26 67/64/26 68/65/26 69/66/26
f 67/64/26 64/59/26 61/62/26 68/65/26
f 69/67/25 68/68/25 93/69/25 94/70/25
f 68/68/25 61/55/25 95/58/25 93/69/25
f 80/71/22 81/72/22 46/73/22 45/74/22
f 81/72/22 78/51/22 52/54/22 46/73/22
f 56/53/11 51/75/11 72/76/11
f 91/77/23 80/71/23 45/74/23 48/78/23 59/79/23
f 44/44/22 43/43/22 73/80/22 74/81/22
f 74/81/22 73/80/22 38/38/22 37/37/22
f 42/42/6 41/41/6 75/82/6 76/83/6
f 76/83/6 75/82/6 34/34/6 33/33/6
f 53/50/27 72/84/27 51/85/27 90/86/27
f 48/48/27 47/47/27 60/87/27 59/88/27
f 47/47/27 53/50/27 90/86/27 60/87/27
f 52/49/24 56/89/24 72/84/24 53/50/24
f 79/52/11 77/90/11 51/75/11 56/53/11
f 43/43/11 35/35/11 49/91/11 55/92/11
f 34/34/28 75/82/28 57/93/28 50/94/28
f 41/41/23 39/39/23 70/95/23 58/96/23
f 38/38/22 73/80/22 54/97/22 71/98/22
f 39/39/22 38/38/22 71/98/22 70/95/22
f 75/82/28 41/41/28 58/96/28 57/93/28
f 73/80/22 43/43/22 55/92/22 54/97/22
f 35/35/28 34/34/28 50/94/28 49/91/28
f 69/66/11 94/99/11 66/63/11
f 96/100/6 76/83/6 33/33/6 83/101/6
f 88/102/6 42/42/6 76/83/6 96/100/6
f 86/103/22 74/81/22 37/37/22 87/104/22
f 82/105/22 44/44/22 74/81/22 86/103/22
f 84/106/11 36/36/11 44/44/11 82/105/11
f 85/107/23 40/40/23 42/42/23 88/102/23
f 87/104/22 37/37/22 40/40/22 85/107/22
f 83/101/6 33/33/6 36/36/6 84/106/6
f 55/92/11 49/91/11 77/90/11 79/52/11
f 50/94/3 57/93/3 92/108/3 89/109/3
f 58/96/23 70/95/23 80/71/23 91/77/23
f 71/98/22 54/97/22 78/51/22 81/72/22
f 70/95/22 71/98/22 81/72/22 80/71/22
f 57/93/3 58/96/3 91/77/3 92/108/3
f 54/97/22 55/92/22 79/52/22 78/51/22
f 49/91/3 50/94/3 89/109/3 77/90/3
f 64/59/22 87/104/22 85/107/22 65/60/22
f 65/60/23 85/107/23 88/102/23 63/110/23 62/61/23
f 94/99/11 84/106/11 82/105/11 66/63/11
f 66/63/22 82/105/22 86/103/22 67/64/22
f 67/64/22 86/103/22 87/104/22 64/59/22
f 77/90/3 89/109/3 90/111/3 51/75/3
f 92/108/3 91/77/3 59/79/3 60/112/3
f 89/109/3 92/108/3 60/112/3 90/111/3
f 93/113/6 83/101/6 84/106/6 94/99/6
f 63/110/6 88/102/6 96/100/6 95/114/6
f 95/114/6 96/100/6 83/101/6 93/113/6
