# Blender v2.91.0 Beta OBJ File: 'decos.blend'
# www.blender.org
o IndustrialCatWalk_PipeStraightTillable_Cube.001_IndustrialC.023
v 1.026732 1.632900 0.995997
v 1.026732 -11.407703 0.995988
v 0.915385 -11.407703 0.995988
v 0.915385 1.632900 0.995997
v 1.026732 1.632900 1.104322
v 0.915385 1.632900 1.104322
v 0.915385 -11.407703 1.104312
v 1.026732 -11.407703 1.104312
v 0.000002 1.638305 0.924334
v 0.000002 1.638305 1.081783
v 0.000002 1.767131 1.081783
v 0.000002 1.767131 0.924334
v 0.000000 -0.000000 0.969422
v 0.000000 0.125926 0.969422
v 0.000000 0.125926 -0.969423
v 0.000000 0.000000 -0.969423
v 0.000002 1.638305 -0.924332
v 0.000002 1.767132 -0.924332
v 0.000002 1.767132 -1.081780
v 0.000002 1.638305 -1.081780
v 0.000002 1.027973 0.855684
v 0.000002 1.027973 0.916806
v 0.000002 1.101393 0.916806
v 0.000002 1.101394 0.855684
v 0.000002 1.027973 -0.855682
v 0.000002 1.101394 -0.855682
v 0.000002 1.101394 -0.916804
v 0.000002 1.027973 -0.916804
v 0.000002 0.131454 0.832621
v 0.000002 0.131454 0.939867
v 0.000002 0.334433 0.939868
v 0.000002 0.334433 0.832622
v 0.000002 0.131455 -0.832621
v 0.000002 0.334434 -0.832620
v 0.000002 0.334434 -0.939866
v 0.000002 0.131455 -0.939867
v 1.135361 0.131454 0.836751
v 1.135361 0.334433 0.836752
v 1.135361 0.334433 1.994366
v 1.135361 0.131454 1.994366
v 0.926533 1.638305 1.089099
v 1.064549 1.638305 0.924091
v 1.064549 1.638304 1.994367
v 0.926533 1.638304 1.994367
v 1.114983 1.027973 0.875548
v 1.114983 1.101393 0.875548
v 1.114983 1.101393 1.994367
v 1.114983 1.027973 1.994367
v 1.069815 0.131454 0.932369
v 1.069815 0.334433 0.932369
v 1.077628 1.027973 0.920048
v 1.077628 1.101393 0.920048
v 1.051752 -0.000000 0.972543
v 1.051752 0.125926 0.972543
v 1.064549 1.769149 0.924091
v 0.926533 1.769149 1.089099
v 1.064549 1.769148 1.994367
v 0.926533 1.769148 1.994367
v 1.077628 1.101393 1.994367
v 1.077628 1.027973 1.994367
v 1.069815 0.334433 1.994366
v 1.069815 0.131454 1.994366
v 1.051752 -0.000000 1.994366
v 1.051752 0.125926 1.994366
v 2.000000 0.125926 0.016329
v 2.000000 0.125926 1.475684
v 2.000000 0.125926 1.994366
v 2.000000 -0.000000 1.994366
v 2.000000 1.101394 -0.916804
v 2.000000 1.027973 -0.916804
v 2.000000 1.027973 -0.855682
v 2.000000 1.101394 -0.855682
v 2.000000 0.125926 -0.969423
v 2.000000 0.000000 -0.969423
v 2.000000 0.334434 -0.939866
v 2.000000 0.131455 -0.939867
v 2.000000 0.131455 -0.832621
v 2.000000 0.334434 -0.832620
v 2.000000 1.767132 -1.081780
v 2.000000 1.638305 -1.081780
v 2.000000 1.638305 -0.924332
v 2.000000 1.767132 -0.924332
v 2.000000 -0.000000 0.016329
v 2.000000 -0.000000 1.475684
v 2.973268 1.632900 0.995997
v 3.084615 1.632900 0.995997
v 3.084615 -11.407703 0.995988
v 2.973268 -11.407703 0.995988
v 2.973268 1.632900 1.104322
v 2.973268 -11.407703 1.104312
v 3.084615 -11.407703 1.104312
v 3.084615 1.632900 1.104322
v 3.999998 1.638305 0.924334
v 3.999998 1.767131 0.924334
v 3.999998 1.767131 1.081783
v 3.999998 1.638305 1.081783
v 4.000000 -0.000000 0.969422
v 4.000000 0.000000 -0.969423
v 4.000000 0.125926 -0.969423
v 4.000000 0.125926 0.969422
v 3.999998 1.638305 -0.924332
v 3.999998 1.638305 -1.081780
v 3.999998 1.767132 -1.081780
v 3.999998 1.767132 -0.924332
v 3.999998 1.027973 0.855684
v 3.999998 1.101394 0.855684
v 3.999998 1.101393 0.916806
v 3.999998 1.027973 0.916806
v 3.999998 1.027973 -0.855682
v 3.999998 1.027973 -0.916804
v 3.999998 1.101394 -0.916804
v 3.999998 1.101394 -0.855682
v 3.999998 0.131454 0.832621
v 3.999998 0.334433 0.832622
v 3.999998 0.334433 0.939868
v 3.999998 0.131454 0.939867
v 3.999998 0.131455 -0.832621
v 3.999998 0.131455 -0.939867
v 3.999998 0.334434 -0.939866
v 3.999998 0.334434 -0.832620
v 2.864639 0.131454 0.836751
v 2.864639 0.131454 1.994366
v 2.864639 0.334433 1.994366
v 2.864639 0.334433 0.836752
v 3.073467 1.638305 1.089099
v 3.073467 1.638304 1.994367
v 2.935451 1.638304 1.994367
v 2.935451 1.638305 0.924091
v 2.885017 1.027973 0.875548
v 2.885017 1.027973 1.994367
v 2.885017 1.101393 1.994367
v 2.885017 1.101393 0.875548
v 2.930185 0.131454 0.932369
v 2.930185 0.334433 0.932369
v 2.922372 1.101393 0.920048
v 2.922372 1.027973 0.920048
v 2.948248 0.125926 0.972543
v 2.948248 -0.000000 0.972543
v 2.935451 1.769149 0.924091
v 3.073467 1.769149 1.089099
v 3.073467 1.769148 1.994367
v 2.935451 1.769148 1.994367
v 2.922372 1.027973 1.994367
v 2.922372 1.101393 1.994367
v 2.930185 0.131454 1.994366
v 2.930185 0.334433 1.994366
v 2.948248 0.125926 1.994366
v 2.948248 -0.000000 1.994366
v 1.026732 1.632900 -1.091111
v 1.026732 -11.407703 -1.091121
v 0.915385 -11.407703 -1.091121
v 0.915385 1.632900 -1.091111
v 1.026732 1.632900 -0.982787
v 0.915385 1.632900 -0.982787
v 0.915385 -11.407703 -0.982797
v 1.026732 -11.407703 -0.982797
v 3.084673 1.632900 -1.091111
v 3.084673 -11.407703 -1.091121
v 2.973326 -11.407703 -1.091121
v 2.973326 1.632900 -1.091111
v 3.084673 1.632900 -0.982787
v 2.973326 1.632900 -0.982787
v 2.973326 -11.407703 -0.982797
v 3.084673 -11.407703 -0.982797
vt 0.835938 0.445312
vt 0.835938 0.445312
vt 0.835938 0.445312
vt 0.835938 0.445312
vt 0.835938 0.445312
vt 0.835938 0.445312
vt 0.835938 0.445312
vt 0.835938 0.445312
vt 0.835938 0.445312
vt 0.835938 0.445312
vt 0.835938 0.445312
vt 0.835938 0.445312
vt 0.835938 0.445312
vt 0.835938 0.445312
vt 0.835938 0.445312
vt 0.835938 0.445312
vt 0.835938 0.445312
vt 0.835938 0.445312
vt 0.835938 0.445312
vt 0.835938 0.445312
vt 0.835938 0.445312
vt 0.835938 0.445312
vt 0.835938 0.445312
vt 0.835938 0.445312
vt 0.835938 0.445312
vt 0.835938 0.445312
vt 0.835938 0.445312
vt 0.835938 0.445312
vt 0.835938 0.445312
vt 0.835938 0.445312
vt 0.835938 0.445312
vt 0.835938 0.445312
vt 0.835938 0.445312
vt 0.835938 0.445312
vt 0.835938 0.445312
vt 0.835938 0.445312
vt 0.835938 0.445312
vt 0.835938 0.445312
vt 0.835938 0.445312
vt 0.835938 0.445312
vt 0.835938 0.445312
vt 0.835938 0.445312
vt 0.835938 0.445312
vt 0.835938 0.445312
vt 0.835938 0.445312
vt 0.835938 0.445312
vt 0.835938 0.445312
vt 0.835938 0.445312
vt 0.835938 0.445312
vt 0.835938 0.476562
vt 0.835938 0.476562
vt 0.835938 0.476562
vt 0.835938 0.476562
vt 0.835938 0.445312
vt 0.835938 0.445312
vt 0.835938 0.445312
vt 0.835938 0.445312
vt 0.835938 0.476562
vt 0.835938 0.476562
vt 0.835938 0.476562
vt 0.835938 0.476562
vt 0.835938 0.445312
vt 0.835938 0.445312
vt 0.835938 0.476562
vt 0.835938 0.476562
vt 0.835938 0.476562
vt 0.835938 0.476562
vt 0.835938 0.445312
vt 0.835938 0.445312
vt 0.835938 0.445312
vt 0.835938 0.445312
vt 0.835938 0.445312
vt 0.835938 0.445312
vt 0.835938 0.445312
vt 0.835938 0.476562
vt 0.835938 0.476562
vt 0.835938 0.476562
vt 0.835938 0.476562
vt 0.835938 0.476562
vt 0.835938 0.476562
vt 0.835938 0.445312
vt 0.835938 0.445312
vt 0.835938 0.414062
vt 0.835938 0.414062
vt 0.835938 0.414062
vt 0.835938 0.414062
vt 0.835938 0.414062
vt 0.835938 0.445312
vt 0.835938 0.445312
vt 0.835938 0.445312
vt 0.835938 0.445312
vt 0.835938 0.445312
vt 0.835938 0.445312
vt 0.835938 0.476562
vt 0.835938 0.476562
vt 0.835938 0.476562
vt 0.835938 0.476562
vt 0.835938 0.414062
vt 0.835938 0.414062
vt 0.835938 0.414062
vt 0.835938 0.445312
vt 0.835938 0.445312
vt 0.835938 0.445312
vt 0.835938 0.445312
vt 0.835938 0.445312
vt 0.835938 0.445312
vt 0.835938 0.476562
vt 0.835938 0.476562
vt 0.835938 0.476562
vt 0.835938 0.476562
vt 0.835938 0.445312
vt 0.835938 0.445312
vt 0.835938 0.445312
vt 0.835938 0.445312
vt 0.835938 0.476562
vt 0.835938 0.476562
vt 0.835938 0.476562
vt 0.835938 0.476562
vt 0.835938 0.445312
vt 0.835938 0.445312
vt 0.835938 0.445312
vt 0.835938 0.445312
vt 0.835938 0.445312
vt 0.835938 0.445312
vt 0.835938 0.445312
vt 0.835938 0.445312
vt 0.835938 0.445312
vt 0.835938 0.445312
vt 0.835938 0.445312
vt 0.835938 0.445312
vt 0.835938 0.445312
vt 0.835938 0.445312
vt 0.835938 0.445312
vt 0.835938 0.445312
vt 0.835938 0.445312
vt 0.835938 0.445312
vt 0.835938 0.445312
vt 0.835938 0.445312
vt 0.835938 0.445312
vt 0.835938 0.445312
vt 0.835938 0.445312
vt 0.835938 0.445312
vt 0.835938 0.445312
vt 0.835938 0.445312
vt 0.835938 0.445312
vt 0.835938 0.445312
vt 0.835938 0.445312
vt 0.835938 0.445312
vt 0.835938 0.445312
vt 0.835938 0.445312
vt 0.835938 0.445312
vt 0.835938 0.445312
vt 0.835938 0.445312
vt 0.835938 0.445312
vt 0.835938 0.445312
vt 0.835938 0.445312
vt 0.835938 0.445312
vt 0.835938 0.445312
vt 0.835938 0.445312
vt 0.835938 0.445312
vt 0.835938 0.445312
vt 0.835938 0.445312
vt 0.835938 0.445312
vt 0.835938 0.445312
vt 0.835938 0.445312
vt 0.835938 0.445312
vt 0.835938 0.445312
vt 0.835938 0.445312
vt 0.835938 0.445312
vt 0.835938 0.476562
vt 0.835938 0.476562
vt 0.835938 0.476562
vt 0.835938 0.476562
vt 0.835938 0.445312
vt 0.835938 0.445312
vt 0.835938 0.445312
vt 0.835938 0.445312
vt 0.835938 0.476562
vt 0.835938 0.476562
vt 0.835938 0.476562
vt 0.835938 0.476562
vt 0.835938 0.445312
vt 0.835938 0.445312
vt 0.835938 0.476562
vt 0.835938 0.476562
vt 0.835938 0.476562
vt 0.835938 0.476562
vt 0.835938 0.445312
vt 0.835938 0.445312
vt 0.835938 0.445312
vt 0.835938 0.445312
vt 0.835938 0.445312
vt 0.835938 0.445312
vt 0.835938 0.445312
vt 0.835938 0.476562
vt 0.835938 0.476562
vt 0.835938 0.476562
vt 0.835938 0.476562
vt 0.835938 0.476562
vt 0.835938 0.476562
vt 0.835938 0.445312
vt 0.835938 0.445312
vt 0.835938 0.414062
vt 0.835938 0.414062
vt 0.835938 0.476562
vt 0.835938 0.476562
vt 0.835938 0.414062
vt 0.835938 0.414062
vt 0.835938 0.476562
vt 0.835938 0.476562
vt 0.835938 0.476562
vt 0.835938 0.476562
vt 0.835938 0.445312
vt 0.835938 0.445312
vt 0.835938 0.445312
vt 0.835938 0.445312
vt 0.835938 0.445312
vt 0.835938 0.445312
vt 0.835938 0.445312
vt 0.835938 0.445312
vt 0.835938 0.445312
vt 0.835938 0.445312
vt 0.835938 0.445312
vt 0.835938 0.445312
vt 0.835938 0.445312
vt 0.835938 0.445312
vt 0.835938 0.445312
vt 0.835938 0.445312
vn 0.0000 0.0000 -1.0000
vn 0.0000 -0.0000 1.0000
vn 1.0000 -0.0000 0.0000
vn -1.0000 0.0000 0.0000
vn -0.0000 -1.0000 -0.0000
vn 0.0000 1.0000 0.0000
vn 0.0178 0.0000 -0.9998
vn -0.0030 0.0000 1.0000
vn -0.1925 0.1896 0.9628
vn -0.2710 0.0000 0.9626
vn -0.0002 0.0000 -1.0000
vn -0.0079 0.0000 1.0000
vn -0.0020 1.0000 -0.0009
vn -0.0010 1.0000 -0.0004
vn -0.0011 1.0000 -0.0005
vn 0.0036 0.0000 -1.0000
vn 0.0070 -0.0000 1.0000
vn -0.9634 -0.2682 0.0000
vn -0.9634 0.1896 0.1896
vn -0.9609 0.1385 0.2398
vn -0.9609 -0.2122 -0.1780
vn 0.0953 0.9908 -0.0961
vn -0.0000 0.9634 0.2682
vn 0.0000 0.9899 0.1416
vn 0.1780 0.9609 -0.2122
vn -0.0000 0.9609 -0.2770
vn 0.1385 -0.2398 0.9609
vn -0.0000 -0.2769 0.9609
vn 0.0000 -0.0126 0.9999
vn 0.2122 -0.1780 0.9609
vn 0.0953 -0.9908 -0.0961
vn 0.1899 -0.9634 -0.1894
vn 0.1251 -0.9899 0.0663
vn -0.2398 -0.9609 -0.1385
vn 0.0000 -0.9999 -0.0126
vn -0.0178 0.0000 -0.9998
vn 0.0030 0.0000 1.0000
vn 0.2710 0.0000 0.9626
vn 0.1925 0.1896 0.9628
vn 0.0002 0.0000 -1.0000
vn 0.0079 0.0000 1.0000
vn 0.0020 1.0000 -0.0009
vn 0.0011 1.0000 -0.0005
vn 0.0010 1.0000 -0.0004
vn -0.0036 0.0000 -1.0000
vn -0.0070 -0.0000 1.0000
vn 0.9634 -0.2682 0.0000
vn 0.9609 -0.2122 -0.1780
vn 0.9609 0.1385 0.2398
vn 0.9634 0.1896 0.1896
vn -0.1780 0.9609 -0.2122
vn -0.1385 -0.2398 0.9609
vn -0.2122 -0.1780 0.9609
vn -0.1899 -0.9634 -0.1894
vn 0.2398 -0.9609 -0.1385
s 1
f 1/1/1 2/2/1 3/3/1 4/4/1
f 5/5/2 6/6/2 7/7/2 8/8/2
f 2/2/3 1/1/3 5/5/3 8/8/3
f 4/4/4 3/3/4 7/7/4 6/6/4
f 9/9/4 10/10/4 11/11/4 12/12/4
f 13/13/4 14/14/4 15/15/4 16/16/4
f 17/17/4 18/18/4 19/19/4 20/20/4
f 21/21/4 22/22/4 23/23/4 24/24/4
f 25/25/4 26/26/4 27/27/4 28/28/4
f 29/29/4 30/30/4 31/31/4 32/32/4
f 33/33/4 34/34/4 35/35/4 36/36/4
f 37/37/3 38/38/3 39/39/3 40/40/3
f 41/41/5 42/42/5 43/43/5 44/44/5
f 45/45/3 46/46/3 47/47/3 48/48/3
f 30/30/5 29/29/5 37/37/5 49/49/5
f 32/50/6 31/51/6 50/52/6 38/53/6
f 21/21/7 24/24/7 46/46/7 45/45/7
f 23/23/8 22/22/8 51/54/8 52/55/8
f 22/22/5 21/21/5 45/45/5 51/54/5
f 14/14/8 13/13/8 53/56/9 54/57/10
f 24/58/6 23/59/6 52/60/6 46/61/6
f 9/9/11 12/12/11 55/62/11 42/42/11
f 11/11/12 10/10/12 41/41/12 56/63/12
f 10/10/5 9/9/5 42/42/5 41/41/5
f 12/64/13 11/65/13 56/66/14 55/67/15
f 29/29/16 32/32/16 38/38/16 37/37/16
f 31/31/17 30/30/17 49/49/17 50/68/17
f 43/43/2 57/69/2 58/70/2 44/44/2
f 48/48/2 47/47/2 59/71/2 60/72/2
f 40/40/2 39/39/2 61/73/2 62/74/2
f 52/55/4 51/54/4 60/72/4 59/71/4
f 55/67/15 56/66/14 58/75/6 57/76/6
f 50/68/4 49/49/4 62/74/4 61/73/4
f 51/54/5 45/45/5 48/48/5 60/72/5
f 49/49/5 37/37/5 40/40/5 62/74/5
f 46/61/6 52/60/6 59/77/6 47/78/6
f 38/53/6 50/52/6 61/79/6 39/80/6
f 54/57/18 53/56/19 63/81/20 64/82/21
f 42/42/3 55/62/3 57/69/3 43/43/3
f 56/63/4 41/41/4 44/44/4 58/70/4
f 65/83/22 54/84/23 66/85/24
f 54/84/23 64/86/25 67/87/26 66/85/24
f 63/81/27 68/88/28 67/89/29 64/82/30
f 28/28/1 27/27/1 69/90/1 70/91/1
f 25/25/5 28/28/5 70/91/5 71/92/5
f 26/26/2 25/25/2 71/92/2 72/93/2
f 27/94/6 26/95/6 72/96/6 69/97/6
f 15/98/6 14/99/6 54/84/23 65/83/22 73/100/6
f 16/16/1 15/15/1 73/101/1 74/102/1
f 36/36/1 35/35/1 75/103/1 76/104/1
f 33/33/5 36/36/5 76/104/5 77/105/5
f 34/34/2 33/33/2 77/105/2 78/106/2
f 35/107/6 34/108/6 78/109/6 75/110/6
f 20/20/1 19/19/1 79/111/1 80/112/1
f 17/17/5 20/20/5 80/112/5 81/113/5
f 18/18/2 17/17/2 81/113/2 82/114/2
f 19/115/6 18/116/6 82/117/6 79/118/6
f 13/13/5 16/16/5 74/102/5 83/119/31 53/56/32
f 53/56/32 83/119/31 84/120/33
f 63/81/34 53/56/32 84/120/33 68/88/35
f 85/121/1 86/122/1 87/123/1 88/124/1
f 89/125/2 90/126/2 91/127/2 92/128/2
f 88/124/4 90/126/4 89/125/4 85/121/4
f 86/122/3 92/128/3 91/127/3 87/123/3
f 93/129/3 94/130/3 95/131/3 96/132/3
f 97/133/3 98/134/3 99/135/3 100/136/3
f 101/137/3 102/138/3 103/139/3 104/140/3
f 105/141/3 106/142/3 107/143/3 108/144/3
f 109/145/3 110/146/3 111/147/3 112/148/3
f 113/149/3 114/150/3 115/151/3 116/152/3
f 117/153/3 118/154/3 119/155/3 120/156/3
f 121/157/4 122/158/4 123/159/4 124/160/4
f 125/161/5 126/162/5 127/163/5 128/164/5
f 129/165/4 130/166/4 131/167/4 132/168/4
f 116/152/5 133/169/5 121/157/5 113/149/5
f 114/170/6 124/171/6 134/172/6 115/173/6
f 105/141/36 129/165/36 132/168/36 106/142/36
f 107/143/37 135/174/37 136/175/37 108/144/37
f 108/144/5 136/175/5 129/165/5 105/141/5
f 100/136/37 137/176/38 138/177/39 97/133/37
f 106/178/6 132/179/6 135/180/6 107/181/6
f 93/129/40 128/164/40 139/182/40 94/130/40
f 95/131/41 140/183/41 125/161/41 96/132/41
f 96/132/5 125/161/5 128/164/5 93/129/5
f 94/184/42 139/185/43 140/186/44 95/187/42
f 113/149/45 121/157/45 124/160/45 114/150/45
f 115/151/46 134/188/46 133/169/46 116/152/46
f 127/163/2 126/162/2 141/189/2 142/190/2
f 130/166/2 143/191/2 144/192/2 131/167/2
f 122/158/2 145/193/2 146/194/2 123/159/2
f 135/174/3 144/192/3 143/191/3 136/175/3
f 139/185/43 142/195/6 141/196/6 140/186/44
f 134/188/3 146/194/3 145/193/3 133/169/3
f 136/175/5 143/191/5 130/166/5 129/165/5
f 133/169/5 145/193/5 122/158/5 121/157/5
f 132/179/6 131/197/6 144/198/6 135/180/6
f 124/171/6 123/199/6 146/200/6 134/172/6
f 137/176/47 147/201/48 148/202/49 138/177/50
f 128/164/4 127/163/4 142/190/4 139/182/4
f 140/183/3 141/189/3 126/162/3 125/161/3
f 65/83/22 66/85/24 137/203/23
f 137/203/23 66/85/24 67/87/26 147/204/51
f 148/202/52 147/201/53 67/89/29 68/88/28
f 110/146/1 70/91/1 69/90/1 111/147/1
f 109/145/5 71/92/5 70/91/5 110/146/5
f 112/148/2 72/93/2 71/92/2 109/145/2
f 111/205/6 69/97/6 72/96/6 112/206/6
f 99/207/6 73/100/6 65/83/22 137/203/23 100/208/6
f 98/134/1 74/102/1 73/101/1 99/135/1
f 118/154/1 76/104/1 75/103/1 119/155/1
f 117/153/5 77/105/5 76/104/5 118/154/5
f 120/156/2 78/106/2 77/105/2 117/153/2
f 119/209/6 75/110/6 78/109/6 120/210/6
f 102/138/1 80/112/1 79/111/1 103/139/1
f 101/137/5 81/113/5 80/112/5 102/138/5
f 104/140/2 82/114/2 81/113/2 101/137/2
f 103/211/6 79/118/6 82/117/6 104/212/6
f 97/133/5 138/177/54 83/119/31 74/102/5 98/134/5
f 138/177/54 84/120/33 83/119/31
f 148/202/55 68/88/35 84/120/33 138/177/54
f 149/213/1 150/214/1 151/215/1 152/216/1
f 153/217/2 154/218/2 155/219/2 156/220/2
f 150/214/3 149/213/3 153/217/3 156/220/3
f 152/216/4 151/215/4 155/219/4 154/218/4
f 157/221/1 158/222/1 159/223/1 160/224/1
f 161/225/2 162/226/2 163/227/2 164/228/2
f 158/222/3 157/221/3 161/225/3 164/228/3
f 160/224/4 159/223/4 163/227/4 162/226/4
