# Blender v2.91.0 Beta OBJ File: 'decos.blend'
# www.blender.org
o IndustrialCatWalk_PipeStraightTillable_Cube.023
v 0.000000 0.125926 0.969423
v 0.000000 0.125925 -0.969422
v -3.999997 0.125925 -0.969421
v -3.999997 0.125926 0.969424
v 0.000000 -0.000001 -0.969422
v -3.999997 -0.000001 -0.969421
v 0.000000 -0.000000 0.969423
v -3.999997 -0.000000 0.969424
v -0.971364 1.632899 -0.948895
v -0.971364 -10.000000 -0.948892
v -0.819674 -10.000000 -0.948892
v -0.819674 1.632899 -0.948895
v -3.479367 1.632899 -0.948895
v -3.479367 -10.000000 -0.948897
v -3.327678 -10.000000 -0.948897
v -3.327678 1.632899 -0.948895
v -0.971364 1.632899 -1.057220
v -0.819674 1.632899 -1.057220
v -0.819674 -10.000000 -1.057216
v -0.971364 -10.000000 -1.057216
v -3.479367 1.632899 -1.057220
v -3.327678 1.632899 -1.057220
v -3.327678 -10.000000 -1.057221
v -3.479367 -10.000000 -1.057221
v -4.000000 1.638304 -0.924332
v 0.000000 1.638304 -0.924333
v 0.000000 1.767130 -0.924333
v -4.000000 1.767130 -0.924332
v -4.000000 1.638304 -1.081781
v -4.000000 1.767130 -1.081781
v 0.000000 1.767130 -1.081782
v 0.000000 1.638304 -1.081782
v -0.971364 1.632900 0.948895
v -0.819674 1.632900 0.948895
v -0.819674 -9.999999 0.948899
v -0.971364 -9.999999 0.948899
v -3.479367 1.632900 0.948895
v -3.327678 1.632900 0.948895
v -3.327678 -9.999999 0.948893
v -3.479367 -9.999999 0.948893
v -0.971364 1.632900 1.057219
v -0.971364 -10.000000 1.057223
v -0.819674 -10.000000 1.057223
v -0.819674 1.632900 1.057219
v -3.327678 1.632900 1.057219
v -3.327678 -9.999999 1.057217
v -4.000000 1.638305 0.924334
v -4.000000 1.767132 0.924334
v 0.000000 1.767132 0.924333
v 0.000000 1.638305 0.924333
v -3.479367 -9.999999 1.057217
v -3.479367 1.632900 1.057219
v -4.000000 1.638305 1.081782
v 0.000000 1.638305 1.081781
v 0.000000 1.767132 1.081781
v -4.000000 1.767132 1.081782
v -4.000000 1.027972 -0.855682
v 0.000000 1.027972 -0.855683
v 0.000000 1.101393 -0.855683
v -4.000000 1.101393 -0.855682
v -4.000000 1.027972 -0.916804
v -4.000000 1.101392 -0.916804
v 0.000000 1.101392 -0.916805
v 0.000000 1.027972 -0.916805
v -4.000000 1.027973 0.855684
v -4.000000 1.101394 0.855684
v 0.000000 1.101394 0.855683
v 0.000000 1.027973 0.855683
v 0.000000 1.101394 0.916805
v 0.000000 1.027973 0.916805
v -4.000000 1.027973 0.916806
v -4.000000 1.101394 0.916806
v -4.000000 0.131453 -0.832620
v 0.000000 0.131453 -0.832621
v 0.000000 0.334432 -0.832621
v -4.000000 0.334432 -0.832620
v -4.000000 0.131453 -0.939866
v -4.000000 0.334432 -0.939866
v 0.000000 0.334432 -0.939867
v 0.000000 0.131453 -0.939867
v -4.000000 0.131455 0.832622
v -4.000000 0.334434 0.832622
v 0.000000 0.334434 0.832621
v 0.000000 0.131455 0.832621
v 0.000000 0.334434 0.939867
v 0.000000 0.131455 0.939867
v -4.000000 0.131455 0.939868
v -4.000000 0.334434 0.939868
v -4.000000 0.125926 0.969424
v -4.000000 -0.000000 0.969424
v -4.000000 -0.000001 -0.969421
v -4.000000 0.125925 -0.969421
v -4.000000 1.767130 -0.924332
v -4.000000 1.638304 -0.924332
v -4.000000 1.638304 -1.081781
v -4.000000 1.767130 -1.081781
v -4.000000 1.767132 0.924334
v -4.000000 1.767132 1.081782
v -4.000000 1.638305 1.081782
v -4.000000 1.638305 0.924334
v -4.000000 1.101393 -0.855682
v -4.000000 1.027972 -0.855682
v -4.000000 1.027972 -0.916804
v -4.000000 1.101392 -0.916804
v -4.000000 1.101394 0.855684
v -4.000000 1.101394 0.916806
v -4.000000 1.027973 0.916806
v -4.000000 1.027973 0.855684
v -4.000000 0.334432 -0.832620
v -4.000000 0.131453 -0.832620
v -4.000000 0.131453 -0.939866
v -4.000000 0.334432 -0.939866
v -4.000000 0.334434 0.832622
v -4.000000 0.334434 0.939868
v -4.000000 0.131455 0.939868
v -4.000000 0.131455 0.832622
vt 0.835938 0.414062
vt 0.835938 0.414062
vt 0.835938 0.414062
vt 0.835938 0.414062
vt 0.835938 0.445312
vt 0.835938 0.445312
vt 0.835938 0.445312
vt 0.835938 0.445312
vt 0.835938 0.445312
vt 0.835938 0.445312
vt 0.835938 0.445312
vt 0.835938 0.445312
vt 0.835938 0.445312
vt 0.835938 0.445312
vt 0.835938 0.445312
vt 0.835938 0.445312
vt 0.835938 0.445312
vt 0.835938 0.445312
vt 0.835938 0.445312
vt 0.835938 0.445312
vt 0.835938 0.445312
vt 0.835938 0.445312
vt 0.835938 0.445312
vt 0.835938 0.445312
vt 0.835938 0.445312
vt 0.835938 0.445312
vt 0.835938 0.445312
vt 0.835938 0.445312
vt 0.835938 0.445312
vt 0.835938 0.445312
vt 0.835938 0.445312
vt 0.835938 0.445312
vt 0.835938 0.445312
vt 0.835938 0.445312
vt 0.835938 0.445312
vt 0.835938 0.445312
vt 0.835938 0.476562
vt 0.835938 0.476562
vt 0.835938 0.476562
vt 0.835938 0.476562
vt 0.835938 0.445312
vt 0.835938 0.445312
vt 0.835938 0.445312
vt 0.835938 0.445312
vt 0.835938 0.445312
vt 0.835938 0.445312
vt 0.835938 0.445312
vt 0.835938 0.445312
vt 0.835938 0.445312
vt 0.835938 0.445312
vt 0.835938 0.445312
vt 0.835938 0.445312
vt 0.835938 0.445312
vt 0.835938 0.445312
vt 0.835938 0.445312
vt 0.835938 0.445312
vt 0.835938 0.445312
vt 0.835938 0.445312
vt 0.835938 0.445312
vt 0.835938 0.445312
vt 0.835938 0.445312
vt 0.835938 0.445312
vt 0.835938 0.445312
vt 0.835938 0.445312
vt 0.835938 0.476562
vt 0.835938 0.476562
vt 0.835938 0.476562
vt 0.835938 0.476562
vt 0.835938 0.445312
vt 0.835938 0.445312
vt 0.835938 0.445312
vt 0.835938 0.445312
vt 0.835938 0.445312
vt 0.835938 0.445312
vt 0.835938 0.445312
vt 0.835938 0.445312
vt 0.835938 0.476562
vt 0.835938 0.476562
vt 0.835938 0.476562
vt 0.835938 0.476562
vt 0.835938 0.445312
vt 0.835938 0.445312
vt 0.835938 0.445312
vt 0.835938 0.445312
vt 0.835938 0.445312
vt 0.835938 0.445312
vt 0.835938 0.445312
vt 0.835938 0.445312
vt 0.835938 0.476562
vt 0.835938 0.476562
vt 0.835938 0.476562
vt 0.835938 0.476562
vt 0.835938 0.445312
vt 0.835938 0.445312
vt 0.835938 0.445312
vt 0.835938 0.445312
vt 0.835938 0.445312
vt 0.835938 0.445312
vt 0.835938 0.445312
vt 0.835938 0.445312
vt 0.835938 0.476562
vt 0.835938 0.476562
vt 0.835938 0.476562
vt 0.835938 0.476562
vt 0.835938 0.445312
vt 0.835938 0.445312
vt 0.835938 0.445312
vt 0.835938 0.445312
vt 0.835938 0.445312
vt 0.835938 0.445312
vt 0.835938 0.445312
vt 0.835938 0.445312
vt 0.835938 0.476562
vt 0.835938 0.476562
vt 0.835938 0.476562
vt 0.835938 0.476562
vt 0.835938 0.445312
vt 0.835938 0.445312
vt 0.835938 0.445312
vt 0.835938 0.445312
vt 0.835938 0.445312
vt 0.835938 0.445312
vt 0.835938 0.445312
vt 0.835938 0.445312
vt 0.835938 0.445312
vt 0.835938 0.445312
vt 0.835938 0.445312
vt 0.835938 0.445312
vt 0.835938 0.445312
vt 0.835938 0.445312
vt 0.835938 0.445312
vt 0.835938 0.445312
vt 0.835938 0.445312
vt 0.835938 0.445312
vt 0.835938 0.445312
vt 0.835938 0.445312
vt 0.835938 0.445312
vt 0.835938 0.445312
vt 0.835938 0.445312
vt 0.835938 0.445312
vt 0.835938 0.445312
vt 0.835938 0.445312
vt 0.835938 0.445312
vt 0.835938 0.445312
vn -0.0000 1.0000 -0.0000
vn -0.0000 0.0000 -1.0000
vn 1.0000 0.0000 0.0000
vn 0.0000 0.0000 1.0000
vn -1.0000 -0.0000 0.0000
vn 0.0000 -1.0000 0.0000
s 1
f 1/1/1 2/2/1 3/3/1 4/4/1
f 3/5/2 2/6/2 5/7/2 6/8/2
f 1/9/3 7/10/3 5/7/3 2/6/3
f 4/11/4 8/12/4 7/10/4 1/9/4
f 9/13/4 10/14/4 11/15/4 12/16/4
f 13/17/4 14/18/4 15/19/4 16/20/4
f 17/21/2 18/22/2 19/23/2 20/24/2
f 21/25/2 22/26/2 23/27/2 24/28/2
f 16/20/3 15/19/3 23/27/3 22/26/3
f 10/14/5 9/13/5 17/21/5 20/24/5
f 12/16/3 11/15/3 19/23/3 18/22/3
f 14/18/5 13/17/5 21/25/5 24/28/5
f 25/29/4 26/30/4 27/31/4 28/32/4
f 29/33/2 30/34/2 31/35/2 32/36/2
f 25/29/5 28/32/5 30/34/5 29/33/5
f 26/30/6 25/29/6 29/33/6 32/36/6
f 27/31/3 26/30/3 32/36/3 31/35/3
f 28/37/1 27/38/1 31/39/1 30/40/1
f 33/41/2 34/42/2 35/43/2 36/44/2
f 6/8/5 8/12/5 4/11/5 3/5/5
f 37/45/2 38/46/2 39/47/2 40/48/2
f 41/49/4 42/50/4 43/51/4 44/52/4
f 38/46/3 45/53/3 46/54/3 39/47/3
f 47/55/2 48/56/2 49/57/2 50/58/2
f 40/48/5 51/59/5 52/60/5 37/45/5
f 52/60/4 51/59/4 46/54/4 45/53/4
f 53/61/4 54/62/4 55/63/4 56/64/4
f 34/42/3 44/52/3 43/51/3 35/43/3
f 36/44/5 42/50/5 41/49/5 33/41/5
f 47/55/5 53/61/5 56/64/5 48/56/5
f 50/58/6 54/62/6 53/61/6 47/55/6
f 49/57/3 55/63/3 54/62/3 50/58/3
f 48/65/1 56/66/1 55/67/1 49/68/1
f 57/69/4 58/70/4 59/71/4 60/72/4
f 61/73/2 62/74/2 63/75/2 64/76/2
f 57/69/5 60/72/5 62/74/5 61/73/5
f 58/70/6 57/69/6 61/73/6 64/76/6
f 59/71/3 58/70/3 64/76/3 63/75/3
f 60/77/1 59/78/1 63/79/1 62/80/1
f 65/81/2 66/82/2 67/83/2 68/84/2
f 67/83/3 69/85/3 70/86/3 68/84/3
f 71/87/4 70/86/4 69/85/4 72/88/4
f 65/81/5 71/87/5 72/88/5 66/82/5
f 66/89/1 72/90/1 69/91/1 67/92/1
f 68/84/6 70/86/6 71/87/6 65/81/6
f 5/7/6 7/10/6 8/12/6 6/8/6
f 73/93/4 74/94/4 75/95/4 76/96/4
f 77/97/2 78/98/2 79/99/2 80/100/2
f 73/93/5 76/96/5 78/98/5 77/97/5
f 74/94/6 73/93/6 77/97/6 80/100/6
f 75/95/3 74/94/3 80/100/3 79/99/3
f 76/101/1 75/102/1 79/103/1 78/104/1
f 81/105/2 82/106/2 83/107/2 84/108/2
f 83/107/3 85/109/3 86/110/3 84/108/3
f 87/111/4 86/110/4 85/109/4 88/112/4
f 81/105/5 87/111/5 88/112/5 82/106/5
f 82/113/1 88/114/1 85/115/1 83/116/1
f 84/108/6 86/110/6 87/111/6 81/105/6
f 89/117/3 90/118/3 91/119/3 92/120/3
f 93/121/3 94/122/3 95/123/3 96/124/3
f 97/125/3 98/126/3 99/127/3 100/128/3
f 101/129/3 102/130/3 103/131/3 104/132/3
f 105/133/3 106/134/3 107/135/3 108/136/3
f 109/137/3 110/138/3 111/139/3 112/140/3
f 113/141/3 114/142/3 115/143/3 116/144/3
