# Blender v2.91.0 Beta OBJ File: 'decos.blend'
# www.blender.org
o IndustrialCatWalk_PipeStraightTillable_Cube.001_IndustrialC.022
v 1.026732 1.632900 0.995997
v 1.026732 -11.407703 0.995988
v 0.915385 -11.407703 0.995988
v 0.915385 1.632900 0.995997
v 1.026732 1.632900 1.104322
v 0.915385 1.632900 1.104322
v 0.915385 -11.407703 1.104312
v 1.026732 -11.407703 1.104312
v 2.981683 1.632900 -0.875442
v 2.870335 1.632900 -0.875442
v 2.870335 -11.407703 -0.875451
v 2.981683 -11.407703 -0.875451
v 2.981683 1.632900 -0.983766
v 2.981683 -11.407703 -0.983775
v 2.870335 -11.407703 -0.983775
v 2.870335 1.632900 -0.983766
v 0.000002 1.638305 0.924334
v 0.000002 1.638305 1.081783
v 0.000002 1.767131 1.081783
v 0.000002 1.767131 0.924334
v 0.000000 -0.000000 0.969422
v 0.000000 0.125926 0.969422
v 0.000000 0.125926 -0.969423
v 0.000000 0.000000 -0.969423
v 0.000002 1.638305 -0.924332
v 0.000002 1.767132 -0.924332
v 0.000002 1.767132 -1.081780
v 0.000002 1.638305 -1.081780
v 0.000002 1.027973 0.855684
v 0.000002 1.027973 0.916806
v 0.000002 1.101393 0.916806
v 0.000002 1.101394 0.855684
v 0.000002 1.027973 -0.855682
v 0.000002 1.101394 -0.855682
v 0.000002 1.101394 -0.916804
v 0.000002 1.027973 -0.916804
v 0.000002 0.131454 0.832621
v 0.000002 0.131454 0.939867
v 0.000002 0.334433 0.939868
v 0.000002 0.334433 0.832622
v 0.000002 0.131455 -0.832621
v 0.000002 0.334434 -0.832620
v 0.000002 0.334434 -0.939866
v 0.000002 0.131455 -0.939867
v 1.135361 0.131454 0.836751
v 1.135361 0.334433 0.836752
v 1.135361 0.334433 1.994366
v 1.135361 0.131454 1.994366
v 1.051752 -0.000000 0.972543
v 2.977539 0.000000 -0.969423
v 2.977539 -0.000000 1.994366
v 2.822230 0.131455 -0.939867
v 2.822230 0.334434 -0.939866
v 2.939360 0.334434 -0.819820
v 2.939360 0.131455 -0.819821
v 0.926533 1.638305 1.089099
v 1.064549 1.638305 0.924091
v 1.064549 1.638304 1.994367
v 0.926533 1.638304 1.994367
v 2.818830 1.027973 -0.855682
v 2.818830 1.027973 -0.916804
v 2.932061 1.027973 -0.803512
v 2.884512 1.027973 -0.760293
v 1.114983 1.027973 0.875548
v 1.114983 1.101393 0.875548
v 1.114983 1.101393 1.994367
v 1.114983 1.027973 1.994367
v 2.867600 1.767132 -1.081780
v 2.867600 1.767132 -0.924332
v 2.938568 1.767132 -0.808835
v 3.071462 1.767132 -0.920168
v 2.867600 1.638305 -0.924332
v 1.069815 0.131454 0.932369
v 2.867600 1.638305 -1.081780
v 1.069815 0.334433 0.932369
v 2.822230 0.131455 -0.832621
v 2.822230 0.334434 -0.832620
v 1.077628 1.027973 0.920048
v 1.077628 1.101393 0.920048
v 1.051752 0.125926 0.972543
v 2.977539 0.125926 -0.969423
v 2.818830 1.101394 -0.855682
v 1.064549 1.769149 0.924091
v 2.818830 1.101394 -0.916804
v 0.926533 1.769149 1.089099
v 1.064549 1.769148 1.994367
v 0.926533 1.769148 1.994367
v 1.077628 1.101393 1.994367
v 1.077628 1.027973 1.994367
v 1.069815 0.334433 1.994366
v 1.069815 0.131454 1.994366
v 1.051752 -0.000000 1.994366
v 1.051752 0.125926 1.994366
v 2.859300 0.131455 -0.743986
v 2.939360 0.131454 1.994366
v 2.859300 0.131454 1.994366
v 2.938568 1.767131 1.994367
v 3.071462 1.767131 1.994367
v 2.932061 1.027973 1.994367
v 2.884512 1.027973 1.994367
v 2.938568 1.638305 -0.808835
v 2.884512 1.101394 -0.760293
v 2.932061 1.101394 -0.803512
v 3.071462 1.638305 -0.920168
v 2.859300 0.334434 -0.743985
v 2.938568 1.638304 1.994367
v 3.071462 1.638304 1.994367
v 2.932061 1.101393 1.994367
v 2.884512 1.101393 1.994367
v 2.939360 0.334433 1.994366
v 2.859300 0.334433 1.994366
v 2.977539 0.125926 1.994366
vt 0.835938 0.445312
vt 0.835938 0.445312
vt 0.835938 0.445312
vt 0.835938 0.445312
vt 0.835938 0.445312
vt 0.835938 0.445312
vt 0.835938 0.445312
vt 0.835938 0.445312
vt 0.835938 0.445312
vt 0.835938 0.445312
vt 0.835938 0.445312
vt 0.835938 0.445312
vt 0.835938 0.445312
vt 0.835938 0.445312
vt 0.835938 0.445312
vt 0.835938 0.445312
vt 0.835938 0.445312
vt 0.835938 0.445312
vt 0.835938 0.445312
vt 0.835938 0.445312
vt 0.835938 0.445312
vt 0.835938 0.445312
vt 0.835938 0.445312
vt 0.835938 0.445312
vt 0.835938 0.445312
vt 0.835938 0.445312
vt 0.835938 0.445312
vt 0.835938 0.445312
vt 0.835938 0.445312
vt 0.835938 0.445312
vt 0.835938 0.445312
vt 0.835938 0.445312
vt 0.835938 0.445312
vt 0.835938 0.445312
vt 0.835938 0.445312
vt 0.835938 0.445312
vt 0.835938 0.445312
vt 0.835938 0.445312
vt 0.835938 0.445312
vt 0.835938 0.445312
vt 0.835938 0.445312
vt 0.835938 0.445312
vt 0.835938 0.445312
vt 0.835938 0.445312
vt 0.835938 0.445312
vt 0.835938 0.445312
vt 0.835938 0.445312
vt 0.835938 0.445312
vt 0.835938 0.445312
vt 0.835938 0.445312
vt 0.835938 0.445312
vt 0.835938 0.445312
vt 0.835938 0.445312
vt 0.835938 0.445312
vt 0.835938 0.445312
vt 0.835938 0.445312
vt 0.835938 0.445312
vt 0.835938 0.445312
vt 0.835938 0.445312
vt 0.835938 0.445312
vt 0.835938 0.445312
vt 0.835938 0.445312
vt 0.835938 0.445312
vt 0.835938 0.445312
vt 0.835938 0.445312
vt 0.835938 0.445312
vt 0.835938 0.445312
vt 0.835938 0.476562
vt 0.835938 0.476562
vt 0.835938 0.476562
vt 0.835938 0.476562
vt 0.835938 0.445312
vt 0.835938 0.445312
vt 0.835938 0.445312
vt 0.835938 0.445312
vt 0.835938 0.445312
vt 0.835938 0.476562
vt 0.835938 0.476562
vt 0.835938 0.476562
vt 0.835938 0.476562
vt 0.835938 0.445312
vt 0.835938 0.445312
vt 0.835938 0.476562
vt 0.835938 0.476562
vt 0.835938 0.445312
vt 0.835938 0.445312
vt 0.835938 0.414062
vt 0.835938 0.414062
vt 0.835938 0.414062
vt 0.835938 0.414062
vt 0.835938 0.476562
vt 0.835938 0.476562
vt 0.835938 0.476562
vt 0.835938 0.476562
vt 0.835938 0.445312
vt 0.835938 0.476562
vt 0.835938 0.476562
vt 0.835938 0.476562
vt 0.835938 0.476562
vt 0.835938 0.445312
vt 0.835938 0.445312
vt 0.835938 0.445312
vt 0.835938 0.445312
vt 0.835938 0.445312
vt 0.835938 0.476562
vt 0.835938 0.476562
vt 0.835938 0.476562
vt 0.835938 0.476562
vt 0.835938 0.476562
vt 0.835938 0.476562
vt 0.835938 0.476562
vt 0.835938 0.476562
vt 0.835938 0.445312
vt 0.835938 0.445312
vt 0.835938 0.445312
vt 0.835938 0.445312
vt 0.835938 0.445312
vt 0.835938 0.445312
vt 0.835938 0.445312
vt 0.835938 0.476562
vt 0.835938 0.476562
vt 0.835938 0.476562
vt 0.835938 0.476562
vt 0.835938 0.476562
vt 0.835938 0.476562
vt 0.835938 0.445312
vt 0.835938 0.445312
vt 0.835938 0.445312
vt 0.835938 0.445312
vt 0.835938 0.445312
vt 0.835938 0.476562
vt 0.835938 0.476562
vt 0.835938 0.445312
vt 0.835938 0.445312
vt 0.835938 0.445312
vt 0.835938 0.445312
vt 0.835938 0.476562
vt 0.835938 0.476562
vt 0.835938 0.445312
vt 0.835938 0.445312
vt 0.835938 0.445312
vt 0.835938 0.476562
vt 0.835938 0.476562
vt 0.835938 0.445312
vt 0.835938 0.445312
vt 0.835938 0.445312
vt 0.835938 0.445312
vt 0.835938 0.445312
vt 0.835938 0.445312
vt 0.835938 0.445312
vt 0.835938 0.445312
vt 0.835938 0.445312
vt 0.835938 0.445312
vt 0.835938 0.476562
vt 0.835938 0.476562
vt 0.835938 0.476562
vt 0.835938 0.476562
vt 0.835938 0.445312
vt 0.835938 0.414062
vt 0.835938 0.414062
vn 0.0000 0.0000 -1.0000
vn 0.0000 -0.0000 1.0000
vn 1.0000 -0.0000 0.0000
vn -1.0000 0.0000 0.0000
vn 0.1899 -0.9634 -0.1894
vn 0.0000 -1.0000 -0.0000
vn 0.0000 -0.9999 -0.0126
vn 0.7157 0.0000 -0.6984
vn 0.0000 1.0000 -0.0000
vn 0.0178 0.0000 -0.9998
vn -0.0030 0.0000 1.0000
vn -0.0000 0.9634 0.2682
vn -0.1925 0.1896 0.9628
vn -0.2710 0.0000 0.9626
vn -0.0002 0.0000 -1.0000
vn -0.0079 0.0000 1.0000
vn -0.0020 1.0000 -0.0009
vn -0.0010 1.0000 -0.0004
vn -0.0011 1.0000 -0.0005
vn 0.0036 0.0000 -1.0000
vn 0.0070 -0.0000 1.0000
vn -0.9634 -0.2682 0.0000
vn -0.9634 0.1896 0.1896
vn -0.9609 0.1385 0.2398
vn -0.9609 -0.2122 -0.1780
vn -0.8520 0.0000 0.5235
vn 0.6212 0.0000 -0.7836
vn -0.8236 0.0000 0.5671
vn 0.7073 0.0000 -0.7069
vn -0.9226 -0.0000 0.3858
vn 0.1385 -0.2398 0.9609
vn -0.0126 -0.0000 0.9999
vn 0.2122 -0.1780 0.9609
vn 0.9999 -0.0126 0.0000
vn 0.9999 0.0126 -0.0000
vn 0.1780 0.9609 -0.2122
vn -0.0000 0.9999 -0.0126
vn -0.2398 -0.9609 -0.1385
s 1
f 1/1/1 2/2/1 3/3/1 4/4/1
f 5/5/2 6/6/2 7/7/2 8/8/2
f 2/2/3 1/1/3 5/5/3 8/8/3
f 4/4/4 3/3/4 7/7/4 6/6/4
f 9/9/2 10/10/2 11/11/2 12/12/2
f 13/13/1 14/14/1 15/15/1 16/16/1
f 10/10/4 16/16/4 15/15/4 11/11/4
f 12/12/3 14/14/3 13/13/3 9/9/3
f 17/17/4 18/18/4 19/19/4 20/20/4
f 21/21/4 22/22/4 23/23/4 24/24/4
f 25/25/4 26/26/4 27/27/4 28/28/4
f 29/29/4 30/30/4 31/31/4 32/32/4
f 33/33/4 34/34/4 35/35/4 36/36/4
f 37/37/4 38/38/4 39/39/4 40/40/4
f 41/41/4 42/42/4 43/43/4 44/44/4
f 45/45/3 46/46/3 47/47/3 48/48/3
f 49/49/5 50/50/6 51/51/7
f 52/52/8 53/53/8 54/54/8 55/55/8
f 56/56/6 57/57/6 58/58/6 59/59/6
f 60/60/6 61/61/6 62/62/6 63/63/6
f 64/64/3 65/65/3 66/66/3 67/67/3
f 68/68/9 69/69/9 70/70/9 71/71/9
f 26/26/2 25/25/2 72/72/2 69/73/2
f 38/38/6 37/37/6 45/45/6 73/74/6
f 28/28/1 27/27/1 68/75/1 74/76/1
f 40/77/9 39/78/9 75/79/9 46/80/9
f 25/25/6 28/28/6 74/76/6 72/72/6
f 42/42/2 41/41/2 76/81/2 77/82/2
f 27/83/9 26/84/9 69/69/9 68/68/9
f 44/44/1 43/43/1 53/53/1 52/52/1
f 29/29/10 32/32/10 65/65/10 64/64/10
f 41/41/6 44/44/6 52/52/6 76/81/6
f 31/31/11 30/30/11 78/85/11 79/86/11
f 23/87/9 22/88/9 80/89/12 81/90/9
f 43/91/9 42/92/9 77/93/9 53/94/9
f 30/30/6 29/29/6 64/64/6 78/85/6
f 22/22/11 21/21/11 49/49/13 80/95/14
f 32/96/9 31/97/9 79/98/9 65/99/9
f 24/24/1 23/23/1 81/100/1 50/50/1
f 34/34/2 33/33/2 60/60/2 82/101/2
f 17/17/15 20/20/15 83/102/15 57/57/15
f 36/36/1 35/35/1 84/103/1 61/61/1
f 19/19/16 18/18/16 56/56/16 85/104/16
f 33/33/6 36/36/6 61/61/6 60/60/6
f 18/18/6 17/17/6 57/57/6 56/56/6
f 35/105/9 34/106/9 82/107/9 84/108/9
f 20/109/17 19/110/17 85/111/18 83/112/19
f 37/37/20 40/40/20 46/46/20 45/45/20
f 21/21/6 24/24/6 50/50/6 49/49/5
f 39/39/21 38/38/21 73/74/21 75/113/21
f 58/58/2 86/114/2 87/115/2 59/59/2
f 67/67/2 66/66/2 88/116/2 89/117/2
f 48/48/2 47/47/2 90/118/2 91/119/2
f 79/86/4 78/85/4 89/117/4 88/116/4
f 83/112/19 85/111/18 87/120/9 86/121/9
f 75/113/4 73/74/4 91/119/4 90/118/4
f 78/85/6 64/64/6 67/67/6 89/117/6
f 73/74/6 45/45/6 48/48/6 91/119/6
f 65/99/9 79/98/9 88/122/9 66/123/9
f 46/80/9 75/79/9 90/124/9 47/125/9
f 80/95/22 49/49/23 92/126/24 93/127/25
f 57/57/3 83/102/3 86/114/3 58/58/3
f 85/104/4 56/56/4 59/59/4 87/115/4
f 94/128/6 55/55/6 95/129/6 96/130/6
f 71/71/9 70/70/9 97/131/9 98/132/9
f 63/63/6 62/62/6 99/133/6 100/134/6
f 69/73/26 72/72/26 101/135/26 70/136/26
f 84/108/9 82/107/9 102/137/9 103/138/9
f 76/81/6 52/52/6 55/55/6 94/128/6
f 74/76/27 68/75/27 71/139/27 104/140/27
f 82/101/28 60/60/28 63/63/28 102/141/28
f 53/94/9 77/93/9 105/142/9 54/143/9
f 72/72/6 74/76/6 104/140/6 101/135/6
f 61/61/29 84/103/29 103/144/29 62/62/29
f 77/82/30 76/81/30 94/128/30 105/145/30
f 106/146/2 107/147/2 98/148/2 97/149/2
f 100/134/2 99/133/2 108/150/2 109/151/2
f 96/130/2 95/129/2 110/152/2 111/153/2
f 70/136/4 101/135/4 106/146/4 97/149/4
f 103/138/9 102/137/9 109/154/9 108/155/9
f 102/141/4 63/63/4 100/134/4 109/151/4
f 54/143/9 105/142/9 111/156/9 110/157/9
f 104/140/3 71/139/3 98/148/3 107/147/3
f 105/145/4 94/128/4 96/130/4 111/153/4
f 62/62/3 103/144/3 108/150/3 99/133/3
f 101/135/6 104/140/6 107/147/6 106/146/6
f 55/55/3 54/54/3 110/152/3 95/129/3
f 92/126/31 51/51/32 112/158/32 93/127/33
f 50/50/3 81/100/3 112/158/34 51/51/35
f 80/89/12 93/159/36 112/160/37
f 92/126/38 49/49/5 51/51/7
f 81/90/9 80/89/12 112/160/37
