# Blender v2.91.0 Beta OBJ File: 'decos.blend'
# www.blender.org
o IndustrialCatWalk_PipeStraightTillable_Cube.016
v 0.000000 0.125926 0.969423
v 0.000000 0.125925 -0.969422
v -9.999997 0.125925 -0.969421
v -9.999997 0.125926 0.969424
v -9.054591 1.632900 1.057220
v -9.054591 0.011318 1.057220
v -8.902901 0.011318 1.057220
v -8.902901 1.632900 1.057220
v 0.000000 -0.000001 -0.969422
v -9.999997 -0.000001 -0.969421
v -6.479993 1.632900 0.948895
v -6.328302 1.632900 0.948895
v -6.328302 0.011318 0.948896
v -6.479993 0.011318 0.948896
v 0.000000 -0.000000 0.969423
v -9.999997 -0.000000 0.969424
v -0.971364 1.632899 -0.948895
v -0.971364 -10.000000 -0.948892
v -0.819674 -10.000000 -0.948892
v -0.819674 1.632899 -0.948895
v -9.054591 1.632899 -0.948894
v -9.054591 0.011317 -0.948894
v -8.902901 0.011317 -0.948894
v -8.902901 1.632899 -0.948894
v -6.479993 1.632899 -0.948895
v -6.479993 0.011317 -0.948894
v -6.328302 0.011317 -0.948894
v -6.328302 1.632899 -0.948895
v -3.479367 1.632899 -0.948895
v -3.479367 0.011317 -0.948895
v -3.327678 0.011317 -0.948895
v -3.327678 1.632899 -0.948895
v -0.971364 1.632899 -1.057220
v -0.819674 1.632899 -1.057220
v -0.819674 -10.000000 -1.057216
v -0.971364 -10.000000 -1.057216
v -9.054591 1.632899 -1.057219
v -8.902901 1.632899 -1.057219
v -8.902901 0.011317 -1.057218
v -9.054591 0.011317 -1.057218
v -6.479993 1.632899 -1.057220
v -6.328302 1.632899 -1.057220
v -6.328302 0.011317 -1.057218
v -6.479993 0.011317 -1.057218
v -3.479367 1.632899 -1.057220
v -3.327678 1.632899 -1.057220
v -3.327678 0.011317 -1.057219
v -3.479367 0.011317 -1.057219
v -10.000000 1.638304 -0.924332
v 0.000000 1.638304 -0.924333
v 0.000000 1.767130 -0.924333
v -10.000000 1.767130 -0.924332
v -10.000000 1.638304 -1.081781
v -10.000000 1.767130 -1.081781
v 0.000000 1.767130 -1.081782
v 0.000000 1.638304 -1.081782
v -0.971364 1.632900 0.948895
v -0.819674 1.632900 0.948895
v -0.819674 -9.999999 0.948899
v -0.971364 -9.999999 0.948899
v -9.054591 1.632900 0.948896
v -8.902901 1.632900 0.948896
v -8.902901 0.011318 0.948896
v -9.054591 0.011318 0.948896
v -3.479367 1.632900 0.948895
v -3.327678 1.632900 0.948895
v -3.327678 0.011318 0.948895
v -3.479367 0.011318 0.948895
v -0.971364 1.632900 1.057219
v -0.971364 -10.000000 1.057223
v -0.819674 -10.000000 1.057223
v -0.819674 1.632900 1.057219
v -3.327678 1.632900 1.057219
v -3.327678 0.011318 1.057219
v -10.000000 1.638305 0.924334
v -10.000000 1.767132 0.924334
v 0.000000 1.767132 0.924333
v 0.000000 1.638305 0.924333
v -3.479367 0.011318 1.057219
v -3.479367 1.632900 1.057219
v -6.479993 1.632900 1.057220
v -6.479993 0.011318 1.057220
v -6.328302 0.011318 1.057220
v -6.328302 1.632900 1.057220
v -10.000000 1.638305 1.081782
v 0.000000 1.638305 1.081781
v 0.000000 1.767132 1.081781
v -10.000000 1.767132 1.081782
v -10.000000 1.027972 -0.855682
v 0.000000 1.027972 -0.855683
v 0.000000 1.101393 -0.855683
v -10.000000 1.101393 -0.855682
v -10.000000 1.027972 -0.916804
v -10.000000 1.101392 -0.916804
v 0.000000 1.101392 -0.916805
v 0.000000 1.027972 -0.916805
v -10.000000 1.027973 0.855684
v -10.000000 1.101394 0.855684
v 0.000000 1.101394 0.855683
v 0.000000 1.027973 0.855683
v 0.000000 1.101394 0.916805
v 0.000000 1.027973 0.916805
v -10.000000 1.027973 0.916806
v -10.000000 1.101394 0.916806
v -10.000000 0.131453 -0.832620
v 0.000000 0.131453 -0.832621
v 0.000000 0.334432 -0.832621
v -10.000000 0.334432 -0.832620
v -10.000000 0.131453 -0.939866
v -10.000000 0.334432 -0.939866
v 0.000000 0.334432 -0.939867
v 0.000000 0.131453 -0.939867
v -10.000000 0.131455 0.832622
v -10.000000 0.334434 0.832622
v 0.000000 0.334434 0.832621
v 0.000000 0.131455 0.832621
v 0.000000 0.334434 0.939867
v 0.000000 0.131455 0.939867
v -10.000000 0.131455 0.939868
v -10.000000 0.334434 0.939868
v -10.000000 0.125926 0.969424
v -10.000000 0.125925 -0.969421
v -19.999998 0.125925 -0.969420
v -19.999998 0.125926 0.969425
v -19.054588 1.632900 1.057221
v -19.054588 -9.999999 1.057220
v -18.902901 -9.999999 1.057220
v -18.902901 1.632900 1.057221
v -10.000000 -0.000001 -0.969421
v -19.999998 -0.000001 -0.969420
v -16.479992 1.632900 0.948896
v -16.328300 1.632900 0.948896
v -16.328300 0.011318 0.948896
v -16.479992 0.011318 0.948896
v -10.000000 -0.000000 0.969424
v -19.999998 -0.000000 0.969425
v -10.971363 1.632899 -0.948894
v -10.971363 0.011380 -0.948890
v -10.819674 0.011380 -0.948890
v -10.819674 1.632899 -0.948894
v -19.054588 1.632899 -0.948893
v -19.054588 -10.000000 -0.948895
v -18.902901 -10.000000 -0.948895
v -18.902901 1.632899 -0.948893
v -16.479992 1.632899 -0.948894
v -16.479992 0.011317 -0.948894
v -16.328300 0.011317 -0.948894
v -16.328300 1.632899 -0.948894
v -13.479367 1.632899 -0.948894
v -13.479367 0.011317 -0.948894
v -13.327678 0.011317 -0.948894
v -13.327678 1.632899 -0.948894
v -10.971363 1.632899 -1.057219
v -10.819674 1.632899 -1.057219
v -10.819674 0.011380 -1.057213
v -10.971363 0.011380 -1.057213
v -19.054588 1.632899 -1.057218
v -18.902901 1.632899 -1.057218
v -18.902901 -10.000000 -1.057219
v -19.054588 -10.000000 -1.057219
v -16.479992 1.632899 -1.057219
v -16.328300 1.632899 -1.057219
v -16.328300 0.011317 -1.057218
v -16.479992 0.011317 -1.057218
v -13.479367 1.632899 -1.057219
v -13.327678 1.632899 -1.057219
v -13.327678 0.011317 -1.057218
v -13.479367 0.011317 -1.057218
v -20.000000 1.638304 -0.924331
v -10.000000 1.638304 -0.924332
v -10.000000 1.767130 -0.924332
v -20.000000 1.767130 -0.924331
v -20.000000 1.638304 -1.081780
v -20.000000 1.767130 -1.081780
v -10.000000 1.767130 -1.081781
v -10.000000 1.638304 -1.081781
v -10.971363 1.632900 0.948896
v -10.819674 1.632900 0.948896
v -10.819674 0.011381 0.948901
v -10.971363 0.011381 0.948901
v -19.054588 1.632900 0.948897
v -18.902901 1.632900 0.948897
v -18.902901 -9.999999 0.948895
v -19.054588 -9.999999 0.948895
v -13.479367 1.632900 0.948896
v -13.327678 1.632900 0.948896
v -13.327678 0.011318 0.948896
v -13.479367 0.011318 0.948896
v -10.971363 1.632900 1.057220
v -10.971363 0.011380 1.057226
v -10.819674 0.011380 1.057226
v -10.819674 1.632900 1.057220
v -13.327678 1.632900 1.057220
v -13.327678 0.011318 1.057220
v -20.000000 1.638305 0.924335
v -20.000000 1.767132 0.924335
v -10.000000 1.767132 0.924334
v -10.000000 1.638305 0.924334
v -13.479367 0.011318 1.057220
v -13.479367 1.632900 1.057220
v -16.479992 1.632900 1.057220
v -16.479992 0.011318 1.057220
v -16.328300 0.011318 1.057220
v -16.328300 1.632900 1.057220
v -20.000000 1.638305 1.081783
v -10.000000 1.638305 1.081782
v -10.000000 1.767132 1.081782
v -20.000000 1.767132 1.081783
v -20.000000 1.027972 -0.855681
v -10.000000 1.027972 -0.855682
v -10.000000 1.101393 -0.855682
v -20.000000 1.101393 -0.855681
v -20.000000 1.027972 -0.916803
v -20.000000 1.101392 -0.916803
v -10.000000 1.101392 -0.916804
v -10.000000 1.027972 -0.916804
v -20.000000 1.027973 0.855685
v -20.000000 1.101394 0.855685
v -10.000000 1.101394 0.855684
v -10.000000 1.027973 0.855684
v -10.000000 1.101394 0.916806
v -10.000000 1.027973 0.916806
v -20.000000 1.027973 0.916807
v -20.000000 1.101394 0.916807
v -20.178204 0.131453 -0.832619
v -10.000000 0.131453 -0.832620
v -10.000000 0.334432 -0.832620
v -20.000000 0.334432 -0.832619
v -20.000000 0.131453 -0.939865
v -20.000000 0.334432 -0.939865
v -10.000000 0.334432 -0.939866
v -10.000000 0.131453 -0.939866
v -20.000000 0.131455 0.832623
v -20.000000 0.334434 0.832623
v -10.000000 0.334434 0.832622
v -10.000000 0.131455 0.832622
v -10.000000 0.334434 0.939868
v -10.000000 0.131455 0.939868
v -20.000000 0.131455 0.939869
v -20.000000 0.334434 0.939869
vt 0.835938 0.414062
vt 0.835938 0.414062
vt 0.835938 0.414062
vt 0.835938 0.414062
vt 0.835938 0.445312
vt 0.835938 0.445312
vt 0.835938 0.445312
vt 0.835938 0.445312
vt 0.835938 0.445312
vt 0.835938 0.445312
vt 0.835938 0.445312
vt 0.835938 0.445312
vt 0.835938 0.445312
vt 0.835938 0.445312
vt 0.835938 0.445312
vt 0.835938 0.445312
vt 0.835938 0.445312
vt 0.835938 0.445312
vt 0.835938 0.445312
vt 0.835938 0.445312
vt 0.835938 0.445312
vt 0.835938 0.445312
vt 0.835938 0.445312
vt 0.835938 0.445312
vt 0.835938 0.445312
vt 0.835938 0.445312
vt 0.835938 0.445312
vt 0.835938 0.445312
vt 0.835938 0.445312
vt 0.835938 0.445312
vt 0.835938 0.445312
vt 0.835938 0.445312
vt 0.835938 0.445312
vt 0.835938 0.445312
vt 0.835938 0.445312
vt 0.835938 0.445312
vt 0.835938 0.445312
vt 0.835938 0.445312
vt 0.835938 0.445312
vt 0.835938 0.445312
vt 0.835938 0.445312
vt 0.835938 0.445312
vt 0.835938 0.445312
vt 0.835938 0.445312
vt 0.835938 0.445312
vt 0.835938 0.445312
vt 0.835938 0.445312
vt 0.835938 0.445312
vt 0.835938 0.445312
vt 0.835938 0.445312
vt 0.835938 0.445312
vt 0.835938 0.445312
vt 0.835938 0.445312
vt 0.835938 0.445312
vt 0.835938 0.445312
vt 0.835938 0.445312
vt 0.835938 0.445312
vt 0.835938 0.445312
vt 0.835938 0.445312
vt 0.835938 0.445312
vt 0.835938 0.476562
vt 0.835938 0.476562
vt 0.835938 0.476562
vt 0.835938 0.476562
vt 0.835938 0.445312
vt 0.835938 0.445312
vt 0.835938 0.445312
vt 0.835938 0.445312
vt 0.835938 0.445312
vt 0.835938 0.445312
vt 0.835938 0.445312
vt 0.835938 0.445312
vt 0.835938 0.445312
vt 0.835938 0.445312
vt 0.835938 0.445312
vt 0.835938 0.445312
vt 0.835938 0.445312
vt 0.835938 0.445312
vt 0.835938 0.445312
vt 0.835938 0.445312
vt 0.835938 0.445312
vt 0.835938 0.445312
vt 0.835938 0.445312
vt 0.835938 0.445312
vt 0.835938 0.445312
vt 0.835938 0.445312
vt 0.835938 0.445312
vt 0.835938 0.445312
vt 0.835938 0.445312
vt 0.835938 0.445312
vt 0.835938 0.445312
vt 0.835938 0.445312
vt 0.835938 0.445312
vt 0.835938 0.445312
vt 0.835938 0.445312
vt 0.835938 0.445312
vt 0.835938 0.476562
vt 0.835938 0.476562
vt 0.835938 0.476562
vt 0.835938 0.476562
vt 0.835938 0.445312
vt 0.835938 0.445312
vt 0.835938 0.445312
vt 0.835938 0.445312
vt 0.835938 0.445312
vt 0.835938 0.445312
vt 0.835938 0.445312
vt 0.835938 0.445312
vt 0.835938 0.476562
vt 0.835938 0.476562
vt 0.835938 0.476562
vt 0.835938 0.476562
vt 0.835938 0.445312
vt 0.835938 0.445312
vt 0.835938 0.445312
vt 0.835938 0.445312
vt 0.835938 0.445312
vt 0.835938 0.445312
vt 0.835938 0.445312
vt 0.835938 0.445312
vt 0.835938 0.476562
vt 0.835938 0.476562
vt 0.835938 0.476562
vt 0.835938 0.476562
vt 0.835938 0.445312
vt 0.835938 0.445312
vt 0.835938 0.445312
vt 0.835938 0.445312
vt 0.835938 0.445312
vt 0.835938 0.445312
vt 0.835938 0.445312
vt 0.835938 0.445312
vt 0.835938 0.476562
vt 0.835938 0.476562
vt 0.835938 0.476562
vt 0.835938 0.476562
vt 0.835938 0.445312
vt 0.835938 0.445312
vt 0.835938 0.445312
vt 0.835938 0.445312
vt 0.835938 0.445312
vt 0.835938 0.445312
vt 0.835938 0.445312
vt 0.835938 0.445312
vt 0.835938 0.476562
vt 0.835938 0.476562
vt 0.835938 0.476562
vt 0.835938 0.476562
vt 0.835938 0.414062
vt 0.835938 0.414062
vt 0.835938 0.414062
vt 0.835938 0.414062
vt 0.835938 0.445312
vt 0.835938 0.445312
vt 0.835938 0.445312
vt 0.835938 0.445312
vt 0.835938 0.445312
vt 0.835938 0.445312
vt 0.835938 0.445312
vt 0.835938 0.445312
vt 0.835938 0.445312
vt 0.835938 0.445312
vt 0.835938 0.445312
vt 0.835938 0.445312
vt 0.835938 0.445312
vt 0.835938 0.445312
vt 0.835938 0.445312
vt 0.835938 0.445312
vt 0.835938 0.445312
vt 0.835938 0.445312
vt 0.835938 0.445312
vt 0.835938 0.445312
vt 0.835938 0.445312
vt 0.835938 0.445312
vt 0.835938 0.445312
vt 0.835938 0.445312
vt 0.835938 0.445312
vt 0.835938 0.445312
vt 0.835938 0.445312
vt 0.835938 0.445312
vt 0.835938 0.445312
vt 0.835938 0.445312
vt 0.835938 0.445312
vt 0.835938 0.445312
vt 0.835938 0.445312
vt 0.835938 0.445312
vt 0.835938 0.445312
vt 0.835938 0.445312
vt 0.835938 0.445312
vt 0.835938 0.445312
vt 0.835938 0.445312
vt 0.835938 0.445312
vt 0.835938 0.445312
vt 0.835938 0.445312
vt 0.835938 0.445312
vt 0.835938 0.445312
vt 0.835938 0.445312
vt 0.835938 0.445312
vt 0.835938 0.445312
vt 0.835938 0.445312
vt 0.835938 0.445312
vt 0.835938 0.445312
vt 0.835938 0.445312
vt 0.835938 0.445312
vt 0.835938 0.445312
vt 0.835938 0.445312
vt 0.835938 0.445312
vt 0.835938 0.445312
vt 0.835938 0.476562
vt 0.835938 0.476562
vt 0.835938 0.476562
vt 0.835938 0.476562
vt 0.835938 0.445312
vt 0.835938 0.445312
vt 0.835938 0.445312
vt 0.835938 0.445312
vt 0.835938 0.445312
vt 0.835938 0.445312
vt 0.835938 0.445312
vt 0.835938 0.445312
vt 0.835938 0.445312
vt 0.835938 0.445312
vt 0.835938 0.445312
vt 0.835938 0.445312
vt 0.835938 0.445312
vt 0.835938 0.445312
vt 0.835938 0.445312
vt 0.835938 0.445312
vt 0.835938 0.445312
vt 0.835938 0.445312
vt 0.835938 0.445312
vt 0.835938 0.445312
vt 0.835938 0.445312
vt 0.835938 0.445312
vt 0.835938 0.445312
vt 0.835938 0.445312
vt 0.835938 0.445312
vt 0.835938 0.445312
vt 0.835938 0.445312
vt 0.835938 0.445312
vt 0.835938 0.445312
vt 0.835938 0.445312
vt 0.835938 0.445312
vt 0.835938 0.445312
vt 0.835938 0.476562
vt 0.835938 0.476562
vt 0.835938 0.476562
vt 0.835938 0.476562
vt 0.835938 0.445312
vt 0.835938 0.445312
vt 0.835938 0.445312
vt 0.835938 0.445312
vt 0.835938 0.445312
vt 0.835938 0.445312
vt 0.835938 0.445312
vt 0.835938 0.445312
vt 0.835938 0.476562
vt 0.835938 0.476562
vt 0.835938 0.476562
vt 0.835938 0.476562
vt 0.835938 0.445312
vt 0.835938 0.445312
vt 0.835938 0.445312
vt 0.835938 0.445312
vt 0.835938 0.445312
vt 0.835938 0.445312
vt 0.835938 0.445312
vt 0.835938 0.445312
vt 0.835938 0.476562
vt 0.835938 0.476562
vt 0.835938 0.476562
vt 0.835938 0.476562
vt 0.835938 0.445312
vt 0.835938 0.445312
vt 0.835938 0.445312
vt 0.835938 0.445312
vt 0.835938 0.445312
vt 0.835938 0.445312
vt 0.835938 0.445312
vt 0.835938 0.445312
vt 0.835938 0.476562
vt 0.835938 0.476562
vt 0.835938 0.476562
vt 0.835938 0.476562
vt 0.835938 0.445312
vt 0.835938 0.445312
vt 0.835938 0.445312
vt 0.835938 0.445312
vt 0.835938 0.445312
vt 0.835938 0.445312
vt 0.835938 0.445312
vt 0.835938 0.445312
vt 0.835938 0.476562
vt 0.835938 0.476562
vt 0.835938 0.476562
vt 0.835938 0.476562
vn -0.0000 1.0000 -0.0000
vn 0.0000 -0.0000 1.0000
vn -0.0000 0.0000 -1.0000
vn 1.0000 0.0000 0.0000
vn -1.0000 -0.0000 0.0000
vn 0.0000 -1.0000 0.0000
vn -0.7288 0.3199 -0.6055
s 1
f 1/1/1 2/2/1 3/3/1 4/4/1
f 5/5/2 6/6/2 7/7/2 8/8/2
f 3/9/3 2/10/3 9/11/3 10/12/3
f 11/13/3 12/14/3 13/15/3 14/16/3
f 1/17/4 15/18/4 9/11/4 2/10/4
f 4/19/2 16/20/2 15/18/2 1/17/2
f 17/21/2 18/22/2 19/23/2 20/24/2
f 21/25/2 22/26/2 23/27/2 24/28/2
f 25/29/2 26/30/2 27/31/2 28/32/2
f 29/33/2 30/34/2 31/35/2 32/36/2
f 33/37/3 34/38/3 35/39/3 36/40/3
f 37/41/3 38/42/3 39/43/3 40/44/3
f 41/45/3 42/46/3 43/47/3 44/48/3
f 45/49/3 46/50/3 47/51/3 48/52/3
f 32/36/4 31/35/4 47/51/4 46/50/4
f 18/22/5 17/21/5 33/37/5 36/40/5
f 22/26/5 21/25/5 37/41/5 40/44/5
f 24/28/4 23/27/4 39/43/4 38/42/4
f 20/24/4 19/23/4 35/39/4 34/38/4
f 26/30/5 25/29/5 41/45/5 44/48/5
f 28/32/4 27/31/4 43/47/4 42/46/4
f 30/34/5 29/33/5 45/49/5 48/52/5
f 49/53/2 50/54/2 51/55/2 52/56/2
f 53/57/3 54/58/3 55/59/3 56/60/3
f 49/53/5 52/56/5 54/58/5 53/57/5
f 50/54/6 49/53/6 53/57/6 56/60/6
f 51/55/4 50/54/4 56/60/4 55/59/4
f 52/61/1 51/62/1 55/63/1 54/64/1
f 57/65/3 58/66/3 59/67/3 60/68/3
f 10/12/5 16/20/5 4/19/5 3/9/5
f 61/69/3 62/70/3 63/71/3 64/72/3
f 65/73/3 66/74/3 67/75/3 68/76/3
f 69/77/2 70/78/2 71/79/2 72/80/2
f 66/74/4 73/81/4 74/82/4 67/75/4
f 64/72/5 6/6/5 5/5/5 61/69/5
f 75/83/3 76/84/3 77/85/3 78/86/3
f 68/76/5 79/87/5 80/88/5 65/73/5
f 62/70/4 8/8/4 7/7/4 63/71/4
f 81/89/2 82/90/2 83/91/2 84/92/2
f 80/88/2 79/87/2 74/82/2 73/81/2
f 12/14/4 84/92/4 83/91/4 13/15/4
f 85/93/2 86/94/2 87/95/2 88/96/2
f 58/66/4 72/80/4 71/79/4 59/67/4
f 60/68/5 70/78/5 69/77/5 57/65/5
f 14/16/5 82/90/5 81/89/5 11/13/5
f 75/83/5 85/93/5 88/96/5 76/84/5
f 78/86/6 86/94/6 85/93/6 75/83/6
f 77/85/4 87/95/4 86/94/4 78/86/4
f 76/97/1 88/98/1 87/99/1 77/100/1
f 89/101/2 90/102/2 91/103/2 92/104/2
f 93/105/3 94/106/3 95/107/3 96/108/3
f 89/101/5 92/104/5 94/106/5 93/105/5
f 90/102/6 89/101/6 93/105/6 96/108/6
f 91/103/4 90/102/4 96/108/4 95/107/4
f 92/109/1 91/110/1 95/111/1 94/112/1
f 97/113/3 98/114/3 99/115/3 100/116/3
f 99/115/4 101/117/4 102/118/4 100/116/4
f 103/119/2 102/118/2 101/117/2 104/120/2
f 97/113/5 103/119/5 104/120/5 98/114/5
f 98/121/1 104/122/1 101/123/1 99/124/1
f 100/116/6 102/118/6 103/119/6 97/113/6
f 9/11/6 15/18/6 16/20/6 10/12/6
f 105/125/2 106/126/2 107/127/2 108/128/2
f 109/129/3 110/130/3 111/131/3 112/132/3
f 105/125/5 108/128/5 110/130/5 109/129/5
f 106/126/6 105/125/6 109/129/6 112/132/6
f 107/127/4 106/126/4 112/132/4 111/131/4
f 108/133/1 107/134/1 111/135/1 110/136/1
f 113/137/3 114/138/3 115/139/3 116/140/3
f 115/139/4 117/141/4 118/142/4 116/140/4
f 119/143/2 118/142/2 117/141/2 120/144/2
f 113/137/5 119/143/5 120/144/5 114/138/5
f 114/145/1 120/146/1 117/147/1 115/148/1
f 116/140/6 118/142/6 119/143/6 113/137/6
f 121/149/1 122/150/1 123/151/1 124/152/1
f 125/153/2 126/154/2 127/155/2 128/156/2
f 123/157/3 122/158/3 129/159/3 130/160/3
f 131/161/3 132/162/3 133/163/3 134/164/3
f 121/165/4 135/166/4 129/159/4 122/158/4
f 124/167/2 136/168/2 135/166/2 121/165/2
f 137/169/2 138/170/2 139/171/2 140/172/2
f 141/173/2 142/174/2 143/175/2 144/176/2
f 145/177/2 146/178/2 147/179/2 148/180/2
f 149/181/2 150/182/2 151/183/2 152/184/2
f 153/185/3 154/186/3 155/187/3 156/188/3
f 157/189/3 158/190/3 159/191/3 160/192/3
f 161/193/3 162/194/3 163/195/3 164/196/3
f 165/197/3 166/198/3 167/199/3 168/200/3
f 152/184/4 151/183/4 167/199/4 166/198/4
f 138/170/5 137/169/5 153/185/5 156/188/5
f 142/174/5 141/173/5 157/189/5 160/192/5
f 144/176/4 143/175/4 159/191/4 158/190/4
f 140/172/4 139/171/4 155/187/4 154/186/4
f 146/178/5 145/177/5 161/193/5 164/196/5
f 148/180/4 147/179/4 163/195/4 162/194/4
f 150/182/5 149/181/5 165/197/5 168/200/5
f 169/201/2 170/202/2 171/203/2 172/204/2
f 173/205/3 174/206/3 175/207/3 176/208/3
f 169/201/5 172/204/5 174/206/5 173/205/5
f 170/202/6 169/201/6 173/205/6 176/208/6
f 171/203/4 170/202/4 176/208/4 175/207/4
f 172/209/1 171/210/1 175/211/1 174/212/1
f 177/213/3 178/214/3 179/215/3 180/216/3
f 130/160/5 136/168/5 124/167/5 123/157/5
f 181/217/3 182/218/3 183/219/3 184/220/3
f 185/221/3 186/222/3 187/223/3 188/224/3
f 189/225/2 190/226/2 191/227/2 192/228/2
f 186/222/4 193/229/4 194/230/4 187/223/4
f 184/220/5 126/154/5 125/153/5 181/217/5
f 195/231/3 196/232/3 197/233/3 198/234/3
f 188/224/5 199/235/5 200/236/5 185/221/5
f 182/218/4 128/156/4 127/155/4 183/219/4
f 201/237/2 202/238/2 203/239/2 204/240/2
f 200/236/2 199/235/2 194/230/2 193/229/2
f 132/162/4 204/240/4 203/239/4 133/163/4
f 205/241/2 206/242/2 207/243/2 208/244/2
f 178/214/4 192/228/4 191/227/4 179/215/4
f 180/216/5 190/226/5 189/225/5 177/213/5
f 134/164/5 202/238/5 201/237/5 131/161/5
f 195/231/5 205/241/5 208/244/5 196/232/5
f 198/234/6 206/242/6 205/241/6 195/231/6
f 197/233/4 207/243/4 206/242/4 198/234/4
f 196/245/1 208/246/1 207/247/1 197/248/1
f 209/249/2 210/250/2 211/251/2 212/252/2
f 213/253/3 214/254/3 215/255/3 216/256/3
f 209/249/5 212/252/5 214/254/5 213/253/5
f 210/250/6 209/249/6 213/253/6 216/256/6
f 211/251/4 210/250/4 216/256/4 215/255/4
f 212/257/1 211/258/1 215/259/1 214/260/1
f 217/261/3 218/262/3 219/263/3 220/264/3
f 219/263/4 221/265/4 222/266/4 220/264/4
f 223/267/2 222/266/2 221/265/2 224/268/2
f 217/261/5 223/267/5 224/268/5 218/262/5
f 218/269/1 224/270/1 221/271/1 219/272/1
f 220/264/6 222/266/6 223/267/6 217/261/6
f 129/159/6 135/166/6 136/168/6 130/160/6
f 225/273/2 226/274/2 227/275/2 228/276/2
f 229/277/3 230/278/3 231/279/3 232/280/3
f 225/273/7 228/276/7 230/278/7 229/277/7
f 226/274/6 225/273/6 229/277/6 232/280/6
f 227/275/4 226/274/4 232/280/4 231/279/4
f 228/281/1 227/282/1 231/283/1 230/284/1
f 233/285/3 234/286/3 235/287/3 236/288/3
f 235/287/4 237/289/4 238/290/4 236/288/4
f 239/291/2 238/290/2 237/289/2 240/292/2
f 233/285/5 239/291/5 240/292/5 234/286/5
f 234/293/1 240/294/1 237/295/1 235/296/1
f 236/288/6 238/290/6 239/291/6 233/285/6
