# Blender v2.90.0 Alpha OBJ File: 'Decos.blend'
# www.blender.org
o Cube.002_Cube.009
v -0.266373 -0.020619 0.266373
v -0.156884 0.389027 0.156884
v -0.266373 -0.020619 -0.266373
v -0.156884 0.389027 -0.156884
v 0.266373 -0.020619 0.266373
v 0.156884 0.389027 0.156884
v 0.266373 -0.020619 -0.266373
v 0.156884 0.389027 -0.156884
v 0.000000 -0.020619 -0.376709
v 0.000000 0.389027 -0.221868
v -0.000000 -0.020619 0.376709
v -0.000000 0.389027 0.221868
v -0.376709 -0.020619 -0.000000
v -0.221868 0.389027 -0.000000
v 0.376709 -0.020619 0.000000
v 0.221868 0.389027 0.000000
v -0.112296 1.126408 0.112296
v 0.000000 -0.020619 0.000000
v -0.285027 0.184204 0.285027
v -0.285027 0.184204 -0.285027
v 0.285027 0.184204 -0.285027
v 0.285027 0.184204 0.285027
v -0.000000 0.184204 0.403089
v 0.000000 0.184204 -0.403089
v 0.403089 0.184204 0.000000
v -0.403089 0.184204 -0.000000
v -0.095185 0.708777 0.095185
v -0.095185 0.708777 -0.095185
v 0.095185 0.708777 0.095185
v 0.095185 0.708777 -0.095185
v 0.000000 0.708777 -0.134612
v 0.000000 0.708777 0.134612
v -0.134612 0.708777 -0.000000
v 0.134612 0.708777 0.000000
v -0.164291 1.158254 0.164291
v -0.112296 1.126408 -0.112296
v 0.112296 1.126408 0.112296
v 0.112296 1.126408 -0.112296
v 0.000000 1.126408 -0.158810
v 0.000000 1.126408 0.158810
v -0.158810 1.126408 -0.000000
v 0.158810 1.126408 0.000000
v -0.164291 1.200157 0.164291
v -0.164291 1.158254 -0.164291
v 0.164291 1.158254 0.164291
v 0.164291 1.158254 -0.164291
v 0.000000 1.158254 -0.232342
v -0.000000 1.158254 0.232342
v -0.232342 1.158254 -0.000000
v 0.232342 1.158254 0.000000
v -0.106496 1.316845 0.106496
v -0.164291 1.200157 -0.164291
v 0.164291 1.200157 0.164291
v 0.164291 1.200157 -0.164291
v 0.000000 1.200157 -0.232342
v -0.000000 1.200157 0.232342
v -0.232342 1.200157 -0.000000
v 0.232342 1.200157 0.000000
v -0.152628 1.611687 0.152628
v -0.106496 1.316845 -0.106496
v 0.106496 1.316845 0.106496
v 0.106496 1.316845 -0.106496
v 0.000000 1.316845 -0.150608
v 0.000000 1.316845 0.150608
v -0.150608 1.316845 -0.000000
v 0.150608 1.316845 0.000000
v 0.000000 1.650237 0.000000
v -0.152628 1.611687 -0.152628
v 0.152628 1.611687 0.152628
v 0.152628 1.611687 -0.152628
v 0.000000 1.611687 -0.215849
v -0.000000 1.611687 0.215849
v -0.215849 1.611687 -0.000000
v 0.215849 1.611687 0.000000
v -0.028879 1.631981 -0.000000
v -0.065197 1.787066 0.028879
v 0.028879 1.631981 0.000000
v -0.065197 1.758187 0.000000
v 0.000000 1.631981 -0.028879
v 0.000000 1.631981 0.028879
v -0.065197 1.787066 -0.028879
v -0.065197 1.815946 0.000000
v -0.028879 1.844380 -0.000000
v 0.065197 1.758187 -0.000000
v 0.028879 1.844380 0.000000
v 0.065197 1.787066 0.028879
v 0.000000 1.844380 -0.028879
v 0.000000 1.844380 0.028879
v 0.065197 1.815946 -0.000000
v 0.065197 1.787066 -0.028879
vt 0.101562 0.789062
vt 0.101562 0.789062
vt 0.101562 0.789062
vt 0.101562 0.789062
vt 0.101562 0.789062
vt 0.101562 0.789062
vt 0.101562 0.789062
vt 0.101562 0.789062
vt 0.101562 0.789062
vt 0.101562 0.789062
vt 0.101562 0.789062
vt 0.101562 0.789062
vt 0.101562 0.789062
vt 0.101562 0.789062
vt 0.101562 0.789062
vt 0.101562 0.789062
vt 0.101562 0.789062
vt 0.101562 0.789062
vt 0.101562 0.789062
vt 0.101562 0.789062
vt 0.101562 0.789062
vt 0.101562 0.789062
vt 0.101562 0.789062
vt 0.101562 0.789062
vt 0.101562 0.789062
vt 0.101562 0.789062
vt 0.101562 0.789062
vt 0.101562 0.789062
vt 0.101562 0.789062
vt 0.101562 0.789062
vt 0.101562 0.789062
vt 0.101562 0.789062
vt 0.101562 0.789062
vt 0.101562 0.789062
vt 0.101562 0.789062
vt 0.101562 0.789062
vt 0.101562 0.789062
vt 0.101562 0.789062
vt 0.101562 0.789062
vt 0.101562 0.789062
vt 0.101562 0.789062
vt 0.101562 0.789062
vt 0.101562 0.789062
vt 0.101562 0.789062
vt 0.101562 0.789062
vt 0.101562 0.789062
vt 0.101562 0.789062
vt 0.101562 0.789062
vt 0.101562 0.789062
vt 0.101562 0.789062
vt 0.101562 0.789062
vt 0.101562 0.789062
vt 0.101562 0.789062
vt 0.101562 0.789062
vt 0.101562 0.789062
vt 0.101562 0.789062
vt 0.101562 0.789062
vt 0.101562 0.789062
vt 0.101562 0.789062
vt 0.101562 0.789062
vt 0.101562 0.789062
vt 0.101562 0.789062
vt 0.101562 0.789062
vt 0.101562 0.789062
vt 0.101562 0.789062
vt 0.101562 0.789062
vt 0.101562 0.789062
vt 0.101562 0.789062
vt 0.101562 0.789062
vt 0.101562 0.789062
vt 0.101562 0.789062
vt 0.101562 0.789062
vt 0.101562 0.789062
vt 0.101562 0.789062
vt 0.101562 0.789062
vt 0.101562 0.789062
vt 0.101562 0.789062
vt 0.101562 0.789062
vt 0.101562 0.789062
vt 0.101562 0.789062
vt 0.101562 0.789062
vt 0.101562 0.789062
vt 0.101562 0.789062
vt 0.101562 0.789062
vt 0.101562 0.789062
vt 0.101562 0.789062
vt 0.101562 0.789062
vt 0.101562 0.789062
vt 0.101562 0.789062
vt 0.101562 0.789062
vn -0.7489 0.6626 -0.0000
vn -0.5296 0.6626 -0.5296
vn 0.0000 0.6626 -0.7489
vn 0.5296 0.6626 -0.5296
vn 0.7489 0.6626 0.0000
vn 0.5296 0.6626 0.5296
vn -0.0000 0.6626 0.7489
vn -0.5296 0.6626 0.5296
vn 0.0000 -1.0000 -0.0000
vn -0.9647 0.2633 -0.0000
vn -0.6822 0.2633 0.6822
vn -0.7029 0.1084 0.7029
vn -0.9941 0.1084 -0.0000
vn 0.9647 0.2633 0.0000
vn 0.6822 0.2633 -0.6822
vn 0.7029 0.1084 -0.7029
vn 0.9941 0.1084 0.0000
vn 0.0000 0.2633 -0.9647
vn 0.0000 0.1084 -0.9941
vn -0.0000 0.2633 0.9647
vn -0.0000 0.1084 0.9941
vn -0.7013 -0.1277 0.7013
vn -0.9918 -0.1277 -0.0000
vn 0.7013 -0.1277 -0.7013
vn 0.9918 -0.1277 0.0000
vn -0.7013 -0.1277 -0.7013
vn 0.0000 -0.1277 -0.9918
vn 0.7013 -0.1277 0.7013
vn -0.0000 -0.1277 0.9918
vn 0.0000 -0.0578 -0.9983
vn 0.7059 -0.0578 -0.7059
vn -0.0000 -0.0578 0.9983
vn -0.7059 -0.0578 0.7059
vn 0.7029 0.1084 0.7029
vn 0.7059 -0.0578 0.7059
vn -0.9983 -0.0578 0.0000
vn 0.6822 0.2633 0.6822
vn -0.6822 0.2633 -0.6822
vn -0.7029 0.1084 -0.7029
vn -0.0000 -0.9176 0.3974
vn 0.2810 -0.9176 0.2810
vn -0.3974 -0.9176 -0.0000
vn -0.2810 -0.9176 0.2810
vn -0.2810 -0.9176 -0.2810
vn 0.3974 -0.9176 0.0000
vn 0.9983 -0.0578 0.0000
vn -0.7059 -0.0578 -0.7059
vn -0.7071 0.0000 -0.7071
vn -1.0000 0.0000 -0.0000
vn 0.7071 0.0000 0.7071
vn 1.0000 0.0000 0.0000
vn 0.0000 0.0000 -1.0000
vn 0.7071 0.0000 -0.7071
vn 0.2810 -0.9176 -0.2810
vn -0.0000 -0.9176 -0.3974
vn 0.0000 0.5737 -0.8191
vn -0.5792 0.5737 -0.5792
vn -0.6902 0.2172 -0.6902
vn 0.0000 0.2172 -0.9761
vn 0.8191 0.5737 0.0000
vn 0.5792 0.5737 -0.5792
vn 0.6902 0.2172 -0.6902
vn 0.9761 0.2172 0.0000
vn -0.5792 0.5737 0.5792
vn -0.0000 0.5737 0.8191
vn -0.0000 0.2172 0.9761
vn -0.6902 0.2172 0.6902
vn -0.7071 0.0000 0.7071
vn -0.0000 0.0000 1.0000
vn 0.0000 -0.2160 -0.9764
vn 0.6904 -0.2160 -0.6904
vn -0.0000 -0.2160 0.9764
vn -0.6904 -0.2160 0.6904
vn 0.6902 0.2172 0.6902
vn 0.6904 -0.2160 0.6904
vn -0.9761 0.2172 -0.0000
vn -0.9764 -0.2160 0.0000
vn 0.5792 0.5737 0.5792
vn -0.8191 0.5737 -0.0000
vn -0.1758 0.9844 0.0000
vn -0.1243 0.9844 0.1243
vn 0.0000 1.0000 0.0000
vn -0.1243 0.9844 -0.1243
vn 0.1243 0.9844 0.1243
vn 0.1758 0.9844 0.0000
vn 0.0000 0.9844 -0.1758
vn 0.9764 -0.2160 0.0000
vn -0.6904 -0.2160 -0.6904
vn -0.0000 0.9844 0.1758
vn 0.1243 0.9844 -0.1243
vn -0.0000 0.7071 -0.7071
vn 0.0000 -0.7071 0.7071
vn -0.0000 -0.7071 -0.7071
vn 0.0000 0.7071 0.7071
s 1
f 26/1/1 14/2/1 4/3/2 20/4/2
f 24/5/3 10/6/3 8/7/4 21/8/4
f 25/9/5 16/10/5 6/11/6 22/12/6
f 23/13/7 12/14/7 2/15/8 19/16/8
f 18/17/9 15/18/9 5/19/9 11/20/9
f 14/2/10 2/15/11 27/21/12 33/22/13
f 16/10/14 8/7/15 30/23/16 34/24/17
f 13/25/9 18/17/9 11/20/9 1/26/9
f 22/12/6 6/11/6 12/14/7 23/13/7
f 20/4/2 4/3/2 10/6/3 24/5/3
f 3/27/9 9/28/9 18/17/9 13/25/9
f 8/7/15 10/6/18 31/29/19 30/23/16
f 2/15/11 12/14/20 32/30/21 27/21/12
f 9/28/9 7/31/9 15/18/9 18/17/9
f 21/8/4 8/7/4 16/10/5 25/9/5
f 19/16/8 2/15/8 14/2/1 26/1/1
f 1/26/22 19/16/22 26/1/23 13/25/23
f 7/31/24 21/8/24 25/9/25 15/18/25
f 3/27/26 20/4/26 24/5/27 9/28/27
f 5/19/28 22/12/28 23/13/29 11/20/29
f 11/20/29 23/13/29 19/16/22 1/26/22
f 15/18/25 25/9/25 22/12/28 5/19/28
f 9/28/27 24/5/27 21/8/24 7/31/24
f 13/25/23 26/1/23 20/4/26 3/27/26
f 30/23/16 31/29/19 39/32/30 38/33/31
f 27/21/12 32/30/21 40/34/32 17/35/33
f 32/30/21 29/36/34 37/37/35 40/34/32
f 33/22/13 27/21/12 17/35/33 41/38/36
f 6/11/37 16/10/14 34/24/17 29/36/34
f 12/14/20 6/11/37 29/36/34 32/30/21
f 10/6/18 4/3/38 28/39/39 31/29/19
f 4/3/38 14/2/10 33/22/13 28/39/39
f 40/34/40 37/37/41 45/40/41 48/41/40
f 41/38/42 17/35/43 35/42/43 49/43/42
f 36/44/44 41/38/42 49/43/42 44/45/44
f 37/37/41 42/46/45 50/47/45 45/40/41
f 34/24/17 30/23/16 38/33/31 42/46/46
f 31/29/19 28/39/39 36/44/47 39/32/30
f 29/36/34 34/24/17 42/46/46 37/37/35
f 28/39/39 33/22/13 41/38/36 36/44/47
f 44/45/48 49/43/49 57/48/49 52/49/48
f 45/40/50 50/47/51 58/50/51 53/51/50
f 47/52/52 44/45/48 52/49/48 55/53/52
f 50/47/51 46/54/53 54/55/53 58/50/51
f 17/35/43 40/34/40 48/41/40 35/42/43
f 38/33/54 39/32/55 47/52/55 46/54/54
f 42/46/45 38/33/54 46/54/54 50/47/45
f 39/32/55 36/44/44 44/45/44 47/52/55
f 55/53/56 52/49/57 60/56/58 63/57/59
f 58/50/60 54/55/61 62/58/62 66/59/63
f 54/55/61 55/53/56 63/57/59 62/58/62
f 43/60/64 56/61/65 64/62/66 51/63/67
f 49/43/49 35/42/68 43/60/68 57/48/49
f 48/41/69 45/40/50 53/51/50 56/61/69
f 35/42/68 48/41/69 56/61/69 43/60/68
f 46/54/53 47/52/52 55/53/52 54/55/53
f 62/58/62 63/57/59 71/64/70 70/65/71
f 51/63/67 64/62/66 72/66/72 59/67/73
f 64/62/66 61/68/74 69/69/75 72/66/72
f 65/70/76 51/63/67 59/67/73 73/71/77
f 53/51/78 58/50/60 66/59/63 61/68/74
f 52/49/57 57/48/79 65/70/76 60/56/58
f 57/48/79 43/60/64 51/63/67 65/70/76
f 56/61/65 53/51/78 61/68/74 64/62/66
f 73/71/80 59/67/81 67/72/82
f 68/73/83 73/71/80 67/72/82
f 69/69/84 74/74/85 67/72/82
f 71/64/86 68/73/83 67/72/82
f 66/59/63 62/58/62 70/65/71 74/74/87
f 63/57/59 60/56/58 68/73/88 71/64/70
f 61/68/74 66/59/63 74/74/87 69/69/75
f 60/56/58 65/70/76 73/71/77 68/73/88
f 72/66/89 69/69/84 67/72/82
f 59/67/81 72/66/89 67/72/82
f 70/65/90 71/64/86 67/72/82
f 74/74/85 70/65/90 67/72/82
f 78/75/91 76/76/91 86/77/91 84/78/91
f 75/79/50 79/80/50 87/81/50 83/82/50
f 82/83/92 81/84/92 90/85/92 89/86/92
f 86/77/49 89/86/49 90/85/49 84/78/49
f 88/87/9 83/82/9 87/81/9 85/88/9
f 77/89/48 80/90/48 88/87/48 85/88/48
f 80/90/53 75/79/53 83/82/53 88/87/53
f 79/80/68 77/89/68 85/88/68 87/81/68
f 76/76/93 82/83/93 89/86/93 86/77/93
f 81/84/94 78/75/94 84/78/94 90/85/94
