# Blender v2.90.0 Alpha OBJ File: 'Decos.blend'
# www.blender.org
o Cube.001_Cube.014
v -0.372706 0.184204 0.000000
v -0.221868 0.389027 0.000000
v -0.156884 0.389027 -0.156884
v -0.263543 0.184204 -0.263543
v 0.000000 0.184204 -0.372706
v 0.000000 0.389027 -0.221868
v 0.156884 0.389027 -0.156884
v 0.263543 0.184204 -0.263543
v 0.372706 0.184204 0.000000
v 0.221868 0.389027 0.000000
v 0.156884 0.389027 0.156884
v 0.263543 0.184204 0.263543
v 0.000000 0.184204 0.372706
v 0.000000 0.389027 0.221868
v -0.156884 0.389027 0.156884
v -0.263543 0.184204 0.263543
v 0.000000 -0.020619 -0.000000
v 0.376709 -0.020619 -0.000000
v 0.266373 -0.020619 0.266373
v 0.000000 -0.020619 0.376709
v -0.095185 0.708777 0.095185
v -0.134612 0.708777 0.000000
v 0.095185 0.708777 -0.095185
v 0.134612 0.708777 0.000000
v -0.376709 -0.020619 -0.000000
v -0.266373 -0.020619 0.266373
v -0.266373 -0.020619 -0.266373
v 0.000000 -0.020619 -0.376709
v 0.000000 0.708777 -0.134612
v 0.000000 0.708777 0.134612
v 0.266373 -0.020619 -0.266373
v 0.000000 1.046760 -0.134288
v 0.094956 1.046760 -0.094956
v 0.000000 1.046760 0.134288
v -0.094956 1.046760 0.094956
v 0.095185 0.708777 0.095185
v 0.094956 1.046760 0.094956
v -0.134287 1.046760 0.000000
v -0.095185 0.708777 -0.095185
v 0.138922 1.078606 0.138922
v 0.000000 1.078606 0.196465
v -0.138922 1.078606 0.138922
v -0.196465 1.078606 0.000000
v -0.094956 1.046760 -0.094956
v -0.138922 1.078606 -0.138922
v 0.134288 1.046760 0.000000
v 0.196465 1.078606 0.000000
v -0.196465 1.120509 0.000000
v -0.138922 1.120509 -0.138922
v 0.196465 1.120509 0.000000
v 0.138922 1.120509 0.138922
v 0.000000 1.078606 -0.196465
v 0.000000 1.120509 -0.196465
v 0.138922 1.078606 -0.138922
v 0.138922 1.120509 -0.138922
v 0.000000 1.218677 -0.137714
v -0.097379 1.218677 -0.097379
v -0.106496 1.316845 -0.106496
v 0.000000 1.316845 -0.150608
v 0.137714 1.218677 0.000000
v 0.097379 1.218677 -0.097379
v 0.106496 1.316845 -0.106496
v 0.150608 1.316845 0.000000
v -0.097379 1.218677 0.097379
v 0.000000 1.218677 0.137714
v 0.000000 1.316845 0.150608
v -0.106496 1.316845 0.106496
v -0.138922 1.120509 0.138922
v 0.000000 1.120509 0.196465
v 0.000000 1.458184 -0.215849
v 0.152628 1.458184 -0.152628
v 0.000000 1.458184 0.215849
v -0.152628 1.458184 0.152628
v 0.106496 1.316845 0.106496
v 0.152628 1.458184 0.152628
v -0.150608 1.316845 0.000000
v -0.215849 1.458184 0.000000
v 0.097379 1.218677 0.097379
v -0.137714 1.218677 0.000000
v 0.000000 1.601000 0.000000
v -0.152628 1.458184 -0.152628
v 0.215849 1.458184 0.000000
vt 0.101562 0.789062
vt 0.101562 0.789062
vt 0.101562 0.789062
vt 0.101562 0.789062
vt 0.101562 0.789062
vt 0.101562 0.789062
vt 0.101562 0.789062
vt 0.101562 0.789062
vt 0.101562 0.789062
vt 0.101562 0.789062
vt 0.101562 0.789062
vt 0.101562 0.789062
vt 0.101562 0.789062
vt 0.101562 0.789062
vt 0.101562 0.789062
vt 0.101562 0.789062
vt 0.101562 0.789062
vt 0.101562 0.789062
vt 0.101562 0.789062
vt 0.101562 0.789062
vt 0.101562 0.789062
vt 0.101562 0.789062
vt 0.101562 0.789062
vt 0.101562 0.789062
vt 0.101562 0.789062
vt 0.101562 0.789062
vt 0.101562 0.789062
vt 0.101562 0.789062
vt 0.101562 0.789062
vt 0.101562 0.789062
vt 0.101562 0.789062
vt 0.101562 0.789062
vt 0.101562 0.789062
vt 0.101562 0.789062
vt 0.101562 0.789062
vt 0.101562 0.789062
vt 0.101562 0.789062
vt 0.101562 0.789062
vt 0.101562 0.789062
vt 0.101562 0.789062
vt 0.101562 0.789062
vt 0.101562 0.789062
vt 0.101562 0.789062
vt 0.101562 0.789062
vt 0.101562 0.789062
vt 0.101562 0.789062
vt 0.101562 0.789062
vt 0.101562 0.789062
vt 0.101562 0.789062
vt 0.101562 0.789062
vt 0.101562 0.789062
vt 0.101562 0.789062
vt 0.101562 0.789062
vt 0.101562 0.789062
vt 0.101562 0.789062
vt 0.101562 0.789062
vt 0.101562 0.789062
vt 0.101562 0.789062
vt 0.101562 0.789062
vt 0.101562 0.789062
vt 0.101562 0.789062
vt 0.101562 0.789062
vt 0.101562 0.789062
vt 0.101562 0.789062
vt 0.101562 0.789062
vt 0.101562 0.789062
vt 0.101562 0.789062
vt 0.101562 0.789062
vt 0.101562 0.789062
vt 0.101562 0.789062
vt 0.101562 0.789062
vt 0.101562 0.789062
vt 0.101562 0.789062
vt 0.101562 0.789062
vt 0.101562 0.789062
vt 0.101562 0.789062
vt 0.101562 0.789062
vt 0.101562 0.789062
vt 0.101562 0.789062
vt 0.101562 0.789062
vt 0.101562 0.789062
vt 0.101562 0.789062
vn -0.8052 0.5930 0.0000
vn -0.8910 0.4541 0.0000
vn -0.6300 0.4541 -0.6300
vn -0.5694 0.5930 -0.5694
vn 0.0000 0.5930 -0.8052
vn 0.0000 0.4541 -0.8910
vn 0.6300 0.4541 -0.6300
vn 0.5694 0.5930 -0.5694
vn 0.8052 0.5930 0.0000
vn 0.8910 0.4541 0.0000
vn 0.6300 0.4541 0.6300
vn 0.5694 0.5930 0.5694
vn 0.0000 0.5930 0.8052
vn 0.0000 0.4541 0.8910
vn -0.6300 0.4541 0.6300
vn -0.5694 0.5930 0.5694
vn 0.0000 -1.0000 -0.0000
vn -0.7004 0.1378 0.7004
vn -0.9905 0.1378 0.0000
vn 0.7004 0.1378 -0.7004
vn 0.9905 0.1378 0.0000
vn 0.0000 0.1378 -0.9905
vn 0.0000 0.1378 0.9905
vn -0.7070 0.0195 0.7070
vn -0.9998 0.0195 0.0000
vn 0.7070 0.0195 -0.7070
vn 0.9998 0.0195 0.0000
vn -0.7070 0.0195 -0.7070
vn -0.0000 0.0195 -0.9998
vn 0.7070 0.0195 0.7070
vn -0.0000 0.0195 0.9998
vn 0.0000 0.0010 -1.0000
vn 0.7071 0.0010 -0.7071
vn 0.0000 0.0010 1.0000
vn -0.7071 0.0010 0.7071
vn 0.7004 0.1378 0.7004
vn 0.7071 0.0010 0.7071
vn -1.0000 0.0010 0.0000
vn -0.7004 0.1378 -0.7004
vn 0.0000 -0.8900 0.4559
vn 0.3223 -0.8900 0.3223
vn -0.4559 -0.8900 0.0000
vn -0.3223 -0.8900 0.3223
vn -0.3223 -0.8900 -0.3223
vn 0.4559 -0.8900 0.0000
vn 1.0000 0.0010 0.0000
vn -0.7071 0.0010 -0.7071
vn -0.7071 0.0000 -0.7071
vn -1.0000 0.0000 -0.0000
vn 0.7071 -0.0000 0.7071
vn 1.0000 0.0000 -0.0000
vn 0.0000 0.0000 -1.0000
vn 0.7071 0.0000 -0.7071
vn 0.3223 -0.8900 -0.3223
vn 0.0000 -0.8900 -0.4559
vn 0.0000 -0.1302 -0.9915
vn -0.7011 -0.1302 -0.7011
vn 0.9915 -0.1302 -0.0000
vn 0.7011 -0.1302 -0.7011
vn -0.7011 -0.1302 0.7011
vn 0.0000 -0.1302 0.9915
vn -0.7071 -0.0000 0.7071
vn 0.0000 0.0000 1.0000
vn 0.6420 -0.4191 -0.6420
vn 0.0000 -0.4191 -0.9079
vn -0.6420 -0.4191 0.6420
vn 0.0000 -0.4191 0.9079
vn 0.6420 -0.4191 0.6420
vn -0.9079 -0.4191 -0.0000
vn 0.7011 -0.1302 0.7011
vn -0.9915 -0.1302 -0.0000
vn -0.5518 0.8340 -0.0000
vn -0.3902 0.8340 0.3902
vn 0.0000 1.0000 0.0000
vn -0.3902 0.8340 -0.3902
vn 0.3902 0.8340 0.3902
vn 0.5518 0.8340 0.0000
vn 0.0000 0.8340 -0.5518
vn 0.9079 -0.4191 0.0000
vn -0.6420 -0.4191 -0.6420
vn 0.0000 0.8340 0.5518
vn 0.3902 0.8340 -0.3902
vn 0.8581 0.5135 0.0000
vn 0.6067 0.5135 -0.6067
vn -0.6067 0.5135 -0.6067
vn -0.8581 0.5135 -0.0000
vn 0.0000 0.5135 0.8581
vn 0.6067 0.5135 0.6067
vn -0.6067 0.5135 0.6067
vn 0.0000 0.5135 -0.8581
s 1
f 1/1/1 2/2/2 3/3/3 4/4/4
f 5/5/5 6/6/6 7/7/7 8/8/8
f 9/9/9 10/10/10 11/11/11 12/12/12
f 13/13/13 14/14/14 15/15/15 16/16/16
f 17/17/17 18/18/17 19/19/17 20/20/17
f 2/2/2 15/15/15 21/21/18 22/22/19
f 10/10/10 7/7/7 23/23/20 24/24/21
f 25/25/17 17/17/17 20/20/17 26/26/17
f 12/12/12 11/11/11 14/14/14 13/13/13
f 4/4/4 3/3/3 6/6/6 5/5/5
f 27/27/17 28/28/17 17/17/17 25/25/17
f 7/7/7 6/6/6 29/29/22 23/23/20
f 15/15/15 14/14/14 30/30/23 21/21/18
f 28/28/17 31/31/17 18/18/17 17/17/17
f 8/8/8 7/7/7 10/10/10 9/9/9
f 16/16/16 15/15/15 2/2/2 1/1/1
f 26/26/24 16/16/24 1/1/25 25/25/25
f 31/31/26 8/8/26 9/9/27 18/18/27
f 27/27/28 4/4/28 5/5/29 28/28/29
f 19/19/30 12/12/30 13/13/31 20/20/31
f 20/20/31 13/13/31 16/16/24 26/26/24
f 18/18/27 9/9/27 12/12/30 19/19/30
f 28/28/29 5/5/29 8/8/26 31/31/26
f 25/25/25 1/1/25 4/4/28 27/27/28
f 23/23/20 29/29/22 32/32/32 33/33/33
f 21/21/18 30/30/23 34/34/34 35/35/35
f 30/30/23 36/36/36 37/37/37 34/34/34
f 22/22/19 21/21/18 35/35/35 38/38/38
f 11/11/11 10/10/10 24/24/21 36/36/36
f 14/14/14 11/11/11 36/36/36 30/30/23
f 6/6/6 3/3/3 39/39/39 29/29/22
f 3/3/3 2/2/2 22/22/19 39/39/39
f 34/34/40 37/37/41 40/40/41 41/41/40
f 38/38/42 35/35/43 42/42/43 43/43/42
f 44/44/44 38/38/42 43/43/42 45/45/44
f 37/37/41 46/46/45 47/47/45 40/40/41
f 24/24/21 23/23/20 33/33/33 46/46/46
f 29/29/22 39/39/39 44/44/47 32/32/32
f 36/36/36 24/24/21 46/46/46 37/37/37
f 39/39/39 22/22/19 38/38/38 44/44/47
f 45/45/48 43/43/49 48/48/49 49/49/48
f 40/40/50 47/47/51 50/50/51 51/51/50
f 52/52/52 45/45/48 49/49/48 53/53/52
f 47/47/51 54/54/53 55/55/53 50/50/51
f 35/35/43 34/34/40 41/41/40 42/42/43
f 33/33/54 32/32/55 52/52/55 54/54/54
f 46/46/45 33/33/54 54/54/54 47/47/45
f 32/32/55 44/44/44 45/45/44 52/52/55
f 56/56/56 57/57/57 58/58/57 59/59/56
f 60/60/58 61/61/59 62/62/59 63/63/58
f 61/61/59 56/56/56 59/59/56 62/62/59
f 64/64/60 65/65/61 66/66/61 67/67/60
f 43/43/49 42/42/62 68/68/62 48/48/49
f 41/41/63 40/40/50 51/51/50 69/69/63
f 42/42/62 41/41/63 69/69/63 68/68/62
f 54/54/53 52/52/52 53/53/52 55/55/53
f 62/62/64 59/59/65 70/70/65 71/71/64
f 67/67/66 66/66/67 72/72/67 73/73/66
f 66/66/67 74/74/68 75/75/68 72/72/67
f 76/76/69 67/67/66 73/73/66 77/77/69
f 78/78/70 60/60/58 63/63/58 74/74/70
f 57/57/57 79/79/71 76/76/71 58/58/57
f 79/79/71 64/64/60 67/67/60 76/76/71
f 65/65/61 78/78/70 74/74/70 66/66/61
f 77/77/72 73/73/73 80/80/74
f 81/81/75 77/77/72 80/80/74
f 75/75/76 82/82/77 80/80/74
f 70/70/78 81/81/75 80/80/74
f 63/63/79 62/62/64 71/71/64 82/82/79
f 59/59/65 58/58/80 81/81/80 70/70/65
f 74/74/68 63/63/79 82/82/79 75/75/68
f 58/58/80 76/76/69 77/77/69 81/81/80
f 72/72/81 75/75/76 80/80/74
f 73/73/73 72/72/81 80/80/74
f 71/71/82 70/70/78 80/80/74
f 82/82/77 71/71/82 80/80/74
f 50/50/83 55/55/84 61/61/84 60/60/83
f 49/49/85 48/48/86 79/79/86 57/57/85
f 69/69/87 51/51/88 78/78/88 65/65/87
f 48/48/86 68/68/89 64/64/89 79/79/86
f 55/55/84 53/53/90 56/56/90 61/61/84
f 68/68/89 69/69/87 65/65/87 64/64/89
f 53/53/90 49/49/85 57/57/85 56/56/90
f 51/51/88 50/50/83 60/60/83 78/78/88
