# Blender v2.90.0 Alpha OBJ File: 'Decos.blend'
# www.blender.org
o Cube.004_Cube.010
v -0.293999 0.184204 0.000000
v -0.157726 0.306965 0.000000
v -0.111529 0.306965 -0.111529
v -0.207889 0.184204 -0.207889
v 0.000000 0.184204 -0.293999
v 0.000000 0.306965 -0.157726
v 0.111529 0.306965 -0.111529
v 0.207889 0.184204 -0.207889
v 0.293999 0.184204 0.000000
v 0.157726 0.306965 0.000000
v 0.111529 0.306965 0.111529
v 0.207889 0.184204 0.207889
v 0.000000 0.184204 0.293999
v 0.000000 0.306965 0.157726
v -0.111529 0.306965 0.111529
v -0.207889 0.184204 0.207889
v 0.000000 0.027653 0.000000
v 0.325194 0.027653 0.000000
v 0.229947 0.027653 0.229947
v 0.000000 0.027653 0.325194
v -0.098168 0.765111 0.000000
v -0.069415 0.765111 0.069415
v -0.120298 0.818192 0.120298
v -0.170127 0.818192 0.000000
v 0.098168 0.765111 0.000000
v 0.069415 0.765111 -0.069415
v 0.120298 0.818192 -0.120298
v 0.170127 0.818192 0.000000
v -0.325194 0.027653 0.000000
v -0.229947 0.027653 0.229947
v -0.229947 0.027653 -0.229947
v 0.000000 0.027653 -0.325194
v 0.000000 0.765111 -0.098168
v 0.000000 0.818192 -0.170127
v 0.000000 0.765111 0.098168
v 0.000000 0.818192 0.170127
v 0.229947 0.027653 -0.229947
v 0.000000 0.914038 -0.092223
v 0.065212 0.914038 -0.065212
v 0.000000 0.914038 0.092223
v -0.065212 0.914038 0.065212
v 0.120298 0.818192 0.120298
v 0.065212 0.914038 0.065212
v -0.092223 0.914038 0.000000
v 0.069415 0.765111 0.069415
v -0.069415 0.765111 -0.069415
v -0.120298 0.818192 -0.120298
v 0.092223 0.914038 0.000000
v -0.065212 0.914038 -0.065212
v 0.000000 0.470351 -0.094110
v -0.066546 0.470351 -0.066546
v 0.066546 0.470351 -0.066546
v -0.094110 0.470351 0.000000
v 0.094110 0.470351 0.000000
v 0.000000 0.470351 0.094110
v 0.066546 0.470351 0.066546
v -0.066546 0.470351 0.066546
v 0.000000 0.720503 0.000000
v 0.000000 0.930389 -0.109542
v 0.109542 0.930389 0.000000
v 0.000000 1.078763 -0.154915
v 0.000000 1.262050 -0.109542
v 0.109542 1.262050 0.000000
v 0.154915 1.078763 0.000000
v 0.000000 1.418496 0.000000
v 0.000000 0.930389 0.109542
v 0.000000 1.262050 0.109542
v 0.000000 1.078763 0.154915
v -0.109542 0.930389 0.000000
v -0.109542 1.262050 0.000000
v -0.154915 1.078763 0.000000
vt 0.101562 0.789062
vt 0.101562 0.789062
vt 0.101562 0.789062
vt 0.101562 0.789062
vt 0.101562 0.789062
vt 0.101562 0.789062
vt 0.101562 0.789062
vt 0.101562 0.789062
vt 0.101562 0.789062
vt 0.101562 0.789062
vt 0.101562 0.789062
vt 0.101562 0.789062
vt 0.101562 0.789062
vt 0.101562 0.789062
vt 0.101562 0.789062
vt 0.101562 0.789062
vt 0.101562 0.789062
vt 0.101562 0.789062
vt 0.101562 0.789062
vt 0.101562 0.789062
vt 0.101562 0.789062
vt 0.101562 0.789062
vt 0.101562 0.789062
vt 0.101562 0.789062
vt 0.101562 0.789062
vt 0.101562 0.789062
vt 0.101562 0.789062
vt 0.101562 0.789062
vt 0.101562 0.789062
vt 0.101562 0.789062
vt 0.101562 0.789062
vt 0.101562 0.789062
vt 0.101562 0.789062
vt 0.101562 0.789062
vt 0.101562 0.789062
vt 0.101562 0.789062
vt 0.101562 0.789062
vt 0.101562 0.789062
vt 0.101562 0.789062
vt 0.101562 0.789062
vt 0.101562 0.789062
vt 0.101562 0.789062
vt 0.101562 0.789062
vt 0.101562 0.789062
vt 0.101562 0.789062
vt 0.101562 0.789062
vt 0.101562 0.789062
vt 0.101562 0.789062
vt 0.101562 0.789062
vt 0.101562 0.789062
vt 0.101562 0.789062
vt 0.101562 0.789062
vt 0.101562 0.789062
vt 0.101562 0.789062
vt 0.101562 0.789062
vt 0.101562 0.789062
vt 0.101562 0.789062
vt 0.101562 0.789062
vt 0.101562 0.789062
vt 0.101562 0.789062
vt 0.101562 0.789062
vt 0.101562 0.789062
vt 0.101562 0.789062
vt 0.101562 0.789062
vt 0.101562 0.789062
vt 0.101562 0.789062
vt 0.101562 0.789062
vt 0.101562 0.789062
vt 0.101562 0.789062
vt 0.101562 0.789062
vt 0.101562 0.789062
vn -0.6693 0.7430 0.0000
vn -0.4733 0.7430 -0.4733
vn 0.0000 0.7430 -0.6693
vn 0.4733 0.7430 -0.4733
vn 0.6693 0.7430 0.0000
vn 0.4733 0.7430 0.4733
vn -0.0000 0.7430 0.6693
vn -0.4733 0.7430 0.4733
vn 0.0000 -1.0000 -0.0000
vn -0.8616 -0.5077 -0.0000
vn -0.6092 -0.5077 0.6092
vn -0.4198 -0.8047 0.4198
vn -0.5936 -0.8047 -0.0000
vn 0.8616 -0.5077 0.0000
vn 0.6092 -0.5077 -0.6092
vn 0.4198 -0.8047 -0.4198
vn 0.5936 -0.8047 0.0000
vn -0.0000 -0.5077 -0.8616
vn 0.0000 -0.8047 -0.5936
vn 0.0000 -0.5077 0.8616
vn 0.0000 -0.8047 0.5936
vn -0.6935 0.1954 0.6935
vn -0.9807 0.1954 0.0000
vn 0.6935 0.1954 -0.6935
vn 0.9807 0.1954 0.0000
vn -0.6935 0.1954 -0.6935
vn 0.0000 0.1954 -0.9807
vn 0.6935 0.1954 0.6935
vn 0.0000 0.1954 0.9807
vn 0.5487 0.6307 -0.5487
vn 0.0000 0.6307 -0.7760
vn 0.0000 0.8608 -0.5089
vn 0.3598 0.8608 -0.3598
vn -0.5487 0.6307 0.5487
vn 0.0000 0.6307 0.7760
vn 0.0000 0.8608 0.5089
vn -0.3598 0.8608 0.3598
vn 0.5487 0.6307 0.5487
vn 0.3598 0.8608 0.3598
vn -0.7760 0.6307 -0.0000
vn -0.5089 0.8608 -0.0000
vn 0.6092 -0.5077 0.6092
vn 0.4198 -0.8047 0.4198
vn -0.6092 -0.5077 -0.6092
vn -0.4198 -0.8047 -0.4198
vn 0.7760 0.6307 0.0000
vn 0.5089 0.8608 0.0000
vn -0.5487 0.6307 -0.5487
vn -0.3598 0.8608 -0.3598
vn 0.0000 0.1866 -0.9824
vn -0.6947 0.1866 -0.6947
vn 0.6947 0.1866 -0.6947
vn -0.9824 0.1866 0.0000
vn 0.9824 0.1866 -0.0000
vn 0.0000 0.1866 0.9824
vn 0.6947 0.1866 0.6947
vn -0.6947 0.1866 0.6947
vn -0.6589 0.3628 0.6589
vn 0.0000 0.3628 0.9319
vn -0.9319 0.3628 0.0000
vn 0.6589 0.3628 0.6589
vn 0.9319 0.3628 0.0000
vn 0.6589 0.3628 -0.6589
vn -0.6589 0.3628 -0.6589
vn 0.0000 0.3628 -0.9319
vn 0.6634 -0.3462 -0.6634
vn 0.6814 -0.2673 -0.6814
vn 0.7070 -0.0172 -0.7070
vn 0.6781 0.2833 -0.6781
vn 0.6337 0.4437 -0.6337
vn 0.6634 -0.3462 0.6634
vn 0.6814 -0.2673 0.6814
vn 0.7070 -0.0172 0.7070
vn 0.6781 0.2833 0.6781
vn 0.6337 0.4437 0.6337
vn -0.6634 -0.3462 0.6634
vn -0.6814 -0.2673 0.6814
vn -0.7070 -0.0172 0.7070
vn -0.6781 0.2833 0.6781
vn -0.6337 0.4437 0.6337
vn -0.6634 -0.3462 -0.6634
vn -0.6814 -0.2673 -0.6814
vn -0.7070 -0.0172 -0.7070
vn -0.6781 0.2833 -0.6781
vn -0.6337 0.4437 -0.6337
s 1
f 1/1/1 2/2/1 3/3/2 4/4/2
f 5/5/3 6/6/3 7/7/4 8/8/4
f 9/9/5 10/10/5 11/11/6 12/12/6
f 13/13/7 14/14/7 15/15/8 16/16/8
f 17/17/9 18/18/9 19/19/9 20/20/9
f 21/21/10 22/22/11 23/23/12 24/24/13
f 25/25/14 26/26/15 27/27/16 28/28/17
f 29/29/9 17/17/9 20/20/9 30/30/9
f 12/12/6 11/11/6 14/14/7 13/13/7
f 4/4/2 3/3/2 6/6/3 5/5/3
f 31/31/9 32/32/9 17/17/9 29/29/9
f 26/26/15 33/33/18 34/34/19 27/27/16
f 22/22/11 35/35/20 36/36/21 23/23/12
f 32/32/9 37/37/9 18/18/9 17/17/9
f 8/8/4 7/7/4 10/10/5 9/9/5
f 16/16/8 15/15/8 2/2/1 1/1/1
f 30/30/22 16/16/22 1/1/23 29/29/23
f 37/37/24 8/8/24 9/9/25 18/18/25
f 31/31/26 4/4/26 5/5/27 32/32/27
f 19/19/28 12/12/28 13/13/29 20/20/29
f 20/20/29 13/13/29 16/16/22 30/30/22
f 18/18/25 9/9/25 12/12/28 19/19/28
f 32/32/27 5/5/27 8/8/24 37/37/24
f 29/29/23 1/1/23 4/4/26 31/31/26
f 27/27/30 34/34/31 38/38/32 39/39/33
f 23/23/34 36/36/35 40/40/36 41/41/37
f 36/36/35 42/42/38 43/43/39 40/40/36
f 24/24/40 23/23/34 41/41/37 44/44/41
f 45/45/42 25/25/14 28/28/17 42/42/43
f 35/35/20 45/45/42 42/42/43 36/36/21
f 33/33/18 46/46/44 47/47/45 34/34/19
f 46/46/44 21/21/10 24/24/13 47/47/45
f 28/28/46 27/27/30 39/39/33 48/48/47
f 34/34/31 47/47/48 49/49/49 38/38/32
f 42/42/38 28/28/46 48/48/47 43/43/39
f 47/47/48 24/24/40 44/44/41 49/49/49
f 50/50/50 51/51/51 46/46/44 33/33/18
f 52/52/52 50/50/50 33/33/18 26/26/15
f 51/51/51 53/53/53 21/21/10 46/46/44
f 54/54/54 52/52/52 26/26/15 25/25/14
f 55/55/55 56/56/56 45/45/42 35/35/20
f 56/56/56 54/54/54 25/25/14 45/45/42
f 53/53/53 57/57/57 22/22/11 21/21/10
f 57/57/57 55/55/55 35/35/20 22/22/11
f 15/15/58 14/14/59 55/55/55 57/57/57
f 2/2/60 15/15/58 57/57/57 53/53/53
f 11/11/61 10/10/62 54/54/54 56/56/56
f 14/14/59 11/11/61 56/56/56 55/55/55
f 10/10/62 7/7/63 52/52/52 54/54/54
f 3/3/64 2/2/60 53/53/53 51/51/51
f 7/7/63 6/6/65 50/50/50 52/52/52
f 6/6/65 3/3/64 51/51/51 50/50/50
f 48/48/47 39/39/33 43/43/39
f 38/38/32 40/40/36 43/43/39 39/39/33
f 40/40/36 38/38/32 49/49/49 41/41/37
f 44/44/41 41/41/37 49/49/49
f 58/58/66 59/59/67 60/60/67
f 61/61/68 62/62/69 63/63/69 64/64/68
f 59/59/67 61/61/68 64/64/68 60/60/67
f 62/62/69 65/65/70 63/63/69
f 58/58/71 60/60/72 66/66/72
f 64/64/73 63/63/74 67/67/74 68/68/73
f 60/60/72 64/64/73 68/68/73 66/66/72
f 63/63/74 65/65/75 67/67/74
f 58/58/76 66/66/77 69/69/77
f 68/68/78 67/67/79 70/70/79 71/71/78
f 66/66/77 68/68/78 71/71/78 69/69/77
f 67/67/79 65/65/80 70/70/79
f 58/58/81 69/69/82 59/59/82
f 71/71/83 70/70/84 62/62/84 61/61/83
f 69/69/82 71/71/83 61/61/83 59/59/82
f 70/70/84 65/65/85 62/62/84
