# Blender v2.91.0 Beta OBJ File: 'decos.blend'
# www.blender.org
o Cube.001_Cube.010
v -0.995477 -1.000000 0.995477
v -0.995477 2.591863 0.995477
v -0.995477 2.591863 -0.995477
v -0.995477 -1.000000 -0.995477
v 0.995477 2.591863 -0.995477
v 0.995477 -1.000000 -0.995477
v 0.995477 2.591863 0.995477
v 0.995477 -1.000000 0.995477
v 1.444347 3.995470 -1.444346
v 1.444347 3.995470 1.444348
v -1.444347 3.995470 1.444348
v -1.444347 3.995470 -1.444346
v 1.444347 4.612723 -1.444346
v -1.444347 4.612723 -1.444346
v -1.444347 4.612723 1.444348
v 1.444347 4.612723 1.444348
v 1.495787 2.591863 -1.495787
v 1.495787 2.591863 1.495788
v -1.495787 2.591863 1.495788
v -1.495787 2.591863 -1.495787
v 1.495787 2.944830 -1.495787
v -1.495787 2.944830 -1.495787
v -1.495787 2.944830 1.495788
v 1.495787 2.944830 1.495788
v -0.960499 2.913355 -0.480250
v -1.440749 2.913355 -0.480250
v -1.440749 3.987206 -0.480249
v -0.960499 3.987206 -0.480249
v 0.480250 2.913355 0.960499
v 0.480250 2.913355 1.440750
v -0.480250 2.913355 1.440750
v -0.480250 2.913355 0.960499
v -1.440749 2.913355 0.480250
v -1.440749 3.987206 0.480251
v 0.960499 2.913355 -0.480250
v 0.960499 2.913355 0.480250
v 0.960499 3.987206 0.480251
v 0.960499 3.987206 -0.480249
v -0.480250 3.987206 1.440750
v -0.480250 3.987206 0.960500
v 0.480250 3.987206 0.960500
v 0.480250 3.987206 1.440750
v -0.480250 2.913355 -1.440749
v -0.480250 2.913355 -0.960499
v -0.480250 3.987206 -0.960498
v -0.480250 3.987206 -1.440748
v -0.960499 2.913355 0.480250
v 0.480250 2.913355 -0.960499
v 0.480250 3.987206 -0.960498
v 0.480250 2.913355 -1.440749
v 0.480250 3.987206 -1.440748
v 1.440749 2.913355 0.480250
v 1.440749 3.987206 0.480251
v -0.960499 3.987206 0.480251
v 1.440749 2.913355 -0.480250
v 1.440749 3.987206 -0.480249
vt 0.195312 0.882812
vt 0.195312 0.882812
vt 0.195312 0.882812
vt 0.195312 0.882812
vt 0.195312 0.882812
vt 0.195312 0.882812
vt 0.195312 0.882812
vt 0.195312 0.882812
vt 0.195312 0.882812
vt 0.195312 0.882812
vt 0.195312 0.882812
vt 0.195312 0.882812
vt 0.148438 0.804688
vt 0.148438 0.804688
vt 0.148438 0.804688
vt 0.148438 0.804688
vt 0.132812 0.804688
vt 0.132812 0.804688
vt 0.132812 0.804688
vt 0.132812 0.804688
vt 0.132812 0.804688
vt 0.132812 0.804688
vt 0.132812 0.804688
vt 0.132812 0.804688
vt 0.195312 0.882812
vt 0.195312 0.882812
vt 0.195312 0.882812
vt 0.195312 0.882812
vt 0.195312 0.882812
vt 0.195312 0.882812
vt 0.195312 0.882812
vt 0.195312 0.882812
vt 0.195312 0.882812
vt 0.195312 0.882812
vt 0.195312 0.882812
vt 0.195312 0.882812
vt 0.195312 0.882812
vt 0.195312 0.882812
vt 0.195312 0.882812
vt 0.195312 0.882812
vt 0.195312 0.882812
vt 0.195312 0.882812
vt 0.195312 0.882812
vt 0.195312 0.882812
vt 0.195312 0.882812
vt 0.195312 0.882812
vt 0.195312 0.882812
vt 0.195312 0.882812
vt 0.195312 0.882812
vt 0.195312 0.882812
vt 0.195312 0.882812
vt 0.195312 0.882812
vt 0.195312 0.882812
vt 0.195312 0.882812
vt 0.195312 0.882812
vt 0.195312 0.882812
vt 0.195312 0.882812
vt 0.195312 0.882812
vt 0.195312 0.882812
vt 0.195312 0.882812
vt 0.195312 0.882812
vt 0.195312 0.882812
vt 0.195312 0.882812
vt 0.195312 0.882812
vn -1.0000 0.0000 0.0000
vn 0.0000 0.0000 -1.0000
vn 1.0000 -0.0000 0.0000
vn 0.0000 -0.0000 1.0000
vn 0.0000 -1.0000 -0.0000
vn 0.0000 1.0000 0.0000
s 1
f 1/1/1 2/2/1 3/3/1 4/4/1
f 4/4/2 3/3/2 5/5/2 6/6/2
f 6/6/3 5/5/3 7/7/3 8/8/3
f 8/8/4 7/7/4 2/2/4 1/1/4
f 4/4/5 6/6/5 8/8/5 1/1/5
f 5/5/6 3/3/6 2/2/6 7/7/6
f 9/9/5 10/10/5 11/11/5 12/12/5
f 13/13/6 14/14/6 15/15/6 16/16/6
f 10/17/3 9/18/3 13/19/3 16/20/3
f 12/21/1 11/22/1 15/23/1 14/24/1
f 11/22/4 10/17/4 16/20/4 15/23/4
f 9/18/2 12/21/2 14/24/2 13/19/2
f 17/25/5 18/26/5 19/27/5 20/28/5
f 21/29/6 22/30/6 23/31/6 24/32/6
f 18/26/3 17/25/3 21/29/3 24/32/3
f 20/28/1 19/27/1 23/31/1 22/30/1
f 19/27/4 18/26/4 24/32/4 23/31/4
f 17/25/2 20/28/2 22/30/2 21/29/2
f 25/33/2 26/34/2 27/35/2 28/36/2
f 29/37/5 30/38/5 31/39/5 32/40/5
f 26/34/1 33/41/1 34/42/1 27/35/1
f 35/43/1 36/44/1 37/45/1 38/46/1
f 32/40/1 31/39/1 39/47/1 40/48/1
f 30/38/3 29/37/3 41/49/3 42/50/3
f 43/51/1 44/52/1 45/53/1 46/54/1
f 25/33/5 47/55/5 33/41/5 26/34/5
f 29/37/2 32/40/2 40/48/2 41/49/2
f 44/52/4 48/56/4 49/57/4 45/53/4
f 31/39/4 30/38/4 42/50/4 39/47/4
f 48/56/3 50/58/3 51/59/3 49/57/3
f 36/44/4 52/60/4 53/61/4 37/45/4
f 47/55/3 25/33/3 28/36/3 54/62/3
f 52/60/3 55/63/3 56/64/3 53/61/3
f 55/63/2 35/43/2 38/46/2 56/64/2
f 55/63/5 52/60/5 36/44/5 35/43/5
f 50/58/2 43/51/2 46/54/2 51/59/2
f 33/41/4 47/55/4 54/62/4 34/42/4
f 51/59/6 46/54/6 45/53/6 49/57/6
f 56/64/6 38/46/6 37/45/6 53/61/6
f 28/36/6 27/35/6 34/42/6 54/62/6
f 41/49/6 40/48/6 39/47/6 42/50/6
f 50/58/5 48/56/5 44/52/5 43/51/5
