# Blender v2.90.0 Alpha OBJ File: 'Decos.blend'
# www.blender.org
o Circle
v 0.000000 1.690649 -28.183508
v -10.785362 1.690649 -26.038166
v -19.928749 1.690649 -19.928749
v -26.038166 1.690649 -10.785361
v -28.183508 1.690649 0.000001
v -26.038166 1.690649 10.785364
v -19.928749 1.690649 19.928749
v -10.785363 1.690649 26.038166
v -0.000004 1.690649 28.183508
v 10.785356 1.690649 26.038168
v 19.928743 1.690649 19.928757
v 26.038166 1.690649 10.785365
v 28.183508 1.690649 -0.000000
v 26.038164 1.690649 -10.785366
v 19.928743 1.690649 -19.928757
v 10.785349 1.690649 -26.038172
v -0.000001 1.690649 -0.000000
v 19.928743 -4.699747 -19.928757
v 26.038164 -4.699747 -10.785366
v 28.183508 -4.699747 -0.000000
v 26.038166 -4.699747 10.785365
v 19.928743 -4.699747 19.928757
v 10.785356 -4.699747 26.038168
v -0.000004 -4.699747 28.183508
v -10.785363 -4.699747 26.038166
v -19.928749 -4.699747 19.928749
v -26.038166 -4.699747 10.785364
v -28.183508 -4.699747 0.000001
v -26.038166 -4.699747 -10.785361
v -19.928749 -4.699747 -19.928749
v -10.785362 -4.699747 -26.038166
v 0.000000 -4.699747 -28.183508
v 10.785349 -4.699747 -26.038172
vt 0.164062 0.851562
vt 0.164062 0.851562
vt 0.164062 0.851562
vt 0.164062 0.851562
vt 0.164062 0.851562
vt 0.164062 0.851562
vt 0.164062 0.851562
vt 0.164062 0.851562
vt 0.164062 0.851562
vt 0.164062 0.851562
vt 0.164062 0.851562
vt 0.164062 0.851562
vt 0.164062 0.851562
vt 0.164062 0.851562
vt 0.164062 0.851562
vt 0.164062 0.851562
vt 0.164062 0.851562
vt 0.210938 0.851562
vt 0.210938 0.851562
vt 0.210938 0.851562
vt 0.210938 0.851562
vt 0.210938 0.851562
vt 0.210938 0.851562
vt 0.210938 0.851562
vt 0.210938 0.851562
vt 0.210938 0.851562
vt 0.210938 0.851562
vt 0.210938 0.851562
vt 0.210938 0.851562
vt 0.210938 0.851562
vt 0.210938 0.851562
vt 0.210938 0.851562
vt 0.210938 0.851562
vt 0.210938 0.851562
vt 0.210938 0.851562
vt 0.210938 0.851562
vt 0.210938 0.851562
vt 0.210938 0.851562
vt 0.210938 0.851562
vt 0.210938 0.851562
vt 0.210938 0.851562
vt 0.210938 0.851562
vt 0.210938 0.851562
vt 0.210938 0.851562
vt 0.210938 0.851562
vt 0.210938 0.851562
vt 0.210938 0.851562
vt 0.210938 0.851562
vt 0.210938 0.851562
vn 0.0000 1.0000 0.0000
vn 0.3827 0.0000 0.9239
vn 0.7071 0.0000 0.7071
vn -0.7071 0.0000 -0.7071
vn -0.9239 0.0000 -0.3827
vn 0.9239 0.0000 0.3827
vn -1.0000 0.0000 0.0000
vn 1.0000 0.0000 -0.0000
vn -0.9239 0.0000 0.3827
vn 0.9239 0.0000 -0.3827
vn -0.7071 0.0000 0.7071
vn 0.7071 0.0000 -0.7071
vn -0.3827 0.0000 0.9239
vn 0.3827 0.0000 -0.9239
vn -0.0000 0.0000 1.0000
vn -0.0000 0.0000 -1.0000
vn -0.3827 0.0000 -0.9239
s 1
f 11/1/1 17/2/1 10/3/1
f 4/4/1 17/2/1 3/5/1
f 12/6/1 17/2/1 11/1/1
f 5/7/1 17/2/1 4/4/1
f 13/8/1 17/2/1 12/6/1
f 6/9/1 17/2/1 5/7/1
f 14/10/1 17/2/1 13/8/1
f 7/11/1 17/2/1 6/9/1
f 15/12/1 17/2/1 14/10/1
f 8/13/1 17/2/1 7/11/1
f 16/14/1 17/2/1 15/12/1
f 9/15/1 17/2/1 8/13/1
f 2/16/1 17/2/1 1/17/1
f 1/17/1 17/2/1 16/14/1
f 10/3/1 17/2/1 9/15/1
f 3/5/1 17/2/1 2/16/1
f 10/18/2 23/19/2 22/20/3 11/21/3
f 3/22/4 30/23/4 29/24/5 4/25/5
f 11/21/3 22/20/3 21/26/6 12/27/6
f 4/25/5 29/24/5 28/28/7 5/29/7
f 12/27/6 21/26/6 20/30/8 13/31/8
f 5/29/7 28/28/7 27/32/9 6/33/9
f 13/31/8 20/30/8 19/34/10 14/35/10
f 6/33/9 27/32/9 26/36/11 7/37/11
f 14/35/10 19/34/10 18/38/12 15/39/12
f 7/37/11 26/36/11 25/40/13 8/41/13
f 15/39/12 18/38/12 33/42/14 16/43/14
f 8/41/13 25/40/13 24/44/15 9/45/15
f 1/46/16 32/47/16 31/48/17 2/49/17
f 16/43/14 33/42/14 32/47/16 1/46/16
f 9/45/15 24/44/15 23/19/2 10/18/2
f 2/49/17 31/48/17 30/23/4 3/22/4
