# Blender v2.90.0 Alpha OBJ File: 'Decos.blend'
# www.blender.org
o Circle
v 0.000000 1.690649 -28.183508
v -19.928749 1.690649 -19.928749
v -28.183508 1.690649 0.000001
v -19.928749 1.690649 19.928749
v -0.000004 1.690649 28.183508
v 19.928743 1.690649 19.928757
v 28.183508 1.690649 -0.000000
v 19.928743 1.690649 -19.928757
v -0.000001 1.690649 -0.000000
vt 0.164062 0.851562
vt 0.164062 0.851562
vt 0.164062 0.851562
vt 0.164062 0.851562
vt 0.164062 0.851562
vt 0.164062 0.851562
vt 0.164062 0.851562
vt 0.164062 0.851562
vt 0.164062 0.851562
vn -0.0000 1.0000 0.0000
s 1
f 3/1/1 9/2/1 2/3/1
f 7/4/1 9/2/1 6/5/1
f 4/6/1 9/2/1 3/1/1
f 8/7/1 9/2/1 7/4/1
f 5/8/1 9/2/1 4/6/1
f 1/9/1 9/2/1 8/7/1
f 2/3/1 9/2/1 1/9/1
f 9/2/1 5/8/1 6/5/1
