# Blender v2.91.0 Beta OBJ File: 'farmhouse.blend'
# www.blender.org
o Plane.006
v -2.829503 1.665098 0.072343
v -2.886688 0.000000 0.000000
v -2.829503 -0.000000 0.072343
v -2.886688 1.665098 0.000001
v -2.829503 0.000000 -0.072343
v -2.829503 1.665098 -0.072342
v -2.772318 0.000000 0.000000
v -2.772318 1.665098 0.000001
v 2.886688 0.000000 0.000000
v 2.829503 1.665098 0.072343
v 2.829503 -0.000000 0.072343
v 2.829503 0.000000 -0.072343
v 2.886688 1.665098 0.000001
v 2.772318 0.000000 0.000000
v 2.829503 1.665098 -0.072342
v 2.772318 1.665098 0.000001
v 1.956287 1.226709 0.001371
v 1.976678 1.055260 0.001371
v 2.141641 1.088764 0.001371
v -0.355025 0.768797 0.001371
v -0.487627 0.645946 0.001371
v -0.228358 0.629674 0.001371
v -0.914584 1.014700 0.001371
v -1.135323 0.413554 0.001371
v -0.714773 0.373303 0.001371
v -0.681497 1.162647 0.001371
v -0.801625 1.183933 0.001371
v -0.821794 1.086939 0.001371
v -0.996488 1.099135 0.001371
v -1.134947 1.232219 0.001371
v -0.146643 1.145169 0.001371
v -0.545598 1.158455 0.001371
v -1.005771 1.208326 0.001371
v 2.488497 1.340209 0.001371
v 2.343924 1.135256 0.001371
v 2.508888 1.168760 0.001371
v 2.508888 0.985092 0.001371
v 2.141641 0.905096 0.001371
v 1.942250 1.381305 0.001371
v 2.474461 1.494806 0.001371
v -1.674414 1.317995 0.001371
v -2.519773 0.558726 0.001371
v -1.707339 0.386560 0.001371
v -1.442410 0.751751 0.001371
v -1.663436 0.497752 0.001371
v -1.244949 0.439869 0.001371
v -1.297669 1.253433 0.001371
v -1.500610 1.286380 0.001371
v 0.785518 1.216681 0.001371
v -0.000000 1.150084 0.001371
v 0.769263 0.263992 0.001371
v -0.050516 0.243438 0.001371
v 1.731727 1.334917 0.001371
v 0.922282 0.262517 0.001371
v 1.767573 0.196798 0.001371
v 1.956287 1.226709 -0.003721
v 2.141641 1.088764 -0.003721
v 1.976678 1.055260 -0.003721
v -0.355025 0.768797 -0.003721
v -0.228358 0.629674 -0.003721
v -0.487627 0.645946 -0.003721
v -0.914584 1.014700 -0.003721
v -0.714773 0.373303 -0.003721
v -1.135323 0.413554 -0.003721
v -0.681497 1.162647 -0.003721
v -0.821794 1.086939 -0.003721
v -0.801625 1.183933 -0.003721
v -0.996488 1.099135 -0.003721
v -1.134947 1.232219 -0.003721
v -0.146643 1.145169 -0.003721
v -0.250834 1.143956 -0.003721
v -0.545598 1.158455 -0.003721
v -0.450311 1.150662 -0.003721
v -1.005771 1.208326 -0.003721
v 2.488497 1.340209 -0.003721
v 2.508888 1.168760 -0.003721
v 2.343924 1.135256 -0.003721
v 2.508888 0.985092 -0.003721
v 2.141641 0.905096 -0.003721
v 1.942250 1.381305 -0.003721
v 2.474461 1.494806 -0.003721
v -1.674414 1.317995 -0.003721
v -2.519773 0.558726 -0.003721
v -2.474461 1.494806 -0.003721
v -1.442410 0.751751 -0.003721
v -1.244949 0.439869 -0.003721
v -1.663436 0.497752 -0.003721
v -1.297669 1.253433 -0.003721
v -1.500610 1.286380 -0.003721
v 0.785518 1.216681 -0.003721
v 0.769263 0.263992 -0.003721
v -0.000000 1.150084 -0.003721
v -0.050516 0.243438 -0.003721
v 1.731727 1.334917 -0.003721
v 0.922282 0.262517 -0.003721
v 0.897292 1.230372 -0.003721
v -0.250834 1.143956 0.001371
v -0.450311 1.150662 0.001371
v 2.343924 0.951587 0.001371
v 1.976678 0.871591 0.001371
v -2.474461 1.494806 0.001371
v 0.897292 1.230372 0.001371
v 2.343924 0.951587 -0.003721
v 1.976678 0.871591 -0.003721
v -1.707339 0.386560 -0.003721
v 1.767573 0.196798 -0.003721
v -2.829503 1.579181 0.000001
v 2.829503 1.579181 0.000001
vt 0.179688 0.898438
vt 0.179688 0.898438
vt 0.179688 0.898438
vt 0.179688 0.898438
vt 0.179688 0.898438
vt 0.179688 0.898438
vt 0.179688 0.898438
vt 0.179688 0.898438
vt 0.179688 0.898438
vt 0.179688 0.898438
vt 0.179688 0.898438
vt 0.179688 0.898438
vt 0.179688 0.898438
vt 0.179688 0.898438
vt 0.179688 0.898438
vt 0.179688 0.898438
vt 0.164062 0.914062
vt 0.164062 0.914062
vt 0.164062 0.914062
vt 0.117188 0.851562
vt 0.117188 0.851562
vt 0.117188 0.851562
vt 0.179688 0.882812
vt 0.179688 0.882812
vt 0.179688 0.882812
vt 0.179688 0.882812
vt 0.179688 0.882812
vt 0.179688 0.882812
vt 0.179688 0.882812
vt 0.179688 0.882812
vt 0.117188 0.851562
vt 0.117188 0.851562
vt 0.179688 0.882812
vt 0.164062 0.914062
vt 0.164062 0.914062
vt 0.164062 0.914062
vt 0.117188 0.898438
vt 0.117188 0.898438
vt 0.117188 0.898438
vt 0.117188 0.898438
vt 0.117188 0.898438
vt 0.117188 0.898438
vt 0.117188 0.898438
vt 0.117188 0.898438
vt 0.117188 0.898438
vt 0.179688 0.835938
vt 0.179688 0.835938
vt 0.179688 0.835938
vt 0.210938 0.882812
vt 0.210938 0.882812
vt 0.210938 0.882812
vt 0.210938 0.882812
vt 0.210938 0.882812
vt 0.210938 0.882812
vt 0.210938 0.882812
vt 0.164062 0.914062
vt 0.164062 0.914062
vt 0.164062 0.914062
vt 0.132812 0.867188
vt 0.132812 0.867188
vt 0.132812 0.867188
vt 0.179688 0.835938
vt 0.179688 0.835938
vt 0.179688 0.835938
vt 0.164062 0.914062
vt 0.164062 0.914062
vt 0.164062 0.914062
vt 0.117188 0.851562
vt 0.117188 0.851562
vt 0.117188 0.851562
vt 0.179688 0.882812
vt 0.179688 0.882812
vt 0.179688 0.882812
vt 0.179688 0.882812
vt 0.179688 0.882812
vt 0.179688 0.882812
vt 0.179688 0.882812
vt 0.179688 0.882812
vt 0.117188 0.851562
vt 0.117188 0.851562
vt 0.117188 0.851562
vt 0.117188 0.851562
vt 0.179688 0.882812
vt 0.164062 0.914062
vt 0.164062 0.914062
vt 0.164062 0.914062
vt 0.117188 0.898438
vt 0.117188 0.898438
vt 0.117188 0.898438
vt 0.117188 0.898438
vt 0.117188 0.898438
vt 0.117188 0.898438
vt 0.117188 0.898438
vt 0.117188 0.898438
vt 0.117188 0.898438
vt 0.179688 0.835938
vt 0.179688 0.835938
vt 0.179688 0.835938
vt 0.210938 0.882812
vt 0.210938 0.882812
vt 0.210938 0.882812
vt 0.210938 0.882812
vt 0.210938 0.882812
vt 0.210938 0.882812
vt 0.210938 0.882812
vt 0.164062 0.914062
vt 0.164062 0.914062
vt 0.164062 0.914062
vt 0.132812 0.867188
vt 0.132812 0.867188
vt 0.132812 0.867188
vt 0.179688 0.835938
vt 0.179688 0.835938
vt 0.179688 0.835938
vt 0.117188 0.851562
vt 0.117188 0.851562
vt 0.117188 0.898438
vt 0.117188 0.898438
vt 0.117188 0.898438
vt 0.179688 0.835938
vt 0.179688 0.835938
vt 0.117188 0.898438
vt 0.117188 0.898438
vt 0.117188 0.898438
vt 0.179688 0.835938
vt 0.179688 0.835938
vn -0.7845 -0.0000 0.6201
vn -0.7845 0.0000 -0.6201
vn 0.7845 0.0000 -0.6201
vn 0.7845 -0.0000 0.6201
vn 0.0000 -1.0000 -0.0000
vn 0.0000 1.0000 0.0000
vn 0.0000 -0.0000 1.0000
vn 0.0000 0.0000 -1.0000
s 1
f 1/1/1 2/2/1 3/3/1
f 4/4/2 5/5/2 2/2/2
f 6/6/3 7/7/3 5/5/3
f 8/8/4 3/3/4 7/7/4
f 2/2/5 7/7/5 3/3/5
f 4/4/6 8/8/6 6/6/6
f 9/9/4 10/10/4 11/11/4
f 12/12/3 13/13/3 9/9/3
f 14/14/2 15/15/2 12/12/2
f 11/11/1 16/16/1 14/14/1
f 9/9/5 14/14/5 12/12/5
f 16/16/6 13/13/6 15/15/6
f 17/17/7 18/18/7 19/19/7
f 20/20/7 21/21/7 22/22/7
f 23/23/7 24/24/7 25/25/7
f 26/26/7 27/27/7 28/28/7
f 24/24/7 29/29/7 30/30/7
f 31/31/7 20/20/7 22/22/7
f 20/20/7 32/32/7 21/21/7
f 25/25/7 28/28/7 23/23/7
f 30/30/7 29/29/7 33/33/7
f 34/34/7 35/35/7 36/36/7
f 17/17/7 35/35/7 34/34/7
f 35/37/7 37/38/7 36/39/7
f 18/40/7 38/41/7 19/42/7
f 39/43/7 34/44/7 40/45/7
f 41/46/7 42/47/7 43/48/7
f 44/49/7 45/50/7 46/51/7
f 30/52/7 47/53/7 44/49/7
f 41/54/7 45/50/7 44/49/7
f 46/51/7 30/52/7 44/49/7
f 41/54/7 44/49/7 48/55/7
f 49/56/7 50/57/7 51/58/7
f 51/59/7 50/60/7 52/61/7
f 53/62/7 54/63/7 55/64/7
f 56/65/8 57/66/8 58/67/8
f 59/68/8 60/69/8 61/70/8
f 62/71/8 63/72/8 64/73/8
f 65/74/8 66/75/8 67/76/8
f 68/77/8 64/73/8 69/78/8
f 70/79/8 59/68/8 71/80/8
f 59/68/8 72/81/8 73/82/8
f 63/72/8 66/75/8 65/74/8
f 69/78/8 74/83/8 68/77/8
f 75/84/8 76/85/8 77/86/8
f 77/86/8 56/65/8 75/84/8
f 78/87/8 77/88/8 76/89/8
f 79/90/8 58/91/8 57/92/8
f 75/93/8 80/94/8 81/95/8
f 82/96/8 83/97/8 84/98/8
f 85/99/8 86/100/8 87/101/8
f 69/102/8 85/99/8 88/103/8
f 82/104/8 85/99/8 87/101/8
f 86/100/8 85/99/8 69/102/8
f 82/104/8 89/105/8 85/99/8
f 90/106/8 91/107/8 92/108/8
f 91/109/8 93/110/8 92/111/8
f 94/112/8 95/113/8 96/114/8
f 1/1/1 4/4/1 2/2/1
f 4/4/2 6/6/2 5/5/2
f 6/6/3 8/8/3 7/7/3
f 8/8/4 1/1/4 3/3/4
f 2/2/5 5/5/5 7/7/5
f 4/4/6 1/1/6 8/8/6
f 9/9/4 13/13/4 10/10/4
f 12/12/3 15/15/3 13/13/3
f 14/14/2 16/16/2 15/15/2
f 11/11/1 10/10/1 16/16/1
f 9/9/5 11/11/5 14/14/5
f 16/16/6 10/10/6 13/13/6
f 24/24/7 23/23/7 29/29/7
f 31/31/7 97/115/7 20/20/7
f 20/20/7 98/116/7 32/32/7
f 25/25/7 26/26/7 28/28/7
f 17/17/7 19/19/7 35/35/7
f 35/37/7 99/117/7 37/38/7
f 18/40/7 100/118/7 38/41/7
f 39/43/7 17/119/7 34/44/7
f 41/46/7 101/120/7 42/47/7
f 53/62/7 102/121/7 54/63/7
f 68/77/8 62/71/8 64/73/8
f 70/79/8 60/69/8 59/68/8
f 59/68/8 61/70/8 72/81/8
f 63/72/8 62/71/8 66/75/8
f 77/86/8 57/66/8 56/65/8
f 78/87/8 103/122/8 77/88/8
f 79/90/8 104/123/8 58/91/8
f 75/93/8 56/124/8 80/94/8
f 82/96/8 105/125/8 83/97/8
f 94/112/8 106/126/8 95/113/8
l 27 33
l 50 31
l 98 97
l 101 107
l 41 30
l 108 40
l 32 26
