# Blender v2.91.0 Beta OBJ File: 'farmhouse.blend'
# www.blender.org
o Plane.005
v 0.838840 1.241865 -0.004445
v 1.877128 0.441347 -0.004446
v 1.798447 1.357374 -0.004445
v -0.120767 1.203217 -0.004445
v 0.864529 0.359189 -0.004446
v -1.084449 0.362284 -0.004446
v -0.151656 0.326616 -0.004446
v -1.080374 1.241865 -0.004445
v -2.092399 0.447328 -0.004446
v -1.129250 0.366508 -0.004446
v 1.877128 0.441347 -0.014395
v 0.838840 1.241865 -0.014395
v 1.798447 1.357374 -0.014395
v 0.864529 0.359189 -0.014395
v -0.120767 1.203217 -0.014395
v -1.084449 0.362284 -0.014395
v -1.080374 1.241865 -0.014395
v -2.092399 0.447328 -0.014395
v -2.039980 1.357374 -0.014395
v 0.914603 0.353411 -0.004446
v -0.094975 0.318086 -0.004446
v -2.039980 1.357374 -0.004445
v 0.914603 0.353411 -0.014395
v -0.094975 0.318086 -0.014395
v -0.151656 0.326616 -0.014395
v -1.129250 0.366508 -0.014395
v 2.758054 1.537012 -0.004445
v -2.999587 1.537012 -0.004445
vt 0.132812 0.867188
vt 0.132812 0.867188
vt 0.132812 0.867188
vt 0.164062 0.898438
vt 0.164062 0.898438
vt 0.164062 0.898438
vt 0.195312 0.789062
vt 0.195312 0.789062
vt 0.195312 0.789062
vt 0.117188 0.835938
vt 0.117188 0.835938
vt 0.117188 0.835938
vt 0.132812 0.867188
vt 0.132812 0.867188
vt 0.132812 0.867188
vt 0.164062 0.898438
vt 0.164062 0.898438
vt 0.164062 0.898438
vt 0.195312 0.789062
vt 0.195312 0.789062
vt 0.195312 0.789062
vt 0.117188 0.835938
vt 0.117188 0.835938
vt 0.117188 0.835938
vt 0.132812 0.867188
vt 0.164062 0.898438
vt 0.195312 0.789062
vt 0.117188 0.835938
vt 0.132812 0.867188
vt 0.164062 0.898438
vt 0.195312 0.789062
vt 0.117188 0.835938
vn 0.0000 -0.0000 1.0000
vn 0.0000 0.0000 -1.0000
s 1
f 1/1/1 2/2/1 3/3/1
f 4/4/1 5/5/1 1/6/1
f 4/7/1 6/8/1 7/9/1
f 8/10/1 9/11/1 10/12/1
f 11/13/2 12/14/2 13/15/2
f 14/16/2 15/17/2 12/18/2
f 15/19/2 16/20/2 17/21/2
f 17/22/2 18/23/2 19/24/2
f 1/1/1 20/25/1 2/2/1
f 4/4/1 21/26/1 5/5/1
f 4/7/1 8/27/1 6/8/1
f 8/10/1 22/28/1 9/11/1
f 11/13/2 23/29/2 12/14/2
f 14/16/2 24/30/2 15/17/2
f 15/19/2 25/31/2 16/20/2
f 17/22/2 26/32/2 18/23/2
l 27 3
l 22 28
