# Blender v2.91.0 Beta OBJ File: 'farmhouse.blend'
# www.blender.org
o Plane.001_Plane.003
v -2.883698 1.696990 0.073729
v -2.941978 0.000000 0.000000
v -2.883698 -0.000000 0.073728
v -2.941978 1.696990 0.000001
v -2.883698 0.000000 -0.073728
v -2.883698 1.696990 -0.073727
v -2.825418 0.000000 0.000000
v -2.825418 1.696990 0.000001
v 2.941978 0.000000 0.000000
v 2.883698 1.696990 0.073729
v 2.883698 -0.000000 0.073728
v 2.883698 0.000000 -0.073728
v 2.941978 1.696990 0.000001
v 2.825418 1.696990 0.000001
v 2.883698 1.696990 -0.073727
v 2.825418 0.000000 0.000000
v 1.764361 0.653776 0.000000
v 1.785142 0.479043 0.000000
v 1.953266 0.513189 0.000000
v 0.840618 1.242926 0.000001
v 1.750161 0.482106 0.000000
v 1.681237 1.352707 0.000001
v -0.000000 1.172112 0.000001
v 0.906987 0.398531 0.000000
v -0.366396 0.586156 0.000000
v -0.569621 0.397875 0.000000
v -0.172269 0.372937 0.000000
v -0.932102 1.034135 0.000001
v -1.157068 0.421475 0.000000
v -0.728463 0.380453 0.000000
v -0.694550 1.184916 0.000001
v -0.816978 1.206609 0.000001
v -0.837534 1.107758 0.000001
v -1.015574 1.120188 0.000001
v -1.156685 1.255820 0.000001
v -0.047033 1.162979 0.000001
v -0.658466 1.183342 0.000001
v -1.025035 1.231469 0.000001
v 2.604979 0.824505 0.000000
v 2.457637 0.615627 0.000000
v 2.625760 0.649772 0.000000
v 2.625760 0.462586 0.000000
v 1.953266 0.326003 0.000000
v 2.521855 1.523436 0.000001
v -1.706484 1.343239 0.000001
v -2.568035 1.097955 0.000001
v -1.740041 0.922492 0.000001
v -1.470037 0.766150 0.000000
v -1.695297 0.507286 0.000000
v -1.268794 0.448294 0.000000
v -1.322523 1.277440 0.000001
v -1.529352 1.311018 0.000001
v 1.764361 0.653776 -0.018682
v 1.953266 0.513189 -0.018682
v 1.785142 0.479043 -0.018682
v 1.750161 0.482106 -0.018682
v 0.840618 1.242926 -0.018681
v 1.681237 1.352707 -0.018681
v 0.906987 0.398531 -0.018682
v -0.000000 1.172112 -0.018681
v -0.366396 0.586156 -0.018682
v -0.172269 0.372937 -0.018682
v -0.569621 0.397875 -0.018682
v -0.932102 1.034135 -0.018681
v -0.728463 0.380453 -0.018682
v -1.157068 0.421475 -0.018682
v -0.694550 1.184916 -0.018681
v -0.837534 1.107758 -0.018681
v -0.816978 1.206609 -0.018681
v -1.015574 1.120188 -0.018681
v -1.156685 1.255820 -0.018681
v -0.047033 1.162979 -0.018681
v -0.206715 1.161120 -0.018681
v -0.658466 1.183342 -0.018681
v -0.512431 1.171398 -0.018681
v -1.025035 1.231469 -0.018681
v 2.604979 0.824505 -0.018682
v 2.625760 0.649772 -0.018682
v 2.457637 0.615627 -0.018682
v 2.625760 0.462586 -0.018682
v 1.953266 0.326003 -0.018682
v 2.521855 1.523436 -0.018681
v -1.706484 1.343239 -0.018681
v -2.568035 1.097955 -0.018681
v -2.521855 1.523436 -0.018681
v -1.470037 0.766150 -0.018682
v -1.268794 0.448294 -0.018682
v -1.695297 0.507286 -0.018682
v -1.322523 1.277440 -0.018681
v -1.529352 1.311018 -0.018681
v 0.022594 0.364957 0.000000
v -0.206715 1.161120 0.000001
v -0.512431 1.171398 0.000001
v 2.457637 0.428440 0.000000
v 1.785142 0.291857 0.000000
v -2.521855 1.523436 0.000001
v 0.022594 0.364957 -0.018682
v 2.457637 0.428440 -0.018682
v 1.785142 0.291857 -0.018682
v -1.740041 0.922492 -0.018681
v 2.883698 1.609427 0.000001
v -2.883698 1.609427 0.000001
vt 0.179688 0.898438
vt 0.179688 0.898438
vt 0.179688 0.898438
vt 0.179688 0.898438
vt 0.179688 0.898438
vt 0.179688 0.898438
vt 0.179688 0.898438
vt 0.179688 0.898438
vt 0.179688 0.898438
vt 0.179688 0.898438
vt 0.179688 0.898438
vt 0.179688 0.898438
vt 0.179688 0.898438
vt 0.179688 0.898438
vt 0.179688 0.898438
vt 0.179688 0.898438
vt 0.117188 0.898438
vt 0.117188 0.898438
vt 0.117188 0.898438
vt 0.148438 0.789062
vt 0.148438 0.789062
vt 0.148438 0.789062
vt 0.148438 0.789062
vt 0.148438 0.789062
vt 0.195312 0.789062
vt 0.195312 0.789062
vt 0.195312 0.789062
vt 0.148438 0.835938
vt 0.148438 0.835937
vt 0.148438 0.835937
vt 0.148438 0.835938
vt 0.148438 0.835938
vt 0.148438 0.835938
vt 0.148438 0.835938
vt 0.148437 0.835938
vt 0.195312 0.789062
vt 0.195312 0.789062
vt 0.148438 0.835938
vt 0.117188 0.898438
vt 0.117188 0.898438
vt 0.117188 0.898438
vt 0.117188 0.898438
vt 0.117188 0.898438
vt 0.117188 0.898438
vt 0.117188 0.898438
vt 0.148438 0.867188
vt 0.148438 0.867188
vt 0.148438 0.867188
vt 0.195312 0.898438
vt 0.195312 0.898438
vt 0.195312 0.898438
vt 0.195312 0.898438
vt 0.195312 0.898438
vt 0.195312 0.898438
vt 0.195312 0.898438
vt 0.117188 0.898438
vt 0.117188 0.898438
vt 0.117188 0.898438
vt 0.148438 0.789062
vt 0.148438 0.789062
vt 0.148438 0.789062
vt 0.148438 0.789062
vt 0.148438 0.789062
vt 0.195312 0.789062
vt 0.195312 0.789062
vt 0.195312 0.789062
vt 0.148438 0.835938
vt 0.148438 0.835937
vt 0.148438 0.835937
vt 0.148438 0.835938
vt 0.148438 0.835938
vt 0.148438 0.835938
vt 0.148438 0.835938
vt 0.148437 0.835938
vt 0.195312 0.789062
vt 0.195312 0.789062
vt 0.195312 0.789062
vt 0.195312 0.789062
vt 0.148438 0.835938
vt 0.117188 0.898438
vt 0.117188 0.898438
vt 0.117188 0.898438
vt 0.117188 0.898438
vt 0.117188 0.898438
vt 0.117188 0.898438
vt 0.117188 0.898438
vt 0.148438 0.867188
vt 0.148438 0.867188
vt 0.148438 0.867188
vt 0.195312 0.898438
vt 0.195312 0.898438
vt 0.195312 0.898438
vt 0.195312 0.898438
vt 0.195312 0.898438
vt 0.195312 0.898438
vt 0.195312 0.898438
vt 0.148438 0.789062
vt 0.195312 0.789062
vt 0.195312 0.789062
vt 0.117188 0.898438
vt 0.117188 0.898438
vt 0.148438 0.867188
vt 0.148438 0.789062
vt 0.117188 0.898438
vt 0.117188 0.898438
vt 0.148438 0.867188
vn -0.7845 -0.0000 0.6201
vn -0.7845 0.0000 -0.6201
vn 0.7845 0.0000 -0.6201
vn 0.7845 -0.0000 0.6201
vn 0.0000 -1.0000 -0.0000
vn 0.0000 1.0000 0.0000
vn 0.0000 -0.0000 1.0000
vn -0.0000 0.0000 -1.0000
s 1
f 1/1/1 2/2/1 3/3/1
f 4/4/2 5/5/2 2/2/2
f 6/6/3 7/7/3 5/5/3
f 8/8/4 3/3/4 7/7/4
f 2/2/5 7/7/5 3/3/5
f 4/4/6 8/8/6 6/6/6
f 9/9/4 10/10/4 11/11/4
f 12/12/3 13/13/3 9/9/3
f 12/12/2 14/14/2 15/15/2
f 11/11/1 14/14/1 16/16/1
f 9/9/5 16/16/5 12/12/5
f 14/14/6 13/13/6 15/15/6
f 17/17/7 18/18/7 19/19/7
f 20/20/7 21/21/7 22/22/7
f 23/23/7 24/24/7 20/20/7
f 25/25/7 26/26/7 27/27/7
f 28/28/7 29/29/7 30/30/7
f 31/31/7 32/32/7 33/33/7
f 29/29/7 34/34/7 35/35/7
f 36/36/7 25/25/7 27/27/7
f 25/25/7 37/37/7 26/26/7
f 30/30/7 33/33/7 28/28/7
f 35/35/7 34/34/7 38/38/7
f 39/39/7 40/40/7 41/41/7
f 17/17/7 40/40/7 39/39/7
f 40/40/7 42/42/7 41/41/7
f 18/18/7 43/43/7 19/19/7
f 22/44/7 39/39/7 44/45/7
f 45/46/7 46/47/7 47/48/7
f 48/49/7 49/50/7 50/51/7
f 35/52/7 51/53/7 48/49/7
f 45/54/7 49/50/7 48/49/7
f 50/51/7 35/52/7 48/49/7
f 45/54/7 48/49/7 52/55/7
f 53/56/8 54/57/8 55/58/8
f 56/59/8 57/60/8 58/61/8
f 59/62/8 60/63/8 57/60/8
f 61/64/8 62/65/8 63/66/8
f 64/67/8 65/68/8 66/69/8
f 67/70/8 68/71/8 69/72/8
f 70/73/8 66/69/8 71/74/8
f 72/75/8 61/64/8 73/76/8
f 61/64/8 74/77/8 75/78/8
f 65/68/8 68/71/8 67/70/8
f 71/74/8 76/79/8 70/73/8
f 77/80/8 78/81/8 79/82/8
f 79/82/8 53/56/8 77/80/8
f 80/83/8 79/82/8 78/81/8
f 81/84/8 55/58/8 54/57/8
f 77/80/8 58/85/8 82/86/8
f 83/87/8 84/88/8 85/89/8
f 86/90/8 87/91/8 88/92/8
f 71/93/8 86/90/8 89/94/8
f 83/95/8 86/90/8 88/92/8
f 87/91/8 86/90/8 71/93/8
f 83/95/8 90/96/8 86/90/8
f 1/1/1 4/4/1 2/2/1
f 4/4/2 6/6/2 5/5/2
f 6/6/3 8/8/3 7/7/3
f 8/8/4 1/1/4 3/3/4
f 2/2/5 5/5/5 7/7/5
f 4/4/6 1/1/6 8/8/6
f 9/9/4 13/13/4 10/10/4
f 12/12/3 15/15/3 13/13/3
f 12/12/2 16/16/2 14/14/2
f 11/11/1 10/10/1 14/14/1
f 9/9/5 11/11/5 16/16/5
f 14/14/6 10/10/6 13/13/6
f 20/20/7 24/24/7 21/21/7
f 23/23/7 91/97/7 24/24/7
f 29/29/7 28/28/7 34/34/7
f 36/36/7 92/98/7 25/25/7
f 25/25/7 93/99/7 37/37/7
f 30/30/7 31/31/7 33/33/7
f 17/17/7 19/19/7 40/40/7
f 40/40/7 94/100/7 42/42/7
f 18/18/7 95/101/7 43/43/7
f 22/44/7 17/17/7 39/39/7
f 45/46/7 96/102/7 46/47/7
f 56/59/8 59/62/8 57/60/8
f 59/62/8 97/103/8 60/63/8
f 70/73/8 64/67/8 66/69/8
f 72/75/8 62/65/8 61/64/8
f 61/64/8 63/66/8 74/77/8
f 65/68/8 64/67/8 68/71/8
f 79/82/8 54/57/8 53/56/8
f 80/83/8 98/104/8 79/82/8
f 81/84/8 99/105/8 55/58/8
f 77/80/8 53/56/8 58/85/8
f 83/87/8 100/106/8 84/88/8
l 23 36
l 37 31
l 45 35
l 32 38
l 93 92
l 101 44
l 96 102
