# Blender v2.90.0 Alpha OBJ File: 'Decos.blend'
# www.blender.org
o Cube.003_Cube.001
v 2.206872 0.136676 0.678645
v 2.206872 0.136676 -0.678645
v 2.092401 7.224757 0.678645
v 2.206872 7.102380 0.678645
v 2.092401 7.224757 -0.678645
v 2.206872 7.102380 -0.678645
v 1.080211 5.521134 0.593591
v 1.188159 5.647000 0.678645
v 1.080211 5.521134 -0.593591
v 1.188159 5.647000 -0.678645
v 0.000000 5.963935 0.593591
v 0.000000 5.963935 -0.593591
v 1.513910 4.484743 -0.593591
v 1.591378 4.704577 -0.678645
v 1.593877 0.130978 -0.678645
v 1.513910 4.484743 0.593591
v 1.591378 4.704577 0.678645
v 1.593877 0.130978 0.678645
v 1.513910 0.130437 0.593591
v 1.513910 0.130437 -0.593591
v 0.699986 5.958507 -0.678645
v 0.577620 5.843016 -0.593591
v 1.484806 5.214566 -0.678645
v 0.699986 5.958507 0.678645
v 0.577620 5.843016 0.593591
v 1.484806 5.214566 0.678645
v 1.400935 5.048170 0.593591
v 1.400935 5.048170 -0.593591
v 1.471847 5.142395 -0.620458
v -2.395939 3.944639 -1.140211
v -1.327134 3.944639 1.001501
v -1.327134 3.944639 -1.140211
v 2.262839 3.698112 -0.839699
v 1.460234 3.698112 -0.839699
v 2.340431 3.698112 0.849937
v 1.382641 3.698112 -0.988647
v 1.382641 3.698112 0.849937
v 2.340431 3.698112 -0.988647
v -2.395939 3.944639 1.001501
v 2.419387 3.944639 1.001501
v 1.303685 3.944639 -1.140211
v 1.303685 3.944639 1.001501
v 2.419387 3.944639 -1.140211
v 1.471847 5.142395 0.620458
v 1.588707 4.597857 0.624553
v 1.592293 0.130718 0.626918
v 1.154225 5.603421 0.618717
v 0.650010 5.927160 0.619401
v 1.588707 4.597857 -0.624553
v 1.592293 0.130718 -0.626918
v 1.154225 5.603421 -0.618717
v 0.650010 5.927160 -0.619401
v -2.206872 0.136676 -0.678645
v -2.092401 7.224757 -0.678645
v -2.320302 3.698112 -0.988647
v -1.402771 3.698112 0.849937
v -1.402771 3.698112 -0.988647
v -2.320302 3.698112 0.849937
v -1.477102 3.698112 -0.839699
v -2.245970 3.698112 -0.839699
v -1.477102 3.698112 0.700989
v -2.245970 3.698112 0.700989
v -1.477102 3.541552 -0.839699
v -2.245970 3.541552 -0.839699
v -1.477102 3.541552 0.700989
v -2.245970 3.541552 0.700989
v 1.460234 3.698112 0.700989
v 2.262839 3.698112 0.700989
v 1.460234 3.541552 -0.839699
v 2.262839 3.541552 -0.839699
v 1.460234 3.541552 0.700989
v 2.262839 3.541552 0.700989
v -2.206872 0.136676 0.678645
v -2.206872 7.102380 -0.678645
v -2.092401 7.224757 0.678645
v -2.206872 7.102380 0.678645
v -1.080211 5.521134 -0.593591
v -1.188159 5.647000 -0.678645
v -1.080211 5.521134 0.593591
v -1.188159 5.647000 0.678645
v 0.000000 6.101037 -0.678645
v -1.513910 4.484743 -0.593591
v 0.000000 6.101037 0.678645
v -1.591378 4.704577 -0.678645
v -1.593877 0.130978 -0.678645
v -1.513910 4.484743 0.593591
v -1.591378 4.704577 0.678645
v -1.593877 0.130978 0.678645
v -1.513910 0.130437 0.593591
v -1.513910 0.130437 -0.593591
v -0.699986 5.958507 -0.678645
v -0.577620 5.843016 -0.593591
v -1.484806 5.214566 -0.678645
v -0.699986 5.958507 0.678645
v -0.577620 5.843016 0.593591
v -1.484806 5.214566 0.678645
v -1.400935 5.048170 0.593591
v -1.400935 5.048170 -0.593591
v -1.471847 5.142395 -0.620458
v -1.471847 5.142395 0.620458
v -1.588707 4.597857 0.624553
v -1.592293 0.130718 0.626918
v -1.154225 5.603421 0.618717
v -0.650010 5.927160 0.619401
v 0.000000 6.062635 0.620458
v -1.588707 4.597857 -0.624553
v -1.592293 0.130718 -0.626918
v -1.154225 5.603421 -0.618717
v -0.650010 5.927160 -0.619401
v 0.000000 6.062635 -0.620458
v 2.272897 7.108870 0.737186
v 2.272897 7.108870 -0.737186
v -2.272897 7.108870 -0.737186
v -2.272897 7.108870 0.737186
v 2.272897 7.259523 -0.737186
v -2.272897 7.259523 -0.737186
v 2.272897 7.259523 0.737186
v -2.272897 7.259523 0.737186
v 2.272897 6.726440 0.737186
v 2.272897 6.726440 -0.737186
v -2.272897 6.726440 -0.737186
v -2.272897 6.726440 0.737186
v 2.272897 6.877094 -0.737186
v -2.272897 6.877094 -0.737186
v 2.272897 6.877094 0.737186
v -2.272897 6.877094 0.737186
vt 0.164062 0.789062
vt 0.164062 0.789062
vt 0.164062 0.789062
vt 0.164062 0.789062
vt 0.164062 0.789062
vt 0.164062 0.789062
vt 0.148438 0.804688
vt 0.148438 0.804688
vt 0.148438 0.804688
vt 0.148438 0.804688
vt 0.164062 0.789062
vt 0.164062 0.789062
vt 0.164062 0.789062
vt 0.164062 0.789062
vt 0.148438 0.804688
vt 0.148438 0.804688
vt 0.148438 0.804688
vt 0.148438 0.804688
vt 0.148438 0.804688
vt 0.148438 0.804688
vt 0.148438 0.804688
vt 0.148438 0.804688
vt 0.164062 0.789062
vt 0.164062 0.789062
vt 0.164062 0.789062
vt 0.164062 0.789062
vt 0.148438 0.804688
vt 0.148438 0.804688
vt 0.148438 0.804688
vt 0.148438 0.804688
vt 0.148438 0.804688
vt 0.148438 0.804688
vt 0.148438 0.804688
vt 0.148438 0.804688
vt 0.148438 0.804688
vt 0.148438 0.804688
vt 0.164062 0.789062
vt 0.164062 0.789062
vt 0.164062 0.789062
vt 0.164062 0.789062
vt 0.164062 0.789062
vt 0.164062 0.789062
vt 0.164062 0.789062
vt 0.164062 0.789062
vt 0.164062 0.789062
vt 0.148438 0.804688
vt 0.148438 0.804688
vt 0.164062 0.789062
vt 0.164062 0.789062
vt 0.148438 0.804688
vt 0.148438 0.804688
vt 0.148438 0.804688
vt 0.148438 0.804688
vt 0.164062 0.789062
vt 0.164062 0.789062
vt 0.164062 0.789062
vt 0.164062 0.789062
vt 0.164062 0.789062
vt 0.164062 0.789062
vt 0.164062 0.789062
vt 0.164062 0.789062
vt 0.164062 0.789062
vt 0.164062 0.789062
vt 0.164062 0.789062
vt 0.164062 0.789062
vt 0.164062 0.789062
vt 0.164062 0.789062
vt 0.164062 0.789062
vt 0.164062 0.789062
vt 0.148438 0.804688
vt 0.148438 0.804688
vt 0.148438 0.804688
vt 0.148438 0.804688
vt 0.164062 0.789062
vt 0.164062 0.789062
vt 0.148438 0.804688
vt 0.148438 0.804688
vt 0.148438 0.804688
vt 0.148438 0.804688
vt 0.164062 0.789062
vt 0.164062 0.789062
vt 0.164062 0.789062
vt 0.164062 0.789062
vt 0.164062 0.789062
vt 0.164062 0.789062
vt 0.164062 0.789062
vt 0.164062 0.789062
vt 0.164062 0.789062
vt 0.164062 0.789062
vt 0.148438 0.804688
vt 0.148438 0.804688
vt 0.164062 0.789062
vt 0.164062 0.789062
vt 0.148438 0.804688
vt 0.148438 0.804688
vt 0.148438 0.804688
vt 0.148438 0.804688
vt 0.164062 0.789062
vt 0.164062 0.789062
vt 0.164062 0.789062
vt 0.164062 0.789062
vt 0.164062 0.789062
vt 0.164062 0.789062
vt 0.164062 0.789062
vt 0.164062 0.789062
vt 0.148438 0.804688
vt 0.148438 0.804688
vt 0.148438 0.804688
vt 0.148438 0.804688
vt 0.164062 0.789062
vt 0.164062 0.789062
vt 0.164062 0.789062
vt 0.164062 0.789062
vt 0.148438 0.804688
vt 0.148438 0.804688
vt 0.148438 0.804688
vt 0.148438 0.804688
vt 0.148438 0.804688
vt 0.148438 0.804688
vt 0.148438 0.804688
vt 0.148438 0.804688
vt 0.148438 0.804688
vt 0.148438 0.804688
vt 0.148438 0.804688
vt 0.148438 0.804688
vt 0.164062 0.789062
vt 0.164062 0.789062
vt 0.164062 0.789062
vt 0.164062 0.789062
vt 0.164062 0.789062
vt 0.164062 0.789062
vt 0.164062 0.789062
vt 0.148438 0.804688
vt 0.148438 0.804688
vt 0.148438 0.804688
vt 0.148438 0.804688
vt 0.148438 0.804688
vt 0.148438 0.804688
vt 0.148438 0.804688
vt 0.148438 0.804688
vt 0.164062 0.789062
vt 0.164062 0.789062
vt 0.164062 0.789062
vt 0.164062 0.789062
vt 0.164062 0.789062
vt 0.164062 0.789062
vt 0.164062 0.789062
vt 0.148438 0.804688
vt 0.148438 0.804688
vt 0.148438 0.804688
vt 0.148438 0.804688
vt 0.148438 0.804688
vt 0.148438 0.804688
vt 0.148438 0.804688
vt 0.148438 0.804688
vt 0.148438 0.804688
vt 0.148438 0.804688
vt 0.148438 0.804688
vt 0.148438 0.804688
vt 0.164062 0.789062
vt 0.164062 0.789062
vt 0.164062 0.789062
vt 0.164062 0.789062
vt 0.164062 0.789062
vt 0.164062 0.789062
vt 0.164062 0.789062
vt 0.164062 0.789062
vt 0.148438 0.804688
vt 0.148438 0.804688
vt 0.148438 0.804688
vt 0.148438 0.804688
vt 0.148438 0.804688
vt 0.148438 0.804688
vt 0.164062 0.789062
vt 0.164062 0.789062
vt 0.148438 0.804688
vt 0.148438 0.804688
vt 0.164062 0.789062
vt 0.164062 0.789062
vt 0.164062 0.789062
vt 0.164062 0.789062
vt 0.164062 0.789062
vt 0.164062 0.789062
vt 0.164062 0.789062
vt 0.164062 0.789062
vt 0.164062 0.789062
vt 0.164062 0.789062
vt 0.164062 0.789062
vt 0.164062 0.789062
vt 0.164062 0.789062
vt 0.164062 0.789062
vt 0.164062 0.789062
vt 0.164062 0.789062
vt 0.148438 0.804688
vt 0.148438 0.804688
vt 0.164062 0.789062
vt 0.148438 0.804688
vt 0.148438 0.804688
vt 0.164062 0.789062
vt 0.164062 0.789062
vt 0.164062 0.789062
vt 0.164062 0.789062
vt 0.164062 0.789062
vt 0.164062 0.789062
vt 0.164062 0.789062
vt 0.164062 0.789062
vt 0.164062 0.789062
vt 0.164062 0.789062
vt 0.164062 0.789062
vt 0.164062 0.789062
vt 0.164062 0.789062
vt 0.164062 0.789062
vt 0.164062 0.789062
vt 0.164062 0.789062
vt 0.164062 0.789062
vt 0.164062 0.789062
vn 0.0000 0.0000 1.0000
vn 0.0000 0.0000 -1.0000
vn -0.8277 -0.5612 0.0000
vn -0.8878 -0.1865 -0.4207
vn -0.9805 -0.1966 0.0000
vn -0.9992 -0.0007 -0.0408
vn -0.0529 -0.2571 -0.9649
vn -0.8878 -0.1865 0.4207
vn -0.9992 -0.0007 0.0408
vn -0.6187 -0.4241 -0.6613
vn -0.3986 -0.6234 -0.6726
vn -0.1218 -0.1910 0.9740
vn -0.0529 -0.2571 0.9649
vn -0.6187 -0.4241 0.6613
vn -0.2049 -0.9788 0.0000
vn -0.9523 -0.3050 0.0000
vn 0.9523 -0.3050 0.0000
vn 0.0000 -0.5237 -0.8519
vn 0.0000 -1.0000 0.0000
vn 0.0000 -0.5237 0.8519
vn -0.1917 -0.1292 0.9729
vn -0.1673 -0.8147 0.5552
vn -0.3986 -0.6234 0.6726
vn -0.3870 0.0001 0.9221
vn -0.2960 -0.0579 0.9534
vn -0.3870 0.0001 -0.9221
vn -0.2960 -0.0579 -0.9534
vn -0.1673 -0.8147 -0.5552
vn -0.1917 -0.1292 -0.9729
vn -0.1218 -0.1910 -0.9740
vn 0.0000 1.0000 0.0000
vn -0.9560 -0.2933 0.0000
vn 0.9560 -0.2933 0.0000
vn -1.0000 0.0000 0.0000
vn 1.0000 0.0000 0.0000
vn 0.8277 -0.5612 0.0000
vn 0.0529 -0.2571 -0.9649
vn 0.6187 -0.4241 -0.6613
vn 0.1673 -0.8147 -0.5551
vn 0.8878 -0.1865 0.4207
vn 0.9992 -0.0007 0.0408
vn 0.3986 -0.6234 -0.6726
vn 0.1218 -0.1910 0.9740
vn 0.0529 -0.2571 0.9649
vn 0.6187 -0.4241 0.6613
vn 0.5393 -0.8421 0.0000
vn 0.8878 -0.1865 -0.4207
vn 0.1917 -0.1292 0.9729
vn 0.1673 -0.8147 0.5551
vn 0.3986 -0.6234 0.6726
vn 0.3870 0.0001 0.9221
vn 0.2960 -0.0579 0.9534
vn 0.2960 -0.0579 -0.9534
vn 0.3870 0.0001 -0.9221
vn 0.1917 -0.1292 -0.9729
vn 0.2049 -0.9788 0.0000
vn 0.1218 -0.1910 -0.9740
vn 0.9992 -0.0007 -0.0408
vn 0.9805 -0.1966 0.0000
vn -0.7303 0.6831 0.0000
vn 0.7303 0.6831 0.0000
vn -0.5393 -0.8421 0.0000
s off
f 4/1/1 26/2/1 17/3/1
f 6/4/2 14/5/2 23/6/2
f 27/7/3 7/8/3 9/9/3 28/10/3
f 17/3/1 18/11/1 1/12/1 4/1/1
f 8/13/1 4/1/1 24/14/1
f 29/15/4 23/16/4 14/17/4 49/18/4
f 16/19/5 27/7/5 28/10/5 13/20/5
f 49/18/6 14/17/6 15/21/6 50/22/6
f 4/1/1 8/13/1 26/2/1
f 52/23/7 22/24/7 12/25/7 110/26/7
f 44/27/8 45/28/8 17/29/8 26/30/8
f 45/28/9 46/31/9 18/32/9 17/29/9
f 51/33/10 10/34/10 23/16/10 29/15/10
f 10/34/11 51/33/11 52/35/11 21/36/11
f 47/37/12 48/38/12 25/39/12 7/40/12
f 48/38/13 105/41/13 11/42/13 25/39/13
f 74/43/2 93/44/2 84/45/2
f 47/46/14 44/27/14 26/30/14 8/47/14
f 84/45/2 85/48/2 53/49/2 74/43/2
f 11/50/15 12/51/15 22/52/15 25/53/15
f 60/54/2 59/55/2 63/56/2 64/57/2
f 42/58/16 41/59/16 36/60/16 37/61/16
f 43/62/17 40/63/17 35/64/17 38/65/17
f 67/66/1 71/67/1 72/68/1 68/69/1
f 41/59/18 43/62/18 38/65/18 36/60/18
f 35/70/19 68/71/19 33/72/19 38/73/19
f 40/63/20 42/58/20 37/61/20 35/64/20
f 7/40/21 27/74/21 44/75/21 47/37/21
f 24/76/22 83/77/22 105/78/22 48/79/22
f 8/47/23 24/76/23 48/79/23 47/46/23
f 16/80/24 19/81/24 46/82/24 45/83/24
f 27/74/25 16/80/25 45/83/25 44/75/25
f 13/84/26 49/85/26 50/86/26 20/87/26
f 28/88/27 29/89/27 49/85/27 13/84/27
f 21/36/28 52/35/28 110/90/28 81/91/28
f 9/92/29 51/93/29 29/89/29 28/88/29
f 51/93/30 9/92/30 22/24/30 52/23/30
f 58/94/19 55/95/19 60/96/19 62/97/19
f 30/98/31 39/99/31 31/100/31 32/101/31
f 39/99/20 58/102/20 56/103/20 31/100/20
f 30/98/32 55/104/32 58/102/32 39/99/32
f 31/100/33 56/103/33 57/105/33 32/101/33
f 32/101/18 57/105/18 55/104/18 30/98/18
f 57/106/19 56/107/19 61/108/19 59/109/19
f 61/110/1 62/111/1 66/112/1 65/113/1
f 56/107/19 58/94/19 62/97/19 61/108/19
f 55/95/19 57/106/19 59/109/19 60/96/19
f 64/114/19 63/115/19 65/116/19 66/117/19
f 62/111/34 60/54/34 64/57/34 66/112/34
f 59/55/35 61/110/35 65/113/35 63/56/35
f 36/118/19 34/119/19 67/120/19 37/121/19
f 43/62/31 41/59/31 42/58/31 40/63/31
f 37/121/19 67/120/19 68/71/19 35/70/19
f 38/73/19 33/72/19 34/119/19 36/118/19
f 70/122/19 72/123/19 71/124/19 69/125/19
f 68/69/35 72/68/35 70/126/35 33/127/35
f 34/128/34 69/129/34 71/67/34 67/66/34
f 76/130/1 87/131/1 96/132/1
f 97/133/36 98/134/36 77/135/36 79/136/36
f 86/137/35 89/138/35 90/139/35 82/140/35
f 87/131/1 76/130/1 73/141/1 88/142/1
f 80/143/1 94/144/1 76/130/1
f 109/145/37 110/26/37 12/25/37 92/146/37
f 74/43/2 78/147/2 93/44/2
f 108/148/38 99/149/38 93/150/38 78/151/38
f 76/130/1 96/132/1 80/143/1
f 91/152/39 81/91/39 110/90/39 109/153/39
f 100/154/40 96/155/40 87/156/40 101/157/40
f 101/157/41 87/156/41 88/158/41 102/159/41
f 78/151/42 91/152/42 109/153/42 108/148/42
f 74/43/2 54/160/2 91/161/2
f 103/162/43 79/163/43 95/164/43 104/165/43
f 104/165/44 95/164/44 11/42/44 105/41/44
f 21/166/2 81/167/2 6/4/2
f 103/168/45 80/169/45 96/155/45 100/154/45
f 77/135/46 92/170/46 95/171/46 79/136/46
f 99/149/47 106/172/47 84/173/47 93/150/47
f 79/163/48 103/162/48 100/174/48 97/175/48
f 94/176/49 104/177/49 105/78/49 83/77/49
f 80/169/50 103/168/50 104/177/50 94/176/50
f 86/178/51 101/179/51 102/180/51 89/181/51
f 97/175/52 100/174/52 101/179/52 86/178/52
f 54/160/2 5/182/2 91/161/2
f 6/4/2 81/167/2 91/161/2 5/182/2
f 98/183/53 82/184/53 106/185/53 99/186/53
f 82/184/54 90/187/54 107/188/54 106/185/54
f 77/189/55 98/183/55 99/186/55 108/190/55
f 78/147/2 74/43/2 91/161/2
f 76/130/1 94/144/1 75/191/1
f 75/191/1 94/144/1 3/192/1
f 4/1/1 3/192/1 94/144/1 83/193/1
f 24/14/1 4/1/1 83/193/1
f 11/50/56 95/171/56 92/170/56 12/51/56
f 108/190/57 109/145/57 92/146/57 77/189/57
f 106/172/58 107/194/58 85/195/58 84/173/58
f 86/137/59 82/140/59 98/134/59 97/133/59
f 10/196/2 21/166/2 6/4/2
f 75/191/60 54/160/60 74/43/60 76/130/60
f 3/192/61 4/1/61 6/4/61 5/182/61
f 16/19/34 13/20/34 20/197/34 19/198/34
f 6/4/2 23/6/2 10/196/2
f 14/5/2 6/4/2 2/199/2 15/200/2
f 74/43/34 53/49/34 73/141/34 76/130/34
f 9/9/62 7/8/62 25/53/62 22/52/62
f 5/182/31 54/160/31 75/191/31 3/192/31
f 6/4/35 4/1/35 1/12/35 2/199/35
f 33/127/2 70/126/2 69/129/2 34/128/2
f 112/201/19 111/202/19 114/203/19 113/204/19
f 115/205/31 116/206/31 118/207/31 117/208/31
f 111/202/35 112/201/35 115/205/35 117/208/35
f 112/201/2 113/204/2 116/206/2 115/205/2
f 113/204/34 114/203/34 118/207/34 116/206/34
f 114/203/1 111/202/1 117/208/1 118/207/1
f 120/209/19 119/210/19 122/211/19 121/212/19
f 123/213/31 124/214/31 126/215/31 125/216/31
f 119/210/35 120/209/35 123/213/35 125/216/35
f 120/209/2 121/212/2 124/214/2 123/213/2
f 121/212/34 122/211/34 126/215/34 124/214/34
f 122/211/1 119/210/1 125/216/1 126/215/1
