# Blender v2.90.0 Alpha OBJ File: 'Decos.blend'
# www.blender.org
o Cube.003_Cube.003
v 2.273292 6.101037 -0.678642
v 2.273292 7.224757 -0.678642
v 2.273292 7.224757 0.678648
v 2.273292 6.101037 0.678648
v 2.273292 6.062635 0.620461
v 2.273292 6.062635 -0.620455
v 2.273292 5.963935 -0.593588
v 2.273292 5.963935 0.593594
v -2.249805 6.101037 -0.678642
v -2.249805 6.101037 0.678648
v -2.249805 7.224757 0.678648
v -2.249805 7.224757 -0.678642
v -2.249805 6.062635 -0.620455
v -2.249805 6.062635 0.620461
v -2.249805 5.963935 -0.593588
v -2.249805 5.963935 0.593594
v 2.273292 7.108870 -0.737183
v 2.273292 7.259523 -0.737183
v 2.273292 7.259523 0.737189
v 2.273292 7.108870 0.737189
v 2.273292 6.726440 -0.737183
v 2.273292 6.877094 -0.737183
v 2.273292 6.877094 0.737189
v 2.273292 6.726440 0.737189
v -2.249805 7.108870 -0.737183
v -2.249805 7.108870 0.737189
v -2.249805 7.259523 0.737189
v -2.249805 7.259523 -0.737183
v -2.249805 6.726440 -0.737183
v -2.249805 6.726440 0.737189
v -2.249805 6.877094 0.737189
v -2.249805 6.877094 -0.737183
vt 0.101562 0.789062
vt 0.101562 0.789062
vt 0.101562 0.789062
vt 0.101562 0.789062
vt 0.101562 0.789062
vt 0.101562 0.789062
vt 0.101562 0.789062
vt 0.101562 0.789062
vt 0.101562 0.789062
vt 0.101562 0.789062
vt 0.101562 0.789062
vt 0.101562 0.789062
vt 0.101562 0.789062
vt 0.101562 0.789062
vt 0.101562 0.789062
vt 0.101562 0.789062
vt 0.101562 0.789062
vt 0.101562 0.789062
vt 0.101562 0.789062
vt 0.101562 0.789062
vt 0.101562 0.789062
vt 0.101562 0.789062
vt 0.101562 0.789062
vt 0.101562 0.789062
vt 0.101562 0.789062
vt 0.101562 0.789062
vt 0.101562 0.789062
vt 0.101562 0.789062
vt 0.101562 0.789062
vt 0.101562 0.789062
vt 0.101562 0.789062
vt 0.101562 0.789062
vn 1.0000 -0.0000 0.0000
vn -1.0000 0.0000 0.0000
vn 0.0000 -0.8346 0.5508
vn 0.0000 -0.2627 0.9649
vn 0.0000 1.0000 0.0000
vn 0.0000 -0.0000 1.0000
vn 0.0000 -0.8346 -0.5508
vn 0.0000 -1.0000 0.0000
vn 0.0000 -0.2627 -0.9649
vn 0.0000 0.0000 -1.0000
s 1
f 1/1/1 2/2/1 3/3/1 4/4/1
f 4/4/1 5/5/1 6/6/1 1/1/1
f 7/7/1 6/6/1 5/5/1 8/8/1
f 9/9/2 10/10/2 11/11/2 12/12/2
f 10/10/2 9/9/2 13/13/2 14/14/2
f 15/15/2 16/16/2 14/14/2 13/13/2
f 5/5/3 4/4/3 10/10/3 14/14/3
f 8/8/4 5/5/4 14/14/4 16/16/4
f 3/3/5 2/2/5 12/12/5 11/11/5
f 4/4/6 3/3/6 11/11/6 10/10/6
f 1/1/7 6/6/7 13/13/7 9/9/7
f 7/7/8 8/8/8 16/16/8 15/15/8
f 6/6/9 7/7/9 15/15/9 13/13/9
f 2/2/10 1/1/10 9/9/10 12/12/10
f 17/17/1 18/18/1 19/19/1 20/20/1
f 21/21/1 22/22/1 23/23/1 24/24/1
f 25/25/2 26/26/2 27/27/2 28/28/2
f 29/29/2 30/30/2 31/31/2 32/32/2
f 21/21/10 29/29/10 32/32/10 22/22/10
f 24/24/8 30/30/8 29/29/8 21/21/8
f 18/18/5 28/28/5 27/27/5 19/19/5
f 17/17/10 25/25/10 28/28/10 18/18/10
f 23/23/6 31/31/6 30/30/6 24/24/6
f 22/22/5 32/32/5 31/31/5 23/23/5
f 20/20/8 26/26/8 25/25/8 17/17/8
f 19/19/6 27/27/6 26/26/6 20/20/6
