# Blender v2.90.0 Alpha OBJ File: 'Decos.blend'
# www.blender.org
o Cube.003_Cube.001
v 2.206872 0.136676 -0.678645
v 2.170241 7.190492 0.678645
v 2.161083 7.181926 -0.678645
v 1.671551 0.131822 0.671899
v 1.576736 0.130687 -0.636145
v -1.777720 3.645912 0.745026
v 1.900991 3.633776 -0.880924
v -2.281729 3.648904 -0.679469
v 1.426382 3.648939 0.540764
v 1.366470 5.495439 0.623631
v 1.230507 5.779339 -0.622017
v -2.206872 0.136676 -0.678645
v -2.151371 7.198799 -0.678645
v -1.441169 3.701103 -0.903108
v 2.300158 3.700838 0.764330
v -2.178254 7.171218 0.678645
v -1.671674 0.131822 0.672108
v -1.577102 0.130688 -0.636403
v -1.229697 5.751951 0.616978
v -1.385912 5.463581 -0.624785
v -2.272897 7.108870 -0.737186
v -2.272897 7.221860 0.368593
v 2.272897 7.184196 0.000000
v -2.272897 6.726440 -0.737186
v -2.272897 6.839431 0.368593
v 2.272897 6.801767 0.000000
vt 0.164062 0.789062
vt 0.164062 0.789062
vt 0.164062 0.789062
vt 0.148438 0.804688
vt 0.148438 0.804688
vt 0.148438 0.804688
vt 0.148438 0.804688
vt 0.148438 0.804688
vt 0.148438 0.804688
vt 0.164062 0.789062
vt 0.164062 0.789062
vt 0.164062 0.789062
vt 0.164062 0.789062
vt 0.164062 0.789062
vt 0.164062 0.789062
vt 0.164062 0.789062
vt 0.164062 0.789062
vt 0.164062 0.789062
vt 0.164062 0.789062
vt 0.148438 0.804688
vt 0.148438 0.804688
vt 0.148438 0.804688
vt 0.164062 0.789062
vt 0.164062 0.789062
vt 0.164062 0.789062
vt 0.148438 0.804688
vt 0.148438 0.804688
vt 0.148438 0.804688
vt 0.148438 0.804688
vt 0.148438 0.804688
vt 0.164062 0.789062
vt 0.164062 0.789062
vt 0.164062 0.789062
vt 0.164062 0.789062
vt 0.164062 0.789062
vt 0.164062 0.789062
vt 0.164062 0.789062
vt 0.164062 0.789062
vt 0.164062 0.789062
vt 0.164062 0.789062
vn -0.0778 0.0045 0.9970
vn -0.0956 -0.9727 -0.2113
vn 0.0561 -0.9982 -0.0220
vn -0.0521 0.9982 -0.0280
vn -0.0001 -0.0311 -0.9995
vn 0.0002 -0.0433 0.9991
vn -0.0055 -0.0298 0.9995
vn 0.0682 -0.0004 -0.9977
vn 0.9982 -0.0578 -0.0176
vn -0.0561 0.9982 0.0220
vn 0.0521 -0.9982 0.0280
vn -0.9948 -0.0586 0.0834
vn 0.0711 0.0042 0.9975
vn 0.0064 -0.0446 -0.9990
vn 0.1169 -0.9705 0.2107
vn -0.0626 -0.0008 -0.9980
vn -0.9824 -0.0315 0.1840
vn -0.0003 1.0000 0.0070
vn 0.9811 -0.0316 0.1907
vn 0.0000 -0.9948 0.1017
vn -0.0000 0.9948 -0.1017
s off
f 10/1/1 4/2/1 2/3/1
f 11/4/2 10/5/2 19/6/2
f 14/7/3 6/8/3 8/9/3
f 9/10/4 15/11/4 7/12/4
f 13/13/5 3/14/5 20/15/5
f 16/16/6 19/17/6 2/3/6
f 10/1/7 2/3/7 19/17/7
f 12/18/8 13/13/8 20/15/8 18/19/8
f 20/20/9 19/6/9 17/21/9 18/22/9
f 8/23/10 6/24/10 14/25/10
f 15/26/11 9/27/11 7/28/11
f 4/29/12 10/5/12 11/4/12 5/30/12
f 19/17/13 16/16/13 17/31/13
f 11/32/14 20/15/14 3/14/14
f 19/6/15 20/20/15 11/4/15
f 1/33/16 5/34/16 11/32/16 3/14/16
f 16/16/17 13/13/17 12/18/17 17/31/17
f 2/3/18 3/14/18 13/13/18 16/16/18
f 1/33/19 3/14/19 2/3/19 4/2/19
f 23/35/20 22/36/20 21/37/20
f 21/37/21 22/36/21 23/35/21
f 26/38/20 25/39/20 24/40/20
f 24/40/21 25/39/21 26/38/21
