# Blender v2.91.0 Beta OBJ File: 'deer.blend'
# www.blender.org
o Cylinder
v -1.065200 0.080316 2.108041
v -1.065200 0.080316 -2.108041
v 1.065200 0.080316 2.108041
v 1.065200 0.080316 -2.108041
v 0.025371 1.051461 -2.082123
v 0.025735 1.077862 -2.108041
v -0.025371 1.051461 -2.082123
v -0.025735 1.077862 -2.108041
v 0.000000 1.089648 2.108041
v 0.382866 1.097542 -2.108041
v -0.025371 1.051461 2.082123
v 0.025371 1.051461 2.082123
v 0.972130 0.507694 2.108041
v 0.972130 0.507694 -2.108041
v 0.977785 0.062059 -2.108041
v 0.947587 0.082225 -2.082123
v 0.947587 0.082225 2.082123
v 0.977785 0.062059 2.108041
v 0.909191 0.424137 -2.108041
v 0.889945 0.471955 -2.108041
v 0.865998 0.461309 -2.082123
v 0.884738 0.413978 -2.082123
v 0.909191 0.424137 2.108041
v 0.884738 0.413978 2.082123
v 0.865998 0.461309 2.082123
v 0.889945 0.471955 2.108041
v 0.706066 0.760899 -2.108041
v 0.670155 0.797843 -2.108041
v 0.652239 0.778752 -2.082123
v 0.687371 0.742001 -2.082123
v 0.706066 0.760899 2.108041
v 0.687371 0.742001 2.082123
v 0.652239 0.778752 2.082123
v 0.670155 0.797843 2.108041
v 0.395873 0.990270 -2.108041
v 0.000000 1.051461 -2.082123
v -0.972130 0.507694 2.108041
v -0.972130 0.507694 -2.108041
v 0.000000 1.077862 -2.108041
v 0.348503 1.010452 -2.108041
v 0.339101 0.985938 -2.082123
v 0.385689 0.965754 -2.082123
v 0.395873 0.990270 2.108041
v 0.385689 0.965754 2.082123
v 0.339101 0.985938 2.082123
v 0.348503 1.010452 2.108041
v 0.733398 0.864241 -2.108041
v -0.977785 0.062059 -2.108041
v -0.947587 0.082225 -2.082123
v -0.947587 0.082225 2.082123
v -0.977785 0.062059 2.108041
v -0.909191 0.424137 -2.108041
v -0.889945 0.471955 -2.108041
v -0.865998 0.461309 -2.082123
v -0.884738 0.413978 -2.082123
v -0.909191 0.424137 2.108041
v -0.884738 0.413978 2.082123
v -0.865998 0.461309 2.082123
v -0.889945 0.471955 2.108041
v -0.706066 0.760899 -2.108041
v -0.670155 0.797843 -2.108041
v -0.652239 0.778752 -2.082123
v -0.687371 0.742001 -2.082123
v -0.706066 0.760899 2.108041
v -0.687371 0.742001 2.082123
v -0.652239 0.778752 2.082123
v -0.670155 0.797843 2.108041
v -0.395873 0.990270 -2.108041
v -0.348503 1.010452 -2.108041
v -0.339101 0.985938 -2.082123
v -0.385689 0.965754 -2.082123
v -0.395873 0.990270 2.108041
v -0.385689 0.965754 2.082123
v -0.339101 0.985938 2.082123
v -0.348503 1.010452 2.108041
v -0.733398 0.864241 -2.108041
v 0.000000 1.051461 2.082123
v 0.733398 0.864241 2.108041
v -0.733398 0.864241 2.108041
v -0.382866 1.097542 -2.108041
v -0.382866 1.097542 2.108041
v -1.094356 -2.515325 2.232350
v -1.094356 0.269005 2.232350
v -1.094356 -2.515325 -2.232351
v -1.094356 0.269005 -2.232350
v -0.899359 -2.515325 2.232350
v -0.899359 0.269005 2.232350
v -0.899359 -2.515325 -2.232351
v -0.899359 0.269005 -2.232350
v 1.094356 -2.515325 2.232350
v 1.094356 0.269005 2.232350
v 1.094356 -2.515325 -2.232351
v 1.094356 0.269005 -2.232350
v 0.899359 -2.515325 2.232350
v 0.899359 0.269005 2.232350
v 0.899359 -2.515325 -2.232351
v 0.899359 0.269005 -2.232350
v 0.000000 1.125003 -2.108041
v 0.000000 1.167434 -2.108041
v 0.000000 1.167434 2.108041
v 0.382866 1.097542 2.108041
vt 0.835938 0.429688
vt 0.835938 0.429688
vt 0.835938 0.429688
vt 0.835938 0.429688
vt 0.835938 0.429688
vt 0.835938 0.429688
vt 0.835938 0.429688
vt 0.835938 0.429688
vt 0.835938 0.429688
vt 0.835938 0.429688
vt 0.835938 0.429688
vt 0.835938 0.429688
vt 0.835938 0.429688
vt 0.835938 0.429688
vt 0.835938 0.429688
vt 0.835938 0.429688
vt 0.835938 0.460938
vt 0.835938 0.460938
vt 0.835938 0.460938
vt 0.835938 0.398438
vt 0.835938 0.398438
vt 0.835938 0.398438
vt 0.835938 0.398438
vt 0.835938 0.398438
vt 0.835938 0.398438
vt 0.835938 0.398438
vt 0.835938 0.398438
vt 0.835938 0.398438
vt 0.835938 0.460938
vt 0.835938 0.460938
vt 0.835938 0.460938
vt 0.835938 0.460938
vt 0.835938 0.460938
vt 0.835938 0.460938
vt 0.835938 0.460938
vt 0.835938 0.460938
vt 0.835938 0.460938
vt 0.835938 0.460938
vt 0.835938 0.460938
vt 0.835938 0.460938
vt 0.835938 0.460938
vt 0.835938 0.460938
vt 0.835938 0.460938
vt 0.835938 0.460938
vt 0.835938 0.460938
vt 0.835938 0.460938
vt 0.835938 0.460938
vt 0.835938 0.460938
vt 0.835938 0.460938
vt 0.835938 0.460938
vt 0.835938 0.460938
vt 0.835938 0.460938
vt 0.835938 0.460938
vt 0.835938 0.460938
vt 0.835938 0.398438
vt 0.835938 0.398438
vt 0.835938 0.398438
vt 0.835938 0.460938
vt 0.835938 0.460938
vt 0.835938 0.398438
vt 0.835938 0.398438
vt 0.835938 0.460938
vt 0.835938 0.460938
vt 0.835938 0.460938
vt 0.835938 0.460938
vt 0.835938 0.460938
vt 0.835938 0.460938
vt 0.835938 0.460938
vt 0.835938 0.460938
vt 0.835938 0.398438
vt 0.835938 0.398438
vt 0.835938 0.398438
vt 0.835938 0.398438
vt 0.835938 0.398438
vt 0.835938 0.398438
vt 0.835938 0.460938
vt 0.835938 0.460938
vt 0.835938 0.460938
vt 0.835938 0.460938
vt 0.835938 0.460938
vt 0.835938 0.460938
vt 0.835938 0.460938
vt 0.835938 0.460938
vt 0.835938 0.460938
vt 0.835938 0.460938
vt 0.835938 0.460938
vt 0.835938 0.398438
vt 0.835938 0.398438
vt 0.835938 0.398438
vt 0.835938 0.460938
vt 0.835938 0.398438
vt 0.835938 0.398438
vt 0.835938 0.398438
vt 0.835938 0.460938
vt 0.835938 0.398438
vt 0.835938 0.398438
vt 0.835938 0.398438
vt 0.835938 0.398438
vt 0.835938 0.398438
vt 0.835938 0.398438
vt 0.835938 0.398438
vt 0.835938 0.398438
vt 0.835938 0.398438
vt 0.835938 0.398438
vt 0.835938 0.398438
vt 0.835938 0.398438
vt 0.835938 0.398438
vt 0.835938 0.398438
vt 0.835938 0.398438
vt 0.835938 0.398438
vt 0.835938 0.398438
vt 0.835938 0.398438
vt 0.835938 0.398438
vt 0.835938 0.398438
vt 0.835938 0.398438
vt 0.835938 0.460938
vt 0.835938 0.460938
vt 0.835938 0.460938
vt 0.835938 0.398438
vt 0.835938 0.460938
vt 0.835938 0.460938
vt 0.835938 0.460938
vt 0.835938 0.398438
vt 0.835938 0.398438
vt 0.835938 0.398438
vt 0.835938 0.398438
vt 0.835938 0.460938
vt 0.835938 0.460938
vt 0.835938 0.460938
vt 0.835938 0.460938
vt 0.835938 0.460938
vt 0.835938 0.460938
vt 0.835938 0.460938
vt 0.835938 0.398438
vt 0.835938 0.398438
vt 0.835938 0.460938
vt 0.835938 0.460938
vt 0.835938 0.398438
vt 0.835938 0.398438
vt 0.835938 0.398438
vt 0.835938 0.398438
vt 0.835938 0.398438
vt 0.835938 0.398438
vt 0.835938 0.398438
vt 0.835938 0.398438
vt 0.835938 0.398438
vt 0.835938 0.398438
vt 0.835938 0.460938
vt 0.835938 0.460938
vt 0.835938 0.398438
vt 0.835938 0.460938
vt 0.835938 0.460938
vt 0.835938 0.460938
vt 0.835938 0.460938
vt 0.835938 0.460938
vt 0.835938 0.398438
vt 0.835938 0.460938
vt 0.835938 0.460938
vt 0.835938 0.460938
vt 0.835938 0.460938
vt 0.835938 0.460938
vt 0.835938 0.460938
vt 0.835938 0.460938
vt 0.835938 0.460938
vt 0.835938 0.460938
vn -1.0000 0.0000 0.0000
vn 0.0000 0.0000 -1.0000
vn 1.0000 -0.0000 0.0000
vn 0.0000 -0.0000 1.0000
vn 0.0000 -1.0000 0.0000
vn 0.0000 1.0000 -0.0000
vn 0.0961 -0.9135 -0.3952
vn 0.2762 -0.8762 0.3949
vn 0.2762 -0.8762 -0.3949
vn -0.0000 -0.2759 0.9612
vn 0.0000 -0.8836 0.4682
vn -0.1104 -0.8849 0.4525
vn -0.3215 -0.1643 -0.9325
vn -0.7243 -0.5648 -0.3954
vn -0.2800 -0.2227 -0.9338
vn 0.0000 -0.3784 -0.9256
vn -0.0961 -0.9135 -0.3952
vn 0.0000 -0.9221 -0.3869
vn 0.3442 -0.1019 -0.9333
vn 0.0885 -0.9961 -0.0000
vn -0.2044 -0.9789 -0.0000
vn -0.9771 0.2128 0.0000
vn -0.9202 0.3915 0.0000
vn 0.3442 -0.1019 0.9333
vn 0.2868 -0.0543 0.9564
vn -0.1088 -0.3425 0.9332
vn -0.2345 -0.2742 -0.9326
vn 0.7243 -0.5648 -0.3954
vn 0.8180 -0.4193 0.3939
vn 0.8180 -0.4193 -0.3939
vn 0.4505 -0.8003 -0.3957
vn 0.5975 -0.6982 0.3943
vn 0.5975 -0.6982 -0.3943
vn 0.1725 -0.3127 -0.9341
vn -0.3215 -0.1643 0.9325
vn -0.3442 -0.1019 0.9333
vn -0.7061 0.7081 0.0000
vn -0.4505 -0.8003 -0.3957
vn -0.1725 -0.3127 -0.9341
vn 0.2800 -0.2227 0.9338
vn 0.3215 -0.1643 0.9325
vn -0.3442 -0.1019 -0.9333
vn -0.8180 -0.4193 -0.3939
vn 0.1725 -0.3127 0.9341
vn 0.2345 -0.2742 0.9326
vn 0.8831 -0.2539 -0.3946
vn 0.8317 -0.4673 0.2997
vn 0.8317 -0.4673 -0.2997
vn -0.3745 0.9272 0.0000
vn 0.3745 0.9272 0.0000
vn -0.2800 -0.2227 0.9338
vn -0.5975 -0.6982 0.3943
vn -0.7243 -0.5648 0.3954
vn -0.8180 -0.4193 0.3939
vn -0.8831 -0.2539 0.3946
vn 0.9202 0.3915 0.0000
vn 0.9771 0.2128 0.0000
vn 0.2800 -0.2227 -0.9338
vn -0.2762 -0.8762 -0.3949
vn 0.7061 0.7081 0.0000
vn 0.0354 -0.3558 -0.9339
vn 0.1104 -0.8849 0.4525
vn -0.2868 -0.0543 0.9564
vn -0.1086 -0.3426 -0.9332
vn -0.0354 -0.3558 -0.9339
vn -0.2868 -0.0543 -0.9564
vn 0.2044 -0.9789 -0.0000
vn -0.0885 -0.9961 -0.0000
vn -0.8317 -0.4673 0.2997
vn 0.1088 -0.3425 0.9332
vn -0.8831 -0.2539 -0.3946
vn -0.8317 -0.4673 -0.2997
vn -0.2345 -0.2742 0.9326
vn -0.1725 -0.3127 0.9341
vn -0.4505 -0.8003 0.3957
vn -0.5975 -0.6982 -0.3943
vn 0.2868 -0.0543 -0.9564
vn 0.8831 -0.2539 0.3946
vn 0.3215 -0.1643 -0.9325
vn 0.7243 -0.5648 0.3954
vn 0.2345 -0.2742 -0.9326
vn 0.4505 -0.8003 0.3957
vn 0.1086 -0.3426 -0.9332
vn -0.2762 -0.8762 0.3949
s off
f 83/1/1 84/2/1 82/3/1
f 85/4/2 88/5/2 84/2/2
f 89/6/3 86/7/3 88/5/3
f 87/8/4 82/3/4 86/7/4
f 88/5/5 82/3/5 84/2/5
f 85/4/6 87/8/6 89/6/6
f 90/9/3 93/10/3 91/11/3
f 96/12/2 93/10/2 92/13/2
f 94/14/1 97/15/1 96/12/1
f 90/9/4 95/16/4 94/14/4
f 90/9/5 96/12/5 92/13/5
f 95/16/6 93/10/6 97/15/6
f 83/1/1 85/4/1 84/2/1
f 85/4/2 89/6/2 88/5/2
f 89/6/3 87/8/3 86/7/3
f 87/8/4 83/1/4 82/3/4
f 88/5/5 86/7/5 82/3/5
f 85/4/6 83/1/6 87/8/6
f 90/9/3 92/13/3 93/10/3
f 96/12/2 97/15/2 93/10/2
f 94/14/1 95/16/1 97/15/1
f 90/9/4 91/11/4 95/16/4
f 90/9/5 94/14/5 96/12/5
f 95/16/6 91/11/6 93/10/6
s 1
f 7/17/7 74/18/8 70/19/9
f 9/20/10 77/21/11 12/22/12
f 20/23/13 30/24/14 27/25/15
f 39/26/16 5/27/17 36/28/18
f 52/29/19 2/30/2 38/31/2
f 51/32/20 2/30/21 48/33/20
f 2/30/22 37/34/23 38/31/23
f 56/35/24 1/36/4 51/32/25
f 101/37/4 9/38/10 46/39/26
f 47/40/2 27/41/15 28/42/27
f 63/43/28 58/44/29 54/45/30
f 71/46/31 66/47/32 62/48/33
f 68/49/34 76/50/2 80/51/2
f 13/52/4 26/53/35 23/54/36
f 37/34/23 76/50/37 38/31/23
f 28/55/27 42/56/38 35/57/39
f 64/58/40 37/34/4 59/59/41
f 19/60/42 21/61/43 20/23/13
f 72/62/44 79/63/4 67/64/45
f 55/65/46 50/66/47 49/67/48
f 79/63/37 80/51/49 76/50/37
f 99/68/6 101/37/50 10/69/50
f 31/70/51 33/71/52 32/72/53
f 23/73/36 25/74/54 24/75/55
f 14/76/56 3/77/57 4/78/57
f 19/79/42 20/80/13 14/76/2
f 60/81/58 38/31/2 76/50/2
f 41/82/59 12/83/12 5/84/17
f 10/69/50 78/85/60 47/40/60
f 13/52/4 31/86/51 26/53/35
f 39/26/16 7/87/7 8/88/61
f 9/20/10 11/89/62 77/21/11
f 3/77/4 23/54/36 18/90/63
f 12/22/12 46/91/26 9/20/10
f 40/92/64 5/27/17 6/93/65
f 19/79/42 4/78/2 15/94/66
f 4/78/67 18/90/68 15/94/68
f 17/95/69 15/96/68 18/97/68
f 52/98/19 54/99/30 55/100/46
f 56/101/24 58/102/29 59/103/41
f 60/104/58 62/105/33 63/106/28
f 64/107/40 66/108/32 67/109/45
f 68/110/34 70/111/9 71/112/31
f 72/113/44 74/114/8 75/115/70
f 17/116/69 22/117/71 16/118/72
f 16/119/72 19/60/42 15/96/66
f 77/21/11 7/87/7 36/28/18
f 34/120/73 31/86/51 78/85/4
f 46/39/26 43/121/74 101/37/4
f 10/69/2 6/122/65 99/68/2
f 44/123/75 34/124/73 43/125/74
f 78/85/4 43/121/74 34/120/73
f 27/25/15 29/126/76 28/55/27
f 5/27/17 77/21/11 36/28/18
f 33/71/52 30/24/14 32/72/53
f 6/122/65 39/127/16 98/128/2
f 33/129/52 42/130/38 29/131/76
f 9/38/10 81/132/4 75/133/70
f 81/132/49 99/68/6 80/51/49
f 35/57/39 41/134/59 40/92/64
f 32/72/53 26/135/35 31/70/51
f 10/69/2 35/136/39 40/137/64
f 48/138/20 50/139/47 51/140/20
f 52/98/19 49/141/48 48/138/77
f 56/101/24 50/139/47 57/142/78
f 55/100/46 58/102/29 57/142/78
f 53/143/79 63/106/28 54/99/30
f 59/103/41 65/144/80 64/107/40
f 63/106/28 66/108/32 65/144/80
f 61/145/81 71/112/31 62/105/33
f 67/109/45 73/146/82 72/113/44
f 71/112/31 74/114/8 73/146/82
f 69/147/83 7/87/7 70/111/9
f 75/115/70 11/89/62 9/20/10
f 52/29/19 38/31/2 53/148/79
f 76/50/2 61/149/81 60/81/58
f 27/41/15 14/76/2 20/80/13
f 67/64/45 79/63/4 64/58/40
f 37/34/4 56/35/24 59/59/41
f 47/40/60 13/52/56 14/76/56
f 23/73/36 17/95/69 18/97/63
f 45/150/84 42/56/38 44/123/75
f 80/51/2 69/151/83 68/49/34
f 75/133/70 81/132/4 72/62/44
f 43/125/74 45/150/84 44/123/75
f 99/68/2 8/152/61 80/51/2
f 25/153/54 30/154/14 21/155/43
f 35/136/39 47/40/2 28/42/27
f 25/74/54 22/156/71 24/75/55
f 8/152/61 98/128/2 39/127/16
f 7/17/7 11/157/62 74/18/8
f 20/23/13 21/61/43 30/24/14
f 39/26/16 6/93/65 5/27/17
f 52/29/19 48/33/77 2/30/2
f 51/32/20 1/36/21 2/30/21
f 2/30/22 1/36/22 37/34/23
f 56/35/24 37/34/4 1/36/4
f 101/37/4 100/158/4 9/38/10
f 63/43/28 65/159/80 58/44/29
f 71/46/31 73/160/82 66/47/32
f 68/49/34 61/149/81 76/50/2
f 37/34/23 79/63/37 76/50/37
f 28/55/27 29/126/76 42/56/38
f 64/58/40 79/63/4 37/34/4
f 19/60/42 22/156/71 21/61/43
f 72/62/44 81/132/4 79/63/4
f 55/65/46 57/161/78 50/66/47
f 79/63/37 81/132/49 80/51/49
f 99/68/6 100/158/6 101/37/50
f 31/70/51 34/124/73 33/71/52
f 23/73/36 26/135/35 25/74/54
f 14/76/56 13/52/56 3/77/57
f 60/81/58 53/148/79 38/31/2
f 41/82/59 45/162/84 12/83/12
f 10/69/50 101/37/50 78/85/60
f 13/52/4 78/85/4 31/86/51
f 39/26/16 36/28/18 7/87/7
f 3/77/4 13/52/4 23/54/36
f 12/22/12 45/150/84 46/91/26
f 40/92/64 41/134/59 5/27/17
f 19/79/42 14/76/2 4/78/2
f 4/78/67 3/77/67 18/90/68
f 17/95/69 16/119/72 15/96/68
f 52/98/19 53/143/79 54/99/30
f 56/101/24 57/142/78 58/102/29
f 60/104/58 61/145/81 62/105/33
f 64/107/40 65/144/80 66/108/32
f 68/110/34 69/147/83 70/111/9
f 72/113/44 73/146/82 74/114/8
f 17/116/69 24/163/55 22/117/71
f 16/119/72 22/156/71 19/60/42
f 77/21/11 11/89/62 7/87/7
f 40/137/64 6/122/65 10/69/2
f 6/122/65 98/128/2 99/68/2
f 44/123/75 33/71/52 34/124/73
f 78/85/4 101/37/4 43/121/74
f 27/25/15 30/24/14 29/126/76
f 5/27/17 12/22/12 77/21/11
f 33/71/52 29/126/76 30/24/14
f 33/129/52 44/164/75 42/130/38
f 9/38/10 100/158/4 81/132/4
f 81/132/49 100/158/6 99/68/6
f 35/57/39 42/56/38 41/134/59
f 32/72/53 25/74/54 26/135/35
f 48/138/20 49/141/48 50/139/47
f 52/98/19 55/100/46 49/141/48
f 56/101/24 51/140/25 50/139/47
f 55/100/46 54/99/30 58/102/29
f 53/143/79 60/104/58 63/106/28
f 59/103/41 58/102/29 65/144/80
f 63/106/28 62/105/33 66/108/32
f 61/145/81 68/110/34 71/112/31
f 67/109/45 66/108/32 73/146/82
f 71/112/31 70/111/9 74/114/8
f 69/147/83 8/88/61 7/87/7
f 75/115/70 74/114/8 11/89/62
f 27/41/15 47/40/2 14/76/2
f 47/40/60 78/85/60 13/52/56
f 23/73/36 24/75/55 17/95/69
f 45/150/84 41/134/59 42/56/38
f 43/125/74 46/91/26 45/150/84
f 98/128/2 8/152/61 99/68/2
f 8/152/61 69/151/83 80/51/2
f 25/153/54 32/165/53 30/154/14
f 35/136/39 10/69/2 47/40/2
f 25/74/54 21/61/43 22/156/71
