# Blender v2.91.0 Beta OBJ File: 'stadium.blend'
# www.blender.org
o ExposedBrickWindow.002_Detail_Cube.001
v -1.272767 0.601730 0.915966
v -1.272767 1.154649 1.812011
v -1.272767 1.154649 0.912444
v -0.092919 0.054357 1.813278
v -1.272767 0.601730 1.812011
v -1.272767 0.054359 1.812011
v 1.356926 1.184056 -1.843113
v 0.068522 0.648570 -1.843113
v 0.068522 1.184057 -1.843113
v -0.028521 1.184057 -1.843113
v -1.316926 1.184058 0.013219
v -0.028521 1.184057 0.013219
v 0.068522 1.184057 0.013219
v 0.068522 0.648570 1.877874
v 0.068522 1.184057 1.877874
v 1.356926 1.184056 0.013219
v 1.356926 0.648570 -1.843113
v 1.356926 1.184056 1.877874
v -1.272767 0.054359 0.029569
v -1.272767 0.601730 -0.866477
v -1.272767 0.054359 -0.866477
v 0.112681 0.054357 0.016893
v 0.112681 0.601728 0.915965
v 0.112681 0.607276 0.016893
v -1.272767 1.154649 0.029569
v -1.272767 1.154649 -0.869998
v -1.272767 0.054359 0.915966
v -1.272767 0.601730 -1.765550
v -1.272767 0.054359 -1.765550
v 0.112681 1.154647 0.912444
v 0.112681 1.154647 0.016893
v -1.272767 0.601730 0.016893
v -1.272767 0.054359 0.016893
v -1.316926 1.184058 -1.843113
v -1.316926 0.648572 0.013219
v -1.316926 0.648572 -1.843113
v 0.112681 0.054357 -1.765550
v 1.292528 0.601728 -1.765550
v 1.292528 0.054357 -1.765550
v -1.316926 1.184058 1.877875
v -0.028521 1.184057 1.877874
v 0.112681 0.601728 -0.866477
v 0.112681 1.154647 0.029569
v 0.112681 1.154647 -0.869998
v 0.112681 0.607276 1.812010
v 1.292528 1.154647 1.812010
v 0.112681 1.154647 1.812010
v -0.028521 0.648570 1.877874
v 0.112681 0.054357 -0.866477
v 0.112681 0.601728 -1.765550
v 0.112681 0.054357 1.812010
v 1.292528 0.601728 1.813278
v 0.112681 0.054357 0.029569
v 0.112681 1.154647 -1.765550
v -1.272767 1.154649 0.016893
v 0.112681 0.054357 0.915965
v 1.292528 1.154647 -1.765550
v -1.272767 1.154649 -1.765550
v 0.068522 0.648570 0.013219
v -0.092919 1.154647 1.812010
v -0.028521 0.648570 -1.843113
v -1.316926 0.648572 1.877875
v -0.028521 0.648570 0.013219
v -0.092919 1.154647 -1.765550
v -0.092919 0.601728 -1.765550
v 1.356926 0.648570 1.877874
v -0.092919 0.054357 -1.765550
v 1.356926 0.648570 0.013219
v -0.092919 0.601728 1.813278
v -1.272767 0.601730 0.029569
v 0.112681 0.607276 0.029569
v 1.292528 0.054357 1.813278
vt 0.946777 0.871582
vt 0.821777 0.931152
vt 0.946777 0.931152
vt 0.823730 0.933105
vt 0.944824 0.991699
vt 0.944824 0.933105
vt 0.801270 0.848145
vt 0.758952 0.852485
vt 0.762207 0.848145
vt 0.801270 0.848145
vt 0.762207 0.805176
vt 0.801270 0.805176
vt 0.762207 0.848145
vt 0.758952 0.803006
vt 0.762207 0.805176
vt 0.801270 0.805176
vt 0.804525 0.852485
vt 0.799316 0.845215
vt 0.764160 0.807129
vt 0.799316 0.807129
vt 0.821777 0.871582
vt 0.946777 0.931152
vt 0.946777 0.871582
vt 0.946777 0.871582
vt 0.821777 0.931152
vt 0.946777 0.931152
vt 0.946777 0.871582
vt 0.821777 0.931152
vt 0.946777 0.931152
vt 0.821777 0.871582
vt 0.946777 0.931152
vt 0.946777 0.871582
vt 0.821777 0.871582
vt 0.946777 0.931152
vt 0.946777 0.871582
vt 0.946777 0.871582
vt 0.821777 0.931152
vt 0.946777 0.931152
vt 0.821777 0.871582
vt 0.946777 0.931152
vt 0.946777 0.871582
vt 0.762207 0.848145
vt 0.758952 0.803006
vt 0.758952 0.852485
vt 0.946777 0.933105
vt 0.823730 0.991699
vt 0.823730 0.933105
vt 0.799316 0.845215
vt 0.764160 0.807129
vt 0.799316 0.807129
vt 0.946777 0.871582
vt 0.821777 0.931152
vt 0.946777 0.931152
vt 0.944824 0.933105
vt 0.823730 0.991699
vt 0.944824 0.991699
vt 0.762207 0.805176
vt 0.804525 0.803006
vt 0.801270 0.805176
vt 0.821777 0.871582
vt 0.946777 0.931152
vt 0.946777 0.871582
vt 0.944824 0.933105
vt 0.823730 0.991699
vt 0.944824 0.991699
vt 0.946777 0.871582
vt 0.821777 0.931152
vt 0.946777 0.931152
vt 0.821777 0.871582
vt 0.946777 0.931152
vt 0.946777 0.871582
vt 0.946777 0.871582
vt 0.821777 0.931152
vt 0.946777 0.931152
vt 0.946777 0.871582
vt 0.821777 0.931152
vt 0.946777 0.931152
vt 0.821777 0.871582
vt 0.946777 0.931152
vt 0.946777 0.871582
vt 0.946777 0.933105
vt 0.823730 0.991699
vt 0.823730 0.933105
vt 0.946777 0.871582
vt 0.821777 0.931152
vt 0.946777 0.931152
vt 0.758952 0.803006
vt 0.762207 0.805176
vt 0.944824 0.933105
vt 0.823730 0.991699
vt 0.944824 0.991699
vt 0.804525 0.852485
vt 0.762207 0.848145
vt 0.758952 0.803006
vt 0.804525 0.852485
vt 0.801270 0.848145
vt 0.946777 0.933105
vt 0.823730 0.991699
vt 0.823730 0.933105
vt 0.804525 0.803006
vt 0.801270 0.805176
vt 0.946777 0.933105
vt 0.823730 0.991699
vt 0.823730 0.933105
vt 0.804525 0.852485
vt 0.801270 0.848145
vt 0.821777 0.871582
vt 0.823730 0.991699
vt 0.758952 0.852485
vt 0.804525 0.803006
vt 0.764160 0.845215
vt 0.821777 0.931152
vt 0.821777 0.871582
vt 0.821777 0.871582
vt 0.821777 0.931152
vt 0.821777 0.931152
vt 0.821777 0.871582
vt 0.821777 0.931152
vt 0.946777 0.991699
vt 0.764160 0.845215
vt 0.821777 0.871582
vt 0.823730 0.933105
vt 0.821777 0.931152
vt 0.823730 0.933105
vt 0.821777 0.871582
vt 0.821777 0.931152
vt 0.821777 0.871582
vt 0.821777 0.871582
vt 0.821777 0.931152
vt 0.946777 0.991699
vt 0.821777 0.871582
vt 0.823730 0.933105
vt 0.804525 0.803006
vt 0.758952 0.852485
vt 0.946777 0.991699
vt 0.946777 0.991699
vn -1.0000 0.0000 0.0000
vn -0.0023 0.0018 1.0000
vn 0.0002 0.0017 1.0000
vn -0.0011 0.0016 1.0000
vn 0.0000 0.0000 -1.0000
vn 0.0000 1.0000 0.0000
vn 1.0000 -0.0000 -0.0000
vn -0.0001 0.0020 1.0000
vn -0.0006 -0.0003 1.0000
vn 0.0006 -0.0012 1.0000
vn 0.0000 0.0000 1.0000
vn -0.0001 0.0013 1.0000
vn 0.0007 0.0004 1.0000
vn -0.0002 0.0029 1.0000
vn -0.0008 0.0015 1.0000
s 1
f 1/1/1 2/2/1 3/3/1
f 4/4/2 5/5/3 6/6/4
f 7/7/5 8/8/5 9/9/5
f 10/10/6 11/11/6 12/12/6
f 13/13/1 14/14/1 15/15/1
f 16/16/7 17/17/7 7/7/7
f 16/18/6 15/19/6 18/20/6
f 19/21/1 20/22/1 21/23/1
f 22/24/1 23/25/1 24/26/1
f 20/27/1 25/28/1 26/29/1
f 6/30/1 1/31/1 27/32/1
f 21/33/1 28/34/1 29/35/1
f 24/36/1 30/37/1 31/38/1
f 27/39/1 32/40/1 33/41/1
f 34/42/1 35/43/1 11/11/1
f 10/10/5 36/44/5 34/42/5
f 37/45/5 38/46/5 39/47/5
f 12/48/6 40/49/6 41/50/6
f 42/51/1 43/52/1 44/53/1
f 45/54/8 46/55/9 47/56/10
f 40/57/11 48/58/11 41/59/11
f 49/60/1 50/61/1 37/62/1
f 51/63/12 52/64/13 45/65/8
f 23/66/1 47/67/1 30/68/1
f 53/69/1 42/70/1 49/71/1
f 50/72/1 44/73/1 54/74/1
f 32/75/1 3/76/1 55/77/1
f 51/78/1 23/79/1 56/80/1
f 50/81/5 57/82/5 38/83/5
f 28/84/1 26/85/1 58/86/1
f 9/9/1 59/87/1 13/88/1
f 5/89/3 60/90/9 2/91/10
f 12/12/7 61/92/7 10/10/7
f 11/93/1 62/94/1 40/57/1
f 41/59/7 63/95/7 12/96/7
f 7/7/6 13/88/6 16/16/6
f 28/97/5 64/98/5 65/99/5
f 15/15/11 66/100/11 18/101/11
f 29/102/5 65/103/5 67/104/5
f 18/101/7 68/105/7 16/106/7
f 1/1/1 5/107/1 2/2/1
f 4/4/2 69/108/14 5/5/3
f 7/7/5 17/17/5 8/8/5
f 10/10/6 34/42/6 11/11/6
f 13/13/1 59/109/1 14/14/1
f 16/16/7 68/110/7 17/17/7
f 16/18/6 13/111/6 15/19/6
f 19/21/1 70/112/1 20/22/1
f 22/24/1 56/113/1 23/25/1
f 20/27/1 70/114/1 25/28/1
f 6/30/1 5/115/1 1/31/1
f 21/33/1 20/116/1 28/34/1
f 24/36/1 23/117/1 30/37/1
f 27/39/1 1/118/1 32/40/1
f 34/42/1 36/44/1 35/43/1
f 10/10/5 61/92/5 36/44/5
f 37/45/5 50/119/5 38/46/5
f 12/48/6 11/120/6 40/49/6
f 42/51/1 71/121/1 43/52/1
f 45/54/8 52/122/13 46/55/9
f 40/57/11 62/94/11 48/58/11
f 49/60/1 42/123/1 50/61/1
f 51/63/12 72/124/15 52/64/13
f 23/66/1 45/125/1 47/67/1
f 53/69/1 71/126/1 42/70/1
f 50/72/1 42/127/1 44/73/1
f 32/75/1 1/128/1 3/76/1
f 51/78/1 45/129/1 23/79/1
f 50/81/5 54/130/5 57/82/5
f 28/84/1 20/131/1 26/85/1
f 9/9/1 8/8/1 59/87/1
f 5/89/3 69/132/14 60/90/9
f 12/12/7 63/133/7 61/92/7
f 11/93/1 35/134/1 62/94/1
f 41/59/7 48/58/7 63/95/7
f 7/7/6 9/9/6 13/88/6
f 28/97/5 58/135/5 64/98/5
f 15/15/11 14/14/11 66/100/11
f 29/102/5 28/136/5 65/103/5
f 18/101/7 66/100/7 68/105/7
