# Blender v2.91.0 Beta OBJ File: 'stadium.blend'
# www.blender.org
o Cube.002_Cube.003
v -6.974146 3.087764 5.000000
v -6.974146 3.754707 5.000000
v 0.025854 3.087764 5.000000
v 0.025854 3.754707 5.000000
v 7.025854 3.087764 5.000000
v 7.025854 3.754707 5.000000
v -6.531377 -0.049021 4.980573
v -6.531377 3.950979 4.980573
v -6.531377 -0.049021 4.541925
v -6.531377 3.950979 4.541925
v -6.897759 -0.049021 4.980573
v -6.897759 3.950979 4.980573
v -6.897759 -0.049021 4.541925
v -6.897759 3.950979 4.541925
v -3.167984 -0.049021 4.980573
v -3.167984 3.950979 4.980573
v -3.167984 -0.049021 4.541925
v -3.167984 3.950979 4.541925
v -3.534367 -0.049021 4.980573
v -3.534367 3.950979 4.980573
v -3.534367 -0.049021 4.541925
v -3.534367 3.950979 4.541925
v 0.195408 -0.049021 4.980573
v 0.195408 3.950979 4.980573
v 0.195408 -0.049021 4.541925
v 0.195408 3.950979 4.541925
v -0.170975 -0.049021 4.980573
v -0.170975 3.950979 4.980573
v -0.170975 -0.049021 4.541925
v -0.170975 3.950979 4.541925
v 3.558800 -0.049021 4.980573
v 3.558800 3.950979 4.980573
v 3.558800 -0.049021 4.541925
v 3.558800 3.950979 4.541925
v 3.192418 -0.049021 4.980573
v 3.192418 3.950979 4.980573
v 3.192418 -0.049021 4.541925
v 3.192418 3.950979 4.541925
v 6.922192 -0.049021 4.980573
v 6.922192 3.950979 4.980573
v 6.922192 -0.049021 4.541925
v 6.922192 3.950979 4.541925
v 6.555809 -0.049021 4.980573
v 6.555809 3.950979 4.980573
v 6.555809 -0.049021 4.541925
v 6.555809 3.950979 4.541925
v -6.531377 -0.049021 1.471388
v -6.531377 3.950979 1.471388
v -6.531377 -0.049021 1.032740
v -6.531377 3.950979 1.032740
v -6.897759 -0.049021 1.471388
v -6.897759 3.950979 1.471388
v -6.897759 -0.049021 1.032740
v -6.897759 3.950979 1.032740
v -3.167984 -0.049021 1.471388
v -3.167984 3.950979 1.471388
v -3.167984 -0.049021 1.032740
v -3.167984 3.950979 1.032740
v -3.534367 -0.049021 1.471388
v -3.534367 3.950979 1.471388
v -3.534367 -0.049021 1.032740
v -3.534367 3.950979 1.032740
v 0.195408 -0.049021 1.471388
v 0.195408 3.950979 1.471388
v 0.195408 -0.049021 1.032740
v 0.195408 3.950979 1.032740
v -0.170975 -0.049021 1.471388
v -0.170975 3.950979 1.471388
v -0.170975 -0.049021 1.032740
v -0.170975 3.950979 1.032740
v 3.558800 -0.049021 1.471388
v 3.558800 3.950979 1.471388
v 3.558800 -0.049021 1.032740
v 3.558800 3.950979 1.032740
v 3.192418 -0.049021 1.471388
v 3.192418 3.950979 1.471388
v 3.192418 -0.049021 1.032740
v 3.192418 3.950979 1.032740
v 6.922192 -0.049021 1.471388
v 6.922192 3.950979 1.471388
v 6.922192 -0.049021 1.032740
v 6.922192 3.950979 1.032740
v 6.555809 -0.049021 1.471388
v 6.555809 3.950979 1.471388
v 6.555809 -0.049021 1.032740
v 6.555809 3.950979 1.032740
v -6.974146 3.087764 0.000000
v -6.974146 3.087764 -5.000000
v -6.974146 3.754707 0.000000
v -6.974146 3.754707 -5.000000
v 0.025854 3.087764 -5.000000
v 0.025854 3.754707 0.000000
v 0.025854 3.754707 -5.000000
v 7.025854 3.087764 0.000000
v 7.025854 3.087764 -5.000000
v 7.025854 3.754707 0.000000
v 7.025854 3.754707 -5.000000
v -6.531377 -0.049021 -4.980573
v -6.531377 3.950979 -4.980573
v -6.531377 -0.049021 -4.541925
v -6.531377 3.950979 -4.541925
v -6.897759 -0.049021 -4.980573
v -6.897759 3.950979 -4.980573
v -6.897759 -0.049021 -4.541925
v -6.897759 3.950979 -4.541925
v -3.167984 -0.049021 -4.980573
v -3.167984 3.950979 -4.980573
v -3.167984 -0.049021 -4.541925
v -3.167984 3.950979 -4.541925
v -3.534367 -0.049021 -4.980573
v -3.534367 3.950979 -4.980573
v -3.534367 -0.049021 -4.541925
v -3.534367 3.950979 -4.541925
v 0.195408 -0.049021 -4.980573
v 0.195408 3.950979 -4.980573
v 0.195408 -0.049021 -4.541925
v 0.195408 3.950979 -4.541925
v -0.170975 -0.049021 -4.980573
v -0.170975 3.950979 -4.980573
v -0.170975 -0.049021 -4.541925
v -0.170975 3.950979 -4.541925
v 3.558800 -0.049021 -4.980573
v 3.558800 3.950979 -4.980573
v 3.558800 -0.049021 -4.541925
v 3.558800 3.950979 -4.541925
v 3.192418 -0.049021 -4.980573
v 3.192418 3.950979 -4.980573
v 3.192418 -0.049021 -4.541925
v 3.192418 3.950979 -4.541925
v 6.922192 -0.049021 -4.980573
v 6.922192 3.950979 -4.980573
v 6.922192 -0.049021 -4.541925
v 6.922192 3.950979 -4.541925
v 6.555809 -0.049021 -4.980573
v 6.555809 3.950979 -4.980573
v 6.555809 -0.049021 -4.541925
v 6.555809 3.950979 -4.541925
v -6.531377 -0.049021 -1.471388
v -6.531377 3.950979 -1.471388
v -6.531377 -0.049021 -1.032740
v -6.531377 3.950979 -1.032740
v -6.897759 -0.049021 -1.471388
v -6.897759 3.950979 -1.471388
v -6.897759 -0.049021 -1.032740
v -6.897759 3.950979 -1.032740
v -3.167984 -0.049021 -1.471388
v -3.167984 3.950979 -1.471388
v -3.167984 -0.049021 -1.032740
v -3.167984 3.950979 -1.032740
v -3.534367 -0.049021 -1.471388
v -3.534367 3.950979 -1.471388
v -3.534367 -0.049021 -1.032740
v -3.534367 3.950979 -1.032740
v 0.195408 -0.049021 -1.471388
v 0.195408 3.950979 -1.471388
v 0.195408 -0.049021 -1.032740
v 0.195408 3.950979 -1.032740
v -0.170975 -0.049021 -1.471388
v -0.170975 3.950979 -1.471388
v -0.170975 -0.049021 -1.032740
v -0.170975 3.950979 -1.032740
v 3.558800 -0.049021 -1.471388
v 3.558800 3.950979 -1.471388
v 3.558800 -0.049021 -1.032740
v 3.558800 3.950979 -1.032740
v 3.192418 -0.049021 -1.471388
v 3.192418 3.950979 -1.471388
v 3.192418 -0.049021 -1.032740
v 3.192418 3.950979 -1.032740
v 6.922192 -0.049021 -1.471388
v 6.922192 3.950979 -1.471388
v 6.922192 -0.049021 -1.032740
v 6.922192 3.950979 -1.032740
v 6.555809 -0.049021 -1.471388
v 6.555809 3.950979 -1.471388
v 6.555809 -0.049021 -1.032740
v 6.555809 3.950979 -1.032740
vt 0.379395 0.122559
vt 0.392090 0.074707
vt 0.379395 0.074707
vt 0.324707 0.124512
vt 0.456543 0.075684
vt 0.324707 0.075684
vt 0.452637 0.117676
vt 0.324707 0.104980
vt 0.324707 0.117676
vt 0.324707 0.124512
vt 0.456543 0.075684
vt 0.324707 0.075684
vt 0.392090 0.122559
vt 0.379395 0.074707
vt 0.392090 0.074707
vt 0.452637 0.117676
vt 0.324707 0.104980
vt 0.324707 0.117676
vt 0.408691 0.074707
vt 0.381348 0.122559
vt 0.381348 0.074707
vt 0.392090 0.075684
vt 0.367676 0.124512
vt 0.367676 0.075684
vt 0.381348 0.074707
vt 0.408691 0.122559
vt 0.408691 0.074707
vt 0.367676 0.075684
vt 0.392090 0.124512
vt 0.392090 0.075684
vt 0.367676 0.104980
vt 0.391113 0.117676
vt 0.367676 0.117676
vt 0.408691 0.074707
vt 0.381348 0.122559
vt 0.381348 0.074707
vt 0.392090 0.075684
vt 0.367676 0.124512
vt 0.367676 0.075684
vt 0.381348 0.074707
vt 0.408691 0.122559
vt 0.408691 0.074707
vt 0.367676 0.075684
vt 0.392090 0.124512
vt 0.392090 0.075684
vt 0.367676 0.104980
vt 0.391113 0.117676
vt 0.367676 0.117676
vt 0.408691 0.074707
vt 0.381348 0.122559
vt 0.381348 0.074707
vt 0.392090 0.075684
vt 0.367676 0.124512
vt 0.367676 0.075684
vt 0.381348 0.074707
vt 0.408691 0.122559
vt 0.408691 0.074707
vt 0.367676 0.075684
vt 0.392090 0.124512
vt 0.392090 0.075684
vt 0.367676 0.104980
vt 0.391113 0.117676
vt 0.367676 0.117676
vt 0.408691 0.074707
vt 0.381348 0.122559
vt 0.381348 0.074707
vt 0.392090 0.075684
vt 0.367676 0.124512
vt 0.367676 0.075684
vt 0.381348 0.074707
vt 0.408691 0.122559
vt 0.408691 0.074707
vt 0.367676 0.075684
vt 0.392090 0.124512
vt 0.392090 0.075684
vt 0.367676 0.104980
vt 0.391113 0.117676
vt 0.367676 0.117676
vt 0.408691 0.074707
vt 0.381348 0.122559
vt 0.381348 0.074707
vt 0.392090 0.075684
vt 0.367676 0.124512
vt 0.367676 0.075684
vt 0.381348 0.074707
vt 0.408691 0.122559
vt 0.408691 0.074707
vt 0.367676 0.075684
vt 0.392090 0.124512
vt 0.392090 0.075684
vt 0.367676 0.104980
vt 0.391113 0.117676
vt 0.367676 0.117676
vt 0.408691 0.074707
vt 0.381348 0.122559
vt 0.381348 0.074707
vt 0.392090 0.075684
vt 0.367676 0.124512
vt 0.367676 0.075684
vt 0.381348 0.074707
vt 0.408691 0.122559
vt 0.408691 0.074707
vt 0.367676 0.075684
vt 0.392090 0.124512
vt 0.392090 0.075684
vt 0.367676 0.104980
vt 0.391113 0.117676
vt 0.367676 0.117676
vt 0.408691 0.074707
vt 0.381348 0.122559
vt 0.381348 0.074707
vt 0.392090 0.075684
vt 0.367676 0.124512
vt 0.367676 0.075684
vt 0.381348 0.074707
vt 0.408691 0.122559
vt 0.408691 0.074707
vt 0.367676 0.075684
vt 0.392090 0.124512
vt 0.392090 0.075684
vt 0.367676 0.104980
vt 0.391113 0.117676
vt 0.367676 0.117676
vt 0.408691 0.074707
vt 0.381348 0.122559
vt 0.381348 0.074707
vt 0.392090 0.075684
vt 0.367676 0.124512
vt 0.367676 0.075684
vt 0.381348 0.074707
vt 0.408691 0.122559
vt 0.408691 0.074707
vt 0.367676 0.075684
vt 0.392090 0.124512
vt 0.392090 0.075684
vt 0.367676 0.104980
vt 0.391113 0.117676
vt 0.367676 0.117676
vt 0.408691 0.074707
vt 0.381348 0.122559
vt 0.381348 0.074707
vt 0.392090 0.075684
vt 0.367676 0.124512
vt 0.367676 0.075684
vt 0.381348 0.074707
vt 0.408691 0.122559
vt 0.408691 0.074707
vt 0.367676 0.075684
vt 0.392090 0.124512
vt 0.392090 0.075684
vt 0.367676 0.104980
vt 0.391113 0.117676
vt 0.367676 0.117676
vt 0.408691 0.074707
vt 0.381348 0.122559
vt 0.381348 0.074707
vt 0.392090 0.075684
vt 0.367676 0.124512
vt 0.367676 0.075684
vt 0.381348 0.074707
vt 0.408691 0.122559
vt 0.408691 0.074707
vt 0.367676 0.075684
vt 0.392090 0.124512
vt 0.392090 0.075684
vt 0.367676 0.104980
vt 0.391113 0.117676
vt 0.367676 0.117676
vt 0.379395 0.122559
vt 0.324707 0.124512
vt 0.324707 0.104980
vt 0.452637 0.117676
vt 0.324707 0.117676
vt 0.324707 0.124512
vt 0.392090 0.122559
vt 0.324707 0.104980
vt 0.452637 0.117676
vt 0.324707 0.117676
vt 0.381348 0.122559
vt 0.408691 0.074707
vt 0.381348 0.074707
vt 0.367676 0.124512
vt 0.392090 0.075684
vt 0.367676 0.075684
vt 0.408691 0.122559
vt 0.381348 0.074707
vt 0.408691 0.074707
vt 0.392090 0.124512
vt 0.367676 0.075684
vt 0.392090 0.075684
vt 0.391113 0.117676
vt 0.367676 0.104980
vt 0.367676 0.117676
vt 0.381348 0.122559
vt 0.408691 0.074707
vt 0.381348 0.074707
vt 0.367676 0.124512
vt 0.392090 0.075684
vt 0.367676 0.075684
vt 0.408691 0.122559
vt 0.381348 0.074707
vt 0.408691 0.074707
vt 0.392090 0.124512
vt 0.367676 0.075684
vt 0.392090 0.075684
vt 0.391113 0.117676
vt 0.367676 0.104980
vt 0.367676 0.117676
vt 0.381348 0.122559
vt 0.408691 0.074707
vt 0.381348 0.074707
vt 0.367676 0.124512
vt 0.392090 0.075684
vt 0.367676 0.075684
vt 0.408691 0.122559
vt 0.381348 0.074707
vt 0.408691 0.074707
vt 0.392090 0.124512
vt 0.367676 0.075684
vt 0.392090 0.075684
vt 0.391113 0.117676
vt 0.367676 0.104980
vt 0.367676 0.117676
vt 0.381348 0.122559
vt 0.408691 0.074707
vt 0.381348 0.074707
vt 0.367676 0.124512
vt 0.392090 0.075684
vt 0.367676 0.075684
vt 0.408691 0.122559
vt 0.381348 0.074707
vt 0.408691 0.074707
vt 0.392090 0.124512
vt 0.367676 0.075684
vt 0.392090 0.075684
vt 0.391113 0.117676
vt 0.367676 0.104980
vt 0.367676 0.117676
vt 0.381348 0.122559
vt 0.408691 0.074707
vt 0.381348 0.074707
vt 0.367676 0.124512
vt 0.392090 0.075684
vt 0.367676 0.075684
vt 0.408691 0.122559
vt 0.381348 0.074707
vt 0.408691 0.074707
vt 0.392090 0.124512
vt 0.367676 0.075684
vt 0.392090 0.075684
vt 0.391113 0.117676
vt 0.367676 0.104980
vt 0.367676 0.117676
vt 0.381348 0.122559
vt 0.408691 0.074707
vt 0.381348 0.074707
vt 0.367676 0.124512
vt 0.392090 0.075684
vt 0.367676 0.075684
vt 0.408691 0.122559
vt 0.381348 0.074707
vt 0.408691 0.074707
vt 0.392090 0.124512
vt 0.367676 0.075684
vt 0.392090 0.075684
vt 0.391113 0.117676
vt 0.367676 0.104980
vt 0.367676 0.117676
vt 0.381348 0.122559
vt 0.408691 0.074707
vt 0.381348 0.074707
vt 0.367676 0.124512
vt 0.392090 0.075684
vt 0.367676 0.075684
vt 0.408691 0.122559
vt 0.381348 0.074707
vt 0.408691 0.074707
vt 0.392090 0.124512
vt 0.367676 0.075684
vt 0.392090 0.075684
vt 0.391113 0.117676
vt 0.367676 0.104980
vt 0.367676 0.117676
vt 0.381348 0.122559
vt 0.408691 0.074707
vt 0.381348 0.074707
vt 0.367676 0.124512
vt 0.392090 0.075684
vt 0.367676 0.075684
vt 0.408691 0.122559
vt 0.381348 0.074707
vt 0.408691 0.074707
vt 0.392090 0.124512
vt 0.367676 0.075684
vt 0.392090 0.075684
vt 0.391113 0.117676
vt 0.367676 0.104980
vt 0.367676 0.117676
vt 0.381348 0.122559
vt 0.408691 0.074707
vt 0.381348 0.074707
vt 0.367676 0.124512
vt 0.392090 0.075684
vt 0.367676 0.075684
vt 0.408691 0.122559
vt 0.381348 0.074707
vt 0.408691 0.074707
vt 0.392090 0.124512
vt 0.367676 0.075684
vt 0.392090 0.075684
vt 0.391113 0.117676
vt 0.367676 0.104980
vt 0.367676 0.117676
vt 0.381348 0.122559
vt 0.408691 0.074707
vt 0.381348 0.074707
vt 0.367676 0.124512
vt 0.392090 0.075684
vt 0.367676 0.075684
vt 0.408691 0.122559
vt 0.381348 0.074707
vt 0.408691 0.074707
vt 0.392090 0.124512
vt 0.367676 0.075684
vt 0.392090 0.075684
vt 0.391113 0.117676
vt 0.367676 0.104980
vt 0.367676 0.117676
vt 0.392090 0.122559
vt 0.456543 0.124512
vt 0.452637 0.104980
vt 0.456543 0.124512
vt 0.379395 0.122559
vt 0.452637 0.104980
vt 0.408691 0.122559
vt 0.392090 0.124512
vt 0.381348 0.122559
vt 0.367676 0.124512
vt 0.391113 0.104980
vt 0.408691 0.122559
vt 0.392090 0.124512
vt 0.381348 0.122559
vt 0.367676 0.124512
vt 0.391113 0.104980
vt 0.408691 0.122559
vt 0.392090 0.124512
vt 0.381348 0.122559
vt 0.367676 0.124512
vt 0.391113 0.104980
vt 0.408691 0.122559
vt 0.392090 0.124512
vt 0.381348 0.122559
vt 0.367676 0.124512
vt 0.391113 0.104980
vt 0.408691 0.122559
vt 0.392090 0.124512
vt 0.381348 0.122559
vt 0.367676 0.124512
vt 0.391113 0.104980
vt 0.408691 0.122559
vt 0.392090 0.124512
vt 0.381348 0.122559
vt 0.367676 0.124512
vt 0.391113 0.104980
vt 0.408691 0.122559
vt 0.392090 0.124512
vt 0.381348 0.122559
vt 0.367676 0.124512
vt 0.391113 0.104980
vt 0.408691 0.122559
vt 0.392090 0.124512
vt 0.381348 0.122559
vt 0.367676 0.124512
vt 0.391113 0.104980
vt 0.408691 0.122559
vt 0.392090 0.124512
vt 0.381348 0.122559
vt 0.367676 0.124512
vt 0.391113 0.104980
vt 0.408691 0.122559
vt 0.392090 0.124512
vt 0.381348 0.122559
vt 0.367676 0.124512
vt 0.391113 0.104980
vt 0.392090 0.122559
vt 0.456543 0.124512
vt 0.452637 0.104980
vt 0.456543 0.124512
vt 0.379395 0.122559
vt 0.452637 0.104980
vt 0.408691 0.122559
vt 0.392090 0.124512
vt 0.381348 0.122559
vt 0.367676 0.124512
vt 0.391113 0.104980
vt 0.408691 0.122559
vt 0.392090 0.124512
vt 0.381348 0.122559
vt 0.367676 0.124512
vt 0.391113 0.104980
vt 0.408691 0.122559
vt 0.392090 0.124512
vt 0.381348 0.122559
vt 0.367676 0.124512
vt 0.391113 0.104980
vt 0.408691 0.122559
vt 0.392090 0.124512
vt 0.381348 0.122559
vt 0.367676 0.124512
vt 0.391113 0.104980
vt 0.408691 0.122559
vt 0.392090 0.124512
vt 0.381348 0.122559
vt 0.367676 0.124512
vt 0.391113 0.104980
vt 0.408691 0.122559
vt 0.392090 0.124512
vt 0.381348 0.122559
vt 0.367676 0.124512
vt 0.391113 0.104980
vt 0.408691 0.122559
vt 0.392090 0.124512
vt 0.381348 0.122559
vt 0.367676 0.124512
vt 0.391113 0.104980
vt 0.408691 0.122559
vt 0.392090 0.124512
vt 0.381348 0.122559
vt 0.367676 0.124512
vt 0.391113 0.104980
vt 0.408691 0.122559
vt 0.392090 0.124512
vt 0.381348 0.122559
vt 0.367676 0.124512
vt 0.391113 0.104980
vt 0.408691 0.122559
vt 0.392090 0.124512
vt 0.381348 0.122559
vt 0.367676 0.124512
vt 0.391113 0.104980
vn -1.0000 0.0000 0.0000
vn 0.0000 1.0000 0.0000
vn 0.0000 0.0000 1.0000
vn 1.0000 0.0000 0.0000
vn 0.0000 0.0000 -1.0000
s off
f 1/1/1 89/2/1 87/3/1
f 2/4/2 92/5/2 89/6/2
f 2/7/3 3/8/3 4/9/3
f 4/10/2 96/11/2 92/12/2
f 6/13/4 94/14/4 96/15/4
f 4/16/3 5/17/3 6/18/3
f 9/19/4 8/20/4 7/21/4
f 13/22/5 10/23/5 9/24/5
f 11/25/1 14/26/1 13/27/1
f 7/28/3 12/29/3 11/30/3
f 12/31/2 10/32/2 14/33/2
f 17/34/4 16/35/4 15/36/4
f 21/37/5 18/38/5 17/39/5
f 19/40/1 22/41/1 21/42/1
f 15/43/3 20/44/3 19/45/3
f 20/46/2 18/47/2 22/48/2
f 25/49/4 24/50/4 23/51/4
f 29/52/5 26/53/5 25/54/5
f 27/55/1 30/56/1 29/57/1
f 23/58/3 28/59/3 27/60/3
f 28/61/2 26/62/2 30/63/2
f 33/64/4 32/65/4 31/66/4
f 37/67/5 34/68/5 33/69/5
f 35/70/1 38/71/1 37/72/1
f 31/73/3 36/74/3 35/75/3
f 36/76/2 34/77/2 38/78/2
f 41/79/4 40/80/4 39/81/4
f 45/82/5 42/83/5 41/84/5
f 43/85/1 46/86/1 45/87/1
f 39/88/3 44/89/3 43/90/3
f 44/91/2 42/92/2 46/93/2
f 49/94/4 48/95/4 47/96/4
f 53/97/5 50/98/5 49/99/5
f 51/100/1 54/101/1 53/102/1
f 47/103/3 52/104/3 51/105/3
f 52/106/2 50/107/2 54/108/2
f 57/109/4 56/110/4 55/111/4
f 61/112/5 58/113/5 57/114/5
f 59/115/1 62/116/1 61/117/1
f 55/118/3 60/119/3 59/120/3
f 60/121/2 58/122/2 62/123/2
f 65/124/4 64/125/4 63/126/4
f 69/127/5 66/128/5 65/129/5
f 67/130/1 70/131/1 69/132/1
f 63/133/3 68/134/3 67/135/3
f 68/136/2 66/137/2 70/138/2
f 73/139/4 72/140/4 71/141/4
f 77/142/5 74/143/5 73/144/5
f 75/145/1 78/146/1 77/147/1
f 71/148/3 76/149/3 75/150/3
f 76/151/2 74/152/2 78/153/2
f 81/154/4 80/155/4 79/156/4
f 85/157/5 82/158/5 81/159/5
f 83/160/1 86/161/1 85/162/1
f 79/163/3 84/164/3 83/165/3
f 84/166/2 82/167/2 86/168/2
f 89/2/1 88/169/1 87/3/1
f 92/5/2 90/170/2 89/6/2
f 91/171/5 90/172/5 93/173/5
f 96/11/2 93/174/2 92/12/2
f 94/14/4 97/175/4 96/15/4
f 95/176/5 93/177/5 97/178/5
f 99/179/4 100/180/4 98/181/4
f 101/182/3 104/183/3 100/184/3
f 105/185/1 102/186/1 104/187/1
f 103/188/5 98/189/5 102/190/5
f 101/191/2 103/192/2 105/193/2
f 107/194/4 108/195/4 106/196/4
f 109/197/3 112/198/3 108/199/3
f 113/200/1 110/201/1 112/202/1
f 111/203/5 106/204/5 110/205/5
f 109/206/2 111/207/2 113/208/2
f 115/209/4 116/210/4 114/211/4
f 117/212/3 120/213/3 116/214/3
f 121/215/1 118/216/1 120/217/1
f 119/218/5 114/219/5 118/220/5
f 117/221/2 119/222/2 121/223/2
f 123/224/4 124/225/4 122/226/4
f 125/227/3 128/228/3 124/229/3
f 129/230/1 126/231/1 128/232/1
f 127/233/5 122/234/5 126/235/5
f 125/236/2 127/237/2 129/238/2
f 131/239/4 132/240/4 130/241/4
f 133/242/3 136/243/3 132/244/3
f 137/245/1 134/246/1 136/247/1
f 135/248/5 130/249/5 134/250/5
f 133/251/2 135/252/2 137/253/2
f 139/254/4 140/255/4 138/256/4
f 141/257/3 144/258/3 140/259/3
f 145/260/1 142/261/1 144/262/1
f 143/263/5 138/264/5 142/265/5
f 141/266/2 143/267/2 145/268/2
f 147/269/4 148/270/4 146/271/4
f 149/272/3 152/273/3 148/274/3
f 153/275/1 150/276/1 152/277/1
f 151/278/5 146/279/5 150/280/5
f 149/281/2 151/282/2 153/283/2
f 155/284/4 156/285/4 154/286/4
f 157/287/3 160/288/3 156/289/3
f 161/290/1 158/291/1 160/292/1
f 159/293/5 154/294/5 158/295/5
f 157/296/2 159/297/2 161/298/2
f 163/299/4 164/300/4 162/301/4
f 165/302/3 168/303/3 164/304/3
f 169/305/1 166/306/1 168/307/1
f 167/308/5 162/309/5 166/310/5
f 165/311/2 167/312/2 169/313/2
f 171/314/4 172/315/4 170/316/4
f 173/317/3 176/318/3 172/319/3
f 177/320/1 174/321/1 176/322/1
f 175/323/5 170/324/5 174/325/5
f 173/326/2 175/327/2 177/328/2
f 1/1/1 2/329/1 89/2/1
f 2/4/2 4/330/2 92/5/2
f 2/7/3 1/331/3 3/8/3
f 4/10/2 6/332/2 96/11/2
f 6/13/4 5/333/4 94/14/4
f 4/16/3 3/334/3 5/17/3
f 9/19/4 10/335/4 8/20/4
f 13/22/5 14/336/5 10/23/5
f 11/25/1 12/337/1 14/26/1
f 7/28/3 8/338/3 12/29/3
f 12/31/2 8/339/2 10/32/2
f 17/34/4 18/340/4 16/35/4
f 21/37/5 22/341/5 18/38/5
f 19/40/1 20/342/1 22/41/1
f 15/43/3 16/343/3 20/44/3
f 20/46/2 16/344/2 18/47/2
f 25/49/4 26/345/4 24/50/4
f 29/52/5 30/346/5 26/53/5
f 27/55/1 28/347/1 30/56/1
f 23/58/3 24/348/3 28/59/3
f 28/61/2 24/349/2 26/62/2
f 33/64/4 34/350/4 32/65/4
f 37/67/5 38/351/5 34/68/5
f 35/70/1 36/352/1 38/71/1
f 31/73/3 32/353/3 36/74/3
f 36/76/2 32/354/2 34/77/2
f 41/79/4 42/355/4 40/80/4
f 45/82/5 46/356/5 42/83/5
f 43/85/1 44/357/1 46/86/1
f 39/88/3 40/358/3 44/89/3
f 44/91/2 40/359/2 42/92/2
f 49/94/4 50/360/4 48/95/4
f 53/97/5 54/361/5 50/98/5
f 51/100/1 52/362/1 54/101/1
f 47/103/3 48/363/3 52/104/3
f 52/106/2 48/364/2 50/107/2
f 57/109/4 58/365/4 56/110/4
f 61/112/5 62/366/5 58/113/5
f 59/115/1 60/367/1 62/116/1
f 55/118/3 56/368/3 60/119/3
f 60/121/2 56/369/2 58/122/2
f 65/124/4 66/370/4 64/125/4
f 69/127/5 70/371/5 66/128/5
f 67/130/1 68/372/1 70/131/1
f 63/133/3 64/373/3 68/134/3
f 68/136/2 64/374/2 66/137/2
f 73/139/4 74/375/4 72/140/4
f 77/142/5 78/376/5 74/143/5
f 75/145/1 76/377/1 78/146/1
f 71/148/3 72/378/3 76/149/3
f 76/151/2 72/379/2 74/152/2
f 81/154/4 82/380/4 80/155/4
f 85/157/5 86/381/5 82/158/5
f 83/160/1 84/382/1 86/161/1
f 79/163/3 80/383/3 84/164/3
f 84/166/2 80/384/2 82/167/2
f 89/2/1 90/385/1 88/169/1
f 92/5/2 93/386/2 90/170/2
f 91/171/5 88/387/5 90/172/5
f 96/11/2 97/388/2 93/174/2
f 94/14/4 95/389/4 97/175/4
f 95/176/5 91/390/5 93/177/5
f 99/179/4 101/391/4 100/180/4
f 101/182/3 105/392/3 104/183/3
f 105/185/1 103/393/1 102/186/1
f 103/188/5 99/394/5 98/189/5
f 101/191/2 99/395/2 103/192/2
f 107/194/4 109/396/4 108/195/4
f 109/197/3 113/397/3 112/198/3
f 113/200/1 111/398/1 110/201/1
f 111/203/5 107/399/5 106/204/5
f 109/206/2 107/400/2 111/207/2
f 115/209/4 117/401/4 116/210/4
f 117/212/3 121/402/3 120/213/3
f 121/215/1 119/403/1 118/216/1
f 119/218/5 115/404/5 114/219/5
f 117/221/2 115/405/2 119/222/2
f 123/224/4 125/406/4 124/225/4
f 125/227/3 129/407/3 128/228/3
f 129/230/1 127/408/1 126/231/1
f 127/233/5 123/409/5 122/234/5
f 125/236/2 123/410/2 127/237/2
f 131/239/4 133/411/4 132/240/4
f 133/242/3 137/412/3 136/243/3
f 137/245/1 135/413/1 134/246/1
f 135/248/5 131/414/5 130/249/5
f 133/251/2 131/415/2 135/252/2
f 139/254/4 141/416/4 140/255/4
f 141/257/3 145/417/3 144/258/3
f 145/260/1 143/418/1 142/261/1
f 143/263/5 139/419/5 138/264/5
f 141/266/2 139/420/2 143/267/2
f 147/269/4 149/421/4 148/270/4
f 149/272/3 153/422/3 152/273/3
f 153/275/1 151/423/1 150/276/1
f 151/278/5 147/424/5 146/279/5
f 149/281/2 147/425/2 151/282/2
f 155/284/4 157/426/4 156/285/4
f 157/287/3 161/427/3 160/288/3
f 161/290/1 159/428/1 158/291/1
f 159/293/5 155/429/5 154/294/5
f 157/296/2 155/430/2 159/297/2
f 163/299/4 165/431/4 164/300/4
f 165/302/3 169/432/3 168/303/3
f 169/305/1 167/433/1 166/306/1
f 167/308/5 163/434/5 162/309/5
f 165/311/2 163/435/2 167/312/2
f 171/314/4 173/436/4 172/315/4
f 173/317/3 177/437/3 176/318/3
f 177/320/1 175/438/1 174/321/1
f 175/323/5 171/439/5 170/324/5
f 173/326/2 171/440/2 175/327/2
