# Blender v2.83.4 OBJ File: ''
# www.blender.org
o Container.004_Cube.006
v 4.191362 -0.004734 2.011058
v 4.187928 4.391111 1.976245
v 1.013611 4.391111 2.033722
v 1.013611 -0.004734 2.033717
v 4.187928 4.391112 -1.976236
v 1.013611 4.391112 -1.996912
v 1.013611 4.391111 1.996922
v 4.185611 -0.004734 -1.965902
v 1.013611 -0.004734 -2.033717
v 1.013611 4.391112 -2.033711
v -2.141225 4.391111 1.976245
v -2.141225 4.391112 -1.976236
v -2.129168 -0.004734 -1.965902
v -2.129168 -0.004734 1.965902
vt 0.367188 0.867188
vt 0.367188 0.867188
vt 0.367188 0.992188
vt 0.367188 0.992188
vt 0.367188 0.867188
vt 0.367188 0.992188
vt 0.367188 0.992188
vt 0.367188 0.867188
vt 0.367188 0.992188
vt 0.367188 0.992188
vt 0.367188 0.929688
vt 0.367188 0.929688
vt 0.367188 0.992188
vt 0.367188 0.992188
vt 0.367188 0.929688
vt 0.367188 0.992188
vt 0.367188 0.992188
vt 0.367188 0.929688
vt 0.367188 0.867188
vt 0.367188 0.867188
vt 0.367188 0.992188
vt 0.367188 0.867188
vt 0.367188 0.992188
vt 0.367188 0.867188
vt 0.367188 0.867188
vt 0.367188 0.867188
vn 0.0126 0.0040 0.9999
vn -0.0036 0.0014 1.0000
vn 0.0000 1.0000 0.0000
vn 0.0197 -0.0012 -0.9998
vn -0.0001 -0.0012 -1.0000
vn -1.0000 -0.0027 -0.0000
vn 1.0000 0.0001 -0.0007
vn -0.0199 -0.0012 0.9998
vn -0.0199 -0.0012 -0.9998
s 1
f 1/1/1 2/2/1 3/3/2 4/4/2
f 5/5/3 6/6/3 7/7/3 2/2/3
f 8/8/4 9/9/5 10/10/5 5/5/4
f 11/11/6 12/12/6 13/13/6 14/14/6
f 2/15/7 1/16/7 8/17/7 5/18/7
f 4/19/2 3/20/2 11/21/8 14/14/8
f 6/22/3 12/23/3 11/21/3 7/24/3
f 9/25/5 13/13/9 12/23/9 10/26/5
