# Blender v2.91.0 Beta OBJ File: 'HOUSE02.blend'
# www.blender.org
o alumsiding01.019_tree.002_tree.005_alumsiding01.019_tree.005_alumsiding01.019_tree.002_tree.005_alumsiding01.019_tree.003
v -11.263481 9.329287 0.000000
v 0.000000 9.329289 -11.558914
v 11.263481 9.329287 0.000000
v 0.000000 9.329289 11.558914
v 0.000000 20.931818 -11.558908
v -11.263481 54.552109 0.000000
v -11.263481 76.918633 0.000000
v 0.000000 76.918633 -11.558903
v -11.263481 65.653748 0.000000
v 0.000000 20.931818 11.558908
v 0.000000 65.653748 -11.558908
v 0.000000 43.502617 11.558908
v 0.000000 76.918633 11.558903
v 0.000000 65.653748 11.558908
v 11.263481 32.087402 0.000000
v -11.263481 9.329288 -7.283945
v -7.051137 9.329290 -11.519750
v -7.051137 32.087406 -11.519739
v 11.263481 20.931814 0.000000
v -7.051137 9.329290 11.519750
v -11.263481 9.329288 7.283945
v -7.051137 20.931816 -11.519744
v -11.263481 20.931816 -7.283939
v -7.051137 32.087406 11.519739
v -11.263481 32.087406 7.283934
v -7.051137 43.502617 -11.519744
v -11.263481 43.502617 -7.283939
v -7.051137 54.552116 -11.519746
v -7.051138 76.918633 -11.519739
v -11.263481 76.918633 -7.283934
v -7.051137 65.653748 -11.519744
v -11.263481 65.653748 -7.283939
v 11.263481 54.552109 0.000000
v -11.263481 43.502617 7.283939
v 11.263481 76.918633 0.000000
v -11.263481 54.552116 7.283945
v -11.263481 76.918633 7.283934
v -7.051137 76.918633 11.519739
v 11.263481 65.653748 0.000000
v -11.263481 65.653748 7.283939
v -7.051137 65.653748 11.519744
v 11.263481 9.329288 -7.283945
v 7.051137 9.329290 -11.519750
v 11.263481 32.087406 -7.283934
v 7.051137 9.329290 11.519750
v 11.263481 9.329288 7.283945
v 11.263481 20.931816 -7.283939
v 7.051137 32.087406 11.519739
v 11.263481 32.087406 7.283934
v -9.654808 79.117790 0.000000
v 0.000000 79.117790 -9.908037
v 0.000000 79.117790 9.908037
v 7.051137 43.502617 -11.519744
v -6.044081 79.117790 -9.874467
v -9.654808 79.117790 -6.243628
v -9.654808 79.117790 6.243628
v -6.044080 79.117790 9.874467
v 11.263481 43.502617 -7.283939
v 11.263481 20.931816 7.283939
v 7.051137 20.931816 11.519744
v 7.051137 54.552116 -11.519746
v 7.051138 76.918633 -11.519739
v 11.263481 76.918633 -7.283934
v 7.051137 65.653748 -11.519744
v 11.263481 65.653748 -7.283939
v 7.051137 54.552116 11.519746
v 0.000000 79.117790 0.000000
v 11.263481 76.918633 7.283934
v 7.051137 76.918633 11.519739
v 11.263481 65.653748 7.283939
v 7.051137 65.653748 11.519744
v 9.654808 79.117790 0.000000
v 6.044081 79.117790 -9.874467
v 9.654808 79.117790 -6.243628
v 9.654808 79.117790 6.243628
v 6.044080 79.117790 9.874467
v -5.851192 9.329290 -9.559346
v -9.346689 9.329288 -6.044381
v 5.851192 9.329290 -9.559346
v 9.346689 9.329288 -6.044381
v -9.346689 9.329288 6.044381
v -5.851192 9.329290 9.559346
v 0.000000 9.329289 -9.591846
v -9.346689 9.329287 0.000000
v 0.000000 9.329289 9.591846
v 9.346689 9.329288 6.044381
v 5.851192 9.329290 9.559346
v 9.346689 9.329287 0.000000
v -9.346689 1.882100 -6.044381
v -5.851192 1.882102 -9.559346
v -5.851192 1.882102 9.559346
v -9.346689 1.882100 6.044381
v 0.000000 1.882101 -9.591846
v -9.346689 1.882098 0.000000
v 0.000000 1.882101 9.591846
v 9.346689 1.882100 -6.044381
v 5.851192 1.882102 -9.559346
v 5.851192 1.882102 9.559346
v 9.346689 1.882100 6.044381
v 9.346689 1.882098 0.000000
v -11.263481 50.955399 0.000000
v 0.000000 50.955399 -11.558905
v 0.000000 50.955399 11.558905
v 11.263481 50.955406 -7.283943
v 11.263481 50.955399 0.000000
v -11.263481 50.955406 7.283943
v -11.263481 32.087402 0.000000
v 0.000000 32.087410 -11.558903
v -11.263481 20.931814 0.000000
v 0.000000 54.552109 -11.558903
v -11.263481 43.502609 0.000000
v 0.000000 32.087410 11.558903
v 0.000000 43.502617 -11.558908
v 0.000000 54.552109 11.558903
v -11.263481 32.087406 -7.283934
v -11.263481 20.931816 7.283939
v -7.051137 20.931816 11.519744
v -11.263481 54.552116 -7.283945
v -7.051137 43.502617 11.519744
v 11.263481 43.502609 0.000000
v -7.051137 54.552116 11.519746
v 7.051137 32.087406 -11.519739
v 7.051137 20.931816 -11.519744
v 11.263481 54.552116 -7.283945
v 7.051137 43.502617 11.519744
v 11.263481 43.502617 7.283939
v 11.263481 54.552116 7.283945
v -11.263481 50.955406 -7.283943
v 7.051137 50.955406 11.519745
v -7.051137 50.955406 11.519745
v 7.051137 50.955406 -11.519745
v -7.051137 50.955406 -11.519745
v 11.263481 50.955406 7.283943
vt 0.031738 0.365669
vt 0.140137 0.199707
vt 0.031738 0.199707
vt 0.140137 0.472861
vt 0.031738 0.524308
vt 0.140137 0.524308
vt 0.140137 0.365669
vt 0.140137 0.199707
vt 0.140137 0.525239
vt 0.031738 0.365669
vt 0.140137 0.365669
vt 0.129395 0.818848
vt 0.129395 0.818848
vt 0.129395 0.818848
vt 0.031738 0.360840
vt 0.139648 0.202042
vt 0.139160 0.360840
vt 0.140137 0.472861
vt 0.031738 0.524308
vt 0.140137 0.524308
vt 0.031738 0.521973
vt 0.139160 0.521973
vt 0.140137 0.202973
vt 0.031738 0.366256
vt 0.140137 0.366256
vt 0.139160 0.365669
vt 0.204590 0.199707
vt 0.140137 0.199707
vt 0.031738 0.472861
vt 0.139160 0.360840
vt 0.139160 0.521973
vt 0.031738 0.472861
vt 0.139160 0.366256
vt 0.139160 0.472861
vt 0.139160 0.525239
vt 0.031738 0.365669
vt 0.139160 0.365669
vt 0.129395 0.818848
vt 0.129395 0.818848
vt 0.129395 0.818848
vt 0.031738 0.472861
vt 0.139160 0.366256
vt 0.139160 0.472861
vt 0.031738 0.366256
vt 0.139648 0.202973
vt 0.129395 0.818848
vt 0.129395 0.818848
vt 0.140137 0.366256
vt 0.139160 0.360840
vt 0.031738 0.521973
vt 0.139160 0.521973
vt 0.139160 0.360840
vt 0.139160 0.521973
vt 0.139648 0.202042
vt 0.031738 0.360840
vt 0.139648 0.202973
vt 0.031738 0.366256
vt 0.031738 0.202973
vt 0.145996 0.361816
vt 0.131348 0.361816
vt 0.131348 0.361816
vt 0.140137 0.202042
vt 0.031738 0.360840
vt 0.140137 0.360840
vt 0.139648 0.202042
vt 0.139648 0.202042
vt 0.031738 0.521973
vt 0.140137 0.521973
vt 0.139160 0.525239
vt 0.031738 0.365669
vt 0.031738 0.525239
vt 0.140137 0.472861
vt 0.140137 0.360840
vt 0.140137 0.199707
vt 0.204590 0.360840
vt 0.204590 0.199707
vt 0.140137 0.202042
vt 0.031738 0.202042
vt 0.140137 0.360840
vt 0.031738 0.521973
vt 0.140137 0.521973
vt 0.204590 0.199707
vt 0.139160 0.365669
vt 0.140137 0.199707
vt 0.139160 0.366256
vt 0.204590 0.202973
vt 0.139648 0.202973
vt 0.204590 0.199707
vt 0.140137 0.360840
vt 0.140137 0.199707
vt 0.140137 0.360840
vt 0.031738 0.360840
vt 0.204590 0.360840
vt 0.204590 0.202042
vt 0.204590 0.363175
vt 0.140137 0.311728
vt 0.204590 0.311728
vt 0.140137 0.202973
vt 0.031738 0.366256
vt 0.031738 0.202973
vt 0.140137 0.472861
vt 0.031738 0.472861
vt 0.140137 0.360840
vt 0.204590 0.199707
vt 0.140137 0.199707
vt 0.204590 0.202042
vt 0.140137 0.360840
vt 0.204590 0.360840
vt 0.139648 0.202973
vt 0.139160 0.366256
vt 0.131348 0.361816
vt 0.145996 0.361816
vt 0.131348 0.361816
vt 0.140137 0.360840
vt 0.204590 0.202042
vt 0.140137 0.202042
vt 0.140137 0.311728
vt 0.204590 0.363175
vt 0.204590 0.311728
vt 0.140137 0.202042
vt 0.031738 0.202042
vt 0.131348 0.361816
vt 0.105957 0.361816
vt 0.131348 0.361816
vt 0.204590 0.199707
vt 0.140137 0.360840
vt 0.140137 0.199707
vt 0.150879 0.692871
vt 0.150879 0.692871
vt 0.150879 0.692871
vt 0.150879 0.692871
vt 0.150879 0.692871
vt 0.150879 0.692871
vt 0.150879 0.692871
vt 0.150879 0.692871
vt 0.150879 0.692871
vt 0.150879 0.692871
vt 0.150879 0.692871
vt 0.150879 0.692871
vt 0.150879 0.692871
vt 0.150879 0.692871
vt 0.150879 0.692871
vt 0.150879 0.692871
vt 0.150879 0.692871
vt 0.150879 0.692871
vt 0.140137 0.311728
vt 0.204590 0.363175
vt 0.140137 0.363175
vt 0.140137 0.202973
vt 0.140137 0.366256
vt 0.140137 0.202973
vt 0.031738 0.202973
vt 0.129395 0.818848
vt 0.129395 0.818848
vt 0.129395 0.818848
vt 0.129395 0.818848
vt 0.129395 0.818848
vt 0.150879 0.692871
vt 0.150879 0.692871
vt 0.150879 0.692871
vt 0.150879 0.692871
vt 0.204590 0.202042
vt 0.140137 0.360840
vt 0.131348 0.361816
vt 0.131348 0.361816
vt 0.131348 0.361816
vt 0.145996 0.361816
vt 0.131348 0.361816
vt 0.105957 0.361816
vt 0.130371 0.361816
vt 0.130371 0.361816
vt 0.140137 0.311728
vt 0.204590 0.363175
vt 0.204590 0.311728
vt 0.140137 0.018066
vt 0.204590 0.104004
vt 0.204590 0.018066
vt 0.140137 0.018066
vt 0.031738 0.104004
vt 0.031738 0.018066
vt 0.031738 0.104004
vt 0.139160 0.104004
vt 0.140137 0.018066
vt 0.031738 0.104004
vt 0.139160 0.104004
vt 0.140137 0.018066
vt 0.031738 0.104004
vt 0.140137 0.104004
vt 0.140137 0.018066
vt 0.031738 0.018066
vt 0.140137 0.018066
vt 0.139160 0.104004
vt 0.140137 0.018066
vt 0.139160 0.104004
vt 0.204590 0.018066
vt 0.140137 0.104004
vt 0.204590 0.104004
vt 0.204590 0.018066
vt 0.204590 0.104004
vt 0.204590 0.018066
vt 0.140137 0.018066
vt 0.140137 0.104004
vt 0.130371 0.361816
vt 0.130371 0.361816
vt 0.105957 0.361816
vt 0.131348 0.361816
vt 0.131348 0.361816
vt 0.130371 0.361816
vt 0.105957 0.361816
vt 0.130371 0.361816
vt 0.130371 0.361816
vt 0.130371 0.361816
vt 0.145996 0.361816
vt 0.131348 0.361816
vt 0.131348 0.361816
vt 0.131348 0.361816
vt 0.131348 0.361816
vt 0.204590 0.199707
vt 0.140137 0.199707
vt 0.139160 0.199707
vt 0.139160 0.199707
vt 0.031738 0.199707
vt 0.140137 0.199707
vt 0.139160 0.199707
vt 0.139160 0.365669
vt 0.204590 0.199707
vt 0.140137 0.199707
vt 0.140137 0.199707
vt 0.139160 0.199707
vt 0.140137 0.525239
vt 0.031738 0.525239
vt 0.140137 0.525239
vt 0.031738 0.525239
vt 0.140137 0.364106
vt 0.204590 0.204537
vt 0.204590 0.364106
vt 0.204590 0.364106
vt 0.140137 0.204537
vt 0.204590 0.204537
vt 0.140137 0.364106
vt 0.204590 0.204537
vt 0.140137 0.204537
vt 0.204590 0.364106
vt 0.140137 0.204537
vt 0.140137 0.364106
vt 0.140137 0.525239
vt 0.139160 0.525239
vt 0.031738 0.525239
vt 0.139160 0.525239
vt 0.204614 0.366256
vt 0.204590 0.202973
vt 0.204614 0.366256
vt 0.204590 0.202973
vt 0.204590 0.311728
vt 0.140137 0.205123
vt 0.204590 0.205123
vt 0.140137 0.205123
vt 0.204590 0.205123
vt 0.140137 0.366256
vt 0.140137 0.205123
vt 0.204590 0.205123
vt 0.139160 0.472861
vt 0.140137 0.205123
vt 0.204590 0.205123
vt 0.031738 0.524308
vt 0.139160 0.524308
vt 0.031738 0.524308
vt 0.139160 0.524308
vt 0.139160 0.524308
vt 0.139160 0.472861
vt 0.139160 0.524308
vt 0.204590 0.202973
vt 0.140137 0.365669
vt 0.031738 0.202042
vt 0.204611 0.365669
vt 0.031738 0.202973
vt 0.031738 0.202042
vt 0.145996 0.361816
vt 0.140137 0.524308
vt 0.140137 0.521973
vt 0.140137 0.360840
vt 0.204611 0.365669
vt 0.204614 0.366256
vt 0.204590 0.360840
vt 0.140137 0.521973
vt 0.140137 0.360840
vt 0.140137 0.363175
vt 0.140137 0.524308
vt 0.204590 0.360840
vt 0.145996 0.361816
vt 0.204590 0.360840
vt 0.140137 0.363175
vt 0.105957 0.361816
vt 0.204590 0.360840
vt 0.150879 0.692871
vt 0.150879 0.692871
vt 0.204590 0.360840
vt 0.145996 0.361816
vt 0.105957 0.361816
vt 0.140137 0.363175
vt 0.140137 0.104004
vt 0.140137 0.104004
vt 0.031738 0.018066
vt 0.031738 0.018066
vt 0.140137 0.104004
vt 0.204590 0.104004
vt 0.140137 0.104004
vt 0.140137 0.104004
vt 0.105957 0.361816
vt 0.105957 0.361816
vt 0.145996 0.361816
vt 0.204611 0.365669
vt 0.031738 0.199707
vt 0.031738 0.199707
vt 0.204611 0.365669
vt 0.140137 0.365669
vt 0.140137 0.204537
vt 0.140137 0.364106
vt 0.204590 0.364106
vt 0.204590 0.204537
vt 0.204614 0.366256
vn 1.0000 -0.0000 0.0000
vn -1.0000 0.0000 0.0000
vn 0.0000 1.0000 -0.0000
vn 0.0000 0.0000 1.0000
vn 0.0056 -0.0000 1.0000
vn 0.7091 0.0000 -0.7051
vn -0.0056 0.0000 1.0000
vn -0.0000 0.0000 -1.0000
vn -0.0056 -0.0000 -1.0000
vn 0.0056 0.0000 -1.0000
vn 0.7091 0.0000 0.7051
vn -0.7091 0.0000 -0.7051
vn -0.7091 0.0000 0.7051
vn -0.8071 0.5904 0.0000
vn -0.5397 0.6486 0.5367
vn -0.5397 0.6486 -0.5367
vn 0.8071 0.5904 0.0000
vn -0.0000 0.6003 0.7997
vn -0.0044 0.6003 0.7997
vn 0.5397 0.6486 0.5367
vn 0.0000 0.6003 -0.7997
vn -0.0044 0.6003 -0.7997
vn 0.0044 0.6003 0.7997
vn 0.0044 0.6003 -0.7997
vn 0.5397 0.6486 -0.5367
s 1
f 19/1/1 46/2/1 3/3/1
f 133/4/1 33/5/1 127/6/1
f 47/7/1 3/3/1 42/8/1
f 25/9/2 109/10/2 116/11/2
f 75/12/3 52/13/3 76/14/3
f 14/15/4 66/16/5 71/17/5
f 128/18/2 6/19/2 118/20/2
f 13/21/4 71/17/5 69/22/5
f 115/23/2 111/24/2 27/25/2
f 123/26/6 42/27/6 43/28/6
f 101/29/2 27/25/2 111/24/2
f 41/30/7 13/21/4 38/31/7
f 102/32/8 26/33/9 132/34/9
f 18/35/9 5/36/8 22/37/9
f 51/38/3 67/39/3 72/40/3
f 103/41/4 125/42/5 129/43/5
f 113/44/8 18/45/9 26/33/9
f 51/38/3 74/46/3 73/47/3
f 34/48/2 101/29/2 111/24/2
f 64/49/10 8/50/8 62/51/10
f 8/50/8 31/52/9 29/53/9
f 61/54/10 11/55/8 64/49/10
f 48/56/5 12/57/4 112/58/4
f 46/59/3 87/60/3 45/61/3
f 118/62/2 9/63/2 32/64/2
f 11/55/8 28/65/9 31/52/9
f 121/66/7 14/15/4 41/30/7
f 32/64/2 7/67/2 30/68/2
f 24/69/7 10/70/4 112/71/4
f 106/72/2 6/19/2 101/29/2
f 40/73/2 7/67/2 9/63/2
f 64/74/6 63/75/6 65/76/6
f 36/77/2 9/63/2 6/78/2
f 70/79/1 35/80/1 68/81/1
f 46/82/11 60/83/11 45/84/11
f 53/85/6 44/86/6 122/87/6
f 32/88/12 29/89/12 31/90/12
f 65/91/1 35/80/1 39/92/1
f 32/93/12 28/65/12 118/94/12
f 122/87/10 113/44/8 53/85/10
f 118/95/12 132/96/12 128/97/12
f 44/98/1 120/99/1 15/100/1
f 104/101/1 33/5/1 105/102/1
f 38/103/13 40/104/13 41/105/13
f 124/106/6 64/107/6 65/108/6
f 24/109/7 12/57/4 119/110/7
f 82/111/3 21/112/3 20/113/3
f 41/114/13 36/115/13 121/66/13
f 127/116/1 39/92/1 70/79/1
f 130/117/13 36/118/13 106/119/13
f 124/120/1 39/92/1 33/121/1
f 80/122/3 3/123/3 42/124/3
f 70/125/11 69/126/11 71/127/11
f 7/128/14 55/129/14 30/130/14
f 37/131/15 57/132/15 56/133/15
f 30/130/16 54/134/16 29/135/16
f 35/136/17 75/137/17 68/138/17
f 13/139/18 57/132/19 38/140/19
f 7/128/14 56/133/14 50/141/14
f 68/138/20 76/142/20 69/143/20
f 8/144/21 54/134/22 51/145/21
f 76/142/23 13/139/18 69/143/23
f 129/146/11 127/147/11 66/148/11
f 49/149/1 120/99/1 126/150/1
f 25/151/2 111/24/2 107/152/2
f 51/38/3 54/153/3 55/154/3
f 50/155/3 56/156/3 52/13/3
f 56/156/3 57/157/3 52/13/3
f 51/38/3 55/154/3 50/155/3
f 74/158/17 35/136/17 63/159/17
f 8/144/21 73/160/24 62/161/24
f 73/160/25 63/159/25 62/161/25
f 127/162/11 71/163/11 66/16/11
f 51/38/3 50/155/3 67/39/3
f 3/123/3 86/164/3 46/165/3
f 79/166/3 42/167/3 43/168/3
f 51/38/3 72/40/3 74/46/3
f 72/40/3 52/13/3 75/12/3
f 2/169/3 79/170/3 43/171/3
f 72/40/3 67/39/3 52/13/3
f 50/155/3 52/13/3 67/39/3
f 131/172/6 124/173/6 104/174/6
f 97/175/6 80/176/6 96/177/6
f 96/178/1 88/179/1 100/180/1
f 97/175/10 83/181/8 79/182/10
f 91/183/7 85/184/4 82/185/7
f 89/186/2 84/187/2 78/188/2
f 92/189/2 84/187/2 94/190/2
f 83/181/8 90/191/9 77/192/9
f 85/184/4 98/193/5 87/194/5
f 99/195/11 87/196/11 98/193/11
f 78/197/12 90/191/12 89/198/12
f 91/183/13 81/199/13 92/200/13
f 99/201/1 88/179/1 86/202/1
f 77/203/3 2/169/3 17/204/3
f 1/205/3 78/206/3 16/207/3
f 87/208/3 4/209/3 45/210/3
f 4/209/3 82/211/3 20/212/3
f 16/213/3 77/214/3 17/215/3
f 81/216/3 1/205/3 21/217/3
f 16/218/12 22/37/12 17/219/12
f 10/70/4 45/220/5 60/83/5
f 5/36/8 17/221/9 22/37/9
f 116/11/2 1/222/2 21/223/2
f 43/224/10 5/36/8 123/26/10
f 117/225/13 21/226/13 20/227/13
f 109/10/2 16/228/2 1/222/2
f 20/229/7 10/70/4 117/225/7
f 49/230/1 19/1/1 15/231/1
f 115/232/2 109/10/2 107/233/2
f 18/234/12 23/235/12 115/236/12
f 49/237/11 60/238/11 59/239/11
f 122/240/6 47/241/6 123/242/6
f 25/243/13 117/244/13 24/245/13
f 15/231/1 47/7/1 44/246/1
f 122/247/10 5/36/8 108/248/8
f 10/70/4 48/249/5 112/71/4
f 126/250/11 48/56/11 49/251/11
f 27/252/12 18/45/12 115/253/12
f 133/254/11 125/255/11 126/256/11
f 119/257/13 106/119/13 34/258/13
f 58/259/1 105/102/1 120/99/1
f 128/97/12 26/260/12 27/261/12
f 53/85/10 102/32/8 131/262/10
f 53/263/6 104/174/6 58/264/6
f 105/102/1 126/150/1 120/99/1
f 110/265/8 132/34/9 28/266/9
f 114/267/4 129/43/5 66/268/5
f 131/262/10 110/265/8 61/269/10
f 130/270/7 114/267/4 121/271/7
f 119/110/7 103/41/4 130/270/7
f 119/110/13 25/272/13 24/109/13
f 19/1/1 59/273/1 46/2/1
f 133/4/1 105/102/1 33/5/1
f 47/7/1 19/1/1 3/3/1
f 25/9/2 107/233/2 109/10/2
f 14/15/4 114/274/4 66/16/5
f 128/18/2 101/29/2 6/19/2
f 13/21/4 14/15/4 71/17/5
f 115/23/2 107/152/2 111/24/2
f 123/26/6 47/275/6 42/27/6
f 101/29/2 128/18/2 27/25/2
f 41/30/7 14/15/4 13/21/4
f 102/32/8 113/44/8 26/33/9
f 18/35/9 108/248/8 5/36/8
f 103/41/4 12/57/4 125/42/5
f 113/44/8 108/276/8 18/45/9
f 34/48/2 106/72/2 101/29/2
f 64/49/10 11/55/8 8/50/8
f 8/50/8 11/55/8 31/52/9
f 61/54/10 110/277/8 11/55/8
f 48/56/5 125/42/5 12/57/4
f 46/59/3 86/278/3 87/60/3
f 118/62/2 6/78/2 9/63/2
f 11/55/8 110/277/8 28/65/9
f 121/66/7 114/274/4 14/15/4
f 32/64/2 9/63/2 7/67/2
f 24/69/7 117/225/7 10/70/4
f 106/72/2 36/279/2 6/19/2
f 40/73/2 37/280/2 7/67/2
f 64/74/6 62/281/6 63/75/6
f 36/77/2 40/73/2 9/63/2
f 70/79/1 39/92/1 35/80/1
f 46/82/11 59/282/11 60/83/11
f 53/85/6 58/283/6 44/86/6
f 32/88/12 30/284/12 29/89/12
f 65/91/1 63/285/1 35/80/1
f 32/93/12 31/286/12 28/65/12
f 122/87/10 108/276/8 113/44/8
f 118/95/12 28/287/12 132/96/12
f 44/98/1 58/259/1 120/99/1
f 104/101/1 124/288/1 33/5/1
f 38/103/13 37/289/13 40/104/13
f 124/106/6 61/54/6 64/107/6
f 24/109/7 112/58/4 12/57/4
f 82/111/3 81/290/3 21/112/3
f 41/114/13 40/291/13 36/115/13
f 127/116/1 33/121/1 39/92/1
f 130/117/13 121/292/13 36/118/13
f 124/120/1 65/91/1 39/92/1
f 80/122/3 88/293/3 3/123/3
f 70/125/11 68/294/11 69/126/11
f 7/128/14 50/141/14 55/129/14
f 37/131/15 38/140/15 57/132/15
f 30/130/16 55/129/16 54/134/16
f 35/136/17 72/295/17 75/137/17
f 13/139/18 52/296/18 57/132/19
f 7/128/14 37/131/14 56/133/14
f 68/138/20 75/137/20 76/142/20
f 8/144/21 29/135/22 54/134/22
f 76/142/23 52/296/18 13/139/18
f 129/146/11 133/254/11 127/147/11
f 49/149/1 15/100/1 120/99/1
f 25/151/2 34/48/2 111/24/2
f 74/158/17 72/295/17 35/136/17
f 8/144/21 51/145/21 73/160/24
f 73/160/25 74/158/25 63/159/25
f 127/162/11 70/297/11 71/163/11
f 3/123/3 88/293/3 86/164/3
f 79/166/3 80/298/3 42/167/3
f 2/169/3 83/299/3 79/170/3
f 131/172/6 61/300/6 124/173/6
f 97/175/6 79/301/6 80/176/6
f 96/178/1 80/302/1 88/179/1
f 97/175/10 93/303/8 83/181/8
f 91/183/7 95/304/4 85/184/4
f 89/186/2 94/190/2 84/187/2
f 92/189/2 81/305/2 84/187/2
f 83/181/8 93/303/8 90/191/9
f 85/184/4 95/304/4 98/193/5
f 99/195/11 86/306/11 87/196/11
f 78/197/12 77/307/12 90/191/12
f 91/183/13 82/308/13 81/199/13
f 99/201/1 100/180/1 88/179/1
f 77/203/3 83/299/3 2/169/3
f 1/205/3 84/309/3 78/206/3
f 87/208/3 85/310/3 4/209/3
f 4/209/3 85/310/3 82/211/3
f 16/213/3 78/311/3 77/214/3
f 81/216/3 84/309/3 1/205/3
f 16/218/12 23/312/12 22/37/12
f 10/70/4 4/313/4 45/220/5
f 5/36/8 2/314/8 17/221/9
f 116/11/2 109/10/2 1/222/2
f 43/224/10 2/314/8 5/36/8
f 117/225/13 116/315/13 21/226/13
f 109/10/2 23/316/2 16/228/2
f 20/229/7 4/313/4 10/70/4
f 49/230/1 59/273/1 19/1/1
f 115/232/2 23/316/2 109/10/2
f 18/234/12 22/317/12 23/235/12
f 49/237/11 48/318/11 60/238/11
f 122/240/6 44/319/6 47/241/6
f 25/243/13 116/320/13 117/244/13
f 15/231/1 19/1/1 47/7/1
f 122/247/10 123/26/10 5/36/8
f 10/70/4 60/83/5 48/249/5
f 126/250/11 125/42/11 48/56/11
f 27/252/12 26/33/12 18/45/12
f 133/254/11 129/146/11 125/255/11
f 119/257/13 130/117/13 106/119/13
f 58/259/1 104/101/1 105/102/1
f 128/97/12 132/96/12 26/260/12
f 53/85/10 113/44/8 102/32/8
f 53/263/6 131/172/6 104/174/6
f 105/102/1 133/4/1 126/150/1
f 110/265/8 102/32/8 132/34/9
f 114/267/4 103/41/4 129/43/5
f 131/262/10 102/32/8 110/265/8
f 130/270/7 103/41/4 114/267/4
f 119/110/7 12/57/4 103/41/4
f 119/110/13 34/321/13 25/272/13
