# Blender v2.83.4 OBJ File: ''
# www.blender.org
o Container.004_Cube.002
v -2.225266 -0.040693 1.423602
v -2.225266 3.083055 1.423604
v -4.450531 3.083055 1.423604
v -4.450531 -0.040693 1.423602
v 0.000000 3.094598 -1.397840
v -2.225266 3.094598 -1.397840
v -2.225266 3.094596 1.397844
v 0.000000 3.094596 1.397844
v 0.000000 -0.040693 1.423602
v 0.000000 3.083055 1.423604
v 4.450531 3.094598 -1.397840
v 2.225266 3.094598 -1.397840
v 2.225266 3.094596 1.397844
v 4.450531 3.094596 1.397844
v 2.225266 -0.040693 1.423602
v 2.225266 3.083055 1.423604
v -4.450531 3.094598 -1.397840
v -4.450531 3.094596 1.397844
v 4.450531 -0.040693 1.423602
v 4.450531 3.083055 1.423604
v -2.225266 -0.040691 -1.423602
v -4.450531 -0.040691 -1.423602
v -4.450531 3.083056 -1.423599
v -2.225266 3.083056 -1.423599
v 0.000000 -0.040691 -1.423602
v 0.000000 3.083056 -1.423599
v 2.225266 -0.040691 -1.423602
v 2.225266 3.083056 -1.423599
v 4.450531 -0.040691 -1.423602
v 4.450531 3.083056 -1.423599
v 4.472644 3.112118 -1.445017
v 4.472644 -0.058625 -1.445020
v 4.260324 -0.058625 -1.445020
v 4.260324 3.112118 -1.445017
v 4.472644 -0.058627 1.445020
v 4.260324 -0.058627 1.445020
v 4.472644 3.112116 1.445022
v 4.260324 3.112116 1.445022
v 4.456903 2.942495 1.271873
v 4.456903 3.109973 1.271873
v 4.456903 2.942495 1.439351
v 4.456903 2.942497 -1.271868
v 4.456903 2.942497 -1.439347
v 4.456903 3.109976 -1.271868
v 4.456903 0.113093 1.271870
v 4.456903 0.113093 1.439349
v 4.456903 0.113096 -1.271870
v 4.456903 0.113096 -1.439349
v -4.456903 2.942497 -1.439347
v -4.456903 3.109976 -1.439347
v -4.456903 0.110994 1.439349
v -4.456903 -0.056485 1.439349
v -4.456903 0.110996 -1.439349
v -4.456903 -0.056483 -1.439349
v -4.456903 2.942495 1.271873
v -4.456903 2.942495 1.439351
v -4.456903 3.109973 1.439351
v -4.456903 3.109973 1.271873
v -4.456903 2.942497 -1.271868
v -4.456903 3.109976 -1.271868
v -4.456903 0.110994 1.271870
v -4.456903 0.110996 -1.271870
v -4.472644 3.112118 -1.445017
v -4.260324 3.112118 -1.445017
v -4.260324 -0.058625 -1.445020
v -4.472644 -0.058625 -1.445020
v -4.260324 -0.058627 1.445020
v -4.472644 -0.058627 1.445020
v -4.472644 3.112116 1.445022
v -4.260324 3.112116 1.445022
v 4.456903 0.110994 1.271870
v 4.456903 0.110994 1.439349
v -4.349248 2.998539 1.328663
v -4.349248 2.998542 -1.328660
v -4.349248 1.521182 -1.328661
v -4.349248 1.521180 1.328663
v 4.431071 2.998539 1.328663
v 4.431071 1.521180 1.328663
v 4.431071 1.521182 -1.328661
v 4.431071 2.998542 -1.328660
v -4.349248 0.043822 1.328662
v -4.349248 0.043824 -1.328662
v 4.431071 0.043822 1.328662
v 4.431071 0.043824 -1.328662
v -4.280998 0.043136 -1.307812
v 4.361536 0.043136 -1.307812
v 4.361536 0.043134 1.307811
v -4.280998 0.043134 1.307811
v 4.508328 3.009329 0.610743
v 4.467773 3.009329 0.649761
v 4.467773 0.176539 0.649760
v 4.508328 0.176539 0.610742
v 4.508328 3.009329 0.298593
v 4.467773 3.009329 0.337612
v 4.467773 0.176539 0.337611
v 4.508328 0.176539 0.298592
v 4.508328 3.009329 -0.325706
v 4.467773 3.009329 -0.286687
v 4.467773 0.176539 -0.286688
v 4.508328 0.176539 -0.325707
v 4.508328 3.009329 -0.637856
v 4.467773 3.009329 -0.598837
v 4.467773 0.176539 -0.598838
v 4.508328 0.176539 -0.637857
v 4.467773 3.009329 0.571725
v 4.467773 0.176539 0.571723
v 4.467773 3.009329 0.259575
v 4.467773 0.176539 0.259573
v 4.467773 3.009329 -0.364725
v 4.467773 0.176539 -0.364726
v 4.467773 3.009329 -0.676874
v 4.467773 0.176539 -0.676876
v 3.829451 0.191507 0.610742
v 4.544269 0.221444 0.540383
v 4.544269 0.131634 0.540383
v 4.544269 0.221443 0.681101
v 4.544269 0.131634 0.681101
v 3.829451 0.191508 -0.325165
v 4.544269 0.221444 -0.395524
v 4.544269 0.131635 -0.395524
v 3.829451 0.191507 0.299216
v 4.544269 0.221444 0.228857
v 4.544269 0.131634 0.228857
v 4.544269 0.131634 0.369574
v 4.544269 0.221444 0.369574
v 3.829451 0.191508 -0.637019
v 4.544269 0.221444 -0.707378
v 4.544269 0.131635 -0.707378
v 4.544269 0.131635 -0.254807
v 4.544269 0.221444 -0.254807
v 4.544269 0.131635 -0.566660
v 4.544269 0.221444 -0.566660
vt 0.335938 0.867188
vt 0.335938 0.867188
vt 0.335938 0.992188
vt 0.335938 0.992188
vt 0.335938 0.867188
vt 0.335938 0.992188
vt 0.335938 0.992188
vt 0.335938 0.867188
vt 0.335938 0.867188
vt 0.335938 0.867188
vt 0.335938 0.992188
vt 0.335938 0.992188
vt 0.335938 0.867188
vt 0.335938 0.992188
vt 0.335938 0.992188
vt 0.335938 0.867188
vt 0.335938 0.867188
vt 0.335938 0.867188
vt 0.335938 0.992188
vt 0.335938 0.992188
vt 0.335938 0.867188
vt 0.335938 0.992188
vt 0.335938 0.992188
vt 0.335938 0.867188
vt 0.335938 0.867188
vt 0.335938 0.867188
vt 0.335938 0.992188
vt 0.335938 0.992188
vt 0.335938 0.867188
vt 0.335938 0.992188
vt 0.335938 0.992188
vt 0.335938 0.867188
vt 0.335938 0.867188
vt 0.335938 0.992188
vt 0.335938 0.992188
vt 0.335938 0.867188
vt 0.335938 0.867188
vt 0.335938 0.992188
vt 0.335938 0.992188
vt 0.335938 0.867188
vt 0.335938 0.867188
vt 0.335938 0.992188
vt 0.335938 0.992188
vt 0.335938 0.867188
vt 0.335938 0.867188
vt 0.335938 0.992188
vt 0.335938 0.992188
vt 0.335938 0.867188
vt 0.335938 0.929688
vt 0.335938 0.929688
vt 0.335938 0.929688
vt 0.335938 0.929688
vt 0.335938 0.929688
vt 0.335938 0.929688
vt 0.335938 0.929688
vt 0.335938 0.929688
vt 0.335938 0.929688
vt 0.335938 0.929688
vt 0.335938 0.929688
vt 0.335938 0.929688
vt 0.335938 0.929688
vt 0.335938 0.929688
vt 0.335938 0.929688
vt 0.335938 0.929688
vt 0.335938 0.929688
vt 0.335938 0.929688
vt 0.335938 0.929688
vt 0.335938 0.929688
vt 0.335938 0.929688
vt 0.335938 0.929688
vt 0.335938 0.929688
vt 0.335938 0.929688
vt 0.335938 0.929688
vt 0.335938 0.929688
vt 0.335938 0.929688
vt 0.335938 0.929688
vt 0.335938 0.929688
vt 0.335938 0.929688
vt 0.335938 0.929688
vt 0.335938 0.929688
vt 0.335938 0.929688
vt 0.335938 0.929688
vt 0.335938 0.929688
vt 0.335938 0.929688
vt 0.335938 0.929688
vt 0.335938 0.929688
vt 0.335938 0.929688
vt 0.335938 0.929688
vt 0.335938 0.929688
vt 0.335938 0.929688
vt 0.335938 0.929688
vt 0.335938 0.929688
vt 0.335938 0.992188
vt 0.335938 0.992188
vt 0.335938 0.929688
vt 0.335938 0.992188
vt 0.335938 0.992188
vt 0.335938 0.929688
vt 0.335938 0.929688
vt 0.335938 0.929688
vt 0.335938 0.929688
vt 0.335938 0.929688
vt 0.335938 0.992188
vt 0.335938 0.992188
vt 0.335938 0.992188
vt 0.335938 0.992188
vt 0.132812 0.773438
vt 0.132812 0.773438
vt 0.132812 0.773438
vt 0.132812 0.773438
vt 0.132812 0.773438
vt 0.132812 0.773438
vt 0.132812 0.773438
vt 0.132812 0.773438
vt 0.132812 0.773438
vt 0.132812 0.773438
vt 0.132812 0.773438
vt 0.132812 0.773438
vt 0.132812 0.773438
vt 0.132812 0.773438
vt 0.132812 0.773438
vt 0.132812 0.773438
vt 0.132812 0.773438
vt 0.132812 0.773438
vt 0.132812 0.773438
vt 0.132812 0.773438
vt 0.132812 0.773438
vt 0.132812 0.773438
vt 0.132812 0.773438
vt 0.132812 0.773438
vt 0.132812 0.773438
vt 0.132812 0.773438
vt 0.132812 0.773438
vt 0.132812 0.773438
vt 0.132812 0.773438
vt 0.132812 0.773438
vt 0.132812 0.773438
vt 0.132812 0.773438
vt 0.132812 0.773438
vt 0.132812 0.773438
vt 0.132812 0.773438
vt 0.132812 0.773438
vt 0.132812 0.773438
vt 0.132812 0.773438
vt 0.132812 0.773438
vt 0.132812 0.773438
vt 0.132812 0.773438
vt 0.132812 0.773438
vt 0.132812 0.773438
vt 0.132812 0.773438
vn 0.0000 -0.0000 1.0000
vn 0.0000 1.0000 0.0000
vn 0.0000 0.0000 -1.0000
vn 0.0000 -1.0000 -0.0000
vn 0.9979 -0.0458 -0.0458
vn 0.9979 -0.0458 0.0458
vn 0.9958 0.0913 0.0000
vn 0.9958 0.0917 0.0000
vn 0.9958 0.0916 0.0000
vn -0.0003 -0.0168 -0.9999
vn -0.0003 0.0167 0.9999
vn -0.0003 0.0167 -0.9999
vn -1.0000 0.0000 0.0000
vn -0.0003 -0.0168 0.9999
vn -0.0001 1.0000 0.0063
vn -0.0001 1.0000 -0.0063
vn 1.0000 0.0000 0.0000
vn 0.9958 0.0918 0.0000
vn 0.6933 -0.0000 0.7206
vn 0.6933 0.0000 -0.7206
vn -0.0980 0.0000 -0.9952
vn -0.0980 -0.0000 0.9952
vn -0.0418 0.9991 0.0000
s 1
f 1/1/1 2/2/1 3/3/1 4/4/1
f 5/5/2 6/6/2 7/7/2 8/8/2
f 9/9/1 10/10/1 2/11/1 1/12/1
f 11/13/2 12/14/2 13/15/2 14/16/2
f 15/17/1 16/18/1 10/19/1 9/20/1
f 6/21/2 17/22/2 18/23/2 7/24/2
f 19/25/1 20/26/1 16/27/1 15/28/1
f 21/29/3 22/30/3 23/31/3 24/32/3
f 25/33/3 21/34/3 24/35/3 26/36/3
f 27/37/3 25/38/3 26/39/3 28/40/3
f 29/41/3 27/42/3 28/43/3 30/44/3
f 12/45/2 5/46/2 8/47/2 13/48/2
f 31/49/3 32/50/3 33/51/3 34/52/3
f 32/50/4 35/53/4 36/54/4 33/51/4
f 37/55/2 31/49/2 34/52/2 38/56/2
f 35/53/1 37/55/1 38/56/1 36/54/1
f 39/57/5 40/58/5 37/55/5 41/59/5
f 42/60/6 43/61/6 31/49/6 44/62/6
f 45/63/7 46/64/7 35/53/7
f 47/65/8 32/50/9 48/66/7
f 49/67/10 50/68/10 31/49/10 43/61/10
f 51/69/11 52/70/11 35/53/11 46/64/11
f 53/71/12 48/66/12 32/50/12 54/72/12
f 55/73/13 56/74/13 57/75/13 58/76/13
f 59/77/13 60/78/13 50/68/13 49/67/13
f 56/74/14 41/59/14 37/55/14 57/75/14
f 61/79/13 52/70/13 51/69/13
f 62/80/13 53/71/13 54/72/13
f 63/81/3 64/82/3 65/83/3 66/84/3
f 66/84/4 65/83/4 67/85/4 68/86/4
f 69/87/2 70/88/2 64/82/2 63/81/2
f 68/86/1 67/85/1 70/88/1 69/87/1
f 50/68/15 60/78/15 44/62/15 31/49/15
f 57/75/16 37/55/16 40/58/16 58/76/16
f 40/58/17 39/57/17 42/60/17 44/62/17
f 48/66/17 43/61/17 42/60/17 47/65/17
f 32/50/9 47/65/8 71/89/18 35/53/18
f 41/59/17 72/90/17 71/89/17 39/57/17
f 55/73/13 58/76/13 60/78/13 59/77/13
f 55/73/13 61/79/13 51/69/13 56/74/13
f 52/70/13 61/79/13 62/80/13 54/72/13
f 49/67/13 53/71/13 62/80/13 59/77/13
f 73/91/13 74/92/13 75/93/13 76/94/13
f 77/95/17 78/96/17 79/97/17 80/98/17
f 81/99/13 76/94/13 75/93/13 82/100/13
f 83/101/17 84/102/17 79/97/17 78/96/17
f 85/103/4 86/104/4 87/105/4 88/106/4
f 89/107/19 90/108/19 91/109/19 92/110/19
f 93/111/19 94/112/19 95/113/19 96/114/19
f 97/115/19 98/116/19 99/117/19 100/118/19
f 101/119/19 102/120/19 103/121/19 104/122/19
f 105/123/20 89/107/20 92/110/20 106/124/20
f 107/125/20 93/111/20 96/114/20 108/126/20
f 109/127/20 97/115/20 100/118/20 110/128/20
f 111/129/20 101/119/20 104/122/20 112/130/20
f 113/131/21 114/132/21 115/133/21
f 115/133/17 114/132/17 116/134/17 117/135/17
f 117/135/22 116/134/22 113/131/22
f 114/132/23 113/131/23 116/134/23
f 118/136/21 119/137/21 120/138/21
f 121/139/21 122/140/21 123/141/21
f 124/142/22 125/143/22 121/139/22
f 123/141/17 122/140/17 125/143/17 124/142/17
f 126/144/21 127/145/21 128/146/21
f 129/147/22 130/148/22 118/136/22
f 120/138/17 119/137/17 130/148/17 129/147/17
f 122/140/23 121/139/23 125/143/23
f 131/149/22 132/150/22 126/144/22
f 128/146/17 127/145/17 132/150/17 131/149/17
f 119/137/23 118/136/23 130/148/23
f 127/145/23 126/144/23 132/150/23
l 46 72
