# Blender v2.91.0 Beta OBJ File: 'decos.blend'
# www.blender.org
o Cube.002_Cube.005
v -17.597836 9.494277 -1.441074
v 0.493441 1.058182 -1.441085
v -17.666342 9.347364 0.000010
v 0.424935 0.911269 -0.000000
v 0.441841 0.947526 -0.894419
v -17.649435 9.383621 -0.894407
v -17.597836 9.494277 1.441094
v 0.493442 1.058181 1.441085
v 0.441842 0.947526 0.894418
v -17.649435 9.383621 0.894428
v -18.068857 8.484173 -2.499990
v 0.022421 0.048079 -2.499999
v -18.068853 8.484173 2.500010
v 0.022424 0.048078 2.499999
v -0.152624 0.149214 1.460835
v -0.152626 0.149215 -1.460835
v -17.946390 8.446578 -1.460823
v -17.946390 8.446578 1.460844
vt 0.835938 0.398438
vt 0.835938 0.398438
vt 0.835938 0.398438
vt 0.835938 0.398438
vt 0.835938 0.398438
vt 0.835938 0.398438
vt 0.835938 0.398438
vt 0.835938 0.398438
vt 0.835938 0.382812
vt 0.835938 0.382812
vt 0.835938 0.382812
vt 0.835938 0.382812
vt 0.835938 0.382812
vt 0.835938 0.382812
vt 0.835938 0.382812
vt 0.835938 0.382812
vt 0.835938 0.382812
vt 0.835938 0.382812
vn 0.4226 0.9062 -0.0170
vn 0.4226 0.9062 0.0170
vn 0.4189 0.8984 0.1318
vn 0.4226 0.9063 0.0000
vn 0.4125 0.8845 0.2180
vn 0.4189 0.8984 -0.1318
vn 0.4125 0.8845 -0.2180
s off
f 11/1/1 16/2/1 12/3/1
f 13/4/2 15/5/2 18/6/2
f 11/1/1 17/7/1 16/2/1
f 13/4/2 14/8/2 15/5/2
s 1
f 5/9/3 3/10/4 4/11/4
f 5/9/3 1/12/5 6/13/3
f 10/14/6 8/15/7 9/16/6
f 3/10/4 9/16/6 4/11/4
f 5/9/3 6/13/3 3/10/4
f 5/9/3 2/17/5 1/12/5
f 10/14/6 7/18/7 8/15/7
f 3/10/4 10/14/6 9/16/6
