# Blender v2.91.0 Beta OBJ File: 'decos.blend'
# www.blender.org
o Cube.005_Cube.006
v -0.007771 1.160721 1.331669
v -16.302961 1.160727 7.440639
v -0.007771 0.998621 -0.065750
v -17.744047 0.998628 7.440639
v -16.849628 1.038633 7.440639
v -0.007771 1.038626 0.801938
v -0.007771 0.163020 2.492503
v -15.244047 0.046201 7.440639
v -16.283211 0.063884 7.239250
v -0.007771 0.180704 1.342087
v -0.007771 1.160721 -1.467956
v -19.185131 1.160727 7.440639
v -18.638464 1.038633 7.440639
v -0.007771 1.038626 -0.934942
v -0.007771 0.163020 -2.498940
v -20.244045 0.046201 7.440639
v -3.314068 1.160722 0.762316
v -6.722989 1.160723 0.007008
v -10.228787 1.160724 -0.171902
v -13.568544 1.160725 0.856669
v -16.045214 1.160726 3.454294
v -3.390980 0.998622 -0.567416
v -6.956724 0.998623 -1.273899
v -10.694515 0.998624 -1.407378
v -14.391388 0.998625 -0.334279
v -17.394136 0.998626 2.510515
v -19.204882 0.063884 7.239250
v -3.346106 1.038627 0.260814
v -6.815820 1.038628 -0.468383
v -10.409958 1.038629 -0.620668
v -13.877460 1.038630 0.433384
v -16.565594 1.038631 3.098522
v -0.007771 0.180704 -1.487073
v -3.240034 0.046195 1.768471
v -6.511815 0.046196 0.991107
v -9.823121 0.046198 0.757722
v -12.930397 0.046199 1.646891
v -15.115498 0.046200 4.009600
v -15.955170 0.063883 3.313274
v -13.463758 0.063882 0.832278
v -10.167641 0.063881 -0.122467
v -6.726394 0.063880 0.060081
v -3.382868 0.063879 0.783173
v -3.440577 1.160722 -1.913387
v -7.139779 1.160723 -2.591374
v -11.089571 1.160724 -2.723046
v -15.216249 1.160725 -1.704612
v -18.683910 1.160726 1.520158
v -3.425402 1.038627 -1.402229
v -7.076674 1.038628 -2.088768
v -10.949965 1.038629 -2.218744
v -14.911051 1.038630 -1.171682
v -18.202803 1.038631 1.917322
v -3.450718 0.046195 -2.887032
v -7.225538 0.046196 -3.548035
v -11.315951 0.046198 -3.717752
v -15.784414 0.046199 -2.785749
v -19.570086 0.046200 0.744489
v -18.621395 0.063883 1.270437
v -15.114649 0.063882 -1.788038
v -11.040085 0.063881 -2.739595
v -7.155293 0.063880 -2.600480
v -3.513048 0.063879 -1.933527
vt 0.835938 0.382812
vt 0.835938 0.382812
vt 0.835937 0.382812
vt 0.835938 0.382813
vt 0.835938 0.382812
vt 0.835938 0.382813
vt 0.835938 0.382812
vt 0.835938 0.382813
vt 0.835938 0.382812
vt 0.835937 0.382812
vt 0.835938 0.382812
vt 0.835938 0.382812
vt 0.835938 0.382812
vt 0.835937 0.382812
vt 0.835938 0.382812
vt 0.835938 0.382812
vt 0.835938 0.398438
vt 0.835937 0.398438
vt 0.835938 0.398438
vt 0.835937 0.398438
vt 0.835938 0.398438
vt 0.835938 0.398438
vt 0.835938 0.382812
vt 0.835937 0.382812
vt 0.835937 0.382812
vt 0.835938 0.382812
vt 0.835938 0.382812
vt 0.835938 0.382812
vt 0.835938 0.382812
vt 0.835938 0.382812
vt 0.835938 0.382812
vt 0.835938 0.382812
vt 0.835937 0.382812
vt 0.835938 0.382813
vt 0.835938 0.382812
vt 0.835938 0.382812
vt 0.835938 0.382812
vt 0.835938 0.382813
vt 0.835938 0.382812
vt 0.835938 0.398438
vt 0.835938 0.398438
vt 0.835938 0.398438
vt 0.835938 0.398438
vt 0.835938 0.398438
vt 0.835938 0.398438
vt 0.835937 0.398437
vt 0.835938 0.398438
vt 0.835938 0.398438
vt 0.835937 0.398438
vt 0.835938 0.398438
vt 0.835937 0.398437
vt 0.835938 0.398438
vt 0.835938 0.398438
vt 0.835937 0.398437
vt 0.835938 0.398438
vt 0.835937 0.398437
vt 0.835937 0.398437
vt 0.835937 0.398437
vt 0.835937 0.398437
vt 0.835938 0.382813
vt 0.835938 0.398438
vt 0.835938 0.382812
vt 0.835937 0.398438
vn 0.0619 0.9914 0.1150
vn 0.0283 0.9736 0.2265
vn 0.0933 0.9808 0.1713
vn 0.0282 0.9888 -0.1463
vn 0.0010 1.0000 -0.0046
vn 0.0007 1.0000 -0.0012
vn -0.0221 0.9899 0.1397
vn -0.0305 0.9741 0.2241
vn -0.0378 0.9716 0.2336
vn 0.0447 0.9702 -0.2383
vn 0.0247 0.9890 -0.1456
vn -0.0005 1.0000 0.0047
vn -0.0174 0.9886 0.1496
vn 0.0151 0.9890 0.1471
vn -0.0177 0.9917 0.1277
vn -0.0007 1.0000 0.0021
vn 0.0162 0.9999 0.0055
vn 0.0173 0.9998 0.0008
vn 0.0169 0.9999 0.0006
vn -0.0174 0.9998 -0.0017
vn -0.0146 0.9999 -0.0070
vn -0.0146 0.9999 -0.0074
vn -0.1283 0.9917 -0.0083
vn -0.1832 0.9805 -0.0710
vn -0.0899 0.9951 -0.0420
vn -0.0635 0.9927 -0.1029
vn -0.1165 0.9736 -0.1961
vn -0.0198 0.9902 -0.1385
vn -0.0244 0.9673 -0.2526
vn 0.0176 0.9888 -0.1482
vn 0.0375 0.9663 -0.2546
vn 0.0019 1.0000 0.0002
vn 0.0100 0.9999 0.0025
vn 0.0019 1.0000 0.0050
vn 0.1299 0.9901 0.0523
vn 0.1362 0.9906 0.0106
vn -0.0233 0.9708 0.2388
vn 0.2188 0.9756 0.0173
vn 0.1729 0.9806 0.0926
vn -0.0394 0.9991 0.0167
vn -0.0256 0.9995 0.0207
vn -0.0396 0.9991 0.0154
vn -0.0179 0.9996 0.0207
vn -0.0032 0.9998 0.0196
vn -0.0025 0.9998 0.0197
vn 0.0015 0.9998 0.0194
vn 0.0026 0.9998 0.0191
vn 0.0090 0.9998 0.0155
vn 0.0151 0.9999 0.0076
vn -0.0312 0.9994 -0.0180
vn -0.0151 0.9997 -0.0192
vn -0.0311 0.9994 -0.0175
vn -0.0133 0.9997 -0.0195
vn 0.0021 0.9998 -0.0188
vn 0.0018 0.9998 -0.0188
vn -0.0014 0.9998 -0.0177
vn -0.0018 0.9998 -0.0174
vn -0.0063 0.9999 -0.0136
vn -0.0069 0.9999 -0.0133
vn 0.0386 0.9737 -0.2244
vn -0.0173 0.9998 -0.0017
vn -0.2180 0.9759 -0.0141
vn 0.0093 0.9998 0.0156
s 1
f 52/1/1 46/2/2 47/3/3
f 28/4/4 3/5/5 22/6/6
f 49/7/7 11/8/8 44/9/9
f 17/10/10 6/11/11 28/4/4
f 24/12/12 50/13/13 51/14/14
f 22/6/6 14/15/15 49/7/7
f 23/16/16 49/7/7 50/13/13
f 38/17/17 9/18/18 8/19/19
f 16/20/20 59/21/21 58/22/22
f 5/23/23 21/24/24 32/25/25
f 21/24/24 31/26/26 32/25/25
f 20/27/27 30/28/28 31/26/26
f 19/29/29 29/30/30 30/28/28
f 18/31/31 28/4/4 29/30/30
f 4/32/32 32/25/25 26/33/33
f 32/25/25 25/34/34 26/33/33
f 31/26/26 24/12/12 25/34/34
f 30/28/28 23/16/16 24/12/12
f 29/30/30 22/6/6 23/16/16
f 25/34/34 51/14/14 52/1/1
f 25/34/34 53/35/35 26/33/33
f 26/33/33 13/36/36 4/32/32
f 50/13/13 44/9/9 45/37/37
f 51/14/14 45/37/37 46/2/2
f 53/35/35 12/38/38 13/36/36
f 52/1/1 48/39/39 53/35/35
f 10/40/40 34/41/41 7/42/42
f 43/43/43 35/44/44 34/41/41
f 42/45/45 36/46/46 35/44/44
f 41/47/47 37/48/48 36/46/46
f 37/48/48 39/49/49 38/17/17
f 15/50/50 63/51/51 33/52/52
f 54/53/53 62/54/54 63/51/51
f 55/55/55 61/56/56 62/54/54
f 56/57/57 60/58/58 61/56/56
f 57/59/59 59/21/21 60/58/58
f 52/1/1 51/14/14 46/2/2
f 28/4/4 6/11/11 3/5/5
f 49/7/7 14/15/15 11/8/8
f 17/10/10 1/60/60 6/11/11
f 24/12/12 23/16/16 50/13/13
f 22/6/6 3/5/5 14/15/15
f 23/16/16 22/6/6 49/7/7
f 38/17/17 39/49/49 9/18/18
f 16/20/20 27/61/61 59/21/21
f 5/23/23 2/62/62 21/24/24
f 21/24/24 20/27/27 31/26/26
f 20/27/27 19/29/29 30/28/28
f 19/29/29 18/31/31 29/30/30
f 18/31/31 17/10/10 28/4/4
f 4/32/32 5/23/23 32/25/25
f 32/25/25 31/26/26 25/34/34
f 31/26/26 30/28/28 24/12/12
f 30/28/28 29/30/30 23/16/16
f 29/30/30 28/4/4 22/6/6
f 25/34/34 24/12/12 51/14/14
f 25/34/34 52/1/1 53/35/35
f 26/33/33 53/35/35 13/36/36
f 50/13/13 49/7/7 44/9/9
f 51/14/14 50/13/13 45/37/37
f 53/35/35 48/39/39 12/38/38
f 52/1/1 47/3/3 48/39/39
f 10/40/40 43/43/43 34/41/41
f 43/43/43 42/45/45 35/44/44
f 42/45/45 41/47/47 36/46/46
f 41/47/47 40/63/63 37/48/48
f 37/48/48 40/63/63 39/49/49
f 15/50/50 54/53/53 63/51/51
f 54/53/53 55/55/55 62/54/54
f 55/55/55 56/57/57 61/56/56
f 56/57/57 57/59/59 60/58/58
f 57/59/59 58/22/22 59/21/21
