# Blender v2.90.0 Alpha OBJ File: 'Decos.blend'
# www.blender.org
o Cube.002_Cube
v -1.754076 -1.000000 1.000000
v -1.754076 1.000000 1.000000
v -1.754076 -1.000000 -1.000000
v -1.754076 1.000000 -1.000000
v 1.754076 -1.000000 1.000000
v 1.754076 1.000000 1.000000
v 1.754076 -1.000000 -1.000000
v 1.754076 1.000000 -1.000000
v -1.754076 -0.793814 1.000000
v -1.754076 -0.793814 -1.000000
v 1.754076 -0.793814 -1.000000
v 1.754076 -0.793814 1.000000
v -1.754076 1.211705 1.000000
v -1.754076 1.211705 -1.000000
v 1.754076 1.211705 -1.000000
v 1.754076 1.211705 1.000000
v -1.573580 1.427118 0.897099
v -1.573580 1.427118 -0.897099
v 1.573580 1.427118 -0.897099
v 1.573580 1.427118 0.897099
v 1.682839 1.319412 -0.959388
v 1.682839 1.319412 0.959388
v -1.682839 1.319412 0.959388
v -1.682839 1.319412 -0.959388
v 0.212069 1.216180 1.006212
v -0.212069 1.216180 1.006212
v 0.187023 1.036640 1.006212
v -0.187023 1.036640 1.006212
v 0.232938 1.330067 0.960916
v -0.232938 1.330067 0.960916
v 0.189392 1.230593 1.081561
v -0.189392 1.230593 1.081561
v 0.165230 1.023205 1.079085
v -0.165230 1.023205 1.079085
v 0.205792 1.369476 1.023687
v -0.205792 1.369476 1.023687
vt 0.101562 0.835938
vt 0.101562 0.835938
vt 0.101562 0.835938
vt 0.101562 0.835938
vt 0.101562 0.835938
vt 0.101562 0.835938
vt 0.101562 0.835938
vt 0.101562 0.835938
vt 0.257812 0.789062
vt 0.257812 0.789062
vt 0.257812 0.789062
vt 0.257812 0.789062
vt 0.164062 0.773438
vt 0.164062 0.773438
vt 0.164062 0.773438
vt 0.164062 0.773438
vt 0.164062 0.773438
vt 0.164062 0.773438
vt 0.164062 0.773438
vt 0.164062 0.773438
vt 0.101562 0.835938
vt 0.101562 0.835938
vt 0.101562 0.835938
vt 0.101562 0.835938
vt 0.257812 0.789062
vt 0.257812 0.789062
vt 0.257812 0.789062
vt 0.257812 0.789062
vt 0.101562 0.835938
vt 0.101562 0.835938
vt 0.101562 0.835938
vt 0.101562 0.835938
vt 0.257812 0.789062
vt 0.257812 0.789062
vt 0.257812 0.789062
vt 0.257812 0.789062
vt 0.148438 0.804688
vt 0.148438 0.804688
vt 0.148438 0.804688
vt 0.148438 0.804688
vt 0.148438 0.804688
vt 0.148438 0.804688
vt 0.148438 0.804688
vt 0.148438 0.804688
vt 0.148438 0.804688
vt 0.148438 0.804688
vt 0.148438 0.804688
vt 0.148438 0.804688
vn -1.0000 0.0000 0.0000
vn 0.0000 0.0000 -1.0000
vn 1.0000 0.0000 0.0000
vn 0.0000 0.0000 1.0000
vn 0.7020 0.7121 0.0000
vn 0.0000 1.0000 0.0000
vn -0.7020 0.7121 0.0000
vn 0.0000 0.5006 0.8657
vn 0.0000 0.5006 -0.8657
vn 0.0000 0.3528 -0.9357
vn 0.0000 0.3528 0.9357
vn -0.8341 0.5517 0.0000
vn 0.8341 0.5517 0.0000
vn 0.0000 -0.0119 0.9999
vn 0.0000 0.3847 0.9231
vn 0.9406 -0.0002 0.3394
vn 0.0000 0.8469 -0.5317
vn -0.9504 -0.1227 0.2859
vn 0.9504 -0.1227 0.2859
vn -0.9406 -0.0002 0.3394
vn 0.0000 -0.9834 -0.1813
s off
f 9/1/1 2/2/1 4/3/1 10/4/1
f 10/4/2 4/3/2 8/5/2 11/6/2
f 11/6/3 8/5/3 6/7/3 12/8/3
f 12/8/4 6/7/4 2/2/4 9/1/4
f 4/9/1 2/10/1 13/11/1 14/12/1
f 5/13/4 12/14/4 9/15/4 1/16/4
f 7/17/3 11/18/3 12/14/3 5/13/3
f 3/19/2 10/20/2 11/18/2 7/17/2
f 1/16/1 9/15/1 10/20/1 3/19/1
f 22/21/5 21/22/5 19/23/5 20/24/5
f 2/10/4 6/25/4 16/26/4 13/11/4
f 8/27/2 4/9/2 14/12/2 15/28/2
f 6/25/3 8/27/3 15/28/3 16/26/3
f 19/23/6 18/29/6 17/30/6 20/24/6
f 24/31/7 23/32/7 17/30/7 18/29/7
f 23/32/8 22/21/8 20/24/8 17/30/8
f 21/22/9 24/31/9 18/29/9 19/23/9
f 15/28/10 14/12/10 24/33/10 21/34/10
f 13/11/11 16/26/11 22/35/11 23/36/11
f 14/12/12 13/11/12 23/36/12 24/33/12
f 16/26/13 15/28/13 21/34/13 22/35/13
f 34/37/14 33/38/14 31/39/14 32/40/14
f 31/39/15 35/41/15 36/42/15 32/40/15
f 29/43/16 35/41/16 31/39/16 25/44/16
f 30/45/17 36/42/17 35/41/17 29/43/17
f 28/46/18 34/37/18 32/40/18 26/47/18
f 25/44/19 31/39/19 33/38/19 27/48/19
f 26/47/20 32/40/20 36/42/20 30/45/20
f 27/48/21 33/38/21 34/37/21 28/46/21
