# Blender v2.90.0 Alpha OBJ File: 'Decos.blend'
# www.blender.org
o Cube.002_Cube
v -1.754076 -1.000000 1.000000
v -1.754076 1.000000 1.000000
v -1.754076 -1.000000 -1.000000
v -1.754076 1.000000 -1.000000
v 1.754076 -1.000000 1.000000
v 1.754076 1.000000 1.000000
v 1.754076 -1.000000 -1.000000
v 1.754076 1.000000 -1.000000
v -1.754076 -0.793814 1.000000
v -1.754076 -0.793814 -1.000000
v 1.754076 -0.793814 -1.000000
v 1.754076 -0.793814 1.000000
v -1.754076 2.810606 -2.201463
v 1.754076 2.810606 -2.201463
v -1.573580 2.598937 -2.311860
v -1.573580 1.164564 -1.234028
v 1.573580 1.164564 -1.234028
v 1.573580 2.598937 -2.311860
v 1.682839 1.179470 -1.110503
v 1.682839 2.713436 -2.263172
v -1.682839 2.713436 -2.263172
v -1.682839 1.179470 -1.110503
v 0.212069 2.812885 -2.208772
v -0.212069 2.812885 -2.208772
v 0.187023 2.920740 -2.065239
v -0.187023 2.920740 -2.065239
v 0.232938 2.708257 -2.272609
v -0.232938 2.708257 -2.272609
v 0.189392 2.864464 -2.265560
v -0.189392 2.864464 -2.265560
v 0.165230 2.987070 -2.098276
v -0.165230 2.987070 -2.098276
v 0.205792 2.734765 -2.341823
v -0.205792 2.734765 -2.341823
v -1.754076 1.211705 1.000000
v -1.754076 1.211705 -1.000000
v 1.754076 1.211705 -1.000000
v 1.754076 1.211705 1.000000
v -1.602710 1.211705 0.913706
v -1.602710 1.211705 -0.913706
v 1.602710 1.211705 -0.913706
v 1.602710 1.211705 0.913706
v -1.602710 1.020980 0.913706
v -1.602710 1.020980 -0.913706
v 1.602710 1.020980 -0.913706
v 1.602710 1.020980 0.913706
v -1.311025 0.020980 0.423978
v -0.978069 2.020980 -0.312834
v -1.549563 0.020980 -0.913483
v 0.746462 0.149002 -0.574314
v -0.272019 0.020980 -0.451333
v -0.510521 0.591099 -0.839356
v -0.244113 -0.033416 0.337381
v 0.505581 1.985098 0.468960
v 1.652851 -0.255723 -0.387079
v 0.295263 -0.209257 -0.409357
v 0.970949 0.201107 0.695518
v 1.111164 1.759857 -0.789200
v 0.695981 0.586966 0.319758
v -0.098822 0.534998 -0.780827
v -0.434099 -0.166987 0.332954
v -0.934673 1.903525 0.673776
vt 0.101562 0.835938
vt 0.101562 0.835938
vt 0.101562 0.835938
vt 0.101562 0.835938
vt 0.101562 0.835938
vt 0.101562 0.835938
vt 0.101562 0.835938
vt 0.101562 0.835938
vt 0.257812 0.789062
vt 0.257812 0.789062
vt 0.257812 0.789062
vt 0.257812 0.789062
vt 0.164062 0.773438
vt 0.164062 0.773438
vt 0.164062 0.773438
vt 0.164062 0.773438
vt 0.164062 0.773438
vt 0.164062 0.773438
vt 0.164062 0.773438
vt 0.164062 0.773438
vt 0.101562 0.835938
vt 0.101562 0.835938
vt 0.101562 0.835938
vt 0.101562 0.835938
vt 0.257812 0.789062
vt 0.257812 0.789062
vt 0.257812 0.789062
vt 0.257812 0.789062
vt 0.101562 0.835938
vt 0.101562 0.835938
vt 0.101562 0.835938
vt 0.101562 0.835938
vt 0.257812 0.789062
vt 0.257812 0.789062
vt 0.257812 0.789062
vt 0.257812 0.789062
vt 0.257812 0.789062
vt 0.257812 0.789062
vt 0.148438 0.804688
vt 0.148438 0.804688
vt 0.148438 0.804688
vt 0.148438 0.804688
vt 0.148438 0.804688
vt 0.148438 0.804688
vt 0.148438 0.804688
vt 0.148438 0.804688
vt 0.148438 0.804688
vt 0.148438 0.804688
vt 0.148438 0.804688
vt 0.148438 0.804688
vt 0.257812 0.789062
vt 0.257812 0.789062
vt 0.257812 0.789062
vt 0.257812 0.789062
vt 0.257812 0.789062
vt 0.257812 0.789062
vt 0.257812 0.789062
vt 0.257812 0.789062
vt 0.242188 0.851562
vt 0.242188 0.851562
vt 0.242188 0.851562
vt 0.242188 0.851562
vt 0.242188 0.851562
vt 0.242188 0.851562
vt 0.242188 0.851562
vt 0.242188 0.851562
vt 0.242188 0.851562
vt 0.242188 0.851562
vt 0.242188 0.851562
vt 0.242188 0.851562
vt 0.242188 0.851562
vt 0.242188 0.851562
vt 0.242188 0.851562
vt 0.242188 0.851562
vn -1.0000 0.0000 0.0000
vn 0.0000 0.0000 -1.0000
vn 1.0000 0.0000 0.0000
vn 0.0000 0.0000 1.0000
vn 0.7020 -0.4278 -0.5693
vn 0.0000 -0.6007 -0.7995
vn -0.7020 -0.4278 -0.5693
vn 0.0000 0.3913 -0.9203
vn 0.0000 -0.9928 0.1198
vn 0.0000 -0.9600 0.2800
vn 0.0000 0.5361 -0.8442
vn -0.8341 -0.3314 -0.4410
vn 0.8341 -0.3314 -0.4410
vn 0.0000 0.8066 -0.5911
vn 0.0000 0.5069 -0.8620
vn 0.9406 0.2714 -0.2037
vn 0.0000 -0.9339 -0.3577
vn -0.9504 0.3023 -0.0737
vn 0.9504 0.3023 -0.0737
vn -0.9406 0.2714 -0.2037
vn 0.0000 0.4458 0.8951
vn 0.0000 0.6007 0.7995
vn 0.0000 1.0000 0.0000
vn -0.9597 0.2228 0.1712
vn -0.8817 0.3039 0.3609
vn 0.3345 0.1821 -0.9246
vn 0.6347 0.1719 0.7534
vn 0.0000 -1.0000 0.0000
vn 0.6759 -0.2951 0.6753
vn 0.3430 0.4977 -0.7967
vn -0.2219 -0.8812 -0.4174
vn -0.8365 0.4155 0.3572
vn 0.8577 0.3120 0.4086
vn 0.0095 -0.1932 -0.9811
vn -0.0378 -0.9290 0.3682
vn -0.9132 -0.1590 -0.3751
vn 0.1031 -0.1372 0.9852
vn 0.5177 0.7513 -0.4093
vn 0.5196 -0.7847 -0.3382
s off
f 9/1/1 2/2/1 4/3/1 10/4/1
f 10/4/2 4/3/2 8/5/2 11/6/2
f 11/6/3 8/5/3 6/7/3 12/8/3
f 12/8/4 6/7/4 2/2/4 9/1/4
f 4/9/1 2/10/1 35/11/1 36/12/1
f 5/13/4 12/14/4 9/15/4 1/16/4
f 7/17/3 11/18/3 12/14/3 5/13/3
f 3/19/2 10/20/2 11/18/2 7/17/2
f 1/16/1 9/15/1 10/20/1 3/19/1
f 20/21/5 19/22/5 17/23/5 18/24/5
f 2/10/4 6/25/4 38/26/4 35/11/4
f 8/27/2 4/9/2 36/12/2 37/28/2
f 6/25/3 8/27/3 37/28/3 38/26/3
f 17/23/6 16/29/6 15/30/6 18/24/6
f 22/31/7 21/32/7 15/30/7 16/29/7
f 21/32/8 20/21/8 18/24/8 15/30/8
f 19/22/9 22/31/9 16/29/9 17/23/9
f 37/28/10 36/12/10 22/33/10 19/34/10
f 13/35/11 14/36/11 20/37/11 21/38/11
f 36/12/12 13/35/12 21/38/12 22/33/12
f 14/36/13 37/28/13 19/34/13 20/37/13
f 32/39/14 31/40/14 29/41/14 30/42/14
f 29/41/15 33/43/15 34/44/15 30/42/15
f 27/45/16 33/43/16 29/41/16 23/46/16
f 28/47/17 34/44/17 33/43/17 27/45/17
f 26/48/18 32/39/18 30/42/18 24/49/18
f 23/46/19 29/41/19 31/40/19 25/50/19
f 24/49/20 30/42/20 34/44/20 28/47/20
f 25/50/21 31/40/21 32/39/21 26/48/21
f 36/12/22 37/28/22 14/36/22 13/35/22
f 35/11/23 38/26/23 42/51/23 39/52/23
f 41/53/4 40/54/4 44/55/4 45/56/4
f 37/28/23 36/12/23 40/54/23 41/53/23
f 38/26/23 37/28/23 41/53/23 42/51/23
f 36/12/23 35/11/23 39/52/23 40/54/23
f 44/55/23 43/57/23 46/58/23 45/56/23
f 42/51/1 41/53/1 45/56/1 46/58/1
f 40/54/3 39/52/3 43/57/3 44/55/3
f 39/52/2 42/51/2 46/58/2 43/57/2
f 47/59/24 48/60/24 49/61/24
f 53/62/25 54/63/25 52/64/25
f 49/61/26 48/60/26 51/65/26
f 51/65/27 48/60/27 47/59/27
f 49/61/28 51/65/28 47/59/28
f 50/66/29 54/63/29 53/62/29
f 52/64/30 54/63/30 50/66/30
f 52/64/31 50/66/31 53/62/31
f 57/67/32 58/68/32 56/69/32
f 55/70/33 58/68/33 57/67/33
f 56/69/34 58/68/34 55/70/34
f 56/69/35 55/70/35 57/67/35
f 61/71/36 62/72/36 60/73/36
f 59/74/37 62/72/37 61/71/37
f 60/73/38 62/72/38 59/74/38
f 60/73/39 59/74/39 61/71/39
