# Blender v2.91.0 Beta OBJ File: 'stadium.blend'
# www.blender.org
o Cube.010_Cube.001
v 6.712103 1.956871 47.137791
v 10.739746 1.956869 -56.011600
v 9.637461 1.956870 38.667358
v 6.498997 9.129147 53.477158
v 9.637465 12.653067 49.193245
v 6.371755 11.407830 55.876492
v 6.371756 12.653068 57.616798
v 0.000007 11.407832 61.291439
v 2.904292 12.653070 62.076904
v 0.000007 12.653070 63.111404
v 6.712104 5.312806 49.458744
v 2.904288 1.956873 51.053947
v 0.000005 9.129149 58.569790
v 2.904292 11.407832 60.523010
v -0.000002 1.956873 -56.011600
v 0.000003 1.956873 51.498878
v -0.000001 5.312808 -57.879459
v 9.637463 5.312806 40.480526
v 0.000003 15.980046 -50.662796
v 0.000004 19.307022 -46.450539
v 5.499435 19.307022 -46.499317
v 2.904290 9.129149 57.922310
v 8.772118 12.653068 50.473396
v 6.141698 12.653068 57.280380
v 3.018201 12.653068 61.298050
v 6.550267 19.307018 37.076843
v 10.602677 19.307018 -46.499317
v 9.761547 19.307018 37.076843
v 9.761547 15.980042 43.131622
v 0.000007 15.980046 43.131622
v 3.275137 19.307022 37.076843
v 0.000008 19.307022 37.076843
v 3.089239 12.158114 60.784840
v 0.000007 12.653070 62.229931
v 0.000006 12.653070 49.692432
v 8.496876 12.158114 50.560291
v 5.986084 12.158114 57.058701
v 0.000006 12.158116 50.021362
v 0.000007 12.158116 61.649105
v 0.000006 12.775869 53.138462
v 3.885048 13.029720 51.381351
v 0.000006 13.029722 51.381351
v 0.000006 12.462540 53.120945
v 3.885048 12.794090 51.381351
v 3.941896 12.462538 53.120945
v 9.088184 12.667803 49.094147
v 3.899469 12.785388 53.133068
v 0.000006 12.794092 51.381351
v 0.000006 12.794092 49.495029
v 3.885048 12.794090 49.495029
v 2.904289 5.312808 53.566647
v 0.000004 5.312808 54.011581
v 9.637465 9.908839 45.935913
v 10.739749 9.908839 -57.627914
v 10.739750 12.736717 -54.070259
v 10.739751 15.980042 -50.662796
v 10.289518 12.653067 -57.477718
v 10.739747 5.312804 -57.879459
v 0.000002 12.736721 -54.070259
v 0.000001 9.908843 -57.627914
v 9.750732 13.762223 -20.655350
v 10.095894 13.843289 -55.034286
v 9.750732 13.843289 -20.655354
v 10.107382 12.762409 -20.655354
v 9.712997 12.762409 -55.034286
v 10.452543 12.762409 -55.034286
v 9.426363 13.681157 -56.650166
v 9.356348 13.681157 -55.034286
v 9.011187 13.681157 -20.655354
v 9.367836 12.762409 -20.655350
v 9.949301 13.843289 -57.173103
v 0.000002 12.653070 -57.477718
v 0.000002 13.843293 -57.295597
v 0.000002 13.681161 -56.772659
v 9.503110 12.762409 13.723584
v 9.146461 13.681157 13.723584
v 8.763564 12.762411 13.723584
v 9.146461 13.843289 13.723584
v 8.406915 13.681159 13.723584
v -6.712098 1.956875 47.137791
v -9.637457 1.956877 38.667358
v -10.739750 1.956877 -56.011600
v -6.498987 9.129151 53.477158
v -9.637453 12.653074 49.193245
v -9.637453 9.908847 45.935913
v -6.371743 11.407834 55.876492
v -6.371742 12.653072 57.616798
v -2.904278 12.653070 62.076904
v -2.904279 11.407832 60.523010
v -2.904282 1.956874 51.053947
v -6.712096 5.312810 49.458744
v -2.904280 9.129149 57.922310
v -9.637455 5.312810 40.480526
v -5.499426 19.307022 -46.499317
v -8.772106 12.653072 50.473396
v -3.018187 12.653072 61.298050
v -6.550251 19.307026 37.076843
v -3.275121 19.307022 37.076843
v -10.602670 19.307026 -46.499317
v -9.761532 19.307026 37.076843
v -9.761532 15.980050 43.131622
v -3.089226 12.158118 60.784840
v -6.141684 12.653072 57.280380
v -8.496864 12.158118 50.560291
v -5.986072 12.158118 57.058701
v -3.885036 13.029724 51.381351
v -3.885036 12.794094 51.381351
v -3.899457 12.785392 53.133068
v -3.941884 12.462542 53.120945
v -9.088174 12.667810 49.094147
v -3.885036 12.794094 49.495029
v -2.904281 5.312809 53.566647
v -10.739749 5.312812 -57.879459
v -10.739747 9.908847 -57.627914
v -10.739745 15.980050 -50.662796
v -10.739746 12.736725 -54.070259
v -10.289515 12.653074 -57.477718
v -9.750727 13.843297 -20.655354
v -10.095890 13.843297 -55.034286
v -9.750727 13.762231 -20.655350
v -10.107376 12.762417 -20.655354
v -9.712994 12.762417 -55.034286
v -9.367830 12.762417 -20.655350
v -9.426359 13.681165 -56.650166
v -9.356344 13.681165 -55.034286
v -9.011181 13.681165 -20.655354
v -9.949297 13.843297 -57.173103
v -10.452539 12.762417 -55.034286
v -9.503100 12.762417 13.723584
v -9.146451 13.681165 13.723584
v -8.763555 12.762415 13.723584
v -8.406905 13.681163 13.723584
v -9.146451 13.843297 13.723584
v 9.088184 12.667803 47.207821
v -9.088174 12.667810 47.207821
vt 0.257812 0.789062
vt 0.257812 0.789062
vt 0.257812 0.789062
vt 0.257812 0.789062
vt 0.257812 0.789062
vt 0.257812 0.789062
vt 0.257812 0.789062
vt 0.257812 0.789062
vt 0.257812 0.789062
vt 0.257813 0.789063
vt 0.132812 0.898438
vt 0.132812 0.898438
vt 0.132812 0.898438
vt 0.257812 0.789062
vt 0.257812 0.789062
vt 0.257812 0.789062
vt 0.257812 0.789062
vt 0.257812 0.789062
vt 0.132812 0.898438
vt 0.132812 0.898438
vt 0.132812 0.898438
vt 0.132812 0.898438
vt 0.132812 0.898438
vt 0.257812 0.789062
vt 0.257812 0.789062
vt 0.257812 0.789062
vt 0.257812 0.789063
vt 0.257812 0.789062
vt 0.257812 0.789062
vt 0.257812 0.789062
vt 0.195312 0.882812
vt 0.195312 0.882812
vt 0.195312 0.882812
vt 0.257812 0.789062
vt 0.257812 0.789062
vt 0.257812 0.789062
vt 0.257812 0.789062
vt 0.257812 0.789062
vt 0.257812 0.789062
vt 0.257812 0.789062
vt 0.257812 0.789062
vt 0.257812 0.789062
vt 0.117188 0.835938
vt 0.117187 0.835937
vt 0.117188 0.835938
vt 0.117188 0.835938
vt 0.117188 0.835938
vt 0.117188 0.835938
vt 0.117188 0.835938
vt 0.117188 0.835938
vt 0.257812 0.789062
vt 0.257812 0.789062
vt 0.257812 0.789062
vt 0.257812 0.789062
vt 0.257812 0.789062
vt 0.257812 0.789062
vt 0.257812 0.789062
vt 0.257812 0.789062
vt 0.257812 0.789062
vt 0.257813 0.789062
vt 0.257812 0.789062
vt 0.257812 0.789062
vt 0.257812 0.789062
vt 0.117188 0.835938
vt 0.117188 0.835938
vt 0.117188 0.835938
vt 0.117188 0.835938
vt 0.117188 0.835938
vt 0.257812 0.789062
vt 0.257812 0.789062
vt 0.257812 0.789062
vt 0.257812 0.789062
vt 0.257812 0.789062
vt 0.257813 0.789063
vt 0.257812 0.789062
vt 0.257812 0.789063
vt 0.257812 0.789062
vt 0.257812 0.789062
vt 0.257812 0.789062
vt 0.257812 0.789062
vt 0.195312 0.882812
vt 0.195312 0.882812
vt 0.257812 0.789062
vt 0.132812 0.898438
vt 0.132812 0.898438
vt 0.257812 0.789062
vt 0.257812 0.789062
vt 0.257812 0.789062
vt 0.257812 0.789063
vt 0.257812 0.789062
vt 0.257812 0.789062
vt 0.257812 0.789062
vt 0.257812 0.789062
vt 0.257812 0.789062
vt 0.257812 0.789062
vt 0.257812 0.789062
vt 0.257812 0.789062
vt 0.257812 0.789062
vt 0.257812 0.789062
vt 0.257812 0.789062
vt 0.257812 0.789062
vt 0.257812 0.789062
vt 0.257812 0.789062
vt 0.257812 0.789062
vt 0.257812 0.789062
vt 0.257812 0.789062
vt 0.257812 0.789062
vt 0.257812 0.789062
vt 0.257812 0.789062
vt 0.257812 0.789062
vt 0.257812 0.789062
vt 0.257812 0.789062
vt 0.257812 0.789062
vt 0.257812 0.789062
vt 0.132812 0.898438
vt 0.132812 0.898438
vt 0.132812 0.898438
vt 0.257812 0.789063
vt 0.257812 0.789062
vt 0.132812 0.898438
vt 0.132812 0.898438
vt 0.132812 0.898438
vt 0.257812 0.789062
vt 0.257812 0.789062
vt 0.257812 0.789062
vt 0.195312 0.882812
vt 0.195312 0.882812
vt 0.195312 0.882812
vt 0.257812 0.789062
vt 0.257812 0.789062
vt 0.257812 0.789062
vt 0.257812 0.789062
vt 0.257812 0.789062
vt 0.257812 0.789062
vt 0.257812 0.789062
vt 0.117188 0.835938
vt 0.117188 0.835938
vt 0.117188 0.835938
vt 0.117188 0.835938
vt 0.117188 0.835938
vt 0.257812 0.789062
vt 0.257812 0.789062
vt 0.257812 0.789062
vt 0.257812 0.789062
vt 0.257813 0.789062
vt 0.257812 0.789062
vt 0.117188 0.835938
vt 0.117188 0.835938
vt 0.117188 0.835938
vt 0.257812 0.789062
vt 0.257812 0.789062
vt 0.257812 0.789062
vt 0.132812 0.898438
vt 0.257813 0.789063
vt 0.257812 0.789062
vt 0.257812 0.789063
vt 0.257812 0.789062
vt 0.257812 0.789062
vt 0.195312 0.882812
vt 0.132812 0.898438
vt 0.257812 0.789062
vt 0.257812 0.789062
vt 0.257812 0.789062
vt 0.257812 0.789063
vt 0.257812 0.789062
vt 0.257812 0.789062
vt 0.257812 0.789062
vt 0.257812 0.789062
vt 0.257812 0.789062
vt 0.257812 0.789062
vt 0.257812 0.789062
vt 0.257812 0.789062
vt 0.257812 0.789062
vt 0.257812 0.789062
vt 0.257812 0.789062
vt 0.257812 0.789062
vt 0.132812 0.898438
vt 0.117188 0.835938
vt 0.132812 0.898438
vt 0.195312 0.882812
vt 0.257812 0.789062
vt 0.117188 0.835938
vn -0.0000 -1.0000 -0.0000
vn 0.7682 -0.4545 0.4510
vn 0.9373 -0.2631 0.2286
vn 0.7586 -0.4952 0.4235
vn 0.6743 -0.5977 0.4337
vn 0.0000 -0.7914 0.6113
vn 0.3346 -0.7475 0.5738
vn 0.0000 -0.8253 0.5647
vn 0.7973 -0.3885 0.4620
vn 0.4453 -0.5313 0.7207
vn 0.8540 -0.2914 0.4310
vn -0.0000 -0.7623 0.6472
vn 0.4138 -0.7032 0.5782
vn -0.0000 -0.2247 -0.9744
vn 0.0000 -0.4863 -0.8738
vn 0.9833 -0.1079 0.1463
vn 0.9904 -0.0656 0.1214
vn 0.0000 0.7544 -0.6564
vn -0.0000 0.9452 -0.3264
vn -0.0007 0.9437 -0.3309
vn 0.4118 -0.6847 0.6014
vn -0.0000 1.0000 -0.0000
vn -0.1696 0.9374 -0.3043
vn 0.0000 0.9686 0.2486
vn 0.0000 0.9424 -0.3345
vn 0.0000 0.9688 0.2478
vn 0.0000 0.8765 0.4814
vn 0.0000 0.8812 0.4727
vn -0.7709 0.4460 -0.4547
vn -0.3478 0.8465 -0.4031
vn 0.0000 0.9585 -0.2852
vn 0.0063 0.9513 0.3082
vn 0.0000 0.9086 0.4176
vn 0.0559 0.9982 0.0216
vn 0.0000 0.8783 0.4781
vn 0.0067 0.9998 0.0198
vn 0.0000 0.7821 0.6232
vn 0.0000 0.9160 -0.4011
vn -0.0865 0.2188 0.9719
vn -0.8489 0.4144 -0.3280
vn -0.7907 0.4395 -0.4261
vn 0.0000 0.9899 0.1417
vn 0.0542 0.9895 0.1341
vn 0.0000 0.9897 0.1430
vn -0.0000 -0.9823 -0.1872
vn -0.0934 -0.9754 -0.1996
vn -0.0698 -0.9803 -0.1846
vn 0.0893 0.9936 0.0685
vn 0.0876 0.9944 0.0592
vn -0.1903 -0.9127 -0.3617
vn -0.4002 0.0334 -0.9158
vn 0.0326 0.9960 -0.0835
vn -0.4024 0.0000 -0.9155
vn 0.4746 -0.1060 0.8738
vn 0.2305 -0.0112 0.9730
vn 0.2796 0.0007 0.9601
vn 0.0000 0.0000 -1.0000
vn 0.0000 -0.0549 0.9985
vn 0.0103 0.9999 0.0000
vn 0.0243 0.9997 0.0000
vn 0.0135 0.9999 0.0000
vn 0.3955 -0.6251 0.6730
vn -0.0000 -0.6870 0.7266
vn 0.9689 -0.1845 0.1652
vn 0.9999 0.0060 0.0112
vn 0.9987 0.0424 -0.0283
vn 0.9999 -0.0119 0.0106
vn 0.9997 0.0177 -0.0138
vn 0.9999 -0.0023 0.0104
vn 0.9998 0.0191 0.0104
vn 0.9768 0.1676 -0.1332
vn -0.0000 0.0546 -0.9985
vn 0.0000 0.9239 -0.3826
vn 0.0000 0.7532 -0.6577
vn 0.0000 0.9173 -0.3981
vn -0.0000 -0.5994 0.8005
vn 0.9852 0.1707 0.0138
vn 0.9493 0.3132 -0.0279
vn 0.9999 0.0000 0.0138
vn 0.0000 -0.9998 0.0205
vn 0.0000 -0.9998 0.0219
vn -0.9136 -0.4032 -0.0523
vn -0.8517 -0.5059 -0.1366
vn -0.8174 -0.5509 -0.1682
vn -0.2213 0.9752 -0.0025
vn -0.1392 0.9781 0.1546
vn -0.2141 0.9768 -0.0057
vn -0.2141 0.9768 -0.0030
vn -0.9321 -0.3619 -0.0129
vn -0.9319 -0.3618 -0.0248
vn 0.9419 0.3357 0.0134
vn 0.0008 0.2417 -0.9704
vn 0.0112 0.1589 -0.9872
vn 0.0122 0.1512 -0.9884
vn 0.9503 0.3098 -0.0300
vn 0.9518 0.2977 -0.0735
vn 0.0000 -0.9990 0.0447
vn 0.0000 0.9997 -0.0245
vn -0.0038 0.9552 0.2960
vn -0.0038 0.9551 0.2961
vn -0.0007 -0.6234 0.7819
vn -0.0098 -0.5711 0.8208
vn -0.0000 -0.6270 0.7790
vn 0.9323 0.3614 0.0172
vn 0.9828 0.1840 0.0177
vn -0.9321 -0.3618 -0.0164
vn -0.2141 0.9768 -0.0038
vn -0.7682 -0.4545 0.4510
vn -0.9373 -0.2631 0.2286
vn -0.9689 -0.1845 0.1652
vn -0.7586 -0.4952 0.4235
vn -0.6743 -0.5977 0.4337
vn -0.3346 -0.7475 0.5738
vn -0.4138 -0.7032 0.5782
vn -0.4453 -0.5313 0.7207
vn -0.7973 -0.3885 0.4620
vn -0.8540 -0.2914 0.4310
vn -0.4118 -0.6847 0.6014
vn -0.9833 -0.1078 0.1463
vn -0.9904 -0.0656 0.1214
vn 0.0007 0.9437 -0.3309
vn 0.1695 0.9374 -0.3043
vn 0.3478 0.8465 -0.4031
vn 0.7709 0.4460 -0.4547
vn -0.0063 0.9513 0.3082
vn -0.0559 0.9982 0.0216
vn -0.0067 0.9998 0.0198
vn 0.0865 0.2188 0.9719
vn 0.8489 0.4144 -0.3280
vn 0.8489 0.4145 -0.3280
vn -0.0542 0.9895 0.1341
vn 0.0934 -0.9754 -0.1996
vn -0.0893 0.9936 0.0685
vn -0.0403 0.9897 0.1377
vn 0.1903 -0.9127 -0.3617
vn 0.0698 -0.9803 -0.1846
vn -0.0326 0.9960 -0.0835
vn 0.4002 0.0334 -0.9158
vn 0.4024 0.0000 -0.9155
vn -0.4746 -0.1060 0.8738
vn -0.2305 -0.0112 0.9730
vn -0.4739 -0.1101 0.8737
vn -0.2796 0.0007 0.9601
vn -0.0103 0.9999 -0.0000
vn -0.0135 0.9999 0.0000
vn -0.0243 0.9997 0.0000
vn -0.3955 -0.6251 0.6730
vn -0.9999 0.0060 0.0112
vn -0.9999 0.0022 0.0112
vn -0.9987 0.0424 -0.0283
vn -0.9999 -0.0119 0.0106
vn -0.9999 -0.0023 0.0104
vn -0.9997 0.0177 -0.0138
vn -0.9998 0.0191 0.0104
vn -0.9768 0.1676 -0.1332
vn -0.9999 0.0000 0.0138
vn -0.9493 0.3132 -0.0279
vn -0.9852 0.1707 0.0138
vn 0.9136 -0.4032 -0.0523
vn 0.8517 -0.5059 -0.1366
vn 0.9319 -0.3618 -0.0248
vn 0.1392 0.9781 0.1546
vn 0.2213 0.9752 -0.0025
vn 0.2141 0.9768 -0.0057
vn 0.2141 0.9768 -0.0030
vn 0.9321 -0.3619 -0.0129
vn -0.9419 0.3357 0.0134
vn -0.0008 0.2417 -0.9704
vn -0.0112 0.1589 -0.9872
vn -0.0000 0.2479 -0.9688
vn -0.9518 0.2977 -0.0735
vn -0.9503 0.3098 -0.0300
vn 1.0000 -0.0000 -0.0000
vn 0.0038 0.9552 0.2960
vn 0.1483 0.9768 0.1546
vn 0.0098 -0.5711 0.8208
vn 0.0007 -0.6234 0.7819
vn -0.9323 0.3613 0.0172
vn -0.9828 0.1840 0.0177
vn 0.9321 -0.3618 -0.0164
vn 0.2141 0.9768 -0.0038
vn -0.8489 0.4145 -0.3280
vn 0.0403 0.9897 0.1377
vn -0.1937 -0.8998 -0.3909
vn 0.0391 0.9969 -0.0687
vn 0.4739 -0.1101 0.8737
vn 0.0000 -0.0558 0.9984
vn 0.9999 0.0022 0.0112
vn 0.9995 0.0286 0.0101
vn 0.9998 0.0000 0.0176
vn -0.1483 0.9768 0.1546
vn 0.9533 0.2921 -0.0767
vn -0.0107 -0.5655 0.8247
vn 0.9323 0.3613 0.0172
vn 0.7907 0.4395 -0.4261
vn -0.0876 0.9944 0.0592
vn 0.1937 -0.8998 -0.3909
vn -0.0391 0.9969 -0.0687
vn -0.9995 0.0286 0.0101
vn -0.9998 0.0000 0.0176
vn 0.8174 -0.5509 -0.1682
vn -0.0122 0.1512 -0.9884
vn -0.9533 0.2921 -0.0767
vn 0.0038 0.9551 0.2961
vn 0.0107 -0.5655 0.8246
s 1
f 1/1/1 2/2/1 3/3/1
f 4/4/2 5/5/3 6/6/4
f 6/6/4 5/5/3 7/7/5
f 8/8/6 9/9/7 10/10/8
f 11/11/9 12/12/10 1/13/11
f 13/14/12 14/15/13 8/8/6
f 15/16/1 12/17/1 16/18/1
f 17/19/14 2/20/15 15/21/15
f 18/22/16 1/13/11 3/23/17
f 14/15/13 7/7/5 9/9/7
f 19/24/18 20/25/19 21/26/20
f 22/27/21 6/6/4 14/15/13
f 12/17/1 2/2/1 1/1/1
f 7/7/22 23/28/22 24/29/22
f 7/7/22 25/30/23 9/9/22
f 21/31/20 26/32/24 27/33/25
f 27/34/25 26/35/24 28/36/26
f 29/37/27 26/35/24 30/38/28
f 30/38/28 31/39/24 32/40/24
f 24/29/29 33/41/30 25/30/23
f 9/9/22 34/42/31 10/10/22
f 5/43/32 35/44/33 23/45/22
f 36/46/34 35/44/35 37/47/36
f 38/48/37 39/49/38 33/50/30
f 38/48/37 37/47/36 35/44/35
f 23/28/39 35/51/39 36/52/39
f 24/29/29 36/52/40 37/53/41
f 25/30/23 39/54/38 34/42/31
f 40/55/42 41/56/43 42/57/44
f 43/58/45 44/59/46 45/60/47
f 41/56/43 23/28/48 5/5/49
f 44/59/46 36/52/50 45/60/47
f 41/56/51 46/61/52 44/59/53
f 36/52/54 47/62/55 45/60/56
f 42/57/57 44/59/57 48/63/57
f 47/62/55 43/58/58 45/60/56
f 44/64/59 49/65/22 48/66/22
f 46/67/60 50/68/61 44/64/59
f 51/69/62 4/4/2 22/27/21
f 52/70/63 22/27/21 13/14/12
f 11/71/9 53/72/64 4/4/2
f 2/20/65 18/22/16 3/23/17
f 18/73/16 54/74/66 53/72/64
f 29/37/67 55/75/68 56/76/69
f 56/76/69 28/36/70 29/37/67
f 54/74/66 57/77/71 55/75/68
f 17/78/14 54/74/72 58/79/14
f 59/80/73 56/76/74 55/75/75
f 20/81/19 31/82/24 21/31/20
f 56/76/74 21/26/20 27/34/25
f 60/83/72 57/77/72 54/74/72
f 51/84/62 16/85/76 12/12/10
f 61/86/77 62/87/78 63/88/79
f 64/89/1 65/90/80 66/91/81
f 65/90/82 67/92/83 57/77/84
f 62/87/85 67/92/86 68/93/87
f 63/88/88 68/93/87 69/94/88
f 70/95/89 68/93/90 65/90/82
f 64/89/91 62/87/78 61/86/77
f 71/96/92 72/97/93 73/98/94
f 66/91/95 71/96/96 62/87/78
f 66/91/81 65/90/80 57/77/97
f 57/77/98 59/80/73 55/75/75
f 67/92/86 73/98/99 74/99/100
f 67/92/101 72/97/102 57/77/103
f 5/5/32 30/38/28 35/51/33
f 5/5/3 55/75/68 29/37/67
f 53/72/64 55/75/68 5/5/3
f 75/100/104 61/86/77 76/101/105
f 77/102/106 69/94/89 70/95/89
f 78/103/107 69/94/88 79/104/107
f 75/100/1 70/95/1 64/89/1
f 80/105/1 81/106/1 82/107/1
f 83/108/108 84/109/109 85/110/110
f 86/111/111 87/112/112 84/109/109
f 8/8/6 88/113/113 89/114/114
f 90/115/115 91/116/116 80/117/117
f 13/14/12 89/114/114 92/118/118
f 90/119/1 15/16/1 16/18/1
f 82/120/15 17/19/14 15/21/15
f 80/117/117 93/121/119 81/122/120
f 89/114/114 87/112/112 86/111/111
f 19/24/18 94/123/121 20/25/19
f 92/118/118 86/111/111 83/108/108
f 90/119/1 80/105/1 82/107/1
f 87/112/22 95/124/22 84/109/22
f 96/125/122 87/112/22 88/113/22
f 94/126/121 97/127/24 98/128/24
f 99/129/25 100/130/26 97/131/24
f 97/131/24 101/132/27 30/38/28
f 30/38/28 98/133/24 97/131/24
f 102/134/123 103/135/124 96/125/122
f 34/42/31 88/113/22 10/10/22
f 84/136/125 95/137/22 35/44/33
f 104/138/126 105/139/127 35/44/35
f 38/48/37 102/140/123 39/49/38
f 105/139/127 38/48/37 35/44/35
f 95/124/128 104/141/128 35/51/128
f 103/135/124 104/141/129 95/124/130
f 39/54/38 96/125/122 34/42/31
f 106/142/131 40/55/42 42/57/44
f 43/58/45 107/143/132 48/63/45
f 106/142/131 95/124/133 108/144/134
f 104/141/135 107/143/132 109/145/136
f 110/146/137 106/142/138 107/143/139
f 104/141/140 108/144/141 95/124/142
f 107/143/57 42/57/57 48/63/57
f 43/58/58 108/144/141 109/145/143
f 49/65/22 107/147/144 48/66/22
f 111/148/145 110/149/146 107/147/144
f 112/150/147 83/108/108 91/151/116
f 52/70/63 92/118/118 112/150/147
f 91/151/116 85/110/110 93/152/119
f 82/120/148 93/121/119 113/153/149
f 93/152/119 114/154/150 113/155/149
f 101/132/151 115/156/152 116/157/153
f 100/130/154 115/156/152 101/132/151
f 114/154/150 116/157/153 117/158/155
f 114/154/72 17/78/14 113/155/14
f 115/156/74 59/80/73 116/157/75
f 20/81/19 98/128/24 32/159/24
f 115/156/74 94/123/121 19/24/18
f 117/158/72 60/83/72 114/154/72
f 16/85/76 112/160/147 90/115/115
f 118/161/156 119/162/157 120/163/158
f 121/164/1 122/165/80 123/166/1
f 122/165/159 124/167/160 125/168/161
f 124/167/162 119/162/163 125/168/164
f 125/168/164 118/161/165 126/169/165
f 123/166/166 125/168/161 126/169/166
f 119/162/157 121/164/167 120/163/158
f 127/170/168 72/97/169 117/158/170
f 127/170/171 128/171/172 119/162/157
f 128/171/81 117/158/97 122/165/80
f 72/97/173 73/98/173 74/99/173
f 117/158/98 59/80/73 72/97/98
f 124/167/162 73/98/174 127/170/175
f 72/97/176 124/167/177 117/158/103
f 30/38/28 84/109/125 35/51/33
f 84/109/109 101/132/151 116/157/153
f 85/110/110 116/157/153 114/154/150
f 120/163/158 129/172/178 130/173/179
f 131/174/180 126/169/166 132/175/180
f 126/169/165 133/176/181 132/175/181
f 129/172/1 123/166/1 131/174/1
f 4/4/2 53/72/64 5/5/3
f 8/8/6 14/15/13 9/9/7
f 11/11/9 51/84/62 12/12/10
f 13/14/12 22/27/21 14/15/13
f 15/16/1 2/2/1 12/17/1
f 17/19/14 58/177/14 2/20/15
f 18/22/16 11/11/9 1/13/11
f 14/15/13 6/6/4 7/7/5
f 22/27/21 4/4/2 6/6/4
f 7/7/22 5/5/22 23/28/22
f 7/7/22 24/29/22 25/30/23
f 21/31/20 31/82/24 26/32/24
f 29/37/27 28/36/26 26/35/24
f 30/38/28 26/35/24 31/39/24
f 24/29/29 37/53/41 33/41/30
f 9/9/22 25/30/23 34/42/31
f 38/48/37 33/50/30 37/47/36
f 24/29/29 23/28/182 36/52/40
f 25/30/23 33/41/30 39/54/38
f 40/55/42 47/62/183 41/56/43
f 43/58/45 48/63/45 44/59/46
f 41/56/43 47/62/183 23/28/48
f 44/59/46 46/61/184 36/52/50
f 41/56/51 5/5/185 46/61/52
f 36/52/54 23/28/186 47/62/55
f 42/57/57 41/56/57 44/59/57
f 47/62/55 40/55/187 43/58/58
f 44/64/59 50/68/61 49/65/22
f 46/67/60 134/178/60 50/68/61
f 51/69/62 11/71/9 4/4/2
f 52/70/63 51/69/62 22/27/21
f 11/71/9 18/73/16 53/72/64
f 2/20/65 58/177/188 18/22/16
f 18/73/16 58/79/188 54/74/66
f 56/76/69 27/34/189 28/36/70
f 17/78/14 60/83/72 54/74/72
f 59/80/73 19/24/18 56/76/74
f 20/81/19 32/159/24 31/82/24
f 56/76/74 19/24/18 21/26/20
f 60/83/72 72/97/72 57/77/72
f 51/84/62 52/179/63 16/85/76
f 63/88/79 78/103/190 76/101/105
f 76/101/105 61/86/77 63/88/79
f 64/89/1 70/95/1 65/90/80
f 65/90/82 68/93/90 67/92/83
f 62/87/85 71/96/191 67/92/86
f 63/88/88 62/87/85 68/93/87
f 70/95/89 69/94/89 68/93/90
f 64/89/91 66/91/95 62/87/78
f 71/96/92 57/77/170 72/97/93
f 66/91/95 57/77/192 71/96/96
f 57/77/98 72/97/98 59/80/73
f 67/92/86 71/96/191 73/98/99
f 67/92/101 74/99/193 72/97/102
f 5/5/32 29/37/27 30/38/28
f 53/72/64 54/74/66 55/75/68
f 75/100/194 64/89/91 61/86/77
f 77/102/106 79/104/106 69/94/89
f 78/103/107 63/88/88 69/94/88
f 75/100/1 77/102/1 70/95/1
f 83/108/108 86/111/111 84/109/109
f 8/8/6 10/10/8 88/113/113
f 90/115/115 112/160/147 91/116/116
f 13/14/12 8/8/6 89/114/114
f 90/119/1 82/107/1 15/16/1
f 82/120/15 113/153/14 17/19/14
f 80/117/117 91/116/116 93/121/119
f 89/114/114 88/113/113 87/112/112
f 92/118/118 89/114/114 86/111/111
f 87/112/22 103/135/22 95/124/22
f 96/125/122 103/135/22 87/112/22
f 94/126/121 99/180/25 97/127/24
f 97/131/24 100/130/26 101/132/27
f 30/38/28 32/40/24 98/133/24
f 102/134/123 105/181/195 103/135/124
f 34/42/31 96/125/122 88/113/22
f 105/139/127 102/140/123 38/48/37
f 103/135/124 105/181/195 104/141/129
f 39/54/38 102/134/123 96/125/122
f 106/142/131 108/144/134 40/55/42
f 43/58/45 109/145/136 107/143/132
f 106/142/131 84/109/196 95/124/133
f 104/141/135 110/146/197 107/143/132
f 110/146/137 84/109/198 106/142/138
f 104/141/140 109/145/143 108/144/141
f 107/143/57 106/142/57 42/57/57
f 43/58/58 40/55/187 108/144/141
f 49/65/22 111/148/145 107/147/144
f 111/148/145 135/182/146 110/149/146
f 112/150/147 92/118/118 83/108/108
f 52/70/63 13/14/12 92/118/118
f 91/151/116 83/108/108 85/110/110
f 82/120/148 81/122/120 93/121/119
f 93/152/119 85/110/110 114/154/150
f 100/130/154 99/129/199 115/156/152
f 114/154/72 60/83/72 17/78/14
f 115/156/74 19/24/18 59/80/73
f 20/81/19 94/126/121 98/128/24
f 115/156/74 99/129/25 94/123/121
f 117/158/72 72/97/72 60/83/72
f 16/85/76 52/179/63 112/160/147
f 130/173/179 133/176/200 120/163/158
f 133/176/200 118/161/156 120/163/158
f 121/164/1 128/171/81 122/165/80
f 122/165/159 117/158/201 124/167/160
f 124/167/162 127/170/175 119/162/163
f 125/168/164 119/162/163 118/161/165
f 123/166/166 122/165/159 125/168/161
f 119/162/157 128/171/172 121/164/167
f 127/170/168 73/98/202 72/97/169
f 127/170/171 117/158/203 128/171/172
f 117/158/98 116/157/75 59/80/73
f 124/167/162 74/99/204 73/98/204
f 72/97/176 74/99/205 124/167/177
f 30/38/28 101/132/27 84/109/125
f 85/110/110 84/109/109 116/157/153
f 120/163/158 121/164/167 129/172/178
f 131/174/180 123/166/166 126/169/166
f 126/169/165 118/161/165 133/176/181
f 129/172/1 121/164/1 123/166/1
