# Blender v2.91.0 Beta OBJ File: 'decos.blend'
# www.blender.org
o Cube
v -0.000000 -0.145600 0.499169
v -0.000000 0.478584 0.409719
v -0.417176 -0.145600 -0.000000
v -0.342420 0.478584 0.000000
v 0.417176 -0.145600 0.000000
v 0.342420 0.478584 -0.000000
v 0.000000 -0.145600 -0.499169
v -0.000000 0.478584 -0.409719
v -0.294988 -0.145600 0.352966
v -0.242127 0.478584 0.289715
v 0.294988 -0.145600 -0.352966
v 0.242127 0.478584 -0.289715
v -0.294988 -0.145600 -0.352966
v -0.242127 0.478584 -0.289715
v 0.294988 -0.145600 0.352966
v 0.242127 0.478584 0.289715
v -0.000000 0.571273 0.409719
v -0.342420 0.571273 0.000000
v 0.342420 0.571273 -0.000000
v -0.000000 0.571273 -0.409719
v -0.242127 0.571273 0.289715
v 0.242127 0.571273 -0.289715
v -0.242127 0.571273 -0.289715
v 0.242127 0.571273 0.289715
v -0.000000 0.571273 -0.000000
v -0.372731 0.534352 3.456995
v -0.372731 0.655417 3.456995
v -0.372731 0.534352 -0.821392
v -0.372731 0.655417 -0.821392
v 0.372731 0.534352 3.456995
v 0.372731 0.655417 3.456995
v 0.372731 0.534352 -0.821392
v 0.372731 0.655417 -0.821392
v -0.000000 -7.000000 0.499169
v -0.417176 -7.000000 -0.000000
v 0.417176 -7.000000 0.000000
v 0.000000 -7.000000 -0.499169
v -0.294988 -7.000000 0.352966
v 0.294988 -7.000000 -0.352966
v -0.294988 -7.000000 -0.352966
v 0.294988 -7.000000 0.352966
vt 0.257812 0.789062
vt 0.257812 0.789062
vt 0.257812 0.789062
vt 0.257812 0.789062
vt 0.257812 0.789062
vt 0.257812 0.789062
vt 0.257812 0.789062
vt 0.257812 0.789062
vt 0.257812 0.789062
vt 0.257812 0.789062
vt 0.257812 0.789062
vt 0.257812 0.789062
vt 0.257812 0.789062
vt 0.257812 0.789062
vt 0.257812 0.789062
vt 0.257812 0.789062
vt 0.257812 0.789062
vt 0.257812 0.789062
vt 0.257812 0.789062
vt 0.257812 0.789062
vt 0.257812 0.789062
vt 0.257812 0.789062
vt 0.257812 0.789062
vt 0.257812 0.789062
vt 0.257812 0.789062
vt 0.257812 0.789062
vt 0.257812 0.789062
vt 0.257812 0.789062
vt 0.257812 0.789062
vt 0.257812 0.789062
vt 0.257812 0.789062
vt 0.257812 0.789062
vt 0.257812 0.789062
vt 0.257812 0.789062
vt 0.257812 0.789062
vt 0.257812 0.789062
vt 0.257812 0.789062
vt 0.257812 0.789062
vt 0.257812 0.789062
vt 0.257812 0.789062
vt 0.257812 0.789062
vn -0.7475 0.0639 0.6612
vn -0.7506 0.0658 0.6575
vn -0.9982 0.0603 0.0000
vn -0.9983 0.0588 -0.0000
vn -0.7475 0.0639 -0.6612
vn -0.7506 0.0658 -0.6575
vn -0.4431 0.0651 -0.8941
vn -0.4432 0.0625 -0.8942
vn 0.7475 0.0639 -0.6612
vn 0.7506 0.0658 -0.6575
vn 0.9982 0.0603 0.0000
vn 0.9983 0.0588 0.0000
vn 0.7475 0.0639 0.6612
vn 0.7506 0.0658 0.6575
vn 0.4431 0.0651 0.8941
vn 0.4432 0.0625 0.8942
vn 0.7505 0.0000 0.6609
vn 0.4441 0.0000 0.8960
vn -0.7505 0.0000 0.6609
vn -1.0000 0.0000 0.0000
vn 0.4432 0.0625 -0.8942
vn 0.4431 0.0651 -0.8941
vn -0.4432 0.0625 0.8942
vn -0.4431 0.0651 0.8941
vn -0.4441 0.0000 0.8960
vn 0.4441 0.0000 -0.8960
vn 0.7505 0.0000 -0.6609
vn 0.0000 1.0000 0.0000
vn -0.7505 0.0000 -0.6609
vn -0.4441 0.0000 -0.8960
vn 1.0000 0.0000 0.0000
vn 0.0000 0.0000 -1.0000
vn 0.0000 0.0000 1.0000
vn 0.0000 -1.0000 0.0000
s 1
f 9/1/1 10/2/2 4/3/3 3/4/4
f 13/5/5 14/6/6 8/7/7 7/8/8
f 11/9/9 12/10/10 6/11/11 5/12/12
f 15/13/13 16/14/14 2/15/15 1/16/16
f 2/15/15 16/14/14 24/17/17 17/18/18
f 4/3/3 10/2/2 21/19/19 18/20/20
f 7/8/21 8/7/22 12/10/10 11/9/9
f 1/16/23 2/15/24 10/2/2 9/1/1
f 10/2/2 2/15/24 17/18/25 21/19/19
f 12/10/10 8/7/22 20/21/26 22/22/27
f 5/12/12 6/11/11 16/14/14 15/13/13
f 3/4/4 4/3/3 14/6/6 13/5/5
f 25/23/28 21/19/28 17/18/28 24/17/28
f 23/24/28 18/20/28 21/19/28 25/23/28
f 20/21/28 23/24/28 25/23/28 22/22/28
f 22/22/28 25/23/28 24/17/28 19/25/28
f 8/7/7 14/6/6 23/24/29 20/21/30
f 16/14/14 6/11/11 19/25/31 24/17/17
f 14/6/6 4/3/3 18/20/20 23/24/29
f 6/11/11 12/10/10 22/22/27 19/25/31
f 26/26/20 27/27/20 29/28/20 28/29/20
f 28/29/32 29/28/32 33/30/32 32/31/32
f 32/31/31 33/30/31 31/32/31 30/33/31
f 30/33/33 31/32/33 27/27/33 26/26/33
f 28/29/34 32/31/34 30/33/34 26/26/34
f 33/30/28 29/28/28 27/27/28 31/32/28
f 13/5/5 7/8/8 37/34/30 40/35/29
f 3/4/4 13/5/5 40/35/29 35/36/20
f 1/16/23 9/1/1 38/37/19 34/38/25
f 7/8/21 11/9/9 39/39/27 37/34/26
f 11/9/9 5/12/12 36/40/31 39/39/27
f 9/1/1 3/4/4 35/36/20 38/37/19
f 15/13/13 1/16/16 34/38/18 41/41/17
f 5/12/12 15/13/13 41/41/17 36/40/31
