# Blender v2.83.4 OBJ File: ''
# www.blender.org
o IndustrialCatWalk_PipeStraightTillable_Cube.001_IndustrialC.009
v -0.000088 -0.087960 -59.998913
v -0.000088 -0.847074 -59.998913
v 0.000000 -0.847094 -0.000002
v 0.000000 -0.087980 -0.000002
v 59.999855 -0.847010 -59.998913
v 59.999855 -0.087896 -59.998913
v 59.999908 -0.087916 0.000002
v 59.999908 -0.847030 0.000002
vt 0.179688 0.773438
vt 0.179688 0.773438
vt 0.179688 0.773438
vt 0.179688 0.773438
vt 0.179688 0.773438
vt 0.179688 0.773438
vt 0.179688 0.773438
vt 0.179688 0.773438
vt 0.742188 0.460938
vt 0.742188 0.460938
vt 0.742188 0.460938
vt 0.742188 0.460938
vn -1.0000 0.0000 0.0000
vn -0.0000 0.0000 -1.0000
vn 1.0000 -0.0000 -0.0000
vn -0.0000 1.0000 0.0000
vn -0.0000 -0.0000 1.0000
vn 0.0000 -1.0000 -0.0000
s 1
f 1/1/1 2/2/1 3/3/1 4/4/1
f 5/5/2 2/2/2 1/1/2 6/6/2
f 6/6/3 7/7/3 8/8/3 5/5/3
f 4/9/4 7/10/4 6/11/4 1/12/4
f 4/4/5 3/3/5 8/8/5 7/7/5
f 3/3/6 2/2/6 5/5/6 8/8/6
