# Blender v2.91.0 Beta OBJ File: 'decos.blend'
# www.blender.org
o Cube.002_Cube.047
v 2.163050 -0.000230 0.074061
v 2.163050 2.624905 0.074062
v -2.163050 2.624905 0.074062
v -2.163050 -0.000230 0.074061
v -2.163050 2.333223 0.074062
v -2.163050 2.041542 0.074062
v -2.163050 1.749860 0.074062
v -2.163050 1.458178 0.074062
v -2.163050 1.166497 0.074062
v -2.163050 0.874815 0.074061
v -2.163050 0.583133 0.074061
v -2.163050 0.291452 0.074061
v 2.163050 0.291452 0.074061
v 2.163050 0.583133 0.074061
v 2.163050 0.874815 0.074061
v 2.163050 1.166497 0.074062
v 2.163050 1.458178 0.074062
v 2.163050 1.749860 0.074062
v 2.163050 2.041542 0.074062
v 2.163050 2.333223 0.074062
vt 0.257812 0.804688
vt 0.257812 0.804688
vt 0.257812 0.804688
vt 0.257812 0.804688
vt 0.257812 0.804688
vt 0.257812 0.804688
vt 0.835938 0.429688
vt 0.835938 0.429688
vt 0.835938 0.429688
vt 0.257812 0.804688
vt 0.257812 0.804688
vt 0.257812 0.804688
vt 0.835938 0.429688
vt 0.835938 0.429688
vt 0.835938 0.429688
vt 0.257812 0.804688
vt 0.257812 0.804688
vt 0.257812 0.804688
vt 0.835938 0.429688
vt 0.835938 0.429688
vt 0.835938 0.429688
vt 0.257812 0.804688
vt 0.257812 0.804688
vt 0.257812 0.804688
vt 0.835938 0.429688
vt 0.835938 0.429688
vt 0.835938 0.429688
vt 0.257812 0.804688
vt 0.257812 0.804688
vt 0.835938 0.429688
vt 0.257812 0.804688
vt 0.835938 0.429688
vt 0.257812 0.804688
vt 0.835938 0.429688
vt 0.257812 0.804688
vt 0.835938 0.429688
vn 0.0000 -0.0000 1.0000
s 1
f 2/1/1 5/2/1 20/3/1
f 13/4/1 4/5/1 1/6/1
f 14/7/1 12/8/1 13/9/1
f 15/10/1 11/11/1 14/12/1
f 16/13/1 10/14/1 15/15/1
f 17/16/1 9/17/1 16/18/1
f 18/19/1 8/20/1 17/21/1
f 19/22/1 7/23/1 18/24/1
f 19/25/1 5/26/1 6/27/1
f 2/1/1 3/28/1 5/2/1
f 13/4/1 12/29/1 4/5/1
f 14/7/1 11/30/1 12/8/1
f 15/10/1 10/31/1 11/11/1
f 16/13/1 9/32/1 10/14/1
f 17/16/1 8/33/1 9/17/1
f 18/19/1 7/34/1 8/20/1
f 19/22/1 6/35/1 7/23/1
f 19/25/1 20/36/1 5/26/1
