# Blender v2.90.0 Alpha OBJ File: 'Decos.blend'
# www.blender.org
o Cube.002_Cube.011
v -0.726949 3.414157 0.093130
v -0.728820 0.888911 0.120560
v 0.764150 0.828813 -0.175858
v 0.728820 3.417339 0.120560
v 0.725375 0.912262 0.165687
v 0.726490 1.911089 0.139492
v -0.725349 1.825410 0.131545
v -0.720478 1.976881 0.097612
vt 0.054688 0.789062
vt 0.054688 0.789062
vt 0.054688 0.789062
vt 0.054688 0.789062
vt 0.054688 0.789063
vt 0.054688 0.789062
vt 0.054687 0.789062
vt 0.054688 0.789062
vn -0.1951 -0.0105 -0.9807
vn 0.9936 0.0007 0.1126
vn 0.0185 0.1140 -0.9933
vn 0.0183 -0.2191 -0.9755
vn -0.0251 0.0144 0.9996
vn 0.0082 -0.9712 0.2382
vn -0.0183 0.2191 0.9755
s off
f 3/1/1 2/2/1 1/3/1
f 4/4/2 5/5/2 3/1/2
f 4/4/3 3/1/3 1/3/3
f 8/6/4 6/7/4 7/8/4
f 2/2/5 5/5/5 4/4/5 1/3/5
f 3/1/6 5/5/6 2/2/6
f 6/7/7 8/6/7 7/8/7
