# Blender v2.91.0 Beta OBJ File: 'HOUSE.blend'
# www.blender.org
o ExposedBrickWindow.002_Detail_Cube.002
v -3.594405 0.019035 3.978029
v 3.665816 0.019035 3.978029
v -3.593495 0.020471 -0.690554
v 3.665516 0.020471 -0.690554
v -3.594405 0.019038 1.334665
v 3.665816 0.019038 1.334665
v 3.665816 0.872463 1.334665
v 3.665965 0.873173 -0.690554
v 3.665816 0.872460 3.234673
v -3.594405 3.422177 1.334248
v -3.592982 3.421504 -0.690554
v -3.594405 0.872465 -0.690554
v -3.594405 0.872463 1.334665
v -3.631177 3.423115 3.957276
v -3.608053 3.182017 3.957277
v -3.594405 3.183374 1.334248
v -3.594405 3.184940 -0.690554
v 3.665816 3.422177 1.334248
v 3.665347 3.421504 -0.690554
v 3.677951 3.423115 3.957276
v 3.670321 3.182017 3.957277
v 3.665816 3.183374 1.334248
v 3.665816 3.186433 3.240098
v 3.665816 3.184940 -0.690554
v 2.917076 0.019757 -0.690554
v 0.827452 0.872464 3.977669
v 0.797083 0.019041 3.977550
v 0.853438 3.185424 3.236389
v 2.917076 0.872824 -0.690554
v -0.485506 3.185449 3.957277
v 0.857820 0.872461 3.234623
v 2.917076 3.183834 -0.690554
v -0.918941 0.872461 3.234644
v -0.927104 3.185844 3.237934
v -1.032083 0.019039 3.977750
v -1.032083 0.872464 3.977749
v 0.853438 3.185424 3.977789
v 3.665816 3.186433 3.977789
v 3.665816 0.872460 3.977910
v -3.594405 0.872460 3.978029
v 3.983825 0.020662 4.378493
v -4.049411 0.020662 4.378493
v -3.188564 0.020426 -0.508303
v 3.182589 0.020426 -0.361416
v 3.182589 0.020426 3.618418
v -3.188564 0.020426 3.573796
v -4.049411 0.020662 -1.157192
v 3.983825 0.020662 -1.157192
v -3.594405 3.185424 3.236389
v -3.594405 0.872461 3.234623
v -3.594405 3.185424 3.957220
v -3.594405 0.872461 3.955454
v -3.352556 3.185424 3.236389
v -3.352556 0.872461 3.234623
v -3.352556 3.185424 3.957220
v -3.352556 0.872461 3.955454
v -6.323324 0.000000 7.780195
v 9.963455 0.000000 7.780195
v -6.323324 0.000000 -6.064975
v 9.963455 0.000000 -6.064975
v 7.145131 0.882509 -3.169147
v 3.633639 0.882194 -3.169147
v 3.633639 3.194669 -3.169147
v 7.145064 3.194669 -3.169147
v 3.633639 3.194669 -0.254316
v 7.145064 3.194669 -0.254316
v 7.145064 3.194669 3.422502
v 3.633639 3.194669 3.422502
v 3.633639 0.882194 3.422502
v 7.145131 0.882509 3.422502
v 3.633639 0.882194 3.774944
v 3.633639 3.194669 3.774944
v 7.145131 0.882509 3.774944
v 7.145064 3.194669 3.774944
v 7.258406 0.915954 -3.150039
v 7.258406 3.169709 -3.150039
v 7.258406 0.916191 3.762672
v 7.258406 3.168981 3.762672
v 6.905964 0.915954 -3.150039
v 6.905964 3.169709 -3.150039
v 6.905964 0.916191 3.762672
v 6.905964 3.168981 3.762672
v 3.572698 3.421504 -3.252944
v 3.534503 3.423115 3.957276
v 7.221805 3.421504 -3.252944
v 7.205741 3.423115 3.957276
v 3.534503 3.075471 3.957276
v 3.572698 3.073860 -3.252944
v 7.205741 3.075471 3.957276
v 7.221805 3.073860 -3.252944
v 3.684376 0.019035 3.978029
v 3.684076 0.020471 -3.438592
v 3.684376 0.019038 1.334665
v 3.684376 0.872463 1.334665
v 3.684525 0.873173 -3.438592
v 3.684376 0.872460 3.234673
v 3.684376 0.872460 3.977910
v 7.343262 0.019035 3.978029
v 7.342962 0.020471 -3.438592
v 7.343262 0.019038 1.334665
v 7.343262 0.872463 1.334665
v 7.343411 0.873173 -3.438592
v 7.343262 0.872460 3.234673
v 7.343262 0.872460 3.977910
v 3.836975 1.027942 3.774944
v 3.836975 3.048940 3.774944
v 6.941791 1.028218 3.774944
v 6.941732 3.048940 3.774944
v 3.610634 0.915954 -3.201722
v 3.610634 3.169709 -3.201722
v 3.610634 0.916191 3.762672
v 3.610634 3.168981 3.762672
v 3.684376 0.019035 3.950476
v 3.684376 0.872460 3.950356
v 7.343262 0.019035 3.950476
v 7.343262 0.872460 3.950356
v 3.684376 0.019035 5.882929
v 7.343262 0.019035 5.882929
v 3.684376 0.421002 4.570201
v 7.343262 0.421002 4.570201
v -3.594405 0.877895 1.590984
v -3.603361 3.186353 1.573566
v -3.593950 3.395990 -0.683165
v 3.673797 3.395990 -0.683165
v 3.674021 4.248710 -0.683165
v -3.593931 6.557117 -0.683165
v -3.594405 4.248231 -0.683165
v -3.612791 6.556511 3.847612
v 3.671080 6.557117 -0.683165
v 3.679350 6.561155 3.847612
v 2.917076 3.395523 -0.683165
v 2.917076 4.248590 -0.683165
v 3.679350 6.561155 -0.717929
v -3.593495 3.396237 3.848522
v 3.665516 3.396237 3.848522
v 3.665965 4.248940 3.847612
v -3.594405 4.248231 3.847612
v 2.917076 3.395523 3.848522
v 2.917076 4.248590 3.847612
v 2.917076 6.540575 3.847612
v 7.148786 3.396238 -3.188919
v 7.148786 3.396238 3.879300
v 7.158712 6.557117 -3.189354
v 7.148786 4.248232 -3.189829
v 3.685453 6.556511 -3.208215
v 7.169371 6.557176 3.847612
v 7.148786 3.395524 3.130860
v 7.148786 4.248590 3.130860
v 7.148786 6.559600 3.130860
v 3.739830 3.396238 -3.188919
v 3.739830 3.396238 3.879300
v 3.739830 4.248940 3.847612
v 3.739830 4.248232 -3.189829
v 3.739830 3.395524 3.130859
v 3.739830 4.248590 3.130859
v 3.739830 6.540575 3.130859
v 7.124156 3.395743 -3.189829
v 7.123877 4.248481 -3.189829
v 3.682987 3.396237 3.848522
v 3.682077 4.248231 3.847612
v 7.156279 3.395856 3.848522
v 7.155854 4.248423 3.847612
v -0.629083 4.248395 3.847612
v -0.628587 3.395912 3.848522
v -0.639096 6.549254 3.847612
v 0.264005 4.248445 -0.683165
v 0.264376 3.395814 -0.683165
v -3.612791 6.556511 -0.717929
v 3.665965 4.248940 -0.717929
v -3.594405 4.248231 -0.717929
v 2.917076 4.248590 -0.717929
v 2.917076 6.540575 -0.717929
v -0.629083 4.248395 -0.717929
v -0.639096 6.549254 -0.717929
v -4.362013 6.547059 -0.760127
v -4.362013 6.546368 3.999686
v 3.681515 6.547059 -0.760127
v 3.681514 6.551660 3.999686
v 7.658584 6.547058 -3.294773
v 3.681514 6.546367 -3.294773
v 7.658584 6.547125 3.999686
v -4.362013 7.098122 3.999686
v -4.362013 7.098813 -0.760127
v 3.681514 7.103414 3.999686
v 3.681515 7.098813 -0.760127
v 3.681514 7.098121 -3.294773
v 7.658584 7.098812 -3.294773
v 7.658584 7.098879 3.999686
v -3.603361 6.556814 1.573566
v 3.675215 6.559136 1.573566
v -3.594405 3.395990 1.590844
v -3.594405 4.248356 1.590984
v 3.677937 3.396114 1.584687
v 3.678049 4.248470 1.584756
vt 0.999512 0.842285
vt 0.897949 0.830566
vt 0.993652 0.830566
vt 0.895020 0.842285
vt 0.897949 0.830566
vt 0.999512 0.842285
vt 0.993652 0.830566
vt 0.993652 0.830566
vt 0.894043 0.842285
vt 0.999512 0.842285
vt 0.897949 0.830566
vt 0.894043 0.842285
vt 0.754395 0.000488
vt 0.995605 0.241699
vt 0.754395 0.241699
vt 0.995605 0.000488
vt 0.206543 0.696777
vt 0.101074 0.690918
vt 0.230957 0.690918
vt 0.206543 0.690918
vt 0.007324 0.696777
vt 0.206543 0.696777
vt 0.012207 0.696777
vt 0.023926 0.138184
vt 0.061035 0.138184
vt 0.023926 0.138184
vt 0.229980 0.696777
vt 0.229980 0.690918
vt 0.023926 0.138184
vt 0.023926 0.138184
vt 0.061035 0.138184
vt 0.152832 0.559082
vt 0.158691 0.513184
vt 0.158691 0.562012
vt 0.075684 0.516113
vt 0.070801 0.513184
vt 0.023926 0.138184
vt 0.061035 0.138184
vt 0.023926 0.138184
vt 0.023926 0.138184
vt 0.023926 0.138184
vt 0.061035 0.138184
vt 0.075684 0.559082
vt 0.180176 0.703613
vt 0.180176 0.714844
vt 0.180176 0.703613
vt 0.089355 0.703613
vt 0.089355 0.714844
vt 0.089355 0.726074
vt 0.100292 0.077637
vt 0.100292 0.125488
vt 0.100292 0.077637
vt 0.230957 0.696777
vt 0.229980 0.690918
vt 0.229980 0.696777
vt 0.114746 0.705566
vt 0.151855 0.726269
vt 0.114752 0.726269
vt 0.007324 0.690918
vt 0.234863 0.019043
vt 0.186035 0.062988
vt 0.234863 0.062988
vt 0.109863 0.019043
vt 0.095215 0.062988
vt 0.095215 0.019043
vt 0.012207 0.690918
vt 0.187012 0.034668
vt 0.235840 0.020996
vt 0.235840 0.034668
vt 0.113770 0.705566
vt 0.150878 0.726269
vt 0.113776 0.726269
vt 0.114746 0.696777
vt 0.010254 0.690918
vt 0.010254 0.696777
vt 0.141113 0.726269
vt 0.104980 0.705566
vt 0.104980 0.726269
vt 0.011230 0.690918
vt 0.114746 0.690918
vt 0.151855 0.034668
vt 0.187012 0.020996
vt 0.150878 0.726269
vt 0.083496 0.019043
vt 0.101074 0.062988
vt 0.083496 0.062988
vt 0.189941 0.726269
vt 0.141113 0.705566
vt 0.133301 0.077637
vt 0.108887 0.125488
vt 0.133301 0.125488
vt 0.189941 0.705566
vt 0.189941 0.726269
vt 0.109863 0.019043
vt 0.095215 0.062988
vt 0.109863 0.062988
vt 0.150878 0.726269
vt 0.113770 0.705566
vt 0.113776 0.726269
vt 0.068848 0.573730
vt 0.072754 0.624512
vt 0.068848 0.624512
vt 0.072754 0.019043
vt 0.019043 0.062988
vt 0.019043 0.019043
vt 0.095215 0.062988
vt 0.095215 0.019043
vt 0.095215 0.019043
vt 0.114746 0.726269
vt 0.151855 0.705566
vt 0.114746 0.705566
vt 0.145020 0.022949
vt 0.109863 0.062988
vt 0.145020 0.062988
vt 0.151855 0.531738
vt 0.205566 0.524902
vt 0.205566 0.531738
vt 0.180176 0.077637
vt 0.180176 0.125488
vt 0.180176 0.125488
vt 0.079590 0.644043
vt 0.072754 0.686035
vt 0.079590 0.680176
vt 0.116699 0.686035
vt 0.114745 0.726269
vt 0.189941 0.705566
vt 0.114746 0.705566
vt 0.062012 0.125488
vt 0.180176 0.077637
vt 0.180176 0.125488
vt 0.089355 0.726074
vt 0.180176 0.703613
vt 0.180176 0.726074
vt 0.180176 0.125488
vt 0.121627 0.125493
vt 0.121627 0.125493
vt 0.180176 0.125488
vt 0.121627 0.125493
vt 0.121627 0.125493
vt 0.121626 0.077639
vt 0.180176 0.077637
vt 0.100292 0.125488
vt 0.152832 0.516113
vt 0.180176 0.125488
vt 0.113770 0.726269
vt 0.150879 0.705566
vt 0.113770 0.705566
vt 0.180176 0.077637
vt 0.100292 0.125488
vt 0.180176 0.125488
vt 0.108887 0.077637
vt 0.133301 0.125488
vt 0.133301 0.077637
vt 0.117676 0.644043
vt 0.117676 0.680176
vt 0.072754 0.638184
vt 0.116699 0.638184
vt 0.113770 0.726269
vt 0.150879 0.705566
vt 0.113770 0.705566
vt 0.113776 0.726269
vt 0.113770 0.726269
vt 0.150879 0.705566
vt 0.180176 0.703613
vt 0.089355 0.726074
vt 0.180176 0.726074
vt 0.189941 0.705566
vt 0.189942 0.726269
vt 0.937988 0.731934
vt 0.875488 0.682129
vt 0.875488 0.731934
vt 0.121626 0.077639
vt 0.180176 0.077637
vt 0.070801 0.562012
vt 0.180176 0.726074
vt 0.089355 0.703613
vt 0.030762 0.125488
vt 0.095215 0.079590
vt 0.095215 0.125488
vt 0.114745 0.726269
vt 0.189941 0.705566
vt 0.114746 0.705566
vt 0.017090 0.125488
vt 0.070801 0.079590
vt 0.070801 0.125488
vt 0.072754 0.662109
vt 0.173340 0.638184
vt 0.173340 0.662109
vt 0.145384 0.726269
vt 0.189941 0.705566
vt 0.189942 0.726269
vt 0.079590 0.079590
vt 0.055176 0.125488
vt 0.055176 0.079590
vt 0.114745 0.726269
vt 0.189941 0.705566
vt 0.189945 0.726269
vt 0.017090 0.125488
vt 0.070801 0.079590
vt 0.017090 0.079590
vt 0.155698 0.726269
vt 0.189941 0.705566
vt 0.155698 0.705566
vt 0.181152 0.077637
vt 0.222168 0.125488
vt 0.181152 0.125488
vt 0.163876 0.705566
vt 0.189942 0.726269
vt 0.163877 0.726269
vt 0.189945 0.726269
vt 0.114746 0.705566
vt 0.114745 0.726269
vt 0.062012 0.077637
vt 0.180176 0.125488
vt 0.062012 0.125488
vt 0.072754 0.686035
vt 0.173340 0.686035
vt 0.189941 0.705566
vt 0.189942 0.726269
vt 0.133301 0.077637
vt 0.108887 0.125488
vt 0.108887 0.077637
vt 0.114746 0.705566
vt 0.189945 0.726269
vt 0.114745 0.726269
vt 0.062012 0.125488
vt 0.180176 0.077637
vt 0.062012 0.077637
vt 0.189941 0.705566
vt 0.098257 0.125488
vt 0.180176 0.125488
vt 0.137811 0.726269
vt 0.189942 0.726269
vt 0.180176 0.125488
vt 0.117137 0.077637
vt 0.117137 0.125488
vt 0.149826 0.726269
vt 0.189941 0.705566
vt 0.149826 0.705566
vt 0.139216 0.077637
vt 0.139216 0.125488
vt 0.163876 0.705566
vt 0.189942 0.726269
vt 0.163877 0.726269
vt 0.114746 0.705566
vt 0.030762 0.125488
vt 0.095215 0.079590
vt 0.030762 0.079590
vt 0.145384 0.705566
vt 0.079590 0.079590
vt 0.055176 0.125488
vt 0.079590 0.125488
vt 0.072754 0.686035
vt 0.173340 0.638184
vt 0.072754 0.638184
vt 0.173340 0.686035
vt 0.072754 0.638184
vt 0.072754 0.686035
vt 0.072754 0.686035
vt 0.173340 0.638184
vt 0.173340 0.686035
vt 0.072754 0.638184
vt 0.173340 0.686035
vt 0.072754 0.686035
vt 0.298340 0.578613
vt 0.477051 0.588379
vt 0.477051 0.578613
vt 0.484863 0.453613
vt 0.410645 0.462402
vt 0.484863 0.462402
vt 0.264160 0.453613
vt 0.410645 0.462402
vt 0.410645 0.453613
vt 0.415527 0.578613
vt 0.298340 0.588379
vt 0.415527 0.588379
vt 0.410645 0.453613
vt 0.484863 0.462402
vt 0.410645 0.462402
vt 0.298340 0.578613
vt 0.477051 0.588379
vt 0.298340 0.588379
vt 0.264160 0.462402
vt 0.264160 0.453613
vt 0.137811 0.726269
vt 0.098257 0.077637
vt 0.098257 0.125488
vt 0.137811 0.726269
vt 0.187012 0.077637
vt 0.228027 0.125488
vt 0.187012 0.125488
vt 0.072754 0.686035
vt 0.173340 0.686035
vt 0.148926 0.077637
vt 0.189941 0.125488
vt 0.148926 0.125488
vt 0.187012 0.077637
vt 0.228027 0.125488
vt 0.187012 0.125488
vt 0.186035 0.019043
vt 0.109863 0.062988
vt 0.011230 0.696777
vt 0.151855 0.020996
vt 0.101074 0.019043
vt 0.189941 0.705566
vt 0.108887 0.077637
vt 0.072754 0.573730
vt 0.072754 0.062988
vt 0.109863 0.022949
vt 0.151855 0.524902
vt 0.180176 0.077637
vt 0.189945 0.726269
vt 0.062012 0.077637
vt 0.089355 0.703613
vt 0.180176 0.125488
vt 0.180176 0.077637
vt 0.100292 0.077637
vt 0.108887 0.125488
vt 0.113770 0.705566
vt 0.113770 0.705566
vt 0.089355 0.703613
vt 0.937988 0.682129
vt 0.030762 0.079590
vt 0.189945 0.726269
vt 0.017090 0.079590
vt 0.072754 0.638184
vt 0.079590 0.125488
vt 0.070801 0.125488
vt 0.222168 0.077637
vt 0.189941 0.705566
vt 0.180176 0.077637
vt 0.072754 0.638184
vt 0.133301 0.125488
vt 0.189941 0.705566
vt 0.098257 0.077637
vt 0.137811 0.705566
vt 0.180176 0.077637
vt 0.095215 0.125488
vt 0.055176 0.079590
vt 0.173340 0.686035
vt 0.072754 0.638184
vt 0.298340 0.590332
vt 0.410645 0.453613
vt 0.264160 0.462402
vt 0.298340 0.578613
vt 0.484863 0.453613
vt 0.477051 0.578613
vt 0.137811 0.705566
vt 0.137811 0.705566
vt 0.228027 0.077637
vt 0.189941 0.077637
vt 0.228027 0.077637
vn -0.0000 1.0000 0.0003
vn -0.0003 1.0000 0.0000
vn 0.0000 1.0000 -0.0003
vn 0.0003 1.0000 -0.0000
vn 0.0000 1.0000 0.0004
vn 0.0000 1.0000 0.0000
vn -0.0000 0.0000 1.0000
vn 0.0000 0.0000 -1.0000
vn -1.0000 0.0000 0.0000
vn 0.3818 0.9243 0.0000
vn 0.0001 1.0000 0.0001
vn 1.0000 0.0000 0.0000
vn 0.9996 -0.0298 -0.0019
vn 1.0000 -0.0009 -0.0022
vn 1.0000 0.0001 -0.0023
vn -1.0000 -0.0008 -0.0001
vn -1.0000 -0.0001 -0.0002
vn -1.0000 -0.0011 -0.0000
vn -0.0003 -0.0011 1.0000
vn 0.0003 -0.0013 1.0000
vn -0.0006 -0.0008 1.0000
vn -0.9995 0.0007 -0.0328
vn -0.9999 0.0086 -0.0081
vn -0.9992 -0.0019 -0.0408
vn -1.0000 0.0005 -0.0000
vn -1.0000 -0.0026 -0.0029
vn -0.9959 -0.0900 -0.0134
vn -0.9953 -0.0955 -0.0139
vn 0.0001 -0.0000 1.0000
vn -0.0001 -0.0001 1.0000
vn -1.0000 0.0056 -0.0007
vn -1.0000 0.0000 -0.0026
vn 0.0000 1.0000 0.0001
vn -0.0001 0.0001 1.0000
vn 1.0000 -0.0001 -0.0000
vn 1.0000 -0.0004 0.0000
vn 1.0000 -0.0005 0.0001
vn 0.0000 -0.0008 1.0000
vn 0.0000 0.0008 -1.0000
vn -1.0000 0.0000 -0.0002
vn 1.0000 0.0018 -0.0002
vn 1.0000 0.0020 -0.0002
vn 0.0002 -0.0012 1.0000
vn 0.0005 -0.0011 1.0000
vn -1.0000 0.0000 -0.0053
vn 0.0000 0.0001 1.0000
vn 1.0000 -0.0014 -0.0055
vn 0.9997 -0.0011 -0.0251
vn 1.0000 -0.0048 -0.0076
vn 1.0000 0.0000 0.0022
vn 1.0000 -0.0005 0.0000
vn 1.0000 0.0000 -0.0001
vn 0.0000 -0.0001 -1.0000
vn -0.0000 0.8946 0.4469
vn 0.0000 0.9562 0.2928
vn -0.0000 0.8083 0.5887
vn -0.0004 1.0000 0.0000
vn -0.0004 1.0000 -0.0007
vn -0.0002 1.0000 -0.0008
vn -0.0000 0.0005 1.0000
vn -0.0000 0.0011 1.0000
vn -1.0000 -0.0025 -0.0005
vn -1.0000 -0.0059 -0.0021
vn -1.0000 -0.0029 -0.0031
vn -1.0000 -0.0002 0.0000
vn -1.0000 -0.0044 0.0002
vn 1.0000 -0.0023 -0.0022
vn 1.0000 -0.0033 0.0004
vn 0.9999 0.0000 -0.0136
vn 0.0002 1.0000 -0.0005
vn 0.0008 1.0000 -0.0002
vn 0.0011 1.0000 -0.0000
vn 1.0000 -0.0021 0.0000
vn -1.0000 -0.0025 -0.0080
vn -0.9994 -0.0133 -0.0331
vn -1.0000 -0.0092 0.0033
vn 0.0021 -0.0029 -1.0000
vn 0.0017 -0.0030 -1.0000
vn 0.0054 -0.0078 -1.0000
vn -0.0001 0.0000 -1.0000
vn -0.0000 -0.0009 -1.0000
vn -1.0000 -0.0005 0.0018
vn -1.0000 -0.0012 0.0018
vn -1.0000 0.0000 0.0018
vn -1.0000 -0.0010 0.0020
vn 0.0004 -1.0000 0.0002
vn 0.0002 -1.0000 0.0006
vn 0.0007 -1.0000 -0.0001
vn -0.0007 -1.0000 0.0005
vn -0.0002 -1.0000 0.0002
vn 0.0002 -1.0000 0.0000
vn -0.0004 1.0000 -0.0002
vn -0.0002 1.0000 -0.0006
vn 0.0000 1.0000 -0.0010
vn 0.0002 1.0000 -0.0002
vn 0.0007 1.0000 -0.0005
vn -0.0002 1.0000 -0.0000
vn -1.0000 -0.0013 0.0018
vn -1.0000 -0.0011 -0.0011
vn -1.0000 0.0002 -0.0042
vn -0.0003 1.0000 -0.0001
vn 0.0000 1.0000 -0.0009
vn -1.0000 -0.0044 -0.0005
vn -1.0000 -0.0049 -0.0010
vn -1.0000 -0.0029 -0.0020
vn -1.0000 -0.0020 -0.0019
vn -1.0000 0.0000 -0.0040
vn 0.9995 -0.0316 -0.0017
vn -0.9999 0.0112 0.0000
vn -1.0000 0.0060 -0.0007
vn -0.0006 1.0000 0.0001
vn -1.0000 -0.0011 0.0004
vn 1.0000 -0.0083 0.0000
vn -0.0002 1.0000 -0.0007
vn -0.9962 -0.0261 -0.0833
vn -0.9997 -0.0235 0.0085
vn -0.0003 -0.0000 -1.0000
vn -1.0000 -0.0011 0.0022
vn 0.0000 -1.0000 0.0010
vn -0.0011 -1.0000 0.0007
vn -0.0007 1.0000 0.0001
vn 0.0011 1.0000 -0.0007
vn -1.0000 0.0003 0.0018
vn -1.0000 -0.0005 -0.0002
vn -1.0000 -0.0059 -0.0000
s off
f 48/1/1 43/2/1 44/3/1
f 44/3/2 41/4/2 48/1/2
f 46/5/3 41/6/3 45/7/3
f 46/8/4 47/9/4 42/10/4
f 48/1/5 47/9/5 43/2/5
f 44/3/2 45/11/2 41/4/2
f 46/5/3 42/12/3 41/6/3
f 46/8/4 43/2/4 47/9/4
f 57/13/6 60/14/6 59/15/6
f 57/13/6 58/16/6 60/14/6
s 1
f 20/17/7 30/18/7 21/19/7
f 32/20/8 11/21/8 19/22/8
f 14/23/7 30/18/7 20/17/7
f 50/24/9 13/25/9 40/26/9
f 32/20/8 19/27/8 24/28/8
f 9/29/9 39/30/9 7/31/9
f 108/32/7 73/33/7 74/34/7
f 73/33/7 105/35/7 71/36/7
f 96/37/10 94/38/11 97/39/6
f 103/40/9 104/41/9 101/42/9
f 74/34/7 106/43/7 108/32/7
f 115/44/12 120/45/12 118/46/12
f 113/47/9 119/48/9 114/49/9
f 77/50/7 82/51/7 81/52/7
f 20/53/13 22/54/14 18/55/15
f 3/56/16 13/57/17 12/58/18
f 32/20/8 17/59/8 11/21/8
f 50/60/19 34/61/20 49/62/21
f 26/63/22 28/64/23 31/65/24
f 14/23/7 15/66/7 30/18/7
f 36/67/6 50/68/6 40/69/6
f 92/70/25 94/71/9 95/72/25
f 10/73/26 15/74/27 14/75/28
f 36/76/29 27/77/30 26/78/30
f 10/73/26 17/79/31 16/80/32
f 26/81/6 33/82/6 36/67/6
f 101/83/33 95/72/33 94/71/11
f 39/84/12 23/85/12 38/86/12
f 40/87/29 35/88/29 36/76/29
f 8/89/8 32/90/8 24/91/8
f 26/78/30 2/92/34 39/93/34
f 56/94/12 53/95/12 55/96/12
f 7/97/35 4/98/36 8/99/37
f 52/100/38 55/101/38 51/102/38
f 39/103/7 37/104/7 26/105/30
f 49/106/39 54/107/39 50/108/39
f 40/109/9 5/110/40 1/111/9
f 18/55/15 24/28/41 19/27/42
f 33/112/43 28/113/44 34/114/20
f 67/115/12 73/116/12 70/117/12
f 75/118/8 80/119/8 76/120/8
f 87/121/45 83/122/45 88/123/45
f 85/124/8 88/123/8 83/122/8
f 29/125/8 4/126/8 25/127/8
f 32/128/8 12/129/8 17/130/8
f 97/131/46 98/132/46 104/133/46
f 94/38/11 103/40/6 101/42/33
f 68/134/6 74/135/6 67/136/6
f 63/137/6 66/138/6 64/139/6
f 68/134/8 70/140/8 69/141/8
f 78/142/12 75/118/12 76/120/12
f 73/33/7 107/143/7 105/35/7
f 69/141/9 72/144/9 68/134/9
f 97/145/9 93/146/9 91/147/9
f 109/148/9 112/149/9 110/150/9
f 148/151/47 146/152/48 162/153/49
f 76/120/33 82/51/33 78/142/33
f 85/124/50 89/154/50 90/155/50
f 84/156/7 89/154/7 86/157/7
f 104/158/12 100/159/12 101/83/12
f 101/83/12 99/160/51 102/161/51
f 39/162/12 6/163/52 7/97/35
f 99/164/8 95/165/8 102/166/8
f 29/125/8 3/167/8 12/168/8
f 106/169/7 107/170/7 108/171/7
f 96/37/10 104/41/6 103/40/6
f 63/137/8 61/172/8 62/173/8
f 105/35/7 72/174/7 71/36/7
f 74/34/7 72/174/7 106/43/7
f 114/49/53 115/44/53 113/47/53
f 115/44/12 116/175/12 120/45/12
f 120/45/54 117/176/55 118/46/55
f 113/47/9 117/176/9 119/48/9
f 116/175/56 119/48/54 120/45/54
f 172/177/8 173/178/8 174/179/8
f 132/180/8 124/181/8 131/182/8
f 174/183/8 170/184/8 168/185/8
f 189/186/57 130/187/58 190/188/59
f 166/189/8 123/190/8 127/191/8
f 136/192/60 140/193/7 139/194/60
f 139/195/60 135/196/61 136/197/60
f 165/198/7 137/199/60 163/200/60
f 163/201/60 134/202/61 164/203/61
f 192/204/62 128/205/63 189/206/64
f 191/207/65 137/208/66 192/209/62
f 162/210/49 147/211/67 148/212/47
f 148/213/47 143/214/68 149/215/69
f 143/216/70 130/187/71 146/217/72
f 148/212/47 141/218/12 144/219/73
f 152/220/74 156/221/75 155/222/9
f 154/223/9 152/224/74 155/225/9
f 156/226/75 153/227/76 155/228/9
f 155/225/9 150/229/9 154/223/9
f 143/230/77 153/227/78 145/231/79
f 158/232/80 150/229/81 153/233/78
f 130/234/7 162/235/60 146/236/7
f 162/237/60 159/238/61 161/239/61
f 194/240/82 130/234/83 190/241/83
f 193/242/84 160/243/85 194/244/82
f 139/195/60 164/203/61 138/245/61
f 140/246/7 163/247/60 139/248/60
f 132/180/8 167/249/8 166/189/8
f 169/250/8 172/251/8 133/252/8
f 175/253/86 178/254/87 176/255/88
f 181/256/89 180/257/90 179/258/91
f 183/259/92 184/260/93 185/261/94
f 186/262/95 188/263/96 187/264/97
f 178/265/9 186/266/9 180/267/9
f 179/268/8 186/269/8 187/270/8
f 175/271/8 185/272/8 177/273/8
f 175/274/9 182/275/9 183/276/9
f 178/277/7 188/278/7 184/279/7
f 181/280/12 187/281/12 188/282/12
f 178/277/7 182/283/7 176/284/7
f 125/285/82 193/242/84 194/244/82
f 125/286/82 190/241/83 129/287/98
f 127/288/99 191/207/65 192/209/62
f 127/289/99 189/290/64 126/291/100
f 126/292/101 190/188/59 129/293/102
f 121/294/103 15/295/104 122/296/105
f 12/297/106 122/298/105 17/299/107
f 108/32/7 107/143/7 73/33/7
f 77/50/7 78/142/7 82/51/7
f 20/53/13 21/19/108 22/54/14
f 3/56/16 5/110/40 13/57/17
f 50/60/19 33/300/43 34/61/20
f 26/63/22 37/301/109 28/64/23
f 36/67/6 33/82/6 50/68/6
f 92/70/25 93/146/9 94/71/9
f 10/73/26 16/80/32 15/74/27
f 36/76/29 35/88/29 27/77/30
f 10/73/26 11/302/110 17/79/31
f 26/81/6 31/303/6 33/82/6
f 101/83/33 102/161/33 95/72/33
f 39/84/12 9/304/12 23/85/12
f 40/87/29 1/305/29 35/88/29
f 8/89/8 29/306/8 32/90/8
f 26/78/30 27/77/30 2/92/34
f 56/94/12 54/107/12 53/95/12
f 7/97/35 6/163/52 4/98/36
f 52/100/38 56/307/38 55/101/38
f 39/103/7 38/308/46 37/104/7
f 49/106/39 53/95/39 54/107/39
f 40/109/9 13/57/17 5/110/40
f 18/55/15 22/54/14 24/28/41
f 33/112/43 31/309/38 28/113/44
f 67/115/12 74/310/12 73/116/12
f 75/118/8 79/311/8 80/119/8
f 87/121/45 84/156/45 83/122/45
f 85/124/8 90/155/8 88/123/8
f 29/125/8 8/312/8 4/126/8
f 32/128/8 29/313/8 12/129/8
f 97/131/46 91/314/46 98/132/46
f 94/38/11 96/37/10 103/40/6
f 68/134/6 72/144/6 74/135/6
f 63/137/6 65/315/6 66/138/6
f 68/134/8 67/136/8 70/140/8
f 78/142/12 77/50/12 75/118/12
f 69/141/9 71/316/9 72/144/9
f 97/145/9 94/71/9 93/146/9
f 109/148/9 111/317/9 112/149/9
f 148/151/47 149/318/69 146/152/48
f 76/120/33 80/119/33 82/51/33
f 85/124/50 86/157/50 89/154/50
f 84/156/7 87/121/7 89/154/7
f 104/158/12 98/319/12 100/159/12
f 101/83/12 100/159/12 99/160/51
f 39/162/12 2/320/12 6/163/52
f 99/164/8 92/321/8 95/165/8
f 29/125/8 25/127/8 3/167/8
f 106/169/7 105/322/7 107/170/7
f 96/37/10 97/39/6 104/41/6
f 63/137/8 64/139/8 61/172/8
f 105/35/7 106/43/7 72/174/7
f 114/49/53 116/175/53 115/44/53
f 120/45/54 119/48/54 117/176/55
f 116/175/56 114/49/56 119/48/54
f 172/177/8 171/323/8 173/178/8
f 132/180/8 125/324/8 124/181/8
f 174/183/8 173/325/8 170/184/8
f 189/186/57 128/326/111 130/187/58
f 166/189/8 167/249/8 123/190/8
f 136/192/60 130/327/7 140/193/7
f 139/195/60 138/245/61 135/196/61
f 165/198/7 128/328/7 137/199/60
f 163/201/60 137/208/60 134/202/61
f 192/204/62 137/329/66 128/205/63
f 191/207/65 134/202/112 137/208/66
f 162/210/49 142/330/113 147/211/67
f 148/213/47 144/331/73 143/214/68
f 143/216/70 145/332/114 130/187/71
f 148/212/47 147/211/67 141/218/12
f 152/220/74 130/333/115 156/221/75
f 154/223/9 151/334/9 152/224/74
f 156/226/75 145/231/116 153/227/76
f 155/225/9 153/233/76 150/229/9
f 143/230/77 158/335/80 153/227/78
f 158/232/80 157/336/117 150/229/81
f 130/234/7 160/337/60 162/235/60
f 162/237/60 160/243/60 159/238/61
f 194/240/82 160/337/85 130/234/83
f 193/242/84 159/238/118 160/243/85
f 139/195/60 163/201/60 164/203/61
f 140/246/7 165/338/7 163/247/60
f 132/180/8 131/182/8 167/249/8
f 169/250/8 171/339/8 172/251/8
f 175/253/86 177/340/119 178/254/87
f 181/256/89 178/254/120 180/257/90
f 183/259/92 182/341/121 184/260/93
f 186/262/95 184/260/122 188/263/96
f 178/265/9 184/342/9 186/266/9
f 179/268/8 180/343/8 186/269/8
f 175/271/8 183/344/8 185/272/8
f 175/274/9 176/345/9 182/275/9
f 178/277/7 181/346/7 188/278/7
f 181/280/12 179/347/12 187/281/12
f 178/277/7 184/279/7 182/283/7
f 125/285/82 124/348/123 193/242/84
f 125/286/82 194/240/82 190/241/83
f 127/288/99 123/349/124 191/207/65
f 127/289/99 192/350/62 189/290/64
f 126/292/101 189/186/57 190/188/59
f 121/294/103 52/351/125 15/295/104
f 12/297/106 121/352/103 122/298/105
