# Blender v2.91.0 Beta OBJ File: 'HOUSE.blend'
# www.blender.org
o Plane_Plane.004_Plane_Plane.001
v -10.000000 0.000002 -10.000000
v -10.000000 0.000000 0.000000
v 0.000000 0.000000 0.000000
v -10.000000 -0.000002 10.000000
v 0.000000 -0.000002 10.000000
v 10.000000 -0.000002 10.000000
v 10.000000 0.000000 0.000000
v 10.000000 0.000002 -10.000000
v 0.000000 0.000002 -10.000000
v 9.328954 0.696562 9.949275
v 9.328953 5.725558 -9.851856
v 9.328954 5.725573 9.949274
v 6.541207 0.696562 9.949275
v 6.541205 5.725558 -9.851856
v 6.541207 5.725573 9.949274
v 3.753460 0.696562 9.949275
v 3.753459 5.725558 -9.851856
v 3.753460 5.725573 9.949274
v 1.473981 0.696562 9.949275
v 1.473979 5.725558 -9.851856
v 1.473981 5.725573 9.949274
v -9.328954 0.696562 9.949275
v -9.328953 5.725558 -9.851856
v -9.328953 0.696557 -9.851857
v -6.541207 0.696562 9.949275
v -6.541205 5.725558 -9.851856
v -6.541205 0.696557 -9.851857
v -3.753460 0.696562 9.949275
v -3.753459 5.725558 -9.851856
v -3.753459 0.696557 -9.851857
v -1.473981 0.696562 9.949275
v -1.473979 5.725558 -9.851856
v -1.473979 0.696557 -9.851857
v 9.240217 0.696562 9.949275
v 9.240216 5.725558 -9.851856
v 9.240216 0.696557 -9.851857
v 6.452470 0.696562 9.949275
v 6.452468 5.725558 -9.851856
v 6.452468 0.696557 -9.851857
v 3.664723 0.696562 9.949275
v 3.664722 5.725558 -9.851856
v 3.664722 0.696557 -9.851857
v 1.385244 0.696562 9.949275
v 1.385243 5.725558 -9.851856
v 1.385243 0.696557 -9.851857
v -9.240217 0.696562 9.949275
v -9.240216 5.725558 -9.851856
v -9.240217 5.725573 9.949274
v -6.452470 0.696562 9.949275
v -6.452468 5.725558 -9.851856
v -6.452470 5.725573 9.949274
v -3.664723 0.696562 9.949275
v -3.664722 5.725558 -9.851856
v -3.664723 5.725573 9.949274
v -1.385244 0.696562 9.949275
v -1.385243 5.725558 -9.851856
v -1.385244 5.725573 9.949274
v 9.328953 0.696557 -9.851857
v 6.541205 0.696557 -9.851857
v 3.753459 0.696557 -9.851857
v 1.473979 0.696557 -9.851857
v -9.328954 5.725573 9.949274
v -6.541207 5.725573 9.949274
v -3.753460 5.725573 9.949274
v -1.473981 5.725573 9.949274
v 9.240217 5.725573 9.949274
v 6.452470 5.725573 9.949274
v 3.664723 5.725573 9.949274
v 1.385244 5.725573 9.949274
v -9.240216 0.696557 -9.851857
v -6.452468 0.696557 -9.851857
v -3.664722 0.696557 -9.851857
v -1.385243 0.696557 -9.851857
vt 0.492676 0.756348
vt 0.492676 0.522949
vt 0.256348 0.522949
vt 0.492676 0.756348
vt 0.256348 0.756348
vt 0.492676 0.756348
vt 0.492676 0.522949
vt 0.492676 0.756348
vt 0.256348 0.756348
vt 0.946777 0.845215
vt 0.697754 0.908691
vt 0.946777 0.908691
vt 0.946777 0.845215
vt 0.697754 0.908691
vt 0.946777 0.908691
vt 0.946777 0.845215
vt 0.697754 0.908691
vt 0.946777 0.908691
vt 0.946777 0.845215
vt 0.697754 0.908691
vt 0.946777 0.908691
vt 0.946777 0.845215
vt 0.697754 0.908691
vt 0.697754 0.845215
vt 0.946777 0.845215
vt 0.697754 0.908691
vt 0.697754 0.845215
vt 0.946777 0.845215
vt 0.697754 0.908691
vt 0.697754 0.845215
vt 0.946777 0.845215
vt 0.697754 0.908691
vt 0.697754 0.845215
vt 0.946777 0.845215
vt 0.697754 0.908691
vt 0.697754 0.845215
vt 0.946777 0.845215
vt 0.697754 0.908691
vt 0.697754 0.845215
vt 0.946777 0.845215
vt 0.697754 0.908691
vt 0.697754 0.845215
vt 0.946777 0.845215
vt 0.697754 0.908691
vt 0.697754 0.845215
vt 0.946777 0.845215
vt 0.697754 0.908691
vt 0.946777 0.908691
vt 0.946777 0.845215
vt 0.697754 0.908691
vt 0.946777 0.908691
vt 0.946777 0.845215
vt 0.697754 0.908691
vt 0.946777 0.908691
vt 0.946777 0.845215
vt 0.697754 0.908691
vt 0.946777 0.908691
vt 0.697754 0.845215
vt 0.697754 0.845215
vt 0.697754 0.845215
vt 0.697754 0.845215
vt 0.946777 0.908691
vt 0.946777 0.908691
vt 0.946777 0.908691
vt 0.946777 0.908691
vt 0.946777 0.908691
vt 0.946777 0.908691
vt 0.946777 0.908691
vt 0.946777 0.908691
vt 0.697754 0.845215
vt 0.697754 0.845215
vt 0.697754 0.845215
vt 0.697754 0.845215
vn 0.0000 1.0000 0.0000
vn 1.0000 -0.0000 -0.0000
vn -1.0000 -0.0000 -0.0000
s 1
f 1/1/1 2/2/1 3/3/1
f 3/3/1 4/4/1 5/5/1
f 3/3/1 6/6/1 7/7/1
f 8/8/1 3/3/1 7/7/1
f 3/3/1 2/2/1 4/4/1
f 1/1/1 3/3/1 9/9/1
f 3/3/1 5/5/1 6/6/1
f 8/8/1 9/9/1 3/3/1
f 10/10/2 11/11/2 12/12/2
f 13/13/2 14/14/2 15/15/2
f 16/16/2 17/17/2 18/18/2
f 19/19/2 20/20/2 21/21/2
f 22/22/3 23/23/3 24/24/3
f 25/25/3 26/26/3 27/27/3
f 28/28/3 29/29/3 30/30/3
f 31/31/3 32/32/3 33/33/3
f 34/34/3 35/35/3 36/36/3
f 37/37/3 38/38/3 39/39/3
f 40/40/3 41/41/3 42/42/3
f 43/43/3 44/44/3 45/45/3
f 46/46/2 47/47/2 48/48/2
f 49/49/2 50/50/2 51/51/2
f 52/52/2 53/53/2 54/54/2
f 55/55/2 56/56/2 57/57/2
f 10/10/2 58/58/2 11/11/2
f 13/13/2 59/59/2 14/14/2
f 16/16/2 60/60/2 17/17/2
f 19/19/2 61/61/2 20/20/2
f 22/22/3 62/62/3 23/23/3
f 25/25/3 63/63/3 26/26/3
f 28/28/3 64/64/3 29/29/3
f 31/31/3 65/65/3 32/32/3
f 34/34/3 66/66/3 35/35/3
f 37/37/3 67/67/3 38/38/3
f 40/40/3 68/68/3 41/41/3
f 43/43/3 69/69/3 44/44/3
f 46/46/2 70/70/2 47/47/2
f 49/49/2 71/71/2 50/50/2
f 52/52/2 72/72/2 53/53/2
f 55/55/2 73/73/2 56/56/2
