# Blender v2.91.0 Beta OBJ File: 'HOUSE.blend'
# www.blender.org
o tree.003
v -18.899565 9.908104 -3.821421
v -18.934729 11.062799 -0.149162
v -18.439037 11.405736 -0.477624
v -2.421074 0.012016 0.000000
v -2.421074 0.992453 -7.616971
v -2.421074 0.992447 0.000000
v -10.295239 0.992453 -7.616713
v -2.421074 3.673307 -7.616971
v -1.489484 9.609200 -3.770396
v -1.496763 6.831999 -7.689949
v -2.029331 9.964933 -3.840900
v -10.318526 9.608538 -3.858928
v -19.438496 9.551317 -3.752201
v -10.327945 9.965678 -3.924307
v -2.561900 11.504177 -0.477857
v -18.960121 10.972205 0.000002
v -18.709621 11.218536 0.000002
v -10.327945 9.965676 3.924311
v -18.439037 11.405736 0.477628
v -18.899565 9.908102 3.821425
v -10.296268 0.012020 7.616971
v -18.169405 0.992451 7.616455
v -18.171461 0.012020 7.616971
v -10.327945 6.832020 7.865810
v -19.360092 6.816778 7.648613
v -19.438496 9.551315 3.752204
v -19.942263 6.446141 7.851453
v -10.317622 11.072826 0.000002
v -2.068027 11.160717 0.149166
v -10.317585 11.160730 0.149166
v -10.295024 3.676102 -7.616656
v -2.421074 6.644548 -7.616966
v -10.327945 11.505642 0.000002
v -18.439037 11.405736 0.000002
v -18.559956 11.375210 0.149166
v -18.505043 11.389072 0.000002
v -18.170481 6.636230 0.000001
v -18.168974 3.678896 -7.616343
v -18.169258 3.670783 0.000001
v -2.703473 8.870378 0.000001
v -2.814737 9.750862 -3.325346
v -2.814737 9.749016 0.000002
v -2.814737 11.382172 -0.162138
v -2.814737 11.298374 0.000002
v -18.559956 11.375210 -0.149162
v -2.814737 11.382172 0.162142
v -2.814737 9.750860 3.325350
v -2.421074 6.644546 7.616968
v -2.421074 6.475227 0.000001
v -18.352070 8.866716 0.000001
v -18.169563 6.666967 -7.616488
v -18.423983 11.366203 -0.162138
v -18.423983 9.735351 0.000002
v -18.423983 11.282513 0.000002
v -18.934729 11.062799 0.149166
v -10.318526 9.608536 3.858932
v -2.068027 11.160717 -0.149162
v -2.043054 11.070686 0.000002
v -2.421074 0.992451 7.616971
v -10.319468 6.462655 -8.079309
v -19.360092 6.816781 -7.648611
v -10.327945 6.832023 -7.865808
v -10.295239 0.992451 7.616713
v -2.421074 3.673305 7.616971
v -10.295024 3.676100 7.616657
v -1.489484 9.609199 3.770400
v -18.171461 0.012016 0.000000
v -18.169405 0.992453 -7.616455
v -18.171461 0.012022 -7.616971
v -10.319468 6.462652 8.079310
v -2.441009 11.472961 -0.149162
v -2.561900 11.504177 0.000002
v -2.495870 11.487128 0.000002
v -10.296268 0.012022 -7.616971
v -18.423983 9.737436 3.325350
v -18.423983 9.737438 -3.325346
v -0.910940 6.463993 -7.890299
v -19.942263 6.446144 -7.851451
v -18.169481 0.992447 0.000000
v -2.441009 11.472961 0.149166
v -0.910940 6.463990 7.890301
v -1.496763 6.831996 7.689951
v -10.295319 6.655755 7.616729
v -2.561900 11.504177 0.477861
v -10.327945 11.505642 0.479930
v -10.327945 11.505642 -0.479926
v -18.168974 3.678894 7.616343
v -2.421074 3.652717 1.929956
v -2.421074 0.012022 -7.616971
v -10.295319 6.655757 -7.616727
v -2.421074 0.992448 1.896337
v -2.292150 11.316582 0.000002
v -2.421074 3.653075 -2.011717
v -2.421074 0.992449 -2.032084
v -2.421074 3.644256 0.000001
v -17.053001 3.652717 1.929956
v -2.421074 0.012020 7.616971
v -18.169563 6.666965 7.616490
v -18.423983 11.366203 0.162142
v -2.029331 9.964931 3.840904
v -2.259077 3.653075 -2.024473
v -2.421074 3.644257 -4.036191
v -2.421074 3.653075 -2.024473
v -2.259077 3.644257 -4.036191
v -2.421074 3.652718 -5.966146
v -2.259077 0.992447 5.932528
v -2.259077 3.644255 4.036191
v -2.259077 3.652716 5.966146
v -2.259077 3.653075 2.024474
v -2.259077 0.992446 4.036191
v -2.259077 0.992449 2.004107
v -2.259077 0.992448 -4.036191
v -2.421074 0.992449 -2.004107
v -2.421074 0.992448 -4.036191
v -2.421074 3.652716 5.966146
v -2.421074 3.644255 4.036191
v -2.259077 0.992449 -2.004107
v -2.421074 0.992446 4.036191
v -2.421074 0.992447 5.932528
v -2.259077 0.992449 -5.932528
v -2.421074 0.992449 2.004107
v -2.259077 3.652718 -5.966146
v -2.421074 0.992449 -5.932528
v -2.421074 3.653075 2.024474
v -17.053001 0.992448 1.896337
v -17.053001 3.644256 0.000001
v -17.053001 3.653075 -2.011717
v -17.053001 0.992447 0.000000
v -17.053001 0.992449 -2.032084
v -2.085155 4.249859 1.901230
v -2.357155 4.521860 0.000001
v -2.358897 4.523602 1.906122
v -2.358897 4.523602 -1.906120
v -2.259014 4.076004 -1.901228
v -2.532755 4.349744 -1.906120
v -1.985272 3.802261 1.896338
v -2.259014 4.076003 1.901230
v -2.532755 4.349743 1.906122
v -2.531013 4.348002 0.000001
v -2.085155 4.249860 -1.901228
v -2.084285 4.248989 0.000001
v -1.811415 3.976119 -1.896336
v -1.811414 3.976118 0.000001
v -1.985271 3.802260 0.000001
v -1.811415 3.976119 1.896338
v -1.985272 3.802261 -1.896336
v -17.053001 3.654618 1.896338
v -2.421074 3.654617 0.000001
v -2.421074 3.654618 1.896338
v -17.053001 3.654617 0.000001
v -2.421074 3.654618 -2.032084
v -10.317585 11.160730 -0.149162
v -17.053001 3.654618 -2.032084
vt 0.099609 0.585449
vt 0.150879 0.577637
vt 0.147949 0.585449
vt 0.127062 0.000488
vt 0.246582 0.021973
vt 0.127062 0.021973
vt 0.184082 0.147949
vt 0.061035 0.204590
vt 0.061035 0.147949
vt 0.099121 0.577637
vt 0.051270 0.585449
vt 0.099609 0.585449
vt 0.127441 0.868653
vt 0.221191 0.923340
vt 0.227539 0.870118
vt 0.127441 0.867188
vt 0.034668 0.920410
vt 0.027832 0.868652
vt 0.153202 0.577637
vt 0.153097 0.581185
vt 0.127441 0.867188
vt 0.221191 0.920410
vt 0.227539 0.868652
vt 0.123047 0.000488
vt 0.246582 0.021973
vt 0.246582 0.000488
vt 0.127441 0.813965
vt 0.233887 0.816895
vt 0.051270 0.585449
vt 0.098633 0.577637
vt 0.046387 0.577637
vt 0.121582 0.903835
vt 0.228027 0.906738
vt 0.121582 0.906738
vt 0.184082 0.144043
vt 0.061035 0.212402
vt 0.061035 0.144043
vt 0.127441 0.708745
vt 0.221191 0.701660
vt 0.221191 0.708760
vt 0.151855 0.585449
vt 0.153629 0.585449
vt 0.070897 0.208496
vt 0.189941 0.144043
vt 0.070898 0.144043
vt 0.133093 0.129159
vt 0.187988 0.145996
vt 0.135631 0.145996
vt 0.132801 0.145996
vt 0.135254 0.176270
vt 0.132801 0.174718
vt 0.151855 0.585449
vt 0.135254 0.176270
vt 0.183105 0.145996
vt 0.246582 0.086426
vt 0.131785 0.085009
vt 0.128892 0.129158
vt 0.246582 0.086426
vt 0.131789 0.085009
vt 0.135254 0.176270
vt 0.133778 0.145996
vt 0.132851 0.174718
vt 0.221191 0.923340
vt 0.127441 0.868653
vt 0.227539 0.870118
vt 0.228027 0.906738
vt 0.228357 0.903824
vt 0.246582 0.021973
vt 0.082520 0.639160
vt 0.018066 0.646973
vt 0.082520 0.647949
vt 0.145996 0.647949
vt 0.184082 0.147949
vt 0.061035 0.204590
vt 0.184082 0.204590
vt 0.221191 0.920410
vt 0.227539 0.868652
vt 0.034668 0.923340
vt 0.027832 0.870118
vt 0.127441 0.813965
vt 0.020996 0.816895
vt 0.127062 0.000488
vt 0.246582 0.021973
vt 0.246582 0.000488
vt 0.127441 0.813965
vt 0.233887 0.816895
vt 0.088379 0.754395
vt 0.087669 0.756081
vt 0.087936 0.755281
vt 0.123047 0.000488
vt 0.123047 0.021973
vt 0.182129 0.145996
vt 0.129772 0.145996
vt 0.246582 0.086426
vt 0.034668 0.923340
vt 0.027832 0.870118
vt 0.147949 0.585449
vt 0.151855 0.585449
vt 0.150879 0.577637
vt 0.182129 0.145996
vt 0.127441 0.813965
vt 0.020996 0.816895
vt 0.014160 0.639160
vt 0.149902 0.639160
vt 0.127066 0.021973
vt 0.088379 0.754395
vt 0.020996 0.816895
vt 0.233887 0.816895
vt 0.145996 0.647949
vt 0.082520 0.639160
vt 0.149902 0.639160
vt 0.184082 0.144043
vt 0.061035 0.212402
vt 0.184082 0.212402
vt 0.233887 0.816895
vt 0.070898 0.204590
vt 0.189941 0.147949
vt 0.070897 0.147949
vt 0.147949 0.585449
vt 0.150879 0.577637
vt 0.151855 0.585449
vt 0.034668 0.920410
vt 0.127441 0.920410
vt 0.082520 0.647949
vt 0.034668 0.701660
vt 0.127441 0.701660
vt 0.051270 0.585449
vt 0.098633 0.577637
vt 0.018066 0.646973
vt 0.014160 0.639160
vt 0.015137 0.906738
vt 0.087225 0.755105
vt 0.087402 0.754395
vt 0.089355 0.754395
vt 0.183105 0.147949
vt 0.059082 0.204590
vt 0.183105 0.204590
vt 0.095469 0.143959
vt 0.185059 0.209473
vt 0.185059 0.143977
vt 0.034668 0.701660
vt 0.034668 0.708759
vt -0.000488 0.000488
vt -0.000488 0.021973
vt 0.183105 0.144043
vt 0.059082 0.212402
vt 0.059082 0.144043
vt 0.183105 0.147949
vt 0.059082 0.204590
vt 0.059082 0.147949
vt 0.095469 0.204854
vt 0.185059 0.147949
vt 0.094939 0.147964
vt 0.153095 0.581182
vt 0.153192 0.577637
vt 0.096757 0.143961
vt 0.185059 0.143977
vt 0.185059 0.209473
vt 0.097078 0.147949
vt 0.185059 0.204829
vt 0.096757 0.204855
vt 0.065066 0.209473
vt 0.065066 0.143920
vt 0.193848 0.147949
vt 0.095469 0.204854
vt 0.194824 0.204590
vt 0.156818 0.021973
vt -0.000488 0.000488
vt 0.123047 0.021973
vt 0.189941 0.147949
vt 0.189941 0.204590
vt 0.246582 0.086426
vt 0.099121 0.577637
vt 0.051270 0.585449
vt 0.047363 0.577637
vt 0.135254 0.176270
vt 0.087402 0.754395
vt 0.089355 0.754395
vt 0.189941 0.144043
vt 0.189941 0.208496
vt 0.221191 0.701660
vt 0.099609 0.585449
vt 0.183105 0.144043
vt 0.059082 0.212402
vt 0.183105 0.212402
vt 0.015137 0.906738
vt 0.014801 0.903773
vt 0.027832 0.868652
vt 0.150879 0.577637
vt 0.147949 0.585449
vt 0.187988 0.145996
vt 0.119797 0.021973
vt 0.154743 0.021974
vt 0.247559 0.209473
vt 0.222168 0.209473
vt 0.247559 0.209473
vt 0.222168 0.209473
vt 0.245605 0.209473
vt 0.244629 0.140137
vt 0.222168 0.209473
vt 0.245605 0.209473
vt 0.247559 0.209473
vt 0.222168 0.140137
vt 0.247559 0.140137
vt 0.222168 0.140137
vt 0.247559 0.140137
vt 0.222168 0.140137
vt 0.245605 0.209473
vt 0.222168 0.209473
vt 0.247559 0.140137
vt 0.222168 0.140137
vt 0.244629 0.140137
vt 0.244629 0.140137
vt 0.247559 0.140137
vt 0.245605 0.209473
vt 0.244629 0.140137
vt 0.247559 0.209473
vt 0.094939 0.147964
vt 0.065066 0.204832
vt 0.096757 0.204855
vt 0.065066 0.147949
vt 0.097078 0.147949
vt 0.192871 0.233887
vt 0.056152 0.217285
vt 0.192871 0.217285
vt 0.192871 0.253418
vt 0.056152 0.233887
vt 0.194824 0.204590
vt 0.195801 0.147949
vt 0.346191 0.216309
vt 0.395996 0.227051
vt 0.346191 0.227051
vt 0.253418 0.219238
vt 0.253418 0.212891
vt 0.253418 0.219238
vt 0.253418 0.206543
vt 0.253418 0.212891
vt 0.253418 0.212891
vt 0.253418 0.219238
vt 0.283691 0.219238
vt 0.283691 0.219238
vt 0.346191 0.216309
vt 0.395996 0.216309
vt 0.346191 0.205566
vt 0.395996 0.205566
vt 0.283691 0.206543
vt 0.253418 0.206543
vt 0.253418 0.212891
vt 0.253418 0.206543
vt 0.056152 0.217285
vt 0.192871 0.233887
vt 0.192871 0.217285
vt 0.056152 0.233887
vt 0.192871 0.253418
vt 0.253418 0.219238
vt 0.253418 0.206543
vt 0.346191 0.205566
vt 0.099609 0.585449
vt 0.246582 0.000488
vt 0.184082 0.204590
vt 0.047363 0.577637
vt 0.127441 0.923340
vt 0.127441 0.920410
vt 0.184082 0.212402
vt 0.189941 0.208496
vt 0.183105 0.145996
vt 0.184082 0.145996
vt 0.127441 0.923340
vt 0.121582 0.906738
vt 0.246582 0.000488
vt 0.061035 0.147949
vt 0.088379 0.755371
vt 0.088379 0.755371
vt 0.061035 0.144043
vt 0.189941 0.204590
vt 0.046387 0.577637
vt 0.086959 0.754838
vt 0.059082 0.147949
vt 0.127441 0.701660
vt 0.183105 0.212402
vt 0.183105 0.204590
vt 0.185059 0.204829
vt 0.185059 0.147949
vt -0.000488 0.021973
vt 0.184082 0.145996
vt 0.153628 0.585449
vt 0.059082 0.144043
vt 0.020996 0.816895
vt 0.056152 0.253418
vt 0.346191 0.227051
vt 0.283691 0.206543
vt 0.056152 0.253418
vn -0.5533 0.7540 -0.3542
vn -0.6421 0.7295 -0.2355
vn -0.6529 0.7207 -0.2329
vn 1.0000 0.0000 0.0000
vn -0.0000 0.0001 -1.0000
vn -0.0000 0.0000 -1.0000
vn 0.5331 0.7455 -0.4001
vn 0.3132 0.7746 -0.5494
vn 0.5528 0.7564 -0.3498
vn 0.0039 -0.8680 0.4965
vn 0.0103 -0.9226 0.3857
vn 0.0126 -0.8633 0.5045
vn -0.0041 0.8540 -0.5203
vn 0.0032 0.9104 -0.4136
vn 0.0077 0.8456 -0.5337
vn -0.6690 0.6803 0.2993
vn -0.0041 0.8540 0.5203
vn -0.0111 0.9131 0.4076
vn -0.0134 0.8491 0.5280
vn -0.0000 0.0003 1.0000
vn 0.0000 0.0005 1.0000
vn -0.0027 0.7810 0.6245
vn -0.0164 0.7788 0.6271
vn -0.3158 0.7736 0.5493
vn -0.5337 0.7440 0.4021
vn -0.3027 0.7773 0.5516
vn 0.0049 -0.8614 0.5078
vn -0.0002 -0.8562 0.5166
vn 0.0049 -0.8615 0.5077
vn -0.0061 1.0000 0.0000
vn -0.0123 0.9999 0.0000
vn -0.6403 0.7681 -0.0000
vn -0.6318 0.7580 -0.1622
vn -1.0000 -0.0004 -0.0000
vn -1.0000 -0.0000 -0.0001
vn -1.0000 -0.0002 -0.0000
vn 0.9921 0.1256 -0.0000
vn 0.9921 0.1256 0.0001
vn 0.9929 0.1186 0.0000
vn 0.9931 0.1171 -0.0026
vn 0.9931 0.1171 0.0000
vn -0.9967 -0.0814 0.0000
vn -0.9967 -0.0811 -0.0004
vn -0.9967 -0.0811 -0.0000
vn -1.0000 0.0000 0.0000
vn 0.0103 -0.9226 -0.3857
vn 0.0039 -0.8680 -0.4965
vn 0.0126 -0.8633 -0.5045
vn 0.0049 -0.8614 -0.5078
vn -0.0002 -0.8562 -0.5166
vn -0.0002 -0.8562 -0.5167
vn -0.0217 0.5001 -0.8657
vn -0.0213 0.5054 -0.8626
vn -0.0217 0.4999 -0.8658
vn 0.0173 0.4992 -0.8663
vn 0.0172 0.5006 -0.8655
vn 0.0172 0.5007 -0.8655
vn -0.0000 0.0001 1.0000
vn -0.0000 0.0000 1.0000
vn -0.0111 0.9131 -0.4076
vn -0.0134 0.8491 -0.5280
vn -0.0029 -0.9202 -0.3914
vn -0.0073 -0.8601 -0.5100
vn -0.0027 0.7810 -0.6245
vn 0.0126 0.7764 -0.6302
vn -1.0000 0.0020 0.0000
vn -1.0000 0.0011 -0.0000
vn -1.0000 0.0021 0.0000
vn 0.0026 -0.8001 -0.5998
vn 0.0156 -0.7979 -0.6025
vn 0.2500 0.9682 -0.0000
vn -0.0000 0.0003 -1.0000
vn -0.9966 -0.0825 -0.0000
vn -0.9966 -0.0825 0.0001
vn 0.9926 0.1216 0.0013
vn -0.0029 -0.9202 0.3914
vn -0.0073 -0.8601 0.5100
vn 0.6335 0.7568 -0.1611
vn -0.9966 -0.0825 -0.0001
vn 0.0026 -0.8001 0.5998
vn -0.0121 -0.7956 0.6057
vn -0.0213 0.5055 -0.8626
vn -0.6318 0.7580 0.1622
vn -0.0121 -0.7956 -0.6057
vn -0.0164 0.7788 -0.6271
vn 0.0173 0.4992 0.8663
vn 0.0172 0.5006 0.8655
vn 0.0156 -0.7979 0.6025
vn 0.6335 0.7568 0.1611
vn 0.0032 0.9104 0.4136
vn -0.0055 0.9129 0.4082
vn 0.0172 0.5007 0.8655
vn 0.0002 1.0000 0.0000
vn -0.3158 0.7736 -0.5493
vn -0.5337 0.7440 -0.4021
vn -0.0217 0.5001 0.8657
vn -0.0213 0.5054 0.8626
vn -0.0213 0.5055 0.8626
vn 0.0100 -0.8555 0.5177
vn -0.2448 0.9696 0.0000
vn 0.6707 0.6794 0.2978
vn 0.0000 0.0126 -0.9999
vn -1.0000 -0.0000 0.0001
vn -0.9966 -0.0819 0.0002
vn 0.5331 0.7455 0.4001
vn 0.3132 0.7746 0.5494
vn 0.3000 0.7781 0.5519
vn -0.0217 0.4999 0.8658
vn -1.0000 -0.0002 0.0001
vn 0.6427 0.7308 0.2300
vn 0.5528 0.7564 0.3498
vn 0.6427 0.7308 -0.2300
vn 0.6534 0.7222 -0.2271
vn 0.6419 0.7668 0.0000
vn 0.0100 -0.8555 -0.5177
vn 0.0100 -0.8554 -0.5178
vn 0.0077 0.8456 0.5337
vn 0.9921 0.1256 -0.0001
vn 0.0000 1.0000 -0.0044
vn 0.0000 1.0000 0.0000
vn 0.0000 1.0000 0.0044
vn 0.0000 -1.0000 0.0000
vn 0.0000 0.0077 1.0000
vn 0.0000 -0.0126 -0.9999
vn 0.0000 -0.0126 0.9999
vn 0.0000 0.0077 -1.0000
vn 0.0000 -0.0077 1.0000
vn 0.7071 0.7071 0.0000
vn 0.0089 -0.0089 -0.9999
vn 0.0089 -0.0089 0.9999
vn -0.7071 0.7071 -0.0013
vn 0.7071 -0.7071 0.0000
vn -0.7071 0.7071 0.0013
vn -0.5533 0.7540 0.3542
vn -0.6422 0.7295 0.2355
vn 0.3000 0.7781 -0.5519
vn 0.0052 -0.9225 0.3860
vn -0.0055 0.9129 -0.4082
vn -0.6690 0.6803 -0.2993
vn -0.0002 -0.8562 0.5167
vn -1.0000 -0.0002 -0.0001
vn 0.0052 -0.9225 -0.3860
vn 0.0049 -0.8615 -0.5077
vn 0.0000 0.0005 -1.0000
vn -0.3027 0.7773 -0.5516
vn 0.0100 -0.8554 0.5178
vn 0.6707 0.6794 -0.2978
vn 0.6534 0.7222 0.2271
vn 0.0126 0.7764 0.6302
vn -0.6529 0.7207 0.2329
s 1
f 1/1/1 2/2/2 3/3/3
f 4/4/4 5/5/4 6/6/4
f 7/7/5 8/8/6 5/9/6
f 9/10/7 10/11/8 11/12/9
f 12/13/10 2/14/11 13/15/12
f 14/16/13 15/17/14 11/18/15
f 16/19/16 17/20/16 2/2/16
f 18/21/17 19/22/18 20/23/19
f 21/24/20 22/25/20 23/26/21
f 24/27/22 20/23/19 25/28/23
f 25/29/24 26/30/25 27/31/26
f 28/32/27 29/33/28 30/34/29
f 31/35/6 32/36/6 8/37/6
f 33/38/30 3/39/31 34/40/31
f 17/20/32 35/41/33 36/42/32
f 37/43/34 38/44/35 39/45/36
f 40/46/37 41/47/38 42/48/37
f 42/49/4 43/50/4 44/51/4
f 2/2/33 45/52/33 3/3/33
f 42/49/4 46/53/4 47/54/4
f 40/46/39 48/55/40 49/56/41
f 50/57/42 51/58/43 37/59/44
f 52/60/45 53/61/45 54/62/45
f 55/63/46 56/64/47 26/65/48
f 28/32/49 57/66/50 58/67/51
f 59/68/4 4/4/4 6/6/4
f 60/69/52 61/70/53 62/71/54
f 10/72/55 60/69/56 62/71/57
f 63/73/58 64/74/59 65/75/59
f 3/76/60 14/16/13 1/77/61
f 56/64/47 29/78/62 66/79/63
f 62/80/64 11/18/15 10/81/65
f 67/82/66 68/83/67 69/84/68
f 26/65/48 70/85/69 27/86/70
f 71/87/71 72/88/71 73/89/71
f 74/90/72 68/83/72 7/91/5
f 50/57/73 75/92/74 53/93/73
f 40/46/39 49/56/41 32/94/75
f 57/95/76 12/13/10 9/96/77
f 15/97/78 71/98/78 57/99/78
f 76/100/79 50/57/73 53/93/73
f 9/96/77 60/101/80 77/102/81
f 60/69/52 78/103/82 61/70/53
f 10/72/55 77/104/55 60/69/56
f 67/82/66 22/25/67 79/105/67
f 72/88/71 80/106/71 73/89/71
f 45/52/83 17/20/32 36/42/32
f 70/85/69 66/79/63 81/107/84
f 1/77/61 62/80/64 61/108/85
f 82/109/86 70/110/87 81/111/86
f 65/112/59 48/113/59 83/114/59
f 60/101/80 13/15/12 78/115/88
f 39/116/36 68/117/67 79/118/67
f 84/119/89 29/120/89 80/121/89
f 18/21/17 84/122/90 85/123/91
f 82/109/86 24/124/92 70/110/87
f 33/38/30 15/125/93 86/126/30
f 61/127/94 13/128/95 1/1/1
f 70/110/96 25/129/97 27/130/98
f 55/131/99 28/32/27 30/34/29
f 34/132/100 35/133/100 19/134/100
f 22/135/20 65/136/59 87/137/59
f 88/138/4 48/139/4 64/140/4
f 33/38/30 84/141/93 72/142/93
f 89/143/6 7/91/5 5/144/6
f 38/145/6 90/146/6 31/147/6
f 68/148/72 31/149/6 7/150/5
f 88/151/4 59/152/4 91/153/4
f 92/154/101 58/155/101 57/99/101
f 93/156/4 8/157/4 32/158/4
f 94/159/4 8/160/4 93/161/4
f 93/156/4 49/162/4 95/163/4
f 91/164/102 96/165/102 88/166/102
f 91/167/45 59/68/45 6/6/45
f 97/168/20 63/169/58 21/24/20
f 39/116/36 22/170/67 87/171/103
f 50/57/42 37/59/44 98/172/104
f 66/173/105 82/174/106 81/175/107
f 53/61/45 99/176/45 54/62/45
f 70/110/96 24/124/108 25/129/97
f 45/177/100 34/132/100 3/178/100
f 37/43/34 87/179/103 98/180/109
f 19/181/31 33/38/30 34/40/31
f 29/120/110 100/182/111 66/173/105
f 57/99/112 11/12/9 15/97/113
f 92/154/114 80/121/78 29/120/78
f 87/183/59 83/184/59 98/185/59
f 2/186/115 28/32/49 16/187/116
f 24/27/22 100/188/117 18/21/17
f 55/189/83 19/190/83 35/41/83
f 71/98/89 92/154/114 57/99/89
f 40/46/37 47/191/118 48/55/118
f 49/162/4 88/138/4 95/163/4
f 94/192/4 6/6/4 5/193/4
f 101/194/119 102/195/120 103/196/119
f 104/197/120 105/198/121 102/195/120
f 106/199/4 107/200/4 108/201/4
f 109/202/4 110/203/4 111/204/4
f 112/205/122 113/206/122 114/207/122
f 115/208/119 107/200/120 116/209/120
f 117/210/123 103/196/123 113/206/123
f 118/211/122 106/199/122 119/212/122
f 120/213/4 104/197/4 112/205/4
f 121/214/122 110/203/122 118/211/122
f 122/215/124 123/216/124 105/198/124
f 119/212/125 108/201/125 115/208/125
f 120/213/122 114/207/122 123/216/122
f 116/209/120 109/202/121 124/217/121
f 112/205/4 101/194/4 117/210/4
f 124/217/126 111/204/126 121/214/126
f 125/218/4 126/219/4 96/165/4
f 127/220/4 128/221/4 129/222/4
f 6/223/120 125/224/120 91/225/120
f 94/226/120 128/227/120 6/223/120
f 93/228/127 129/222/127 94/229/127
f 130/230/128 131/231/128 132/232/128
f 133/233/129 134/234/129 135/235/129
f 136/236/130 130/237/130 137/238/130
f 138/239/131 131/240/131 139/241/131
f 140/242/128 131/231/128 141/243/128
f 142/244/128 141/243/128 143/245/128
f 144/246/132 145/247/132 136/236/132
f 140/248/129 146/249/129 134/234/129
f 147/250/122 148/251/122 149/252/122
f 150/253/122 151/254/122 148/251/122
f 131/240/133 135/235/133 139/241/133
f 137/238/130 132/255/130 138/239/130
f 142/256/132 144/246/132 146/249/132
f 145/257/128 141/243/128 130/230/128
f 20/258/134 55/189/135 26/30/25
f 1/1/1 13/128/95 2/2/2
f 4/4/4 89/259/4 5/5/4
f 7/7/5 31/260/6 8/8/6
f 9/10/7 77/261/136 10/11/8
f 12/13/10 152/262/137 2/14/11
f 14/16/13 86/263/138 15/17/14
f 16/19/139 55/189/139 17/20/139
f 18/21/17 85/123/91 19/22/18
f 21/24/20 63/169/58 22/25/20
f 24/27/22 18/21/17 20/23/19
f 25/29/24 20/258/134 26/30/25
f 28/32/27 58/67/140 29/33/28
f 31/35/6 90/264/6 32/36/6
f 33/38/30 86/126/30 3/39/31
f 17/20/32 55/189/33 35/41/33
f 37/43/34 51/265/141 38/44/35
f 40/46/39 32/94/75 41/47/38
f 42/49/4 41/266/4 43/50/4
f 42/49/4 44/51/4 46/53/4
f 52/60/45 76/267/45 53/61/45
f 55/63/46 30/268/142 56/64/47
f 28/32/49 152/269/143 57/66/50
f 59/68/4 97/270/4 4/4/4
f 63/73/58 59/271/59 64/74/59
f 3/76/60 86/263/138 14/16/13
f 56/64/47 30/268/142 29/78/62
f 62/80/64 14/16/13 11/18/15
f 67/82/66 79/105/67 68/83/67
f 26/65/48 56/64/47 70/85/69
f 71/87/71 15/272/71 72/88/71
f 74/90/72 69/84/144 68/83/72
f 50/57/42 98/172/104 75/92/74
f 57/95/76 152/262/137 12/13/10
f 76/100/79 51/58/79 50/57/73
f 9/96/77 12/13/10 60/101/80
f 67/82/66 23/26/68 22/25/67
f 72/88/71 84/273/71 80/106/71
f 45/52/83 2/2/83 17/20/32
f 70/85/69 56/64/47 66/79/63
f 1/77/61 14/16/13 62/80/64
f 65/112/59 64/274/59 48/113/59
f 60/101/80 12/13/10 13/15/12
f 39/116/36 38/275/35 68/117/67
f 18/21/17 100/188/117 84/122/90
f 33/38/30 72/142/93 15/125/93
f 61/127/94 78/276/145 13/128/95
f 55/131/99 16/187/146 28/32/27
f 34/132/100 36/277/100 35/133/100
f 22/135/20 63/278/58 65/136/59
f 33/38/30 85/279/30 84/141/93
f 89/143/6 74/90/72 7/91/5
f 38/145/6 51/280/6 90/146/6
f 68/148/72 38/281/6 31/149/6
f 88/151/4 64/282/4 59/152/4
f 92/154/147 29/120/147 58/155/147
f 94/159/4 5/283/4 8/160/4
f 93/156/4 32/158/4 49/162/4
f 91/164/102 125/218/102 96/165/102
f 97/168/59 59/284/59 63/169/58
f 39/116/36 79/118/67 22/170/67
f 66/173/105 100/182/111 82/174/106
f 53/61/45 75/285/45 99/176/45
f 45/177/100 36/277/100 34/132/100
f 37/43/34 39/45/36 87/179/103
f 19/181/31 85/279/30 33/38/30
f 29/120/110 84/119/148 100/182/111
f 57/99/112 9/10/7 11/12/9
f 92/154/114 73/286/114 80/121/78
f 87/183/59 65/287/59 83/184/59
f 2/186/115 152/269/143 28/32/49
f 24/27/22 82/288/149 100/188/117
f 71/98/89 73/286/114 92/154/114
f 40/46/37 42/48/37 47/191/118
f 49/162/4 48/139/4 88/138/4
f 101/194/119 104/197/120 102/195/120
f 104/197/120 122/215/121 105/198/121
f 106/199/4 110/203/4 107/200/4
f 109/202/4 107/200/4 110/203/4
f 112/205/122 117/210/122 113/206/122
f 115/208/119 108/201/119 107/200/120
f 117/210/123 101/194/123 103/196/123
f 118/211/122 110/203/122 106/199/122
f 120/213/4 122/215/4 104/197/4
f 121/214/122 111/204/122 110/203/122
f 122/215/124 120/213/124 123/216/124
f 119/212/125 106/199/125 108/201/125
f 120/213/122 112/205/122 114/207/122
f 116/209/120 107/200/120 109/202/121
f 112/205/4 104/197/4 101/194/4
f 124/217/126 109/202/126 111/204/126
f 125/218/4 128/221/4 126/219/4
f 127/220/4 126/219/4 128/221/4
f 6/223/120 128/227/120 125/224/120
f 94/226/120 129/289/120 128/227/120
f 93/228/127 127/220/127 129/222/127
f 130/230/128 141/243/128 131/231/128
f 133/233/129 140/248/129 134/234/129
f 136/236/130 145/247/130 130/237/130
f 138/239/131 132/255/131 131/240/131
f 140/242/128 133/290/128 131/231/128
f 142/244/128 140/242/128 141/243/128
f 144/246/132 143/291/132 145/247/132
f 140/248/129 142/256/129 146/249/129
f 147/250/122 150/253/122 148/251/122
f 150/253/122 153/292/122 151/254/122
f 131/240/133 133/233/133 135/235/133
f 137/238/130 130/237/130 132/255/130
f 142/256/132 143/291/132 144/246/132
f 145/257/128 143/245/128 141/243/128
f 20/258/134 19/190/150 55/189/135
