# Blender v2.91.0 Beta OBJ File: 'HOUSE.blend'
# www.blender.org
o Plane_Plane.004_Plane_Plane.002_Plane_Plane.004_Plane_Plane.001
v 4.997730 2.021290 0.000000
v 4.997730 0.021290 0.000000
v -5.002270 0.021290 0.000000
v -5.002270 2.021290 0.000000
v 4.997730 2.021290 -0.025253
v 4.997730 0.021290 -0.025253
v -5.002270 0.021290 -0.025253
v -5.002270 2.021290 -0.025253
vt 0.776855 0.844238
vt 0.969238 0.793457
vt 0.776855 0.793457
vt 0.969238 0.793457
vt 0.776855 0.844238
vt 0.776855 0.793457
vt 0.969238 0.844238
vt 0.969238 0.844238
vn 0.0000 0.0000 -1.0000
vn 0.0000 0.0000 1.0000
s off
f 8/1/1 6/2/1 7/3/1
f 2/4/2 4/5/2 3/6/2
f 8/1/1 5/7/1 6/2/1
f 2/4/2 1/8/2 4/5/2
