# Blender v2.91.0 Beta OBJ File: 'farmhouse.blend'
# www.blender.org
o Detail_Cube.031
v 10.395370 0.474136 -0.000167
v 10.395370 0.474140 -10.436459
v -10.395370 0.474142 -10.436459
v 10.395370 0.474131 10.436125
v -10.395370 0.474133 10.436125
v -10.395370 0.474138 -0.000167
vt 0.947266 0.475098
vt 0.310547 0.553223
vt 0.310547 0.475098
vt 0.947266 0.395996
vt 0.310547 0.395996
vt 0.947266 0.553223
vn 0.0000 1.0000 0.0000
s 1
f 1/1/1 3/2/1 6/3/1
f 4/4/1 6/3/1 5/5/1
f 1/1/1 2/6/1 3/2/1
f 4/4/1 1/1/1 6/3/1
