# Blender v2.91.0 Beta OBJ File: 'HOUSE.blend'
# www.blender.org
o Plane_Plane.004_Plane_Plane.001
v -10.417425 0.000007 -19.781830
v -0.536524 0.000004 -9.732073
v -0.240418 0.000007 -19.781830
v 9.808620 -0.000000 0.096899
v 19.711699 0.000004 -9.759654
v 9.804523 0.000004 -9.754507
v -20.288301 0.000004 -9.781689
v -10.258264 0.000004 -9.769567
v -0.147809 -0.000003 10.131197
v 9.776353 -0.000006 20.218170
v 9.753723 -0.000003 10.021808
v 19.711699 -0.000000 0.209515
v 19.711699 -0.000003 10.224098
v -0.128325 -0.000000 0.228515
v -10.259025 -0.000000 0.273363
v -20.288301 -0.000003 10.269316
v -10.136030 -0.000003 10.174530
v 9.826086 0.000007 -19.781830
v 19.711699 0.000007 -19.781830
v -0.163671 -0.000006 20.218170
v -10.428969 -0.000006 20.218170
v -20.288301 -0.000000 0.264137
v -20.288301 0.000007 -19.781830
v 19.711699 -0.000006 20.218170
v -20.288301 -0.000006 20.218170
vt 0.628418 0.248535
vt 0.748535 0.129395
vt 0.748535 0.248535
vt 0.628418 0.248535
vt 0.748535 0.129395
vt 0.628418 0.129395
vt 0.748535 0.129395
vt 0.628418 0.129395
vt 0.748535 0.129395
vt 0.628418 0.248535
vt 0.628418 0.129395
vt 0.748535 0.248535
vt 0.748535 0.129395
vt 0.748535 0.248535
vt 0.628418 0.248535
vt 0.748535 0.129395
vt 0.628418 0.129395
vt 0.628418 0.248535
vt 0.748535 0.248535
vt 0.748535 0.248535
vt 0.628418 0.248535
vt 0.748535 0.248535
vt 0.748535 0.248535
vt 0.748535 0.248535
vt 0.748535 0.248535
vn 0.0078 0.9999 -0.0085
vn 0.0025 1.0000 -0.0095
vn -0.0079 0.9999 -0.0079
vn 0.0082 0.9999 0.0093
vn 0.0183 0.9998 -0.0087
vn 0.0000 1.0000 0.0000
vn -0.0087 0.9999 0.0070
vn 0.0009 1.0000 0.0058
vn 0.0048 0.9999 -0.0102
vn 0.0034 1.0000 -0.0034
vn -0.0108 0.9999 0.0041
vn 0.0015 1.0000 -0.0002
vn -0.0084 1.0000 -0.0001
vn -0.0125 0.9999 0.0033
vn 0.0079 0.9999 0.0081
vn 0.0121 0.9999 -0.0036
vn -0.0008 1.0000 0.0008
s 1
f 1/1/1 2/2/2 3/3/3
f 4/4/4 5/5/5 6/6/6
f 1/1/1 7/7/7 8/8/6
f 9/9/8 10/10/9 11/11/6
f 12/12/10 11/11/6 13/13/11
f 11/11/6 14/14/6 9/9/8
f 15/15/12 2/2/2 8/8/6
f 15/15/12 16/16/13 17/17/6
f 18/18/14 5/5/5 19/19/6
f 14/14/6 17/17/6 9/9/8
f 17/17/6 20/20/15 9/9/8
f 10/10/9 13/13/11 11/11/6
f 16/16/13 21/21/16 17/17/6
f 6/6/6 3/3/3 2/2/2
f 6/6/6 14/14/6 4/4/4
f 8/8/6 22/22/17 15/15/12
f 1/1/1 8/8/6 2/2/2
f 4/4/4 12/12/10 5/5/5
f 1/1/1 23/23/6 7/7/7
f 9/9/8 20/20/15 10/10/9
f 12/12/10 4/4/4 11/11/6
f 11/11/6 4/4/4 14/14/6
f 15/15/12 14/14/6 2/2/2
f 15/15/12 22/22/17 16/16/13
f 18/18/14 6/6/6 5/5/5
f 14/14/6 15/15/12 17/17/6
f 17/17/6 21/21/16 20/20/15
f 10/10/9 24/24/6 13/13/11
f 16/16/13 25/25/6 21/21/16
f 6/6/6 18/18/14 3/3/3
f 6/6/6 2/2/2 14/14/6
f 8/8/6 7/7/7 22/22/17
