# Blender v2.91.0 Beta OBJ File: 'HOUSE.blend'
# www.blender.org
o Plane_Plane.002
v 20.000000 0.000000 -3.000000
v -8.076977 0.000000 10.984355
v -14.076977 0.000000 10.984356
v 20.000000 0.000000 3.000000
v 0.000000 0.000000 -3.000000
v 0.000000 0.000000 3.000000
v -10.201078 0.000000 1.366098
v -5.676259 0.000000 5.439119
vt 0.748535 0.406982
vt 0.689941 0.376465
vt 0.689941 0.406982
vt 0.748535 0.437500
vt 0.689941 0.498535
vt 0.748535 0.498535
vt 0.689941 0.437500
vt 0.748535 0.376465
vn 0.0000 1.0000 0.0000
s 1
f 7/1/1 2/2/1 8/3/1
f 5/4/1 4/5/1 1/6/1
f 5/4/1 8/3/1 6/7/1
f 7/1/1 3/8/1 2/2/1
f 5/4/1 6/7/1 4/5/1
f 5/4/1 7/1/1 8/3/1
