# Blender v2.91.0 Beta OBJ File: 'HOUSE.blend'
# www.blender.org
o Plane_Plane.004_Plane_Plane.003
v 4.135747 0.000006 -6.083303
v -5.790472 0.000006 -6.083303
v 4.135747 -0.000000 3.918456
v -5.790472 -0.000000 3.918456
v 4.135747 0.000006 -16.085062
v -5.790472 0.000006 -16.085062
v 4.135747 -0.000000 -6.083303
v -5.790472 -0.000000 -6.083302
v 4.135747 0.000006 -26.086821
v -5.790472 0.000006 -26.086821
v 4.135747 -0.000000 -16.085062
v -5.790472 -0.000000 -16.085062
v 4.135747 0.000006 -36.088577
v -5.790472 0.000006 -36.088577
v 4.135747 -0.000000 -26.086821
v -5.790472 -0.000000 -26.086821
v 4.135747 0.000006 -46.090336
v -5.790472 0.000006 -46.090336
v 4.135747 -0.000000 -36.088577
v -5.790472 -0.000000 -36.088577
v 4.135747 0.000006 -56.092094
v -5.790472 0.000006 -56.092094
v 4.135747 -0.000000 -46.090336
v -5.790472 -0.000000 -46.090336
v 4.135747 0.000006 -66.093857
v -5.790472 0.000006 -66.093857
v 4.135747 -0.000000 -56.092094
v -5.790472 -0.000000 -56.092094
v 4.135747 0.000006 -76.095619
v -5.790472 0.000006 -76.095619
v 4.135747 -0.000000 -66.093857
v -5.790472 -0.000000 -66.093857
v 4.135747 0.000006 -86.097374
v -5.790472 0.000006 -86.097374
v 4.135747 -0.000000 -76.095612
v -5.790472 -0.000000 -76.095612
v 4.135747 0.000006 -96.099129
v -5.790472 0.000006 -96.099129
v 4.135747 -0.000000 -86.097366
v -5.790472 -0.000000 -86.097366
vt 0.748535 0.248535
vt 0.628418 0.129395
vt 0.628418 0.248535
vt 0.748535 0.248535
vt 0.628418 0.129395
vt 0.628418 0.248535
vt 0.748535 0.248535
vt 0.628418 0.129395
vt 0.628418 0.248535
vt 0.748535 0.248535
vt 0.628418 0.129395
vt 0.628418 0.248535
vt 0.748535 0.248535
vt 0.628418 0.129395
vt 0.628418 0.248535
vt 0.748535 0.248535
vt 0.628418 0.129395
vt 0.628418 0.248535
vt 0.748535 0.248535
vt 0.628418 0.129395
vt 0.628418 0.248535
vt 0.748535 0.248535
vt 0.628418 0.129395
vt 0.628418 0.248535
vt 0.748535 0.248535
vt 0.628418 0.129395
vt 0.628418 0.248535
vt 0.748535 0.248535
vt 0.628418 0.129395
vt 0.628418 0.248535
vt 0.748535 0.129395
vt 0.748535 0.129395
vt 0.748535 0.129395
vt 0.748535 0.129395
vt 0.748535 0.129395
vt 0.748535 0.129395
vt 0.748535 0.129395
vt 0.748535 0.129395
vt 0.748535 0.129395
vt 0.748535 0.129395
vn -0.0000 1.0000 0.0000
vn 0.0014 1.0000 -0.0002
vn 0.0026 1.0000 -0.0095
s 1
f 3/1/1 2/2/1 4/3/2
f 7/4/1 6/5/1 8/6/2
f 11/7/1 10/8/1 12/9/2
f 15/10/1 14/11/1 16/12/2
f 19/13/1 18/14/1 20/15/2
f 23/16/1 22/17/1 24/18/2
f 27/19/1 26/20/1 28/21/2
f 31/22/1 30/23/1 32/24/2
f 35/25/1 34/26/1 36/27/2
f 39/28/1 38/29/1 40/30/2
f 3/1/1 1/31/3 2/2/1
f 7/4/1 5/32/3 6/5/1
f 11/7/1 9/33/3 10/8/1
f 15/10/1 13/34/3 14/11/1
f 19/13/1 17/35/3 18/14/1
f 23/16/1 21/36/3 22/17/1
f 27/19/1 25/37/3 26/20/1
f 31/22/1 29/38/3 30/23/1
f 35/25/1 33/39/3 34/26/1
f 39/28/1 37/40/3 38/29/1
