# Blender v2.91.0 Beta OBJ File: 'HOUSE.blend'
# www.blender.org
o Plane_Plane.004_Plane_Plane.010
v -10.000000 0.000000 0.000000
v 0.000000 0.000000 0.000000
v -10.000000 -0.000004 10.000000
v 0.000000 -0.000004 10.000000
v 10.000000 -0.000004 10.000000
v 10.000000 0.000000 0.000000
v 10.000000 0.000004 -10.000000
v 20.000000 0.000000 0.000000
v 20.000000 -0.000004 10.000000
v 30.000000 -0.000004 10.000000
v 20.000000 0.000004 -10.000000
v 30.000000 0.000000 0.000000
v 40.000000 0.000000 0.000000
v 40.000000 -0.000004 10.000000
v 50.000000 -0.000004 10.000000
v 50.000000 0.000000 0.000000
v -10.000000 0.000006 -20.000000
v 0.000000 0.000006 -20.000000
v -10.000000 0.000004 -10.000000
v 0.000000 0.000004 -10.000000
v 10.000000 0.000006 -20.000000
v 10.000000 0.000010 -30.000000
v 20.000000 0.000006 -20.000000
v 30.000000 0.000006 -20.000000
v 30.000000 0.000010 -30.000000
v 40.000000 0.000006 -20.000000
v 30.000000 0.000004 -10.000000
v 40.000000 0.000004 -10.000000
v 50.000000 0.000004 -10.000000
v 50.000000 0.000006 -20.000000
v 50.000000 0.000010 -30.000000
v 40.000000 0.000010 -30.000000
v -10.000000 0.000016 -50.000000
v -10.000000 0.000014 -40.000000
v 0.000000 0.000014 -40.000000
v -10.000000 0.000010 -30.000000
v 0.000000 0.000010 -30.000000
v 10.000000 0.000016 -50.000000
v 0.000000 0.000016 -50.000000
v 10.000000 0.000014 -40.000000
v 20.000000 0.000014 -40.000000
v 20.000000 0.000010 -30.000000
v 30.000000 0.000014 -40.000000
v 30.000000 0.000016 -50.000000
v 20.000000 0.000016 -50.000000
v 40.000000 0.000014 -40.000000
v 50.000000 0.000014 -40.000000
v 50.000000 0.000016 -50.000000
v 40.000000 0.000016 -50.000000
v -9.379337 -0.229606 -0.413774
v 0.413776 -0.229606 -0.413774
v -9.379337 -0.229610 9.379337
v 0.413776 -0.229610 9.379337
v 10.206888 -0.229610 9.379337
v 10.206888 -0.229606 -0.413774
v 10.206888 -0.229603 -10.206887
v 20.000000 -0.229606 -0.413774
v 20.000000 -0.229610 9.379337
v 29.793114 -0.229610 9.379337
v 20.000000 -0.229603 -10.206887
v 29.793114 -0.229606 -0.413774
v 39.586227 -0.229606 -0.413774
v 39.586227 -0.229610 9.379337
v 49.379337 -0.229610 9.379337
v 49.379337 -0.229606 -0.413774
v -9.379337 -0.229600 -20.000000
v 0.413776 -0.229600 -20.000000
v -9.379337 -0.229603 -10.206887
v 0.413776 -0.229603 -10.206887
v 10.206888 -0.229600 -20.000000
v 10.206888 -0.229597 -29.793112
v 20.000000 -0.229600 -20.000000
v 29.793114 -0.229600 -20.000000
v 29.793114 -0.229597 -29.793112
v 39.586227 -0.229600 -20.000000
v 29.793114 -0.229603 -10.206887
v 39.586227 -0.229603 -10.206887
v 49.379337 -0.229603 -10.206887
v 49.379337 -0.229600 -20.000000
v 49.379337 -0.229597 -29.793112
v 39.586227 -0.229597 -29.793112
v -9.379337 -0.229591 -49.379337
v -9.379337 -0.229593 -39.586224
v 0.413776 -0.229593 -39.586224
v -9.379337 -0.229597 -29.793112
v 0.413776 -0.229597 -29.793112
v 10.206888 -0.229591 -49.379337
v 0.413776 -0.229591 -49.379337
v 10.206888 -0.229593 -39.586224
v 20.000000 -0.229593 -39.586224
v 20.000000 -0.229597 -29.793112
v 29.793114 -0.229593 -39.586224
v 29.793114 -0.229591 -49.379337
v 20.000000 -0.229591 -49.379337
v 39.586227 -0.229593 -39.586224
v 49.379337 -0.229593 -39.586224
v 49.379337 -0.229591 -49.379337
v 39.586227 -0.229591 -49.379337
v 39.586227 2.755284 -10.206888
v 49.379337 2.755284 -10.206888
v -9.379337 2.755290 -29.793112
v 0.413776 2.755290 -29.793112
v 20.000000 2.755294 -39.586224
v 20.000000 2.755290 -29.793112
v 29.793114 2.755294 -39.586224
v 29.793114 2.755296 -49.379337
v 20.000000 2.755296 -49.379337
v -9.379337 2.755280 -0.413774
v 0.413776 2.755280 -0.413774
v -9.379337 2.755277 9.379336
v 29.793114 2.755284 -10.206888
v 10.206888 2.755284 -10.206888
v 20.000000 2.755280 -0.413774
v 20.000000 2.755284 -10.206888
v 0.413776 2.755294 -39.586224
v 10.206888 2.755296 -49.379337
v 0.413776 2.755296 -49.379337
v 10.206888 2.755294 -39.586224
v 10.206888 2.755287 -20.000000
v 10.206888 2.755290 -29.793112
v 0.413776 2.755277 9.379336
v 10.206888 2.755277 9.379336
v 10.206888 2.755280 -0.413774
v 49.379337 2.755290 -29.793112
v 49.379337 2.755287 -20.000000
v 29.793114 2.755287 -20.000000
v 29.793114 2.755290 -29.793112
v 20.000000 2.755277 9.379336
v 29.793114 2.755277 9.379336
v 29.793114 2.755280 -0.413774
v 39.586227 2.755280 -0.413774
v 39.586227 2.755294 -39.586224
v 49.379337 2.755294 -39.586224
v 49.379337 2.755296 -49.379337
v 39.586227 2.755296 -49.379337
v 39.586227 2.755277 9.379336
v 49.379337 2.755277 9.379336
v 49.379337 2.755280 -0.413774
v -9.379337 2.755287 -20.000000
v 0.413776 2.755287 -20.000000
v -9.379337 2.755284 -10.206888
v 39.586227 2.755290 -29.793112
v 0.413776 2.755284 -10.206888
v 39.586227 2.755287 -20.000000
v -9.379337 2.755294 -39.586224
v 20.000000 2.755287 -20.000000
v -9.379337 2.755296 -49.379337
vt 0.256348 0.747559
vt 0.492676 0.518066
vt 0.256348 0.518066
vt 0.256348 0.747559
vt 0.492676 0.518066
vt 0.256348 0.518066
vt 0.256348 0.747559
vt 0.492676 0.518066
vt 0.256348 0.518066
vt 0.256348 0.747559
vt 0.256348 0.518066
vt 0.492676 0.518066
vt 0.256348 0.747559
vt 0.256348 0.518066
vt 0.256348 0.747559
vt 0.492676 0.751465
vt 0.256348 0.747559
vt 0.492676 0.518066
vt 0.492676 0.751465
vt 0.492676 0.518066
vt 0.256348 0.518066
vt 0.492676 0.518066
vt 0.492676 0.751465
vt 0.256348 0.747559
vt 0.492676 0.518066
vt 0.256348 0.518066
vt 0.256348 0.747559
vt 0.256348 0.518066
vt 0.492676 0.751465
vt 0.256348 0.747559
vt 0.492676 0.518066
vt 0.492676 0.518066
vt 0.256348 0.518066
vt 0.492676 0.518066
vt 0.256348 0.747559
vt 0.256348 0.747559
vt 0.492676 0.518066
vt 0.492676 0.751465
vt 0.492676 0.751465
vt 0.492676 0.751465
vt 0.492676 0.751465
vt 0.256348 0.747559
vt 0.492676 0.518066
vt 0.256348 0.518066
vt 0.256348 0.747559
vt 0.492676 0.751465
vt 0.256348 0.747559
vt 0.492676 0.518066
vt 0.492676 0.751465
vt 0.256348 0.747559
vt 0.492676 0.518066
vt 0.492676 0.751465
vt 0.256348 0.747559
vt 0.492676 0.751465
vt 0.492676 0.518066
vt 0.256348 0.747559
vt 0.492676 0.751465
vt 0.256348 0.747559
vt 0.256348 0.518066
vt 0.256348 0.747559
vt 0.492676 0.518066
vt 0.256348 0.518066
vt 0.492676 0.518066
vt 0.492676 0.518066
vt 0.256348 0.518066
vt 0.256348 0.747559
vt 0.492676 0.751465
vt 0.492676 0.518066
vt 0.492676 0.751465
vt 0.256348 0.747559
vt 0.256348 0.518066
vt 0.492676 0.518066
vt 0.492676 0.751465
vt 0.492676 0.518066
vt 0.492676 0.751465
vt 0.492676 0.751465
vt 0.492676 0.518066
vt 0.492676 0.751465
vt 0.256348 0.747559
vt 0.492676 0.751465
vt 0.256348 0.747559
vt 0.492676 0.518066
vt 0.256348 0.518066
vt 0.256348 0.518066
vt 0.256348 0.518066
vt 0.256348 0.518066
vt 0.492676 0.751465
vt 0.256348 0.747559
vt 0.492676 0.518066
vt 0.492676 0.751465
vt 0.492676 0.751465
vt 0.492676 0.751465
vt 0.256348 0.747559
vt 0.256348 0.518066
vt 0.256348 0.747559
vt 0.492676 0.518066
vt 0.256348 0.518066
vt 0.256348 0.747559
vt 0.492676 0.518066
vt 0.256348 0.518066
vt 0.256348 0.747559
vt 0.256348 0.518066
vt 0.492676 0.518066
vt 0.256348 0.747559
vt 0.256348 0.518066
vt 0.256348 0.747559
vt 0.492676 0.751465
vt 0.256348 0.747559
vt 0.492676 0.518066
vt 0.492676 0.751465
vt 0.492676 0.518066
vt 0.256348 0.518066
vt 0.492676 0.518066
vt 0.492676 0.751465
vt 0.256348 0.747559
vt 0.492676 0.518066
vt 0.256348 0.518066
vt 0.256348 0.747559
vt 0.256348 0.518066
vt 0.492676 0.751465
vt 0.492676 0.518066
vt 0.492676 0.518066
vt 0.256348 0.518066
vt 0.492676 0.518066
vt 0.256348 0.747559
vt 0.256348 0.747559
vt 0.492676 0.518066
vt 0.492676 0.751465
vt 0.492676 0.751465
vt 0.492676 0.751465
vt 0.492676 0.751465
vt 0.492676 0.751465
vt 0.492676 0.751465
vt 0.492676 0.751465
vt 0.492676 0.751465
vt 0.492676 0.751465
vt 0.492676 0.751465
vt 0.492676 0.751465
vt 0.492676 0.751465
vt 0.492676 0.751465
vt 0.492676 0.751465
vt 0.492676 0.751465
vt 0.492676 0.751465
vt 0.492676 0.751465
vt 0.492676 0.751465
vt 0.492676 0.751465
vt 0.492676 0.751465
vn 0.0000 1.0000 0.0000
vn 0.0000 -1.0000 -0.0000
vn 1.0000 0.0000 0.0000
vn -1.0000 0.0000 0.0000
vn 0.7071 -0.0000 0.7071
vn 0.0000 0.0000 1.0000
vn 0.0000 0.0000 -1.0000
vn 0.7071 0.0000 -0.7071
vn -0.7071 0.0000 0.7071
vn -0.7071 0.0000 -0.7071
s 1
f 42/1/1 43/2/1 41/3/1
f 4/4/1 6/5/1 2/6/1
f 9/7/1 12/8/1 8/9/1
f 28/10/1 12/8/1 13/11/1
f 34/12/1 37/13/1 35/14/1
f 11/15/1 12/8/1 27/16/1
f 49/17/1 47/18/1 48/19/1
f 37/13/1 17/20/1 18/21/1
f 6/5/1 9/7/1 8/9/1
f 28/10/1 16/22/1 29/23/1
f 17/20/1 20/24/1 18/21/1
f 42/1/1 21/25/1 23/26/1
f 43/2/1 32/27/1 46/28/1
f 37/13/1 21/25/1 22/29/1
f 45/30/1 40/31/1 41/3/1
f 28/10/1 30/32/1 26/33/1
f 20/24/1 21/25/1 18/21/1
f 11/15/1 24/34/1 23/26/1
f 49/17/1 43/2/1 46/28/1
f 39/35/1 34/12/1 35/14/1
f 12/8/1 14/36/1 13/11/1
f 20/24/1 1/37/1 2/6/1
f 32/27/1 30/32/1 31/38/1
f 42/1/1 24/34/1 25/39/1
f 24/34/1 28/10/1 26/33/1
f 39/35/1 40/31/1 38/40/1
f 20/24/1 6/5/1 7/41/1
f 1/37/1 4/4/1 2/6/1
f 21/25/1 11/15/1 23/26/1
f 94/42/2 92/43/2 90/44/2
f 37/13/1 40/31/1 35/14/1
f 11/15/1 6/5/1 8/9/1
f 40/31/1 42/1/1 41/3/1
f 32/27/1 47/18/1 46/28/1
f 32/27/1 24/34/1 26/33/1
f 14/36/1 16/22/1 13/11/1
f 91/45/2 92/43/2 74/46/2
f 53/47/2 55/48/2 54/49/2
f 58/50/2 61/51/2 59/52/2
f 77/53/2 61/51/2 76/54/2
f 83/55/2 86/56/2 85/57/2
f 60/58/2 61/51/2 57/59/2
f 98/60/2 96/61/2 95/62/2
f 86/56/2 66/63/2 85/57/2
f 55/48/2 58/50/2 54/49/2
f 77/53/2 65/64/2 62/65/2
f 66/63/2 69/66/2 68/67/2
f 91/45/2 70/68/2 71/69/2
f 92/43/2 81/70/2 74/46/2
f 86/56/2 70/68/2 67/71/2
f 94/42/2 89/72/2 87/73/2
f 77/53/2 79/74/2 78/75/2
f 69/66/2 70/68/2 56/76/2
f 60/58/2 73/77/2 76/54/2
f 98/60/2 92/43/2 93/78/2
f 88/79/2 83/55/2 82/80/2
f 61/51/2 63/81/2 59/52/2
f 69/66/2 50/82/2 68/67/2
f 81/70/2 79/74/2 75/83/2
f 91/45/2 73/77/2 72/84/2
f 73/77/2 77/53/2 76/54/2
f 88/79/2 89/72/2 84/85/2
f 69/66/2 55/48/2 51/86/2
f 50/82/2 53/47/2 52/87/2
f 70/68/2 60/58/2 56/76/2
f 107/88/1 105/89/1 106/90/1
f 86/56/2 89/72/2 71/69/2
f 60/58/2 55/48/2 56/76/2
f 89/72/2 91/45/2 71/69/2
f 81/70/2 96/61/2 80/91/2
f 81/70/2 73/77/2 74/46/2
f 63/81/2 65/64/2 64/92/2
f 104/93/1 105/89/1 103/94/1
f 121/95/1 123/96/1 109/97/1
f 128/98/1 130/99/1 113/100/1
f 99/101/1 130/99/1 131/102/1
f 145/103/1 102/104/1 115/105/1
f 114/106/1 130/99/1 111/107/1
f 135/108/1 133/109/1 134/110/1
f 102/104/1 139/111/1 140/112/1
f 123/96/1 128/98/1 113/100/1
f 99/101/1 138/113/1 100/114/1
f 139/111/1 143/115/1 140/112/1
f 104/93/1 119/116/1 146/117/1
f 105/89/1 142/118/1 132/119/1
f 102/104/1 119/116/1 120/120/1
f 107/88/1 118/121/1 103/94/1
f 99/101/1 125/122/1 144/123/1
f 143/115/1 119/116/1 140/112/1
f 114/106/1 126/124/1 146/117/1
f 135/108/1 105/89/1 132/119/1
f 117/125/1 145/103/1 115/105/1
f 130/99/1 136/126/1 131/102/1
f 143/115/1 108/127/1 109/97/1
f 142/118/1 125/122/1 124/128/1
f 104/93/1 126/124/1 127/129/1
f 126/124/1 99/101/1 144/123/1
f 117/125/1 118/121/1 116/130/1
f 143/115/1 123/96/1 112/131/1
f 108/127/1 121/95/1 109/97/1
f 119/116/1 114/106/1 146/117/1
f 102/104/1 118/121/1 115/105/1
f 114/106/1 123/96/1 113/100/1
f 118/121/1 104/93/1 103/94/1
f 142/118/1 133/109/1 132/119/1
f 142/118/1 126/124/1 144/123/1
f 136/126/1 138/113/1 131/102/1
f 79/74/3 100/114/3 78/75/3
f 68/67/4 139/111/4 66/63/4
f 64/92/5 136/126/6 63/81/6
f 63/81/6 129/132/6 59/52/6
f 54/49/6 121/95/6 53/47/6
f 58/50/6 122/133/6 54/49/6
f 65/64/3 137/134/5 64/92/5
f 78/75/3 138/113/3 65/64/3
f 88/79/7 116/130/7 87/73/7
f 93/78/7 135/108/7 98/60/7
f 85/57/4 139/111/4 101/135/4
f 98/60/7 134/110/8 97/136/8
f 94/42/7 106/90/7 93/78/7
f 59/52/6 128/98/6 58/50/6
f 97/136/8 133/109/3 96/61/3
f 80/91/3 125/122/3 79/74/3
f 96/61/3 124/128/3 80/91/3
f 50/82/4 141/137/4 68/67/4
f 50/82/4 110/138/9 108/127/4
f 83/55/4 147/139/10 82/80/10
f 53/47/6 110/138/9 52/87/9
f 82/80/10 117/125/7 88/79/7
f 83/55/4 101/135/4 145/103/4
f 87/73/7 107/88/7 94/42/7
f 45/30/1 43/2/1 44/140/1
f 42/1/1 25/39/1 43/2/1
f 4/4/1 5/141/1 6/5/1
f 9/7/1 10/142/1 12/8/1
f 28/10/1 27/16/1 12/8/1
f 34/12/1 36/143/1 37/13/1
f 11/15/1 8/9/1 12/8/1
f 49/17/1 46/28/1 47/18/1
f 37/13/1 36/143/1 17/20/1
f 6/5/1 5/141/1 9/7/1
f 28/10/1 13/11/1 16/22/1
f 17/20/1 19/144/1 20/24/1
f 42/1/1 22/29/1 21/25/1
f 43/2/1 25/39/1 32/27/1
f 37/13/1 18/21/1 21/25/1
f 45/30/1 38/40/1 40/31/1
f 28/10/1 29/23/1 30/32/1
f 20/24/1 7/41/1 21/25/1
f 11/15/1 27/16/1 24/34/1
f 49/17/1 44/140/1 43/2/1
f 39/35/1 33/145/1 34/12/1
f 12/8/1 10/142/1 14/36/1
f 20/24/1 19/144/1 1/37/1
f 32/27/1 26/33/1 30/32/1
f 42/1/1 23/26/1 24/34/1
f 24/34/1 27/16/1 28/10/1
f 39/35/1 35/14/1 40/31/1
f 20/24/1 2/6/1 6/5/1
f 1/37/1 3/146/1 4/4/1
f 21/25/1 7/41/1 11/15/1
f 94/42/2 93/78/2 92/43/2
f 37/13/1 22/29/1 40/31/1
f 11/15/1 7/41/1 6/5/1
f 40/31/1 22/29/1 42/1/1
f 32/27/1 31/38/1 47/18/1
f 32/27/1 25/39/1 24/34/1
f 14/36/1 15/147/1 16/22/1
f 91/45/2 90/44/2 92/43/2
f 53/47/2 51/86/2 55/48/2
f 58/50/2 57/59/2 61/51/2
f 77/53/2 62/65/2 61/51/2
f 83/55/2 84/85/2 86/56/2
f 60/58/2 76/54/2 61/51/2
f 98/60/2 97/136/2 96/61/2
f 86/56/2 67/71/2 66/63/2
f 55/48/2 57/59/2 58/50/2
f 77/53/2 78/75/2 65/64/2
f 66/63/2 67/71/2 69/66/2
f 91/45/2 72/84/2 70/68/2
f 92/43/2 95/62/2 81/70/2
f 86/56/2 71/69/2 70/68/2
f 94/42/2 90/44/2 89/72/2
f 77/53/2 75/83/2 79/74/2
f 69/66/2 67/71/2 70/68/2
f 60/58/2 72/84/2 73/77/2
f 98/60/2 95/62/2 92/43/2
f 88/79/2 84/85/2 83/55/2
f 61/51/2 62/65/2 63/81/2
f 69/66/2 51/86/2 50/82/2
f 81/70/2 80/91/2 79/74/2
f 91/45/2 74/46/2 73/77/2
f 73/77/2 75/83/2 77/53/2
f 88/79/2 87/73/2 89/72/2
f 69/66/2 56/76/2 55/48/2
f 50/82/2 51/86/2 53/47/2
f 70/68/2 72/84/2 60/58/2
f 107/88/1 103/94/1 105/89/1
f 86/56/2 84/85/2 89/72/2
f 60/58/2 57/59/2 55/48/2
f 89/72/2 90/44/2 91/45/2
f 81/70/2 95/62/2 96/61/2
f 81/70/2 75/83/2 73/77/2
f 63/81/2 62/65/2 65/64/2
f 104/93/1 127/129/1 105/89/1
f 121/95/1 122/133/1 123/96/1
f 128/98/1 129/132/1 130/99/1
f 99/101/1 111/107/1 130/99/1
f 145/103/1 101/135/1 102/104/1
f 114/106/1 113/100/1 130/99/1
f 135/108/1 132/119/1 133/109/1
f 102/104/1 101/135/1 139/111/1
f 123/96/1 122/133/1 128/98/1
f 99/101/1 131/102/1 138/113/1
f 139/111/1 141/137/1 143/115/1
f 104/93/1 120/120/1 119/116/1
f 105/89/1 127/129/1 142/118/1
f 102/104/1 140/112/1 119/116/1
f 107/88/1 116/130/1 118/121/1
f 99/101/1 100/114/1 125/122/1
f 143/115/1 112/131/1 119/116/1
f 114/106/1 111/107/1 126/124/1
f 135/108/1 106/90/1 105/89/1
f 117/125/1 147/139/1 145/103/1
f 130/99/1 129/132/1 136/126/1
f 143/115/1 141/137/1 108/127/1
f 142/118/1 144/123/1 125/122/1
f 104/93/1 146/117/1 126/124/1
f 126/124/1 111/107/1 99/101/1
f 117/125/1 115/105/1 118/121/1
f 143/115/1 109/97/1 123/96/1
f 108/127/1 110/138/1 121/95/1
f 119/116/1 112/131/1 114/106/1
f 102/104/1 120/120/1 118/121/1
f 114/106/1 112/131/1 123/96/1
f 118/121/1 120/120/1 104/93/1
f 142/118/1 124/128/1 133/109/1
f 142/118/1 127/129/1 126/124/1
f 136/126/1 137/134/1 138/113/1
f 79/74/3 125/122/3 100/114/3
f 68/67/4 141/137/4 139/111/4
f 64/92/5 137/134/5 136/126/6
f 63/81/6 136/126/6 129/132/6
f 54/49/6 122/133/6 121/95/6
f 58/50/6 128/98/6 122/133/6
f 65/64/3 138/113/3 137/134/5
f 78/75/3 100/114/3 138/113/3
f 88/79/7 117/125/7 116/130/7
f 93/78/7 106/90/7 135/108/7
f 85/57/4 66/63/4 139/111/4
f 98/60/7 135/108/7 134/110/8
f 94/42/7 107/88/7 106/90/7
f 59/52/6 129/132/6 128/98/6
f 97/136/8 134/110/8 133/109/3
f 80/91/3 124/128/3 125/122/3
f 96/61/3 133/109/3 124/128/3
f 50/82/4 108/127/4 141/137/4
f 50/82/4 52/87/9 110/138/9
f 83/55/4 145/103/4 147/139/10
f 53/47/6 121/95/6 110/138/9
f 82/80/10 147/139/10 117/125/7
f 83/55/4 85/57/4 101/135/4
f 87/73/7 116/130/7 107/88/7
f 45/30/1 41/3/1 43/2/1
