# Blender v2.91.0 Beta OBJ File: 'decos.blend'
# www.blender.org
o farm-fields.002
v -19.534430 2.338493 20.741060
v -19.534428 1.676948 22.046942
v 19.534431 1.676948 22.046942
v 19.534430 2.338493 20.741060
v -19.534430 1.676952 19.435179
v 19.534430 1.676952 19.435179
v -19.534430 2.338500 8.909591
v -19.534430 1.676956 10.215472
v 19.534430 1.676956 10.215470
v 19.534430 2.338500 8.909589
v -19.534430 1.676960 7.603713
v 19.534430 1.676960 7.603707
v -19.534430 2.338506 -2.921879
v -19.534430 1.676964 -1.615998
v 19.534430 1.676964 -1.616000
v 19.534430 2.338506 -2.921880
v -19.534430 1.676968 -4.227757
v 19.534430 1.676968 -4.227763
v -19.534430 2.338513 -14.753352
v -19.534430 1.676972 -13.447471
v 19.534430 1.676972 -13.447473
v 19.534430 2.338513 -14.753354
v -19.534430 1.676976 -16.059235
v 19.534430 1.676976 -16.059235
v -19.534431 2.338521 -26.584820
v -19.534431 1.676980 -25.278938
v 19.534428 1.676980 -25.278938
v 19.534428 2.338521 -26.584820
v -19.534431 1.676983 -27.890701
v 19.534428 1.676983 -27.890701
vt 0.101562 0.914062
vt 0.101562 0.914062
vt 0.101562 0.914062
vt 0.101562 0.914062
vt 0.101562 0.914062
vt 0.101562 0.914062
vt 0.101562 0.914062
vt 0.101562 0.914062
vt 0.101562 0.914062
vt 0.101562 0.914062
vt 0.101562 0.914062
vt 0.101562 0.914062
vt 0.101562 0.914062
vt 0.101562 0.914062
vt 0.101562 0.914062
vt 0.101562 0.914062
vt 0.101562 0.914062
vt 0.101562 0.914062
vt 0.101562 0.914062
vt 0.101562 0.914062
vt 0.101562 0.914062
vt 0.101562 0.914062
vt 0.101562 0.914062
vt 0.101562 0.914062
vt 0.101562 0.914062
vt 0.101562 0.914062
vt 0.101562 0.914062
vt 0.101562 0.914062
vt 0.101562 0.914062
vt 0.101562 0.914062
vn 0.0000 0.8921 0.4519
vn 0.0000 0.8921 -0.4519
s 1
f 1/1/1 2/2/1 3/3/1 4/4/1
f 5/5/2 1/1/2 4/4/2 6/6/2
f 7/7/1 8/8/1 9/9/1 10/10/1
f 11/11/2 7/7/2 10/10/2 12/12/2
f 13/13/1 14/14/1 15/15/1 16/16/1
f 17/17/2 13/13/2 16/16/2 18/18/2
f 19/19/1 20/20/1 21/21/1 22/22/1
f 23/23/2 19/19/2 22/22/2 24/24/2
f 25/25/1 26/26/1 27/27/1 28/28/1
f 29/29/2 25/25/2 28/28/2 30/30/2
