# Blender v2.91.0 Beta OBJ File: 'HOUSE.blend'
# www.blender.org
o Plane_Plane.004_Plane_Plane.002_Plane_Plane.004_Plane_Plane.001
v -10.000000 2.021290 0.000000
v -10.000000 0.021290 0.000000
v 10.000000 2.021290 0.000000
v 10.000000 0.021290 0.000000
v 0.000000 0.021290 0.000000
v 0.000000 2.021290 0.000000
v -10.000000 2.021290 -0.025253
v -10.000000 0.021290 -0.025253
v 10.000000 2.021290 -0.025253
v 10.000000 0.021290 -0.025253
v 0.000000 0.021290 -0.025253
v 0.000000 2.021290 -0.025253
vt 0.969238 0.793457
vt 0.776855 0.844238
vt 0.776855 0.793457
vt 0.966309 0.793457
vt 0.776855 0.844238
vt 0.969238 0.793457
vt 0.776855 0.793457
vt 0.966309 0.793457
vt 0.969238 0.844238
vt 0.966309 0.844238
vt 0.969238 0.844238
vt 0.966309 0.844238
vn 0.0000 0.0000 1.0000
vn 0.0000 0.0000 -1.0000
s off
f 4/1/1 6/2/1 5/3/1
f 6/2/1 2/4/1 5/3/1
f 12/5/2 10/6/2 11/7/2
f 8/8/2 12/5/2 11/7/2
f 4/1/1 3/9/1 6/2/1
f 6/2/1 1/10/1 2/4/1
f 12/5/2 9/11/2 10/6/2
f 8/8/2 7/12/2 12/5/2
