# Blender v2.91.0 Beta OBJ File: 'HOUSE.blend'
# www.blender.org
o Plane_Plane.004_Plane_Plane.002_Plane_Plane.004_Plane_Plane.001
v 4.554669 9.521862 0.000000
v 4.554669 0.021290 0.000000
v 3.817958 0.021290 0.000000
v -4.554669 9.521862 0.000000
v -4.554669 0.021290 0.000000
v -3.817958 0.021290 0.000000
v 3.817958 9.521862 0.000000
v -3.817958 9.521862 0.000000
v -5.466278 8.199886 0.100126
v 5.466278 8.199886 0.100126
v -5.466278 10.835963 0.100126
v 5.466278 10.835963 0.100126
v -5.163919 10.533605 0.100126
v -5.163919 8.502245 0.100126
v 5.163919 10.533605 0.100126
v 5.163919 8.502245 0.100126
v 0.000000 8.502245 0.100126
v 0.000000 10.533605 0.100126
v 0.000000 8.199886 0.100126
v 0.000000 10.835963 0.100126
v 4.554669 9.521862 -0.054119
v 4.554669 0.021290 -0.054119
v 3.817958 0.021290 -0.054119
v -4.554669 9.521862 -0.054119
v -4.554669 0.021290 -0.054119
v -3.817958 0.021290 -0.054119
v 3.817958 9.521862 -0.054119
v -3.817958 9.521862 -0.054119
v -5.466278 8.199886 0.046006
v 5.466278 8.199886 -0.082562
v -5.466278 10.835963 -0.082562
v 5.466278 10.835963 -0.082562
v -5.163919 10.533605 -0.082562
v -5.163919 8.502245 -0.082562
v 5.163919 10.533605 -0.082562
v 5.163919 8.502245 -0.082562
v 0.000000 8.502245 -0.082562
v 0.000000 10.533605 -0.082562
v 0.000000 8.199886 0.046006
v 0.000000 10.835963 -0.082562
vt 0.945801 0.831543
vt 0.961426 0.806152
vt 0.945801 0.806152
vt 0.961426 0.806152
vt 0.945801 0.831543
vt 0.945801 0.806152
vt 0.806152 0.831543
vt 0.855469 0.839355
vt 0.855469 0.831543
vt 0.877680 0.817871
vt 0.874273 0.804033
vt 0.877680 0.804033
vt 0.821777 0.804199
vt 0.848633 0.797363
vt 0.848633 0.804199
vt 0.874273 0.804033
vt 0.877680 0.804033
vt 0.821777 0.804199
vt 0.806152 0.831543
vt 0.802246 0.839355
vt 0.818848 0.804199
vt 0.861816 0.797363
vt 0.854980 0.804199
vt 0.861816 0.797363
vt 0.818848 0.804199
vt 0.854980 0.804199
vt 0.961426 0.806152
vt 0.945801 0.831543
vt 0.945801 0.806152
vt 0.945801 0.831543
vt 0.961426 0.806152
vt 0.945801 0.806152
vt 0.806152 0.831543
vt 0.855469 0.839355
vt 0.802246 0.839355
vt 0.874273 0.804033
vt 0.877680 0.817871
vt 0.877680 0.804033
vt 0.848633 0.797363
vt 0.821777 0.804199
vt 0.848633 0.804199
vt 0.874273 0.804033
vt 0.877680 0.804033
vt 0.821777 0.804199
vt 0.806152 0.831543
vt 0.855469 0.831543
vt 0.861816 0.797363
vt 0.818848 0.804199
vt 0.854980 0.804199
vt 0.818848 0.804199
vt 0.861816 0.797363
vt 0.854980 0.804199
vt 0.961426 0.831543
vt 0.961426 0.831543
vt 0.802246 0.839355
vt 0.874273 0.817871
vt 0.819824 0.797363
vt 0.819824 0.797363
vt 0.811035 0.797363
vt 0.811035 0.797363
vt 0.961426 0.831543
vt 0.961426 0.831543
vt 0.874273 0.817871
vt 0.819824 0.797363
vt 0.819824 0.797363
vt 0.802246 0.839355
vt 0.811035 0.797363
vt 0.811035 0.797363
vn 0.0000 0.0000 1.0000
vn 0.0000 0.0000 -1.0000
vn 0.0000 -0.3913 -0.9203
vn -0.3913 0.0000 -0.9203
vn -0.0235 -0.0235 -0.9994
vn -0.0487 -0.0487 -0.9976
s off
f 8/1/1 5/2/1 6/3/1
f 2/4/1 7/5/1 3/6/1
f 15/7/1 20/8/1 18/9/1
f 17/10/1 13/11/1 14/12/1
f 14/13/1 19/14/1 17/15/1
f 15/16/1 17/10/1 16/17/1
f 19/14/1 16/18/1 17/15/1
f 13/19/1 20/8/1 11/20/1
f 13/21/1 9/22/1 14/23/1
f 10/24/1 15/25/1 16/26/1
f 25/27/2 28/28/2 26/29/2
f 27/30/2 22/31/2 23/32/2
f 35/33/2 40/34/2 32/35/2
f 33/36/2 37/37/2 34/38/2
f 39/39/3 34/40/3 37/41/3
f 37/37/2 35/42/2 36/43/2
f 36/44/3 39/39/3 37/41/3
f 33/45/2 40/34/2 38/46/2
f 29/47/4 33/48/4 34/49/4
f 35/50/2 30/51/2 36/52/2
f 8/1/1 4/53/1 5/2/1
f 2/4/1 1/54/1 7/5/1
f 15/7/1 12/55/1 20/8/1
f 17/10/1 18/56/1 13/11/1
f 14/13/1 9/57/1 19/14/1
f 15/16/1 18/56/1 17/10/1
f 19/14/1 10/58/1 16/18/1
f 13/19/1 18/9/1 20/8/1
f 13/21/1 11/59/1 9/22/1
f 10/24/1 12/60/1 15/25/1
f 25/27/2 24/61/2 28/28/2
f 27/30/2 21/62/2 22/31/2
f 35/33/2 38/46/2 40/34/2
f 33/36/2 38/63/2 37/37/2
f 39/39/3 29/64/3 34/40/3
f 37/37/2 38/63/2 35/42/2
f 36/44/5 30/65/5 39/39/5
f 33/45/2 31/66/2 40/34/2
f 29/47/6 31/67/6 33/48/6
f 35/50/2 32/68/2 30/51/2
