# Blender v2.91.0 Beta OBJ File: 'HOUSE.blend'
# www.blender.org
o Plane_Plane.004_Plane_Plane.009
v -19.963501 0.025267 0.025614
v -19.942453 -0.251504 10.040374
v -9.859288 -0.142664 9.945497
v -20.134792 0.176665 19.975880
v -10.151844 0.118859 19.894615
v 0.135306 0.167277 -0.010043
v 0.115849 0.114613 9.902123
v 10.004410 -0.159159 9.792628
v 0.100006 0.053537 20.012955
v 10.027008 -0.106236 20.028345
v 19.908852 -0.030843 20.081974
v 19.983297 0.217762 9.995112
v -20.022465 0.078043 -20.124819
v -19.928091 0.042319 -10.029832
v -9.981361 0.014969 -10.017700
v -9.982121 -0.034130 0.034849
v -0.272357 0.049939 -9.980169
v 0.023362 -0.208941 -19.996454
v -10.140314 -0.258464 -20.021431
v 10.055143 0.069345 -10.002626
v 10.059236 -0.116848 -0.141784
v 20.082682 0.126903 -0.029060
v 19.958660 -0.210769 -10.007776
v 19.813219 0.032417 -19.827072
v 10.076679 0.131079 -20.227964
v -19.479675 -0.161463 0.024119
v -19.459137 -0.431535 9.796467
v -9.620039 -0.325330 9.703886
v -19.646820 -0.013729 19.491480
v -9.905514 -0.070137 19.412182
v 0.132632 -0.022890 -0.010675
v 0.113645 -0.074280 9.661563
v 9.762849 -0.341424 9.554718
v 0.098186 -0.133878 19.527657
v 9.784901 -0.289783 19.542675
v 19.427549 -0.216215 19.595005
v 19.500193 0.026373 9.752301
v -19.537212 -0.109964 -19.638563
v -19.445122 -0.144824 -9.787930
v -9.739158 -0.171512 -9.776093
v -9.739900 -0.219422 0.033130
v -0.265164 -0.137388 -9.739470
v 0.023397 -0.390002 -19.513306
v -9.894262 -0.438326 -19.537678
v 9.812355 -0.118452 -9.761383
v 9.816348 -0.300138 -0.139227
v 19.597172 -0.062287 -0.029232
v 19.476152 -0.391786 -9.766409
v 19.334232 -0.154486 -19.348024
v 9.833369 -0.058213 -19.739212
v -19.459137 1.304436 9.796467
v -19.479675 1.574507 0.024119
v -9.620039 1.410641 9.703886
v 9.784901 1.446187 19.542675
v 0.098186 1.602093 19.527657
v -9.739158 1.564458 -9.776093
v -9.739900 1.516548 0.033130
v -0.265164 1.598582 -9.739470
v 0.023397 1.345968 -19.513306
v -9.894262 1.297644 -19.537678
v 19.476152 1.344184 -9.766409
v 19.597172 1.673683 -0.029232
v -19.646820 1.722241 19.491480
v 0.132632 1.713080 -0.010675
v 0.113645 1.661690 9.661563
v 9.762849 1.394546 9.554718
v 19.427549 1.519755 19.595005
v 9.812355 1.617518 -9.761383
v 9.816348 1.435832 -0.139227
v 19.334232 1.581484 -19.348024
v 9.833369 1.677757 -19.739212
v -9.905514 1.665833 19.412182
v 19.500193 1.762343 9.752301
v -19.445122 1.591146 -9.787930
v -19.537212 1.626006 -19.638563
vt 0.492676 0.750488
vt 0.492676 0.517090
vt 0.256348 0.517090
vt 0.492676 0.750488
vt 0.256348 0.750488
vt 0.492676 0.750488
vt 0.492676 0.517090
vt 0.492676 0.750488
vt 0.256348 0.750488
vt 0.256348 0.517090
vt 0.256348 0.750488
vt 0.492676 0.750488
vt 0.492676 0.517090
vt 0.492676 0.750488
vt 0.256348 0.750488
vt 0.492676 0.750488
vt 0.492676 0.517090
vt 0.256348 0.517090
vt 0.492676 0.517090
vt 0.492676 0.750488
vt 0.256348 0.750488
vt 0.256348 0.517090
vt 0.492676 0.517090
vt 0.492676 0.750488
vt 0.256348 0.750488
vt 0.265137 0.637207
vt 0.321777 0.580566
vt 0.265137 0.580566
vt 0.319824 0.525879
vt 0.264160 0.525879
vt 0.376465 0.580566
vt 0.376465 0.522949
vt 0.376465 0.637207
vt 0.321777 0.637207
vt 0.434082 0.580566
vt 0.434082 0.522949
vt 0.487793 0.580566
vt 0.487793 0.522949
vt 0.489746 0.637207
vt 0.434082 0.637207
vt 0.265137 0.748535
vt 0.321777 0.690918
vt 0.265137 0.690918
vt 0.375488 0.690918
vt 0.376465 0.748535
vt 0.319824 0.748535
vt 0.434082 0.690918
vt 0.487793 0.690918
vt 0.487793 0.748535
vt 0.434082 0.750488
vt 0.265137 0.637207
vt 0.265137 0.580566
vt 0.321777 0.580566
vt 0.264160 0.525879
vt 0.319824 0.525879
vt 0.376465 0.522949
vt 0.376465 0.580566
vt 0.376465 0.637207
vt 0.321777 0.637207
vt 0.434082 0.580566
vt 0.434082 0.522949
vt 0.487793 0.522949
vt 0.487793 0.580566
vt 0.489746 0.637207
vt 0.434082 0.637207
vt 0.265137 0.748535
vt 0.265137 0.690918
vt 0.321777 0.690918
vt 0.375488 0.690918
vt 0.376465 0.748535
vt 0.319824 0.748535
vt 0.434082 0.690918
vt 0.487793 0.690918
vt 0.487793 0.748535
vt 0.434082 0.750488
vn -0.0024 0.9998 0.0194
vn -0.0109 0.9999 -0.0082
vn -0.0094 0.9999 -0.0042
vn -0.0029 0.9994 -0.0348
vn 0.0061 0.9996 -0.0261
vn -0.0096 0.9999 -0.0100
vn -0.0258 0.9997 0.0056
vn -0.0228 0.9997 0.0082
vn -0.0069 0.9999 0.0110
vn 0.0282 0.9996 0.0049
vn 0.0277 0.9996 0.0057
vn -0.0009 1.0000 0.0031
vn 0.0218 0.9998 0.0003
vn 0.0042 1.0000 -0.0052
vn -0.0227 0.9997 0.0094
vn -0.0379 0.9993 0.0076
vn -0.0310 0.9995 -0.0027
vn 0.0020 1.0000 0.0043
vn 0.0186 0.9998 -0.0122
vn 0.0027 1.0000 0.0026
vn 0.0016 1.0000 -0.0097
vn 0.0044 1.0000 0.0033
vn -0.0070 1.0000 0.0049
vn -0.0119 0.9999 -0.0032
vn -0.0035 0.9998 -0.0187
vn -0.0042 0.9996 -0.0266
vn 0.0150 0.9995 -0.0276
vn -0.0177 0.9998 -0.0101
vn -0.0019 0.9998 -0.0188
vn 0.0041 1.0000 0.0003
vn 0.0130 0.9999 0.0031
vn 0.0022 0.9998 0.0189
vn 0.0019 1.0000 -0.0077
vn 0.0283 0.9996 -0.0052
vn 0.0189 0.9997 0.0150
vn -0.0120 0.9999 0.0060
vn 0.0024 -0.9998 -0.0194
vn 0.0094 -0.9999 0.0042
vn 0.0109 -0.9999 0.0082
vn -0.0061 -0.9996 0.0261
vn 0.0029 -0.9994 0.0348
vn 0.0258 -0.9997 -0.0056
vn 0.0096 -0.9999 0.0100
vn 0.0228 -0.9997 -0.0082
vn 0.0069 -0.9999 -0.0110
vn -0.0282 -0.9996 -0.0049
vn 0.0009 -1.0000 -0.0031
vn -0.0277 -0.9996 -0.0057
vn -0.0042 -1.0000 0.0052
vn -0.0218 -0.9998 -0.0003
vn 0.0379 -0.9993 -0.0076
vn 0.0227 -0.9997 -0.0094
vn 0.0310 -0.9995 0.0027
vn -0.0020 -1.0000 -0.0043
vn -0.0186 -0.9998 0.0122
vn -0.0016 -1.0000 0.0097
vn -0.0027 -1.0000 -0.0026
vn 0.0070 -1.0000 -0.0049
vn -0.0044 -1.0000 -0.0033
vn 0.0035 -0.9998 0.0187
vn 0.0119 -0.9999 0.0032
vn 0.0042 -0.9996 0.0266
vn -0.0150 -0.9995 0.0276
vn 0.0177 -0.9998 0.0101
vn -0.0041 -1.0000 -0.0003
vn 0.0019 -0.9998 0.0188
vn -0.0022 -0.9998 -0.0189
vn -0.0130 -0.9999 -0.0031
vn -0.0283 -0.9996 0.0052
vn -0.0019 -1.0000 0.0077
vn -0.0189 -0.9997 -0.0150
vn 0.0120 -0.9999 -0.0060
vn 0.0088 0.0000 -1.0000
vn 0.7090 0.0000 -0.7052
vn 0.7236 0.0000 -0.6902
vn 1.0000 0.0000 0.0086
vn 1.0000 0.0000 0.0099
vn 1.0000 0.0000 0.0087
vn -0.7195 0.0000 0.6945
vn -0.0017 0.0000 1.0000
vn -0.7023 0.0000 0.7119
vn 0.9999 0.0000 -0.0124
vn 0.9999 0.0000 -0.0136
vn -1.0000 0.0000 0.0021
vn -1.0000 0.0000 -0.0087
vn -0.0115 0.0000 0.9999
vn -1.0000 0.0000 0.0029
vn -1.0000 0.0000 -0.0035
vn -1.0000 0.0000 -0.0086
vn 0.7098 0.0000 0.7044
vn 0.6952 0.0000 0.7188
vn -0.0016 0.0000 1.0000
vn -0.0035 0.0000 1.0000
vn -0.6998 0.0000 -0.7144
vn -0.7138 0.0000 -0.7004
vn -0.0230 0.0000 -0.9997
vn 0.0093 0.0000 -1.0000
vn 0.0065 0.0000 -1.0000
vn 0.0064 0.0000 -1.0000
vn 0.0025 0.0000 -1.0000
s 1
f 1/1/1 2/2/2 3/3/3
f 3/3/3 4/4/4 5/5/5
f 3/3/3 9/6/6 7/7/7
f 6/8/8 3/3/3 7/7/7
f 3/3/3 2/2/2 4/4/4
f 1/1/1 3/3/3 16/9/9
f 3/3/3 5/5/5 9/6/6
f 6/8/8 16/9/9 3/3/3
f 6/8/10 7/7/11 8/10/12
f 8/10/12 9/6/13 10/11/14
f 8/10/12 11/12/15 12/13/16
f 22/14/17 8/10/12 12/13/16
f 8/10/12 7/7/11 9/6/13
f 6/8/10 8/10/12 21/15/18
f 8/10/12 10/11/14 11/12/15
f 22/14/17 21/15/18 8/10/12
f 13/16/19 14/17/20 15/18/21
f 15/18/21 1/1/22 16/9/23
f 15/18/21 6/8/24 17/19/25
f 18/20/26 15/18/21 17/19/25
f 15/18/21 14/17/20 1/1/22
f 13/16/19 15/18/21 19/21/27
f 15/18/21 16/9/23 6/8/24
f 18/20/26 19/21/27 15/18/21
f 18/20/28 17/19/29 20/22/30
f 20/22/30 6/8/31 21/15/32
f 20/22/30 22/14/33 23/23/34
f 24/24/35 20/22/30 23/23/34
f 20/22/30 17/19/29 6/8/31
f 18/20/28 20/22/30 25/25/36
f 20/22/30 21/15/32 22/14/33
f 24/24/35 25/25/36 20/22/30
f 26/26/37 28/27/38 27/28/39
f 28/27/38 30/29/40 29/30/41
f 28/27/38 32/31/42 34/32/43
f 31/33/44 32/31/42 28/27/38
f 28/27/38 29/30/41 27/28/39
f 26/26/37 41/34/45 28/27/38
f 28/27/38 34/32/43 30/29/40
f 31/33/44 28/27/38 41/34/45
f 31/33/46 33/35/47 32/31/48
f 33/35/47 35/36/49 34/32/50
f 33/35/47 37/37/51 36/38/52
f 47/39/53 37/37/51 33/35/47
f 33/35/47 34/32/50 32/31/48
f 31/33/46 46/40/54 33/35/47
f 33/35/47 36/38/52 35/36/49
f 47/39/53 33/35/47 46/40/54
f 38/41/55 40/42/56 39/43/57
f 40/42/56 41/34/58 26/26/59
f 40/42/56 42/44/60 31/33/61
f 43/45/62 42/44/60 40/42/56
f 40/42/56 26/26/59 39/43/57
f 38/41/55 44/46/63 40/42/56
f 40/42/56 31/33/61 41/34/58
f 43/45/62 40/42/56 44/46/63
f 43/45/64 45/47/65 42/44/66
f 45/47/65 46/40/67 31/33/68
f 45/47/65 48/48/69 47/39/70
f 49/49/71 48/48/69 45/47/65
f 45/47/65 31/33/68 42/44/66
f 43/45/64 50/50/72 45/47/65
f 45/47/65 47/39/70 46/40/67
f 49/49/71 45/47/65 50/50/72
f 52/51/1 51/52/2 53/53/3
f 53/53/3 63/54/4 72/55/5
f 53/53/3 55/56/6 65/57/7
f 64/58/8 53/53/3 65/57/7
f 53/53/3 51/52/2 63/54/4
f 52/51/1 53/53/3 57/59/9
f 53/53/3 72/55/5 55/56/6
f 64/58/8 57/59/9 53/53/3
f 64/58/10 65/57/11 66/60/12
f 66/60/12 55/56/13 54/61/14
f 66/60/12 67/62/15 73/63/16
f 62/64/17 66/60/12 73/63/16
f 66/60/12 65/57/11 55/56/13
f 64/58/10 66/60/12 69/65/18
f 66/60/12 54/61/14 67/62/15
f 62/64/17 69/65/18 66/60/12
f 75/66/19 74/67/20 56/68/21
f 56/68/21 52/51/22 57/59/23
f 56/68/21 64/58/24 58/69/25
f 59/70/26 56/68/21 58/69/25
f 56/68/21 74/67/20 52/51/22
f 75/66/19 56/68/21 60/71/27
f 56/68/21 57/59/23 64/58/24
f 59/70/26 60/71/27 56/68/21
f 59/70/28 58/69/29 68/72/30
f 68/72/30 64/58/31 69/65/32
f 68/72/30 62/64/33 61/73/34
f 70/74/35 68/72/30 61/73/34
f 68/72/30 58/69/29 64/58/31
f 59/70/28 68/72/30 71/75/36
f 68/72/30 69/65/32 62/64/33
f 70/74/35 71/75/36 68/72/30
f 50/50/73 70/74/74 49/49/75
f 37/37/76 62/64/77 73/63/78
f 29/30/79 72/55/80 63/54/81
f 47/39/82 61/73/83 62/64/82
f 26/26/84 51/52/85 52/51/84
f 30/29/80 55/56/86 72/55/80
f 39/43/87 52/51/88 74/67/87
f 29/30/79 51/52/85 27/28/89
f 37/37/76 67/62/90 36/38/91
f 34/32/92 54/61/93 55/56/92
f 49/49/75 61/73/83 48/48/83
f 38/41/94 74/67/87 75/66/95
f 50/50/73 59/70/96 71/75/97
f 36/38/91 54/61/93 35/36/93
f 38/41/94 60/71/98 44/46/99
f 43/45/100 60/71/98 59/70/100
f 50/50/73 71/75/97 70/74/74
f 37/37/76 47/39/77 62/64/77
f 29/30/79 30/29/80 72/55/80
f 47/39/82 48/48/83 61/73/83
f 26/26/84 27/28/89 51/52/85
f 30/29/80 34/32/86 55/56/86
f 39/43/87 26/26/88 52/51/88
f 29/30/79 63/54/81 51/52/85
f 37/37/76 73/63/78 67/62/90
f 34/32/92 35/36/93 54/61/93
f 49/49/75 70/74/74 61/73/83
f 38/41/94 39/43/87 74/67/87
f 50/50/73 43/45/96 59/70/96
f 36/38/91 67/62/90 54/61/93
f 38/41/94 75/66/95 60/71/98
f 43/45/100 44/46/99 60/71/98
