# Blender v2.91.0 Beta OBJ File: 'decos.blend'
# www.blender.org
o Cube.002_Cube.012
v -0.176728 -7.701632 0.180016
v -0.176728 2.000000 0.180017
v -0.176728 2.000000 -0.180017
v -0.176728 -7.701632 -0.180018
v 0.176582 -7.701632 0.180016
v 0.176582 2.000000 0.180017
v 0.176582 -7.701632 -0.180018
v 0.176582 2.000000 -0.180017
v -0.838876 -7.701632 0.058424
v -0.838876 1.492032 0.058425
v -0.953544 1.492032 0.058425
v -0.953544 -7.701632 0.058424
v -0.953544 1.492032 -0.058425
v -0.953544 -7.701632 -0.058426
v -0.838876 1.492032 -0.058425
v -0.838876 -7.701632 -0.058426
v -0.896210 1.944020 0.000000
v -1.964487 -7.701632 0.058424
v -1.964487 1.492032 0.058425
v -2.079155 1.492032 0.058425
v -2.079155 -7.701632 0.058424
v -2.079155 1.492032 -0.058425
v -2.079155 -7.701632 -0.058426
v -1.964487 1.492032 -0.058425
v -1.964487 -7.701632 -0.058426
v -2.021821 1.944020 0.000000
v -3.076006 -7.701632 0.058424
v -3.076006 1.492032 0.058425
v -3.190673 1.492032 0.058425
v -3.190673 -7.701632 0.058424
v -3.190673 1.492032 -0.058425
v -3.190673 -7.701632 -0.058426
v -3.076006 1.492032 -0.058425
v -3.076006 -7.701632 -0.058426
v -3.133339 1.944020 0.000000
v -4.271340 -7.701632 0.058424
v -4.271340 1.492032 0.058425
v -4.386008 1.492032 0.058425
v -4.386008 -7.701632 0.058424
v -4.386008 1.492032 -0.058425
v -4.386008 -7.701632 -0.058426
v -4.271340 1.492032 -0.058425
v -4.271340 -7.701632 -0.058426
v -4.328674 1.944020 0.000000
v 9.823344 1.049586 -0.008755
v -9.823344 1.049586 -0.008755
v -9.823344 0.892669 0.148162
v 9.823344 0.892669 0.148162
v -9.646690 -7.701632 0.180016
v -9.646690 -7.701632 -0.180018
v -9.646690 2.000000 -0.180017
v -9.646690 2.000000 0.180017
v -10.000000 -7.701632 0.180016
v -10.000000 2.000000 0.180017
v -10.000000 -7.701632 -0.180018
v -10.000000 2.000000 -0.180017
v -8.984543 -7.701632 0.058424
v -8.869875 -7.701632 0.058424
v -8.869875 1.492032 0.058425
v -8.984543 1.492032 0.058425
v -8.869875 -7.701632 -0.058426
v -8.869875 1.492032 -0.058425
v -8.984543 -7.701632 -0.058426
v -8.984543 1.492032 -0.058425
v -8.927209 1.944020 0.000000
v -7.858931 -7.701632 0.058424
v -7.744263 -7.701632 0.058424
v -7.744263 1.492032 0.058425
v -7.858931 1.492032 0.058425
v -7.744263 -7.701632 -0.058426
v -7.744263 1.492032 -0.058425
v -7.858931 -7.701632 -0.058426
v -7.858931 1.492032 -0.058425
v -7.801597 1.944020 0.000000
v -6.747412 -7.701632 0.058424
v -6.632745 -7.701632 0.058424
v -6.632745 1.492032 0.058425
v -6.747412 1.492032 0.058425
v -6.632745 -7.701632 -0.058426
v -6.632745 1.492032 -0.058425
v -6.747412 -7.701632 -0.058426
v -6.747412 1.492032 -0.058425
v -6.690079 1.944020 0.000000
v -5.552077 -7.701632 0.058424
v -5.437410 -7.701632 0.058424
v -5.437410 1.492032 0.058425
v -5.552077 1.492032 0.058425
v -5.437410 -7.701632 -0.058426
v -5.437410 1.492032 -0.058425
v -5.552077 -7.701632 -0.058426
v -5.552077 1.492032 -0.058425
v -5.494744 1.944020 0.000000
v -9.823344 0.910179 -0.148163
v -9.823344 0.753261 0.008755
v 0.838876 -7.701632 0.058424
v 0.953544 -7.701632 0.058424
v 0.953544 1.492032 0.058425
v 0.838876 1.492032 0.058425
v 0.953544 -7.701632 -0.058426
v 0.953544 1.492032 -0.058425
v 0.838876 -7.701632 -0.058426
v 0.838876 1.492032 -0.058425
v 0.896210 1.944020 0.000000
v 1.964487 -7.701632 0.058424
v 2.079155 -7.701632 0.058424
v 2.079155 1.492032 0.058425
v 1.964487 1.492032 0.058425
v 2.079155 -7.701632 -0.058426
v 2.079155 1.492032 -0.058425
v 1.964487 -7.701632 -0.058426
v 1.964487 1.492032 -0.058425
v 2.021821 1.944020 0.000000
v 3.076006 -7.701632 0.058424
v 3.190673 -7.701632 0.058424
v 3.190673 1.492032 0.058425
v 3.076006 1.492032 0.058425
v 3.190673 -7.701632 -0.058426
v 3.190673 1.492032 -0.058425
v 3.076006 -7.701632 -0.058426
v 3.076006 1.492032 -0.058425
v 3.133339 1.944020 0.000000
v 4.271340 -7.701632 0.058424
v 4.386008 -7.701632 0.058424
v 4.386008 1.492032 0.058425
v 4.271340 1.492032 0.058425
v 4.386008 -7.701632 -0.058426
v 4.386008 1.492032 -0.058425
v 4.271340 -7.701632 -0.058426
v 4.271340 1.492032 -0.058425
v 4.328674 1.944020 0.000000
v 9.823344 0.910179 -0.148163
v 9.823344 0.753261 0.008755
v 9.646690 -7.701632 0.180016
v 9.646690 2.000000 0.180017
v 9.646690 2.000000 -0.180017
v 9.646690 -7.701632 -0.180018
v 10.000000 -7.701632 0.180016
v 10.000000 2.000000 0.180017
v 10.000000 -7.701632 -0.180018
v 10.000000 2.000000 -0.180017
v 8.984543 -7.701632 0.058424
v 8.984543 1.492032 0.058425
v 8.869875 1.492032 0.058425
v 8.869875 -7.701632 0.058424
v 8.869875 1.492032 -0.058425
v 8.869875 -7.701632 -0.058426
v 8.984543 1.492032 -0.058425
v 8.984543 -7.701632 -0.058426
v 8.927209 1.944020 0.000000
v 7.858931 -7.701632 0.058424
v 7.858931 1.492032 0.058425
v 7.744263 1.492032 0.058425
v 7.744263 -7.701632 0.058424
v 7.744263 1.492032 -0.058425
v 7.744263 -7.701632 -0.058426
v 7.858931 1.492032 -0.058425
v 7.858931 -7.701632 -0.058426
v 7.801597 1.944020 0.000000
v 6.747412 -7.701632 0.058424
v 6.747412 1.492032 0.058425
v 6.632745 1.492032 0.058425
v 6.632745 -7.701632 0.058424
v 6.632745 1.492032 -0.058425
v 6.632745 -7.701632 -0.058426
v 6.747412 1.492032 -0.058425
v 6.747412 -7.701632 -0.058426
v 6.690079 1.944020 0.000000
v 5.552077 -7.701632 0.058424
v 5.552077 1.492032 0.058425
v 5.437410 1.492032 0.058425
v 5.437410 -7.701632 0.058424
v 5.437410 1.492032 -0.058425
v 5.437410 -7.701632 -0.058426
v 5.552077 1.492032 -0.058425
v 5.552077 -7.701632 -0.058426
v 5.494744 1.944020 0.000000
vt 0.164062 0.773438
vt 0.164062 0.773438
vt 0.164062 0.773438
vt 0.164062 0.773438
vt 0.164062 0.773438
vt 0.164062 0.773438
vt 0.164062 0.773438
vt 0.164062 0.773438
vt 0.164062 0.773438
vt 0.164062 0.773438
vt 0.164062 0.773438
vt 0.164062 0.773438
vt 0.164062 0.773438
vt 0.164062 0.773438
vt 0.164062 0.773438
vt 0.164062 0.773438
vt 0.164062 0.773438
vt 0.164062 0.773438
vt 0.164062 0.773438
vt 0.164062 0.773438
vt 0.164062 0.773438
vt 0.164062 0.773438
vt 0.164062 0.773438
vt 0.164062 0.773438
vt 0.164062 0.773438
vt 0.164062 0.773438
vt 0.164062 0.773438
vt 0.164062 0.773438
vt 0.164062 0.773438
vt 0.164062 0.773438
vt 0.164062 0.773438
vt 0.164062 0.773438
vt 0.164062 0.773438
vt 0.164062 0.773438
vt 0.164062 0.773438
vt 0.164062 0.773438
vt 0.164062 0.773438
vt 0.164062 0.773438
vt 0.164062 0.773438
vt 0.164062 0.773438
vt 0.164062 0.773438
vt 0.164062 0.773438
vt 0.164062 0.773438
vt 0.164062 0.773438
vt 0.164062 0.773438
vt 0.164062 0.773438
vt 0.164062 0.773438
vt 0.164062 0.773438
vt 0.164062 0.773438
vt 0.164062 0.773438
vt 0.164062 0.773438
vt 0.164062 0.773438
vt 0.164062 0.773438
vt 0.164062 0.773438
vt 0.164062 0.773438
vt 0.164062 0.773438
vt 0.164062 0.773438
vt 0.164062 0.773438
vt 0.164062 0.773438
vt 0.164062 0.773438
vt 0.164062 0.773438
vt 0.164062 0.773438
vt 0.164062 0.773438
vt 0.164062 0.773438
vt 0.164062 0.773438
vt 0.164062 0.773438
vt 0.164062 0.773438
vt 0.164062 0.773438
vt 0.164062 0.773438
vt 0.164062 0.773438
vt 0.164062 0.773438
vt 0.164062 0.773438
vt 0.164062 0.773438
vt 0.164062 0.773438
vt 0.164062 0.773438
vt 0.164062 0.773438
vt 0.164062 0.773438
vt 0.164062 0.773438
vt 0.164062 0.773438
vt 0.164062 0.773438
vt 0.164062 0.773438
vt 0.164062 0.773438
vt 0.164062 0.773438
vt 0.164062 0.773438
vt 0.164062 0.773438
vt 0.164062 0.773438
vt 0.164062 0.773438
vt 0.164062 0.773438
vt 0.164062 0.773438
vt 0.164062 0.773438
vt 0.164062 0.773438
vt 0.164062 0.773438
vt 0.164062 0.773438
vt 0.164062 0.773438
vt 0.164062 0.773438
vt 0.164062 0.773438
vt 0.164062 0.773438
vt 0.164062 0.773438
vt 0.164062 0.773438
vt 0.164062 0.773438
vt 0.164062 0.773438
vt 0.164062 0.773438
vt 0.164062 0.773438
vt 0.164062 0.773438
vt 0.164062 0.773438
vt 0.164062 0.773438
vt 0.164062 0.773438
vt 0.164062 0.773438
vt 0.164062 0.773438
vt 0.164062 0.773438
vt 0.164062 0.773438
vt 0.164062 0.773438
vt 0.164062 0.773438
vt 0.164062 0.773438
vt 0.164062 0.773438
vt 0.164062 0.773438
vt 0.164062 0.773438
vt 0.164062 0.773438
vt 0.164062 0.773438
vt 0.164062 0.773438
vt 0.164062 0.773438
vt 0.164062 0.773438
vt 0.164062 0.773438
vt 0.164062 0.773438
vt 0.164062 0.773438
vt 0.164062 0.773438
vt 0.164062 0.773438
vt 0.164062 0.773438
vt 0.164062 0.773438
vt 0.164062 0.773438
vt 0.164062 0.773438
vt 0.164062 0.773438
vt 0.164062 0.773438
vt 0.164062 0.773438
vt 0.164062 0.773438
vt 0.164062 0.773438
vt 0.164062 0.773438
vt 0.164062 0.773438
vt 0.164062 0.773438
vt 0.164062 0.773438
vt 0.164062 0.773438
vt 0.164062 0.773438
vt 0.164062 0.773438
vt 0.164062 0.773438
vt 0.164062 0.773438
vt 0.164062 0.773438
vt 0.164062 0.773438
vt 0.164062 0.773438
vt 0.164062 0.773438
vt 0.164062 0.773438
vt 0.164062 0.773438
vt 0.164062 0.773438
vt 0.164062 0.773438
vt 0.164062 0.773438
vt 0.164062 0.773438
vt 0.164062 0.773438
vt 0.164062 0.773438
vt 0.164062 0.773438
vt 0.164062 0.773438
vt 0.164062 0.773438
vt 0.164062 0.773438
vt 0.164062 0.773438
vt 0.164062 0.773438
vt 0.164062 0.773438
vt 0.164062 0.773438
vt 0.164062 0.773438
vt 0.164062 0.773438
vt 0.164062 0.773438
vt 0.164062 0.773438
vt 0.164062 0.773438
vt 0.164062 0.773438
vt 0.164062 0.773438
vt 0.164062 0.773438
vt 0.164062 0.773438
vt 0.164062 0.773438
vt 0.164062 0.773438
vn -1.0000 -0.0000 0.0000
vn 0.0000 -0.0000 1.0000
vn 1.0000 0.0000 0.0000
vn 0.0000 0.0000 -1.0000
vn 0.0000 0.1282 0.9917
vn 0.9921 0.1258 0.0000
vn -0.9921 0.1258 0.0000
vn 0.0000 0.1282 -0.9917
vn 0.0000 0.7071 0.7071
vn 0.0000 1.0000 0.0000
vn -0.9920 0.1258 0.0000
vn 0.0000 0.7071 -0.7071
vn 0.0000 -0.7071 0.7071
vn 0.0000 -0.7071 -0.7071
vn 0.9920 0.1258 0.0000
s 1
f 1/1/1 2/2/1 3/3/1 4/4/1
f 5/5/2 6/6/2 2/2/2 1/1/2
f 7/7/3 8/8/3 6/6/3 5/5/3
f 4/4/4 3/3/4 8/8/4 7/7/4
f 9/9/2 10/10/2 11/11/2 12/12/2
f 12/12/1 11/11/1 13/13/1 14/14/1
f 14/14/4 13/13/4 15/15/4 16/16/4
f 16/16/3 15/15/3 10/10/3 9/9/3
f 11/11/5 10/10/5 17/17/5
f 10/10/6 15/15/6 17/17/6
f 13/13/7 11/11/7 17/17/7
f 15/15/8 13/13/8 17/17/8
f 18/18/2 19/19/2 20/20/2 21/21/2
f 21/21/1 20/20/1 22/22/1 23/23/1
f 23/23/4 22/22/4 24/24/4 25/25/4
f 25/25/3 24/24/3 19/19/3 18/18/3
f 20/20/5 19/19/5 26/26/5
f 19/19/6 24/24/6 26/26/6
f 22/22/7 20/20/7 26/26/7
f 24/24/8 22/22/8 26/26/8
f 27/27/2 28/28/2 29/29/2 30/30/2
f 30/30/1 29/29/1 31/31/1 32/32/1
f 32/32/4 31/31/4 33/33/4 34/34/4
f 34/34/3 33/33/3 28/28/3 27/27/3
f 29/29/5 28/28/5 35/35/5
f 28/28/6 33/33/6 35/35/6
f 31/31/7 29/29/7 35/35/7
f 33/33/8 31/31/8 35/35/8
f 36/36/2 37/37/2 38/38/2 39/39/2
f 39/39/1 38/38/1 40/40/1 41/41/1
f 41/41/4 40/40/4 42/42/4 43/43/4
f 43/43/3 42/42/3 37/37/3 36/36/3
f 38/38/5 37/37/5 44/44/5
f 37/37/6 42/42/6 44/44/6
f 40/40/7 38/38/7 44/44/7
f 42/42/8 40/40/8 44/44/8
f 45/45/9 46/46/9 47/47/9 48/48/9
f 3/3/10 2/2/10 6/6/10 8/8/10
f 49/49/3 50/50/3 51/51/3 52/52/3
f 53/53/2 49/49/2 52/52/2 54/54/2
f 55/55/1 53/53/1 54/54/1 56/56/1
f 50/50/4 55/55/4 56/56/4 51/51/4
f 57/57/2 58/58/2 59/59/2 60/60/2
f 58/58/3 61/61/3 62/62/3 59/59/3
f 61/61/4 63/63/4 64/64/4 62/62/4
f 63/63/1 57/57/1 60/60/1 64/64/1
f 59/59/5 65/65/5 60/60/5
f 60/60/11 65/65/11 64/64/11
f 62/62/6 65/65/6 59/59/6
f 64/64/8 65/65/8 62/62/8
f 66/66/2 67/67/2 68/68/2 69/69/2
f 67/67/3 70/70/3 71/71/3 68/68/3
f 70/70/4 72/72/4 73/73/4 71/71/4
f 72/72/1 66/66/1 69/69/1 73/73/1
f 68/68/5 74/74/5 69/69/5
f 69/69/7 74/74/7 73/73/7
f 71/71/6 74/74/6 68/68/6
f 73/73/8 74/74/8 71/71/8
f 75/75/2 76/76/2 77/77/2 78/78/2
f 76/76/3 79/79/3 80/80/3 77/77/3
f 79/79/4 81/81/4 82/82/4 80/80/4
f 81/81/1 75/75/1 78/78/1 82/82/1
f 77/77/5 83/83/5 78/78/5
f 78/78/7 83/83/7 82/82/7
f 80/80/6 83/83/6 77/77/6
f 82/82/8 83/83/8 80/80/8
f 84/84/2 85/85/2 86/86/2 87/87/2
f 85/85/3 88/88/3 89/89/3 86/86/3
f 88/88/4 90/90/4 91/91/4 89/89/4
f 90/90/1 84/84/1 87/87/1 91/91/1
f 86/86/5 92/92/5 87/87/5
f 87/87/7 92/92/7 91/91/7
f 89/89/6 92/92/6 86/86/6
f 91/91/8 92/92/8 89/89/8
f 47/47/1 46/46/1 93/93/1 94/94/1
f 51/51/10 56/56/10 54/54/10 52/52/10
f 95/95/2 96/96/2 97/97/2 98/98/2
f 96/96/3 99/99/3 100/100/3 97/97/3
f 99/99/4 101/101/4 102/102/4 100/100/4
f 101/101/1 95/95/1 98/98/1 102/102/1
f 97/97/5 103/103/5 98/98/5
f 98/98/7 103/103/7 102/102/7
f 100/100/6 103/103/6 97/97/6
f 102/102/8 103/103/8 100/100/8
f 104/104/2 105/105/2 106/106/2 107/107/2
f 105/105/3 108/108/3 109/109/3 106/106/3
f 108/108/4 110/110/4 111/111/4 109/109/4
f 110/110/1 104/104/1 107/107/1 111/111/1
f 106/106/5 112/112/5 107/107/5
f 107/107/7 112/112/7 111/111/7
f 109/109/6 112/112/6 106/106/6
f 111/111/8 112/112/8 109/109/8
f 113/113/2 114/114/2 115/115/2 116/116/2
f 114/114/3 117/117/3 118/118/3 115/115/3
f 117/117/4 119/119/4 120/120/4 118/118/4
f 119/119/1 113/113/1 116/116/1 120/120/1
f 115/115/5 121/121/5 116/116/5
f 116/116/7 121/121/7 120/120/7
f 118/118/6 121/121/6 115/115/6
f 120/120/8 121/121/8 118/118/8
f 122/122/2 123/123/2 124/124/2 125/125/2
f 123/123/3 126/126/3 127/127/3 124/124/3
f 126/126/4 128/128/4 129/129/4 127/127/4
f 128/128/1 122/122/1 125/125/1 129/129/1
f 124/124/5 130/130/5 125/125/5
f 125/125/7 130/130/7 129/129/7
f 127/127/6 130/130/6 124/124/6
f 129/129/8 130/130/8 127/127/8
f 46/46/12 45/45/12 131/131/12 93/93/12
f 48/48/13 47/47/13 94/94/13 132/132/13
f 132/132/14 94/94/14 93/93/14 131/131/14
f 133/133/1 134/134/1 135/135/1 136/136/1
f 137/137/2 138/138/2 134/134/2 133/133/2
f 139/139/3 140/140/3 138/138/3 137/137/3
f 136/136/4 135/135/4 140/140/4 139/139/4
f 141/141/2 142/142/2 143/143/2 144/144/2
f 144/144/1 143/143/1 145/145/1 146/146/1
f 146/146/4 145/145/4 147/147/4 148/148/4
f 148/148/3 147/147/3 142/142/3 141/141/3
f 143/143/5 142/142/5 149/149/5
f 142/142/15 147/147/15 149/149/15
f 145/145/7 143/143/7 149/149/7
f 147/147/8 145/145/8 149/149/8
f 150/150/2 151/151/2 152/152/2 153/153/2
f 153/153/1 152/152/1 154/154/1 155/155/1
f 155/155/4 154/154/4 156/156/4 157/157/4
f 157/157/3 156/156/3 151/151/3 150/150/3
f 152/152/5 151/151/5 158/158/5
f 151/151/6 156/156/6 158/158/6
f 154/154/7 152/152/7 158/158/7
f 156/156/8 154/154/8 158/158/8
f 159/159/2 160/160/2 161/161/2 162/162/2
f 162/162/1 161/161/1 163/163/1 164/164/1
f 164/164/4 163/163/4 165/165/4 166/166/4
f 166/166/3 165/165/3 160/160/3 159/159/3
f 161/161/5 160/160/5 167/167/5
f 160/160/6 165/165/6 167/167/6
f 163/163/7 161/161/7 167/167/7
f 165/165/8 163/163/8 167/167/8
f 168/168/2 169/169/2 170/170/2 171/171/2
f 171/171/1 170/170/1 172/172/1 173/173/1
f 173/173/4 172/172/4 174/174/4 175/175/4
f 175/175/3 174/174/3 169/169/3 168/168/3
f 170/170/5 169/169/5 176/176/5
f 169/169/6 174/174/6 176/176/6
f 172/172/7 170/170/7 176/176/7
f 174/174/8 172/172/8 176/176/8
f 48/48/3 132/132/3 131/131/3 45/45/3
f 135/135/10 134/134/10 138/138/10 140/140/10
