# Blender v2.91.0 Beta OBJ File: 'decos.blend'
# www.blender.org
o Plane.001_Plane
v 0.000000 7.200000 0.141422
v -0.141421 -1.000000 -0.000000
v 0.000000 -1.000000 0.141421
v -0.141421 7.200000 0.000001
v 0.000000 -1.000000 -0.141421
v 0.000000 7.200000 -0.141420
v 0.141421 -1.000000 -0.000000
v 0.141421 7.200000 0.000001
v 0.000000 5.000000 0.000000
v 0.000000 7.000000 0.000000
v 2.484209 6.800000 2.423039
v 0.000000 5.000000 0.000001
v 3.320846 6.800000 -0.870966
v 0.000000 7.000000 0.000001
v 3.363882 6.800000 0.686222
v 0.000000 5.000000 0.000001
v 3.320846 6.800000 -0.870966
v 0.000000 7.000000 0.000001
v 0.000000 5.000000 0.000001
v 3.363882 6.800000 0.686222
v 0.000000 7.000000 0.000001
v 2.484209 4.800000 2.423038
v 3.320846 4.800000 -0.870966
v 3.363882 4.800000 0.686222
v 3.320846 4.800000 -0.870966
v 3.363882 4.800000 0.686222
v 1.382463 6.900000 1.017571
v 1.382463 4.900000 1.017570
v 2.484209 6.800000 -2.423039
v 2.484209 4.800000 -2.423038
v 1.382463 6.900000 -1.017571
v 1.382463 4.900000 -1.017570
v 3.379185 6.800000 0.611208
v 0.015303 5.000000 -0.075013
v -0.019422 7.000000 -0.074053
v -0.019422 5.000000 -0.074053
v -0.002115 7.000000 -0.076529
v 3.301424 6.800000 -0.945020
v -0.002115 5.000000 -0.076529
v 1.436043 4.900000 0.962886
v 0.000000 7.000000 -0.076559
v 0.000000 5.000000 -0.076559
v 2.544462 6.800000 2.375807
v 1.435498 6.900000 0.962357
v 0.015303 7.000000 -0.075013
v 1.328882 4.900000 -1.072255
v 2.423956 4.800000 -2.470270
v 2.544462 4.800000 2.375806
v 3.301424 4.800000 -0.945020
v 3.379185 4.800000 0.611208
v 1.329427 6.900000 -1.072784
v 2.423956 6.800000 -2.470271
vt 0.257812 0.804688
vt 0.257812 0.804688
vt 0.257812 0.804688
vt 0.257812 0.804688
vt 0.257812 0.804688
vt 0.257812 0.804688
vt 0.257812 0.804688
vt 0.257812 0.804688
vt 0.164062 0.710938
vt 0.164062 0.710938
vt 0.164062 0.710938
vt 0.210938 0.710938
vt 0.210938 0.710938
vt 0.210938 0.710938
vt 0.179688 0.710938
vt 0.179688 0.710938
vt 0.179688 0.710938
vt 0.132812 0.710938
vt 0.132812 0.710938
vt 0.132812 0.710938
vt 0.148438 0.710938
vt 0.148438 0.710938
vt 0.148438 0.710938
vt 0.195312 0.710938
vt 0.195312 0.710938
vt 0.195312 0.710938
vt 0.164062 0.710938
vt 0.164062 0.710938
vt 0.164062 0.710938
vt 0.210938 0.710938
vt 0.210938 0.710938
vt 0.210938 0.710938
vt 0.179688 0.710938
vt 0.132812 0.710938
vt 0.148438 0.710938
vt 0.195312 0.710938
vt 0.179688 0.710938
vt 0.179688 0.710938
vt 0.179688 0.710938
vt 0.210938 0.710938
vt 0.210938 0.710938
vt 0.210938 0.710938
vt 0.195312 0.710938
vt 0.195312 0.710938
vt 0.195312 0.710938
vt 0.132812 0.710938
vt 0.132812 0.710938
vt 0.132812 0.710938
vt 0.164062 0.710938
vt 0.164062 0.710938
vt 0.164062 0.710938
vt 0.210938 0.710938
vt 0.164062 0.710938
vt 0.148438 0.710938
vt 0.148438 0.710938
vt 0.148438 0.710938
vt 0.179688 0.710938
vt 0.132812 0.710938
vt 0.148438 0.710938
vt 0.195312 0.710938
vt 0.164062 0.710938
vt 0.210938 0.710938
vt 0.164062 0.710938
vt 0.210938 0.710938
vn -0.7071 -0.0000 0.7071
vn -0.7071 0.0000 -0.7071
vn 0.7071 0.0000 -0.7071
vn 0.7071 -0.0000 0.7071
vn 0.0000 -1.0000 0.0000
vn 0.0000 1.0000 0.0000
vn 0.5928 0.0000 0.8054
vn 0.6927 0.0000 0.7212
vn -0.5928 -0.0000 0.8054
vn -0.6927 -0.0000 0.7212
vn 0.2537 -0.0000 0.9673
vn -0.1999 -0.0000 0.9798
vn 0.7870 0.0000 0.6169
vn 0.6999 0.0000 0.7143
vn -0.7870 -0.0000 0.6169
vn -0.6999 -0.0000 0.7143
vn -0.2543 0.0000 -0.9671
vn 0.5863 -0.0000 -0.8101
vn 0.6896 0.0000 -0.7242
vn 0.6969 -0.0000 -0.7172
vn 0.1999 0.0000 -0.9798
vn 0.1993 0.0000 -0.9799
vn -0.5996 -0.0000 -0.8003
vn -0.6960 0.0000 -0.7180
vn -0.7030 -0.0000 -0.7112
vn 0.7868 0.0000 -0.6172
vn -0.7873 0.0000 -0.6166
vn -0.2537 0.0000 -0.9673
vn -0.0570 -0.9983 -0.0116
vn 0.0563 0.9983 -0.0147
vn 0.0563 0.9983 -0.0148
vn 0.0566 0.9983 -0.0146
vn 0.0596 0.9982 -0.0018
vn 0.0597 0.9982 -0.0016
vn -0.9798 0.0000 -0.1999
vn -0.0716 -0.9974 0.0009
vn -0.0422 -0.9983 0.0404
vn -0.0721 -0.9974 0.0000
vn 0.9798 0.0000 0.1999
vn -0.0417 -0.9983 0.0410
vn -0.0348 -0.9984 0.0441
vn 0.0570 0.9983 0.0116
vn 0.0426 0.9983 -0.0400
vn 0.0716 0.9974 -0.0009
vn 0.0721 0.9974 0.0000
vn 0.0349 0.9984 -0.0441
vn 0.0421 0.9983 -0.0406
vn -0.0409 -0.9984 -0.0402
vn -0.0346 -0.9984 -0.0439
vn -0.0345 -0.9984 -0.0440
vn 0.6169 -0.0000 0.7870
vn -0.0596 -0.9982 0.0018
vn -0.0566 -0.9983 0.0146
vn -0.0597 -0.9982 0.0017
vn 0.9673 0.0000 -0.2537
vn 0.0417 0.9984 0.0392
vn 0.0690 0.9976 0.0008
vn 0.0413 0.9984 0.0398
vn 0.0347 0.9984 0.0439
vn 0.0345 0.9984 0.0440
vn -0.0593 -0.9982 0.0015
vn -0.0570 -0.9983 -0.0114
vn -0.9673 -0.0000 0.2537
vn -0.0563 -0.9983 0.0148
vn 0.0570 0.9983 0.0115
vn 0.0593 0.9982 -0.0015
vn 0.6169 -0.0000 -0.7870
vn -0.0689 -0.9976 -0.0008
vn -0.0413 -0.9984 -0.0397
vn -0.5997 0.0000 -0.8002
vn -0.7872 -0.0000 -0.6166
vn 0.0565 0.9983 -0.0148
vn -0.0347 -0.9984 0.0442
vn 0.0347 0.9984 -0.0443
vn -0.0565 -0.9983 0.0148
vn 0.0695 0.9976 0.0000
vn -0.0594 -0.9982 0.0016
vn 0.0594 0.9982 -0.0016
vn -0.0695 -0.9976 0.0000
s 1
f 1/1/1 2/2/1 3/3/1
f 4/4/2 5/5/2 2/2/2
f 6/6/3 7/7/3 5/5/3
f 8/8/4 3/3/4 7/7/4
f 5/5/5 3/3/5 2/2/5
f 4/4/6 8/8/6 6/6/6
f 9/9/7 31/10/8 10/11/7
f 9/12/9 27/13/10 10/14/9
f 12/15/11 13/16/11 14/17/11
f 12/18/12 15/19/12 14/20/12
f 16/21/11 17/22/11 18/23/11
f 19/24/12 20/25/12 21/26/12
f 1/1/1 4/4/1 2/2/1
f 4/4/2 6/6/2 5/5/2
f 6/6/3 8/8/3 7/7/3
f 8/8/4 1/1/4 3/3/4
f 5/5/5 7/7/5 3/3/5
f 4/4/6 1/1/6 8/8/6
f 29/27/13 32/28/14 30/29/13
f 11/30/15 28/31/16 22/32/15
f 12/15/11 23/33/11 13/16/11
f 12/18/12 24/34/12 15/19/12
f 16/21/11 25/35/11 17/22/11
f 19/24/12 26/36/12 20/25/12
f 39/37/17 37/38/17 38/39/17
f 42/40/18 44/41/19 40/42/20
f 34/43/21 45/44/21 33/45/21
f 39/46/22 37/47/22 33/48/22
f 42/49/23 51/50/24 46/51/25
f 43/52/26 40/42/20 44/41/19
f 52/53/27 46/51/25 51/50/24
f 36/54/28 35/55/28 38/56/28
f 39/37/17 38/39/17 49/57/17
f 39/46/22 33/48/22 50/58/22
f 36/54/28 38/56/28 49/59/28
f 34/43/21 33/45/21 50/60/21
f 19/24/29 50/60/29 26/36/29
f 17/22/30 35/55/31 18/23/31
f 13/16/32 37/38/33 14/17/34
f 45/44/35 19/24/35 21/26/35
f 42/49/36 32/28/37 9/9/38
f 50/58/39 15/19/39 24/34/39
f 46/51/40 30/29/41 32/28/37
f 33/45/42 21/26/42 20/25/42
f 31/10/43 41/61/44 10/11/45
f 29/27/46 51/50/47 31/10/43
f 28/31/48 48/62/49 22/32/50
f 50/60/39 20/25/39 26/36/39
f 48/62/51 11/30/51 22/32/51
f 39/37/52 23/33/53 12/15/54
f 49/59/55 17/22/55 25/35/55
f 44/41/56 10/14/57 27/13/58
f 43/52/59 27/13/58 11/30/60
f 12/18/61 50/58/62 24/34/29
f 35/55/63 16/21/63 18/23/63
f 36/54/64 25/35/64 16/21/64
f 49/57/55 13/16/55 23/33/55
f 33/48/65 14/20/66 15/19/42
f 47/63/67 29/27/67 30/29/67
f 9/12/68 40/42/69 28/31/48
f 9/9/7 32/28/14 31/10/8
f 9/12/9 28/31/16 27/13/10
f 29/27/13 31/10/8 32/28/14
f 11/30/15 27/13/10 28/31/16
f 42/40/18 41/64/18 44/41/19
f 42/49/23 41/61/70 51/50/24
f 43/52/26 48/62/26 40/42/20
f 52/53/27 47/63/71 46/51/25
f 19/24/29 34/43/29 50/60/29
f 17/22/30 38/56/30 35/55/31
f 13/16/32 38/39/72 37/38/33
f 45/44/35 34/43/35 19/24/35
f 42/49/36 46/51/40 32/28/37
f 50/58/39 33/48/39 15/19/39
f 46/51/40 47/63/73 30/29/41
f 33/45/42 45/44/42 21/26/42
f 31/10/43 51/50/47 41/61/44
f 29/27/46 52/53/74 51/50/47
f 28/31/48 40/42/69 48/62/49
f 50/60/39 33/45/39 20/25/39
f 48/62/51 43/52/51 11/30/51
f 39/37/52 49/57/75 23/33/53
f 49/59/55 38/56/55 17/22/55
f 44/41/56 41/64/76 10/14/57
f 43/52/59 44/41/56 27/13/58
f 12/18/61 39/46/77 50/58/62
f 35/55/63 36/54/63 16/21/63
f 36/54/64 49/59/64 25/35/64
f 49/57/55 38/39/55 13/16/55
f 33/48/65 37/47/78 14/20/66
f 47/63/67 52/53/67 29/27/67
f 9/12/68 42/40/79 40/42/69
