# Blender v2.90.0 Alpha OBJ File: 'Decos.blend'
# www.blender.org
o Fountain_Cube.001
v -5.618050 0.056348 2.436535
v -5.781305 0.463786 2.504158
v -6.268788 0.463786 0.053418
v -6.092081 0.056348 0.053418
v -2.247814 0.056347 5.806772
v -2.315436 0.463785 5.970028
v -4.393073 0.463785 4.581795
v -4.268123 0.056347 4.456845
v -5.618049 0.056348 -2.329699
v -5.781305 0.463786 -2.397321
v -4.393072 0.463787 -4.474958
v -4.268122 0.056349 -4.350008
v 5.888658 0.056348 -2.329698
v 6.051913 0.463786 -2.397321
v 6.539396 0.289054 0.053419
v 6.362689 0.056348 0.053419
v 2.518421 0.056347 5.806773
v 2.586043 0.463785 5.970028
v 0.135303 0.463785 6.457510
v 0.135304 0.056347 6.280804
v 2.518422 0.056349 -5.699934
v 2.586044 0.463787 -5.863190
v 4.663681 0.463787 -4.474957
v 4.538731 0.056349 -4.350007
v 5.888657 0.056348 2.436536
v 6.051913 0.463786 2.504159
v 4.663680 0.463785 4.581796
v 4.538730 0.056347 4.456846
v -2.247813 0.056349 -5.699934
v -2.315435 0.463787 -5.863190
v 0.135305 0.463787 -6.350673
v 0.135305 0.056349 -6.173966
v 3.791025 0.463785 3.709140
v -3.520417 0.463787 -3.602302
v 0.135304 0.463787 -5.116552
v 0.135304 0.463785 5.223390
v 3.791025 0.463787 -3.602302
v -5.034667 0.463786 0.053419
v 5.305275 0.463786 0.053419
v -3.520417 0.463785 3.709140
v 0.135304 0.296122 5.071589
v -3.413078 0.296122 3.601801
v 0.135304 0.296124 -4.964751
v 3.683686 0.296124 -3.494963
v 3.683686 0.296122 3.601801
v -3.413078 0.296124 -3.494963
v -4.882866 0.296123 0.053419
v 5.153474 0.296123 0.053419
v 0.520839 2.026900 0.438954
v 0.680533 2.026900 0.053419
v 1.261121 2.664828 0.053419
v 0.931377 2.664828 0.849492
v -0.409925 2.026900 0.053419
v -0.250231 2.026900 0.438954
v -0.660769 2.664828 0.849492
v -0.990513 2.664828 0.053419
v 0.520839 2.026900 -0.332116
v 0.931377 2.664828 -0.742654
v 0.135304 2.026900 0.598648
v 0.135304 2.664828 1.179237
v 0.135304 2.026900 -0.491810
v 0.135304 2.664828 -1.072397
v -0.250231 2.026900 -0.332116
v -0.660769 2.664828 -0.742654
v -1.111676 3.189178 1.300399
v -1.628192 3.189178 0.053420
v -1.609348 2.887606 0.053419
v -1.098351 2.887606 1.287074
v 1.879956 2.887606 0.053419
v 1.368959 2.887606 -1.180236
v 1.382284 3.189178 -1.193560
v 1.898800 3.189178 0.053420
v 1.382284 3.189178 1.300399
v 1.368959 2.887606 1.287074
v 0.135304 3.189178 -1.710078
v 0.135304 2.887606 -1.691233
v -1.111676 3.189178 -1.193560
v -1.098351 2.887606 -1.180236
v 0.135304 3.189178 1.816916
v 0.135304 2.887606 1.798072
v 0.135304 3.189178 -1.550560
v 1.269489 3.189178 -1.080765
v 1.269489 3.189178 1.187604
v 0.135304 3.189178 1.657400
v -0.998881 3.189178 -1.080765
v -1.468676 3.189178 0.053420
v 1.739284 3.189178 0.053420
v -0.998881 3.189178 1.187604
v 1.088670 3.031456 -0.899947
v 1.483567 3.031456 0.053419
v 0.135304 3.031456 1.401682
v -0.818062 3.031456 1.006786
v 0.135304 3.031456 -1.294844
v 1.088670 3.031456 1.006786
v -0.818062 3.031456 -0.899947
v -1.212959 3.031456 0.053419
v 0.135304 3.031456 0.053419
v -0.463289 0.234960 -0.545174
v 0.135304 0.234960 -0.793120
v 0.733897 0.234960 0.652012
v 0.135304 0.234960 0.899957
v 0.733897 0.234960 -0.545174
v -0.463289 0.234960 0.652012
v 0.981843 0.234960 0.053419
v -0.711234 0.234960 0.053419
v -0.249082 1.254150 0.053419
v -0.136498 1.254150 -0.218383
v 0.135304 1.254150 -0.330968
v 0.407106 1.254150 0.325221
v 0.135304 1.254150 0.437805
v 0.407106 1.254150 -0.218383
v -0.136498 1.254150 0.325221
v 0.519691 1.254150 0.053419
v 0.135304 -1.229099 6.457510
v -2.315436 -1.229099 5.970028
v -4.393073 -1.229099 4.581795
v -5.781305 -1.229098 2.504158
v -6.268788 -1.229098 0.053418
v -5.781305 -1.229098 -2.397321
v -4.393072 -1.229097 -4.474958
v -2.315435 -1.229097 -5.863190
v 0.135304 -1.229097 -6.350673
v 2.586044 -1.229097 -5.863190
v 4.663681 -1.229097 -4.474957
v 6.051913 -1.229098 -2.397321
v 6.539396 -1.229098 0.053419
v 6.051913 -1.229098 2.504159
v 4.663680 -1.229099 4.581796
v 2.586043 -1.229099 5.970028
vt 0.117188 0.804688
vt 0.117188 0.804688
vt 0.117188 0.804688
vt 0.117188 0.804688
vt 0.117188 0.804688
vt 0.117188 0.804688
vt 0.117188 0.804688
vt 0.117188 0.804688
vt 0.117188 0.804688
vt 0.117188 0.804688
vt 0.117188 0.804688
vt 0.117188 0.804688
vt 0.117188 0.804688
vt 0.117188 0.804688
vt 0.117188 0.804688
vt 0.117188 0.804688
vt 0.117188 0.804688
vt 0.117188 0.804688
vt 0.117188 0.804688
vt 0.117188 0.804688
vt 0.117188 0.804688
vt 0.117188 0.804688
vt 0.117188 0.804688
vt 0.117188 0.804688
vt 0.117188 0.804688
vt 0.117188 0.804688
vt 0.117188 0.804688
vt 0.117188 0.804688
vt 0.117188 0.804688
vt 0.117188 0.804688
vt 0.117188 0.804688
vt 0.117188 0.804688
vt 0.117188 0.804688
vt 0.117188 0.804688
vt 0.117188 0.804688
vt 0.117188 0.804688
vt 0.117188 0.804688
vt 0.117188 0.804688
vt 0.117188 0.804688
vt 0.117188 0.804688
vt 0.132812 0.804688
vt 0.132812 0.804688
vt 0.132812 0.804688
vt 0.132812 0.804688
vt 0.132812 0.804688
vt 0.132812 0.804688
vt 0.132812 0.804688
vt 0.132812 0.804688
vt 0.132812 0.804688
vt 0.132812 0.804688
vt 0.132812 0.804688
vt 0.132812 0.804688
vt 0.132812 0.804688
vt 0.132812 0.804688
vt 0.132812 0.804688
vt 0.132812 0.804688
vt 0.117188 0.804688
vt 0.117188 0.804688
vt 0.117188 0.804688
vt 0.117188 0.804688
vt 0.117188 0.804688
vt 0.117188 0.804688
vt 0.117188 0.804688
vt 0.117188 0.804688
vt 0.117188 0.804688
vt 0.117188 0.804688
vt 0.117188 0.804688
vt 0.117188 0.804688
vt 0.117188 0.804688
vt 0.117188 0.804688
vt 0.117188 0.804688
vt 0.117188 0.804688
vt 0.117188 0.804688
vt 0.117188 0.804688
vt 0.117188 0.804688
vt 0.117188 0.804688
vt 0.117188 0.804688
vt 0.117188 0.804688
vt 0.117188 0.804688
vt 0.117188 0.804688
vt 0.117188 0.804688
vt 0.117188 0.804688
vt 0.117188 0.804688
vt 0.117188 0.804688
vt 0.117188 0.804688
vt 0.117188 0.804688
vt 0.117188 0.804688
vt 0.117188 0.804688
vt 0.117188 0.804688
vt 0.117188 0.804688
vt 0.117188 0.804688
vt 0.117188 0.804688
vt 0.117188 0.804688
vt 0.117188 0.804688
vt 0.117188 0.804688
vt 0.117188 0.804688
vt 0.117188 0.804688
vt 0.117188 0.804688
vt 0.117188 0.804688
vt 0.117188 0.804688
vt 0.117188 0.804688
vt 0.117188 0.804688
vt 0.117188 0.804688
vt 0.117188 0.804688
vt 0.007812 0.929688
vt 0.007812 0.929688
vt 0.007812 0.929688
vt 0.007812 0.929688
vt 0.007812 0.929688
vt 0.007812 0.929688
vt 0.007812 0.929688
vt 0.007812 0.929688
vt 0.007812 0.929688
vt 0.007812 0.929688
vt 0.007812 0.929688
vt 0.007812 0.929688
vt 0.007812 0.929688
vt 0.007812 0.929688
vt 0.007812 0.929688
vt 0.007812 0.929688
vt 0.007812 0.929688
vt 0.007812 0.929688
vt 0.007812 0.929688
vt 0.007812 0.929688
vt 0.007812 0.929688
vt 0.007812 0.929688
vt 0.007812 0.929688
vt 0.007812 0.929688
vt 0.007812 0.929688
vt 0.117188 0.804688
vt 0.117188 0.804688
vt 0.117188 0.804688
vt 0.117188 0.804688
vt 0.117188 0.804688
vt 0.117188 0.804688
vt 0.117188 0.804688
vt 0.117188 0.804688
vt 0.117188 0.804688
vt 0.117188 0.804688
vt 0.117188 0.804688
vt 0.117188 0.804688
vt 0.117188 0.804688
vt 0.117188 0.804688
vt 0.117188 0.804688
vt 0.117188 0.804688
vt 0.117188 0.804688
vt 0.117188 0.804688
vt 0.117188 0.804688
vt 0.117188 0.804688
vt 0.117188 0.804688
vt 0.117188 0.804688
vt 0.117188 0.804688
vt 0.117188 0.804688
vt 0.117188 0.804688
vt 0.117188 0.804688
vt 0.117188 0.804688
vt 0.117188 0.804688
vt 0.117188 0.804688
vt 0.117188 0.804688
vt 0.117188 0.804688
vt 0.117188 0.804688
vn -0.9025 -0.3914 0.1795
vn -0.5112 -0.3914 0.7651
vn -0.7651 -0.3914 -0.5112
vn 0.8590 -0.4761 -0.1881
vn 0.1795 -0.3914 0.9025
vn 0.5112 -0.3914 -0.7651
vn 0.7651 -0.3914 0.5112
vn -0.1795 -0.3914 -0.9025
vn -0.0000 1.0000 0.0000
vn 0.1401 0.9892 -0.0427
vn 0.2935 0.6416 -0.7086
vn -0.2935 0.6416 0.7086
vn -0.2935 0.6416 -0.7086
vn 0.2935 0.6416 0.7086
vn 0.7086 0.6416 0.2935
vn -0.7086 0.6416 -0.2935
vn 0.7086 0.6416 -0.2935
vn -0.7086 0.6416 0.2935
vn 0.7071 -0.6436 0.2929
vn -0.7071 -0.6436 0.2929
vn 0.7071 -0.6436 -0.2929
vn -0.2929 -0.6436 0.7071
vn 0.2929 -0.6436 -0.7071
vn 0.2929 -0.6436 0.7071
vn -0.2929 -0.6436 -0.7071
vn -0.7071 -0.6436 -0.2929
vn -0.9223 -0.0576 0.3820
vn 0.9223 -0.0576 -0.3820
vn 0.9223 -0.0576 0.3820
vn 0.3820 -0.0576 -0.9223
vn -0.3820 -0.0576 -0.9223
vn -0.3820 -0.0576 0.9223
vn 0.3354 -0.9318 -0.1389
vn 0.3820 -0.0576 0.9223
vn -0.5130 0.8317 0.2125
vn 0.2125 0.8317 -0.5130
vn -0.2125 0.8317 0.5130
vn -0.2125 0.8317 -0.5130
vn 0.2125 0.8317 0.5130
vn 0.5130 0.8317 0.2125
vn -0.5130 0.8317 -0.2125
vn 0.5130 0.8317 -0.2125
vn 0.5112 -0.3914 0.7651
vn 0.8590 -0.4761 0.1881
vn 0.7651 -0.3914 -0.5112
vn 0.1795 -0.3914 -0.9025
vn -0.5112 -0.3914 -0.7651
vn -0.9025 -0.3914 -0.1795
vn -0.7651 -0.3914 0.5112
vn -0.1795 -0.3914 0.9025
vn -0.3354 -0.9318 0.1389
vn 0.3354 -0.9318 0.1389
vn -0.3354 -0.9318 -0.1389
vn -0.1389 -0.9318 -0.3354
vn 0.1389 -0.9318 0.3354
vn 0.1389 -0.9318 -0.3354
vn -0.1389 -0.9318 0.3354
vn 0.1401 0.9892 0.0427
vn 0.0104 0.9999 0.0104
vn 0.0000 0.9999 0.0147
vn -0.0104 0.9999 -0.0104
vn 0.0000 0.9999 -0.0147
vn -0.0104 0.9999 0.0104
vn 0.0104 0.9999 -0.0104
vn -0.0147 0.9999 0.0000
vn 0.0147 0.9999 0.0000
vn -0.8521 0.3864 -0.3530
vn -0.3530 0.3864 -0.8521
vn 0.3530 0.3864 0.8521
vn 0.3530 0.3864 -0.8521
vn -0.3530 0.3864 0.8521
vn 0.8521 0.3864 -0.3530
vn -0.8521 0.3864 0.3530
vn 0.8521 0.3864 0.3530
vn -0.9073 -0.1888 -0.3758
vn -0.3758 -0.1888 -0.9073
vn 0.3758 -0.1888 0.9073
vn 0.3758 -0.1888 -0.9073
vn -0.3758 -0.1888 0.9073
vn 0.9073 -0.1888 -0.3758
vn -0.9073 -0.1888 0.3758
vn 0.9073 -0.1888 0.3758
vn -0.9223 -0.0576 -0.3820
vn -0.1933 0.1336 0.9720
vn -0.8240 0.1336 0.5506
vn -0.9720 0.1336 -0.1933
vn -0.5506 0.1336 -0.8240
vn 0.1933 0.1336 -0.9720
vn 0.8240 0.1336 -0.5506
vn 0.9720 0.1336 0.1933
vn 0.5506 0.1336 0.8240
vn -0.1933 0.1336 -0.9720
vn 0.8240 0.1336 0.5506
vn 0.5506 0.1336 -0.8240
vn 0.1933 0.1336 0.9720
vn 0.9720 0.1336 -0.1933
vn -0.8240 0.1336 -0.5506
vn -0.5506 0.1336 0.8240
vn -0.9720 0.1336 0.1933
s 1
f 1/1/1 2/2/1 3/3/1 4/4/1
f 5/5/2 6/6/2 7/7/2 8/8/2
f 9/9/3 10/10/3 11/11/3 12/12/3
f 13/13/4 14/14/4 15/15/4 16/16/4
f 17/17/5 18/18/5 19/19/5 20/20/5
f 21/21/6 22/22/6 23/23/6 24/24/6
f 25/25/7 26/26/7 27/27/7 28/28/7
f 29/29/8 30/30/8 31/31/8 32/32/8
f 18/18/9 27/27/9 33/33/9
f 31/31/9 30/30/9 11/11/9 34/34/9 35/35/9
f 6/6/9 19/19/9 36/36/9
f 22/22/9 31/31/9 35/35/9
f 14/14/9 23/23/9 37/37/9
f 11/11/9 10/10/9 3/3/9 38/38/9 34/34/9
f 26/26/10 15/15/10 39/39/10
f 3/3/9 2/2/9 7/7/9 40/40/9 38/38/9
f 40/41/11 36/42/11 41/43/11 42/44/11
f 37/45/12 35/46/12 43/47/12 44/48/12
f 36/42/13 33/49/13 45/50/13 41/43/13
f 35/46/14 34/51/14 46/52/14 43/47/14
f 34/51/15 38/53/15 47/54/15 46/52/15
f 33/49/16 39/55/16 48/56/16 45/50/16
f 38/53/17 40/41/17 42/44/17 47/54/17
f 39/55/18 37/45/18 44/48/18 48/56/18
f 49/57/19 50/58/19 51/59/19 52/60/19
f 53/61/20 54/62/20 55/63/20 56/64/20
f 50/58/21 57/65/21 58/66/21 51/59/21
f 54/62/22 59/67/22 60/68/22 55/63/22
f 57/65/23 61/69/23 62/70/23 58/66/23
f 59/67/24 49/57/24 52/60/24 60/68/24
f 61/69/25 63/71/25 64/72/25 62/70/25
f 63/71/26 53/61/26 56/64/26 64/72/26
f 65/73/27 66/74/27 67/75/27 68/76/27
f 69/77/28 70/78/28 71/79/28 72/80/28
f 72/80/29 73/81/29 74/82/29 69/77/29
f 75/83/30 71/79/30 70/78/30 76/84/30
f 77/85/31 75/83/31 76/84/31 78/86/31
f 79/87/32 65/73/32 68/76/32 80/88/32
f 70/78/33 69/77/33 51/59/33 58/66/33
f 73/81/34 79/87/34 80/88/34 74/82/34
f 71/79/9 75/83/9 81/89/9 82/90/9
f 79/87/9 73/81/9 83/91/9 84/92/9
f 75/83/9 77/85/9 85/93/9 81/89/9
f 77/85/9 66/74/9 86/94/9 85/93/9
f 73/81/9 72/80/9 87/95/9 83/91/9
f 66/74/9 65/73/9 88/96/9 86/94/9
f 72/80/9 71/79/9 82/90/9 87/95/9
f 65/73/9 79/87/9 84/92/9 88/96/9
f 87/95/35 82/90/35 89/97/35 90/98/35
f 88/96/36 84/92/36 91/99/36 92/100/36
f 82/90/37 81/89/37 93/101/37 89/97/37
f 84/92/38 83/91/38 94/102/38 91/99/38
f 81/89/39 85/93/39 95/103/39 93/101/39
f 85/93/40 86/94/40 96/104/40 95/103/40
f 83/91/41 87/95/41 90/98/41 94/102/41
f 86/94/42 88/96/42 92/100/42 96/104/42
f 94/105/9 90/106/9 97/107/9
f 96/108/9 92/109/9 97/107/9
f 90/106/9 89/110/9 97/107/9
f 92/109/9 91/111/9 97/107/9
f 89/110/9 93/112/9 97/107/9
f 91/111/9 94/105/9 97/107/9
f 93/112/9 95/113/9 97/107/9
f 95/113/9 96/108/9 97/107/9
f 28/28/43 27/27/43 18/18/43 17/17/43
f 16/16/44 15/15/44 26/26/44 25/25/44
f 24/24/45 23/23/45 14/14/45 13/13/45
f 32/32/46 31/31/46 22/22/46 21/21/46
f 12/12/47 11/11/47 30/30/47 29/29/47
f 4/4/48 3/3/48 10/10/48 9/9/48
f 8/8/49 7/7/49 2/2/49 1/1/49
f 20/20/50 19/19/50 6/6/50 5/5/50
f 68/76/51 67/75/51 56/64/51 55/63/51
f 69/77/52 74/82/52 52/60/52 51/59/52
f 67/75/53 78/86/53 64/72/53 56/64/53
f 78/86/54 76/84/54 62/70/54 64/72/54
f 74/82/55 80/88/55 60/68/55 52/60/55
f 76/84/56 70/78/56 58/66/56 62/70/56
f 80/88/57 68/76/57 55/63/57 60/68/57
f 7/7/9 6/6/9 40/40/9
f 40/40/9 6/6/9 36/36/9
f 19/19/9 18/18/9 36/36/9
f 36/36/9 18/18/9 33/33/9
f 27/27/9 26/26/9 33/33/9
f 33/33/9 26/26/9 39/39/9
f 15/15/58 14/14/58 39/39/58
f 39/39/9 14/14/9 37/37/9
f 23/23/9 22/22/9 37/37/9
f 37/37/9 22/22/9 35/35/9
f 98/114/59 99/115/60 43/116/60 46/117/59
f 100/118/61 101/119/62 41/120/62 45/121/61
f 99/115/60 102/122/63 44/123/63 43/116/60
f 101/119/62 103/124/64 42/125/64 41/120/62
f 102/122/63 104/126/65 48/127/65 44/123/63
f 103/124/64 105/128/66 47/129/66 42/125/64
f 104/126/65 100/118/61 45/121/61 48/127/65
f 98/130/67 105/131/67 106/132/67 107/133/67
f 99/134/68 98/130/68 107/133/68 108/135/68
f 101/136/69 100/137/69 109/138/69 110/139/69
f 102/140/70 99/134/70 108/135/70 111/141/70
f 103/142/71 101/136/71 110/139/71 112/143/71
f 104/144/72 102/140/72 111/141/72 113/145/72
f 105/131/73 103/142/73 112/143/73 106/132/73
f 100/137/74 104/144/74 113/145/74 109/138/74
f 107/133/75 106/132/75 53/61/75 63/71/75
f 108/135/76 107/133/76 63/71/76 61/69/76
f 110/139/77 109/138/77 49/57/77 59/67/77
f 111/141/78 108/135/78 61/69/78 57/65/78
f 112/143/79 110/139/79 59/67/79 54/62/79
f 113/145/80 111/141/80 57/65/80 50/58/80
f 106/132/81 112/143/81 54/62/81 53/61/81
f 109/138/82 113/145/82 50/58/82 49/57/82
f 66/74/83 77/85/83 78/86/83 67/75/83
f 114/146/84 20/20/84 5/5/84 115/147/84
f 116/148/85 8/8/85 1/1/85 117/149/85
f 118/150/86 4/4/86 9/9/86 119/151/86
f 120/152/87 12/12/87 29/29/87 121/153/87
f 122/154/88 32/32/88 21/21/88 123/155/88
f 124/156/89 24/24/89 13/13/89 125/157/89
f 126/158/90 16/16/90 25/25/90 127/159/90
f 128/160/91 28/28/91 17/17/91 129/161/91
f 121/153/92 29/29/92 32/32/92 122/154/92
f 127/159/93 25/25/93 28/28/93 128/160/93
f 123/155/94 21/21/94 24/24/94 124/156/94
f 129/161/95 17/17/95 20/20/95 114/146/95
f 125/157/96 13/13/96 16/16/96 126/158/96
f 119/151/97 9/9/97 12/12/97 120/152/97
f 115/147/98 5/5/98 8/8/98 116/148/98
f 117/149/99 1/1/99 4/4/99 118/150/99
f 105/128/66 98/114/59 46/117/59 47/129/66
