# Blender v2.91.0 Beta OBJ File: 'decos.blend'
# www.blender.org
o FountainBig_Cube.004
v 0.131657 0.007359 10.515449
v 0.131657 1.010995 10.515449
v -7.267133 1.010997 7.450769
v -7.267133 0.007361 7.450769
v -10.331812 1.010999 0.051978
v -10.331812 0.007363 0.051978
v 0.131658 0.007367 -10.411489
v 0.131658 1.011003 -10.411489
v 7.530448 1.011001 -7.346810
v 7.530448 0.007365 -7.346810
v 10.595127 0.007363 0.051980
v 10.595127 1.010999 0.051980
v 7.530447 1.010997 7.450770
v 7.530447 0.007361 7.450770
v -7.267132 0.007365 -7.346811
v -7.267132 1.011001 -7.346811
v -5.665946 1.011001 -5.745625
v 0.131658 1.011001 -8.147071
v -8.067393 1.010999 0.051979
v -5.665946 1.010997 5.849583
v 0.131657 1.422726 2.902518
v 2.147293 1.422726 2.067615
v 1.689336 1.915457 1.609658
v 0.131657 1.915457 2.254869
v 0.131658 1.422727 -2.798560
v -1.883978 1.422726 -1.963656
v -1.426021 1.915457 -1.505699
v 0.131658 1.915457 -2.150911
v 2.147293 1.422726 -1.963656
v 1.689336 1.915457 -1.505699
v -2.718882 1.422726 0.051979
v -1.883978 1.422726 2.067615
v -1.426021 1.915457 1.609657
v -2.071232 1.915457 0.051979
v 2.982197 1.422726 0.051979
v 2.334548 1.915457 0.051979
v 1.547198 1.657758 -1.363561
v 2.133535 1.657758 0.051979
v 0.131657 1.657758 2.053856
v -1.283883 1.657758 1.467520
v 0.131658 1.657758 -1.949898
v 1.547198 1.657758 1.467520
v -1.283883 1.657758 -1.363561
v -1.870219 1.657758 0.051979
v 0.131658 1.657758 0.051979
v 0.302075 3.494635 0.051981
v 0.131658 3.494635 -0.118436
v -0.038759 3.494635 0.051981
v 0.131658 2.527468 0.362121
v 0.131658 3.494635 0.222398
v -0.178484 2.527468 0.051979
v 0.131658 2.527468 -0.258163
v 0.441799 2.527468 0.051979
v -0.181137 1.560302 0.051979
v 0.131658 1.560302 0.364774
v -1.099194 2.465977 0.051979
v -1.269611 2.465977 -0.118438
v -1.440028 2.465977 0.051979
v -1.269611 1.866546 0.362121
v -1.269611 2.465977 0.222396
v -1.579753 1.866546 0.051979
v -1.269611 1.866546 -0.258163
v -0.959469 1.866546 0.051979
v -1.582406 1.267114 0.051979
v -1.269611 1.267114 0.364774
v 1.362509 2.465977 0.051979
v 1.532926 2.465977 0.222396
v 1.703343 2.465977 0.051979
v 1.532926 2.465977 -0.118438
v 1.532926 1.866546 0.362121
v 1.843068 1.866546 0.051979
v 1.532926 1.866546 -0.258163
v 1.222784 1.866546 0.051979
v 1.845721 1.267114 0.051979
v 1.532926 1.267114 0.364774
v 0.131658 1.560302 -0.260816
v 0.444453 1.560302 0.051979
v -1.269611 1.267114 -0.260816
v -0.956816 1.267114 0.051979
v 1.532926 1.267114 -0.260816
v 1.220131 1.267114 0.051979
v 0.131657 1.010997 8.251030
v 5.929261 1.010997 5.849583
v 8.330708 1.010999 0.051980
v 5.929261 1.011001 -5.745624
v 0.229608 0.009900 11.519269
v 8.309519 0.009902 8.091315
v 7.305873 0.009902 7.104670
v 0.217587 0.009900 10.111921
v 11.598947 0.009904 -0.045972
v 8.170994 0.009906 -8.125882
v 7.184349 0.009906 -7.122237
v 10.191599 0.009904 -0.033951
v 0.033706 0.009908 -11.415310
v 0.045727 0.009908 -10.007961
v -8.046204 0.009906 -7.987356
v -7.042559 0.009906 -7.000711
v -11.335631 0.009904 0.149930
v -7.907679 0.009902 8.229841
v -6.921034 0.009902 7.226196
v -9.928284 0.009904 0.137909
vt 0.242188 0.851562
vt 0.242188 0.851562
vt 0.242188 0.851562
vt 0.242188 0.851562
vt 0.242188 0.851562
vt 0.242188 0.851562
vt 0.242188 0.851562
vt 0.242188 0.851562
vt 0.242188 0.851562
vt 0.242188 0.851562
vt 0.242188 0.851562
vt 0.242188 0.851562
vt 0.242188 0.851562
vt 0.242188 0.851562
vt 0.242188 0.851562
vt 0.242188 0.851562
vt 0.242188 0.851562
vt 0.242188 0.851562
vt 0.242188 0.851562
vt 0.242188 0.851562
vt 0.164062 0.789062
vt 0.164062 0.789062
vt 0.164062 0.789062
vt 0.164062 0.789062
vt 0.164062 0.789062
vt 0.164062 0.789062
vt 0.164062 0.789062
vt 0.164062 0.789062
vt 0.164062 0.789062
vt 0.164062 0.789062
vt 0.164062 0.789062
vt 0.164062 0.789062
vt 0.164062 0.789062
vt 0.164062 0.789062
vt 0.164062 0.789062
vt 0.164062 0.789062
vt 0.164062 0.773438
vt 0.164062 0.773438
vt 0.164062 0.773438
vt 0.164062 0.773438
vt 0.164062 0.773438
vt 0.164062 0.773438
vt 0.164062 0.773438
vt 0.164062 0.773438
vt 0.164062 0.773438
vt 0.164062 0.773438
vt 0.164062 0.773438
vt 0.164062 0.773438
vt 0.164062 0.773438
vt 0.164062 0.773438
vt 0.164062 0.773438
vt 0.164062 0.773438
vt 0.007812 0.914062
vt 0.007812 0.914062
vt 0.007812 0.914062
vt 0.007812 0.914062
vt 0.007812 0.914062
vt 0.007812 0.914062
vt 0.007812 0.914062
vt 0.007812 0.914062
vt 0.007812 0.914062
vt 0.257812 0.789062
vt 0.257812 0.789062
vt 0.257812 0.789062
vt 0.257812 0.789062
vt 0.257812 0.789062
vt 0.257812 0.789062
vt 0.257812 0.789062
vt 0.257812 0.789062
vt 0.257812 0.789062
vt 0.257812 0.789062
vt 0.257812 0.789062
vt 0.257812 0.789062
vt 0.257812 0.789062
vt 0.257812 0.789062
vt 0.257812 0.789062
vt 0.257812 0.789062
vt 0.257812 0.789062
vt 0.257812 0.789062
vt 0.257812 0.789062
vt 0.257812 0.789062
vt 0.257812 0.789062
vt 0.257812 0.789062
vt 0.257812 0.789062
vt 0.257812 0.789062
vt 0.257812 0.789062
vt 0.257812 0.789062
vt 0.257812 0.789062
vt 0.257812 0.789062
vt 0.257812 0.789062
vt 0.257812 0.789062
vt 0.257812 0.789062
vt 0.257812 0.789062
vt 0.257812 0.789062
vt 0.257812 0.789062
vt 0.257812 0.789062
vt 0.257812 0.789062
vt 0.242188 0.851562
vt 0.242188 0.851562
vt 0.242188 0.851562
vt 0.242188 0.851562
vt 0.007812 0.914062
vt 0.007812 0.914062
vt 0.007812 0.914062
vt 0.007812 0.914062
vt 0.007812 0.914062
vt 0.007812 0.914062
vt 0.007812 0.914062
vt 0.007812 0.914062
vt 0.007812 0.914062
vt 0.007812 0.914062
vt 0.007812 0.914062
vt 0.007812 0.914062
vt 0.007812 0.914062
vt 0.007812 0.914062
vt 0.007812 0.914062
vt 0.007812 0.914062
vt 0.164062 0.789062
vt 0.164062 0.789062
vt 0.164062 0.789062
vt 0.164062 0.789062
vt 0.164062 0.789062
vt 0.164062 0.789062
vt 0.164062 0.789062
vt 0.164062 0.789062
vt 0.164062 0.789062
vt 0.164062 0.789062
vt 0.164062 0.789062
vt 0.164062 0.789062
vt 0.164062 0.789062
vt 0.164062 0.789062
vt 0.164062 0.789062
vt 0.164062 0.789062
vn 0.0000 0.0000 1.0000
vn -0.7071 -0.0000 0.7071
vn -1.0000 -0.0000 -0.0000
vn 0.0000 0.0000 -1.0000
vn 0.7071 0.0000 -0.7071
vn 1.0000 0.0000 0.0000
vn 0.7071 0.0000 0.7071
vn -0.7071 0.0000 -0.7071
vn 0.0000 1.0000 0.0000
vn -0.0204 0.9996 -0.0204
vn 0.0000 0.9996 -0.0288
vn -0.0288 0.9996 0.0000
vn -0.0204 0.9996 0.0204
vn -0.0000 0.7959 0.6055
vn 0.4281 0.7959 0.4281
vn 0.0000 0.7959 -0.6055
vn -0.4281 0.7959 -0.4281
vn 0.4281 0.7959 -0.4281
vn -0.6055 0.7959 0.0000
vn -0.4281 0.7959 0.4281
vn 0.6055 0.7959 0.0000
vn -0.7885 0.6150 0.0000
vn -0.5575 0.6150 0.5575
vn -0.3666 0.8551 0.3666
vn -0.5185 0.8551 0.0000
vn 0.5575 0.6150 -0.5575
vn 0.0000 0.6150 -0.7885
vn 0.0000 0.8551 -0.5185
vn 0.3666 0.8551 -0.3666
vn -0.0000 0.6150 0.7885
vn -0.0000 0.8551 0.5185
vn -0.5575 0.6150 -0.5575
vn -0.3666 0.8551 -0.3666
vn 0.5575 0.6150 0.5575
vn 0.3666 0.8551 0.3666
vn 0.7885 0.6150 0.0000
vn 0.5185 0.8551 0.0000
vn -0.7062 0.0502 0.7062
vn -0.7034 0.1016 0.7034
vn 0.7062 0.0502 -0.7062
vn 0.7034 0.1016 -0.7034
vn 0.7062 0.0502 0.7062
vn 0.7034 0.1016 0.7034
vn -0.7062 0.0502 -0.7062
vn -0.7034 0.1016 -0.7034
vn -0.7071 0.0019 0.7071
vn -0.7049 0.0787 0.7049
vn -0.6977 0.1626 0.6977
vn 0.7049 0.0787 -0.7049
vn 0.6977 0.1626 -0.6977
vn 0.7049 0.0787 0.7049
vn 0.6977 0.1626 0.6977
vn -0.7049 0.0787 -0.7049
vn -0.6977 0.1626 -0.6977
vn -0.7071 0.0031 0.7071
vn 0.7071 0.0031 0.7071
vn -0.7071 0.0019 -0.7071
vn 0.7071 0.0019 0.7071
vn 0.7071 0.0019 -0.7071
vn -0.7071 0.0031 -0.7071
vn 0.7071 0.0031 -0.7071
vn -0.0000 0.9996 0.0288
vn 0.0204 0.9996 0.0204
vn 0.0288 0.9996 0.0000
vn 0.0204 0.9996 -0.0204
vn -0.0768 0.9971 0.0000
vn -0.0543 0.9971 -0.0543
vn 0.0000 0.9971 -0.0768
vn 0.0543 0.9971 0.0543
vn -0.0000 0.9971 0.0768
vn 0.0543 0.9971 -0.0543
vn -0.0543 0.9971 0.0543
vn 0.0768 0.9971 0.0000
s 1
f 1/1/1 2/2/1 3/3/2 4/4/2
f 4/4/2 3/3/2 5/5/3 6/6/3
f 7/7/4 8/8/4 9/9/5 10/10/5
f 11/11/6 12/12/6 13/13/7 14/14/7
f 15/15/8 16/16/8 8/8/4 7/7/4
f 10/10/5 9/9/5 12/12/6 11/11/6
f 6/6/3 5/5/3 16/16/8 15/15/8
f 8/8/9 16/16/9 17/17/10 18/18/11
f 16/16/9 5/5/9 19/19/12 17/17/10
f 5/5/9 3/3/9 20/20/13 19/19/12
f 21/21/14 22/22/15 23/23/15 24/24/14
f 25/25/16 26/26/17 27/27/17 28/28/16
f 29/29/18 25/25/16 28/28/16 30/30/18
f 31/31/19 32/32/20 33/33/20 34/34/19
f 32/32/20 21/21/14 24/24/14 33/33/20
f 22/22/15 35/35/21 36/36/21 23/23/15
f 26/26/17 31/31/19 34/34/19 27/27/17
f 36/37/22 30/38/23 37/39/24 38/40/25
f 33/41/26 24/42/27 39/43/28 40/44/29
f 30/38/23 28/45/30 41/46/31 37/39/24
f 24/42/27 23/47/32 42/48/33 39/43/28
f 28/45/30 27/49/34 43/50/35 41/46/31
f 27/49/34 34/51/36 44/52/37 43/50/35
f 23/47/32 36/37/22 38/40/25 42/48/33
f 34/51/36 33/41/26 40/44/29 44/52/37
f 42/53/33 38/54/25 45/55/9
f 44/56/37 40/57/29 45/55/9
f 38/54/25 37/58/24 45/55/9
f 40/57/29 39/59/28 45/55/9
f 37/58/24 41/60/31 45/55/9
f 39/59/28 42/53/33 45/55/9
f 41/60/31 43/61/35 45/55/9
f 43/61/35 44/56/37 45/55/9
f 46/62/9 47/63/9 48/64/9
f 49/65/38 50/66/39 48/64/39 51/67/38
f 52/68/40 47/63/41 46/62/41 53/69/40
f 53/69/42 46/62/43 50/66/43 49/65/42
f 51/67/44 48/64/45 47/63/45 52/68/44
f 54/70/46 55/71/46 49/65/38 51/67/38
f 56/72/9 57/73/9 58/74/9
f 59/75/47 60/76/48 58/74/48 61/77/47
f 62/78/49 57/73/50 56/72/50 63/79/49
f 63/79/51 56/72/52 60/76/52 59/75/51
f 61/77/53 58/74/54 57/73/54 62/78/53
f 64/80/55 65/81/55 59/75/47 61/77/47
f 66/82/9 67/83/9 68/84/9
f 66/82/9 68/84/9 69/85/9
f 67/83/52 70/86/51 71/87/51 68/84/52
f 66/82/54 69/85/54 72/88/53 73/89/53
f 67/83/48 66/82/48 73/89/47 70/86/47
f 68/84/50 71/87/49 72/88/49 69/85/50
f 74/90/56 71/87/51 70/86/51 75/91/56
f 76/92/57 54/70/57 51/67/44 52/68/44
f 55/71/58 77/93/58 53/69/42 49/65/42
f 77/93/59 76/92/59 52/68/40 53/69/40
f 78/94/60 64/80/60 61/77/53 62/78/53
f 65/81/56 79/95/56 63/79/51 59/75/51
f 79/95/61 78/94/61 62/78/49 63/79/49
f 80/96/61 72/88/49 71/87/49 74/90/61
f 75/91/55 70/86/47 73/89/47 81/97/55
f 81/97/60 73/89/53 72/88/53 80/96/60
f 35/35/21 29/29/18 30/30/18 36/36/21
f 82/98/62 20/20/13 3/3/9 2/2/9
f 83/99/63 82/98/62 2/2/9 13/13/9
f 84/100/64 83/99/63 13/13/9 12/12/9
f 85/101/65 84/100/64 12/12/9 9/9/9
f 18/18/11 85/101/65 9/9/9 8/8/9
f 17/102/10 19/103/12 31/104/66 26/105/67
f 18/106/11 17/102/10 26/105/67 25/107/68
f 82/108/62 83/109/63 22/110/69 21/111/70
f 85/112/65 18/106/11 25/107/68 29/113/71
f 20/114/13 82/108/62 21/111/70 32/115/72
f 84/116/64 85/112/65 29/113/71 35/117/73
f 19/103/12 20/114/13 32/115/72 31/104/66
f 83/109/63 84/116/64 35/117/73 22/110/69
f 86/118/9 87/119/9 88/120/9 89/121/9
f 90/122/9 91/123/9 92/124/9 93/125/9
f 91/123/9 94/126/9 95/127/9 92/124/9
f 94/126/9 96/128/9 97/129/9 95/127/9
f 98/130/9 99/131/9 100/132/9 101/133/9
f 96/128/9 98/130/9 101/133/9 97/129/9
f 87/119/9 90/122/9 93/125/9 88/120/9
f 99/131/9 86/118/9 89/121/9 100/132/9
f 50/66/9 46/62/9 48/64/9
f 60/76/9 56/72/9 58/74/9
f 14/14/7 13/13/7 2/2/1 1/1/1
