# Blender v2.83.4 OBJ File: 'decos.blend'
# www.blender.org
o Cube.002_Cube.014
v -6.088096 -4.428061 0.193332
v -6.497614 1.582713 0.193332
v -6.907133 1.000000 0.193332
v -6.907134 -4.428061 0.193332
v -6.907133 1.000000 -0.034668
v -6.907134 -4.428061 -0.034668
v -6.088096 -4.428061 -0.034668
v -6.497614 1.582713 -0.034668
v -6.088096 1.000000 -0.034668
v -6.088096 1.000000 0.193332
v -7.088096 -4.428061 0.193332
v -7.497614 1.582713 0.193332
v -7.907133 1.000000 0.193332
v -7.907134 -4.428061 0.193332
v -7.907133 1.000000 -0.034668
v -7.907134 -4.428061 -0.034668
v -7.088096 -4.428061 -0.034668
v -7.497614 1.582713 -0.034668
v -7.088095 1.000000 -0.034668
v -7.088095 1.000000 0.193332
v -8.088096 -4.428061 0.193332
v -8.497613 1.582713 0.193332
v -8.907132 1.000000 0.193332
v -8.907133 -4.428061 0.193332
v -8.907132 1.000000 -0.034668
v -8.907133 -4.428061 -0.034668
v -8.088096 -4.428061 -0.034668
v -8.497613 1.582713 -0.034668
v -8.088096 1.000000 -0.034668
v -8.088096 1.000000 0.193332
v -9.088095 -4.428061 0.193332
v -9.497613 1.582713 0.193332
v -9.907132 1.000000 0.193332
v -9.907133 -4.428061 0.193332
v -9.907132 1.000000 -0.034668
v -9.907133 -4.428061 -0.034668
v -9.088095 -4.428061 -0.034668
v -9.497613 1.582713 -0.034668
v -9.088095 1.000000 -0.034668
v -9.088095 1.000000 0.193332
v -2.088095 -4.428061 0.193332
v -2.497614 1.582713 0.193332
v -2.907133 1.000000 0.193332
v -2.907133 -4.428061 0.193332
v -2.907133 1.000000 -0.034668
v -2.907133 -4.428061 -0.034668
v -2.088095 -4.428061 -0.034668
v -2.497614 1.582713 -0.034668
v -2.088095 1.000000 -0.034668
v -2.088095 1.000000 0.193332
v -3.088095 -4.428061 0.193332
v -3.497614 1.582713 0.193332
v -3.907133 1.000000 0.193332
v -3.907133 -4.428061 0.193332
v -3.907133 1.000000 -0.034668
v -3.907133 -4.428061 -0.034668
v -3.088095 -4.428061 -0.034668
v -3.497614 1.582713 -0.034668
v -3.088095 1.000000 -0.034668
v -3.088095 1.000000 0.193332
v -4.088095 -4.428061 0.193332
v -4.497614 1.582713 0.193332
v -4.907133 1.000000 0.193332
v -4.907134 -4.428061 0.193332
v -4.907133 1.000000 -0.034668
v -4.907134 -4.428061 -0.034668
v -4.088095 -4.428061 -0.034668
v -4.497614 1.582713 -0.034668
v -4.088095 1.000000 -0.034668
v -4.088095 1.000000 0.193332
v -5.088096 -4.428061 0.193332
v -5.497614 1.582713 0.193332
v -5.907133 1.000000 0.193332
v -5.907134 -4.428061 0.193332
v -5.907133 1.000000 -0.034668
v -5.907134 -4.428061 -0.034668
v -5.088096 -4.428061 -0.034668
v -5.497614 1.582713 -0.034668
v -5.088096 1.000000 -0.034668
v -5.088096 1.000000 0.193332
v 1.911905 -4.428061 0.193332
v 1.502386 1.582713 0.193332
v 1.092867 1.000000 0.193332
v 1.092867 -4.428061 0.193332
v 1.092867 1.000000 -0.034668
v 1.092867 -4.428061 -0.034668
v 1.911905 -4.428061 -0.034668
v 1.502386 1.582713 -0.034668
v 1.911905 1.000000 -0.034668
v 1.911905 1.000000 0.193332
v 0.911905 -4.428061 0.193332
v 0.502386 1.582713 0.193332
v 0.092867 1.000000 0.193332
v 0.092866 -4.428061 0.193332
v 0.092867 1.000000 -0.034668
v 0.092866 -4.428061 -0.034668
v 0.911905 -4.428061 -0.034668
v 0.502386 1.582713 -0.034668
v 0.911905 1.000000 -0.034668
v 0.911905 1.000000 0.193332
v -0.088095 -4.428061 0.193332
v -0.497614 1.582713 0.193332
v -0.907133 1.000000 0.193332
v -0.907133 -4.428061 0.193332
v -0.907133 1.000000 -0.034668
v -0.907133 -4.428061 -0.034668
v -0.088095 -4.428061 -0.034668
v -0.497614 1.582713 -0.034668
v -0.088095 1.000000 -0.034668
v -0.088095 1.000000 0.193332
v -1.088095 -4.428061 0.193332
v -1.497614 1.582713 0.193332
v -1.907133 1.000000 0.193332
v -1.907133 -4.428061 0.193332
v -1.907133 1.000000 -0.034668
v -1.907133 -4.428061 -0.034668
v -1.088095 -4.428061 -0.034668
v -1.497614 1.582713 -0.034668
v -1.088095 1.000000 -0.034668
v -1.088095 1.000000 0.193332
v 5.911904 -4.428061 0.193332
v 5.502386 1.582713 0.193332
v 5.092867 1.000000 0.193332
v 5.092867 -4.428061 0.193332
v 5.092867 1.000000 -0.034668
v 5.092867 -4.428061 -0.034668
v 5.911904 -4.428061 -0.034668
v 5.502386 1.582713 -0.034668
v 5.911904 1.000000 -0.034668
v 5.911904 1.000000 0.193332
v 4.911904 -4.428061 0.193332
v 4.502386 1.582713 0.193332
v 4.092867 1.000000 0.193332
v 4.092866 -4.428061 0.193332
v 4.092867 1.000000 -0.034668
v 4.092866 -4.428061 -0.034668
v 4.911904 -4.428061 -0.034668
v 4.502386 1.582713 -0.034668
v 4.911904 1.000000 -0.034668
v 4.911904 1.000000 0.193332
v 3.911904 -4.428061 0.193332
v 3.502386 1.582713 0.193332
v 3.092867 1.000000 0.193332
v 3.092866 -4.428061 0.193332
v 3.092867 1.000000 -0.034668
v 3.092866 -4.428061 -0.034668
v 3.911904 -4.428061 -0.034668
v 3.502386 1.582713 -0.034668
v 3.911904 1.000000 -0.034668
v 3.911904 1.000000 0.193332
v 2.911905 -4.428061 0.193332
v 2.502386 1.582713 0.193332
v 2.092867 1.000000 0.193332
v 2.092867 -4.428061 0.193332
v 2.092867 1.000000 -0.034668
v 2.092867 -4.428061 -0.034668
v 2.911905 -4.428061 -0.034668
v 2.502386 1.582713 -0.034668
v 2.911905 1.000000 -0.034668
v 2.911905 1.000000 0.193332
v 9.911904 -4.428061 0.193332
v 9.502387 1.582713 0.193332
v 9.092868 1.000000 0.193332
v 9.092868 -4.428061 0.193332
v 9.092868 1.000000 -0.034668
v 9.092868 -4.428061 -0.034668
v 9.911904 -4.428061 -0.034668
v 9.502387 1.582713 -0.034668
v 9.911906 1.000000 -0.034668
v 9.911906 1.000000 0.193332
v 10.002387 -0.156160 0.201845
v 10.002387 0.232362 0.201845
v 10.002387 0.232362 0.309710
v 10.002387 -0.156160 0.309710
v 8.911904 -4.428061 0.193332
v 8.502387 1.582713 0.193332
v 8.092868 1.000000 0.193332
v 8.092868 -4.428061 0.193332
v 8.092868 1.000000 -0.034668
v 8.092868 -4.428061 -0.034668
v 8.911904 -4.428061 -0.034668
v 8.502387 1.582713 -0.034668
v 8.911906 1.000000 -0.034668
v 8.911906 1.000000 0.193332
v 7.911905 -4.428061 0.193332
v 7.502386 1.582713 0.193332
v 7.092867 1.000000 0.193332
v 7.092866 -4.428061 0.193332
v 7.092867 1.000000 -0.034668
v 7.092866 -4.428061 -0.034668
v 7.911905 -4.428061 -0.034668
v 7.502386 1.582713 -0.034668
v 7.911905 1.000000 -0.034668
v 7.911905 1.000000 0.193332
v 6.911904 -4.428061 0.193332
v 6.502386 1.582713 0.193332
v 6.092867 1.000000 0.193332
v 6.092867 -4.428061 0.193332
v 6.092867 1.000000 -0.034668
v 6.092867 -4.428061 -0.034668
v 6.911904 -4.428061 -0.034668
v 6.502386 1.582713 -0.034668
v 6.911904 1.000000 -0.034668
v 6.911904 1.000000 0.193332
v -9.997614 0.232362 0.201845
v -9.997614 0.232362 0.309710
v -9.997614 -0.156160 0.309710
v -9.997614 -0.156160 0.201845
vt 0.179313 0.897983
vt 0.179313 0.897983
vt 0.179313 0.897983
vt 0.179313 0.897983
vt 0.179313 0.897983
vt 0.179313 0.897983
vt 0.179313 0.897983
vt 0.179313 0.897983
vt 0.179313 0.897983
vt 0.179313 0.897983
vt 0.179313 0.897983
vt 0.179313 0.897983
vt 0.179313 0.897983
vt 0.179313 0.897983
vt 0.179313 0.897983
vt 0.179313 0.897983
vt 0.179313 0.897983
vt 0.179313 0.897983
vt 0.179313 0.897983
vt 0.179313 0.897983
vt 0.179313 0.897983
vt 0.179313 0.897983
vt 0.179313 0.897983
vt 0.179313 0.897983
vt 0.179313 0.897983
vt 0.179313 0.897983
vt 0.179313 0.897983
vt 0.179313 0.897983
vt 0.179313 0.897983
vt 0.179313 0.897983
vt 0.179313 0.897983
vt 0.179313 0.897983
vt 0.179313 0.897983
vt 0.179313 0.897983
vt 0.179313 0.897983
vt 0.179313 0.897983
vt 0.179313 0.897983
vt 0.179313 0.897983
vt 0.179313 0.897983
vt 0.179313 0.897983
vt 0.179313 0.897983
vt 0.179313 0.897983
vt 0.179313 0.897983
vt 0.179313 0.897983
vt 0.179313 0.897983
vt 0.179313 0.897983
vt 0.179313 0.897983
vt 0.179313 0.897983
vt 0.179313 0.897983
vt 0.179313 0.897983
vt 0.179313 0.897983
vt 0.179313 0.897983
vt 0.179313 0.897983
vt 0.179313 0.897983
vt 0.179313 0.897983
vt 0.179313 0.897983
vt 0.179313 0.897983
vt 0.179313 0.897983
vt 0.179313 0.897983
vt 0.179313 0.897983
vt 0.179313 0.897983
vt 0.179313 0.897983
vt 0.179313 0.897983
vt 0.179313 0.897983
vt 0.179313 0.897983
vt 0.179313 0.897983
vt 0.179313 0.897983
vt 0.179313 0.897983
vt 0.179313 0.897983
vt 0.179313 0.897983
vt 0.179313 0.897983
vt 0.179313 0.897983
vt 0.179313 0.897983
vt 0.179313 0.897983
vt 0.179313 0.897983
vt 0.179313 0.897983
vt 0.179313 0.897983
vt 0.179313 0.897983
vt 0.179313 0.897983
vt 0.179313 0.897983
vt 0.179313 0.897983
vt 0.179313 0.897983
vt 0.179313 0.897983
vt 0.179313 0.897983
vt 0.179313 0.897983
vt 0.179313 0.897983
vt 0.179313 0.897983
vt 0.179313 0.897983
vt 0.179313 0.897983
vt 0.179313 0.897983
vt 0.179313 0.897983
vt 0.179313 0.897983
vt 0.179313 0.897983
vt 0.179313 0.897983
vt 0.179313 0.897983
vt 0.179313 0.897983
vt 0.179313 0.897983
vt 0.179313 0.897983
vt 0.179313 0.897983
vt 0.179313 0.897983
vt 0.179313 0.897983
vt 0.179313 0.897983
vt 0.179313 0.897983
vt 0.179313 0.897983
vt 0.179313 0.897983
vt 0.179313 0.897983
vt 0.179313 0.897983
vt 0.179313 0.897983
vt 0.179313 0.897983
vt 0.179313 0.897983
vt 0.179313 0.897983
vt 0.179313 0.897983
vt 0.179313 0.897983
vt 0.179313 0.897983
vt 0.179313 0.897983
vt 0.179313 0.897983
vt 0.179313 0.897983
vt 0.179313 0.897983
vt 0.179313 0.897983
vt 0.179313 0.897983
vt 0.179313 0.897983
vt 0.179313 0.897983
vt 0.179313 0.897983
vt 0.179313 0.897983
vt 0.179313 0.897983
vt 0.179313 0.897983
vt 0.179313 0.897983
vt 0.179313 0.897983
vt 0.179313 0.897983
vt 0.179313 0.897983
vt 0.179313 0.897983
vt 0.179313 0.897983
vt 0.179313 0.897983
vt 0.179313 0.897983
vt 0.179313 0.897983
vt 0.179313 0.897983
vt 0.179313 0.897983
vt 0.179313 0.897983
vt 0.179313 0.897983
vt 0.179313 0.897983
vt 0.179313 0.897983
vt 0.179313 0.897983
vt 0.179313 0.897983
vt 0.179313 0.897983
vt 0.179313 0.897983
vt 0.179313 0.897983
vt 0.179313 0.897983
vt 0.179313 0.897983
vt 0.179313 0.897983
vt 0.179313 0.897983
vt 0.179313 0.897983
vt 0.179313 0.897983
vt 0.179313 0.897983
vt 0.179313 0.897983
vt 0.179313 0.897983
vt 0.179313 0.897983
vt 0.179313 0.897983
vt 0.179313 0.897983
vt 0.179313 0.897983
vt 0.179313 0.897983
vt 0.179313 0.897983
vt 0.179313 0.897983
vt 0.179313 0.897983
vt 0.179313 0.897983
vt 0.179313 0.897983
vt 0.179313 0.897983
vt 0.179313 0.897983
vt 0.179313 0.897983
vt 0.179313 0.897983
vt 0.179313 0.897983
vt 0.179313 0.897983
vt 0.179313 0.897983
vt 0.179313 0.897983
vt 0.179313 0.897983
vt 0.179313 0.897983
vt 0.179313 0.897983
vt 0.179313 0.897983
vt 0.179313 0.897983
vt 0.179313 0.897983
vt 0.179313 0.897983
vt 0.179313 0.897983
vt 0.179313 0.897983
vt 0.179313 0.897983
vt 0.179313 0.897983
vt 0.179313 0.897983
vt 0.179313 0.897983
vt 0.179313 0.897983
vt 0.179313 0.897983
vt 0.179313 0.897983
vt 0.179313 0.897983
vt 0.179313 0.897983
vt 0.179313 0.897983
vt 0.179313 0.897983
vt 0.179313 0.897983
vt 0.179313 0.897983
vt 0.179313 0.897983
vt 0.179313 0.897983
vt 0.179313 0.897983
vt 0.179313 0.897983
vt 0.179313 0.897983
vt 0.179313 0.897983
vt 0.179313 0.897983
vt 0.179313 0.897983
vt 0.179313 0.897983
vt 0.179313 0.897983
vt 0.179313 0.897983
vt 0.179313 0.897983
vt 0.179313 0.897983
vn -0.0000 -0.0000 1.0000
vn -1.0000 0.0000 0.0000
vn 0.0000 0.0000 -1.0000
vn 1.0000 0.0000 0.0000
vn 0.8182 0.5750 0.0000
vn -0.8182 0.5750 0.0000
vn 0.0000 1.0000 0.0000
s 1
f 1/1/1 2/2/1 3/3/1 4/4/1
f 4/4/2 3/3/2 5/5/2 6/6/2
f 7/7/3 8/8/3 9/9/3
f 7/7/4 9/9/4 10/10/4 1/1/4
f 8/8/5 2/2/5 10/10/5 9/9/5
f 5/5/6 3/3/6 2/2/6 8/8/6
f 6/6/3 5/5/3 8/8/3 7/7/3
f 1/1/1 10/10/1 2/2/1
f 11/11/1 12/12/1 13/13/1 14/14/1
f 14/14/2 13/13/2 15/15/2 16/16/2
f 17/17/3 18/18/3 19/19/3
f 17/17/4 19/19/4 20/20/4 11/11/4
f 18/18/5 12/12/5 20/20/5 19/19/5
f 15/15/6 13/13/6 12/12/6 18/18/6
f 16/16/3 15/15/3 18/18/3 17/17/3
f 11/11/1 20/20/1 12/12/1
f 21/21/1 22/22/1 23/23/1 24/24/1
f 24/24/2 23/23/2 25/25/2 26/26/2
f 27/27/3 28/28/3 29/29/3
f 27/27/4 29/29/4 30/30/4 21/21/4
f 28/28/5 22/22/5 30/30/5 29/29/5
f 25/25/6 23/23/6 22/22/6 28/28/6
f 26/26/3 25/25/3 28/28/3 27/27/3
f 21/21/1 30/30/1 22/22/1
f 31/31/1 32/32/1 33/33/1 34/34/1
f 34/34/2 33/33/2 35/35/2 36/36/2
f 37/37/3 38/38/3 39/39/3
f 37/37/4 39/39/4 40/40/4 31/31/4
f 38/38/5 32/32/5 40/40/5 39/39/5
f 35/35/6 33/33/6 32/32/6 38/38/6
f 36/36/3 35/35/3 38/38/3 37/37/3
f 31/31/1 40/40/1 32/32/1
f 41/41/1 42/42/1 43/43/1 44/44/1
f 44/44/2 43/43/2 45/45/2 46/46/2
f 47/47/3 48/48/3 49/49/3
f 47/47/4 49/49/4 50/50/4 41/41/4
f 48/48/5 42/42/5 50/50/5 49/49/5
f 45/45/6 43/43/6 42/42/6 48/48/6
f 46/46/3 45/45/3 48/48/3 47/47/3
f 41/41/1 50/50/1 42/42/1
f 51/51/1 52/52/1 53/53/1 54/54/1
f 54/54/2 53/53/2 55/55/2 56/56/2
f 57/57/3 58/58/3 59/59/3
f 57/57/4 59/59/4 60/60/4 51/51/4
f 58/58/5 52/52/5 60/60/5 59/59/5
f 55/55/6 53/53/6 52/52/6 58/58/6
f 56/56/3 55/55/3 58/58/3 57/57/3
f 51/51/1 60/60/1 52/52/1
f 61/61/1 62/62/1 63/63/1 64/64/1
f 64/64/2 63/63/2 65/65/2 66/66/2
f 67/67/3 68/68/3 69/69/3
f 67/67/4 69/69/4 70/70/4 61/61/4
f 68/68/5 62/62/5 70/70/5 69/69/5
f 65/65/6 63/63/6 62/62/6 68/68/6
f 66/66/3 65/65/3 68/68/3 67/67/3
f 61/61/1 70/70/1 62/62/1
f 71/71/1 72/72/1 73/73/1 74/74/1
f 74/74/2 73/73/2 75/75/2 76/76/2
f 77/77/3 78/78/3 79/79/3
f 77/77/4 79/79/4 80/80/4 71/71/4
f 78/78/5 72/72/5 80/80/5 79/79/5
f 75/75/6 73/73/6 72/72/6 78/78/6
f 76/76/3 75/75/3 78/78/3 77/77/3
f 71/71/1 80/80/1 72/72/1
f 81/81/1 82/82/1 83/83/1 84/84/1
f 84/84/2 83/83/2 85/85/2 86/86/2
f 87/87/3 88/88/3 89/89/3
f 87/87/4 89/89/4 90/90/4 81/81/4
f 88/88/5 82/82/5 90/90/5 89/89/5
f 85/85/6 83/83/6 82/82/6 88/88/6
f 86/86/3 85/85/3 88/88/3 87/87/3
f 81/81/1 90/90/1 82/82/1
f 91/91/1 92/92/1 93/93/1 94/94/1
f 94/94/2 93/93/2 95/95/2 96/96/2
f 97/97/3 98/98/3 99/99/3
f 97/97/4 99/99/4 100/100/4 91/91/4
f 98/98/5 92/92/5 100/100/5 99/99/5
f 95/95/6 93/93/6 92/92/6 98/98/6
f 96/96/3 95/95/3 98/98/3 97/97/3
f 91/91/1 100/100/1 92/92/1
f 101/101/1 102/102/1 103/103/1 104/104/1
f 104/104/2 103/103/2 105/105/2 106/106/2
f 107/107/3 108/108/3 109/109/3
f 107/107/4 109/109/4 110/110/4 101/101/4
f 108/108/5 102/102/5 110/110/5 109/109/5
f 105/105/6 103/103/6 102/102/6 108/108/6
f 106/106/3 105/105/3 108/108/3 107/107/3
f 101/101/1 110/110/1 102/102/1
f 111/111/1 112/112/1 113/113/1 114/114/1
f 114/114/2 113/113/2 115/115/2 116/116/2
f 117/117/3 118/118/3 119/119/3
f 117/117/4 119/119/4 120/120/4 111/111/4
f 118/118/5 112/112/5 120/120/5 119/119/5
f 115/115/6 113/113/6 112/112/6 118/118/6
f 116/116/3 115/115/3 118/118/3 117/117/3
f 111/111/1 120/120/1 112/112/1
f 121/121/1 122/122/1 123/123/1 124/124/1
f 124/124/2 123/123/2 125/125/2 126/126/2
f 127/127/3 128/128/3 129/129/3
f 127/127/4 129/129/4 130/130/4 121/121/4
f 128/128/5 122/122/5 130/130/5 129/129/5
f 125/125/6 123/123/6 122/122/6 128/128/6
f 126/126/3 125/125/3 128/128/3 127/127/3
f 121/121/1 130/130/1 122/122/1
f 131/131/1 132/132/1 133/133/1 134/134/1
f 134/134/2 133/133/2 135/135/2 136/136/2
f 137/137/3 138/138/3 139/139/3
f 137/137/4 139/139/4 140/140/4 131/131/4
f 138/138/5 132/132/5 140/140/5 139/139/5
f 135/135/6 133/133/6 132/132/6 138/138/6
f 136/136/3 135/135/3 138/138/3 137/137/3
f 131/131/1 140/140/1 132/132/1
f 141/141/1 142/142/1 143/143/1 144/144/1
f 144/144/2 143/143/2 145/145/2 146/146/2
f 147/147/3 148/148/3 149/149/3
f 147/147/4 149/149/4 150/150/4 141/141/4
f 148/148/5 142/142/5 150/150/5 149/149/5
f 145/145/6 143/143/6 142/142/6 148/148/6
f 146/146/3 145/145/3 148/148/3 147/147/3
f 141/141/1 150/150/1 142/142/1
f 151/151/1 152/152/1 153/153/1 154/154/1
f 154/154/2 153/153/2 155/155/2 156/156/2
f 157/157/3 158/158/3 159/159/3
f 157/157/4 159/159/4 160/160/4 151/151/4
f 158/158/5 152/152/5 160/160/5 159/159/5
f 155/155/6 153/153/6 152/152/6 158/158/6
f 156/156/3 155/155/3 158/158/3 157/157/3
f 151/151/1 160/160/1 152/152/1
f 161/161/1 162/162/1 163/163/1 164/164/1
f 164/164/2 163/163/2 165/165/2 166/166/2
f 167/167/3 168/168/3 169/169/3
f 167/167/4 169/169/4 170/170/4 161/161/4
f 168/168/5 162/162/5 170/170/5 169/169/5
f 165/165/6 163/163/6 162/162/6 168/168/6
f 166/166/3 165/165/3 168/168/3 167/167/3
f 161/161/1 170/170/1 162/162/1
f 171/171/4 172/172/4 173/173/4 174/174/4
f 175/175/1 176/176/1 177/177/1 178/178/1
f 178/178/2 177/177/2 179/179/2 180/180/2
f 181/181/3 182/182/3 183/183/3
f 181/181/4 183/183/4 184/184/4 175/175/4
f 182/182/5 176/176/5 184/184/5 183/183/5
f 179/179/6 177/177/6 176/176/6 182/182/6
f 180/180/3 179/179/3 182/182/3 181/181/3
f 175/175/1 184/184/1 176/176/1
f 185/185/1 186/186/1 187/187/1 188/188/1
f 188/188/2 187/187/2 189/189/2 190/190/2
f 191/191/3 192/192/3 193/193/3
f 191/191/4 193/193/4 194/194/4 185/185/4
f 192/192/5 186/186/5 194/194/5 193/193/5
f 189/189/6 187/187/6 186/186/6 192/192/6
f 190/190/3 189/189/3 192/192/3 191/191/3
f 185/185/1 194/194/1 186/186/1
f 195/195/1 196/196/1 197/197/1 198/198/1
f 198/198/2 197/197/2 199/199/2 200/200/2
f 201/201/3 202/202/3 203/203/3
f 201/201/4 203/203/4 204/204/4 195/195/4
f 202/202/5 196/196/5 204/204/5 203/203/5
f 199/199/6 197/197/6 196/196/6 202/202/6
f 200/200/3 199/199/3 202/202/3 201/201/3
f 195/195/1 204/204/1 196/196/1
f 205/205/4 206/206/4 207/207/4 208/208/4
f 206/206/7 173/173/7 172/172/7 205/205/7
f 206/206/1 207/207/1 174/174/1 173/173/1
f 208/208/3 205/205/3 172/172/3 171/171/3
