# Blender v2.91.0 Beta OBJ File: 'decos.blend'
# www.blender.org
o Cube.001
v -1.417976 4.869915 0.205895
v -1.417976 9.983444 0.205895
v -1.417976 4.869915 0.001094
v -1.417976 9.983444 0.001094
v 1.417976 4.869915 0.205895
v 1.417976 9.983444 0.205895
v 1.417976 4.869915 0.001094
v 1.417976 9.983444 0.001094
v -1.642724 4.711693 0.225473
v -1.642724 4.711693 -0.011789
v 1.642724 4.711693 0.225473
v 1.642724 4.711693 -0.011789
v -1.642724 3.731735 -0.011789
v -1.642724 3.731735 0.225473
v 1.642724 3.731735 -0.011789
v 1.642724 3.731735 0.225473
v -1.754807 10.366121 0.261079
v -1.802333 10.543488 0.261079
v -1.802333 10.543488 -0.047395
v -1.754807 10.366121 -0.047395
v -1.624966 10.236280 0.261079
v -1.624966 10.236280 -0.047395
v -1.447600 10.188755 0.261079
v -1.447600 10.188755 -0.047395
v 1.754807 10.366121 -0.047395
v 1.802333 10.543488 -0.047395
v 1.802333 10.543488 0.261079
v 1.754807 10.366121 0.261079
v 1.624966 10.236280 -0.047395
v 1.624966 10.236280 0.261079
v 1.447600 10.188755 -0.047395
v 1.447600 10.188755 0.261079
v -1.624966 12.162129 0.261079
v -1.447600 12.209655 0.261079
v -1.447600 12.209655 -0.047395
v -1.624966 12.162129 -0.047395
v -1.754807 12.032287 0.261079
v -1.754807 12.032287 -0.047395
v -1.802333 11.854921 0.261079
v -1.802333 11.854921 -0.047395
v 1.624966 12.162129 -0.047395
v 1.447600 12.209655 -0.047395
v 1.447600 12.209655 0.261079
v 1.624966 12.162129 0.261079
v 1.754807 12.032287 -0.047395
v 1.754807 12.032287 0.261079
v 1.802333 11.854921 -0.047395
v 1.802333 11.854921 0.261079
v -1.189095 5.043593 0.209243
v -1.189095 9.755089 0.209243
v 1.189095 5.043593 0.209243
v 1.189095 9.755089 0.209243
v -0.514478 5.924601 0.209243
v -0.514478 5.043593 0.209243
v -0.514478 7.078442 0.209243
v -0.514478 6.252422 0.209243
v -0.514478 8.226066 0.209243
v -0.514478 7.400046 0.209243
v -1.189095 5.924601 0.209243
v -1.189095 6.252422 0.209243
v -1.189095 7.078442 0.209243
v -1.189095 7.400046 0.209243
v -1.189095 8.226066 0.209243
v -1.189095 8.410234 0.209243
v 1.189095 8.410234 0.209243
v 1.189095 8.226066 0.209243
v 1.189095 7.400046 0.209243
v 1.189095 7.078442 0.209243
v 1.189095 6.252422 0.209243
v 1.189095 5.924601 0.209243
v 1.039888 5.126689 0.215471
v -0.365271 5.841506 0.215471
v -0.365271 5.126689 0.215471
v -0.365271 7.000532 0.215471
v -0.365271 6.330331 0.215471
v -0.365271 8.148157 0.215471
v -0.365271 7.477955 0.215471
v 1.039888 8.148157 0.215471
v 1.039888 7.477955 0.215471
v 1.039888 7.000532 0.215471
v 1.039888 6.330331 0.215471
v 1.039888 5.841506 0.215471
v 0.010068 6.330331 0.215471
v -0.038030 6.330331 0.215471
v -0.038030 7.000532 0.215471
v 0.010068 7.000532 0.215471
v 0.010068 7.477955 0.215471
v -0.038030 7.477955 0.215471
v -0.038030 8.148157 0.215471
v 0.010068 8.148157 0.215471
v 0.010068 5.126689 0.215471
v -0.038030 5.126689 0.215471
v -0.038030 5.841506 0.215471
v 0.010068 5.841506 0.215471
v -0.575291 10.498953 0.268793
v -0.532716 10.382204 0.268793
v 0.575525 10.498953 0.268793
v 0.532950 10.382204 0.268793
v -0.532716 12.113867 0.268793
v -0.575291 11.997116 0.268793
v 0.532950 12.113867 0.268793
v 0.575525 11.997116 0.268793
v -0.411278 11.361789 0.268793
v -0.380838 11.321836 0.268793
v 0.411512 11.361789 0.268793
v 0.381072 11.321836 0.268793
v -0.339256 11.929068 0.268793
v -0.411278 11.874489 0.268793
v 0.339491 11.929068 0.268793
v 0.411512 11.874489 0.268793
v -0.677508 10.511891 0.278293
v 0.677742 10.511891 0.278293
v -0.677508 10.247801 0.278293
v 0.677742 10.247801 0.278293
v 0.000000 12.209655 0.261079
v 0.000000 12.209655 -0.047395
v 0.000000 12.201068 0.261079
v 0.531106 11.418789 0.261497
v 0.531106 11.313330 0.261497
v 0.618936 11.416372 0.261497
v 0.587374 11.315746 0.261497
v 0.735374 11.335939 0.261497
v 0.654332 11.268456 0.261497
v 0.790837 11.074554 0.261497
v 0.690568 11.041875 0.261497
v 0.753992 10.808739 0.261497
v 0.648814 10.816453 0.261497
v 0.773608 10.701904 0.261497
v 0.684872 10.644917 0.261497
v 0.860519 10.642256 0.261497
v 0.873056 10.537544 0.261497
v 0.926892 10.688536 0.261497
v 0.999904 10.612436 0.261497
v 0.933881 10.744417 0.261497
v 1.038764 10.733402 0.261497
v 0.895219 11.127762 0.261497
v 0.988458 11.158800 0.261497
v 0.939507 11.305176 0.261497
v 1.059337 11.253371 0.261497
v 0.958526 11.443104 0.261497
v 1.077980 11.465861 0.261497
v 0.927491 11.687412 0.261497
v 0.986206 11.775015 0.261497
v 0.824920 11.836590 0.261497
v 0.866081 11.933683 0.261497
v 0.695560 11.946299 0.261497
v 0.736721 12.043393 0.261497
v 0.596730 11.981415 0.261497
v 0.596543 12.060511 0.261497
vt 0.835938 0.476562
vt 0.835938 0.476562
vt 0.835938 0.476562
vt 0.835938 0.476562
vt 0.835938 0.476562
vt 0.835938 0.476562
vt 0.835938 0.476562
vt 0.835938 0.476562
vt 0.898438 0.429688
vt 0.898438 0.429688
vt 0.898438 0.429688
vt 0.898438 0.429688
vt 0.898438 0.429688
vt 0.898438 0.429688
vt 0.898438 0.429688
vt 0.898438 0.429688
vt 0.898438 0.429688
vt 0.835938 0.476562
vt 0.835938 0.476562
vt 0.835938 0.476562
vt 0.898438 0.429688
vt 0.898438 0.429688
vt 0.898438 0.429688
vt 0.898438 0.429688
vt 0.898438 0.429688
vt 0.898438 0.429688
vt 0.898438 0.429688
vt 0.898438 0.429688
vt 0.898438 0.429688
vt 0.835938 0.367188
vt 0.835938 0.367188
vt 0.835938 0.367188
vt 0.835938 0.367188
vt 0.835938 0.367188
vt 0.835938 0.367188
vt 0.835938 0.367188
vt 0.835938 0.367188
vt 0.835938 0.367188
vt 0.898438 0.429688
vt 0.898438 0.429688
vt 0.898438 0.429688
vt 0.851562 0.414062
vt 0.851562 0.414062
vt 0.851562 0.414062
vt 0.851562 0.414062
vt 0.851562 0.414062
vt 0.851562 0.414062
vt 0.851562 0.414062
vt 0.851562 0.414062
vt 0.851562 0.414062
vt 0.851562 0.414062
vt 0.851562 0.414062
vt 0.851562 0.414062
vt 0.851562 0.414062
vt 0.851562 0.414062
vt 0.851562 0.414062
vt 0.851562 0.414062
vt 0.851562 0.414062
vt 0.851562 0.414062
vt 0.835938 0.476562
vt 0.835938 0.476562
vt 0.835938 0.476562
vt 0.835938 0.476562
vt 0.835938 0.476562
vt 0.835938 0.476562
vt 0.835938 0.476562
vt 0.835938 0.476562
vt 0.835938 0.476562
vt 0.835938 0.476562
vt 0.835938 0.476562
vt 0.835938 0.476562
vt 0.835938 0.476562
vt 0.835938 0.476562
vt 0.835938 0.476562
vt 0.835938 0.476562
vt 0.835938 0.476562
vt 0.835938 0.476562
vt 0.835938 0.476562
vt 0.835938 0.476562
vt 0.835938 0.476562
vt 0.835938 0.476562
vt 0.835938 0.476562
vt 0.835938 0.476562
vt 0.835938 0.476562
vt 0.835938 0.476562
vt 0.835938 0.476562
vt 0.835938 0.476562
vt 0.835938 0.476562
vt 0.835938 0.476562
vt 0.835938 0.476562
vt 0.835938 0.476562
vt 0.835938 0.476562
vt 0.835938 0.476562
vt 0.835938 0.476562
vt 0.835938 0.476562
vt 0.835938 0.476562
vt 0.835938 0.476562
vt 0.835938 0.476562
vt 0.835938 0.476562
vt 0.835938 0.476562
vt 0.835938 0.476562
vt 0.835938 0.476562
vt 0.835938 0.476562
vt 0.835938 0.476562
vt 0.835938 0.476562
vt 0.835938 0.476562
vt 0.835938 0.476562
vt 0.898438 0.429688
vt 0.898438 0.429688
vt 0.898438 0.429688
vt 0.898438 0.429688
vt 0.898438 0.429688
vt 0.898438 0.429688
vt 0.898438 0.429688
vt 0.898438 0.429688
vt 0.898438 0.429688
vt 0.898438 0.429688
vt 0.898438 0.429688
vt 0.898438 0.429688
vt 0.898438 0.429688
vt 0.898438 0.429688
vt 0.898438 0.429688
vt 0.898438 0.429688
vt 0.835938 0.476562
vt 0.835938 0.476562
vt 0.835938 0.476562
vt 0.835938 0.476562
vt 0.835938 0.476562
vt 0.835938 0.476562
vt 0.835938 0.476562
vt 0.835938 0.476562
vt 0.835938 0.476562
vt 0.835938 0.476562
vt 0.835938 0.476562
vt 0.835938 0.476562
vt 0.835938 0.476562
vt 0.835938 0.476562
vt 0.898438 0.429688
vt 0.898438 0.429688
vt 0.898438 0.429688
vt 0.835938 0.367188
vt 0.835938 0.367188
vt 0.835938 0.367188
vt 0.898438 0.429688
vt 0.851562 0.414062
vt 0.851562 0.414062
vt 0.851562 0.414062
vt 0.851562 0.414062
vt 0.851562 0.414062
vt 0.851562 0.414062
vt 0.835938 0.476562
vt 0.835938 0.476562
vt 0.835938 0.476562
vt 0.835938 0.476562
vn -1.0000 0.0000 0.0000
vn 0.0000 0.0000 -1.0000
vn 1.0000 0.0000 0.0000
vn 0.0000 0.0000 1.0000
vn 0.0000 -1.0000 0.0000
vn 0.0000 1.0000 0.0000
s 1
f 2/1/1 3/2/1 1/3/1
f 4/4/2 7/5/2 3/2/2
f 8/6/3 5/7/3 7/5/3
f 6/8/4 1/3/4 5/7/4
f 7/5/5 1/3/5 3/2/5
f 4/4/6 6/8/6 8/6/6
f 9/9/4 16/10/4 11/11/4
f 12/12/2 13/13/2 10/14/2
f 23/15/4 34/16/4 39/17/4
f 31/18/2 42/19/2 47/20/2
f 55/21/4 60/22/4 56/23/4
f 57/24/4 62/25/4 58/26/4
f 52/27/4 64/28/4 65/29/4
f 70/30/4 54/31/4 51/32/4
f 68/33/4 56/34/4 69/35/4
f 66/36/4 58/37/4 67/38/4
f 53/39/4 49/40/4 54/41/4
f 86/42/4 81/43/4 80/44/4
f 94/45/4 71/46/4 82/47/4
f 89/48/4 77/49/4 88/50/4
f 93/51/4 73/52/4 92/53/4
f 90/54/4 79/55/4 78/56/4
f 85/57/4 75/58/4 84/59/4
f 100/60/4 107/61/4 99/62/4
f 113/63/4 112/64/4 111/65/4
f 95/66/4 104/67/4 103/68/4
f 102/69/4 109/70/4 110/71/4
f 97/72/4 106/73/4 98/74/4
f 100/60/4 103/68/4 108/75/4
f 98/74/4 104/67/4 96/76/4
f 102/69/4 105/77/4 97/72/4
f 118/78/4 121/79/4 120/80/4
f 121/79/4 122/81/4 120/80/4
f 123/82/4 124/83/4 122/81/4
f 125/84/4 126/85/4 124/83/4
f 127/86/4 128/87/4 126/85/4
f 129/88/4 130/89/4 128/87/4
f 130/89/4 133/90/4 132/91/4
f 132/91/4 135/92/4 134/93/4
f 134/93/4 137/94/4 136/95/4
f 137/94/4 138/96/4 136/95/4
f 139/97/4 140/98/4 138/96/4
f 141/99/4 142/100/4 140/98/4
f 143/101/4 144/102/4 142/100/4
f 145/103/4 146/104/4 144/102/4
f 147/105/4 148/106/4 146/104/4
f 99/62/4 109/70/4 101/107/4
f 2/1/1 4/4/1 3/2/1
f 4/4/2 8/6/2 7/5/2
f 8/6/3 6/8/3 5/7/3
f 6/8/4 2/1/4 1/3/4
f 7/5/5 5/7/5 1/3/5
f 4/4/6 2/1/6 6/8/6
f 9/9/4 14/108/4 16/10/4
f 12/12/2 15/109/2 13/13/2
f 39/17/4 18/110/4 23/15/4
f 18/110/4 17/111/4 23/15/4
f 17/111/4 21/112/4 23/15/4
f 23/15/4 32/113/4 115/114/4
f 32/113/4 30/115/4 27/116/4
f 115/114/4 32/113/4 43/117/4
f 30/115/4 28/118/4 27/116/4
f 27/116/4 48/119/4 43/117/4
f 48/119/4 46/120/4 43/117/4
f 46/120/4 44/121/4 43/117/4
f 115/114/4 34/16/4 23/15/4
f 34/16/4 33/122/4 37/123/4
f 37/123/4 39/17/4 34/16/4
f 27/116/4 43/117/4 32/113/4
f 47/20/2 26/124/2 31/18/2
f 26/124/2 25/125/2 31/18/2
f 25/125/2 29/126/2 31/18/2
f 31/18/2 24/127/2 116/128/2
f 24/127/2 22/129/2 19/130/2
f 116/128/2 24/127/2 35/131/2
f 22/129/2 20/132/2 19/130/2
f 19/130/2 40/133/2 35/131/2
f 40/133/2 38/134/2 35/131/2
f 38/134/2 36/135/2 35/131/2
f 116/128/2 42/19/2 31/18/2
f 42/19/2 41/136/2 45/137/2
f 45/137/2 47/20/2 42/19/2
f 19/130/2 35/131/2 24/127/2
f 55/21/4 61/138/4 60/22/4
f 57/24/4 63/139/4 62/25/4
f 52/27/4 50/140/4 64/28/4
f 70/30/4 53/141/4 54/31/4
f 68/33/4 55/142/4 56/34/4
f 66/36/4 57/143/4 58/37/4
f 53/39/4 59/144/4 49/40/4
f 86/42/4 83/145/4 81/43/4
f 94/45/4 91/146/4 71/46/4
f 89/48/4 76/147/4 77/49/4
f 93/51/4 72/148/4 73/52/4
f 90/54/4 87/149/4 79/55/4
f 85/57/4 74/150/4 75/58/4
f 100/60/4 108/75/4 107/61/4
f 113/63/4 114/151/4 112/64/4
f 95/66/4 96/76/4 104/67/4
f 102/69/4 101/107/4 109/70/4
f 97/72/4 105/77/4 106/73/4
f 100/60/4 95/66/4 103/68/4
f 98/74/4 106/73/4 104/67/4
f 102/69/4 110/71/4 105/77/4
f 118/78/4 119/152/4 121/79/4
f 121/79/4 123/82/4 122/81/4
f 123/82/4 125/84/4 124/83/4
f 125/84/4 127/86/4 126/85/4
f 127/86/4 129/88/4 128/87/4
f 129/88/4 131/153/4 130/89/4
f 130/89/4 131/153/4 133/90/4
f 132/91/4 133/90/4 135/92/4
f 134/93/4 135/92/4 137/94/4
f 137/94/4 139/97/4 138/96/4
f 139/97/4 141/99/4 140/98/4
f 141/99/4 143/101/4 142/100/4
f 143/101/4 145/103/4 144/102/4
f 145/103/4 147/105/4 146/104/4
f 147/105/4 149/154/4 148/106/4
f 99/62/4 107/61/4 109/70/4
