# Blender v2.91.0 Beta OBJ File: 'decos.blend'
# www.blender.org
o Cube.005_Cube.001
v 2.758340 6.050529 2.904285
v 0.000000 5.254434 2.904285
v 2.758340 5.254434 2.904285
v 3.292258 6.050529 2.370367
v 3.244926 6.134478 2.307323
v 2.598919 6.134478 2.468861
v 2.728592 6.134478 2.823037
v 3.292258 6.050529 -6.039909
v 3.292258 5.254434 2.370367
v 3.292258 5.254436 -6.039909
v 0.000000 6.134480 -5.934561
v 3.037174 6.134480 -5.434606
v 3.247502 6.134480 -5.933705
v 0.000000 6.134478 2.822933
v 0.000000 6.134478 2.468861
v 3.037174 6.134478 2.030606
v 3.037174 6.994462 -5.434606
v 3.037174 6.994461 2.030606
v 2.598919 6.994461 2.468861
v 0.000000 6.994462 -5.434606
v 0.000000 6.134480 -5.434606
v 0.000000 6.050529 2.904285
v 0.000000 6.050529 -6.039909
v 3.172302 5.134478 2.320679
v 2.708652 5.134478 2.784329
v 0.000000 5.134478 2.784329
v 2.897157 7.134480 -5.294588
v 0.000000 7.134480 -5.294588
v 2.540922 7.134478 2.328844
v 2.897157 7.134478 1.972609
v 0.000000 6.994461 2.468861
v 0.000000 7.134478 2.328844
v 3.172302 5.134480 -5.919953
v 0.000000 5.254436 -6.039909
v 0.000000 5.294239 2.904285
v 2.620423 6.010724 2.904285
v 2.620423 5.294239 2.904285
v 2.489402 5.974898 3.000002
v 0.000000 5.330061 3.000002
v 2.489402 5.330061 3.000002
v 0.000000 6.010724 2.904285
v -2.758340 6.050529 2.904285
v -2.758340 5.254434 2.904285
v -3.292258 6.050529 2.370367
v -2.598919 6.134478 2.468861
v -3.244926 6.134478 2.307323
v -2.728592 6.134478 2.823037
v -3.292258 5.254434 2.370367
v -3.292258 6.050529 -6.039909
v -3.292258 5.254436 -6.039909
v -3.037174 6.134480 -5.434606
v -3.247502 6.134480 -5.933705
v -3.037174 6.134478 2.030606
v -3.037174 6.994462 -5.434606
v -3.037174 6.994461 2.030606
v -2.598919 6.994461 2.468861
v -2.708652 5.134478 2.784329
v -3.172302 5.134478 2.320679
v -2.897157 7.134480 -5.294588
v -2.540922 7.134478 2.328844
v -2.897157 7.134478 1.972609
v -3.172302 5.134480 -5.919953
v 0.000000 5.134480 -5.919953
v -2.620423 6.010724 2.904285
v -2.620423 5.294239 2.904285
v -2.489402 5.974898 3.000002
v -2.489402 5.330061 3.000002
v 0.000000 5.974898 3.000002
v 2.362629 5.601398 2.194572
v 2.035432 -0.081637 2.194570
v 2.362629 -0.081637 2.194570
v 2.409610 5.601398 1.820394
v 2.409610 -0.081637 2.147588
v 2.409610 -0.081637 1.820392
v 2.035432 5.648381 1.820394
v 2.362629 5.648381 2.147590
v 2.362629 5.648381 1.820394
v 1.988450 5.601398 2.147590
v 1.988450 -0.081637 1.820392
v 1.988450 -0.081637 2.147588
v 2.035432 5.601398 1.773412
v 2.362629 -0.081637 1.773410
v 2.035432 -0.081637 1.773410
v 2.035432 -0.128619 2.147588
v 2.035432 5.601398 2.194572
v 2.035432 5.648381 2.147590
v 2.035432 -0.128619 1.820392
v 1.988450 5.601398 1.820394
v 2.362629 -0.128619 2.147588
v 2.409610 5.601398 2.147590
v 2.362629 -0.128619 1.820392
v 2.362629 5.601398 1.773412
v -2.035432 -0.081637 2.194570
v -2.362629 5.601398 2.194572
v -2.362629 -0.081637 2.194570
v -2.409610 -0.081637 2.147588
v -2.409610 5.601398 1.820394
v -2.409610 -0.081637 1.820392
v -2.362629 5.648381 2.147590
v -2.035432 5.648381 1.820394
v -2.362629 5.648381 1.820394
v -1.988450 -0.081637 1.820392
v -1.988450 5.601398 2.147590
v -1.988450 -0.081637 2.147588
v -2.362629 -0.081637 1.773410
v -2.035432 5.601398 1.773412
v -2.035432 -0.081637 1.773410
v -2.035432 -0.128619 2.147588
v -2.035432 5.601398 2.194572
v -2.035432 5.648381 2.147590
v -2.035432 -0.128619 1.820392
v -1.988450 5.601398 1.820394
v -2.362629 -0.128619 2.147588
v -2.409610 5.601398 2.147590
v -2.362629 -0.128619 1.820392
v -2.362629 5.601398 1.773412
vt 0.289062 0.867188
vt 0.289062 0.867188
vt 0.289062 0.867188
vt 0.289062 0.867188
vt 0.289062 0.867188
vt 0.289062 0.867188
vt 0.289062 0.867188
vt 0.289062 0.867188
vt 0.289062 0.867188
vt 0.289062 0.867188
vt 0.289062 0.867188
vt 0.289062 0.867188
vt 0.289062 0.867188
vt 0.289062 0.867188
vt 0.289062 0.867188
vt 0.289062 0.867188
vt 0.367188 0.867188
vt 0.367188 0.867188
vt 0.367188 0.867188
vt 0.367188 0.867188
vt 0.367188 0.867188
vt 0.367188 0.867188
vt 0.367188 0.867188
vt 0.367188 0.867188
vt 0.367188 0.867188
vt 0.289062 0.867188
vt 0.289062 0.867188
vt 0.367188 0.867188
vt 0.367188 0.867188
vt 0.367188 0.867188
vt 0.367188 0.867188
vt 0.367188 0.867188
vt 0.367188 0.867188
vt 0.367188 0.867188
vt 0.367188 0.867188
vt 0.367188 0.867188
vt 0.289062 0.867188
vt 0.289062 0.867188
vt 0.289062 0.867188
vt 0.382812 0.867188
vt 0.382812 0.867188
vt 0.382812 0.867188
vt 0.382812 0.867188
vt 0.382812 0.867188
vt 0.382812 0.867188
vt 0.382812 0.867188
vt 0.289062 0.867188
vt 0.289062 0.867188
vt 0.289062 0.867188
vt 0.289062 0.867188
vt 0.289062 0.867188
vt 0.289062 0.867188
vt 0.289062 0.867188
vt 0.289062 0.867188
vt 0.289062 0.867188
vt 0.289062 0.867188
vt 0.289062 0.867188
vt 0.367188 0.867188
vt 0.367188 0.867188
vt 0.367188 0.867188
vt 0.367188 0.867188
vt 0.367188 0.867188
vt 0.367188 0.867188
vt 0.367188 0.867188
vt 0.367188 0.867188
vt 0.367188 0.867188
vt 0.367188 0.867188
vt 0.367188 0.867188
vt 0.289062 0.867188
vt 0.289062 0.867188
vt 0.289062 0.867188
vt 0.289062 0.867188
vt 0.382812 0.867188
vt 0.382812 0.867188
vt 0.382812 0.867188
vt 0.382812 0.867188
vt 0.289062 0.867188
vt 0.367188 0.867188
vt 0.367188 0.867188
vt 0.289062 0.867188
vt 0.289062 0.867188
vt 0.382812 0.867188
vt 0.289062 0.867188
vt 0.367188 0.867188
vt 0.835938 0.414062
vt 0.835938 0.414062
vt 0.835938 0.414062
vt 0.835938 0.414062
vt 0.835938 0.414062
vt 0.835938 0.414062
vt 0.835938 0.414062
vt 0.835938 0.414062
vt 0.835938 0.414062
vt 0.835938 0.414062
vt 0.835938 0.414062
vt 0.835938 0.414062
vt 0.835938 0.414062
vt 0.835938 0.414062
vt 0.835938 0.414062
vt 0.835938 0.414062
vt 0.835938 0.414062
vt 0.835938 0.414062
vt 0.835938 0.414062
vt 0.835938 0.414062
vt 0.835938 0.414062
vt 0.835938 0.414062
vt 0.835938 0.414062
vt 0.835938 0.414062
vt 0.835938 0.414062
vt 0.835938 0.414062
vt 0.835938 0.414062
vt 0.835938 0.414062
vt 0.835938 0.414062
vt 0.835938 0.414062
vt 0.835938 0.414062
vt 0.835938 0.414062
vt 0.835938 0.414062
vt 0.835938 0.414062
vt 0.835938 0.414062
vt 0.835938 0.414062
vt 0.835938 0.414062
vt 0.835938 0.414062
vt 0.835938 0.414062
vt 0.835938 0.414062
vt 0.835938 0.414062
vt 0.835938 0.414062
vt 0.835938 0.414062
vt 0.835938 0.414062
vt 0.835938 0.414062
vt 0.835938 0.414062
vt 0.835938 0.414062
vt 0.835938 0.414062
vn 0.0000 0.0000 1.0000
vn 0.7071 0.0000 0.7071
vn 0.0000 1.0000 0.0000
vn 1.0000 0.0000 0.0000
vn 0.0000 0.0000 -1.0000
vn 0.5165 0.6829 0.5165
vn 0.8824 0.4704 0.0000
vn 0.0000 0.6955 0.7186
vn 0.0002 0.7821 -0.6232
vn 0.0000 -1.0000 -0.0000
vn 0.0000 0.7071 -0.7071
vn 0.5000 0.7071 0.5000
vn 0.7071 0.7071 0.0000
vn 0.0000 0.7071 0.7071
vn 0.0000 -0.7071 -0.7071
vn 0.5000 -0.7071 0.5000
vn 0.7071 -0.7071 -0.0000
vn 0.0000 -0.7071 0.7071
vn 0.0000 -0.9366 0.3505
vn 0.5899 0.0000 0.8075
vn 0.0000 0.9365 0.3505
vn -0.7071 0.0000 0.7071
vn -1.0000 0.0000 0.0000
vn -0.5165 0.6829 0.5165
vn -0.8710 0.4913 0.0003
vn 0.0000 0.6959 0.7181
vn -0.0002 0.7821 -0.6232
vn -0.5000 0.7071 0.5000
vn -0.7071 0.7071 0.0000
vn -0.5000 -0.7071 0.5000
vn -0.7071 -0.7071 -0.0000
vn -0.5899 0.0000 0.8075
vn 0.5175 0.6809 0.5182
vn 0.8710 0.4913 0.0003
vn 0.0000 0.7845 -0.6201
vn -0.5175 0.6809 0.5182
vn -0.8824 0.4704 0.0000
vn -0.5774 -0.5774 0.5773
vn -0.5774 0.5773 0.5774
vn -0.5773 -0.5774 -0.5773
vn -0.5774 0.5773 -0.5774
vn 0.5774 -0.5773 0.5773
vn 0.5774 0.5773 0.5774
vn 0.5774 -0.5773 -0.5773
vn 0.5774 0.5773 -0.5774
vn -0.7071 0.0000 -0.7071
vn 0.7071 0.0000 -0.7071
vn 0.5774 -0.5774 0.5773
vn 0.5773 -0.5774 -0.5773
vn -0.5774 -0.5773 0.5773
vn -0.5774 -0.5773 -0.5773
s off
f 1/1/1 2/2/1 3/3/1
f 3/3/2 4/4/2 1/1/2
f 5/5/3 6/6/3 7/7/3
f 8/8/4 9/9/4 10/10/4
f 11/11/3 12/12/3 13/13/3
f 14/14/3 6/6/3 15/15/3
f 5/5/3 12/12/3 16/16/3
f 17/17/4 16/18/4 12/19/4
f 6/20/2 18/21/2 19/22/2
f 19/22/1 15/23/1 6/20/1
f 20/24/5 12/19/5 21/25/5
f 4/4/6 7/7/6 1/1/6
f 13/13/7 4/4/7 8/8/7
f 7/7/8 22/26/8 1/1/8
f 13/13/9 23/27/9 11/11/9
f 24/28/10 25/29/10 26/30/10
f 27/31/11 20/24/11 28/32/11
f 29/33/12 18/21/12 30/34/12
f 27/31/13 18/21/13 17/17/13
f 29/33/14 31/35/14 19/22/14
f 32/36/3 29/33/3 30/34/3
f 33/37/15 34/38/15 10/10/15
f 25/39/16 9/9/16 3/3/16
f 9/9/17 33/37/17 10/10/17
f 2/2/18 25/39/18 3/3/18
f 23/27/5 10/10/5 34/38/5
f 35/40/5 36/41/5 37/42/5
f 38/43/1 39/44/1 40/45/1
f 35/40/19 40/45/19 39/44/19
f 36/41/20 40/45/20 37/42/20
f 41/46/21 38/43/21 36/41/21
f 2/2/1 42/47/1 43/48/1
f 44/49/22 43/48/22 42/47/22
f 45/50/3 46/51/3 47/52/3
f 48/53/23 49/54/23 50/55/23
f 51/56/3 11/11/3 52/57/3
f 14/14/3 45/50/3 47/52/3
f 46/51/3 51/56/3 52/57/3
f 53/58/23 54/59/23 51/60/23
f 55/61/22 45/62/22 56/63/22
f 15/23/1 56/63/1 45/62/1
f 51/60/5 20/24/5 21/25/5
f 47/52/24 44/49/24 42/47/24
f 52/57/25 44/49/25 46/51/25
f 47/52/26 22/26/26 14/14/26
f 23/27/27 52/57/27 11/11/27
f 26/30/10 57/64/10 58/65/10
f 20/24/11 59/66/11 28/32/11
f 55/61/28 60/67/28 61/68/28
f 59/66/29 55/61/29 61/68/29
f 60/67/14 31/35/14 32/36/14
f 61/68/3 32/36/3 28/32/3
f 62/69/15 34/38/15 63/70/15
f 43/48/30 58/71/30 57/72/30
f 62/69/31 48/53/31 50/55/31
f 57/72/18 2/2/18 43/48/18
f 50/55/5 23/27/5 34/38/5
f 64/73/5 35/40/5 65/74/5
f 39/44/1 66/75/1 67/76/1
f 35/40/19 67/76/19 65/74/19
f 67/76/32 64/73/32 65/74/32
f 66/75/21 41/46/21 64/73/21
f 1/1/1 22/26/1 2/2/1
f 3/3/2 9/9/2 4/4/2
f 5/5/3 16/16/3 6/6/3
f 8/8/4 4/4/4 9/9/4
f 11/11/3 21/77/3 12/12/3
f 14/14/3 7/7/3 6/6/3
f 5/5/3 13/13/3 12/12/3
f 17/17/4 18/21/4 16/18/4
f 6/20/2 16/18/2 18/21/2
f 19/22/1 31/35/1 15/23/1
f 20/24/5 17/17/5 12/19/5
f 4/4/33 5/5/33 7/7/33
f 13/13/34 5/5/34 4/4/34
f 7/7/26 14/14/26 22/26/26
f 13/13/35 8/8/35 23/27/35
f 26/30/10 63/78/10 24/28/10
f 63/78/10 33/79/10 24/28/10
f 27/31/11 17/17/11 20/24/11
f 29/33/12 19/22/12 18/21/12
f 27/31/13 30/34/13 18/21/13
f 29/33/14 32/36/14 31/35/14
f 30/34/3 27/31/3 28/32/3
f 28/32/3 32/36/3 30/34/3
f 33/37/15 63/70/15 34/38/15
f 25/39/16 24/80/16 9/9/16
f 9/9/17 24/80/17 33/37/17
f 2/2/18 26/81/18 25/39/18
f 23/27/5 8/8/5 10/10/5
f 35/40/5 41/46/5 36/41/5
f 38/43/1 68/82/1 39/44/1
f 35/40/19 37/42/19 40/45/19
f 36/41/20 38/43/20 40/45/20
f 41/46/21 68/82/21 38/43/21
f 2/2/1 22/26/1 42/47/1
f 44/49/22 48/53/22 43/48/22
f 45/50/3 53/83/3 46/51/3
f 48/53/23 44/49/23 49/54/23
f 51/56/3 21/77/3 11/11/3
f 14/14/3 15/15/3 45/50/3
f 46/51/3 53/83/3 51/56/3
f 53/58/23 55/61/23 54/59/23
f 55/61/22 53/58/22 45/62/22
f 15/23/1 31/35/1 56/63/1
f 51/60/5 54/59/5 20/24/5
f 47/52/36 46/51/36 44/49/36
f 52/57/37 49/54/37 44/49/37
f 47/52/8 42/47/8 22/26/8
f 23/27/35 49/54/35 52/57/35
f 62/84/10 63/78/10 58/65/10
f 63/78/10 26/30/10 58/65/10
f 20/24/11 54/59/11 59/66/11
f 55/61/28 56/63/28 60/67/28
f 59/66/29 54/59/29 55/61/29
f 60/67/14 56/63/14 31/35/14
f 28/32/3 59/66/3 61/68/3
f 61/68/3 60/67/3 32/36/3
f 62/69/15 50/55/15 34/38/15
f 43/48/30 48/53/30 58/71/30
f 62/69/31 58/71/31 48/53/31
f 57/72/18 26/81/18 2/2/18
f 50/55/5 49/54/5 23/27/5
f 64/73/5 41/46/5 35/40/5
f 39/44/1 68/82/1 66/75/1
f 35/40/19 39/44/19 67/76/19
f 67/76/32 66/75/32 64/73/32
f 66/75/21 68/82/21 41/46/21
f 69/85/1 70/86/1 71/87/1
f 72/88/4 73/89/4 74/90/4
f 75/91/3 76/92/3 77/93/3
f 78/94/23 79/95/23 80/96/23
f 81/97/5 82/98/5 83/99/5
f 84/100/38 70/86/38 80/96/38
f 85/101/39 86/102/39 78/94/39
f 87/103/40 79/95/40 83/99/40
f 75/91/41 81/97/41 88/104/41
f 89/105/42 73/89/42 71/87/42
f 76/92/43 69/85/43 90/106/43
f 91/107/44 82/98/44 74/90/44
f 77/93/45 72/88/45 92/108/45
f 84/100/31 79/95/31 87/103/31
f 85/101/22 80/96/22 70/86/22
f 75/91/29 78/94/29 86/102/29
f 83/99/46 88/104/46 81/97/46
f 87/103/15 82/98/15 91/107/15
f 77/93/11 81/97/11 75/91/11
f 74/90/47 92/108/47 72/88/47
f 91/107/17 73/89/17 89/105/17
f 76/92/13 72/88/13 77/93/13
f 71/87/2 90/106/2 69/85/2
f 89/105/18 70/86/18 84/100/18
f 86/102/14 69/85/14 76/92/14
f 91/107/10 84/100/10 87/103/10
f 93/109/1 94/110/1 95/111/1
f 96/112/23 97/113/23 98/114/23
f 99/115/3 100/116/3 101/117/3
f 102/118/4 103/119/4 104/120/4
f 105/121/5 106/122/5 107/123/5
f 108/124/48 104/120/48 93/109/48
f 109/125/43 103/119/43 110/126/43
f 111/127/49 107/123/49 102/118/49
f 100/116/45 112/128/45 106/122/45
f 113/129/50 95/111/50 96/112/50
f 99/115/39 114/130/39 94/110/39
f 115/131/51 98/114/51 105/121/51
f 101/117/41 116/132/41 97/113/41
f 102/118/17 108/124/17 111/127/17
f 104/120/2 109/125/2 93/109/2
f 103/119/13 100/116/13 110/126/13
f 112/128/47 107/123/47 106/122/47
f 105/121/15 111/127/15 115/131/15
f 106/122/11 101/117/11 100/116/11
f 116/132/46 98/114/46 97/113/46
f 96/112/31 115/131/31 113/129/31
f 97/113/29 99/115/29 101/117/29
f 114/130/22 95/111/22 94/110/22
f 93/109/18 113/129/18 108/124/18
f 94/110/14 110/126/14 99/115/14
f 108/124/10 115/131/10 111/127/10
f 69/85/1 85/101/1 70/86/1
f 72/88/4 90/106/4 73/89/4
f 75/91/3 86/102/3 76/92/3
f 78/94/23 88/104/23 79/95/23
f 81/97/5 92/108/5 82/98/5
f 84/100/31 80/96/31 79/95/31
f 85/101/22 78/94/22 80/96/22
f 75/91/29 88/104/29 78/94/29
f 83/99/46 79/95/46 88/104/46
f 87/103/15 83/99/15 82/98/15
f 77/93/11 92/108/11 81/97/11
f 74/90/47 82/98/47 92/108/47
f 91/107/17 74/90/17 73/89/17
f 76/92/13 90/106/13 72/88/13
f 71/87/2 73/89/2 90/106/2
f 89/105/18 71/87/18 70/86/18
f 86/102/14 85/101/14 69/85/14
f 91/107/10 89/105/10 84/100/10
f 93/109/1 109/125/1 94/110/1
f 96/112/23 114/130/23 97/113/23
f 99/115/3 110/126/3 100/116/3
f 102/118/4 112/128/4 103/119/4
f 105/121/5 116/132/5 106/122/5
f 102/118/17 104/120/17 108/124/17
f 104/120/2 103/119/2 109/125/2
f 103/119/13 112/128/13 100/116/13
f 112/128/47 102/118/47 107/123/47
f 105/121/15 107/123/15 111/127/15
f 106/122/11 116/132/11 101/117/11
f 116/132/46 105/121/46 98/114/46
f 96/112/31 98/114/31 115/131/31
f 97/113/29 114/130/29 99/115/29
f 114/130/22 96/112/22 95/111/22
f 93/109/18 95/111/18 113/129/18
f 94/110/14 109/125/14 110/126/14
f 108/124/10 113/129/10 115/131/10
