# Blender v2.83.4 OBJ File: 'decos.blend'
# www.blender.org
o Cube.008_Cube.003
v -1.000000 -0.529221 1.000000
v -1.000000 0.743275 1.000000
v -1.000000 -0.529221 -1.000000
v -1.000000 0.743275 -1.000000
v 1.000000 -0.529221 1.000000
v 1.000000 0.743275 1.000000
v 1.000000 -0.529221 -1.000000
v 1.000000 0.743275 -1.000000
v -1.081023 0.743275 1.081023
v -1.081023 0.743275 -1.081023
v 1.081023 0.743275 1.081023
v 1.081023 0.743275 -1.081023
v -1.081023 1.198378 1.081023
v -1.081023 1.198378 -1.081023
v 1.081023 1.198378 1.081023
v 1.081023 1.198378 -1.081023
v 1.102272 0.970827 1.102272
v -1.102272 0.970827 1.102272
v -1.102272 0.970827 -1.102272
v 1.102272 0.970827 -1.102272
v -0.208607 1.219649 -1.098936
v 0.208607 1.219649 -1.098936
v 0.208607 1.219649 1.098936
v -0.208607 1.219649 1.098936
v -0.217752 0.976497 -1.155640
v 0.217752 0.976497 -1.155640
v 0.217752 0.976497 1.155640
v -0.217752 0.976497 1.155640
v -0.217752 0.750538 -1.095369
v 0.217752 0.750538 -1.095369
v 0.217752 0.750538 1.095369
v -0.217752 0.750538 1.095369
v -0.217752 0.709792 -1.047446
v 0.217752 0.709792 -1.047446
v 0.217752 0.709792 1.047446
v -0.217752 0.709792 1.047446
v -0.217752 -0.566834 -1.047446
v 0.217752 -0.566834 -1.047446
v 0.217752 -0.566834 1.047446
v -0.217752 -0.566834 1.047446
v -1.120385 1.231161 0.212678
v -1.120385 1.231161 -0.212678
v 1.120385 1.231161 -0.212678
v 1.120385 1.231161 0.212678
v -1.178195 0.983263 0.222002
v -1.178195 0.983263 -0.222002
v 1.178195 0.983263 -0.222002
v 1.178195 0.983263 0.222002
v -1.116747 0.752894 0.222002
v -1.116747 0.752894 -0.222002
v 1.116747 0.752894 -0.222002
v 1.116747 0.752894 0.222002
v -1.067890 0.711353 0.222002
v -1.067890 0.711353 -0.222002
v 1.067890 0.711353 -0.222002
v 1.067890 0.711353 0.222002
v -1.067890 -0.566834 0.222002
v -1.067890 -0.566834 -0.222002
v 1.067890 -0.566834 -0.222002
v 1.067890 -0.566834 0.222002
v -0.665293 1.369147 0.179115
v -0.665293 1.369147 -0.179115
v 0.749582 1.438885 -0.179115
v 0.749582 1.438885 0.179115
v 0.000000 1.261858 -0.179115
v 0.000000 1.261858 0.179115
v -0.735670 1.606058 0.179115
v -0.735670 1.606058 -0.179115
v -0.511615 1.761146 0.179115
v -0.511615 1.761146 -0.179115
v 0.005264 1.278622 0.179115
v 0.005264 1.278622 -0.179115
v 0.534371 1.723965 0.179115
v 0.534371 1.723965 -0.179115
v 0.786649 1.607902 0.179115
v 0.786649 1.607902 -0.179115
v -0.241836 1.551538 -0.179115
v -0.241836 1.551538 0.179115
v -0.652929 1.374778 0.176646
v -0.652929 1.374778 -0.176646
v 0.736171 1.443175 -0.176646
v 0.736171 1.443175 0.176646
v 0.000094 1.270024 -0.176646
v 0.000094 1.270024 0.176646
v -0.720069 1.604559 0.176646
v -0.720069 1.604559 -0.176646
v 0.771222 1.605133 0.176646
v 0.771222 1.605133 -0.176646
v -0.669454 1.753667 -0.179115
v -0.669454 1.753667 0.179115
v 0.688450 1.722978 -0.179115
v 0.688450 1.722978 0.179115
vt 0.132812 0.898438
vt 0.132812 0.898438
vt 0.132812 0.898438
vt 0.132812 0.898438
vt 0.132812 0.898438
vt 0.132812 0.898438
vt 0.132812 0.898438
vt 0.132812 0.898438
vt 0.132812 0.898438
vt 0.132812 0.898438
vt 0.132812 0.898438
vt 0.132812 0.898438
vt 0.132812 0.898438
vt 0.132812 0.898438
vt 0.132812 0.898438
vt 0.132812 0.898438
vt 0.132812 0.898438
vt 0.132812 0.898438
vt 0.132812 0.898438
vt 0.132812 0.898438
vt 0.132812 0.960938
vt 0.132812 0.960938
vt 0.132812 0.960938
vt 0.132812 0.960938
vt 0.132812 0.960938
vt 0.132812 0.960938
vt 0.132812 0.960938
vt 0.132812 0.960938
vt 0.132812 0.960938
vt 0.132812 0.960938
vt 0.132812 0.960938
vt 0.132812 0.960938
vt 0.132812 0.960938
vt 0.132812 0.960938
vt 0.132812 0.960938
vt 0.132812 0.960938
vt 0.132812 0.960938
vt 0.132812 0.960938
vt 0.132812 0.960938
vt 0.132812 0.960938
vt 0.132812 0.960938
vt 0.132812 0.960938
vt 0.132812 0.960938
vt 0.132812 0.960938
vt 0.132812 0.960938
vt 0.132812 0.960938
vt 0.132812 0.960938
vt 0.132812 0.960938
vt 0.132812 0.960938
vt 0.132812 0.960938
vt 0.132812 0.960938
vt 0.132812 0.960938
vt 0.132812 0.960938
vt 0.132812 0.960938
vt 0.132812 0.960938
vt 0.132812 0.960938
vt 0.132812 0.960938
vt 0.132812 0.960938
vt 0.132812 0.960938
vt 0.132812 0.960938
vt 0.132812 0.960938
vt 0.132812 0.960938
vt 0.132812 0.960938
vt 0.132812 0.960938
vt 0.132812 0.960938
vt 0.132812 0.960938
vt 0.132812 0.960938
vt 0.132812 0.960938
vt 0.132812 0.960938
vt 0.132812 0.960938
vt 0.132812 0.960938
vt 0.132812 0.960938
vt 0.132812 0.960937
vt 0.132812 0.960938
vt 0.132812 0.960938
vt 0.132812 0.960938
vt 0.132812 0.960938
vt 0.132812 0.960938
vt 0.132812 0.960938
vt 0.132812 0.960938
vt 0.132812 0.960938
vt 0.132812 0.960938
vt 0.132812 0.960938
vt 0.132812 0.960938
vt 0.132812 0.960938
vt 0.132812 0.960938
vt 0.132812 0.960938
vt 0.132812 0.960938
vt 0.132812 0.960938
vt 0.132812 0.960938
vt 0.132812 0.960938
vt 0.132812 0.960938
vn -1.0000 0.0000 0.0000
vn 0.0000 0.0000 -1.0000
vn 1.0000 0.0000 0.0000
vn 0.0000 0.0000 1.0000
vn 0.9957 0.0930 0.0000
vn -0.9957 0.0930 0.0000
vn -0.9957 -0.0930 0.0000
vn 0.9957 -0.0930 0.0000
vn 0.0000 -0.0930 0.9957
vn 0.0000 -0.0930 -0.9957
vn 0.0000 0.0930 -0.9957
vn 0.0000 0.0930 0.9957
vn 0.0000 1.0000 0.0000
vn 0.0000 -0.0187 -0.9998
vn 0.0000 0.2271 -0.9739
vn 0.0000 -0.0187 0.9998
vn 0.0000 0.2271 0.9739
vn 0.0000 -0.2577 0.9662
vn 0.0000 -0.2577 -0.9662
vn 0.0000 -0.7618 0.6478
vn 0.0000 -0.7618 -0.6478
vn -0.9998 -0.0187 0.0000
vn -0.9739 0.2271 0.0000
vn 0.9998 -0.0187 0.0000
vn 0.9739 0.2271 0.0000
vn 0.9662 -0.2577 0.0000
vn -0.9662 -0.2577 0.0000
vn 0.6478 -0.7618 0.0000
vn -0.6478 -0.7618 0.0000
vn 0.0360 -0.9994 0.0000
vn 0.2298 -0.9732 0.0000
vn -0.1592 -0.9872 0.0000
vn -0.9586 -0.2848 0.0000
vn -0.9978 0.0664 0.0000
vn -0.0473 0.9989 0.0000
vn 0.3018 0.9534 0.0000
vn 0.6800 0.7332 -0.0000
vn 0.7413 0.6712 -0.0000
vn -0.6439 0.7651 0.0000
vn -0.3397 0.9405 0.0000
vn 0.4218 0.9067 0.0000
vn 0.9701 0.2428 0.0000
vn 0.9768 -0.2142 0.0000
vn -0.0360 0.9994 -0.0000
vn -0.2290 0.9734 0.0000
vn 0.1584 0.9874 -0.0000
vn 0.9599 0.2805 0.0000
vn -0.9774 0.2115 0.0000
vn -0.9124 0.4093 0.0000
s 1
f 1/1/1 2/2/1 4/3/1 3/4/1
f 3/4/2 4/3/2 8/5/2 7/6/2
f 7/6/3 8/5/3 6/7/3 5/8/3
f 5/8/4 6/7/4 2/2/4 1/1/4
f 17/9/3 20/10/3 16/11/5 15/12/5
f 19/13/1 18/14/1 13/15/6 14/16/6
f 10/17/7 9/18/7 18/14/1 19/13/1
f 11/19/8 12/20/8 20/10/3 17/9/3
f 9/18/9 11/19/9 17/9/4 18/14/4
f 12/20/10 10/17/10 19/13/2 20/10/2
f 20/10/2 19/13/2 14/16/11 16/11/11
f 18/14/4 17/9/4 15/12/12 13/15/12
f 16/11/13 14/16/13 13/15/13 15/12/13
f 26/21/14 25/22/14 21/23/15 22/24/15
f 28/25/16 27/26/16 23/27/17 24/28/17
f 22/24/13 21/23/13 24/28/13 23/27/13
f 27/26/16 28/25/16 32/29/18 31/30/18
f 25/22/14 26/21/14 30/31/19 29/32/19
f 31/30/20 32/29/20 36/33/20 35/34/20
f 29/32/21 30/31/21 34/35/21 33/36/21
f 35/34/4 36/33/4 40/37/4 39/38/4
f 33/36/2 34/35/2 38/39/2 37/40/2
f 46/41/22 45/42/22 41/43/23 42/44/23
f 48/45/24 47/46/24 43/47/25 44/48/25
f 42/44/13 41/43/13 44/48/13 43/47/13
f 47/46/24 48/45/24 52/49/26 51/50/26
f 45/42/22 46/41/22 50/51/27 49/52/27
f 51/50/28 52/49/28 56/53/28 55/54/28
f 49/52/29 50/51/29 54/55/29 53/56/29
f 55/54/3 56/53/3 60/57/3 59/58/3
f 53/56/1 54/55/1 58/59/1 57/60/1
f 65/61/30 63/62/31 64/63/31 66/64/30
f 62/65/32 65/61/30 66/64/30 61/66/32
f 61/66/33 67/67/34 68/68/34 62/65/33
f 90/69/35 69/70/36 70/71/36 89/72/35
f 78/73/37 71/74/38 72/75/38 77/76/37
f 71/74/39 73/77/40 74/78/40 72/75/39
f 92/79/41 75/80/42 76/81/42 91/82/41
f 75/80/42 64/63/43 63/62/43 76/81/42
f 69/70/36 78/73/37 77/76/37 70/71/36
f 83/83/44 84/84/44 82/85/45 81/86/45
f 80/87/46 79/88/46 84/84/44 83/83/44
f 79/88/47 80/87/47 86/89/47 85/90/47
f 87/91/48 88/92/48 81/86/48 82/85/48
f 67/67/34 90/69/49 89/72/49 68/68/34
f 73/77/40 92/79/41 91/82/41 74/78/40
