# Blender v2.91.0 Beta OBJ File: 'HOUSE02.blend'
# www.blender.org
o alumsiding01.019_tree.002_tree.005_alumsiding01.019_tree.005_alumsiding01.019_tree.002_tree.005_alumsiding01.019_tree.002
v 0.000000 0.069974 -7.111672
v 7.148002 22.599749 -7.073172
v 7.148002 0.069975 -7.073181
v 7.148002 22.599737 7.043224
v 7.148002 0.069969 0.000000
v 7.148002 22.599745 0.000010
v 0.000000 22.599751 -7.111663
v -6.929905 0.069975 -7.073181
v -6.929905 22.599749 -7.073172
v -6.929905 0.069969 0.000000
v 0.000000 0.069962 7.043219
v -6.929905 22.599737 7.043224
v -6.929905 0.069962 7.043219
v 7.148002 0.069962 7.043219
v -6.929905 22.599745 0.000010
v 0.000000 22.599739 7.043224
v 7.148002 30.939413 -7.073172
v 7.148002 30.939402 7.043224
v 7.148002 30.939409 0.000010
v 0.000000 30.939415 -7.111663
v -6.929905 30.939413 -7.073172
v -6.929905 30.939402 7.043224
v -6.929905 30.939409 0.000010
v 0.000000 30.939404 7.043224
v 9.852442 31.094454 -9.774137
v 9.852442 31.094440 9.745004
v 9.852442 31.094450 0.006152
v -0.031302 31.094458 -9.827358
v -9.613478 31.094454 -9.774137
v -9.613478 31.094440 9.745004
v -9.613478 31.094450 0.006152
v -0.031302 31.094442 9.745004
v 9.852442 33.639587 -9.774136
v 9.852442 33.639580 9.745005
v 9.852442 33.639587 0.006152
v -0.031302 33.639595 -9.827357
v -9.613478 33.639587 -9.774136
v -9.613478 33.639580 9.745005
v -9.613478 33.639587 0.006152
v -0.031302 33.639580 9.745005
vt 0.413574 0.231934
vt 0.425293 0.009277
vt 0.413574 0.009277
vt 0.425293 0.231934
vt 0.425293 0.009277
vt 0.425293 0.231934
vt 0.413574 0.009277
vt 0.413574 0.231934
vt 0.425293 0.009277
vt 0.425293 0.231934
vt 0.413574 0.009277
vt 0.425293 0.009277
vt 0.413574 0.009277
vt 0.425293 0.231934
vt 0.413574 0.231934
vt 0.312012 0.326660
vt 0.282715 0.373535
vt 0.312012 0.373535
vt 0.282715 0.326660
vt 0.254395 0.373535
vt 0.282715 0.326660
vt 0.312012 0.373535
vt 0.312012 0.326660
vt 0.254395 0.373535
vt 0.282715 0.373535
vt 0.282715 0.373535
vt 0.282715 0.326660
vt 0.282715 0.326660
vt 0.312012 0.373535
vt 0.282715 0.373535
vt 0.254395 0.373535
vt 0.254395 0.326660
vt 0.254395 0.326660
vt 0.282715 0.373535
vt 0.282715 0.373535
vt 0.282715 0.373535
vt 0.282715 0.373535
vt 0.312012 0.373535
vt 0.312012 0.373535
vt 0.312012 0.373535
vt 0.254395 0.373535
vt 0.312012 0.373535
vt 0.282715 0.373535
vt 0.312012 0.373535
vt 0.282715 0.373535
vt 0.282715 0.373535
vt 0.254395 0.373535
vt 0.282715 0.373535
vt 0.312012 0.373535
vt 0.413574 0.231934
vt 0.254395 0.326660
vt 0.312012 0.326660
vn -1.0000 0.0000 0.0000
vn 1.0000 -0.0000 0.0000
vn 0.0000 -0.0000 1.0000
vn -0.0056 0.0000 -1.0000
vn 0.0054 0.0000 -1.0000
vn 0.0000 1.0000 0.0000
s 1
f 15/1/1 8/2/1 10/3/1
f 12/4/1 10/3/1 13/5/1
f 4/6/2 5/7/2 6/8/2
f 6/8/2 3/9/2 2/10/2
f 4/6/3 11/11/3 14/12/3
f 1/13/4 9/14/4 7/15/4
f 7/15/5 3/9/5 1/13/5
f 11/11/3 12/4/3 13/5/3
f 9/16/1 23/17/1 21/18/1
f 15/19/1 22/20/1 23/17/1
f 7/21/5 17/22/5 2/23/5
f 7/21/4 21/24/4 20/25/4
f 2/23/2 19/26/2 6/27/2
f 16/28/3 18/29/3 24/30/3
f 6/27/2 18/31/2 4/32/2
f 16/28/3 22/20/3 12/33/3
f 19/26/6 20/25/6 23/17/6
f 24/30/6 18/29/6 19/26/6
f 19/26/6 17/22/6 20/25/6
f 20/25/6 21/18/6 23/17/6
f 23/17/6 22/20/6 24/30/6
f 24/30/6 19/26/6 23/17/6
f 35/34/6 36/35/6 39/36/6
f 40/37/6 34/38/6 35/34/6
f 35/34/6 33/39/6 36/35/6
f 36/35/6 37/40/6 39/36/6
f 39/36/6 38/41/6 40/37/6
f 40/37/6 35/34/6 39/36/6
f 25/42/2 35/34/2 27/43/2
f 29/44/4 36/35/4 28/45/4
f 32/46/3 38/41/3 30/47/3
f 29/44/1 39/36/1 37/40/1
f 31/48/1 38/41/1 39/36/1
f 27/43/2 34/38/2 26/49/2
f 26/49/3 40/37/3 32/46/3
f 28/45/5 33/39/5 25/42/5
f 15/1/1 9/14/1 8/2/1
f 12/4/1 15/1/1 10/3/1
f 4/6/2 14/12/2 5/7/2
f 6/8/2 5/7/2 3/9/2
f 4/6/3 16/50/3 11/11/3
f 1/13/4 8/2/4 9/14/4
f 7/15/5 2/10/5 3/9/5
f 11/11/3 16/50/3 12/4/3
f 9/16/1 15/19/1 23/17/1
f 15/19/1 12/33/1 22/20/1
f 7/21/5 20/25/5 17/22/5
f 7/21/4 9/51/4 21/24/4
f 2/23/2 17/22/2 19/26/2
f 16/28/3 4/52/3 18/29/3
f 6/27/2 19/26/2 18/31/2
f 16/28/3 24/30/3 22/20/3
f 25/42/2 33/39/2 35/34/2
f 29/44/4 37/40/4 36/35/4
f 32/46/3 40/37/3 38/41/3
f 29/44/1 31/48/1 39/36/1
f 31/48/1 30/47/1 38/41/1
f 27/43/2 35/34/2 34/38/2
f 26/49/3 34/38/3 40/37/3
f 28/45/5 36/35/5 33/39/5
o alumsiding01.019_tree.002_tree.005_alumsiding01.019_tree.00_alumsiding01.019_tree.002_tree.005_alumsiding01.019_tree.003
v -7.175560 20.405830 8.320956
v 7.175560 20.405830 8.320956
v 7.175560 20.718348 9.626162
v -7.175560 20.718348 9.626162
v 7.172348 21.673521 9.953444
v 7.173279 22.810757 9.635776
v -7.172348 21.673521 9.953444
v 7.175560 23.466475 8.664077
v -7.173279 22.810757 9.635776
v 7.175560 20.966534 7.111907
v -7.175560 23.466475 8.664077
v 7.222160 21.965200 6.948978
v 7.173279 23.015820 7.558362
v 7.175560 23.467663 8.652018
v -7.175560 20.966534 7.111907
v -7.222160 21.965200 6.948978
v -7.173279 23.015820 7.558362
v 9.448494 20.701027 7.845564
v 8.596519 20.512175 2.046339
v 9.830116 20.703407 2.022906
v 9.592476 22.665026 7.851981
v 10.103615 21.637760 2.038038
v 9.636589 22.873922 2.037526
v 8.917519 23.264025 6.918545
v 8.897774 23.379433 2.026505
v 7.495186 20.996372 6.909804
v 7.428902 20.953753 2.022904
v 7.572876 22.735767 6.914225
v 7.354019 21.924427 2.038037
v 8.065979 23.037670 2.037524
v 8.893181 23.379911 2.026505
v 8.564842 20.208315 6.920417
v 9.792099 21.649786 7.968056
v 0.000000 20.577019 8.946563
v 0.000000 20.729670 9.584103
v 0.000000 22.650570 9.729850
v 0.000000 23.049042 9.121543
v 0.000000 23.369509 8.646621
v 0.000000 20.975245 7.163320
v 0.000000 22.372824 7.131623
v 0.000000 22.884844 7.428785
v 0.000000 21.660662 9.971819
v 0.000000 22.094852 9.885077
v 0.000000 20.290243 8.313845
v 0.000000 21.461464 7.084161
v 0.000000 21.196339 9.744013
v 0.000000 20.701363 7.753891
v 0.000000 21.964485 6.956589
v 0.000000 23.149265 8.106204
v 0.000000 23.370090 8.640728
v -7.175560 23.467663 8.652018
v -9.448494 20.701027 7.845564
v -8.596519 20.512175 2.046339
v -9.830116 20.703407 2.022906
v -9.592476 22.665026 7.851981
v -10.103615 21.637760 2.038038
v -9.636589 22.873922 2.037526
v -8.917519 23.264025 6.918545
v -8.897774 23.379433 2.026505
v -7.495186 20.996372 6.909804
v -7.428902 20.953753 2.022904
v -7.572876 22.735767 6.914225
v -7.354019 21.924427 2.038037
v -8.065979 23.037670 2.037524
v -8.893181 23.379911 2.026505
v -8.564842 20.208315 6.920417
v -9.792099 21.649786 7.968056
vt 0.610806 0.251503
vt 0.577345 0.252686
vt 0.610806 0.252823
vt 0.610806 0.258596
vt 0.577356 0.261711
vt 0.610806 0.260945
vt 0.610806 0.262655
vt 0.577345 0.265137
vt 0.610806 0.264329
vt 0.577345 0.252686
vt 0.577345 0.249985
vt 0.610806 0.251503
vt 0.577345 0.252686
vt 0.610806 0.252823
vt 0.610919 0.258602
vt 0.577356 0.261711
vt 0.610806 0.260945
vt 0.610806 0.262655
vt 0.577345 0.265137
vt 0.610806 0.264329
vt 0.610806 0.249585
vt 0.577345 0.249985
vt 0.610806 0.256886
vt 0.577360 0.256905
vt 0.640597 0.252888
vt 0.617808 0.252851
vt 0.617908 0.249895
vt 0.610919 0.256886
vt 0.577360 0.256905
vt 0.617877 0.256624
vt 0.640597 0.252888
vt 0.617908 0.249895
vt 0.617808 0.252851
vt 0.640616 0.260128
vt 0.617877 0.256624
vt 0.617876 0.261817
vt 0.640637 0.263509
vt 0.617825 0.264160
vt 0.640597 0.252888
vt 0.617808 0.252851
vt 0.640616 0.260128
vt 0.617877 0.256624
vt 0.617876 0.261817
vt 0.640639 0.263665
vt 0.617825 0.264160
vt 0.640644 0.249263
vt 0.640648 0.256847
vt 0.640648 0.256847
vt 0.577345 0.265137
vt 0.589355 0.249512
vt 0.577345 0.252686
vt 0.589355 0.252441
vt 0.577360 0.256905
vt 0.589355 0.257324
vt 0.577345 0.252686
vt 0.589355 0.265137
vt 0.577356 0.261711
vt 0.589355 0.261230
vt 0.577356 0.261711
vt 0.577345 0.252686
vt 0.610919 0.254877
vt 0.577360 0.256905
vt 0.640616 0.260128
vt 0.617876 0.261817
vt 0.610806 0.254884
vt 0.577356 0.261711
vt 0.640637 0.263509
vt 0.617825 0.264160
vt 0.577360 0.256905
vt 0.577345 0.265137
vt 0.577356 0.261711
vt 0.577345 0.265137
vt 0.640597 0.252888
vt 0.617808 0.252851
vt 0.640616 0.260128
vt 0.617876 0.261817
vt 0.617877 0.256624
vt 0.640639 0.263665
vt 0.617825 0.264160
vt 0.640644 0.249263
vt 0.640648 0.256847
vt 0.640648 0.256847
vt 0.577345 0.265137
vt 0.577345 0.252686
vt 0.589355 0.249512
vt 0.589355 0.252441
vt 0.577360 0.256905
vt 0.589355 0.257324
vt 0.577345 0.252686
vt 0.589355 0.265137
vt 0.577356 0.261711
vt 0.589355 0.261230
vt 0.577356 0.261711
vt 0.577345 0.249985
vt 0.577345 0.249985
vn 0.2677 -0.9046 0.3318
vn -0.3525 -0.6604 0.6631
vn 0.0000 -0.9790 0.2038
vn 0.3250 0.2544 0.9109
vn -0.2006 0.5449 0.8141
vn 0.0000 0.2158 0.9764
vn 0.2859 0.8110 0.5103
vn 0.2212 0.8749 0.4309
vn 0.0128 0.8740 0.4857
vn -0.2763 -0.9475 0.1613
vn -0.0161 -0.9884 0.1508
vn 0.2695 0.8445 0.4628
vn -0.2259 0.5780 0.7841
vn 0.0326 0.2850 0.9580
vn 0.3157 -0.3975 0.8616
vn 0.2617 -0.9326 0.2485
vn -0.0000 -0.9191 0.3939
vn 0.2755 -0.8826 0.3809
vn 0.1125 -0.8921 0.4376
vn -0.0081 -0.8986 0.4387
vn -0.0900 -0.9097 0.4053
vn 0.0951 -0.9886 0.1170
vn 0.3496 -0.1207 0.9291
vn -0.0762 -0.0062 0.9971
vn -0.7059 -0.6750 -0.2146
vn -0.5228 -0.5937 -0.6117
vn -0.0078 -0.9984 -0.0560
vn 0.0505 0.7593 0.6487
vn 0.1689 0.8120 0.5586
vn 0.2902 -0.0748 0.9540
vn 0.3663 -0.1949 0.9098
vn -0.9569 0.0249 -0.2894
vn 0.6303 -0.7474 -0.2101
vn 0.1344 -0.9735 -0.1851
vn 0.5372 -0.5806 -0.6117
vn 0.8650 0.5017 0.0093
vn 0.9569 0.0246 -0.2895
vn 0.7904 0.5489 -0.2720
vn 0.4447 0.8544 0.2688
vn 0.5646 0.8254 0.0002
vn 0.6030 0.7971 -0.0331
vn 0.4842 0.8677 -0.1123
vn 0.7224 0.5403 -0.4314
vn 0.7171 -0.6969 0.0113
vn 0.9968 0.0794 -0.0099
vn 0.6905 -0.6849 -0.2326
vn 0.5109 -0.8484 0.1386
vn 0.3820 -0.9242 -0.0068
vn 0.4530 -0.8892 0.0650
vn 0.9941 -0.0700 0.0834
vn 0.6582 0.7243 0.2052
vn -0.0658 0.2969 0.9526
vn -0.2624 0.8117 0.5219
vn 0.3664 0.2133 0.9057
vn -0.3654 -0.2253 0.9032
vn -0.8145 0.5802 0.0013
vn -0.7220 0.6359 -0.2728
vn 0.3573 -0.3311 0.8733
vn 0.2006 0.5450 0.8141
vn -0.5623 0.8257 -0.0456
vn -0.5503 0.8348 0.0174
vn 0.0769 -0.0298 0.9966
vn -0.1321 -0.8932 0.4297
vn -0.2782 -0.5090 0.8145
vn -0.1995 0.8757 0.4398
vn -0.8998 0.4360 0.0161
vn -0.7235 0.5389 -0.4314
vn -0.4925 0.8642 -0.1032
vn -0.6475 -0.7619 0.0126
vn -0.5092 -0.8290 -0.2312
vn -0.8647 -0.5020 -0.0143
vn -0.4554 -0.8465 0.2758
vn -0.3661 -0.9303 -0.0236
vn -0.4163 -0.8949 0.1607
vn -0.8396 0.3273 0.4335
vn -0.6414 0.7262 0.2474
s 1
f 74/53/7 43/54/8 75/55/9
f 83/56/10 46/57/11 76/58/12
f 77/59/13 48/60/14 78/61/15
f 74/53/7 44/62/16 41/63/17
f 87/64/18 50/65/19 79/66/20
f 80/67/21 53/68/22 81/69/23
f 89/70/24 54/71/25 90/72/26
f 74/53/7 41/63/17 84/73/27
f 74/53/7 84/73/27 42/74/28
f 83/56/10 82/75/29 45/76/30
f 77/59/13 76/58/12 46/57/11
f 92/77/31 94/78/32 93/79/33
f 87/64/18 84/73/34 42/74/35
f 80/67/21 88/80/36 52/81/37
f 89/70/24 81/69/23 53/68/22
f 96/82/38 94/78/32 92/77/31
f 58/83/39 59/84/40 60/85/41
f 61/86/42 62/87/43 63/88/44
f 64/89/45 63/88/44 65/90/46
f 62/87/43 58/83/39 60/85/41
f 66/91/47 59/84/48 67/92/49
f 68/93/50 69/94/51 70/95/52
f 64/96/53 70/95/52 71/97/54
f 69/94/51 66/91/47 67/92/49
f 58/83/39 72/98/55 59/84/40
f 61/86/42 73/99/56 62/87/43
f 64/89/45 61/86/42 63/88/44
f 62/87/43 73/99/56 58/83/39
f 66/91/47 72/98/57 59/84/48
f 68/93/50 52/100/37 69/94/51
f 64/96/53 68/93/50 70/95/52
f 69/94/51 52/100/37 66/91/47
f 53/68/22 64/101/53 54/71/25
f 42/102/28 58/103/39 43/104/8
f 43/104/8 73/105/56 45/106/30
f 52/81/37 50/65/19 66/107/47
f 42/74/35 66/107/47 50/65/19
f 48/108/14 61/109/42 64/101/45
f 46/110/11 73/105/56 61/109/42
f 53/68/22 52/81/37 68/111/50
f 87/64/18 55/112/58 41/63/59
f 52/81/37 88/80/36 85/113/60
f 80/67/21 56/114/61 88/80/36
f 95/115/62 97/116/63 96/82/38
f 45/76/30 82/75/29 86/117/64
f 87/64/18 41/63/59 84/73/34
f 77/59/13 49/118/65 76/58/12
f 98/119/66 99/120/67 97/116/63
f 83/56/10 47/121/68 82/75/29
f 85/113/60 50/65/19 52/81/37
f 89/70/24 91/122/69 57/123/70
f 77/59/13 51/124/71 49/118/65
f 80/67/21 57/123/70 56/114/61
f 86/117/64 43/54/8 45/76/30
f 83/56/10 49/118/65 47/121/68
f 89/70/24 57/123/70 81/69/23
f 100/125/72 101/126/73 93/79/74
f 102/127/75 104/128/76 103/129/77
f 98/130/78 105/131/79 104/128/76
f 103/129/77 101/126/73 100/125/72
f 92/77/31 93/79/33 106/132/80
f 95/115/62 96/82/38 107/133/81
f 98/119/66 97/116/63 95/115/62
f 96/82/38 92/77/31 107/133/81
f 100/125/72 93/79/74 106/132/82
f 102/127/75 103/129/77 56/134/61
f 98/130/78 104/128/76 102/127/75
f 103/129/77 100/125/72 56/134/61
f 98/135/78 57/123/70 91/122/69
f 92/136/31 41/137/17 44/138/16
f 107/139/81 44/138/16 47/140/68
f 56/114/61 100/141/72 55/112/58
f 100/141/72 41/63/59 55/112/58
f 51/142/71 95/143/62 49/144/65
f 49/144/65 107/139/81 47/140/68
f 57/123/70 102/145/75 56/114/61
f 56/114/61 85/113/60 88/80/36
f 47/121/68 86/117/64 82/75/29
f 55/112/58 85/113/60 56/114/61
f 44/62/16 86/117/64 47/121/68
f 74/53/7 42/74/28 43/54/8
f 83/56/10 45/76/30 46/57/11
f 77/59/13 46/57/11 48/60/14
f 74/53/7 75/55/9 44/62/16
f 87/64/18 42/74/35 50/65/19
f 80/67/21 52/81/37 53/68/22
f 89/70/24 53/68/22 54/71/25
f 53/68/22 68/111/50 64/101/53
f 42/102/28 72/146/55 58/103/39
f 43/104/8 58/103/39 73/105/56
f 42/74/35 72/146/57 66/107/47
f 48/108/14 46/110/11 61/109/42
f 46/110/11 45/106/30 73/105/56
f 87/64/18 79/66/20 55/112/58
f 85/113/60 79/66/20 50/65/19
f 89/70/24 90/72/26 91/122/69
f 77/59/13 78/61/15 51/124/71
f 80/67/21 81/69/23 57/123/70
f 86/117/64 75/55/9 43/54/8
f 83/56/10 76/58/12 49/118/65
f 98/135/78 102/145/75 57/123/70
f 92/136/31 106/147/80 41/137/17
f 107/139/81 92/136/31 44/138/16
f 100/141/72 106/147/82 41/63/59
f 51/142/71 98/135/66 95/143/62
f 49/144/65 95/143/62 107/139/81
f 55/112/58 79/66/20 85/113/60
f 44/62/16 75/55/9 86/117/64
