# Blender v2.91.0 Beta OBJ File: 'HOUSE02.blend'
# www.blender.org
o alumsiding01.019_tree.002_tree.005_alumsiding01.019_tree.001_al
v -11.402697 17.923746 34.480194
v -34.284142 17.923758 11.536186
v -34.284142 0.069969 23.032526
v -23.020658 0.069962 34.480190
v -34.284142 17.923746 34.480194
v -34.284142 0.069962 34.480190
v -11.402697 0.069962 34.480190
v -34.284142 17.923754 23.032539
v -23.020658 17.923748 34.480194
v -0.139216 0.069962 34.480190
v -0.139216 17.923748 34.480194
v 34.360191 17.923758 11.536186
v 34.360191 0.069975 11.536175
v 34.360191 17.923746 34.480194
v 34.360191 0.069969 23.032526
v 34.360191 17.923754 23.032539
v 22.742228 0.069962 34.480190
v 11.478746 0.069962 34.480190
v 34.360191 0.069962 34.480190
v 22.742228 17.923748 34.480194
v -34.284142 0.069969 0.025953
v -34.284142 0.069962 11.473608
v -34.284142 17.923754 0.025967
v 34.360191 0.069969 0.025953
v 34.360191 17.923754 0.025967
v -23.020658 0.069974 -34.539532
v -23.020658 17.923759 -34.539516
v -34.284142 0.069975 -34.476971
v -34.284142 17.923758 -34.476955
v -34.284142 0.069969 -22.980623
v -34.284142 17.923746 -11.532963
v -34.284142 0.069962 -11.532967
v -34.284142 17.923754 -22.980612
v -0.139216 0.069974 -34.539532
v 11.478746 0.069975 -34.476971
v -0.139216 17.923759 -34.539516
v -11.402697 0.069975 -34.476971
v 22.742228 0.069974 -34.539532
v 34.360191 17.923758 -34.476955
v 34.360191 0.069975 -34.476971
v 34.360191 17.923746 -11.532963
v 34.360191 0.069969 -22.980623
v 34.360191 17.923754 -22.980612
v 22.742228 17.923759 -34.539516
v 11.478746 17.923758 -34.476955
v 34.360191 0.069962 -11.532967
v -34.284142 35.777542 34.480194
v -34.284142 35.777550 23.032539
v -23.020658 35.777546 34.480194
v 11.478746 35.777542 34.480194
v -11.402697 35.777542 34.480194
v 34.360191 35.777542 34.480194
v 34.360191 35.777550 23.032539
v 11.478746 17.923759 34.480190
v 22.742228 35.777546 34.480194
v -34.284142 35.777542 11.473614
v -34.284142 35.777550 0.025967
v 34.360191 35.777542 11.473614
v 34.360191 35.777550 0.025967
v -11.402697 17.923773 -34.476971
v -23.020658 35.777557 -34.539516
v -34.284142 35.777557 -34.476955
v -34.284142 35.777542 -11.532963
v -34.284142 35.777550 -22.980612
v 11.478746 35.777557 -34.476955
v -0.139216 35.777557 -34.539516
v 34.360191 35.777557 -34.476955
v 34.360191 35.777542 -11.532963
v 34.360191 35.777550 -22.980612
v 22.742228 35.777557 -34.539516
v -11.402697 53.631340 34.480194
v -34.284142 53.631340 34.480194
v -34.284142 53.631348 23.032539
v -23.020658 53.631344 34.480194
v -0.139216 35.777557 34.480190
v -0.139216 53.631344 34.480194
v 34.360191 53.631355 11.536186
v 34.360191 53.631340 34.480194
v 34.360191 53.631348 23.032539
v 22.742228 53.631344 34.480194
v -34.284142 53.631355 -11.470387
v -34.284142 53.631340 11.473614
v -34.284142 53.631348 0.025967
v 34.360191 53.631348 0.025967
v -11.402697 53.631355 -34.476955
v -11.402697 35.777569 -34.476971
v -23.020658 53.631355 -34.539516
v -34.284142 53.631348 -22.980612
v -0.139216 53.631355 -34.539516
v 34.360191 53.631355 -34.476955
v 34.360191 53.631340 -11.532963
v 34.360191 53.631348 -22.980612
v 22.742228 53.631355 -34.539516
v 11.478746 53.631355 -34.476955
v -34.284142 62.906864 11.536186
v -34.284142 62.906864 34.480194
v -34.284142 62.906864 23.032539
v -23.020658 62.906864 34.480194
v -11.402697 62.906864 34.480194
v -0.139216 62.906864 34.480194
v 34.360188 62.906864 34.480194
v 34.360188 62.906864 23.032539
v 11.478746 62.906864 34.480190
v 11.478746 53.631355 34.480190
v 22.742228 62.906864 34.480194
v -34.284142 62.906864 0.025967
v 34.360188 62.906864 -11.470387
v 34.360188 62.906864 11.473614
v 34.360188 62.906864 0.025967
v -11.402697 62.906864 -34.476955
v -23.020658 62.906864 -34.539516
v -34.284142 53.631367 -34.476971
v -34.284142 62.906864 -34.476963
v -34.284142 62.906864 -11.532963
v -34.284142 62.906864 -22.980612
v -0.139216 62.906864 -34.539516
v 34.360188 62.906864 -34.476955
v 34.360188 62.906864 -22.980612
v 22.742228 62.906864 -34.539516
v 11.478746 62.906864 -34.476955
v -30.207266 62.906864 0.008559
v -30.207264 62.906864 30.379240
v -0.019299 62.906864 30.379240
v 30.272770 62.906864 30.379240
v 30.272772 62.906864 0.008560
v -0.019299 62.906864 -30.394783
v -30.207264 62.906864 -30.376417
v 30.272770 62.906864 -30.376410
v -30.207266 60.768349 0.008559
v -30.207264 60.768349 30.379240
v 30.272772 60.768349 0.008560
v -30.207264 60.768349 -30.376417
v -0.019299 60.768349 30.379240
v 30.272770 60.768349 30.379240
v 30.272770 60.768349 -30.376410
v -0.019299 60.768349 -30.394783
v -29.529247 2.587109 22.503218
v -19.828194 2.587102 33.687836
v -29.529247 2.587102 33.687836
v -9.821830 2.587102 33.687836
v -0.120776 2.587102 33.687836
v 29.593006 2.587115 11.271031
v 29.593006 2.587109 22.503218
v 19.586639 2.587102 33.687836
v 9.885586 2.587102 33.687836
v 29.593006 2.587102 33.687836
v -29.529247 2.587109 0.025294
v -29.529247 2.587102 11.209903
v 29.593006 2.587109 0.025294
v -19.828194 2.587114 -33.745937
v -29.529247 2.587115 -33.684814
v -29.529247 2.587109 -22.452633
v -29.529247 2.587102 -11.268023
v -0.120776 2.587114 -33.745937
v 9.885586 2.587115 -33.684814
v -9.821830 2.587115 -33.684814
v 19.586639 2.587114 -33.745937
v 29.593006 2.587115 -33.684814
v 29.593006 2.587109 -22.452633
v 29.593006 2.587102 -11.268023
v -29.529247 -8.625196 22.503218
v -19.828194 -8.625203 33.687836
v -29.529247 -8.625203 33.687836
v -9.821830 -8.625203 33.687836
v -0.120776 -8.625203 33.687836
v 29.593006 -8.625191 11.271031
v 29.593006 -8.625196 22.503218
v 19.586639 -8.625203 33.687836
v 9.885586 -8.625203 33.687836
v 29.593006 -8.625203 33.687836
v -29.529247 -8.625196 0.025294
v -29.529247 -8.625203 11.209903
v 29.593006 -8.625196 0.025294
v -19.828194 -8.625192 -33.745937
v -29.529247 -8.625191 -33.684814
v -29.529247 -8.625196 -22.452633
v -29.529247 -8.625203 -11.268023
v -0.120776 -8.625192 -33.745937
v 9.885586 -8.625191 -33.684814
v -9.821830 -8.625191 -33.684814
v 19.586639 -8.625192 -33.745937
v 29.593006 -8.625191 -33.684814
v 29.593006 -8.625196 -22.452633
v 29.593006 -8.625203 -11.268023
vt 0.526071 0.344873
vt 0.561879 0.297283
vt 0.561879 0.344873
vt 0.597934 0.337056
vt 0.633709 0.301192
vt 0.597934 0.301192
vt 0.454136 0.337056
vt 0.489911 0.301192
vt 0.454136 0.301192
vt 0.598813 0.297283
vt 0.598813 0.344873
vt 0.489137 0.344873
vt 0.453330 0.297283
vt 0.453330 0.344873
vt 0.634620 0.297283
vt 0.634620 0.344873
vt 0.526071 0.344873
vt 0.489137 0.297283
vt 0.561879 0.344873
vt 0.598813 0.297283
vt 0.561879 0.297283
vt 0.671554 0.297283
vt 0.671554 0.344873
vt 0.634620 0.344873
vt 0.598813 0.344873
vt 0.526071 0.297283
vt 0.489911 0.337056
vt 0.525839 0.301192
vt 0.525839 0.337056
vt 0.526035 0.337056
vt 0.489911 0.337056
vt 0.671554 0.297283
vt 0.634620 0.297283
vt 0.454136 0.337056
vt 0.489911 0.301192
vt 0.561810 0.301192
vt 0.561810 0.337056
vt 0.633709 0.337056
vt 0.669637 0.301192
vt 0.669637 0.337056
vt 0.526035 0.301192
vt 0.597934 0.337056
vt 0.561810 0.301192
vt 0.597934 0.301192
vt 0.453330 0.344873
vt 0.489137 0.297283
vt 0.489137 0.344873
vt 0.633709 0.301192
vt 0.633709 0.337056
vt 0.669637 0.301192
vt 0.561810 0.337056
vt 0.526071 0.297283
vt 0.671554 0.344873
vt 0.454136 0.301192
vt 0.453330 0.297283
vt 0.669637 0.337056
vt 0.686838 0.549872
vt 0.514963 0.358348
vt 0.686838 0.358348
vt 0.514963 0.549872
vt 0.514963 0.358348
vt 0.686838 0.358348
vt 0.686838 0.549872
vt 0.686838 0.549872
vt 0.686838 0.358348
vt 0.514963 0.549872
vt 0.514963 0.358348
vt 0.686838 0.358348
vt 0.686838 0.549872
vt 0.514963 0.549872
vt 0.514963 0.358348
vt 0.686838 0.549872
vt 0.514963 0.358348
vt 0.686838 0.358348
vt 0.686838 0.358348
vt 0.686838 0.549872
vt 0.514963 0.549872
vt 0.514963 0.549872
vt 0.514963 0.358348
vt 0.686838 0.549872
vt 0.686838 0.358348
vt 0.686838 0.549872
vt 0.514963 0.358348
vt 0.686838 0.358348
vt 0.514963 0.549872
vt 0.514963 0.549872
vt 0.514963 0.549872
vt 0.686838 0.358348
vt 0.514963 0.358348
vt 0.514963 0.358348
vt 0.686838 0.549872
vt 0.686838 0.358348
vt 0.514963 0.549872
vt 0.686838 0.358348
vt 0.514963 0.358348
vt 0.686838 0.549872
vt 0.514963 0.549872
vt 0.686838 0.358348
vt 0.514963 0.358348
vt 0.686838 0.549872
vt 0.514963 0.358348
vt 0.514963 0.549872
vt 0.686838 0.549872
vt 0.686838 0.549872
vt 0.514963 0.358348
vt 0.686838 0.358348
vt 0.514963 0.549872
vt 0.514963 0.358348
vt 0.686838 0.549872
vt 0.686838 0.358348
vt 0.514963 0.549872
vt 0.686838 0.358348
vt 0.514963 0.358348
vt 0.514963 0.549872
vt 0.686838 0.358348
vt 0.686838 0.549872
vt 0.514963 0.549872
vt 0.514963 0.358348
vt 0.514963 0.549872
vt 0.686838 0.358348
vt 0.686838 0.549872
vt 0.686838 0.358348
vt 0.686838 0.549872
vt 0.514963 0.358348
vt 0.686838 0.549872
vt 0.514963 0.358348
vt 0.686838 0.549872
vt 0.686838 0.358348
vt 0.686838 0.549872
vt 0.514963 0.358348
vt 0.686838 0.358348
vt 0.514963 0.549872
vt 0.514963 0.358348
vt 0.514963 0.549872
vt 0.686838 0.358348
vt 0.514963 0.358348
vt 0.514963 0.549872
vt 0.686838 0.358348
vt 0.686838 0.549872
vt 0.514963 0.549872
vt 0.686838 0.358348
vt 0.514963 0.358348
vt 0.686838 0.549872
vt 0.514963 0.549872
vt 0.686838 0.358348
vt 0.514963 0.358348
vt 0.514963 0.549872
vt 0.686838 0.549872
vt 0.514963 0.358348
vt 0.686838 0.549872
vt 0.686838 0.549872
vt 0.514963 0.358348
vt 0.686838 0.358348
vt 0.514963 0.358348
vt 0.686838 0.549872
vt 0.686838 0.358348
vt 0.686838 0.549872
vt 0.686838 0.358348
vt 0.514963 0.358348
vt 0.514963 0.549872
vt 0.686838 0.358348
vt 0.686838 0.549872
vt 0.514963 0.549872
vt 0.514963 0.358348
vt 0.686838 0.549872
vt 0.514963 0.358348
vt 0.686838 0.358348
vt 0.686838 0.549872
vt 0.686838 0.358348
vt 0.514963 0.549872
vt 0.514963 0.358348
vt 0.686838 0.549872
vt 0.686838 0.358348
vt 0.686838 0.549872
vt 0.514963 0.358348
vt 0.686838 0.358348
vt 0.514963 0.549872
vt 0.514963 0.549872
vt 0.514963 0.549872
vt 0.686838 0.358348
vt 0.514963 0.358348
vt 0.686838 0.358348
vt 0.514963 0.358348
vt 0.686838 0.549872
vt 0.514963 0.549872
vt 0.686838 0.358348
vt 0.514963 0.358348
vt 0.686838 0.549872
vt 0.514963 0.549872
vt 0.686838 0.358348
vt 0.514963 0.358348
vt 0.514963 0.549872
vt 0.686838 0.549872
vt 0.514963 0.358348
vt 0.686838 0.549872
vt 0.686838 0.372481
vt 0.514963 0.357733
vt 0.686838 0.357733
vt 0.514963 0.372481
vt 0.514963 0.357733
vt 0.686838 0.372481
vt 0.686838 0.357733
vt 0.686838 0.372481
vt 0.686838 0.357733
vt 0.514963 0.357733
vt 0.514963 0.372481
vt 0.686838 0.357733
vt 0.686838 0.372481
vt 0.514963 0.372481
vt 0.514963 0.357733
vt 0.514963 0.372481
vt 0.686838 0.357733
vt 0.686838 0.372481
vt 0.686838 0.372481
vt 0.686838 0.357733
vt 0.514963 0.357733
vt 0.514963 0.372481
vt 0.686838 0.357733
vt 0.514963 0.357733
vt 0.686838 0.372481
vt 0.514963 0.357733
vt 0.686838 0.357733
vt 0.514963 0.372481
vt 0.686838 0.372481
vt 0.514963 0.357733
vt 0.514963 0.372481
vt 0.686838 0.357733
vt 0.514963 0.357733
vt 0.514963 0.372481
vt 0.686838 0.357733
vt 0.686838 0.372481
vt 0.514963 0.372481
vt 0.686838 0.357733
vt 0.514963 0.357733
vt 0.686838 0.372481
vt 0.514963 0.357733
vt 0.686838 0.372481
vt 0.686838 0.357733
vt 0.514963 0.372481
vt 0.686838 0.372481
vt 0.514963 0.372481
vt 0.600900 0.368896
vt 0.600900 0.368896
vt 0.600900 0.368896
vt 0.600900 0.368896
vt 0.600900 0.368896
vt 0.600900 0.368896
vt 0.600900 0.368896
vt 0.600900 0.368896
vt 0.600900 0.368896
vt 0.600900 0.368896
vt 0.600900 0.368896
vt 0.600900 0.368896
vt 0.600900 0.368896
vt 0.600900 0.368896
vt 0.600900 0.368896
vt 0.600900 0.368896
vt 0.600900 0.368896
vt 0.600900 0.368896
vt 0.600900 0.368896
vt 0.600900 0.368896
vt 0.600900 0.368896
vt 0.600900 0.368896
vt 0.600900 0.368896
vt 0.600900 0.368896
vt 0.600900 0.368896
vt 0.600900 0.368896
vt 0.600900 0.368896
vt 0.600900 0.368896
vt 0.600900 0.368896
vt 0.600900 0.368896
vt 0.600900 0.368896
vt 0.600900 0.368896
vt 0.600900 0.368896
vt 0.600900 0.368896
vt 0.600900 0.368896
vt 0.600900 0.368896
vt 0.600900 0.368896
vt 0.600900 0.368896
vt 0.600900 0.368896
vt 0.600900 0.368896
vt 0.514963 0.549872
vt 0.514963 0.549872
vt 0.514963 0.549872
vt 0.514963 0.549872
vt 0.514963 0.549872
vt 0.514963 0.372481
vt 0.514963 0.357733
vn 0.0000 0.0000 1.0000
vn -1.0000 0.0000 0.0000
vn -0.0063 0.0000 -1.0000
vn 0.0061 0.0000 -1.0000
vn 1.0000 0.0000 0.0000
vn -0.0001 0.0000 -1.0000
vn 0.0054 0.0000 -1.0000
vn -0.0056 0.0000 -1.0000
vn 0.0000 1.0000 0.0000
vn 0.0000 0.0000 -1.0000
vn -0.0006 0.0000 1.0000
vn 0.0006 0.0000 1.0000
s off
f 140/1/1 165/2/1 141/3/1
f 153/4/2 176/5/2 177/6/2
f 139/7/2 161/8/2 163/9/2
f 141/3/1 169/10/1 145/11/1
f 150/12/3 175/13/3 151/14/3
f 145/11/1 168/15/1 144/16/1
f 156/17/4 174/18/4 150/12/4
f 154/19/4 179/20/4 178/21/4
f 144/16/1 170/22/1 146/23/1
f 157/24/3 179/20/3 155/25/3
f 154/19/3 180/26/3 156/17/3
f 143/27/5 166/28/5 142/29/5
f 148/30/2 161/8/2 137/31/2
f 157/24/4 182/32/4 181/33/4
f 146/34/5 167/35/5 143/27/5
f 153/4/2 171/36/2 147/37/2
f 159/38/5 182/39/5 158/40/5
f 148/30/2 171/36/2 172/41/2
f 160/42/5 173/43/5 184/44/5
f 139/45/1 162/46/1 138/47/1
f 160/42/5 183/48/5 159/38/5
f 152/49/2 175/50/2 176/5/2
f 149/51/5 166/28/5 173/43/5
f 138/47/1 164/52/1 140/1/1
f 140/1/1 164/52/1 165/2/1
f 153/4/2 152/49/2 176/5/2
f 139/7/2 137/31/2 161/8/2
f 141/3/1 165/2/1 169/10/1
f 150/12/3 174/18/3 175/13/3
f 145/11/1 169/10/1 168/15/1
f 156/17/4 180/26/4 174/18/4
f 154/19/4 155/25/4 179/20/4
f 144/16/1 168/15/1 170/22/1
f 157/24/3 181/33/3 179/20/3
f 154/19/3 178/21/3 180/26/3
f 143/27/5 167/35/5 166/28/5
f 148/30/2 172/41/2 161/8/2
f 157/24/4 158/53/4 182/32/4
f 146/34/5 170/54/5 167/35/5
f 153/4/2 177/6/2 171/36/2
f 159/38/5 183/48/5 182/39/5
f 148/30/2 147/37/2 171/36/2
f 160/42/5 149/51/5 173/43/5
f 139/45/1 163/55/1 162/46/1
f 160/42/5 184/44/5 183/48/5
f 152/49/2 151/56/2 175/50/2
f 149/51/5 142/29/5 166/28/5
f 138/47/1 162/46/1 164/52/1
s 1
f 5/57/2 3/58/2 6/59/2
f 9/60/1 6/59/1 4/61/1
f 9/60/1 7/62/1 1/63/1
f 3/58/2 2/64/2 22/65/2
f 11/66/1 7/62/1 10/67/1
f 11/66/1 18/68/1 54/69/1
f 20/70/1 18/68/1 17/71/1
f 12/72/5 15/73/5 13/74/5
f 20/70/1 19/75/1 14/76/1
f 14/76/5 15/73/5 16/77/5
f 23/78/2 22/65/2 2/64/2
f 21/79/2 31/80/2 32/81/2
f 41/82/5 24/83/5 46/84/5
f 13/74/5 25/85/5 12/72/5
f 33/86/2 32/81/2 31/80/2
f 27/87/6 37/88/7 26/89/6
f 30/90/2 29/91/2 28/92/2
f 26/89/6 29/91/8 27/87/6
f 36/93/6 35/94/7 34/95/6
f 36/93/6 37/88/8 60/96/8
f 44/97/6 40/98/7 38/99/6
f 39/100/5 42/101/5 40/98/5
f 46/84/5 43/102/5 41/82/5
f 38/99/6 45/103/8 44/97/6
f 47/104/2 8/105/2 5/106/2
f 49/107/1 5/106/1 9/108/1
f 51/109/1 9/108/1 1/110/1
f 48/111/2 2/112/2 8/105/2
f 11/113/1 51/109/1 1/110/1
f 75/114/1 54/115/1 50/116/1
f 55/117/1 54/115/1 20/118/1
f 53/119/5 12/120/5 58/121/5
f 55/117/1 14/122/1 52/123/1
f 52/123/5 16/124/5 53/119/5
f 56/125/2 23/126/2 2/112/2
f 23/126/2 63/127/2 31/128/2
f 68/129/5 25/130/5 41/131/5
f 58/121/5 25/130/5 59/132/5
f 63/127/2 33/133/2 31/128/2
f 61/134/6 60/135/7 27/136/6
f 64/137/2 29/138/2 33/133/2
f 27/136/6 62/139/8 61/134/6
f 66/140/6 45/141/7 36/142/6
f 66/140/6 60/135/8 86/143/8
f 70/144/6 39/145/7 44/146/6
f 69/147/5 39/145/5 67/148/5
f 68/129/5 43/149/5 69/147/5
f 44/146/6 65/150/8 70/144/6
f 72/151/2 48/152/2 47/153/2
f 49/154/1 72/151/1 47/153/1
f 71/155/1 49/154/1 51/156/1
f 48/152/2 82/157/2 56/158/2
f 75/159/1 71/155/1 51/156/1
f 76/160/1 50/161/1 104/162/1
f 80/163/1 50/161/1 55/164/1
f 77/165/5 53/166/5 58/167/5
f 78/168/1 55/164/1 52/169/1
f 78/168/5 53/166/5 79/170/5
f 82/157/2 57/171/2 56/158/2
f 57/171/2 81/172/2 63/173/2
f 91/174/5 59/175/5 68/176/5
f 58/167/5 84/177/5 77/165/5
f 88/178/2 63/173/2 81/172/2
f 87/179/6 86/180/7 61/181/6
f 88/178/2 62/182/2 64/183/2
f 87/179/6 62/182/8 112/184/8
f 89/185/6 65/186/7 66/187/6
f 89/185/6 86/180/8 85/188/8
f 93/189/6 67/190/7 70/191/6
f 92/192/5 67/190/5 90/193/5
f 91/174/5 69/194/5 92/192/5
f 70/191/6 94/195/8 93/189/6
f 96/196/2 73/197/2 72/198/2
f 98/199/1 72/198/1 74/200/1
f 99/201/1 74/200/1 71/202/1
f 73/197/2 95/203/2 82/204/2
f 76/205/1 99/201/1 71/202/1
f 100/206/1 104/207/1 103/208/1
f 105/209/1 104/207/1 80/210/1
f 102/211/5 77/212/5 108/213/5
f 101/214/1 80/210/1 78/215/1
f 101/214/5 79/216/5 102/211/5
f 106/217/2 82/204/2 95/203/2
f 106/217/2 81/218/2 83/219/2
f 107/220/5 84/221/5 91/222/5
f 108/213/5 84/221/5 109/223/5
f 114/224/2 88/225/2 81/218/2
f 111/226/6 85/227/7 87/228/6
f 115/229/2 112/230/2 88/225/2
f 111/226/6 112/230/8 113/231/8
f 116/232/6 94/233/7 89/234/6
f 89/234/6 110/235/8 116/232/6
f 93/236/6 117/237/7 90/238/7
f 118/239/5 90/238/5 117/237/5
f 91/222/5 118/239/5 107/220/5
f 93/236/6 120/240/8 119/241/6
f 117/242/9 119/243/9 128/244/9
f 99/245/9 122/246/9 98/247/9
f 107/248/9 128/244/9 125/249/9
f 96/250/9 98/247/9 122/246/9
f 109/251/9 107/248/9 125/249/9
f 120/252/9 116/253/9 126/254/9
f 118/255/9 117/242/9 128/244/9
f 114/256/9 106/257/9 121/258/9
f 95/259/9 122/246/9 121/258/9
f 108/260/9 109/251/9 125/249/9
f 120/252/9 128/244/9 119/243/9
f 106/257/9 95/259/9 121/258/9
f 97/261/9 96/250/9 122/246/9
f 105/262/9 101/263/9 124/264/9
f 116/253/9 110/265/9 126/254/9
f 108/260/9 124/264/9 102/266/9
f 103/267/9 124/264/9 123/268/9
f 110/265/9 127/269/9 126/254/9
f 113/270/9 115/271/9 127/269/9
f 100/272/9 103/267/9 123/268/9
f 101/263/9 102/266/9 124/264/9
f 114/256/9 127/269/9 115/271/9
f 121/258/5 132/273/5 127/269/5
f 124/264/10 133/274/10 123/268/10
f 123/268/10 130/275/10 122/246/10
f 126/254/1 135/276/11 128/244/11
f 128/244/2 131/277/2 125/249/2
f 127/269/12 136/278/1 126/254/1
f 111/279/9 113/270/9 127/269/9
f 99/245/9 100/272/9 123/268/9
f 136/278/9 129/280/9 131/277/9
f 129/280/9 130/275/9 133/274/9
f 133/274/9 134/281/9 131/277/9
f 129/280/9 133/274/9 131/277/9
f 132/273/9 129/280/9 136/278/9
f 131/277/9 135/276/9 136/278/9
f 122/246/5 129/280/5 121/258/5
f 125/249/2 134/281/2 124/264/2
f 5/57/2 8/282/2 3/58/2
f 9/60/1 5/57/1 6/59/1
f 9/60/1 4/61/1 7/62/1
f 3/58/2 8/282/2 2/64/2
f 11/66/1 1/63/1 7/62/1
f 11/66/1 10/67/1 18/68/1
f 20/70/1 54/69/1 18/68/1
f 12/72/5 16/77/5 15/73/5
f 20/70/1 17/71/1 19/75/1
f 14/76/5 19/75/5 15/73/5
f 23/78/2 21/79/2 22/65/2
f 21/79/2 23/78/2 31/80/2
f 41/82/5 25/85/5 24/83/5
f 13/74/5 24/83/5 25/85/5
f 33/86/2 30/90/2 32/81/2
f 27/87/6 60/96/7 37/88/7
f 30/90/2 33/86/2 29/91/2
f 26/89/6 28/92/8 29/91/8
f 36/93/6 45/103/7 35/94/7
f 36/93/6 34/95/6 37/88/8
f 44/97/6 39/100/7 40/98/7
f 39/100/5 43/102/5 42/101/5
f 46/84/5 42/101/5 43/102/5
f 38/99/6 35/94/8 45/103/8
f 47/104/2 48/111/2 8/105/2
f 49/107/1 47/104/1 5/106/1
f 51/109/1 49/107/1 9/108/1
f 48/111/2 56/125/2 2/112/2
f 11/113/1 75/114/1 51/109/1
f 75/114/1 11/113/1 54/115/1
f 55/117/1 50/116/1 54/115/1
f 53/119/5 16/124/5 12/120/5
f 55/117/1 20/118/1 14/122/1
f 52/123/5 14/122/5 16/124/5
f 56/125/2 57/283/2 23/126/2
f 23/126/2 57/283/2 63/127/2
f 68/129/5 59/132/5 25/130/5
f 58/121/5 12/120/5 25/130/5
f 63/127/2 64/137/2 33/133/2
f 61/134/6 86/143/7 60/135/7
f 64/137/2 62/139/2 29/138/2
f 27/136/6 29/138/8 62/139/8
f 66/140/6 65/150/7 45/141/7
f 66/140/6 36/142/6 60/135/8
f 70/144/6 67/148/7 39/145/7
f 69/147/5 43/149/5 39/145/5
f 68/129/5 41/131/5 43/149/5
f 44/146/6 45/141/8 65/150/8
f 72/151/2 73/284/2 48/152/2
f 49/154/1 74/285/1 72/151/1
f 71/155/1 74/285/1 49/154/1
f 48/152/2 73/284/2 82/157/2
f 75/159/1 76/160/1 71/155/1
f 76/160/1 75/159/1 50/161/1
f 80/163/1 104/162/1 50/161/1
f 77/165/5 79/170/5 53/166/5
f 78/168/1 80/163/1 55/164/1
f 78/168/5 52/169/5 53/166/5
f 82/157/2 83/286/2 57/171/2
f 57/171/2 83/286/2 81/172/2
f 91/174/5 84/177/5 59/175/5
f 58/167/5 59/175/5 84/177/5
f 88/178/2 64/183/2 63/173/2
f 87/179/6 85/188/7 86/180/7
f 88/178/2 112/184/2 62/182/2
f 87/179/6 61/181/6 62/182/8
f 89/185/6 94/195/7 65/186/7
f 89/185/6 66/187/6 86/180/8
f 93/189/6 90/193/7 67/190/7
f 92/192/5 69/194/5 67/190/5
f 91/174/5 68/176/5 69/194/5
f 70/191/6 65/186/8 94/195/8
f 96/196/2 97/287/2 73/197/2
f 98/199/1 96/196/1 72/198/1
f 99/201/1 98/199/1 74/200/1
f 73/197/2 97/287/2 95/203/2
f 76/205/1 100/206/1 99/201/1
f 100/206/1 76/205/1 104/207/1
f 105/209/1 103/208/1 104/207/1
f 102/211/5 79/216/5 77/212/5
f 101/214/1 105/209/1 80/210/1
f 101/214/5 78/215/5 79/216/5
f 106/217/2 83/219/2 82/204/2
f 106/217/2 114/224/2 81/218/2
f 107/220/5 109/223/5 84/221/5
f 108/213/5 77/212/5 84/221/5
f 114/224/2 115/229/2 88/225/2
f 111/226/6 110/235/7 85/227/7
f 115/229/2 113/231/2 112/230/2
f 111/226/6 87/228/6 112/230/8
f 116/232/6 120/240/7 94/233/7
f 89/234/6 85/227/8 110/235/8
f 93/236/6 119/241/6 117/237/7
f 118/239/5 92/288/5 90/238/5
f 91/222/5 92/288/5 118/239/5
f 93/236/6 94/233/8 120/240/8
f 99/245/9 123/268/9 122/246/9
f 107/248/9 118/255/9 128/244/9
f 95/259/9 97/261/9 122/246/9
f 120/252/9 126/254/9 128/244/9
f 108/260/9 125/249/9 124/264/9
f 103/267/9 105/262/9 124/264/9
f 110/265/9 111/279/9 127/269/9
f 114/256/9 121/258/9 127/269/9
f 121/258/5 129/280/5 132/273/5
f 124/264/10 134/281/10 133/274/10
f 123/268/10 133/274/10 130/275/10
f 126/254/1 136/278/1 135/276/11
f 128/244/2 135/276/2 131/277/2
f 127/269/12 132/273/12 136/278/1
f 122/246/5 130/275/5 129/280/5
f 125/249/2 131/277/2 134/281/2
