# Blender v2.91.0 Beta OBJ File: 'HOUSE02.blend'
# www.blender.org
o alumsiding01.019_tree.002_tree.005_alumsiding01.019_tree.00
v -33.817593 0.069962 -11.447655
v -45.081074 0.069962 -11.447655
v -45.081074 0.069969 0.000000
v -45.081074 0.069962 11.447655
v -11.290630 0.069962 -11.447655
v -22.554111 0.069962 -11.447655
v -11.290630 0.069962 11.447655
v -22.554111 0.069962 11.447655
v 11.236332 0.069962 -11.447655
v -0.027149 0.069962 -11.447655
v 11.236332 0.069962 11.447655
v -0.027149 0.069962 11.447655
v 33.763298 0.069962 -11.447655
v 45.026779 0.069969 0.000000
v 22.499813 0.069962 -11.447655
v 33.763298 0.069962 11.447655
v 22.499813 0.069962 11.447655
v 45.026779 0.069962 11.447655
v 45.026779 0.069962 -11.447655
v -45.081074 19.023691 11.447660
v -33.817593 19.023695 -11.447660
v -45.081074 19.023691 -11.447660
v -45.081074 19.023699 0.000000
v -22.554111 19.023691 11.447660
v -11.290630 19.023695 -11.447660
v -11.290630 19.023695 11.447660
v -0.027149 19.023691 11.447660
v 11.236332 19.023695 -11.447660
v -0.027149 19.023691 -11.447660
v 11.236332 19.023695 11.447660
v 22.499813 19.023691 -11.447660
v 22.499813 19.023691 11.447660
v 45.026779 19.023691 11.447660
v 45.026779 19.023699 0.000000
v 45.026779 19.023691 -11.447660
v 33.763298 19.023695 -11.447660
v 33.763298 19.023695 11.447660
v -22.554111 19.023691 -11.447660
v -31.668076 19.023695 -10.223307
v -31.668076 20.999435 -10.223308
v -42.215050 19.023699 0.000000
v -42.215050 20.999439 0.000000
v -21.121101 20.999432 -10.223308
v -42.215050 20.999432 10.223308
v -42.215050 20.999432 -10.223308
v 42.160759 20.999439 0.000000
v 31.613770 20.999435 10.223308
v 31.613770 20.999435 -10.223308
v -10.574123 19.023695 -10.223307
v -10.574123 20.999435 -10.223308
v 21.066799 20.999432 10.223308
v 21.066799 20.999432 -10.223308
v -10.574123 19.023695 10.223307
v -10.574123 20.999435 10.223308
v -0.027149 20.999432 10.223308
v -0.027149 20.999432 -10.223308
v -21.121101 20.999432 10.223308
v 10.519825 20.999435 10.223308
v 10.519825 19.023695 -10.223307
v 10.519825 20.999435 -10.223308
v 10.519825 19.023695 10.223307
v 42.160759 19.023699 0.000000
v 31.613770 19.023695 -10.223307
v 31.613770 19.023695 10.223307
v 42.160759 20.999432 -10.223308
v 42.160759 20.999432 10.223308
v -42.215050 19.023691 10.223307
v -42.215050 19.023691 -10.223307
v -21.121101 19.023691 10.223307
v -0.027149 19.023691 10.223307
v -0.027149 19.023691 -10.223307
v 21.066799 19.023691 -10.223307
v 21.066799 19.023691 10.223307
v 42.160759 19.023691 10.223307
v 42.160759 19.023691 -10.223307
v -21.121101 19.023691 -10.223307
v -31.001469 0.069962 11.447655
v -36.633717 0.069962 11.447655
v -36.644783 19.023693 11.447660
v -30.990404 19.023693 11.447660
v -28.840885 19.023693 10.223307
v -34.495266 19.023693 10.223307
v -34.484200 20.999434 10.223308
v -28.851952 20.999434 10.223308
v -31.668076 20.999435 7.683817
v -33.491528 20.999435 8.455813
v -45.081074 0.069963 11.447655
v -45.081074 0.069963 -11.447655
v -22.554111 0.069963 11.447655
v -0.027149 0.069963 11.447655
v -0.027149 0.069963 -11.447655
v 22.499813 0.069963 -11.447655
v 22.499813 0.069963 11.447655
v 45.026779 0.069963 11.447655
v 45.026779 0.069963 -11.447655
v -22.554111 0.069963 -11.447655
v -33.817593 0.069963 -11.447655
v -45.081074 0.069969 0.000000
v -11.290630 0.069963 -11.447655
v -11.290630 0.069963 11.447655
v 11.236332 0.069963 -11.447655
v 11.236332 0.069963 11.447655
v 45.026779 0.069969 0.000000
v 33.763298 0.069963 -11.447655
v 33.763298 0.069963 11.447655
v -30.996574 8.454570 11.447658
v -36.638611 8.454569 11.447658
vt 0.400879 0.203258
vt 0.501465 0.203258
vt 0.400879 0.203258
vt 0.501465 -0.000488
vt 0.400879 -0.000488
vt 0.501465 -0.000488
vt 0.400879 0.203258
vt 0.501465 0.203258
vt 0.501465 0.203258
vt 0.400879 -0.000488
vt 0.501465 -0.000488
vt 0.501465 -0.000488
vt 0.501465 -0.000488
vt 0.400879 -0.000488
vt 0.501465 -0.000488
vt 0.400879 0.203258
vt 0.501465 0.203258
vt 0.501465 0.203258
vt 0.400879 -0.000488
vt 0.501465 -0.000488
vt 0.400879 -0.000488
vt 0.501465 -0.000488
vt 0.400879 -0.000488
vt 0.501465 -0.000488
vt 0.501465 -0.000488
vt 0.501465 -0.000488
vt 0.501465 -0.000488
vt 0.400879 0.203258
vt 0.501465 0.203258
vt 0.501465 0.203258
vt 0.501465 -0.000488
vt 0.400879 -0.000488
vt 0.501465 -0.000488
vt 0.501465 0.224496
vt 0.427842 0.203258
vt 0.501465 0.203258
vt 0.400879 -0.000488
vt 0.501465 0.203258
vt 0.400879 0.203258
vt 0.400879 0.203258
vt 0.501465 -0.000488
vt 0.501465 -0.000488
vt 0.501465 -0.000488
vt 0.400879 -0.000488
vt 0.501465 -0.000488
vt 0.426126 0.203258
vt 0.501465 0.203258
vt 0.501465 0.203258
vt 0.501465 0.203258
vt 0.426126 0.203258
vt 0.426071 0.089643
vt 0.400879 0.203258
vt 0.501465 0.203258
vt 0.400879 0.203258
vt 0.400879 0.203258
vt 0.501465 0.203258
vt 0.400879 0.203258
vt 0.400879 0.203258
vt 0.501465 0.203258
vt 0.400879 0.203258
vt 0.400879 0.203258
vt 0.501465 0.203258
vt 0.501465 0.203258
vt 0.400879 0.203258
vt 0.501465 0.203258
vt 0.501465 0.203258
vt 0.400879 0.203258
vt 0.400879 0.203258
vt 0.400879 0.203258
vt 0.501465 0.203258
vt 0.400879 0.224496
vt 0.501465 0.224496
vt 0.501465 0.224496
vt 0.400879 0.224496
vt 0.501465 0.224496
vt 0.400879 0.224496
vt 0.501465 0.224496
vt 0.501465 0.224496
vt 0.400879 0.224496
vt 0.400879 0.224496
vt 0.400879 0.224496
vt 0.400879 0.224496
vt 0.501465 0.224496
vt 0.400879 0.224496
vt 0.501465 0.224496
vt 0.400879 0.224496
vt 0.400879 0.224496
vt 0.501465 0.224496
vt 0.501465 0.224496
vt 0.400879 0.224496
vt 0.427842 0.203258
vt 0.427736 0.224496
vt 0.374022 0.224496
vt 0.426071 0.089643
vt 0.427736 0.224496
vt 0.501465 -0.000488
vt 0.426028 -0.000488
vt 0.346191 -0.000488
vt 0.405762 0.089355
vt 0.405762 -0.000488
vt 0.400879 -0.000488
vt 0.400879 -0.000488
vt 0.400879 -0.000488
vt 0.400879 -0.000488
vt 0.400879 -0.000488
vt 0.400879 -0.000488
vt 0.400879 -0.000488
vt 0.400879 -0.000488
vt 0.400879 -0.000488
vt 0.426028 -0.000488
vt 0.501465 -0.000488
vt 0.346191 0.089355
vn 0.0000 1.0000 -0.0000
vn 0.0000 0.0000 -1.0000
vn 0.0000 0.0000 1.0000
vn -1.0000 0.0000 0.0000
vn 1.0000 0.0000 0.0000
s off
f 37/1/1 74/2/1 64/3/1
f 6/4/2 97/5/2 96/6/2
f 36/7/1 75/8/1 35/9/1
f 105/10/3 18/11/3 94/12/3
f 2/13/4 98/14/4 88/15/4
f 28/16/1 72/17/1 31/18/1
f 18/11/5 103/19/5 94/12/5
f 10/20/2 99/21/2 91/22/2
f 100/23/3 12/24/3 90/25/3
f 17/26/3 105/10/3 93/27/3
f 23/28/1 68/29/1 22/30/1
f 15/31/2 101/32/2 92/33/2
f 57/34/3 81/35/3 69/36/3
f 102/37/3 17/26/3 93/27/3
f 29/38/1 59/39/1 28/16/1
f 31/18/1 63/40/1 36/7/1
f 12/24/3 102/37/3 90/25/3
f 8/41/3 100/23/3 89/42/3
f 19/43/2 104/44/2 95/45/2
f 79/46/1 67/47/1 20/48/1
f 24/49/1 81/35/1 80/50/1
f 106/51/4 8/41/4 89/42/4
f 30/52/1 73/53/1 61/54/1
f 34/55/1 74/2/1 33/56/1
f 34/55/1 75/8/1 62/57/1
f 29/38/1 49/58/1 71/59/1
f 98/14/4 20/48/4 23/28/4
f 103/19/5 35/9/5 34/55/5
f 23/28/1 67/47/1 41/60/1
f 91/22/2 28/16/2 101/32/2
f 25/61/1 76/62/1 49/58/1
f 38/63/1 39/64/1 76/62/1
f 27/65/1 61/54/1 70/66/1
f 96/6/2 25/61/2 99/21/2
f 27/65/1 53/67/1 26/68/1
f 92/33/2 36/7/2 104/44/2
f 21/69/1 68/29/1 39/64/1
f 26/68/1 69/36/1 24/49/1
f 88/15/2 21/69/2 97/5/2
f 32/70/1 64/3/1 73/53/1
f 58/71/1 56/72/1 55/73/1
f 46/74/1 65/75/1 48/76/1
f 52/77/1 58/71/1 51/78/1
f 55/73/1 50/79/1 54/80/1
f 47/81/1 52/77/1 51/78/1
f 85/82/1 57/34/1 43/83/1
f 40/84/1 45/85/1 42/86/1
f 43/83/1 54/80/1 50/79/1
f 46/74/1 48/76/1 47/81/1
f 68/29/2 40/84/2 39/64/2
f 63/40/2 52/77/2 48/76/2
f 76/62/2 50/79/2 49/58/2
f 42/86/1 85/82/1 40/84/1
f 59/39/2 56/72/2 60/87/2
f 75/8/5 46/74/5 62/57/5
f 67/47/4 42/86/4 41/60/4
f 47/81/1 66/88/1 46/74/1
f 44/89/1 86/90/1 42/86/1
f 44/89/3 82/91/3 83/92/3
f 65/75/2 63/40/2 48/76/2
f 69/36/3 54/80/3 57/34/3
f 55/73/3 61/54/3 58/71/3
f 51/78/3 61/54/3 73/53/3
f 52/77/2 59/39/2 60/87/2
f 51/78/3 64/3/3 47/81/3
f 55/73/3 53/67/3 70/66/3
f 56/72/2 49/58/2 50/79/2
f 74/2/5 46/74/5 66/88/5
f 68/29/4 42/86/4 45/85/4
f 66/88/3 64/3/3 74/2/3
f 76/62/2 40/84/2 43/83/2
f 84/93/1 86/90/1 83/92/1
f 80/50/1 82/91/1 79/46/1
f 80/50/3 107/94/3 106/51/3
f 84/95/3 82/91/3 81/35/3
f 87/96/3 78/97/3 107/94/3
f 20/48/3 107/94/3 79/46/3
f 77/98/3 107/99/3 78/100/3
f 2/13/2 97/5/2 1/101/2
f 15/31/2 104/44/2 13/102/2
f 6/4/2 99/21/2 5/103/2
f 10/20/2 101/32/2 9/104/2
f 14/105/5 95/45/5 103/19/5
f 3/106/4 87/96/4 98/14/4
f 24/49/3 106/51/3 89/42/3
f 95/45/2 36/7/2 35/9/2
f 89/42/3 26/68/3 24/49/3
f 90/25/3 30/52/3 27/65/3
f 30/52/3 93/27/3 32/70/3
f 92/33/2 28/16/2 31/18/2
f 93/27/3 37/1/3 32/70/3
f 26/68/3 90/25/3 27/65/3
f 91/22/2 25/61/2 29/38/2
f 33/56/5 103/19/5 34/55/5
f 22/30/4 98/14/4 23/28/4
f 37/1/3 94/12/3 33/56/3
f 38/63/2 97/5/2 21/69/2
f 37/1/1 33/56/1 74/2/1
f 6/4/2 1/101/2 97/5/2
f 36/7/1 63/40/1 75/8/1
f 105/10/3 16/107/3 18/11/3
f 2/13/4 3/106/4 98/14/4
f 28/16/1 59/39/1 72/17/1
f 18/11/5 14/105/5 103/19/5
f 10/20/2 5/103/2 99/21/2
f 100/23/3 7/108/3 12/24/3
f 17/26/3 16/107/3 105/10/3
f 23/28/1 41/60/1 68/29/1
f 15/31/2 9/104/2 101/32/2
f 57/34/3 84/95/3 81/35/3
f 102/37/3 11/109/3 17/26/3
f 29/38/1 71/59/1 59/39/1
f 31/18/1 72/17/1 63/40/1
f 12/24/3 11/109/3 102/37/3
f 8/41/3 7/108/3 100/23/3
f 19/43/2 13/102/2 104/44/2
f 79/46/1 82/91/1 67/47/1
f 24/49/1 69/36/1 81/35/1
f 106/51/3 77/110/3 8/41/3
f 30/52/1 32/70/1 73/53/1
f 34/55/1 62/57/1 74/2/1
f 34/55/1 35/9/1 75/8/1
f 29/38/1 25/61/1 49/58/1
f 98/14/4 87/96/4 20/48/4
f 103/19/5 95/45/5 35/9/5
f 23/28/1 20/48/1 67/47/1
f 91/22/2 29/38/2 28/16/2
f 25/61/1 38/63/1 76/62/1
f 38/63/1 21/69/1 39/64/1
f 27/65/1 30/52/1 61/54/1
f 96/6/2 38/63/2 25/61/2
f 27/65/1 70/66/1 53/67/1
f 92/33/2 31/18/2 36/7/2
f 21/69/1 22/30/1 68/29/1
f 26/68/1 53/67/1 69/36/1
f 88/15/2 22/30/2 21/69/2
f 32/70/1 37/1/1 64/3/1
f 58/71/1 52/77/1 56/72/1
f 55/73/1 56/72/1 50/79/1
f 47/81/1 48/76/1 52/77/1
f 43/83/1 40/84/1 85/82/1
f 85/82/1 84/95/1 57/34/1
f 43/83/1 57/34/1 54/80/1
f 68/29/2 45/85/2 40/84/2
f 63/40/2 72/17/2 52/77/2
f 76/62/2 43/83/2 50/79/2
f 42/86/1 86/90/1 85/82/1
f 59/39/2 71/59/2 56/72/2
f 75/8/5 65/75/5 46/74/5
f 67/47/4 44/89/4 42/86/4
f 44/89/1 83/92/1 86/90/1
f 44/89/3 67/47/3 82/91/3
f 65/75/2 75/8/2 63/40/2
f 69/36/3 53/67/3 54/80/3
f 55/73/3 70/66/3 61/54/3
f 51/78/3 58/71/3 61/54/3
f 52/77/2 72/17/2 59/39/2
f 51/78/3 73/53/3 64/3/3
f 55/73/3 54/80/3 53/67/3
f 56/72/2 71/59/2 49/58/2
f 74/2/5 62/57/5 46/74/5
f 68/29/4 41/60/4 42/86/4
f 66/88/3 47/81/3 64/3/3
f 76/62/2 39/64/2 40/84/2
f 84/93/1 85/82/1 86/90/1
f 80/50/1 81/35/1 82/91/1
f 80/50/3 79/46/3 107/94/3
f 84/95/3 83/92/3 82/91/3
f 87/96/3 4/111/3 78/97/3
f 20/48/3 87/96/3 107/94/3
f 77/98/3 106/112/3 107/99/3
f 2/13/2 88/15/2 97/5/2
f 15/31/2 92/33/2 104/44/2
f 6/4/2 96/6/2 99/21/2
f 10/20/2 91/22/2 101/32/2
f 14/105/5 19/43/5 95/45/5
f 3/106/4 4/111/4 87/96/4
f 24/49/3 80/50/3 106/51/3
f 95/45/2 104/44/2 36/7/2
f 89/42/3 100/23/3 26/68/3
f 90/25/3 102/37/3 30/52/3
f 30/52/3 102/37/3 93/27/3
f 92/33/2 101/32/2 28/16/2
f 93/27/3 105/10/3 37/1/3
f 26/68/3 100/23/3 90/25/3
f 91/22/2 99/21/2 25/61/2
f 33/56/5 94/12/5 103/19/5
f 22/30/4 88/15/4 98/14/4
f 37/1/3 105/10/3 94/12/3
f 38/63/2 96/6/2 97/5/2
