# Blender v2.90.0 Alpha OBJ File: 'Props.blend'
# www.blender.org
o PileOfMaterials_Cone
v -0.000000 -1.000000 -7.165235
v 2.742017 -1.000000 -6.619814
v 5.066586 -1.000000 -5.066586
v 6.619813 -1.000000 -2.742016
v 7.165234 -1.000000 0.000000
v 6.619813 -1.000000 2.742017
v 5.066586 -1.000000 5.066586
v 2.742017 -1.000000 6.619814
v 0.000001 -1.000000 7.165235
v -2.742015 -1.000000 6.619815
v -5.066586 -1.000000 5.066588
v -0.000000 3.405781 0.000000
v -6.619815 -1.000000 2.742018
v -7.165235 -1.000000 -0.000000
v -6.619814 -1.000000 -2.742018
v -5.066586 -1.000000 -5.066588
v -2.742014 -1.000000 -6.619815
vt 0.519211 0.776092
vt 0.519211 0.776092
vt 0.519211 0.776092
vt 0.519211 0.776092
vt 0.519211 0.776092
vt 0.519211 0.776092
vt 0.519211 0.776092
vt 0.519211 0.776092
vt 0.519211 0.776092
vt 0.519211 0.776092
vt 0.519211 0.776092
vt 0.519211 0.776092
vt 0.519211 0.776092
vt 0.519211 0.776092
vt 0.519211 0.776092
vt 0.519211 0.776092
vt 0.519211 0.776092
vn 0.0000 0.8518 -0.5238
vn 0.0000 1.0000 0.0000
vn 0.2004 0.8518 -0.4839
vn 0.3704 0.8518 -0.3704
vn 0.4839 0.8518 -0.2004
vn 0.5238 0.8518 0.0000
vn 0.4839 0.8518 0.2004
vn 0.3704 0.8518 0.3704
vn 0.2004 0.8518 0.4839
vn 0.0000 0.8518 0.5238
vn -0.2004 0.8518 0.4839
vn -0.3704 0.8518 0.3704
vn -0.4839 0.8518 0.2004
vn -0.5238 0.8518 0.0000
vn -0.4839 0.8518 -0.2004
vn -0.3704 0.8518 -0.3704
vn -0.2004 0.8518 -0.4839
s 1
f 1/1/1 12/2/2 2/3/3
f 2/3/3 12/2/2 3/4/4
f 3/4/4 12/2/2 4/5/5
f 4/5/5 12/2/2 5/6/6
f 5/6/6 12/2/2 6/7/7
f 6/7/7 12/2/2 7/8/8
f 7/8/8 12/2/2 8/9/9
f 8/9/9 12/2/2 9/10/10
f 9/10/10 12/2/2 10/11/11
f 10/11/11 12/2/2 11/12/12
f 11/12/12 12/2/2 13/13/13
f 13/13/13 12/2/2 14/14/14
f 14/14/14 12/2/2 15/15/15
f 15/15/15 12/2/2 16/16/16
f 16/16/16 12/2/2 17/17/17
f 17/17/17 12/2/2 1/1/1
