# Blender v2.91.0 Beta OBJ File: 'deer.blend'
# www.blender.org
o Detail_Cube.004
v 3.247788 1.425912 -7.841020
v 6.001130 1.425910 -6.001297
v 6.579646 -1.570240 -6.579813
v 3.560878 -1.570235 -8.596887
v -7.840853 1.425897 3.247622
v -8.596721 -1.570261 3.560709
v -6.579646 -1.570265 6.579477
v -6.001130 1.425890 6.000963
v -3.560878 -1.570270 8.596553
v -3.247788 1.425888 7.840686
v 7.840853 1.425903 -3.247954
v 8.596721 -1.570244 -3.561047
v -6.001130 1.425911 -6.001297
v 0.000000 1.425913 -8.487046
v -3.247788 1.425913 -7.841020
v 6.579646 -1.570264 6.579477
v 6.001130 1.425889 6.000963
v 3.247788 1.425887 7.840686
v 3.560878 -1.570269 8.596553
v 0.000000 1.425886 8.486712
v 0.000000 -1.570271 9.304856
v -3.560878 -1.570235 -8.596887
v -6.579646 -1.570240 -6.579813
v 0.000000 -1.570233 -9.305190
v 8.486879 1.425899 -0.000166
v 0.000000 1.425912 -0.000165
v -8.486879 1.425901 -0.000166
v -7.840853 1.425905 -3.247954
v 8.596721 -1.570260 3.560709
v 7.840853 1.425894 3.247622
v 9.305024 -1.570252 -0.000167
v -8.596721 -1.570245 -3.561047
v -9.305024 -1.570253 -0.000167
vt 0.132812 0.820312
vt 0.132812 0.820312
vt 0.132812 0.820312
vt 0.132812 0.820312
vt 0.132812 0.820312
vt 0.132812 0.820312
vt 0.132812 0.820312
vt 0.132812 0.820312
vt 0.132812 0.820312
vt 0.132812 0.820312
vt 0.132812 0.820312
vt 0.132812 0.820312
vt 0.132812 0.820312
vt 0.132812 0.820312
vt 0.132812 0.820312
vt 0.132812 0.820312
vt 0.132812 0.820312
vt 0.132812 0.820312
vt 0.132812 0.820312
vt 0.132812 0.820312
vt 0.132812 0.820312
vt 0.132812 0.820312
vt 0.132812 0.820312
vt 0.132812 0.820312
vt 0.132812 0.820312
vt 0.132812 0.820312
vt 0.132812 0.820312
vt 0.132812 0.820312
vt 0.132812 0.820312
vt 0.132812 0.820312
vt 0.132812 0.820312
vt 0.132812 0.820312
vt 0.132812 0.820312
vn 0.6821 0.2634 -0.6821
vn 0.3692 0.2634 -0.8912
vn -0.8912 0.2634 0.3692
vn -0.6821 0.2634 0.6821
vn -0.3692 0.2634 0.8912
vn 0.8912 0.2634 -0.3692
vn -0.0000 1.0000 0.0000
vn 0.6821 0.2634 0.6821
vn 0.3692 0.2634 0.8912
vn -0.0000 0.2634 0.9647
vn -0.6821 0.2634 -0.6821
vn -0.3692 0.2634 -0.8912
vn 0.0000 0.2634 -0.9647
vn 0.8912 0.2634 0.3692
vn 0.9647 0.2634 0.0000
vn -0.8912 0.2634 -0.3692
vn -0.9647 0.2634 0.0000
s 1
f 2/1/1 4/2/2 1/3/2
f 6/4/3 8/5/4 5/6/3
f 10/7/5 7/8/4 9/9/5
f 11/10/6 3/11/1 2/1/1
f 13/12/7 14/13/7 15/14/7
f 14/13/7 2/1/7 1/3/7
f 16/15/8 18/16/9 19/17/9
f 19/17/9 20/18/10 21/19/10
f 20/18/10 9/9/5 21/19/10
f 13/12/11 22/20/12 23/21/11
f 14/13/13 22/20/12 15/14/12
f 1/3/2 24/22/13 14/13/13
f 20/18/7 18/16/7 17/23/7
f 17/23/7 25/24/7 26/25/7
f 26/25/7 25/24/7 2/1/7
f 10/7/7 20/18/7 8/5/7
f 8/5/7 20/18/7 26/25/7
f 26/25/7 14/13/7 13/12/7
f 5/6/7 8/5/7 27/26/7
f 27/26/7 13/12/7 28/27/7
f 17/23/8 29/28/14 30/29/14
f 30/29/14 31/30/15 25/24/15
f 25/24/15 12/31/6 11/10/6
f 17/23/7 30/29/7 25/24/7
f 25/24/7 11/10/7 2/1/7
f 23/21/11 28/27/16 13/12/11
f 32/32/16 27/26/17 28/27/16
f 33/33/17 5/6/3 27/26/17
f 20/18/7 17/23/7 26/25/7
f 14/13/7 26/25/7 2/1/7
f 27/26/7 26/25/7 13/12/7
f 27/26/7 8/5/7 26/25/7
f 2/1/1 3/11/1 4/2/2
f 6/4/3 7/8/4 8/5/4
f 10/7/5 8/5/4 7/8/4
f 11/10/6 12/31/6 3/11/1
f 16/15/8 17/23/8 18/16/9
f 19/17/9 18/16/9 20/18/10
f 20/18/10 10/7/5 9/9/5
f 13/12/11 15/14/12 22/20/12
f 14/13/13 24/22/13 22/20/12
f 1/3/2 4/2/2 24/22/13
f 17/23/8 16/15/8 29/28/14
f 30/29/14 29/28/14 31/30/15
f 25/24/15 31/30/15 12/31/6
f 23/21/11 32/32/16 28/27/16
f 32/32/16 33/33/17 27/26/17
f 33/33/17 6/4/3 5/6/3
