# Blender v2.91.0 Beta OBJ File: 'deer.blend'
# www.blender.org
o Detail_Cube.003
v -10.395370 -0.530790 -10.436459
v 10.395370 -0.530819 10.436125
v -10.395370 -0.530818 10.436125
v 10.395370 0.374150 -10.436459
v -10.395370 0.374152 -10.436459
v -10.395370 0.374123 10.436125
v 10.395370 0.374121 10.436125
v 10.395370 -0.530792 -10.436459
vt 0.132812 0.820312
vt 0.132812 0.820312
vt 0.132812 0.820312
vt 0.132812 0.820312
vt 0.132812 0.820312
vt 0.132812 0.820312
vt 0.132812 0.820312
vt 0.132812 0.820312
vn -0.0000 -1.0000 -0.0000
vn 0.0000 0.0000 -1.0000
vn -1.0000 0.0000 0.0000
vn -0.0000 0.0000 1.0000
vn 0.0000 1.0000 0.0000
vn 1.0000 0.0000 0.0000
s 1
f 1/1/1 2/2/1 3/3/1
f 4/4/2 1/1/2 5/5/2
f 1/1/3 6/6/3 5/5/3
f 7/7/4 3/3/4 2/2/4
f 7/7/5 5/5/5 6/6/5
f 2/2/6 4/4/6 7/7/6
f 1/1/1 8/8/1 2/2/1
f 4/4/2 8/8/2 1/1/2
f 1/1/3 3/3/3 6/6/3
f 7/7/4 6/6/4 3/3/4
f 7/7/5 4/4/5 5/5/5
f 2/2/6 8/8/6 4/4/6
