# Blender v2.91.0 Beta OBJ File: 'deer.blend'
# www.blender.org
o Detail_Cube.011
v 6.001130 1.425911 -6.001297
v 4.633971 -1.570232 -11.187562
v 3.247788 1.425913 -7.841020
v -11.187396 -1.570262 4.633801
v -6.001130 1.425889 6.000963
v -7.840853 1.425897 3.247622
v -3.247788 1.425887 7.840686
v -8.562463 -1.570266 8.562295
v -4.633971 -1.570273 11.187228
v 7.840853 1.425903 -3.247954
v 8.562463 -1.570239 -8.562629
v -6.001130 1.425912 -6.001297
v 0.000000 1.425914 -8.487046
v -3.247788 1.425914 -7.841020
v 8.562463 -1.570265 8.562295
v 3.247788 1.425886 7.840686
v 4.633971 -1.570272 11.187228
v 0.000000 1.425885 8.486712
v 0.000000 -1.570274 12.108983
v -4.633971 -1.570232 -11.187562
v -8.562463 -1.570239 -8.562629
v 0.000000 -1.570231 -12.109317
v 6.001130 1.425888 6.000963
v 8.486879 1.425899 -0.000166
v 0.000000 1.425912 -0.000165
v -8.486879 1.425901 -0.000166
v -7.840853 1.425905 -3.247954
v 11.187396 -1.570261 4.633801
v 7.840853 1.425894 3.247622
v 11.187396 -1.570243 -4.634140
v -11.187396 -1.570244 -4.634140
v -12.109151 -1.570253 -0.000167
v 12.109151 -1.570252 -0.000167
vt 0.132812 0.820312
vt 0.132812 0.820312
vt 0.132812 0.820312
vt 0.132812 0.820312
vt 0.132812 0.820312
vt 0.132812 0.820312
vt 0.132812 0.820312
vt 0.132812 0.820312
vt 0.132812 0.820312
vt 0.132812 0.820312
vt 0.132812 0.820312
vt 0.132812 0.820312
vt 0.132812 0.820312
vt 0.132812 0.820312
vt 0.132812 0.820312
vt 0.132812 0.820312
vt 0.132812 0.820312
vt 0.132812 0.820312
vt 0.132812 0.820312
vt 0.132812 0.820312
vt 0.132812 0.820312
vt 0.132812 0.820312
vt 0.132812 0.820312
vt 0.132812 0.820312
vt 0.132812 0.820312
vt 0.132812 0.820312
vt 0.132812 0.820312
vt 0.132812 0.820312
vt 0.132812 0.820312
vt 0.132812 0.820312
vt 0.132812 0.820312
vt 0.132812 0.820312
vt 0.132812 0.820312
vn 0.4507 0.7706 -0.4507
vn 0.2439 0.7706 -0.5888
vn -0.5889 0.7706 0.2439
vn -0.4507 0.7706 0.4507
vn -0.2439 0.7706 0.5889
vn 0.5889 0.7706 -0.2439
vn -0.0000 1.0000 0.0000
vn 0.4507 0.7706 0.4507
vn 0.2439 0.7706 0.5889
vn 0.0000 0.7706 0.6374
vn -0.4507 0.7706 -0.4507
vn -0.2439 0.7706 -0.5888
vn 0.0000 0.7706 -0.6374
vn 0.5889 0.7706 0.2439
vn 0.6374 0.7706 0.0000
vn 0.5888 0.7706 -0.2439
vn -0.5889 0.7706 -0.2439
vn -0.6374 0.7706 0.0000
s 1
f 1/1/1 2/2/2 3/3/2
f 4/4/3 5/5/4 6/6/3
f 7/7/5 8/8/4 9/9/5
f 10/10/6 11/11/1 1/1/1
f 12/12/7 13/13/7 14/14/7
f 13/13/7 1/1/7 3/3/7
f 15/15/8 16/16/9 17/17/9
f 17/17/9 18/18/10 19/19/10
f 18/18/10 9/9/5 19/19/10
f 12/12/11 20/20/12 21/21/11
f 13/13/13 20/20/12 14/14/12
f 3/3/2 22/22/13 13/13/13
f 18/18/7 16/16/7 23/23/7
f 23/23/7 24/24/7 25/25/7
f 25/25/7 24/24/7 1/1/7
f 7/7/7 18/18/7 5/5/7
f 5/5/7 18/18/7 25/25/7
f 25/25/7 13/13/7 12/12/7
f 6/6/7 5/5/7 26/26/7
f 26/26/7 12/12/7 27/27/7
f 23/23/8 28/28/14 29/29/14
f 28/28/14 24/24/15 29/29/14
f 24/24/15 30/30/16 10/10/6
f 23/23/7 29/29/7 24/24/7
f 24/24/7 10/10/7 1/1/7
f 21/21/11 27/27/17 12/12/11
f 31/31/17 26/26/18 27/27/17
f 32/32/18 6/6/3 26/26/18
f 18/18/7 23/23/7 25/25/7
f 13/13/7 25/25/7 1/1/7
f 26/26/7 25/25/7 12/12/7
f 26/26/7 5/5/7 25/25/7
f 1/1/1 11/11/1 2/2/2
f 4/4/3 8/8/4 5/5/4
f 7/7/5 5/5/4 8/8/4
f 10/10/6 30/30/16 11/11/1
f 15/15/8 23/23/8 16/16/9
f 17/17/9 16/16/9 18/18/10
f 18/18/10 7/7/5 9/9/5
f 12/12/11 14/14/12 20/20/12
f 13/13/13 22/22/13 20/20/12
f 3/3/2 2/2/2 22/22/13
f 23/23/8 15/15/8 28/28/14
f 28/28/14 33/33/15 24/24/15
f 24/24/15 33/33/15 30/30/16
f 21/21/11 31/31/17 27/27/17
f 31/31/17 32/32/18 26/26/18
f 32/32/18 4/4/3 6/6/3
