# Blender v2.91.0 Beta OBJ File: 'stadium.blend'
# www.blender.org
o Sphere_Sphere.002
v -0.000005 25.357388 10.500645
v 10.503361 -0.000002 25.354664
v -7.427006 25.357388 7.424278
v -13.723320 19.407705 13.720585
v -17.930382 10.503374 17.927647
v -19.407707 -0.000001 19.404964
v -9.703849 25.357388 4.016739
v -23.427168 10.503374 9.701115
v 17.930367 19.407705 7.424290
v 25.357376 -0.000002 10.500660
v 7.426996 25.357388 7.424282
v 9.703833 10.503374 23.424450
v 7.426989 19.407705 17.927658
v 4.019457 25.357388 9.701130
v 19.407682 -0.000002 19.404987
v 17.930365 10.503374 17.927662
v 13.723303 19.407705 13.720600
v 9.703842 25.357388 4.016750
v -0.000011 19.407705 19.404972
v -0.000011 10.503374 25.354656
v -0.000017 -0.000002 27.443905
v -4.019471 25.357388 9.701122
v -7.427017 19.407705 17.927647
v -9.703863 10.503374 23.424435
v -10.503386 -0.000002 25.354656
v 10.503363 25.357388 -0.002716
v 23.427155 10.503374 9.701145
v 27.446625 -0.000002 -0.002705
v 25.357376 10.503374 -0.002708
v 19.407692 19.407705 -0.002708
v 9.703847 25.357388 -4.022179
v 7.427010 19.407705 -17.933086
v 7.427001 25.357388 -7.429714
v 25.357384 -0.000002 -10.506077
v 23.427170 10.503374 -9.706551
v 17.930378 19.407705 -7.429710
v 19.407705 -0.000002 -19.410402
v 17.930380 10.503374 -17.933084
v 13.723318 19.407705 -13.726023
v -7.426994 19.407705 -17.933092
v -9.703840 10.503374 -23.429890
v -10.503361 -0.000002 -25.360104
v 0.000005 25.357388 -10.506081
v 10.503384 -0.000002 -25.360092
v 9.703865 10.503374 -23.429874
v 4.019475 25.357388 -9.706562
v 0.000015 -0.000002 -27.449345
v 0.000010 10.503374 -25.360096
v 0.000010 19.407705 -19.410412
v -4.019459 25.357388 -9.706566
v -23.427160 10.503374 -9.706579
v -25.357376 -0.000002 -10.506100
v -7.426994 25.357388 -7.429722
v -19.407682 -0.000002 -19.410425
v -17.930365 10.503374 -17.933100
v -13.723303 19.407705 -13.726038
v -9.703842 25.357388 -4.022190
v -17.930372 19.407705 7.424274
v -25.357384 -0.000002 10.500641
v -10.503361 25.357388 -0.002728
v -17.930367 19.407705 -7.429737
v -27.446625 -0.000002 -0.002735
v -25.357376 10.503374 -0.002731
v -19.407692 19.407705 -0.002731
v -6.730140 25.008106 6.727413
v -8.793350 25.008106 3.639599
v 6.730131 25.008106 6.727413
v 8.793343 25.008106 3.639614
v 3.642317 25.008106 8.790630
v 0.000000 26.901327 -0.002720
v -0.000005 25.008106 9.515133
v -3.642329 25.008106 8.790623
v 9.517845 25.008106 -0.002716
v 8.793348 25.008106 -3.645039
v 0.000005 25.008106 -9.520565
v -3.642318 25.008106 -8.796062
v 3.642333 25.008106 -8.796062
v -6.730129 25.008106 -6.732853
v -8.793343 25.008106 -3.645050
v 6.730136 25.008106 -6.732845
v -9.517844 25.008106 -0.002728
v -10.452202 0.672407 25.231083
v -19.313131 0.672407 19.310390
v -0.000017 0.672407 27.310154
v 19.313107 0.672407 19.310413
v 27.312874 0.672407 -0.002705
v 25.233814 0.672406 -10.454893
v 19.313129 0.672407 -19.315826
v 10.452200 0.672406 -25.236523
v -10.452177 0.672407 -25.236534
v 0.000015 0.672407 -27.315594
v -25.233807 0.672407 -10.454916
v -19.313107 0.672407 -19.315849
v -27.312874 0.672407 -0.002735
v -25.233814 0.672407 10.449455
v 10.452176 0.672407 25.231098
v 25.233807 0.672407 10.449478
v -0.000018 0.197284 28.435726
v -10.882939 0.197286 26.270977
v -10.831757 0.869695 26.147404
v 10.882915 0.197281 26.270985
v -20.014456 0.869693 20.011715
v -20.109032 0.197285 20.106289
v 26.273701 0.197283 10.880215
v 20.109007 0.197281 20.106312
v -0.000017 0.869693 28.301975
v 20.014431 0.869690 20.011738
v 28.304695 0.869693 -0.002705
v 28.438446 0.197284 -0.002705
v 20.109030 0.197284 -20.111725
v 26.273708 0.197284 -10.885630
v 20.014454 0.869692 -20.017149
v -10.882914 0.197283 -26.276428
v 0.000016 0.197283 -28.441166
v 10.882937 0.197284 -26.276417
v -10.831731 0.869692 -26.152859
v 0.000015 0.869692 -28.307415
v -26.273699 0.197284 -10.885654
v -20.109005 0.197284 -20.111750
v -26.150129 0.869693 -10.834471
v -20.014429 0.869692 -20.017174
v -26.273708 0.197284 10.880196
v -28.438446 0.197284 -0.002735
v -28.304695 0.869693 -0.002735
v -26.150139 0.869693 10.829010
v 26.150129 0.869692 10.829033
v 26.150139 0.869692 -10.834446
v 10.831755 0.869692 -26.152847
v 10.831729 0.869690 26.147419
v -6.007839 22.382545 14.501457
v -11.101026 22.382545 11.098293
v 6.007817 22.382545 14.501469
v -0.000009 22.382545 15.696491
v 14.504177 22.382545 6.005116
v 11.101012 22.382545 11.098305
v 15.699209 22.382545 -0.002712
v 11.101023 22.382545 -11.103733
v -6.007821 22.382545 -14.506901
v 0.000008 22.382545 -15.701927
v -11.101011 22.382545 -11.103745
v -15.699208 22.382545 -0.002728
v -14.504183 22.382545 6.005104
v 14.504185 22.382545 -6.010540
v 6.007838 22.382545 -14.506897
v -14.504177 22.382545 -6.010559
v -8.777345 14.955540 21.187622
v -16.218399 14.955540 16.215664
v 8.777314 14.955540 21.187634
v -0.000012 14.955540 22.933544
v 16.218382 14.955540 16.215679
v 22.936266 14.955540 -0.002708
v 21.190357 14.955540 -8.780033
v 16.218399 14.955540 -16.221102
v -8.777322 14.955540 -21.193075
v 0.000010 14.955540 -22.938988
v -16.218380 14.955540 -16.221117
v -22.936266 14.955540 -0.002731
v -21.190353 14.955540 8.774597
v 21.190342 14.955540 8.774624
v 8.777342 14.955540 -21.193062
v -21.190346 14.955540 -8.780064
vt 0.377441 0.683105
vt 0.377441 0.683105
vt 0.377441 0.683105
vt 0.445801 0.629395
vt 0.375488 0.587891
vt 0.455566 0.594238
vt 0.377441 0.683105
vt 0.377441 0.683105
vt 0.377441 0.683105
vt 0.465332 0.559082
vt 0.375488 0.491982
vt 0.475387 0.498755
vt 0.375488 0.553223
vt 0.275590 0.498755
vt 0.414551 0.687988
vt 0.375488 0.653809
vt 0.430176 0.658691
vt 0.303223 0.627441
vt 0.294434 0.593262
vt 0.377441 0.683105
vt 0.377441 0.683105
vt 0.377441 0.683105
vt 0.375488 0.553223
vt 0.275590 0.498755
vt 0.375488 0.491982
vt 0.375488 0.685059
vt 0.319336 0.657715
vt 0.375488 0.622559
vt 0.294434 0.593262
vt 0.375488 0.587891
vt 0.377441 0.683105
vt 0.377441 0.683105
vt 0.375488 0.622559
vt 0.294434 0.593262
vt 0.375488 0.587891
vt 0.375488 0.653809
vt 0.335449 0.687988
vt 0.319336 0.657715
vt 0.375488 0.491982
vt 0.285645 0.559082
vt 0.275590 0.498755
vt 0.375488 0.653809
vt 0.335449 0.687988
vt 0.319336 0.657715
vt 0.465332 0.559082
vt 0.475387 0.498755
vt 0.377441 0.683105
vt 0.377441 0.683105
vt 0.377441 0.683105
vt 0.445801 0.629395
vt 0.455566 0.594238
vt 0.455566 0.594238
vt 0.377441 0.683105
vt 0.377441 0.683105
vt 0.465332 0.559082
vt 0.475387 0.498755
vt 0.414551 0.687988
vt 0.430176 0.658691
vt 0.375488 0.491982
vt 0.285645 0.559082
vt 0.275590 0.498755
vt 0.414551 0.687988
vt 0.430176 0.658691
vt 0.375488 0.587891
vt 0.303223 0.627441
vt 0.294434 0.593262
vt 0.377441 0.683105
vt 0.377441 0.683105
vt 0.445801 0.629395
vt 0.455566 0.594238
vt 0.377441 0.683105
vt 0.377441 0.683105
vt 0.465332 0.559082
vt 0.475387 0.498755
vt 0.375488 0.653809
vt 0.335449 0.687988
vt 0.319336 0.657715
vt 0.375488 0.553223
vt 0.275590 0.498755
vt 0.375488 0.491982
vt 0.414551 0.687988
vt 0.430176 0.658691
vt 0.375488 0.587891
vt 0.303223 0.627441
vt 0.294434 0.593262
vt 0.377441 0.683105
vt 0.455566 0.594238
vt 0.375488 0.622559
vt 0.377441 0.683105
vt 0.377441 0.683105
vt 0.475387 0.498755
vt 0.375488 0.653809
vt 0.335449 0.687988
vt 0.319336 0.657715
vt 0.375488 0.553223
vt 0.275590 0.498755
vt 0.375488 0.491982
vt 0.414551 0.687988
vt 0.430176 0.658691
vt 0.375488 0.587891
vt 0.303223 0.627441
vt 0.294434 0.593262
vt 0.377441 0.683105
vt 0.377441 0.683105
vt 0.455566 0.594238
vt 0.375488 0.622559
vt 0.377441 0.683105
vt 0.377441 0.683105
vt 0.465332 0.559082
vt 0.475387 0.498755
vt 0.375488 0.653809
vt 0.335449 0.687988
vt 0.319336 0.657715
vt 0.375488 0.491982
vt 0.285645 0.559082
vt 0.275590 0.498755
vt 0.414551 0.687988
vt 0.430176 0.658691
vt 0.375488 0.587891
vt 0.303223 0.627441
vt 0.294434 0.593262
vt 0.377441 0.683105
vt 0.445801 0.629395
vt 0.455566 0.594238
vt 0.377441 0.683105
vt 0.377441 0.683105
vt 0.465332 0.559082
vt 0.475387 0.498755
vt 0.375488 0.653809
vt 0.335449 0.687988
vt 0.319336 0.657715
vt 0.375488 0.491982
vt 0.285645 0.559082
vt 0.275590 0.498755
vt 0.414551 0.687988
vt 0.430176 0.658691
vt 0.375488 0.622559
vt 0.294434 0.593262
vt 0.375488 0.587891
vt 0.377441 0.683105
vt 0.445801 0.629395
vt 0.455566 0.594238
vt 0.377441 0.683105
vt 0.465332 0.559082
vt 0.475387 0.498755
vt 0.375488 0.653809
vt 0.335449 0.687988
vt 0.319336 0.657715
vt 0.377441 0.690918
vt 0.377441 0.690918
vt 0.377441 0.690918
vt 0.377441 0.690918
vt 0.377441 0.690918
vt 0.377441 0.690918
vt 0.377441 0.690918
vt 0.377441 0.690918
vt 0.377441 0.690918
vt 0.377441 0.690918
vt 0.377441 0.690918
vt 0.377441 0.690918
vt 0.377441 0.690918
vt 0.377441 0.690918
vt 0.377441 0.690918
vt 0.377441 0.690918
vt 0.377441 0.690918
vt 0.414551 0.687988
vt 0.430176 0.658691
vt 0.376465 0.521973
vt 0.376465 0.521973
vt 0.376465 0.521973
vt 0.376465 0.521973
vt 0.376465 0.521973
vt 0.376465 0.521973
vt 0.376465 0.521973
vt 0.376465 0.521973
vt 0.000000 0.000000
vt 0.000000 0.000000
vt 0.000000 0.000000
vt 0.000000 0.000000
vt 0.000000 0.000000
vt 0.000000 0.000000
vt 0.376465 0.521973
vt 0.000000 0.000000
vt 0.000000 0.000000
vt 0.000000 0.000000
vt 0.376465 0.521973
vt 0.376465 0.521973
vt 0.376465 0.521973
vt 0.000000 0.000000
vt 0.000000 0.000000
vt 0.000000 0.000000
vt 0.376465 0.521973
vt 0.376465 0.521973
vt 0.000000 0.000000
vt 0.000000 0.000000
vt 0.000000 0.000000
vt 0.000000 0.000000
vt 0.000000 0.000000
vt 0.000000 0.000000
vt 0.000000 0.000000
vt 0.376465 0.521973
vt 0.000000 0.000000
vt 0.000000 0.000000
vt 0.376465 0.521973
vt 0.376465 0.521973
vt 0.376465 0.521973
vt 0.376465 0.521973
vt 0.376465 0.521973
vt 0.376465 0.521973
vt 0.376465 0.521973
vt 0.376465 0.521973
vt 0.376465 0.521973
vt 0.376465 0.521973
vt 0.376465 0.521973
vt 0.376465 0.521973
vt 0.376465 0.521973
vt 0.376465 0.521973
vt 0.376465 0.521973
vt 0.376465 0.521973
vt 0.376465 0.521973
vt 0.376465 0.521973
vt 0.376465 0.521973
vt 0.376465 0.521973
vt 0.376465 0.521973
vt 0.376465 0.521973
vt 0.376465 0.521973
vt 0.376465 0.521973
vt 0.376465 0.521973
vt 0.376465 0.521973
vt 0.000000 0.000000
vt 0.000000 0.000000
vt 0.000000 0.000000
vt 0.000000 0.000000
vt 0.000000 0.000000
vt 0.376465 0.521973
vt 0.000000 0.000000
vt 0.376465 0.521973
vt 0.376465 0.521973
vt 0.376465 0.521973
vt 0.376465 0.521973
vt 0.000000 0.000000
vt 0.376465 0.521973
vt 0.000000 0.000000
vt 0.376465 0.521973
vt 0.000000 0.000000
vt 0.000000 0.000000
vt 0.000000 0.000000
vt 0.303223 0.627441
vt 0.375488 0.622559
vt 0.445801 0.629395
vt 0.445801 0.629395
vt 0.375488 0.622559
vt 0.445801 0.629395
vt 0.303223 0.627441
vt 0.303223 0.627441
vt 0.375488 0.622559
vt 0.375488 0.553223
vt 0.375488 0.553223
vt 0.285645 0.559082
vt 0.465332 0.559082
vt 0.285645 0.559082
vt 0.375488 0.553223
vt 0.375488 0.553223
vt 0.285645 0.559082
vt 0.285645 0.559082
vt 0.335449 0.687988
vt 0.375488 0.685059
vt 0.375488 0.685059
vt 0.375488 0.685059
vt 0.375488 0.685059
vt 0.375488 0.685059
vt 0.375488 0.685059
vt 0.375488 0.685059
vn -0.0000 0.9426 0.3341
vn -0.1278 0.9426 0.3086
vn -0.2740 0.6981 0.6615
vn -0.5921 0.5466 0.5921
vn -0.3205 0.5466 0.7736
vn -0.2362 0.9426 -0.2362
vn -0.3086 0.9426 -0.1278
vn -0.3606 0.3344 0.8707
vn -0.6935 0.1951 0.6935
vn -0.3753 0.1951 0.9061
vn -0.6664 0.3344 0.6664
vn -0.9061 0.1951 0.3753
vn -0.1901 0.8678 0.4590
vn -0.4028 0.8219 0.4028
vn -0.2180 0.8219 0.5262
vn -0.6615 0.6981 0.2740
vn -0.7736 0.5466 0.3205
vn 0.2362 0.9426 -0.2362
vn 0.3086 0.9426 -0.1278
vn 0.6664 0.3344 0.6664
vn 0.3753 0.1951 0.9061
vn 0.6935 0.1951 0.6935
vn -0.3513 0.8678 0.3513
vn -0.5262 0.8219 0.2180
vn 0.5063 0.6981 0.5063
vn 0.3205 0.5466 0.7736
vn 0.5921 0.5466 0.5921
vn 0.3341 0.9426 0.0000
vn -0.0000 0.6981 0.7160
vn -0.0000 0.5466 0.8374
vn 0.4028 0.8219 0.4028
vn 0.1901 0.8678 0.4590
vn 0.2180 0.8219 0.5262
vn -0.0000 0.1951 0.9808
vn -0.0000 0.8219 0.5696
vn 0.3606 0.3344 0.8707
vn -0.2362 0.9426 0.2362
vn -0.3086 0.9426 0.1278
vn 0.2740 0.6981 0.6615
vn 0.7736 0.5466 0.3205
vn -0.1278 0.9426 -0.3086
vn 0.8707 0.3344 0.3606
vn 0.9061 0.1951 0.3753
vn 0.9808 0.1951 0.0000
vn 0.4590 0.8678 0.1901
vn 0.5262 0.8219 0.2180
vn 0.8374 0.5466 0.0000
vn 0.6615 0.6981 0.2740
vn -0.3341 0.9426 -0.0000
vn 0.6615 0.6981 -0.2740
vn 0.7736 0.5466 -0.3205
vn 0.0000 0.9426 -0.3341
vn 0.8707 0.3344 -0.3606
vn 0.9061 0.1951 -0.3753
vn 0.5696 0.8219 0.0000
vn 0.6664 0.3344 -0.6664
vn 0.6935 0.1951 -0.6935
vn 0.4590 0.8678 -0.1901
vn 0.5262 0.8219 -0.2180
vn 0.5921 0.5466 -0.5921
vn 0.3205 0.5466 -0.7736
vn 0.5063 0.6981 -0.5063
vn 0.1278 0.9426 0.3086
vn 0.3753 0.1951 -0.9061
vn 0.4028 0.8219 -0.4028
vn 0.0000 0.3344 -0.9424
vn 0.0000 0.1951 -0.9808
vn 0.1901 0.8678 -0.4590
vn 0.2180 0.8219 -0.5262
vn 0.0000 0.5466 -0.8374
vn 0.2740 0.6981 -0.6615
vn 0.1278 0.9426 -0.3086
vn -0.3205 0.5466 -0.7736
vn 0.0000 0.6981 -0.7160
vn 0.3086 0.9426 0.1278
vn -0.3606 0.3344 -0.8707
vn -0.3753 0.1951 -0.9061
vn 0.0000 0.8219 -0.5696
vn -0.6935 0.1951 -0.6935
vn -0.1901 0.8678 -0.4590
vn -0.2180 0.8219 -0.5262
vn -0.5921 0.5466 -0.5921
vn -0.2740 0.6981 -0.6615
vn -0.6615 0.6981 -0.2740
vn -0.7736 0.5466 -0.3205
vn 0.2362 0.9426 0.2362
vn -0.8707 0.3344 -0.3606
vn -0.9061 0.1951 -0.3753
vn -0.4028 0.8219 -0.4028
vn -0.9808 0.1951 -0.0000
vn -0.4590 0.8678 -0.1901
vn -0.5262 0.8219 -0.2180
vn -0.7160 0.6981 -0.0000
vn -0.8374 0.5466 -0.0000
vn -0.8707 0.3344 0.3606
vn -0.5696 0.8219 -0.0000
vn -0.0000 0.9808 0.1951
vn 0.0000 1.0000 -0.0000
vn -0.0747 0.9808 0.1802
vn -0.1379 0.9808 0.1379
vn -0.1802 0.9808 0.0747
vn 0.1379 0.9808 0.1379
vn 0.0747 0.9808 0.1802
vn 0.1802 0.9808 0.0747
vn 0.1951 0.9808 -0.0000
vn 0.1802 0.9808 -0.0747
vn 0.1380 0.9808 -0.1379
vn 0.0747 0.9808 -0.1802
vn -0.0000 0.9808 -0.1951
vn -0.0747 0.9808 -0.1802
vn -0.1379 0.9808 -0.1380
vn -0.1802 0.9808 -0.0747
vn -0.1951 0.9808 -0.0000
vn -0.4590 0.8678 0.1901
vn 0.1379 0.9808 -0.1379
vn -0.0747 -0.9808 0.1802
vn -0.0000 -0.9808 0.1951
vn 0.1379 -0.9808 0.1379
vn 0.0747 -0.9808 0.1802
vn -0.1802 -0.9808 0.0747
vn -0.1951 -0.9808 -0.0000
vn -0.1379 0.9808 -0.1379
vn 0.1951 -0.9808 -0.0000
vn 0.1802 -0.9808 0.0747
vn -0.1802 -0.9808 -0.0747
vn 0.0000 -0.9808 -0.1951
vn 0.0747 -0.9808 -0.1802
vn 0.1802 -0.9808 -0.0747
vn -0.1379 -0.9808 0.1379
vn -0.0747 -0.9808 -0.1802
vn -0.1379 -0.9808 -0.1379
vn 0.1379 -0.9808 -0.1379
vn -0.1380 0.9808 0.1379
vn -0.5063 0.6981 -0.5063
vn 0.7160 0.6981 0.0000
vn -0.5063 0.6981 0.5063
vn -0.9424 0.3344 -0.0000
vn -0.6664 0.3344 -0.6664
vn 0.3606 0.3344 -0.8707
vn 0.9424 0.3344 0.0000
vn -0.0000 0.3344 0.9424
vn 0.3513 0.8678 0.3513
vn -0.0000 0.8678 0.4969
vn 0.4969 0.8678 0.0000
vn 0.3513 0.8678 -0.3513
vn 0.0000 0.8678 -0.4969
vn -0.3513 0.8678 -0.3513
vn -0.4969 0.8678 -0.0000
s 1
f 43/1/1 77/2/2 46/3/2
f 23/4/3 147/5/4 146/6/5
f 11/7/6 68/8/7 67/9/6
f 24/10/8 83/11/9 82/12/10
f 5/13/11 95/14/12 83/11/9
f 22/15/13 131/16/14 130/17/15
f 147/5/4 58/18/16 158/19/17
f 3/20/18 66/21/19 7/22/19
f 16/23/20 96/24/21 85/25/22
f 3/26/23 142/27/24 131/16/14
f 17/28/25 148/29/26 150/30/27
f 60/31/28 66/21/19 81/32/28
f 19/33/29 146/34/5 149/35/30
f 135/36/31 14/37/32 132/38/33
f 84/39/34 24/40/8 82/41/10
f 133/42/35 22/43/13 130/44/15
f 12/45/36 84/39/34 96/46/21
f 33/47/37 74/48/38 31/49/38
f 13/50/39 149/35/30 148/51/26
f 159/52/40 17/28/25 150/30/27
f 11/7/6 69/53/41 14/54/41
f 27/55/42 85/25/22 97/56/43
f 14/57/32 133/42/35 132/58/33
f 86/59/44 27/60/42 97/61/43
f 18/62/45 135/36/31 134/63/46
f 151/64/47 9/65/48 159/66/40
f 18/67/7 73/68/49 68/8/7
f 36/69/50 151/64/47 152/70/51
f 14/54/41 71/71/52 1/72/52
f 35/73/53 86/59/44 87/74/54
f 136/75/55 18/76/45 134/77/46
f 38/78/56 87/79/54 88/80/57
f 31/81/58 136/75/55 143/82/59
f 153/83/60 36/84/50 152/85/51
f 26/86/49 74/48/38 73/68/49
f 160/87/61 39/88/62 153/83/60
f 50/89/63 75/90/1 43/1/1
f 89/91/64 38/78/56 88/80/57
f 137/92/65 31/93/58 143/94/59
f 48/95/66 89/96/64 91/97/67
f 46/98/68 137/92/65 144/99/69
f 155/100/70 32/101/71 160/102/61
f 22/103/72 71/71/52 72/104/72
f 154/105/73 49/106/74 155/100/70
f 60/31/28 79/107/75 57/108/75
f 41/109/76 91/97/67 90/110/77
f 139/111/78 46/112/68 144/113/69
f 93/114/79 41/115/76 90/116/77
f 50/117/80 139/111/78 138/118/81
f 156/119/82 40/120/83 154/121/73
f 22/103/72 65/122/18 3/20/18
f 61/123/84 156/119/82 161/124/85
f 53/125/86 79/107/75 78/126/86
f 51/127/87 93/114/79 92/128/88
f 140/129/89 50/130/80 138/131/81
f 94/132/90 51/133/87 92/134/88
f 57/135/91 140/129/89 145/136/92
f 64/137/93 161/138/85 157/139/94
f 53/125/86 76/140/63 50/89/63
f 58/141/16 157/139/94 158/142/17
f 33/47/37 77/2/2 80/143/37
f 8/144/95 94/132/90 95/145/12
f 141/146/96 57/147/91 145/148/92
f 71/149/97 70/150/98 72/151/99
f 72/151/99 70/150/98 65/152/100
f 65/152/100 70/150/98 66/153/101
f 67/154/102 70/150/98 69/155/103
f 69/155/103 70/150/98 71/149/97
f 68/156/104 70/150/98 67/154/102
f 73/157/105 70/150/98 68/156/104
f 74/158/106 70/150/98 73/157/105
f 80/159/107 70/150/98 74/158/106
f 77/160/108 70/150/98 80/159/107
f 75/161/109 70/150/98 77/160/108
f 76/162/110 70/150/98 75/161/109
f 78/163/111 70/150/98 76/162/110
f 79/164/112 70/150/98 78/163/111
f 81/165/113 70/150/98 79/164/112
f 66/153/101 70/150/98 81/165/113
f 7/166/114 141/146/96 142/167/24
f 83/168/115 100/169/108 82/170/108
f 92/171/104 124/172/105 94/173/105
f 95/174/106 102/175/115 83/168/115
f 25/176/116 98/177/117 99/178/116
f 15/179/118 101/180/119 2/181/119
f 95/174/106 124/172/105 125/182/106
f 59/183/120 123/184/121 62/185/121
f 96/186/110 107/187/122 85/188/122
f 28/189/123 104/190/124 10/191/124
f 82/170/108 106/192/109 84/193/109
f 52/194/125 123/184/121 118/195/125
f 47/196/126 115/197/127 44/198/127
f 34/199/128 109/200/123 28/189/123
f 96/186/110 106/192/109 129/201/110
f 6/202/129 122/203/120 59/183/120
f 85/188/122 126/204/112 97/205/112
f 125/182/12 123/206/90 122/207/12
f 124/172/90 118/208/88 123/206/90
f 120/209/88 119/210/79 118/208/88
f 121/211/79 113/212/77 119/210/79
f 113/212/77 117/213/67 114/214/67
f 117/213/67 115/215/64 114/214/67
f 128/216/64 110/217/57 115/215/64
f 112/218/57 111/219/54 110/217/57
f 127/220/54 109/221/44 111/219/54
f 108/222/44 104/223/43 109/221/44
f 126/204/43 105/224/22 104/223/43
f 129/201/21 98/225/34 101/226/21
f 106/192/34 99/227/10 98/225/34
f 107/187/22 101/226/21 105/224/22
f 102/175/9 122/207/12 103/228/9
f 100/169/10 103/228/9 99/227/10
f 93/229/102 120/209/104 92/171/104
f 42/230/130 119/231/131 113/232/130
f 34/199/128 110/233/132 111/234/128
f 90/235/103 121/211/102 93/229/102
f 2/181/119 98/177/117 21/236/117
f 90/235/103 117/213/97 116/237/103
f 89/238/99 117/213/97 91/239/97
f 88/240/133 128/216/99 89/238/99
f 44/198/127 110/233/132 37/241/132
f 87/242/101 112/218/133 88/240/133
f 25/176/116 103/243/129 6/202/129
f 86/244/113 127/220/101 87/242/101
f 52/194/125 119/231/131 54/245/131
f 97/205/112 108/222/113 86/244/113
f 10/191/124 105/246/118 15/179/118
f 47/196/126 113/232/130 114/247/126
f 58/141/16 141/146/96 64/137/93
f 64/137/93 145/148/92 61/248/84
f 145/136/92 56/249/134 61/123/84
f 140/129/89 40/120/83 56/249/134
f 138/118/81 49/106/74 40/250/83
f 139/111/78 32/101/71 49/106/74
f 144/99/69 39/88/62 32/251/71
f 39/88/62 143/94/59 36/84/50
f 143/82/59 30/252/135 36/69/50
f 136/75/55 9/65/48 30/252/135
f 9/253/48 135/36/31 17/28/25
f 132/58/33 19/33/29 13/50/39
f 19/33/29 130/44/15 23/254/3
f 17/28/25 132/38/33 13/255/39
f 131/16/14 58/18/16 4/256/136
f 130/17/15 4/256/136 23/4/3
f 158/142/17 63/257/137 8/144/95
f 157/139/94 51/133/87 63/257/137
f 161/124/85 55/258/138 51/127/87
f 55/258/138 154/121/73 41/115/76
f 154/105/73 48/95/66 41/109/76
f 155/100/70 45/259/139 48/95/66
f 160/87/61 38/78/56 45/260/139
f 153/83/60 35/261/53 38/78/56
f 152/70/51 29/262/140 35/73/53
f 151/64/47 27/60/42 29/262/140
f 159/52/40 16/23/20 27/55/42
f 148/51/26 20/263/141 12/45/36
f 149/35/30 24/40/8 20/263/141
f 150/30/27 12/264/36 16/23/20
f 5/13/11 158/19/17 8/265/95
f 146/6/5 5/13/11 24/10/8
f 43/1/1 75/90/1 77/2/2
f 23/4/3 4/256/136 147/5/4
f 11/7/6 18/67/7 68/8/7
f 24/10/8 5/13/11 83/11/9
f 5/13/11 8/265/95 95/14/12
f 22/15/13 3/26/23 131/16/14
f 147/5/4 4/256/136 58/18/16
f 3/20/18 65/122/18 66/21/19
f 16/23/20 12/264/36 96/24/21
f 3/26/23 7/266/114 142/27/24
f 17/28/25 13/255/39 148/29/26
f 60/31/28 7/22/19 66/21/19
f 19/33/29 23/254/3 146/34/5
f 135/36/31 11/267/142 14/37/32
f 84/39/34 20/263/141 24/40/8
f 133/42/35 1/268/143 22/43/13
f 12/45/36 20/263/141 84/39/34
f 33/47/37 80/143/37 74/48/38
f 13/50/39 19/33/29 149/35/30
f 159/52/40 9/253/48 17/28/25
f 11/7/6 67/9/6 69/53/41
f 27/55/42 16/23/20 85/25/22
f 14/57/32 1/268/143 133/42/35
f 86/59/44 29/262/140 27/60/42
f 18/62/45 11/267/142 135/36/31
f 151/64/47 30/252/135 9/65/48
f 18/67/7 26/86/49 73/68/49
f 36/69/50 30/252/135 151/64/47
f 14/54/41 69/53/41 71/71/52
f 35/73/53 29/262/140 86/59/44
f 136/75/55 26/269/144 18/76/45
f 38/78/56 35/261/53 87/79/54
f 31/81/58 26/269/144 136/75/55
f 153/83/60 39/88/62 36/84/50
f 26/86/49 31/49/38 74/48/38
f 160/87/61 32/251/71 39/88/62
f 50/89/63 76/140/63 75/90/1
f 89/91/64 45/260/139 38/78/56
f 137/92/65 33/270/145 31/93/58
f 48/95/66 45/259/139 89/96/64
f 46/98/68 33/270/145 137/92/65
f 155/100/70 49/106/74 32/101/71
f 22/103/72 1/72/52 71/71/52
f 154/105/73 40/250/83 49/106/74
f 60/31/28 81/32/28 79/107/75
f 41/109/76 48/95/66 91/97/67
f 139/111/78 43/271/146 46/112/68
f 93/114/79 55/258/138 41/115/76
f 50/117/80 43/271/146 139/111/78
f 156/119/82 56/249/134 40/120/83
f 22/103/72 72/104/72 65/122/18
f 61/123/84 56/249/134 156/119/82
f 53/125/86 57/108/75 79/107/75
f 51/127/87 55/258/138 93/114/79
f 140/129/89 53/272/147 50/130/80
f 94/132/90 63/257/137 51/133/87
f 57/135/91 53/272/147 140/129/89
f 64/137/93 61/248/84 161/138/85
f 53/125/86 78/126/86 76/140/63
f 58/141/16 64/137/93 157/139/94
f 33/47/37 46/3/2 77/2/2
f 8/144/95 63/257/137 94/132/90
f 141/146/96 60/273/148 57/147/91
f 7/166/114 60/273/148 141/146/96
f 83/168/115 102/175/115 100/169/108
f 92/171/104 120/209/104 124/172/105
f 95/174/106 125/182/106 102/175/115
f 25/176/116 21/236/117 98/177/117
f 15/179/118 105/246/118 101/180/119
f 95/174/106 94/173/105 124/172/105
f 59/183/120 122/203/120 123/184/121
f 96/186/110 129/201/110 107/187/122
f 28/189/123 109/200/123 104/190/124
f 82/170/108 100/169/108 106/192/109
f 52/194/125 62/185/121 123/184/121
f 47/196/126 114/247/126 115/197/127
f 34/199/128 111/234/128 109/200/123
f 96/186/110 84/193/109 106/192/109
f 6/202/129 103/243/129 122/203/120
f 85/188/122 107/187/122 126/204/112
f 125/182/12 124/172/90 123/206/90
f 124/172/90 120/209/88 118/208/88
f 120/209/88 121/211/79 119/210/79
f 121/211/79 116/237/77 113/212/77
f 113/212/77 116/237/77 117/213/67
f 117/213/67 128/216/64 115/215/64
f 128/216/64 112/218/57 110/217/57
f 112/218/57 127/220/54 111/219/54
f 127/220/54 108/222/44 109/221/44
f 108/222/44 126/204/43 104/223/43
f 126/204/43 107/187/22 105/224/22
f 129/201/21 106/192/34 98/225/34
f 106/192/34 100/169/10 99/227/10
f 107/187/22 129/201/21 101/226/21
f 102/175/9 125/182/12 122/207/12
f 100/169/10 102/175/9 103/228/9
f 93/229/102 121/211/102 120/209/104
f 42/230/130 54/245/131 119/231/131
f 34/199/128 37/241/132 110/233/132
f 90/235/103 116/237/103 121/211/102
f 2/181/119 101/180/119 98/177/117
f 90/235/103 91/239/97 117/213/97
f 89/238/99 128/216/99 117/213/97
f 88/240/133 112/218/133 128/216/99
f 44/198/127 115/197/127 110/233/132
f 87/242/101 127/220/101 112/218/133
f 25/176/116 99/178/116 103/243/129
f 86/244/113 108/222/113 127/220/101
f 52/194/125 118/195/125 119/231/131
f 97/205/112 126/204/112 108/222/113
f 10/191/124 104/190/124 105/246/118
f 47/196/126 42/230/130 113/232/130
f 58/141/16 142/167/24 141/146/96
f 64/137/93 141/146/96 145/148/92
f 145/136/92 140/129/89 56/249/134
f 140/129/89 138/131/81 40/120/83
f 138/118/81 139/111/78 49/106/74
f 139/111/78 144/113/69 32/101/71
f 144/99/69 137/92/65 39/88/62
f 39/88/62 137/92/65 143/94/59
f 143/82/59 136/75/55 30/252/135
f 136/75/55 134/77/46 9/65/48
f 9/253/48 134/63/46 135/36/31
f 132/58/33 133/42/35 19/33/29
f 19/33/29 133/42/35 130/44/15
f 17/28/25 135/36/31 132/38/33
f 131/16/14 142/27/24 58/18/16
f 130/17/15 131/16/14 4/256/136
f 158/142/17 157/139/94 63/257/137
f 157/139/94 161/138/85 51/133/87
f 161/124/85 156/119/82 55/258/138
f 55/258/138 156/119/82 154/121/73
f 154/105/73 155/100/70 48/95/66
f 155/100/70 160/102/61 45/259/139
f 160/87/61 153/83/60 38/78/56
f 153/83/60 152/85/51 35/261/53
f 152/70/51 151/64/47 29/262/140
f 151/64/47 159/66/40 27/60/42
f 159/52/40 150/30/27 16/23/20
f 148/51/26 149/35/30 20/263/141
f 149/35/30 146/34/5 24/40/8
f 150/30/27 148/29/26 12/264/36
f 5/13/11 147/5/4 158/19/17
f 146/6/5 147/5/4 5/13/11
