# Blender v2.90.0 Alpha OBJ File: 'Ship.blend'
# www.blender.org
o Cube.001_Cube
v 2.275918 0.968935 0.202409
v 2.047681 0.906169 -1.316532
v 4.134232 0.810920 -0.302161
v 4.975079 0.724385 -1.052767
v 0.697089 0.009939 0.003667
v 0.796925 -0.034695 0.011788
v 0.697089 -0.003372 -0.069495
v 0.796925 -0.048006 -0.061375
v 0.361046 0.009939 0.003667
v 0.361046 -0.034695 0.011788
v 0.361046 -0.003372 -0.069495
v 0.361046 -0.048006 -0.061375
v 0.236779 0.113069 -0.015096
v 0.203927 0.082287 -0.009496
v 0.236779 0.099758 -0.088259
v 0.203927 0.068976 -0.082658
v 2.267662 1.016803 0.095326
v 2.055177 0.958708 -1.312012
v 3.987785 0.870552 -0.371453
v 4.766111 0.790451 -1.066247
v -0.031052 1.009698 -0.190619
v -0.031052 1.826665 -0.345515
v -0.031052 1.009698 -0.252724
v -0.031052 1.819880 -0.407248
v 0.031052 1.009698 -0.190619
v 0.031052 1.826665 -0.345515
v 0.031052 1.009698 -0.252724
v 0.031052 1.819880 -0.407248
v -0.031052 0.916707 -2.877412
v -0.031052 0.856983 -2.860380
v 0.031052 0.856983 -2.860380
v 0.031052 0.916707 -2.877412
v 2.161799 0.937552 -0.557061
v 4.554655 0.767653 -0.677464
v 2.242750 1.009991 -0.069672
v 4.138321 0.855059 -0.505833
v 4.755398 0.746993 -0.856663
v 4.562764 0.811378 -0.884725
v 2.154167 0.985772 -0.656375
v 2.110691 0.973886 -0.944329
v 0.000000 1.145890 0.592922
v -2.275918 0.968935 0.202409
v 0.000000 0.947786 -1.561661
v -2.047681 0.906169 -1.316532
v -4.134232 0.810920 -0.302161
v -4.975079 0.724385 -1.052767
v 0.000000 0.970282 -0.171058
v 0.000000 1.047406 -0.185090
v 0.000000 0.956970 -0.244221
v 0.000000 1.034095 -0.258253
v -0.697089 0.009939 0.003667
v -0.796925 -0.034695 0.011788
v -0.697089 -0.003372 -0.069495
v -0.796925 -0.048006 -0.061375
v -0.361046 0.009939 0.003667
v -0.361046 -0.034695 0.011788
v -0.361046 -0.003372 -0.069495
v -0.361046 -0.048006 -0.061375
v -0.236779 0.113069 -0.015096
v -0.203927 0.082287 -0.009496
v -0.236779 0.099758 -0.088259
v -0.203927 0.068976 -0.082658
v 0.000000 0.113069 -0.015096
v 0.000000 0.082287 -0.009496
v 0.000000 0.099758 -0.088259
v 0.000000 0.068976 -0.082658
v 0.000000 1.180561 0.453761
v -2.267662 1.016803 0.095326
v 0.000000 1.000178 -1.561113
v -2.055177 0.958708 -1.312012
v -3.987785 0.870552 -0.371453
v -4.766111 0.790451 -1.066247
v 0.031052 1.009698 -0.190619
v 0.031052 1.826665 -0.345515
v 0.031052 1.009698 -0.252724
v 0.031052 1.819880 -0.407248
v -0.031052 1.009698 -0.190619
v -0.031052 1.826665 -0.345515
v -0.031052 1.009698 -0.252724
v -0.031052 1.819880 -0.407248
v 0.000000 1.018492 -0.187897
v 0.031052 0.916707 -2.877412
v 0.031052 0.856983 -2.860380
v -0.031052 0.856983 -2.860380
v -0.031052 0.916707 -2.877412
v -2.161799 0.937552 -0.557061
v -4.554655 0.767653 -0.677464
v -2.242750 1.009991 -0.069672
v -4.138321 0.855059 -0.505833
v 0.000000 1.167980 0.313241
v 0.000000 1.047265 -0.479730
v -4.755398 0.746993 -0.856663
v -4.562764 0.811378 -0.884725
v -2.154167 0.985772 -0.656375
v -2.110691 0.973886 -0.944329
v 0.000000 1.185106 -0.432695
v 0.000000 1.045354 -1.056492
vt 0.164062 0.773438
vt 0.164062 0.773438
vt 0.164062 0.773438
vt 0.164062 0.773438
vt 0.164062 0.773438
vt 0.164062 0.773438
vt 0.164062 0.773438
vt 0.164062 0.773438
vt 0.164062 0.773438
vt 0.164062 0.773438
vt 0.164062 0.773438
vt 0.164062 0.773438
vt 0.164062 0.773438
vt 0.164062 0.773438
vt 0.164062 0.773438
vt 0.164062 0.773438
vt 0.164062 0.773438
vt 0.164062 0.773438
vt 0.164062 0.773438
vt 0.164062 0.773438
vt 0.164062 0.773438
vt 0.164062 0.773438
vt 0.164062 0.773438
vt 0.164062 0.773438
vt 0.164062 0.773438
vt 0.164062 0.773438
vt 0.164062 0.773438
vt 0.164062 0.773438
vt 0.164062 0.773438
vt 0.164062 0.773438
vt 0.164062 0.773438
vt 0.164062 0.773438
vt 0.164062 0.773438
vt 0.164062 0.773438
vt 0.164062 0.773438
vt 0.164062 0.773438
vt 0.164062 0.773438
vt 0.164062 0.773438
vt 0.164062 0.773438
vt 0.164062 0.773438
vt 0.164062 0.773438
vt 0.164062 0.773438
vt 0.164062 0.773438
vt 0.164062 0.773438
vt 0.164062 0.773438
vt 0.164062 0.773438
vt 0.164062 0.773438
vt 0.164062 0.773438
vt 0.164062 0.773438
vt 0.164062 0.773438
vt 0.164062 0.773438
vt 0.164062 0.773438
vt 0.164062 0.773438
vt 0.257812 0.804688
vt 0.257812 0.804688
vt 0.257812 0.804688
vt 0.257812 0.804688
vt 0.257812 0.804688
vt 0.257812 0.804688
vt 0.257812 0.804688
vt 0.257812 0.804688
vt 0.257812 0.804688
vt 0.117188 0.835938
vt 0.117188 0.835938
vt 0.117188 0.835938
vt 0.117188 0.835938
vt 0.117188 0.835938
vt 0.117188 0.835938
vt 0.117188 0.835938
vt 0.117188 0.835938
vt 0.242188 0.835938
vt 0.242188 0.835938
vt 0.242188 0.835938
vt 0.117188 0.835938
vt 0.117188 0.835938
vt 0.242188 0.835938
vt 0.242188 0.835938
vt 0.117188 0.835938
vt 0.117188 0.835938
vt 0.164062 0.773438
vt 0.164062 0.773438
vt 0.164062 0.773438
vt 0.164062 0.773438
vt 0.164062 0.773438
vt 0.164062 0.773438
vt 0.164062 0.773438
vt 0.164062 0.773438
vt 0.164062 0.773438
vt 0.164062 0.773438
vt 0.164062 0.773438
vt 0.164062 0.773438
vt 0.164062 0.773438
vt 0.164062 0.773438
vt 0.164062 0.773438
vt 0.164062 0.773438
vt 0.164062 0.773438
vt 0.164062 0.773438
vt 0.164062 0.773438
vt 0.164062 0.773438
vt 0.164062 0.773438
vt 0.164062 0.773438
vt 0.164062 0.773438
vt 0.164062 0.773438
vt 0.164062 0.773438
vt 0.164062 0.773438
vt 0.164062 0.773438
vt 0.164062 0.773438
vt 0.164062 0.773438
vt 0.164062 0.773438
vt 0.164062 0.773438
vt 0.164062 0.773438
vt 0.164062 0.773438
vt 0.164062 0.773438
vt 0.164062 0.773438
vt 0.164062 0.773438
vt 0.164062 0.773438
vt 0.164062 0.773438
vt 0.257812 0.804688
vt 0.257812 0.804688
vt 0.257812 0.804688
vt 0.257812 0.804688
vt 0.257812 0.804688
vt 0.257812 0.804688
vt 0.257812 0.804688
vt 0.117188 0.835938
vt 0.117188 0.835938
vt 0.117188 0.835938
vt 0.117188 0.835938
vt 0.117188 0.835938
vt 0.117188 0.835938
vt 0.117188 0.835938
vt 0.117188 0.835938
vt 0.242188 0.835938
vt 0.242188 0.835938
vt 0.242188 0.835938
vn -0.0472 -0.9947 0.0915
vn -0.0686 -0.9963 0.0515
vn -0.0000 -0.1790 -0.9838
vn 0.0000 0.1790 0.9838
vn -0.8138 -0.5718 0.1040
vn 0.8098 0.5773 -0.1050
vn 0.0000 0.9838 -0.1790
vn 0.0000 -0.9838 0.1790
vn 0.6448 0.7520 -0.1368
vn -0.6034 -0.7845 0.1427
vn 0.0549 0.9945 -0.0890
vn 0.0639 0.9967 -0.0508
vn 0.0950 0.0864 -0.9917
vn 0.1203 0.0393 -0.9920
vn 0.2826 0.9363 0.2086
vn 0.1826 0.9026 0.3899
vn 0.1220 0.9423 0.3118
vn -1.0000 0.0000 0.0000
vn 0.0000 -0.1874 -0.9823
vn 1.0000 0.0000 0.0000
vn 0.0000 0.1863 0.9825
vn 0.0000 0.9940 -0.1092
vn 0.0000 -0.2742 -0.9617
vn 0.9999 0.0033 0.0114
vn -0.9999 0.0033 0.0114
vn 0.0000 0.9993 -0.0378
vn 0.0000 -0.9982 0.0603
vn 0.0720 0.9964 -0.0440
vn -0.0700 -0.9965 0.0467
vn 0.0332 0.9969 -0.0711
vn 0.0667 0.9966 -0.0476
vn -0.0656 -0.9970 0.0414
vn -0.0676 -0.9965 0.0490
vn 0.0691 0.9965 -0.0460
vn 0.0673 0.9964 -0.0513
vn 0.0795 0.9968 -0.0106
vn 0.0581 0.9843 -0.1665
vn -0.0387 -0.9966 0.0732
vn 0.0472 -0.9947 0.0915
vn 0.0686 -0.9963 0.0515
vn 0.8138 -0.5718 0.1040
vn -0.8098 0.5773 -0.1050
vn -0.6448 0.7520 -0.1368
vn 0.6034 -0.7845 0.1427
vn -0.0549 0.9945 -0.0890
vn -0.0639 0.9967 -0.0508
vn -0.0950 0.0864 -0.9917
vn -0.1203 0.0393 -0.9920
vn -0.2826 0.9363 0.2086
vn -0.1826 0.9026 0.3899
vn -0.1220 0.9423 0.3118
vn -0.0720 0.9964 -0.0440
vn 0.0700 -0.9965 0.0467
vn -0.0332 0.9969 -0.0711
vn -0.0667 0.9966 -0.0476
vn 0.0656 -0.9970 0.0414
vn 0.0676 -0.9965 0.0490
vn -0.0691 0.9965 -0.0460
vn -0.0673 0.9964 -0.0513
vn -0.0795 0.9968 -0.0106
vn -0.0581 0.9843 -0.1665
vn 0.0387 -0.9966 0.0732
s off
f 41/1/1 91/2/1 33/3/1
f 1/4/2 41/1/2 33/3/2
f 49/5/3 50/6/3 8/7/3 7/8/3
f 6/9/4 5/10/4 9/11/4 10/12/4
f 5/10/4 6/9/4 48/13/4 47/14/4
f 49/5/5 7/8/5 5/10/5 47/14/5
f 8/7/6 50/6/6 48/13/6 6/9/6
f 10/12/4 9/11/4 13/15/4 14/16/4
f 5/10/7 7/8/7 11/17/7 9/11/7
f 8/7/8 6/9/8 10/12/8 12/18/8
f 7/8/3 8/7/3 12/18/3 11/17/3
f 16/19/8 14/16/8 64/20/8 66/21/8
f 9/11/9 11/17/9 15/22/9 13/15/9
f 12/18/10 10/12/10 14/16/10 16/19/10
f 11/17/3 12/18/3 16/19/3 15/22/3
f 15/22/3 16/19/3 66/21/3 65/23/3
f 14/16/4 13/15/4 63/24/4 64/20/4
f 13/15/7 15/22/7 65/23/7 63/24/7
f 67/25/11 35/26/11 90/27/11
f 17/28/12 35/26/12 67/25/12
f 2/29/13 18/30/13 20/31/13 4/32/13
f 43/33/14 69/34/14 18/30/14 2/29/14
f 34/35/15 36/36/15 19/37/15 3/38/15
f 3/38/16 19/37/16 17/28/16 1/4/16
f 1/4/17 17/28/17 67/25/17 41/1/17
f 21/39/18 22/40/18 24/41/18 23/42/18
f 23/42/19 24/41/19 28/43/19 27/44/19
f 27/44/20 28/43/20 26/45/20 25/46/20
f 25/46/21 26/45/21 22/40/21 21/39/21
f 28/43/22 24/41/22 22/40/22 26/45/22
f 31/47/23 30/48/23 29/49/23 32/50/23
f 81/51/24 31/47/24 32/50/24
f 81/51/25 29/49/25 30/48/25
f 81/51/26 32/50/26 29/49/26
f 81/51/27 30/48/27 31/47/27
f 37/52/15 38/53/15 36/36/15 34/35/15
f 17/28/28 19/37/28 36/36/28 35/26/28
f 1/4/29 33/3/29 34/35/29 3/38/29
f 97/54/30 40/55/30 18/56/30 69/57/30
f 40/55/31 38/58/31 20/59/31 18/56/31
f 2/60/32 4/61/32 37/62/32
f 33/63/33 2/64/33 37/65/33 34/66/33
f 35/67/34 36/68/34 38/69/34 39/70/34
f 39/71/35 38/72/35 40/73/35
f 90/74/36 35/67/36 39/70/36 96/75/36
f 96/76/37 39/71/37 40/73/37 97/77/37
f 33/63/38 91/78/38 43/79/38 2/64/38
f 4/32/15 20/31/15 38/53/15 37/52/15
f 41/1/39 86/80/39 91/2/39
f 42/81/40 86/80/40 41/1/40
f 47/14/20 49/5/20 50/6/20 48/13/20
f 49/5/3 53/82/3 54/83/3 50/6/3
f 52/84/4 56/85/4 55/86/4 51/87/4
f 51/87/4 47/14/4 48/13/4 52/84/4
f 49/5/41 47/14/41 51/87/41 53/82/41
f 54/83/42 52/84/42 48/13/42 50/6/42
f 56/85/4 60/88/4 59/89/4 55/86/4
f 51/87/7 55/86/7 57/90/7 53/82/7
f 54/83/8 58/91/8 56/85/8 52/84/8
f 53/82/3 57/90/3 58/91/3 54/83/3
f 62/92/8 66/21/8 64/20/8 60/88/8
f 55/86/43 59/89/43 61/93/43 57/90/43
f 58/91/44 62/92/44 60/88/44 56/85/44
f 57/90/3 61/93/3 62/92/3 58/91/3
f 65/23/20 63/24/20 64/20/20 66/21/20
f 61/93/3 65/23/3 66/21/3 62/92/3
f 60/88/4 64/20/4 63/24/4 59/89/4
f 59/89/7 63/24/7 65/23/7 61/93/7
f 67/25/45 90/27/45 88/94/45
f 68/95/46 67/25/46 88/94/46
f 44/96/47 46/97/47 72/98/47 70/99/47
f 43/33/48 44/96/48 70/99/48 69/34/48
f 87/100/49 45/101/49 71/102/49 89/103/49
f 45/101/50 42/81/50 68/95/50 71/102/50
f 42/81/51 41/1/51 67/25/51 68/95/51
f 73/104/20 75/105/20 76/106/20 74/107/20
f 75/105/19 79/108/19 80/109/19 76/106/19
f 79/108/18 77/110/18 78/111/18 80/109/18
f 77/110/21 73/104/21 74/107/21 78/111/21
f 80/109/22 78/111/22 74/107/22 76/106/22
f 84/112/23 85/113/23 82/114/23 83/115/23
f 81/51/25 85/113/25 84/112/25
f 81/51/24 83/115/24 82/114/24
f 81/51/26 82/114/26 85/113/26
f 81/51/27 84/112/27 83/115/27
f 92/116/49 87/100/49 89/103/49 93/117/49
f 68/95/52 88/94/52 89/103/52 71/102/52
f 42/81/53 45/101/53 87/100/53 86/80/53
f 97/54/54 69/57/54 70/118/54 95/119/54
f 95/119/55 70/118/55 72/120/55 93/121/55
f 44/122/56 92/123/56 46/124/56
f 86/125/57 87/126/57 92/127/57 44/128/57
f 88/129/58 94/130/58 93/131/58 89/132/58
f 94/133/59 95/134/59 93/135/59
f 90/74/60 96/75/60 94/130/60 88/129/60
f 96/76/61 97/77/61 95/134/61 94/133/61
f 86/125/62 44/128/62 43/79/62 91/78/62
f 46/97/49 92/116/49 93/117/49 72/98/49
