# Blender v2.82 (sub 7) OBJ File: ''
# www.blender.org
mtllib haystacka.mtl
o Haystack_Cube
v -2.195746 0.301130 1.397647
v -2.195746 1.698777 1.976572
v -2.195746 1.698777 0.000000
v 0.000000 -0.277795 0.000000
v 2.195746 0.301130 1.397647
v 0.000000 0.301130 1.397648
v 0.000000 1.698777 1.976572
v 2.195746 3.096424 1.397647
v 0.000000 3.096425 1.397647
v -2.195746 3.096424 -1.397647
v -2.195746 1.698777 -1.976572
v 2.195746 1.698777 1.976572
v 2.195746 3.675349 0.000000
v -2.195746 -0.277795 0.000000
v -2.195746 3.096424 1.397647
v -2.195746 3.675349 0.000000
v 0.000000 3.675349 0.000000
v -2.195746 0.301130 -1.397647
v 2.195746 0.301130 -1.397647
v 2.195746 -0.277795 0.000000
v 2.195746 3.096424 -1.397647
v 0.000000 1.698777 -1.976572
v 0.000000 3.096425 -1.397647
v 0.000000 0.301130 -1.397648
v 2.195746 1.698777 -1.976572
v 2.195746 1.698777 0.000000
vt 0.516432 0.900165
vt 0.516432 0.900165
vt 0.516432 0.900165
vt 0.521275 0.895645
vt 0.521275 0.895645
vt 0.521275 0.895645
vt 0.524963 0.923533
vt 0.524963 0.923533
vt 0.524963 0.923533
vt 0.516432 0.900165
vt 0.516432 0.900165
vt 0.524963 0.923533
vt 0.524963 0.923533
vt 0.524963 0.923533
vt 0.524963 0.923533
vt 0.521275 0.895645
vt 0.521275 0.895645
vt 0.524963 0.923533
vt 0.516432 0.900165
vt 0.516432 0.900165
vt 0.524963 0.923533
vt 0.524963 0.923533
vt 0.524963 0.923533
vt 0.524963 0.923533
vt 0.516432 0.900165
vt 0.516432 0.900165
vt 0.521275 0.895645
vt 0.521275 0.895645
vt 0.524963 0.923533
vt 0.524963 0.923533
vt 0.524963 0.923533
vt 0.524963 0.923533
vt 0.524963 0.923533
vt 0.524963 0.923533
vt 0.521275 0.895645
vt 0.521275 0.895645
vt 0.524963 0.923533
vt 0.516432 0.900165
vt 0.516432 0.900165
vt 0.516432 0.900165
vt 0.524963 0.923533
vt 0.524963 0.923533
vt 0.516432 0.900165
vt 0.516432 0.900165
vt 0.516432 0.900165
vt 0.516432 0.900165
vt 0.516432 0.900165
vt 0.516432 0.900165
vn -1.0000 -0.0000 0.0000
vn 0.0000 -1.0000 -0.0000
vn 0.0000 -0.7071 0.7071
vn 0.0000 0.0000 1.0000
vn 0.0000 0.7071 0.7071
vn 0.0000 1.0000 0.0000
vn 0.0000 -0.7071 -0.7071
vn 0.0000 0.7071 -0.7071
vn -0.0000 0.0000 -1.0000
vn 1.0000 0.0000 0.0000
usemtl Silo1
s 1
f 1/1/1 2/2/1 3/3/1
f 4/4/2 5/5/3 6/6/3
f 7/7/4 8/8/5 9/9/5
f 10/10/1 11/11/1 3/3/1
f 12/12/4 6/13/3 5/14/3
f 13/15/6 9/9/5 8/8/5
f 4/4/2 1/16/3 14/17/2
f 15/18/5 7/7/4 9/9/5
f 15/19/1 16/20/1 3/3/1
f 6/13/3 2/21/4 1/22/3
f 16/23/6 9/9/5 17/24/6
f 18/25/1 14/26/1 3/3/1
f 4/4/2 19/27/7 20/28/2
f 21/29/8 22/30/9 23/31/8
f 11/11/1 18/25/1 3/3/1
f 24/32/7 25/33/9 19/34/7
f 13/15/6 23/31/8 17/24/6
f 16/20/1 10/10/1 3/3/1
f 4/4/2 18/35/7 24/36/7
f 22/30/9 10/37/8 23/31/8
f 8/38/10 12/39/10 26/40/10
f 11/41/9 24/32/7 18/42/7
f 16/23/6 23/31/8 10/37/8
f 25/43/10 21/44/10 26/40/10
f 4/4/2 20/28/2 5/5/3
f 7/7/4 12/12/4 8/8/5
f 5/45/10 20/46/10 26/40/10
f 12/12/4 7/7/4 6/13/3
f 13/15/6 17/24/6 9/9/5
f 20/46/10 19/47/10 26/40/10
f 4/4/2 6/6/3 1/16/3
f 15/18/5 2/21/4 7/7/4
f 2/2/1 15/19/1 3/3/1
f 6/13/3 7/7/4 2/21/4
f 16/23/6 15/18/5 9/9/5
f 12/39/10 5/45/10 26/40/10
f 4/4/2 24/36/7 19/27/7
f 21/29/8 25/33/9 22/30/9
f 19/47/10 25/43/10 26/40/10
f 24/32/7 22/30/9 25/33/9
f 13/15/6 21/29/8 23/31/8
f 14/26/1 1/1/1 3/3/1
f 4/4/2 14/17/2 18/35/7
f 22/30/9 11/41/9 10/37/8
f 13/48/10 8/38/10 26/40/10
f 11/41/9 22/30/9 24/32/7
f 16/23/6 17/24/6 23/31/8
f 21/44/10 13/48/10 26/40/10
