# Blender v2.90.0 Alpha OBJ File: 'Decos.blend'
# www.blender.org
o Cube.002_Cube.014
v -0.560856 5.156433 0.778846
v -0.560856 6.691360 0.778846
v -0.749876 6.947243 -0.778842
v -0.749876 5.232613 -0.778842
v 0.807812 5.232613 -0.778842
v 0.807812 6.947243 -0.778842
v 0.612525 6.691360 0.778846
v 0.612525 5.156433 0.778846
v 0.612525 3.811712 0.778846
v -0.560856 3.811712 0.778846
v -0.560856 2.406782 0.778844
v 0.612525 2.406782 0.778844
v 2.067772 5.156433 0.778846
v 2.309964 5.232613 -0.778842
v -0.749876 2.161047 -0.778844
v 0.807812 2.161047 -0.778844
v 0.807812 3.730459 -0.778842
v -0.749876 3.730459 -0.778842
v 2.067772 3.811712 0.778846
v 2.309964 3.730459 -0.778842
v -2.176666 5.156433 0.778846
v -2.431390 5.232613 -0.778842
v -2.431390 3.730459 -0.778842
v -2.176666 3.811712 0.778846
v -0.000926 4.505743 0.221158
v 1.720159 8.660810 0.221158
v -0.000926 9.003155 0.221158
v -0.000926 9.003155 -1.778842
v 1.720159 8.660810 -1.778842
v 3.179224 7.685898 0.221158
v 3.179224 7.685898 -1.778842
v 4.154140 6.226826 0.221158
v 4.154140 6.226828 -1.778842
v 4.496485 4.505743 0.221158
v 4.496485 4.505744 -1.778842
v 4.154140 2.784662 0.221156
v 4.154140 2.784662 -1.778844
v 3.179224 1.325590 0.221156
v 3.179224 1.325590 -1.778844
v 1.720159 0.350677 0.221156
v 1.720159 0.350677 -1.778844
v -0.000925 0.008333 0.221156
v -0.000925 0.008333 -1.778844
v -1.722010 0.350677 0.221156
v -1.722010 0.350677 -1.778844
v -3.181075 1.325590 0.221156
v -3.181075 1.325590 -1.778844
v -4.155992 2.784662 0.221156
v -4.155992 2.784662 -1.778844
v -4.498336 4.505743 0.221158
v -4.498336 4.505744 -1.778842
v -4.155992 6.226826 0.221158
v -4.155992 6.226828 -1.778842
v -3.181075 7.685898 0.221158
v -3.181075 7.685898 -1.778842
v -1.722009 8.660810 0.221158
v -1.722009 8.660810 -1.778842
vt 0.039062 0.742188
vt 0.039062 0.742188
vt 0.039062 0.742188
vt 0.039062 0.742188
vt 0.039062 0.742188
vt 0.039062 0.742188
vt 0.039062 0.742188
vt 0.039062 0.742188
vt 0.039062 0.742188
vt 0.039062 0.742188
vt 0.039062 0.742188
vt 0.039062 0.742188
vt 0.039062 0.742188
vt 0.039062 0.742188
vt 0.039062 0.742188
vt 0.039062 0.742188
vt 0.039062 0.742188
vt 0.039062 0.742188
vt 0.039062 0.742188
vt 0.039062 0.742188
vt 0.039062 0.742188
vt 0.039062 0.742188
vt 0.039062 0.742188
vt 0.039062 0.742188
vt 0.007812 0.757812
vt 0.007812 0.757812
vt 0.007812 0.757812
vt 0.007812 0.757812
vt 0.007812 0.757812
vt 0.007812 0.757812
vt 0.007812 0.757812
vt 0.007812 0.757812
vt 0.007812 0.757812
vt 0.007812 0.757812
vt 0.007812 0.757812
vt 0.007812 0.757812
vt 0.007812 0.757812
vt 0.007812 0.757812
vt 0.007812 0.757812
vt 0.007812 0.757812
vt 0.007812 0.757812
vt 0.007812 0.757812
vt 0.007812 0.757812
vt 0.007812 0.757812
vt 0.007812 0.757812
vt 0.007812 0.757812
vt 0.007812 0.757812
vt 0.007812 0.757812
vt 0.007812 0.757812
vt 0.007812 0.757812
vt 0.007812 0.757812
vt 0.007812 0.757812
vt 0.007812 0.757812
vt 0.007812 0.757812
vt 0.007812 0.757812
vt 0.007812 0.757812
vt 0.007812 0.757812
vn -0.9927 -0.0000 0.1205
vn 0.9922 -0.0000 0.1244
vn 0.0000 -0.0000 1.0000
vn 0.0000 0.9868 0.1621
vn 0.0000 0.9988 0.0488
vn 0.0000 -0.9878 0.1558
vn 0.9881 0.0000 0.1536
vn 0.0000 -0.9986 0.0521
vn -0.9869 0.0000 0.1614
vn 0.1951 0.9808 0.0000
vn 0.5556 0.8315 0.0000
vn 0.8315 0.5556 0.0000
vn 0.9808 0.1951 0.0000
vn 0.9808 -0.1951 -0.0000
vn 0.8315 -0.5556 -0.0000
vn 0.5556 -0.8315 -0.0000
vn 0.1951 -0.9808 -0.0000
vn -0.1951 -0.9808 -0.0000
vn -0.5556 -0.8315 -0.0000
vn -0.8315 -0.5556 -0.0000
vn -0.9808 -0.1951 -0.0000
vn -0.9808 0.1951 0.0000
vn -0.8315 0.5556 0.0000
vn -0.5556 0.8315 0.0000
vn -0.1951 0.9808 0.0000
s 1
f 1/1/1 2/2/1 3/3/1 4/4/1
f 5/5/2 6/6/2 7/7/2 8/8/2
f 8/8/3 7/7/3 2/2/3 1/1/3
f 6/6/4 3/3/4 2/2/4 7/7/4
f 9/9/3 10/10/3 11/11/3 12/12/3
f 5/5/5 8/8/5 13/13/5 14/14/5
f 8/8/3 1/1/3 10/10/3 9/9/3
f 15/15/6 16/16/6 12/12/6 11/11/6
f 17/17/2 9/9/2 12/12/2 16/16/2
f 10/10/1 18/18/1 15/15/1 11/11/1
f 14/14/7 13/13/7 19/19/7 20/20/7
f 9/9/8 17/17/8 20/20/8 19/19/8
f 8/8/3 9/9/3 19/19/3 13/13/3
f 21/21/9 22/22/9 23/23/9 24/24/9
f 1/1/5 4/4/5 22/22/5 21/21/5
f 10/10/3 1/1/3 21/21/3 24/24/3
f 18/18/8 10/10/8 24/24/8 23/23/8
f 25/25/3 26/26/3 27/27/3
f 28/28/10 27/27/10 26/26/10 29/29/10
f 25/25/3 30/30/3 26/26/3
f 29/29/11 26/26/11 30/30/11 31/31/11
f 25/25/3 32/32/3 30/30/3
f 31/31/12 30/30/12 32/32/12 33/33/12
f 25/25/3 34/34/3 32/32/3
f 33/33/13 32/32/13 34/34/13 35/35/13
f 25/25/3 36/36/3 34/34/3
f 35/35/14 34/34/14 36/36/14 37/37/14
f 25/25/3 38/38/3 36/36/3
f 37/37/15 36/36/15 38/38/15 39/39/15
f 25/25/3 40/40/3 38/38/3
f 39/39/16 38/38/16 40/40/16 41/41/16
f 25/25/3 42/42/3 40/40/3
f 41/41/17 40/40/17 42/42/17 43/43/17
f 25/25/3 44/44/3 42/42/3
f 43/43/18 42/42/18 44/44/18 45/45/18
f 25/25/3 46/46/3 44/44/3
f 45/45/19 44/44/19 46/46/19 47/47/19
f 25/25/3 48/48/3 46/46/3
f 47/47/20 46/46/20 48/48/20 49/49/20
f 25/25/3 50/50/3 48/48/3
f 49/49/21 48/48/21 50/50/21 51/51/21
f 25/25/3 52/52/3 50/50/3
f 51/51/22 50/50/22 52/52/22 53/53/22
f 25/25/3 54/54/3 52/52/3
f 53/53/23 52/52/23 54/54/23 55/55/23
f 25/25/3 56/56/3 54/54/3
f 55/55/24 54/54/24 56/56/24 57/57/24
f 25/25/3 27/27/3 56/56/3
f 57/57/25 56/56/25 27/27/25 28/28/25
