# Blender v2.90.0 Alpha OBJ File: 'Decos.blend'
# www.blender.org
o Cube.002_Cube.001
v 0.612525 5.156433 0.778845
v 0.612525 6.691360 0.778845
v -0.560856 6.691360 0.778845
v -0.560856 5.156433 0.778845
v 0.612525 3.811712 0.778845
v -0.560856 3.811712 0.778845
v -0.560856 2.406782 0.778844
v 0.612525 2.406782 0.778844
v 2.067772 3.811712 0.778845
v 2.067772 5.156433 0.778845
v -2.176666 5.156433 0.778845
v -2.176666 3.811712 0.778845
v -0.000926 4.505743 0.221157
v 4.496485 4.505743 0.221157
v 3.179224 7.685898 0.221157
v 3.179224 1.325590 0.221156
v -0.000925 0.008333 0.221156
v -3.181075 1.325590 0.221156
v -4.498336 4.505743 0.221157
v -3.181075 7.685898 0.221157
v -0.000926 9.003155 0.221157
vt 0.039062 0.742188
vt 0.039062 0.742188
vt 0.039062 0.742188
vt 0.039062 0.742188
vt 0.039062 0.742188
vt 0.039062 0.742188
vt 0.039062 0.742188
vt 0.039062 0.742188
vt 0.039062 0.742188
vt 0.039062 0.742188
vt 0.039062 0.742188
vt 0.039062 0.742188
vt 0.006723 0.757065
vt 0.006723 0.757065
vt 0.006723 0.757065
vt 0.006723 0.757065
vt 0.006723 0.757065
vt 0.006723 0.757065
vt 0.006723 0.757065
vt 0.006723 0.757065
vt 0.006723 0.757065
vn 0.0000 -0.0000 1.0000
s 1
f 1/1/1 2/2/1 3/3/1 4/4/1
f 5/5/1 6/6/1 7/7/1 8/8/1
f 1/1/1 4/4/1 6/6/1 5/5/1
f 1/1/1 5/5/1 9/9/1 10/10/1
f 6/6/1 4/4/1 11/11/1 12/12/1
f 13/13/1 14/14/1 15/15/1
f 13/13/1 16/16/1 14/14/1
f 13/13/1 17/17/1 16/16/1
f 13/13/1 18/18/1 17/17/1
f 13/13/1 19/19/1 18/18/1
f 13/13/1 20/20/1 19/19/1
f 13/13/1 21/21/1 20/20/1
f 13/13/1 15/15/1 21/21/1
