# Blender v2.90.0 Alpha OBJ File: 'Decos.blend'
# www.blender.org
o Cube.004_Cube.001
v -0.170894 -0.105520 3.795997
v -0.170894 0.300294 3.795997
v -1.438386 -0.105520 2.820046
v -1.438386 0.300294 2.820046
v 0.170894 -0.105520 3.795997
v 0.170894 0.300294 3.795997
v 1.438386 -0.105520 2.820046
v 1.438386 0.300294 2.820046
v -1.438386 0.300294 -5.031048
v -1.438386 -0.105520 -5.031048
v 1.438386 -0.105520 -5.031048
v 1.438386 0.300294 -5.031048
vt 0.195312 0.789062
vt 0.195312 0.789062
vt 0.195312 0.789062
vt 0.195312 0.789062
vt 0.195312 0.789062
vt 0.195312 0.789062
vt 0.195312 0.789062
vt 0.195312 0.789062
vt 0.195312 0.789062
vt 0.195312 0.789062
vt 0.195312 0.789062
vt 0.195312 0.789062
vn -0.6101 0.0000 0.7923
vn 0.6101 0.0000 0.7923
vn -1.0000 0.0000 0.0000
vn 1.0000 0.0000 0.0000
vn 0.0000 0.0000 1.0000
s off
f 1/1/1 2/2/1 4/3/1 3/4/1
f 7/5/2 8/6/2 6/7/2 5/8/2
f 3/4/3 4/3/3 9/9/3 10/10/3
f 8/6/4 7/5/4 11/11/4 12/12/4
f 1/1/5 5/8/5 6/7/5 2/2/5
