# Blender v2.90.0 Alpha OBJ File: 'Decos.blend'
# www.blender.org
o HVAC_Cube.004_HVAC_Cube.007
v 2.251133 -0.231941 6.647893
v 3.036514 -0.231941 6.647893
v 3.036514 -0.231941 8.155160
v 2.251133 -0.231941 8.155160
v 3.036514 0.763091 6.647893
v 2.251133 0.763091 6.647893
v 2.251133 0.763091 8.155160
v 3.036514 0.763091 8.155160
v 2.251133 -0.231940 -0.508645
v 2.251133 -0.231940 -2.015912
v 3.036514 -0.231940 -2.015912
v 3.036514 -0.231940 -0.508645
v 3.036514 0.763092 -0.508645
v 3.036514 0.763093 -2.015912
v 2.251133 0.763093 -2.015912
v 2.251133 0.763092 -0.508645
v -2.252040 -0.231941 6.647893
v -2.252040 -0.231941 8.155160
v -3.037418 -0.231941 8.155160
v -3.037418 -0.231941 6.647893
v -3.037418 0.430389 6.647893
v -3.037418 0.430388 8.155160
v -2.252040 0.430388 8.155160
v -2.252040 0.430389 6.647893
v -2.252040 -0.231940 -0.508645
v -3.037418 -0.231940 -0.508645
v -3.037418 -0.231940 -2.015912
v -2.252040 -0.231940 -2.015912
v -3.037418 0.763092 -0.508645
v -2.252040 0.763092 -0.508645
v -2.252040 0.763093 -2.015912
v -3.037418 0.763093 -2.015912
v 3.103119 0.575842 8.085226
v 3.103119 0.575843 -1.945979
v 3.059401 0.884379 -1.312697
v 3.059401 0.884377 7.451945
v 3.103119 5.463064 -1.945975
v -3.089861 5.463064 -1.945975
v -3.089861 5.463062 8.085228
v -3.089861 0.575842 8.085226
v -3.089861 0.575843 -1.945979
v 3.059401 5.154528 -1.312696
v 3.059401 5.154527 7.451949
v 3.103119 5.463062 8.085228
v -3.046142 0.884377 7.451945
v -3.046142 0.884379 -1.312697
v -3.046142 5.154527 7.451949
v -3.046142 5.154528 -1.312696
v -2.841860 0.889798 7.440819
v -2.841860 0.889799 -1.301571
v -2.841860 5.149107 -1.301570
v -2.841860 5.149106 7.440823
v 2.812765 5.463064 -1.475668
v -2.799507 5.463062 7.614921
v -2.799507 5.463064 -1.475668
v 2.812765 5.463062 7.614921
v 2.727047 5.238416 -1.336824
v -2.713789 5.238414 7.476077
v -2.713789 5.238416 -1.336824
v 2.727047 5.238414 7.476077
vt 0.257812 0.804688
vt 0.257812 0.804688
vt 0.257812 0.804688
vt 0.257812 0.804688
vt 0.257812 0.804688
vt 0.257812 0.804688
vt 0.257812 0.804688
vt 0.257812 0.804688
vt 0.257812 0.804688
vt 0.257812 0.804688
vt 0.257812 0.804688
vt 0.257812 0.804688
vt 0.257812 0.804688
vt 0.257812 0.804688
vt 0.257812 0.804688
vt 0.257812 0.804688
vt 0.257812 0.804688
vt 0.257812 0.804688
vt 0.257812 0.804688
vt 0.257812 0.804688
vt 0.257812 0.804688
vt 0.257812 0.804688
vt 0.257812 0.804688
vt 0.257812 0.804688
vt 0.257812 0.804688
vt 0.257812 0.804688
vt 0.257812 0.804688
vt 0.257812 0.804688
vt 0.257812 0.804688
vt 0.257812 0.804688
vt 0.257812 0.804688
vt 0.257812 0.804688
vt 0.226562 0.804688
vt 0.226562 0.804688
vt 0.226562 0.804688
vt 0.226562 0.804688
vt 0.242188 0.804688
vt 0.242188 0.804688
vt 0.242188 0.804688
vt 0.242188 0.804688
vt 0.257812 0.804688
vt 0.257812 0.804688
vt 0.257812 0.804688
vt 0.257812 0.804688
vt 0.132812 0.773438
vt 0.132812 0.773438
vt 0.132812 0.773438
vt 0.132812 0.773438
vt 0.226562 0.804688
vt 0.226562 0.804688
vt 0.226562 0.804688
vt 0.226562 0.804688
vt 0.226562 0.804688
vt 0.226562 0.804688
vt 0.226562 0.804688
vt 0.226562 0.804688
vt 0.226562 0.804688
vt 0.242188 0.804688
vt 0.242188 0.804688
vt 0.226562 0.804688
vt 0.226562 0.804688
vt 0.226562 0.804688
vt 0.226562 0.804688
vt 0.226562 0.804688
vt 0.226562 0.804688
vt 0.226562 0.804688
vt 0.132812 0.773438
vt 0.132812 0.773438
vt 0.132812 0.773438
vt 0.132812 0.773438
vt 0.226562 0.804688
vt 0.226562 0.804688
vt 0.226562 0.804688
vt 0.226562 0.804688
vt 0.226562 0.804688
vt 0.226562 0.804688
vt 0.226562 0.804688
vt 0.226562 0.804688
vt 0.148438 0.789062
vt 0.148438 0.789062
vt 0.148438 0.789062
vt 0.148438 0.789062
vt 0.242188 0.804688
vt 0.242188 0.804688
vn 0.0000 1.0000 0.0000
vn 1.0000 0.0000 0.0000
vn 0.0000 0.0000 1.0000
vn -1.0000 0.0000 0.0000
vn 0.0000 0.0000 -1.0000
vn 0.9901 0.1403 0.0000
vn 0.0000 -1.0000 -0.0000
vn 0.9901 -0.1403 -0.0000
vn -0.9901 0.1403 0.0000
vn 0.9976 0.0000 -0.0689
vn 0.9976 -0.0000 0.0689
vn -0.0573 0.6999 0.7120
vn -0.0573 0.6999 -0.7120
vn -0.0570 0.7124 -0.6994
vn -0.0570 0.7124 0.6994
vn -0.9901 -0.1403 -0.0000
vn -0.9976 0.0000 -0.0689
vn -0.9976 -0.0000 0.0689
vn -0.0574 -0.6999 -0.7120
vn -0.0573 -0.6999 0.7120
vn -0.0570 -0.7124 0.6994
vn -0.0570 -0.7124 -0.6994
vn -0.5495 0.5808 -0.6006
vn -0.5495 0.5808 0.6006
vn -0.6376 0.5662 0.5224
vn -0.6376 0.5662 -0.5224
vn 0.5495 0.5808 0.6006
vn 0.5495 0.5808 -0.6006
vn 0.6376 0.5662 -0.5224
vn 0.6376 0.5662 0.5224
s off
f 5/1/1 6/2/1 7/3/1 8/4/1
f 2/5/2 5/1/2 8/4/2 3/6/2
f 3/6/3 8/4/3 7/3/3 4/7/3
f 4/7/4 7/3/4 6/2/4 1/8/4
f 1/8/5 6/2/5 5/1/5 2/5/5
f 13/9/1 14/10/1 15/11/1 16/12/1
f 12/13/2 11/14/2 14/10/2 13/9/2
f 11/14/5 10/15/5 15/11/5 14/10/5
f 10/15/4 9/16/4 16/12/4 15/11/4
f 9/16/3 12/13/3 13/9/3 16/12/3
f 21/17/1 22/18/1 23/19/1 24/20/1
f 20/21/4 19/22/4 22/18/4 21/17/4
f 19/22/3 18/23/3 23/19/3 22/18/3
f 18/23/2 17/24/2 24/20/2 23/19/2
f 17/24/5 20/21/5 21/17/5 24/20/5
f 29/25/1 30/26/1 31/27/1 32/28/1
f 26/29/4 29/25/4 32/28/4 27/30/4
f 27/30/5 32/28/5 31/27/5 28/31/5
f 28/31/2 31/27/2 30/26/2 25/32/2
f 25/32/3 30/26/3 29/25/3 26/29/3
s 1
f 33/33/6 34/34/6 35/35/6 36/36/6
f 39/37/1 44/38/1 56/39/1 54/40/1
f 34/41/7 33/42/7 40/43/7 41/44/7
f 35/45/2 42/46/2 43/47/2 36/48/2
f 37/49/8 44/50/8 43/51/8 42/52/8
f 40/53/9 45/54/9 46/55/9 41/56/9
f 41/56/5 38/57/5 37/49/5 34/34/5
f 33/58/3 44/38/3 39/37/3 40/59/3
f 38/57/1 39/60/1 54/61/1 55/62/1
f 44/50/10 33/33/10 36/36/10 43/51/10
f 34/34/11 37/49/11 42/52/11 35/35/11
f 46/55/12 45/54/13 49/63/14 50/64/15
f 38/57/16 48/65/16 47/66/16 39/60/16
f 39/60/17 47/66/17 45/54/17 40/53/17
f 41/56/18 46/55/18 48/65/18 38/57/18
f 50/67/4 49/68/4 52/69/4 51/70/4
f 47/66/19 48/65/20 51/71/21 52/72/22
f 48/65/20 46/55/12 50/64/15 51/71/21
f 45/54/13 47/66/19 52/72/22 49/63/14
f 56/73/23 53/74/24 57/75/25 60/76/26
f 55/62/27 54/61/28 58/77/29 59/78/30
f 37/49/1 38/57/1 55/62/1 53/74/1
f 44/50/1 37/49/1 53/74/1 56/73/1
f 57/79/1 59/80/1 58/81/1
f 57/79/1 58/81/1 60/82/1
f 53/74/24 55/62/27 59/78/30 57/75/25
f 54/40/28 56/39/23 60/83/26 58/84/29
