# Blender v2.90.0 Alpha OBJ File: 'Decos.blend'
# www.blender.org
o HVAC_Cube.002
v -1.825331 2.050378 1.064777
v 1.829773 2.050378 1.064777
v 1.829773 2.050379 -1.064776
v -1.825331 2.050379 -1.064776
v -1.825331 1.985074 1.064777
v -1.825331 1.985074 -1.064776
v 1.829773 1.985074 -1.064776
v 1.829773 1.985074 1.064777
v 1.521076 -0.085230 0.840254
v 2.051645 -0.085230 0.840254
v 2.051645 -0.085230 1.194192
v 1.521076 -0.085230 1.194192
v 2.051645 0.158153 0.840254
v 1.521076 0.158153 0.840254
v 1.521076 0.158153 1.194192
v 2.051645 0.158153 1.194192
v 1.521076 -0.085230 -0.840254
v 1.521076 -0.085230 -1.194192
v 2.051645 -0.085230 -1.194192
v 2.051645 -0.085230 -0.840254
v 2.051645 0.158153 -0.840254
v 2.051645 0.158153 -1.194192
v 1.521076 0.158153 -1.194192
v 1.521076 0.158153 -0.840254
v -1.521076 -0.085230 0.840254
v -1.521076 -0.085230 1.194192
v -2.051645 -0.085230 1.194192
v -2.051645 -0.085230 0.840254
v -2.051645 0.158153 0.840254
v -2.051645 0.158153 1.194192
v -1.521076 0.158153 1.194192
v -1.521076 0.158153 0.840254
v -1.521076 -0.085230 -0.840254
v -2.051645 -0.085230 -0.840254
v -2.051645 -0.085230 -1.194192
v -1.521076 -0.085230 -1.194192
v -2.051645 0.158153 -0.840254
v -1.521076 0.158153 -0.840254
v -1.521076 0.158153 -1.194192
v -2.051645 0.158153 -1.194192
v 0.004082 2.024504 -0.009723
v 0.004082 2.024504 1.036974
v -0.736044 2.024504 0.730403
v -1.042613 2.024504 -0.009723
v 0.004082 2.024504 -1.056420
v -0.736044 2.024504 -0.749849
v 0.744209 2.024504 -0.749849
v 1.050780 2.024504 -0.009723
v 0.744209 2.024504 0.730403
v 0.709098 2.535514 -0.714738
v 0.004082 2.535514 -1.006765
v 0.004082 2.535514 -0.890306
v 0.626749 2.535514 -0.632389
v 0.709098 2.535514 0.695292
v 1.001126 2.535514 -0.009723
v 0.884667 2.535514 -0.009723
v 0.626749 2.535514 0.612943
v -0.700933 2.535514 0.695292
v 0.004082 2.535514 0.987319
v 0.004082 2.535514 0.870860
v -0.618584 2.535514 0.612943
v -0.700933 2.535514 -0.714738
v -0.618584 2.535514 -0.632389
v -0.709528 2.504838 -0.723332
v -1.005113 2.504839 -0.009723
v -0.992959 2.535514 -0.009723
v -0.709528 2.504839 0.703887
v 0.004082 2.504838 0.999474
v 0.717693 2.504839 0.703887
v 1.013280 2.504838 -0.009723
v 0.717693 2.504839 -0.723332
v 0.004082 2.504839 -1.018920
v 0.884667 2.293555 -0.009723
v 0.626749 2.293555 0.612943
v 0.004082 2.293555 0.870860
v -0.618584 2.293555 0.612943
v -0.618584 2.293555 -0.632389
v 0.004082 2.293555 -0.890306
v 0.626749 2.293555 -0.632389
v -0.876500 2.535514 -0.009723
v 0.004082 2.293555 -0.009723
v -0.876500 2.293555 -0.009723
v 1.789184 0.211602 1.000000
v 1.789184 0.211602 -1.000000
v 1.763980 0.324978 -0.873738
v 1.763980 0.324978 0.873738
v 1.789184 2.007485 -1.000000
v -1.781019 2.007485 -1.000000
v -1.781019 2.007485 1.000000
v -1.781019 0.211602 1.000000
v -1.781019 0.211602 -1.000000
v 1.763980 1.894109 -0.873738
v 1.763980 1.894109 0.873738
v 1.789184 2.007485 1.000000
v -1.755815 0.324978 0.873738
v -1.755815 0.324978 -0.873738
v 0.004082 2.085854 -0.960567
v 0.676431 2.085854 -0.682070
v 0.004082 2.474164 -0.960567
v 0.676431 2.474164 -0.682070
v 0.954927 2.085854 -0.009723
v 0.676431 2.085854 0.662625
v 0.954927 2.474163 -0.009723
v 0.676431 2.474164 0.662625
v 0.004082 2.085854 0.941121
v -0.668266 2.085854 0.662625
v 0.004082 2.474163 0.941121
v -0.668266 2.474164 0.662625
v -0.668266 2.085854 -0.682070
v -0.668266 2.474163 -0.682070
v -0.946760 2.085854 -0.009723
v -0.946760 2.474164 -0.009723
v -1.755815 1.894109 0.873738
v -1.755815 1.894109 -0.873738
vt 0.242188 0.804688
vt 0.242188 0.804688
vt 0.242188 0.804688
vt 0.242188 0.804688
vt 0.242188 0.804688
vt 0.242188 0.804688
vt 0.242188 0.804688
vt 0.242188 0.804688
vt 0.257812 0.804688
vt 0.257812 0.804688
vt 0.257812 0.804688
vt 0.257812 0.804688
vt 0.257812 0.804688
vt 0.257812 0.804688
vt 0.257812 0.804688
vt 0.257812 0.804688
vt 0.257812 0.804688
vt 0.257812 0.804688
vt 0.257812 0.804688
vt 0.257812 0.804688
vt 0.257812 0.804688
vt 0.257812 0.804688
vt 0.257812 0.804688
vt 0.257812 0.804688
vt 0.257812 0.804688
vt 0.257812 0.804688
vt 0.257812 0.804688
vt 0.257812 0.804688
vt 0.257812 0.804688
vt 0.257812 0.804688
vt 0.257812 0.804688
vt 0.257812 0.804688
vt 0.257812 0.804688
vt 0.257812 0.804688
vt 0.257812 0.804688
vt 0.257812 0.804688
vt 0.257812 0.804688
vt 0.257812 0.804688
vt 0.257812 0.804688
vt 0.257812 0.804688
vt 0.242188 0.804688
vt 0.242188 0.804688
vt 0.242188 0.804688
vt 0.242188 0.804688
vt 0.242188 0.804688
vt 0.242188 0.804688
vt 0.242188 0.804688
vt 0.242188 0.804688
vt 0.242188 0.804688
vt 0.242188 0.804688
vt 0.242188 0.804688
vt 0.242188 0.804688
vt 0.242188 0.804688
vt 0.242188 0.804688
vt 0.242188 0.804688
vt 0.242188 0.804688
vt 0.242188 0.804688
vt 0.242188 0.804688
vt 0.242188 0.804688
vt 0.242188 0.804688
vt 0.242188 0.804688
vt 0.242188 0.804688
vt 0.242188 0.804688
vt 0.242188 0.804688
vt 0.242188 0.804688
vt 0.242188 0.804688
vt 0.242188 0.804688
vt 0.242188 0.804688
vt 0.242188 0.804688
vt 0.242188 0.804688
vt 0.242188 0.804688
vt 0.242188 0.804688
vt 0.257812 0.804688
vt 0.257812 0.804688
vt 0.257812 0.804688
vt 0.257812 0.804688
vt 0.257812 0.804688
vt 0.257812 0.804688
vt 0.257812 0.804688
vt 0.257812 0.804688
vt 0.257812 0.804688
vt 0.257812 0.804688
vt 0.257812 0.804688
vt 0.257812 0.804688
vt 0.257812 0.804688
vt 0.257812 0.804688
vt 0.242188 0.804688
vt 0.132812 0.773438
vt 0.132812 0.773438
vt 0.132812 0.773438
vt 0.132812 0.773438
vt 0.132812 0.773438
vt 0.132812 0.773438
vt 0.132812 0.773438
vt 0.132812 0.773438
vt 0.132812 0.773438
vt 0.257812 0.804688
vt 0.257812 0.804688
vt 0.226562 0.804688
vt 0.226562 0.804688
vt 0.226562 0.804688
vt 0.226562 0.804688
vt 0.148438 0.789062
vt 0.148438 0.789062
vt 0.148438 0.789062
vt 0.257812 0.804688
vt 0.257812 0.804688
vt 0.257812 0.804688
vt 0.257812 0.804688
vt 0.132812 0.773438
vt 0.132812 0.773438
vt 0.132812 0.773438
vt 0.132812 0.773438
vt 0.226562 0.804688
vt 0.226562 0.804688
vt 0.226562 0.804688
vt 0.226562 0.804688
vt 0.226562 0.804688
vt 0.226562 0.804688
vt 0.226562 0.804688
vt 0.226562 0.804688
vt 0.226562 0.804688
vt 0.242188 0.804688
vt 0.242188 0.804688
vt 0.242188 0.804688
vt 0.242188 0.804688
vt 0.148438 0.789062
vt 0.242188 0.804688
vt 0.242188 0.804688
vt 0.242188 0.804688
vt 0.242188 0.804688
vt 0.242188 0.804688
vt 0.242188 0.804688
vt 0.242188 0.804688
vt 0.242188 0.804688
vt 0.242188 0.804688
vt 0.242188 0.804688
vt 0.242188 0.804688
vt 0.242188 0.804688
vt 0.242188 0.804688
vt 0.242188 0.804688
vt 0.242188 0.804688
vt 0.242188 0.804688
vt 0.132812 0.773438
vt 0.132812 0.773438
vt 0.132812 0.773438
vt 0.132812 0.773438
vt 0.226562 0.804688
vt 0.226562 0.804688
vt 0.226562 0.804688
vn 0.0000 1.0000 0.0000
vn 0.0000 -1.0000 -0.0000
vn 1.0000 0.0000 0.0000
vn 0.0000 0.0000 1.0000
vn 0.0000 0.0000 -1.0000
vn -1.0000 0.0000 0.0000
vn 0.4551 0.7654 -0.4551
vn -0.0000 0.7654 -0.6436
vn 0.4551 0.7654 0.4551
vn 0.6436 0.7654 -0.0000
vn -0.4551 0.7654 0.4551
vn -0.0000 0.7654 0.6436
vn -0.4551 0.7654 -0.4551
vn -0.6574 0.3684 -0.6574
vn -0.9297 0.3684 -0.0000
vn -0.6436 0.7654 -0.0000
vn -0.6574 0.3684 0.6574
vn -0.0000 0.3684 0.9297
vn 0.6574 0.3684 0.6574
vn 0.9297 0.3684 -0.0000
vn 0.6574 0.3684 -0.6574
vn -0.0000 0.3684 -0.9297
vn -0.7071 0.0000 -0.7071
vn 0.7071 0.0000 -0.7071
vn 0.7071 -0.0000 0.7071
vn -0.7071 -0.0000 0.7071
vn 0.9762 0.2170 0.0000
vn 0.9762 -0.2170 -0.0000
vn -0.9762 0.2170 0.0000
vn 0.9807 0.0000 -0.1958
vn 0.9807 -0.0000 0.1958
vn 0.3812 0.8423 -0.3812
vn -0.0000 0.8423 -0.5391
vn -0.0000 0.5373 -0.8434
vn 0.5964 0.5373 -0.5964
vn 0.3812 0.8423 0.3812
vn 0.5391 0.8423 0.0000
vn 0.8434 0.5373 -0.0000
vn 0.5964 0.5373 0.5964
vn -0.3812 0.8423 0.3812
vn -0.0000 0.8423 0.5391
vn -0.0000 0.5373 0.8434
vn -0.5964 0.5373 0.5964
vn -0.3812 0.8423 -0.3812
vn -0.5964 0.5373 -0.5964
vn -0.5391 0.8423 0.0000
vn -0.8434 0.5373 0.0000
vn 0.3290 -0.8852 -0.3290
vn 0.0000 -0.8852 -0.4653
vn 0.3290 -0.8852 0.3290
vn 0.4653 -0.8852 0.0000
vn -0.3290 -0.8852 0.3290
vn -0.0000 -0.8852 0.4653
vn -0.3290 -0.8852 -0.3290
vn -0.4653 -0.8852 0.0000
vn -0.9762 -0.2170 -0.0000
vn -0.9807 0.0000 -0.1958
vn -0.9807 0.0000 0.1958
s off
f 1/1/1 2/2/1 3/3/1 4/4/1
f 5/5/2 6/6/2 7/7/2 8/8/2
f 3/3/3 2/2/3 8/8/3 7/7/3
f 2/2/4 1/1/4 5/5/4 8/8/4
f 4/4/5 3/3/5 7/7/5 6/6/5
f 1/1/6 4/4/6 6/6/6 5/5/6
f 9/9/2 10/10/2 11/11/2 12/12/2
f 13/13/1 14/14/1 15/15/1 16/16/1
f 10/10/3 13/13/3 16/16/3 11/11/3
f 11/11/4 16/16/4 15/15/4 12/12/4
f 12/12/6 15/15/6 14/14/6 9/9/6
f 9/9/5 14/14/5 13/13/5 10/10/5
f 17/17/2 18/18/2 19/19/2 20/20/2
f 21/21/1 22/22/1 23/23/1 24/24/1
f 20/20/3 19/19/3 22/22/3 21/21/3
f 19/19/5 18/18/5 23/23/5 22/22/5
f 18/18/6 17/17/6 24/24/6 23/23/6
f 17/17/4 20/20/4 21/21/4 24/24/4
f 25/25/2 26/26/2 27/27/2 28/28/2
f 29/29/1 30/30/1 31/31/1 32/32/1
f 28/28/6 27/27/6 30/30/6 29/29/6
f 27/27/4 26/26/4 31/31/4 30/30/4
f 26/26/3 25/25/3 32/32/3 31/31/3
f 25/25/5 28/28/5 29/29/5 32/32/5
f 33/33/2 34/34/2 35/35/2 36/36/2
f 37/37/1 38/38/1 39/39/1 40/40/1
f 34/34/6 37/37/6 40/40/6 35/35/6
f 35/35/5 40/40/5 39/39/5 36/36/5
f 36/36/3 39/39/3 38/38/3 33/33/3
f 33/33/4 38/38/4 37/37/4 34/34/4
s 1
f 41/41/2 42/42/2 43/43/2 44/44/2
f 45/45/2 41/41/2 44/44/2 46/46/2
f 47/47/2 48/48/2 41/41/2 45/45/2
f 48/48/2 49/49/2 42/42/2 41/41/2
f 50/50/7 51/51/8 52/52/1 53/53/1
f 54/54/9 55/55/10 56/56/1 57/57/1
f 58/58/11 59/59/12 60/60/1 61/61/1
f 51/51/8 62/62/13 63/63/1 52/52/1
f 64/64/14 65/65/15 66/66/16 62/62/13
f 65/65/15 67/67/17 58/58/11 66/66/16
f 68/68/18 69/69/19 54/54/9 59/59/12
f 70/70/20 71/71/21 50/50/7 55/55/10
f 72/72/22 64/64/14 62/62/13 51/51/8
f 67/67/17 68/68/18 59/59/12 58/58/11
f 69/69/19 70/70/20 55/55/10 54/54/9
f 71/71/21 72/72/22 51/51/8 50/50/7
f 57/73/23 56/74/6 73/75/6 74/76/23
f 61/77/24 60/78/5 75/79/5 76/80/24
f 52/81/4 63/82/25 77/83/25 78/84/4
f 56/74/6 53/85/26 79/86/26 73/75/6
f 62/62/13 66/66/16 80/87/1 63/63/1
f 66/66/16 58/58/11 61/61/1 80/87/1
f 59/59/12 54/54/9 57/57/1 60/60/1
f 55/55/10 50/50/7 53/53/1 56/56/1
f 81/88/1 82/89/1 76/90/1 75/91/1
f 78/92/1 77/93/1 82/89/1 81/88/1
f 79/94/1 78/92/1 81/88/1 73/95/1
f 73/95/1 81/88/1 75/91/1 74/96/1
f 53/85/26 52/81/4 78/84/4 79/86/26
f 63/82/25 80/97/3 82/98/3 77/83/25
f 80/97/3 61/77/24 76/80/24 82/98/3
f 60/78/5 57/73/23 74/76/23 75/79/5
f 83/99/27 84/100/27 85/101/27 86/102/27
f 87/103/1 88/104/1 89/105/1
f 84/106/2 83/107/2 90/108/2 91/109/2
f 85/110/3 92/111/3 93/112/3 86/113/3
f 87/114/28 94/115/28 93/116/28 92/117/28
f 90/118/29 95/119/29 96/120/29 91/121/29
f 91/121/5 88/122/5 87/114/5 84/100/5
f 83/123/4 94/124/4 89/125/4 90/126/4
f 87/103/1 89/105/1 94/127/1
f 94/115/30 83/99/30 86/102/30 93/116/30
f 84/100/31 87/114/31 92/117/31 85/101/31
f 47/47/32 45/45/33 97/128/34 98/129/35
f 98/129/35 97/128/34 99/130/5 100/131/24
f 49/49/36 48/48/37 101/132/38 102/133/39
f 102/133/39 101/132/38 103/134/3 104/135/25
f 43/43/40 42/42/41 105/136/42 106/137/43
f 106/137/43 105/136/42 107/138/4 108/139/26
f 45/45/33 46/46/44 109/140/45 97/128/34
f 97/128/34 109/140/45 110/141/23 99/130/5
f 48/48/37 47/47/32 98/129/35 101/132/38
f 101/132/38 98/129/35 100/131/24 103/134/3
f 42/42/41 49/49/36 102/133/39 105/136/42
f 105/136/42 102/133/39 104/135/25 107/138/4
f 44/44/46 43/43/40 106/137/43 111/142/47
f 111/142/47 106/137/43 108/139/26 112/143/6
f 46/46/44 44/44/46 111/142/47 109/140/45
f 109/140/45 111/142/47 112/143/6 110/141/23
f 100/131/48 99/130/49 72/72/49 71/71/48
f 104/135/50 103/134/51 70/70/51 69/69/50
f 108/139/52 107/138/53 68/68/53 67/67/52
f 99/130/49 110/141/54 64/64/54 72/72/49
f 103/134/51 100/131/48 71/71/48 70/70/51
f 107/138/53 104/135/50 69/69/50 68/68/53
f 112/143/55 108/139/52 67/67/52 65/65/55
f 110/141/54 112/143/55 65/65/55 64/64/54
f 96/144/6 95/145/6 113/146/6 114/147/6
f 88/122/56 114/148/56 113/149/56 89/150/56
f 89/150/57 113/149/57 95/119/57 90/118/57
f 91/121/58 96/120/58 114/148/58 88/122/58
