# Blender v2.83.4 OBJ File: 'decos.blend'
# www.blender.org
o soccer-field
v -23.248528 -1.609642 16.423922
v -22.940006 -0.059690 16.205967
v -22.940006 -0.059678 -16.205967
v -23.248528 -1.609630 -16.423922
v 22.940006 -0.059678 -16.205967
v 23.248528 -1.609630 -16.423922
v 22.940006 -0.059690 16.205967
v 23.248528 -1.609642 16.423922
v -23.248528 -13.250404 16.423922
v -23.248528 -13.250393 -16.423922
v 23.248528 -13.250393 -16.423922
v 23.248528 -13.250404 16.423922
vt 0.101562 0.820312
vt 0.101562 0.820312
vt 0.101562 0.820312
vt 0.101562 0.820312
vt 0.101562 0.820312
vt 0.101562 0.820312
vt 0.101562 0.820312
vt 0.101562 0.820312
vt 0.101562 0.820312
vt 0.101562 0.820312
vt 0.101562 0.820312
vt 0.101562 0.820312
vn -0.9808 0.1952 0.0000
vn 0.0000 0.1393 -0.9903
vn 0.9808 0.1952 0.0000
vn 0.0000 0.1393 0.9903
vn 0.0000 1.0000 0.0000
vn 0.7071 0.0000 -0.7071
vn -0.7071 0.0000 -0.7071
vn -0.7071 0.0000 0.7071
vn 0.7071 0.0000 0.7071
s 1
f 1/1/1 2/2/1 3/3/1 4/4/1
f 4/4/2 3/3/2 5/5/2 6/6/2
f 6/6/3 5/5/3 7/7/3 8/8/3
f 8/8/4 7/7/4 2/2/4 1/1/4
f 2/2/5 7/7/5 5/5/5 3/3/5
f 6/6/6 11/9/6 10/10/7 4/4/7
f 4/4/7 10/10/7 9/11/8 1/1/8
f 8/8/9 12/12/9 11/9/6 6/6/6
f 1/1/8 9/11/8 12/12/9 8/8/9
