# Blender v2.91.0 Beta OBJ File: 'HOUSE.blend'
# www.blender.org
o Cube.018
v 2.678799 5.224272 2.963424
v 0.315418 2.598294 2.963424
v 2.678799 2.598293 2.963424
v 0.315418 5.224273 -2.963424
v 2.678799 2.598293 -2.963424
v 0.315418 2.598294 -2.963424
v 0.315418 5.224273 2.963424
v 2.678799 5.224272 -2.963424
v -2.963424 2.624272 -0.121201
v -2.963424 -0.001707 -2.484582
v -2.963424 -0.001707 -0.121201
v 2.963424 2.624272 -2.484582
v 2.963424 -0.001707 -0.121201
v 2.963424 -0.001707 -2.484582
v -2.963424 2.624272 -2.484582
v 2.963424 2.624272 -0.121201
v -2.963424 2.624272 2.578799
v -2.963424 -0.001707 0.215418
v -2.963424 -0.001707 2.578799
v 2.963424 2.624272 0.215418
v 2.963424 -0.001707 2.578799
v 2.963424 -0.001707 0.215418
v -2.963424 2.624272 0.215418
v 2.963424 2.624272 2.578799
v -0.321201 5.224272 2.963423
v -2.684582 2.598294 2.963424
v -0.321201 2.598293 2.963423
v -2.684582 5.224273 -2.963424
v -0.321201 2.598293 -2.963424
v -2.684582 2.598294 -2.963424
v -2.684582 5.224273 2.963424
v -0.321201 5.224272 -2.963424
vt 0.362793 0.942871
vt 0.410645 0.887207
vt 0.362793 0.887207
vt 0.410645 0.942871
vt 0.362793 0.887207
vt 0.410645 0.887207
vt 0.362793 0.999512
vt 0.473145 0.944824
vt 0.362793 0.944824
vt 0.473145 0.999512
vt 0.362793 0.944824
vt 0.473145 0.944824
vt 0.473145 0.944824
vt 0.473145 0.999512
vt 0.410645 0.942871
vt 0.362793 0.942871
vt 0.362793 0.999512
vt 0.362793 0.944824
vt 0.362793 0.942871
vt 0.410645 0.887207
vt 0.362793 0.887207
vt 0.410645 0.942871
vt 0.362793 0.887207
vt 0.410645 0.887207
vt 0.362793 0.999512
vt 0.473145 0.944824
vt 0.362793 0.944824
vt 0.473145 0.999512
vt 0.362793 0.944824
vt 0.473145 0.944824
vt 0.473145 0.944824
vt 0.473145 0.999512
vt 0.410645 0.942871
vt 0.362793 0.942871
vt 0.362793 0.999512
vt 0.362793 0.944824
vt 0.250488 0.828613
vt 0.298340 0.772949
vt 0.250488 0.772949
vt 0.298340 0.828613
vt 0.250488 0.772949
vt 0.298340 0.772949
vt 0.250488 0.885254
vt 0.360840 0.830566
vt 0.250488 0.830566
vt 0.360840 0.885254
vt 0.250488 0.830566
vt 0.360840 0.830566
vt 0.360840 0.830566
vt 0.360840 0.885254
vt 0.298340 0.828613
vt 0.250488 0.828613
vt 0.250488 0.885254
vt 0.250488 0.830566
vt 0.362793 0.828613
vt 0.410645 0.772949
vt 0.362793 0.772949
vt 0.410645 0.828613
vt 0.362793 0.772949
vt 0.410645 0.772949
vt 0.362793 0.885254
vt 0.473145 0.830566
vt 0.362793 0.830566
vt 0.473145 0.885254
vt 0.362793 0.830566
vt 0.473145 0.830566
vt 0.473145 0.830566
vt 0.473145 0.885254
vt 0.410645 0.828613
vt 0.362793 0.828613
vt 0.362793 0.885254
vt 0.362793 0.830566
vn -0.0000 0.0000 1.0000
vn -0.0000 0.0000 -1.0000
vn -1.0000 0.0000 0.0000
vn 1.0000 -0.0000 0.0000
vn 0.0000 1.0000 0.0000
s 1
f 1/1/1 2/2/1 3/3/1
f 4/4/2 5/5/2 6/6/2
f 7/7/3 6/8/3 2/9/3
f 8/10/4 3/11/4 5/12/4
f 7/7/5 8/13/5 4/14/5
f 1/1/1 7/15/1 2/2/1
f 4/4/2 8/16/2 5/5/2
f 7/7/3 4/14/3 6/8/3
f 8/10/4 1/17/4 3/11/4
f 7/7/5 1/18/5 8/13/5
f 9/19/3 10/20/3 11/21/3
f 12/22/4 13/23/4 14/24/4
f 15/25/2 14/26/2 10/27/2
f 16/28/1 11/29/1 13/30/1
f 15/25/5 16/31/5 12/32/5
f 9/19/3 15/33/3 10/20/3
f 12/22/4 16/34/4 13/23/4
f 15/25/2 12/32/2 14/26/2
f 16/28/1 9/35/1 11/29/1
f 15/25/5 9/36/5 16/31/5
f 17/37/3 18/38/3 19/39/3
f 20/40/4 21/41/4 22/42/4
f 23/43/2 22/44/2 18/45/2
f 24/46/1 19/47/1 21/48/1
f 23/43/5 24/49/5 20/50/5
f 17/37/3 23/51/3 18/38/3
f 20/40/4 24/52/4 21/41/4
f 23/43/2 20/50/2 22/44/2
f 24/46/1 17/53/1 19/47/1
f 23/43/5 17/54/5 24/49/5
f 25/55/1 26/56/1 27/57/1
f 28/58/2 29/59/2 30/60/2
f 31/61/3 30/62/3 26/63/3
f 32/64/4 27/65/4 29/66/4
f 31/61/5 32/67/5 28/68/5
f 25/55/1 31/69/1 26/56/1
f 28/58/2 32/70/2 29/59/2
f 31/61/3 28/68/3 30/62/3
f 32/64/4 25/71/4 27/65/4
f 31/61/5 25/72/5 32/67/5
