# Blender v2.91.0 Beta OBJ File: 'HOUSE.blend'
# www.blender.org
o tree.002_tree.007_tree.002_tree.001
v -3.612030 -0.640366 -1.003584
v -3.612030 12.273355 -1.003584
v -2.596959 -0.640366 -2.708701
v -2.596959 12.273355 -2.708701
v -0.865326 -0.640368 -3.677835
v -0.865322 12.273359 -3.677835
v 1.118883 -0.640366 -3.651318
v 1.118887 12.273359 -3.651318
v 2.823997 -0.640366 -2.636241
v 2.823997 12.273359 -2.636241
v 3.793131 -0.640368 -0.904615
v 3.793134 12.273359 -0.904615
v 3.766611 -0.640368 1.079603
v 3.766614 12.273359 1.079603
v 2.751541 -0.640366 2.784713
v 2.751541 12.273359 2.784713
v 1.019905 -0.640366 3.753848
v 1.019905 12.273359 3.753848
v -0.964305 -0.640368 3.727324
v -0.964302 12.273359 3.727324
v -2.669415 -0.640366 2.712260
v -2.669415 12.273355 2.712260
v -3.638554 -0.640366 0.980620
v -3.638554 12.273355 0.980620
v 0.986660 12.953424 3.619644
v -2.573353 12.953424 2.612936
v 0.986660 12.270018 3.619644
v -2.573353 12.270018 2.612936
v -0.910887 12.953424 3.583849
v -0.910887 12.270018 3.583849
v 3.642621 12.953424 1.046803
v 0.990781 12.953424 3.626503
v 3.642621 12.270018 1.046803
v 0.990781 12.270018 3.626503
v 2.662849 12.953424 2.672234
v 2.662849 12.270018 2.672234
v 2.742450 12.953424 -2.539758
v 3.650626 12.953424 1.046656
v 2.742450 12.270018 -2.539758
v 3.650626 12.270018 1.046656
v 3.660228 12.953424 -0.878525
v 3.660228 12.270018 -0.878525
v 2.746334 12.953409 -2.546751
v 2.746334 12.270018 -2.546751
v 1.083862 12.953409 -3.517670
v 1.083862 12.270018 -3.517670
v -3.469645 12.953409 -0.980617
v -3.469645 12.270018 -0.980617
v -2.489868 12.953409 -2.606048
v -2.489868 12.270018 -2.606048
v -2.569476 12.953409 2.605945
v -3.477640 12.953409 -0.980476
v -2.569476 12.270018 2.605945
v -3.477640 12.270018 -0.980476
v -3.487245 12.953409 0.944712
v -3.487245 12.270018 0.944712
v -0.304035 12.953409 -3.546326
v -1.281484 12.953409 -3.292371
v -1.281484 12.270018 -3.292371
v -0.304035 12.270018 -3.546326
vt 0.053223 0.302246
vt 0.056152 0.304199
vt 0.056152 0.306152
vt 0.121832 0.255371
vt 0.061174 0.239746
vt 0.061160 0.255371
vt 0.000488 0.239746
vt 0.000488 0.255371
vt 0.121832 0.255371
vt 0.061174 0.239746
vt 0.061160 0.255371
vt 0.000488 0.239746
vt 0.000488 0.255371
vt 0.121832 0.255371
vt 0.061174 0.239746
vt 0.061160 0.255371
vt 0.000488 0.239746
vt 0.000488 0.255371
vt 0.121832 0.255371
vt 0.061174 0.239746
vt 0.061160 0.255371
vt 0.104953 0.255371
vt 0.061174 0.239746
vt 0.061160 0.255371
vt 0.000488 0.239746
vt 0.000488 0.255371
vt 0.121832 0.255371
vt 0.061174 0.239746
vt 0.061160 0.255371
vt 0.000488 0.239746
vt 0.000488 0.255371
vt 0.016835 0.239746
vt 0.016832 0.255371
vt 0.054199 0.308105
vt 0.053223 0.308105
vt 0.053223 0.308105
vt 0.051270 0.306152
vt 0.051270 0.305176
vt 0.051270 0.304199
vt 0.053223 0.302246
vt 0.054199 0.302246
vt 0.056152 0.305176
vt 0.121859 0.239746
vt 0.121859 0.239746
vt 0.121859 0.239746
vt 0.121859 0.239746
vt 0.104976 0.239746
vt 0.121859 0.239746
vt 0.024902 0.409668
vt 0.030762 0.353027
vt 0.024902 0.353027
vt 0.030762 0.409668
vt 0.036621 0.353027
vt 0.040527 0.409668
vt 0.036621 0.353027
vt 0.040527 0.353027
vt 0.036621 0.409668
vt 0.030762 0.353027
vt 0.024902 0.409668
vt 0.024902 0.353027
vt 0.017090 0.353027
vt 0.017090 0.409668
vt 0.011230 0.353027
vt 0.011230 0.409668
vt 0.005371 0.353027
vt 0.000488 0.353027
vt 0.005371 0.409668
vt 0.005371 0.353027
vt 0.011230 0.353027
vt 0.011230 0.409668
vt 0.017090 0.353027
vt 0.017090 0.409668
vt 0.036621 0.409668
vt 0.030762 0.409668
vt 0.005371 0.409668
vt 0.000488 0.409668
vn 0.0000 1.0000 0.0000
vn -0.5043 0.0000 0.8635
vn -0.0189 0.0000 0.9998
vn 0.4957 0.0000 0.8685
vn 0.8564 0.0000 0.5162
vn 1.0000 0.0000 0.0050
vn 0.8753 0.0000 -0.4836
vn 0.5043 0.0000 -0.8635
vn -0.4939 0.0000 -0.8695
vn -0.8564 0.0000 -0.5162
vn -1.0000 0.0000 -0.0050
vn -0.8753 0.0000 0.4836
vn 0.0206 0.0000 -0.9998
vn -0.9624 0.0000 -0.2717
vn -0.6976 0.0000 -0.7165
vn -0.2459 0.0000 -0.9693
vn 0.2717 -0.0000 -0.9624
vn 0.7165 -0.0000 -0.6976
vn 0.9693 -0.0000 -0.2459
vn 0.9624 -0.0000 0.2717
vn 0.6976 -0.0000 0.7165
vn 0.2459 0.0000 0.9693
vn -0.2717 0.0000 0.9624
vn -0.7165 0.0000 0.6976
vn -0.9693 0.0000 0.2459
s off
f 14/1/1 10/2/1 6/3/1
f 26/4/2 30/5/2 29/6/2
f 29/6/3 27/7/3 25/8/3
f 32/9/4 36/10/4 35/11/4
f 35/11/5 33/12/5 31/13/5
f 38/14/6 42/15/6 41/16/6
f 41/16/7 39/17/7 37/18/7
f 43/19/8 46/20/8 45/21/8
f 58/22/9 50/23/9 49/24/9
f 49/24/10 48/25/10 47/26/10
f 52/27/11 56/28/11 55/29/11
f 55/29/12 53/30/12 51/31/12
f 45/21/13 60/32/13 57/33/13
f 6/3/1 4/34/1 2/35/1
f 2/35/1 24/36/1 22/37/1
f 22/37/1 20/38/1 18/39/1
f 18/39/1 16/40/1 14/1/1
f 14/1/1 12/41/1 10/2/1
f 10/2/1 8/42/1 6/3/1
f 6/3/1 2/35/1 22/37/1
f 22/37/1 18/39/1 6/3/1
f 18/39/1 14/1/1 6/3/1
f 26/4/2 28/43/2 30/5/2
f 29/6/3 30/5/3 27/7/3
f 32/9/4 34/44/4 36/10/4
f 35/11/5 36/10/5 33/12/5
f 38/14/6 40/45/6 42/15/6
f 41/16/7 42/15/7 39/17/7
f 43/19/8 44/46/8 46/20/8
f 58/22/9 59/47/9 50/23/9
f 49/24/10 50/23/10 48/25/10
f 52/27/11 54/48/11 56/28/11
f 55/29/12 56/28/12 53/30/12
f 45/21/13 46/20/13 60/32/13
s 1
f 2/49/14 3/50/15 1/51/14
f 4/52/15 5/53/16 3/50/15
f 6/54/16 7/55/17 5/56/16
f 8/57/17 9/58/18 7/55/17
f 9/58/18 12/59/19 11/60/19
f 12/59/19 13/61/20 11/60/19
f 14/62/20 15/63/21 13/61/20
f 16/64/21 17/65/22 15/63/21
f 17/66/22 20/67/23 19/68/23
f 20/67/23 21/69/24 19/68/23
f 22/70/24 23/71/25 21/69/24
f 24/72/25 1/51/14 23/71/25
f 2/49/14 4/52/15 3/50/15
f 4/52/15 6/73/16 5/53/16
f 6/54/16 8/57/17 7/55/17
f 8/57/17 10/74/18 9/58/18
f 9/58/18 10/74/18 12/59/19
f 12/59/19 14/62/20 13/61/20
f 14/62/20 16/64/21 15/63/21
f 16/64/21 18/75/22 17/65/22
f 17/66/22 18/76/22 20/67/23
f 20/67/23 22/70/24 21/69/24
f 22/70/24 24/72/25 23/71/25
f 24/72/25 2/49/14 1/51/14
