# Blender v2.91.0 Beta OBJ File: 'HOUSE.blend'
# www.blender.org
o tree.002_tree.010_tree.002_tree.001_tree.002_tree.010_tree.002_tree.006
v -9.823917 5.528782 8.672340
v -28.146439 5.528785 -9.643822
v -28.140158 5.530489 8.684753
v 8.533443 5.530489 8.678619
v -9.795349 5.530494 -9.672264
v 26.856136 5.528785 -9.643822
v 26.862011 5.528782 8.672340
v -19.461826 0.921298 8.672333
v -9.803970 0.921296 8.672424
v -19.461826 5.528780 8.672340
v -28.134027 0.921296 8.672424
v -18.486008 0.921301 -9.665977
v -28.168604 0.921302 -9.666344
v -18.486008 5.528781 -9.665985
v -9.813808 0.921299 -9.666069
v -28.146442 0.921300 -0.005913
v -28.146442 5.528780 -0.005913
v -1.131771 0.921298 8.672333
v 8.550827 0.921299 8.672691
v -1.131771 5.528780 8.672340
v -0.155949 0.921301 -9.665977
v -0.155949 5.528781 -9.665985
v 8.516251 0.921299 -9.666069
v 17.195877 0.921298 8.672333
v 26.878475 0.921299 8.672691
v 17.195877 5.528780 8.672340
v 8.533787 5.528785 -9.665985
v 18.171696 0.921301 -9.665977
v 18.171696 5.528781 -9.665985
v 26.843899 0.921299 -9.666069
v 26.856136 0.921300 -0.005913
v 26.856136 5.528780 -0.005913
vt 0.248535 0.750488
vt 0.000488 0.998535
vt 0.000488 0.750488
vt 0.248535 0.750488
vt 0.000488 0.998535
vt 0.000488 0.750488
vt 0.248535 0.998535
vt 0.000488 0.750488
vt 0.248535 0.750488
vt 0.000488 0.126465
vt 0.124512 0.081543
vt -0.000488 0.080566
vt 0.124512 0.126465
vt 0.249512 0.081543
vt 0.000488 0.126465
vt 0.124512 0.081543
vt -0.000488 0.080566
vt 0.124512 0.126465
vt 0.249512 0.081543
vt 0.000488 0.081543
vt 0.124512 0.036621
vt 0.124512 0.081543
vt 0.124512 0.126465
vt 0.249512 0.126465
vt 0.000488 0.126465
vt 0.124512 0.081543
vt -0.000488 0.080566
vt 0.124512 0.126465
vt 0.249512 0.081543
vt 0.000488 0.126465
vt 0.124512 0.081543
vt -0.000488 0.080566
vt 0.124512 0.126465
vt 0.249512 0.081543
vt 0.000488 0.126465
vt 0.124512 0.081543
vt -0.000488 0.080566
vt 0.124512 0.126465
vt 0.249512 0.081543
vt 0.000488 0.126465
vt 0.124512 0.081543
vt -0.000488 0.080566
vt 0.124512 0.126465
vt 0.249512 0.081543
vt 0.000488 0.082520
vt 0.124512 0.037598
vt -0.000488 0.036621
vt 0.249512 0.082520
vt 0.124512 0.082520
vt 0.248535 0.998535
vt 0.248535 0.998535
vt 0.000488 0.998535
vt 0.249512 0.126465
vt -0.000488 0.035645
vt 0.124512 0.081543
vt 0.249512 0.126465
vt 0.249512 0.126465
vt 0.249512 0.126465
vt 0.249512 0.126465
vt 0.249512 0.037598
vn 0.0001 1.0000 -0.0001
vn 0.0011 1.0000 -0.0005
vn -0.0001 1.0000 0.0001
vn 0.0009 1.0000 -0.0003
vn 0.0001 1.0000 0.0000
vn 0.0012 1.0000 -0.0002
vn -0.0000 0.0000 1.0000
vn 0.0011 0.0001 1.0000
vn 0.0007 0.0009 1.0000
vn -0.0017 0.0027 1.0000
vn 0.0009 0.0011 -1.0000
vn 0.0014 0.0018 -1.0000
vn 0.0011 0.0013 -1.0000
vn -0.0004 -0.0008 -1.0000
vn -0.0000 -0.0000 -1.0000
vn 0.0013 0.0016 -1.0000
vn -1.0000 -0.0029 0.0028
vn -1.0000 -0.0039 -0.0012
vn -1.0000 -0.0038 -0.0012
vn -1.0000 0.0013 -0.0007
vn -1.0000 0.0002 0.0002
vn -1.0000 0.0010 0.0004
vn 0.0000 -0.0001 1.0000
vn 0.0020 -0.0008 1.0000
vn 0.0003 -0.0002 1.0000
vn 0.0008 -0.0019 1.0000
vn 0.0001 -0.0011 1.0000
vn -0.0008 0.0005 1.0000
vn 0.0000 -0.0003 -1.0000
vn -0.0018 -0.0009 -1.0000
vn 0.0000 -0.0013 -1.0000
vn -0.0008 -0.0020 -1.0000
vn -0.0001 -0.0011 -1.0000
vn 0.0008 0.0005 -1.0000
vn -0.0000 0.0001 1.0000
vn 0.0011 0.0002 1.0000
vn 0.0005 -0.0010 1.0000
vn -0.0013 0.0016 1.0000
vn -0.0010 0.0001 -1.0000
vn -0.0022 -0.0057 -1.0000
vn -0.0002 -0.0051 -1.0000
vn -0.0003 -0.0032 -1.0000
vn 1.0000 -0.0009 -0.0000
vn 1.0000 -0.0017 -0.0035
vn 1.0000 -0.0005 -0.0006
vn 1.0000 -0.0030 -0.0031
vn 1.0000 0.0002 0.0023
vn 1.0000 -0.0038 0.0006
vn 0.0000 1.0000 -0.0001
vn 0.0005 1.0000 -0.0009
vn 0.0009 0.0007 1.0000
vn 0.0014 -0.0027 1.0000
vn 0.0010 -0.0016 1.0000
vn 0.0014 -0.0014 -1.0000
vn -0.0012 -0.0038 -1.0000
vn -0.0032 -0.0032 -1.0000
vn -0.0001 -0.0021 -1.0000
vn -0.0011 -0.0022 -1.0000
vn -0.0007 -0.0013 -1.0000
vn -1.0000 0.0010 0.0010
vn -1.0000 0.0010 0.0011
vn -1.0000 0.0010 0.0038
vn -1.0000 0.0029 0.0020
vn -1.0000 0.0004 -0.0002
vn -1.0000 0.0005 -0.0001
vn 0.0000 0.0007 1.0000
vn -0.0003 0.0010 1.0000
vn 0.0004 0.0017 1.0000
vn -0.0012 -0.0016 1.0000
vn 0.0007 -0.0019 1.0000
vn 0.0007 -0.0008 1.0000
vn -0.0001 0.0008 -1.0000
vn 0.0003 0.0010 -1.0000
vn -0.0004 0.0017 -1.0000
vn 0.0013 -0.0017 -1.0000
vn -0.0007 -0.0018 -1.0000
vn -0.0006 -0.0007 -1.0000
vn 0.0001 -0.0022 1.0000
vn 0.0011 -0.0023 1.0000
vn 0.0007 -0.0013 1.0000
vn -0.0007 0.0006 -1.0000
vn 0.0064 -0.0000 -1.0000
vn 0.0005 -0.0009 -1.0000
vn -0.0007 0.0009 -1.0000
vn 1.0000 0.0022 -0.0000
vn 1.0000 0.0021 0.0006
vn 1.0000 0.0024 -0.0003
vn 1.0000 -0.0001 -0.0012
vn 1.0000 0.0007 -0.0006
vn 1.0000 0.0022 0.0001
s off
f 1/1/1 2/2/1 3/3/2
f 4/4/3 5/5/3 1/6/4
f 6/7/5 4/8/6 7/9/5
f 1/10/7 8/11/8 9/12/7
f 10/13/7 11/14/9 8/11/10
f 2/15/11 12/16/12 13/17/13
f 14/18/14 15/19/15 12/16/16
f 2/20/17 16/21/18 17/22/19
f 17/23/20 11/14/21 3/24/22
f 4/25/23 18/26/24 19/27/25
f 20/28/26 9/29/27 18/26/28
f 5/30/29 21/31/30 15/32/31
f 22/33/32 23/34/33 21/31/34
f 7/35/35 24/36/36 25/37/35
f 26/38/37 19/39/7 24/36/38
f 27/40/15 28/41/39 23/42/15
f 29/43/40 30/44/41 28/41/42
f 6/45/43 31/46/44 30/47/45
f 7/48/46 31/46/47 32/49/48
f 1/1/3 5/50/3 2/2/3
f 4/4/1 27/51/1 5/5/1
f 6/7/49 27/52/49 4/8/50
f 1/10/7 10/13/7 8/11/51
f 10/13/52 3/24/52 11/14/53
f 2/15/54 14/18/55 12/16/56
f 14/18/57 5/53/58 15/19/59
f 2/20/60 13/54/61 16/21/62
f 17/23/63 16/55/64 11/14/65
f 4/25/66 20/28/67 18/26/68
f 20/28/69 1/56/70 9/29/71
f 5/30/72 22/33/73 21/31/74
f 22/33/75 27/57/76 23/34/77
f 7/35/7 26/38/7 24/36/51
f 26/38/78 4/58/79 19/39/80
f 27/40/15 29/43/15 28/41/81
f 29/43/82 6/59/83 30/44/84
f 6/45/85 32/49/86 31/46/87
f 7/48/88 25/60/89 31/46/90
