# Blender v2.91.0 Beta OBJ File: 'decos.blend'
# www.blender.org
o IndustrialCatWalk_PipeStraightTillable_Cube.007
v 0.000000 0.125926 -0.969422
v 0.000000 0.125926 0.969423
v 8.609451 3.519945 0.969425
v 8.609451 3.519945 -0.969420
v 0.000000 -0.000000 0.969423
v 8.609451 3.394019 0.969425
v 0.000000 0.000000 -0.969422
v 8.609451 3.394019 -0.969420
v 8.609453 5.032324 0.924337
v 0.000000 1.638304 0.924334
v 0.000000 1.767130 0.924334
v 8.609453 5.161150 0.924337
v 8.609453 5.032324 1.081786
v 8.609453 5.161150 1.081786
v 0.000000 1.767130 1.081783
v 0.000000 1.638304 1.081783
v 8.609453 5.032324 -0.924329
v 8.609453 5.161151 -0.924329
v 0.000000 1.767131 -0.924332
v 0.000000 1.638304 -0.924332
v 8.609453 5.032324 -1.081777
v 0.000000 1.638304 -1.081780
v 0.000000 1.767131 -1.081780
v 8.609453 5.161151 -1.081777
v 8.609453 3.519946 -0.969420
v 8.609453 3.519945 0.969425
v 17.224705 6.914768 0.987392
v 17.224705 6.914768 -0.921170
v 8.609453 3.394019 0.969425
v 17.224705 6.788842 0.987392
v 8.609453 3.394020 -0.969420
v 17.224705 6.788842 -0.921170
v 17.224703 8.427146 0.942302
v 8.609453 5.032324 0.924337
v 8.609453 5.161150 0.924337
v 17.224703 8.555973 0.942302
v 17.224703 8.427146 1.096058
v 17.224703 8.555973 1.096058
v 8.609453 5.161150 1.081786
v 8.609453 5.032324 1.081786
v 17.218906 8.426344 -0.924328
v 17.218906 8.555171 -0.924328
v 8.609453 5.161151 -0.924329
v 8.609453 5.032324 -0.924329
v 17.218906 8.426344 -1.081776
v 8.609453 5.032324 -1.081777
v 8.609453 5.161151 -1.081777
v 17.218906 8.555171 -1.081776
v 17.836746 6.788842 -0.921170
v 19.886101 6.788842 0.987392
v 20.000000 8.555974 0.860193
v 19.840391 8.555974 0.860193
v 19.723307 8.555974 0.942302
v 19.836170 8.555974 1.096058
v 20.000000 8.555978 -3.240889
v 19.840391 8.555978 -3.240889
v 19.840391 8.427151 -3.240889
v 19.840391 8.427147 0.860193
v 20.000000 8.427147 0.860193
v 20.000000 8.427151 -3.240889
v 19.886101 6.914768 -1.190349
v 17.920626 6.914768 -1.190349
v 17.836746 6.914768 -0.921170
v 19.886101 6.914768 0.987392
v 17.920626 6.788842 -1.190349
v 19.886101 6.788843 -1.190349
v 19.886101 6.788846 -3.368088
v 19.886101 6.914773 -3.368088
v 19.723307 8.427147 0.942302
v 19.836170 8.427147 1.096058
v 17.836746 6.788842 -1.459526
v 17.224705 6.788846 -3.368088
v 19.836170 8.555978 -3.476753
v 19.723307 8.555978 -3.322998
v 17.836746 6.914768 -1.459526
v 17.224705 6.914768 -1.459526
v 17.224705 6.788842 -1.459526
v 17.224703 8.555977 -3.476753
v 17.224703 8.555977 -3.322998
v 19.723307 8.427151 -3.322998
v 19.836170 8.427151 -3.476753
v 17.224703 8.427150 -3.322998
v 17.224703 8.427150 -3.476753
v 17.224705 6.914773 -3.368088
vt 0.835938 0.414062
vt 0.835938 0.414062
vt 0.835938 0.414062
vt 0.835938 0.414062
vt 0.835938 0.445312
vt 0.835938 0.445312
vt 0.835938 0.445312
vt 0.835938 0.445312
vt 0.835938 0.445312
vt 0.835938 0.445312
vt 0.835938 0.445312
vt 0.835938 0.445312
vt 0.835938 0.445312
vt 0.835938 0.445312
vt 0.835938 0.445312
vt 0.835938 0.445312
vt 0.835938 0.445312
vt 0.835938 0.445312
vt 0.835938 0.445312
vt 0.835938 0.445312
vt 0.835938 0.476562
vt 0.835938 0.476562
vt 0.835938 0.476562
vt 0.835938 0.476562
vt 0.835938 0.445312
vt 0.835938 0.445312
vt 0.835938 0.445312
vt 0.835938 0.445312
vt 0.835938 0.445312
vt 0.835938 0.445312
vt 0.835938 0.445312
vt 0.835938 0.445312
vt 0.835938 0.476562
vt 0.835938 0.476562
vt 0.835938 0.476562
vt 0.835938 0.476562
vt 0.835938 0.414062
vt 0.835938 0.414062
vt 0.835938 0.414062
vt 0.835938 0.414062
vt 0.835938 0.445312
vt 0.835938 0.445312
vt 0.835938 0.445312
vt 0.835938 0.445312
vt 0.835938 0.445312
vt 0.835938 0.445312
vt 0.835938 0.445312
vt 0.835938 0.445312
vt 0.835938 0.445312
vt 0.835938 0.445312
vt 0.835938 0.445312
vt 0.835938 0.445312
vt 0.835938 0.445312
vt 0.835938 0.445312
vt 0.835938 0.445312
vt 0.835938 0.445312
vt 0.835938 0.476562
vt 0.835938 0.476562
vt 0.835938 0.476562
vt 0.835938 0.476562
vt 0.835938 0.445312
vt 0.835938 0.445312
vt 0.835938 0.445312
vt 0.835938 0.445312
vt 0.835938 0.445312
vt 0.835938 0.445312
vt 0.835938 0.445312
vt 0.835938 0.445312
vt 0.835938 0.476562
vt 0.835938 0.476562
vt 0.835938 0.476562
vt 0.835938 0.476562
vt 0.835938 0.445312
vt 0.835938 0.445312
vt 0.835938 0.476562
vt 0.835938 0.476562
vt 0.835938 0.476562
vt 0.835938 0.476562
vt 0.835938 0.476562
vt 0.835938 0.476562
vt 0.835938 0.445312
vt 0.835938 0.445312
vt 0.835938 0.445312
vt 0.835938 0.445312
vt 0.835938 0.445312
vt 0.835938 0.445312
vt 0.835938 0.445312
vt 0.835938 0.445312
vt 0.835938 0.414062
vt 0.835938 0.414062
vt 0.835938 0.414062
vt 0.835938 0.414062
vt 0.835938 0.445312
vt 0.835938 0.445312
vt 0.835938 0.445312
vt 0.835938 0.445312
vt 0.835938 0.445312
vt 0.835938 0.445312
vt 0.835938 0.445312
vt 0.835938 0.445312
vt 0.835938 0.445312
vt 0.835938 0.445312
vt 0.835938 0.445312
vt 0.835938 0.445312
vt 0.835938 0.445312
vt 0.835938 0.445312
vt 0.835938 0.476562
vt 0.835938 0.476562
vt 0.835938 0.414062
vt 0.835938 0.414062
vt 0.835938 0.445312
vt 0.835938 0.445312
vt 0.835938 0.445312
vt 0.835938 0.476562
vt 0.835938 0.476562
vt 0.835938 0.445312
vt 0.835938 0.445312
vt 0.835938 0.445312
vt 0.835938 0.445312
vt 0.835938 0.445312
vt 0.835938 0.445312
vt 0.835938 0.445312
vt 0.835938 0.445312
vt 0.835938 0.445312
vt 0.835938 0.414062
vt 0.835938 0.414062
vn -0.3668 0.9303 0.0000
vn -0.0000 -0.0000 1.0000
vn -1.0000 0.0000 0.0000
vn -0.0000 0.0000 -1.0000
vn 1.0000 0.0000 0.0000
vn 0.3668 -0.9303 0.0000
vn -0.3666 0.9304 0.0000
vn 0.0004 -0.0089 1.0000
vn 0.0005 0.0088 1.0000
vn -0.0001 -0.0000 -1.0000
vn 0.0021 0.0000 -1.0000
vn 0.0006 -0.0000 -1.0000
vn 0.0002 0.0000 1.0000
vn 0.3666 -0.9304 0.0000
vn 0.1590 -0.9634 0.2160
vn 0.0000 -1.0000 -0.0000
vn 0.0126 -0.9999 -0.0000
vn 0.0000 1.0000 -0.0000
vn -0.2682 0.9634 0.0000
vn -0.9547 0.0000 -0.2975
vn -0.8633 0.1896 -0.4676
vn -0.8400 0.0000 -0.5427
vn 0.0000 -0.2682 -0.9634
vn -0.1896 0.1896 -0.9634
vn -0.2398 0.1385 -0.9609
vn 0.1780 -0.2122 -0.9609
vn -0.5742 0.0000 -0.8187
vn 0.8213 0.0000 0.5705
vn 0.2122 0.9609 0.1780
vn 0.0126 0.9999 -0.0000
vn 0.1385 -0.9609 -0.2398
vn -0.0900 -0.9955 0.0291
vn -0.0602 -0.9908 -0.1212
vn -0.0044 -1.0000 0.0044
vn 0.0898 0.9829 -0.1608
vn -0.9547 0.0000 0.2975
vn -0.9762 -0.1896 0.1056
vn -0.9995 -0.0000 0.0306
vn -0.1622 -0.9634 0.2136
vn -0.0000 0.2682 0.9634
vn 0.1896 -0.1896 0.9634
vn 0.2398 -0.1385 0.9609
vn -0.1780 0.2122 0.9609
vn -0.5742 0.0000 0.8187
vn 0.8213 0.0000 -0.5705
vn -0.9609 0.2398 0.1385
vn -0.9999 0.0000 -0.0126
vn -0.9609 0.1780 0.2122
vn 0.0000 0.0126 -0.9999
vn 0.0000 -0.0126 -0.9999
vn 0.1628 0.9621 0.2186
vn -0.0126 0.9999 0.0000
vn -0.1385 -0.9609 -0.2398
s 1
f 1/1/1 2/2/1 3/3/1 4/4/1
f 3/5/2 2/6/2 5/7/2 6/8/2
f 1/9/3 7/10/3 5/7/3 2/6/3
f 4/11/4 8/12/4 7/10/4 1/9/4
f 9/13/4 10/14/4 11/15/4 12/16/4
f 13/17/2 14/18/2 15/19/2 16/20/2
f 9/13/5 12/16/5 14/18/5 13/17/5
f 10/14/6 9/13/6 13/17/6 16/20/6
f 11/15/3 10/14/3 16/20/3 15/19/3
f 12/21/1 11/22/1 15/23/1 14/24/1
f 6/8/5 8/12/5 4/11/5 3/5/5
f 17/25/2 18/26/2 19/27/2 20/28/2
f 21/29/4 22/30/4 23/31/4 24/32/4
f 17/25/5 21/29/5 24/32/5 18/26/5
f 20/28/6 22/30/6 21/29/6 17/25/6
f 19/27/3 23/31/3 22/30/3 20/28/3
f 18/33/1 24/34/1 23/35/1 19/36/1
f 5/7/6 7/10/6 8/12/6 6/8/6
f 25/37/7 26/38/7 27/39/7 28/40/7
f 27/41/8 26/42/2 29/43/2 30/44/9
f 25/45/3 31/46/3 29/43/3 26/42/3
f 28/47/10 32/48/10 31/46/10 25/45/10
f 33/49/11 34/50/12 35/51/11 36/52/12
f 37/53/2 38/54/13 39/55/2 40/56/2
f 34/50/14 33/49/14 37/53/14 40/56/14
f 35/51/3 34/50/3 40/56/3 39/55/3
f 36/57/7 35/58/7 39/59/7 38/60/7
f 41/61/2 42/62/2 43/63/2 44/64/2
f 45/65/4 46/66/4 47/67/4 48/68/4
f 44/64/6 46/66/6 45/65/6 41/61/6
f 43/63/3 47/67/3 46/66/3 44/64/3
f 42/69/1 48/70/1 47/71/1 43/72/1
f 29/43/14 31/46/14 32/48/14 30/44/14
f 49/73/15 50/74/16 30/44/17
f 51/75/18 52/76/18 53/77/18 54/78/18
f 55/79/18 56/80/18 52/76/18 51/75/18
f 52/81/3 56/82/3 57/83/3 58/84/3
f 59/85/5 60/86/5 55/87/5 51/88/5
f 61/89/18 62/90/18 63/91/19 64/92/18
f 62/93/20 65/94/20 49/73/21 63/95/22
f 66/96/5 67/97/5 68/98/5 61/99/5 64/100/5 50/74/5
f 65/94/16 66/96/16 50/74/16 49/73/15
f 63/95/23 49/73/24 32/48/25 28/47/26
f 54/78/18 53/77/18 36/57/18 38/60/18
f 52/81/27 58/84/27 69/101/27 53/102/27
f 59/85/28 51/88/28 54/103/28 70/104/28
f 53/102/4 69/101/4 33/49/4 36/52/4
f 70/104/2 54/103/2 38/54/13 37/53/2
f 50/74/2 64/100/2 27/41/8 30/44/9
f 63/91/19 28/40/29 27/39/30
f 32/48/31 49/73/15 30/44/17
f 64/92/18 63/91/19 27/39/30
f 71/105/32 72/106/33 67/97/34
f 55/79/18 73/107/18 74/108/18 56/80/18
f 61/89/18 68/109/18 75/110/35 62/90/18
f 62/93/36 75/111/36 71/105/37 65/94/38
f 65/94/16 71/105/32 67/97/34 66/96/39
f 75/111/40 76/112/41 77/113/42 71/105/43
f 73/107/18 78/114/18 79/115/18 74/108/18
f 56/82/44 74/116/44 80/117/44 57/83/44
f 60/86/45 81/118/45 73/119/45 55/87/45
f 82/120/3 79/121/3 78/122/3 83/123/3
f 74/116/2 79/121/2 82/120/2 80/117/2
f 81/118/4 83/123/4 78/122/4 73/119/4
f 77/113/46 76/112/47 84/124/47 72/106/48
f 67/97/4 72/106/4 84/124/49 68/98/50
f 75/110/35 84/125/51 76/126/52
f 77/113/53 72/106/33 71/105/32
f 68/109/18 84/125/51 75/110/35
