# Blender v2.91.0 Beta OBJ File: 'HOUSE.blend'
# www.blender.org
o tree.002_tree.007_tree.002_tree.003
v -0.000514 5.888513 0.000001
v 8.049695 0.015634 0.000000
v 8.049695 5.888516 0.000001
v 8.049695 6.940898 0.000001
v -0.000514 11.289732 0.000002
v -8.047786 6.942795 0.000001
v -8.047786 5.890413 0.000001
v 8.117891 7.463515 -0.166689
v -0.000565 11.651511 -26.676338
v -0.000565 11.651506 -0.166688
v -0.000565 11.289732 0.178799
v 8.431642 6.940902 -26.676338
v 8.117891 7.463519 -26.676338
v -8.429694 6.942795 0.178797
v -7.796407 6.981527 0.020077
v -7.424733 -0.236263 0.020076
v -7.431329 7.179480 0.020077
v 7.424733 -0.236263 0.020076
v 7.796407 6.981527 0.020077
v 7.431329 7.179480 0.020077
v -8.429694 6.942799 -26.676338
v -8.115938 7.465402 -0.166689
v -8.115938 7.465406 -26.676338
v -8.047786 6.943060 -26.676338
v 8.431642 6.940898 0.178797
v -8.032213 0.537054 -26.676340
v -8.032213 0.537051 0.000000
v -8.039241 2.953022 0.000000
v -8.030696 0.015629 0.000000
v -8.030696 0.015633 -26.676340
v 8.048740 6.942046 -26.676338
v 8.032213 0.537051 0.000000
v 8.032213 0.537054 -26.676340
v 8.030696 0.015629 0.000000
v -8.058374 2.721978 -16.531954
v -8.058374 0.546097 -17.707714
v -8.058374 0.546097 -16.531956
v -8.058374 2.629140 -13.012055
v -8.058374 1.224434 -14.328723
v -8.058374 1.224434 -13.012055
v -8.058374 2.629140 -11.500710
v -8.058374 1.224434 -12.817377
v -8.058374 1.224434 -11.500710
v -0.000565 11.651517 -53.185986
v 8.117891 7.463522 -53.185986
v 8.431642 6.940906 -53.531475
v -8.115938 7.465410 -53.185986
v -8.047786 6.942802 -53.352676
v -8.429694 6.942802 -53.531475
v -0.000565 11.289742 -53.531475
v -0.000514 11.289742 -53.352680
v 8.049695 0.015643 -52.967491
v -0.000514 5.888521 -52.967499
v 8.049695 5.888524 -52.967499
v 8.049695 6.940906 -52.967495
v -8.047786 6.942802 -52.967495
v -8.047786 5.890420 -52.967499
v 8.049695 6.940906 -53.352676
v -8.032213 0.537060 -52.974445
v -8.030696 0.015638 -52.974445
v -8.030696 0.015638 -52.967491
v -0.000514 0.015642 -52.967491
v 8.032213 0.537060 -52.974445
v 8.030696 0.015638 -52.974445
v 8.030696 0.015633 -26.676340
v -8.058374 2.721982 -43.019379
v -8.058374 0.546101 -44.195137
v -8.058374 0.546101 -43.019379
v -8.058374 2.629144 -39.499481
v -8.058374 1.224439 -40.816147
v -8.058374 1.224438 -39.499481
v -8.058374 2.629144 -37.988136
v -8.058374 1.224438 -39.304802
v -8.058374 1.224438 -37.988136
v -0.000514 0.015633 0.000000
v -7.789497 -0.236255 0.020076
v 7.789497 -0.236255 0.020076
v 8.047786 6.942795 0.000001
v -8.058374 2.721978 -17.707712
v -8.058374 2.629140 -14.328723
v -8.058374 2.629140 -12.817377
v -0.000514 11.289742 -52.967495
v -8.047786 6.943583 -52.974445
v 8.047786 6.943583 -52.974445
v -8.058374 2.721982 -44.195137
v -8.058374 2.629145 -40.816147
v -8.058374 2.629144 -39.304802
vt 0.123535 0.120605
vt 0.007324 0.029785
vt 0.007324 0.120605
vt 0.007324 0.120605
vt 0.123535 0.120605
vt 0.247559 0.120605
vt 0.247559 0.120605
vt 0.011648 0.806152
vt 0.123535 0.806152
vt 0.123535 0.806152
vt 0.007324 0.857910
vt 0.123535 0.857910
vt 0.123535 0.857910
vt 0.007324 0.748535
vt 0.007324 0.748535
vt 0.007324 0.748535
vt 0.247559 0.857910
vt 0.247559 0.857910
vt 0.256348 0.075684
vt 0.250488 0.039359
vt 0.250488 0.075684
vt 0.250488 0.039359
vt 0.256348 0.075684
vt 0.250488 0.075684
vt 0.247559 0.748535
vt 0.247559 0.748535
vt 0.247559 0.748535
vt 0.247559 0.857910
vt 0.247559 0.857910
vt 0.123535 0.748535
vt 0.242676 0.748535
vt 0.247559 0.748535
vt 0.011230 0.748535
vt 0.123535 0.748535
vt 0.242942 0.806152
vt 0.242942 0.806152
vt 0.007324 0.857910
vt 0.007324 0.857910
vt 0.004395 0.127441
vt 0.247559 0.127441
vt 0.247559 0.133301
vt 0.247559 0.075684
vt 0.247559 0.033691
vt 0.004395 0.038574
vt 0.004395 0.033691
vt 0.004395 0.144043
vt 0.247559 0.127441
vt 0.004395 0.127441
vt 0.247559 0.033691
vt 0.004395 0.038574
vt 0.247559 0.038574
vt 0.071496 0.072450
vt 0.054046 0.039551
vt 0.071496 0.039551
vt 0.034880 0.072882
vt 0.018374 0.056152
vt 0.034880 0.056152
vt 0.034880 0.072882
vt 0.018374 0.056152
vt 0.034880 0.056152
vt 0.011648 0.806152
vt 0.123535 0.806152
vt 0.007324 0.748535
vt 0.007324 0.748535
vt 0.247559 0.748535
vt 0.247559 0.857910
vt 0.247559 0.857910
vt 0.123535 0.748535
vt 0.011230 0.748535
vt 0.242676 0.748535
vt 0.247559 0.748535
vt 0.123535 0.857910
vt 0.123535 0.857910
vt 0.007324 0.029785
vt 0.123535 0.120605
vt 0.007324 0.120605
vt 0.007324 0.120605
vt 0.247559 0.120605
vt 0.247559 0.120605
vt 0.007324 0.857910
vt 0.242942 0.806152
vt 0.007324 0.857910
vt 0.247559 0.144043
vt 0.004395 0.127441
vt 0.247559 0.142090
vt 0.247559 0.038574
vt 0.004395 0.033691
vt 0.247559 0.033691
vt 0.247559 0.030762
vt 0.123535 0.030762
vt 0.004395 0.127441
vt 0.247559 0.144043
vt 0.247559 0.127441
vt 0.004395 0.033691
vt 0.247559 0.038574
vt 0.247559 0.033691
vt 0.071496 0.072450
vt 0.054046 0.039551
vt 0.071496 0.039551
vt 0.034880 0.072882
vt 0.018374 0.056152
vt 0.034880 0.056152
vt 0.034880 0.072882
vt 0.018374 0.056152
vt 0.034880 0.056152
vt 0.123535 0.030762
vt 0.007324 0.748535
vt 0.256348 0.039359
vt 0.256348 0.039359
vt 0.247559 0.142090
vt 0.004395 0.144043
vt 0.247559 0.144043
vt 0.247559 0.030762
vt 0.247559 0.038574
vt 0.247559 0.144043
vt 0.004395 0.033691
vt 0.054046 0.072450
vt 0.018374 0.072882
vt 0.018374 0.072882
vt 0.011648 0.806152
vt 0.123535 0.748535
vt 0.123535 0.120605
vt 0.007324 0.857910
vt 0.004395 0.144043
vt 0.004395 0.038574
vt 0.004395 0.144043
vt 0.004395 0.038574
vt 0.054046 0.072450
vt 0.018374 0.072882
vt 0.018374 0.072882
vn -0.0000 -0.0000 1.0000
vn 0.4585 0.8887 0.0000
vn -0.4753 -0.8798 -0.0001
vn 0.8574 0.5147 0.0000
vn 0.3275 -0.6351 0.6996
vn -0.8574 0.5147 0.0000
vn 0.0005 -1.0000 -0.0000
vn 0.0003 -1.0000 0.0000
vn 0.0007 -1.0000 -0.0000
vn -0.3358 0.6512 0.6805
vn -0.3357 0.6509 0.6809
vn -0.3359 0.6514 0.6803
vn 0.3359 0.6512 0.6805
vn 0.3357 0.6508 0.6809
vn 0.3356 0.6506 0.6813
vn -0.4584 0.8887 0.0000
vn -0.0021 -1.0000 -0.0000
vn -0.0013 -1.0000 -0.0000
vn 0.0000 -1.0000 -0.0000
vn -1.0000 -0.0027 -0.0000
vn -1.0000 -0.0029 -0.0000
vn 1.0000 -0.0026 -0.0000
vn 1.0000 -0.0027 0.0000
vn 1.0000 -0.0029 -0.0000
vn -1.0000 -0.0000 0.0000
vn 0.0002 -1.0000 -0.0000
vn 0.3359 0.6511 -0.6806
vn 0.3357 0.6508 -0.6809
vn 0.3360 0.6514 -0.6803
vn -0.3357 0.6508 -0.6810
vn -0.3358 0.6512 -0.6806
vn -0.3359 0.6514 -0.6803
vn 0.4753 -0.8798 -0.0001
vn -0.0000 -0.0000 -1.0000
vn -0.4753 -0.8798 0.0001
vn -0.0030 -1.0000 0.0000
vn -1.0000 -0.0014 -0.0000
vn -1.0000 -0.0023 0.0000
vn -0.3275 -0.6350 0.6996
vn 0.4753 -0.8798 0.0001
vn -0.3356 0.6506 0.6813
vn 0.3360 0.6514 0.6803
vn -1.0000 -0.0025 -0.0000
vn -1.0000 -0.0015 -0.0001
vn 1.0000 -0.0024 0.0000
vn 0.3356 0.6506 -0.6813
vn -0.3356 0.6506 -0.6813
vn 0.3275 -0.6351 -0.6996
vn -0.3275 -0.6350 -0.6996
vn -1.0000 -0.0024 -0.0000
s 1
f 1/1/1 2/2/1 3/3/1
f 1/1/1 4/4/1 5/5/1
f 1/1/1 6/6/1 7/7/1
f 8/8/2 9/9/2 10/10/2
f 4/11/3 11/12/3 5/13/3
f 8/14/4 12/15/4 13/16/4
f 6/17/5 11/12/5 14/18/5
f 15/19/1 16/20/1 17/21/1
f 18/22/1 19/23/1 20/24/1
f 21/25/6 22/26/6 23/27/6
f 6/17/7 21/28/8 24/29/9
f 11/30/10 22/31/11 14/32/12
f 11/30/13 8/33/14 10/34/15
f 10/10/16 23/35/16 22/36/16
f 4/11/17 12/37/18 25/38/19
f 26/39/20 27/40/21 28/41/21
f 1/1/1 7/7/1 28/42/1
f 29/43/21 26/44/20 30/45/21
f 31/46/22 32/47/23 33/48/23
f 34/49/24 33/50/23 32/51/23
f 35/52/25 36/53/25 37/54/25
f 38/55/25 39/56/25 40/57/25
f 41/58/25 42/59/25 43/60/25
f 13/61/2 44/62/2 9/9/2
f 45/63/4 12/15/4 46/64/4
f 47/65/6 21/25/6 23/27/6
f 48/66/7 21/28/26 49/67/19
f 50/68/27 45/69/28 46/64/29
f 47/70/30 50/68/31 49/71/32
f 48/66/33 50/72/33 51/73/33
f 52/74/34 53/75/34 54/76/34
f 53/75/34 55/77/34 54/76/34
f 56/78/34 53/75/34 57/79/34
f 50/72/35 58/80/35 51/73/35
f 9/9/16 47/81/16 23/35/16
f 58/80/36 12/37/18 31/82/36
f 24/83/37 59/84/38 26/85/20
f 26/86/20 60/87/21 30/88/21
f 61/89/34 53/75/34 62/90/34
f 63/91/23 31/92/22 33/93/23
f 64/94/24 33/95/23 65/96/24
f 66/97/25 67/98/25 68/99/25
f 69/100/25 70/101/25 71/102/25
f 72/103/25 73/104/25 74/105/25
f 1/1/1 75/106/1 2/2/1
f 1/1/1 3/3/1 4/4/1
f 1/1/1 5/5/1 6/6/1
f 8/8/2 13/61/2 9/9/2
f 4/11/39 25/38/39 11/12/39
f 8/14/4 25/107/4 12/15/4
f 6/17/40 5/13/40 11/12/40
f 15/19/1 76/108/1 16/20/1
f 18/22/1 77/109/1 19/23/1
f 21/25/6 14/32/6 22/26/6
f 6/17/7 14/18/19 21/28/8
f 11/30/10 10/34/41 22/31/11
f 11/30/13 25/107/42 8/33/14
f 10/10/16 9/9/16 23/35/16
f 4/11/17 31/82/36 12/37/18
f 28/41/43 7/110/44 24/111/37
f 7/110/44 6/112/25 24/111/37
f 28/41/43 24/111/37 26/39/20
f 28/42/1 29/113/1 75/106/1
f 75/106/1 1/1/1 28/42/1
f 29/43/21 27/114/21 26/44/20
f 31/46/22 78/115/45 32/47/23
f 34/49/24 65/116/24 33/50/23
f 35/52/25 79/117/25 36/53/25
f 38/55/25 80/118/25 39/56/25
f 41/58/25 81/119/25 42/59/25
f 13/61/2 45/120/2 44/62/2
f 45/63/4 13/16/4 12/15/4
f 47/65/6 49/71/6 21/25/6
f 48/66/7 24/29/9 21/28/26
f 50/68/27 44/121/46 45/69/28
f 47/70/30 44/121/47 50/68/31
f 48/66/48 49/67/48 50/72/48
f 52/74/34 62/90/34 53/75/34
f 53/75/34 82/122/34 55/77/34
f 56/78/34 82/122/34 53/75/34
f 50/72/49 46/123/49 58/80/49
f 9/9/16 44/62/16 47/81/16
f 58/80/19 46/123/19 12/37/19
f 24/83/37 83/124/50 59/84/38
f 26/86/20 59/125/38 60/87/21
f 61/89/34 57/79/34 53/75/34
f 63/91/23 84/126/45 31/92/22
f 64/94/24 63/127/23 33/95/23
f 66/97/25 85/128/25 67/98/25
f 69/100/25 86/129/25 70/101/25
f 72/103/25 87/130/25 73/104/25
