# Blender v2.91.0 Beta OBJ File: 'HOUSE.blend'
# www.blender.org
o Plane_Plane.023
v 0.000000 0.005624 -10.003344
v 0.000000 2.005622 -0.003343
v 0.000000 0.005622 -0.003343
v -0.043090 2.005622 -0.003343
v -0.043090 0.005624 -10.003344
v -0.043090 0.005622 -0.003343
v 0.000000 2.005624 -10.003344
v -0.043090 2.005624 -10.003344
vt 0.243652 0.682129
vt 0.000488 0.745605
vt 0.000488 0.682129
vt 0.000488 0.745605
vt 0.243652 0.682129
vt 0.000488 0.682129
vt 0.243652 0.745605
vt 0.243652 0.745605
vn 1.0000 0.0000 0.0000
vn -1.0000 0.0000 0.0000
s 1
f 1/1/1 2/2/1 3/3/1
f 4/4/2 5/5/2 6/6/2
f 1/1/1 7/7/1 2/2/1
f 4/4/2 8/8/2 5/5/2
