# Blender v2.91.0 Beta OBJ File: 'HOUSE.blend'
# www.blender.org
o tree.002_tree.010_tree.002_tree.001
v 9.999284 -0.000982 -0.099608
v -0.000718 9.999018 -0.099607
v -0.000718 -0.000982 -0.099608
v 19.999283 -0.000982 -0.099608
v -0.000718 9.999018 -0.249605
v 9.999284 -0.000982 -0.249607
v -0.000718 -0.000982 -0.249607
v 9.999284 9.999018 -0.249605
v 19.999283 -0.000982 -0.249607
v 9.999284 9.999018 -0.099607
v 19.999283 9.999018 -0.099607
v 19.999283 9.999018 -0.249605
vt 0.399772 0.151732
vt 0.258415 0.011230
vt 0.258415 0.151732
vt 0.399772 0.151732
vt 0.258415 0.011230
vt 0.399772 0.011230
vt 0.399772 0.151732
vt 0.258415 0.011230
vt 0.399772 0.011230
vt 0.399772 0.151732
vt 0.258415 0.011230
vt 0.258415 0.151732
vt 0.399772 0.011230
vt 0.258415 0.151732
vt 0.258415 0.151732
vt 0.399772 0.011230
vn 0.0000 0.0000 -1.0000
vn 0.0000 -0.0000 1.0000
s off
f 8/1/1 7/2/1 5/3/1
f 11/4/2 1/5/2 4/6/2
f 10/7/2 3/8/2 1/9/2
f 12/10/1 6/11/1 8/12/1
f 8/1/1 6/13/1 7/2/1
f 11/4/2 10/14/2 1/5/2
f 10/7/2 2/15/2 3/8/2
f 12/10/1 9/16/1 6/11/1
