# Blender v2.83.4 OBJ File: 'decos.blend'
# www.blender.org
o Cube.002_Cube.005
v -3.637644 -1.584535 -0.006977
v -3.528820 -1.466238 -0.006977
v 3.528820 -1.466238 -0.006977
v 3.637644 -1.584535 -0.006977
v -3.637644 1.311919 -0.006976
v 3.637644 1.311919 -0.006976
v 3.528820 1.193622 -0.006976
v -3.528820 1.193622 -0.006976
v -3.637644 1.311919 0.006976
v -3.637644 -1.584535 0.006976
v -3.528820 -1.466238 0.006976
v -3.528820 1.193622 0.006976
v 3.528820 1.193622 0.006976
v 3.637644 1.311919 0.006976
v 3.637644 -1.584535 0.006976
v 3.528820 -1.466238 0.006976
v 3.622621 -5.253899 -0.000000
v 3.622621 2.000000 0.000000
v 3.736910 2.000000 -0.180017
v 3.736910 -5.253899 -0.180017
v 3.851198 -5.253899 -0.000000
v 3.851198 2.000000 0.000000
v 3.736910 2.000000 0.180017
v 3.736910 -5.253899 0.180017
v 3.768260 -1.554101 -0.093320
v -3.768260 -1.554101 -0.093320
v -3.768260 -1.554101 0.093320
v 3.768260 -1.554101 0.093320
v 3.736910 2.000000 0.000000
v 3.768260 1.412288 -0.093320
v 3.768260 1.412288 0.093320
v 3.768260 1.265625 0.093320
v 3.768260 1.265625 -0.093320
v -3.622621 2.000000 0.000000
v -3.736910 2.000000 0.000000
v -3.736910 2.000000 0.180017
v -3.736910 -5.253899 -0.180017
v -3.851198 -5.253899 -0.000000
v -3.851198 2.000000 0.000000
v -3.736910 2.000000 -0.180017
v 3.768260 -1.700764 0.093320
v 3.768260 -1.700764 -0.093320
v -3.768260 -1.700764 -0.093320
v -3.768260 -1.700764 0.093320
v -3.768260 1.412288 -0.093320
v -3.768260 1.412288 0.093320
v -3.768260 1.265625 0.093320
v -3.768260 1.265625 -0.093320
v 3.765425 1.789118 -0.007222
v -3.765425 1.789118 -0.007222
v -3.765425 1.830755 -0.007221
v 3.765425 1.830755 -0.007221
v 3.765425 1.830755 0.007222
v -3.765425 1.830755 0.007222
v -3.765425 1.789118 0.007221
v 3.765425 1.789118 0.007221
v 3.765425 1.544320 -0.007222
v -3.765425 1.544320 -0.007222
v -3.765425 1.585957 -0.007221
v 3.765425 1.585957 -0.007221
v 3.772961 1.451337 -0.052292
v 3.772961 1.226576 -0.052292
v 3.772961 1.226576 0.052292
v 3.772961 1.451337 0.052292
v 3.772961 -1.515052 -0.052292
v 3.772961 -1.739813 -0.052292
v 3.772961 -1.739813 0.052292
v 3.772961 -1.515052 0.052292
v 4.000000 1.451337 -0.052292
v 4.000000 1.451337 0.052292
v 4.000000 1.226576 0.052292
v 4.000000 1.226576 -0.052292
v 4.000000 -1.515052 -0.052292
v 4.000000 -1.515052 0.052292
v 4.000000 -1.739813 0.052292
v 4.000000 -1.739813 -0.052292
v -3.622621 -5.253899 -0.000000
v -3.736910 -5.253899 0.180017
v -3.772961 1.451337 -0.052292
v -3.772961 1.451337 0.052292
v -3.772961 1.226576 0.052292
v -3.772961 1.226576 -0.052292
v -3.772961 -1.515052 -0.052292
v -3.772961 -1.515052 0.052292
v -3.772961 -1.739813 0.052292
v -3.772961 -1.739813 -0.052292
v -4.000000 1.451337 -0.052292
v -4.000000 1.226576 -0.052292
v -4.000000 1.226576 0.052292
v -4.000000 1.451337 0.052292
v -4.000000 -1.515052 -0.052292
v -4.000000 -1.739813 -0.052292
v -4.000000 -1.739813 0.052292
v -4.000000 -1.515052 0.052292
v 3.765425 1.585957 0.007222
v -3.765425 1.585957 0.007222
v -3.765425 1.544320 0.007221
v 3.765425 1.544320 0.007221
v 3.533530 1.221424 -0.006206
v -3.518861 -1.572597 -0.006206
v -3.534309 -1.533606 -0.006206
v 3.518082 1.260415 -0.006205
v 3.518082 1.260415 0.006206
v -3.534309 -1.533606 0.006206
v -3.518861 -1.572597 0.006205
v 3.533530 1.221424 0.006206
v 3.437015 -1.471270 -0.007222
v -3.662241 1.201433 -0.007221
v -3.647463 1.240684 -0.007221
v 3.451792 -1.432019 -0.007222
v 3.451792 -1.432019 0.007221
v -3.647463 1.240684 0.007222
v -3.662241 1.201433 0.007222
v 3.437015 -1.471270 0.007221
v 0.021395 -1.650621 0.005579
v 0.021395 1.405389 0.005580
v -0.020544 1.405389 0.005580
v -0.020544 -1.650621 0.005578
v 0.021395 -1.650621 -0.005225
v -0.020544 -1.650621 -0.005225
v -0.020544 1.405389 -0.005224
v 0.021395 1.405389 -0.005224
vt 0.054688 0.789062
vt 0.054688 0.789062
vt 0.054688 0.789062
vt 0.054688 0.789062
vt 0.054688 0.789062
vt 0.054688 0.789062
vt 0.054688 0.789062
vt 0.054688 0.789062
vt 0.054688 0.789062
vt 0.054688 0.789062
vt 0.054688 0.789062
vt 0.054688 0.789062
vt 0.054688 0.789062
vt 0.054688 0.789062
vt 0.054688 0.789062
vt 0.054688 0.789062
vt 0.039062 0.804688
vt 0.039062 0.804688
vt 0.039062 0.804688
vt 0.039062 0.804688
vt 0.039062 0.804688
vt 0.039062 0.804688
vt 0.039062 0.804688
vt 0.039062 0.804688
vt 0.039062 0.804688
vt 0.039062 0.804688
vt 0.039062 0.804688
vt 0.039062 0.804688
vt 0.039062 0.804688
vt 0.039062 0.804688
vt 0.039062 0.804688
vt 0.039062 0.804688
vt 0.039062 0.804688
vt 0.039062 0.804688
vt 0.039062 0.804688
vt 0.039062 0.804688
vt 0.039062 0.804688
vt 0.039062 0.804688
vt 0.039062 0.804688
vt 0.039062 0.804688
vt 0.039062 0.804688
vt 0.039062 0.804688
vt 0.039062 0.804688
vt 0.039062 0.804688
vt 0.039062 0.804688
vt 0.039062 0.804688
vt 0.039062 0.804688
vt 0.039062 0.804688
vt 0.039062 0.804688
vt 0.039062 0.804688
vt 0.039062 0.804688
vt 0.039062 0.804688
vt 0.039062 0.804688
vt 0.039062 0.804688
vt 0.039062 0.804688
vt 0.039062 0.804688
vt 0.039062 0.804688
vt 0.039062 0.804688
vt 0.039062 0.804688
vt 0.039062 0.804688
vt 0.039062 0.804688
vt 0.039062 0.804688
vt 0.039062 0.804688
vt 0.039062 0.804688
vt 0.039062 0.804688
vt 0.039062 0.804688
vt 0.039062 0.804688
vt 0.039062 0.804688
vt 0.039062 0.804688
vt 0.039062 0.804688
vt 0.039062 0.804688
vt 0.039062 0.804688
vt 0.039062 0.804688
vt 0.039062 0.804688
vt 0.039062 0.804688
vt 0.039062 0.804688
vt 0.039062 0.804688
vt 0.039062 0.804688
vt 0.039062 0.804688
vt 0.039062 0.804688
vt 0.039062 0.804688
vt 0.039062 0.804688
vt 0.039062 0.804688
vt 0.039062 0.804688
vt 0.039062 0.804688
vt 0.039062 0.804688
vt 0.039062 0.804688
vt 0.039062 0.804688
vt 0.039062 0.804688
vt 0.039062 0.804688
vt 0.039062 0.804688
vt 0.039062 0.804688
vt 0.039062 0.804688
vt 0.039062 0.804688
vt 0.039062 0.804688
vt 0.039062 0.804688
vt 0.039062 0.804688
vt 0.039062 0.804688
vt 0.039062 0.804688
vt 0.039062 0.804688
vt 0.039062 0.804688
vt 0.039062 0.804688
vt 0.039062 0.804688
vt 0.039062 0.804688
vt 0.039062 0.804688
vt 0.039062 0.804688
vt 0.039062 0.804688
vt 0.039062 0.804688
vt 0.039062 0.804688
vt 0.039062 0.804688
vt 0.039062 0.804688
vt 0.039062 0.804688
vt 0.039062 0.804688
vt 0.039062 0.804688
vt 0.039062 0.804688
vt 0.039062 0.804688
vt 0.039062 0.804688
vt 0.039062 0.804688
vt 0.039062 0.804688
vt 0.039062 0.804688
vt 0.039062 0.804688
vt 0.039062 0.804688
vn 0.0000 0.0000 -1.0000
vn 0.0000 -0.0000 1.0000
vn -0.8442 0.0000 -0.5360
vn 0.8442 -0.0000 0.5360
vn 0.0000 1.0000 0.0000
vn 1.0000 0.0000 0.0000
vn 0.8442 0.0000 -0.5360
vn -0.8442 -0.0000 0.5360
vn 0.0000 -1.0000 0.0000
vn -1.0000 -0.0000 0.0000
s off
f 1/1/1 2/2/1 3/3/1 4/4/1
f 5/5/1 6/6/1 7/7/1 8/8/1
f 9/9/2 10/10/2 11/11/2 12/12/2
f 9/9/2 12/12/2 13/13/2 14/14/2
f 10/10/2 15/15/2 16/16/2 11/11/2
f 5/5/1 8/8/1 2/2/1 1/1/1
f 15/15/1 16/16/1 13/13/1 14/14/1
f 6/6/2 7/7/2 3/3/2 4/4/2
s 1
f 17/17/3 18/18/3 19/19/3 20/20/3
f 21/21/4 22/22/4 23/23/4 24/24/4
f 25/25/5 26/26/5 27/27/5 28/28/5
f 29/29/5 23/23/5 22/22/5
f 30/30/6 31/31/6 32/32/6 33/33/6
f 34/34/5 35/35/5 36/36/5
f 37/37/3 38/38/3 39/39/3 40/40/3
f 25/25/6 28/28/6 41/41/6 42/42/6
f 19/19/5 29/29/5 22/22/5
f 20/20/7 19/19/7 22/22/7 21/21/7
f 24/24/8 23/23/8 18/18/8 17/17/8
f 19/19/5 18/18/5 29/29/5
f 18/18/5 23/23/5 29/29/5
f 42/42/1 43/43/1 26/26/1 25/25/1
f 28/28/2 27/27/2 44/44/2 41/41/2
f 30/30/5 45/45/5 46/46/5 31/31/5
f 31/31/2 46/46/2 47/47/2 32/32/2
f 33/33/1 48/48/1 45/45/1 30/30/1
f 32/32/9 47/47/9 48/48/9 33/33/9
f 49/49/1 50/50/1 51/51/1 52/52/1
f 53/53/2 54/54/2 55/55/2 56/56/2
f 57/57/1 58/58/1 59/59/1 60/60/1
f 61/61/10 62/62/10 63/63/10 64/64/10
f 65/65/10 66/66/10 67/67/10 68/68/10
f 69/69/6 70/70/6 71/71/6 72/72/6
f 73/73/6 74/74/6 75/75/6 76/76/6
f 66/66/1 65/65/1 73/73/1 76/76/1
f 63/63/9 62/62/9 72/72/9 71/71/9
f 62/62/1 61/61/1 69/69/1 72/72/1
f 65/65/5 68/68/5 74/74/5 73/73/5
f 68/68/2 67/67/2 75/75/2 74/74/2
f 61/61/5 64/64/5 70/70/5 69/69/5
f 64/64/2 63/63/2 71/71/2 70/70/2
f 67/67/9 66/66/9 76/76/9 75/75/9
f 77/77/7 37/37/7 40/40/7 34/34/7
f 35/35/5 39/39/5 36/36/5
f 38/38/8 78/78/8 36/36/8 39/39/8
f 78/78/4 77/77/4 34/34/4 36/36/4
f 40/40/5 35/35/5 34/34/5
f 45/45/10 48/48/10 47/47/10 46/46/10
f 26/26/10 43/43/10 44/44/10 27/27/10
f 40/40/5 39/39/5 35/35/5
f 79/79/6 80/80/6 81/81/6 82/82/6
f 83/83/6 84/84/6 85/85/6 86/86/6
f 87/87/10 88/88/10 89/89/10 90/90/10
f 91/91/10 92/92/10 93/93/10 94/94/10
f 86/86/1 92/92/1 91/91/1 83/83/1
f 81/81/9 89/89/9 88/88/9 82/82/9
f 82/82/1 88/88/1 87/87/1 79/79/1
f 83/83/5 91/91/5 94/94/5 84/84/5
f 84/84/2 94/94/2 93/93/2 85/85/2
f 79/79/5 87/87/5 90/90/5 80/80/5
f 80/80/2 90/90/2 89/89/2 81/81/2
f 85/85/9 93/93/9 92/92/9 86/86/9
f 95/95/2 96/96/2 97/97/2 98/98/2
f 99/99/1 100/100/1 101/101/1 102/102/1
f 103/103/2 104/104/2 105/105/2 106/106/2
f 107/107/1 108/108/1 109/109/1 110/110/1
f 111/111/2 112/112/2 113/113/2 114/114/2
f 115/115/2 116/116/2 117/117/2 118/118/2
f 119/119/1 120/120/1 121/121/1 122/122/1
