# Blender v2.91.0 Beta OBJ File: 'HOUSE.blend'
# www.blender.org
o Cube.022
v -0.188790 5.224271 0.455462
v -0.188790 2.598294 2.818843
v -0.188791 2.598293 0.455462
v -6.115638 5.224273 2.818843
v -6.115639 2.598294 0.455462
v -6.115638 2.598294 2.818843
v -0.188790 5.224272 2.818843
v -6.115638 5.224272 0.455462
v -3.273415 2.624272 6.097685
v -5.636796 -0.001706 6.097685
v -3.273416 -0.001707 6.097685
v -5.636797 2.624273 0.170837
v -3.273416 -0.001707 0.170837
v -5.636797 -0.001706 0.170837
v -5.636796 2.624273 6.097685
v -3.273416 2.624272 0.170837
v -0.573415 2.624272 6.097685
v -2.936796 -0.001707 6.097685
v -0.573415 -0.001707 6.097685
v -2.936796 2.624272 0.170837
v -0.573415 -0.001707 0.170837
v -2.936797 -0.001707 0.170837
v -2.936796 2.624272 6.097685
v -0.573415 2.624272 0.170837
v -0.188791 5.224271 3.455462
v -0.188790 2.598294 5.818842
v -0.188791 2.598293 3.455462
v -6.115638 5.224274 5.818843
v -6.115638 2.598294 3.455462
v -6.115638 2.598294 5.818843
v -0.188790 5.224273 5.818843
v -6.115638 5.224272 3.455462
v -0.448416 5.224271 -0.152623
v -2.811796 2.598294 -0.152624
v -0.448416 2.598293 -0.152624
v -2.811796 5.224274 -6.079471
v -0.448416 2.598294 -6.079471
v -2.811796 2.598294 -6.079471
v -2.811796 5.224273 -0.152623
v -0.448416 5.224272 -6.079471
v -6.090638 2.624272 -3.237249
v -6.090638 -0.001707 -5.600630
v -6.090638 -0.001707 -3.237249
v -0.163790 2.624273 -5.600629
v -0.163790 -0.001707 -3.237249
v -0.163790 -0.001707 -5.600630
v -6.090638 2.624273 -5.600629
v -0.163790 2.624272 -3.237249
v -6.090638 2.624272 -0.537249
v -6.090638 -0.001707 -2.900630
v -6.090638 -0.001707 -0.537249
v -0.163790 2.624272 -2.900630
v -0.163790 -0.001707 -0.537249
v -0.163790 -0.001707 -2.900630
v -6.090638 2.624272 -2.900630
v -0.163790 2.624272 -0.537249
v -3.448416 5.224271 -0.152624
v -5.811796 2.598294 -0.152624
v -3.448416 2.598293 -0.152625
v -5.811796 5.224274 -6.079471
v -3.448416 2.598294 -6.079471
v -5.811796 2.598294 -6.079471
v -5.811796 5.224273 -0.152623
v -3.448416 5.224272 -6.079471
v 5.816101 5.224271 6.075578
v 3.452721 2.598294 6.075577
v 5.816101 2.598293 6.075577
v 3.452721 5.224274 0.148730
v 5.816101 2.598294 0.148729
v 3.452721 2.598294 0.148729
v 3.452721 5.224273 6.075578
v 5.816101 5.224272 0.148730
v 0.173878 2.624272 2.990952
v 0.173878 -0.001707 0.627571
v 0.173878 -0.001707 2.990952
v 6.100726 2.624273 0.627571
v 6.100726 -0.001707 2.990952
v 6.100726 -0.001707 0.627571
v 0.173878 2.624273 0.627571
v 6.100726 2.624272 2.990952
v 0.173878 2.624272 5.690953
v 0.173878 -0.001707 3.327571
v 0.173878 -0.001707 5.690952
v 6.100726 2.624272 3.327571
v 6.100726 -0.001707 5.690952
v 6.100726 -0.001707 3.327571
v 0.173878 2.624272 3.327571
v 6.100726 2.624272 5.690953
v 2.816102 5.224271 6.075577
v 0.452720 2.598294 6.075577
v 2.816102 2.598293 6.075576
v 0.452720 5.224274 0.148730
v 2.816102 2.598294 0.148729
v 0.452720 2.598294 0.148729
v 0.452720 5.224273 6.075578
v 2.816102 5.224272 0.148730
v 6.075725 5.224271 -5.763346
v 6.075725 2.598294 -3.399964
v 6.075725 2.598293 -5.763345
v 0.148877 5.224273 -3.399964
v 0.148876 2.598294 -5.763345
v 0.148877 2.598294 -3.399964
v 6.075726 5.224272 -3.399964
v 0.148877 5.224272 -5.763345
v 2.991100 2.624272 -0.121122
v 0.627719 -0.001706 -0.121122
v 2.991100 -0.001707 -0.121122
v 0.627719 2.624273 -6.047970
v 2.991099 -0.001707 -6.047970
v 0.627718 -0.001706 -6.047970
v 0.627719 2.624273 -0.121122
v 2.991100 2.624272 -6.047970
v 5.691101 2.624272 -0.121122
v 3.327719 -0.001707 -0.121122
v 5.691100 -0.001707 -0.121122
v 3.327719 2.624272 -6.047970
v 5.691100 -0.001707 -6.047970
v 3.327718 -0.001707 -6.047970
v 3.327719 2.624272 -0.121122
v 5.691100 2.624272 -6.047970
v 6.075725 5.224271 -2.763345
v 6.075725 2.598294 -0.399965
v 6.075724 2.598293 -2.763345
v 0.148877 5.224274 -0.399964
v 0.148877 2.598294 -2.763345
v 0.148877 2.598294 -0.399964
v 6.075726 5.224273 -0.399965
v 0.148877 5.224272 -2.763345
vt 0.362793 0.942871
vt 0.410645 0.887207
vt 0.362793 0.887207
vt 0.410645 0.942871
vt 0.362793 0.887207
vt 0.410645 0.887207
vt 0.362793 0.999512
vt 0.473145 0.944824
vt 0.362793 0.944824
vt 0.473145 0.999512
vt 0.362793 0.944824
vt 0.473145 0.944824
vt 0.473145 0.944824
vt 0.473145 0.999512
vt 0.410645 0.942871
vt 0.362793 0.942871
vt 0.362793 0.999512
vt 0.362793 0.944824
vt 0.362793 0.942871
vt 0.410645 0.887207
vt 0.362793 0.887207
vt 0.410645 0.942871
vt 0.362793 0.887207
vt 0.410645 0.887207
vt 0.362793 0.999512
vt 0.473145 0.944824
vt 0.362793 0.944824
vt 0.473145 0.999512
vt 0.362793 0.944824
vt 0.473145 0.944824
vt 0.473145 0.944824
vt 0.473145 0.999512
vt 0.410645 0.942871
vt 0.362793 0.942871
vt 0.362793 0.999512
vt 0.362793 0.944824
vt 0.250488 0.828613
vt 0.298340 0.772949
vt 0.250488 0.772949
vt 0.298340 0.828613
vt 0.250488 0.772949
vt 0.298340 0.772949
vt 0.250488 0.885254
vt 0.360840 0.830566
vt 0.250488 0.830566
vt 0.360840 0.885254
vt 0.250488 0.830566
vt 0.360840 0.830566
vt 0.360840 0.830566
vt 0.360840 0.885254
vt 0.298340 0.828613
vt 0.250488 0.828613
vt 0.250488 0.885254
vt 0.250488 0.830566
vt 0.362793 0.828613
vt 0.410645 0.772949
vt 0.362793 0.772949
vt 0.410645 0.828613
vt 0.362793 0.772949
vt 0.410645 0.772949
vt 0.362793 0.885254
vt 0.473145 0.830566
vt 0.362793 0.830566
vt 0.473145 0.885254
vt 0.362793 0.830566
vt 0.473145 0.830566
vt 0.473145 0.830566
vt 0.473145 0.885254
vt 0.410645 0.828613
vt 0.362793 0.828613
vt 0.362793 0.885254
vt 0.362793 0.830566
vt 0.362793 0.828613
vt 0.410645 0.772949
vt 0.362793 0.772949
vt 0.410645 0.828613
vt 0.362793 0.772949
vt 0.410645 0.772949
vt 0.362793 0.885254
vt 0.473145 0.830566
vt 0.362793 0.830566
vt 0.473145 0.885254
vt 0.362793 0.830566
vt 0.473145 0.830566
vt 0.473145 0.830566
vt 0.473145 0.885254
vt 0.410645 0.828613
vt 0.362793 0.828613
vt 0.362793 0.885254
vt 0.362793 0.830566
vt 0.362793 0.828613
vt 0.410645 0.772949
vt 0.362793 0.772949
vt 0.410645 0.828613
vt 0.362793 0.772949
vt 0.410645 0.772949
vt 0.362793 0.885254
vt 0.473145 0.830566
vt 0.362793 0.830566
vt 0.473145 0.885254
vt 0.362793 0.830566
vt 0.473145 0.830566
vt 0.473145 0.830566
vt 0.473145 0.885254
vt 0.410645 0.828613
vt 0.362793 0.828613
vt 0.362793 0.885254
vt 0.362793 0.830566
vt 0.250488 0.941895
vt 0.298340 0.886230
vt 0.250488 0.886230
vt 0.298340 0.941895
vt 0.250488 0.886230
vt 0.298340 0.886230
vt 0.250488 0.998535
vt 0.360840 0.943848
vt 0.250488 0.943848
vt 0.360840 0.998535
vt 0.250488 0.943848
vt 0.360840 0.943848
vt 0.360840 0.943848
vt 0.360840 0.998535
vt 0.298340 0.941895
vt 0.250488 0.941895
vt 0.250488 0.998535
vt 0.250488 0.943848
vt 0.250488 0.828613
vt 0.298340 0.772949
vt 0.250488 0.772949
vt 0.298340 0.828613
vt 0.250488 0.772949
vt 0.298340 0.772949
vt 0.250488 0.885254
vt 0.360840 0.830566
vt 0.250488 0.830566
vt 0.360840 0.885254
vt 0.250488 0.830566
vt 0.360840 0.830566
vt 0.360840 0.830566
vt 0.360840 0.885254
vt 0.298340 0.828613
vt 0.250488 0.828613
vt 0.250488 0.885254
vt 0.250488 0.830566
vt 0.250488 0.828613
vt 0.298340 0.772949
vt 0.250488 0.772949
vt 0.298340 0.828613
vt 0.250488 0.772949
vt 0.298340 0.772949
vt 0.250488 0.885254
vt 0.360840 0.830566
vt 0.250488 0.830566
vt 0.360840 0.885254
vt 0.250488 0.830566
vt 0.360840 0.830566
vt 0.360840 0.830566
vt 0.360840 0.885254
vt 0.298340 0.828613
vt 0.250488 0.828613
vt 0.250488 0.885254
vt 0.250488 0.830566
vt 0.250488 0.828613
vt 0.298340 0.772949
vt 0.250488 0.772949
vt 0.298340 0.828613
vt 0.250488 0.772949
vt 0.298340 0.772949
vt 0.250488 0.885254
vt 0.360840 0.830566
vt 0.250488 0.830566
vt 0.360840 0.885254
vt 0.250488 0.830566
vt 0.360840 0.830566
vt 0.360840 0.830566
vt 0.360840 0.885254
vt 0.298340 0.828613
vt 0.250488 0.828613
vt 0.250488 0.885254
vt 0.250488 0.830566
vt 0.362793 0.942871
vt 0.410645 0.887207
vt 0.362793 0.887207
vt 0.410645 0.942871
vt 0.362793 0.887207
vt 0.410645 0.887207
vt 0.362793 0.999512
vt 0.473145 0.944824
vt 0.362793 0.944824
vt 0.473145 0.999512
vt 0.362793 0.944824
vt 0.473145 0.944824
vt 0.473145 0.944824
vt 0.473145 0.999512
vt 0.410645 0.942871
vt 0.362793 0.942871
vt 0.362793 0.999512
vt 0.362793 0.944824
vt 0.250488 0.942871
vt 0.298340 0.887207
vt 0.250488 0.887207
vt 0.298340 0.942871
vt 0.250488 0.887207
vt 0.298340 0.887207
vt 0.250488 0.999512
vt 0.360840 0.944824
vt 0.250488 0.944824
vt 0.360840 0.999512
vt 0.250488 0.944824
vt 0.360840 0.944824
vt 0.360840 0.944824
vt 0.360840 0.999512
vt 0.298340 0.942871
vt 0.250488 0.942871
vt 0.250488 0.999512
vt 0.250488 0.944824
vt 0.362793 0.942871
vt 0.410645 0.887207
vt 0.362793 0.887207
vt 0.410645 0.942871
vt 0.362793 0.887207
vt 0.410645 0.887207
vt 0.362793 0.999512
vt 0.473145 0.944824
vt 0.362793 0.944824
vt 0.473145 0.999512
vt 0.362793 0.944824
vt 0.473145 0.944824
vt 0.473145 0.944824
vt 0.473145 0.999512
vt 0.410645 0.942871
vt 0.362793 0.942871
vt 0.362793 0.999512
vt 0.362793 0.944824
vt 0.362793 0.942871
vt 0.410645 0.887207
vt 0.362793 0.887207
vt 0.410645 0.942871
vt 0.362793 0.887207
vt 0.410645 0.887207
vt 0.362793 0.999512
vt 0.473145 0.944824
vt 0.362793 0.944824
vt 0.473145 0.999512
vt 0.362793 0.944824
vt 0.473145 0.944824
vt 0.473145 0.944824
vt 0.473145 0.999512
vt 0.410645 0.942871
vt 0.362793 0.942871
vt 0.362793 0.999512
vt 0.362793 0.944824
vt 0.250488 0.828613
vt 0.298340 0.772949
vt 0.250488 0.772949
vt 0.298340 0.828613
vt 0.250488 0.772949
vt 0.298340 0.772949
vt 0.250488 0.885254
vt 0.360840 0.830566
vt 0.250488 0.830566
vt 0.360840 0.885254
vt 0.250488 0.830566
vt 0.360840 0.830566
vt 0.360840 0.830566
vt 0.360840 0.885254
vt 0.298340 0.828613
vt 0.250488 0.828613
vt 0.250488 0.885254
vt 0.250488 0.830566
vt 0.362793 0.828613
vt 0.410645 0.772949
vt 0.362793 0.772949
vt 0.410645 0.828613
vt 0.362793 0.772949
vt 0.410645 0.772949
vt 0.362793 0.885254
vt 0.473145 0.830566
vt 0.362793 0.830566
vt 0.473145 0.885254
vt 0.362793 0.830566
vt 0.473145 0.830566
vt 0.473145 0.830566
vt 0.473145 0.885254
vt 0.410645 0.828613
vt 0.362793 0.828613
vt 0.362793 0.885254
vt 0.362793 0.830566
vn 1.0000 -0.0000 -0.0000
vn -1.0000 0.0000 0.0000
vn 0.0000 -0.0000 1.0000
vn -0.0000 -0.0000 -1.0000
vn 0.0000 1.0000 -0.0000
s 1
f 1/1/1 2/2/1 3/3/1
f 4/4/2 5/5/2 6/6/2
f 7/7/3 6/8/3 2/9/3
f 8/10/4 3/11/4 5/12/4
f 7/7/5 8/13/5 4/14/5
f 1/1/1 7/15/1 2/2/1
f 4/4/2 8/16/2 5/5/2
f 7/7/3 4/14/3 6/8/3
f 8/10/4 1/17/4 3/11/4
f 7/7/5 1/18/5 8/13/5
f 9/19/3 10/20/3 11/21/3
f 12/22/4 13/23/4 14/24/4
f 15/25/2 14/26/2 10/27/2
f 16/28/1 11/29/1 13/30/1
f 15/25/5 16/31/5 12/32/5
f 9/19/3 15/33/3 10/20/3
f 12/22/4 16/34/4 13/23/4
f 15/25/2 12/32/2 14/26/2
f 16/28/1 9/35/1 11/29/1
f 15/25/5 9/36/5 16/31/5
f 17/37/3 18/38/3 19/39/3
f 20/40/4 21/41/4 22/42/4
f 23/43/2 22/44/2 18/45/2
f 24/46/1 19/47/1 21/48/1
f 23/43/5 24/49/5 20/50/5
f 17/37/3 23/51/3 18/38/3
f 20/40/4 24/52/4 21/41/4
f 23/43/2 20/50/2 22/44/2
f 24/46/1 17/53/1 19/47/1
f 23/43/5 17/54/5 24/49/5
f 25/55/1 26/56/1 27/57/1
f 28/58/2 29/59/2 30/60/2
f 31/61/3 30/62/3 26/63/3
f 32/64/4 27/65/4 29/66/4
f 31/61/5 32/67/5 28/68/5
f 25/55/1 31/69/1 26/56/1
f 28/58/2 32/70/2 29/59/2
f 31/61/3 28/68/3 30/62/3
f 32/64/4 25/71/4 27/65/4
f 31/61/5 25/72/5 32/67/5
f 33/73/3 34/74/3 35/75/3
f 36/76/4 37/77/4 38/78/4
f 39/79/2 38/80/2 34/81/2
f 40/82/1 35/83/1 37/84/1
f 39/79/5 40/85/5 36/86/5
f 33/73/3 39/87/3 34/74/3
f 36/76/4 40/88/4 37/77/4
f 39/79/2 36/86/2 38/80/2
f 40/82/1 33/89/1 35/83/1
f 39/79/5 33/90/5 40/85/5
f 41/91/2 42/92/2 43/93/2
f 44/94/1 45/95/1 46/96/1
f 47/97/4 46/98/4 42/99/4
f 48/100/3 43/101/3 45/102/3
f 47/97/5 48/103/5 44/104/5
f 41/91/2 47/105/2 42/92/2
f 44/94/1 48/106/1 45/95/1
f 47/97/4 44/104/4 46/98/4
f 48/100/3 41/107/3 43/101/3
f 47/97/5 41/108/5 48/103/5
f 49/109/2 50/110/2 51/111/2
f 52/112/1 53/113/1 54/114/1
f 55/115/4 54/116/4 50/117/4
f 56/118/3 51/119/3 53/120/3
f 55/115/5 56/121/5 52/122/5
f 49/109/2 55/123/2 50/110/2
f 52/112/1 56/124/1 53/113/1
f 55/115/4 52/122/4 54/116/4
f 56/118/3 49/125/3 51/119/3
f 55/115/5 49/126/5 56/121/5
f 57/127/3 58/128/3 59/129/3
f 60/130/4 61/131/4 62/132/4
f 63/133/2 62/134/2 58/135/2
f 64/136/1 59/137/1 61/138/1
f 63/133/5 64/139/5 60/140/5
f 57/127/3 63/141/3 58/128/3
f 60/130/4 64/142/4 61/131/4
f 63/133/2 60/140/2 62/134/2
f 64/136/1 57/143/1 59/137/1
f 63/133/5 57/144/5 64/139/5
f 65/145/3 66/146/3 67/147/3
f 68/148/4 69/149/4 70/150/4
f 71/151/2 70/152/2 66/153/2
f 72/154/1 67/155/1 69/156/1
f 71/151/5 72/157/5 68/158/5
f 65/145/3 71/159/3 66/146/3
f 68/148/4 72/160/4 69/149/4
f 71/151/2 68/158/2 70/152/2
f 72/154/1 65/161/1 67/155/1
f 71/151/5 65/162/5 72/157/5
f 73/163/2 74/164/2 75/165/2
f 76/166/1 77/167/1 78/168/1
f 79/169/4 78/170/4 74/171/4
f 80/172/3 75/173/3 77/174/3
f 79/169/5 80/175/5 76/176/5
f 73/163/2 79/177/2 74/164/2
f 76/166/1 80/178/1 77/167/1
f 79/169/4 76/176/4 78/170/4
f 80/172/3 73/179/3 75/173/3
f 79/169/5 73/180/5 80/175/5
f 81/181/2 82/182/2 83/183/2
f 84/184/1 85/185/1 86/186/1
f 87/187/4 86/188/4 82/189/4
f 88/190/3 83/191/3 85/192/3
f 87/187/5 88/193/5 84/194/5
f 81/181/2 87/195/2 82/182/2
f 84/184/1 88/196/1 85/185/1
f 87/187/4 84/194/4 86/188/4
f 88/190/3 81/197/3 83/191/3
f 87/187/5 81/198/5 88/193/5
f 89/199/3 90/200/3 91/201/3
f 92/202/4 93/203/4 94/204/4
f 95/205/2 94/206/2 90/207/2
f 96/208/1 91/209/1 93/210/1
f 95/205/5 96/211/5 92/212/5
f 89/199/3 95/213/3 90/200/3
f 92/202/4 96/214/4 93/203/4
f 95/205/2 92/212/2 94/206/2
f 96/208/1 89/215/1 91/209/1
f 95/205/5 89/216/5 96/211/5
f 97/217/1 98/218/1 99/219/1
f 100/220/2 101/221/2 102/222/2
f 103/223/3 102/224/3 98/225/3
f 104/226/4 99/227/4 101/228/4
f 103/223/5 104/229/5 100/230/5
f 97/217/1 103/231/1 98/218/1
f 100/220/2 104/232/2 101/221/2
f 103/223/3 100/230/3 102/224/3
f 104/226/4 97/233/4 99/227/4
f 103/223/5 97/234/5 104/229/5
f 105/235/3 106/236/3 107/237/3
f 108/238/4 109/239/4 110/240/4
f 111/241/2 110/242/2 106/243/2
f 112/244/1 107/245/1 109/246/1
f 111/241/5 112/247/5 108/248/5
f 105/235/3 111/249/3 106/236/3
f 108/238/4 112/250/4 109/239/4
f 111/241/2 108/248/2 110/242/2
f 112/244/1 105/251/1 107/245/1
f 111/241/5 105/252/5 112/247/5
f 113/253/3 114/254/3 115/255/3
f 116/256/4 117/257/4 118/258/4
f 119/259/2 118/260/2 114/261/2
f 120/262/1 115/263/1 117/264/1
f 119/259/5 120/265/5 116/266/5
f 113/253/3 119/267/3 114/254/3
f 116/256/4 120/268/4 117/257/4
f 119/259/2 116/266/2 118/260/2
f 120/262/1 113/269/1 115/263/1
f 119/259/5 113/270/5 120/265/5
f 121/271/1 122/272/1 123/273/1
f 124/274/2 125/275/2 126/276/2
f 127/277/3 126/278/3 122/279/3
f 128/280/4 123/281/4 125/282/4
f 127/277/5 128/283/5 124/284/5
f 121/271/1 127/285/1 122/272/1
f 124/274/2 128/286/2 125/275/2
f 127/277/3 124/284/3 126/278/3
f 128/280/4 121/287/4 123/281/4
f 127/277/5 121/288/5 128/283/5
