# Blender v2.91.0 Beta OBJ File: 'HOUSE.blend'
# www.blender.org
o Plane_Plane.002
v 0.000000 0.223522 -10.075975
v 0.000000 2.223518 -0.075975
v 0.000000 0.223518 -0.075975
v -0.043090 2.223518 -0.075975
v -0.043090 0.223522 -10.075975
v -0.043090 0.223518 -0.075975
v 0.000000 0.223525 -20.075975
v 0.000000 2.223522 -10.075975
v 0.000000 0.223522 -10.075975
v -0.043090 2.223522 -10.075975
v -0.043090 0.223525 -20.075975
v -0.043090 0.223522 -10.075975
v 0.000000 0.223528 -30.075975
v 0.000000 2.223524 -20.075975
v 0.000000 0.223525 -20.075975
v -0.043090 2.223524 -20.075975
v -0.043090 0.223528 -30.075975
v -0.043090 0.223525 -20.075975
v 0.000000 0.223532 -40.075974
v 0.000000 2.223528 -30.075975
v 0.000000 0.223528 -30.075975
v -0.043090 2.223528 -30.075975
v -0.043090 0.223532 -40.075974
v -0.043090 0.223528 -30.075975
v 0.000000 2.223522 -10.075975
v -0.043090 2.223522 -10.075975
v 0.000000 2.223524 -20.075975
v -0.043090 2.223524 -20.075975
v 0.000000 2.223528 -30.075975
v -0.043090 2.223528 -30.075975
v 0.000000 2.223531 -40.075974
v -0.043090 2.223531 -40.075974
vt 0.991699 0.252441
vt 0.748535 0.315918
vt 0.748535 0.252441
vt 0.748535 0.315918
vt 0.991699 0.252441
vt 0.748535 0.252441
vt 0.991699 0.252441
vt 0.748535 0.315918
vt 0.748535 0.252441
vt 0.748535 0.315918
vt 0.991699 0.252441
vt 0.748535 0.252441
vt 0.991699 0.252441
vt 0.748535 0.315918
vt 0.748535 0.252441
vt 0.748535 0.315918
vt 0.991699 0.252441
vt 0.748535 0.252441
vt 0.991699 0.252441
vt 0.748535 0.315918
vt 0.748535 0.252441
vt 0.748535 0.315918
vt 0.991699 0.252441
vt 0.748535 0.252441
vt 0.991699 0.315918
vt 0.991699 0.315918
vt 0.991699 0.315918
vt 0.991699 0.315918
vt 0.991699 0.315918
vt 0.991699 0.315918
vt 0.991699 0.315918
vt 0.991699 0.315918
vn 1.0000 0.0000 0.0000
vn -1.0000 -0.0000 0.0000
s 1
f 1/1/1 2/2/1 3/3/1
f 4/4/2 5/5/2 6/6/2
f 7/7/1 8/8/1 9/9/1
f 10/10/2 11/11/2 12/12/2
f 13/13/1 14/14/1 15/15/1
f 16/16/2 17/17/2 18/18/2
f 19/19/1 20/20/1 21/21/1
f 22/22/2 23/23/2 24/24/2
f 1/1/1 25/25/1 2/2/1
f 4/4/2 26/26/2 5/5/2
f 7/7/1 27/27/1 8/8/1
f 10/10/2 28/28/2 11/11/2
f 13/13/1 29/29/1 14/14/1
f 16/16/2 30/30/2 17/17/2
f 19/19/1 31/31/1 20/20/1
f 22/22/2 32/32/2 23/23/2
