# Blender v2.91.0 Beta OBJ File: 'decos.blend'
# www.blender.org
o Cube.011_Cube.001
v -0.000001 0.525051 -2.941928
v -0.669815 -0.132569 -1.675579
v -0.447001 0.623701 -1.013870
v -0.718572 0.443168 0.533706
v 0.702552 0.427218 0.543628
v 0.390273 0.673362 -1.284973
v 0.000001 0.003116 3.806161
v -0.000573 0.474949 4.083933
v -0.708403 -0.141123 0.901091
v -0.000001 0.532834 -4.093493
v 0.665414 -0.137602 -1.737558
v -0.001836 -0.033891 -3.442915
v 0.704087 -0.140213 0.927362
v -0.433680 0.817404 0.961167
v -0.112994 0.993169 1.108822
v 0.417288 0.844184 1.026481
v 0.436411 0.799951 1.010829
v 0.106464 0.936043 1.182136
v -0.423500 0.845550 1.035942
v -0.454962 0.245812 0.867871
v 0.454369 0.239556 0.830309
v -0.000001 0.563802 -4.115518
v 0.454369 0.239556 0.765525
v -0.454299 0.239149 0.767171
v -0.461830 0.245654 0.781672
v -0.440457 0.824454 0.973680
v -0.253836 0.922013 1.100065
v 0.000000 0.956729 1.165837
v 0.253754 0.921963 1.100161
v 0.440414 0.824398 0.973799
v 0.461777 0.245651 0.781640
vt 0.034994 0.143177
vt 0.079005 0.277236
vt 0.041151 0.370427
vt 0.070805 0.555116
vt 0.176512 0.254335
vt 0.163611 0.102108
vt 0.170856 0.089974
vt 0.194964 0.285622
vt 0.463384 0.445175
vt 0.438890 0.034244
vt 0.490234 0.001953
vt 0.416016 0.390557
vt 0.408353 0.716099
vt 0.025530 0.342761
vt 0.048608 0.006714
vt 0.408825 0.715497
vt 0.420124 0.925185
vt 0.490234 0.998047
vt 0.078325 0.272498
vt 0.463211 0.450016
vt 0.067142 0.566626
vt 0.416016 0.387356
vt 0.061888 0.996208
vt 0.333986 0.034742
vt 0.372979 0.009227
vt 0.339526 0.029481
vt 0.263154 0.268894
vt 0.302198 0.289484
vt 0.266687 0.272182
vt 0.260660 0.197330
vt 0.259766 0.197266
vt 0.045219 0.003716
vt 0.330078 0.107422
vt 0.330087 0.107422
vn 0.0022 0.9982 -0.0605
vn -0.8912 0.4233 -0.1629
vn -0.5486 0.8345 -0.0518
vn -0.7352 0.6739 0.0724
vn 0.7337 0.6759 0.0699
vn 0.5146 0.8535 -0.0817
vn -0.9747 -0.0973 0.2010
vn 0.0009 0.3587 0.9335
vn -0.9856 0.0775 0.1506
vn -0.6959 0.7181 0.0049
vn 0.8411 -0.4091 -0.3540
vn 0.8778 0.4467 -0.1730
vn 0.9759 -0.0916 0.1982
vn 0.9827 0.1054 0.1520
vn 0.9999 -0.0071 -0.0145
vn 0.0321 0.4209 -0.9065
vn 0.0428 0.5957 -0.8021
vn 0.0312 0.4075 -0.9127
vn 0.0137 -0.4296 0.9029
vn -0.0255 -0.8061 0.5913
vn 0.0163 -0.3993 0.9167
vn -0.8529 -0.3925 -0.3443
vn 0.0255 -0.2879 0.9573
vn -1.0000 -0.0000 0.0000
vn 0.7012 0.7129 0.0048
vn 0.0282 0.3592 -0.9328
s 1
f 1/1/1 2/2/2 3/3/3
f 3/3/3 2/2/2 4/4/4
f 3/5/3 4/6/4 5/7/5 6/8/6
f 4/9/4 7/10/7 8/11/8
f 9/12/9 4/9/4 2/13/2
f 6/14/6 1/1/1 3/3/3
f 1/1/1 10/15/10 2/2/2
f 7/10/7 4/9/4 9/12/9
f 11/16/11 12/17/11 10/18/11
f 11/19/12 1/1/1 6/14/6
f 5/20/5 8/11/8 7/10/13
f 6/14/6 5/21/5 11/19/12
f 13/22/14 11/16/15 5/20/5
f 5/21/5 4/4/4 8/23/8
f 5/20/5 7/10/13 13/22/14
f 14/24/16 15/25/17 16/26/18
f 17/27/19 18/28/20 19/29/21
f 2/13/22 10/18/22 12/17/22
f 19/29/21 20/30/23 21/31/23 17/27/19
f 1/1/24 22/32/24 10/15/24
f 1/1/1 11/19/12 10/15/25
f 14/24/16 16/26/18 23/33/26 24/34/26
l 25 26
l 27 28
l 28 29
l 29 30
l 30 31
l 27 26
