# Blender v2.91.0 Beta OBJ File: 'decos.blend'
# www.blender.org
o Cube.011_Cube.020
v 0.301033 0.298284 2.837402
v 0.000001 0.465805 4.093493
v 0.000001 -0.099885 3.394969
v 0.300402 -0.151351 2.601509
v 0.428603 0.590757 1.067670
v 0.602065 0.247054 1.808049
v 0.616212 0.221110 1.239748
v 0.769330 -0.202819 -0.334540
v 0.628564 -0.202819 -1.233327
v 0.628564 0.209963 -1.223932
v 0.769330 0.198407 -0.330160
v 0.626856 0.387438 -0.291383
v 0.000000 0.314000 -0.371912
v 0.000001 0.677449 1.401265
v 0.364384 0.535725 0.993691
v 0.506903 0.455511 0.457787
v -0.000001 0.373438 -4.082828
v -0.000001 0.410999 -4.088438
v 0.474834 0.457812 -1.021714
v 0.000001 0.458023 2.941927
v 0.583041 0.509937 0.523974
v 0.691765 0.226163 0.583455
v 0.600804 -0.202819 1.808049
v 0.715678 0.422388 -0.364080
v -0.000001 0.153935 -3.989846
v 0.000001 0.618378 1.636000
v 0.000000 0.487299 -1.201311
v 0.000000 0.410677 -0.850534
v 0.491453 0.410855 -0.899164
v 0.000001 0.496773 4.115518
v 0.000000 0.172529 -0.931822
v 0.000000 0.548356 -0.984952
v 0.446036 0.621245 -0.955478
v 0.454369 0.172529 -0.830309
v 0.000000 0.732556 -1.051092
v 0.000000 0.868038 -1.182626
v 0.251090 0.833198 -1.120181
v 0.000000 0.604631 -0.884441
v 0.426409 0.767901 -0.954150
v 0.251090 0.861522 -1.078964
v -0.000001 -0.065571 -3.753899
v 0.000000 0.898322 -1.142828
v 0.454369 0.172529 -0.765525
v 0.446036 0.632069 -0.912034
v 0.000000 0.172529 -0.765904
v 0.426409 0.754683 -1.002383
v 0.505843 0.180396 -0.831233
v 0.497983 0.624928 -0.956056
v 0.497933 0.638798 -0.907878
v 0.505843 0.180396 -0.766448
v 0.274705 0.871540 -1.146345
v 0.283637 0.895109 -1.101878
v 0.477102 0.779381 -0.957452
v 0.472463 0.778136 -1.008823
v 0.000000 0.907520 -1.212471
v 0.000000 0.937804 -1.172671
v 0.432573 0.757781 -1.003232
v 0.254260 0.838295 -1.123684
v 0.255422 0.866001 -1.082042
v 0.433168 0.769467 -0.954580
v 0.461237 0.173579 -0.830432
v 0.452969 0.621736 -0.955535
v 0.452961 0.635045 -0.907314
v 0.000000 0.903578 -1.146826
v 0.000000 0.873294 -1.186626
v 0.461238 0.173579 -0.765648
v -0.301031 0.298284 2.837402
v -0.300401 -0.151351 2.601509
v -0.428602 0.590757 1.067670
v -0.616211 0.221110 1.239748
v -0.602064 0.247054 1.808050
v -0.769330 -0.202819 -0.334539
v -0.769330 0.198407 -0.330160
v -0.628565 0.209963 -1.223932
v -0.628565 -0.202819 -1.233327
v -0.626856 0.387438 -0.291383
v -0.506903 0.455511 0.457787
v -0.364384 0.535725 0.993691
v -0.474834 0.457812 -1.021713
v -0.583040 0.509937 0.523974
v -0.691765 0.226163 0.583455
v -0.600803 -0.202819 1.808050
v -0.715678 0.422388 -0.364079
v -0.491454 0.410855 -0.899163
v -0.454369 0.172529 -0.830309
v -0.446036 0.621245 -0.955478
v -0.251091 0.833198 -1.120181
v -0.251091 0.861522 -1.078963
v -0.426410 0.767901 -0.954150
v -0.454369 0.172529 -0.765525
v -0.446036 0.632070 -0.912034
v -0.426410 0.754683 -1.002383
v -0.505844 0.180396 -0.831232
v -0.505843 0.180396 -0.766448
v -0.497933 0.638798 -0.907877
v -0.497983 0.624928 -0.956055
v -0.274705 0.871540 -1.146345
v -0.472463 0.778136 -1.008823
v -0.477102 0.779381 -0.957451
v -0.283638 0.895109 -1.101878
v -0.432573 0.757781 -1.003232
v -0.254260 0.838295 -1.123684
v -0.255422 0.866001 -1.082042
v -0.433169 0.769467 -0.954580
v -0.461238 0.173579 -0.830432
v -0.452970 0.621736 -0.955535
v -0.452961 0.635045 -0.907313
v -0.461238 0.173579 -0.765648
v 0.000000 0.489974 0.486623
vt 0.835938 0.398438
vt 0.835938 0.398438
vt 0.835938 0.398438
vt 0.789062 0.414062
vt 0.789062 0.414062
vt 0.789062 0.414062
vt 0.789062 0.414062
vt 0.789062 0.414062
vt 0.789062 0.414062
vt 0.835938 0.367188
vt 0.835938 0.367188
vt 0.835938 0.367188
vt 0.789062 0.414062
vt 0.789062 0.414062
vt 0.789062 0.414062
vt 0.789062 0.414062
vt 0.789062 0.414062
vt 0.789062 0.414062
vt 0.789062 0.414062
vt 0.835938 0.398438
vt 0.835938 0.398438
vt 0.835938 0.398438
vt 0.789062 0.414062
vt 0.789062 0.414062
vt 0.789062 0.414062
vt 0.835938 0.398438
vt 0.835938 0.398438
vt 0.835938 0.398438
vt 0.835938 0.367188
vt 0.789062 0.414062
vt 0.835938 0.398438
vt 0.835938 0.398438
vt 0.835938 0.398438
vt 0.835938 0.398438
vt 0.835938 0.398438
vt 0.835938 0.398438
vt 0.789062 0.414062
vt 0.835938 0.398438
vt 0.882812 0.414062
vt 0.882812 0.414062
vt 0.882812 0.414062
vt 0.882812 0.414062
vt 0.882812 0.414062
vt 0.882812 0.414062
vt 0.835938 0.382812
vt 0.835938 0.382812
vt 0.835938 0.382812
vt 0.789062 0.414062
vt 0.789062 0.414062
vt 0.835938 0.382812
vt 0.835938 0.382812
vt 0.835938 0.382812
vt 0.882812 0.414062
vt 0.835938 0.382812
vt 0.835938 0.382812
vt 0.835938 0.382812
vt 0.835938 0.382812
vt 0.835938 0.382812
vt 0.835938 0.382812
vt 0.835938 0.382812
vt 0.835938 0.382812
vt 0.835938 0.382812
vt 0.835938 0.382812
vt 0.835938 0.382812
vt 0.835938 0.382812
vt 0.835938 0.382812
vt 0.835938 0.382812
vt 0.835938 0.382812
vt 0.835938 0.382812
vt 0.835938 0.382812
vt 0.835938 0.382812
vt 0.835938 0.382812
vt 0.882812 0.414062
vt 0.835938 0.382812
vt 0.835938 0.398438
vt 0.789062 0.414062
vt 0.789062 0.414062
vt 0.789062 0.414062
vt 0.789062 0.414062
vt 0.789062 0.414062
vt 0.789062 0.414062
vt 0.835938 0.367188
vt 0.835938 0.367188
vt 0.789062 0.414062
vt 0.789062 0.414062
vt 0.789062 0.414062
vt 0.789062 0.414062
vt 0.789062 0.414062
vt 0.835938 0.398438
vt 0.835938 0.398438
vt 0.835938 0.398438
vt 0.789062 0.414062
vt 0.835938 0.398438
vt 0.835938 0.367188
vt 0.835938 0.367188
vt 0.789062 0.414062
vt 0.835938 0.398438
vt 0.835938 0.398438
vt 0.835938 0.398438
vt 0.835938 0.398438
vt 0.835938 0.398438
vt 0.882812 0.414062
vt 0.882812 0.414062
vt 0.835938 0.382812
vt 0.835938 0.382812
vt 0.835938 0.382812
vt 0.835938 0.382812
vt 0.882812 0.414062
vt 0.835938 0.382812
vt 0.835938 0.382812
vt 0.835938 0.382812
vt 0.835938 0.382812
vt 0.835938 0.382812
vt 0.835938 0.382812
vt 0.835938 0.382812
vt 0.835938 0.382812
vt 0.835938 0.382812
vt 0.835938 0.382812
vt 0.835938 0.382812
vt 0.835938 0.382812
vt 0.835938 0.382812
vt 0.835938 0.382812
vt 0.835938 0.382812
vt 0.835938 0.382812
vt 0.882812 0.414062
vt 0.835938 0.445312
vt 0.835938 0.445312
vt 0.835938 0.445312
vt 0.835938 0.445312
vt 0.835938 0.445312
vt 0.835938 0.367188
vt 0.789062 0.414062
vt 0.835938 0.398438
vt 0.835938 0.382812
vt 0.835938 0.398438
vt 0.789062 0.414062
vt 0.835938 0.445312
vn 0.9268 -0.2074 0.3131
vn 0.9134 -0.2887 0.2870
vn 0.9365 -0.1405 0.3213
vn 0.7924 0.5982 0.1193
vn 0.6804 0.7155 0.1582
vn 0.8831 0.4674 0.0414
vn 0.9993 0.0025 -0.0373
vn 0.9803 -0.0045 -0.1976
vn 0.9994 0.0004 -0.0342
vn -0.0532 0.9986 0.0019
vn -0.2329 0.9568 -0.1742
vn -0.2839 0.9573 -0.0547
vn 0.7947 0.5935 -0.1273
vn 0.9699 0.1176 -0.2131
vn 0.6723 0.7300 -0.1229
vn 0.4776 0.8771 0.0511
vn 0.9078 0.4022 0.1187
vn 0.9191 0.3695 0.1372
vn 0.9963 0.0219 0.0831
vn 0.9790 0.0111 0.2036
vn 0.9821 -0.0262 0.1865
vn 0.9912 0.0919 0.0954
vn -0.4400 0.8722 -0.2138
vn -0.3659 0.9301 0.0312
vn 0.9672 -0.1321 -0.2171
vn 0.9713 -0.0927 -0.2189
vn 0.9547 0.2898 -0.0675
vn 0.2200 0.9682 0.1189
vn 0.0054 0.9761 0.2172
vn -0.1133 0.9393 0.3239
vn -0.0200 0.9768 0.2134
vn -0.4004 0.8677 0.2946
vn 0.0719 0.9971 -0.0264
vn -0.2364 0.9088 -0.3437
vn 0.2876 0.9539 0.0864
vn 0.3602 0.9047 0.2277
vn 0.4671 0.8842 -0.0060
vn 0.4858 0.8715 0.0671
vn 0.9687 0.2127 -0.1279
vn -0.1487 0.9488 -0.2786
vn 0.0000 -0.2659 -0.9640
vn 0.1561 -0.2085 -0.9655
vn 0.0000 -0.1400 -0.9902
vn 0.0000 -0.5384 -0.8427
vn 0.0000 -0.6966 -0.7175
vn 0.1057 -0.7285 -0.6769
vn 0.0000 0.4440 0.8960
vn -0.0445 0.4883 0.8716
vn -0.1225 0.6725 0.7299
vn 0.9535 -0.2124 -0.2138
vn 0.9801 0.0045 -0.1983
vn 0.0000 0.6605 0.7508
vn 0.0197 0.2844 0.9585
vn 0.0000 0.2646 0.9644
vn 0.1244 -0.4386 -0.8900
vn 0.9999 0.0172 -0.0002
vn 0.9971 0.0738 -0.0200
vn 0.9999 0.0173 0.0000
vn 0.4853 0.7411 -0.4639
vn 0.7763 0.6209 -0.1087
vn 0.3954 0.7726 -0.4967
vn 0.9968 0.0760 -0.0264
vn 0.9145 0.3954 -0.0852
vn 0.0000 0.8030 -0.5959
vn 0.0000 0.7958 -0.6055
vn 0.1291 -0.4935 -0.8601
vn 0.1639 -0.6217 -0.7659
vn 0.1220 -0.4780 -0.8698
vn -0.0737 0.5520 0.8305
vn -0.1343 0.6475 0.7501
vn -0.1300 0.6400 0.7573
vn 0.0107 -0.2999 -0.9539
vn 0.0228 -0.2685 -0.9630
vn 0.0237 -0.2684 -0.9630
vn 0.0119 -0.2988 -0.9543
vn -0.0139 0.3123 0.9499
vn -0.0529 0.4868 0.8719
vn -0.0000 0.6055 0.7959
vn 0.0000 0.6026 0.7980
vn 0.0000 -0.6032 -0.7976
vn 0.1621 -0.6219 -0.7662
vn -0.0146 0.3121 0.9500
vn -0.0268 0.2930 0.9557
vn 0.1146 -0.2933 -0.9491
vn 0.0403 0.3027 0.9522
vn -0.9268 -0.2074 0.3131
vn -0.9134 -0.2887 0.2870
vn -0.9099 -0.3224 0.2611
vn -0.7924 0.5982 0.1193
vn -0.8831 0.4674 0.0414
vn -0.6804 0.7155 0.1582
vn -0.9993 0.0025 -0.0373
vn -0.9803 -0.0045 -0.1976
vn -0.9801 0.0045 -0.1983
vn 0.2329 0.9568 -0.1742
vn 0.0532 0.9986 0.0019
vn 0.2839 0.9573 -0.0547
vn -0.7947 0.5935 -0.1273
vn -0.9699 0.1176 -0.2131
vn -0.9758 -0.0323 -0.2164
vn -0.4776 0.8771 0.0511
vn -0.9078 0.4022 0.1187
vn -0.9191 0.3695 0.1372
vn -0.9963 0.0219 0.0831
vn -0.9790 0.0111 0.2036
vn -0.9912 0.0919 0.0954
vn -0.9821 -0.0262 0.1865
vn -0.9365 -0.1405 0.3213
vn 0.4400 0.8722 -0.2138
vn 0.3659 0.9301 0.0312
vn -0.9713 -0.0927 -0.2189
vn -0.9672 -0.1321 -0.2171
vn -0.9547 0.2898 -0.0675
vn -0.9994 0.0004 -0.0342
vn -0.2200 0.9682 0.1189
vn 0.1133 0.9393 0.3239
vn -0.0054 0.9761 0.2172
vn 0.0200 0.9768 0.2134
vn 0.4004 0.8677 0.2946
vn -0.6723 0.7300 -0.1229
vn -0.0719 0.9971 -0.0264
vn 0.2364 0.9088 -0.3437
vn -0.2876 0.9539 0.0864
vn 0.1487 0.9488 -0.2786
vn -1.0000 0.0000 0.0000
vn -0.1561 -0.2085 -0.9655
vn -0.1057 -0.7285 -0.6769
vn 0.1225 0.6725 0.7299
vn 0.0445 0.4883 0.8716
vn -0.9535 -0.2124 -0.2138
vn -0.0197 0.2844 0.9585
vn -0.0403 0.3027 0.9522
vn -0.1244 -0.4386 -0.8900
vn -0.9999 0.0172 -0.0002
vn -0.9971 0.0738 -0.0200
vn -0.9968 0.0760 -0.0264
vn -0.7763 0.6209 -0.1087
vn -0.4853 0.7411 -0.4639
vn -0.3954 0.7726 -0.4967
vn -0.9145 0.3954 -0.0852
vn -0.1292 -0.4935 -0.8601
vn -0.1639 -0.6217 -0.7659
vn -0.1621 -0.6219 -0.7662
vn 0.1343 0.6475 0.7501
vn 0.0737 0.5520 0.8305
vn 0.1300 0.6400 0.7573
vn -0.0228 -0.2685 -0.9630
vn -0.0107 -0.2999 -0.9539
vn -0.0237 -0.2684 -0.9630
vn -0.0119 -0.2987 -0.9543
vn 0.0139 0.3123 0.9499
vn 0.0146 0.3121 0.9500
vn 0.0268 0.2930 0.9557
vn 0.0276 0.2929 0.9557
vn -0.1146 -0.2933 -0.9491
vn -0.0766 0.9810 -0.1783
vn 0.0766 0.9810 -0.1783
vn 0.9099 -0.3224 0.2611
vn 0.9758 -0.0323 -0.2164
vn 1.0000 -0.0000 0.0000
vn 0.0000 -0.6026 -0.7980
vn -0.0276 0.2929 0.9557
vn -0.4858 0.8715 0.0671
vn -0.9687 0.2127 -0.1279
vn -0.3602 0.9047 0.2277
vn -0.4671 0.8842 -0.0060
vn -0.9999 0.0173 0.0000
vn -0.1220 -0.4780 -0.8698
vn 0.0529 0.4868 0.8719
s 1
f 1/1/1 3/2/2 4/3/3
f 5/4/4 6/5/5 7/6/6
f 8/7/7 10/8/8 11/9/9
f 13/10/10 16/11/11 12/12/12
f 10/8/13 18/13/14 19/14/15
f 20/15/16 6/5/5 5/4/4
f 5/4/4 22/16/17 21/17/18
f 22/16/19 23/18/20 8/7/7
f 6/5/21 4/19/3 23/18/20
f 7/6/22 6/5/21 23/18/20
f 12/20/12 21/21/23 24/22/24
f 10/8/8 25/23/25 17/24/26
f 11/9/27 21/17/18 22/16/17
f 8/7/7 11/9/9 22/16/19
f 26/25/28 20/15/16 5/4/4
f 28/26/29 19/27/30 27/28/31
f 29/29/32 13/10/10 12/12/12
f 19/14/15 18/13/14 27/30/33
f 5/31/34 14/32/35 26/33/36
f 29/34/32 24/22/24 19/27/30
f 20/35/16 2/36/37 1/1/38
f 11/9/27 19/14/15 24/37/39
f 21/21/23 15/38/40 5/31/34
f 32/39/41 34/40/42 31/41/43
f 35/42/44 36/43/45 37/44/46
f 38/45/47 39/46/48 40/47/49
f 41/48/50 10/8/8 9/49/51
f 38/45/47 40/47/49 42/50/52
f 43/51/53 38/45/47 45/52/54
f 46/53/55 35/42/44 37/44/46
f 47/54/56 49/55/57 50/56/58
f 52/57/59 54/58/60 51/59/61
f 48/60/62 53/61/63 49/55/57
f 56/62/64 51/59/61 55/63/65
f 57/64/66 51/59/67 54/58/68
f 60/65/69 52/57/70 59/66/71
f 62/67/72 47/54/73 61/68/74
f 57/64/66 48/60/75 62/67/72
f 60/65/69 49/55/76 53/61/77
f 59/66/71 56/62/78 64/69/79
f 65/70/80 51/59/67 58/71/81
f 63/72/82 50/56/83 49/55/76
f 33/73/84 35/42/44 46/53/55
f 38/45/47 44/74/85 39/46/48
f 67/75/86 3/2/87 2/36/88
f 69/76/89 70/77/90 71/78/91
f 72/79/92 74/80/93 75/81/94
f 77/82/95 13/10/96 76/83/97
f 74/80/98 18/13/99 17/24/100
f 71/78/91 20/15/101 69/76/89
f 81/84/102 69/76/89 80/85/103
f 81/84/104 82/86/105 70/77/106
f 71/78/107 68/87/108 67/88/86
f 70/77/106 82/86/105 71/78/107
f 80/89/109 76/90/97 83/91/110
f 74/80/93 17/24/111 25/23/112
f 80/85/103 73/92/113 81/84/102
f 72/79/92 81/84/104 73/92/114
f 26/25/115 69/76/89 20/15/101
f 79/93/116 28/26/117 27/28/118
f 84/94/119 13/10/96 28/95/117
f 79/96/120 27/30/121 18/13/99
f 69/97/122 14/32/123 78/98/124
f 83/91/110 84/99/119 79/93/116
f 20/35/125 2/36/125 30/100/125
f 73/92/113 79/96/120 74/80/98
f 80/89/109 78/98/124 77/101/95
f 85/102/126 32/39/41 31/41/43
f 35/42/44 87/103/127 36/43/45
f 38/45/47 88/104/128 89/105/129
f 74/80/93 41/48/130 75/81/94
f 38/45/47 42/50/52 88/104/128
f 90/106/131 38/45/47 91/107/132
f 92/108/133 87/103/127 35/42/44
f 93/109/134 95/110/135 96/111/136
f 98/112/137 100/113/138 97/114/139
f 99/115/140 96/111/136 95/110/135
f 97/114/139 56/62/64 55/63/65
f 101/116/141 97/114/142 102/117/143
f 100/113/144 104/118/145 103/119/146
f 93/109/147 106/120/148 105/121/149
f 96/111/150 101/116/141 106/120/148
f 104/118/145 95/110/151 107/122/152
f 56/62/78 103/119/146 64/69/79
f 97/114/142 65/70/80 102/117/143
f 107/122/152 94/123/153 108/124/154
f 86/125/155 35/42/44 32/39/41
f 38/45/47 89/105/129 91/107/132
f 109/126/156 78/127/124 14/128/123
f 109/126/157 15/129/40 16/130/11
f 1/1/1 2/36/158 3/2/2
f 8/7/7 9/49/51 10/8/8
f 13/10/10 109/131/157 16/11/11
f 10/8/13 17/24/159 18/13/14
f 20/15/16 1/132/38 6/5/5
f 5/4/4 7/6/6 22/16/17
f 22/16/19 7/6/22 23/18/20
f 6/5/21 1/132/1 4/19/3
f 12/20/12 16/133/11 21/21/23
f 11/9/27 24/37/39 21/17/18
f 28/26/29 29/34/32 19/27/30
f 29/29/32 28/95/29 13/10/10
f 5/31/34 15/38/40 14/32/35
f 29/34/32 12/20/12 24/22/24
f 20/35/160 30/100/160 2/36/160
f 11/9/27 10/8/13 19/14/15
f 21/21/23 16/133/11 15/38/40
f 32/39/41 33/73/84 34/40/42
f 41/48/50 25/23/25 10/8/8
f 43/51/53 44/74/85 38/45/47
f 47/54/56 48/60/62 49/55/57
f 52/57/59 53/61/63 54/58/60
f 48/60/62 54/58/60 53/61/63
f 56/62/64 52/57/59 51/59/61
f 57/64/66 58/71/81 51/59/67
f 60/65/69 53/61/77 52/57/70
f 62/67/72 48/60/75 47/54/73
f 57/64/66 54/58/68 48/60/75
f 60/65/69 63/72/82 49/55/76
f 59/66/71 52/57/70 56/62/78
f 65/70/80 55/63/161 51/59/67
f 63/72/82 66/134/162 50/56/83
f 33/73/84 32/39/41 35/42/44
f 67/75/86 68/135/108 3/2/87
f 72/79/92 73/92/114 74/80/93
f 77/82/95 109/131/156 13/10/96
f 74/80/98 79/96/120 18/13/99
f 71/78/91 67/88/163 20/15/101
f 81/84/102 70/77/90 69/76/89
f 81/84/104 72/79/92 82/86/105
f 71/78/107 82/86/105 68/87/108
f 80/89/109 77/101/95 76/90/97
f 80/85/103 83/136/164 73/92/113
f 79/93/116 84/99/119 28/26/117
f 84/94/119 76/83/97 13/10/96
f 69/97/122 26/33/165 14/32/123
f 83/91/110 76/90/97 84/99/119
f 20/35/101 67/75/163 2/36/166
f 73/92/113 83/136/164 79/96/120
f 80/89/109 69/97/122 78/98/124
f 85/102/126 86/125/155 32/39/41
f 74/80/93 25/23/112 41/48/130
f 90/106/131 45/52/54 38/45/47
f 93/109/134 94/123/167 95/110/135
f 98/112/137 99/115/140 100/113/138
f 99/115/140 98/112/137 96/111/136
f 97/114/139 100/113/138 56/62/64
f 101/116/141 98/112/168 97/114/142
f 100/113/144 99/115/169 104/118/145
f 93/109/147 96/111/150 106/120/148
f 96/111/150 98/112/168 101/116/141
f 104/118/145 99/115/169 95/110/151
f 56/62/78 100/113/144 103/119/146
f 97/114/142 55/63/161 65/70/80
f 107/122/152 95/110/151 94/123/153
f 86/125/155 92/108/133 35/42/44
f 109/126/156 77/137/95 78/127/124
f 109/126/157 14/128/35 15/129/40
