# Blender v2.91.0 Beta OBJ File: 'decos.blend'
# www.blender.org
o Plane.001_Plane
v 0.053762 30.127918 1.155295
v -3.027598 26.840034 0.502965
v -0.291203 26.483974 1.030566
v 2.463395 26.320213 0.502965
v 0.439450 24.276592 0.176801
v 0.909989 24.778667 0.276414
v -1.578015 24.549400 0.110538
v -0.617965 23.032326 -0.149364
v -0.602193 23.489971 -0.089368
v -1.572456 16.862553 -0.895307
v -0.405085 23.509251 -0.085838
v -1.673254 16.852528 -0.895307
v -1.865239 9.227466 -1.430115
v -0.451290 -1.495214 0.749754
v 2.941735 -15.507311 5.781602
v -0.403914 -1.407003 0.738957
v -1.912615 9.137933 -1.430115
v -3.495818 30.159542 0.076875
v -6.431463 26.740917 -0.575455
v -3.682185 26.504051 -0.047854
v -0.923074 26.460087 -0.575454
v -2.856344 24.330482 -0.901619
v -2.408057 24.852531 -0.802005
v -4.883756 24.515411 -0.967882
v -3.858718 23.041466 -1.227784
v 1.166154 26.335491 -0.369241
v 2.191191 24.861546 -0.629143
v 2.367724 28.324135 0.550788
v 3.193565 26.150566 -0.302979
v 3.641853 26.672611 -0.203365
v 2.554091 31.979626 0.675516
v 5.126836 28.280170 0.023187
v -0.381553 28.561001 0.023187
v 2.046949 25.036301 -0.569147
v 0.956020 18.427670 -1.375086
v 2.244376 25.051979 -0.565617
v 0.855055 18.419476 -1.375086
v 0.778724 10.901048 -1.909893
v 3.173430 0.525499 0.269975
v 7.311209 -9.181878 5.301825
v 3.222406 0.612833 0.259178
v 0.729723 10.812392 -1.909893
v -3.906511 23.647144 -1.167787
v -4.011003 17.223438 -1.973726
v -3.709403 23.666420 -1.164258
v -4.111802 17.213409 -1.973726
v -4.507497 9.180928 -2.508533
v -5.792713 -0.166706 -0.328665
v -7.288742 -12.447263 4.703184
v -5.745337 -0.078495 -0.339463
v -4.554873 9.091395 -2.508533
v -1.827991 24.944412 0.178211
v -3.928627 22.299389 -2.749924
v -3.678652 21.904377 -2.817596
v 2.426256 22.162327 -2.831882
v 0.899257 26.719273 -0.301569
v -1.084512 23.985508 -3.229703
v -0.817615 23.601727 -3.297375
v 5.270329 24.124596 -3.311660
v -5.150652 24.899197 -0.900209
v -7.134421 22.165424 -3.828343
v -6.867524 21.781643 -3.896016
v -0.779581 22.304516 -3.910301
v 0.053762 30.127918 1.081777
v -0.291203 26.483974 0.957048
v -3.027598 26.840034 0.429447
v 2.463395 26.320213 0.429448
v 0.439450 24.276592 0.103283
v 0.909989 24.778667 0.202897
v -1.578015 24.549400 0.037020
v -0.617965 23.032326 -0.222882
v -1.572456 16.862553 -0.968824
v -0.602193 23.489971 -0.162885
v -0.405085 23.509251 -0.159356
v -1.865239 9.227466 -1.503631
v -1.673254 16.852528 -0.968824
v 2.941735 -15.507311 5.708085
v -0.451290 -1.495214 0.676237
v -0.403914 -1.407003 0.665439
v -1.912615 9.137933 -1.503632
v -3.495818 30.159542 0.003358
v -3.682185 26.504051 -0.121371
v -6.431463 26.740917 -0.648972
v -0.923074 26.460087 -0.648972
v -2.856344 24.330482 -0.975137
v -2.408057 24.852531 -0.875523
v -4.883756 24.515411 -1.041399
v -3.858718 23.041466 -1.301301
v 1.166154 26.335491 -0.442759
v 2.367724 28.324135 0.477270
v 2.191191 24.861546 -0.702661
v 3.193565 26.150566 -0.376496
v 3.641853 26.672611 -0.276882
v 2.554091 31.979626 0.601998
v 5.126836 28.280170 -0.050330
v -0.381553 28.561001 -0.050331
v 0.956020 18.427670 -1.448604
v 2.046949 25.036301 -0.642664
v 2.244376 25.051979 -0.639135
v 0.778724 10.901048 -1.983410
v 0.855055 18.419476 -1.448604
v 7.311209 -9.181878 5.228308
v 3.173430 0.525499 0.196457
v 3.222406 0.612833 0.185660
v 0.729723 10.812392 -1.983410
v -4.011003 17.223438 -2.047244
v -3.906511 23.647144 -1.241305
v -3.709403 23.666420 -1.237775
v -4.507497 9.180928 -2.582052
v -4.111802 17.213409 -2.047244
v -7.288742 -12.447263 4.629666
v -5.792713 -0.166706 -0.402183
v -5.745337 -0.078495 -0.412980
v -4.554873 9.091395 -2.582052
v -1.827991 24.944412 0.104693
v -3.928627 22.299389 -2.823442
v 2.426256 22.162327 -2.905399
v 0.899257 26.719273 -0.375086
v -1.084512 23.985508 -3.303220
v 5.270329 24.124596 -3.385178
v -5.150652 24.899197 -0.973727
v -7.134421 22.165424 -3.901861
v -0.779581 22.304516 -3.983819
v 2.894358 -15.594201 5.803197
v 7.283965 -9.277022 5.323421
v -7.336119 -12.534153 4.724779
v 1.975472 21.681328 -2.927313
v 4.840861 23.624474 -3.407092
v -1.209049 21.804390 -4.005733
v 2.894358 -15.594201 5.729680
v 7.283965 -9.277022 5.249903
v -7.336119 -12.534153 4.651261
v -3.678652 21.904377 -2.891114
v 1.975472 21.681328 -3.000831
v -0.817615 23.601727 -3.370893
v 4.840861 23.624474 -3.480610
v -6.867524 21.781643 -3.969533
v -1.209049 21.804390 -4.079252
vt 0.070312 0.617188
vt 0.070312 0.617188
vt 0.070312 0.617188
vt 0.070312 0.617188
vt 0.070312 0.617188
vt 0.070312 0.617188
vt 0.070312 0.617188
vt 0.070312 0.617188
vt 0.117188 0.601562
vt 0.117188 0.601562
vt 0.117188 0.601562
vt 0.117188 0.601562
vt 0.117188 0.601562
vt 0.117188 0.601562
vt 0.117188 0.601562
vt 0.117188 0.601562
vt 0.117188 0.601562
vt 0.101562 0.617188
vt 0.101562 0.617188
vt 0.101562 0.617188
vt 0.101562 0.617188
vt 0.101562 0.617188
vt 0.101562 0.617188
vt 0.101562 0.617188
vt 0.101562 0.617188
vt 0.085938 0.617188
vt 0.085938 0.617188
vt 0.085938 0.617188
vt 0.085938 0.617188
vt 0.085938 0.617188
vt 0.085938 0.617188
vt 0.085938 0.617188
vt 0.085938 0.617188
vt 0.132812 0.601562
vt 0.132812 0.601562
vt 0.132812 0.601562
vt 0.132812 0.601562
vt 0.132812 0.601562
vt 0.132812 0.601562
vt 0.132812 0.601562
vt 0.132812 0.601562
vt 0.132812 0.601562
vt 0.148438 0.601562
vt 0.148438 0.601562
vt 0.148438 0.601562
vt 0.148438 0.601562
vt 0.148438 0.601562
vt 0.148438 0.601562
vt 0.148438 0.601562
vt 0.148438 0.601562
vt 0.148438 0.601562
vt 0.070312 0.617188
vt 0.070312 0.617188
vt 0.070312 0.617188
vt 0.070312 0.617188
vt 0.085938 0.617188
vt 0.085938 0.617188
vt 0.085938 0.617188
vt 0.085938 0.617188
vt 0.101562 0.617188
vt 0.101562 0.617188
vt 0.101562 0.617188
vt 0.101562 0.617188
vt 0.070312 0.617188
vt 0.070312 0.617188
vt 0.070312 0.617188
vt 0.070312 0.617188
vt 0.070312 0.617188
vt 0.070312 0.617188
vt 0.070312 0.617188
vt 0.070312 0.617188
vt 0.117188 0.601562
vt 0.117188 0.601562
vt 0.117188 0.601562
vt 0.117188 0.601562
vt 0.117188 0.601562
vt 0.117188 0.601562
vt 0.117188 0.601562
vt 0.117188 0.601562
vt 0.117188 0.601562
vt 0.101562 0.617188
vt 0.101562 0.617188
vt 0.101562 0.617188
vt 0.101562 0.617188
vt 0.101562 0.617188
vt 0.101562 0.617188
vt 0.101562 0.617188
vt 0.101562 0.617188
vt 0.085938 0.617188
vt 0.085938 0.617188
vt 0.085938 0.617188
vt 0.085938 0.617188
vt 0.085938 0.617188
vt 0.085938 0.617188
vt 0.085938 0.617188
vt 0.085938 0.617188
vt 0.132812 0.601562
vt 0.132812 0.601562
vt 0.132812 0.601562
vt 0.132812 0.601562
vt 0.132812 0.601562
vt 0.132812 0.601562
vt 0.132812 0.601562
vt 0.132812 0.601562
vt 0.132812 0.601562
vt 0.148438 0.601562
vt 0.148438 0.601562
vt 0.148438 0.601562
vt 0.148438 0.601562
vt 0.148438 0.601562
vt 0.148438 0.601562
vt 0.148438 0.601562
vt 0.148438 0.601562
vt 0.148438 0.601562
vt 0.070312 0.617188
vt 0.070312 0.617188
vt 0.070312 0.617188
vt 0.085938 0.617188
vt 0.085938 0.617188
vt 0.085938 0.617188
vt 0.101562 0.617188
vt 0.101562 0.617188
vt 0.101562 0.617188
vt 0.117188 0.601562
vt 0.132812 0.601562
vt 0.148438 0.601562
vt 0.070312 0.617188
vt 0.085938 0.617188
vt 0.101562 0.617188
vt 0.117188 0.601562
vt 0.132812 0.601562
vt 0.148438 0.601562
vt 0.070312 0.617188
vt 0.070312 0.617188
vt 0.085938 0.617188
vt 0.085938 0.617188
vt 0.101562 0.617188
vt 0.101562 0.617188
vn -0.1912 -0.0155 0.9814
vn 0.1849 -0.0511 0.9814
vn 0.1394 -0.3168 0.9382
vn -0.2179 -0.2972 0.9296
vn -0.0061 -0.1198 0.9928
vn 0.0070 -0.0701 0.9975
vn -0.2804 0.2636 0.9230
vn -0.2892 0.1530 0.9450
vn -0.1904 -0.0238 0.9814
vn 0.1870 -0.0430 0.9814
vn 0.1530 -0.3104 0.9382
vn -0.2048 -0.3063 0.9296
vn -0.0082 -0.1197 0.9928
vn 0.0058 -0.0710 0.9975
vn -0.3585 0.3046 0.8824
vn -0.3554 0.3063 0.8831
vn -0.3533 0.3074 0.8836
vn -0.2552 0.1411 0.9565
vn -0.0056 -0.1244 0.9922
vn 0.0066 -0.0668 0.9977
vn -0.5272 0.3764 0.7619
vn -0.4921 0.2604 0.8307
vn -0.4924 -0.4402 0.7509
vn 0.1621 -0.3014 0.9396
vn 0.4522 -0.5613 0.6931
vn 0.0991 -0.3303 0.9387
vn -0.4728 -0.4612 0.7509
vn 0.1750 -0.2941 0.9396
vn 0.4762 -0.5412 0.6931
vn 0.1133 -0.3256 0.9387
vn 0.1912 0.0155 -0.9814
vn -0.1849 0.0511 -0.9814
vn -0.1394 0.3168 -0.9382
vn 0.2179 0.2972 -0.9296
vn 0.0061 0.1198 -0.9928
vn -0.0070 0.0701 -0.9975
vn 0.2804 -0.2636 -0.9230
vn 0.2892 -0.1530 -0.9450
vn 0.1904 0.0238 -0.9814
vn -0.1870 0.0430 -0.9814
vn -0.1530 0.3104 -0.9382
vn 0.2048 0.3063 -0.9296
vn 0.0082 0.1197 -0.9928
vn -0.0058 0.0710 -0.9975
vn 0.3533 -0.3074 -0.8836
vn 0.2552 -0.1411 -0.9565
vn 0.0056 0.1244 -0.9922
vn -0.0066 0.0668 -0.9977
vn 0.5272 -0.3764 -0.7619
vn 0.4921 -0.2604 -0.8307
vn 0.4924 0.4402 -0.7509
vn -0.1621 0.3014 -0.9396
vn -0.4522 0.5613 -0.6931
vn -0.0991 0.3303 -0.9387
vn 0.4728 0.4612 -0.7509
vn -0.1750 0.2941 -0.9396
vn -0.4762 0.5412 -0.6931
vn -0.1133 0.3256 -0.9387
vn 0.0122 -0.1225 0.9924
vn 0.1375 -0.0727 0.9878
vn -0.1324 0.3065 0.9426
vn -0.1195 0.1836 0.9757
vn 0.0100 -0.1227 0.9924
vn 0.1297 -0.0717 0.9890
vn -0.3606 0.3034 0.8820
vn -0.1081 0.1815 0.9774
vn 0.0124 -0.1247 0.9921
vn 0.1371 -0.0725 0.9879
vn -0.3273 0.3921 0.8597
vn -0.2610 0.2542 0.9313
vn -0.0122 0.1225 -0.9924
vn -0.1375 0.0727 -0.9878
vn 0.1324 -0.3065 -0.9426
vn 0.1195 -0.1836 -0.9757
vn -0.0100 0.1227 -0.9924
vn -0.1297 0.0717 -0.9890
vn 0.3606 -0.3034 -0.8820
vn 0.1081 -0.1815 -0.9774
vn -0.0124 0.1247 -0.9921
vn -0.1371 0.0725 -0.9879
vn 0.3273 -0.3921 -0.8597
vn 0.2610 -0.2542 -0.9313
s 1
f 1/1/1 2/2/1 3/3/1
f 1/1/2 3/3/2 4/4/2
f 5/5/3 6/6/3 3/3/3
f 7/7/4 8/8/4 3/3/4
f 9/9/5 10/10/5 11/11/5
f 12/12/6 13/13/6 10/10/6
f 14/14/7 15/15/7 16/16/7
f 17/17/8 16/16/8 13/13/8
f 18/18/9 19/19/9 20/20/9
f 18/18/10 20/20/10 21/21/10
f 22/22/11 23/23/11 20/20/11
f 24/24/12 25/25/12 20/20/12
f 26/26/12 27/27/12 28/28/12
f 29/29/11 30/30/11 28/28/11
f 31/31/10 28/28/10 32/32/10
f 31/31/9 33/33/9 28/28/9
f 34/34/13 35/35/13 36/36/13
f 37/37/14 38/38/14 35/35/14
f 39/39/15 40/40/16 41/41/17
f 42/42/18 41/41/18 38/38/18
f 43/43/19 44/44/19 45/45/19
f 46/46/20 47/47/20 44/44/20
f 48/48/21 49/49/21 50/50/21
f 51/51/22 50/50/22 47/47/22
f 2/2/4 52/52/4 3/3/4
f 7/7/23 53/53/23 54/54/23
f 7/7/4 3/3/4 52/52/4
f 4/4/24 3/3/24 6/6/24
f 5/5/25 55/55/25 6/6/25
f 5/5/26 3/3/26 8/8/26
f 33/33/12 56/56/12 28/28/12
f 26/26/27 57/57/27 58/58/27
f 26/26/12 28/28/12 56/56/12
f 32/32/28 28/28/28 30/30/28
f 29/29/29 59/59/29 30/30/29
f 29/29/30 28/28/30 27/27/30
f 19/19/12 60/60/12 20/20/12
f 24/24/27 61/61/27 62/62/27
f 24/24/12 20/20/12 60/60/12
f 21/21/28 20/20/28 23/23/28
f 22/22/29 63/63/29 23/23/29
f 22/22/30 20/20/30 25/25/30
f 64/64/31 65/65/31 66/66/31
f 64/64/32 67/67/32 65/65/32
f 68/68/33 65/65/33 69/69/33
f 70/70/34 65/65/34 71/71/34
f 72/72/35 73/73/35 74/74/35
f 75/75/36 76/76/36 72/72/36
f 77/77/37 78/78/37 79/79/37
f 79/79/38 80/80/38 75/75/38
f 81/81/39 82/82/39 83/83/39
f 81/81/40 84/84/40 82/82/40
f 85/85/41 82/82/41 86/86/41
f 87/87/42 82/82/42 88/88/42
f 89/89/42 90/90/42 91/91/42
f 92/92/41 90/90/41 93/93/41
f 94/94/40 95/95/40 90/90/40
f 94/94/39 90/90/39 96/96/39
f 97/97/43 98/98/43 99/99/43
f 100/100/44 101/101/44 97/97/44
f 102/102/45 103/103/45 104/104/45
f 104/104/46 105/105/46 100/100/46
f 106/106/47 107/107/47 108/108/47
f 109/109/48 110/110/48 106/106/48
f 111/111/49 112/112/49 113/113/49
f 113/113/50 114/114/50 109/109/50
f 66/66/34 65/65/34 115/115/34
f 70/70/51 116/116/51 115/115/51
f 70/70/34 115/115/34 65/65/34
f 67/67/52 69/69/52 65/65/52
f 117/117/53 68/68/53 69/69/53
f 68/68/54 71/71/54 65/65/54
f 96/96/42 90/90/42 118/118/42
f 89/89/55 119/119/55 118/118/55
f 89/89/42 118/118/42 90/90/42
f 95/95/56 93/93/56 90/90/56
f 120/120/57 92/92/57 93/93/57
f 92/92/58 91/91/58 90/90/58
f 83/83/42 82/82/42 121/121/42
f 87/87/55 122/122/55 121/121/55
f 87/87/42 121/121/42 82/82/42
f 84/84/56 86/86/56 82/82/56
f 123/123/57 85/85/57 86/86/57
f 85/85/58 88/88/58 82/82/58
f 9/9/59 12/12/59 10/10/59
f 12/12/60 17/17/60 13/13/60
f 14/14/61 124/124/61 15/15/61
f 17/17/62 14/14/62 16/16/62
f 34/34/63 37/37/63 35/35/63
f 37/37/64 42/42/64 38/38/64
f 39/39/15 125/125/65 40/40/16
f 42/42/66 39/39/66 41/41/66
f 43/43/67 46/46/67 44/44/67
f 46/46/68 51/51/68 47/47/68
f 48/48/69 126/126/69 49/49/69
f 51/51/70 48/48/70 50/50/70
f 7/7/23 52/52/23 53/53/23
f 5/5/25 127/127/25 55/55/25
f 26/26/27 56/56/27 57/57/27
f 29/29/29 128/128/29 59/59/29
f 24/24/27 60/60/27 61/61/27
f 22/22/29 129/129/29 63/63/29
f 72/72/71 76/76/71 73/73/71
f 75/75/72 80/80/72 76/76/72
f 77/77/73 130/130/73 78/78/73
f 79/79/74 78/78/74 80/80/74
f 97/97/75 101/101/75 98/98/75
f 100/100/76 105/105/76 101/101/76
f 102/102/77 131/131/77 103/103/77
f 104/104/78 103/103/78 105/105/78
f 106/106/79 110/110/79 107/107/79
f 109/109/80 114/114/80 110/110/80
f 111/111/81 132/132/81 112/112/81
f 113/113/82 112/112/82 114/114/82
f 70/70/51 133/133/51 116/116/51
f 117/117/53 134/134/53 68/68/53
f 89/89/55 135/135/55 119/119/55
f 120/120/57 136/136/57 92/92/57
f 87/87/55 137/137/55 122/122/55
f 123/123/57 138/138/57 85/85/57
