# Blender v2.90.0 Alpha OBJ File: 'Decos.blend'
# www.blender.org
o Detail_Cube.007
v 0.000000 0.000000 -0.000166
v 8.562463 -0.000000 -8.562629
v 4.633971 0.000000 -11.187562
v -11.187396 -0.000000 4.633802
v -8.562463 0.000000 8.562295
v -4.633971 -0.000000 11.187228
v 11.187396 0.000000 -4.634139
v 8.562463 0.000000 8.562295
v 4.633971 -0.000000 11.187228
v 0.000000 0.000000 12.108983
v -4.633971 0.000000 -11.187562
v -8.562463 -0.000000 -8.562629
v 0.000000 -0.000000 -12.109317
v 11.187396 -0.000000 4.633802
v 12.109151 0.000000 -0.000167
v -11.187396 0.000000 -4.634139
v -12.109151 0.000000 -0.000167
vt 0.226562 0.554688
vt 0.226562 0.554688
vt 0.226562 0.554688
vt 0.226562 0.554688
vt 0.226562 0.554688
vt 0.226562 0.554688
vt 0.226562 0.554688
vt 0.226562 0.554688
vt 0.226562 0.554688
vt 0.226562 0.554688
vt 0.226562 0.554688
vt 0.226562 0.554688
vt 0.226562 0.554688
vt 0.226562 0.554688
vt 0.226562 0.554688
vt 0.226562 0.554688
vt 0.226562 0.554688
vn 0.0000 1.0000 -0.0000
s 1
f 1/1/1 2/2/1 3/3/1
f 1/1/1 4/4/1 5/5/1
f 6/6/1 1/1/1 5/5/1
f 1/1/1 7/7/1 2/2/1
f 8/8/1 1/1/1 9/9/1
f 9/9/1 1/1/1 10/10/1
f 10/10/1 1/1/1 6/6/1
f 1/1/1 11/11/1 12/12/1
f 1/1/1 13/13/1 11/11/1
f 1/1/1 3/3/1 13/13/1
f 1/1/1 8/8/1 14/14/1
f 1/1/1 14/14/1 15/15/1
f 1/1/1 15/15/1 7/7/1
f 1/1/1 12/12/1 16/16/1
f 1/1/1 16/16/1 17/17/1
f 1/1/1 17/17/1 4/4/1
