# Blender v2.91.0 Beta OBJ File: 'decos.blend'
# www.blender.org
o Cube.002_Cube.003
v 0.000000 -0.435793 0.176839
v 0.000000 15.379392 0.312838
v -0.312824 15.379392 0.000015
v -0.176840 -0.435793 -0.000001
v 0.176840 -0.435793 -0.000001
v 0.312824 15.379392 0.000015
v 0.000000 -0.435793 -0.176841
v 0.000000 15.379392 -0.312813
v 0.000000 15.656178 0.000015
v 1.288607 15.070960 -0.123530
v 2.577214 14.917321 -0.123530
v 1.288607 15.070960 0.123552
v 2.577214 14.917321 0.123552
v 2.577214 15.040861 0.000011
v 1.288607 15.194501 0.000011
v 3.813418 14.653795 -0.123530
v 3.813418 14.653795 0.123552
v 3.815988 14.779594 0.000011
v 0.000000 15.235864 0.000011
v 0.000000 15.112324 -0.123530
v 0.000000 15.112324 0.123552
v 4.200648 14.604733 -0.135620
v 4.375382 14.564977 -0.001793
v 8.910714 -1.875495 -0.001787
v 7.482042 -1.875493 -3.450905
v 3.843202 14.616094 -0.001772
v 3.882032 14.658691 -0.095537
v 0.583808 -1.875480 -3.450905
v -0.844863 -1.875482 -0.001787
v 4.200663 14.604734 0.132042
v 7.482042 -1.875491 3.447330
v 4.039758 14.641652 0.130816
v 4.032925 -1.875485 4.875999
v 4.039738 14.641652 -0.134381
v 4.032925 -1.875486 -4.879578
v 3.882046 14.658691 0.091986
v 0.583808 -1.875478 3.447330
vt 0.257812 0.804688
vt 0.257812 0.804688
vt 0.257812 0.804688
vt 0.257812 0.804688
vt 0.257812 0.804688
vt 0.257812 0.804688
vt 0.257812 0.804688
vt 0.257812 0.804688
vt 0.257812 0.804688
vt 0.257812 0.804688
vt 0.257812 0.804688
vt 0.257812 0.804688
vt 0.257812 0.804688
vt 0.257812 0.804688
vt 0.257812 0.804688
vt 0.257812 0.804688
vt 0.257812 0.804688
vt 0.257812 0.804688
vt 0.257812 0.804688
vt 0.257812 0.804688
vt 0.007812 0.632812
vt 0.007812 0.617188
vt 0.007812 0.632812
vt 0.007812 0.632812
vt 0.007812 0.617188
vt 0.007812 0.617188
vt 0.007812 0.617188
vt 0.007812 0.617188
vt 0.007812 0.632812
vt 0.007812 0.617188
vt 0.007812 0.632812
vt 0.007812 0.632812
vt 0.007812 0.632812
vt 0.007812 0.617188
vt 0.007812 0.617188
vt 0.007812 0.632812
vt 0.257812 0.804688
vn -0.7071 -0.0061 0.7071
vn 0.7071 -0.0061 0.7071
vn 0.7071 -0.0061 -0.7071
vn -0.7071 -0.0061 -0.7071
vn 0.5524 0.6243 -0.5524
vn 0.5524 0.6243 0.5524
vn -0.5524 0.6243 -0.5524
vn -0.5524 0.6243 0.5524
vn 0.0840 0.7046 0.7046
vn 0.0840 0.7046 -0.7046
vn 0.1475 0.6987 0.7000
vn 0.1474 0.6921 0.7066
vn 0.1475 0.6994 0.6994
vn 0.1475 0.6987 -0.7000
vn 0.1474 0.6921 -0.7066
vn 0.1474 0.6915 -0.7072
vn 0.0227 0.7069 -0.7069
vn 0.0227 0.7069 0.7069
vn 0.9248 0.3806 -0.0000
vn 0.6796 0.2694 -0.6823
vn 0.3207 0.2851 -0.9033
vn -0.9673 0.2536 0.0001
vn -0.6793 0.2749 -0.6804
vn -0.9619 0.2734 -0.0000
vn 0.6796 0.2694 0.6823
vn 0.9640 0.2659 -0.0000
vn 0.3207 0.2851 0.9032
vn -0.0009 0.2746 0.9616
vn -0.1055 0.2568 -0.9607
vn -0.6086 0.2726 -0.7452
vn -0.1054 0.2568 0.9607
vn -0.6793 0.2749 0.6804
vn -0.0009 0.2746 -0.9616
vn -0.6085 0.2726 0.7452
vn 0.1474 0.6915 0.7072
vn 0.1475 0.6994 -0.6994
s 1
f 2/1/1 4/2/1 1/3/1
f 6/4/2 1/3/2 5/5/2
f 8/6/3 5/5/3 7/7/3
f 3/8/4 7/7/4 4/2/4
f 6/4/5 8/6/5 9/9/5
f 2/1/6 6/4/6 9/9/6
f 8/6/7 3/8/7 9/9/7
f 3/8/8 2/1/8 9/9/8
f 12/10/9 14/11/9 15/12/9
f 14/11/10 10/13/10 15/12/10
f 13/14/11 18/15/12 14/11/13
f 11/16/14 18/15/15 16/17/16
f 15/12/17 20/18/17 19/19/17
f 21/20/18 15/12/18 19/19/18
f 23/21/19 25/22/20 22/23/21
f 26/24/22 28/25/23 29/26/24
f 23/21/19 31/27/25 24/28/26
f 30/29/27 33/30/28 31/27/25
f 34/31/29 28/25/23 27/32/30
f 32/33/31 37/34/32 33/30/28
f 22/23/21 35/35/33 34/31/29
f 26/24/22 37/34/32 36/36/34
f 2/1/1 3/8/1 4/2/1
f 6/4/2 2/1/2 1/3/2
f 8/6/3 6/4/3 5/5/3
f 3/8/4 8/6/4 7/7/4
f 12/10/9 13/14/9 14/11/9
f 14/11/10 11/16/10 10/13/10
f 13/14/11 17/37/35 18/15/12
f 11/16/14 14/11/36 18/15/15
f 15/12/17 10/13/17 20/18/17
f 21/20/18 12/10/18 15/12/18
f 23/21/19 24/28/26 25/22/20
f 26/24/22 27/32/30 28/25/23
f 23/21/19 30/29/27 31/27/25
f 30/29/27 32/33/31 33/30/28
f 34/31/29 35/35/33 28/25/23
f 32/33/31 36/36/34 37/34/32
f 22/23/21 25/22/20 35/35/33
f 26/24/22 29/26/24 37/34/32
