# Blender v2.91.0 Beta OBJ File: 'decos.blend'
# www.blender.org
o Cube.002_Cube.104
v 0.000000 -0.435793 -0.000001
v 0.000000 15.379392 0.312836
v -0.312824 15.379392 0.000012
v 0.312824 15.379392 0.000012
v 0.000000 15.379392 -0.312815
v 0.000000 15.656178 0.000012
v 0.000007 15.194500 -0.020292
v 0.000007 14.779594 -3.815986
v -0.123534 14.653795 -3.813416
v -0.123534 15.070959 -0.020292
v 0.123548 15.070959 -0.020292
v 0.123548 14.653795 -3.813416
v 0.000007 14.947418 -0.020291
v 0.000007 14.554107 -3.784733
v 0.062705 15.070960 -0.115326
v 3.355342 14.653795 1.816343
v 3.268275 14.554107 1.908562
v 0.000406 14.947419 -0.008644
v 3.230745 14.653795 2.029709
v -0.061893 15.070960 0.098039
v 0.000406 15.194501 -0.008644
v 3.295263 14.779594 1.924322
v 0.062812 15.070960 0.101217
v -3.247851 14.653795 2.002222
v -3.284352 14.554107 1.880760
v 0.001420 14.947419 -0.005991
v -0.059972 15.070960 -0.113198
v -3.370634 14.653795 1.787807
v -3.311473 14.779594 1.896291
v 0.001420 15.194501 -0.005990
v 3.192852 15.357355 2.290921
v 2.954388 14.239701 2.534401
v 4.118733 14.057550 2.323546
v 3.025705 14.239701 1.494007
v -2.990595 15.007267 2.538464
v -3.205444 15.219559 1.480381
v -4.276896 14.912525 2.156098
v -3.360530 14.006797 2.594080
v -3.879853 14.098111 1.465169
v -0.565171 14.035510 -3.917345
v -0.013308 14.282230 -4.857507
v 0.698447 14.239700 -3.829326
v 0.199716 15.367162 -4.406672
v -0.475587 15.036351 -3.446644
v 4.163459 15.107358 1.721019
vt 0.257812 0.804688
vt 0.257812 0.804688
vt 0.257812 0.804688
vt 0.257812 0.804688
vt 0.257812 0.804688
vt 0.257812 0.804688
vt 0.257812 0.804688
vt 0.257812 0.804688
vt 0.257812 0.804688
vt 0.257812 0.804688
vt 0.257812 0.804688
vt 0.257812 0.804688
vt 0.257812 0.804688
vt 0.257812 0.804688
vt 0.257812 0.804688
vt 0.257812 0.804688
vt 0.257812 0.804688
vt 0.257812 0.804688
vt 0.257812 0.804688
vt 0.257812 0.804688
vt 0.257812 0.804688
vt 0.257812 0.804688
vt 0.257812 0.804688
vt 0.257812 0.804688
vt 0.257812 0.804688
vt 0.257812 0.804688
vt 0.257812 0.804688
vt 0.257812 0.804688
vt 0.257812 0.804688
vt 0.257812 0.804688
vt 0.132812 0.773438
vt 0.132812 0.773438
vt 0.132812 0.773438
vt 0.210938 0.835938
vt 0.210938 0.835938
vt 0.210938 0.835938
vt 0.132812 0.773438
vt 0.132812 0.773438
vt 0.132812 0.773438
vt 0.132812 0.773438
vt 0.132812 0.773438
vt 0.132812 0.773438
vt 0.210938 0.835938
vt 0.210938 0.835938
vt 0.210938 0.835938
vt 0.132812 0.773438
vt 0.132812 0.773438
vt 0.132812 0.773438
vt 0.132812 0.773438
vt 0.132812 0.773438
vt 0.132812 0.773438
vn -0.7070 -0.0061 0.7072
vn -0.7071 -0.0061 0.7071
vn 0.7072 -0.0061 0.7070
vn 0.7071 -0.0061 0.7071
vn 0.7070 -0.0061 -0.7072
vn 0.7071 -0.0061 -0.7071
vn -0.7072 -0.0061 -0.7070
vn -0.7071 -0.0061 -0.7071
vn 0.7094 0.1442 -0.6899
vn 0.6899 0.1442 -0.7094
vn 0.6997 0.1441 -0.6997
vn 0.6899 0.1442 0.7094
vn 0.7094 0.1442 0.6899
vn 0.6997 0.1441 0.6997
vn -0.6899 0.1442 -0.7094
vn -0.7094 0.1442 -0.6899
vn -0.6997 0.1441 -0.6997
vn -0.7094 0.1442 0.6899
vn -0.6899 0.1442 0.7094
vn -0.6997 0.1441 0.6997
vn -0.0000 1.0000 0.0000
vn -0.0000 0.9783 -0.2074
vn -0.9986 -0.0528 0.0079
vn -1.0000 -0.0000 0.0000
vn 1.0000 -0.0000 0.0000
vn 0.9986 -0.0528 0.0079
vn -0.0000 -1.0000 -0.0000
vn -0.0000 -0.9795 0.2016
vn 0.5094 0.0000 -0.8605
vn 0.4968 -0.0528 -0.8663
vn -0.1741 -0.9795 -0.1017
vn 0.0014 -1.0000 -0.0023
vn -0.5104 -0.0528 0.8583
vn -0.5094 -0.0000 0.8605
vn 0.0014 1.0000 -0.0023
vn 0.1791 0.9783 0.1046
vn 0.4999 0.0000 0.8661
vn 0.5031 -0.0528 0.8626
vn 0.1750 -0.9795 -0.1002
vn -0.0008 -1.0000 -0.0014
vn -0.4999 0.0000 -0.8661
vn -0.4894 -0.0528 -0.8705
vn -0.1800 0.9782 0.1031
vn -0.0008 1.0000 -0.0014
vn -0.3480 0.8829 0.3154
vn -0.6216 -0.4050 0.6705
vn 0.7201 -0.6044 0.3409
vn -0.5117 -0.3927 -0.7642
vn 0.6883 0.4216 0.5903
vn 0.4424 0.5976 -0.6687
vn -0.9020 0.3740 0.2158
vn 0.2581 -0.7604 0.5960
vn -0.2805 -0.6661 -0.6911
vn -0.7281 -0.6642 0.1694
vn -0.0808 -0.3278 -0.9413
vn 0.8500 -0.3947 0.3489
vn 0.1975 0.9018 -0.3843
vn -0.5319 0.5066 0.6785
vn 0.7353 0.5498 -0.3963
s 1
f 1/1/1 2/2/2 3/3/2
f 1/1/3 4/4/4 2/2/4
f 1/1/5 5/5/6 4/4/6
f 1/1/7 3/3/8 5/5/8
f 4/4/9 5/5/10 6/6/11
f 2/2/12 4/4/13 6/6/14
f 5/5/15 3/3/16 6/6/17
f 3/3/18 2/2/19 6/6/20
f 7/7/21 8/8/22 9/9/23 10/10/24
f 11/11/25 12/12/26 8/8/22 7/7/21
f 13/13/27 14/14/28 12/12/26 11/11/25
f 15/15/29 16/16/30 17/17/31 18/18/32
f 10/10/24 9/9/23 14/14/28 13/13/27
f 18/18/32 17/17/31 19/19/33 20/20/34
f 21/21/35 22/22/36 16/16/30 15/15/29
f 23/23/37 24/24/38 25/25/39 26/26/40
f 20/20/34 19/19/33 22/22/36 21/21/35
f 27/27/41 28/28/42 29/29/43 30/30/44
f 26/26/40 25/25/39 28/28/42 27/27/41
f 30/30/44 29/29/43 24/24/38 23/23/37
f 31/31/45 32/32/46 33/33/47
f 33/34/47 32/35/46 34/36/48
f 31/31/45 34/37/48 32/32/46
f 35/38/49 36/39/50 37/40/51
f 38/41/52 37/40/51 39/42/53
f 36/39/50 38/41/52 39/42/53
f 40/43/54 41/44/55 42/45/56
f 43/46/57 42/47/56 41/48/55
f 42/47/56 44/49/58 40/50/54
f 34/37/48 45/51/59 33/33/47
f 45/51/59 31/31/45 33/33/47
f 34/37/48 31/31/45 45/51/59
f 38/41/52 35/38/49 37/40/51
f 37/40/51 36/39/50 39/42/53
f 38/41/52 36/39/50 35/38/49
f 44/49/58 43/46/57 41/48/55
f 44/49/58 41/48/55 40/50/54
f 43/46/57 44/49/58 42/47/56
