# Blender v2.91.0 Beta OBJ File: 'decos.blend'
# www.blender.org
o Cube.002_Cube.103
v 0.000000 -0.435793 -0.704608
v 0.000000 0.835375 -0.704608
v 0.704605 0.835375 -0.000002
v 0.704605 -0.435793 -0.000002
v 0.000000 -0.435793 0.704603
v 0.000000 0.835375 0.704603
v -0.704605 0.835375 -0.000002
v -0.704605 -0.435793 -0.000002
v 0.000000 -0.435793 0.176839
v 0.000000 15.379392 0.312840
v -0.312824 15.379392 0.000018
v -0.176840 -0.435793 -0.000001
v 0.176840 -0.435793 -0.000001
v 0.312824 15.379392 0.000018
v 0.000000 -0.435793 -0.176841
v 0.000000 15.379392 -0.312811
v 0.000000 15.656178 0.000018
v -0.123534 15.070959 -1.288599
v -0.123534 14.917320 -2.577208
v 0.000007 14.793779 -2.577208
v 0.000007 14.947418 -1.288601
v 0.123548 15.070959 -1.288599
v 0.123548 14.917320 -2.577208
v 0.000007 15.040860 -2.577208
v 0.000007 15.194500 -1.288599
v -0.123534 14.653797 -3.813412
v 0.000007 14.554109 -3.784729
v 0.123548 14.653797 -3.813412
v 0.000007 14.779596 -3.815982
v 0.000007 15.194500 -0.020288
v 0.123548 15.070959 -0.020288
v 0.000007 14.947418 -0.020287
v 1.175062 15.070960 0.543144
v 2.287828 14.917321 1.192958
v 2.225529 14.793780 1.299641
v 1.112763 14.947419 0.649827
v 1.050464 15.070960 0.756510
v 2.163230 14.917321 1.406324
v 2.225529 15.040861 1.299644
v 1.112763 15.194501 0.649828
v 3.355342 14.653795 1.816347
v 3.268275 14.554107 1.908566
v 3.230745 14.653795 2.029713
v 3.295263 14.779594 1.924326
v -0.123534 15.070959 -0.020288
v -1.056850 15.070960 0.747560
v -2.175087 14.917321 1.387913
v -2.236479 14.793780 1.280705
v -1.118242 14.947419 0.640353
v -1.179633 15.070960 0.533145
v -2.297871 14.917321 1.173498
v -2.236479 15.040861 1.280707
v -1.118242 15.194501 0.640355
v -3.247851 14.653795 2.002226
v -3.284352 14.554107 1.880764
v -3.370634 14.653795 1.787811
v -3.311473 14.779594 1.896295
v 0.000406 14.947419 -0.008640
v 0.062705 15.070960 -0.115322
v 0.000406 15.194501 -0.008640
v -0.061893 15.070960 0.098043
v 3.510243 14.065372 2.049866
v 3.375494 14.065372 1.536843
v 3.777724 14.065372 1.591822
v 3.319680 14.620210 1.324342
v 3.375495 15.150634 1.536844
v 3.777724 15.150634 1.591823
v 3.888518 14.620210 1.402094
v 3.510243 15.370343 2.049870
v 4.023266 14.065372 1.915118
v 4.023267 15.150634 1.915120
v 4.235768 14.620210 1.859303
v 3.968287 14.065372 2.317347
v 3.968287 15.150634 2.317347
v 4.158015 14.620210 2.428141
v 3.644992 14.065372 2.562890
v 3.644992 15.150634 2.562889
v 3.700807 14.620210 2.775391
v 3.242763 14.065372 2.507910
v 3.242763 15.150634 2.507910
v 3.131968 14.620210 2.697638
v 2.997220 15.150634 2.184615
v 2.997220 14.065372 2.184615
v 2.784719 14.620210 2.240430
v 2.862472 14.620210 1.671592
v 3.052199 14.065372 1.782386
v 3.052199 15.150634 1.782387
v -3.527510 14.065372 2.020007
v -3.015648 14.065372 2.159103
v -3.263924 14.065372 2.480304
v -2.803628 14.620209 2.216718
v -3.015648 15.150633 2.159103
v -3.263924 15.150634 2.480304
v -3.154743 14.620210 2.670965
v -3.527510 15.370342 2.020010
v -3.666605 14.065372 2.531869
v -3.666605 15.150634 2.531869
v -3.724221 14.620210 2.743890
v -3.987806 14.065372 2.283594
v -3.987807 15.150633 2.283593
v -4.178467 14.620209 2.392774
v -4.039372 14.065371 1.880912
v -4.039372 15.150632 1.880916
v -4.251393 14.620208 1.823298
v -3.791096 14.065371 1.559711
v -3.791097 15.150632 1.559713
v -3.900277 14.620208 1.369050
v -3.388415 15.150633 1.508147
v -3.388415 14.065372 1.508145
v -3.330800 14.620209 1.296125
v -2.876554 14.620209 1.647241
v -3.067214 14.065372 1.756421
v -3.067214 15.150633 1.756423
v -0.000294 14.065374 -4.064933
v -0.375333 14.065374 -3.689839
v -0.530719 14.065375 -4.064894
v -0.530679 14.620211 -3.534470
v -0.375334 15.150635 -3.689839
v -0.530719 15.150636 -4.064894
v -0.750428 14.620212 -4.064877
v -0.000294 15.370344 -4.064934
v -0.375389 14.065375 -4.439972
v -0.375389 15.150636 -4.439974
v -0.530758 14.620212 -4.595319
v -0.000334 14.065374 -4.595357
v -0.000334 15.150635 -4.595359
v -0.000350 14.620210 -4.815067
v 0.374745 14.065372 -4.440028
v 0.374745 15.150633 -4.440028
v 0.530091 14.620209 -4.595397
v 0.530130 14.065373 -4.064972
v 0.530130 15.150634 -4.064972
v 0.749839 14.620209 -4.064988
v 0.374800 15.150635 -3.689895
v 0.374800 14.065374 -3.689895
v 0.530169 14.620211 -3.534549
v -0.000239 14.620211 -3.314800
v -0.000255 14.065374 -3.534509
v -0.000255 15.150635 -3.534510
v 0.062812 15.070960 0.101221
v 0.001420 15.194501 -0.005986
v -0.059972 15.070960 -0.113194
v 0.001420 14.947419 -0.005987
v 0.304372 14.083524 -4.369644
v 0.430600 14.083525 -4.064965
v 2.971893 10.012771 -4.065155
v 2.101207 10.012764 -6.166744
v -3.313384 14.083524 2.393933
v -3.640505 14.083524 2.435823
v -4.306918 10.012774 4.888178
v -2.050527 10.012774 4.599240
v 3.093485 14.083524 2.159331
v 3.138147 14.083524 1.832577
v 0.943632 10.012773 0.551063
v 0.635563 10.012773 2.804920
v -3.741636 14.083523 1.646082
v -3.414515 14.083524 1.604192
v -2.748104 10.012776 -0.848170
v -5.004492 10.012769 -0.559223
v 3.927001 14.083524 1.940403
v 3.882339 14.083524 2.267157
v 6.076854 10.012771 3.548673
v 6.384922 10.012773 1.294816
v -0.431189 14.083527 -4.064900
v -0.305006 14.083527 -4.369600
v -2.102106 10.012783 -6.166439
v -2.972484 10.012783 -4.064714
v -3.153585 14.083524 1.805881
v -0.948279 10.012776 0.543024
v 0.304417 14.083526 -3.760267
v 2.101515 10.012776 -1.963436
v -3.901435 14.083524 2.234135
v -6.106740 10.012774 3.496993
v 3.400779 14.083524 1.633108
v 2.755188 10.012773 -0.824816
v -0.000262 14.083526 -3.634038
v -0.000074 10.012776 -1.092744
v 3.619708 14.083524 2.466626
v 4.265298 10.012771 4.924551
v -0.000327 14.083526 -4.495828
v -0.000517 10.012778 -7.037126
v -3.111695 14.083524 2.133003
v -0.659333 10.012776 2.799420
v -3.943325 14.083523 1.907012
v -6.395685 10.012769 1.240599
v 3.727533 14.083524 1.677771
v 5.009050 10.012773 -0.516746
v -0.304960 14.083526 -3.760222
v -2.101793 10.012776 -1.963121
v 3.292953 14.083524 2.421962
v 2.011442 10.012771 4.616476
vt 0.179688 0.867188
vt 0.179688 0.867188
vt 0.179688 0.867188
vt 0.179688 0.867188
vt 0.179688 0.867188
vt 0.179688 0.867188
vt 0.179688 0.867188
vt 0.179688 0.867188
vt 0.226562 0.789062
vt 0.226562 0.789062
vt 0.226562 0.789062
vt 0.226562 0.789062
vt 0.257812 0.804688
vt 0.257812 0.804688
vt 0.257812 0.804688
vt 0.257812 0.804688
vt 0.257812 0.804688
vt 0.257812 0.804688
vt 0.257812 0.804688
vt 0.257812 0.804688
vt 0.257812 0.804688
vt 0.257812 0.804688
vt 0.257812 0.804688
vt 0.257812 0.804688
vt 0.257812 0.804688
vt 0.257812 0.804688
vt 0.257812 0.804688
vt 0.257812 0.804688
vt 0.257812 0.804688
vt 0.257812 0.804688
vt 0.257812 0.804688
vt 0.257812 0.804688
vt 0.257812 0.804688
vt 0.257812 0.804688
vt 0.257812 0.804688
vt 0.257812 0.804688
vt 0.257812 0.804688
vt 0.257812 0.804688
vt 0.257812 0.804688
vt 0.257812 0.804688
vt 0.257812 0.804688
vt 0.257812 0.804688
vt 0.257812 0.804688
vt 0.257812 0.804688
vt 0.257812 0.804688
vt 0.257812 0.804688
vt 0.257812 0.804688
vt 0.257812 0.804688
vt 0.257812 0.804688
vt 0.257812 0.804688
vt 0.257812 0.804688
vt 0.257812 0.804688
vt 0.257812 0.804688
vt 0.257812 0.804688
vt 0.257812 0.804688
vt 0.257812 0.804688
vt 0.257812 0.804688
vt 0.257812 0.804688
vt 0.257812 0.804688
vt 0.257812 0.804688
vt 0.257812 0.804688
vt 0.257812 0.804688
vt 0.257812 0.804688
vt 0.257812 0.804688
vt 0.257812 0.804688
vt 0.210938 0.835938
vt 0.210938 0.835938
vt 0.210938 0.835938
vt 0.132812 0.773438
vt 0.132812 0.773438
vt 0.132812 0.773438
vt 0.132812 0.773438
vt 0.132812 0.773438
vt 0.132812 0.773438
vt 0.132812 0.773438
vt 0.210938 0.835938
vt 0.132812 0.773438
vt 0.132812 0.773438
vt 0.132812 0.773438
vt 0.210938 0.835938
vt 0.132812 0.773438
vt 0.132812 0.773438
vt 0.132812 0.773438
vt 0.210938 0.835938
vt 0.132812 0.773438
vt 0.132812 0.773438
vt 0.132812 0.773438
vt 0.210938 0.835938
vt 0.132812 0.773438
vt 0.132812 0.773438
vt 0.132812 0.773438
vt 0.132812 0.773438
vt 0.210938 0.835938
vt 0.132812 0.773438
vt 0.132812 0.773438
vt 0.132812 0.773438
vt 0.132812 0.773438
vt 0.132812 0.773438
vt 0.210938 0.835938
vt 0.210938 0.835938
vt 0.210938 0.835938
vt 0.210938 0.835938
vt 0.132812 0.773438
vt 0.132812 0.773438
vt 0.132812 0.773438
vt 0.132812 0.773438
vt 0.132812 0.773438
vt 0.132812 0.773438
vt 0.132812 0.773438
vt 0.210938 0.835938
vt 0.132812 0.773438
vt 0.132812 0.773438
vt 0.132812 0.773438
vt 0.210938 0.835938
vt 0.132812 0.773438
vt 0.132812 0.773438
vt 0.132812 0.773438
vt 0.210938 0.835938
vt 0.132812 0.773438
vt 0.132812 0.773438
vt 0.132812 0.773438
vt 0.210938 0.835938
vt 0.132812 0.773438
vt 0.132812 0.773438
vt 0.132812 0.773438
vt 0.132812 0.773438
vt 0.210938 0.835938
vt 0.132812 0.773438
vt 0.132812 0.773438
vt 0.132812 0.773438
vt 0.132812 0.773438
vt 0.132812 0.773438
vt 0.210938 0.835938
vt 0.210938 0.835938
vt 0.210938 0.835938
vt 0.210938 0.835938
vt 0.132812 0.773438
vt 0.132812 0.773438
vt 0.132812 0.773438
vt 0.132812 0.773438
vt 0.132812 0.773438
vt 0.132812 0.773438
vt 0.132812 0.773438
vt 0.210938 0.835938
vt 0.132812 0.773438
vt 0.132812 0.773438
vt 0.132812 0.773438
vt 0.210938 0.835938
vt 0.132812 0.773438
vt 0.132812 0.773438
vt 0.132812 0.773438
vt 0.210938 0.835938
vt 0.132812 0.773438
vt 0.132812 0.773438
vt 0.132812 0.773438
vt 0.210938 0.835938
vt 0.132812 0.773438
vt 0.132812 0.773438
vt 0.132812 0.773438
vt 0.132812 0.773438
vt 0.210938 0.835938
vt 0.132812 0.773438
vt 0.132812 0.773438
vt 0.132812 0.773438
vt 0.132812 0.773438
vt 0.132812 0.773438
vt 0.210938 0.835938
vt 0.257812 0.804688
vt 0.257812 0.804688
vt 0.257812 0.804688
vt 0.257812 0.804688
vt 0.007812 0.632812
vt 0.007812 0.632812
vt 0.007812 0.617188
vt 0.007812 0.617188
vt 0.007812 0.632812
vt 0.007812 0.632812
vt 0.007812 0.617188
vt 0.007812 0.617188
vt 0.007812 0.632812
vt 0.007812 0.632812
vt 0.007812 0.617188
vt 0.007812 0.617188
vt 0.007812 0.632812
vt 0.007812 0.632812
vt 0.007812 0.617188
vt 0.007812 0.617188
vt 0.007812 0.632812
vt 0.007812 0.632812
vt 0.007812 0.617188
vt 0.007812 0.617188
vt 0.007812 0.632812
vt 0.007812 0.632812
vt 0.007812 0.617188
vt 0.007812 0.617188
vt 0.007812 0.632812
vt 0.007812 0.617188
vt 0.007812 0.632812
vt 0.007812 0.617188
vt 0.007812 0.632812
vt 0.007812 0.617188
vt 0.007812 0.632812
vt 0.007812 0.617188
vt 0.007812 0.632812
vt 0.007812 0.617188
vt 0.007812 0.632812
vt 0.007812 0.617188
vt 0.007812 0.632812
vt 0.007812 0.617188
vt 0.007812 0.632812
vt 0.007812 0.617188
vt 0.007812 0.632812
vt 0.007812 0.617188
vt 0.007812 0.632812
vt 0.007812 0.617188
vt 0.007812 0.632812
vt 0.007812 0.617188
vt 0.007812 0.632812
vt 0.007812 0.617188
vn 0.7071 0.0000 -0.7071
vn -0.7071 -0.0000 0.7071
vn -0.7071 0.0000 -0.7071
vn 0.7071 -0.0000 0.7071
vn 0.0000 1.0000 0.0000
vn -0.7071 -0.0061 0.7071
vn 0.7071 -0.0061 0.7071
vn 0.7071 -0.0061 -0.7071
vn -0.7071 -0.0061 -0.7071
vn 0.5524 0.6243 -0.5524
vn 0.5524 0.6243 0.5524
vn -0.5524 0.6243 -0.5524
vn -0.5524 0.6243 0.5524
vn -0.7065 -0.7065 0.0409
vn -0.6902 -0.7146 0.1143
vn -0.6879 -0.7160 0.1190
vn -0.7064 -0.7064 0.0431
vn 0.7065 -0.7065 0.0409
vn 0.7064 -0.7064 0.0431
vn 0.6879 -0.7160 0.1190
vn 0.6902 -0.7146 0.1143
vn 0.7064 0.7064 -0.0431
vn 0.7043 0.7000 -0.1181
vn 0.7044 0.7007 -0.1134
vn 0.7065 0.7065 -0.0409
vn -0.7065 0.7065 -0.0409
vn -0.7044 0.7007 -0.1134
vn -0.7043 0.7000 -0.1181
vn -0.7064 0.7064 -0.0431
vn -0.6724 -0.7250 0.1493
vn 0.6724 -0.7250 0.1493
vn 0.7033 0.6954 -0.1475
vn -0.7033 0.6954 -0.1475
vn 0.7071 0.7071 0.0000
vn 0.7071 -0.7071 0.0000
vn 0.3229 -0.7066 -0.6297
vn 0.2494 -0.7145 -0.6536
vn 0.2441 -0.7160 -0.6540
vn 0.3207 -0.7065 -0.6309
vn -0.3935 -0.7065 0.5883
vn -0.3952 -0.7064 0.5872
vn -0.4496 -0.7160 0.5340
vn -0.4467 -0.7146 0.5384
vn -0.3207 0.7065 0.6309
vn -0.2532 0.7000 0.6677
vn -0.2573 0.7007 0.6654
vn -0.3229 0.7066 0.6297
vn 0.3935 0.7065 -0.5883
vn 0.4531 0.7007 -0.5511
vn 0.4571 0.7000 -0.5486
vn 0.3952 0.7064 -0.5872
vn 0.2101 -0.7250 -0.6559
vn -0.4680 -0.7250 0.5053
vn -0.2273 0.6954 0.6817
vn 0.4820 0.6954 -0.5330
vn -0.7071 -0.7071 0.0000
vn -0.7071 0.7071 0.0000
vn 0.3877 -0.7065 0.5921
vn 0.4421 -0.7146 0.5422
vn 0.4451 -0.7160 0.5378
vn 0.3895 -0.7064 0.5910
vn -0.3167 -0.7066 -0.6328
vn -0.3147 -0.7065 -0.6339
vn -0.2385 -0.7160 -0.6560
vn -0.2438 -0.7146 -0.6557
vn -0.3895 0.7064 -0.5910
vn -0.4525 0.7000 -0.5525
vn -0.4484 0.7007 -0.5549
vn -0.3877 0.7065 -0.5921
vn 0.3167 0.7065 0.6328
vn 0.2516 0.7007 0.6676
vn 0.2475 0.7000 0.6698
vn 0.3147 0.7065 0.6339
vn 0.4637 -0.7250 0.5093
vn -0.2046 -0.7250 -0.6577
vn -0.4775 0.6954 -0.5370
vn 0.2215 0.6954 0.6836
vn 0.3602 -0.7071 -0.6085
vn -0.3602 0.7071 0.6085
vn 0.0000 -1.0000 -0.0000
vn -0.2540 0.0072 -0.9672
vn -0.1902 0.6630 -0.7241
vn 0.3775 0.6630 -0.6465
vn 0.5043 0.0072 -0.8635
vn -0.2362 -0.3682 -0.8993
vn 0.4689 -0.3682 -0.8029
vn 0.7241 0.6630 -0.1902
vn 0.9672 0.0072 -0.2540
vn 0.8993 -0.3682 -0.2362
vn 0.6465 0.6630 0.3775
vn 0.8635 0.0072 0.5043
vn 0.8029 -0.3682 0.4689
vn 0.1902 0.6630 0.7241
vn 0.2540 0.0072 0.9672
vn 0.2362 -0.3682 0.8993
vn -0.3775 0.6630 0.6465
vn -0.5043 0.0072 0.8635
vn -0.4689 -0.3682 0.8029
vn -0.7241 0.6630 0.1902
vn -0.9672 0.0072 0.2540
vn -0.8993 -0.3682 0.2362
vn -0.8635 0.0072 -0.5043
vn -0.8029 -0.3682 -0.4689
vn -0.6465 0.6630 -0.3775
vn 0.9650 0.0072 0.2622
vn 0.7224 0.6630 0.1963
vn 0.3720 0.6630 0.6496
vn 0.4969 0.0072 0.8678
vn 0.8972 -0.3682 0.2438
vn 0.4620 -0.3682 0.8068
vn -0.1963 0.6630 0.7224
vn -0.2622 0.0072 0.9650
vn -0.2438 -0.3682 0.8972
vn -0.6496 0.6630 0.3720
vn -0.8678 0.0072 0.4969
vn -0.8068 -0.3682 0.4620
vn -0.7224 0.6630 -0.1963
vn -0.9650 0.0072 -0.2622
vn -0.8972 -0.3682 -0.2438
vn -0.3720 0.6630 -0.6496
vn -0.4969 0.0072 -0.8678
vn -0.4620 -0.3682 -0.8068
vn 0.1963 0.6630 -0.7224
vn 0.2622 0.0072 -0.9650
vn 0.2438 -0.3682 -0.8972
vn 0.8678 0.0072 -0.4969
vn 0.8068 -0.3682 -0.4620
vn 0.6496 0.6630 -0.3720
vn -0.7070 0.0072 0.7071
vn -0.5293 0.6630 0.5294
vn -0.7486 0.6630 0.0001
vn -1.0000 0.0072 0.0001
vn -0.6574 -0.3682 0.6575
vn -0.9298 -0.3682 0.0001
vn -0.5294 0.6630 -0.5293
vn -0.7071 0.0072 -0.7070
vn -0.6575 -0.3682 -0.6574
vn -0.0001 0.6630 -0.7486
vn -0.0001 0.0072 -1.0000
vn -0.0001 -0.3682 -0.9298
vn 0.5293 0.6630 -0.5294
vn 0.7070 0.0072 -0.7071
vn 0.6574 -0.3682 -0.6575
vn 0.7486 0.6630 -0.0001
vn 1.0000 0.0072 -0.0001
vn 0.9298 -0.3682 -0.0001
vn 0.5294 0.6630 0.5293
vn 0.7071 0.0072 0.7070
vn 0.6575 -0.3682 0.6574
vn 0.0001 0.0072 1.0000
vn 0.0001 -0.3682 0.9298
vn 0.0001 0.6630 0.7486
vn 0.3535 0.7071 0.6124
vn -0.3535 -0.7071 -0.6124
vn -0.3602 -0.7071 0.6085
vn 0.3535 -0.7071 0.6124
vn 0.3602 0.7071 -0.6085
vn -0.3535 0.7071 -0.6124
vn 0.5998 0.5296 -0.5999
vn 0.8483 0.5296 -0.0001
vn 0.4215 0.5296 0.7361
vn -0.2224 0.5296 0.8186
vn -0.8204 0.5296 0.2155
vn -0.7325 0.5296 -0.4278
vn -0.4215 0.5296 -0.7361
vn 0.2224 0.5296 -0.8186
vn 0.8204 0.5296 -0.2155
vn 0.7325 0.5296 0.4278
vn -0.8483 0.5296 0.0001
vn -0.5999 0.5296 -0.5998
vn 0.7361 0.5296 -0.4215
vn 0.5999 0.5296 0.5998
vn -0.7361 0.5296 0.4215
vn -0.2155 0.5296 -0.8204
vn 0.0001 0.5296 0.8483
vn 0.2155 0.5296 0.8204
vn -0.0001 0.5296 -0.8483
vn 0.8186 0.5296 0.2224
vn -0.8186 0.5296 -0.2224
vn 0.4278 0.5296 -0.7325
vn -0.5998 0.5296 0.5999
vn -0.4278 0.5296 0.7325
s off
f 1/1/1 2/2/1 3/3/1 4/4/1
f 5/5/2 6/6/2 7/7/2 8/8/2
f 8/8/3 7/7/3 2/2/3 1/1/3
f 4/4/4 3/3/4 6/6/4 5/5/4
f 6/9/5 3/10/5 2/11/5 7/12/5
s 1
f 9/13/6 10/14/6 11/15/6 12/16/6
f 13/17/7 14/18/7 10/14/7 9/13/7
f 15/19/8 16/20/8 14/18/8 13/17/8
f 12/16/9 11/15/9 16/20/9 15/19/9
f 14/18/10 16/20/10 17/21/10
f 10/14/11 14/18/11 17/21/11
f 16/20/12 11/15/12 17/21/12
f 11/15/13 10/14/13 17/21/13
f 18/22/14 19/23/15 20/24/16 21/25/17
f 22/26/18 21/25/19 20/24/20 23/27/21
f 22/26/22 23/27/23 24/28/24 25/29/25
f 25/29/26 24/28/27 19/23/28 18/22/29
f 20/24/16 19/23/15 26/30/30 27/31/30
f 23/27/21 20/24/20 27/31/31 28/32/31
f 24/28/24 23/27/23 28/32/32 29/33/32
f 19/23/28 24/28/27 29/33/33 26/30/33
f 22/26/22 25/29/25 30/34/34 31/35/34
f 21/25/19 22/26/18 31/35/35 32/36/35
f 33/37/36 34/38/37 35/39/38 36/40/39
f 37/41/40 36/40/41 35/39/42 38/42/43
f 37/41/44 38/42/45 39/43/46 40/44/47
f 40/44/48 39/43/49 34/38/50 33/37/51
f 35/39/38 34/38/37 41/45/52 42/46/52
f 38/42/43 35/39/42 42/46/53 43/47/53
f 39/43/46 38/42/45 43/47/54 44/48/54
f 34/38/50 39/43/49 44/48/55 41/45/55
f 18/22/14 21/25/17 32/36/56 45/49/56
f 25/29/26 18/22/29 45/49/57 30/34/57
f 46/50/58 47/51/59 48/52/60 49/53/61
f 50/54/62 49/53/63 48/52/64 51/55/65
f 50/54/66 51/55/67 52/56/68 53/57/69
f 53/57/70 52/56/71 47/51/72 46/50/73
f 48/52/60 47/51/59 54/58/74 55/59/74
f 51/55/65 48/52/64 55/59/75 56/60/75
f 52/56/68 51/55/67 56/60/76 57/61/76
f 47/51/72 52/56/71 57/61/77 54/58/77
f 33/37/36 36/40/39 58/62/78 59/63/78
f 37/41/44 40/44/47 60/64/79 61/65/79
f 62/66/80 63/67/80 64/68/80
f 65/69/81 66/70/82 67/71/83 68/72/84
f 63/73/85 65/69/81 68/72/84 64/74/86
f 66/70/82 69/75/5 67/71/83
f 62/66/80 64/68/80 70/76/80
f 68/72/84 67/71/83 71/77/87 72/78/88
f 64/74/86 68/72/84 72/78/88 70/79/89
f 67/71/83 69/75/5 71/77/87
f 62/66/80 70/76/80 73/80/80
f 72/78/88 71/77/87 74/81/90 75/82/91
f 70/79/89 72/78/88 75/82/91 73/83/92
f 71/77/87 69/75/5 74/81/90
f 62/66/80 73/80/80 76/84/80
f 75/82/91 74/81/90 77/85/93 78/86/94
f 73/83/92 75/82/91 78/86/94 76/87/95
f 74/81/90 69/75/5 77/85/93
f 62/66/80 76/84/80 79/88/80
f 78/86/94 77/85/93 80/89/96 81/90/97
f 76/87/95 78/86/94 81/90/97 79/91/98
f 77/85/93 69/75/5 80/89/96
f 80/89/96 69/75/5 82/92/99
f 62/66/80 79/88/80 83/93/80
f 81/90/97 80/89/96 82/92/99 84/94/100
f 79/91/98 81/90/97 84/94/100 83/95/101
f 83/95/101 84/94/100 85/96/102 86/97/103
f 82/92/99 69/75/5 87/98/104
f 62/66/80 83/93/80 86/99/80
f 84/94/100 82/92/99 87/98/104 85/96/102
f 86/97/103 85/96/102 65/69/81 63/73/85
f 87/98/104 69/75/5 66/70/82
f 62/66/80 86/99/80 63/67/80
f 85/96/102 87/98/104 66/70/82 65/69/81
f 88/100/80 89/101/80 90/102/80
f 91/103/105 92/104/106 93/105/107 94/106/108
f 89/107/109 91/103/105 94/106/108 90/108/110
f 92/104/106 95/109/5 93/105/107
f 88/100/80 90/102/80 96/110/80
f 94/106/108 93/105/107 97/111/111 98/112/112
f 90/108/110 94/106/108 98/112/112 96/113/113
f 93/105/107 95/109/5 97/111/111
f 88/100/80 96/110/80 99/114/80
f 98/112/112 97/111/111 100/115/114 101/116/115
f 96/113/113 98/112/112 101/116/115 99/117/116
f 97/111/111 95/109/5 100/115/114
f 88/100/80 99/114/80 102/118/80
f 101/116/115 100/115/114 103/119/117 104/120/118
f 99/117/116 101/116/115 104/120/118 102/121/119
f 100/115/114 95/109/5 103/119/117
f 88/100/80 102/118/80 105/122/80
f 104/120/118 103/119/117 106/123/120 107/124/121
f 102/121/119 104/120/118 107/124/121 105/125/122
f 103/119/117 95/109/5 106/123/120
f 106/123/120 95/109/5 108/126/123
f 88/100/80 105/122/80 109/127/80
f 107/124/121 106/123/120 108/126/123 110/128/124
f 105/125/122 107/124/121 110/128/124 109/129/125
f 109/129/125 110/128/124 111/130/126 112/131/127
f 108/126/123 95/109/5 113/132/128
f 88/100/80 109/127/80 112/133/80
f 110/128/124 108/126/123 113/132/128 111/130/126
f 112/131/127 111/130/126 91/103/105 89/107/109
f 113/132/128 95/109/5 92/104/106
f 88/100/80 112/133/80 89/101/80
f 111/130/126 113/132/128 92/104/106 91/103/105
f 114/134/80 115/135/80 116/136/80
f 117/137/129 118/138/130 119/139/131 120/140/132
f 115/141/133 117/137/129 120/140/132 116/142/134
f 118/138/130 121/143/5 119/139/131
f 114/134/80 116/136/80 122/144/80
f 120/140/132 119/139/131 123/145/135 124/146/136
f 116/142/134 120/140/132 124/146/136 122/147/137
f 119/139/131 121/143/5 123/145/135
f 114/134/80 122/144/80 125/148/80
f 124/146/136 123/145/135 126/149/138 127/150/139
f 122/147/137 124/146/136 127/150/139 125/151/140
f 123/145/135 121/143/5 126/149/138
f 114/134/80 125/148/80 128/152/80
f 127/150/139 126/149/138 129/153/141 130/154/142
f 125/151/140 127/150/139 130/154/142 128/155/143
f 126/149/138 121/143/5 129/153/141
f 114/134/80 128/152/80 131/156/80
f 130/154/142 129/153/141 132/157/144 133/158/145
f 128/155/143 130/154/142 133/158/145 131/159/146
f 129/153/141 121/143/5 132/157/144
f 132/157/144 121/143/5 134/160/147
f 114/134/80 131/156/80 135/161/80
f 133/158/145 132/157/144 134/160/147 136/162/148
f 131/159/146 133/158/145 136/162/148 135/163/149
f 135/163/149 136/162/148 137/164/150 138/165/151
f 134/160/147 121/143/5 139/166/152
f 114/134/80 135/161/80 138/167/80
f 136/162/148 134/160/147 139/166/152 137/164/150
f 138/165/151 137/164/150 117/137/129 115/141/133
f 139/166/152 121/143/5 118/138/130
f 114/134/80 138/167/80 115/135/80
f 137/164/150 139/166/152 118/138/130 117/137/129
f 53/57/70 46/50/73 140/168/153 141/169/153
f 49/53/63 50/54/62 142/170/154 143/171/154
f 36/40/41 37/41/40 61/65/155 58/62/155
f 46/50/58 49/53/61 143/171/156 140/168/156
f 40/44/48 33/37/51 59/63/157 60/64/157
f 50/54/66 53/57/69 141/169/158 142/170/158
f 144/172/159 145/173/160 146/174/160 147/175/159
f 148/176/161 149/177/162 150/178/162 151/179/161
f 152/180/163 153/181/164 154/182/164 155/183/163
f 156/184/165 157/185/166 158/186/166 159/187/165
f 160/188/167 161/189/168 162/190/168 163/191/167
f 164/192/169 165/193/170 166/194/170 167/195/169
f 157/185/166 168/196/171 169/197/171 158/186/166
f 145/173/160 170/198/172 171/199/172 146/174/160
f 149/177/162 172/200/173 173/201/173 150/178/162
f 153/181/164 174/202/174 175/203/174 154/182/164
f 170/198/172 176/204/175 177/205/175 171/199/172
f 161/189/168 178/206/176 179/207/176 162/190/168
f 165/193/170 180/208/177 181/209/177 166/194/170
f 168/196/171 182/210/178 183/211/178 169/197/171
f 172/200/173 184/212/179 185/213/179 173/201/173
f 174/202/174 186/214/180 187/215/180 175/203/174
f 176/204/175 188/216/181 189/217/181 177/205/175
f 178/206/176 190/218/182 191/219/182 179/207/176
f 180/208/177 144/172/159 147/175/159 181/209/177
f 182/210/178 148/176/161 151/179/161 183/211/178
f 184/212/179 156/184/165 159/187/165 185/213/179
f 186/214/180 160/188/167 163/191/167 187/215/180
f 188/216/181 164/192/169 167/195/169 189/217/181
f 190/218/182 152/180/163 155/183/163 191/219/182
