# Blender v2.90.0 Alpha OBJ File: 'Decos.blend'
# www.blender.org
o Cube.002_Cube.003
v -0.229173 15.379392 0.000003
v -0.565700 16.051050 0.000003
v 0.000000 16.051050 -0.565697
v 0.000000 15.379392 -0.229171
v 0.229173 15.379392 0.000003
v 0.565700 16.051050 0.000003
v 0.000000 16.051050 0.565703
v 0.000000 15.379392 0.229176
v 0.000000 -0.435793 0.129552
v -0.129552 -0.435793 -0.000000
v 0.000000 17.699348 0.000003
v 0.000000 17.006407 -0.877897
v -0.877900 17.006407 0.000003
v 0.000000 17.006407 0.877903
v 0.877900 17.006407 0.000003
v 0.129552 -0.435793 -0.000000
v 0.000000 -0.435793 -0.129552
vt 0.070312 0.742188
vt 0.070312 0.742188
vt 0.070312 0.742188
vt 0.070312 0.742188
vt 0.070312 0.742188
vt 0.070312 0.742188
vt 0.070312 0.742188
vt 0.070312 0.742188
vt 0.039062 0.898438
vt 0.039062 0.898438
vt 0.039062 0.898438
vt 0.039062 0.898438
vt 0.039062 0.898438
vt 0.039062 0.898438
vt 0.039062 0.898438
vt 0.039062 0.898438
vt 0.039062 0.898438
vt 0.039062 0.898438
vt 0.039062 0.898438
vt 0.039062 0.898438
vt 0.039062 0.898438
vt 0.070312 0.742188
vt 0.070312 0.742188
vt 0.070312 0.742188
vt 0.070312 0.742188
vn -0.6665 -0.3339 -0.6665
vn 0.6665 -0.3339 0.6665
vn -0.7071 -0.0045 0.7071
vn -0.5267 0.6673 -0.5267
vn 0.5267 0.6673 0.5267
vn 0.5267 0.6673 -0.5267
vn 0.7071 -0.0045 0.7071
vn 0.7071 -0.0045 -0.7071
vn -0.7071 -0.0045 -0.7071
vn -0.5267 0.6673 0.5267
vn -0.0000 -0.2604 0.9655
vn -0.7819 -0.3423 0.5211
vn -0.5211 -0.3423 0.7819
vn -0.9655 -0.2604 0.0000
vn -0.7201 -0.0420 0.6926
vn -0.6926 -0.0420 0.7201
vn -0.4429 0.0441 0.8955
vn -0.8955 0.0440 0.4429
vn -0.8104 -0.2004 -0.5505
vn -0.5505 -0.2004 -0.8104
vn -0.8955 0.0441 -0.4429
vn -0.4429 0.0440 -0.8955
vn 0.8104 -0.2004 0.5505
vn 0.5505 -0.2004 0.8104
vn 0.8955 0.0441 0.4429
vn 0.4429 0.0440 0.8955
vn 0.7201 -0.0420 -0.6926
vn 0.6926 -0.0420 -0.7201
vn 0.4429 0.0441 -0.8955
vn 0.8955 0.0440 -0.4429
vn 0.0000 -0.2604 -0.9655
vn 0.7819 -0.3423 -0.5211
vn 0.5211 -0.3423 -0.7819
vn 0.9655 -0.2604 -0.0000
s off
f 1/1/1 2/2/1 3/3/1 4/4/1
f 5/5/2 6/6/2 7/7/2 8/8/2
f 9/9/3 8/10/3 1/11/3 10/12/3
f 11/13/4 12/14/4 13/15/4
f 11/13/5 14/16/5 15/17/5
f 11/13/6 15/17/6 12/14/6
f 16/18/7 5/19/7 8/10/7 9/9/7
f 17/20/8 4/21/8 5/19/8 16/18/8
f 10/12/9 1/11/9 4/21/9 17/20/9
f 11/13/10 13/15/10 14/16/10
s 1
f 8/8/11 7/7/12 2/2/13 1/1/14
f 2/2/15 7/7/16 14/22/17 13/23/18
f 3/3/19 2/2/20 13/23/21 12/24/22
f 7/7/23 6/6/24 15/25/25 14/22/26
f 6/6/27 3/3/28 12/24/29 15/25/30
f 4/4/31 3/3/32 6/6/33 5/5/34
