# Blender v2.91.0 Beta OBJ File: 'decos.blend'
# www.blender.org
o Cube.001_Cube.043
v -0.858119 0.999176 0.573832
v -0.858119 1.069396 0.518448
v -0.025962 1.069396 0.518448
v -0.025962 0.999176 0.573832
v -0.025962 1.069396 0.629217
v -0.858119 1.069396 0.629217
v 0.054765 0.705953 0.500000
v 0.342611 2.275007 0.500000
v -0.868886 0.705953 0.500000
v -0.891642 0.657588 0.620251
v 0.089846 0.656551 0.626723
v 0.268092 2.259877 0.626723
v -0.858119 0.999177 -0.573832
v -0.025962 0.999177 -0.573832
v -0.025962 1.069396 -0.518447
v -0.858119 1.069396 -0.518447
v -0.858119 1.069396 -0.629216
v -0.025962 1.069396 -0.629216
v 0.342611 2.275007 -0.500000
v 0.054765 0.705953 -0.500000
v -0.868886 0.705953 -0.500000
v 0.089846 0.656552 -0.626723
v -0.891642 0.657588 -0.620251
v 0.268092 2.259877 -0.626723
v -0.407061 0.606957 -0.500000
v -0.868886 0.705953 -0.500000
v -0.868886 0.705953 0.500000
v -0.407061 0.606957 0.500000
v 0.054765 0.705953 0.500000
v 0.054765 0.705953 -0.500000
v -1.018583 -2.330344 0.518448
v -0.669473 0.694468 0.518448
v -0.669473 0.694468 0.629217
v -1.018583 -2.330344 0.629217
v -0.669473 0.694468 -0.518447
v -1.018583 -2.330344 -0.518447
v -1.018583 -2.330345 -0.629216
v -0.669473 0.694468 -0.629216
v -0.775795 0.694468 0.518448
v -0.775795 0.694468 0.629217
v -1.124905 -2.330344 0.629217
v -0.775795 0.694468 -0.518447
v -1.124905 -2.330344 -0.518447
v -0.775795 0.694468 -0.629216
v -1.124905 -2.330344 0.518448
v -1.124905 -2.330345 -0.629216
v 0.334375 -2.330344 0.518448
v -0.014735 0.694468 0.518448
v -0.014735 0.694468 0.629217
v 0.334375 -2.330344 0.629217
v -0.014735 0.694468 -0.518447
v 0.334375 -2.330344 -0.518447
v 0.334375 -2.330345 -0.629216
v -0.014735 0.694468 -0.629216
v 0.091587 0.694468 0.518448
v 0.091587 0.694468 0.629217
v 0.440697 -2.330344 0.629217
v 0.091587 0.694468 -0.518447
v 0.440697 -2.330344 -0.518447
v 0.091587 0.694468 -0.629216
v 0.440697 -2.330344 0.518448
v 0.440697 -2.330345 -0.629216
v -1.936458 -2.301293 -0.500000
v -1.936458 -2.301293 0.500000
vt 0.257812 0.789062
vt 0.257812 0.789062
vt 0.257812 0.789062
vt 0.257812 0.789062
vt 0.257812 0.789062
vt 0.257812 0.789062
vt 0.257812 0.789062
vt 0.257812 0.789062
vt 0.257812 0.789062
vt 0.257812 0.789062
vt 0.257812 0.789062
vt 0.257812 0.789062
vt 0.257812 0.789062
vt 0.257812 0.789062
vt 0.257812 0.789062
vt 0.257812 0.789062
vt 0.257812 0.789062
vt 0.257812 0.789062
vt 0.257812 0.789062
vt 0.257812 0.789062
vt 0.257812 0.789062
vt 0.257812 0.789062
vt 0.117188 0.898438
vt 0.117188 0.898438
vt 0.117188 0.898438
vt 0.117188 0.898438
vt 0.117188 0.898438
vt 0.117188 0.898438
vt 0.257812 0.789062
vt 0.257812 0.789062
vt 0.257812 0.789062
vt 0.257812 0.789062
vt 0.257812 0.789062
vt 0.257812 0.789062
vt 0.257812 0.789062
vt 0.257812 0.789062
vt 0.257812 0.789062
vt 0.257812 0.789062
vt 0.257812 0.789062
vt 0.257812 0.789062
vt 0.257812 0.789062
vt 0.257812 0.789062
vt 0.257812 0.789062
vt 0.257812 0.789062
vt 0.257812 0.789062
vt 0.257812 0.789062
vt 0.257812 0.789062
vt 0.257812 0.789062
vt 0.257812 0.789062
vt 0.257812 0.789062
vt 0.257812 0.789062
vt 0.257812 0.789062
vt 0.257812 0.789062
vt 0.257812 0.789062
vt 0.257812 0.789062
vt 0.257812 0.789062
vt 0.257812 0.789062
vt 0.257812 0.789062
vt 0.257812 0.789062
vt 0.257812 0.789062
vt 0.117188 0.898438
vt 0.117188 0.898438
vt 0.257812 0.789062
vt 0.257812 0.789062
vt 0.117188 0.898438
vt 0.117188 0.898438
vn 0.0000 -0.6193 -0.7852
vn 0.0000 -0.6193 0.7852
vn 0.0000 1.0000 0.0000
vn -0.0001 0.9282 0.3722
vn -0.0013 0.9313 0.3643
vn 0.0000 0.9278 0.3731
vn -0.8593 0.1576 -0.4865
vn -0.0013 0.9313 -0.3643
vn -0.0001 0.9282 -0.3722
vn 0.0000 0.9278 -0.3732
vn -0.9471 0.1053 -0.3032
vn 0.2096 0.9778 0.0000
vn -0.9836 0.1804 0.0000
vn -0.2096 0.9778 0.0000
vn 0.9934 -0.1147 0.0000
vn -0.9934 0.1147 0.0000
vn 0.0000 -0.0000 1.0000
vn 0.0000 0.0000 -1.0000
vn 0.0000 -1.0000 0.0000
vn 0.9934 0.1147 0.0000
vn -0.9934 -0.1147 0.0000
vn -0.9424 0.3345 0.0000
vn -0.0014 0.9316 0.3636
vn -0.9471 0.1053 0.3032
vn -0.0014 0.9316 -0.3635
vn -0.8593 0.1576 0.4865
s 1
f 2/1/1 4/2/1 1/3/1
f 5/4/2 1/3/2 4/2/2
f 3/5/3 6/6/3 5/4/3
f 10/7/4 7/8/5 9/9/6
f 7/8/7 12/10/7 8/11/7
f 14/12/2 16/13/2 13/14/2
f 13/14/1 18/15/1 14/12/1
f 17/16/3 15/17/3 18/15/3
f 20/18/8 23/19/9 21/20/10
f 20/18/11 24/21/11 22/22/11
f 25/23/3 27/24/12 28/25/3
f 8/26/13 30/27/13 29/28/13
f 25/23/3 29/28/14 30/27/14
f 34/29/15 32/30/15 33/31/15
f 38/32/15 36/33/15 37/34/15
f 39/35/16 41/36/16 40/37/16
f 44/38/16 43/39/16 42/40/16
f 36/33/17 42/40/17 43/39/17
f 32/30/3 40/37/3 33/31/3
f 37/34/18 44/38/18 38/32/18
f 34/29/19 45/41/19 31/42/19
f 38/32/3 42/40/3 35/43/3
f 34/29/17 40/37/17 41/36/17
f 36/33/19 46/44/19 37/34/19
f 31/42/18 39/35/18 32/30/18
f 50/45/20 48/46/20 49/47/20
f 54/48/20 52/49/20 53/50/20
f 55/51/21 57/52/21 56/53/21
f 60/54/21 59/55/21 58/56/21
f 52/49/18 58/56/18 59/55/18
f 48/46/19 56/53/19 49/47/19
f 53/50/17 60/54/17 54/48/17
f 50/45/3 61/57/3 47/58/3
f 54/48/19 58/56/19 51/59/19
f 50/45/18 56/53/18 57/52/18
f 52/49/3 62/60/3 53/50/3
f 47/58/17 55/51/17 48/46/17
f 27/24/22 63/61/22 64/62/22
f 2/1/1 3/5/1 4/2/1
f 5/4/2 6/6/2 1/3/2
f 3/5/3 2/1/3 6/6/3
f 10/7/4 11/63/23 7/8/5
f 7/8/24 11/63/24 12/10/24
f 14/12/2 15/17/2 16/13/2
f 13/14/1 17/16/1 18/15/1
f 17/16/3 16/13/3 15/17/3
f 20/18/8 22/22/25 23/19/9
f 20/18/26 19/64/26 24/21/26
f 25/23/3 26/65/12 27/24/12
f 8/26/13 19/66/13 30/27/13
f 25/23/3 28/25/3 29/28/14
f 34/29/15 31/42/15 32/30/15
f 38/32/15 35/43/15 36/33/15
f 39/35/16 45/41/16 41/36/16
f 44/38/16 46/44/16 43/39/16
f 36/33/17 35/43/17 42/40/17
f 32/30/3 39/35/3 40/37/3
f 37/34/18 46/44/18 44/38/18
f 34/29/19 41/36/19 45/41/19
f 38/32/3 44/38/3 42/40/3
f 34/29/17 33/31/17 40/37/17
f 36/33/19 43/39/19 46/44/19
f 31/42/18 45/41/18 39/35/18
f 50/45/20 47/58/20 48/46/20
f 54/48/20 51/59/20 52/49/20
f 55/51/21 61/57/21 57/52/21
f 60/54/21 62/60/21 59/55/21
f 52/49/18 51/59/18 58/56/18
f 48/46/19 55/51/19 56/53/19
f 53/50/17 62/60/17 60/54/17
f 50/45/3 57/52/3 61/57/3
f 54/48/19 60/54/19 58/56/19
f 50/45/18 49/47/18 56/53/18
f 52/49/3 59/55/3 62/60/3
f 47/58/17 61/57/17 55/51/17
f 27/24/22 26/65/22 63/61/22
