# Blender v2.90.0 Alpha OBJ File: 'Decos.blend'
# www.blender.org
o Table_Cube.014
v -0.509550 5.139569 -1.235305
v -0.509550 5.139569 -0.961349
v -0.852359 8.376399 -1.179095
v -0.852359 5.139569 -0.961349
v -0.852359 5.139569 -1.235305
v -0.852359 8.376399 -1.453036
v 0.518737 5.139569 -1.235305
v 0.861544 8.376399 -1.453036
v 0.861544 5.139569 -1.235305
v 0.861544 5.139569 -0.961349
v 0.861544 8.376399 -1.179095
v 0.518737 5.139569 -0.961349
v -0.509550 0.466281 -0.961350
v -0.509550 0.466281 -1.235306
v 0.518737 0.466281 -1.235306
v 0.518737 0.466281 -0.961350
v 0.861544 0.466281 -0.961350
v 0.861544 0.466281 -1.235306
v -0.852359 0.466281 -0.961350
v -0.852359 0.466281 -1.235306
v -0.509550 5.139569 0.153990
v -0.509550 0.466281 0.153990
v -0.509550 0.466281 -0.119968
v -0.509550 5.139569 -0.119968
v 0.518737 5.139569 -0.119968
v 0.518737 0.466281 -0.119968
v 0.518737 0.466281 0.153990
v 0.518737 5.139569 0.153990
v 0.861544 0.466281 0.153990
v 0.861544 5.139569 0.153990
v 0.861544 0.466281 -0.119968
v 0.861544 5.139569 -0.119968
v -0.852359 5.139569 0.153990
v -0.852359 0.466281 0.153990
v -0.852359 5.139569 -0.119968
v -0.852359 0.466281 -0.119968
v -0.999658 4.588442 0.273390
v 1.008843 4.588442 0.273390
v 1.008843 5.218254 -1.354706
v -0.999658 5.218254 -1.354706
v -0.999658 4.588442 -1.354706
v 1.008843 4.588442 -1.354706
v 1.008843 5.218254 0.273390
v -0.999658 5.218254 0.273390
v -0.583981 4.718787 0.203908
v 0.593165 4.718787 0.203908
v 0.593165 5.087909 0.203908
v -0.583981 5.087909 0.203908
v 0.593165 0.748052 3.313610
v -0.583981 0.748052 3.313610
v -0.583981 0.378930 3.313610
v 0.593165 0.378930 3.313610
v -0.669876 10.138385 -3.662042
v -0.669876 12.150176 -1.650249
v -0.125489 11.997038 -2.194637
v 0.336020 11.560935 -2.656146
v 0.644391 10.908264 -2.964516
v 0.752676 10.138385 -3.072802
v 0.100003 11.997038 -1.650249
v 0.752675 11.560935 -1.650249
v 1.188777 10.908263 -1.650249
v 1.341916 10.138384 -1.650249
v -0.125489 11.997038 -1.105863
v 0.336020 11.560935 -0.644354
v 0.644391 10.908264 -0.335983
v 0.752676 10.138384 -0.227698
v -0.669876 11.997038 -0.880370
v -0.669876 11.560936 -0.227698
v -0.669876 10.908264 0.208404
v -0.669876 10.138384 0.361542
v -1.214263 11.997038 -1.105863
v -1.675772 11.560935 -0.644354
v -1.984142 10.908264 -0.335983
v -2.092427 10.138384 -0.227698
v -1.439755 11.997038 -1.650249
v -2.092427 11.560935 -1.650249
v -2.528529 10.908263 -1.650249
v -2.681668 10.138384 -1.650250
v -1.214263 11.997038 -2.194637
v -1.675772 11.560935 -2.656146
v -1.984142 10.908264 -2.964516
v -2.092427 10.138385 -3.072801
v -0.669876 11.997038 -2.420129
v -0.669876 11.560936 -3.072801
v -0.669876 10.908264 -3.508903
vt 0.054688 0.882812
vt 0.054688 0.882812
vt 0.054688 0.882812
vt 0.054688 0.882812
vt 0.054688 0.882812
vt 0.054688 0.882812
vt 0.054688 0.882812
vt 0.054688 0.882812
vt 0.054688 0.882812
vt 0.054688 0.882812
vt 0.054688 0.882812
vt 0.054688 0.882812
vt 0.054688 0.882812
vt 0.054688 0.882812
vt 0.054688 0.882812
vt 0.054688 0.882812
vt 0.054688 0.882812
vt 0.054688 0.882812
vt 0.054688 0.882812
vt 0.054688 0.882812
vt 0.054688 0.882812
vt 0.054688 0.882812
vt 0.054688 0.882812
vt 0.054688 0.882812
vt 0.054688 0.882812
vt 0.054688 0.882812
vt 0.054688 0.882812
vt 0.054688 0.882812
vt 0.054688 0.882812
vt 0.054688 0.882812
vt 0.054688 0.882812
vt 0.054688 0.882812
vt 0.054688 0.882812
vt 0.054688 0.882812
vt 0.054688 0.882812
vt 0.054688 0.882812
vt 0.054688 0.882812
vt 0.054688 0.882812
vt 0.054688 0.882812
vt 0.054688 0.882812
vt 0.054688 0.882812
vt 0.054688 0.882812
vt 0.054688 0.882812
vt 0.054688 0.882812
vt 0.054688 0.882812
vt 0.054688 0.882812
vt 0.054688 0.882812
vt 0.054688 0.882812
vt 0.054688 0.882812
vt 0.054688 0.882812
vt 0.054688 0.882812
vt 0.054688 0.882812
vt 0.054688 0.882812
vt 0.054688 0.882812
vt 0.054688 0.882812
vt 0.054688 0.882812
vt 0.054688 0.882812
vt 0.054688 0.882812
vt 0.054688 0.882812
vt 0.054688 0.882812
vt 0.054688 0.882812
vt 0.054688 0.898438
vt 0.054688 0.898438
vt 0.054688 0.898438
vt 0.054688 0.898438
vt 0.054688 0.898438
vt 0.054688 0.898438
vt 0.054688 0.898438
vt 0.054688 0.898438
vt 0.054688 0.898438
vt 0.054688 0.882812
vt 0.054688 0.882812
vt 0.054688 0.882812
vt 0.054688 0.882812
vt 0.054688 0.882812
vt 0.054688 0.882812
vt 0.054688 0.882812
vt 0.054688 0.882812
vt 0.054688 0.898438
vt 0.054688 0.898438
vt 0.054688 0.898438
vt 0.054688 0.898438
vt 0.054688 0.898438
vt 0.054688 0.898438
vt 0.054688 0.898438
vt 0.054688 0.898438
vt 0.054688 0.882812
vt 0.054688 0.882812
vt 0.054688 0.882812
vt 0.054688 0.882812
vt 0.054688 0.882812
vt 0.054688 0.882812
vt 0.054688 0.882812
vt 0.054688 0.882812
vt 0.054688 0.898438
vt 0.054688 0.898438
vt 0.054688 0.898438
vt 0.054688 0.898438
vt 0.054688 0.898438
vt 0.054688 0.898438
vt 0.054688 0.898438
vt 0.054688 0.898438
vt 0.054688 0.882812
vt 0.054688 0.882812
vt 0.054688 0.882812
vt 0.054688 0.882812
vt 0.054688 0.882812
vt 0.054688 0.882812
vt 0.054688 0.882812
vt 0.054688 0.882812
vt 0.054688 0.898438
vt 0.054688 0.898438
vt 0.054688 0.898438
vt 0.054688 0.898438
vt 0.054688 0.898438
vt 0.054688 0.898438
vt 0.054688 0.898438
vt 0.054688 0.898438
vn 0.0000 1.0000 0.0000
vn 0.0000 0.0000 -1.0000
vn -1.0000 0.0000 0.0000
vn 0.0000 -0.0000 1.0000
vn 1.0000 0.0000 0.0000
vn 0.0000 0.5825 0.8129
vn 0.0000 0.0671 0.9977
vn 0.0000 -0.0671 -0.9977
vn 0.0000 -1.0000 0.0000
vn -0.0000 0.1951 -0.9808
vn -0.0000 0.3668 -0.9303
vn 0.6578 0.3668 -0.6578
vn 0.6935 0.1951 -0.6935
vn 0.0000 0.6839 -0.7296
vn 0.0000 0.9063 -0.4226
vn 0.2988 0.9063 -0.2988
vn 0.5159 0.6839 -0.5159
vn 0.7296 0.6839 -0.0000
vn 0.9303 0.3668 0.0000
vn 0.4226 0.9063 -0.0000
vn 0.9808 0.1951 0.0000
vn 0.2988 0.9063 0.2988
vn 0.6578 0.3668 0.6578
vn 0.6935 0.1951 0.6935
vn 0.5159 0.6839 0.5159
vn 0.0000 0.3668 0.9303
vn -0.0000 0.1951 0.9808
vn 0.0000 0.9063 0.4226
vn 0.0000 0.6839 0.7296
vn -0.5159 0.6839 0.5159
vn -0.6578 0.3668 0.6578
vn -0.2988 0.9063 0.2988
vn -0.6935 0.1951 0.6935
vn -0.7296 0.6839 0.0000
vn -0.9303 0.3668 0.0000
vn -0.4226 0.9063 0.0000
vn -0.9808 0.1951 -0.0000
vn -0.6578 0.3668 -0.6578
vn -0.6935 0.1951 -0.6935
vn -0.2988 0.9063 -0.2988
vn -0.5159 0.6839 -0.5159
s off
f 39/1/1 40/2/1 44/3/1 43/4/1
f 40/2/2 39/1/2 42/5/2 41/6/2
f 44/3/3 40/2/3 41/6/3 37/7/3
f 43/4/4 44/3/4 37/7/4 38/8/4
f 39/1/5 43/4/5 38/8/5 42/5/5
f 47/9/2 46/10/2 45/11/2 48/12/2
f 49/13/4 50/14/4 51/15/4 52/16/4
f 48/12/3 45/11/3 51/15/3 50/14/3
f 46/10/5 47/9/5 49/13/5 52/16/5
f 47/9/6 48/12/6 50/14/6 49/13/6
s 1
f 2/17/7 3/18/7 4/19/7
f 5/20/8 6/21/8 1/22/8
f 7/23/8 8/24/8 9/25/8
f 4/19/3 3/18/3 6/21/3 5/20/3
f 10/26/7 11/27/7 12/28/7
f 6/21/1 3/18/1 11/27/1 8/24/1
f 2/17/5 13/29/5 14/30/5 1/22/5
f 7/23/3 15/31/3 16/32/3 12/28/3
f 9/25/5 8/24/5 11/27/5 10/26/5
f 12/28/4 16/32/4 17/33/4 10/26/4
f 10/26/5 17/33/5 18/34/5 9/25/5
f 9/25/2 18/34/2 15/31/2 7/23/2
f 4/19/4 19/35/4 13/29/4 2/17/4
f 5/20/3 20/36/3 19/35/3 4/19/3
f 1/22/2 14/30/2 20/36/2 5/20/2
f 21/37/5 22/38/5 23/39/5 24/40/5
f 25/41/3 26/42/3 27/43/3 28/44/3
f 28/44/4 27/43/4 29/45/4 30/46/4
f 30/46/5 29/45/5 31/47/5 32/48/5
f 32/48/2 31/47/2 26/42/2 25/41/2
f 33/49/4 34/50/4 22/38/4 21/37/4
f 35/51/3 36/52/3 34/50/3 33/49/3
f 24/40/2 23/39/2 36/52/2 35/51/2
f 2/17/9 1/22/9 7/23/9 12/28/9
f 3/18/7 2/17/7 12/28/7 11/27/7
f 1/22/8 6/21/8 8/24/8 7/23/8
f 53/53/10 85/54/11 57/55/12 58/56/13
f 84/57/14 83/58/15 55/59/16 56/60/17
f 85/54/11 84/57/14 56/60/17 57/55/12
f 83/58/15 54/61/1 55/59/16
f 57/62/12 56/63/17 60/64/18 61/65/19
f 55/66/16 54/67/1 59/68/20
f 58/69/13 57/62/12 61/65/19 62/70/21
f 56/63/17 55/66/16 59/68/20 60/64/18
f 59/71/20 54/61/1 63/72/22
f 62/73/21 61/74/19 65/75/23 66/76/24
f 60/77/18 59/71/20 63/72/22 64/78/25
f 61/74/19 60/77/18 64/78/25 65/75/23
f 66/79/24 65/80/23 69/81/26 70/82/27
f 64/83/25 63/84/22 67/85/28 68/86/29
f 65/80/23 64/83/25 68/86/29 69/81/26
f 63/84/22 54/67/1 67/85/28
f 69/87/26 68/88/29 72/89/30 73/90/31
f 67/91/28 54/61/1 71/92/32
f 70/93/27 69/87/26 73/90/31 74/94/33
f 68/88/29 67/91/28 71/92/32 72/89/30
f 73/95/31 72/96/30 76/97/34 77/98/35
f 71/99/32 54/67/1 75/100/36
f 74/101/33 73/95/31 77/98/35 78/102/37
f 72/96/30 71/99/32 75/100/36 76/97/34
f 78/103/37 77/104/35 81/105/38 82/106/39
f 76/107/34 75/108/36 79/109/40 80/110/41
f 77/104/35 76/107/34 80/110/41 81/105/38
f 75/108/36 54/61/1 79/109/40
f 82/111/39 81/112/38 85/113/11 53/114/10
f 80/115/41 79/116/40 83/117/15 84/118/14
f 81/112/38 80/115/41 84/118/14 85/113/11
f 79/116/40 54/67/1 83/117/15
