# Blender v2.90.0 Alpha OBJ File: 'Decos.blend'
# www.blender.org
o Cube.002_Cube.001
v -0.009069 0.505252 -2.762854
v -0.009069 0.113242 -2.762854
v -0.009069 0.505252 2.762854
v -0.009069 0.113242 2.762854
v 0.307430 0.505252 2.762854
v 0.307430 0.113242 2.762854
v 0.307430 0.505252 -2.762854
v 0.307430 0.113242 -2.762854
vt 0.039062 0.742188
vt 0.039062 0.742188
vt 0.039062 0.742188
vt 0.039062 0.742188
vt 0.039062 0.742188
vt 0.039062 0.742188
vt 0.039062 0.742188
vt 0.039062 0.742188
vn -1.0000 0.0000 0.0000
vn 1.0000 0.0000 0.0000
vn 0.0000 -1.0000 0.0000
vn 0.0000 0.0000 1.0000
vn 0.0000 1.0000 0.0000
vn 0.0000 0.0000 -1.0000
s off
f 2/1/1 4/2/1 3/3/1 1/4/1
f 8/5/2 7/6/2 5/7/2 6/8/2
f 2/1/3 8/5/3 6/8/3 4/2/3
f 4/2/4 6/8/4 5/7/4 3/3/4
f 3/3/5 5/7/5 7/6/5 1/4/5
f 1/4/6 7/6/6 8/5/6 2/1/6
