# Blender v2.91.0 Beta OBJ File: ''
# www.blender.org
o MarbleFence_Cube.001
v 2.881190 0.389539 -0.703961
v 2.881190 0.389539 0.703961
v 2.995620 -0.000000 0.818391
v 2.995620 0.000000 -0.818391
v 2.995620 2.229317 -0.818391
v -2.995620 2.229317 -0.855568
v -2.995620 2.229317 0.855568
v 2.995620 2.229317 0.818391
v -2.995620 1.996239 0.855568
v -2.995620 1.996239 -0.855568
v -2.792103 1.996239 -0.702382
v -2.792103 1.996239 0.702382
v 2.995620 1.996239 0.855568
v 2.792103 1.996239 0.702382
v -2.881190 0.389539 0.703961
v -2.995620 -0.000000 0.818391
v -2.881190 0.389539 -0.703961
v -2.995620 0.000000 -0.818391
v 2.995620 1.996239 -0.855568
v 2.792103 1.996239 -0.702382
v 2.726728 1.763160 0.637007
v 2.726728 1.763160 -0.637007
v -2.726728 1.763160 0.637007
v -2.726728 1.763160 -0.637007
v -2.714761 0.279694 0.418063
v -2.714761 1.949623 0.418063
v -2.714761 1.949623 -0.418063
v -2.714761 0.279694 -0.418063
v -2.174744 1.949623 0.418063
v -2.174744 0.279694 0.418063
v -2.174744 0.279694 -0.418063
v -2.174744 1.949623 -0.418063
v 2.714761 0.279694 0.418063
v 2.714761 0.279694 -0.418063
v 2.714761 1.949623 -0.418063
v 2.714761 1.949623 0.418063
v 2.174744 1.949623 0.418063
v 2.174744 1.949623 -0.418063
v 2.174744 0.279694 -0.418063
v 2.174744 0.279694 0.418063
v -0.324683 0.339423 0.246734
v -0.077949 0.339423 0.000000
v -0.077949 1.786078 0.000000
v -0.324683 1.786078 0.246734
v -1.994794 0.339423 0.000000
v -1.994794 1.786078 0.000000
v -1.748060 1.786078 -0.246734
v -1.748060 0.339423 -0.246734
v -1.501325 1.786078 0.000000
v -1.501325 0.339423 0.000000
v -1.748060 0.339423 0.246734
v -1.748060 1.786078 0.246734
v -0.571418 0.339423 0.000000
v -0.571418 1.786078 0.000000
v -0.324683 1.786078 -0.246734
v -0.324683 0.339423 -0.246734
v -1.274097 0.339423 0.000000
v -1.274097 1.786078 0.000000
v -1.027363 1.786078 -0.246734
v -1.027363 0.339423 -0.246734
v -0.780629 1.786078 0.000000
v -0.780629 0.339423 0.000000
v -1.027363 0.339423 0.246734
v -1.027363 1.786078 0.246734
v 0.077949 0.339423 0.000000
v 0.324683 0.339423 0.246734
v 0.324683 1.786078 0.246734
v 0.077949 1.786078 0.000000
v 1.994794 0.339423 0.000000
v 1.748060 0.339423 -0.246734
v 1.748060 1.786078 -0.246734
v 1.994794 1.786078 0.000000
v 1.501325 0.339423 0.000000
v 1.501325 1.786078 0.000000
v 1.748060 0.339423 0.246734
v 1.748060 1.786078 0.246734
v 0.571418 0.339423 0.000000
v 0.324683 0.339423 -0.246734
v 0.324683 1.786078 -0.246734
v 0.571418 1.786078 0.000000
v 1.274097 0.339423 0.000000
v 1.027363 0.339423 -0.246734
v 1.027363 1.786078 -0.246734
v 1.274097 1.786078 0.000000
v 0.780629 0.339423 0.000000
v 0.780629 1.786078 0.000000
v 1.027363 0.339423 0.246734
v 1.027363 1.786078 0.246734
vt 0.257812 0.789062
vt 0.257812 0.789062
vt 0.257812 0.789062
vt 0.257812 0.789062
vt 0.257812 0.789062
vt 0.257812 0.789062
vt 0.257812 0.789062
vt 0.257812 0.789062
vt 0.257812 0.789062
vt 0.257812 0.789062
vt 0.257812 0.789062
vt 0.257812 0.789062
vt 0.257812 0.789062
vt 0.257812 0.789062
vt 0.257812 0.789062
vt 0.257812 0.789062
vt 0.257812 0.789062
vt 0.257812 0.789062
vt 0.257812 0.789062
vt 0.257812 0.789062
vt 0.257812 0.789062
vt 0.257812 0.789062
vt 0.257812 0.789062
vt 0.257812 0.789062
vt 0.257812 0.789062
vt 0.257812 0.789062
vt 0.257812 0.789062
vt 0.257812 0.789062
vt 0.257812 0.789062
vt 0.257812 0.789062
vt 0.257812 0.789062
vt 0.257812 0.789062
vt 0.257812 0.789062
vt 0.257812 0.789062
vt 0.257812 0.789062
vt 0.257812 0.789062
vt 0.257812 0.789062
vt 0.257812 0.789062
vt 0.257812 0.789062
vt 0.257812 0.789062
vt 0.257812 0.789062
vt 0.257812 0.789062
vt 0.257812 0.789062
vt 0.257812 0.789062
vt 0.257812 0.789062
vt 0.257812 0.789062
vt 0.257812 0.789062
vt 0.257812 0.789062
vt 0.257812 0.789062
vt 0.257812 0.789062
vt 0.257812 0.789062
vt 0.257812 0.789062
vt 0.257812 0.789062
vt 0.257812 0.789062
vt 0.257812 0.789062
vt 0.257812 0.789062
vt 0.257812 0.789062
vt 0.257812 0.789062
vt 0.257812 0.789062
vt 0.257812 0.789062
vt 0.257812 0.789062
vt 0.257812 0.789062
vt 0.257812 0.789062
vt 0.257812 0.789062
vt 0.257812 0.789062
vt 0.257812 0.789062
vt 0.257812 0.789062
vt 0.257812 0.789062
vt 0.257812 0.789062
vt 0.257812 0.789062
vt 0.257812 0.789062
vt 0.257812 0.789062
vt 0.257812 0.789062
vt 0.257812 0.789062
vt 0.257812 0.789062
vt 0.257812 0.789062
vt 0.257812 0.789062
vt 0.257812 0.789062
vt 0.257812 0.789062
vt 0.257812 0.789062
vt 0.257812 0.789062
vt 0.257812 0.789062
vt 0.257812 0.789062
vt 0.257812 0.789062
vt 0.257812 0.789062
vt 0.257812 0.789062
vt 0.257812 0.789062
vt 0.257812 0.789062
vn 0.9595 0.2818 0.0000
vn 0.0000 1.0000 0.0000
vn 0.0000 -1.0000 -0.0000
vn 0.0000 0.2818 0.9595
vn -0.9595 0.2818 0.0000
vn 1.0000 -0.0000 0.0000
vn -1.0000 0.0000 0.0000
vn 0.0031 0.0795 -0.9968
vn 0.0031 0.0795 0.9968
vn 0.9628 -0.2701 -0.0000
vn 0.0000 0.2818 -0.9595
vn 0.0000 -0.2701 0.9628
vn -0.9628 -0.2701 -0.0000
vn 0.0000 0.0000 -1.0000
vn 0.0000 -0.0000 1.0000
vn 0.7071 -0.0000 0.7071
vn -0.7071 0.0000 -0.7071
vn 0.7071 0.0000 -0.7071
vn -0.7071 -0.0000 0.7071
vn 0.0000 -0.2701 -0.9628
s 1
f 1/1/1 2/2/1 3/3/1 4/4/1
f 5/5/2 6/6/2 7/7/2 8/8/2
f 9/9/3 10/10/3 11/11/3 12/12/3
f 13/13/3 9/9/3 12/12/3 14/14/3
f 2/2/4 15/15/4 16/16/4 3/3/4
f 15/15/5 17/17/5 18/18/5 16/16/5
f 19/19/3 13/13/3 14/14/3 20/20/3
f 10/10/3 19/19/3 20/20/3 11/11/3
f 8/8/6 13/13/6 19/19/6 5/5/6
f 7/7/7 6/6/7 10/10/7 9/9/7
f 6/6/8 5/5/8 19/19/8 10/10/8
f 8/8/9 7/7/9 9/9/9 13/13/9
f 21/21/10 22/22/10 20/20/10 14/14/10
f 17/17/11 1/1/11 4/4/11 18/18/11
f 14/14/12 12/12/12 23/23/12 21/21/12
f 15/15/2 2/2/2 1/1/2 17/17/2
f 24/24/13 23/23/13 12/12/13 11/11/13
f 25/25/7 26/26/7 27/27/7 28/28/7
f 29/29/6 30/30/6 31/31/6 32/32/6
f 32/32/14 31/31/14 28/28/14 27/27/14
f 30/30/15 29/29/15 26/26/15 25/25/15
f 33/33/6 34/34/6 35/35/6 36/36/6
f 37/37/7 38/38/7 39/39/7 40/40/7
f 39/39/14 38/38/14 35/35/14 34/34/14
f 37/37/15 40/40/15 33/33/15 36/36/15
f 41/41/16 42/42/16 43/43/16 44/44/16
f 45/45/17 46/46/17 47/47/17 48/48/17
f 48/48/18 47/47/18 49/49/18 50/50/18
f 45/45/19 51/51/19 52/52/19 46/46/19
f 53/53/17 54/54/17 55/55/17 56/56/17
f 56/56/18 55/55/18 43/43/18 42/42/18
f 53/53/19 41/41/19 44/44/19 54/54/19
f 51/51/16 50/50/16 49/49/16 52/52/16
f 57/57/17 58/58/17 59/59/17 60/60/17
f 60/60/18 59/59/18 61/61/18 62/62/18
f 57/57/19 63/63/19 64/64/19 58/58/19
f 63/63/16 62/62/16 61/61/16 64/64/16
f 65/65/19 66/66/19 67/67/19 68/68/19
f 69/69/18 70/70/18 71/71/18 72/72/18
f 70/70/17 73/73/17 74/74/17 71/71/17
f 75/75/16 69/69/16 72/72/16 76/76/16
f 77/77/18 78/78/18 79/79/18 80/80/18
f 78/78/17 65/65/17 68/68/17 79/79/17
f 66/66/16 77/77/16 80/80/16 67/67/16
f 73/73/19 75/75/19 76/76/19 74/74/19
f 81/81/18 82/82/18 83/83/18 84/84/18
f 82/82/17 85/85/17 86/86/17 83/83/17
f 87/87/16 81/81/16 84/84/16 88/88/16
f 85/85/19 87/87/19 88/88/19 86/86/19
f 22/22/20 24/24/20 11/11/20 20/20/20
