# Blender v2.91.0 Beta OBJ File: 'swat.blend'
# www.blender.org
o Cube
v -4.698915 -1.000000 -0.144275
v -4.698915 3.939208 -0.144275
v 0.926436 -1.000000 0.144275
v 0.926436 3.939208 0.144275
v 0.926436 -1.000000 -0.144275
v 0.926436 3.939208 -0.144275
v -4.698915 -1.000000 0.144275
v -4.073877 -1.000000 0.144275
v -3.448838 -1.000000 0.144275
v -2.823798 -1.000000 0.144275
v -2.198759 -1.000000 0.144275
v -1.573720 -1.000000 0.144275
v -0.948681 -1.000000 0.144275
v -0.323642 -1.000000 0.144275
v 0.301397 -1.000000 0.144275
v 0.301397 3.939208 0.144275
v -0.323642 3.939208 0.144275
v -0.948681 3.939208 0.144275
v -1.573720 3.939208 0.144275
v -2.198759 3.939208 0.144275
v -2.823798 3.939208 0.144275
v -3.448838 3.939208 0.144275
v -4.073877 3.939208 0.144275
v -4.698915 3.939208 0.144275
v -4.386396 -1.000000 0.272908
v -4.386396 3.939208 0.272908
v -3.761357 -1.000000 0.272908
v -3.761357 3.939208 0.272908
v -3.136318 -1.000000 0.272908
v -3.136318 3.939208 0.272908
v -2.511279 -1.000000 0.272908
v -2.511279 3.939208 0.272908
v -1.886240 -1.000000 0.272908
v -1.886240 3.939208 0.272908
v -1.261201 -1.000000 0.272908
v -1.261201 3.939208 0.272908
v -0.636162 -1.000000 0.272908
v -0.636162 3.939208 0.272908
v -0.011123 -1.000000 0.272908
v -0.011123 3.939208 0.272908
v -0.324268 -1.000000 0.144275
v -0.324268 3.939208 0.144275
v -0.324268 -1.000000 -0.144275
v -0.324268 3.939208 -0.144275
v 5.301084 -1.000000 -0.144275
v 5.301084 3.939208 -0.144275
v 0.300772 -1.000000 0.144275
v 0.925810 -1.000000 0.144275
v 1.550850 -1.000000 0.144275
v 2.175889 -1.000000 0.144275
v 2.800928 -1.000000 0.144275
v 3.425967 -1.000000 0.144275
v 4.051006 -1.000000 0.144275
v 4.676045 -1.000000 0.144275
v 5.301084 -1.000000 0.144275
v 5.301084 3.939208 0.144275
v 4.676045 3.939208 0.144275
v 4.051006 3.939208 0.144275
v 3.425967 3.939208 0.144275
v 2.800928 3.939208 0.144275
v 2.175889 3.939208 0.144275
v 1.550850 3.939208 0.144275
v 0.925810 3.939208 0.144275
v 0.300772 3.939208 0.144275
v 0.613291 -1.000000 0.272908
v 0.613291 3.939208 0.272908
v 1.238330 -1.000000 0.272908
v 1.238330 3.939208 0.272908
v 1.863369 -1.000000 0.272908
v 1.863369 3.939208 0.272908
v 2.488408 -1.000000 0.272908
v 2.488408 3.939208 0.272908
v 3.113447 -1.000000 0.272908
v 3.113447 3.939208 0.272908
v 3.738487 -1.000000 0.272908
v 3.738487 3.939208 0.272908
v 4.363526 -1.000000 0.272908
v 4.363526 3.939208 0.272908
v 4.988565 -1.000000 0.272908
v 4.988565 3.939208 0.272908
vt 0.507812 0.726562
vt 0.507812 0.726562
vt 0.507812 0.726562
vt 0.507812 0.726562
vt 0.507812 0.726562
vt 0.507812 0.726562
vt 0.507812 0.726562
vt 0.507812 0.726562
vt 0.507812 0.726562
vt 0.507812 0.726562
vt 0.507812 0.726562
vt 0.507812 0.726562
vt 0.507812 0.726562
vt 0.507812 0.726562
vt 0.507812 0.726562
vt 0.507812 0.726562
vt 0.507812 0.726562
vt 0.507812 0.726562
vt 0.507812 0.726562
vt 0.507812 0.726562
vt 0.507812 0.726562
vt 0.507812 0.726562
vt 0.507812 0.726562
vt 0.507812 0.726562
vt 0.507812 0.726562
vt 0.507812 0.726562
vt 0.507812 0.726562
vt 0.507812 0.726562
vt 0.507812 0.726562
vt 0.507812 0.726562
vt 0.507812 0.726562
vt 0.507812 0.726562
vt 0.507812 0.726562
vt 0.507812 0.726562
vt 0.507812 0.726562
vt 0.507812 0.726562
vt 0.507812 0.726562
vt 0.507812 0.726562
vt 0.507812 0.726562
vt 0.507812 0.726562
vt 0.507812 0.726562
vt 0.507812 0.726562
vt 0.507812 0.726562
vt 0.507812 0.726562
vt 0.507812 0.726562
vt 0.507812 0.726562
vt 0.507812 0.726562
vt 0.507812 0.726562
vt 0.507812 0.726562
vt 0.507812 0.726562
vt 0.507812 0.726562
vt 0.507812 0.726562
vt 0.507812 0.726562
vt 0.507812 0.726562
vt 0.507812 0.726562
vt 0.507812 0.726562
vt 0.507812 0.726562
vt 0.507812 0.726562
vt 0.507812 0.726562
vt 0.507812 0.726562
vt 0.507812 0.726562
vt 0.507812 0.726562
vt 0.507812 0.726562
vt 0.507812 0.726562
vt 0.507812 0.726562
vt 0.507812 0.726562
vt 0.507812 0.726562
vt 0.507812 0.726562
vt 0.507812 0.726562
vt 0.507812 0.726562
vt 0.507812 0.726562
vt 0.507812 0.726562
vt 0.507812 0.726562
vt 0.507812 0.726562
vt 0.507812 0.726562
vt 0.507812 0.726562
vt 0.507812 0.726562
vt 0.507812 0.726562
vt 0.507812 0.726562
vt 0.507812 0.726562
vn 1.0000 0.0000 0.0000
vn 0.0000 -1.0000 0.0000
vn 0.0000 1.0000 0.0000
vn 0.0000 0.0000 1.0000
vn -0.3806 0.0000 0.9247
vn 0.0000 0.0000 -1.0000
vn 0.3806 0.0000 0.9247
vn -1.0000 0.0000 0.0000
s off
f 5/1/1 6/2/1 4/3/1 3/4/1
f 5/1/2 3/4/2 15/5/2
f 6/2/3 2/6/3 24/7/3
f 6/2/3 16/8/3 4/3/3
f 6/2/3 17/9/3 40/10/3
f 6/2/3 18/11/3 38/12/3
f 6/2/3 19/13/3 36/14/3
f 6/2/3 20/15/3 34/16/3
f 6/2/3 21/17/3 32/18/3
f 6/2/3 22/19/3 30/20/3
f 6/2/3 23/21/3 28/22/3
f 6/2/3 24/7/3 26/23/3
f 1/24/2 5/1/2 7/25/2
f 5/1/3 8/26/3 25/27/3
f 5/1/3 9/28/3 27/29/3
f 5/1/3 10/30/3 29/31/3
f 5/1/3 11/32/3 31/33/3
f 5/1/3 12/34/3 33/35/3
f 5/1/3 13/36/3 35/37/3
f 5/1/3 14/38/3 37/39/3
f 5/1/2 15/5/2 39/40/2
f 3/4/4 4/3/4 16/8/4 15/5/4
f 39/40/5 40/10/5 17/9/5 14/38/5
f 37/39/5 38/12/5 18/11/5 13/36/5
f 35/37/5 36/14/5 19/13/5 12/34/5
f 33/35/5 34/16/5 20/15/5 11/32/5
f 31/33/5 32/18/5 21/17/5 10/30/5
f 29/31/5 30/20/5 22/19/5 9/28/5
f 27/29/5 28/22/5 23/21/5 8/26/5
f 25/27/5 26/23/5 24/7/5 7/25/5
f 1/24/6 2/6/6 6/2/6 5/1/6
f 8/26/7 23/21/7 26/23/7 25/27/7
f 5/1/2 25/27/2 7/25/2
f 6/2/2 26/23/2 23/21/2
f 9/28/7 22/19/7 28/22/7 27/29/7
f 5/1/2 27/29/2 8/26/2
f 6/2/2 28/22/2 22/19/2
f 10/30/7 21/17/7 30/20/7 29/31/7
f 5/1/2 29/31/2 9/28/2
f 6/2/2 30/20/2 21/17/2
f 11/32/7 20/15/7 32/18/7 31/33/7
f 5/1/2 31/33/2 10/30/2
f 6/2/2 32/18/2 20/15/2
f 12/34/7 19/13/7 34/16/7 33/35/7
f 5/1/2 33/35/2 11/32/2
f 6/2/2 34/16/2 19/13/2
f 13/36/7 18/11/7 36/14/7 35/37/7
f 5/1/2 35/37/2 12/34/2
f 6/2/2 36/14/2 18/11/2
f 14/38/7 17/9/7 38/12/7 37/39/7
f 5/1/2 37/39/2 13/36/2
f 6/2/2 38/12/2 17/9/2
f 15/5/7 16/8/7 40/10/7 39/40/7
f 5/1/2 39/40/2 14/38/2
f 6/2/3 40/10/3 16/8/3
f 41/41/8 42/42/8 44/43/8 43/44/8
f 47/45/4 64/46/4 42/42/4 41/41/4
f 46/47/3 44/43/3 42/42/3 64/46/3
f 46/47/3 57/48/3 80/49/3
f 46/47/3 58/50/3 78/51/3
f 46/47/3 59/52/3 76/53/3
f 46/47/3 60/54/3 74/55/3
f 46/47/3 61/56/3 72/57/3
f 46/47/3 62/58/3 70/59/3
f 46/47/3 63/60/3 68/61/3
f 46/47/3 64/46/3 66/62/3
f 43/44/2 45/63/2 47/45/2 41/41/2
f 45/63/3 48/64/3 65/65/3
f 45/63/3 49/66/3 67/67/3
f 45/63/3 50/68/3 69/69/3
f 45/63/3 51/70/3 71/71/3
f 45/63/3 52/72/3 73/73/3
f 45/63/3 53/74/3 75/75/3
f 45/63/2 54/76/2 77/77/2
f 45/63/2 55/78/2 79/79/2
f 79/79/5 80/49/5 57/48/5 54/76/5
f 77/77/5 78/51/5 58/50/5 53/74/5
f 75/75/5 76/53/5 59/52/5 52/72/5
f 73/73/5 74/55/5 60/54/5 51/70/5
f 71/71/5 72/57/5 61/56/5 50/68/5
f 69/69/5 70/59/5 62/58/5 49/66/5
f 67/67/5 68/61/5 63/60/5 48/64/5
f 65/65/5 66/62/5 64/46/5 47/45/5
f 43/44/6 44/43/6 46/47/6 45/63/6
f 48/64/7 63/60/7 66/62/7 65/65/7
f 45/63/2 65/65/2 47/45/2
f 46/47/2 66/62/2 63/60/2
f 49/66/7 62/58/7 68/61/7 67/67/7
f 45/63/2 67/67/2 48/64/2
f 46/47/2 68/61/2 62/58/2
f 50/68/7 61/56/7 70/59/7 69/69/7
f 45/63/2 69/69/2 49/66/2
f 46/47/2 70/59/2 61/56/2
f 51/70/7 60/54/7 72/57/7 71/71/7
f 45/63/2 71/71/2 50/68/2
f 46/47/2 72/57/2 60/54/2
f 52/72/7 59/52/7 74/55/7 73/73/7
f 45/63/2 73/73/2 51/70/2
f 46/47/2 74/55/2 59/52/2
f 53/74/7 58/50/7 76/53/7 75/75/7
f 45/63/2 75/75/2 52/72/2
f 46/47/2 76/53/2 58/50/2
f 54/76/7 57/48/7 78/51/7 77/77/7
f 45/63/2 77/77/2 53/74/2
f 46/47/3 78/51/3 57/48/3
f 55/78/7 56/80/7 80/49/7 79/79/7
f 45/63/2 79/79/2 54/76/2
f 46/47/3 80/49/3 56/80/3
f 1/24/8 7/25/8 24/7/8 2/6/8
f 55/78/1 45/63/1 46/47/1 56/80/1
