# Blender v2.91.0 Beta OBJ File: 'decos.blend'
# www.blender.org
o Cube.005_Cube.002
v 5.010528 2.497561 -1.375816
v 5.010528 0.000000 -1.375816
v -5.012831 0.000000 -1.375816
v -5.012831 2.497561 -1.375816
v -4.921946 3.210047 -1.360165
v 0.038418 2.728654 -0.906387
v 0.038418 3.210047 -1.360165
v -4.921946 2.479275 -1.360166
v -4.921946 2.728654 -0.906387
v 4.998782 2.728654 -0.906387
v 4.998782 3.210047 -1.360165
v -4.921946 3.210048 -6.796679
v 4.998782 3.210048 -6.796679
v -4.921946 2.479276 -6.796679
v -5.012831 0.000001 -6.796679
v 4.998782 2.479276 -6.796679
v 5.010528 2.497562 -6.796679
v -5.012831 2.497562 -6.796679
v 5.010528 0.000001 -6.796679
vt 0.820312 0.210938
vt 0.820312 0.210938
vt 0.820312 0.210938
vt 0.835938 0.382812
vt 0.835938 0.382812
vt 0.835938 0.382812
vt 0.820312 0.210938
vt 0.820312 0.210938
vt 0.820312 0.210938
vt 0.820312 0.210938
vt 0.820312 0.210938
vt 0.820312 0.210938
vt 0.835938 0.382812
vt 0.835938 0.382812
vt 0.835937 0.382812
vt 0.835938 0.382812
vt 0.820312 0.210938
vt 0.289062 0.835938
vt 0.289062 0.835938
vt 0.289062 0.835938
vt 0.835938 0.382812
vt 0.820312 0.210938
vt 0.289062 0.835938
vn 0.0000 0.6859 0.7277
vn -1.0000 -0.0000 0.0000
vn 0.0000 0.0000 -1.0000
vn 1.0000 -0.0000 0.0000
vn 0.0000 1.0000 0.0000
vn 0.0000 -0.0000 1.0000
s 1
f 9/1/1 7/2/1 5/3/1
f 18/4/2 3/5/2 4/6/2
f 16/7/3 12/8/3 13/9/3
f 12/8/2 8/10/2 5/3/2
f 6/11/1 11/12/1 7/2/1
f 19/13/3 18/4/3 17/14/3
f 19/13/4 1/15/4 2/16/4
f 5/3/5 7/2/5 12/8/5
f 7/2/5 13/9/5 12/8/5
f 11/12/4 16/7/4 13/9/4
f 7/2/5 11/12/5 13/9/5
f 11/12/4 10/17/4 16/7/4
f 4/18/6 2/19/6 1/20/6
f 9/1/1 6/11/1 7/2/1
f 18/4/2 15/21/2 3/5/2
f 16/7/3 14/22/3 12/8/3
f 12/8/2 14/22/2 8/10/2
f 6/11/1 10/17/1 11/12/1
f 19/13/3 15/21/3 18/4/3
f 19/13/4 17/14/4 1/15/4
f 4/18/6 3/23/6 2/19/6
