# Blender v2.91.0 Beta OBJ File: 'decos.blend'
# www.blender.org
o Cube.012
v 14.125615 -1.078403 -1.330402
v -2.182714 12.336767 -9.552767
v -2.182714 -1.078401 -9.552769
v -2.182714 12.336765 -1.330403
v -2.182714 -1.078403 -1.330402
v -2.182714 3.102658 -1.330402
v 14.125615 3.102660 -9.552768
v 14.125615 3.102658 -1.330402
v -2.182714 3.102660 -9.552768
v 14.125615 12.336767 -9.552767
v 14.125615 -1.078401 -9.552769
v 14.125615 12.336765 -1.330403
vt 0.257812 0.882812
vt 0.257812 0.882812
vt 0.257812 0.882812
vt 0.132812 0.789062
vt 0.132812 0.789062
vt 0.132812 0.789062
vt 0.132812 0.789062
vt 0.132812 0.789062
vt 0.132812 0.789062
vt 0.132812 0.789062
vt 0.132812 0.789062
vt 0.257812 0.882812
vt 0.257812 0.882812
vt 0.257812 0.882812
vt 0.257812 0.882812
vt 0.257812 0.882812
vn 0.0000 -1.0000 -0.0000
vn 0.0000 0.0000 1.0000
vn 1.0000 -0.0000 0.0000
vn -1.0000 0.0000 0.0000
vn 0.0000 0.0000 -1.0000
vn 0.0000 1.0000 0.0000
s off
f 11/1/1 5/2/1 3/3/1
f 12/4/2 6/5/2 8/6/2
f 10/7/3 8/6/3 7/8/3
f 4/9/4 9/10/4 6/5/4
f 2/11/5 7/8/5 9/10/5
f 8/12/2 5/2/2 1/13/2
f 11/1/3 8/12/3 1/13/3
f 6/14/4 3/3/4 5/2/4
f 9/15/5 11/1/5 3/3/5
f 2/11/6 12/4/6 10/7/6
f 11/1/1 1/13/1 5/2/1
f 12/4/2 4/9/2 6/5/2
f 10/7/3 12/4/3 8/6/3
f 4/9/4 2/11/4 9/10/4
f 2/11/5 10/7/5 7/8/5
f 8/12/2 6/14/2 5/2/2
f 11/1/3 7/16/3 8/12/3
f 6/14/4 9/15/4 3/3/4
f 9/15/5 7/16/5 11/1/5
f 2/11/6 4/9/6 12/4/6
