# Blender v2.91.0 Beta OBJ File: 'decos.blend'
# www.blender.org
o Cube.008_Cube.001
v -10.763248 3.910589 -9.685597
v -6.537377 3.910589 -11.270974
v -10.763248 3.910589 -11.270974
v 1.414162 0.617146 -6.948793
v -3.486984 0.634058 -6.897647
v -3.430517 0.617146 -6.948793
v -3.977134 3.910586 -6.453677
v -3.977134 3.694043 -11.832143
v -3.977134 3.694040 -6.453677
v -10.586082 0.625608 -15.584579
v -10.586082 3.452975 -9.846072
v -10.586082 3.452978 -15.584579
v 1.470629 0.634061 -11.388176
v 1.470629 3.520965 -6.897645
v 1.470629 0.634058 -6.897647
v -10.586082 0.269232 -9.846075
v -6.479567 0.625605 -9.846075
v -10.586082 0.625605 -9.846075
v -10.763248 3.910592 -15.745051
v 1.782135 3.694046 -15.745051
v -10.763248 3.694046 -15.745051
v 1.664664 3.574914 -15.638648
v 1.604969 3.452975 -11.431449
v 1.604969 3.452978 -15.584579
v 1.664664 3.574911 -11.377378
v -6.537377 3.694043 -11.270974
v -6.499044 3.574911 -11.377378
v 1.843307 3.574908 -6.560081
v -3.799968 3.452972 -6.614151
v 1.783612 3.452972 -6.614151
v -3.859663 3.574908 -6.560081
v -3.799968 3.452975 -11.671668
v -6.519717 3.694043 -12.616138
v -0.699276 3.574911 -12.509734
v -6.402246 3.574911 -12.509734
v -10.645777 3.574914 -15.638648
v -0.581805 3.694041 -8.142061
v -6.402246 3.574909 -8.248464
v -0.699276 3.574909 -8.248464
v -0.581805 3.910589 -12.616138
v -0.581805 3.694043 -12.616138
v 1.604969 0.625605 -11.431452
v 1.604969 0.269235 -15.584579
v 1.604969 0.625608 -15.584579
v 1.414162 0.269232 -11.337029
v 1.414162 0.269229 -6.948793
v -3.977134 3.910589 -11.832143
v 1.960779 3.694043 -11.832143
v -3.889196 3.910589 -11.752490
v 1.872840 3.910586 -6.533329
v -3.889196 3.910586 -6.533329
v 1.872840 3.910589 -11.752490
v 1.960779 3.910589 -11.832143
v 1.960779 3.910586 -6.453677
v -1.008178 4.648038 -9.142909
v 1.414162 0.617149 -11.337029
v -3.486984 0.634061 -11.388176
v -3.486984 3.520968 -11.388173
v -3.486984 3.520965 -6.897645
v -6.519717 3.910589 -12.616138
v -6.479567 3.452975 -9.846072
v -6.479567 3.452975 -11.431449
v -0.758971 3.452973 -8.302536
v -6.342552 3.452973 -8.302536
v -6.342552 3.452975 -12.455663
v -10.763248 3.694043 -9.685597
v -10.645777 3.574911 -9.792001
v 1.843307 3.574911 -11.725739
v 1.470629 3.520968 -11.388173
v -10.586082 0.269235 -15.584579
v -6.479567 0.625605 -11.431452
v -3.430517 0.269232 -11.337029
v -6.519717 3.910586 -8.142061
v -6.431780 3.910589 -12.536485
v -0.669743 3.910586 -8.221714
v -6.431780 3.910586 -8.221714
v -0.669743 3.910589 -12.536485
v -0.581805 3.910586 -8.142061
v -3.550761 4.648040 -10.419886
v -0.758971 3.452975 -12.455663
v 1.783612 3.452975 -11.671668
v -6.537377 3.694043 -9.685597
v -3.859663 3.574911 -11.725739
v -3.430517 0.617149 -11.337029
v -3.430517 0.269229 -6.948793
v -6.537377 3.910589 -9.685597
v -10.675311 3.910589 -11.350627
v -10.675311 3.910592 -15.665401
v -6.519717 3.694041 -8.142061
v 1.694197 3.910592 -15.665401
v 1.782135 3.910592 -15.745051
v 1.694197 3.910589 -11.350627
v 1.782135 3.910589 -11.270974
v -6.508682 3.910589 -11.350627
v 1.694197 4.648040 -13.548800
v -6.499044 3.574911 -9.792001
v -10.675311 4.648040 -13.508013
v 1.960779 3.694040 -6.453677
v -6.479567 0.269232 -11.431452
v 1.782135 3.694043 -11.270974
v -6.479567 0.269232 -9.846075
v 1.604969 0.269232 -11.431452
vt 0.835938 0.242188
vt 0.835938 0.242188
vt 0.835938 0.242188
vt 0.835938 0.414062
vt 0.835938 0.414062
vt 0.835938 0.414062
vt 0.835938 0.242188
vt 0.835938 0.242188
vt 0.835938 0.242188
vt 0.835938 0.445312
vt 0.835938 0.445312
vt 0.835938 0.445312
vt 0.835938 0.445312
vt 0.835938 0.445312
vt 0.835938 0.445312
vt 0.835938 0.414062
vt 0.835938 0.414062
vt 0.835938 0.414062
vt 0.835938 0.242188
vt 0.835938 0.242188
vt 0.835938 0.242188
vt 0.835938 0.242188
vt 0.835938 0.242188
vt 0.835938 0.242188
vt 0.835938 0.242188
vt 0.835938 0.242188
vt 0.835938 0.242188
vt 0.835938 0.242188
vt 0.835938 0.242188
vt 0.835938 0.242188
vt 0.835938 0.242188
vt 0.835938 0.242188
vt 0.835938 0.242188
vt 0.835938 0.242188
vt 0.835938 0.242188
vt 0.835938 0.242188
vt 0.835938 0.242188
vt 0.835938 0.242188
vt 0.835938 0.242188
vt 0.835938 0.242188
vt 0.835938 0.242188
vt 0.835938 0.414062
vt 0.835938 0.414062
vt 0.835938 0.414062
vt 0.835938 0.414062
vt 0.835938 0.414062
vt 0.835938 0.242188
vt 0.835938 0.242188
vt 0.835938 0.242188
vt 0.835938 0.242188
vt 0.835938 0.242188
vt 0.835938 0.242188
vt 0.835938 0.242188
vt 0.835938 0.242188
vt 0.835938 0.242188
vt 0.835938 0.414062
vt 0.835938 0.414062
vt 0.835938 0.414062
vt 0.835938 0.445312
vt 0.835938 0.445312
vt 0.835938 0.445312
vt 0.835938 0.242188
vt 0.835938 0.242188
vt 0.835938 0.242188
vt 0.835938 0.242188
vt 0.835938 0.242188
vt 0.835938 0.242188
vt 0.835938 0.242188
vt 0.835938 0.242188
vt 0.835938 0.242188
vt 0.835938 0.242188
vt 0.835938 0.445312
vt 0.835938 0.445312
vt 0.835938 0.414062
vt 0.835938 0.414062
vt 0.835938 0.445312
vt 0.835938 0.445312
vt 0.835938 0.445312
vt 0.835938 0.414062
vt 0.835938 0.242188
vt 0.835938 0.242188
vt 0.835938 0.242188
vt 0.835938 0.242188
vt 0.835938 0.242188
vt 0.835938 0.242188
vt 0.835938 0.242188
vt 0.835938 0.242188
vt 0.835938 0.242188
vt 0.835938 0.242188
vt 0.835938 0.242188
vt 0.835938 0.242188
vt 0.835938 0.445312
vt 0.835938 0.414062
vt 0.835938 0.414062
vt 0.835938 0.242188
vt 0.835938 0.242188
vt 0.835938 0.242188
vt 0.835938 0.242188
vt 0.835938 0.242188
vt 0.835938 0.242188
vt 0.835938 0.242188
vt 0.835938 0.242188
vt 0.835938 0.242188
vt 0.835938 0.242188
vt 0.835938 0.242188
vt 0.835938 0.242188
vt 0.835938 0.242188
vt 0.835938 0.414062
vt 0.835938 0.414062
vt 0.835938 0.242188
vt 0.835938 0.445312
vt 0.835938 0.445312
vt 0.835938 0.445312
vt 0.835938 0.445312
vt 0.835938 0.445312
vt 0.000000 0.000000
vt 0.000000 0.000000
vt 0.000000 0.000000
vt 0.835938 0.414062
vt 0.835938 0.414062
vt 0.835938 0.414062
vn 0.0000 1.0000 0.0000
vn 0.0000 0.9968 -0.0802
vn 0.0000 -0.9494 0.3139
vn -1.0000 0.0000 0.0000
vn 1.0000 0.0000 0.0000
vn 0.0000 0.0000 1.0000
vn 0.0000 0.0000 -1.0000
vn 0.8981 -0.4397 -0.0000
vn 0.0000 -0.6661 0.7458
vn 0.0000 -0.4054 0.9142
vn -0.8981 -0.4397 -0.0000
vn 0.0000 -0.6661 -0.7458
vn 0.7121 -0.7021 -0.0000
vn 0.0000 0.9623 0.2719
vn 0.0000 0.9623 -0.2719
vn 0.2480 0.9688 0.0000
vn -0.2480 0.9688 0.0000
vn 0.0000 -0.9494 -0.3139
vn 0.9875 0.1577 0.0000
vn 0.0000 -0.4054 -0.9142
vn 0.0000 -0.4054 0.9141
vn -0.7120 -0.7021 -0.0000
vn -0.7121 -0.7021 -0.0000
vn 0.0000 0.9481 0.3181
vn 0.0000 0.9443 -0.3290
vn -0.8982 -0.4397 -0.0000
vn 0.0000 0.9757 0.2191
vn 0.0000 0.9984 -0.0569
vn 0.0007 0.9441 0.3298
vn 0.0003 0.9476 0.3195
vn 0.0011 0.9462 0.3235
vn 0.9519 0.3063 0.0000
vn -0.0007 0.9456 -0.3255
vn -0.0004 0.9450 -0.3270
vn 0.0005 0.9434 -0.3318
vn 0.0000 -1.0000 -0.0000
vn -0.0016 0.9472 -0.3207
s 1
f 1/1/1 2/2/2 3/3/1
f 4/4/3 5/5/3 6/6/3
f 7/7/4 8/8/4 9/9/4
f 10/10/4 11/11/4 12/12/4
f 13/13/5 14/14/5 15/15/5
f 16/16/6 17/17/6 18/18/6
f 19/19/7 20/20/7 21/21/7
f 22/22/8 23/23/8 24/24/8
f 25/25/9 26/26/9 27/27/9
f 28/28/10 29/29/10 30/30/10
f 31/31/11 32/32/11 29/29/11
f 33/33/12 34/34/12 35/35/12
f 21/21/12 22/22/12 36/36/12
f 37/37/9 38/38/9 39/39/9
f 20/20/13 25/25/13 22/22/13
f 40/40/5 37/37/5 41/41/5
f 42/42/5 43/43/5 44/44/5
f 45/45/5 4/4/5 46/46/5
f 47/47/7 48/48/7 8/8/7
f 7/7/1 49/49/1 47/47/1
f 7/7/1 50/50/1 51/51/1
f 47/47/1 52/52/1 53/53/1
f 53/53/1 50/50/1 54/54/1
f 51/51/14 50/50/14 55/55/14
f 52/52/15 49/49/15 55/55/15
f 50/50/16 52/52/16 55/55/16
f 49/49/17 51/51/17 55/55/17
f 56/56/18 57/57/18 13/58/18
f 58/59/4 5/60/4 59/61/4
f 60/62/7 41/41/7 33/33/7
f 27/27/19 61/63/19 62/64/19
f 36/36/20 24/24/20 12/65/20
f 63/66/21 38/38/21 64/67/21
f 64/67/11 35/35/11 65/68/11
f 66/69/22 36/36/23 67/70/22
f 28/28/9 9/9/9 31/31/9
f 48/48/13 28/28/13 68/71/13
f 69/72/7 57/73/7 58/59/7
f 70/74/4 18/18/4 10/75/4
f 62/76/5 17/77/5 71/78/5
f 72/79/7 56/56/7 45/45/7
f 73/80/1 74/81/1 60/62/1
f 73/80/1 75/82/1 76/83/1
f 60/62/1 77/84/1 40/40/1
f 40/40/1 75/82/1 78/85/1
f 76/83/24 75/82/24 79/86/24
f 77/84/25 74/81/25 79/86/25
f 75/82/16 77/84/16 79/86/16
f 74/81/17 76/83/17 79/86/17
f 34/34/8 63/66/8 80/87/8
f 68/71/8 30/30/8 81/88/8
f 32/32/20 68/71/20 81/88/20
f 11/89/26 36/36/26 12/65/26
f 34/34/13 37/37/13 39/39/13
f 67/70/9 82/90/9 66/69/9
f 8/8/12 68/71/12 83/91/12
f 31/31/23 8/8/23 83/91/23
f 71/78/6 23/92/6 62/76/6
f 84/93/4 85/94/4 6/6/4
f 21/21/4 3/3/4 19/19/4
f 86/95/6 66/69/6 82/90/6
f 3/3/1 87/96/1 88/97/1
f 89/98/23 35/35/23 38/38/23
f 19/19/1 90/99/1 91/100/1
f 91/100/1 92/101/27 93/102/1
f 94/103/28 95/104/29 87/96/30
f 11/89/10 96/105/10 67/70/10
f 92/101/5 90/99/5 95/104/5
f 95/104/29 97/106/31 87/96/30
f 78/85/6 89/98/6 37/37/6
f 53/53/5 98/107/5 48/48/5
f 73/80/4 33/33/4 89/98/4
f 54/54/6 9/9/6 98/107/6
f 99/108/6 42/42/6 71/109/6
f 91/100/5 100/110/5 20/20/5
f 42/111/5 24/112/5 23/92/5
f 18/113/6 61/114/6 11/11/6
f 4/4/6 85/94/6 46/46/6
f 2/2/2 87/96/1 3/3/1
f 17/17/5 99/108/5 71/109/5
f 3/3/4 66/69/4 1/1/4
f 44/115/7 12/12/7 24/112/7
f 93/102/6 26/26/6 100/110/6
f 86/95/5 26/26/5 2/2/5
f 92/101/27 94/103/28 2/2/2
f 23/23/10 27/27/10 62/64/10
f 43/43/7 10/75/7 44/44/7
f 26/26/32 96/105/32 27/27/32
f 88/97/33 95/104/34 90/99/35
f 65/68/20 34/34/20 80/87/20
f 16/116/36 99/117/36 101/118/36
f 4/4/3 15/119/3 5/5/3
f 7/7/1 51/51/1 49/49/1
f 7/7/1 54/54/1 50/50/1
f 47/47/1 49/49/1 52/52/1
f 53/53/1 52/52/1 50/50/1
f 56/56/18 84/93/18 57/57/18
f 73/80/1 76/83/1 74/81/1
f 73/80/1 78/85/1 75/82/1
f 60/62/1 74/81/1 77/84/1
f 40/40/1 77/84/1 75/82/1
f 21/21/4 66/69/4 3/3/4
f 88/97/1 19/19/1 3/3/1
f 87/96/4 97/106/4 88/97/4
f 2/2/2 93/102/1 92/101/27
f 19/19/1 88/97/1 90/99/1
f 91/100/1 90/99/1 92/101/27
f 2/2/2 94/103/28 87/96/1
f 26/26/32 82/90/32 96/105/32
f 14/14/6 5/60/6 15/15/6
f 1/1/1 86/95/1 2/2/2
f 7/7/4 47/47/4 8/8/4
f 10/10/4 18/113/4 11/11/4
f 13/13/5 69/72/5 14/14/5
f 16/16/6 101/120/6 17/17/6
f 19/19/7 91/100/7 20/20/7
f 22/22/8 25/25/8 23/23/8
f 25/25/9 100/110/9 26/26/9
f 28/28/10 31/31/10 29/29/10
f 31/31/11 83/91/11 32/32/11
f 33/33/12 41/41/12 34/34/12
f 21/21/12 20/20/12 22/22/12
f 37/37/9 89/98/9 38/38/9
f 20/20/13 100/110/13 25/25/13
f 40/40/5 78/85/5 37/37/5
f 42/42/5 102/121/5 43/43/5
f 45/45/5 56/56/5 4/4/5
f 47/47/7 53/53/7 48/48/7
f 58/59/4 57/73/4 5/60/4
f 60/62/7 40/40/7 41/41/7
f 27/27/19 96/105/19 61/63/19
f 36/36/20 22/22/20 24/24/20
f 63/66/21 39/39/21 38/38/21
f 64/67/11 38/38/11 35/35/11
f 66/69/22 21/21/23 36/36/23
f 28/28/9 98/107/9 9/9/9
f 48/48/13 98/107/13 28/28/13
f 69/72/7 13/13/7 57/73/7
f 70/74/4 16/16/4 18/18/4
f 62/76/5 61/114/5 17/77/5
f 72/79/7 84/93/7 56/56/7
f 34/34/8 39/39/8 63/66/8
f 68/71/8 28/28/8 30/30/8
f 32/32/20 83/91/20 68/71/20
f 11/89/26 67/70/26 36/36/26
f 34/34/13 41/41/13 37/37/13
f 67/70/9 96/105/9 82/90/9
f 8/8/12 48/48/12 68/71/12
f 31/31/23 9/9/23 8/8/23
f 71/78/6 42/111/6 23/92/6
f 84/93/4 72/79/4 85/94/4
f 86/95/6 1/1/6 66/69/6
f 89/98/23 33/33/23 35/35/23
f 11/89/10 61/63/10 96/105/10
f 78/85/6 73/80/6 89/98/6
f 53/53/5 54/54/5 98/107/5
f 73/80/4 60/62/4 33/33/4
f 54/54/6 7/7/6 9/9/6
f 99/108/6 102/121/6 42/42/6
f 91/100/5 93/102/5 100/110/5
f 42/111/5 44/115/5 24/112/5
f 18/113/6 17/77/6 61/114/6
f 4/4/6 6/6/6 85/94/6
f 17/17/5 101/120/5 99/108/5
f 44/115/7 10/10/7 12/12/7
f 93/102/6 2/2/6 26/26/6
f 86/95/5 82/90/5 26/26/5
f 92/101/27 95/104/29 94/103/28
f 23/23/10 25/25/10 27/27/10
f 43/43/7 70/74/7 10/75/7
f 88/97/33 97/106/37 95/104/34
f 65/68/20 35/35/20 34/34/20
f 14/14/6 59/61/6 5/60/6
