# Blender v2.91.0 Beta OBJ File: 'decos.blend'
# www.blender.org
o Cube.017_Cube.014
v -13.864607 2.686563 -6.693974
v -13.850561 0.557574 -8.410619
v -13.843348 0.540192 -6.716082
v -8.017543 2.967277 -8.770215
v -8.703560 3.235113 -7.058789
v -8.008702 2.948656 -6.407302
v -13.932858 2.893247 -6.380373
v -13.249334 3.192598 -7.038452
v -13.944057 2.911839 -8.743278
v -13.255521 3.207506 -8.491745
v -13.233320 3.178540 -7.204381
v -10.989303 4.220018 -8.083267
v -13.237065 3.187566 -8.084291
v -8.721534 3.232484 -8.103050
v -10.985558 4.210992 -7.203358
v -8.717789 3.223458 -7.223141
v -8.054269 0.597796 -6.741792
v -8.082706 2.758086 -8.414258
v -8.075494 2.740703 -6.719720
v -1.732263 0.679719 -8.615968
v -1.784735 3.767557 -13.852651
v -1.762313 3.713519 -8.584720
v -13.881297 3.596411 -8.532676
v -13.873636 0.613185 -13.831891
v -13.851213 0.559147 -8.563960
v -15.023085 3.877342 -14.377037
v -14.687655 4.092115 -8.157789
v -14.713196 4.153666 -14.158137
v -0.962889 4.224839 -8.216739
v -0.988429 4.286390 -14.217087
v -12.223237 5.519420 -11.155124
v -0.647539 3.949979 -8.003517
v -14.995693 3.811330 -7.941837
v -7.791739 0.619433 -8.589964
v -0.674931 4.015992 -14.438717
v -1.754686 0.733757 -13.883899
v -13.871820 2.703945 -8.388512
v -8.709745 3.250021 -8.512082
v -8.061481 0.615179 -8.436330
v -13.903720 3.650449 -13.800607
v -7.821805 3.654965 -8.558698
vt 0.851562 0.414062
vt 0.851562 0.414062
vt 0.851562 0.414062
vt 0.164062 0.882812
vt 0.164062 0.882812
vt 0.164062 0.882812
vt 0.164062 0.882812
vt 0.164062 0.882812
vt 0.164062 0.882812
vt 0.164062 0.882812
vt 0.164062 0.882812
vt 0.164062 0.882812
vt 0.164062 0.882812
vt 0.164062 0.882812
vt 0.164062 0.882812
vt 0.164062 0.882812
vt 0.851562 0.414062
vt 0.851562 0.414062
vt 0.851562 0.414062
vt 0.851562 0.414062
vt 0.851562 0.414062
vt 0.851562 0.414062
vt 0.851562 0.414062
vt 0.851562 0.414062
vt 0.851562 0.414062
vt 0.164062 0.882812
vt 0.164062 0.882812
vt 0.164062 0.882812
vt 0.164062 0.882812
vt 0.164062 0.882812
vt 0.164062 0.882812
vt 0.164062 0.882812
vt 0.164062 0.882812
vt 0.851562 0.414062
vt 0.164062 0.882812
vt 0.851562 0.414062
vt 0.851562 0.414062
vt 0.164062 0.882812
vt 0.851562 0.414062
vt 0.851562 0.414062
vt 0.851562 0.414062
vn -0.9999 -0.0099 0.0042
vn 0.3764 0.9264 0.0059
vn -0.0067 0.9128 0.4083
vn -0.0067 0.9128 0.4084
vn -0.3944 0.9189 0.0094
vn -0.3970 0.9178 0.0106
vn -0.3980 0.9173 0.0111
vn -0.4174 0.9087 0.0111
vn 0.3993 0.9168 0.0077
vn 0.9999 0.0099 -0.0042
vn 0.0045 -0.0103 0.9999
vn -0.6696 0.7426 0.0105
vn 0.1117 0.9937 0.0097
vn 0.6551 0.7555 0.0050
vn -0.0025 0.6114 0.7913
vn -0.0025 0.6111 0.7915
vn -0.0069 0.9050 0.4253
vn -0.4911 0.8710 0.0110
vn 0.0044 -0.0103 0.9999
vn -0.0094 0.6273 -0.7787
vn -0.0106 0.9135 -0.4067
vn -0.0044 0.0103 -0.9999
vn 0.3806 0.9247 0.0079
vn -0.0067 0.9128 0.4085
vn -0.3938 0.9192 0.0091
vn -0.0094 0.6274 -0.7786
s 1
f 1/1/1 2/2/1 3/3/1
f 4/4/2 5/5/2 6/6/2
f 7/7/3 5/5/4 8/8/3
f 9/9/5 8/8/6 10/10/7
f 11/11/8 12/12/8 13/13/8
f 14/14/9 15/15/9 16/16/9
f 17/17/10 18/18/10 19/19/10
f 19/19/11 3/3/11 17/17/11
f 20/20/10 21/21/10 22/22/10
f 23/23/1 24/24/1 25/25/1
f 26/26/12 27/27/12 28/28/12
f 29/29/13 30/30/13 31/31/13
f 32/32/14 30/30/14 29/29/14
f 33/33/15 29/29/16 27/27/15
f 27/27/17 29/29/17 31/31/17
f 28/28/18 27/27/18 31/31/18
f 22/22/19 34/34/19 20/20/19
f 26/26/20 30/30/20 35/35/20
f 30/30/21 28/28/21 31/31/21
f 24/24/22 21/21/22 36/36/22
f 1/1/1 37/37/1 2/2/1
f 4/4/23 38/38/23 5/5/23
f 7/7/3 6/6/24 5/5/4
f 9/9/5 7/7/25 8/8/6
f 11/11/8 15/15/8 12/12/8
f 14/14/9 12/12/9 15/15/9
f 17/17/10 39/39/10 18/18/10
f 19/19/11 1/1/11 3/3/11
f 20/20/10 36/36/10 21/21/10
f 23/23/1 40/40/1 24/24/1
f 26/26/12 33/33/12 27/27/12
f 32/32/14 35/35/14 30/30/14
f 33/33/15 32/32/16 29/29/16
f 22/22/19 41/41/19 34/34/19
f 26/26/26 28/28/26 30/30/26
f 24/24/22 40/40/22 21/21/22
