# Blender v2.91.0 Beta OBJ File: 'decos.blend'
# www.blender.org
o Cube.009_Cube.011
v -0.922861 2.546141 -5.728042
v -4.863308 2.545621 -5.719440
v -4.908618 2.547180 -7.081976
v -0.892654 2.547180 -7.081976
v -3.873447 3.252848 -5.963367
v -3.882454 3.256939 -6.859899
v -1.927826 3.252848 -5.963367
v -1.918818 3.256939 -6.859899
v 0.937965 2.545621 -5.719440
v 4.863308 2.545621 -5.719440
v 4.908618 2.547180 -7.081976
v 0.892654 2.547180 -7.081976
v 3.873447 3.252848 -5.963367
v 3.882454 3.256939 -6.859899
v 1.927826 3.252848 -5.963367
v 1.918818 3.256939 -6.859899
v -6.153865 0.137714 -13.204431
v 6.131584 6.592021 -6.911580
v 6.131583 0.137714 -6.911580
v 6.153866 6.592021 -13.204431
v 6.819842 9.849815 -10.282944
v 6.870209 6.713333 -13.578325
v 6.846033 6.713333 -6.537266
v 6.858135 9.751139 -10.060078
v 6.153866 9.745995 -10.058005
v 6.131584 9.745993 -10.058005
v 6.131584 7.011786 -6.653128
v 6.153866 7.011787 -13.462883
v -6.131583 0.137714 -6.911580
v -6.153866 6.592021 -13.204431
v -6.131584 6.592021 -6.911580
v -6.819842 9.849815 -10.282944
v -6.823603 9.999065 -10.056628
v -6.870209 6.713333 -13.578325
v -6.846033 6.713333 -6.537266
v -6.858135 9.751139 -10.060078
v -6.844511 6.698857 -13.812963
v -6.153866 9.745995 -10.058005
v -6.131584 9.745993 -10.058005
v -6.131584 7.011786 -6.653128
v -6.153866 7.011787 -13.462883
v 6.818942 9.848173 -9.836276
v 6.819216 6.698914 -6.302848
v -6.818942 9.848173 -9.836276
v -6.819216 6.698914 -6.302848
v 6.844511 6.698857 -13.812963
v 6.153865 0.137714 -13.204431
v 6.823603 9.999065 -10.056628
vt 0.000000 0.000000
vt 0.000000 0.000000
vt 0.000000 0.000000
vt 0.000000 0.000000
vt 0.000000 0.000000
vt 0.000000 0.000000
vt 0.000000 0.000000
vt 0.000000 0.000000
vt 0.000000 0.000000
vt 0.000000 0.000000
vt 0.000000 0.000000
vt 0.000000 0.000000
vt 0.000000 0.000000
vt 0.000000 0.000000
vt 0.000000 0.000000
vt 0.835938 0.398438
vt 0.835938 0.398438
vt 0.835938 0.398438
vt 0.835938 0.398438
vt 0.835938 0.398438
vt 0.835938 0.398438
vt 0.835938 0.398438
vt 0.835938 0.398438
vt 0.835938 0.398438
vt 0.835938 0.398438
vt 0.835938 0.398438
vt 0.835938 0.398438
vt 0.835938 0.398438
vt 0.835937 0.398437
vt 0.835937 0.398437
vt 0.835938 0.398438
vt 0.000000 0.000000
vt 0.523438 0.945312
vt 0.523438 0.945312
vt 0.523438 0.945312
vt 0.523438 0.945312
vt 0.523438 0.945312
vt 0.523438 0.945312
vt 0.523438 0.945312
vt 0.523438 0.945312
vt 0.523438 0.945312
vt 0.523438 0.945312
vt 0.523438 0.945312
vt 0.523438 0.945312
vt 0.523438 0.945312
vt 0.523438 0.945312
vt 0.523438 0.945312
vt 0.523438 0.945312
vn 0.5708 0.8210 0.0134
vn -0.5717 0.8203 0.0199
vn 0.0000 0.3261 0.9454
vn 0.5717 0.8203 0.0199
vn 0.0000 1.0000 0.0046
vn -0.5798 0.8147 0.0095
vn 0.0000 0.8251 0.5650
vn 0.9834 0.1357 0.1208
vn 0.9850 0.1322 -0.1107
vn 0.0000 0.7465 0.6654
vn 0.0000 0.8348 -0.5505
vn -0.9847 0.1305 0.1159
vn -0.9842 0.1355 0.1136
vn 0.9845 0.1386 -0.1078
vn 0.0000 0.7460 -0.6659
vn -0.9850 0.1322 -0.1107
vn 0.5737 0.8190 0.0095
vn 0.0020 0.3185 0.9479
vn 0.5798 0.8147 0.0095
vn 0.9847 0.1305 0.1159
vn 0.9836 0.1379 -0.1162
vn -0.9834 0.1357 0.1208
vn -0.9845 0.1386 -0.1078
vn 0.9842 0.1355 0.1136
vn -0.9836 0.1379 -0.1162
vn -1.0000 -0.0000 0.0035
vn -1.0000 0.0011 0.0034
vn 1.0000 0.0011 0.0034
vn 1.0000 -0.0000 0.0035
vn 0.0000 0.0000 1.0000
vn 1.0000 0.0005 0.0034
vn 1.0000 -0.0013 0.0035
vn 1.0000 0.0028 0.0033
vn 1.0000 0.0041 0.0033
vn 0.0000 0.0000 -1.0000
vn -1.0000 0.0005 0.0034
vn -1.0000 0.0028 0.0033
vn -0.0001 -0.7797 0.6261
vn -1.0000 -0.0013 0.0035
vn 0.0001 -0.7797 0.6261
vn -1.0000 0.0041 0.0033
s off
f 8/1/1 1/2/1 4/3/1
f 2/4/2 6/5/2 3/6/2
f 2/4/3 7/7/3 5/8/3
f 13/9/3 9/10/3 10/11/3
f 14/12/4 10/11/4 11/13/4
f 15/14/5 14/12/5 16/15/5
f 16/15/6 9/10/6 15/14/6
f 48/16/7 44/17/7 42/18/7
f 6/5/5 7/7/5 8/1/5
f 23/19/8 42/18/8 43/20/8
f 22/21/9 21/22/9 24/23/9
f 42/18/10 45/24/10 43/20/10
f 48/16/11 32/25/11 33/26/11
f 35/27/12 44/17/12 36/28/12
f 33/26/13 36/28/13 44/17/13
f 48/16/14 24/23/14 21/22/14
f 32/25/15 46/29/15 37/30/15
f 32/25/16 34/31/16 36/28/16
f 8/1/17 7/7/17 1/2/17
f 2/4/6 5/8/6 6/5/6
f 2/4/18 1/2/18 7/7/18
f 13/9/3 15/14/3 9/10/3
f 14/12/19 13/9/19 10/11/19
f 15/14/5 13/9/5 14/12/5
f 16/15/2 12/32/2 9/10/2
f 48/16/7 33/26/7 44/17/7
f 6/5/5 5/8/5 7/7/5
f 23/19/20 24/23/20 42/18/20
f 22/21/21 46/29/21 21/22/21
f 42/18/10 44/17/10 45/24/10
f 48/16/11 21/22/11 32/25/11
f 35/27/22 45/24/22 44/17/22
f 33/26/23 32/25/23 36/28/23
f 48/16/24 42/18/24 24/23/24
f 32/25/15 21/22/15 46/29/15
f 32/25/25 37/30/25 34/31/25
s 1
f 29/33/26 30/34/27 17/35/26
f 20/36/28 19/37/29 47/38/29
f 19/37/30 31/39/30 29/33/30
f 20/36/28 27/40/31 18/41/32
f 28/42/33 26/43/34 27/40/31
f 17/35/35 20/36/35 47/38/35
f 30/34/27 40/44/36 41/45/37
f 41/45/38 39/46/38 38/47/38
f 29/33/26 31/39/39 30/34/27
f 20/36/28 18/41/32 19/37/29
f 19/37/30 18/41/30 31/39/30
f 20/36/28 28/42/33 27/40/31
f 28/42/40 25/48/40 26/43/40
f 17/35/35 30/34/35 20/36/35
f 30/34/27 31/39/39 40/44/36
f 41/45/37 40/44/36 39/46/41
