# Blender v2.91.0 Beta OBJ File: 'decos.blend'
# www.blender.org
o Cube.007_Cube.015
v -0.412528 0.653378 -0.348639
v -7.897107 1.455981 -0.348639
v -7.897107 0.653378 -0.348639
v -7.829549 0.607058 -0.390944
v -7.829549 0.269228 -5.615993
v -7.829549 0.269226 -0.390944
v -7.897107 1.455983 -5.658298
v -7.897107 0.653380 -5.658298
v -0.412528 1.547899 -0.348639
v -7.970723 1.522573 -0.275023
v -0.338912 1.522573 -0.275023
v -0.412528 0.653380 -5.658298
v -0.412528 1.455981 -0.348639
v -0.480086 0.607060 -5.615993
v -0.480086 0.269226 -0.390944
v -0.480086 0.269228 -5.615993
v -0.412528 1.547901 -5.658298
v -0.412528 3.520962 -0.348637
v -0.338912 1.481309 -5.658298
v -0.338912 1.481307 -0.275023
v -7.897107 1.547899 -0.348639
v -7.970723 1.522575 -5.658298
v -0.338912 1.522575 -5.658298
v -7.897107 3.520964 -5.658298
v -0.412528 3.520964 -5.658298
v -7.897107 1.547901 -5.658298
v -7.897107 3.520962 -0.348637
v -7.970723 1.481307 -0.275023
v -7.970723 1.481309 -5.658298
v -0.480086 0.607058 -0.390944
v -8.414982 3.729346 -7.316473
v 0.105346 3.729344 0.060236
v 0.105346 3.729346 -7.316473
v -0.015800 3.527315 -7.238205
v -0.015800 3.527313 -0.018032
v -8.293835 3.527313 -0.018032
v -8.293835 3.527315 -7.238205
v -8.414982 3.729344 0.060236
v -7.951769 3.661510 -0.112015
v -0.357865 3.661510 -0.112015
v -4.154818 5.883109 -2.748150
v -0.161272 3.661512 -7.144225
v -0.161272 3.661510 -0.260835
v -8.148363 3.661512 -7.144225
v -4.154818 5.872331 -5.910810
v -0.171152 3.648121 -0.102954
v -8.148363 3.661510 -0.260835
v -8.138482 3.648121 -0.102954
v -2.434457 3.729348 -13.628683
v -2.434457 3.729346 -6.532247
v -2.434457 3.527317 -13.527782
v -2.434457 3.527315 -6.633149
v -8.217360 3.661514 -13.242882
v -8.217360 3.661512 -6.918047
v -5.581226 5.883111 -10.080464
v -8.068540 3.661512 -6.754310
v -2.434457 3.661512 -6.754309
v -2.434457 3.661514 -13.406622
v -8.226421 3.648123 -6.762537
v -8.068540 3.661514 -13.406622
v -8.226421 3.648125 -13.398392
v 3.998191 3.729348 -13.628683
v 3.919923 3.527317 -13.527782
v 3.919924 3.527315 -6.633149
v 3.998191 3.729346 -6.532247
v 3.825942 3.661512 -6.918047
v 3.825941 3.661514 -13.242884
v -2.059614 5.883111 -10.080464
v 3.677120 3.661514 -13.406622
v 3.835001 3.648125 -13.398394
v 3.677121 3.661512 -6.754309
v 3.835002 3.648123 -6.762537
v 3.640001 0.269230 -12.207306
v 3.640001 3.520964 -6.897645
v 3.640001 0.269228 -6.897647
v -7.897107 0.269228 -6.897647
v -7.897107 3.520966 -12.207304
v -7.897107 0.269230 -12.207306
v -7.897107 3.520964 -6.897645
v 3.640001 3.520966 -12.207304
v -3.519167 5.430995 -10.623804
v -6.322215 3.203987 -13.958063
v -6.322215 3.258865 -13.848421
v 7.832839 3.201881 -7.314598
v 7.832839 3.208363 -13.951513
v 7.832839 5.430995 -10.623804
v -6.322241 3.320975 -6.942447
v -6.041954 3.065312 -7.363628
v 7.552578 3.065596 -13.884156
v -6.041954 2.827407 -14.017644
v -6.322215 2.771333 -14.312156
v -6.041954 0.269228 -7.363630
v 3.670006 3.056341 -7.369638
v 3.670006 0.269228 -7.369640
v -6.041954 0.269230 -14.017644
v -6.322215 0.269230 -14.312156
v 7.552578 0.269230 -13.884158
v 7.552578 3.052754 -7.372043
v 3.807507 2.938958 -7.369740
v 7.415077 2.935673 -7.371942
v 7.318946 0.454433 -7.432446
v 7.415077 0.386460 -7.371942
v 7.552578 0.269228 -7.372043
v 3.807507 0.386460 -7.369741
v 3.903638 0.454433 -7.430362
v 3.903638 2.870898 -7.579645
v 3.903638 2.870898 -7.430362
v 7.318946 2.867788 -7.432446
v 7.318946 2.867788 -7.581728
v 3.903638 0.454433 -7.579645
v 7.318946 0.454433 -7.581728
v -6.322241 3.320975 -6.812317
v -6.041954 3.065312 -7.233500
v 3.670006 3.056341 -7.239511
v 7.832839 3.201881 -7.184471
v 7.552578 3.052754 -7.241916
v 5.818360 3.337751 -14.128405
v 3.827560 3.337749 -7.031970
v 5.818360 3.337749 -7.031969
v 3.853725 3.135718 -7.132871
v 3.853725 3.135720 -14.027504
v 5.818360 3.135720 -14.027504
v 3.827560 3.337751 -14.128406
v 7.968787 3.337751 -14.128405
v 7.942623 3.135720 -14.027504
v 7.942623 3.135718 -7.132870
v 5.818360 3.135718 -7.132871
v 7.968787 3.337749 -7.031969
v 7.857368 3.052754 -7.372043
v 7.857368 0.269230 -13.884158
v 7.857368 3.065596 -13.884156
v -7.829549 0.607060 -5.615993
v -0.412528 1.455983 -5.658298
v 7.857368 0.269228 -7.372043
vt 0.835938 0.304688
vt 0.835938 0.304688
vt 0.835938 0.304688
vt 0.164062 0.789062
vt 0.164062 0.789062
vt 0.164062 0.789062
vt 0.164062 0.789062
vt 0.164062 0.789062
vt 0.164062 0.789062
vt 0.835938 0.289062
vt 0.835938 0.289062
vt 0.835938 0.289062
vt 0.164062 0.789062
vt 0.164062 0.789062
vt 0.164062 0.789062
vt 0.164062 0.789062
vt 0.164062 0.789062
vt 0.164062 0.789062
vt 0.164062 0.789062
vt 0.835938 0.289062
vt 0.835938 0.289062
vt 0.835938 0.289062
vt 0.835938 0.289062
vt 0.835938 0.289062
vt 0.835938 0.289062
vt 0.835938 0.289062
vt 0.835938 0.304688
vt 0.835938 0.304688
vt 0.835938 0.304688
vt 0.835938 0.304688
vt 0.835938 0.289062
vt 0.835938 0.289062
vt 0.164062 0.789062
vt 0.164062 0.789062
vt 0.164062 0.789062
vt 0.164062 0.789062
vt 0.164062 0.789062
vt 0.164062 0.789062
vt 0.757812 0.320312
vt 0.757812 0.320312
vt 0.757812 0.320312
vt 0.835938 0.289062
vt 0.835938 0.289062
vt 0.835938 0.289062
vt 0.835938 0.289062
vt 0.835938 0.289062
vt 0.835938 0.304688
vt 0.835938 0.304688
vt 0.835938 0.304688
vt 0.835938 0.289062
vt 0.835938 0.304688
vt 0.835938 0.304688
vt 0.835938 0.304688
vt 0.835938 0.398438
vt 0.835938 0.398438
vt 0.835938 0.398438
vt 0.835938 0.304688
vt 0.835938 0.304688
vt 0.835938 0.304688
vt 0.835938 0.304688
vt 0.835938 0.304688
vt 0.835938 0.304688
vt 0.835938 0.398438
vt 0.835938 0.398438
vt 0.835938 0.398438
vt 0.835938 0.304688
vt 0.835938 0.304688
vt 0.835938 0.304688
vt 0.835938 0.398438
vt 0.835938 0.398438
vt 0.835938 0.398438
vt 0.835938 0.398438
vt 0.835938 0.398438
vt 0.835938 0.398438
vt 0.835938 0.398438
vt 0.835938 0.398438
vt 0.835938 0.398438
vt 0.835938 0.398438
vt 0.835938 0.398438
vt 0.835938 0.398438
vt 0.835938 0.398438
vt 0.835938 0.398438
vt 0.835938 0.398438
vt 0.835938 0.398438
vt 0.164062 0.789062
vt 0.164062 0.789062
vt 0.164062 0.789062
vt 0.835938 0.304688
vt 0.835938 0.304688
vt 0.835938 0.304688
vt 0.835938 0.304688
vt 0.835938 0.304688
vt 0.835938 0.304688
vt 0.835938 0.398438
vt 0.835938 0.398438
vt 0.835938 0.398438
vt 0.835938 0.398438
vt 0.835938 0.398438
vt 0.835938 0.398438
vt 0.835938 0.398438
vt 0.164062 0.789062
vt 0.164062 0.789062
vt 0.164062 0.789062
vt 0.164062 0.789062
vt 0.164062 0.789062
vt 0.835938 0.304688
vt 0.164062 0.789062
vt 0.835938 0.398438
vt 0.835938 0.398438
vt 0.835938 0.398438
vt 0.835938 0.398438
vt 0.835938 0.304688
vt 0.835938 0.304688
vt 0.835938 0.304688
vt 0.835938 0.304688
vt 0.835938 0.304688
vt 0.835938 0.304688
vt 0.835938 0.304688
vt 0.835938 0.398438
vt 0.835938 0.304688
vt 0.835938 0.304688
vt 0.164062 0.789062
vt 0.164062 0.789062
vt 0.164062 0.789062
vt 0.835938 0.304688
vt 0.835938 0.304688
vt 0.835938 0.304688
vt 0.835938 0.304688
vt 0.835938 0.304688
vt 0.164062 0.789062
vt 0.164062 0.789062
vt 0.164062 0.789062
vt 0.164062 0.789062
vt 0.164062 0.789062
vt 0.164062 0.789062
vt 0.164062 0.789062
vt 0.835938 0.304688
vt 0.835938 0.304688
vt 0.835938 0.304688
vt 0.835938 0.304688
vt 0.835938 0.304688
vt 0.835938 0.304688
vt 0.835938 0.304688
vt 0.164062 0.789062
vt 0.164062 0.789062
vt 0.835938 0.289062
vt 0.835938 0.289062
vt 0.835938 0.304688
vt 0.835938 0.304688
vt 0.835938 0.304688
vt 0.835938 0.304688
vt 0.164062 0.789062
vt 0.164062 0.789062
vt 0.164062 0.789062
vt 0.164062 0.789062
vt 0.835938 0.289062
vt 0.835938 0.289062
vt 0.835938 0.304688
vt 0.835938 0.304688
vt 0.164062 0.789062
vt 0.164062 0.789062
vt 0.164062 0.789062
vt 0.835938 0.304688
vt 0.757812 0.320312
vt 0.835938 0.289062
vt 0.835938 0.304688
vt 0.835938 0.398438
vt 0.835938 0.289062
vt 0.164062 0.789062
vn 0.0000 1.0000 0.0000
vn 1.0000 -0.0000 0.0000
vn 0.0000 -0.0000 1.0000
vn 0.0000 0.9456 0.3253
vn -1.0000 0.0000 0.0000
vn 0.3253 -0.9456 -0.0000
vn -0.3253 0.9456 0.0000
vn 0.3253 0.9456 0.0000
vn 0.0000 1.0000 0.0020
vn -0.3253 -0.9456 -0.0000
vn 0.0000 -0.9456 0.3253
vn 0.5655 -0.8248 -0.0000
vn 0.0000 -0.3612 -0.9325
vn 0.0000 -0.6744 0.7384
vn 0.0000 0.8316 0.5554
vn 0.8576 -0.5143 -0.0000
vn -0.5327 -0.0000 0.8463
vn 0.0000 -0.3612 0.9325
vn 0.0000 0.7647 0.6444
vn 0.9325 -0.3612 -0.0000
vn 0.0000 0.4872 -0.8733
vn 0.4338 0.8951 0.1031
vn 0.0259 0.7825 0.6221
vn -0.4338 0.8951 0.1031
vn -0.0259 0.7825 0.6221
vn 0.4852 0.8744 -0.0011
vn 0.4852 0.8744 -0.0012
vn 0.4861 0.8739 0.0000
vn -0.6444 0.7647 0.0000
vn 0.0000 0.8316 -0.5554
vn -0.0990 0.8601 0.5004
vn -0.6220 0.7824 0.0311
vn -0.0990 0.8601 -0.5004
vn -0.6220 0.7824 -0.0311
vn 0.0046 0.8366 0.5477
vn 0.0174 0.8559 0.5169
vn 0.0206 0.8606 0.5089
vn 0.0000 0.0000 -1.0000
vn 0.4697 -0.8828 0.0000
vn 0.0000 -0.4468 -0.8946
vn 0.9917 -0.1284 -0.0000
vn 0.3531 0.9356 0.0000
vn 0.0985 0.8976 -0.4296
vn 0.3229 0.9444 -0.0625
vn 0.0985 0.8976 0.4296
vn 0.3229 0.9444 0.0625
vn -0.1753 0.8804 -0.4407
vn -0.6074 0.7944 -0.0071
vn -0.4852 0.8744 -0.0011
vn -0.4852 0.8744 -0.0012
vn -0.4836 0.8753 -0.0030
vn -0.8576 -0.5143 -0.0000
vn -0.6684 -0.7438 0.0067
vn -0.6697 -0.7426 0.0051
vn -0.6695 -0.7428 0.0053
vn 0.0006 -0.4276 -0.9040
vn -0.7419 -0.5996 0.3001
vn 0.0084 1.0000 0.0000
vn 0.0000 -0.4468 0.8946
vn -0.9992 0.0000 0.0403
vn 0.0003 0.0000 1.0000
vn 0.0007 -0.0001 1.0000
vn 0.0007 0.0001 1.0000
vn 0.5334 -0.0000 0.8459
vn 0.0007 0.0000 1.0000
vn 0.0006 -0.0000 1.0000
vn -0.0002 -0.6652 0.7466
vn -0.0001 -0.6652 0.7466
vn 0.0005 0.6652 0.7466
vn -0.0005 -0.8550 0.5187
vn -0.6739 -0.7388 0.0000
vn 0.4695 -0.8830 -0.0017
vn 0.4542 -0.8909 -0.0009
vn 0.4537 -0.8911 -0.0009
vn 0.7244 0.0000 -0.6894
vn -0.5655 -0.8248 -0.0000
vn -0.9917 -0.1284 -0.0000
vn 0.0098 0.0000 -1.0000
vn 0.0049 0.0000 -1.0000
vn -0.9983 -0.0399 0.0420
vn 0.0069 0.1613 -0.9869
vn 0.5291 0.5848 -0.6148
vn 0.0002 -0.3599 0.9330
vn 0.0138 -0.6734 0.7392
vn 0.4836 0.8753 -0.0030
vn 0.0000 0.8294 0.5587
vn -0.4861 0.8739 0.0000
vn 0.4700 -0.8827 -0.0017
s 1
f 128/1/1 117/2/1 119/3/1
f 133/4/2 1/5/2 12/6/2
f 18/7/3 21/8/3 9/9/3
f 9/10/4 10/11/4 11/12/4
f 25/13/2 9/9/2 17/14/2
f 2/15/5 8/16/5 3/17/5
f 21/8/5 24/18/5 26/19/5
f 13/20/6 19/21/6 20/22/6
f 21/23/7 22/24/7 10/11/7
f 9/10/8 23/25/8 17/26/8
f 110/27/2 107/28/2 105/29/2
f 117/2/1 118/30/1 119/3/1
f 10/11/5 29/31/5 28/32/5
f 30/33/2 16/34/2 14/35/2
f 129/36/9 89/37/9 98/38/9
f 27/39/1 25/40/1 24/41/1
f 2/42/10 29/31/10 7/43/10
f 13/20/11 28/32/11 2/42/11
f 30/44/12 12/45/12 1/46/12
f 31/47/13 34/48/13 37/49/13
f 1/46/14 4/50/14 30/44/14
f 109/51/5 101/52/5 108/53/5
f 23/25/2 20/22/2 19/21/2
f 57/54/15 55/55/15 56/56/15
f 33/57/16 35/58/16 34/48/16
f 100/59/17 101/52/17 102/60/17
f 32/61/18 36/62/18 35/58/18
f 39/63/19 40/64/19 41/65/19
f 62/66/20 64/67/20 63/68/20
f 42/69/21 44/70/21 45/71/21
f 43/72/22 41/65/22 46/73/22
f 46/73/23 41/65/23 40/64/23
f 41/65/24 47/74/24 48/75/24
f 41/65/25 48/75/25 39/63/25
f 42/69/26 41/65/27 43/72/28
f 53/76/29 54/77/29 55/55/29
f 55/55/30 58/78/30 60/79/30
f 56/56/31 55/55/31 59/80/31
f 59/80/32 55/55/32 54/77/32
f 55/55/33 60/79/33 61/81/33
f 55/55/34 61/81/34 53/76/34
f 84/82/35 81/83/36 87/84/37
f 77/85/38 73/86/38 78/87/38
f 84/88/39 116/89/39 98/90/39
f 63/68/40 49/91/40 62/66/40
f 125/92/41 128/1/41 126/93/41
f 66/94/42 67/95/42 68/96/42
f 58/78/30 68/96/30 69/97/30
f 69/97/43 68/96/43 70/98/43
f 70/98/44 68/96/44 67/95/44
f 68/96/45 71/99/45 72/100/45
f 68/96/46 72/100/46 66/94/46
f 4/101/3 15/102/3 30/33/3
f 74/103/3 76/104/3 75/105/3
f 38/106/1 33/57/1 31/47/1
f 80/107/2 75/105/2 73/86/2
f 81/83/47 82/108/47 83/109/47
f 84/82/2 85/110/2 86/111/2
f 83/109/48 87/84/48 81/83/48
f 44/70/49 41/65/50 45/71/51
f 38/106/52 37/49/52 36/62/52
f 83/112/53 88/113/54 87/114/55
f 89/115/56 82/116/56 85/117/56
f 85/110/30 81/83/30 86/111/30
f 90/118/57 83/112/57 82/116/57
f 87/84/58 115/119/58 84/82/58
f 101/52/1 110/27/1 105/29/1
f 64/67/59 50/120/59 52/121/59
f 91/122/60 92/123/60 88/124/60
f 98/90/61 99/125/62 100/59/63
f 104/126/64 107/28/64 99/125/64
f 98/90/61 102/60/62 103/127/61
f 103/127/61 104/126/63 94/128/65
f 94/128/65 99/125/62 93/129/66
f 79/130/5 78/87/5 76/104/5
f 100/59/67 107/28/68 108/53/67
f 102/60/69 105/29/69 104/126/69
f 93/131/66 92/123/66 94/132/65
f 129/36/2 130/133/2 131/134/2
f 134/135/3 98/38/61 103/136/61
f 112/137/70 113/138/70 114/139/70
f 87/114/71 113/138/71 112/137/71
f 125/92/40 117/2/40 124/140/40
f 84/88/72 89/115/73 85/117/74
f 109/51/66 110/27/66 111/141/66
f 121/142/40 117/2/40 122/143/40
f 91/122/75 95/144/75 96/145/75
f 8/146/76 4/50/76 3/147/76
f 65/148/1 49/91/1 50/120/1
f 126/93/59 119/3/59 127/149/59
f 120/150/59 119/3/59 118/30/59
f 120/150/77 123/151/77 121/142/77
f 90/152/78 97/153/79 95/144/78
f 4/101/5 5/154/5 6/155/5
f 131/134/38 97/153/79 89/37/79
f 11/12/3 28/32/3 20/22/3
f 9/10/4 21/23/4 10/11/4
f 13/20/6 133/156/6 19/21/6
f 21/23/7 26/157/7 22/24/7
f 9/10/8 11/12/8 23/25/8
f 2/42/10 28/32/10 29/31/10
f 13/20/11 20/22/11 28/32/11
f 1/46/14 3/147/14 4/50/14
f 57/54/15 71/99/15 68/96/15
f 83/112/80 91/158/80 88/113/80
f 89/115/81 90/118/81 82/116/81
f 90/118/82 91/158/82 83/112/82
f 98/90/61 93/129/66 99/125/62
f 98/90/61 100/59/63 102/60/62
f 103/127/61 102/60/62 104/126/63
f 94/128/65 104/126/63 99/125/62
f 100/59/67 99/125/68 107/28/68
f 102/60/69 101/52/69 105/29/69
f 116/89/83 115/159/83 114/139/83
f 115/159/84 112/137/84 114/139/84
f 87/114/55 88/113/54 113/138/71
f 13/160/3 3/17/3 1/5/3
f 128/1/1 124/140/1 117/2/1
f 133/4/2 13/160/2 1/5/2
f 18/7/3 27/161/3 21/8/3
f 25/13/2 18/7/2 9/9/2
f 2/15/5 7/162/5 8/16/5
f 21/8/5 27/161/5 24/18/5
f 110/27/2 106/163/2 107/28/2
f 117/2/1 123/151/1 118/30/1
f 10/11/5 22/24/5 29/31/5
f 30/33/2 15/102/2 16/34/2
f 129/36/9 131/134/9 89/37/9
f 27/39/1 18/164/1 25/40/1
f 30/44/12 14/165/12 12/45/12
f 31/47/13 33/57/13 34/48/13
f 109/51/5 111/141/5 101/52/5
f 23/25/2 11/12/2 20/22/2
f 57/54/15 68/96/15 55/55/15
f 33/57/16 32/61/16 35/58/16
f 100/59/17 108/53/17 101/52/17
f 32/61/18 38/106/18 36/62/18
f 62/66/20 65/148/20 64/67/20
f 42/69/26 45/71/85 41/65/27
f 55/55/30 68/96/30 58/78/30
f 84/82/35 86/111/86 81/83/36
f 77/85/38 80/107/38 73/86/38
f 84/88/39 115/159/39 116/89/39
f 63/68/40 51/166/40 49/91/40
f 125/92/41 124/140/41 128/1/41
f 4/101/3 6/155/3 15/102/3
f 74/103/3 79/130/3 76/104/3
f 38/106/1 32/61/1 33/57/1
f 80/107/2 74/103/2 75/105/2
f 44/70/49 47/74/87 41/65/50
f 38/106/52 31/47/52 37/49/52
f 85/110/30 82/108/30 81/83/30
f 87/84/58 112/167/58 115/119/58
f 101/52/1 111/141/1 110/27/1
f 64/67/59 65/148/59 50/120/59
f 91/122/60 96/145/60 92/123/60
f 104/126/64 105/29/64 107/28/64
f 79/130/5 77/85/5 78/87/5
f 93/131/66 88/124/66 92/123/66
f 129/36/2 134/135/2 130/133/2
f 134/135/3 129/36/3 98/38/61
f 125/92/40 122/143/40 117/2/40
f 84/88/72 98/90/88 89/115/73
f 109/51/66 106/163/66 110/27/66
f 121/142/40 123/151/40 117/2/40
f 91/122/75 90/152/75 95/144/75
f 8/146/76 132/168/76 4/50/76
f 65/148/1 62/66/1 49/91/1
f 126/93/59 128/1/59 119/3/59
f 120/150/59 127/149/59 119/3/59
f 120/150/77 118/30/77 123/151/77
f 90/152/78 89/37/79 97/153/79
f 4/101/5 132/169/5 5/154/5
f 131/134/38 130/133/38 97/153/79
f 11/12/3 10/11/3 28/32/3
f 13/160/3 2/15/3 3/17/3
