# Blender v2.91.0 Beta OBJ File: 'decos.blend'
# www.blender.org
o Cube.005_Cube.006
v 4.862950 4.365486 -6.796679
v 4.862950 4.365485 -1.360165
v -4.777125 4.365486 -6.796679
v -4.921946 1.940424 -0.827217
v -4.921946 2.479276 -6.649395
v -4.921946 1.940425 -6.649395
v 4.998782 1.062748 -6.649395
v 4.998782 1.062747 -0.827217
v -4.777125 4.365485 -1.360165
v 4.883924 2.348856 -6.712798
v -4.800324 2.348855 -1.276285
v -4.800324 2.348856 -6.712798
v 4.883924 2.348855 -1.276285
v -4.774661 1.940425 -6.796679
v 4.851498 2.479276 -6.796679
v 4.851498 1.940425 -6.796679
v 4.998782 2.479275 -0.827217
v 4.851498 2.479275 -0.679932
v -4.774661 2.479276 -6.796679
v -4.774661 1.062747 -0.679932
v -4.921946 1.062747 -0.827217
v 4.851498 1.062747 -0.679932
v -4.921946 1.062748 -6.649395
v -4.774661 1.062748 -6.796679
v 4.851498 1.062748 -6.796679
v 4.998782 2.479276 -6.649395
v 4.998782 1.940425 -6.649395
v 4.998782 1.940424 -0.827217
v 4.851498 1.940424 -0.679932
v -4.774661 1.940424 -0.679932
v -4.774661 2.479275 -0.679932
v -4.921946 2.479275 -0.827217
v -4.301660 2.479276 -5.811742
v 4.249630 2.479276 -5.916646
v 4.378496 2.479275 -1.664869
v 4.249630 2.479275 -1.559964
v -4.172793 2.479276 -5.916646
v 4.378496 2.479276 -5.811742
v -4.172793 2.479275 -1.559964
v -4.301660 2.479275 -1.664869
vt 0.835937 0.289062
vt 0.835938 0.289062
vt 0.835938 0.289062
vt 0.820312 0.210938
vt 0.820312 0.210938
vt 0.820312 0.210938
vt 0.820312 0.210938
vt 0.820312 0.210938
vt 0.820312 0.210938
vt 0.835938 0.289062
vt 0.835938 0.289062
vt 0.835938 0.289062
vt 0.835938 0.289062
vt 0.835938 0.289062
vt 0.835938 0.289062
vt 0.820312 0.210938
vt 0.820312 0.210938
vt 0.820312 0.210938
vt 0.820312 0.210938
vt 0.820312 0.210938
vt 0.820312 0.210938
vt 0.835938 0.289062
vt 0.835938 0.289062
vt 0.835938 0.289062
vt 0.835938 0.289062
vt 0.835938 0.289062
vt 0.835938 0.289062
vt 0.835938 0.289062
vt 0.835938 0.289062
vt 0.835938 0.289062
vt 0.820312 0.210938
vt 0.820312 0.210938
vt 0.820312 0.210938
vt 0.820312 0.210938
vt 0.820312 0.210938
vt 0.835938 0.289062
vt 0.835938 0.289062
vt 0.820312 0.210938
vt 0.820312 0.210938
vt 0.820312 0.210938
vt 0.820312 0.210938
vt 0.835938 0.289062
vt 0.835938 0.289062
vt 0.820312 0.210938
vt 0.820312 0.210938
vt 0.835938 0.289062
vt 0.835938 0.289062
vt 0.835938 0.289062
vt 0.835938 0.289062
vt 0.820312 0.210937
vt 0.820312 0.210938
vt 0.820312 0.210938
vt 0.820312 0.210938
vt 0.820312 0.210938
vt 0.820312 0.210938
vt 0.835938 0.289062
vt 0.835938 0.289062
vt 0.835938 0.289062
vt 0.835938 0.289062
vt 0.835938 0.289062
vt 0.835938 0.289062
vt 0.820312 0.210938
vt 0.820312 0.210938
vt 0.835937 0.289062
vt 0.835938 0.289062
vt 0.820312 0.210938
vt 0.835938 0.289062
vt 0.820312 0.210938
vt 0.820312 0.210938
vt 0.835937 0.289062
vt 0.820312 0.210937
vt 0.820312 0.210938
vt 0.835937 0.289062
vt 0.835938 0.289062
vt 0.835938 0.289062
vt 0.835937 0.289062
vn -1.0000 0.0000 0.0000
vn -0.7071 0.0000 -0.7071
vn 0.0000 1.0000 0.0000
vn -0.9999 0.0115 0.0000
vn 1.0000 0.0000 0.0000
vn -0.7071 0.0000 0.7071
vn 0.7071 0.0000 -0.7071
vn 0.9999 0.0104 0.0000
vn 0.0000 -0.0000 1.0000
vn 0.0000 0.0000 -1.0000
vn 0.7071 -0.0000 0.7071
vn 0.0000 0.0416 0.9991
vn 0.0000 -0.0416 -0.9991
s 1
f 32/1/1 6/2/1 4/3/1
f 6/4/2 19/5/2 14/6/2
f 3/7/3 2/8/3 1/9/3
f 9/10/4 12/11/4 11/12/4
f 7/13/5 28/14/5 8/15/5
f 20/16/6 4/17/6 21/18/6
f 25/19/7 27/20/7 7/21/7
f 10/22/8 2/23/8 13/24/8
f 18/25/9 30/26/9 29/27/9
f 19/28/10 16/29/10 14/30/10
f 28/31/11 18/32/11 29/33/11
f 23/34/2 14/6/2 24/35/2
f 14/30/10 25/36/10 24/37/10
f 8/38/11 29/33/11 22/39/11
f 30/40/6 32/41/6 4/17/6
f 27/42/5 17/43/5 28/14/5
f 16/44/7 26/45/7 27/20/7
f 13/24/12 9/10/12 11/12/12
f 6/2/1 21/46/1 4/3/1
f 29/27/9 20/47/9 22/48/9
f 3/49/13 10/22/13 12/11/13
f 5/50/3 37/51/3 19/5/3
f 26/45/3 34/52/3 38/53/3
f 17/54/3 36/55/3 18/32/3
f 32/1/3 33/56/3 5/57/3
f 19/28/3 34/58/3 15/59/3
f 18/25/3 39/60/3 31/61/3
f 32/41/3 39/62/3 40/63/3
f 26/64/3 35/65/3 17/43/3
f 32/1/1 5/57/1 6/2/1
f 6/4/2 5/50/2 19/5/2
f 3/7/3 9/66/3 2/8/3
f 9/10/4 3/49/4 12/11/4
f 7/13/5 27/42/5 28/14/5
f 20/16/6 30/40/6 4/17/6
f 25/19/7 16/44/7 27/20/7
f 10/22/8 1/67/8 2/23/8
f 18/25/9 31/61/9 30/26/9
f 19/28/10 15/59/10 16/29/10
f 28/31/11 17/54/11 18/32/11
f 23/34/2 6/4/2 14/6/2
f 14/30/10 16/29/10 25/36/10
f 8/38/11 28/31/11 29/33/11
f 30/40/6 31/68/6 32/41/6
f 27/42/5 26/64/5 17/43/5
f 16/44/7 15/69/7 26/45/7
f 13/24/12 2/23/12 9/10/12
f 6/2/1 23/70/1 21/46/1
f 29/27/9 30/26/9 20/47/9
f 3/49/13 1/67/13 10/22/13
f 5/50/3 33/71/3 37/51/3
f 26/45/3 15/69/3 34/52/3
f 17/54/3 35/72/3 36/55/3
f 32/1/3 40/73/3 33/56/3
f 19/28/3 37/74/3 34/58/3
f 18/25/3 36/75/3 39/60/3
f 32/41/3 31/68/3 39/62/3
f 26/64/3 38/76/3 35/65/3
