# Blender v2.91.0 Beta OBJ File: 'decos.blend'
# www.blender.org
o Cube.009_Cube.001_Cube.009_Cube.012
v -0.073367 4.683828 -11.114285
v -0.073367 4.683829 -13.184132
v -0.073367 5.628832 -12.149208
v -0.073367 3.915298 -14.506378
v -0.073367 3.915297 -9.792037
v -8.468357 4.683828 -11.114285
v -8.474717 3.920112 -14.441268
v -4.375729 1.238152 -11.598398
v -8.468357 3.835831 -11.598396
v -8.468357 0.987172 -11.598398
v -4.375729 0.335682 -9.943968
v -8.468357 3.915297 -9.792037
v -8.468357 0.335682 -9.943968
v -0.073367 0.335682 -9.943968
v -8.468357 5.628832 -12.149208
v -8.468357 3.835829 -6.670485
v -8.496828 3.971879 -11.598396
v -8.671190 3.927230 -11.598396
v -14.558233 3.903855 -14.354450
v -11.555073 5.592659 -14.354450
v -11.555073 5.592656 -6.909807
v -14.564840 3.835829 -6.670485
v -4.375729 3.835831 -9.943966
v -8.628456 6.612601 -12.768228
v -12.193047 4.562800 -14.452379
v -12.193047 4.562799 -10.479280
v -6.017529 4.562799 -10.479280
v -6.017529 4.562800 -14.452379
v -8.468357 0.335680 -6.670486
v -14.564840 0.335680 -6.670486
v -8.468357 4.683829 -13.184132
v -8.468357 0.335682 -14.354452
v -0.073367 0.335682 -14.354452
v -14.564840 0.335682 -14.354452
v -4.375729 3.835831 -11.598396
vt 0.867188 0.257812
vt 0.867188 0.257812
vt 0.867188 0.257812
vt 0.867188 0.257812
vt 0.867188 0.257812
vt 0.835938 0.398438
vt 0.835938 0.398438
vt 0.835938 0.398438
vt 0.835938 0.398438
vt 0.835938 0.398438
vt 0.835938 0.398438
vt 0.867188 0.257812
vt 0.867188 0.257812
vt 0.867188 0.257812
vt 0.835938 0.242188
vt 0.835938 0.242188
vt 0.835938 0.242188
vt 0.867188 0.257812
vt 0.867188 0.257812
vt 0.867188 0.257812
vt 0.835938 0.398438
vt 0.835938 0.398438
vt 0.835938 0.398438
vt 0.835938 0.398438
vt 0.835938 0.398438
vt 0.867188 0.257812
vt 0.867188 0.257812
vt 0.867188 0.257812
vt 0.835938 0.398438
vt 0.835938 0.398438
vt 0.835938 0.398438
vt 0.835938 0.398438
vt 0.867188 0.257812
vt 0.867188 0.257812
vt 0.835938 0.398438
vt 0.835938 0.398438
vt 0.835938 0.398438
vt 0.835938 0.398438
vt 0.835938 0.398438
vt 0.867188 0.257812
vt 0.867188 0.257812
vt 0.867188 0.257812
vt 0.835938 0.398438
vt 0.867188 0.257812
vt 0.867188 0.257812
vt 0.867188 0.257812
vt 0.867188 0.257812
vt 0.835938 0.398438
vt 0.867188 0.257812
vt 0.835938 0.242188
vn 1.0000 -0.0000 0.0000
vn 0.0000 0.8646 0.5025
vn -0.0004 0.8558 -0.5173
vn -0.0030 0.8635 -0.5044
vn -0.0034 0.8646 -0.5025
vn 0.0000 -0.0000 1.0000
vn -0.0147 0.9174 0.3976
vn -0.0398 0.8922 0.4499
vn -0.0538 0.8766 0.4782
vn 0.0000 0.7385 0.6743
vn -0.2480 0.9684 0.0282
vn -0.0143 0.0255 -0.9996
vn 0.4776 0.8780 0.0308
vn -0.5001 0.8659 0.0053
vn -0.4939 0.8695 0.0020
vn -0.5037 0.8639 0.0072
vn -0.0195 -0.0240 0.9995
vn -0.0152 -0.0187 0.9997
vn -0.2480 0.9686 -0.0196
vn -0.4985 0.8669 0.0000
vn 0.0000 0.7450 0.6671
vn 0.6175 0.7866 0.0000
vn 0.4986 0.8668 -0.0012
vn 0.4969 0.8678 -0.0026
vn 0.4949 0.8689 -0.0043
vn 0.0000 0.7385 -0.6743
vn -0.0076 -0.0225 -0.9997
vn -0.0020 -0.0377 -0.9993
vn 0.0000 -0.0424 -0.9991
vn -1.0000 0.0004 -0.0001
vn -1.0000 -0.0000 0.0000
vn -1.0000 0.0015 -0.0006
vn 0.0000 0.6348 -0.7727
vn -0.0048 -0.0082 -1.0000
vn -0.0110 -0.0242 -0.9996
vn -1.0000 0.0019 -0.0008
vn 0.0000 0.8547 -0.5192
vn 0.0000 0.9305 0.3664
vn -0.4902 0.8716 0.0000
vn -0.0345 -0.0424 0.9985
vn 0.5001 0.8660 0.0000
vn 0.0000 0.0000 -1.0000
s 1
f 1/1/1 2/2/1 3/3/1
f 4/4/1 1/1/1 5/5/1
f 6/6/2 5/7/2 1/8/2
f 7/9/3 2/10/4 4/11/5
f 8/12/6 9/13/6 10/14/6
f 10/15/7 11/16/8 8/17/9
f 10/14/1 12/18/1 13/19/1
f 14/20/1 4/4/1 5/5/1
f 15/21/10 1/8/10 3/22/10
f 16/23/11 17/24/11 18/25/11
f 7/26/12 19/27/12 20/28/12
f 20/29/13 18/25/13 7/9/13
f 21/30/14 19/31/15 22/32/16
f 14/20/17 23/33/18 11/34/6
f 18/25/19 17/24/19 7/9/19
f 24/35/20 25/36/20 26/37/20
f 24/35/21 26/37/21 27/38/21
f 24/35/22 27/38/22 28/39/22
f 18/25/23 21/30/24 16/23/25
f 12/18/1 29/40/1 13/19/1
f 16/41/6 30/42/6 29/40/6
f 31/43/26 3/22/26 2/10/26
f 32/44/27 4/4/28 33/45/29
f 34/46/30 30/42/31 22/47/32
f 4/4/1 2/2/1 1/1/1
f 28/39/33 25/36/33 24/35/33
f 32/44/27 19/27/34 7/26/35
f 34/46/30 22/47/32 19/27/36
f 23/33/31 8/12/31 11/34/31
f 6/6/2 12/48/2 5/7/2
f 7/9/3 31/43/37 2/10/4
f 8/12/6 35/49/6 9/13/6
f 10/15/7 13/50/38 11/16/8
f 10/14/1 9/13/1 12/18/1
f 14/20/1 33/45/1 4/4/1
f 15/21/10 6/6/10 1/8/10
f 21/30/14 20/29/39 19/31/15
f 14/20/17 5/5/40 23/33/18
f 18/25/23 20/29/41 21/30/24
f 12/18/1 16/41/1 29/40/1
f 16/41/6 22/47/6 30/42/6
f 31/43/26 15/21/26 3/22/26
f 32/44/27 7/26/35 4/4/28
f 32/44/27 34/46/42 19/27/34
f 23/33/31 35/49/31 8/12/31
