# Blender v2.90.0 Alpha OBJ File: 'Decos.blend'
# www.blender.org
o Cube.002_Cube.001
v 0.898426 0.000000 0.426777
v 0.898426 2.000000 0.426777
v 0.898426 0.000000 -0.426777
v 0.898426 2.000000 -0.426777
v 1.751980 0.000000 0.426777
v 1.751980 2.000000 0.426777
v 1.751980 0.000000 -0.426777
v 1.751980 2.000000 -0.426777
v 1.325203 0.000000 -0.603553
v 1.325203 2.000000 -0.603553
v 1.325203 0.000000 0.603553
v 1.325203 2.000000 0.603553
v 0.721650 0.000000 -0.000000
v 0.721650 2.000000 0.000000
v 1.928756 0.000000 0.000000
v 1.928756 2.000000 -0.000000
v 1.325203 2.000000 0.000000
v -0.898426 0.000000 0.426777
v 2.266380 1.387413 0.213388
v -0.898426 2.000000 0.426777
v 2.266380 1.387413 -0.213388
v -0.898426 0.000000 -0.426777
v 2.266380 0.960636 0.213388
v -0.898426 2.000000 -0.426777
v 2.266380 0.960636 -0.213388
v -1.751980 0.000000 0.426777
v 2.266380 1.174024 -0.301777
v -1.751980 2.000000 0.426777
v 2.266380 1.174024 0.301777
v -1.751980 0.000000 -0.426777
v 2.266380 1.475801 0.000000
v -1.751980 2.000000 -0.426777
v 2.266380 0.872248 -0.000000
v 2.266380 1.174024 0.000000
v -1.325203 0.000000 -0.603553
v -1.325203 2.000000 -0.603553
v -1.325203 0.000000 0.603553
v -1.325203 2.000000 0.603553
v -0.721650 0.000000 -0.000000
v -0.721650 2.000000 0.000000
v -1.928756 0.000000 0.000000
v -1.928756 2.000000 -0.000000
v -1.325203 2.000000 0.000000
v -2.266380 1.387413 0.213388
v -2.266380 1.387413 -0.213388
v -2.266380 0.960636 0.213388
v -2.266380 0.960636 -0.213388
v -2.266380 1.174024 -0.301777
v -2.266380 1.174024 0.301777
v -2.266380 1.475801 0.000000
v -2.266380 0.872248 -0.000000
v -2.266380 1.174024 0.000000
v -3.026070 0.000000 1.547251
v -3.026070 0.000000 -1.547251
v -0.206072 0.050463 -1.268231
v 0.000000 0.050463 -1.062159
v 0.000000 0.050463 -1.474303
v -0.206072 0.050463 -1.268231
v -0.206072 0.050463 1.219453
v 0.000000 0.050463 1.425525
v 0.000000 0.050463 1.013381
v 0.000000 0.050463 1.219453
v -2.754729 0.050463 1.219453
v -2.548657 0.050463 1.425525
v -2.342585 0.050463 1.219453
v -2.548657 0.050463 1.013381
v -2.548657 0.050463 1.219453
v -2.754729 0.050463 -1.292620
v -2.548657 0.050463 -1.086548
v -2.342585 0.050463 -1.292620
v -2.548657 0.050463 -1.498693
v -2.548657 0.050463 -1.292620
v 3.026070 0.000000 1.547251
v 3.026070 0.000000 -1.547251
v 0.206072 0.050463 -1.268231
v 0.206072 0.050463 1.219453
v 2.754729 0.050463 1.219453
v 2.548657 0.050463 1.425525
v 2.342585 0.050463 1.219453
v 2.548657 0.050463 1.013381
v 2.548657 0.050463 1.219453
v 2.754729 0.050463 -1.292620
v 2.548657 0.050463 -1.086548
v 2.342585 0.050463 -1.292620
v 2.548657 0.050463 -1.498693
v 2.548657 0.050463 -1.292620
vt 0.195312 0.867188
vt 0.195312 0.867188
vt 0.195312 0.867188
vt 0.195312 0.867188
vt 0.195312 0.867188
vt 0.195312 0.867188
vt 0.195312 0.867188
vt 0.195312 0.867188
vt 0.195312 0.867188
vt 0.195312 0.867188
vt 0.195312 0.867188
vt 0.195312 0.867188
vt 0.195312 0.867188
vt 0.195312 0.867188
vt 0.195312 0.867188
vt 0.195312 0.867188
vt 0.195312 0.867188
vt 0.195312 0.867188
vt 0.195312 0.867188
vt 0.195312 0.867188
vt 0.195312 0.867188
vt 0.195312 0.867188
vt 0.195312 0.867188
vt 0.195312 0.867188
vt 0.195312 0.867188
vt 0.195312 0.867188
vt 0.195312 0.867188
vt 0.195312 0.867188
vt 0.195312 0.867188
vt 0.195312 0.867188
vt 0.195312 0.867188
vt 0.195312 0.867188
vt 0.195312 0.867188
vt 0.195312 0.867188
vt 0.195312 0.867188
vt 0.195312 0.867188
vt 0.195312 0.867188
vt 0.195312 0.867188
vt 0.195312 0.867188
vt 0.195312 0.867188
vt 0.195312 0.867188
vt 0.195312 0.867188
vt 0.195312 0.867188
vt 0.195312 0.867188
vt 0.195312 0.867188
vt 0.195312 0.867188
vt 0.195312 0.867188
vt 0.195312 0.867188
vt 0.195312 0.867188
vt 0.195312 0.867188
vt 0.195312 0.867188
vt 0.195312 0.867188
vt 0.148438 0.804688
vt 0.148438 0.804688
vt 0.148438 0.804688
vt 0.148438 0.804688
vt 0.148438 0.804688
vt 0.148438 0.804688
vt 0.148438 0.804688
vt 0.148438 0.804688
vt 0.148438 0.804688
vt 0.148438 0.804688
vt 0.148438 0.804688
vt 0.148438 0.804688
vt 0.148438 0.804688
vt 0.148438 0.804688
vt 0.148438 0.804688
vt 0.148438 0.804688
vt 0.148438 0.804688
vt 0.148438 0.804688
vt 0.148438 0.804688
vt 0.148438 0.804688
vt 0.148438 0.804688
vt 0.148438 0.804688
vt 0.148438 0.804688
vt 0.148438 0.804688
vt 0.148438 0.804688
vt 0.148438 0.804688
vt 0.148438 0.804688
vt 0.148438 0.804688
vt 0.148438 0.804688
vt 0.148438 0.804688
vt 0.179688 0.773438
vt 0.179688 0.773438
vt 0.179688 0.773438
vt 0.179688 0.773438
vn 0.0000 0.3827 0.9239
vn 0.0000 1.0000 0.0000
vn -0.9239 0.0000 0.3827
vn 0.0000 -0.3827 0.9239
vn 0.0000 0.3827 -0.9239
vn 0.0000 0.9239 0.3827
vn 0.0000 -0.9239 -0.3827
vn 1.0000 -0.0000 0.0000
vn 0.9239 0.0000 -0.3827
vn 0.0000 -0.3827 -0.9239
vn -0.3827 -0.0000 0.9239
vn -0.3827 0.0000 -0.9239
vn 0.9239 0.0000 0.3827
vn 0.0000 0.9239 -0.3827
vn 0.3827 -0.0000 -0.9239
vn -0.9239 -0.0000 -0.3827
vn 0.3827 0.0000 0.9239
vn -1.0000 -0.0000 0.0000
vn 0.0000 0.0000 1.0000
vn 0.0000 -0.9239 0.3827
s off
f 44/1/1 49/2/1 29/3/1 19/4/1
f 10/5/2 4/6/2 14/7/2 17/8/2
f 8/9/2 10/5/2 17/8/2 16/10/2
f 1/11/3 2/12/3 14/7/3 13/13/3
f 49/2/4 46/14/4 23/15/4 29/3/4
f 48/16/5 45/17/5 21/18/5 27/19/5
f 50/20/6 44/1/6 19/4/6 31/21/6
f 51/22/7 47/23/7 25/24/7 33/25/7
f 34/26/8 31/21/8 19/4/8 29/3/8
f 33/25/8 34/26/8 29/3/8 23/15/8
f 7/27/9 8/9/9 16/10/9 15/28/9
f 47/23/10 48/16/10 27/19/10 25/24/10
f 11/29/11 12/30/11 2/12/11 1/11/11
f 3/31/12 4/6/12 10/5/12 9/32/12
f 25/24/8 27/19/8 34/26/8 33/25/8
f 15/28/13 16/10/13 6/33/13 5/34/13
f 16/10/2 17/8/2 12/30/2 6/33/2
f 45/17/14 50/20/14 31/21/14 21/18/14
f 27/19/8 21/18/8 31/21/8 34/26/8
f 17/8/2 14/7/2 2/12/2 12/30/2
f 9/32/15 10/5/15 8/9/15 7/27/15
f 13/13/16 14/7/16 4/6/16 3/31/16
f 5/34/17 6/33/17 12/30/17 11/29/17
f 36/35/2 43/36/2 40/37/2 24/38/2
f 18/39/13 39/40/13 40/37/13 20/41/13
f 30/42/16 41/43/16 42/44/16 32/45/16
f 32/45/2 42/44/2 43/36/2 36/35/2
f 52/46/18 49/2/18 44/1/18 50/20/18
f 51/22/18 46/14/18 49/2/18 52/46/18
f 48/16/18 52/46/18 50/20/18 45/17/18
f 47/23/18 51/22/18 52/46/18 48/16/18
f 26/47/11 37/48/11 38/49/11 28/50/11
f 37/48/17 18/39/17 20/41/17 38/49/17
f 39/40/9 22/51/9 24/38/9 40/37/9
f 22/51/15 35/52/15 36/35/15 24/38/15
f 43/36/2 38/49/2 20/41/2 40/37/2
f 35/52/12 30/42/12 32/45/12 36/35/12
f 41/43/3 26/47/3 28/50/3 42/44/3
f 42/44/2 28/50/2 38/49/2 43/36/2
f 75/53/2 57/54/2 58/55/2
f 55/56/19 58/55/19 57/54/19
f 56/57/19 58/55/19 55/56/19
f 59/58/2 62/59/2 61/60/2
f 60/61/2 62/59/2 59/58/2
f 67/62/2 65/63/2 66/64/2
f 63/65/2 67/62/2 66/64/2
f 64/66/2 67/62/2 63/65/2
f 64/66/2 65/63/2 67/62/2
f 72/67/2 70/68/2 71/69/2
f 68/70/2 72/67/2 71/69/2
f 69/71/2 72/67/2 68/70/2
f 69/71/2 70/68/2 72/67/2
f 46/14/20 51/22/20 33/25/20 23/15/20
f 56/57/2 75/53/2 58/55/2
f 76/72/2 61/60/2 62/59/2
f 60/61/2 76/72/2 62/59/2
f 81/73/2 80/74/2 79/75/2
f 77/76/2 80/74/2 81/73/2
f 78/77/2 77/76/2 81/73/2
f 78/77/2 81/73/2 79/75/2
f 86/78/2 85/79/2 84/80/2
f 82/81/2 85/79/2 86/78/2
f 83/82/2 82/81/2 86/78/2
f 83/82/2 86/78/2 84/80/2
f 73/83/2 74/84/2 54/85/2 53/86/2
