# Blender v2.90.0 Alpha OBJ File: 'Decos.blend'
# www.blender.org
o Cube.002_Cube.001
v 0.338839 0.000000 -0.335521
v 0.459948 1.572492 0.019825
v 0.000000 0.000000 0.489849
v 0.000000 1.400029 -0.475873
v -0.338839 0.000000 0.349498
v -0.338839 1.400029 0.349498
v -0.338839 0.000000 -0.335521
v -0.338839 1.400029 -0.335521
v 0.338839 0.000000 0.349498
v 0.000000 1.400029 0.489849
v 0.000000 0.000000 -0.475873
v -0.480711 0.000000 0.006988
v -0.480711 1.400029 0.006988
v 0.338839 1.400029 0.349498
v 0.338839 1.400029 -0.335521
v 0.480711 0.000000 0.006988
v 0.480711 1.400029 0.006988
v -0.000000 1.611739 0.060639
v -0.000000 1.611739 0.060639
v 0.000000 1.611739 0.060639
v 0.000000 1.611739 0.060639
v -0.000000 1.611739 0.060639
v 0.000000 1.611739 0.060639
v 0.000000 1.611739 0.060639
v 0.000000 1.611739 0.060639
v 0.000000 1.611739 0.060639
v 0.323857 1.572729 -0.307474
v -0.000000 1.572821 -0.441407
v -0.323857 1.572729 -0.307474
v -0.459948 1.572492 0.019825
v -0.324592 1.572235 0.347860
v 0.324592 1.572235 0.347860
v -0.000000 1.572123 0.482525
v 0.644599 1.481060 0.006988
v 0.000000 1.481060 -0.640494
v 0.000000 1.481060 0.654470
v 0.454359 1.481060 -0.452293
v -0.454359 1.481060 -0.452293
v -0.644599 1.481060 0.006988
v -0.454359 1.481060 0.466269
v 0.454359 1.481060 0.466269
vt 0.179688 0.804688
vt 0.179688 0.804688
vt 0.179688 0.804688
vt 0.179688 0.804688
vt 0.179688 0.804688
vt 0.179688 0.804688
vt 0.179688 0.804688
vt 0.179688 0.804688
vt 0.179688 0.804688
vt 0.179688 0.804688
vt 0.179688 0.804688
vt 0.179688 0.804688
vt 0.179688 0.804688
vt 0.179688 0.804688
vt 0.179688 0.804688
vt 0.179688 0.804688
vt 0.179688 0.804688
vt 0.179688 0.804688
vt 0.179688 0.804688
vt 0.179688 0.804688
vt 0.179688 0.804688
vt 0.179688 0.804688
vt 0.179688 0.804688
vt 0.179688 0.804688
vt 0.179688 0.804688
vt 0.179688 0.804688
vt 0.179688 0.804688
vt 0.179688 0.804688
vt 0.179688 0.804688
vt 0.179688 0.804688
vt 0.179688 0.804688
vt 0.179687 0.804687
vt 0.179688 0.804688
vt 0.179688 0.804688
vt 0.179688 0.804688
vt 0.179688 0.804688
vt 0.179688 0.804688
vt 0.179688 0.804688
vt 0.179688 0.804688
vt 0.179688 0.804688
vt 0.179688 0.804688
vn -0.0850 0.9964 -0.0007
vn -0.0646 0.9959 0.0639
vn -0.0725 0.9958 0.0550
vn -0.0852 0.9964 0.0019
vn 0.0000 -0.0000 -1.0000
vn 0.7071 0.0000 -0.7071
vn -0.7071 0.0000 -0.7071
vn -1.0000 -0.0000 0.0000
vn 0.7071 -0.0000 0.7071
vn 0.0000 0.0000 1.0000
vn 1.0000 -0.0000 0.0000
vn -0.7071 -0.0000 0.7071
vn -0.0558 0.9968 -0.0565
vn -0.0646 0.9967 -0.0488
vn 0.0850 0.9964 -0.0007
vn 0.0558 0.9968 -0.0565
vn 0.0525 0.9968 -0.0594
vn 0.0852 0.9964 0.0019
vn 0.0000 0.9970 -0.0773
vn 0.0000 0.9956 0.0935
vn 0.0646 0.9959 0.0639
vn 0.0581 0.9958 0.0713
vn -0.3284 0.8874 0.3235
vn 0.0000 0.8837 0.4680
vn -0.3215 0.8872 0.3308
vn 0.3284 0.8874 0.3235
vn 0.4434 0.8963 -0.0051
vn 0.4443 0.8958 0.0098
vn 0.3215 0.8872 0.3308
vn 0.2985 0.9048 -0.3037
vn 0.0000 0.9082 -0.4186
vn 0.3065 0.9045 -0.2964
vn -0.2985 0.9048 -0.3037
vn -0.3065 0.9045 -0.2964
vn -0.4434 0.8963 -0.0051
vn -0.4443 0.8958 0.0098
vn -0.4432 -0.8964 0.0000
vn -0.3134 -0.8968 0.3123
vn -0.3126 -0.8968 0.3131
vn -0.3134 -0.8968 -0.3123
vn -0.3126 -0.8968 -0.3131
vn 0.4432 -0.8964 0.0000
vn 0.3134 -0.8968 -0.3123
vn 0.3126 -0.8968 -0.3131
vn 0.0000 -0.8972 -0.4416
vn 0.0000 -0.8972 0.4416
vn 0.3134 -0.8968 0.3123
vn 0.3126 -0.8968 0.3131
s 1
f 30/1/1 31/2/2 20/3/3 23/4/4
f 11/5/5 4/6/5 15/7/6 1/8/6
f 7/9/7 12/10/8 13/11/8 8/12/7
f 9/13/9 14/14/9 10/15/10 3/16/10
f 1/8/6 15/7/6 17/17/11 16/18/11
f 16/18/11 17/17/11 14/14/9 9/13/9
f 5/19/12 3/16/10 10/15/10 6/20/12
f 29/21/13 30/1/1 23/4/4 21/22/14
f 2/23/15 27/24/16 25/25/17 26/26/18
f 11/5/5 7/9/7 8/12/7 4/6/5
f 12/10/8 5/19/12 6/20/12 13/11/8
f 28/27/19 29/21/13 21/22/14 19/28/19
f 21/22/10 23/4/10 18/29/10 19/28/10
f 23/4/10 20/3/10 22/30/10 18/29/10
f 25/25/10 19/28/10 18/29/10 26/26/10
f 26/26/10 18/29/10 22/30/10 24/31/10
f 33/32/20 32/33/21 24/31/22 22/30/20
f 27/24/16 28/27/19 19/28/19 25/25/17
f 32/33/21 2/23/15 26/26/18 24/31/22
f 31/2/2 33/32/20 22/30/20 20/3/3
f 40/34/23 36/35/24 33/32/24 31/2/25
f 41/36/26 34/37/27 2/23/28 32/33/29
f 37/38/30 35/39/31 28/27/31 27/24/32
f 36/35/24 41/36/26 32/33/29 33/32/24
f 35/39/31 38/40/33 29/21/34 28/27/31
f 34/37/27 37/38/30 27/24/32 2/23/28
f 38/40/33 39/41/35 30/1/36 29/21/34
f 39/41/35 40/34/23 31/2/25 30/1/36
f 13/11/37 6/20/38 40/34/39 39/41/37
f 8/12/40 13/11/37 39/41/37 38/40/41
f 17/17/42 15/7/43 37/38/44 34/37/42
f 4/6/45 8/12/40 38/40/41 35/39/45
f 10/15/46 14/14/47 41/36/48 36/35/46
f 15/7/43 4/6/45 35/39/45 37/38/44
f 14/14/47 17/17/42 34/37/42 41/36/48
f 6/20/38 10/15/46 36/35/46 40/34/39
