# Blender v2.91.0 Beta OBJ File: 'decos.blend'
# www.blender.org
o Cube.002_Cube.001_Cube.002_Cube.003
v -3.393022 -1.873088 0.067570
v -3.393022 -1.873088 -0.067575
v -3.308968 -1.873088 -0.067575
v -3.308968 -1.873088 0.067570
v -3.393025 -0.142732 0.067575
v -3.393025 -0.142732 -0.067570
v -3.308970 -0.142732 -0.067570
v -3.308970 -0.142732 0.067575
v -2.972738 -1.873088 0.067570
v -2.972738 -1.873088 -0.067575
v -2.888684 -1.873088 -0.067575
v -2.888684 -1.873088 0.067570
v -2.972740 -0.142732 0.067575
v -2.972740 -0.142732 -0.067570
v -2.888686 -0.142732 -0.067570
v -2.888686 -0.142732 0.067575
v -2.552454 -1.873088 0.067570
v -2.552454 -1.873088 -0.067575
v -2.468399 -1.873088 -0.067575
v -2.468399 -1.873088 0.067570
v -2.552456 -0.142732 0.067575
v -2.552456 -0.142732 -0.067570
v -2.468402 -0.142732 -0.067570
v -2.468402 -0.142732 0.067575
v -2.132169 -1.873088 0.067570
v -2.132169 -1.873088 -0.067575
v -2.048115 -1.873088 -0.067575
v -2.048115 -1.873088 0.067570
v -2.132172 -0.142732 0.067575
v -2.132172 -0.142732 -0.067570
v -2.048117 -0.142732 -0.067570
v -2.048117 -0.142732 0.067575
v -1.711885 -1.873088 0.067570
v -1.711885 -1.873088 -0.067575
v -1.627831 -1.873088 -0.067575
v -1.627831 -1.873088 0.067570
v -1.711888 -0.142732 0.067575
v -1.711888 -0.142732 -0.067570
v -1.627833 -0.142732 -0.067570
v -1.627833 -0.142732 0.067575
v -1.291601 -1.873088 0.067570
v -1.291601 -1.873088 -0.067575
v -1.207546 -1.873088 -0.067575
v -1.207546 -1.873088 0.067570
v -1.291603 -0.142732 0.067575
v -1.291603 -0.142732 -0.067570
v -1.207549 -0.142732 -0.067570
v -1.207549 -0.142732 0.067575
v -0.871316 -1.873088 0.067570
v -0.871316 -1.873088 -0.067575
v -0.787262 -1.873088 -0.067575
v -0.787262 -1.873088 0.067570
v -0.871319 -0.142732 0.067575
v -0.871319 -0.142732 -0.067570
v -0.787265 -0.142732 -0.067570
v -0.787265 -0.142732 0.067575
v -0.451032 -1.873088 0.067570
v -0.451032 -1.873088 -0.067575
v -0.366978 -1.873088 -0.067575
v -0.366978 -1.873088 0.067570
v -0.451035 -0.142732 0.067575
v -0.451035 -0.142732 -0.067570
v -0.366980 -0.142732 -0.067570
v -0.366980 -0.142732 0.067575
v -0.030748 -1.873088 0.067570
v -0.030748 -1.873088 -0.067575
v 0.053306 -1.873088 -0.067575
v 0.053306 -1.873088 0.067570
v -0.030751 -0.142732 0.067575
v -0.030751 -0.142732 -0.067570
v 0.053304 -0.142732 -0.067570
v 0.053304 -0.142732 0.067575
v 0.389536 -1.873088 0.067570
v 0.389536 -1.873088 -0.067575
v 0.473591 -1.873088 -0.067575
v 0.473591 -1.873088 0.067570
v 0.389534 -0.142732 0.067575
v 0.389534 -0.142732 -0.067570
v 0.473588 -0.142732 -0.067570
v 0.473588 -0.142732 0.067575
v 0.809821 -1.873088 0.067570
v 0.809821 -1.873088 -0.067575
v 0.893875 -1.873088 -0.067575
v 0.893875 -1.873088 0.067570
v 0.809818 -0.142732 0.067575
v 0.809818 -0.142732 -0.067570
v 0.893872 -0.142732 -0.067570
v 0.893872 -0.142732 0.067575
v 1.230105 -1.873088 0.067570
v 1.230105 -1.873088 -0.067575
v 1.314159 -1.873088 -0.067575
v 1.314159 -1.873088 0.067570
v 1.230102 -0.142732 0.067575
v 1.230102 -0.142732 -0.067570
v 1.314157 -0.142732 -0.067570
v 1.314157 -0.142732 0.067575
v 1.650389 -1.873088 0.067570
v 1.650389 -1.873088 -0.067575
v 1.734443 -1.873088 -0.067575
v 1.734443 -1.873088 0.067570
v 1.650387 -0.142732 0.067575
v 1.650387 -0.142732 -0.067570
v 1.734441 -0.142732 -0.067570
v 1.734441 -0.142732 0.067575
v 2.070673 -1.873088 0.067570
v 2.070673 -1.873088 -0.067575
v 2.154728 -1.873088 -0.067575
v 2.154728 -1.873088 0.067570
v 2.070671 -0.142732 0.067575
v 2.070671 -0.142732 -0.067570
v 2.154725 -0.142732 -0.067570
v 2.154725 -0.142732 0.067575
v 2.490958 -1.873088 0.067570
v 2.490958 -1.873088 -0.067575
v 2.575012 -1.873088 -0.067575
v 2.575012 -1.873088 0.067570
v 2.490955 -0.142732 0.067575
v 2.490955 -0.142732 -0.067570
v 2.575010 -0.142732 -0.067570
v 2.575010 -0.142732 0.067575
v 2.911242 -1.873088 0.067570
v 2.911242 -1.873088 -0.067575
v 2.995296 -1.873088 -0.067575
v 2.995296 -1.873088 0.067570
v 2.911239 -0.142732 0.067575
v 2.911239 -0.142732 -0.067570
v 2.995294 -0.142732 -0.067570
v 2.995294 -0.142732 0.067575
v 3.331526 -1.873088 0.067570
v 3.331526 -1.873088 -0.067575
v 3.415581 -1.873088 -0.067575
v 3.415581 -1.873088 0.067570
v 3.331524 -0.142732 0.067575
v 3.331524 -0.142732 -0.067570
v 3.415578 -0.142732 -0.067570
v 3.415578 -0.142732 0.067575
v 3.840963 -9.000000 -0.104053
v 3.840963 -9.000000 0.104052
v 3.632858 -9.000000 -0.104053
v 3.632858 -9.000000 0.104052
v -3.840963 -9.000000 -0.104053
v -3.840963 -9.000000 0.104052
v -3.632858 -9.000000 -0.104053
v -3.632858 -9.000000 0.104052
v 3.840962 0.232178 -0.104053
v 3.840962 0.232178 0.104053
v -3.840962 0.232178 -0.104053
v -3.840962 0.232178 0.104053
v -3.632857 0.138159 0.104053
v -3.632857 0.138160 -0.104053
v 3.632857 0.138159 0.104053
v 3.632857 0.138160 -0.104053
v -3.632857 -0.124674 0.104053
v -3.632857 -0.124674 -0.104053
v -3.632857 -0.198545 -0.104053
v -3.632857 -0.198545 0.104053
v 3.632857 -0.124674 0.104053
v 3.632857 -0.124674 -0.104053
v 3.632857 -0.198545 -0.104053
v 3.632857 -0.198545 0.104053
v -3.632857 -0.033111 0.013110
v -3.632857 -0.033111 -0.013110
v -3.632857 -0.046446 -0.013110
v -3.632857 -0.046446 0.013110
v 3.632857 -0.033111 0.013110
v 3.632857 -0.033111 -0.013110
v 3.632857 -0.046446 -0.013110
v 3.632857 -0.046446 0.013110
vt 0.257812 0.804688
vt 0.257812 0.804688
vt 0.257812 0.804688
vt 0.257812 0.804688
vt 0.257812 0.804688
vt 0.257812 0.804688
vt 0.257812 0.804688
vt 0.257812 0.804688
vt 0.257812 0.804688
vt 0.257812 0.804688
vt 0.257812 0.804688
vt 0.257812 0.804688
vt 0.257812 0.804688
vt 0.257812 0.804688
vt 0.257812 0.804688
vt 0.257812 0.804688
vt 0.257812 0.804688
vt 0.257812 0.804688
vt 0.257812 0.804688
vt 0.257812 0.804688
vt 0.257812 0.804688
vt 0.257812 0.804688
vt 0.257812 0.804688
vt 0.257812 0.804688
vt 0.257812 0.804688
vt 0.257812 0.804688
vt 0.257812 0.804688
vt 0.257812 0.804688
vt 0.257812 0.804688
vt 0.257812 0.804688
vt 0.257812 0.804688
vt 0.257812 0.804688
vt 0.257812 0.804688
vt 0.257812 0.804688
vt 0.257812 0.804688
vt 0.257812 0.804688
vt 0.257812 0.804688
vt 0.257812 0.804688
vt 0.257812 0.804688
vt 0.257812 0.804688
vt 0.257812 0.804688
vt 0.257812 0.804688
vt 0.257812 0.804688
vt 0.257812 0.804688
vt 0.257812 0.804688
vt 0.257812 0.804688
vt 0.257812 0.804688
vt 0.257812 0.804688
vt 0.257812 0.804688
vt 0.257812 0.804688
vt 0.257812 0.804688
vt 0.257812 0.804688
vt 0.257812 0.804688
vt 0.257812 0.804688
vt 0.257812 0.804688
vt 0.257812 0.804688
vt 0.257812 0.804688
vt 0.257812 0.804688
vt 0.257812 0.804688
vt 0.257812 0.804688
vt 0.257812 0.804688
vt 0.257812 0.804688
vt 0.257812 0.804688
vt 0.257812 0.804688
vt 0.257812 0.804688
vt 0.257812 0.804688
vt 0.257812 0.804688
vt 0.257812 0.804688
vt 0.257812 0.804688
vt 0.257812 0.804688
vt 0.257812 0.804688
vt 0.257812 0.804688
vt 0.257812 0.804688
vt 0.257812 0.804688
vt 0.257812 0.804688
vt 0.257812 0.804688
vt 0.257812 0.804688
vt 0.257812 0.804688
vt 0.257812 0.804688
vt 0.257812 0.804688
vt 0.257812 0.804688
vt 0.257812 0.804688
vt 0.257812 0.804688
vt 0.257812 0.804688
vt 0.257812 0.804688
vt 0.257812 0.804688
vt 0.257812 0.804688
vt 0.257812 0.804688
vt 0.257812 0.804688
vt 0.257812 0.804688
vt 0.257812 0.804688
vt 0.257812 0.804688
vt 0.257812 0.804688
vt 0.257812 0.804688
vt 0.257812 0.804688
vt 0.257812 0.804688
vt 0.257812 0.804688
vt 0.257812 0.804688
vt 0.257812 0.804688
vt 0.257812 0.804688
vt 0.257812 0.804688
vt 0.257812 0.804688
vt 0.257812 0.804688
vt 0.257812 0.804688
vt 0.257812 0.804688
vt 0.257812 0.804688
vt 0.257812 0.804688
vt 0.257812 0.804688
vt 0.257812 0.804688
vt 0.257812 0.804688
vt 0.257812 0.804688
vt 0.257812 0.804688
vt 0.257812 0.804688
vt 0.257812 0.804688
vt 0.257812 0.804688
vt 0.257812 0.804688
vt 0.257812 0.804688
vt 0.257812 0.804688
vt 0.257812 0.804688
vt 0.257812 0.804688
vt 0.257812 0.804688
vt 0.257812 0.804688
vt 0.257812 0.804688
vt 0.257812 0.804688
vt 0.257812 0.804688
vt 0.257812 0.804688
vt 0.257812 0.804688
vt 0.257812 0.804688
vt 0.257812 0.804688
vt 0.257812 0.804688
vt 0.257812 0.804688
vt 0.257812 0.804688
vt 0.257812 0.804688
vt 0.257812 0.804688
vt 0.257812 0.804688
vt 0.257812 0.804688
vt 0.257812 0.804688
vt 0.257812 0.804688
vt 0.257812 0.804688
vt 0.257812 0.804688
vt 0.257812 0.804688
vt 0.257812 0.804688
vt 0.257812 0.804688
vt 0.257812 0.804688
vt 0.257812 0.804688
vt 0.257812 0.804688
vt 0.257812 0.804688
vt 0.257812 0.804688
vt 0.257812 0.804688
vt 0.257812 0.804688
vt 0.257812 0.804688
vt 0.257812 0.804688
vt 0.257812 0.804688
vt 0.257812 0.804688
vt 0.257812 0.804688
vt 0.257812 0.804688
vt 0.257812 0.804688
vt 0.257812 0.804688
vt 0.257812 0.804688
vt 0.257812 0.804688
vt 0.257812 0.804688
vt 0.257812 0.804688
vt 0.257812 0.804688
vt 0.257812 0.804688
vt 0.257812 0.804688
vt 0.257812 0.804688
vt 0.257812 0.804688
vt 0.257812 0.804688
vn 0.0000 -0.0000 1.0000
vn -0.0000 0.0000 -1.0000
vn -1.0000 -0.0000 0.0000
vn 1.0000 0.0000 0.0000
vn 0.0000 -1.0000 -0.0000
vn 0.0000 1.0000 0.0000
s 1
f 5/1/1 1/2/1 4/3/1 8/4/1
f 7/5/2 3/6/2 2/7/2 6/8/2
f 6/8/3 2/7/3 1/2/3 5/1/3
f 8/4/4 4/3/4 3/6/4 7/5/4
f 13/9/1 9/10/1 12/11/1 16/12/1
f 15/13/2 11/14/2 10/15/2 14/16/2
f 14/16/3 10/15/3 9/10/3 13/9/3
f 16/12/4 12/11/4 11/14/4 15/13/4
f 21/17/1 17/18/1 20/19/1 24/20/1
f 23/21/2 19/22/2 18/23/2 22/24/2
f 22/24/3 18/23/3 17/18/3 21/17/3
f 24/20/4 20/19/4 19/22/4 23/21/4
f 29/25/1 25/26/1 28/27/1 32/28/1
f 31/29/2 27/30/2 26/31/2 30/32/2
f 30/32/3 26/31/3 25/26/3 29/25/3
f 32/28/4 28/27/4 27/30/4 31/29/4
f 37/33/1 33/34/1 36/35/1 40/36/1
f 39/37/2 35/38/2 34/39/2 38/40/2
f 38/40/3 34/39/3 33/34/3 37/33/3
f 40/36/4 36/35/4 35/38/4 39/37/4
f 45/41/1 41/42/1 44/43/1 48/44/1
f 47/45/2 43/46/2 42/47/2 46/48/2
f 46/48/3 42/47/3 41/42/3 45/41/3
f 48/44/4 44/43/4 43/46/4 47/45/4
f 53/49/1 49/50/1 52/51/1 56/52/1
f 55/53/2 51/54/2 50/55/2 54/56/2
f 54/56/3 50/55/3 49/50/3 53/49/3
f 56/52/4 52/51/4 51/54/4 55/53/4
f 61/57/1 57/58/1 60/59/1 64/60/1
f 63/61/2 59/62/2 58/63/2 62/64/2
f 62/64/3 58/63/3 57/58/3 61/57/3
f 64/60/4 60/59/4 59/62/4 63/61/4
f 69/65/1 65/66/1 68/67/1 72/68/1
f 71/69/2 67/70/2 66/71/2 70/72/2
f 70/72/3 66/71/3 65/66/3 69/65/3
f 72/68/4 68/67/4 67/70/4 71/69/4
f 77/73/1 73/74/1 76/75/1 80/76/1
f 79/77/2 75/78/2 74/79/2 78/80/2
f 78/80/3 74/79/3 73/74/3 77/73/3
f 80/76/4 76/75/4 75/78/4 79/77/4
f 85/81/1 81/82/1 84/83/1 88/84/1
f 87/85/2 83/86/2 82/87/2 86/88/2
f 86/88/3 82/87/3 81/82/3 85/81/3
f 88/84/4 84/83/4 83/86/4 87/85/4
f 93/89/1 89/90/1 92/91/1 96/92/1
f 95/93/2 91/94/2 90/95/2 94/96/2
f 94/96/3 90/95/3 89/90/3 93/89/3
f 96/92/4 92/91/4 91/94/4 95/93/4
f 101/97/1 97/98/1 100/99/1 104/100/1
f 103/101/2 99/102/2 98/103/2 102/104/2
f 102/104/3 98/103/3 97/98/3 101/97/3
f 104/100/4 100/99/4 99/102/4 103/101/4
f 109/105/1 105/106/1 108/107/1 112/108/1
f 111/109/2 107/110/2 106/111/2 110/112/2
f 110/112/3 106/111/3 105/106/3 109/105/3
f 112/108/4 108/107/4 107/110/4 111/109/4
f 117/113/1 113/114/1 116/115/1 120/116/1
f 119/117/2 115/118/2 114/119/2 118/120/2
f 118/120/3 114/119/3 113/114/3 117/113/3
f 120/116/4 116/115/4 115/118/4 119/117/4
f 125/121/1 121/122/1 124/123/1 128/124/1
f 127/125/2 123/126/2 122/127/2 126/128/2
f 126/128/3 122/127/3 121/122/3 125/121/3
f 128/124/4 124/123/4 123/126/4 127/125/4
f 133/129/1 129/130/1 132/131/1 136/132/1
f 135/133/2 131/134/2 130/135/2 134/136/2
f 134/136/3 130/135/3 129/130/3 133/129/3
f 136/132/4 132/131/4 131/134/4 135/133/4
f 158/137/2 152/138/2 145/139/2
f 157/140/3 151/141/3 152/138/3 158/137/3
f 149/142/5 150/143/5 152/138/5 151/141/5
f 154/144/2 147/145/2 150/143/2
f 148/146/1 153/147/1 149/142/1
f 153/147/4 154/144/4 150/143/4 149/142/4
f 146/148/1 157/140/1 160/149/1
f 147/145/6 148/146/6 146/148/6 145/139/6
f 148/146/1 149/142/1 151/141/1 146/148/1
f 146/148/1 151/141/1 157/140/1
f 150/143/2 147/145/2 145/139/2 152/138/2
f 148/146/1 156/150/1 153/147/1
f 155/151/2 147/145/2 154/144/2
f 141/152/3 142/153/3 148/146/3 147/145/3
f 143/154/2 141/152/2 147/145/2 155/151/2
f 142/153/1 144/155/1 156/150/1 148/146/1
f 144/155/4 143/154/4 155/151/4 156/150/4
f 140/156/3 160/149/3 159/157/3 139/158/3
f 153/147/1 156/150/1 160/149/1 157/140/1
f 139/158/2 159/157/2 145/139/2 137/159/2
f 156/150/5 155/151/5 159/157/5 160/149/5
f 155/151/2 154/144/2 158/137/2 159/157/2
f 138/160/1 146/148/1 160/149/1 140/156/1
f 154/144/6 153/147/6 157/140/6 158/137/6
f 137/159/4 145/139/4 146/148/4 138/160/4
f 159/157/2 158/137/2 145/139/2
f 161/161/1 164/162/1 168/163/1 165/164/1
f 164/162/5 163/165/5 167/166/5 168/163/5
f 163/165/2 162/167/2 166/168/2 167/166/2
f 162/167/6 161/161/6 165/164/6 166/168/6
