# Blender v2.91.0 Beta OBJ File: 'decos.blend'
# www.blender.org
o motorboat.001_Yacht_Cube.002
v 0.000000 1.685864 7.281874
v 0.000000 1.070498 -7.251823
v 1.841198 1.539069 5.301277
v 2.417841 1.399295 2.235631
v 2.259237 0.959857 -7.277261
v 1.865635 2.081250 0.552767
v 0.000000 1.363800 1.762633
v 1.776757 2.423339 0.191791
v 1.879848 1.377674 -4.928999
v 0.000000 0.624265 -4.808339
v 0.000000 1.704216 -5.496318
v 2.089910 -0.323194 -6.399949
v 0.000000 -0.266673 4.169497
v 1.596408 -0.266673 3.566185
v 0.000000 -0.323194 -6.399950
v 0.000000 2.358019 2.480230
v 0.000000 2.857232 1.884513
v -1.841198 1.539069 5.301277
v -2.417841 1.399295 2.235631
v -2.259237 0.959857 -7.277261
v -1.865635 2.081250 0.552767
v -1.776757 2.423339 0.191791
v -1.879848 1.377674 -4.928999
v -2.089910 -0.323194 -6.399949
v -1.596408 -0.266673 3.566185
vt 0.146457 0.899245
vt 0.146457 0.899245
vt 0.146457 0.899245
vt 0.146457 0.899245
vt 0.146457 0.899245
vt 0.164062 0.773438
vt 0.164062 0.773438
vt 0.164062 0.773438
vt 0.164062 0.773438
vt 0.146457 0.899245
vt 0.146457 0.899245
vt 0.146457 0.899245
vt 0.146457 0.899245
vt 0.146457 0.899245
vt 0.146457 0.899245
vt 0.147173 0.898953
vt 0.164062 0.773438
vt 0.101562 0.773438
vt 0.101562 0.773438
vt 0.101562 0.773438
vt 0.101562 0.773438
vt 0.164062 0.773438
vt 0.164062 0.773438
vt 0.146457 0.899245
vt 0.146457 0.899245
vt 0.146432 0.899255
vt 0.146415 0.899262
vt 0.146457 0.899245
vt 0.146457 0.899245
vt 0.146457 0.899245
vt 0.146457 0.899245
vt 0.146432 0.899255
vt 0.146457 0.899245
vt 0.101562 0.773438
vt 0.101562 0.773438
vt 0.146457 0.899245
vt 0.101562 0.773438
vt 0.101562 0.773438
vt 0.164062 0.773438
vt 0.147173 0.898953
vt 0.146415 0.899262
vt 0.146457 0.899245
vn 0.5814 -0.6620 0.4730
vn 0.0000 -0.7718 0.6359
vn 0.7546 -0.5348 0.3801
vn 0.6872 0.7233 0.0676
vn 0.7091 0.7051 0.0048
vn 0.2724 0.9538 0.1267
vn 0.0000 0.9298 0.3680
vn -0.4620 0.8606 -0.2144
vn -0.3556 0.9165 0.1832
vn 0.0000 0.5373 0.8434
vn 0.0000 0.9927 0.1207
vn 0.0000 0.9903 0.1386
vn -0.7409 -0.4489 -0.4996
vn -0.0000 -0.5379 -0.8430
vn -0.0000 -0.5215 -0.8532
vn 0.0000 0.9702 -0.2422
vn 0.0000 0.9406 -0.3395
vn 0.2451 0.9560 -0.1611
vn 0.3556 0.9165 0.1832
vn 0.9255 -0.3685 0.0876
vn 0.7717 0.5419 0.3328
vn 0.0000 0.7714 0.6364
vn 0.0000 0.7665 0.6423
vn -0.7717 0.5419 0.3328
vn 0.0000 0.8298 -0.5581
vn 0.0000 0.5852 -0.8109
vn -0.2451 0.9560 -0.1611
vn -0.1230 0.9795 -0.1597
vn -0.7091 0.7051 0.0048
vn 0.1230 0.9795 -0.1597
vn 0.7409 -0.4489 -0.4996
vn -0.6872 0.7233 0.0676
vn 0.8938 0.4141 0.1724
vn 0.9740 0.2252 -0.0264
vn -0.2724 0.9538 0.1267
vn -0.8938 0.4141 0.1724
vn -0.9740 0.2252 -0.0264
vn -0.5814 -0.6620 0.4730
vn 0.0000 -0.8471 0.5314
vn 0.4620 0.8606 -0.2144
vn -0.7546 -0.5348 0.3801
vn -0.9255 -0.3685 0.0876
vn -0.5169 -0.5286 -0.6733
vn 0.5169 -0.5286 -0.6733
s 1
f 3/1/1 13/2/2 14/3/3
f 4/4/4 6/5/5 3/1/6
f 10/6/7 6/7/8 9/8/9
f 11/9/10 10/6/7 9/8/9
f 3/1/6 16/10/11 1/11/12
f 24/12/13 2/13/14 15/14/15
f 2/13/16 11/15/17 9/16/18
f 11/9/10 23/17/19 10/6/7
f 14/3/3 4/4/20 3/1/1
f 6/18/21 17/19/22 16/20/23
f 17/19/22 21/21/24 16/20/23
f 6/7/8 7/22/25 16/23/26
f 23/24/27 20/25/28 21/26/29
f 16/10/11 3/1/6 6/5/5
f 9/16/18 5/27/30 2/13/16
f 2/13/14 12/28/31 15/14/15
f 20/25/28 19/29/32 21/30/29
f 12/28/31 4/4/20 14/3/3
f 9/31/18 6/32/5 5/33/30
f 5/33/30 6/5/5 4/4/4
f 8/34/33 6/18/21 9/35/34
f 16/10/11 21/30/29 18/36/35
f 22/37/36 23/38/37 21/21/24
f 18/36/38 13/2/2 1/11/39
f 21/39/40 10/6/7 23/17/19
f 18/36/35 1/11/12 16/10/11
f 2/13/16 23/40/27 11/15/17
f 19/29/32 18/36/35 21/30/29
f 21/39/40 16/23/26 7/22/25
f 23/40/27 2/13/16 20/41/28
f 25/42/41 18/36/38 19/29/42
f 19/29/42 24/12/13 25/42/41
f 3/1/1 1/11/39 13/2/2
f 10/6/7 7/22/25 6/7/8
f 24/12/13 20/25/43 2/13/14
f 6/18/21 8/34/33 17/19/22
f 17/19/22 22/37/36 21/21/24
f 2/13/14 5/33/44 12/28/31
f 12/28/31 5/33/44 4/4/20
f 18/36/38 25/42/41 13/2/2
f 21/39/40 7/22/25 10/6/7
f 19/29/42 20/25/43 24/12/13
