# Blender v2.91.0 Beta OBJ File: 'HOUSE.blend'
# www.blender.org
o tree.002_tree.033
v -18.426821 0.469829 -14.104739
v 16.714903 0.469817 9.611209
v 16.714903 0.469829 -14.104739
v -18.426821 0.469817 9.611209
v -20.200762 -0.522171 -15.301912
v 18.488844 -0.522184 10.808382
v 18.488844 -0.522171 -15.301912
v -20.200762 -0.522184 10.808382
vt 0.752441 0.222142
vt 0.974251 0.057985
vt 0.974251 0.222142
vt 0.752441 0.057985
vt 0.752441 0.222142
vt 0.974251 0.222142
vt 0.974251 0.057985
vt 0.752441 0.057985
vn 0.0000 1.0000 0.0000
vn 0.0000 -1.0000 -0.0000
vn 0.4881 0.8728 0.0000
vn -0.4881 0.8728 0.0000
vn 0.0000 0.7700 0.6380
vn 0.0000 0.7700 -0.6380
s 1
f 1/1/1 2/2/1 3/3/1
f 1/1/1 4/4/1 2/2/1
f 5/5/2 7/6/2 6/7/2
f 5/5/2 6/7/2 8/8/2
f 6/7/3 3/3/3 2/2/3
f 1/1/4 8/8/4 4/4/4
f 8/8/5 2/2/5 4/4/5
f 7/6/6 1/1/6 3/3/6
f 6/7/3 7/6/3 3/3/3
f 1/1/4 5/5/4 8/8/4
f 8/8/5 6/7/5 2/2/5
f 7/6/6 5/5/6 1/1/6
