# Blender v2.91.0 Beta OBJ File: 'HOUSE02.blend'
# www.blender.org
o tree.002_tree.008_tree.002_tree.016
v -12.154772 4.606513 4.255970
v -12.155118 5.787019 -0.316873
v -12.167690 3.653611 -9.198174
v 4.085690 3.653580 -9.198174
v -9.652645 4.326200 -3.111232
v -12.167690 3.653607 -3.111233
v 1.570645 4.326171 -3.118890
v 4.085690 3.653575 -3.111233
v -0.000512 1.499012 -4.360713
v -8.044491 4.435451 -4.368596
v -0.000514 4.435452 -4.360711
v 8.521462 4.606411 4.240214
v -12.392241 1.499010 -4.393331
v -8.118412 1.500497 -4.618744
v -12.506411 1.500808 -4.630174
v -12.504108 0.550339 -4.641774
v -8.116919 0.550021 -4.626276
v -12.505265 0.548517 -0.327990
v 8.304159 1.502890 3.943287
v -0.000517 0.548521 3.941625
v 8.317419 0.552446 3.940791
v -4.102597 3.481977 7.888000
v -12.136925 4.133904 4.117577
v -12.136557 3.481977 7.894701
v -12.505263 1.498997 3.941721
v -12.505263 0.548510 3.941721
v 0.000029 0.549434 -4.597602
v 8.304159 1.502903 -4.599266
v 8.317419 0.552459 -4.596769
v 8.098918 1.499004 -0.327990
v 8.098916 4.435451 -4.372857
v 8.098918 4.435445 -0.327984
v 1.391323 4.435441 3.704742
v -0.000514 1.498999 3.704738
v 1.397776 1.499000 3.704800
v 8.068316 1.499000 3.705097
v -0.000517 1.499008 3.941625
v -12.505265 1.499004 -0.327990
v -12.189591 1.499000 3.483104
v 8.068316 1.499014 -4.361073
v 8.300993 1.502894 -0.327989
v 8.064138 1.499007 -0.327989
v 8.031076 4.435452 -4.360711
v 0.000029 1.499921 -4.597600
v -7.227349 1.498998 3.704824
v -5.328806 1.498999 3.704802
v 8.310462 0.552406 -0.327989
v -11.911842 4.437344 3.711724
v -12.392241 1.498997 3.704833
v -11.894753 1.498997 3.704833
v -12.155460 4.546251 -4.889656
v 8.522645 5.786901 -0.332695
v 8.523828 4.546117 -4.905273
v -8.044490 1.499010 -4.381886
v -4.102313 4.133904 4.110846
v -12.392243 1.499004 -0.327990
v -12.392241 4.435451 -4.372857
v 8.098918 5.474965 -0.327984
v -12.392243 4.435445 -0.327984
v -12.392243 5.474965 -0.327984
v -12.409331 4.437344 3.711724
v -7.242729 4.437150 3.711026
v 8.116006 4.437344 3.711724
v 8.098916 1.498997 3.704833
v -5.340146 4.436701 3.709375
v -18.426821 0.469813 9.611209
v 16.714903 0.469833 -14.104739
v -18.426821 0.469833 -14.104739
v 8.031076 4.435443 3.704742
v -0.000514 4.435441 3.704742
v 8.098916 1.499010 -4.393331
v 16.714903 0.469813 9.611209
vt 0.127441 0.020996
vt 0.247765 0.068849
vt 0.127441 0.068848
vt 0.233703 0.009277
vt 0.123535 0.009277
vt 0.204044 0.009277
vt 0.974251 0.057985
vt 0.752441 0.222142
vt 0.752441 0.057985
vt 0.219238 0.967285
vt 0.250488 0.890137
vt 0.250488 0.967285
vt 0.038574 0.890137
vt 0.075684 0.967285
vt 0.038574 0.967285
vt 0.145996 0.135254
vt 0.228798 0.090332
vt 0.145996 0.090332
vt 0.204044 0.001465
vt 0.123535 0.001465
vt 0.147949 0.135254
vt 0.243852 0.090163
vt 0.146973 0.089355
vt 0.131348 0.001465
vt 0.006348 0.009277
vt 0.006348 0.001465
vt 0.309082 0.812012
vt 0.045410 0.884277
vt 0.045410 0.812988
vt 0.155762 0.812012
vt 0.039551 0.884277
vt 0.039551 0.812988
vt 0.006348 0.008301
vt 0.131348 0.001465
vt 0.006348 0.001465
vt 0.006348 0.008301
vt 0.131348 0.009277
vt 0.014608 0.009277
vt 0.073730 0.009277
vt 0.046321 0.009277
vt 0.009277 0.009277
vt 0.071777 0.009277
vt 0.009277 0.009277
vt 0.009277 0.009277
vt 0.071777 0.009277
vt 0.073730 0.001465
vt 0.011230 0.009277
vt 0.011230 0.001465
vt 0.011230 0.009277
vt 0.010989 0.009277
vt 0.123535 0.009277
vt 0.205616 0.009277
vt 0.234863 0.009277
vt 0.006348 0.009277
vt 0.131348 0.009277
vt 0.131348 0.009277
vt 0.070801 0.069824
vt 0.009277 0.023926
vt 0.070801 0.023926
vt 0.070801 0.023926
vt 0.009277 0.069824
vt 0.009277 0.023926
vt 0.247559 0.001465
vt 0.007324 0.068848
vt 0.006348 0.020996
vt 0.109686 0.009108
vt 0.009277 0.009277
vt 0.247559 0.009277
vt 0.011230 0.001465
vt 0.156738 0.020996
vt 0.222168 0.068848
vt 0.156738 0.068848
vt 0.227051 0.135254
vt 0.247559 0.090332
vt 0.227051 0.090332
vt 0.303223 0.812012
vt 0.039551 0.883301
vt 0.039551 0.812012
vt 0.293248 0.009277
vt 0.247559 0.009277
vt 0.009277 0.069824
vt 0.022949 0.125488
vt 0.099121 0.145020
vt 0.099121 0.125488
vt 0.022949 0.125488
vt 0.099121 0.125488
vt 0.099121 0.145020
vt 0.176270 0.125488
vt 0.000488 0.068848
vt 0.012207 0.023926
vt 0.000488 0.023926
vt 0.176270 0.125488
vt 0.219238 0.135254
vt 0.249512 0.090332
vt 0.219238 0.090332
vt 0.070801 0.069824
vt 0.009277 0.023926
vt 0.009277 0.069824
vt 0.009277 0.001465
vt 0.071777 0.001465
vt 0.084473 0.135254
vt 0.013184 0.090332
vt 0.083496 0.090332
vt 0.009277 0.001465
vt 0.123535 0.009277
vt 0.131348 0.009277
vt 0.247559 0.001465
vt 0.247765 0.020997
vt 0.123535 0.009277
vt 0.974251 0.222142
vt 0.228798 0.135254
vt 0.244021 0.135254
vt 0.309082 0.884277
vt 0.155762 0.884277
vt 0.009277 0.069824
vt 0.222168 0.020996
vt 0.247559 0.135254
vt 0.306152 0.883301
vt 0.009277 0.023926
vt 0.012207 0.068848
vt 0.249512 0.135254
vt 0.013184 0.135254
vt 0.123535 0.001465
vn -0.0033 0.0049 -1.0000
vn 0.0071 -0.0018 -1.0000
vn -0.0048 -0.0113 -0.9999
vn 0.0021 1.0000 0.0050
vn -0.0061 1.0000 0.0063
vn 0.0061 1.0000 0.0076
vn 0.0000 1.0000 0.0000
vn -0.1544 0.9876 -0.0294
vn -0.1857 0.9797 -0.0750
vn -0.3586 0.9335 0.0001
vn 0.1855 0.9798 -0.0749
vn 0.1543 0.9876 -0.0293
vn 0.3586 0.9335 -0.0000
vn -0.0007 -0.0017 1.0000
vn 0.0015 0.0007 1.0000
vn -0.0021 0.0034 1.0000
vn 0.0292 0.9773 -0.2096
vn -0.0954 0.9939 -0.0552
vn 0.0135 0.9769 -0.2133
vn -0.0121 0.0137 -0.9998
vn 0.0012 -0.0244 -0.9997
vn 0.0110 -0.0244 -0.9996
vn -0.0000 0.0001 1.0000
vn 0.0004 0.0002 1.0000
vn -0.0043 -0.0005 -1.0000
vn 0.0008 -0.0108 -0.9999
vn 0.0008 -0.0111 -0.9999
vn -0.0696 0.9698 0.2339
vn 0.0002 0.9488 0.3158
vn 0.0001 0.9837 0.1800
vn -0.0645 0.9881 0.1393
vn 0.0001 0.9714 0.2373
vn 0.0001 0.9951 0.0991
vn -0.0033 0.0025 1.0000
vn -0.0019 -0.0074 1.0000
vn 0.0008 -0.0111 0.9999
vn -0.0008 0.9997 -0.0234
vn -0.0043 0.9999 -0.0156
vn -0.0007 0.9997 -0.0236
vn -0.0013 1.0000 -0.0006
vn -0.0001 1.0000 -0.0020
vn -0.0165 0.9999 -0.0000
vn -0.0164 0.9999 0.0000
vn -1.0000 -0.0005 -0.0041
vn -1.0000 -0.0095 -0.0015
vn -0.9999 -0.0103 -0.0016
vn 0.0007 1.0000 0.0015
vn -0.0038 1.0000 -0.0002
vn 0.0000 1.0000 0.0038
vn 0.0039 1.0000 -0.0000
vn 0.0045 1.0000 0.0076
vn -0.0025 1.0000 0.0012
vn 0.0028 1.0000 0.0011
vn 1.0000 -0.0091 0.0005
vn 1.0000 0.0050 -0.0084
vn 0.9999 0.0112 0.0088
vn -1.0000 0.0020 -0.0030
vn -1.0000 0.0000 -0.0000
vn 0.0367 0.0185 -0.9992
vn 0.0380 0.0134 -0.9992
vn 0.0110 -0.0146 -0.9998
vn -0.0020 -0.0003 -1.0000
vn -0.0000 0.0001 -1.0000
vn -0.0033 1.0000 -0.0069
vn -0.0038 1.0000 0.0006
vn 0.0058 1.0000 -0.0049
vn 0.0039 1.0000 -0.0002
vn 0.0001 1.0000 0.0039
vn -0.0006 0.9998 0.0215
vn -0.0005 0.9998 0.0220
vn -0.0041 0.9999 0.0158
vn -1.0000 0.0000 0.0009
vn 0.0149 0.9999 0.0004
vn 0.0164 0.9999 0.0021
vn 0.0137 0.9999 0.0014
vn -0.0017 1.0000 -0.0006
vn 0.0009 1.0000 -0.0013
vn -0.0022 0.0099 -0.9999
vn 0.0058 0.0017 -1.0000
vn -0.0040 0.0055 -1.0000
vn -0.0000 0.0000 1.0000
vn -0.0002 0.0005 1.0000
vn 0.0691 0.9668 -0.2459
vn -0.0002 0.9451 -0.3269
vn -0.0001 0.9813 -0.1926
vn 0.0020 1.0000 0.0067
vn -0.0060 1.0000 0.0076
vn 0.0013 0.9999 0.0118
vn 1.0000 0.0022 -0.0028
vn 1.0000 0.0000 -0.0000
vn -1.0000 -0.0000 -0.0042
vn -0.9999 0.0007 -0.0113
vn -0.0003 -0.0045 1.0000
vn 0.0002 -0.0041 1.0000
vn 0.0000 -0.0023 1.0000
vn 1.0000 0.0000 -0.0042
vn 0.9999 0.0011 -0.0112
vn -0.0002 -0.0033 1.0000
vn 0.0006 -0.0002 1.0000
vn -0.0015 -0.0017 1.0000
vn -1.0000 -0.0012 0.0044
vn -0.9999 -0.0030 -0.0142
vn -0.9997 -0.0203 -0.0147
vn 0.9998 0.0153 0.0128
vn 1.0000 -0.0009 0.0006
vn 1.0000 -0.0015 0.0073
vn -0.0016 -0.0033 1.0000
vn 0.0001 -0.0018 1.0000
vn -0.0002 -0.0018 1.0000
vn 0.9998 0.0175 0.0042
vn 1.0000 0.0020 -0.0047
vn 1.0000 -0.0015 -0.0073
vn 0.0028 1.0000 0.0026
vn -0.0027 1.0000 0.0027
vn 0.0038 1.0000 0.0000
vn 0.0055 1.0000 -0.0052
vn 0.0028 1.0000 0.0027
vn -0.0024 1.0000 0.0031
vn 0.0017 -0.0015 1.0000
vn -0.0038 0.0055 -1.0000
vn 0.0094 0.0088 -0.9999
vn 0.0041 -0.0016 -1.0000
vn 0.0024 1.0000 0.0038
vn -0.0027 1.0000 -0.0039
vn -0.0060 1.0000 0.0053
vn -0.0009 -0.0021 1.0000
vn 0.0029 -0.0025 1.0000
vn 0.0010 0.0001 1.0000
vn 0.0735 0.9802 -0.1837
vn 0.0143 0.9999 -0.0005
vn -0.0439 0.9990 -0.0090
vn -0.0176 0.0031 -0.9998
vn -0.0003 0.0466 -0.9989
vn -0.0218 0.0053 -0.9997
vn 0.0004 0.0003 1.0000
vn -0.0046 -0.0021 -1.0000
vn 0.0042 0.0001 -1.0000
vn -0.0082 -0.0016 -1.0000
vn 0.0002 0.9837 0.1800
vn 0.0671 0.9622 0.2641
vn -0.0715 0.9829 0.1697
vn 0.0621 0.9781 0.1988
vn -0.0012 0.0061 1.0000
vn -0.0023 0.0059 1.0000
vn 0.0005 -0.0051 1.0000
vn -1.0000 0.0042 0.0011
vn -1.0000 -0.0029 0.0068
vn 0.9999 -0.0109 0.0034
vn 0.9997 -0.0178 -0.0171
vn 1.0000 0.0038 -0.0055
vn -1.0000 0.0036 -0.0002
vn -0.0002 0.0469 -0.9989
vn -0.0003 0.0491 -0.9988
vn 0.0269 -0.0129 -0.9996
vn -0.0011 -0.0016 -1.0000
vn 0.0022 -0.0032 -1.0000
vn 0.0000 0.0000 -1.0000
vn -1.0000 0.0016 -0.0008
vn -1.0000 0.0002 0.0008
vn -0.0034 0.0086 -1.0000
vn 0.0081 0.0221 -0.9997
vn 0.0033 0.0014 -1.0000
vn -0.0002 0.9813 -0.1926
vn -0.0665 0.9589 -0.2759
vn 0.0021 1.0000 0.0063
vn -0.0019 1.0000 0.0045
vn 1.0000 0.0001 -0.0036
vn -0.0022 -0.0027 1.0000
vn 0.0008 -0.0045 1.0000
vn 0.0016 -0.0030 1.0000
vn -0.0004 -0.0034 1.0000
vn 0.0021 -0.0045 1.0000
vn 0.0006 -0.0006 1.0000
vn -1.0000 -0.0016 0.0097
vn -0.9999 0.0104 0.0096
vn -0.9999 -0.0038 -0.0096
vn 0.9997 0.0261 -0.0015
vn 0.9996 0.0272 -0.0013
vn 0.9999 0.0117 -0.0099
vn -0.0018 -0.0024 1.0000
vn 0.0009 -0.0045 1.0000
vn -0.0000 -0.0021 1.0000
vn 0.9997 0.0233 0.0009
vn 0.9996 0.0270 0.0013
vn 0.9999 0.0081 -0.0070
vn -0.0013 0.0013 1.0000
vn 0.0022 0.0006 1.0000
s off
f 9/1/1 10/2/2 11/3/3
f 54/4/4 44/5/5 14/6/6
f 72/7/7 68/8/7 66/9/7
f 5/10/8 3/11/9 6/12/10
f 4/13/11 7/14/12 8/15/13
f 70/16/14 46/17/15 34/18/16
f 3/11/17 7/14/18 4/13/19
f 17/19/20 44/5/21 27/20/22
f 69/21/23 35/22/24 36/23/23
f 27/24/25 28/25/26 29/26/27
f 12/27/28 2/28/29 1/29/30
f 22/30/31 23/31/32 24/32/33
f 19/33/34 20/34/35 21/35/36
f 36/36/37 37/37/38 19/33/39
f 13/38/7 38/39/40 39/40/41
f 40/41/42 41/42/42 28/43/42
f 36/44/43 41/42/43 42/45/43
f 18/46/44 15/47/45 16/48/46
f 39/40/47 25/49/7 45/50/7
f 37/51/48 46/52/49 45/53/50
f 40/54/51 44/55/52 9/56/53
f 32/57/54 64/58/55 30/59/56
f 56/60/57 57/61/58 13/62/58
f 16/63/59 14/6/60 17/19/61
f 9/1/62 43/64/63 40/65/63
f 35/66/64 37/37/65 36/36/66
f 40/41/43 42/45/43 41/42/43
f 36/44/42 19/67/42 41/42/42
f 25/68/7 37/51/67 45/53/68
f 40/54/69 28/25/70 44/55/71
f 25/49/58 18/46/72 26/69/58
f 13/38/73 15/47/74 38/39/75
f 39/40/76 38/39/77 25/49/7
f 54/70/78 57/71/79 10/72/80
f 33/73/81 34/74/81 35/75/82
f 51/76/83 52/77/84 53/78/85
f 13/79/86 14/6/87 15/80/88
f 30/59/89 31/81/90 32/57/90
f 31/82/90 58/83/90 32/84/90
f 57/85/58 59/86/58 60/87/58
f 59/86/91 61/88/92 60/87/91
f 48/89/93 49/90/94 50/91/95
f 32/84/96 58/83/96 63/92/97
f 65/93/98 45/94/99 46/95/100
f 59/96/101 49/97/102 61/98/103
f 29/99/104 41/42/105 47/100/106
f 62/101/107 50/102/108 45/103/109
f 41/42/110 21/104/111 47/100/112
f 37/51/113 34/105/114 46/52/115
f 35/66/116 34/106/117 37/37/118
f 26/107/81 37/51/119 25/68/81
f 9/1/120 54/108/121 10/2/122
f 54/4/123 9/109/124 44/5/125
f 72/7/7 67/110/7 68/8/7
f 70/16/126 65/111/127 46/17/128
f 3/11/129 5/10/130 7/14/131
f 17/19/132 14/6/133 44/5/134
f 69/21/81 33/112/81 35/22/135
f 27/24/136 44/55/137 28/25/138
f 12/27/139 52/113/29 2/28/140
f 22/30/33 55/114/141 23/31/142
f 19/33/143 37/37/144 20/34/145
f 18/46/146 38/39/146 15/47/147
f 32/57/148 63/115/149 64/58/150
f 56/60/151 59/96/58 57/61/58
f 16/63/152 15/80/153 14/6/154
f 9/1/155 11/3/156 43/64/157
f 25/49/58 38/39/158 18/46/159
f 54/70/160 13/116/161 57/71/162
f 33/73/81 70/117/81 34/74/81
f 51/76/163 2/118/84 52/77/164
f 13/79/165 54/4/166 14/6/87
f 30/59/167 71/119/90 31/81/90
f 48/89/168 61/120/169 49/90/170
f 65/93/171 62/121/172 45/94/173
f 59/96/174 56/60/175 49/97/176
f 29/99/177 28/43/178 41/42/179
f 62/101/180 48/122/181 50/102/182
f 41/42/183 19/67/184 21/104/185
f 26/107/81 20/123/186 37/51/187
