# Blender v2.91.0 Beta OBJ File: 'HOUSE.blend'
# www.blender.org
o alumsiding01.003_tree.002_tree.003_alumsiding01.003_tree.002_tr
v -1.429241 0.018244 -3.483061
v -0.645699 2.202759 -3.479712
v -0.636537 0.018244 -3.479884
v 2.231848 3.210159 -3.353094
v 2.232765 2.304743 4.394288
v 2.234447 2.304745 -3.357281
v -2.486973 3.210157 4.393651
v 2.234451 3.210157 4.393651
v -2.486973 2.304745 -3.357281
v -2.486973 3.210159 -3.353094
v 2.232807 -0.021539 4.389801
v 2.234381 -0.007420 -3.357367
v -2.486973 -0.021539 4.389801
v -2.486973 2.304743 4.394288
v -1.437187 2.202759 -3.482911
v -2.486973 -0.007420 -3.357367
vt 0.140764 0.019043
vt 0.124750 0.050773
vt 0.124419 0.019043
vt 0.091309 0.895020
vt 0.031738 0.812988
vt 0.091309 0.812988
vt 0.112793 0.895020
vt 0.233887 0.812988
vt 0.233887 0.895020
vt 0.233887 0.812988
vt 0.112793 0.873535
vt 0.233887 0.873535
vt 0.031738 0.812988
vt 0.031738 0.895020
vt 0.123535 0.204951
vt 0.232910 0.152832
vt 0.123535 0.152832
vt 0.123535 0.153809
vt 0.233781 0.206064
vt 0.123535 0.206064
vt 0.124512 0.152832
vt 0.234758 0.204217
vt 0.124512 0.204217
vt 0.091309 0.895020
vt 0.031738 0.812988
vt 0.031738 0.895020
vt 0.123535 0.204951
vt 0.232910 0.152832
vt 0.233794 0.204951
vt 0.141050 0.050773
vt 0.031738 0.895020
vt 0.112793 0.812988
vt 0.112793 0.812988
vt 0.233794 0.204951
vt 0.232910 0.153809
vt 0.233887 0.152832
vt 0.091309 0.812988
vt 0.123535 0.152832
vn 0.0047 0.0011 -1.0000
vn 0.0074 -0.0011 -1.0000
vn 0.0047 0.0012 -1.0000
vn 1.0000 0.0025 0.0002
vn 1.0000 -0.0016 -0.0003
vn 1.0000 -0.0000 0.0002
vn 0.0000 0.0007 1.0000
vn 0.0000 -0.0006 1.0000
vn 0.0000 1.0000 0.0000
vn 0.0000 0.0046 -1.0000
vn 0.0000 0.0023 -1.0000
vn 0.0000 -0.0019 1.0000
vn 0.0000 0.0000 -1.0000
vn -1.0000 0.0000 0.0000
vn 0.0052 0.0033 -1.0000
vn 1.0000 -0.0019 -0.0003
s 1
f 1/1/1 2/2/2 3/3/3
f 4/4/4 5/5/5 6/6/6
f 7/7/7 5/8/8 8/9/7
f 4/10/9 7/11/9 8/12/9
f 4/4/10 9/13/11 10/14/10
f 6/15/6 11/16/6 12/17/6
f 13/18/12 5/19/8 14/20/8
f 12/21/13 9/22/11 6/23/11
f 10/24/14 14/25/14 7/26/14
f 9/27/14 13/28/14 14/29/14
f 1/1/1 15/30/15 2/2/2
f 4/4/4 8/31/16 5/5/5
f 7/7/7 14/32/8 5/8/8
f 4/10/9 10/33/9 7/11/9
f 4/4/10 6/6/11 9/13/11
f 6/15/6 5/34/5 11/16/6
f 13/18/12 11/35/12 5/19/8
f 12/21/13 16/36/13 9/22/11
f 10/24/14 9/37/14 14/25/14
f 9/27/14 16/38/14 13/28/14
