# Blender v2.91.0 Beta OBJ File: 'HOUSE.blend'
# www.blender.org
o alumsiding01.003_tree.002_tree.001_alumsiding01.003_tree.002_tr
v -8.011456 3.294389 -0.119521
v -8.011456 -0.000002 7.739010
v -8.011456 3.294387 7.739011
v -8.011456 0.000002 -7.707545
v -8.011456 0.000000 -0.119524
v 8.011456 3.294389 -0.119521
v 8.011456 -0.000002 7.739010
v 8.011456 3.294387 7.739011
v 8.011456 0.000002 -7.707545
v 8.011456 0.000000 -0.119524
v 8.011456 3.294391 -7.707545
v 7.063475 3.294387 7.738989
v -8.011456 3.294391 -7.707545
v 7.063475 -0.000002 7.738989
v -7.063475 3.294387 7.738989
v -7.063475 -0.000002 7.738989
v -0.884705 3.294387 7.738901
v -0.884705 -0.000002 7.738900
v 0.000000 3.294387 7.738882
v 0.000000 0.000002 -7.680676
v 0.000000 3.294391 -7.680330
v 0.000000 -0.000002 7.738880
v 0.884705 3.294387 7.738901
v 0.884705 -0.000002 7.738900
vt 0.070801 0.069824
vt 0.009277 0.023926
vt 0.009277 0.069824
vt 0.009277 0.069824
vt 0.070801 0.023926
vt 0.163574 0.067871
vt 0.227411 0.022949
vt 0.227411 0.067871
vt 0.070801 0.023926
vt 0.009277 0.069824
vt 0.070801 0.069824
vt 0.009277 0.023926
vt 0.247559 0.022949
vt 0.247559 0.067871
vt 0.145020 0.067871
vt 0.163574 0.022949
vt 0.247559 0.022949
vt 0.227411 0.067871
vt 0.247559 0.067871
vt 0.227411 0.022949
vt 0.163574 0.067871
vt 0.247559 0.066895
vt 0.124512 0.019043
vt 0.247559 0.019043
vt 0.163574 0.022949
vt 0.247559 0.066895
vt 0.247559 0.019043
vt 0.009277 0.023926
vt 0.009277 0.023926
vt 0.009277 0.069824
vt 0.145020 0.022949
vt 0.124512 0.066895
vn -1.0000 0.0005 0.0004
vn -1.0000 -0.0048 -0.0031
vn -1.0000 -0.0023 -0.0052
vn -1.0000 -0.0000 0.0000
vn -0.0000 -0.0000 1.0000
vn 0.0011 -0.0009 1.0000
vn 1.0000 -0.0000 0.0000
vn 1.0000 0.0005 -0.0004
vn 1.0000 0.0031 0.0048
vn 0.0011 0.0008 1.0000
vn -0.0016 -0.0016 1.0000
vn 0.0008 -0.0012 1.0000
vn 0.0016 -0.0016 1.0000
vn 0.0070 0.0113 -0.9999
vn 0.0007 0.0011 -1.0000
vn 0.0015 0.0078 -1.0000
vn 0.0079 -0.0036 -1.0000
vn -0.0111 -0.0018 -0.9999
vn 1.0000 -0.0052 -0.0023
vn 0.0079 0.0089 -0.9999
s 1
f 1/1/1 2/2/2 3/3/3
f 13/4/4 5/5/4 1/1/1
f 23/6/5 14/7/6 12/8/5
f 10/9/7 11/10/7 6/11/8
f 6/11/8 7/12/9 10/9/7
f 12/8/5 7/13/10 8/14/11
f 19/15/5 24/16/6 23/6/5
f 2/17/12 15/18/5 3/19/13
f 16/20/6 17/21/5 15/18/5
f 13/22/14 20/23/15 4/24/16
f 18/25/6 19/15/5 17/21/5
f 20/23/15 11/26/17 9/27/18
f 1/1/1 5/5/4 2/2/2
f 13/4/4 4/28/4 5/5/4
f 23/6/5 24/16/6 14/7/6
f 10/9/7 9/29/7 11/10/7
f 6/11/8 8/30/19 7/12/9
f 12/8/5 14/7/6 7/13/10
f 19/15/5 22/31/6 24/16/6
f 2/17/12 16/20/6 15/18/5
f 16/20/6 18/25/6 17/21/5
f 13/22/14 21/32/20 20/23/15
f 18/25/6 22/31/6 19/15/5
f 20/23/15 21/32/20 11/26/17
o alumsiding01.019_tree.002_tree.002
v 0.000000 10.442507 -7.743949
v 0.000000 3.290331 -7.743937
v -7.279222 3.268374 -7.744102
v -7.473256 0.000002 -7.744107
v -7.473256 3.268374 -7.744105
v 7.473256 0.000002 -7.744107
v 7.279222 3.268374 -7.744102
v 7.473256 3.268374 -7.744105
v -8.022324 10.442503 7.751021
v 3.686103 0.000002 -7.744119
v 2.951547 3.268374 -7.744102
v 3.686103 3.268374 -7.744119
v 0.000000 10.442503 7.743956
v 0.000000 3.290327 7.743937
v 7.279234 3.268374 -7.218695
v -2.951547 3.268374 -7.744102
v -3.686103 0.000002 -7.744119
v -3.686103 3.268374 -7.744119
v -8.013779 0.000002 -7.744119
v -8.013796 3.268374 -7.009562
v -8.013779 3.290331 -7.744119
v -8.013779 3.268377 7.744121
v -8.022324 10.442507 -7.751014
v 7.488388 3.268374 -7.009550
v 8.013779 3.268377 7.744121
v 8.013796 3.268374 -7.009562
v 8.013779 0.000002 -7.744119
v 8.013779 3.290331 -7.744119
v 2.951559 0.000002 -7.218695
v 2.951547 0.000002 -7.744102
v 7.488388 0.000002 -7.009550
v 8.013796 0.000002 -7.009562
v 7.279234 0.000002 -7.218695
v 7.279222 0.000002 -7.744102
v 2.951559 3.268374 -7.218695
v -7.279234 3.268374 -7.218695
v 3.686115 0.000002 -7.218711
v 8.022324 10.528492 0.000010
v 8.022324 10.528493 -7.751008
v 3.686115 3.268374 -7.218709
v -7.279234 0.000002 -7.218695
v -7.473268 0.000002 -7.218699
v -2.951559 0.000002 -7.218695
v -2.951547 0.000002 -7.744102
v 0.000000 10.528493 -7.743943
v 7.473268 0.000002 -7.218699
v 7.473268 3.268374 -7.218699
v -8.013796 0.000002 -7.009562
v -7.488388 3.268374 -7.009550
v -3.686115 0.000002 -7.218711
v -7.473268 3.268374 -7.218699
v -2.951559 3.268374 -7.218695
v -7.488388 0.000002 -7.009550
v -3.686115 3.268374 -7.218709
v -8.013779 3.290329 0.000002
v -7.710670 10.528493 -7.449928
v 0.000035 10.528493 -7.443138
v -8.014119 10.528492 0.000010
v -8.022324 10.528491 7.751028
v 0.000000 10.528491 7.743963
v -7.710670 10.528491 7.449948
v -7.702785 10.528492 0.000010
v 8.013779 3.290329 0.000002
v -7.279222 0.000002 -7.744102
v 8.022324 10.528491 7.751028
v -8.022324 10.528493 -7.751008
v 7.710742 10.528493 -7.449928
v 0.000035 10.151732 -7.443138
v 7.710742 10.151732 -7.449928
v -7.710670 10.151732 -7.449928
v 7.710742 10.151730 0.000010
v 7.710742 10.528492 0.000010
v 7.710742 10.528491 7.449948
v 0.000035 10.528491 7.443158
v -7.702785 10.151730 0.000010
v 0.000035 10.151731 7.443158
v 7.710742 10.151731 7.449948
v -7.710670 10.151731 7.449948
v 0.000035 10.151730 0.000010
v -8.013943 8.680376 0.000010
v 0.000000 8.680375 7.743954
v 8.017905 8.680376 0.000010
v 0.000000 8.680377 -7.743935
v -8.017905 8.680377 -7.747441
v -8.026426 8.692582 7.754340
v 8.522224 8.678683 -8.252241
v 8.526791 10.526799 -8.255659
v -8.518339 8.680330 -0.000129
v -8.518515 10.528446 -0.000128
v 8.522224 8.678681 8.252261
v 8.526791 10.526797 8.255681
v 8.526717 10.527287 0.000010
v 0.000108 8.680356 8.248350
v 0.000108 10.528472 8.248360
v 8.522299 8.679171 0.000010
v 0.000000 8.679889 -8.248330
v 0.000000 10.528005 -8.248338
v -8.527324 10.529483 8.256042
v -8.527188 10.527375 -8.255660
v -8.522622 8.679261 -8.252242
v -8.531573 8.693574 8.259207
v -8.014499 3.892373 -7.744699
v 8.013807 3.892370 0.000002
v 0.000000 3.892368 7.743939
v 0.000000 3.892373 -7.743938
v -8.014499 3.872266 7.744701
v -8.013807 3.892370 0.000002
v 8.408080 3.268322 8.137949
v 8.407838 3.290509 0.000002
v 8.406971 3.892318 -8.139194
v 8.408093 3.290277 -8.137933
v -8.407826 3.289896 -8.138229
v -8.407838 3.290084 0.000001
v 8.407866 3.892551 0.000002
v -0.000002 3.290118 -8.137995
v -0.000002 3.892155 8.137999
v -0.000002 3.290114 8.137997
v -8.407815 3.267942 8.138245
v -0.000002 3.892160 -8.137997
v -8.408616 3.871831 8.138744
v 8.406982 3.872211 8.139185
v -8.407866 3.892126 0.000001
v -8.408605 3.891937 -8.138752
v 7.976245 10.442506 -7.704129
v 7.983309 10.442505 0.023662
v 7.974597 10.442506 7.736578
v 7.979805 8.680375 7.747198
v 7.972925 8.692582 -7.708081
v 7.982564 3.872268 -7.696591
v 7.982425 3.872267 7.742663
v -7.983309 10.442505 0.023662
v -8.019571 8.138371 -7.748793
v 0.000000 8.138367 7.743950
v 0.000000 8.138371 -7.743945
v -8.019571 8.131295 7.748798
v 7.978468 8.131298 -7.701478
v 7.977351 8.131298 7.738719
v 7.994037 8.138369 0.015339
v -7.994037 8.138369 0.015339
vt 0.000000 0.000000
vt 0.000000 0.000000
vt 0.000000 0.000000
vt 0.000000 0.000000
vt 0.000000 0.000000
vt 0.000000 0.000000
vt 0.000000 0.000000
vt 0.000000 0.000000
vt 0.000000 0.000000
vt 0.000000 0.000000
vt 0.000000 0.000000
vt 0.000000 0.000000
vt 0.000000 0.000000
vt 0.000000 0.000000
vt 0.000000 0.000000
vt 0.000000 0.000000
vt 0.014160 0.000488
vt 0.000488 0.080160
vt 0.014160 0.080159
vt 0.010549 0.000488
vt 0.010549 0.080160
vt 0.010549 0.000488
vt 0.000488 0.000488
vt 0.000488 0.080160
vt 0.000488 0.080160
vt 0.014160 0.080159
vt 0.014160 0.000488
vt 0.014160 0.080159
vt 0.245605 0.896973
vt 0.124512 0.896973
vt 0.245605 0.896973
vt 0.245605 0.896973
vt 0.124512 0.896973
vt 0.245605 0.896973
vt 0.014160 0.080159
vt 0.014160 0.000488
vt 0.000488 0.080160
vt 0.000488 0.000488
vt 0.014160 0.080159
vt 0.010549 0.080160
vt 0.014160 0.080159
vt 0.014160 0.000488
vt 0.000488 0.080160
vt 0.014160 0.080159
vt 0.245605 0.142090
vt 0.137207 0.142090
vt 0.245605 0.142090
vt 0.014160 0.000488
vt 0.014160 0.080160
vt 0.014160 0.080160
vt 0.014160 0.000488
vt 0.000488 0.080160
vt 0.014160 0.080160
vt 0.246582 0.142090
vt 0.137207 0.142090
vt 0.246582 0.142090
vt 0.014160 0.000488
vt 0.010549 0.080159
vt 0.000488 0.000488
vt 0.014160 0.080160
vt 0.000488 0.080160
vt 0.014160 0.000488
vt 0.010549 0.000488
vt 0.004395 0.896973
vt 0.063965 0.896973
vt 0.004395 0.896973
vt 0.000488 0.000488
vt 0.000488 0.080160
vt 0.014160 0.000488
vt 0.245605 0.812500
vt 0.124512 0.873535
vt 0.245605 0.873535
vt 0.000488 0.000488
vt 0.124512 0.896973
vt 0.245605 0.896973
vt 0.014160 0.000488
vt 0.000488 0.000488
vt 0.063965 0.896973
vt 0.004395 0.896973
vt 0.063965 0.896973
vt 0.014160 0.080159
vt 0.014160 0.000488
vt 0.010549 0.000488
vt 0.124512 0.896973
vt 0.000488 0.000488
vt 0.000488 0.000488
vt 0.104980 0.069824
vt 0.226074 0.081543
vt 0.104980 0.081543
vt 0.063965 0.896973
vt 0.004395 0.896973
vt 0.010549 0.080159
vt 0.245605 0.896973
vt 0.245605 0.896973
vt 0.004395 0.896973
vt 0.014160 0.000488
vt 0.063965 0.896973
vt 0.004395 0.896973
vt 0.063965 0.896973
vt 0.004395 0.896973
vt 0.124512 0.896973
vt 0.245605 0.896973
vt 0.124512 0.873535
vt 0.245605 0.873535
vt 0.245605 0.812500
vt 0.245605 0.873535
vt 0.004395 0.896973
vt 0.124512 0.896973
vt 0.245605 0.873535
vt 0.246582 0.142090
vt 0.137207 0.142090
vt 0.246582 0.142090
vt 0.137207 0.142090
vt 0.245605 0.896973
vt 0.004395 0.896973
vt 0.004395 0.896973
vt 0.245605 0.896973
vt 0.124512 0.896973
vt 0.245605 0.896973
vt 0.124512 0.896973
vt 0.245605 0.896973
vt 0.063965 0.896973
vt 0.063965 0.781738
vt 0.004395 0.770124
vt 0.063965 0.770124
vt 0.063965 0.781738
vt 0.004395 0.770124
vt 0.004395 0.781738
vt 0.124512 0.781738
vt 0.245605 0.770124
vt 0.124512 0.770124
vt 0.004395 0.770124
vt 0.063965 0.770124
vt 0.245605 0.770124
vt 0.245605 0.781738
vt 0.124512 0.781738
vt 0.245605 0.770124
vt 0.245605 0.781738
vt 0.004395 0.770124
vt 0.004395 0.781738
vt 0.245605 0.781738
vt 0.124512 0.770124
vt 0.002441 0.508301
vt 0.115723 0.508301
vt 0.002441 0.508301
vt 0.063965 0.896973
vt 0.004395 0.896973
vt 0.002441 0.508301
vt 0.115723 0.508301
vt 0.115723 0.508301
vt 0.245605 0.508301
vt 0.124512 0.508301
vt 0.245605 0.508301
vt 0.002441 0.508301
vt 0.002441 0.508301
vt 0.245605 0.508301
vt 0.124512 0.508301
vt 0.245605 0.508301
vt 0.124512 0.508301
vt 0.124512 0.508301
vt 0.002441 0.508301
vt 0.115723 0.508301
vt 0.245605 0.508301
vt 0.245605 0.508301
vt 0.004395 0.896973
vt 0.111816 0.142090
vt 0.227051 0.088379
vt 0.226418 0.142187
vt 0.226418 0.142187
vt 0.111816 0.088379
vt 0.111816 0.142090
vt 0.226246 0.142187
vt 0.111816 0.088379
vt 0.124512 0.142090
vt 0.124512 0.142090
vt 0.137207 0.142817
vt 0.245605 0.135254
vt 0.245688 0.142817
vt 0.246582 0.142817
vt 0.137207 0.135254
vt 0.137207 0.142817
vt 0.246582 0.135254
vt 0.137207 0.135254
vt 0.124512 0.135254
vt 0.124512 0.142817
vt 0.246582 0.142817
vt 0.124512 0.135254
vt 0.124512 0.142817
vt 0.246582 0.142817
vt 0.246582 0.142090
vt 0.124512 0.142090
vt 0.124512 0.142090
vt 0.246582 0.142090
vt 0.104980 0.081543
vt 0.226074 0.069824
vt 0.104980 0.069824
vt 0.104980 0.088379
vt 0.227051 0.088379
vt 0.226074 0.069824
vt 0.104980 0.081543
vt 0.104980 0.069824
vt 0.104980 0.088379
vt 0.104980 0.142187
vt 0.226074 0.081543
vt 0.227051 0.088379
vt 0.226074 0.081543
vt 0.226074 0.069824
vt 0.226418 0.142187
vt 0.227051 0.088379
vt 0.104980 0.069824
vt 0.104980 0.081543
vt 0.226074 0.081543
vt 0.226074 0.069824
vt 0.124512 0.812500
vt 0.245605 0.896973
vt 0.004395 0.896973
vt 0.004395 0.896973
vt 0.245605 0.896973
vt 0.245605 0.896973
vt 0.004395 0.896973
vt 0.245605 0.896973
vt 0.004395 0.781738
vt 0.245605 0.781738
vt 0.004395 0.781738
vt 0.245605 0.770124
vt 0.002441 0.508301
vt 0.004395 0.896973
vt 0.245605 0.508301
vt 0.245605 0.508301
vt 0.002441 0.508301
vt 0.226074 0.088379
vt 0.246582 0.135254
vt 0.246582 0.135254
vt 0.104980 0.142187
vn -0.0027 -1.0000 -0.0005
vn 0.0000 -1.0000 0.0002
vn 0.0005 -1.0000 -0.0000
vn 0.0026 -1.0000 -0.0027
vn -0.0000 -1.0000 0.0005
vn 0.0006 -1.0000 -0.0028
vn 0.0011 -1.0000 0.0000
vn 0.0026 -1.0000 0.0015
vn -0.0026 -1.0000 0.0025
vn -0.0001 -1.0000 0.0000
vn 0.0005 -1.0000 -0.0028
vn 0.0000 -1.0000 0.0011
vn -0.0016 -1.0000 -0.0027
vn 0.0006 -1.0000 -0.0000
vn 0.0027 -1.0000 -0.0005
vn 0.0000 0.0000 -1.0000
vn -1.0000 0.0000 -0.0000
vn 1.0000 0.0000 0.0000
vn -0.0009 -0.0000 1.0000
vn 0.0009 0.0000 -1.0000
vn -0.0000 -0.0000 1.0000
vn 0.0000 1.0000 -0.0000
vn -0.0462 0.9989 -0.0001
vn -0.0021 1.0000 -0.0025
vn -0.0472 0.9989 -0.0000
vn 0.9998 0.0000 0.0206
vn 0.0013 1.0000 0.0025
vn -0.0006 1.0000 0.0026
vn 0.0014 1.0000 0.0025
vn -0.0246 0.9996 0.0123
vn -0.0164 0.9997 0.0182
vn 0.0000 0.9996 0.0299
vn 0.0000 -1.0000 -0.0000
vn -0.0009 0.0000 -1.0000
vn 0.0246 0.9996 0.0123
vn 0.0164 0.9997 0.0182
vn 0.0406 0.9992 0.0008
vn 1.0000 -0.0000 -0.0011
vn -0.9998 0.0000 0.0206
vn 0.0008 0.0001 1.0000
vn 0.0007 0.0008 1.0000
vn 0.0009 -0.0000 1.0000
vn 1.0000 0.0000 0.0011
vn -0.0022 1.0000 0.0025
vn -0.0005 1.0000 0.0026
vn -0.0011 1.0000 -0.0000
vn -0.0006 1.0000 -0.0000
vn -0.0001 1.0000 -0.0021
vn -0.0000 1.0000 -0.0010
vn 0.0002 1.0000 0.0031
vn 0.0000 1.0000 0.0002
vn 0.0002 1.0000 0.0032
vn 0.0001 1.0000 -0.0018
vn 0.0033 1.0000 0.0001
vn 0.0024 1.0000 0.0000
vn 0.0001 1.0000 -0.0032
vn 0.0000 1.0000 -0.0011
vn 1.0000 -0.0024 0.0000
vn 1.0000 -0.0025 -0.0000
vn -1.0000 0.0002 -0.0015
vn -1.0000 0.0020 -0.0011
vn -1.0000 0.0023 -0.0011
vn -0.0005 -0.0003 -1.0000
vn -0.0008 -0.0016 -1.0000
vn -0.0005 -0.0000 -1.0000
vn -1.0000 -0.0004 0.0006
vn -1.0000 -0.0021 0.0010
vn -1.0000 -0.0001 0.0005
vn 0.0005 -0.0003 -1.0000
vn 0.0008 -0.0016 -1.0000
vn 0.0009 -0.0018 -1.0000
vn -0.0005 -0.0003 1.0000
vn -0.0008 -0.0016 1.0000
vn -0.0009 -0.0018 1.0000
vn 0.0012 0.0015 1.0000
vn 0.0010 0.0002 1.0000
vn -0.0030 -1.0000 -0.0001
vn -0.0024 -1.0000 -0.0000
vn -0.0031 -1.0000 -0.0001
vn 0.0018 1.0000 -0.0001
vn -0.0003 -1.0000 0.0016
vn 0.0001 -1.0000 0.0016
vn -0.0001 -0.9997 0.0248
vn 0.0015 -1.0000 0.0020
vn -0.0001 -0.9997 0.0254
vn 0.0020 -1.0000 0.0001
vn 0.0002 -1.0000 0.0000
vn 0.0021 -1.0000 0.0001
vn -0.0020 1.0000 -0.0001
vn -0.0002 1.0000 -0.0000
vn -0.0001 1.0000 0.0000
vn 0.0001 -1.0000 0.0021
vn 0.0000 -1.0000 0.0010
vn -0.0002 -1.0000 -0.0031
vn -0.0000 -1.0000 -0.0002
vn -0.0246 -0.9997 0.0000
vn -0.0034 -1.0000 -0.0015
vn -0.0024 -1.0000 -0.0016
vn -0.0015 -1.0000 0.0004
vn -0.0015 -1.0000 -0.0000
vn 0.0033 1.0000 -0.0001
vn 0.0004 -0.0002 -1.0000
vn 0.0004 -0.0007 -1.0000
vn 0.0007 -0.0009 -1.0000
vn 0.0005 -0.0007 1.0000
vn 0.0004 -0.0003 1.0000
vn 0.0006 -0.0000 1.0000
vn 0.0055 -0.0010 -1.0000
vn 0.0055 -0.0004 -1.0000
vn 0.0052 -0.0001 -1.0000
vn 0.0000 0.9990 0.0443
vn 0.0024 1.0000 0.0011
vn 0.0025 1.0000 -0.0005
vn 1.0000 0.0018 -0.0001
vn 1.0000 0.0019 -0.0001
vn 1.0000 0.0017 -0.0000
vn 1.0000 0.0000 0.0001
vn 1.0000 -0.0001 0.0001
vn -1.0000 -0.0001 0.0000
vn -1.0000 -0.0012 0.0001
vn 0.0000 -0.0020 -1.0000
vn -0.0001 -0.0001 -1.0000
vn -0.0001 -0.0000 -1.0000
vn 0.0000 -0.0008 1.0000
vn 0.0001 -0.0000 1.0000
vn 0.0001 -0.0008 -1.0000
vn 0.0001 -0.0009 -1.0000
vn -0.0001 -0.0001 1.0000
vn -0.0000 -0.0020 1.0000
vn -0.0001 -0.0000 1.0000
vn -1.0000 -0.0001 -0.0001
vn -1.0000 -0.0013 -0.0000
vn -1.0000 -0.0000 -0.0001
vn -0.0000 1.0000 -0.0006
vn -0.0024 1.0000 -0.0013
vn -0.0025 1.0000 0.0005
vn 0.0024 1.0000 -0.0023
vn 0.0025 1.0000 0.0004
vn 0.0024 1.0000 -0.0024
vn 1.0000 0.0040 0.0020
vn 1.0000 0.0021 0.0024
vn 1.0000 0.0046 0.0022
vn 1.0000 0.0016 -0.0027
vn 1.0000 0.0035 -0.0027
vn 1.0000 0.0010 -0.0041
vn -1.0000 -0.0006 -0.0040
vn -1.0000 0.0036 -0.0036
vn -1.0000 0.0037 -0.0022
vn -1.0000 -0.0003 0.0022
vn -1.0000 0.0028 0.0023
vn -1.0000 0.0041 0.0040
vn -1.0000 -0.0001 0.0036
vn -1.0000 0.0046 0.0050
vn -1.0000 0.0007 -0.0023
vn -1.0000 0.0047 -0.0001
vn 1.0000 0.0016 -0.0018
vn 1.0000 0.0043 -0.0016
vn 1.0000 0.0035 0.0028
vn 1.0000 0.0012 0.0041
vn 0.0053 -0.0009 -1.0000
vn 0.0050 -0.0000 -1.0000
vn 0.0007 -0.0002 1.0000
vn 0.0009 -0.0010 1.0000
vn 0.0007 -0.0002 -1.0000
vn 0.0009 -0.0010 -1.0000
vn 0.0005 0.0003 1.0000
vn 0.0005 0.0008 1.0000
vn -0.0005 1.0000 -0.0026
vn -0.0406 0.9992 0.0008
vn -1.0000 -0.0001 -0.0016
vn -0.0009 -0.0018 -1.0000
vn -1.0000 -0.0025 0.0011
vn 0.0005 -0.0000 -1.0000
vn -0.0005 -0.0000 1.0000
vn 0.0013 0.0017 1.0000
vn -0.0004 -1.0000 0.0016
vn 0.0015 -1.0000 0.0010
vn 0.0001 -1.0000 0.0000
vn -0.0021 1.0000 -0.0001
vn -0.0252 -0.9997 0.0001
vn 0.0001 -0.0000 -1.0000
vn 0.0001 -0.0010 1.0000
vn 0.0059 -0.0011 -1.0000
vn -0.0000 0.9990 0.0452
vn 1.0000 0.0018 -0.0000
vn -1.0000 -0.0013 0.0001
vn 0.0000 -0.0021 -1.0000
vn 0.0000 1.0000 -0.0005
vn 0.0025 1.0000 0.0005
vn 1.0000 0.0012 0.0011
vn -1.0000 -0.0012 -0.0050
vn 1.0000 0.0047 -0.0009
vn 0.0002 0.0009 1.0000
s off
f 49/33/21 141/34/21 38/35/21
f 52/36/22 139/37/22 135/38/22
f 52/36/23 133/39/23 87/40/23
f 49/33/24 133/39/24 132/41/24
f 45/42/25 139/37/25 26/43/25
f 46/44/26 137/45/26 79/46/26
f 45/42/27 137/45/27 136/47/27
f 46/44/28 141/34/28 142/48/28
f 49/33/29 132/41/29 141/34/29
f 52/36/25 26/43/25 139/37/25
f 52/36/30 135/38/30 133/39/30
f 49/33/31 87/40/31 133/39/31
f 45/42/32 136/47/32 139/37/32
f 46/44/33 142/48/33 137/45/33
f 45/42/34 79/46/34 137/45/34
f 46/44/35 38/35/35 141/34/35
s 1
f 68/49/36 42/50/36 40/51/36
f 66/52/37 29/53/37 28/54/37
f 51/55/36 32/56/36 52/57/36
f 60/58/38 88/59/38 27/60/38
f 94/61/39 81/62/39 80/63/39
f 101/64/40 98/65/40 97/66/40
f 76/67/38 68/49/38 40/51/38
f 67/68/41 78/69/41 74/70/41
f 39/71/42 32/72/42 31/73/42
f 53/74/41 64/75/41 59/76/41
f 153/77/43 138/78/44 134/79/45
f 88/59/36 29/53/36 27/60/36
f 55/80/41 50/81/41 48/82/41
f 29/53/42 60/58/42 27/60/42
f 77/83/46 29/84/46 73/85/46
f 130/86/47 146/87/48 144/88/49
f 57/89/41 71/90/41 39/71/41
f 43/91/37 44/92/37 45/93/37
f 58/94/36 32/72/36 30/95/36
f 93/96/37 96/97/37 91/98/37
f 52/57/50 48/82/51 50/81/52
f 42/50/42 76/67/42 40/51/42
f 61/99/38 36/100/38 64/75/38
f 28/54/53 65/101/53 66/52/53
f 99/102/42 92/103/42 94/104/42
f 67/68/53 41/105/53 68/49/53
f 100/106/54 85/107/54 98/65/54
f 54/108/36 36/100/36 34/109/36
f 45/93/55 73/85/56 29/84/57
f 99/110/58 80/111/58 86/112/58
f 74/70/37 42/50/37 41/105/37
f 39/71/37 58/94/37 57/89/37
f 53/74/53 34/109/53 61/99/53
f 59/76/42 36/100/42 35/113/42
f 55/80/53 51/55/53 56/114/53
f 30/95/53 57/89/53 58/94/53
f 50/81/38 51/55/38 52/57/38
f 70/115/38 32/72/38 71/90/38
f 69/116/42 80/63/42 81/62/42
f 55/80/59 32/56/59 30/117/59
f 43/91/36 29/84/36 28/118/36
f 157/119/60 150/120/61 37/121/62
f 82/122/42 85/123/42 86/112/42
f 65/101/41 75/124/41 66/52/41
f 69/116/42 91/125/42 63/126/42
f 82/122/42 80/111/42 90/127/42
f 59/76/37 54/108/37 53/74/37
f 77/83/41 44/92/41 72/128/41
f 95/129/37 97/130/37 96/97/37
f 62/131/42 97/130/42 89/132/42
f 84/133/42 85/107/42 83/134/42
f 62/131/42 91/98/42 96/97/42
f 84/133/42 97/66/42 98/65/42
f 100/135/42 99/102/42 102/136/42
f 92/103/42 95/137/42 93/138/42
f 102/139/63 86/112/63 85/123/63
f 92/140/62 91/125/62 81/62/62
f 43/91/53 77/83/53 72/128/53
f 95/137/42 100/135/42 101/141/42
f 154/142/64 138/78/65 127/143/65
f 126/144/66 146/87/67 131/145/67
f 69/116/42 90/146/42 80/63/42
f 82/122/42 83/147/42 85/123/42
f 69/116/42 81/62/42 91/125/42
f 82/122/42 86/112/42 80/111/42
f 62/131/42 96/97/42 97/130/42
f 84/133/42 98/65/42 85/107/42
f 62/131/42 63/148/42 91/98/42
f 84/133/42 89/149/42 97/66/42
f 90/146/68 121/150/69 123/151/68
f 89/149/70 118/152/71 115/153/72
f 83/134/73 118/152/42 84/133/42
f 89/132/74 116/154/75 62/131/75
f 63/126/76 121/150/77 69/116/69
f 116/155/78 114/156/79 119/157/78
f 113/158/80 125/159/81 122/160/82
f 121/161/83 110/162/84 120/163/85
f 113/158/86 124/164/87 112/165/88
f 121/161/89 124/166/90 123/167/91
f 118/168/92 114/169/93 115/170/94
f 116/155/78 110/171/79 111/172/79
f 122/173/95 117/174/96 118/168/62
f 151/175/97 119/176/98 114/177/99
f 83/147/100 113/178/42 122/179/100
f 109/180/101 112/181/102 104/182/102
f 152/183/103 120/184/104 110/185/105
f 108/186/106 112/181/107 124/187/108
f 90/127/109 113/178/110 82/122/111
f 108/188/112 120/184/113 107/189/113
f 151/190/114 117/191/115 105/192/53
f 152/193/116 119/176/117 106/194/118
f 109/195/119 117/191/120 125/196/119
f 63/148/121 116/154/75 111/197/121
f 158/198/122 126/199/123 156/200/124
f 159/201/125 128/202/126 157/203/127
f 160/204/128 129/205/129 158/198/130
f 153/77/131 143/206/132 129/207/133
f 138/208/38 135/209/134 134/210/135
f 145/211/136 133/212/137 138/208/138
f 146/213/139 136/214/140 137/215/37
f 134/210/141 139/216/142 143/217/143
f 144/218/144 141/219/145 140/220/145
f 143/217/36 136/214/146 147/221/147
f 141/219/148 145/211/149 140/220/150
f 137/215/151 144/218/152 146/213/153
f 126/144/77 143/206/154 147/222/77
f 130/86/155 140/223/156 128/224/156
f 154/142/157 140/223/158 145/225/159
f 149/226/160 161/227/161 162/228/162
f 160/204/163 127/229/164 153/230/165
f 159/231/166 155/232/167 163/233/168
f 156/200/169 131/234/170 163/235/171
f 47/236/172 163/233/171 155/232/173
f 130/237/174 163/235/168 131/234/175
f 148/238/176 162/228/177 160/239/163
f 127/229/178 161/240/161 154/241/179
f 148/238/180 158/242/130 25/243/181
f 159/231/125 37/121/182 33/244/183
f 25/243/184 156/245/124 47/236/185
f 128/202/186 161/240/187 157/203/60
f 68/49/36 41/105/36 42/50/36
f 66/52/37 75/124/37 29/53/37
f 51/55/36 30/117/36 32/56/36
f 60/58/38 65/101/38 88/59/38
f 94/61/39 92/140/39 81/62/39
f 101/64/40 100/106/40 98/65/40
f 76/67/38 67/68/38 68/49/38
f 67/68/41 76/67/41 78/69/41
f 39/71/42 71/90/42 32/72/42
f 53/74/41 61/99/41 64/75/41
f 153/77/43 127/143/188 138/78/44
f 88/59/36 28/54/36 29/53/36
f 55/80/41 56/114/41 50/81/41
f 29/53/42 75/124/42 60/58/42
f 77/83/46 28/118/46 29/84/46
f 130/86/47 131/145/48 146/87/48
f 57/89/41 70/115/41 71/90/41
f 43/91/37 72/128/37 44/92/37
f 58/94/36 31/73/36 32/72/36
f 93/96/37 95/129/37 96/97/37
f 52/57/50 32/56/189 48/82/51
f 42/50/42 78/69/42 76/67/42
f 61/99/38 34/109/38 36/100/38
f 28/54/53 88/59/53 65/101/53
f 99/102/42 103/246/42 92/103/42
f 67/68/53 74/70/53 41/105/53
f 100/106/54 102/247/54 85/107/54
f 54/108/36 35/113/36 36/100/36
f 45/93/55 44/92/52 73/85/56
f 99/110/58 94/248/58 80/111/58
f 74/70/37 78/69/37 42/50/37
f 39/71/37 31/73/37 58/94/37
f 53/74/53 54/108/53 34/109/53
f 59/76/42 64/75/42 36/100/42
f 55/80/53 30/117/53 51/55/53
f 30/95/53 70/115/53 57/89/53
f 50/81/38 56/114/38 51/55/38
f 70/115/38 30/95/38 32/72/38
f 55/80/59 48/82/59 32/56/59
f 43/91/36 45/93/36 29/84/36
f 157/119/60 161/227/187 150/120/61
f 65/101/41 60/58/41 75/124/41
f 59/76/37 35/113/37 54/108/37
f 77/83/41 73/85/41 44/92/41
f 95/129/37 101/249/37 97/130/37
f 100/135/42 103/246/42 99/102/42
f 92/103/42 103/246/42 95/137/42
f 102/139/63 99/110/63 86/112/63
f 92/140/62 93/250/62 91/125/62
f 43/91/53 28/118/53 77/83/53
f 95/137/42 103/246/42 100/135/42
f 154/142/64 145/225/64 138/78/65
f 126/144/66 147/222/66 146/87/67
f 90/146/68 69/116/69 121/150/69
f 89/149/70 84/133/42 118/152/71
f 83/134/73 122/251/73 118/152/42
f 89/132/74 115/252/74 116/154/75
f 63/126/76 111/253/76 121/150/77
f 116/155/78 115/254/79 114/156/79
f 113/158/80 112/165/190 125/159/81
f 121/161/83 111/255/191 110/162/84
f 113/158/86 123/256/192 124/164/87
f 121/161/89 120/163/193 124/166/90
f 118/168/92 117/174/194 114/169/93
f 116/155/78 119/157/78 110/171/79
f 122/173/95 125/257/195 117/174/96
f 151/175/97 106/194/98 119/176/98
f 83/147/100 82/122/111 113/178/42
f 109/180/101 125/258/196 112/181/102
f 152/183/103 107/189/197 120/184/104
f 108/186/106 104/182/198 112/181/107
f 90/127/109 123/259/199 113/178/110
f 108/188/112 124/260/112 120/184/113
f 151/190/114 114/261/114 117/191/115
f 152/193/116 110/262/200 119/176/117
f 109/195/119 105/192/120 117/191/120
f 63/148/121 62/131/75 116/154/75
f 158/198/122 129/205/201 126/199/123
f 159/201/125 130/237/202 128/202/126
f 160/204/128 153/263/203 129/205/129
f 153/77/131 134/79/204 143/206/132
f 138/208/38 133/212/38 135/209/134
f 145/211/136 132/264/205 133/212/137
f 146/213/139 147/221/206 136/214/140
f 134/210/141 135/209/207 139/216/142
f 144/218/144 142/265/144 141/219/145
f 143/217/36 139/216/36 136/214/146
f 141/219/148 132/264/149 145/211/149
f 137/215/151 142/265/152 144/218/152
f 126/144/77 129/207/208 143/206/154
f 130/86/155 144/88/155 140/223/156
f 154/142/157 128/224/209 140/223/158
f 149/226/160 150/120/210 161/227/161
f 160/204/163 162/266/177 127/229/164
f 159/231/166 33/244/211 155/232/167
f 156/200/169 126/199/140 131/234/170
f 47/236/172 156/245/169 163/233/171
f 130/237/174 159/201/166 163/235/168
f 148/238/176 149/226/212 162/228/177
f 127/229/178 162/266/162 161/240/161
f 148/238/180 160/239/128 158/242/130
f 159/231/125 157/119/127 37/121/182
f 25/243/184 158/242/122 156/245/124
f 128/202/186 154/241/213 161/240/187
