# Blender v2.90.0 Alpha OBJ File: 'Ship.blend'
# www.blender.org
o Cube.003_Cube.001_Cube.003_Cube.004
v -4.323202 13.142854 -2.684727
v -4.513776 13.958003 -3.663504
v -3.562376 14.188009 -2.684724
v -4.907965 15.644088 -2.684722
v -4.544846 14.090899 -1.705944
v -5.469602 13.746928 -2.684725
v -2.867632 6.097806 -1.790317
v -1.929780 6.097806 -2.730825
v -4.184888 14.009161 -2.704390
v -4.509549 13.980582 -2.363923
v -3.807328 6.097806 -2.730825
v -4.831118 13.860475 -2.686566
v -4.514518 13.923537 -3.027033
v -2.867632 6.097806 -3.671336
v -5.412132 15.736940 -5.890071
v -3.328870 16.564880 -5.079610
v -3.479806 14.164404 -6.772677
v -8.075853 15.280601 -2.249186
v -7.375769 15.839001 -4.465987
v -8.499890 13.210993 -3.772490
v -8.657336 13.482856 -0.940660
v -8.354838 12.745604 -3.234355
v -9.425041 9.643752 -2.039092
v -4.641686 16.562220 0.425228
v -6.839915 16.291096 -0.375076
v -5.835631 14.993064 1.332774
v -3.023660 15.404021 1.423863
v -5.185724 14.574322 1.302335
v -3.240936 11.508945 3.045718
v -1.936989 16.880901 -3.191242
v -2.780179 16.913399 -0.973726
v -0.603476 15.057092 -1.666159
v -6.233785 16.124456 -3.875980
v -6.676274 15.751615 -2.356121
v -5.711706 14.521259 -4.995598
v -4.108827 14.615334 -5.206874
v -3.928722 13.710075 -6.718689
v -6.351462 14.004979 -6.865456
v -4.473744 10.801321 -8.485434
v -3.907482 16.448086 -3.902627
v -5.330532 15.858706 -4.418377
v -2.623353 15.876009 -3.759485
v -2.346643 15.655438 -2.175161
v -0.668230 15.000316 -2.210047
v -0.714336 15.942436 -4.501744
v 1.661540 12.875340 -3.400621
v -3.930355 16.662971 -1.563734
v -3.374757 16.552015 -3.083593
v -5.370719 15.248540 -0.237722
v -3.800864 15.476924 -0.445250
v -6.227002 16.212503 -1.537087
v -4.701246 16.362579 -1.021337
v -7.059776 13.941122 -3.262062
v -6.917310 14.248831 -1.680670
v -4.682444 14.684379 -2.719859
v -2.034238 1.812384 -2.730828
v -3.222661 1.997772 -3.932624
v -4.407813 2.183159 -2.730828
v -3.222661 1.997771 -1.529033
v -4.727017 -2.927977 -1.297462
v -3.314601 -2.927977 -2.730830
v -4.727017 -2.927977 -4.164199
v -6.139436 -2.927977 -2.730829
v -0.991064 13.142854 4.564991
v -1.290796 13.958002 3.613948
v -0.235090 14.188009 4.479199
v -1.572096 15.644088 4.630939
v -1.100919 14.090899 5.562526
v -2.130150 13.746928 4.694270
v 0.556082 6.097806 5.289556
v 1.381893 6.097806 4.249288
v -0.855849 14.009161 4.529857
v -1.140046 13.980582 4.904764
v -0.483679 6.097806 4.461014
v -1.495947 13.860475 4.620441
v -1.219760 13.923536 4.246443
v 0.343965 6.097806 3.420535
v -2.434505 15.736940 1.502889
v -0.273138 16.564880 2.073256
v -0.614033 14.164404 0.408010
v -4.670663 15.280601 5.420929
v -4.225026 15.839000 3.139322
v -5.263774 13.210992 3.955159
v -5.100880 13.482856 6.786681
v -5.058963 12.745603 4.473504
v -5.987555 9.643752 5.781826
v -0.956816 16.562218 7.691025
v -3.231272 16.291094 7.143713
v -2.040804 14.993064 8.727419
v 0.763502 15.404021 8.500831
v -1.398475 14.574322 8.623884
v 0.730504 11.508945 10.136840
v 1.322810 16.880901 3.792621
v 0.735061 16.913397 6.091078
v 2.819796 15.057092 5.157601
v -3.023793 16.124456 3.596788
v -3.292070 15.751615 5.156851
v -2.631301 14.521259 2.425438
v -1.062470 14.615334 2.034758
v -1.053997 13.710075 0.512276
v -3.477834 14.004979 0.639650
v -1.794773 10.801321 -1.181738
v -0.715334 16.448086 3.307981
v -2.187467 15.858705 2.955994
v 0.576746 15.876008 3.305403
v 1.030350 15.655438 4.848417
v 2.694124 15.000316 4.624484
v 2.389885 15.942436 2.352604
v 4.874775 12.875339 3.178783
v -0.474312 16.662971 5.634535
v -0.093647 16.552015 4.061717
v -1.755958 15.248540 7.114514
v -0.219518 15.476924 6.731283
v -2.753304 16.212502 5.919997
v -1.179121 16.362577 6.260403
v -3.775286 13.941121 4.299934
v -3.455400 14.248831 5.855174
v -1.351975 14.684379 4.570595
v 1.278101 1.812384 4.261065
v -0.038264 1.997772 3.200950
v -1.080334 2.183159 4.528727
v 0.232782 1.997770 5.589210
v -1.235865 -2.927978 5.988946
v 0.005905 -2.927977 4.405446
v -1.559138 -2.927977 3.140493
v -2.800911 -2.927977 4.723995
v 4.449124 13.142854 -1.364123
v 4.036792 13.958002 -2.272035
v 5.189216 14.188009 -1.540536
v 3.880300 15.644088 -1.228526
v 4.460477 14.090899 -0.360623
v 3.333971 13.746928 -1.098301
v 6.072414 6.097806 -0.831599
v 6.766625 6.097806 -1.963939
v 4.579109 14.009161 -1.415322
v 4.342243 13.980582 -1.008853
v 4.940250 6.097806 -1.528583
v 3.954626 13.860475 -1.248139
v 4.183651 13.923536 -1.652739
v 5.636255 6.097806 -2.661353
v 2.646635 15.736940 -4.229613
v 4.861045 16.564880 -3.924296
v 4.321644 14.164404 -5.536220
v 0.899740 15.280601 -0.070309
v 1.066725 15.839000 -2.389025
v 0.134046 13.210992 -1.453774
v 0.637518 13.482856 1.337384
v 0.399924 12.745603 -0.963939
v -0.363962 9.643752 0.446900
v 4.860439 16.562220 1.734921
v 2.536551 16.291096 1.466142
v 3.909470 14.993064 2.894577
v 6.665924 15.404021 2.331161
v 4.534607 14.574322 2.714270
v 6.830636 11.508945 3.959192
v 6.652854 16.880901 -2.410136
v 6.346829 16.913399 -0.057541
v 8.303652 15.057092 -1.235824
v 2.314393 16.124456 -2.079895
v 2.236380 15.751615 -0.498856
v 2.562631 14.521259 -3.290055
v 4.072837 14.615334 -3.867239
v 3.897482 13.710075 -5.379612
v 1.506740 14.004979 -4.960608
v 2.957651 10.801321 -6.971829
v 4.571115 16.448086 -2.645225
v 3.067260 15.858705 -2.816950
v 5.853437 15.876008 -2.803741
v 6.489968 15.655438 -1.326758
v 8.114550 15.000316 -1.749874
v 7.538315 15.942436 -3.968422
v 10.104759 12.875340 -3.448214
v 5.091194 16.662971 -0.364772
v 5.279234 16.552015 -1.972038
v 3.997555 15.248540 1.259083
v 5.476504 15.476924 0.693203
v 2.863319 16.212503 0.193681
v 4.467082 16.362579 0.341591
v 1.653265 13.941121 -1.291182
v 2.158533 14.248831 0.214076
v 4.091528 14.684379 -1.314999
v 6.665014 1.812384 -1.939720
v 5.230316 1.997772 -2.833197
v 4.356130 2.183159 -1.389348
v 5.787647 1.997770 -0.495113
v 4.377987 -2.927978 0.078968
v 5.419547 -2.927978 -1.642838
v 3.713264 -2.927977 -2.709639
v 2.671702 -2.927978 -0.987831
vt 0.195312 0.898438
vt 0.195312 0.898438
vt 0.195312 0.898438
vt 0.195312 0.898438
vt 0.195312 0.898438
vt 0.195312 0.898438
vt 0.195312 0.898438
vt 0.195312 0.898438
vt 0.195312 0.898438
vt 0.195312 0.898438
vt 0.195312 0.898438
vt 0.195312 0.898438
vt 0.195312 0.898438
vt 0.195312 0.898438
vt 0.195312 0.898438
vt 0.195312 0.898438
vt 0.195312 0.898438
vt 0.195312 0.898438
vt 0.179688 0.882812
vt 0.179688 0.882812
vt 0.179688 0.882812
vt 0.179688 0.882812
vt 0.179688 0.882812
vt 0.179688 0.882812
vt 0.179688 0.882812
vt 0.179688 0.882812
vt 0.257812 0.835938
vt 0.257812 0.835938
vt 0.257812 0.835938
vt 0.257812 0.835938
vt 0.257812 0.835938
vt 0.257812 0.835938
vt 0.257812 0.835938
vt 0.257812 0.835938
vt 0.257812 0.835938
vt 0.257812 0.835938
vt 0.257812 0.835938
vt 0.257812 0.835938
vt 0.257812 0.835938
vt 0.257812 0.835938
vt 0.257812 0.835938
vt 0.257812 0.835938
vt 0.257812 0.835938
vt 0.257812 0.835938
vt 0.257812 0.835938
vt 0.257812 0.835938
vt 0.257812 0.835938
vt 0.257812 0.835938
vt 0.257812 0.835938
vt 0.257812 0.835938
vt 0.257812 0.835938
vt 0.257812 0.835938
vt 0.257812 0.835938
vt 0.257812 0.835938
vt 0.257812 0.835938
vt 0.257812 0.835938
vt 0.257812 0.835938
vt 0.257812 0.835938
vt 0.257812 0.835938
vt 0.257812 0.835938
vt 0.257812 0.835938
vt 0.257812 0.835938
vt 0.257812 0.835938
vt 0.257812 0.835938
vt 0.257812 0.835938
vt 0.257812 0.835938
vt 0.257812 0.835938
vt 0.179688 0.882812
vt 0.179688 0.882812
vt 0.179688 0.882812
vt 0.179688 0.882812
vt 0.179688 0.882812
vt 0.179688 0.882812
vt 0.179688 0.882812
vt 0.179688 0.882812
vt 0.179688 0.882812
vt 0.179688 0.882812
vt 0.179688 0.882812
vt 0.179688 0.882812
vt 0.179688 0.882812
vt 0.179688 0.882812
vt 0.179688 0.882812
vt 0.179688 0.882812
vt 0.257812 0.835938
vt 0.257812 0.835938
vt 0.257812 0.835938
vt 0.257812 0.835938
vt 0.257812 0.835938
vt 0.257812 0.835938
vt 0.257812 0.835938
vt 0.257812 0.835938
vt 0.257812 0.835938
vt 0.257812 0.835938
vt 0.257812 0.835938
vt 0.257812 0.835938
vt 0.257812 0.835938
vt 0.257812 0.835938
vt 0.257812 0.835938
vt 0.257812 0.835938
vt 0.257812 0.835938
vt 0.257812 0.835938
vt 0.257812 0.835938
vt 0.257812 0.835938
vt 0.257812 0.835938
vt 0.257812 0.835938
vt 0.257812 0.835938
vt 0.257812 0.835938
vt 0.257812 0.835938
vt 0.257812 0.835938
vt 0.257812 0.835938
vt 0.257812 0.835938
vt 0.257812 0.835938
vt 0.257812 0.835938
vt 0.257812 0.835938
vt 0.257812 0.835938
vt 0.257812 0.835938
vt 0.257812 0.835938
vt 0.257812 0.835938
vt 0.257812 0.835938
vt 0.257812 0.835938
vt 0.257812 0.835938
vt 0.257812 0.835938
vt 0.257812 0.835938
vt 0.257812 0.835938
vt 0.179688 0.882812
vt 0.179688 0.882812
vt 0.179688 0.882812
vt 0.179688 0.882812
vt 0.179688 0.882812
vt 0.179688 0.882812
vt 0.179688 0.882812
vt 0.179688 0.882812
vt 0.179688 0.882812
vt 0.179688 0.882812
vt 0.179688 0.882812
vt 0.179688 0.882812
vt 0.179688 0.882812
vt 0.179688 0.882812
vt 0.179688 0.882812
vt 0.179688 0.882812
vt 0.257812 0.835938
vt 0.257812 0.835938
vt 0.257812 0.835938
vt 0.257812 0.835938
vt 0.257812 0.835938
vt 0.257812 0.835938
vt 0.257812 0.835938
vt 0.257812 0.835938
vt 0.257812 0.835938
vt 0.257812 0.835938
vt 0.257812 0.835938
vt 0.257812 0.835938
vt 0.257812 0.835938
vt 0.257812 0.835938
vt 0.257812 0.835938
vt 0.257812 0.835938
vt 0.257812 0.835938
vt 0.257812 0.835938
vt 0.257812 0.835938
vt 0.257812 0.835938
vt 0.257812 0.835938
vt 0.257812 0.835938
vt 0.257812 0.835938
vt 0.257812 0.835938
vt 0.257812 0.835938
vt 0.257812 0.835938
vt 0.257812 0.835938
vt 0.257812 0.835938
vt 0.257812 0.835938
vt 0.257812 0.835938
vt 0.257812 0.835938
vt 0.257812 0.835938
vt 0.257812 0.835938
vt 0.257812 0.835938
vt 0.257812 0.835938
vt 0.257812 0.835938
vt 0.257812 0.835938
vt 0.257812 0.835938
vt 0.257812 0.835938
vt 0.257812 0.835938
vt 0.257812 0.835938
vt 0.179688 0.882812
vt 0.179688 0.882812
vt 0.179688 0.882812
vt 0.179688 0.882812
vt 0.179688 0.882812
vt 0.179688 0.882812
vt 0.179688 0.882812
vt 0.179688 0.882812
vn 0.6786 -0.4940 -0.5435
vn 0.6562 0.3183 0.6842
vn 0.3441 0.8141 0.4677
vn 0.6577 0.3185 0.6826
vn 0.6458 -0.4701 0.6016
vn -0.7303 -0.0055 0.6831
vn -0.6684 0.5778 0.4684
vn -0.7289 -0.0051 0.6846
vn -0.3727 -0.7073 0.6007
vn -0.7119 -0.0159 -0.7021
vn -0.6465 0.5730 -0.5037
vn -0.7146 -0.0165 -0.6994
vn -0.3916 -0.7431 -0.5426
vn 0.6485 0.3017 -0.6989
vn 0.3267 0.8002 -0.5030
vn 0.6458 0.3011 -0.7017
vn 0.6130 -0.4940 -0.6166
vn 0.7292 0.3183 0.6058
vn 0.3947 0.8141 0.4259
vn 0.7305 0.3185 0.6041
vn 0.7095 -0.4701 0.5249
vn -0.6486 -0.0055 0.7611
vn -0.6113 0.5778 0.5408
vn -0.6470 -0.0051 0.7624
vn -0.3026 -0.7073 0.6389
vn -0.7865 -0.0159 -0.6174
vn -0.6992 0.5730 -0.4276
vn -0.7889 -0.0165 -0.6143
vn -0.4503 -0.7431 -0.4950
vn 0.5655 0.3017 -0.7676
vn 0.2679 0.8002 -0.5366
vn 0.5625 0.3011 -0.7700
vn 0.5341 -0.4940 -0.6861
vn 0.7969 0.3183 0.5134
vn 0.4432 0.8141 0.3752
vn 0.7981 0.3185 0.5115
vn 0.7677 -0.4701 0.4355
vn -0.5520 -0.0055 0.8338
vn -0.5416 0.5778 0.6106
vn -0.5503 -0.0051 0.8350
vn -0.2233 -0.7073 0.6707
vn -0.8553 -0.0159 -0.5179
vn -0.7457 0.5730 -0.3401
vn -0.8573 -0.0165 -0.5146
vn -0.5067 -0.7431 -0.4371
vn 0.4688 0.3017 -0.8302
vn 0.2012 0.8002 -0.5650
vn 0.4655 0.3011 -0.8323
vn 0.6920 0.1888 0.6968
vn 0.6918 0.1890 0.6969
vn 0.7063 0.2003 0.6790
vn 0.7066 0.1992 0.6790
vn -0.7027 -0.0980 -0.7047
vn -0.7201 -0.0895 -0.6881
vn -0.7200 -0.0898 -0.6881
vn -0.7024 -0.0974 -0.7051
vn -0.1597 0.8861 -0.4351
vn -0.0300 0.9168 -0.3981
vn 0.0985 0.5522 -0.8279
vn -0.6370 0.7701 -0.0324
vn -0.5989 0.7838 -0.1642
vn -0.9251 0.3176 -0.2080
vn -0.7223 0.6413 -0.2588
vn -0.7794 0.4988 -0.3791
vn -0.9528 0.2262 -0.2027
vn -0.2099 0.9545 0.2119
vn -0.3521 0.9124 0.2087
vn -0.3305 0.6313 0.7016
vn -0.2851 0.7666 0.5753
vn -0.3954 0.6725 0.6257
vn -0.1927 0.3666 0.9102
vn 0.1941 0.9783 0.0726
vn 0.1675 0.9636 0.2085
vn 0.6884 0.6814 0.2487
vn -0.0435 0.9711 0.2346
vn 0.1061 0.9603 0.2581
vn -0.1101 0.9905 -0.0818
vn 0.1814 0.9833 0.0109
vn 0.0838 0.8109 -0.5791
vn -0.0688 0.7646 -0.6408
vn 0.1155 0.4806 -0.8693
vn -0.4357 0.8810 0.1846
vn -0.4462 0.8335 0.3259
vn -0.1406 0.9807 0.1362
vn -0.2099 0.8824 0.4210
vn 0.4006 0.8702 0.2869
vn 0.4578 0.8796 0.1293
vn 0.7345 0.6310 0.2497
vn -0.4270 0.8792 -0.2114
vn -0.5528 0.8002 -0.2327
vn -0.2196 0.9746 0.0431
vn -0.2567 0.9620 -0.0935
vn 0.0172 0.9474 -0.3197
vn 0.0521 0.8902 -0.4525
vn -0.7046 -0.1022 0.7022
vn -0.7048 -0.1019 0.7021
vn -0.6896 -0.0896 0.7187
vn -0.6898 -0.0889 0.7185
vn 0.6918 0.1929 -0.6959
vn 0.6916 0.1923 -0.6963
vn 0.6733 0.2005 -0.7117
vn 0.6732 0.1997 -0.7120
vn -0.3900 0.8963 -0.2110
vn -0.2522 0.9351 -0.2490
vn -0.1807 0.9283 -0.3250
vn 0.1388 0.7598 -0.6352
vn 0.4209 0.8470 0.3246
vn -0.0525 0.9794 -0.1951
vn 0.0057 0.9185 0.3954
vn -0.4789 0.6493 0.5908
vn -0.6106 0.7601 0.2224
vn -0.7582 0.5693 -0.3177
vn 0.7012 -0.0161 -0.7127
vn 0.7088 -0.0063 -0.7054
vn 0.7163 -0.0170 -0.6976
vn 0.7080 -0.0277 -0.7057
vn -0.7087 0.1069 -0.6974
vn -0.7004 0.1174 -0.7040
vn -0.6936 0.1061 -0.7125
vn -0.7026 0.0962 -0.7051
vn -0.6942 0.1057 0.7120
vn -0.6999 0.1169 0.7046
vn -0.7085 0.1081 0.6974
vn -0.7032 0.0967 0.7044
vn 0.7163 -0.0174 0.6976
vn 0.7098 -0.0068 0.7044
vn 0.7019 -0.0150 0.7121
vn 0.7079 -0.0273 0.7058
vn 0.7003 -0.1851 0.6894
vn 0.6961 -0.1734 0.6967
vn 0.6865 -0.1806 0.7043
vn 0.6911 -0.1933 0.6964
vn 0.6859 -0.1810 -0.7048
vn 0.6953 -0.1726 -0.6977
vn 0.7005 -0.1839 -0.6896
vn 0.6912 -0.1937 -0.6962
vn -0.6907 0.2378 -0.6829
vn -0.6808 0.2467 -0.6896
vn -0.6761 0.2351 -0.6983
vn -0.6856 0.2262 -0.6920
vn -0.6770 0.2341 0.6977
vn -0.6805 0.2464 0.6901
vn -0.6905 0.2383 0.6830
vn -0.6863 0.2265 0.6912
vn 0.7662 0.1888 0.6143
vn 0.7660 0.1890 0.6144
vn 0.7784 0.2003 0.5950
vn 0.7787 0.1992 0.5950
vn -0.7777 -0.0980 -0.6210
vn -0.7931 -0.0895 -0.6025
vn -0.7930 -0.0898 -0.6025
vn -0.7774 -0.0974 -0.6214
vn -0.2078 0.8861 -0.4143
vn -0.0747 0.9168 -0.3922
vn 0.0045 0.5522 -0.8337
vn -0.6366 0.7701 0.0396
vn -0.6136 0.7838 -0.0956
vn -0.9427 0.3176 -0.1024
vn -0.7469 0.6413 -0.1757
vn -0.8172 0.4988 -0.2888
vn -0.9695 0.2262 -0.0940
vn -0.1847 0.9545 0.2342
vn -0.3263 0.9124 0.2471
vn -0.2493 0.6313 0.7344
vn -0.2184 0.7666 0.6038
vn -0.3223 0.6725 0.6663
vn -0.0888 0.3666 0.9261
vn 0.2011 0.9783 0.0502
vn 0.1899 0.9636 0.1883
vn 0.7120 0.6814 0.1695
vn -0.0167 0.9711 0.2380
vn 0.1345 0.9603 0.2445
vn -0.1186 0.9905 -0.0689
vn 0.1815 0.9833 -0.0096
vn 0.0180 0.8109 -0.5849
vn -0.1406 0.7646 -0.6290
vn 0.0167 0.4806 -0.8768
vn -0.4121 0.8810 0.2325
vn -0.4066 0.8335 0.3741
vn -0.1244 0.9807 0.1512
vn -0.1611 0.8824 0.4420
vn 0.4304 0.8702 0.2399
vn 0.4695 0.8796 0.0769
vn 0.7580 0.6310 0.1653
vn -0.4481 0.8792 -0.1619
vn -0.5755 0.8002 -0.1689
vn -0.2133 0.9746 0.0676
vn -0.2656 0.9620 -0.0639
vn -0.0190 0.9474 -0.3196
vn 0.0007 0.8902 -0.4555
vn -0.6209 -0.1022 0.7772
vn -0.6211 -0.1019 0.7771
vn -0.6041 -0.0896 0.7918
vn -0.6044 -0.0889 0.7917
vn 0.6089 0.1929 -0.7694
vn 0.6086 0.1923 -0.7698
vn 0.5887 0.2005 -0.7831
vn 0.5886 0.1997 -0.7834
vn -0.4113 0.8963 -0.1657
vn -0.2787 0.9351 -0.2190
vn -0.2162 0.9283 -0.3026
vn 0.0663 0.7598 -0.6468
vn 0.4549 0.8470 0.2751
vn -0.0742 0.9794 -0.1879
vn 0.0503 0.9185 0.3922
vn -0.4092 0.6493 0.6410
vn -0.5816 0.7601 0.2898
vn -0.7892 0.5693 -0.2302
vn 0.6164 -0.0161 -0.7873
vn 0.6247 -0.0063 -0.7808
vn 0.6330 -0.0170 -0.7739
vn 0.6239 -0.0277 -0.7810
vn -0.7828 0.1069 -0.6130
vn -0.7753 0.1174 -0.6205
vn -0.7695 0.1061 -0.6298
vn -0.7776 0.0962 -0.6214
vn -0.6095 0.1057 0.7857
vn -0.6160 0.1169 0.7790
vn -0.6253 0.1081 0.7728
vn -0.6193 0.0967 0.7792
vn 0.7904 -0.0174 0.6124
vn 0.7847 -0.0068 0.6199
vn 0.7777 -0.0150 0.6284
vn 0.7830 -0.0273 0.6215
vn 0.7736 -0.1851 0.6060
vn 0.7702 -0.1734 0.6138
vn 0.7616 -0.1806 0.6224
vn 0.7652 -0.1933 0.6140
vn 0.6021 -0.1810 -0.7777
vn 0.6122 -0.1726 -0.7717
vn 0.6182 -0.1839 -0.7642
vn 0.6083 -0.1937 -0.7697
vn -0.7633 0.2378 -0.6007
vn -0.7543 0.2467 -0.6085
vn -0.7505 0.2351 -0.6176
vn -0.7592 0.2262 -0.6103
vn -0.5940 0.2341 0.7696
vn -0.5983 0.2464 0.7624
vn -0.6090 0.2383 0.7565
vn -0.6040 0.2265 0.7642
vn 0.8347 0.1888 0.5173
vn 0.8346 0.1890 0.5175
vn 0.8445 0.2003 0.4967
vn 0.8448 0.1992 0.4967
vn -0.8470 -0.0980 -0.5226
vn -0.8600 -0.0895 -0.5024
vn -0.8599 -0.0898 -0.5024
vn -0.8467 -0.0974 -0.5230
vn -0.2562 0.8861 -0.3862
vn -0.1215 0.9168 -0.3803
vn -0.0962 0.5522 -0.8282
vn -0.6272 0.7701 0.1162
vn -0.6206 0.7838 -0.0208
vn -0.9481 0.3176 0.0122
vn -0.7626 0.6413 -0.0843
vn -0.8461 0.4988 -0.1880
vn -0.9738 0.2262 0.0237
vn -0.1550 0.9545 0.2548
vn -0.2941 0.9124 0.2847
vn -0.1588 0.6313 0.7591
vn -0.1439 0.7666 0.6257
vn -0.2396 0.6725 0.7003
vn 0.0236 0.3666 0.9301
vn 0.2057 0.9783 0.0256
vn 0.2113 0.9636 0.1640
vn 0.7273 0.6814 0.0823
vn 0.0121 0.9711 0.2383
vn 0.1630 0.9603 0.2265
vn -0.1261 0.9905 -0.0540
vn 0.1790 0.9833 -0.0315
vn -0.0528 0.8109 -0.5828
vn -0.2155 0.7646 -0.6074
vn -0.0892 0.4806 -0.8724
vn -0.3810 0.8810 0.2806
vn -0.3585 0.8335 0.4205
vn -0.1052 0.9807 0.1651
vn -0.1066 0.8824 0.4582
vn 0.4562 0.8702 0.1862
vn 0.4753 0.8796 0.0196
vn 0.7724 0.6310 0.0726
vn -0.4644 0.8792 -0.1066
vn -0.5917 0.8002 -0.0982
vn -0.2036 0.9746 0.0928
vn -0.2714 0.9620 -0.0314
vn -0.0574 0.9474 -0.3150
vn -0.0542 0.8902 -0.4523
vn -0.5226 -0.1022 0.8465
vn -0.5228 -0.1019 0.8464
vn -0.5041 -0.0896 0.8590
vn -0.5044 -0.0889 0.8589
vn 0.5116 0.1929 -0.8373
vn 0.5113 0.1923 -0.8376
vn 0.4899 0.2005 -0.8484
vn 0.4898 0.1997 -0.8487
vn -0.4283 0.8963 -0.1148
vn -0.3030 0.9351 -0.1837
vn -0.2511 0.9283 -0.2743
vn -0.0123 0.7598 -0.6501
vn 0.4847 0.8470 0.2182
vn -0.0963 0.9794 -0.1776
vn 0.0972 0.9185 0.3833
vn -0.3289 0.6493 0.6857
vn -0.5424 0.7601 0.3579
vn -0.8112 0.5693 -0.1332
vn 0.5169 -0.0161 -0.8559
vn 0.5259 -0.0063 -0.8505
vn 0.5350 -0.0170 -0.8447
vn 0.5251 -0.0277 -0.8506
vn -0.8511 0.1069 -0.5140
vn -0.8446 0.1174 -0.5224
vn -0.8399 0.1061 -0.5323
vn -0.8469 0.0962 -0.5230
vn -0.5102 0.1057 0.8535
vn -0.5174 0.1169 0.8477
vn -0.5275 0.1081 0.8427
vn -0.5207 0.0967 0.8482
vn 0.8585 -0.0174 0.5125
vn 0.8538 -0.0068 0.5206
vn 0.8479 -0.0150 0.5300
vn 0.8523 -0.0273 0.5224
vn 0.8411 -0.1851 0.5082
vn 0.8387 -0.1734 0.5163
vn 0.8311 -0.1806 0.5259
vn 0.8338 -0.1933 0.5172
vn 0.5038 -0.1810 -0.8446
vn 0.5146 -0.1726 -0.8399
vn 0.5215 -0.1839 -0.8332
vn 0.5109 -0.1937 -0.8375
vn -0.8302 0.2378 -0.5042
vn -0.8222 0.2467 -0.5130
vn -0.8196 0.2351 -0.5225
vn -0.8273 0.2262 -0.5141
vn -0.4968 0.2341 0.8357
vn -0.5019 0.2464 0.8291
vn -0.5133 0.2383 0.8245
vn -0.5073 0.2265 0.8315
s off
f 1/1/1 2/2/1 3/3/1
f 3/3/2 4/4/3 5/5/4
f 1/1/5 3/3/5 5/5/5
f 5/5/6 4/4/7 6/6/8
f 1/1/9 5/5/9 6/6/9
f 6/6/10 4/4/11 2/2/12
f 1/1/13 6/6/13 2/2/13
f 2/2/14 4/4/15 3/3/16
f 64/7/17 65/8/17 66/9/17
f 66/9/18 67/10/19 68/11/20
f 64/7/21 66/9/21 68/11/21
f 68/11/22 67/10/23 69/12/24
f 64/7/25 68/11/25 69/12/25
f 69/12/26 67/10/27 65/8/28
f 64/7/29 69/12/29 65/8/29
f 65/8/30 67/10/31 66/9/32
f 127/13/33 128/14/33 129/15/33
f 129/15/34 130/16/35 131/17/36
f 127/13/37 129/15/37 131/17/37
f 131/17/38 130/16/39 132/18/40
f 127/13/41 131/17/41 132/18/41
f 132/18/42 130/16/43 128/14/44
f 127/13/45 132/18/45 128/14/45
f 128/14/46 130/16/47 129/15/48
s 1
f 7/19/49 8/20/50 9/21/51 10/22/52
f 11/23/53 12/24/54 13/25/55 14/26/56
f 15/27/57 16/28/58 17/29/59
f 18/30/60 19/31/61 20/32/62
f 21/33/63 22/34/64 23/35/65
f 24/36/66 25/37/67 26/38/68
f 27/39/69 28/40/70 29/41/71
f 30/42/72 31/43/73 32/44/74
f 33/45/75 19/31/61 18/30/60 34/46/76
f 35/47/77 36/48/78 37/49/79 38/50/80
f 38/50/80 37/49/79 39/51/81
f 40/52/82 16/28/58 15/27/57 41/53/83
f 42/54/84 43/55/85 44/56/86 45/57/87
f 45/57/87 44/56/86 46/58/88
f 47/59/89 31/43/73 30/42/72 48/60/90
f 49/61/91 28/40/70 27/39/69 50/62/92
f 51/63/93 25/37/67 24/36/66 52/64/94
f 11/23/95 7/19/96 10/22/97 12/24/98
f 8/20/99 14/26/100 13/25/101 9/21/102
f 53/65/103 22/34/64 21/33/63 54/66/104
f 55/67/105 49/61/91 50/62/92
f 55/67/106 51/63/93 52/64/94
f 55/67/107 33/45/75 34/46/76
f 55/67/108 53/65/103 54/66/104
f 55/67/109 36/48/78 35/47/77
f 55/67/110 40/52/82 41/53/83
f 55/67/111 43/55/85 42/54/84
f 55/67/112 47/59/89 48/60/90
f 14/26/113 8/20/114 56/68/115 57/69/116
f 11/23/117 14/26/118 57/69/119 58/70/120
f 7/19/121 11/23/122 58/70/123 59/71/124
f 8/20/125 7/19/126 59/71/127 56/68/128
f 56/68/129 59/71/130 60/72/131 61/73/132
f 57/69/133 56/68/134 61/73/135 62/74/136
f 58/70/137 57/69/138 62/74/139 63/75/140
f 59/71/141 58/70/142 63/75/143 60/72/144
f 70/76/145 71/77/146 72/78/147 73/79/148
f 74/80/149 75/81/150 76/82/151 77/83/152
f 78/84/153 79/85/154 80/86/155
f 81/87/156 82/88/157 83/89/158
f 84/90/159 85/91/160 86/92/161
f 87/93/162 88/94/163 89/95/164
f 90/96/165 91/97/166 92/98/167
f 93/99/168 94/100/169 95/101/170
f 96/102/171 82/88/157 81/87/156 97/103/172
f 98/104/173 99/105/174 100/106/175 101/107/176
f 101/107/176 100/106/175 102/108/177
f 103/109/178 79/85/154 78/84/153 104/110/179
f 105/111/180 106/112/181 107/113/182 108/114/183
f 108/114/183 107/113/182 109/115/184
f 110/116/185 94/100/169 93/99/168 111/117/186
f 112/118/187 91/97/166 90/96/165 113/119/188
f 114/120/189 88/94/163 87/93/162 115/121/190
f 74/80/191 70/76/192 73/79/193 75/81/194
f 71/77/195 77/83/196 76/82/197 72/78/198
f 116/122/199 85/91/160 84/90/159 117/123/200
f 118/124/201 112/118/187 113/119/188
f 118/124/202 114/120/189 115/121/190
f 118/124/203 96/102/171 97/103/172
f 118/124/204 116/122/199 117/123/200
f 118/124/205 99/105/174 98/104/173
f 118/124/206 103/109/178 104/110/179
f 118/124/207 106/112/181 105/111/180
f 118/124/208 110/116/185 111/117/186
f 77/83/209 71/77/210 119/125/211 120/126/212
f 74/80/213 77/83/214 120/126/215 121/127/216
f 70/76/217 74/80/218 121/127/219 122/128/220
f 71/77/221 70/76/222 122/128/223 119/125/224
f 119/125/225 122/128/226 123/129/227 124/130/228
f 120/126/229 119/125/230 124/130/231 125/131/232
f 121/127/233 120/126/234 125/131/235 126/132/236
f 122/128/237 121/127/238 126/132/239 123/129/240
f 133/133/241 134/134/242 135/135/243 136/136/244
f 137/137/245 138/138/246 139/139/247 140/140/248
f 141/141/249 142/142/250 143/143/251
f 144/144/252 145/145/253 146/146/254
f 147/147/255 148/148/256 149/149/257
f 150/150/258 151/151/259 152/152/260
f 153/153/261 154/154/262 155/155/263
f 156/156/264 157/157/265 158/158/266
f 159/159/267 145/145/253 144/144/252 160/160/268
f 161/161/269 162/162/270 163/163/271 164/164/272
f 164/164/272 163/163/271 165/165/273
f 166/166/274 142/142/250 141/141/249 167/167/275
f 168/168/276 169/169/277 170/170/278 171/171/279
f 171/171/279 170/170/278 172/172/280
f 173/173/281 157/157/265 156/156/264 174/174/282
f 175/175/283 154/154/262 153/153/261 176/176/284
f 177/177/285 151/151/259 150/150/258 178/178/286
f 137/137/287 133/133/288 136/136/289 138/138/290
f 134/134/291 140/140/292 139/139/293 135/135/294
f 179/179/295 148/148/256 147/147/255 180/180/296
f 181/181/297 175/175/283 176/176/284
f 181/181/298 177/177/285 178/178/286
f 181/181/299 159/159/267 160/160/268
f 181/181/300 179/179/295 180/180/296
f 181/181/301 162/162/270 161/161/269
f 181/181/302 166/166/274 167/167/275
f 181/181/303 169/169/277 168/168/276
f 181/181/304 173/173/281 174/174/282
f 140/140/305 134/134/306 182/182/307 183/183/308
f 137/137/309 140/140/310 183/183/311 184/184/312
f 133/133/313 137/137/314 184/184/315 185/185/316
f 134/134/317 133/133/318 185/185/319 182/182/320
f 182/182/321 185/185/322 186/186/323 187/187/324
f 183/183/325 182/182/326 187/187/327 188/188/328
f 184/184/329 183/183/330 188/188/331 189/189/332
f 185/185/333 184/184/334 189/189/335 186/186/336
