# Blender v2.90.0 Alpha OBJ File: 'Decos.blend'
# www.blender.org
o Cube.003_Cube.001_Cube.003_Cube.003
v -0.001122 14.701900 0.035140
v -0.001122 15.813574 -0.943636
v 0.977658 15.813574 0.035144
v -0.001122 17.385715 0.035144
v -0.001122 15.813574 1.013924
v -0.979902 15.813574 0.035143
v 0.000350 -3.153199 0.888472
v 0.899779 -3.153199 -0.010957
v 0.330776 15.628240 0.015478
v 0.008134 15.628240 0.355945
v -0.899080 -3.153199 -0.010957
v -0.332333 15.628240 0.033302
v -0.009691 15.628240 -0.307165
v 0.000350 -3.153199 -0.910387
v -0.473168 19.995298 -3.185388
v 1.748058 20.196226 -2.362349
v 1.288670 25.157501 -4.961347
v -3.185398 20.209755 0.473178
v -2.362359 20.410681 -1.748048
v -4.961359 25.371956 -1.288657
v -4.163427 18.202759 1.787526
v -4.451605 18.303434 -0.570105
v -8.285682 22.108994 0.978337
v 0.473168 20.209747 3.185407
v -1.748058 20.410675 2.362368
v -1.288670 25.371950 4.961371
v 1.787517 18.611162 4.163436
v -0.570115 18.711838 4.451615
v 0.978324 22.517391 8.285693
v 3.185398 20.209751 -0.473159
v 2.362359 20.410677 1.748067
v 4.961359 25.371952 1.288682
v -0.003182 16.688688 -0.564179
v -0.211642 16.508467 0.254312
v -0.291759 15.731176 -0.389208
v 0.535582 15.834965 -0.614150
v 0.570114 18.303432 -4.451596
v -1.787517 18.202757 -4.163418
v -0.978325 22.108997 -8.285670
v 0.564188 16.474234 -0.003173
v -0.254303 16.294012 -0.211633
v 0.389217 16.354036 -0.291750
v 0.614159 16.457825 0.535591
v 4.451605 18.926292 0.570124
v 4.163426 18.825617 -1.787508
v 8.285682 22.731852 -0.978312
v 0.003182 16.688684 0.564197
v 0.211642 16.508463 -0.254294
v -0.535582 16.243370 0.614168
v 0.291759 16.139582 0.389226
v -0.564188 16.688683 0.003191
v 0.254303 16.508461 0.211651
v -0.614159 15.834967 -0.535573
v -0.389217 15.731178 0.291768
vt 0.195312 0.898438
vt 0.195312 0.898438
vt 0.195312 0.898438
vt 0.195312 0.898438
vt 0.195312 0.898438
vt 0.195312 0.898438
vt 0.179688 0.882812
vt 0.179688 0.882812
vt 0.179688 0.882812
vt 0.179688 0.882812
vt 0.179688 0.882812
vt 0.179688 0.882812
vt 0.179688 0.882812
vt 0.179688 0.882812
vt 0.257812 0.835938
vt 0.257812 0.835938
vt 0.257812 0.835938
vt 0.257812 0.835938
vt 0.257812 0.835938
vt 0.257812 0.835938
vt 0.257812 0.835938
vt 0.257812 0.835938
vt 0.257812 0.835938
vt 0.257812 0.835938
vt 0.257812 0.835938
vt 0.257812 0.835938
vt 0.257812 0.835938
vt 0.257812 0.835938
vt 0.257812 0.835938
vt 0.257812 0.835938
vt 0.257812 0.835938
vt 0.257812 0.835938
vt 0.257812 0.835938
vt 0.257812 0.835938
vt 0.257812 0.835938
vt 0.257812 0.835938
vt 0.257812 0.835938
vt 0.257812 0.835938
vt 0.257812 0.835938
vt 0.257812 0.835938
vt 0.257812 0.835938
vt 0.257812 0.835938
vt 0.257812 0.835938
vt 0.257812 0.835938
vt 0.257812 0.835938
vt 0.257812 0.835938
vt 0.257812 0.835938
vt 0.257812 0.835938
vt 0.257812 0.835938
vt 0.257812 0.835938
vt 0.257812 0.835938
vt 0.257812 0.835938
vt 0.257812 0.835938
vt 0.257812 0.835938
vn 0.6003 -0.5285 -0.6003
vn 0.6956 0.1794 0.6956
vn 0.4845 0.7283 0.4846
vn 0.6003 -0.5285 0.6003
vn -0.6956 0.1794 0.6956
vn -0.4845 0.7283 0.4846
vn -0.6003 -0.5285 0.6003
vn -0.6956 0.1794 -0.6956
vn -0.4846 0.7283 -0.4845
vn -0.6003 -0.5285 -0.6003
vn 0.6956 0.1794 -0.6956
vn 0.4846 0.7283 -0.4845
vn 0.7067 0.0135 0.7074
vn 0.7230 0.0227 0.6905
vn 0.7230 0.0227 0.6904
vn -0.7067 0.0150 -0.7074
vn -0.7230 0.0256 -0.6904
vn -0.7066 0.0150 -0.7074
vn -0.3477 0.4296 0.8334
vn -0.2101 0.5051 0.8371
vn 0.8334 0.4296 0.3477
vn 0.8371 0.5051 0.2101
vn 0.6761 0.7350 -0.0512
vn 0.5953 0.7838 -0.1767
vn 0.6762 0.7349 -0.0513
vn 0.3477 0.4296 -0.8334
vn 0.2101 0.5051 -0.8371
vn -0.0512 0.7350 -0.6761
vn -0.1767 0.7838 -0.5953
vn -0.0513 0.7349 -0.6762
vn -0.8334 0.4296 -0.3477
vn -0.8371 0.5051 -0.2101
vn 0.7064 0.6317 0.3193
vn 0.0213 0.8752 0.4833
vn 0.0512 0.7350 0.6761
vn 0.0537 0.7250 0.6867
vn -0.0762 0.7753 0.6270
vn 0.0513 0.7350 0.6761
vn -0.3193 0.6317 0.7064
vn -0.4833 0.8752 0.0213
vn -0.6761 0.7350 0.0512
vn -0.6867 0.7250 0.0537
vn -0.6270 0.7753 -0.0761
vn -0.6762 0.7349 0.0513
vn -0.7064 0.6317 -0.3193
vn -0.0213 0.8752 -0.4833
vn -0.0513 0.7350 -0.6761
vn 0.3193 0.6317 -0.7064
vn -0.7074 0.0135 0.7067
vn -0.6905 0.0225 0.7230
vn -0.6904 0.0225 0.7230
vn 0.7074 0.0151 -0.7067
vn 0.6904 0.0258 -0.7229
vn 0.6904 0.0257 -0.7230
vn 0.4833 0.8752 -0.0213
vn 0.6761 0.7350 -0.0513
s off
f 1/1/1 2/2/1 3/3/1
f 3/3/2 4/4/3 5/5/2
f 1/1/4 3/3/4 5/5/4
f 5/5/5 4/4/6 6/6/5
f 1/1/7 5/5/7 6/6/7
f 6/6/8 4/4/9 2/2/8
f 1/1/10 6/6/10 2/2/10
f 2/2/11 4/4/12 3/3/11
s 1
f 7/7/13 8/8/13 9/9/14 10/10/15
f 11/11/16 12/12/17 13/13/17 14/14/18
f 15/15/19 16/16/20 17/17/19
f 18/18/21 19/19/22 20/20/21
f 21/21/23 22/22/24 23/23/25
f 24/24/26 25/25/27 26/26/26
f 27/27/28 28/28/29 29/29/30
f 30/30/31 31/31/32 32/32/31
f 33/33/33 19/19/22 18/18/21 34/34/21
f 35/35/34 36/36/35 37/37/36 38/38/37
f 38/38/37 37/37/36 39/39/38
f 40/40/39 16/16/20 15/15/19 41/41/19
f 42/42/40 43/43/41 44/44/42 45/45/43
f 45/45/43 44/44/42 46/46/44
f 47/47/45 31/31/32 30/30/31 48/48/31
f 49/49/46 28/28/29 27/27/28 50/50/47
f 51/51/48 25/25/27 24/24/26 52/52/26
f 11/11/49 7/7/49 10/10/50 12/12/51
f 8/8/52 14/14/52 13/13/53 9/9/54
f 53/53/55 22/22/24 21/21/23 54/54/56
