# Blender v2.90.0 Alpha OBJ File: 'Ship.blend'
# www.blender.org
o Cube.003_Cube.001_Cube.003_Cube.003
v -3.996446 19.995298 -0.646952
v -1.775220 20.196226 0.176087
v -2.234608 25.157501 -2.422910
v -6.708676 20.209755 3.011614
v -5.885637 20.410681 0.790388
v -8.484636 25.371956 1.249780
v -7.686705 18.202759 4.325962
v -7.974883 18.303434 1.968331
v -11.808960 22.108994 3.516774
v -3.050110 20.209747 5.723843
v -5.271336 20.410675 4.900804
v -4.811948 25.371948 7.499808
v -1.735761 18.611160 6.701872
v -4.093393 18.711836 6.990050
v -2.544954 22.517389 10.824130
v -0.337880 20.209751 2.065277
v -1.160919 20.410677 4.286503
v 1.438081 25.371952 3.827119
v -3.523278 16.292925 2.538445
v -2.953164 18.303432 -1.913160
v -5.310795 18.202757 -1.624982
v -4.501604 22.108997 -5.747233
v 0.928327 18.926292 3.108560
v 0.640148 18.825617 0.750928
v 4.762404 22.731852 1.560125
v 6.770427 19.995298 0.650841
v 7.498258 20.196226 2.905059
v 9.255737 25.157501 0.936027
v 2.218110 20.209755 0.783917
v 4.472329 20.410681 0.056086
v 2.503291 25.371956 -1.701393
v 0.580420 18.202759 0.828854
v 2.254223 18.303434 -0.856331
v -1.334565 22.108994 -2.910210
v 2.351187 20.209747 5.336233
v 1.623357 20.410675 3.082014
v -0.134127 25.371950 5.051051
v 2.396126 18.611160 6.973923
v 0.710939 18.711838 5.300119
v -1.342945 22.517389 8.888907
v 6.903504 20.209751 5.203156
v 4.649286 20.410675 5.930987
v 6.618317 25.371950 7.688472
v 4.560808 16.292925 2.993536
v 8.410675 18.303432 0.686951
v 6.725491 18.202757 -0.986853
v 10.464554 22.108997 -2.901834
v 6.867392 18.926291 6.843404
v 8.541195 18.825617 5.158217
v 10.456175 22.731850 8.897288
v 1.046539 19.995298 -8.447703
v 2.358769 20.196226 -6.475574
v 3.515983 25.157501 -8.847637
v -3.298852 20.209755 -7.084295
v -1.326723 20.410681 -8.396525
v -3.698788 25.371954 -9.553739
v -4.862897 18.202759 -6.596637
v -3.709193 18.303434 -8.672798
v -7.720665 22.108992 -9.675751
v -1.935443 20.209745 -2.738905
v -3.247672 20.410673 -4.711034
v -4.404890 25.371948 -2.338967
v -1.447784 18.611160 -1.174860
v -3.523943 18.711836 -2.328562
v -4.526901 22.517389 1.682909
v 2.409946 20.209749 -4.102314
v 0.437818 20.410675 -2.790083
v 2.809880 25.371952 -1.632864
v -0.444451 16.292921 -5.593305
v 2.635040 18.303432 -8.858048
v 0.558883 18.202757 -10.011753
v 3.637994 22.108997 -12.869516
v 2.820290 18.926291 -2.513812
v 3.973994 18.825615 -4.589973
v 6.831759 22.731850 -1.510856
vt 0.257812 0.835938
vt 0.257812 0.835938
vt 0.257812 0.835938
vt 0.257812 0.835938
vt 0.257812 0.835938
vt 0.257812 0.835938
vt 0.257812 0.835938
vt 0.257812 0.835938
vt 0.257812 0.835938
vt 0.257812 0.835938
vt 0.257812 0.835938
vt 0.257812 0.835938
vt 0.257812 0.835938
vt 0.257812 0.835938
vt 0.257812 0.835938
vt 0.257812 0.835938
vt 0.257812 0.835938
vt 0.257812 0.835938
vt 0.257812 0.835938
vt 0.257812 0.835938
vt 0.257812 0.835938
vt 0.257812 0.835938
vt 0.257812 0.835938
vt 0.257812 0.835938
vt 0.257812 0.835938
vt 0.257812 0.835938
vt 0.257812 0.835938
vt 0.257812 0.835938
vt 0.257812 0.835938
vt 0.257812 0.835938
vt 0.257812 0.835938
vt 0.257812 0.835938
vt 0.257812 0.835938
vt 0.257812 0.835938
vt 0.257812 0.835938
vt 0.257812 0.835938
vt 0.257812 0.835938
vt 0.257812 0.835938
vt 0.257812 0.835938
vt 0.257812 0.835938
vt 0.257812 0.835938
vt 0.257812 0.835938
vt 0.257812 0.835938
vt 0.257812 0.835938
vt 0.257812 0.835938
vt 0.257812 0.835938
vt 0.257812 0.835938
vt 0.257812 0.835938
vt 0.257812 0.835938
vt 0.257812 0.835938
vt 0.257812 0.835938
vt 0.257812 0.835938
vt 0.257812 0.835938
vt 0.257812 0.835938
vt 0.257812 0.835938
vt 0.257812 0.835938
vt 0.257812 0.835938
vt 0.257812 0.835938
vt 0.257812 0.835938
vt 0.257812 0.835938
vt 0.257812 0.835938
vt 0.257812 0.835938
vt 0.257812 0.835938
vt 0.257812 0.835938
vt 0.257812 0.835938
vt 0.257812 0.835938
vt 0.257812 0.835938
vt 0.257812 0.835938
vt 0.257812 0.835938
vt 0.257812 0.835938
vt 0.257812 0.835938
vt 0.257812 0.835938
vt 0.257812 0.835938
vt 0.257812 0.835938
vt 0.257812 0.835938
vn -0.3477 0.4296 0.8334
vn -0.2101 0.5051 0.8371
vn 0.8334 0.4296 0.3477
vn 0.8371 0.5051 0.2101
vn 0.6761 0.7350 -0.0512
vn 0.5953 0.7838 -0.1767
vn 0.6762 0.7349 -0.0513
vn 0.3477 0.4296 -0.8334
vn 0.2101 0.5051 -0.8371
vn -0.0512 0.7350 -0.6761
vn -0.1767 0.7838 -0.5953
vn -0.0513 0.7349 -0.6762
vn -0.8334 0.4296 -0.3477
vn -0.8371 0.5051 -0.2101
vn 0.7064 0.6317 0.3193
vn 0.0512 0.7350 0.6761
vn 0.0537 0.7250 0.6867
vn -0.0762 0.7753 0.6270
vn 0.0513 0.7350 0.6761
vn -0.3193 0.6317 0.7064
vn -0.6761 0.7350 0.0512
vn -0.6867 0.7250 0.0537
vn -0.6270 0.7753 -0.0761
vn -0.6762 0.7349 0.0513
vn -0.7064 0.6317 -0.3193
vn -0.0213 0.8752 -0.4833
vn 0.3193 0.6317 -0.7064
vn 0.4833 0.8752 -0.0213
vn -0.8698 0.4296 0.2425
vn -0.7876 0.5051 0.3529
vn -0.8699 0.4296 0.2425
vn 0.2425 0.4296 0.8698
vn 0.3529 0.5051 0.7876
vn 0.2425 0.4296 0.8699
vn 0.4586 0.7350 0.4995
vn 0.5072 0.7838 0.3583
vn 0.4587 0.7349 0.4995
vn 0.8698 0.4296 -0.2425
vn 0.7876 0.5051 -0.3529
vn 0.8699 0.4296 -0.2425
vn 0.4995 0.7350 -0.4586
vn 0.3583 0.7838 -0.5072
vn 0.4995 0.7349 -0.4587
vn -0.2425 0.4296 -0.8698
vn -0.3529 0.5051 -0.7876
vn -0.2425 0.4296 -0.8699
vn 0.1863 0.6317 0.7525
vn -0.4995 0.7350 0.4586
vn -0.5062 0.7250 0.4671
vn -0.5397 0.7753 0.3281
vn -0.4994 0.7350 0.4587
vn -0.7525 0.6317 0.1863
vn -0.4586 0.7350 -0.4995
vn -0.4671 0.7250 -0.5062
vn -0.3282 0.7753 -0.5397
vn -0.4587 0.7349 -0.4995
vn -0.1863 0.6317 -0.7525
vn 0.3665 0.8752 -0.3158
vn 0.7525 0.6317 -0.1863
vn 0.3158 0.8752 0.3665
vn -0.7714 0.4296 0.4695
vn -0.6623 0.5051 0.5534
vn 0.4695 0.4296 0.7714
vn 0.5534 0.5051 0.6623
vn 0.5769 0.7350 0.3563
vn 0.5854 0.7838 0.2072
vn 0.5770 0.7349 0.3563
vn 0.7714 0.4296 -0.4695
vn 0.6623 0.5051 -0.5534
vn 0.3563 0.7350 -0.5769
vn 0.2073 0.7838 -0.5854
vn 0.3563 0.7349 -0.5770
vn -0.4695 0.4296 -0.7714
vn -0.5534 0.5051 -0.6623
vn 0.3835 0.6317 0.6737
vn -0.3563 0.7350 0.5769
vn -0.3605 0.7250 0.5869
vn -0.4304 0.7753 0.4622
vn -0.3562 0.7350 0.5770
vn -0.6737 0.6317 0.3835
vn -0.5769 0.7350 -0.3563
vn -0.5869 0.7250 -0.3605
vn -0.4623 0.7753 -0.4304
vn -0.5770 0.7349 -0.3563
vn -0.3835 0.6317 -0.6737
vn 0.2671 0.8752 -0.4034
vn 0.6737 0.6317 -0.3835
vn 0.4034 0.8752 0.2671
s 1
f 1/1/1 2/2/2 3/3/1
f 4/4/3 5/5/4 6/6/3
f 7/7/5 8/8/6 9/9/7
f 10/10/8 11/11/9 12/12/8
f 13/13/10 14/14/11 15/15/12
f 16/16/13 17/17/14 18/18/13
f 19/19/15 5/5/4 4/4/3
f 19/19/16 20/20/17 21/21/18
f 21/21/18 20/20/17 22/22/19
f 19/19/20 2/2/2 1/1/1
f 19/19/21 23/23/22 24/24/23
f 24/24/23 23/23/22 25/25/24
f 19/19/25 17/17/14 16/16/13
f 19/19/26 14/14/11 13/13/10
f 19/19/27 11/11/9 10/10/8
f 19/19/28 8/8/6 7/7/5
f 26/26/29 27/27/30 28/28/31
f 29/29/32 30/30/33 31/31/34
f 32/32/35 33/33/36 34/34/37
f 35/35/38 36/36/39 37/37/40
f 38/38/41 39/39/42 40/40/43
f 41/41/44 42/42/45 43/43/46
f 44/44/47 30/30/33 29/29/32
f 44/44/48 45/45/49 46/46/50
f 46/46/50 45/45/49 47/47/51
f 44/44/52 27/27/30 26/26/29
f 44/44/53 48/48/54 49/49/55
f 49/49/55 48/48/54 50/50/56
f 44/44/57 42/42/45 41/41/44
f 44/44/58 39/39/42 38/38/41
f 44/44/59 36/36/39 35/35/38
f 44/44/60 33/33/36 32/32/35
f 51/51/61 52/52/62 53/53/61
f 54/54/63 55/55/64 56/56/63
f 57/57/65 58/58/66 59/59/67
f 60/60/68 61/61/69 62/62/68
f 63/63/70 64/64/71 65/65/72
f 66/66/73 67/67/74 68/68/73
f 69/69/75 55/55/64 54/54/63
f 69/69/76 70/70/77 71/71/78
f 71/71/78 70/70/77 72/72/79
f 69/69/80 52/52/62 51/51/61
f 69/69/81 73/73/82 74/74/83
f 74/74/83 73/73/82 75/75/84
f 69/69/85 67/67/74 66/66/73
f 69/69/86 64/64/71 63/63/70
f 69/69/87 61/61/69 60/60/68
f 69/69/88 58/58/66 57/57/65
