# Blender v2.90.0 Alpha OBJ File: 'Decos.blend'
# www.blender.org
o Cube.003_Cube.001_Cube.003_Cube.005
v 0.128558 15.288397 0.024393
v -1.500859 -2.927977 -0.010957
v -0.088441 -2.927977 1.422410
v 1.323975 -2.927977 -0.010958
v -1.595208 16.124456 -1.156108
v -3.861314 13.210992 -1.052619
v -2.037698 15.751615 0.363751
v -2.421200 13.941121 -0.542191
v -4.786465 9.643752 0.680780
v -2.278733 14.248831 1.039201
v -1.588426 16.212503 1.182785
v -1.197055 14.993063 4.052645
v -0.062670 16.362579 1.698535
v -0.732143 15.248540 2.482149
v 1.397640 11.508945 5.765590
v 0.837712 15.476924 2.274622
v 0.708221 16.662971 1.156138
v 4.035100 15.057092 1.053712
v 1.263819 16.552015 -0.363721
v 0.529750 14.615333 -2.487003
v 0.164832 10.801321 -5.765562
v -1.073130 14.521258 -2.275727
v 2.291933 15.655438 0.544711
v 6.300116 12.875339 -0.680750
v 2.015223 15.876008 -1.039613
v -0.088441 -2.927977 -1.444327
v -0.043867 14.684379 0.000012
v 0.731094 16.448086 -1.182755
v -0.691956 15.858705 -1.698505
v 1.158770 14.164404 -4.052805
vt 0.179688 0.882812
vt 0.179688 0.882812
vt 0.179688 0.882812
vt 0.179688 0.882812
vt 0.257812 0.835938
vt 0.257812 0.835938
vt 0.257812 0.835938
vt 0.257812 0.835938
vt 0.257812 0.835938
vt 0.257812 0.835938
vt 0.257812 0.835938
vt 0.257812 0.835938
vt 0.257812 0.835938
vt 0.257812 0.835938
vt 0.257812 0.835938
vt 0.257812 0.835938
vt 0.257812 0.835938
vt 0.257812 0.835938
vt 0.257812 0.835938
vt 0.257812 0.835938
vt 0.257812 0.835938
vt 0.257812 0.835938
vt 0.257812 0.835938
vt 0.257812 0.835938
vt 0.257812 0.835938
vt 0.179688 0.882812
vt 0.257812 0.835938
vt 0.257812 0.835938
vt 0.257812 0.835938
vt 0.257812 0.835938
vn -0.6899 -0.0939 0.7178
vn -0.6919 0.2335 0.6832
vn -0.6867 0.2216 0.6924
vn 0.7070 0.1957 0.6796
vn 0.6863 -0.1842 0.7036
vn 0.6904 -0.1969 0.6961
vn -0.0435 0.9711 0.2346
vn -0.9251 0.3176 -0.2080
vn 0.1061 0.9603 0.2581
vn -0.3900 0.8963 -0.2110
vn -0.9528 0.2262 -0.2027
vn -0.2522 0.9351 -0.2490
vn 0.0172 0.9474 -0.3197
vn -0.3305 0.6313 0.7016
vn 0.0521 0.8902 -0.4525
vn -0.2196 0.9746 0.0431
vn -0.1927 0.3666 0.9102
vn -0.2567 0.9620 -0.0935
vn -0.4270 0.8792 -0.2114
vn 0.6884 0.6814 0.2487
vn -0.5528 0.8002 -0.2327
vn 0.1814 0.9833 0.0109
vn 0.1155 0.4806 -0.8693
vn -0.1101 0.9906 -0.0818
vn -0.2099 0.8824 0.4210
vn 0.7345 0.6310 0.2497
vn -0.1406 0.9807 0.1362
vn -0.7191 -0.0950 -0.6883
vn -0.6765 0.2300 -0.6996
vn -0.6878 0.2213 -0.6913
vn -0.1807 0.9283 -0.3250
vn 0.1388 0.7598 -0.6352
vn 0.4209 0.8470 0.3246
vn -0.0525 0.9794 -0.1951
vn 0.0057 0.9185 0.3954
vn -0.4789 0.6493 0.5908
vn -0.4357 0.8810 0.1845
vn -0.4462 0.8335 0.3259
vn -0.6106 0.7601 0.2224
vn -0.7582 0.5693 -0.3177
vn 0.0985 0.5522 -0.8279
vn 0.6736 0.1959 -0.7126
vn 0.6998 -0.1876 -0.6893
vn 0.6910 -0.1975 -0.6954
s 1
f 1/1/1 2/2/2 3/3/3
f 1/1/4 3/3/5 4/4/6
f 5/5/7 6/6/8 7/7/9
f 8/8/10 9/9/11 10/10/12
f 11/11/13 12/12/14 13/13/15
f 14/14/16 15/15/17 16/16/18
f 17/17/19 18/18/20 19/19/21
f 20/20/22 21/21/23 22/22/24
f 23/23/25 24/24/26 25/25/27
f 1/1/28 26/26/29 2/2/30
f 27/27/31 14/14/16 16/16/18
f 27/27/32 11/11/13 13/13/15
f 27/27/33 5/5/7 7/7/9
f 27/27/34 8/8/10 10/10/12
f 27/27/35 20/20/22 22/22/24
f 27/27/36 28/28/37 29/29/38
f 27/27/39 23/23/25 25/25/27
f 27/27/40 17/17/19 19/19/21
f 28/28/37 30/30/41 29/29/38
f 1/1/42 4/4/43 26/26/44
