# Blender v2.90.0 Alpha OBJ File: 'Decos.blend'
# www.blender.org
o Cube.003_Cube.001_Cube.003_Cube.001
v 0.413345 13.302331 0.003294
v 0.286021 14.036780 -0.741304
v 0.956371 14.244843 0.077955
v -0.133773 14.615521 0.000010
v 0.181751 13.967498 0.782921
v -0.453791 13.675485 -0.044138
v 2.535527 7.345517 0.929554
v 3.402355 7.703534 -0.010955
v 0.486033 14.072722 0.015479
v 0.170300 13.991886 0.355946
v 1.666995 6.986796 -0.010955
v -0.127541 13.821234 0.033303
v 0.174646 13.934790 -0.307164
v 2.535527 7.345517 -0.951465
v -0.847449 15.079582 -3.170203
v 1.022293 16.364170 -2.359742
v 1.731210 12.472985 -4.052808
v -3.407607 14.177070 0.470681
v -2.857774 14.990609 -1.746119
v -3.067888 10.718304 -1.052622
v -3.629268 11.073398 1.519237
v -2.961576 10.619061 -0.514487
v -3.402459 7.048267 0.680777
v -0.164861 15.783422 3.145097
v -2.308300 15.258328 2.344792
v -0.727796 12.908744 4.052643
v 1.538875 15.092402 4.143732
v -0.141798 12.954245 4.022204
v 2.397436 9.891385 5.765587
v 2.381335 16.809290 -0.471374
v 1.517401 16.799908 1.746143
v 4.424758 13.820190 1.053710
v -1.871694 15.729986 -1.156111
v -2.213661 15.188192 0.363747
v -0.961005 13.866113 -2.275729
v 0.755751 13.725498 -2.487005
v 1.265537 12.258816 -3.998820
v -1.500881 13.234743 -4.145587
v 1.295662 8.993254 -5.765564
v 0.382259 16.429153 -1.182758
v -0.888403 15.518714 -1.698509
v 1.841903 15.781357 -1.039616
v 2.302968 15.136612 0.544707
v 4.279230 14.040876 0.509822
v 3.716267 16.116808 -1.781875
v 7.013526 12.034518 -0.680752
v 0.321238 16.605972 1.156135
v 0.931330 16.525597 -0.363724
v -0.579620 14.074817 2.482147
v 0.774320 15.014587 2.274618
v -1.791749 15.574765 1.182781
v -0.291582 15.884638 1.698532
v -2.049235 12.541578 -0.542193
v -2.116655 13.365418 1.039198
v 3.690901 1.611168 -0.010957
v 2.502479 1.796556 -1.212753
v 1.317326 1.981944 -0.010957
v 2.502479 1.796556 1.190838
v -0.088441 -2.927977 1.422410
v 1.323975 -2.927977 -0.010958
v -0.088441 -2.927977 -1.444327
v -1.500859 -2.927977 -0.010957
v 0.201663 17.658548 0.935118
v -0.795680 17.176470 1.966186
v 2.717576 16.173807 3.533965
v -1.476890 16.258278 1.020128
v -0.290059 16.718746 -0.013332
vt 0.195312 0.898438
vt 0.195312 0.898438
vt 0.195312 0.898438
vt 0.195312 0.898438
vt 0.195312 0.898438
vt 0.195312 0.898438
vt 0.179688 0.882812
vt 0.179688 0.882812
vt 0.179688 0.882812
vt 0.179688 0.882812
vt 0.179688 0.882812
vt 0.179688 0.882812
vt 0.179688 0.882812
vt 0.179688 0.882812
vt 0.257812 0.835938
vt 0.257812 0.835938
vt 0.257812 0.835938
vt 0.257812 0.835938
vt 0.257812 0.835938
vt 0.257812 0.835938
vt 0.257812 0.835938
vt 0.257812 0.835938
vt 0.257812 0.835938
vt 0.257812 0.835938
vt 0.257812 0.835938
vt 0.257812 0.835938
vt 0.257812 0.835938
vt 0.257812 0.835938
vt 0.257812 0.835938
vt 0.257812 0.835938
vt 0.257812 0.835938
vt 0.257812 0.835938
vt 0.257812 0.835938
vt 0.257812 0.835938
vt 0.257812 0.835938
vt 0.257812 0.835938
vt 0.257812 0.835938
vt 0.257812 0.835938
vt 0.257812 0.835938
vt 0.257812 0.835938
vt 0.257812 0.835938
vt 0.257812 0.835938
vt 0.257812 0.835938
vt 0.257812 0.835938
vt 0.257812 0.835938
vt 0.257812 0.835938
vt 0.257812 0.835938
vt 0.257812 0.835938
vt 0.257812 0.835938
vt 0.257812 0.835938
vt 0.257812 0.835938
vt 0.257812 0.835938
vt 0.257812 0.835938
vt 0.257812 0.835938
vt 0.257812 0.835938
vt 0.179688 0.882812
vt 0.179688 0.882812
vt 0.179688 0.882812
vt 0.179688 0.882812
vt 0.179688 0.882812
vt 0.179688 0.882812
vt 0.179688 0.882812
vt 0.179688 0.882812
vt 0.257812 0.835938
vt 0.257812 0.835938
vt 0.257812 0.835938
vt 0.257812 0.835938
vt 0.257812 0.835938
vn 0.7576 -0.3953 -0.5195
vn 0.3984 0.6273 0.6691
vn -0.0322 0.9395 0.3409
vn 0.3823 0.6215 0.6838
vn 0.6854 -0.4408 0.5797
vn -0.8003 0.1378 0.5835
vn -0.6901 0.6696 0.2745
vn -0.8152 0.1307 0.5642
vn -0.3569 -0.7603 0.5427
vn -0.7173 0.0927 -0.6905
vn -0.6550 0.6416 -0.3991
vn -0.6993 0.1011 -0.7076
vn -0.2691 -0.7083 -0.6526
vn 0.5022 0.6401 -0.5814
vn 0.0359 0.9511 -0.3069
vn 0.5170 0.6452 -0.5625
vn 0.6476 0.2854 0.7066
vn 0.6478 0.2852 0.7064
vn 0.6596 0.2995 0.6894
vn 0.6601 0.2986 0.6893
vn -0.6852 -0.1838 -0.7048
vn -0.7039 -0.1791 -0.6873
vn -0.7038 -0.1796 -0.6873
vn -0.6851 -0.1836 -0.7049
vn -0.1869 0.7332 -0.6539
vn -0.1085 0.8102 -0.5760
vn 0.1171 0.3939 -0.9117
vn -0.8867 0.4546 -0.0838
vn -0.8345 0.5170 -0.1905
vn -0.9709 -0.0132 -0.2393
vn -0.8798 0.3403 -0.3318
vn -0.8618 0.2002 -0.4661
vn -0.9500 -0.0104 -0.3120
vn -0.3905 0.7792 0.4903
vn -0.5159 0.7259 0.4548
vn -0.3968 0.3266 0.8578
vn -0.6045 0.5367 0.5887
vn -0.6180 0.3276 0.7146
vn -0.3426 0.2064 0.9165
vn 0.2814 0.9505 0.1315
vn 0.2243 0.9409 0.2537
vn 0.7329 0.6181 0.2842
vn -0.3534 0.9009 0.2521
vn -0.2066 0.9386 0.2762
vn 0.0142 0.9554 -0.2951
vn 0.2889 0.9412 -0.1749
vn 0.2024 0.7007 -0.6842
vn 0.0682 0.7292 -0.6808
vn 0.2155 0.4468 -0.8683
vn -0.5901 0.8069 0.0249
vn -0.6020 0.7798 0.1719
vn -0.0566 0.9138 0.4023
vn -0.1057 0.7579 0.6438
vn 0.4304 0.7675 0.4751
vn 0.4092 0.8389 0.3588
vn 0.6650 0.6211 0.4147
vn -0.4389 0.8726 -0.2141
vn -0.5604 0.7946 -0.2334
vn -0.6128 0.7355 0.2892
vn -0.6538 0.7421 0.1477
vn -0.1643 0.9788 -0.1224
vn -0.1286 0.9543 -0.2697
vn -0.6861 -0.1909 0.7020
vn -0.6858 -0.1912 0.7022
vn -0.6735 -0.1758 0.7180
vn -0.6739 -0.1750 0.7178
vn 0.6457 0.2915 -0.7058
vn 0.6457 0.2914 -0.7058
vn 0.6257 0.2956 -0.7219
vn 0.6260 0.2945 -0.7221
vn -0.7324 0.5816 -0.3539
vn -0.5805 0.7107 -0.3974
vn -0.5701 0.8214 0.0146
vn 0.0051 0.8468 -0.5319
vn 0.2288 0.9026 0.3646
vn -0.4505 0.7932 -0.4096
vn 0.0556 0.9909 0.1228
vn -0.6204 0.5691 0.5397
vn -0.4868 0.7481 0.4510
vn -0.8071 0.4777 -0.3471
vn 0.7124 0.0306 -0.7011
vn 0.7180 0.0416 -0.6948
vn 0.7273 0.0316 -0.6856
vn 0.7196 0.0206 -0.6941
vn -0.7300 0.0423 -0.6821
vn -0.7240 0.0541 -0.6876
vn -0.7155 0.0431 -0.6973
vn -0.7236 0.0328 -0.6895
vn -0.7159 0.0436 0.6969
vn -0.7235 0.0535 0.6883
vn -0.7301 0.0444 0.6819
vn -0.7242 0.0334 0.6888
vn 0.7272 0.0321 0.6857
vn 0.7191 0.0415 0.6937
vn 0.7130 0.0328 0.7004
vn 0.7194 0.0208 0.6942
vn 0.6650 -0.3386 0.6657
vn 0.6627 -0.3265 0.6740
vn 0.6524 -0.3324 0.6811
vn 0.6549 -0.3453 0.6722
vn 0.6518 -0.3327 -0.6815
vn 0.6621 -0.3257 -0.6750
vn 0.6654 -0.3375 -0.6659
vn 0.6549 -0.3458 -0.6719
vn -0.6524 0.3808 -0.6553
vn -0.6416 0.3883 -0.6616
vn -0.6386 0.3763 -0.6712
vn -0.6490 0.3689 -0.6653
vn -0.6398 0.3754 0.6706
vn -0.6412 0.3880 0.6620
vn -0.6520 0.3812 0.6554
vn -0.6497 0.3692 0.6645
vn -0.4012 0.9154 -0.0333
vn -0.4591 0.8722 0.1687
vn 0.0657 0.8794 0.4716
vn -0.6729 0.4970 -0.5479
vn -0.7007 0.3102 -0.6425
vn -0.6659 0.0096 -0.7460
s off
f 1/1/1 2/2/1 3/3/1
f 3/3/2 4/4/3 5/5/4
f 1/1/5 3/3/5 5/5/5
f 5/5/6 4/4/7 6/6/8
f 1/1/9 5/5/9 6/6/9
f 6/6/10 4/4/11 2/2/12
f 1/1/13 6/6/13 2/2/13
f 2/2/14 4/4/15 3/3/16
s 1
f 7/7/17 8/8/18 9/9/19 10/10/20
f 11/11/21 12/12/22 13/13/23 14/14/24
f 15/15/25 16/16/26 17/17/27
f 18/18/28 19/19/29 20/20/30
f 21/21/31 22/22/32 23/23/33
f 24/24/34 25/25/35 26/26/36
f 27/27/37 28/28/38 29/29/39
f 30/30/40 31/31/41 32/32/42
f 33/33/43 19/19/29 18/18/28 34/34/44
f 35/35/45 36/36/46 37/37/47 38/38/48
f 38/38/48 37/37/47 39/39/49
f 40/40/50 16/16/26 15/15/25 41/41/51
f 42/42/52 43/43/53 44/44/54 45/45/55
f 45/45/55 44/44/54 46/46/56
f 47/47/57 31/31/41 30/30/40 48/48/58
f 49/49/59 28/28/38 27/27/37 50/50/60
f 51/51/61 25/25/35 24/24/34 52/52/62
f 11/11/63 7/7/64 10/10/65 12/12/66
f 8/8/67 14/14/68 13/13/69 9/9/70
f 53/53/71 22/22/32 21/21/31 54/54/72
f 4/55/73 49/49/59 50/50/60
f 4/55/74 51/51/61 52/52/62
f 4/55/75 33/33/43 34/34/44
f 4/55/76 53/53/71 54/54/72
f 4/55/77 36/36/46 35/35/45
f 4/55/78 40/40/50 41/41/51
f 4/55/79 43/43/53 42/42/52
f 4/55/80 47/47/57 48/48/58
f 14/14/81 8/8/82 55/56/83 56/57/84
f 11/11/85 14/14/86 56/57/87 57/58/88
f 7/7/89 11/11/90 57/58/91 58/59/92
f 8/8/93 7/7/94 58/59/95 55/56/96
f 55/56/97 58/59/98 59/60/99 60/61/100
f 56/57/101 55/56/102 60/61/103 61/62/104
f 57/58/105 56/57/106 61/62/107 62/63/108
f 58/59/109 57/58/110 62/63/111 59/60/112
f 63/64/113 64/65/114 65/66/115
f 66/67/116 64/65/114 63/64/113 67/68/117
f 4/55/118 66/67/116 67/68/117
