# Blender v2.90.0 Alpha OBJ File: 'Ship.blend'
# www.blender.org
o Cube.003_Cube.001_Cube.003_Cube.001
v -3.310935 13.302332 -3.796566
v -3.196614 14.036781 -4.543271
v -2.819271 14.244843 -3.554247
v -3.829021 14.615522 -3.972452
v -3.776871 13.967499 -3.129964
v -4.118723 13.675486 -4.115397
v -0.779659 12.472986 -7.228967
v -6.280601 10.718305 -5.897764
v -7.145428 7.048267 -4.358712
v -5.672398 12.908744 -0.314767
v -3.247995 9.891385 2.297420
v 0.163519 13.820190 -1.533166
v -5.112933 15.729987 -5.618220
v -5.917346 15.188193 -4.284118
v -3.895288 13.866114 -6.392971
v -2.199658 13.725499 -6.051315
v -0.652063 8.993256 -8.991623
v -2.965897 16.429153 -4.931746
v -4.008676 15.518715 -5.822359
v -1.626142 15.781358 -4.334999
v -1.688970 15.136612 -2.686147
v 3.167536 12.034518 -2.361392
v -3.762376 16.605972 -2.731799
v -2.703557 16.525597 -3.981234
v -5.035870 14.074817 -1.758112
v -3.685674 15.014587 -1.527472
v -5.775659 15.574766 -3.373760
v -4.515118 15.884638 -2.410673
v -5.475254 12.541579 -5.091780
v -6.038600 13.365419 -3.612596
v -3.806039 17.658548 -2.979267
v -5.077943 17.176470 -2.315900
v -2.239530 16.173807 0.281082
v -5.425549 16.258278 -3.428663
v -3.973097 16.718746 -4.034463
v -6.206793 13.302331 4.103618
v -6.202840 14.036780 3.348223
v -5.684992 14.244843 4.271472
v -6.745024 14.615521 4.005346
v -6.570294 13.967498 4.831163
v -7.052507 13.675485 3.906278
v -4.204389 12.472986 0.338102
v -9.451683 10.718305 2.459038
v -10.082270 7.048268 4.107967
v -8.033988 12.908744 7.893180
v -5.253820 9.891384 10.122956
v -2.438831 13.820190 5.834877
v -8.255695 15.729987 2.564912
v -8.856475 15.188192 4.002261
v -7.164366 13.866114 1.620507
v -5.437010 13.725499 1.710657
v -4.335797 8.993255 -1.424275
v -6.031381 16.429155 2.930198
v -7.193136 15.518715 2.201564
v -4.618793 15.781357 3.324714
v -4.439946 15.136612 4.965042
v -2.487669 14.040876 5.273980
v -2.643988 16.116810 2.919331
v 0.411871 12.034518 4.576472
v -6.497758 16.605974 5.222934
v -5.632930 16.525599 3.832158
v -7.615259 14.074817 6.372302
v -6.245853 15.014587 6.403116
v -8.583249 15.574765 4.882132
v -7.195479 15.884638 5.650633
v -8.537181 12.541578 3.138655
v -8.878276 13.365418 4.684294
v -6.577123 17.658550 4.984506
v -7.738407 17.176472 5.826653
v -4.550898 16.173807 7.980877
v -8.244925 16.258280 4.776646
v -6.896616 16.718748 3.965059
v 1.862167 13.302332 1.646254
v 2.079024 14.036781 0.922646
v 2.315438 14.244843 1.954470
v 1.373508 14.615522 1.400161
v 1.308217 13.967499 2.241732
v 1.106452 13.675486 1.218388
v 4.845357 12.472986 -1.401582
v -0.787109 10.718305 -0.846794
v -1.857183 7.048268 0.557324
v -0.959710 12.908744 4.766580
v 1.078654 9.891385 7.689986
v 4.988829 13.820190 4.369999
v 0.330457 15.729987 -0.407883
v -0.651343 15.188193 0.801653
v 1.643851 13.866114 -1.006126
v 3.275645 13.725499 -0.432425
v 5.216374 8.993256 -3.129468
v 2.361428 16.429155 0.569954
v 1.452359 15.518715 -0.456776
v 3.605386 15.781358 1.346882
v 3.314307 15.136612 2.971054
v 8.078727 12.034518 3.966746
v 1.267306 16.605974 2.638055
v 2.489297 16.525599 1.547678
v -0.129008 14.074817 3.425558
v 1.176105 15.014587 3.841371
v -0.637384 15.574766 1.722865
v 0.477278 15.884639 2.851592
v -0.101427 12.541579 0.063170
v -0.864631 13.365419 1.449845
v 2.357224 16.173809 5.833144
v -0.283043 16.258280 1.717088
v 1.239434 16.718748 1.318753
vt 0.195312 0.898438
vt 0.195312 0.898438
vt 0.195312 0.898438
vt 0.195312 0.898438
vt 0.195312 0.898438
vt 0.195312 0.898438
vt 0.195312 0.898438
vt 0.195312 0.898438
vt 0.195312 0.898438
vt 0.195312 0.898438
vt 0.195312 0.898438
vt 0.195312 0.898438
vt 0.195312 0.898438
vt 0.195312 0.898438
vt 0.195312 0.898438
vt 0.195312 0.898438
vt 0.195312 0.898438
vt 0.195312 0.898438
vt 0.257812 0.835938
vt 0.257812 0.835938
vt 0.257812 0.835938
vt 0.257812 0.835938
vt 0.257812 0.835938
vt 0.257812 0.835938
vt 0.257812 0.835938
vt 0.257812 0.835938
vt 0.257812 0.835938
vt 0.257812 0.835938
vt 0.257812 0.835938
vt 0.257812 0.835938
vt 0.257812 0.835938
vt 0.257812 0.835938
vt 0.257812 0.835938
vt 0.257812 0.835938
vt 0.257812 0.835938
vt 0.257812 0.835938
vt 0.257812 0.835938
vt 0.257812 0.835938
vt 0.257812 0.835938
vt 0.257812 0.835938
vt 0.257812 0.835938
vt 0.257812 0.835938
vt 0.257812 0.835938
vt 0.257812 0.835938
vt 0.257812 0.835938
vt 0.257812 0.835938
vt 0.257812 0.835938
vt 0.257812 0.835938
vt 0.257812 0.835938
vt 0.257812 0.835938
vt 0.257812 0.835938
vt 0.257812 0.835938
vt 0.257812 0.835938
vt 0.257812 0.835938
vt 0.257812 0.835938
vt 0.257812 0.835938
vt 0.257812 0.835938
vt 0.257812 0.835938
vt 0.257812 0.835938
vt 0.257812 0.835938
vt 0.257812 0.835938
vt 0.257812 0.835938
vt 0.257812 0.835938
vt 0.257812 0.835938
vt 0.257812 0.835938
vt 0.257812 0.835938
vt 0.257812 0.835938
vt 0.257812 0.835938
vt 0.257812 0.835938
vt 0.257812 0.835938
vt 0.257812 0.835938
vt 0.257812 0.835938
vt 0.257812 0.835938
vt 0.257812 0.835938
vt 0.257812 0.835938
vt 0.257812 0.835938
vt 0.257812 0.835938
vt 0.257812 0.835938
vt 0.257812 0.835938
vt 0.257812 0.835938
vt 0.257812 0.835938
vt 0.257812 0.835938
vt 0.257812 0.835938
vt 0.257812 0.835938
vt 0.257812 0.835938
vt 0.257812 0.835938
vt 0.257812 0.835938
vt 0.257812 0.835938
vt 0.257812 0.835938
vt 0.257812 0.835938
vt 0.257812 0.835938
vt 0.257812 0.835938
vt 0.257812 0.835938
vt 0.257812 0.835938
vt 0.257812 0.835938
vt 0.257812 0.835938
vt 0.257812 0.835938
vt 0.257812 0.835938
vt 0.257812 0.835938
vt 0.257812 0.835938
vt 0.257812 0.835938
vt 0.257812 0.835938
vt 0.257812 0.835938
vt 0.257812 0.835938
vt 0.257812 0.835938
vt 0.257812 0.835938
vt 0.257812 0.835938
vt 0.257812 0.835938
vn 0.8828 -0.3953 -0.2537
vn 0.1667 0.6273 0.7607
vn -0.1382 0.9395 0.3133
vn 0.1468 0.6215 0.7696
vn 0.4672 -0.4408 0.7664
vn -0.9436 0.1378 0.3009
vn -0.7415 0.6696 0.0425
vn -0.9517 0.1307 0.2779
vn -0.5100 -0.7603 0.4022
vn -0.4626 0.0927 -0.8817
vn -0.4954 0.6416 -0.5856
vn -0.4401 0.1011 -0.8923
vn -0.0492 -0.7083 -0.7042
vn 0.6601 0.6401 -0.3931
vn 0.1310 0.9511 -0.2799
vn 0.6682 0.6452 -0.3705
vn 0.8363 -0.3953 -0.3800
vn 0.2761 0.6273 0.7282
vn -0.0909 0.9395 0.3302
vn 0.2577 0.6215 0.7398
vn 0.5742 -0.4408 0.6899
vn -0.8895 0.1378 0.4356
vn -0.7273 0.6696 0.1504
vn -0.9008 0.1307 0.4140
vn -0.4457 -0.7603 0.4725
vn -0.5865 0.0927 -0.8046
vn -0.5757 0.6416 -0.5069
vn -0.5658 0.1011 -0.8183
vn -0.1516 -0.7083 -0.6894
vn 0.5956 0.6401 -0.4853
vn 0.0887 0.9511 -0.2960
vn 0.6069 0.6452 -0.4641
vn 0.9095 -0.3953 -0.1287
vn 0.0595 0.6273 0.7765
vn -0.1804 0.9395 0.2911
vn 0.0386 0.6215 0.7825
vn 0.3563 -0.4408 0.8239
vn -0.9763 0.1378 0.1670
vn -0.7402 0.6696 -0.0608
vn -0.9810 0.1307 0.1431
vn -0.5609 -0.7603 0.3275
vn -0.3357 0.0927 -0.9374
vn -0.4094 0.6416 -0.6487
vn -0.3120 0.1011 -0.9447
vn 0.0490 -0.7083 -0.7042
vn 0.7083 0.6401 -0.2976
vn 0.1686 0.9511 -0.2590
vn 0.7131 0.6452 -0.2741
vn -0.4149 0.9009 0.1276
vn -0.8456 -0.0132 -0.5336
vn -0.2832 0.9386 0.1968
vn -0.5832 0.5816 -0.5671
vn -0.8029 -0.0104 -0.5960
vn -0.4253 0.7107 -0.5604
vn -0.1173 0.9788 -0.1680
vn -0.6474 0.3266 0.6886
vn -0.0368 0.9543 -0.2965
vn -0.6727 0.7355 0.0809
vn -0.6145 0.2064 0.7614
vn -0.6670 0.7421 -0.0664
vn -0.3488 0.8727 -0.3417
vn 0.6057 0.6181 0.5011
vn -0.4581 0.7946 -0.3984
vn 0.3293 0.9412 -0.0747
vn 0.4787 0.4468 -0.7558
vn 0.1067 0.9554 -0.2755
vn -0.3036 0.7579 0.5775
vn 0.5000 0.6211 0.6035
vn -0.1807 0.9138 0.3638
vn -0.5397 0.8069 -0.2399
vn 0.5100 0.3939 -0.7647
vn -0.6157 0.7798 -0.1135
vn -0.5456 0.8214 -0.1662
vn 0.1728 0.8468 -0.5031
vn 0.1020 0.9026 0.4182
vn -0.2981 0.7932 -0.5309
vn 0.0140 0.9909 0.1341
vn -0.7591 0.5691 0.3162
vn -0.5678 0.8069 -0.1627
vn -0.6255 0.7798 -0.0270
vn -0.6043 0.7481 0.2742
vn -0.6562 0.4777 -0.5842
vn -0.3702 0.9154 -0.1583
vn -0.4889 0.8722 0.0151
vn -0.0866 0.8794 0.4682
vn -0.4655 0.4970 -0.7324
vn -0.4620 0.3102 -0.8309
vn -0.3962 0.0096 -0.9181
vn -0.3918 0.9009 0.1869
vn -0.9145 -0.0132 -0.4043
vn -0.2514 0.9386 0.2361
vn -0.6598 0.5816 -0.4758
vn -0.8814 -0.0104 -0.4723
vn -0.5027 0.7107 -0.4922
vn -0.1406 0.9788 -0.1491
vn -0.5398 0.3266 0.7759
vn -0.0798 0.9543 -0.2879
vn -0.6537 0.7355 0.1783
vn -0.4966 0.2064 0.8431
vn -0.6695 0.7421 0.0319
vn -0.3950 0.8727 -0.2871
vn 0.6724 0.6181 0.4072
vn -0.5114 0.7946 -0.3272
vn 0.3149 0.9412 -0.1221
vn 0.3631 0.4468 -0.8177
vn 0.0653 0.9554 -0.2881
vn -0.1256 0.9138 0.3863
vn -0.2159 0.7579 0.6156
vn 0.3413 0.7675 0.5426
vn 0.3407 0.8389 0.4244
vn 0.5829 0.6211 0.5239
vn -0.5640 0.8214 -0.0847
vn 0.0974 0.8468 -0.5229
vn 0.1620 0.9026 0.3988
vn -0.3725 0.7932 -0.4816
vn 0.0334 0.9909 0.1306
vn -0.7047 0.5691 0.4237
vn -0.5855 0.8069 -0.0780
vn -0.6227 0.7798 0.0647
vn -0.5577 0.7481 0.3596
vn -0.7345 0.4777 -0.4820
vn -0.3893 0.9154 -0.1025
vn -0.4814 0.8722 0.0864
vn -0.0172 0.8794 0.4758
vn -0.5675 0.4970 -0.6565
vn -0.5784 0.3102 -0.7544
vn -0.5262 0.0096 -0.8503
vn -0.4286 0.9009 0.0688
vn -0.7634 -0.0132 -0.6458
vn -0.3078 0.9386 0.1556
vn -0.4988 0.5816 -0.6426
vn -0.7124 -0.0104 -0.7017
vn -0.3434 0.7107 -0.6140
vn -0.0928 0.9788 -0.1827
vn -0.7367 0.3266 0.5921
vn 0.0047 0.9543 -0.2987
vn -0.6774 0.7355 -0.0133
vn -0.7143 0.2064 0.6688
vn -0.6513 0.7421 -0.1583
vn -0.2980 0.8727 -0.3868
vn 0.5303 0.6181 0.5803
vn -0.3983 0.7946 -0.4582
vn 0.3365 0.9412 -0.0283
vn 0.5790 0.4468 -0.6821
vn 0.1439 0.9554 -0.2580
vn -0.3808 0.7579 0.5297
vn 0.4114 0.6211 0.6671
vn -0.2295 0.9138 0.3352
vn -0.3593 0.4970 -0.7899
vn -0.1507 0.8794 0.4516
vn -0.3422 0.3102 -0.8870
vn -0.5172 0.8214 -0.2403
vn 0.2409 0.8468 -0.4742
vn 0.0429 0.9026 0.4283
vn -0.2216 0.7932 -0.5672
vn -0.0048 0.9909 0.1347
vn -0.7956 0.5691 0.2078
vn -0.6365 0.7481 0.1877
vn -0.5687 0.4777 -0.6696
vn -0.2650 0.0096 -0.9642
vn 0.2736 0.3939 -0.8775
vn 0.3990 0.3939 -0.8281
s off
f 1/1/1 2/2/1 3/3/1
f 3/3/2 4/4/3 5/5/4
f 1/1/5 3/3/5 5/5/5
f 5/5/6 4/4/7 6/6/8
f 1/1/9 5/5/9 6/6/9
f 6/6/10 4/4/11 2/2/12
f 1/1/13 6/6/13 2/2/13
f 2/2/14 4/4/15 3/3/16
f 36/7/17 37/8/17 38/9/17
f 38/9/18 39/10/19 40/11/20
f 36/7/21 38/9/21 40/11/21
f 40/11/22 39/10/23 41/12/24
f 36/7/25 40/11/25 41/12/25
f 41/12/26 39/10/27 37/8/28
f 36/7/29 41/12/29 37/8/29
f 37/8/30 39/10/31 38/9/32
f 73/13/33 74/14/33 75/15/33
f 75/15/34 76/16/35 77/17/36
f 73/13/37 75/15/37 77/17/37
f 77/17/38 76/16/39 78/18/40
f 73/13/41 77/17/41 78/18/41
f 78/18/42 76/16/43 74/14/44
f 73/13/45 78/18/45 74/14/45
f 74/14/46 76/16/47 75/15/48
s 1
f 13/19/49 8/20/50 14/21/51
f 29/22/52 9/23/53 30/24/54
f 27/25/55 10/26/56 28/27/57
f 25/28/58 11/29/59 26/30/60
f 23/31/61 12/32/62 24/33/63
f 16/34/64 17/35/65 15/36/66
f 21/37/67 22/38/68 20/39/69
f 90/40/70 79/41/71 91/42/72
f 4/43/73 25/28/58 26/30/60
f 4/43/74 27/25/55 28/27/57
f 4/43/75 13/19/49 14/21/51
f 4/43/76 29/22/52 30/24/54
f 4/43/77 16/34/64 15/36/66
f 4/43/78 18/44/79 19/45/80
f 4/43/81 21/37/67 20/39/69
f 4/43/82 23/31/61 24/33/63
f 31/46/83 32/47/84 33/48/85
f 34/49/86 32/47/84 31/46/83 35/50/87
f 4/43/88 34/49/86 35/50/87
f 48/51/89 43/52/90 49/53/91
f 66/54/92 44/55/93 67/56/94
f 64/57/95 45/58/96 65/59/97
f 62/60/98 46/61/99 63/62/100
f 60/63/101 47/64/102 61/65/103
f 51/66/104 52/67/105 50/68/106
f 55/69/107 56/70/108 57/71/109 58/72/110
f 58/72/110 57/71/109 59/73/111
f 39/74/112 62/60/98 63/62/100
f 39/74/113 64/57/95 65/59/97
f 39/74/114 48/51/89 49/53/91
f 39/74/115 66/54/92 67/56/94
f 39/74/116 51/66/104 50/68/106
f 39/74/117 53/75/118 54/76/119
f 39/74/120 56/70/108 55/69/107
f 39/74/121 60/63/101 61/65/103
f 68/77/122 69/78/123 70/79/124
f 71/80/125 69/78/123 68/77/122 72/81/126
f 39/74/127 71/80/125 72/81/126
f 85/82/128 80/83/129 86/84/130
f 101/85/131 81/86/132 102/87/133
f 99/88/134 82/89/135 100/90/136
f 97/91/137 83/92/138 98/93/139
f 95/94/140 84/95/141 96/96/142
f 88/97/143 89/98/144 87/99/145
f 93/100/146 94/101/147 92/102/148
f 104/103/149 103/104/150 105/105/151
f 76/106/152 97/91/137 98/93/139
f 76/106/153 99/88/134 100/90/136
f 76/106/154 85/82/128 86/84/130
f 76/106/155 101/85/131 102/87/133
f 76/106/156 88/97/143 87/99/145
f 76/106/157 90/40/70 91/42/72
f 76/106/158 93/100/146 92/102/148
f 76/106/159 95/94/140 96/96/142
f 76/106/160 104/103/149 105/105/151
f 53/75/118 42/107/161 54/76/119
f 18/44/79 7/108/162 19/45/80
