# Blender v2.90.0 Alpha OBJ File: 'Decos.blend'
# www.blender.org
o Cube.003_Cube.001_Cube.003_Cube.004
v 0.315374 13.142854 0.035142
v 0.124800 13.958002 -0.943635
v 1.076200 14.188009 0.035145
v -0.269389 15.644088 0.035147
v 0.093731 14.090899 1.013925
v -0.831025 13.746928 0.035144
v 1.770944 6.097806 0.929553
v 2.708796 6.097806 -0.010955
v 0.453688 14.009161 0.015479
v 0.129027 13.980582 0.355946
v 0.831248 6.097806 -0.010955
v -0.192541 13.860475 0.033303
v 0.124058 13.923536 -0.307164
v 1.770944 6.097806 -0.951466
v -0.773556 15.736939 -3.170202
v 1.309706 16.564880 -2.359742
v 1.158770 14.164403 -4.052808
v -3.437277 15.280601 0.470683
v -2.737192 15.839000 -1.746118
v -3.861314 13.210992 -1.052621
v -4.018760 13.482856 1.779209
v -3.716262 12.745603 -0.514486
v -4.786465 9.643752 0.680778
v -0.003110 16.562220 3.145097
v -2.201339 16.291096 2.344793
v -1.197055 14.993064 4.052643
v 1.614916 15.404021 4.143732
v -0.547148 14.574322 4.022204
v 1.397640 11.508945 5.765588
v 2.701587 16.880901 -0.471374
v 1.858397 16.913399 1.746143
v 4.035100 15.057092 1.053710
v -1.595208 16.124456 -1.156111
v -2.037698 15.751615 0.363748
v -1.073130 14.521258 -2.275729
v 0.529750 14.615333 -2.487005
v 0.709854 13.710074 -3.998820
v -1.712886 14.004978 -4.145587
v 0.164832 10.801320 -5.765564
v 0.731094 16.448086 -1.182758
v -0.691956 15.858705 -1.698508
v 2.015223 15.876008 -1.039616
v 2.291933 15.655438 0.544708
v 3.970346 15.000316 0.509822
v 3.924240 15.942435 -1.781875
v 6.300116 12.875339 -0.680752
v 0.708221 16.662971 1.156135
v 1.263819 16.552015 -0.363724
v -0.732143 15.248540 2.482147
v 0.837712 15.476924 2.274619
v -1.588426 16.212503 1.182782
v -0.062670 16.362579 1.698532
v -2.421200 13.941121 -0.542193
v -2.278733 14.248831 1.039199
v -0.043867 14.684379 0.000010
v 2.604338 1.812384 -0.010957
v 1.415915 1.997772 -1.212753
v 0.230763 2.183159 -0.010957
v 1.415915 1.997771 1.190838
v -0.088441 -2.927977 1.422410
v 1.323975 -2.927977 -0.010958
v -0.088441 -2.927977 -1.444327
v -1.500859 -2.927977 -0.010957
vt 0.195312 0.898438
vt 0.195312 0.898438
vt 0.195312 0.898438
vt 0.195312 0.898438
vt 0.195312 0.898438
vt 0.195312 0.898438
vt 0.179688 0.882812
vt 0.179688 0.882812
vt 0.179688 0.882812
vt 0.179688 0.882812
vt 0.179688 0.882812
vt 0.179688 0.882812
vt 0.179688 0.882812
vt 0.179688 0.882812
vt 0.257812 0.835938
vt 0.257812 0.835938
vt 0.257812 0.835938
vt 0.257812 0.835938
vt 0.257812 0.835938
vt 0.257812 0.835938
vt 0.257812 0.835938
vt 0.257812 0.835938
vt 0.257812 0.835938
vt 0.257812 0.835938
vt 0.257812 0.835938
vt 0.257812 0.835938
vt 0.257812 0.835938
vt 0.257812 0.835938
vt 0.257812 0.835938
vt 0.257812 0.835938
vt 0.257812 0.835938
vt 0.257812 0.835938
vt 0.257812 0.835938
vt 0.257812 0.835938
vt 0.257812 0.835938
vt 0.257812 0.835938
vt 0.257812 0.835938
vt 0.257812 0.835938
vt 0.257812 0.835938
vt 0.257812 0.835938
vt 0.257812 0.835938
vt 0.257812 0.835938
vt 0.257812 0.835938
vt 0.257812 0.835938
vt 0.257812 0.835938
vt 0.257812 0.835938
vt 0.257812 0.835938
vt 0.257812 0.835938
vt 0.257812 0.835938
vt 0.257812 0.835938
vt 0.257812 0.835938
vt 0.257812 0.835938
vt 0.257812 0.835938
vt 0.257812 0.835938
vt 0.257812 0.835938
vt 0.179688 0.882812
vt 0.179688 0.882812
vt 0.179688 0.882812
vt 0.179688 0.882812
vt 0.179688 0.882812
vt 0.179688 0.882812
vt 0.179688 0.882812
vt 0.179688 0.882812
vn 0.6786 -0.4940 -0.5435
vn 0.6562 0.3183 0.6842
vn 0.3441 0.8141 0.4677
vn 0.6577 0.3185 0.6826
vn 0.6458 -0.4701 0.6016
vn -0.7303 -0.0055 0.6831
vn -0.6684 0.5778 0.4684
vn -0.7289 -0.0051 0.6846
vn -0.3727 -0.7073 0.6007
vn -0.7119 -0.0159 -0.7021
vn -0.6465 0.5730 -0.5037
vn -0.7146 -0.0165 -0.6994
vn -0.3916 -0.7431 -0.5426
vn 0.6485 0.3017 -0.6989
vn 0.3267 0.8002 -0.5030
vn 0.6458 0.3011 -0.7017
vn 0.6920 0.1888 0.6968
vn 0.6918 0.1890 0.6969
vn 0.7063 0.2003 0.6790
vn 0.7066 0.1992 0.6790
vn -0.7027 -0.0980 -0.7047
vn -0.7201 -0.0895 -0.6881
vn -0.7200 -0.0898 -0.6881
vn -0.7024 -0.0974 -0.7051
vn -0.1597 0.8861 -0.4351
vn -0.0300 0.9168 -0.3981
vn 0.0985 0.5522 -0.8279
vn -0.6370 0.7701 -0.0324
vn -0.5989 0.7838 -0.1642
vn -0.9251 0.3176 -0.2080
vn -0.7223 0.6413 -0.2588
vn -0.7794 0.4988 -0.3791
vn -0.9528 0.2262 -0.2027
vn -0.2099 0.9545 0.2119
vn -0.3521 0.9124 0.2087
vn -0.3305 0.6313 0.7016
vn -0.2851 0.7666 0.5753
vn -0.3954 0.6725 0.6257
vn -0.1927 0.3666 0.9102
vn 0.1941 0.9783 0.0726
vn 0.1675 0.9636 0.2085
vn 0.6884 0.6814 0.2487
vn -0.0435 0.9711 0.2346
vn 0.1061 0.9603 0.2581
vn -0.1101 0.9905 -0.0818
vn 0.1814 0.9833 0.0109
vn 0.0838 0.8109 -0.5791
vn -0.0688 0.7646 -0.6408
vn 0.1155 0.4806 -0.8693
vn -0.4357 0.8810 0.1846
vn -0.4462 0.8335 0.3259
vn -0.1406 0.9807 0.1362
vn -0.2099 0.8824 0.4210
vn 0.4006 0.8702 0.2869
vn 0.4578 0.8796 0.1293
vn 0.7345 0.6310 0.2497
vn -0.4270 0.8792 -0.2114
vn -0.5528 0.8002 -0.2327
vn -0.2196 0.9746 0.0431
vn -0.2567 0.9620 -0.0935
vn 0.0172 0.9474 -0.3197
vn 0.0521 0.8902 -0.4525
vn -0.7046 -0.1022 0.7022
vn -0.7048 -0.1019 0.7021
vn -0.6896 -0.0896 0.7187
vn -0.6898 -0.0889 0.7185
vn 0.6918 0.1929 -0.6959
vn 0.6916 0.1923 -0.6963
vn 0.6733 0.2005 -0.7117
vn 0.6732 0.1997 -0.7120
vn -0.3900 0.8963 -0.2110
vn -0.2522 0.9351 -0.2490
vn -0.1807 0.9283 -0.3250
vn 0.1388 0.7598 -0.6352
vn 0.4209 0.8470 0.3246
vn -0.0525 0.9794 -0.1951
vn 0.0057 0.9185 0.3954
vn -0.4789 0.6493 0.5908
vn -0.6106 0.7601 0.2224
vn -0.7582 0.5693 -0.3177
vn 0.7012 -0.0161 -0.7127
vn 0.7088 -0.0063 -0.7054
vn 0.7163 -0.0170 -0.6976
vn 0.7080 -0.0277 -0.7057
vn -0.7087 0.1069 -0.6974
vn -0.7004 0.1174 -0.7040
vn -0.6936 0.1061 -0.7125
vn -0.7026 0.0962 -0.7051
vn -0.6942 0.1057 0.7120
vn -0.6999 0.1169 0.7046
vn -0.7085 0.1081 0.6974
vn -0.7032 0.0967 0.7044
vn 0.7163 -0.0174 0.6976
vn 0.7098 -0.0068 0.7044
vn 0.7019 -0.0150 0.7121
vn 0.7079 -0.0273 0.7058
vn 0.7003 -0.1851 0.6894
vn 0.6961 -0.1734 0.6967
vn 0.6865 -0.1806 0.7043
vn 0.6911 -0.1933 0.6964
vn 0.6859 -0.1810 -0.7048
vn 0.6953 -0.1726 -0.6977
vn 0.7005 -0.1839 -0.6896
vn 0.6912 -0.1937 -0.6962
vn -0.6907 0.2378 -0.6829
vn -0.6808 0.2467 -0.6896
vn -0.6761 0.2351 -0.6983
vn -0.6856 0.2262 -0.6920
vn -0.6770 0.2341 0.6977
vn -0.6805 0.2464 0.6901
vn -0.6905 0.2383 0.6830
vn -0.6863 0.2265 0.6912
s off
f 1/1/1 2/2/1 3/3/1
f 3/3/2 4/4/3 5/5/4
f 1/1/5 3/3/5 5/5/5
f 5/5/6 4/4/7 6/6/8
f 1/1/9 5/5/9 6/6/9
f 6/6/10 4/4/11 2/2/12
f 1/1/13 6/6/13 2/2/13
f 2/2/14 4/4/15 3/3/16
s 1
f 7/7/17 8/8/18 9/9/19 10/10/20
f 11/11/21 12/12/22 13/13/23 14/14/24
f 15/15/25 16/16/26 17/17/27
f 18/18/28 19/19/29 20/20/30
f 21/21/31 22/22/32 23/23/33
f 24/24/34 25/25/35 26/26/36
f 27/27/37 28/28/38 29/29/39
f 30/30/40 31/31/41 32/32/42
f 33/33/43 19/19/29 18/18/28 34/34/44
f 35/35/45 36/36/46 37/37/47 38/38/48
f 38/38/48 37/37/47 39/39/49
f 40/40/50 16/16/26 15/15/25 41/41/51
f 42/42/52 43/43/53 44/44/54 45/45/55
f 45/45/55 44/44/54 46/46/56
f 47/47/57 31/31/41 30/30/40 48/48/58
f 49/49/59 28/28/38 27/27/37 50/50/60
f 51/51/61 25/25/35 24/24/34 52/52/62
f 11/11/63 7/7/64 10/10/65 12/12/66
f 8/8/67 14/14/68 13/13/69 9/9/70
f 53/53/71 22/22/32 21/21/31 54/54/72
f 55/55/73 49/49/59 50/50/60
f 55/55/74 51/51/61 52/52/62
f 55/55/75 33/33/43 34/34/44
f 55/55/76 53/53/71 54/54/72
f 55/55/77 36/36/46 35/35/45
f 55/55/78 40/40/50 41/41/51
f 55/55/79 43/43/53 42/42/52
f 55/55/80 47/47/57 48/48/58
f 14/14/81 8/8/82 56/56/83 57/57/84
f 11/11/85 14/14/86 57/57/87 58/58/88
f 7/7/89 11/11/90 58/58/91 59/59/92
f 8/8/93 7/7/94 59/59/95 56/56/96
f 56/56/97 59/59/98 60/60/99 61/61/100
f 57/57/101 56/56/102 61/61/103 62/62/104
f 58/58/105 57/57/106 62/62/107 63/63/108
f 59/59/109 58/58/110 63/63/111 60/60/112
