# Blender v2.83.4 OBJ File: 'decos.blend'
# www.blender.org
o Cube.006
v 3.785444 4.803410 -8.439006
v 3.527088 4.803410 8.439006
v -3.785444 4.803410 -8.439006
v -3.527088 4.803410 8.439006
v 0.000000 6.823672 8.439006
v 0.000000 6.823672 -8.439006
v 3.355813 0.128619 8.439006
v 3.527088 0.128619 8.267730
v -3.355813 0.128619 8.439006
v -3.527088 0.128619 8.267730
v -3.527088 0.128619 -8.267730
v -3.355813 0.128619 -8.439006
v 3.527088 0.128619 -8.267730
v 3.355813 0.128619 -8.439006
v 3.527088 4.329319 8.267730
v 3.355813 4.329319 8.439006
v 3.355813 4.329319 -8.439006
v 3.527088 4.329319 -8.267730
v 3.527088 3.885912 8.267730
v 3.355813 3.885912 8.439006
v -3.527088 4.329319 8.267730
v -3.355813 4.329319 8.439006
v -3.355813 4.329319 -8.439006
v -3.527088 4.329319 -8.267730
v 3.355813 3.885912 -8.439006
v 3.527088 3.885912 -8.267730
v 3.355813 0.662062 8.439006
v 3.527088 0.662062 8.267730
v -3.527088 3.885912 8.267730
v -3.355813 3.885912 8.439006
v -3.355813 3.885912 -8.439006
v -3.527088 3.885912 -8.267730
v 3.527088 0.662062 -8.267730
v 3.355813 0.662062 -8.439006
v -3.355813 0.662062 8.439006
v -3.527088 0.662062 8.267730
v -3.527088 0.662062 -8.267730
v -3.355813 0.662062 -8.439006
v 3.527088 1.974690 8.267730
v 3.355813 1.974690 8.439006
v 3.355813 1.974690 -8.439006
v 3.527088 1.974690 -8.267730
v -3.527088 1.974690 8.267730
v -3.355813 1.974690 8.439006
v -3.355813 1.974690 -8.439006
v -3.527088 1.974690 -8.267730
v -3.527088 1.758560 8.267730
v -3.355813 1.758560 -8.439006
v 3.527088 1.758560 8.267730
v 3.355813 1.758560 -8.439006
v -3.355813 1.758560 8.439006
v -3.527088 1.758560 -8.267730
v 3.355813 1.758560 8.439006
v 3.527088 1.758560 -8.267730
v 3.647772 0.395340 -8.317719
v -3.647772 0.395340 8.317719
v -3.405802 0.395340 8.559690
v -3.405802 0.395340 -8.559690
v -3.647772 0.395340 -8.317719
v 3.405802 0.395340 -8.559690
v 3.647772 0.395340 8.317719
v 3.405802 0.395340 8.559690
vt 0.257812 0.804688
vt 0.257812 0.804688
vt 0.257812 0.804688
vt 0.257812 0.804688
vt 0.289062 0.929688
vt 0.289062 0.929688
vt 0.289062 0.929688
vt 0.289062 0.929688
vt 0.257812 0.804688
vt 0.257812 0.804688
vt 0.257812 0.804688
vt 0.257812 0.804688
vt 0.289062 0.929688
vt 0.289062 0.929688
vt 0.289062 0.929688
vt 0.289062 0.929688
vt 0.289062 0.929688
vt 0.289062 0.929688
vt 0.289062 0.929688
vt 0.289062 0.929688
vt 0.257812 0.789062
vt 0.257812 0.789062
vt 0.257812 0.789062
vt 0.257812 0.789062
vt 0.164062 0.898438
vt 0.164062 0.898438
vt 0.164062 0.898438
vt 0.257812 0.804688
vt 0.257812 0.804688
vt 0.257812 0.804688
vt 0.257812 0.804687
vt 0.164062 0.898438
vt 0.164062 0.898438
vt 0.164062 0.898438
vt 0.164062 0.898438
vt 0.257812 0.804688
vt 0.257812 0.804688
vt 0.164062 0.898438
vt 0.164062 0.898438
vt 0.164062 0.898438
vt 0.289062 0.898438
vt 0.289062 0.898438
vt 0.289062 0.898438
vt 0.289062 0.898438
vt 0.195312 0.898438
vt 0.195312 0.898438
vt 0.195312 0.898438
vt 0.195312 0.898438
vt 0.289062 0.898438
vt 0.289062 0.898438
vt 0.289062 0.898438
vt 0.289062 0.898438
vt 0.164062 0.898438
vt 0.164062 0.898438
vt 0.257812 0.789062
vt 0.257812 0.789062
vt 0.257812 0.789062
vt 0.257812 0.789062
vt 0.257812 0.789062
vt 0.257812 0.789062
vt 0.257812 0.789062
vt 0.257812 0.789062
vt 0.164062 0.898438
vt 0.164062 0.898438
vt 0.164062 0.898438
vt 0.164062 0.898438
vt 0.289062 0.929688
vt 0.289062 0.929688
vt 0.289062 0.929688
vt 0.289062 0.929688
vt 0.257812 0.789062
vt 0.257812 0.789062
vt 0.257812 0.789062
vt 0.257812 0.789062
vt 0.257812 0.789062
vt 0.257812 0.789062
vt 0.257812 0.789062
vt 0.257812 0.789062
vt 0.164062 0.898438
vt 0.164062 0.898438
vt 0.164062 0.898438
vt 0.164062 0.898438
vt 0.164062 0.898438
vt 0.164062 0.898438
vt 0.164062 0.898438
vt 0.164062 0.898438
vt 0.257812 0.789062
vt 0.257812 0.789062
vt 0.195312 0.898438
vt 0.195312 0.898438
vt 0.195312 0.898438
vt 0.195312 0.898438
vt 0.257812 0.789062
vt 0.164062 0.898438
vt 0.164062 0.898438
vt 0.164062 0.898438
vt 0.164062 0.898438
vt 0.164062 0.898438
vt 0.164062 0.898438
vt 0.164062 0.898438
vt 0.164062 0.898438
vt 0.164062 0.898438
vt 0.164062 0.898438
vt 0.257812 0.789062
vt 0.164062 0.898438
vt 0.164062 0.898438
vt 0.164062 0.898438
vt 0.164062 0.898438
vt 0.164062 0.898438
vt 0.164062 0.898438
vt 0.164062 0.898438
vt 0.164062 0.898438
vt 0.195312 0.898438
vt 0.195312 0.898438
vt 0.195312 0.898438
vt 0.195312 0.898438
vt 0.164062 0.898438
vt 0.164062 0.898438
vt 0.257812 0.789062
vt 0.257812 0.789062
vt 0.257812 0.789062
vt 0.257812 0.789062
vt 0.195312 0.898438
vt 0.195312 0.898438
vt 0.195312 0.898438
vt 0.195312 0.898438
vt 0.289062 0.898438
vt 0.289062 0.898438
vt 0.289062 0.898438
vt 0.289062 0.898438
vt 0.289062 0.898438
vt 0.289062 0.898438
vt 0.289062 0.898438
vt 0.289062 0.898438
vt 0.257812 0.789062
vt 0.257812 0.789062
vt 0.257812 0.789062
vt 0.257812 0.789062
vt 0.000000 0.000000
vt 0.000000 0.000000
vt 0.000000 0.000000
vt 0.000000 0.000000
vt 0.000000 0.000000
vt 0.000000 0.000000
vt 0.257812 0.789062
vt 0.257812 0.789062
vt 0.257812 0.789062
vt 0.257812 0.789062
vt 0.000000 0.000000
vt 0.000000 0.000000
vt 0.257812 0.789062
vt 0.257812 0.789062
vt 0.257812 0.789062
vt 0.257812 0.789062
vn 0.9648 -0.2629 0.0075
vn 0.0000 0.0000 -1.0000
vn -0.9648 -0.2629 0.0075
vn -1.0000 0.0000 0.0000
vn 1.0000 0.0000 0.0000
vn 0.0000 0.4122 -0.9111
vn 0.5954 -0.5395 -0.5954
vn -0.4836 0.8753 0.0037
vn 0.7071 0.0000 -0.7071
vn 0.0000 0.0000 1.0000
vn 0.6851 -0.2475 0.6851
vn 0.0000 0.4122 0.9111
vn -0.9111 -0.4122 0.0000
vn 0.7071 0.0000 0.7071
vn 0.4836 0.8753 0.0037
vn 0.9111 -0.4122 0.0000
vn -0.6851 -0.2475 0.6851
vn -0.5954 -0.5395 -0.5954
vn -0.6442 -0.4122 0.6442
vn -0.6442 -0.4122 -0.6442
vn 0.6442 -0.4122 0.6442
vn -0.7071 0.0000 0.7071
vn -0.7071 0.0000 -0.7071
vn 0.6442 -0.4122 -0.6442
vn 0.0000 1.0000 0.0000
vn 0.6442 0.4122 -0.6442
vn 0.6442 0.4122 0.6442
vn -0.6442 0.4122 -0.6442
vn -0.6442 0.4122 0.6442
vn 0.9111 0.4122 0.0000
vn -0.9111 0.4122 0.0000
vn 0.0000 -0.4122 0.9111
vn 0.0000 -0.4122 -0.9111
s off
f 1/1/1 2/2/1 15/3/1 18/4/1
f 25/5/2 31/6/2 23/7/2 17/8/2
f 3/9/3 24/10/3 21/11/3 4/12/3
f 24/13/4 32/14/4 29/15/4 21/16/4
f 18/17/5 15/18/5 19/19/5 26/20/5
f 60/21/6 58/22/6 38/23/6 34/24/6
f 17/25/7 1/26/7 18/27/7
f 3/9/8 4/12/8 5/28/8 6/29/8
f 17/8/9 18/17/9 26/20/9 25/5/9
f 17/30/2 23/31/2 6/29/2 1/1/2
f 25/32/9 26/33/9 42/34/9 41/35/9
f 2/2/10 5/28/10 22/36/10 16/37/10
f 15/38/11 2/39/11 16/40/11
f 23/31/2 3/9/2 6/29/2
f 54/41/5 49/42/5 28/43/5 33/44/5
f 40/45/10 20/46/10 30/47/10 44/48/10
f 52/49/4 37/50/4 36/51/4 47/52/4
f 41/35/9 42/34/9 54/53/9 50/54/9
f 62/55/12 27/56/12 35/57/12 57/58/12
f 4/12/10 22/36/10 5/28/10
f 59/59/13 11/60/13 10/61/13 56/62/13
f 49/63/14 53/64/14 27/65/14 28/66/14
f 20/67/10 16/68/10 22/69/10 30/70/10
f 53/71/10 40/72/10 44/73/10 51/74/10
f 1/1/15 6/29/15 5/28/15 2/2/15
f 55/75/16 61/76/16 8/77/16 13/78/16
f 21/79/17 22/80/17 4/81/17
f 23/82/18 24/83/18 3/84/18
f 15/18/14 16/68/14 20/67/14 19/19/14
f 50/54/9 54/53/9 33/85/9 34/86/9
f 56/62/19 10/61/19 9/87/19 57/58/19
f 58/22/20 12/88/20 11/60/20 59/59/20
f 41/89/2 45/90/2 31/91/2 25/92/2
f 61/76/21 62/55/21 7/93/21 8/77/21
f 21/16/22 29/15/22 30/70/22 22/69/22
f 23/7/23 31/6/23 32/14/23 24/13/23
f 39/94/14 40/95/14 53/64/14 49/63/14
f 47/96/22 36/97/22 35/98/22 51/99/22
f 48/100/23 38/101/23 37/102/23 52/103/23
f 60/21/24 55/75/24 13/78/24 14/104/24
f 31/105/23 45/106/23 46/107/23 32/108/23
f 29/109/22 43/110/22 44/111/22 30/112/22
f 26/113/5 19/114/5 39/115/5 42/116/5
f 19/117/14 20/118/14 40/95/14 39/94/14
f 50/119/2 48/120/2 45/121/2 41/122/2
f 32/123/4 46/124/4 43/125/4 29/126/4
f 27/127/10 53/128/10 51/129/10 35/130/10
f 34/131/2 38/132/2 48/133/2 50/134/2
f 45/106/23 48/100/23 52/103/23 46/107/23
f 43/110/22 47/96/22 51/99/22 44/111/22
f 42/135/5 39/136/5 49/137/5 54/138/5
f 17/139/25 23/140/25 22/141/25 16/142/25 15/143/25 18/144/25
f 46/145/4 52/146/4 47/147/4 43/148/4
f 23/140/25 24/149/25 21/150/25 22/141/25
f 34/24/26 33/151/26 55/75/26 60/21/26
f 28/152/27 27/56/27 62/55/27 61/76/27
f 38/23/28 58/22/28 59/59/28 37/153/28
f 36/154/29 56/62/29 57/58/29 35/57/29
f 33/151/30 28/152/30 61/76/30 55/75/30
f 37/153/31 59/59/31 56/62/31 36/154/31
f 7/93/32 62/55/32 57/58/32 9/87/32
f 14/104/33 12/88/33 58/22/33 60/21/33
