# Blender v2.90.0 Alpha OBJ File: 'Decos.blend'
# www.blender.org
o Table_Cube.004
v -3.156008 0.731062 -2.150680
v -3.156008 -0.040260 -3.551868
v -3.156008 -0.040262 -2.494850
v -2.725342 0.731064 -3.896038
v -2.725342 3.033668 -4.169568
v -2.725342 3.033668 -3.825418
v -2.725342 0.731064 -3.551868
v -3.156008 3.033668 -3.825418
v -3.156008 0.731064 -3.551868
v -2.725342 -0.040260 -3.551868
v -2.725342 -0.040262 -2.494850
v -3.156008 0.731064 -3.896038
v -3.156008 -0.040260 -3.896038
v -3.156008 -0.811588 -2.494850
v -3.156008 -0.811588 -2.150680
v -3.156008 -0.040262 -2.150680
v -2.725342 -0.811588 -2.150680
v -2.725342 -0.040262 -2.150680
v 3.227758 0.643766 -2.108336
v 3.185548 0.830048 -2.142068
v -3.185548 0.830048 -2.142068
v -3.227758 0.643766 -2.108336
v 3.156008 0.731062 -2.150680
v 3.156008 -0.040262 -2.494850
v 3.156008 -0.040260 -3.551868
v 2.725342 -0.040262 -2.494850
v 2.725342 -0.040260 -3.551868
v -2.725342 -0.811588 -2.494850
v -2.725342 -0.040260 -3.896038
v -3.185548 0.830062 -3.909988
v -3.227758 0.643770 -3.943722
v -2.725342 -0.811586 -3.551868
v -2.725342 -0.811586 -3.896038
v -3.156008 -0.811586 -3.551868
v -2.725342 0.731062 -2.150680
v 3.227758 0.643770 -3.943722
v 3.185548 0.830062 -3.909988
v -3.156008 -0.811586 -3.896038
v -3.156008 3.033668 -4.169568
v 2.725342 0.731064 -3.896038
v 2.725342 0.731064 -3.551868
v 2.725342 3.033668 -3.825418
v 2.725342 3.033668 -4.169568
v 3.156008 0.731064 -3.551868
v 3.156008 3.033668 -3.825418
v 3.156008 0.731064 -3.896038
v 3.156008 3.033668 -4.169568
v 2.725342 0.731062 -2.150680
v 2.725342 -0.040260 -3.896038
v 2.725342 -0.811586 -3.896038
v 2.725342 -0.811586 -3.551868
v 3.156008 -0.811586 -3.551868
v 3.156008 -0.040260 -3.896038
v 3.156008 -0.811586 -3.896038
v 2.725342 -0.040262 -2.150680
v 2.725342 -0.811588 -2.494850
v 2.725342 -0.811588 -2.150680
v 3.156008 -0.040262 -2.150680
v 3.156008 -0.811588 -2.150680
v 3.156008 -0.811588 -2.494850
v -3.317292 1.868306 -3.682372
v -3.317292 1.868306 -3.575410
v 3.317292 1.868306 -3.575410
v 3.317292 1.868306 -3.682372
v -3.317292 1.439182 -3.515182
v 3.317292 1.439182 -3.515182
v 3.317292 1.439182 -3.622144
v -3.317292 1.439182 -3.622144
v -3.317292 2.493368 -3.760087
v -3.317292 2.493366 -3.655616
v 3.317292 2.493366 -3.655616
v 3.317292 2.493368 -3.760087
v -3.317292 2.074234 -3.596790
v 3.317292 2.074234 -3.596790
v 3.317292 2.074234 -3.701262
v -3.317292 2.074234 -3.701262
v -3.317292 3.005862 -3.823385
v -3.317292 3.005862 -3.730586
v 3.317292 3.005862 -3.730586
v 3.317292 3.005862 -3.823385
v -3.317292 2.633560 -3.678334
v 3.317292 2.633560 -3.678334
v 3.317292 2.633560 -3.771132
v -3.317292 2.633560 -3.771132
vt 0.007812 0.851562
vt 0.007812 0.851562
vt 0.007812 0.851562
vt 0.007812 0.851562
vt 0.007812 0.851562
vt 0.007812 0.851562
vt 0.007812 0.851562
vt 0.007812 0.851562
vt 0.007812 0.851562
vt 0.007812 0.851562
vt 0.007812 0.851562
vt 0.007812 0.851562
vt 0.007812 0.851562
vt 0.007812 0.851562
vt 0.007812 0.851562
vt 0.007812 0.851562
vt 0.007812 0.851562
vt 0.007812 0.851562
vt 0.023438 0.773438
vt 0.023438 0.773438
vt 0.023438 0.773438
vt 0.023438 0.773438
vt 0.007812 0.851562
vt 0.007812 0.851562
vt 0.007812 0.851562
vt 0.007812 0.851562
vt 0.007812 0.851562
vt 0.007812 0.851562
vt 0.007812 0.851562
vt 0.023438 0.773438
vt 0.023438 0.773438
vt 0.007812 0.851562
vt 0.007812 0.851562
vt 0.007812 0.851562
vt 0.007812 0.851562
vt 0.023438 0.773438
vt 0.023438 0.773438
vt 0.007812 0.851562
vt 0.007812 0.851562
vt 0.007812 0.851562
vt 0.007812 0.851562
vt 0.007812 0.851562
vt 0.007812 0.851562
vt 0.007812 0.851562
vt 0.007812 0.851562
vt 0.007812 0.851562
vt 0.007812 0.851562
vt 0.007812 0.851562
vt 0.007812 0.851562
vt 0.007812 0.851562
vt 0.007812 0.851562
vt 0.007812 0.851562
vt 0.007812 0.851562
vt 0.007812 0.851562
vt 0.007812 0.851562
vt 0.007812 0.851562
vt 0.007812 0.851562
vt 0.007812 0.851562
vt 0.007812 0.851562
vt 0.007812 0.851562
vt 0.023438 0.773438
vt 0.023438 0.773438
vt 0.023438 0.773438
vt 0.023438 0.773438
vt 0.023438 0.773438
vt 0.023438 0.773438
vt 0.023438 0.773438
vt 0.023438 0.773438
vt 0.023438 0.773438
vt 0.023438 0.773438
vt 0.023438 0.773438
vt 0.023438 0.773438
vt 0.023438 0.773438
vt 0.023438 0.773438
vt 0.023438 0.773438
vt 0.023438 0.773438
vt 0.023438 0.773438
vt 0.023438 0.773438
vt 0.023438 0.773438
vt 0.023438 0.773438
vt 0.023438 0.773438
vt 0.023438 0.773438
vt 0.023438 0.773438
vt 0.023438 0.773438
vn -1.0000 0.0000 0.0000
vn 1.0000 -0.0000 0.0000
vn 0.0000 0.1180 0.9930
vn 0.0000 -1.0000 -0.0000
vn 0.0000 -0.0000 1.0000
vn 0.0000 0.1782 0.9840
vn 0.0000 0.0000 -1.0000
vn -0.9753 0.2210 0.0000
vn 0.0000 0.1782 -0.9840
vn 0.0000 -0.1180 -0.9930
vn 0.0000 1.0000 0.0000
vn 0.9753 0.2210 0.0000
vn 0.0000 0.1390 0.9903
vn 0.0000 -0.1390 -0.9903
s 1
f 1/1/1 2/2/1 3/3/1
f 4/4/2 5/5/2 6/6/2 7/7/2
f 7/7/3 6/6/3 8/8/3 9/9/3
f 3/3/4 2/2/4 10/10/4 11/11/4
f 12/12/1 13/13/1 2/2/1 9/9/1
f 3/3/1 14/14/1 15/15/1 16/16/1
f 16/16/5 15/15/5 17/17/5 18/18/5
f 19/19/6 20/20/6 21/21/6 22/22/6
f 23/23/2 24/24/2 25/25/2
f 24/24/4 26/26/4 27/27/4 25/25/4
f 11/11/7 28/28/7 14/14/7 3/3/7
f 18/18/2 17/17/2 28/28/2 11/11/2
f 7/7/2 10/10/2 29/29/2 4/4/2
f 22/22/8 21/21/8 30/30/8 31/31/8
f 10/10/2 32/32/2 33/33/2 29/29/2
f 4/4/7 29/29/7 13/13/7 12/12/7
f 2/2/5 34/34/5 32/32/5 10/10/5
f 9/9/1 2/2/1 1/1/1
f 1/1/5 16/16/5 18/18/5 35/35/5
f 1/1/1 3/3/1 16/16/1
f 36/36/9 31/31/9 30/30/9 37/37/9
f 29/29/7 33/33/7 38/38/7 13/13/7
f 12/12/10 39/39/10 5/5/10 4/4/10
f 9/9/1 8/8/1 39/39/1 12/12/1
f 8/8/11 6/6/11 5/5/11 39/39/11
f 35/35/11 7/7/11 9/9/11 1/1/11
f 40/40/1 41/41/1 42/42/1 43/43/1
f 41/41/3 44/44/3 45/45/3 42/42/3
f 46/46/10 40/40/10 43/43/10 47/47/10
f 44/44/2 46/46/2 47/47/2 45/45/2
f 45/45/11 47/47/11 43/43/11 42/42/11
f 48/48/11 23/23/11 44/44/11 41/41/11
f 27/27/1 49/49/1 50/50/1 51/51/1
f 13/13/1 38/38/1 34/34/1 2/2/1
f 35/35/2 10/10/2 7/7/2
f 35/35/2 18/18/2 11/11/2
f 25/25/5 27/27/5 51/51/5 52/52/5
f 53/53/2 25/25/2 52/52/2 54/54/2
f 49/49/7 53/53/7 54/54/7 50/50/7
f 55/55/1 26/26/1 56/56/1 57/57/1
f 41/41/1 40/40/1 49/49/1 27/27/1
f 46/46/2 44/44/2 25/25/2 53/53/2
f 58/58/5 55/55/5 57/57/5 59/59/5
f 24/24/2 58/58/2 59/59/2 60/60/2
f 26/26/7 24/24/7 60/60/7 56/56/7
f 40/40/7 46/46/7 53/53/7 49/49/7
f 48/48/1 26/26/1 55/55/1
f 23/23/5 48/48/5 55/55/5 58/58/5
f 23/23/2 58/58/2 24/24/2
f 48/48/1 41/41/1 27/27/1
f 19/19/12 36/36/12 37/37/12 20/20/12
f 44/44/2 23/23/2 25/25/2
f 26/26/1 48/48/1 27/27/1
f 61/61/11 62/62/11 63/63/11 64/64/11
f 63/63/13 62/62/13 65/65/13 66/66/13
f 66/66/2 67/67/2 64/64/2 63/63/2
f 68/68/14 61/61/14 64/64/14 67/67/14
f 69/69/11 70/70/11 71/71/11 72/72/11
f 71/71/13 70/70/13 73/73/13 74/74/13
f 74/74/2 75/75/2 72/72/2 71/71/2
f 76/76/14 69/69/14 72/72/14 75/75/14
f 77/77/11 78/78/11 79/79/11 80/80/11
f 79/79/13 78/78/13 81/81/13 82/82/13
f 82/82/2 83/83/2 80/80/2 79/79/2
f 84/84/14 77/77/14 80/80/14 83/83/14
f 11/11/2 10/10/2 35/35/2
f 65/65/1 62/62/1 61/61/1 68/68/1
f 73/73/1 70/70/1 69/69/1 76/76/1
f 81/81/1 78/78/1 77/77/1 84/84/1
f 20/20/11 37/37/11 30/30/11 21/21/11
