# Blender v2.90.0 Alpha OBJ File: 'Decos.blend'
# www.blender.org
o Cube.002_Cube.011
v -3.000000 -1.953426 -9.279403
v -3.000000 4.397138 -9.279401
v -3.000000 4.804351 0.930054
v -3.000000 -1.953426 0.175858
v 3.000000 -1.953426 -9.279403
v 3.000000 4.397138 -9.279401
v 3.000000 4.804351 0.930054
v 3.000000 -1.953426 0.175858
v 2.918120 -2.443074 -0.183308
v -2.918120 -2.443074 -0.183308
v 2.918120 4.343904 -0.183306
v -2.918120 4.343904 -0.183306
vt 0.242188 0.804688
vt 0.242188 0.804688
vt 0.242188 0.804688
vt 0.242188 0.804688
vt 0.242188 0.804688
vt 0.242188 0.804688
vt 0.242188 0.804688
vt 0.242188 0.804688
vt 0.242188 0.804688
vt 0.242188 0.804688
vt 0.242188 0.804688
vt 0.242188 0.804688
vt 0.226562 0.898438
vt 0.226562 0.898438
vt 0.226562 0.898438
vt 0.226562 0.898438
vn 0.0000 -0.0000 1.0000
vn 1.0000 -0.0000 0.0000
vn -1.0000 -0.0000 0.0000
vn 0.0000 0.0000 -1.0000
vn 0.0000 0.9992 -0.0399
s off
f 10/1/1 9/2/1 11/3/1 12/4/1
s 1
f 5/5/2 6/6/2 7/7/2 8/8/2
f 4/9/3 3/10/3 2/11/3 1/12/3
f 1/12/4 6/6/4 5/5/4
f 1/12/4 2/11/4 6/6/4
f 6/13/5 2/14/5 3/15/5 7/16/5
