# Blender v2.83.4 OBJ File: 'decos.blend'
# www.blender.org
o Cube.002_Cube.003
v 3.256002 -1.888944 1.790120
v 3.256002 -1.095321 1.790120
v 3.256002 -1.095322 -1.790120
v 3.256002 -1.888944 -1.790120
v 6.836243 -1.095322 -1.790120
v 6.836243 -1.888944 -1.790120
v 6.836243 -1.095321 1.790120
v 6.836243 -1.888944 1.790120
v 6.622278 -0.837492 -1.576156
v 3.469967 -0.837492 -1.576156
v 3.469967 -0.837492 1.576156
v 6.622278 -0.837492 1.576156
v 3.469967 -1.138933 1.576155
v 6.622278 -1.138933 1.576155
v 6.622278 -1.138933 -1.576156
v 3.469967 -1.138933 -1.576156
v -3.256002 -1.888944 1.790120
v -3.256002 -1.888944 -1.790120
v -3.256002 -1.095322 -1.790120
v -3.256002 -1.095321 1.790120
v -6.836243 -1.888944 1.790120
v -6.836243 -1.095321 1.790120
v -6.836243 -1.888944 -1.790120
v -6.836243 -1.095322 -1.790120
v -6.622278 -1.138933 1.576155
v -6.622278 -0.837492 1.576156
v -6.622278 -0.837492 -1.576156
v -6.622278 -1.138933 -1.576156
v -3.469967 -0.837492 -1.576156
v -3.469967 -1.138933 -1.576156
v -3.469967 -1.138933 1.576155
v -3.469967 -0.837492 1.576156
v -3.256002 13.041307 1.790122
v -3.256002 12.247684 1.790122
v -3.256002 12.247684 -1.790118
v -3.256002 13.041306 -1.790118
v 3.256002 13.041307 1.790122
v 3.256002 13.041306 -1.790118
v 3.256002 12.247684 -1.790118
v 3.256002 12.247684 1.790122
v 6.836243 13.041306 -1.790118
v 6.836243 12.247684 -1.790118
v 6.836243 13.041307 1.790122
v 6.836243 12.247684 1.790122
v 6.622278 11.989855 -1.576154
v 6.622278 11.989855 1.576157
v 3.469967 11.989855 1.576157
v 3.469967 11.989855 -1.576154
v 3.469967 12.291296 1.576158
v 6.622278 12.291296 1.576158
v 6.622278 12.291296 -1.576154
v 3.469967 12.291296 -1.576154
v 3.989577 12.095045 -1.056543
v 3.989577 -0.942682 -1.056545
v 3.989577 -0.942682 1.056545
v 3.989577 12.095045 1.056547
v 6.102668 12.095045 1.056547
v 6.102668 -0.942682 1.056545
v 6.102668 -0.942682 -1.056545
v 6.102668 12.095045 -1.056543
v 4.098096 10.927728 -0.286749
v 4.098096 10.927728 0.286753
v 4.098096 8.371282 0.286752
v 4.098096 8.371281 -0.286750
v -6.836243 12.247684 -1.790118
v -6.836243 12.247684 1.790122
v -6.836243 13.041306 -1.790118
v -6.836243 13.041307 1.790122
v -6.622278 11.989855 -1.576154
v -3.469967 11.989855 -1.576154
v -3.469967 11.989855 1.576157
v -6.622278 11.989855 1.576157
v 0.000000 8.371282 0.286752
v 0.000000 8.371281 -0.286750
v 0.000000 10.927728 0.286753
v 0.000000 10.679174 0.286753
v 3.762569 10.679174 0.286753
v 0.000000 10.927728 -0.286749
v -3.469967 12.291296 1.576158
v -6.622278 12.291296 1.576158
v -6.622278 12.291296 -1.576154
v -3.469967 12.291296 -1.576154
v -3.989577 12.095045 -1.056543
v -3.989577 12.095045 1.056547
v -3.989577 -0.942682 1.056545
v -3.989577 -0.942682 -1.056545
v -6.102668 12.095045 1.056547
v -6.102668 12.095045 -1.056543
v -6.102668 -0.942682 -1.056545
v -6.102668 -0.942682 1.056545
v -4.098096 10.927728 -0.286749
v -4.098096 8.371281 -0.286750
v -4.098096 8.371282 0.286752
v -4.098096 10.927728 0.286753
v 0.000000 8.619835 0.286752
v -3.762569 8.619835 0.286752
v -3.762569 10.679174 0.286753
v -3.574529 8.688924 0.103810
v -3.574529 10.610086 0.103811
v 0.000000 8.688924 0.103810
v 3.762569 8.619835 0.286752
v 3.574529 8.688924 0.103810
v 3.574529 10.610086 0.103811
v 0.000000 10.610086 0.103811
v 6.417437 -0.228306 -1.371314
v 3.674809 -0.228306 -1.371314
v 3.674809 -0.228304 1.371314
v 6.417437 -0.228304 1.371314
v 3.674809 -1.263274 1.371314
v 6.417437 -1.263274 1.371314
v 6.417437 -1.263274 -1.371314
v 3.674809 -1.263274 -1.371314
v -6.417437 -1.263274 1.371314
v -6.417437 -0.228304 1.371314
v -6.417437 -0.228306 -1.371314
v -6.417437 -1.263274 -1.371314
v -3.674809 -0.228306 -1.371314
v -3.674809 -1.263274 -1.371314
v -3.674809 -1.263274 1.371314
v -3.674809 -0.228304 1.371314
v 6.417437 11.380670 -1.371312
v 6.417437 11.380668 1.371316
v 3.674809 11.380668 1.371316
v 3.674809 11.380670 -1.371312
v 3.674809 12.415639 1.371316
v 6.417437 12.415639 1.371316
v 6.417437 12.415640 -1.371312
v 3.674809 12.415640 -1.371312
v -6.417437 11.380670 -1.371312
v -3.674809 11.380670 -1.371312
v -3.674809 11.380668 1.371316
v -6.417437 11.380668 1.371316
v -3.674809 12.415639 1.371316
v -6.417437 12.415639 1.371316
v -6.417437 12.415640 -1.371312
v -3.674809 12.415640 -1.371312
vt 0.101562 0.789062
vt 0.101562 0.789062
vt 0.101562 0.789062
vt 0.101562 0.789062
vt 0.101562 0.789062
vt 0.101562 0.789062
vt 0.101562 0.789062
vt 0.101562 0.789062
vt 0.320312 0.960938
vt 0.320312 0.960938
vt 0.320312 0.960938
vt 0.320312 0.960938
vt 0.320312 0.960938
vt 0.320312 0.960938
vt 0.320312 0.960938
vt 0.320312 0.960938
vt 0.101562 0.789062
vt 0.101562 0.789062
vt 0.101562 0.789062
vt 0.101562 0.789062
vt 0.101562 0.789062
vt 0.101562 0.789062
vt 0.101562 0.789062
vt 0.101562 0.789062
vt 0.320312 0.960938
vt 0.320312 0.960938
vt 0.320312 0.960938
vt 0.320312 0.960938
vt 0.320312 0.960938
vt 0.320312 0.960938
vt 0.320312 0.960938
vt 0.320312 0.960938
vt 0.101562 0.789062
vt 0.101562 0.789062
vt 0.101562 0.789062
vt 0.101562 0.789062
vt 0.101562 0.789062
vt 0.101562 0.789062
vt 0.101562 0.789062
vt 0.101562 0.789062
vt 0.101562 0.789062
vt 0.101562 0.789062
vt 0.101562 0.789062
vt 0.101562 0.789062
vt 0.320312 0.960938
vt 0.320312 0.960938
vt 0.320312 0.960938
vt 0.320312 0.960938
vt 0.320312 0.960938
vt 0.320312 0.960938
vt 0.320312 0.960938
vt 0.320312 0.960938
vt 0.320312 0.960938
vt 0.320312 0.960938
vt 0.320312 0.960938
vt 0.320312 0.960938
vt 0.320312 0.960938
vt 0.320312 0.960938
vt 0.320312 0.960938
vt 0.320312 0.960938
vt 0.320312 0.960938
vt 0.320312 0.960938
vt 0.320312 0.960938
vt 0.320312 0.960938
vt 0.101562 0.789062
vt 0.101562 0.789062
vt 0.101562 0.789062
vt 0.101562 0.789062
vt 0.320312 0.960938
vt 0.320312 0.960938
vt 0.320312 0.960938
vt 0.320312 0.960938
vt 0.320312 0.960938
vt 0.320312 0.960938
vt 0.320312 0.960938
vt 0.320312 0.960938
vt 0.320312 0.960938
vt 0.320312 0.960938
vt 0.320312 0.960938
vt 0.320312 0.960938
vt 0.320312 0.960938
vt 0.320312 0.960938
vt 0.320312 0.960938
vt 0.320312 0.960938
vt 0.320312 0.960938
vt 0.320312 0.960938
vt 0.320312 0.960938
vt 0.320312 0.960938
vt 0.320312 0.960938
vt 0.320312 0.960938
vt 0.320312 0.960938
vt 0.320312 0.960938
vt 0.320312 0.960938
vt 0.320312 0.960938
vt 0.320312 0.960938
vt 0.320312 0.960938
vt 0.101562 0.789062
vt 0.101562 0.789062
vt 0.101562 0.789062
vt 0.101562 0.789062
vt 0.101562 0.789062
vt 0.101562 0.789062
vt 0.320312 0.960938
vt 0.320312 0.960938
vt 0.101562 0.789062
vt 0.101562 0.789062
vt 0.101562 0.789062
vt 0.101562 0.789062
vt 0.101562 0.789062
vt 0.101562 0.789062
vt 0.101562 0.789062
vt 0.101562 0.789062
vt 0.101562 0.789062
vt 0.101562 0.789062
vt 0.101562 0.789062
vt 0.101562 0.789062
vt 0.101562 0.789062
vt 0.101562 0.789062
vt 0.101562 0.789062
vt 0.101562 0.789062
vt 0.101562 0.789062
vt 0.101562 0.789062
vt 0.101562 0.789062
vt 0.101562 0.789062
vt 0.101562 0.789062
vt 0.101562 0.789062
vt 0.101562 0.789062
vt 0.101562 0.789062
vt 0.101562 0.789062
vt 0.101562 0.789062
vt 0.101562 0.789062
vt 0.101562 0.789062
vt 0.101562 0.789062
vt 0.101562 0.789062
vt 0.101562 0.789062
vt 0.101562 0.789062
vt 0.101562 0.789062
vt 0.101562 0.789062
vt 0.101562 0.789062
vt 0.101562 0.789062
vt 0.101562 0.789062
vt 0.101562 0.789062
vn -1.0000 -0.0000 0.0000
vn 0.0000 0.0000 -1.0000
vn 1.0000 -0.0000 0.0000
vn 0.0000 -0.0000 1.0000
vn 0.0000 1.0000 -0.0000
vn 0.0000 -1.0000 0.0000
vn 0.6973 -0.0000 0.7168
vn 0.0000 0.9355 0.3533
vn -0.6973 -0.0000 0.7168
vn 0.0000 -0.9355 0.3533
s 1
f 1/1/1 2/2/1 3/3/1 4/4/1
f 4/4/2 3/3/2 5/5/2 6/6/2
f 6/6/3 5/5/3 7/7/3 8/8/3
f 8/8/4 7/7/4 2/2/4 1/1/4
f 5/5/5 3/3/5 2/2/5 7/7/5
f 9/9/5 10/10/5 11/11/5 12/12/5
f 13/13/4 14/14/4 12/12/4 11/11/4
f 15/15/2 16/16/2 10/10/2 9/9/2
f 14/14/3 15/15/3 9/9/3 12/12/3
f 16/16/1 13/13/1 11/11/1 10/10/1
f 17/17/3 18/18/3 19/19/3 20/20/3
f 21/21/4 17/17/4 20/20/4 22/22/4
f 23/23/1 21/21/1 22/22/1 24/24/1
f 18/18/2 23/23/2 24/24/2 19/19/2
f 24/24/5 22/22/5 20/20/5 19/19/5
f 25/25/1 26/26/1 27/27/1 28/28/1
f 28/28/2 27/27/2 29/29/2 30/30/2
f 31/31/4 32/32/4 26/26/4 25/25/4
f 30/30/3 29/29/3 32/32/3 31/31/3
f 27/27/5 26/26/5 32/32/5 29/29/5
f 33/33/3 34/34/3 35/35/3 36/36/3
f 37/37/1 38/38/1 39/39/1 40/40/1
f 38/38/2 41/41/2 42/42/2 39/39/2
f 41/41/3 43/43/3 44/44/3 42/42/3
f 43/43/4 37/37/4 40/40/4 44/44/4
f 42/42/6 44/44/6 40/40/6 39/39/6
f 45/45/6 46/46/6 47/47/6 48/48/6
f 49/49/4 47/47/4 46/46/4 50/50/4
f 51/51/2 45/45/2 48/48/2 52/52/2
f 50/50/3 46/46/3 45/45/3 51/51/3
f 52/52/1 48/48/1 47/47/1 49/49/1
f 53/53/1 54/54/1 55/55/1 56/56/1
f 57/57/3 58/58/3 59/59/3 60/60/3
f 60/60/2 59/59/2 54/54/2 53/53/2
f 56/56/4 55/55/4 58/58/4 57/57/4
f 37/37/5 43/43/5 41/41/5 38/38/5
f 61/61/3 62/62/3 63/63/3 64/64/3
f 65/65/6 35/35/6 34/34/6 66/66/6
f 36/36/2 35/35/2 65/65/2 67/67/2
f 68/68/4 66/66/4 34/34/4 33/33/4
f 67/67/1 65/65/1 66/66/1 68/68/1
f 69/69/6 70/70/6 71/71/6 72/72/6
f 64/64/6 63/63/6 73/73/6 74/74/6
f 62/62/4 75/75/4 76/76/4 77/77/4
f 62/62/5 61/61/5 78/78/5 75/75/5
f 61/61/2 64/64/2 74/74/2 78/78/2
f 79/79/4 80/80/4 72/72/4 71/71/4
f 81/81/2 82/82/2 70/70/2 69/69/2
f 80/80/1 81/81/1 69/69/1 72/72/1
f 82/82/3 79/79/3 71/71/3 70/70/3
f 83/83/3 84/84/3 85/85/3 86/86/3
f 87/87/1 88/88/1 89/89/1 90/90/1
f 88/88/2 83/83/2 86/86/2 89/89/2
f 84/84/4 87/87/4 90/90/4 85/85/4
f 33/33/5 36/36/5 67/67/5 68/68/5
f 91/91/1 92/92/1 93/93/1 94/94/1
f 92/92/6 74/74/6 73/73/6 93/93/6
f 93/93/4 73/73/4 95/95/4 96/96/4
f 94/94/5 75/75/5 78/78/5 91/91/5
f 91/91/2 78/78/2 74/74/2 92/92/2
f 97/97/7 96/98/7 98/99/7 99/100/7
f 96/98/8 95/101/8 100/102/8 98/99/8
f 94/94/4 93/93/4 96/96/4 97/103/4
f 73/73/4 63/63/4 101/104/4 95/95/4
f 63/63/4 62/62/4 77/77/4 101/104/4
f 75/75/4 94/94/4 97/103/4 76/76/4
f 102/105/4 103/106/4 104/107/4 100/102/4
f 98/99/4 100/102/4 104/107/4 99/100/4
f 95/101/8 101/108/8 102/105/8 100/102/8
f 101/108/9 77/109/9 103/106/9 102/105/9
f 76/110/10 97/97/10 99/100/10 104/107/10
f 77/109/10 76/110/10 104/107/10 103/106/10
f 105/111/5 106/112/5 107/113/5 108/114/5
f 109/115/4 110/116/4 108/114/4 107/113/4
f 111/117/2 112/118/2 106/112/2 105/111/2
f 110/116/3 111/117/3 105/111/3 108/114/3
f 112/118/1 109/115/1 107/113/1 106/112/1
f 113/119/1 114/120/1 115/121/1 116/122/1
f 116/122/2 115/121/2 117/123/2 118/124/2
f 119/125/4 120/126/4 114/120/4 113/119/4
f 118/124/3 117/123/3 120/126/3 119/125/3
f 115/121/5 114/120/5 120/126/5 117/123/5
f 121/127/6 122/128/6 123/129/6 124/130/6
f 125/131/4 123/129/4 122/128/4 126/132/4
f 127/133/2 121/127/2 124/130/2 128/134/2
f 126/132/3 122/128/3 121/127/3 127/133/3
f 128/134/1 124/130/1 123/129/1 125/131/1
f 129/135/6 130/136/6 131/137/6 132/138/6
f 133/139/4 134/140/4 132/138/4 131/137/4
f 135/141/2 136/142/2 130/136/2 129/135/2
f 134/140/1 135/141/1 129/135/1 132/138/1
f 136/142/3 133/139/3 131/137/3 130/136/3
