# Blender v2.90.0 Alpha OBJ File: 'Decos.blend'
# www.blender.org
o Table_Cube.003
v -2.725342 -0.811587 -3.896038
v -2.725342 3.033667 -4.169568
v -2.725342 3.033667 -3.825419
v -2.725342 0.731063 -3.551868
v -3.156008 3.033667 -3.825419
v -3.156008 0.731063 -3.551868
v -3.156008 -0.811587 -3.896038
v -3.156008 -0.811588 -2.150680
v 3.317292 3.005861 -3.823385
v -3.317292 3.005861 -3.823385
v -3.317292 3.005861 -3.730586
v 3.317292 3.005861 -3.730586
v -2.725342 0.731062 -2.150680
v -2.725342 -0.811588 -2.150680
v -3.317292 1.439181 -3.515182
v -3.317292 1.439181 -3.622144
v -3.156008 0.731062 -2.150680
v -3.156008 3.033667 -4.169568
v 2.725342 -0.811587 -3.896038
v 2.725342 0.731063 -3.551868
v 2.725342 3.033667 -3.825419
v 2.725342 3.033667 -4.169568
v 3.156008 0.731063 -3.551868
v 3.156008 3.033667 -3.825419
v 3.156008 -0.811587 -3.896038
v 3.156008 3.033667 -4.169568
v 2.725342 0.731062 -2.150680
v 3.156008 0.731062 -2.150680
v 2.725342 -0.811588 -2.150680
v 3.156008 -0.811588 -2.150680
v 3.317292 1.439181 -3.515182
v 3.317292 1.439181 -3.622144
v -3.499912 0.830046 -2.054834
v 3.499912 0.830046 -2.054834
v 3.499912 0.830061 -3.997220
v -3.499912 0.830061 -3.997220
vt 0.007812 0.851562
vt 0.007812 0.851562
vt 0.007812 0.851562
vt 0.007812 0.851562
vt 0.007812 0.851562
vt 0.007812 0.851562
vt 0.007812 0.851562
vt 0.007812 0.851562
vt 0.023438 0.773438
vt 0.023438 0.773438
vt 0.023438 0.773438
vt 0.023438 0.773438
vt 0.007812 0.851562
vt 0.007812 0.851562
vt 0.023438 0.773438
vt 0.023438 0.773438
vt 0.007812 0.851562
vt 0.007812 0.851562
vt 0.007812 0.851562
vt 0.007812 0.851562
vt 0.007812 0.851562
vt 0.007812 0.851562
vt 0.007812 0.851562
vt 0.007812 0.851562
vt 0.007812 0.851562
vt 0.007812 0.851562
vt 0.007812 0.851562
vt 0.007812 0.851562
vt 0.007812 0.851562
vt 0.007812 0.851562
vt 0.023438 0.773438
vt 0.023438 0.773438
vt 0.023438 0.773438
vt 0.023438 0.773438
vt 0.023438 0.773438
vt 0.023438 0.773438
vn 1.0000 0.0000 0.0000
vn 0.0000 0.1180 0.9930
vn -1.0000 -0.0000 0.0000
vn 0.0000 1.0000 0.0000
vn 0.0000 -0.0000 1.0000
vn 0.0000 -0.0710 -0.9975
vn 0.0000 0.1362 0.9907
vn 0.0000 -0.1274 -0.9919
s 1
f 1/1/1 2/2/1 3/3/1 4/4/1
f 4/4/2 3/3/2 5/5/2 6/6/2
f 7/7/3 8/8/3 6/6/3
f 9/9/4 10/10/4 11/11/4 12/12/4
f 13/13/1 14/14/1 4/4/1
f 15/15/3 11/11/3 10/10/3 16/16/3
f 17/17/5 8/8/5 14/14/5 13/13/5
f 6/6/3 5/5/3 18/18/3 7/7/3
f 5/5/4 3/3/4 2/2/4 18/18/4
f 7/7/6 18/18/6 2/2/6 1/1/6
f 13/13/4 4/4/4 6/6/4 17/17/4
f 19/19/3 20/20/3 21/21/3 22/22/3
f 20/20/2 23/23/2 24/24/2 21/21/2
f 25/25/6 19/19/6 22/22/6 26/26/6
f 23/23/1 25/25/1 26/26/1 24/24/1
f 24/24/4 26/26/4 22/22/4 21/21/4
f 27/27/4 28/28/4 23/23/4 20/20/4
f 4/4/1 14/14/1 1/1/1
f 6/6/3 8/8/3 17/17/3
f 20/20/3 19/19/3 29/29/3
f 25/25/1 23/23/1 30/30/1
f 28/28/5 27/27/5 29/29/5 30/30/5
f 27/27/3 20/20/3 29/29/3
f 23/23/1 28/28/1 30/30/1
f 11/11/7 15/15/7 31/31/7 12/12/7
f 32/32/8 16/16/8 10/10/8 9/9/8
f 31/31/1 32/32/1 9/9/1 12/12/1
f 32/32/4 16/16/4 15/15/4 31/31/4
f 33/33/4 34/34/4 35/35/4 36/36/4
