# Blender v2.90.0 Alpha OBJ File: 'Decos.blend'
# www.blender.org
o Cube.001_Cube.006
v 1.268186 0.496150 -2.754800
v 1.049522 0.496150 2.754800
v 1.268186 0.496150 2.754800
v 1.049522 0.496150 -2.754800
v -1.268186 0.496150 -2.754800
v -1.049522 0.496150 2.754800
v -1.268186 0.496150 2.754800
v -1.049522 0.496150 -2.754800
vt 0.070312 0.757812
vt 0.070312 0.757812
vt 0.070312 0.757812
vt 0.070312 0.757812
vt 0.070312 0.757812
vt 0.070312 0.757812
vt 0.070312 0.757812
vt 0.070312 0.757812
vn 0.0000 1.0000 0.0000
s off
f 4/1/1 2/2/1 3/3/1 1/4/1
f 8/5/1 5/6/1 7/7/1 6/8/1
