# Blender v2.91.0 Beta OBJ File: 'decos.blend'
# www.blender.org
o Sedan_Cube.012
v 17.929440 0.377975 3.856720
v 17.929440 0.377987 -3.856719
v 18.404842 0.377987 -3.856720
v 18.404842 0.377975 3.856720
v 40.197304 0.377987 -3.856719
v 40.197304 0.377989 -4.499999
v 22.199984 0.377989 -4.499999
v -0.199726 0.377975 3.856720
v -0.199724 0.377987 -3.856719
v 0.404844 0.377987 -3.856720
v 0.404842 0.377975 3.856720
v 22.397322 0.377987 -3.856719
v -0.199724 0.377989 -4.499999
v 22.048285 0.377987 -3.856719
v 21.572880 0.377987 -3.856720
v 21.572880 0.377975 3.856720
v 22.048285 0.377975 3.856721
v 25.691727 0.377987 -3.856719
v 25.216324 0.377987 -3.856719
v 25.216324 0.377975 3.856720
v 25.691727 0.377975 3.856721
v 29.335171 0.377987 -3.856719
v 28.859760 0.377987 -3.856719
v 28.859762 0.377975 3.856721
v 29.335173 0.377975 3.856720
v 32.978611 0.377987 -3.856720
v 32.503204 0.377987 -3.856719
v 32.503204 0.377975 3.856720
v 32.978611 0.377975 3.856720
v 39.745934 0.377987 -3.856719
v 39.745930 0.377975 3.856721
v 40.197304 0.377975 3.856721
v 36.622055 0.377987 -3.856719
v 36.146648 0.377987 -3.856720
v 36.146645 0.377975 3.856720
v 36.622051 0.377975 3.856720
v 4.048285 0.377987 -3.856720
v 3.572880 0.377987 -3.856720
v 3.572880 0.377975 3.856720
v 4.048283 0.377975 3.856720
v 7.691728 0.377987 -3.856719
v 7.216323 0.377987 -3.856719
v 7.216323 0.377975 3.856720
v 7.691728 0.377975 3.856720
v 11.335173 0.377987 -3.856719
v 10.859762 0.377987 -3.856719
v 10.859760 0.377975 3.856721
v 11.335171 0.377975 3.856721
v 14.978610 0.377987 -3.856719
v 14.503205 0.377987 -3.856719
v 14.503206 0.377975 3.856720
v 14.978611 0.377975 3.856720
v 21.745930 0.377987 -3.856719
v 21.745932 0.377975 3.856721
v 22.221336 0.377975 3.856721
v 22.221338 0.377987 -3.856719
v 18.622051 0.377987 -3.856720
v 18.146648 0.377987 -3.856720
v 18.146648 0.377975 3.856720
v 18.622053 0.377975 3.856720
vt 0.257812 0.789062
vt 0.257812 0.789062
vt 0.257812 0.789062
vt 0.257812 0.789062
vt 0.257812 0.789062
vt 0.257812 0.789062
vt 0.257812 0.789062
vt 0.257812 0.789062
vt 0.257812 0.789062
vt 0.257812 0.789062
vt 0.257812 0.789062
vt 0.257812 0.789062
vt 0.257812 0.789062
vt 0.257812 0.789062
vt 0.257812 0.789062
vt 0.257812 0.789062
vt 0.257812 0.789062
vt 0.257812 0.789062
vt 0.257812 0.789062
vt 0.257812 0.789062
vt 0.257812 0.789062
vt 0.257812 0.789062
vt 0.257812 0.789062
vt 0.257812 0.789062
vt 0.257812 0.789062
vt 0.257812 0.789062
vt 0.257812 0.789062
vt 0.257812 0.789062
vt 0.257812 0.789062
vt 0.257812 0.789062
vt 0.257812 0.789062
vt 0.257812 0.789062
vt 0.257812 0.789062
vt 0.257812 0.789062
vt 0.257812 0.789062
vt 0.257812 0.789062
vt 0.257812 0.789062
vt 0.257812 0.789062
vt 0.257812 0.789062
vt 0.257812 0.789062
vt 0.257812 0.789062
vt 0.257812 0.789062
vt 0.257812 0.789062
vt 0.257812 0.789062
vt 0.257812 0.789062
vt 0.257812 0.789062
vt 0.257812 0.789062
vt 0.257812 0.789062
vt 0.257812 0.789062
vt 0.257812 0.789062
vt 0.257812 0.789062
vt 0.257812 0.789062
vt 0.257812 0.789062
vt 0.257812 0.789062
vt 0.257812 0.789062
vt 0.257812 0.789062
vt 0.257812 0.789062
vt 0.257812 0.789062
vt 0.257812 0.789062
vt 0.257812 0.789062
vn -0.0000 -1.0000 -0.0000
vn 0.0000 1.0000 0.0000
s off
f 1/1/1 2/2/1 3/3/1
f 1/1/1 3/3/1 4/4/1
f 2/2/2 5/5/2 6/6/2 7/7/2
f 8/8/1 9/9/1 10/10/1
f 8/8/1 10/10/1 11/11/1
f 9/9/2 12/12/2 7/7/2 13/13/2
s 1
f 3/3/2 2/2/2 1/1/2 4/4/2
f 14/14/2 15/15/2 16/16/2 17/17/2
f 18/18/2 19/19/2 20/20/2 21/21/2
f 22/22/2 23/23/2 24/24/2 25/25/2
f 26/26/2 27/27/2 28/28/2 29/29/2
f 30/30/2 31/31/2 32/32/2 5/5/2
f 33/33/2 34/34/2 35/35/2 36/36/2
f 10/10/2 9/9/2 8/8/2 11/11/2
f 37/37/2 38/38/2 39/39/2 40/40/2
f 41/41/2 42/42/2 43/43/2 44/44/2
f 45/45/2 46/46/2 47/47/2 48/48/2
f 49/49/2 50/50/2 51/51/2 52/52/2
f 53/53/2 54/54/2 55/55/2 56/56/2
f 57/57/2 58/58/2 59/59/2 60/60/2
