# Blender v2.83.4 OBJ File: 'decos.blend'
# www.blender.org
o Cube.006
v -0.031159 7.698680 0.031162
v -0.031159 7.698680 -0.031157
v 0.031159 7.698680 -0.031157
v 0.031159 7.698680 0.031162
v 0.027439 7.246566 -0.002413
v 0.027439 7.671487 -0.002413
v 0.791322 7.459026 -0.002413
v 0.027439 7.246566 0.001210
v 0.791322 7.459026 0.001210
v 0.027439 7.671487 0.001210
v 3.527088 5.040455 -8.439006
v 3.527088 5.040455 8.439006
v 3.527088 0.128619 8.439006
v 3.527088 0.128619 -8.439006
v -3.527088 5.040455 -8.439006
v -3.527088 5.040455 8.439006
v -3.527088 0.128619 8.439006
v -0.031159 5.733148 0.031162
v -0.031159 5.733148 -0.031157
v 0.031159 5.733148 -0.031157
v 0.031159 5.733148 0.031162
v 0.000000 0.128619 8.439006
v 0.000000 6.823672 8.439006
v -3.527088 0.128619 -8.439006
v 0.000000 0.128619 -8.439006
v 0.000000 6.823672 -8.439006
v 3.527088 5.040455 -1.687801
v 3.527088 5.040455 -3.375602
v 3.527088 5.040455 -5.063404
v 3.527088 5.040455 1.687801
v 3.527088 5.040455 3.375602
v 3.527088 5.040455 5.063404
v 3.527088 5.040455 6.751205
v 3.527088 0.128619 6.751204
v 3.527088 0.128619 5.063403
v 3.527088 0.128619 3.375602
v 3.527088 0.128619 1.687801
v 3.527088 5.040455 -6.751205
v 3.527088 0.128619 -6.751204
v 3.527088 0.128619 -5.063403
v 3.527088 0.128619 -3.375602
v -3.527088 5.040455 6.751205
v -3.527088 5.040454 5.063404
v -3.527088 5.040454 3.375603
v -3.527088 5.040454 1.687802
v 3.527088 0.128619 -1.687801
v -3.527088 5.040455 -6.751205
v -3.527088 5.040454 -5.063404
v -3.527088 5.040454 -3.375603
v -3.527088 5.040454 -1.687802
v -3.527088 0.128619 1.687801
v -3.527088 0.128619 3.375603
v -3.527088 0.128619 5.063404
v -3.527088 0.128619 6.751205
v -3.527088 0.128619 -1.687801
v -3.527088 0.128619 -3.375603
v -3.527088 0.128619 -5.063404
v -3.527088 0.128619 -6.751205
v 0.000000 6.823672 1.687802
v 0.000000 6.823673 3.375603
v 0.000000 6.823672 5.063404
v 0.000000 6.823672 6.751205
v 0.000000 6.823672 -1.687802
v 0.000000 6.823673 -3.375603
v 0.000000 6.823672 -5.063404
v 0.000000 0.128619 1.687801
v 0.000000 0.128619 3.375603
v 0.000000 0.128619 5.063404
v 0.000000 0.128619 6.751205
v -2.645316 5.486259 8.439006
v -1.763544 5.932064 8.439006
v -0.881772 6.377868 8.439006
v -0.881772 0.128619 8.439006
v 2.645316 5.486259 8.439006
v 1.763544 5.932064 8.439006
v 0.881772 6.377868 8.439006
v 0.881772 0.128619 8.439006
v 1.763544 0.128619 8.439006
v 2.645316 0.128619 8.439006
v -1.763544 0.128619 8.439006
v -2.645316 0.128619 8.439006
v 0.000000 6.823672 -6.751205
v 0.000000 0.128619 -1.687801
v 0.000000 0.128619 -3.375603
v 0.000000 0.128619 -5.063404
v 0.000000 0.128619 -6.751205
v -2.645316 5.486259 -8.439006
v -1.763544 5.932064 -8.439006
v -0.881772 6.377868 -8.439006
v -0.881772 0.128619 -8.439006
v 2.645316 5.486259 -8.439006
v 1.763544 5.932064 -8.439006
v 0.881772 6.377868 -8.439006
v 0.881772 0.128619 -8.439006
v 1.763544 0.128619 -8.439006
v 2.645316 0.128619 -8.439006
v -1.763544 0.128619 -8.439006
v -2.645316 0.128619 -8.439006
v 3.527088 5.040455 0.606291
v 3.527088 0.128619 0.606291
v -3.527088 5.040455 0.606292
v -3.527088 0.128619 0.606292
v 0.000000 6.823672 0.606292
v 0.000000 0.128619 0.606292
v 3.527088 5.040455 -0.606291
v -3.527088 5.040455 -0.606292
v -3.527088 0.128619 -0.606292
v 0.000000 6.823672 -0.606292
v 0.000000 0.128619 -0.606292
v 3.527088 0.128619 -0.606291
vt 0.289062 0.929688
vt 0.289062 0.929688
vt 0.289062 0.929688
vt 0.289062 0.929688
vt 0.289062 0.929688
vt 0.289062 0.929688
vt 0.289062 0.929688
vt 0.289062 0.898438
vt 0.289062 0.898438
vt 0.289062 0.898438
vt 0.289062 0.898438
vt 0.101562 0.789062
vt 0.101562 0.789062
vt 0.101562 0.789062
vt 0.101562 0.789062
vt 0.289062 0.929688
vt 0.289062 0.929688
vt 0.289062 0.929688
vt 0.289062 0.929688
vt 0.289062 0.929688
vt 0.289062 0.929688
vt 0.289062 0.929688
vt 0.289062 0.929688
vt 0.289062 0.929688
vt 0.289062 0.929688
vt 0.289062 0.929688
vt 0.289062 0.929688
vt 0.289062 0.929688
vt 0.289062 0.929688
vt 0.289062 0.898438
vt 0.289062 0.898438
vt 0.289062 0.898438
vt 0.289062 0.898438
vt 0.289062 0.929688
vt 0.289062 0.929688
vt 0.289062 0.929688
vt 0.289062 0.929688
vt 0.101562 0.789062
vt 0.101562 0.789062
vt 0.101562 0.789062
vt 0.101563 0.789062
vt 0.101563 0.789062
vt 0.101562 0.789062
vt 0.289062 0.929688
vt 0.289062 0.929688
vt 0.289062 0.929688
vt 0.289062 0.929688
vt 0.101563 0.789062
vt 0.101562 0.789062
vt 0.101562 0.789062
vt 0.101563 0.789062
vt 0.101562 0.789062
vt 0.101562 0.789062
vt 0.101562 0.789062
vt 0.101562 0.789062
vt 0.289062 0.929688
vt 0.289062 0.929688
vt 0.289062 0.929688
vt 0.289062 0.929688
vt 0.101562 0.789062
vt 0.101562 0.789062
vt 0.101563 0.789062
vt 0.101563 0.789063
vt 0.101563 0.789062
vt 0.101563 0.789062
vt 0.101562 0.789062
vt 0.101562 0.789062
vt 0.101562 0.789062
vt 0.101562 0.789062
vt 0.101563 0.789062
vt 0.101563 0.789062
vt 0.101562 0.789062
vt 0.101562 0.789062
vt 0.101562 0.789062
vt 0.101562 0.789062
vt 0.289062 0.929688
vt 0.289062 0.929688
vt 0.289062 0.929688
vt 0.289062 0.929688
vt 0.289062 0.929688
vt 0.289062 0.929688
vt 0.289062 0.929688
vt 0.101562 0.789062
vt 0.101562 0.789062
vt 0.289062 0.929688
vt 0.289062 0.929688
vt 0.289062 0.929688
vt 0.289062 0.929688
vt 0.101562 0.789062
vt 0.101563 0.789063
vt 0.101563 0.789062
vt 0.101562 0.789062
vt 0.289062 0.929688
vt 0.289062 0.929688
vt 0.289062 0.929688
vt 0.289062 0.929688
vt 0.101562 0.789062
vt 0.101562 0.789062
vt 0.101562 0.789062
vt 0.101562 0.789062
vt 0.289062 0.929688
vt 0.289062 0.929688
vt 0.289062 0.929688
vt 0.289062 0.929688
vt 0.289062 0.929688
vt 0.289062 0.929688
vt 0.289062 0.929688
vt 0.289062 0.929688
vt 0.101562 0.789062
vt 0.101562 0.789062
vt 0.101562 0.789062
vt 0.101562 0.789062
vt 0.289062 0.929688
vt 0.289062 0.929688
vt 0.289062 0.929688
vt 0.289062 0.929688
vt 0.289062 0.929688
vt 0.289062 0.929688
vt 0.101563 0.789063
vt 0.101563 0.789063
vt 0.289062 0.929688
vt 0.289062 0.929688
vt 0.101562 0.789062
vt 0.101563 0.789063
vt 0.289062 0.929688
vt 0.289062 0.929688
vt 0.289062 0.929688
vt 0.289062 0.929688
vt 0.289062 0.929687
vt 0.289062 0.929688
vt 0.289062 0.929688
vt 0.289062 0.929688
vt 0.101563 0.789062
vt 0.101562 0.789062
vt 0.289062 0.929688
vt 0.289062 0.929688
vt 0.101562 0.789062
vt 0.101562 0.789062
vt 0.101563 0.789063
vt 0.101563 0.789063
vt 0.101563 0.789063
vt 0.101562 0.789062
vt 0.101562 0.789062
vt 0.101563 0.789062
vt 0.289062 0.898438
vt 0.289062 0.898438
vt 0.289062 0.898438
vt 0.289062 0.898438
vt 0.101562 0.789062
vt 0.101562 0.789062
vt 0.101562 0.789062
vt 0.101562 0.789062
vt 0.289062 0.929688
vt 0.289062 0.929688
vt 0.101562 0.789062
vt 0.101562 0.789062
vt 0.101562 0.789062
vt 0.101562 0.789062
vt 0.101562 0.789062
vt 0.101562 0.789062
vt 0.289062 0.898438
vt 0.289062 0.898438
vt 0.289062 0.898438
vt 0.289062 0.898438
vt 0.289062 0.898438
vt 0.289062 0.898438
vt 0.289062 0.898438
vt 0.289062 0.898438
vt 0.101562 0.789062
vt 0.101562 0.789062
vt 0.101562 0.789062
vt 0.101562 0.789062
vt 0.289062 0.898438
vt 0.289062 0.898438
vt 0.289062 0.898438
vt 0.289062 0.898438
vt 0.289062 0.929688
vt 0.289062 0.929688
vt 0.289062 0.929688
vt 0.289062 0.929688
vt 0.289062 0.898438
vt 0.289062 0.898438
vt 0.289062 0.898438
vt 0.289062 0.898438
vt 0.101562 0.789062
vt 0.101562 0.789062
vt 0.101562 0.789062
vt 0.101562 0.789062
vt 0.289062 0.898438
vt 0.289062 0.898438
vt 0.289062 0.898438
vt 0.289062 0.898438
vt 0.289062 0.929688
vt 0.289062 0.929688
vt 0.289062 0.929688
vt 0.289062 0.929688
vt 0.101562 0.789062
vt 0.101562 0.789062
vt 0.101562 0.789062
vt 0.101562 0.789062
vt 0.101562 0.789062
vt 0.101562 0.789062
vt 0.101562 0.789062
vt 0.101562 0.789062
vt 0.132812 0.898438
vt 0.132812 0.898438
vt 0.132812 0.898438
vt 0.132812 0.898438
vt 0.132812 0.898438
vt 0.132812 0.898438
vt 0.195312 0.867187
vt 0.195312 0.867188
vt 0.195312 0.867188
vt 0.195312 0.867188
vt 0.195312 0.867187
vt 0.195312 0.867188
vt 0.195312 0.867188
vt 0.195312 0.867188
vn 0.4512 0.8924 -0.0000
vn 0.0000 0.0000 1.0000
vn 0.0000 -1.0000 0.0000
vn 1.0000 -0.0000 0.0000
vn 0.0000 0.0000 -1.0000
vn -1.0000 0.0000 0.0000
vn -0.4512 0.8924 -0.0000
vn 0.5774 -0.5774 0.5774
vn -0.5774 -0.5774 0.5774
vn -0.5774 -0.5774 -0.5774
vn 0.5774 -0.5774 -0.5774
vn 0.5774 0.5774 0.5774
vn 0.5774 0.5774 -0.5774
vn -0.5774 0.5774 -0.5774
vn -0.5774 0.5774 0.5774
s off
f 33/1/1 62/2/1 23/3/1 76/4/1 75/5/1 74/6/1 12/7/1
f 17/8/2 81/9/2 70/10/2 16/11/2
f 77/12/2 76/13/2 23/14/2 22/15/2
f 38/16/1 11/17/1 91/18/1 92/19/1 93/20/1 26/21/1 82/22/1
f 69/23/3 34/24/3 13/25/3 79/26/3 78/27/3 77/28/3 22/29/3
f 34/24/4 33/1/4 12/7/4 13/25/4
f 24/30/5 15/31/5 87/32/5 98/33/5
f 57/34/6 56/35/6 49/36/6 48/37/6
f 73/38/2 22/15/2 23/14/2 72/39/2
f 54/40/6 42/41/6 43/42/6 53/43/6
f 53/44/6 43/45/6 44/46/6 52/47/6
f 52/48/6 44/49/6 45/50/6 51/51/6
f 100/52/4 110/53/4 105/54/4 99/55/4
f 110/56/4 46/57/4 27/58/4 105/59/4
f 46/60/4 41/61/4 28/62/4 27/63/4
f 56/64/6 55/65/6 50/66/6 49/67/6
f 58/68/6 57/69/6 48/70/6 47/71/6
f 90/72/5 89/73/5 26/74/5 25/75/5
f 39/76/4 14/77/4 11/17/4 38/16/4
f 86/78/3 25/79/3 94/80/3 95/81/3 96/82/3 14/77/3 39/76/3
f 94/83/5 25/75/5 26/74/5 93/84/5
f 100/85/4 99/86/4 30/87/4 37/88/4
f 37/89/4 30/90/4 31/91/4 36/92/4
f 36/93/4 31/94/4 32/95/4 35/96/4
f 35/97/4 32/98/4 33/99/4 34/100/4
f 107/101/3 55/102/3 83/103/3 109/104/3
f 56/35/3 57/34/3 85/105/3 84/106/3
f 105/59/1 27/58/1 63/107/1 108/108/1
f 98/109/5 87/110/5 88/111/5 97/112/5
f 28/113/1 29/114/1 65/115/1 64/116/1
f 104/117/3 100/85/3 37/88/3 66/118/3
f 66/119/3 37/89/3 36/92/3 67/120/3
f 67/121/3 36/93/3 35/96/3 68/122/3
f 68/123/3 35/97/3 34/100/3 69/124/3
f 41/125/4 40/126/4 29/114/4 28/113/4
f 109/104/3 83/103/3 46/57/3 110/56/3
f 84/106/3 85/105/3 40/126/3 41/125/3
f 64/116/7 65/115/7 48/37/7 49/36/7
f 108/108/7 63/107/7 50/127/7 106/128/7
f 103/129/7 101/130/7 45/131/7 59/132/7
f 59/133/7 45/50/7 44/49/7 60/134/7
f 60/135/7 44/46/7 43/45/7 61/136/7
f 61/137/7 43/42/7 42/41/7 62/138/7
f 55/65/3 56/64/3 84/139/3 83/140/3
f 57/69/3 58/68/3 86/141/3 85/142/3
f 27/63/1 28/62/1 64/143/1 63/144/1
f 97/145/5 88/146/5 89/147/5 90/148/5
f 29/149/1 38/150/1 82/151/1 65/152/1
f 102/153/3 104/117/3 66/118/3 51/154/3
f 51/51/3 66/119/3 67/120/3 52/48/3
f 52/47/3 67/121/3 68/122/3 53/44/3
f 53/43/3 68/123/3 69/124/3 54/40/3
f 40/155/4 39/156/4 38/150/4 29/149/4
f 83/140/3 84/139/3 41/61/3 46/60/3
f 85/142/3 86/141/3 39/156/3 40/155/3
f 65/152/7 82/151/7 47/71/7 48/70/7
f 63/144/7 64/143/7 49/67/7 50/66/7
f 99/86/1 103/129/1 59/132/1 30/87/1
f 30/90/1 59/133/1 60/134/1 31/91/1
f 31/94/1 60/135/1 61/136/1 32/95/1
f 32/98/1 61/137/1 62/138/1 33/99/1
f 81/157/2 80/158/2 71/159/2 70/160/2
f 80/161/2 73/162/2 72/163/2 71/164/2
f 13/165/2 12/166/2 74/167/2 79/168/2
f 79/169/2 74/170/2 75/171/2 78/172/2
f 78/173/2 75/174/2 76/175/2 77/176/2
f 62/2/7 42/177/7 16/178/7 23/3/7
f 54/179/6 17/180/6 16/178/6 42/177/6
f 14/181/5 96/182/5 91/183/5 11/184/5
f 96/185/5 95/186/5 92/187/5 91/188/5
f 95/189/5 94/190/5 93/191/5 92/192/5
f 82/22/7 26/21/7 15/193/7 47/194/7
f 58/195/6 47/194/6 15/193/6 24/196/6
f 99/55/1 105/54/1 108/197/1 103/198/1
f 102/199/3 107/200/3 109/201/3 104/202/3
f 103/198/7 108/197/7 106/203/7 101/204/7
f 104/202/3 109/201/3 110/53/3 100/52/3
f 51/154/6 45/131/6 101/130/6 102/153/6
f 55/102/6 107/101/6 106/128/6 50/127/6
f 107/200/6 102/199/6 101/204/6 106/203/6
s 1
f 5/205/5 6/206/5 7/207/5
f 8/208/2 9/209/2 10/210/2
f 2/211/8 3/212/9 4/213/10 1/214/11
f 19/215/12 18/216/13 21/217/14 20/218/15
f 1/214/11 4/213/10 21/217/14 18/216/13
f 3/212/9 2/211/8 19/215/12 20/218/15
f 4/213/10 3/212/9 20/218/15 21/217/14
f 2/211/8 1/214/11 18/216/13 19/215/12
