# Blender v2.90.0 Alpha OBJ File: 'Decos.blend'
# www.blender.org
o Cube.002_Cube.011
v -2.765088 -1.953426 0.175858
v -2.765088 3.988729 0.175859
v -2.765088 3.988729 -9.279401
v -2.765088 -1.953426 -9.279403
v 2.765088 -1.953426 -9.279403
v 2.765088 3.988729 -9.279401
v 2.765088 3.988729 0.175859
v 2.765088 -1.953426 0.175858
v -3.000000 -1.953426 -9.279403
v -3.000000 4.397138 -9.279401
v -3.000000 4.397138 0.175859
v -3.000000 -1.953426 0.175858
v 3.000000 -1.953426 -9.279403
v 3.000000 4.397138 -9.279401
v 3.000000 4.397138 0.175859
v 3.000000 -1.953426 0.175858
v 3.000000 4.804351 0.175859
v -3.000000 4.804351 0.175859
v -3.000000 4.397138 0.930054
v 3.000000 4.397138 0.930054
v -3.000000 4.804351 0.930054
v 3.000000 4.804351 0.930054
vt 0.242188 0.804688
vt 0.242188 0.804688
vt 0.242188 0.804688
vt 0.242188 0.804688
vt 0.242188 0.804688
vt 0.242188 0.804688
vt 0.242188 0.804688
vt 0.242188 0.804688
vt 0.148438 0.882812
vt 0.148438 0.882812
vt 0.148438 0.882812
vt 0.148438 0.882812
vt 0.242188 0.804688
vt 0.242188 0.804688
vt 0.242188 0.804688
vt 0.242188 0.804688
vt 0.242188 0.804688
vt 0.242188 0.804688
vt 0.242188 0.804688
vt 0.242188 0.804688
vt 0.242188 0.804688
vt 0.226562 0.898438
vt 0.226562 0.898438
vt 0.226562 0.898438
vt 0.226562 0.898438
vt 0.242188 0.804688
vt 0.242188 0.804688
vt 0.242188 0.804688
vt 0.242188 0.804688
vt 0.242188 0.804688
vt 0.226562 0.898438
vt 0.226562 0.898438
vn 1.0000 0.0000 0.0000
vn -1.0000 0.0000 0.0000
vn 0.0000 -1.0000 0.0000
vn -0.0000 -0.0000 1.0000
vn 0.0000 0.0000 -1.0000
vn 0.0000 0.9991 -0.0430
vn 0.0000 1.0000 0.0000
s 1
f 1/1/1 4/2/1 3/3/1 2/4/1
f 5/5/2 8/6/2 7/7/2 6/8/2
f 6/9/3 7/10/3 2/11/3 3/12/3
f 13/13/1 14/14/1 15/15/1 16/16/1
f 12/17/2 11/18/2 10/19/2 9/20/2
f 15/15/1 14/14/1 17/21/1
f 8/6/3 5/5/3 13/13/3 16/16/3
f 4/2/3 1/1/3 12/17/3 9/20/3
f 2/4/4 7/7/4 15/15/4 11/18/4
f 7/7/4 8/6/4 16/16/4 15/15/4
f 5/5/5 6/8/5 14/14/5 13/13/5
f 3/3/5 4/2/5 9/20/5 10/19/5
f 1/1/4 2/4/4 11/18/4 12/17/4
f 6/8/5 3/3/5 10/19/5 14/14/5
f 14/22/6 10/23/6 18/24/6 17/25/6
f 10/19/2 11/18/2 18/26/2
f 11/18/3 15/15/3 20/27/3 19/28/3
f 19/28/4 20/27/4 22/29/4 21/30/4
f 15/15/1 17/21/1 22/29/1 20/27/1
f 17/25/7 18/24/7 21/31/7 22/32/7
f 18/26/2 11/18/2 19/28/2 21/30/2
