# Blender v2.83.4 OBJ File: 'decos.blend'
# www.blender.org
o Cube.006
v 0.705418 4.329319 -8.267730
v 2.116253 4.329319 -8.267730
v -2.116253 4.329319 8.267730
v -0.705418 4.329319 8.267730
v 0.705418 4.329319 8.267730
v 2.116253 4.329319 8.267730
v 3.355813 0.128619 8.439006
v 3.527088 0.128619 8.267730
v -3.355813 0.128619 8.439006
v -3.527088 0.128619 8.267730
v -3.527088 0.128619 -8.267730
v -3.355813 0.128619 -8.439006
v 3.527088 0.128619 -8.267730
v 3.355813 0.128619 -8.439006
v 3.527088 4.329319 8.267730
v 3.355813 4.329319 8.439006
v 3.355813 4.329319 -8.439006
v 3.527088 4.329319 -8.267730
v 3.527088 3.885912 8.267730
v 3.355813 3.885912 8.439006
v -3.527088 4.329319 8.267730
v -3.355813 4.329319 8.439006
v -3.355813 4.329319 -8.439006
v -3.527088 4.329319 -8.267730
v 3.355813 3.885912 -8.439006
v 3.527088 3.885912 -8.267730
v 3.355813 0.662062 8.439006
v 3.527088 0.662062 8.267730
v -3.527088 3.885912 8.267730
v -3.355813 3.885912 8.439006
v -3.355813 3.885912 -8.439006
v -3.527088 3.885912 -8.267730
v 3.527088 0.662062 -8.267730
v 3.355813 0.662062 -8.439006
v -3.355813 0.662062 8.439006
v -3.527088 0.662062 8.267730
v -3.527088 0.662062 -8.267730
v -3.355813 0.662062 -8.439006
v 3.527088 1.974690 8.267730
v 3.355813 1.974690 8.439006
v 3.355813 1.974690 -8.439006
v 3.527088 1.974690 -8.267730
v -3.527088 1.974690 8.267730
v -3.355813 1.974690 8.439006
v -3.355813 1.974690 -8.439006
v -3.527088 1.974690 -8.267730
v -3.527088 1.758560 8.267730
v -3.355813 1.758560 -8.439006
v 3.527088 1.758560 8.267730
v 3.355813 1.758560 -8.439006
v -3.355813 1.758560 8.439006
v -3.527088 1.758560 -8.267730
v 3.355813 1.758560 8.439006
v 3.527088 1.758560 -8.267730
v 3.647772 0.395340 -8.317719
v -3.647772 0.395340 8.317719
v -3.405802 0.395340 8.559690
v -3.405802 0.395340 -8.559690
v -3.647772 0.395340 -8.317719
v 3.405802 0.395340 -8.559690
v 3.647772 0.395340 8.317719
v 3.405802 0.395340 8.559690
v -0.705418 4.329319 -8.267730
v -2.116253 4.329319 -8.267730
v 2.821671 4.329319 -8.267730
v 2.821671 4.329319 8.267730
v 1.410835 4.329319 -8.267730
v 1.410835 4.329319 8.267730
v 0.000000 4.329319 -8.267730
v 0.000000 4.329319 8.267730
v -1.410835 4.329319 -8.267730
v -1.410835 4.329319 8.267730
v -2.821671 4.329319 8.267730
v -2.821671 4.329319 -8.267730
vt 0.304688 0.929688
vt 0.304688 0.929688
vt 0.304688 0.929688
vt 0.304688 0.929688
vt 0.304688 0.929688
vt 0.304688 0.929688
vt 0.304688 0.929688
vt 0.304688 0.929688
vt 0.304688 0.929688
vt 0.304688 0.929688
vt 0.304688 0.929688
vt 0.304688 0.929688
vt 0.257812 0.789062
vt 0.257812 0.789062
vt 0.257812 0.789062
vt 0.257812 0.789062
vt 0.164062 0.898438
vt 0.164062 0.898438
vt 0.164062 0.898438
vt 0.164062 0.898438
vt 0.304688 0.898438
vt 0.304688 0.898438
vt 0.304688 0.898438
vt 0.304688 0.898438
vt 0.195312 0.898438
vt 0.195312 0.898438
vt 0.195312 0.898438
vt 0.195312 0.898438
vt 0.304688 0.898438
vt 0.304688 0.898438
vt 0.304688 0.898438
vt 0.304688 0.898438
vt 0.164062 0.898438
vt 0.164062 0.898438
vt 0.257812 0.789062
vt 0.257812 0.789062
vt 0.257812 0.789062
vt 0.257812 0.789062
vt 0.257812 0.789062
vt 0.257812 0.789062
vt 0.257812 0.789062
vt 0.257812 0.789062
vt 0.164062 0.898438
vt 0.164062 0.898438
vt 0.164062 0.898438
vt 0.164062 0.898438
vt 0.304688 0.929688
vt 0.304688 0.929688
vt 0.304688 0.929688
vt 0.304688 0.929688
vt 0.257812 0.789062
vt 0.257812 0.789062
vt 0.257812 0.789062
vt 0.257812 0.789062
vt 0.101562 0.789062
vt 0.101562 0.789062
vt 0.101562 0.789062
vt 0.101562 0.789062
vt 0.257812 0.789062
vt 0.257812 0.789062
vt 0.257812 0.789062
vt 0.257812 0.789062
vt 0.101562 0.789062
vt 0.101562 0.789062
vt 0.101562 0.789062
vt 0.101562 0.789062
vt 0.101562 0.789062
vt 0.101562 0.789062
vt 0.101562 0.789062
vt 0.101562 0.789062
vt 0.164062 0.898438
vt 0.164062 0.898438
vt 0.257812 0.789062
vt 0.257812 0.789062
vt 0.195312 0.898438
vt 0.195312 0.898438
vt 0.195312 0.898438
vt 0.195312 0.898438
vt 0.257812 0.789062
vt 0.164062 0.898438
vt 0.164062 0.898438
vt 0.164062 0.898438
vt 0.164062 0.898438
vt 0.164062 0.898438
vt 0.164062 0.898438
vt 0.164062 0.898438
vt 0.164062 0.898438
vt 0.164062 0.898438
vt 0.164062 0.898438
vt 0.257812 0.789062
vt 0.164062 0.898438
vt 0.164062 0.898438
vt 0.164062 0.898438
vt 0.164062 0.898438
vt 0.164062 0.898438
vt 0.164062 0.898438
vt 0.164062 0.898438
vt 0.164062 0.898438
vt 0.195312 0.898438
vt 0.195312 0.898438
vt 0.195312 0.898438
vt 0.195312 0.898438
vt 0.164062 0.898438
vt 0.164062 0.898438
vt 0.257812 0.789062
vt 0.257812 0.789062
vt 0.257812 0.789062
vt 0.257812 0.789062
vt 0.195312 0.898438
vt 0.195312 0.898438
vt 0.195312 0.898438
vt 0.195312 0.898438
vt 0.304688 0.898438
vt 0.304688 0.898438
vt 0.304688 0.898438
vt 0.304688 0.898438
vt 0.304688 0.898438
vt 0.304688 0.898438
vt 0.304688 0.898438
vt 0.304688 0.898438
vt 0.257812 0.789062
vt 0.257812 0.789062
vt 0.257812 0.789062
vt 0.257812 0.789062
vt 0.101562 0.789062
vt 0.101562 0.789062
vt 0.101562 0.789062
vt 0.101562 0.789062
vt 0.257812 0.789062
vt 0.257812 0.789062
vt 0.257812 0.789062
vt 0.257812 0.789062
vt 0.101562 0.789062
vt 0.101562 0.789062
vt 0.101562 0.789062
vt 0.101562 0.789062
vt 0.257812 0.789062
vt 0.257812 0.789062
vt 0.257812 0.789062
vt 0.257812 0.789062
vt 0.304688 0.929688
vt 0.304688 0.929688
vt 0.304688 0.929688
vt 0.304688 0.929688
vt 0.304688 0.929688
vt 0.304688 0.929688
vt 0.304688 0.929688
vt 0.304688 0.929688
vt 0.304688 0.929688
vt 0.304688 0.929688
vt 0.304688 0.929688
vt 0.304688 0.929688
vt 0.304688 0.929688
vt 0.304688 0.929688
vt 0.304688 0.929688
vt 0.304688 0.929688
vt 0.304688 0.929688
vt 0.304688 0.929688
vn 0.0000 0.0000 -1.0000
vn -1.0000 0.0000 0.0000
vn 1.0000 0.0000 0.0000
vn 0.0000 0.4122 -0.9111
vn 0.7071 0.0000 -0.7071
vn 0.0000 0.0000 1.0000
vn 0.0000 0.4122 0.9111
vn -0.9111 -0.4122 0.0000
vn 0.7071 0.0000 0.7071
vn 0.0000 1.0000 0.0000
vn 0.9111 -0.4122 0.0000
vn -0.6442 -0.4122 0.6442
vn -0.6442 -0.4122 -0.6442
vn 0.6442 -0.4122 0.6442
vn -0.7071 0.0000 0.7071
vn -0.7071 0.0000 -0.7071
vn 0.6442 -0.4122 -0.6442
vn 0.6442 0.4122 -0.6442
vn 0.6442 0.4122 0.6442
vn -0.6442 0.4122 -0.6442
vn -0.6442 0.4122 0.6442
vn 0.9111 0.4122 0.0000
vn -0.9111 0.4122 0.0000
vn 0.0000 -0.4122 0.9111
vn 0.0000 -0.4122 -0.9111
s off
f 25/1/1 31/2/1 23/3/1 17/4/1
f 24/5/2 32/6/2 29/7/2 21/8/2
f 18/9/3 15/10/3 19/11/3 26/12/3
f 60/13/4 58/14/4 38/15/4 34/16/4
f 17/4/5 18/9/5 26/12/5 25/1/5
f 25/17/5 26/18/5 42/19/5 41/20/5
f 54/21/3 49/22/3 28/23/3 33/24/3
f 40/25/6 20/26/6 30/27/6 44/28/6
f 52/29/2 37/30/2 36/31/2 47/32/2
f 41/20/5 42/19/5 54/33/5 50/34/5
f 62/35/7 27/36/7 35/37/7 57/38/7
f 59/39/8 11/40/8 10/41/8 56/42/8
f 49/43/9 53/44/9 27/45/9 28/46/9
f 20/47/6 16/48/6 22/49/6 30/50/6
f 53/51/6 40/52/6 44/53/6 51/54/6
f 72/55/10 71/56/10 64/57/10 3/58/10
f 55/59/11 61/60/11 8/61/11 13/62/11
f 70/63/10 69/64/10 63/65/10 4/66/10
f 68/67/10 67/68/10 1/69/10 5/70/10
f 15/10/9 16/48/9 20/47/9 19/11/9
f 50/34/5 54/33/5 33/71/5 34/72/5
f 56/42/12 10/41/12 9/73/12 57/38/12
f 58/14/13 12/74/13 11/40/13 59/39/13
f 41/75/1 45/76/1 31/77/1 25/78/1
f 61/60/14 62/35/14 7/79/14 8/61/14
f 21/8/15 29/7/15 30/50/15 22/49/15
f 23/3/16 31/2/16 32/6/16 24/5/16
f 39/80/9 40/81/9 53/44/9 49/43/9
f 47/82/15 36/83/15 35/84/15 51/85/15
f 48/86/16 38/87/16 37/88/16 52/89/16
f 60/13/17 55/59/17 13/62/17 14/90/17
f 31/91/16 45/92/16 46/93/16 32/94/16
f 29/95/15 43/96/15 44/97/15 30/98/15
f 26/99/3 19/100/3 39/101/3 42/102/3
f 19/103/9 20/104/9 40/81/9 39/80/9
f 50/105/1 48/106/1 45/107/1 41/108/1
f 32/109/2 46/110/2 43/111/2 29/112/2
f 27/113/6 53/114/6 51/115/6 35/116/6
f 34/117/1 38/118/1 48/119/1 50/120/1
f 45/92/16 48/86/16 52/89/16 46/93/16
f 43/96/15 47/82/15 51/85/15 44/97/15
f 42/121/3 39/122/3 49/123/3 54/124/3
f 66/125/10 65/126/10 2/127/10 6/128/10
f 46/129/2 52/130/2 47/131/2 43/132/2
f 73/133/10 74/134/10 24/135/10 21/136/10
f 34/16/18 33/137/18 55/59/18 60/13/18
f 28/138/19 27/36/19 62/35/19 61/60/19
f 38/15/20 58/14/20 59/39/20 37/139/20
f 36/140/21 56/42/21 57/38/21 35/37/21
f 33/137/22 28/138/22 61/60/22 55/59/22
f 37/139/23 59/39/23 56/42/23 36/140/23
f 7/79/24 62/35/24 57/38/24 9/73/24
f 14/90/25 12/74/25 58/14/25 60/13/25
f 15/10/10 18/9/10 65/141/10 66/142/10
f 6/143/10 2/144/10 67/145/10 68/146/10
f 5/147/10 1/148/10 69/149/10 70/150/10
f 4/151/10 63/152/10 71/153/10 72/154/10
f 3/155/10 64/156/10 74/157/10 73/158/10
