# Blender v2.91.0 Beta OBJ File: 'decos.blend'
# www.blender.org
o Detail_Cube.003
v -49.144966 -0.530822 49.337639
v -49.144966 -0.530786 -49.339218
v 49.144966 -0.530788 -49.339218
v 49.144966 -0.530823 49.337639
v -49.144966 0.374156 -49.339218
v 49.144966 0.374154 -49.339218
v -49.144966 0.374119 49.337639
v 49.144966 0.374117 49.337639
vt 0.257812 0.804688
vt 0.257812 0.804688
vt 0.257812 0.804688
vt 0.257812 0.804688
vt 0.257812 0.804688
vt 0.257812 0.804688
vt 0.257812 0.804688
vt 0.257812 0.804688
vn -0.0000 -1.0000 -0.0000
vn -0.0000 0.0000 -1.0000
vn -1.0000 0.0000 0.0000
vn 0.0000 0.0000 1.0000
vn 0.0000 1.0000 0.0000
vn 1.0000 0.0000 0.0000
s 1
f 1/1/1 2/2/1 3/3/1 4/4/1
f 5/5/2 6/6/2 3/3/2 2/2/2
f 5/5/3 2/2/3 1/1/3 7/7/3
f 4/4/4 8/8/4 7/7/4 1/1/4
f 7/7/5 8/8/5 6/6/5 5/5/5
f 8/8/6 4/4/6 3/3/6 6/6/6
