# Blender v2.91.0 Beta OBJ File: 'deer.blend'
# www.blender.org
o Detail_Cube.001
v 10.395370 0.474146 -10.436459
v -10.395370 -0.430794 -10.436459
v -10.395370 0.474148 -10.436459
v -10.395370 0.474127 10.436125
v 10.395370 0.474125 10.436125
v -10.395370 -0.430814 10.436125
v 10.395370 -0.430815 10.436125
v 10.395370 -0.430796 -10.436459
vt 0.195312 0.539062
vt 0.195312 0.539062
vt 0.195312 0.539062
vt 0.195312 0.539062
vt 0.195312 0.539062
vt 0.195312 0.539062
vt 0.195312 0.539062
vt 0.195312 0.539062
vn 0.0000 0.0000 -1.0000
vn -1.0000 0.0000 0.0000
vn 0.0000 0.0000 1.0000
vn 0.0000 1.0000 0.0000
vn 1.0000 0.0000 0.0000
s 1
f 1/1/1 2/2/1 3/3/1
f 2/2/2 4/4/2 3/3/2
f 5/5/3 6/6/3 7/7/3
f 5/5/4 3/3/4 4/4/4
f 7/7/5 1/1/5 5/5/5
f 1/1/1 8/8/1 2/2/1
f 2/2/2 6/6/2 4/4/2
f 5/5/3 4/4/3 6/6/3
f 5/5/4 1/1/4 3/3/4
f 7/7/5 8/8/5 1/1/5
