# Blender v2.90.0 Alpha OBJ File: 'Decos.blend'
# www.blender.org
o Cylinder
v 0.000000 1.358094 0.000000
v 0.000000 0.358094 -4.307476
v 0.000000 0.685508 -4.185522
v 3.045846 0.358094 -3.045846
v 2.959611 0.685508 -2.959611
v 4.307476 0.358094 0.000000
v 4.185522 0.685508 0.000000
v 3.045846 0.358094 3.045846
v 2.959611 0.685508 2.959611
v -0.000000 0.358094 4.307476
v -0.000000 0.685508 4.185522
v -3.045846 0.358094 3.045845
v -2.959611 0.685508 2.959610
v -4.307476 0.358094 0.000000
v -4.185521 0.685508 0.000000
v -3.045846 0.358094 -3.045845
v -2.959611 0.685508 -2.959610
v 0.000000 0.671044 -3.993571
v 0.000000 0.948069 -3.880504
v 2.823881 0.671044 -2.823881
v 2.743931 0.948069 -2.743931
v 3.993571 0.671044 0.000000
v 3.880504 0.948069 0.000000
v 2.823881 0.671044 2.823881
v 2.743931 0.948069 2.743931
v -0.000000 0.671044 3.993571
v -0.000000 0.948069 3.880504
v -2.823881 0.671044 2.823881
v -2.743931 0.948069 2.743930
v -3.993571 0.671044 0.000000
v -3.880504 0.948069 0.000000
v -2.823881 0.671044 -2.823881
v -2.743931 0.948069 -2.743931
v 0.000000 0.870102 -3.642328
v 0.000000 1.149251 -3.539205
v 2.575514 0.870102 -2.575514
v 2.502596 1.149251 -2.502596
v 3.642327 0.870102 0.000000
v 3.539205 1.149251 0.000000
v 2.575514 0.870102 2.575514
v 2.502596 1.149251 2.502596
v -0.000000 0.870102 3.642328
v -0.000000 1.149251 3.539205
v -2.575514 0.870102 2.575514
v -2.502595 1.149251 2.502595
v -3.642327 0.870102 -0.000000
v -3.539205 1.149251 -0.000000
v -2.575514 0.870102 -2.575514
v -2.502595 1.149251 -2.502595
v 0.000000 1.078946 -3.285834
v 0.000000 1.358094 -3.192804
v 2.323435 1.078946 -2.323435
v 2.257653 1.358094 -2.257653
v 3.285834 1.078946 0.000000
v 3.192804 1.358094 0.000000
v 2.323435 1.078946 2.323435
v 2.257653 1.358094 2.257653
v -0.000000 1.078946 3.285834
v -0.000000 1.358094 3.192804
v -2.323435 1.078946 2.323435
v -2.257653 1.358094 2.257653
v -3.285833 1.078946 -0.000000
v -3.192804 1.358094 -0.000000
v -2.323435 1.078946 -2.323435
v -2.257653 1.358094 -2.257653
vt 0.164062 0.789062
vt 0.164062 0.789062
vt 0.164062 0.789062
vt 0.148438 0.804688
vt 0.148438 0.804688
vt 0.148438 0.804688
vt 0.148438 0.804688
vt 0.164062 0.789062
vt 0.148438 0.804688
vt 0.148438 0.804688
vt 0.164062 0.789062
vt 0.148438 0.804688
vt 0.148438 0.804688
vt 0.164062 0.789062
vt 0.148438 0.804688
vt 0.148438 0.804688
vt 0.164062 0.789062
vt 0.148438 0.804688
vt 0.148438 0.804688
vt 0.164062 0.789062
vt 0.148438 0.804688
vt 0.148438 0.804688
vt 0.164062 0.789062
vt 0.148438 0.804688
vt 0.148438 0.804688
vt 0.164062 0.789062
vt 0.164062 0.789062
vt 0.148438 0.804688
vt 0.148438 0.804688
vt 0.148438 0.804688
vt 0.148438 0.804688
vt 0.164062 0.789062
vt 0.148438 0.804688
vt 0.148438 0.804688
vt 0.164062 0.789062
vt 0.148438 0.804688
vt 0.148438 0.804688
vt 0.164062 0.789062
vt 0.148438 0.804688
vt 0.148438 0.804688
vt 0.164062 0.789062
vt 0.148438 0.804688
vt 0.148438 0.804688
vt 0.164062 0.789062
vt 0.148438 0.804688
vt 0.148438 0.804688
vt 0.164062 0.789062
vt 0.148438 0.804688
vt 0.148438 0.804688
vt 0.164062 0.789062
vt 0.164062 0.789062
vt 0.148438 0.804688
vt 0.148438 0.804688
vt 0.148438 0.804688
vt 0.148438 0.804688
vt 0.164062 0.789062
vt 0.148438 0.804688
vt 0.148438 0.804688
vt 0.164062 0.789062
vt 0.148438 0.804688
vt 0.148438 0.804688
vt 0.164062 0.789062
vt 0.148438 0.804688
vt 0.148438 0.804688
vt 0.164062 0.789062
vt 0.148438 0.804688
vt 0.148438 0.804688
vt 0.164062 0.789062
vt 0.148438 0.804688
vt 0.148438 0.804688
vt 0.164062 0.789062
vt 0.148438 0.804688
vt 0.148438 0.804688
vt 0.164062 0.789062
vt 0.164062 0.789062
vt 0.148438 0.804688
vt 0.148438 0.804688
vt 0.148438 0.804688
vt 0.148438 0.804688
vt 0.164062 0.789062
vt 0.148438 0.804688
vt 0.148438 0.804688
vt 0.164062 0.789062
vt 0.148438 0.804688
vt 0.148438 0.804688
vt 0.164062 0.789062
vt 0.148438 0.804688
vt 0.148438 0.804688
vt 0.164062 0.789062
vt 0.148438 0.804688
vt 0.148438 0.804688
vt 0.164062 0.789062
vt 0.148438 0.804688
vt 0.148438 0.804688
vt 0.164062 0.789062
vt 0.148438 0.804688
vt 0.148438 0.804688
vn 0.0656 0.9852 -0.1583
vn 0.3619 0.3254 -0.8736
vn 0.1583 0.9852 -0.0656
vn 0.8736 0.3254 -0.3619
vn 0.1583 0.9852 0.0656
vn 0.8736 0.3254 0.3619
vn 0.0656 0.9852 0.1583
vn 0.3619 0.3254 0.8736
vn -0.0656 0.9852 0.1583
vn -0.3619 0.3254 0.8736
vn -0.1583 0.9852 0.0656
vn -0.8736 0.3254 0.3619
vn -0.1583 0.9852 -0.0656
vn -0.8736 0.3254 -0.3619
vn -0.0656 0.9852 -0.1583
vn -0.3619 0.3254 -0.8736
vn 0.0435 0.9935 -0.1050
vn 0.3581 0.3528 -0.8645
vn 0.1050 0.9935 -0.0435
vn 0.8645 0.3528 -0.3581
vn 0.1050 0.9935 0.0435
vn 0.8645 0.3528 0.3581
vn 0.0435 0.9935 0.1050
vn 0.3581 0.3528 0.8645
vn -0.0435 0.9935 0.1050
vn -0.3581 0.3528 0.8645
vn -0.1050 0.9935 0.0435
vn -0.8645 0.3528 0.3581
vn -0.1050 0.9935 -0.0435
vn -0.8645 0.3528 -0.3581
vn -0.0435 0.9935 -0.1050
vn -0.3581 0.3528 -0.8645
vn 0.0244 0.9980 -0.0589
vn 0.3622 0.3230 -0.8744
vn 0.0589 0.9980 -0.0244
vn 0.8744 0.3230 -0.3622
vn 0.0589 0.9980 0.0244
vn 0.8744 0.3230 0.3622
vn 0.0244 0.9980 0.0589
vn 0.3622 0.3230 0.8744
vn -0.0244 0.9980 0.0589
vn -0.3622 0.3230 0.8744
vn -0.0589 0.9980 0.0244
vn -0.8744 0.3230 0.3622
vn -0.0589 0.9980 -0.0244
vn -0.8744 0.3230 -0.3622
vn -0.0244 0.9980 -0.0589
vn -0.3622 0.3230 -0.8744
vn 0.0000 1.0000 0.0000
vn 0.3657 0.2943 -0.8830
vn 0.8830 0.2943 -0.3657
vn 0.8830 0.2943 0.3657
vn 0.3657 0.2943 0.8830
vn -0.3657 0.2943 0.8830
vn -0.8830 0.2943 0.3657
vn -0.8830 0.2943 -0.3657
vn -0.3657 0.2943 -0.8830
s off
f 1/1/1 5/2/1 3/3/1
f 2/4/2 3/5/2 5/6/2 4/7/2
f 1/1/3 7/8/3 5/2/3
f 4/7/4 5/6/4 7/9/4 6/10/4
f 1/1/5 9/11/5 7/8/5
f 6/10/6 7/9/6 9/12/6 8/13/6
f 1/1/7 11/14/7 9/11/7
f 8/13/8 9/12/8 11/15/8 10/16/8
f 1/1/9 13/17/9 11/14/9
f 10/16/10 11/15/10 13/18/10 12/19/10
f 1/1/11 15/20/11 13/17/11
f 12/19/12 13/18/12 15/21/12 14/22/12
f 1/1/13 17/23/13 15/20/13
f 14/22/14 15/21/14 17/24/14 16/25/14
f 1/1/15 3/3/15 17/23/15
f 16/25/16 17/24/16 3/5/16 2/4/16
f 1/1/17 21/26/17 19/27/17
f 18/28/18 19/29/18 21/30/18 20/31/18
f 1/1/19 23/32/19 21/26/19
f 20/31/20 21/30/20 23/33/20 22/34/20
f 1/1/21 25/35/21 23/32/21
f 22/34/22 23/33/22 25/36/22 24/37/22
f 1/1/23 27/38/23 25/35/23
f 24/37/24 25/36/24 27/39/24 26/40/24
f 1/1/25 29/41/25 27/38/25
f 26/40/26 27/39/26 29/42/26 28/43/26
f 1/1/27 31/44/27 29/41/27
f 28/43/28 29/42/28 31/45/28 30/46/28
f 1/1/29 33/47/29 31/44/29
f 30/46/30 31/45/30 33/48/30 32/49/30
f 1/1/31 19/27/31 33/47/31
f 32/49/32 33/48/32 19/29/32 18/28/32
f 1/1/33 37/50/33 35/51/33
f 34/52/34 35/53/34 37/54/34 36/55/34
f 1/1/35 39/56/35 37/50/35
f 36/55/36 37/54/36 39/57/36 38/58/36
f 1/1/37 41/59/37 39/56/37
f 38/58/38 39/57/38 41/60/38 40/61/38
f 1/1/39 43/62/39 41/59/39
f 40/61/40 41/60/40 43/63/40 42/64/40
f 1/1/41 45/65/41 43/62/41
f 42/64/42 43/63/42 45/66/42 44/67/42
f 1/1/43 47/68/43 45/65/43
f 44/67/44 45/66/44 47/69/44 46/70/44
f 1/1/45 49/71/45 47/68/45
f 46/70/46 47/69/46 49/72/46 48/73/46
f 1/1/47 35/51/47 49/71/47
f 48/73/48 49/72/48 35/53/48 34/52/48
f 1/1/49 53/74/49 51/75/49
f 50/76/50 51/77/50 53/78/50 52/79/50
f 1/1/49 55/80/49 53/74/49
f 52/79/51 53/78/51 55/81/51 54/82/51
f 1/1/49 57/83/49 55/80/49
f 54/82/52 55/81/52 57/84/52 56/85/52
f 1/1/49 59/86/49 57/83/49
f 56/85/53 57/84/53 59/87/53 58/88/53
f 1/1/49 61/89/49 59/86/49
f 58/88/54 59/87/54 61/90/54 60/91/54
f 1/1/49 63/92/49 61/89/49
f 60/91/55 61/90/55 63/93/55 62/94/55
f 1/1/49 65/95/49 63/92/49
f 62/94/56 63/93/56 65/96/56 64/97/56
f 1/1/49 51/75/49 65/95/49
f 64/97/57 65/96/57 51/77/57 50/76/57
