# Blender v2.90.0 Alpha OBJ File: 'Decos.blend'
# www.blender.org
o Cube.002_Cube.008
v -0.982253 -0.521566 0.982253
v -0.982253 3.553142 0.982253
v -0.982253 -0.521566 -0.982253
v -0.982253 3.553142 -0.982253
v 0.982253 -0.521566 0.982253
v 0.982253 3.553142 0.982253
v 0.982253 -0.521566 -0.982253
v 0.982253 3.553142 -0.982253
v -0.938555 -0.430929 0.982253
v -0.938555 3.462505 0.982253
v 0.938555 -0.430929 0.982253
v 0.938555 3.462505 0.982253
v -0.938555 -0.430929 -0.965996
v -0.938555 3.462505 -0.965996
v 0.938555 -0.430929 -0.965996
v 0.938555 3.462505 -0.965996
v -0.982253 -0.384991 -0.929313
v -0.982253 -0.384991 0.937441
v -0.982253 3.416567 0.937441
v -0.982253 3.416567 -0.929313
v -0.938555 -0.384991 0.937441
v -0.938555 3.416567 0.937441
v -0.938555 -0.384991 -0.929313
v -0.938555 3.416567 -0.929313
v 0.982253 -0.384991 -0.929313
v 0.982253 -0.384991 0.937441
v 0.982253 3.416567 0.937441
v 0.982253 3.416567 -0.929313
v 0.938555 -0.384991 0.937441
v 0.938555 3.416567 0.937441
v 0.938555 -0.384991 -0.929313
v 0.938555 3.416567 -0.929313
v -0.975298 1.478163 0.959847
v -0.975298 1.478163 -0.955783
v -0.975298 1.686433 -0.955783
v -0.975298 1.686433 0.959847
v -0.964794 1.478163 0.959847
v -0.964794 1.478163 -0.955783
v -0.964794 1.686433 -0.955783
v -0.964794 1.686433 0.959847
v 0.975298 1.478163 0.959847
v 0.975298 1.478163 -0.955783
v 0.975298 1.686433 -0.955783
v 0.975298 1.686433 0.959847
v 0.964794 1.478163 0.959847
v 0.964794 1.478163 -0.955783
v 0.964794 1.686433 -0.955783
v 0.964794 1.686433 0.959847
v -0.738944 1.265256 -0.965996
v -0.738944 2.340564 -0.965996
v -0.058028 1.265256 -0.965996
v -0.058028 2.340564 -0.965996
v -0.058028 1.265256 -0.656926
v -0.058028 2.340564 -0.656926
v -0.738944 1.265256 -0.656926
v -0.738944 2.340564 -0.656926
v -0.090378 1.462085 -0.655759
v -0.090378 2.143736 -0.655759
v -0.462880 1.462085 -0.655759
v -0.462880 2.143736 -0.655759
v -0.508398 1.466169 -0.656926
v -0.508398 2.226693 -0.656926
v -0.671553 1.466169 -0.656926
v -0.671553 2.226693 -0.656926
v -0.508398 2.090917 -0.566641
v -0.508398 1.601944 -0.566641
v -0.671553 1.601944 -0.566641
v -0.671553 2.090917 -0.566641
v -0.589975 1.508771 -0.616944
v -0.590699 1.392470 -0.573822
v -0.589975 1.559701 -0.606689
v -0.589337 1.395249 -0.598780
v -0.602424 1.393715 -0.587547
v -0.568997 1.533287 -0.617120
v -0.610954 1.533287 -0.617120
v -0.577586 1.393739 -0.586193
v -0.584405 1.229209 -0.575293
v -0.591517 1.251730 -0.591000
v -0.602419 1.240630 -0.579859
v -0.576947 1.234746 -0.592175
v -0.510252 1.161500 -0.643406
v -0.519012 1.175819 -0.662661
v -0.526848 1.162923 -0.653717
v -0.505146 1.177273 -0.654516
v -0.441029 1.172360 -0.777365
v -0.455057 1.185073 -0.758731
v -0.460749 1.177866 -0.774982
v -0.439217 1.185971 -0.763410
v -0.405551 1.286943 -0.816227
v -0.420493 1.275207 -0.793142
v -0.425666 1.287461 -0.808944
v -0.404549 1.277213 -0.797268
v 0.842551 2.189535 -0.959892
v 0.842551 3.042153 -0.959892
v 0.134834 2.189535 -0.959892
v 0.134834 3.042153 -0.959892
v 0.842551 1.194420 -0.959892
v 0.842551 2.173737 -0.959892
v 0.134834 1.194420 -0.959892
v 0.134834 2.173737 -0.959892
v 0.764198 0.668718 -0.959892
v 0.764198 1.084523 -0.959892
v 0.213188 0.668718 -0.959892
v 0.213188 1.084523 -0.959892
v 0.921881 -0.404350 -0.959892
v 0.921881 0.505619 -0.959892
v -0.909979 -0.404350 -0.959892
v -0.909979 0.505619 -0.959892
v 0.777155 -0.332457 -0.825948
v 0.777155 0.433727 -0.825948
v -0.765252 -0.332457 -0.825948
v -0.765252 0.433727 -0.825948
vt 0.039062 0.804688
vt 0.039062 0.804688
vt 0.039062 0.804688
vt 0.039062 0.804688
vt 0.039062 0.804688
vt 0.039062 0.804688
vt 0.039062 0.804688
vt 0.039062 0.804688
vt 0.039062 0.804688
vt 0.039062 0.804688
vt 0.039062 0.804688
vt 0.039062 0.804688
vt 0.039062 0.804688
vt 0.039062 0.804688
vt 0.039062 0.804688
vt 0.039062 0.804688
vt 0.039062 0.804688
vt 0.039062 0.804688
vt 0.039062 0.804688
vt 0.039062 0.804688
vt 0.039062 0.804688
vt 0.039062 0.804688
vt 0.039062 0.804688
vt 0.039062 0.804688
vt 0.039062 0.804688
vt 0.039062 0.804688
vt 0.039062 0.804688
vt 0.039062 0.804688
vt 0.039062 0.804688
vt 0.039062 0.804688
vt 0.039062 0.804688
vt 0.039062 0.804688
vt 0.039062 0.804688
vt 0.039062 0.804688
vt 0.039062 0.804688
vt 0.039062 0.804688
vt 0.039062 0.804688
vt 0.039062 0.804688
vt 0.039062 0.804688
vt 0.039062 0.804688
vt 0.039062 0.804688
vt 0.039062 0.804688
vt 0.039062 0.804688
vt 0.039062 0.804688
vt 0.039062 0.804688
vt 0.039062 0.804688
vt 0.039062 0.804688
vt 0.039062 0.804688
vt 0.054688 0.789062
vt 0.054688 0.789062
vt 0.054688 0.789062
vt 0.054688 0.789062
vt 0.054688 0.789062
vt 0.054688 0.789062
vt 0.054688 0.789062
vt 0.054688 0.789062
vt 0.023438 0.742188
vt 0.023438 0.742188
vt 0.023438 0.742188
vt 0.023438 0.742188
vt 0.023438 0.726562
vt 0.023438 0.726562
vt 0.023438 0.726562
vt 0.023438 0.726562
vt 0.023438 0.726562
vt 0.023438 0.726562
vt 0.023438 0.726562
vt 0.023438 0.726562
vt 0.023438 0.726562
vt 0.023438 0.726562
vt 0.023438 0.726562
vt 0.023438 0.726562
vt 0.023438 0.726562
vt 0.023438 0.726562
vt 0.023438 0.726562
vt 0.023438 0.726562
vt 0.054688 0.789062
vt 0.054688 0.789062
vt 0.054688 0.789062
vt 0.054688 0.789062
vt 0.054688 0.789062
vt 0.054688 0.789062
vt 0.054688 0.789062
vt 0.054688 0.789062
vt 0.054688 0.789062
vt 0.054688 0.789062
vt 0.054688 0.789062
vt 0.054688 0.789062
vt 0.054688 0.789062
vt 0.054688 0.789062
vt 0.054688 0.789062
vt 0.054688 0.789062
vt 0.054688 0.789062
vt 0.054688 0.789062
vt 0.054688 0.789062
vt 0.054688 0.789062
vt 0.054688 0.789062
vt 0.054688 0.789062
vt 0.054688 0.789062
vt 0.054688 0.789062
vt 0.054688 0.789062
vt 0.054688 0.789062
vt 0.054688 0.789062
vt 0.054688 0.789062
vt 0.054688 0.789062
vt 0.054688 0.789062
vt 0.054688 0.789062
vt 0.054688 0.789062
vt 0.054688 0.789062
vt 0.054688 0.789062
vt 0.054688 0.789062
vt 0.054688 0.789062
vn 1.0000 -0.0000 0.0000
vn 0.0000 0.0000 1.0000
vn 0.0000 0.0000 -1.0000
vn -1.0000 -0.0000 0.0000
vn 0.0000 1.0000 0.0000
vn 0.0000 -1.0000 0.0000
vn 0.0000 -0.5537 0.8327
vn 0.0000 0.5537 0.8327
vn 0.0000 -0.8811 0.4729
vn -0.6792 0.0000 0.7339
vn 0.0000 0.8811 0.4729
vn 0.6792 0.0000 0.7339
vn -0.9993 -0.0150 0.0328
vn -0.0546 -0.1270 -0.9904
vn -0.2905 0.0546 -0.9553
vn -0.9556 -0.2338 0.1793
vn 0.9942 0.0009 -0.1076
vn 0.8520 0.4932 0.1757
vn 0.8256 0.0944 0.5564
vn -0.0182 0.1794 0.9836
vn 0.0918 0.0887 0.9918
vn -0.8481 0.0876 0.5224
vn 0.0241 -0.2035 -0.9788
vn -0.3767 0.8193 -0.4322
vn -0.6968 -0.6641 -0.2709
vn 0.7711 0.5400 0.3374
vn 0.0697 -0.4717 0.8790
vn 0.3863 -0.7671 0.5121
vn -0.7754 -0.3822 -0.5025
vn 0.4895 -0.7283 -0.4794
vn 0.8235 0.0173 0.5671
vn -0.5159 0.8399 0.1684
vn 0.9232 -0.1923 0.3327
vn -0.4194 0.4338 0.7974
vn -0.6146 -0.0477 -0.7873
vn 0.3359 -0.3984 -0.8535
s off
f 9/1/1 13/2/1 23/3/1 21/4/1
f 5/5/2 11/6/2 9/1/2 1/7/2
f 7/8/3 3/9/3 4/10/3 8/11/3
f 8/11/1 28/12/1 25/13/1 7/8/1
f 11/6/4 29/14/4 31/15/4 15/16/4
f 5/5/1 26/17/1 27/18/1 6/19/1
f 2/20/2 1/7/2 9/1/2 10/21/2
f 11/6/5 15/16/5 13/2/5 9/1/5
f 13/2/1 14/22/1 24/23/1 23/3/1
f 16/24/4 32/25/4 30/26/4 12/27/4
f 6/19/1 27/18/1 28/12/1 8/11/1
f 4/10/4 3/9/4 17/28/4 20/29/4
f 10/21/1 9/1/1 21/4/1 22/30/1
f 1/7/4 2/20/4 19/31/4 18/32/4
f 14/22/1 10/21/1 22/30/1 24/23/1
f 2/20/4 4/10/4 20/29/4 19/31/4
f 3/9/4 1/7/4 18/32/4 17/28/4
f 21/4/5 23/3/5 17/28/5 18/32/5
f 22/30/3 21/4/3 18/32/3 19/31/3
f 24/23/6 22/30/6 19/31/6 20/29/6
f 23/3/2 24/23/2 20/29/2 17/28/2
f 12/27/4 30/26/4 29/14/4 11/6/4
f 2/20/2 10/21/2 12/27/2 6/19/2
f 15/16/4 31/15/4 32/25/4 16/24/4
f 4/10/5 2/20/5 6/19/5 8/11/5
f 6/19/2 12/27/2 11/6/2 5/5/2
f 7/8/1 25/13/1 26/17/1 5/5/1
f 29/14/5 26/17/5 25/13/5 31/15/5
f 30/26/3 27/18/3 26/17/3 29/14/3
f 32/25/6 28/12/6 27/18/6 30/26/6
f 31/15/2 25/13/2 28/12/2 32/25/2
f 15/16/2 16/24/2 14/22/2 13/2/2
f 34/33/4 33/34/4 36/35/4 35/36/4
f 38/37/1 39/38/1 40/39/1 37/40/1
f 42/41/1 43/42/1 44/43/1 41/44/1
f 46/45/4 45/46/4 48/47/4 47/48/4
f 51/49/3 49/50/3 50/51/3 52/52/3
f 53/53/2 54/54/2 56/55/2 55/56/2
f 52/52/5 50/51/5 56/55/5 54/54/5
f 51/49/1 52/52/1 54/54/1 53/53/1
f 49/50/6 51/49/6 53/53/6 55/56/6
f 50/51/4 49/50/4 55/56/4 56/55/4
f 57/57/2 58/58/2 60/59/2 59/60/2
f 61/61/3 63/62/3 64/63/3 62/64/3
f 66/65/2 65/66/2 68/67/2 67/68/2
f 63/62/7 61/61/7 66/65/7 67/68/7
f 64/63/4 63/62/4 67/68/4 68/67/4
f 62/64/8 64/63/8 68/67/8 65/66/8
f 61/61/1 62/64/1 65/66/1 66/65/1
f 93/69/2 94/70/2 96/71/2 95/72/2
f 97/73/2 98/74/2 100/75/2 99/76/2
f 101/77/2 102/78/2 104/79/2 103/80/2
f 109/81/2 110/82/2 112/83/2 111/84/2
f 107/85/9 105/86/9 109/81/9 111/84/9
f 108/87/10 107/85/10 111/84/10 112/83/10
f 106/88/11 108/87/11 112/83/11 110/82/11
f 105/86/12 106/88/12 110/82/12 109/81/12
s 1
f 73/89/13 72/90/14 78/91/15 79/92/16
f 72/90/14 76/93/17 80/94/18 78/91/15
f 74/95/19 71/96/20 70/97/21 76/93/17
f 71/96/20 75/98/22 73/89/13 70/97/21
f 69/99/23 74/95/19 76/93/17 72/90/14
f 75/98/22 69/99/23 72/90/14 73/89/13
f 79/92/16 78/91/15 82/100/24 83/101/25
f 78/91/15 80/94/18 84/102/26 82/100/24
f 70/97/21 73/89/13 79/92/16 77/103/27
f 76/93/17 70/97/21 77/103/27 80/94/18
f 81/104/28 83/101/25 87/105/29 85/106/30
f 84/102/26 81/104/28 85/106/30 88/107/31
f 80/94/18 77/103/27 81/104/28 84/102/26
f 77/103/27 79/92/16 83/101/25 81/104/28
f 86/108/32 88/107/31 92/109/33 90/110/34
f 85/106/30 87/105/29 91/111/35 89/112/36
f 82/100/24 84/102/26 88/107/31 86/108/32
f 83/101/25 82/100/24 86/108/32 87/105/29
f 87/105/29 86/108/32 90/110/34 91/111/35
f 88/107/31 85/106/30 89/112/36 92/109/33
