# Blender v2.83.4 OBJ File: 'decos.blend'
# www.blender.org
o Cube_Cube.002
v 1.318801 -0.052102 -1.318801
v 1.301019 0.000000 -1.301019
v 1.839918 -0.000000 0.000000
v 1.865066 -0.052102 0.000000
v 1.318801 -0.052102 1.318801
v 1.301019 -0.000000 1.301019
v 0.000000 -0.000000 1.839918
v 0.000000 -0.052102 1.865066
v -1.318801 -0.052102 -1.318801
v -1.301019 0.000000 -1.301019
v 0.000000 0.000000 -1.839918
v 0.000000 -0.052102 -1.865066
v -1.318801 -0.052102 1.318801
v -1.301019 -0.000000 1.301019
v -1.839918 -0.000000 0.000000
v -1.865066 -0.052102 0.000000
v 0.000000 -1.000000 -0.000000
v 1.839918 -1.000000 -0.000000
v 1.301019 -1.000000 1.301019
v 0.000000 -1.000000 1.839918
v -1.839918 -1.000000 -0.000000
v -1.301019 -1.000000 1.301019
v -1.301019 -1.000000 -1.301019
v 0.000000 -1.000000 -1.839918
v 1.301019 -1.000000 -1.301019
v -1.540453 -0.752655 -0.000000
v -1.472794 -0.505310 -0.000000
v -1.041422 -0.505310 -1.041422
v -1.089264 -0.752655 -1.089265
v 0.000000 -0.752655 -1.540453
v 0.000000 -0.505310 -1.472794
v 1.041422 -0.505310 -1.041422
v 1.089265 -0.752655 -1.089264
v 1.540453 -0.752655 -0.000000
v 1.472794 -0.505310 -0.000000
v 1.041422 -0.505310 1.041422
v 1.089264 -0.752655 1.089265
v 0.000000 -0.752655 1.540453
v 0.000000 -0.505310 1.472793
v -1.041422 -0.505310 1.041422
v -1.089265 -0.752655 1.089264
v -1.847283 -0.208408 -0.000000
v -1.306227 -0.208408 -1.306227
v 0.000000 -0.208408 -1.847283
v 1.306227 -0.208408 -1.306227
v 1.847283 -0.208408 -0.000000
v 1.306227 -0.208408 1.306227
v 0.000000 -0.208408 1.847283
v -1.306227 -0.208408 1.306226
v -1.684193 -0.104204 -0.000000
v -1.190904 -0.104204 -1.190904
v 0.000000 -0.104204 -1.684193
v 1.190904 -0.104204 -1.190904
v 1.684193 -0.104204 -0.000000
v 1.190904 -0.104204 1.190904
v 0.000000 -0.104204 1.684193
v -1.190904 -0.104204 1.190904
v 1.182837 0.000000 -1.182835
v 1.672783 -0.000000 0.000000
v -1.182835 0.000000 -1.182837
v 0.000000 0.000000 -1.672783
v 1.182835 -0.000000 1.182837
v -1.182837 -0.000000 1.182835
v 0.000000 -0.000000 1.672783
v 0.000000 -0.035160 1.594024
v -1.127145 -0.035160 1.127145
v 0.000000 -0.035160 -1.594024
v 1.127145 -0.035160 -1.127145
v 1.594024 -0.035160 0.000000
v -1.672783 -0.000000 0.000000
v 1.127145 -0.035160 1.127145
v -1.594024 -0.035160 0.000000
v -1.127145 -0.035160 -1.127145
vt 0.257812 0.804688
vt 0.257812 0.804688
vt 0.257812 0.804688
vt 0.257812 0.804688
vt 0.257812 0.804688
vt 0.257812 0.804688
vt 0.257812 0.804688
vt 0.257812 0.804688
vt 0.257812 0.804688
vt 0.257812 0.804688
vt 0.257812 0.804688
vt 0.257812 0.804688
vt 0.257812 0.804688
vt 0.257812 0.804688
vt 0.257812 0.804688
vt 0.257812 0.804688
vt 0.257812 0.804688
vt 0.257812 0.804688
vt 0.257812 0.804688
vt 0.257812 0.804688
vt 0.257812 0.804688
vt 0.257812 0.804688
vt 0.257812 0.804688
vt 0.257812 0.804688
vt 0.257812 0.804688
vt 0.257812 0.804688
vt 0.257812 0.804688
vt 0.257812 0.804688
vt 0.257812 0.804688
vt 0.257812 0.804688
vt 0.257812 0.804688
vt 0.257812 0.804688
vt 0.257812 0.804688
vt 0.257812 0.804688
vt 0.257812 0.804688
vt 0.257812 0.804688
vt 0.257812 0.804688
vt 0.257812 0.804688
vt 0.257812 0.804688
vt 0.257812 0.804688
vt 0.257812 0.804688
vt 0.257812 0.804688
vt 0.257812 0.804688
vt 0.257812 0.804688
vt 0.257812 0.804688
vt 0.257812 0.804688
vt 0.257812 0.804688
vt 0.257812 0.804688
vt 0.257812 0.804688
vt 0.257812 0.804688
vt 0.257812 0.804688
vt 0.257812 0.804688
vt 0.257812 0.804688
vt 0.257812 0.804688
vt 0.257812 0.804688
vt 0.257812 0.804688
vt 0.257812 0.804688
vt 0.257812 0.804688
vt 0.257812 0.804688
vt 0.257812 0.804688
vt 0.257812 0.804688
vt 0.257812 0.804688
vt 0.257812 0.804688
vt 0.257812 0.804688
vt 0.257812 0.804688
vt 0.257812 0.804688
vt 0.257812 0.804688
vt 0.257812 0.804688
vt 0.257812 0.804688
vt 0.257812 0.804688
vt 0.257812 0.804688
vt 0.257812 0.804688
vt 0.257812 0.804688
vn 0.6368 0.4347 -0.6368
vn 0.9006 0.4347 0.0000
vn 0.6368 0.4347 0.6368
vn 0.0000 0.4347 0.9006
vn -0.6368 0.4347 -0.6368
vn 0.0000 0.4347 -0.9006
vn -0.6368 0.4347 0.6368
vn -0.9006 0.4347 0.0000
vn 0.0000 -1.0000 -0.0000
vn -0.9646 0.2639 -0.0000
vn -0.6820 0.2639 -0.6820
vn -0.6820 0.2639 -0.6821
vn 0.0000 0.2639 -0.9646
vn 0.6820 0.2639 -0.6821
vn 0.6821 0.2639 -0.6820
vn 0.9646 0.2639 0.0000
vn 0.6821 0.2639 0.6820
vn 0.6820 0.2639 0.6821
vn -0.0000 0.2639 0.9646
vn -0.6820 0.2639 0.6821
vn -0.6821 0.2639 0.6820
vn 0.4503 0.7710 -0.4503
vn 0.6368 0.7710 0.0000
vn 0.4503 0.7710 0.4503
vn -0.0000 0.7710 0.6368
vn -0.4503 0.7710 -0.4503
vn 0.0000 0.7710 -0.6368
vn -0.4503 0.7710 0.4503
vn -0.6368 0.7710 0.0000
vn -0.6213 -0.7836 -0.0000
vn -0.4393 -0.7836 -0.4393
vn 0.0000 -0.7836 -0.6213
vn 0.4393 -0.7836 -0.4393
vn 0.6213 -0.7836 -0.0000
vn 0.4393 -0.7836 0.4393
vn -0.0000 -0.7836 0.6213
vn -0.4393 -0.7836 0.4393
vn -0.5384 0.8427 0.0000
vn -0.3807 0.8427 -0.3807
vn 0.0000 0.8427 -0.5384
vn 0.3807 0.8427 -0.3807
vn 0.5384 0.8427 0.0000
vn 0.3807 0.8427 0.3807
vn -0.0000 0.8427 0.5384
vn -0.3807 0.8427 0.3807
vn -0.2768 -0.9609 -0.0000
vn -0.1957 -0.9609 -0.1957
vn 0.0000 -0.9609 -0.2768
vn 0.1957 -0.9609 -0.1957
vn 0.2768 -0.9609 -0.0000
vn 0.1957 -0.9609 0.1957
vn 0.0000 -0.9609 0.2768
vn -0.1957 -0.9609 0.1957
vn -0.0000 1.0000 0.0000
vn 0.2883 0.9131 -0.2883
vn 0.0000 0.9131 -0.4076
vn -0.2883 0.9131 0.2883
vn -0.0000 0.9131 0.4076
vn -0.4076 0.9131 -0.0000
vn -0.2883 0.9131 -0.2883
vn 0.4076 0.9131 0.0000
vn 0.2883 0.9131 0.2883
s 1
f 1/1/1 2/2/1 3/3/2 4/4/2
f 5/5/3 6/6/3 7/7/4 8/8/4
f 9/9/5 10/10/5 11/11/6 12/12/6
f 13/13/7 14/14/7 15/15/8 16/16/8
f 17/17/9 18/18/9 19/19/9 20/20/9
f 21/21/9 17/17/9 20/20/9 22/22/9
f 8/8/4 7/7/4 14/14/7 13/13/7
f 4/4/2 3/3/2 6/6/3 5/5/3
f 12/12/6 11/11/6 2/2/1 1/1/1
f 16/16/8 15/15/8 10/10/5 9/9/5
f 23/23/9 24/24/9 17/17/9 21/21/9
f 24/24/9 25/25/9 18/18/9 17/17/9
f 26/26/10 27/27/10 28/28/11 29/29/12
f 30/30/13 31/31/13 32/32/14 33/33/15
f 34/34/16 35/35/16 36/36/17 37/37/18
f 38/38/19 39/39/19 40/40/20 41/41/21
f 41/41/21 40/40/20 27/27/10 26/26/10
f 29/29/12 28/28/11 31/31/13 30/30/13
f 37/37/18 36/36/17 39/39/19 38/38/19
f 33/33/15 32/32/14 35/35/16 34/34/16
f 25/25/22 33/33/22 34/34/23 18/18/23
f 19/19/24 37/37/24 38/38/25 20/20/25
f 23/23/26 29/29/26 30/30/27 24/24/27
f 22/22/28 41/41/28 26/26/29 21/21/29
f 20/20/25 38/38/25 41/41/28 22/22/28
f 18/18/23 34/34/23 37/37/24 19/19/24
f 24/24/27 30/30/27 33/33/22 25/25/22
f 21/21/29 26/26/29 29/29/26 23/23/26
f 27/27/30 42/42/30 43/43/31 28/28/31
f 31/31/32 44/44/32 45/45/33 32/32/33
f 35/35/34 46/46/34 47/47/35 36/36/35
f 39/39/36 48/48/36 49/49/37 40/40/37
f 40/40/37 49/49/37 42/42/30 27/27/30
f 28/28/31 43/43/31 44/44/32 31/31/32
f 36/36/35 47/47/35 48/48/36 39/39/36
f 32/32/33 45/45/33 46/46/34 35/35/34
f 42/42/38 50/50/38 51/51/39 43/43/39
f 44/44/40 52/52/40 53/53/41 45/45/41
f 46/46/42 54/54/42 55/55/43 47/47/43
f 48/48/44 56/56/44 57/57/45 49/49/45
f 49/49/45 57/57/45 50/50/38 42/42/38
f 43/43/39 51/51/39 52/52/40 44/44/40
f 47/47/43 55/55/43 56/56/44 48/48/44
f 45/45/41 53/53/41 54/54/42 46/46/42
f 50/50/46 16/16/46 9/9/47 51/51/47
f 52/52/48 12/12/48 1/1/49 53/53/49
f 54/54/50 4/4/50 5/5/51 55/55/51
f 56/56/52 8/8/52 13/13/53 57/57/53
f 57/57/53 13/13/53 16/16/46 50/50/46
f 51/51/47 9/9/47 12/12/48 52/52/48
f 55/55/51 5/5/51 8/8/52 56/56/52
f 53/53/49 1/1/49 4/4/50 54/54/50
f 3/3/54 2/2/54 58/58/54 59/59/54
f 11/11/54 10/10/54 60/60/54 61/61/54
f 6/6/54 3/3/54 59/59/54 62/62/54
f 63/63/55 64/64/56 65/65/56 66/66/55
f 58/58/57 61/61/58 67/67/58 68/68/57
f 59/59/59 58/58/57 68/68/57 69/69/59
f 2/2/54 11/11/54 61/61/54 58/58/54
f 14/14/54 7/7/54 64/64/54 63/63/54
f 15/15/54 14/14/54 63/63/54 70/70/54
f 10/10/54 15/15/54 70/70/54 60/60/54
f 7/7/54 6/6/54 62/62/54 64/64/54
f 71/71/54 72/72/54 66/66/54 65/65/54
f 69/69/54 73/73/54 72/72/54 71/71/54
f 73/73/54 69/69/54 68/68/54 67/67/54
f 64/64/56 62/62/60 71/71/60 65/65/56
f 70/70/61 63/63/55 66/66/55 72/72/61
f 60/60/62 70/70/61 72/72/61 73/73/62
f 62/62/60 59/59/59 69/69/59 71/71/60
f 61/61/58 60/60/62 73/73/62 67/67/58
