# Blender v2.91.0 Beta OBJ File: 'decos.blend'
# www.blender.org
o BoxTruck_Cube.004_BoxTruck_Cube.006
v 1.169022 1.104612 3.376681
v -1.201651 1.104612 3.376681
v -1.201651 1.142258 3.552509
v 1.169022 1.142258 3.552509
v 1.169022 0.890416 3.551364
v 1.355629 0.849063 3.358241
v 1.355629 1.100908 3.359385
v -1.388259 1.063260 3.183558
v -1.388259 1.100908 3.359385
v 1.355629 1.063260 3.183558
v 1.355629 0.811418 3.182415
v -1.388259 0.849063 3.358241
v -1.201651 0.890416 3.551364
v -1.388259 0.811418 3.182415
v -1.139431 1.427797 3.363906
v -1.129391 1.420474 3.401363
v -0.960906 1.420474 3.401363
v -0.950866 1.427797 3.363906
v 1.106801 1.427797 3.363906
v 0.918236 1.427797 3.363906
v 0.928276 1.420474 3.401363
v 1.096761 1.420474 3.401363
v 1.096761 1.683482 3.395452
v 0.928276 1.683482 3.395452
v 0.928276 1.455248 3.400581
v 1.096761 1.455248 3.400581
v 0.928276 1.283532 3.404440
v 1.096761 1.283532 3.404440
v 1.106801 1.440810 3.363615
v 1.106801 1.696243 3.357872
v 0.918236 1.696243 3.357872
v 0.918236 1.440810 3.363615
v 0.918236 1.274533 3.367352
v 1.106801 1.274533 3.367352
v -1.129391 1.683482 3.395452
v -1.129391 1.455248 3.400581
v -0.960906 1.455248 3.400581
v -0.960906 1.683482 3.395452
v -1.129391 1.283532 3.404440
v -0.960906 1.283532 3.404440
v -1.139431 1.440810 3.363615
v -1.139431 1.696243 3.357872
v -0.950866 1.696243 3.357872
v -0.950866 1.440810 3.363615
v -0.950866 1.274533 3.367352
v -1.139431 1.274533 3.367352
vt 0.132812 0.773438
vt 0.132812 0.773438
vt 0.132812 0.773438
vt 0.132812 0.773438
vt 0.132812 0.773438
vt 0.132812 0.773438
vt 0.132812 0.773438
vt 0.132812 0.773438
vt 0.132812 0.773438
vt 0.132812 0.773438
vt 0.132812 0.773438
vt 0.132812 0.773438
vt 0.132812 0.773438
vt 0.164062 0.898438
vt 0.164062 0.898438
vt 0.164062 0.898438
vt 0.164062 0.898438
vt 0.164062 0.898438
vt 0.164062 0.898438
vt 0.132812 0.789062
vt 0.132812 0.789062
vt 0.132812 0.789062
vt 0.164062 0.898438
vt 0.164062 0.898438
vt 0.132812 0.789062
vt 0.132812 0.789062
vt 0.132812 0.789062
vt 0.132812 0.789062
vt 0.164062 0.898438
vt 0.164062 0.898438
vt 0.164062 0.898438
vt 0.132812 0.789062
vt 0.132812 0.789062
vt 0.132812 0.789062
vt 0.132812 0.789062
vt 0.164062 0.898438
vt 0.164062 0.898438
vt 0.132812 0.789062
vt 0.132812 0.789062
vt 0.132812 0.789062
vt 0.132812 0.789062
vt 0.132812 0.789062
vt 0.164062 0.898438
vt 0.164062 0.898438
vt 0.164062 0.898438
vt 0.132812 0.773438
vn -0.0000 0.9778 -0.2094
vn 0.7188 -0.0032 0.6952
vn 1.0000 -0.0000 0.0000
vn -0.7188 -0.0032 0.6952
vn -1.0000 0.0000 0.0000
vn 0.0000 0.9814 0.1919
vn 0.0000 0.0225 0.9997
vn 0.9656 0.0058 0.2600
vn -0.9656 0.0058 0.2600
vn 0.0000 -0.9718 0.2358
vn 0.0000 -0.9315 0.3638
vn 0.0000 0.9469 0.3215
vn 0.0000 -0.0045 1.0000
s 1
f 2/1/1 4/2/1 1/3/1
f 5/4/2 7/5/2 4/2/2
f 2/1/1 9/6/1 3/7/1
f 10/8/3 6/9/3 11/10/3
f 9/6/4 13/11/4 3/7/4
f 8/12/5 12/13/5 9/6/5
f 1/3/1 7/5/1 10/8/1
f 16/14/6 18/15/6 15/16/6
f 20/17/6 22/18/6 19/19/6
f 24/20/7 26/21/7 23/22/7
f 21/23/7 28/24/7 22/18/7
f 30/25/8 26/21/8 29/26/8
f 31/27/9 25/28/9 24/20/9
f 34/29/10 27/30/10 33/31/10
f 32/32/11 26/21/11 25/28/11
f 31/27/12 23/22/12 30/25/12
f 19/19/8 28/24/8 34/29/8
f 20/17/9 27/30/9 21/23/9
f 36/33/7 38/34/7 35/35/7
f 39/36/7 17/37/7 16/14/7
f 36/33/9 42/38/9 41/39/9
f 43/40/8 37/41/8 44/42/8
f 40/43/10 46/44/10 45/45/10
f 37/41/11 41/39/11 44/42/11
f 35/35/12 43/40/12 42/38/12
f 39/36/9 15/16/9 46/44/9
f 18/15/8 40/43/8 45/45/8
f 3/7/13 5/4/13 4/2/13
f 2/1/1 3/7/1 4/2/1
f 5/4/2 6/9/2 7/5/2
f 2/1/1 8/12/1 9/6/1
f 10/8/3 7/5/3 6/9/3
f 9/6/4 12/13/4 13/11/4
f 8/12/5 14/46/5 12/13/5
f 1/3/1 4/2/1 7/5/1
f 16/14/6 17/37/6 18/15/6
f 20/17/6 21/23/6 22/18/6
f 24/20/7 25/28/7 26/21/7
f 21/23/7 27/30/7 28/24/7
f 30/25/8 23/22/8 26/21/8
f 31/27/9 32/32/9 25/28/9
f 34/29/10 28/24/10 27/30/10
f 32/32/11 29/26/11 26/21/11
f 31/27/12 24/20/12 23/22/12
f 19/19/8 22/18/8 28/24/8
f 20/17/9 33/31/9 27/30/9
f 36/33/7 37/41/7 38/34/7
f 39/36/7 40/43/7 17/37/7
f 36/33/9 35/35/9 42/38/9
f 43/40/8 38/34/8 37/41/8
f 40/43/10 39/36/10 46/44/10
f 37/41/11 36/33/11 41/39/11
f 35/35/12 38/34/12 43/40/12
f 39/36/9 16/14/9 15/16/9
f 18/15/8 17/37/8 40/43/8
f 3/7/13 13/11/13 5/4/13
o Pickup_Cube.005
v 1.369061 0.488455 -2.098865
v 1.369061 0.527181 -1.699829
v 1.369061 0.361895 -2.098865
v 1.369060 0.527181 2.032171
v 1.369060 0.488454 2.431206
v 1.369060 0.361894 2.431206
v 1.369061 0.527181 -2.497900
v -1.369060 0.527181 2.830243
v -1.369060 0.488454 2.431206
v -1.369060 0.361894 2.431206
v -1.369061 0.527181 -1.699829
v -1.369061 0.488455 -2.098865
v -1.369061 0.361895 -2.098865
v -1.369061 0.527181 -2.497900
v -1.369061 0.621329 -2.419650
v -1.369060 0.527181 2.032171
v -1.369060 0.621328 2.110421
v 1.369060 0.527181 2.830243
v 1.369061 0.621329 -1.778079
v 1.369060 0.621328 2.110421
v 1.369061 0.621329 -2.419650
v -1.369060 0.621328 2.751992
v -1.369061 0.621329 -1.778079
v 1.369060 0.621328 2.751992
v -1.203824 2.144229 -0.651280
v -1.184795 2.210877 0.966762
v -1.184795 2.210877 -0.508883
v 1.203822 1.899602 3.378119
v -1.203824 2.100114 3.131024
v -1.203822 1.899602 3.378119
v 1.203824 2.144229 -0.651280
v 1.184795 2.210877 0.966762
v 1.203824 2.222844 1.319955
v -1.203825 2.030795 -3.913304
v 1.060020 2.037571 -3.718468
v 1.203825 2.030795 -3.913304
v 1.369060 1.325253 2.032171
v 1.369060 0.942114 1.977547
v 1.369060 0.926217 1.866884
v 1.369061 0.926218 -1.534541
v 0.989625 0.527181 -1.699829
v -1.203822 0.800215 3.350547
v -1.310884 1.482902 1.900502
v -1.310886 1.418518 -1.675536
v -1.203825 0.800222 -3.913304
v 1.004374 2.827494 0.628624
v -1.004374 2.827494 0.628624
v -1.203824 2.222844 1.319955
v -0.989624 0.926217 2.995529
v -1.369060 1.325253 2.830243
v -1.369060 0.926217 2.995529
v 1.369060 1.395773 2.431206
v 1.369060 1.262900 2.751992
v 1.369060 0.942114 2.884866
v -0.989624 1.490539 2.431206
v -1.369060 1.490539 2.431206
v -1.369061 0.926218 -2.663187
v -1.369061 0.942115 -2.552525
v -1.369060 0.926217 1.866884
v -0.989624 1.325253 2.032171
v -0.989624 0.926217 1.866884
v -1.369060 1.325253 2.032171
v -0.989624 0.527181 2.830243
v -0.989624 0.527181 2.032171
v -1.369060 1.262900 2.110421
v -1.369060 1.395773 2.431206
v -1.369061 1.490540 -2.098865
v -1.369061 1.262901 -2.419651
v -1.369061 1.395775 -2.098865
v -0.989625 0.926218 -1.534541
v -1.369061 1.325254 -1.699828
v -1.369061 0.926218 -1.534541
v -0.989625 1.490540 -2.098865
v -0.989625 1.325254 -2.497901
v -0.989625 0.926218 -2.663187
v -1.369061 1.325254 -2.497901
v -1.369060 0.942114 1.977547
v -0.989625 0.527181 -1.699829
v 1.134060 2.227417 1.252476
v -0.989625 0.527181 -2.497900
v 1.310884 1.482902 1.900502
v 1.203824 2.100114 3.131024
v 0.989625 1.325254 -2.497901
v 1.369061 1.490540 -2.098865
v 1.369061 1.325254 -2.497901
v 1.203822 0.800215 3.350547
v 1.310886 1.418518 -1.675536
v 1.203825 0.800222 -3.913304
v 1.369060 1.325253 2.830243
v 0.989624 0.926217 2.995529
v 1.369060 0.926217 2.995529
v 0.989624 1.490539 2.431206
v 1.369060 1.490539 2.431206
v 0.989624 0.527181 2.830243
v 0.989624 1.325253 2.032171
v 1.369061 0.926218 -2.663187
v 1.369061 0.942115 -2.552525
v 1.369061 1.262901 -2.419651
v 1.369061 1.395775 -2.098865
v 0.989624 0.926217 1.866884
v -1.369060 0.942114 2.884866
v 0.989624 0.527181 2.032171
v 1.369060 1.262900 2.110421
v 1.015059 2.765816 -0.368841
v 0.994837 2.827494 -0.478855
v 0.989625 0.926218 -2.663187
v 0.989625 1.490540 -2.098865
v 1.369061 1.325254 -1.699828
v 1.369061 0.942115 -1.645205
v -1.369061 0.942115 -1.645205
v 0.989625 0.926218 -1.534541
v 1.184795 2.210877 -0.508883
v 0.989625 0.527181 -2.497900
v -1.134060 2.227417 1.252476
v -1.369060 1.262900 2.751992
v -1.369061 1.262901 -1.778079
v -1.058876 2.186697 0.930893
v -1.059210 2.185576 -0.482544
v 1.369061 1.262901 -1.778079
v -1.060020 2.037571 -3.718468
v -1.015059 2.765816 -0.368841
v -1.022805 2.765816 0.530639
v -0.994837 2.827494 -0.478855
v -0.920664 2.071581 -1.034920
v -0.920665 1.984829 -3.529662
v -1.060018 2.137453 -0.846115
v 1.043741 2.171740 1.126298
v -1.043741 2.171740 1.126298
v -0.924384 2.699249 0.577890
v 1.022805 2.765816 0.530639
v 0.903276 2.695876 -0.308574
v -0.896767 2.716679 -0.347943
v -0.903766 2.718070 0.513205
v 0.924383 2.699249 0.577890
v 1.052655 2.207511 0.869839
v 1.052963 2.206479 -0.432605
v 0.909725 2.697157 0.484951
v 0.920665 1.984829 -3.529662
v 1.060018 2.137453 -0.846115
v 0.920664 2.071581 -1.034920
v -0.989624 1.325253 2.830243
v -0.989625 1.325254 -1.699828
v 0.989624 1.325253 2.830243
v 0.989625 1.325254 -1.699828
vt 0.070312 0.773438
vt 0.070312 0.773438
vt 0.070312 0.773438
vt 0.070312 0.773438
vt 0.070312 0.773438
vt 0.070312 0.773438
vt 0.070312 0.773438
vt 0.070312 0.773438
vt 0.070312 0.773438
vt 0.070312 0.773438
vt 0.070312 0.773438
vt 0.070312 0.773438
vt 0.070312 0.773438
vt 0.070312 0.773438
vt 0.070312 0.773438
vt 0.070312 0.773438
vt 0.070312 0.773438
vt 0.070312 0.773438
vt 0.070312 0.773438
vt 0.070312 0.773438
vt 0.070312 0.773438
vt 0.070312 0.773438
vt 0.070312 0.773438
vt 0.070312 0.773438
vt 0.289062 0.867188
vt 0.289062 0.867188
vt 0.289062 0.867188
vt 0.289062 0.867188
vt 0.289062 0.867188
vt 0.289062 0.867188
vt 0.289062 0.867188
vt 0.289062 0.867188
vt 0.289062 0.867188
vt 0.289062 0.867188
vt 0.289062 0.867188
vt 0.289062 0.867188
vt 0.070312 0.773438
vt 0.070312 0.773438
vt 0.070312 0.773438
vt 0.070312 0.773438
vt 0.070312 0.773438
vt 0.289062 0.867188
vt 0.289062 0.867188
vt 0.289062 0.867188
vt 0.289062 0.867188
vt 0.289062 0.867188
vt 0.289062 0.867188
vt 0.289062 0.867188
vt 0.070312 0.773438
vt 0.070312 0.773438
vt 0.070312 0.773438
vt 0.007812 0.882812
vt 0.007812 0.882812
vt 0.007812 0.882812
vt 0.070312 0.773438
vt 0.070312 0.773438
vt 0.070312 0.773438
vt 0.070312 0.773438
vt 0.070312 0.773438
vt 0.070312 0.773438
vt 0.070312 0.773438
vt 0.070312 0.773438
vt 0.070312 0.773438
vt 0.070312 0.773438
vt 0.070312 0.773438
vt 0.070312 0.773438
vt 0.070312 0.773438
vt 0.070312 0.773438
vt 0.070312 0.773438
vt 0.070312 0.773438
vt 0.070312 0.773438
vt 0.070312 0.773438
vt 0.070312 0.773438
vt 0.070312 0.773438
vt 0.070312 0.773438
vt 0.070312 0.773438
vt 0.070312 0.773438
vt 0.070312 0.773438
vt 0.289062 0.867188
vt 0.070312 0.773438
vt 0.289062 0.867188
vt 0.289062 0.867188
vt 0.070312 0.773438
vt 0.070312 0.773438
vt 0.070312 0.773438
vt 0.289062 0.867188
vt 0.289062 0.867188
vt 0.289062 0.867188
vt 0.070312 0.773438
vt 0.070312 0.773438
vt 0.070312 0.773438
vt 0.070312 0.773438
vt 0.070312 0.773438
vt 0.070312 0.773438
vt 0.070312 0.773438
vt 0.070312 0.773438
vt 0.007812 0.882812
vt 0.007812 0.882812
vt 0.007812 0.882812
vt 0.070312 0.773438
vt 0.070312 0.773438
vt 0.070312 0.773438
vt 0.070312 0.773438
vt 0.070312 0.773438
vt 0.289062 0.867188
vt 0.289062 0.867188
vt 0.070312 0.773438
vt 0.070312 0.773438
vt 0.070312 0.773438
vt 0.007812 0.882812
vt 0.007812 0.882812
vt 0.070312 0.773438
vt 0.070312 0.773438
vt 0.070312 0.773438
vt 0.007812 0.882812
vt 0.289062 0.867188
vt 0.070312 0.773438
vt 0.289062 0.867188
vt 0.007812 0.882812
vt 0.007812 0.882812
vt 0.007812 0.882812
vt 0.007812 0.882812
vt 0.007812 0.882812
vt 0.007812 0.882812
vt 0.007812 0.882812
vt 0.007812 0.882812
vt 0.007812 0.882812
vt 0.007812 0.882812
vt 0.007812 0.882812
vt 0.007812 0.882812
vt 0.007812 0.882812
vt 0.007812 0.882812
vt 0.007812 0.882812
vt 0.007812 0.882812
vt 0.007812 0.882812
vt 0.007812 0.882812
vt 0.007812 0.882812
vt 0.007812 0.882812
vt 0.007812 0.882812
vt 0.289062 0.867188
vt 0.289062 0.867188
vt 0.070312 0.773438
vt 0.007812 0.882812
vt 0.070312 0.773438
vt 0.007812 0.882812
vt 0.070312 0.773438
vt 0.070312 0.773438
vt 0.070312 0.773438
vt 0.289062 0.867188
vt 0.289062 0.867188
vt 0.289062 0.867188
vt 0.289062 0.867188
vt 0.289062 0.867188
vt 0.289062 0.867188
vt 0.070312 0.773438
vt 0.289062 0.867188
vt 0.289062 0.867188
vt 0.289062 0.867188
vt 0.289062 0.867188
vt 0.289062 0.867188
vt 0.289062 0.867188
vt 0.289062 0.867188
vt 0.289062 0.867188
vt 0.257812 0.554688
vt 0.257812 0.554688
vt 0.257812 0.554688
vt 0.257812 0.554688
vt 0.257812 0.554688
vt 0.257812 0.554688
vt 0.257812 0.554688
vt 0.257812 0.554688
vt 0.257812 0.554688
vt 0.257812 0.554688
vt 0.257812 0.554688
vt 0.289062 0.867188
vt 0.289062 0.867188
vt 0.289062 0.867188
vt 0.289062 0.867188
vt 0.289062 0.867188
vt 0.289062 0.867188
vt 0.289062 0.867188
vt 0.070312 0.773438
vt 0.070312 0.773438
vt 0.070312 0.773438
vt 0.070312 0.773438
vt 0.070312 0.773438
vt 0.070312 0.773438
vt 0.257812 0.554688
vn 1.0000 0.0000 0.0000
vn -1.0000 0.0000 0.0000
vn -0.9540 0.2998 -0.0011
vn -0.1233 0.9916 -0.0394
vn -0.9616 0.2745 0.0000
vn 0.0000 0.7765 0.6301
vn 0.9540 0.2998 -0.0011
vn 0.1233 0.9916 -0.0394
vn 0.1106 0.9931 -0.0396
vn -0.0000 0.9994 -0.0348
vn 0.0000 -0.0000 1.0000
vn 0.0000 -0.3827 0.9239
vn -0.9976 -0.0435 0.0531
vn -0.9975 0.0273 0.0646
vn -0.9999 0.0014 0.0134
vn -0.9978 -0.0391 0.0539
vn -0.9999 -0.0087 -0.0063
vn -0.9988 -0.0297 -0.0396
vn -0.9988 0.0291 -0.0398
vn 0.9661 0.2520 -0.0559
vn 0.9611 0.2762 -0.0092
vn 0.9665 0.2496 -0.0605
vn -0.9888 0.1493 -0.0035
vn -0.9611 0.2762 -0.0092
vn -0.9661 0.2520 -0.0559
vn -0.9665 0.2496 -0.0605
vn -0.9955 0.0841 0.0444
vn 0.0000 0.7071 0.7071
vn 0.0000 1.0000 -0.0000
vn 0.0000 0.0000 -1.0000
vn 0.0000 0.7071 -0.7071
vn 0.0000 -0.3827 -0.9239
vn -0.5721 0.5285 0.6273
vn 0.9999 0.0014 0.0134
vn 0.9888 0.1493 -0.0035
vn 0.9898 0.1423 -0.0012
vn 0.9975 0.0273 0.0646
vn 0.9955 0.0841 0.0444
vn 0.9976 -0.0446 0.0533
vn 0.9999 -0.0087 -0.0063
vn 0.0000 0.9977 0.0676
vn 0.9988 0.0291 -0.0398
vn 0.9988 -0.0283 -0.0394
vn 0.9544 0.2983 -0.0082
vn 0.9554 0.2950 -0.0112
vn 0.9546 0.2977 -0.0086
vn 0.9562 0.2923 -0.0120
vn 0.9555 0.2949 -0.0103
vn 0.5721 0.5285 0.6273
vn -0.9898 0.1423 -0.0012
vn -0.0396 0.6241 0.7803
vn -0.1421 0.5133 -0.8464
vn -0.0243 0.6619 0.7492
vn -0.9544 0.2983 -0.0082
vn -0.9554 0.2950 -0.0122
vn -0.9546 0.2977 -0.0086
vn -0.9548 0.2971 -0.0061
vn 0.3914 0.9197 -0.0320
vn 0.0000 0.2447 -0.9696
vn 0.0000 -0.0251 0.9997
vn -0.8183 0.3155 0.4804
vn -0.8316 0.3032 0.4653
vn -0.8333 0.3016 0.4634
vn 0.8183 0.3155 0.4804
vn 0.8316 0.3032 0.4653
vn 0.8158 0.3177 0.4832
vn 0.5200 -0.8542 -0.0048
vn 0.5297 -0.8481 -0.0049
vn 0.5283 -0.8491 -0.0018
vn 0.0000 0.9149 -0.4037
vn -0.3882 -0.7979 -0.4612
vn -0.3977 -0.7065 0.5853
vn -0.3915 -0.8191 -0.4194
vn -0.1555 0.4749 -0.8662
vn -0.3892 -0.6758 0.6260
vn 0.0000 0.7207 0.6932
vn 0.9599 0.2803 -0.0009
vn 0.9598 0.2806 0.0016
vn 0.9605 0.2783 -0.0005
vn 0.9553 0.2957 -0.0072
vn 0.9558 0.2940 -0.0061
vn 0.9558 0.2939 -0.0103
vn -0.9598 0.2808 -0.0009
vn -0.9605 0.2784 -0.0008
vn -0.9597 0.2809 0.0015
vn -0.9552 0.2960 -0.0077
vn -0.9558 0.2940 -0.0103
vn -0.9561 0.2930 -0.0066
vn 0.0000 -0.3679 0.9299
vn 0.5019 -0.0659 0.8624
vn 0.5025 -0.0630 0.8623
vn 0.5023 -0.0613 0.8625
vn -0.0338 0.9994 0.0006
vn -0.0250 0.9997 0.0003
vn -0.0255 0.9997 0.0000
vn 0.5446 -0.4155 -0.7285
vn 0.5453 -0.4130 -0.7294
vn 0.5471 -0.4141 -0.7275
vn 0.0000 0.9442 -0.3294
vn -0.3914 0.9197 -0.0320
vn 0.0000 0.9631 0.2690
vn -0.1106 0.9931 -0.0396
vn 0.9616 0.2745 0.0000
vn 0.9593 0.2822 0.0028
vn -0.9593 0.2822 0.0028
vn 0.9985 -0.0359 -0.0404
vn -0.9555 0.2949 -0.0103
vn -0.8158 0.3177 0.4832
vn 0.8333 0.3016 0.4634
vn 0.5213 -0.8533 -0.0039
vn 0.5052 -0.0659 0.8605
vn -0.0325 0.9995 -0.0001
vn 0.5453 -0.4138 -0.7290
s off
f 47/47/14 48/48/14 49/49/14
f 50/50/14 51/51/14 52/52/14
f 53/53/14 47/47/14 49/49/14
f 54/54/15 55/55/15 56/56/15
f 57/57/15 58/58/15 59/59/15
f 60/60/15 58/58/15 61/61/15
f 62/62/15 55/55/15 63/63/15
f 51/51/14 64/64/14 52/52/14
f 47/47/14 65/65/14 48/48/14
f 50/50/14 66/66/14 51/51/14
f 53/53/14 67/67/14 47/47/14
f 54/54/15 68/68/15 55/55/15
f 57/57/15 69/69/15 58/58/15
f 60/60/15 59/59/15 58/58/15
f 62/62/15 56/56/15 55/55/15
f 51/51/14 70/70/14 64/64/14
s 1
f 71/71/16 72/72/17 73/73/18
f 74/74/19 75/75/19 76/76/19
f 77/77/20 78/78/21 79/79/22
f 80/80/23 81/81/23 82/82/23
f 83/83/14 84/84/14 85/85/14
f 86/86/24 87/87/25 48/48/25
f 88/88/26 76/76/27 89/89/28
f 88/88/29 90/90/30 91/91/31
f 91/91/31 90/90/30 80/80/32
f 78/78/33 92/92/34 79/79/35
f 89/89/28 71/71/36 90/90/30
f 93/93/37 72/72/38 94/94/39
f 90/90/30 71/71/36 80/80/32
f 76/76/27 75/75/40 89/89/28
f 95/95/24 96/96/41 97/97/24
f 98/98/14 99/99/14 100/100/14
f 96/96/41 101/101/42 102/102/42
f 103/103/15 61/61/15 104/104/15
f 105/105/43 106/106/44 107/107/43
f 102/102/42 106/106/44 108/108/44
f 109/109/25 97/97/24 54/54/25
f 81/81/23 77/77/23 82/82/23
f 62/62/45 107/107/43 110/110/45
f 102/102/15 111/111/15 112/112/15
f 113/113/15 114/114/15 115/115/15
f 116/116/24 117/117/41 118/118/24
f 117/117/41 119/119/42 113/113/42
f 103/103/43 120/120/44 121/121/43
f 113/113/42 120/120/44 122/122/44
f 108/108/15 123/123/15 111/111/15
f 124/124/25 118/118/24 57/57/25
f 125/125/46 79/79/46 92/92/46
f 60/60/45 121/121/43 126/126/45
f 122/122/15 104/104/15 114/114/15
f 85/85/14 66/66/14 50/50/14
f 127/127/47 77/77/48 79/79/49
f 74/74/50 127/127/47 128/128/51
f 129/129/44 130/130/42 131/131/44
f 132/132/52 133/133/53 127/127/47
f 125/125/54 128/128/54 79/79/54
f 133/133/53 82/82/55 77/77/48
f 134/134/56 82/82/55 133/133/53
f 135/135/41 136/136/24 137/137/24
f 138/138/42 135/135/41 139/139/42
f 137/137/24 140/140/25 64/64/25
f 141/141/44 139/139/42 83/83/44
f 97/97/15 68/68/15 54/54/15
f 142/142/14 67/67/14 53/53/14
f 143/143/14 144/144/14 145/145/14
f 141/141/44 85/85/43 146/146/43
f 96/96/15 147/147/15 97/97/15
f 100/148/14 135/135/14 137/137/14
f 146/146/43 50/50/45 148/149/45
f 118/118/15 69/69/15 57/57/15
f 139/139/14 149/150/14 83/83/14
f 92/92/57 150/151/58 151/152/59
f 129/129/44 142/142/43 152/153/43
f 153/154/42 154/155/41 130/130/42
f 145/145/14 155/156/14 65/157/14
f 130/130/14 144/158/14 131/131/14
f 117/117/15 156/159/15 118/118/15
f 154/155/41 157/160/24 86/86/24
f 67/161/14 143/143/14 145/145/14
f 151/152/59 158/162/60 77/77/61
f 152/153/43 53/53/45 159/163/45
f 151/152/42 93/93/42 92/92/42
f 160/164/62 93/93/62 94/94/62
f 70/70/14 137/137/14 64/64/14
f 75/75/40 94/94/63 89/89/28
f 123/165/15 112/166/15 111/167/15
f 112/166/15 68/168/15 147/169/15
f 63/170/15 112/166/15 123/165/15
f 112/166/15 147/169/15 161/171/15
f 55/172/15 68/168/15 112/166/15
f 55/172/15 112/166/15 63/170/15
f 104/173/15 115/174/15 114/175/15
f 115/174/15 69/176/15 156/177/15
f 61/178/15 115/174/15 104/173/15
f 115/174/15 156/177/15 162/179/15
f 58/180/15 69/176/15 115/174/15
f 58/180/15 115/174/15 61/178/15
f 128/128/51 127/127/47 79/79/49
f 51/181/14 98/98/14 70/182/14
f 98/98/14 100/100/14 70/182/14
f 65/65/14 86/86/14 48/48/14
f 51/181/14 66/183/14 98/98/14
f 66/183/14 84/184/14 98/98/14
f 47/185/14 67/161/14 145/145/14
f 73/73/64 163/186/65 164/187/66
f 165/188/14 130/130/14 154/155/14
f 145/145/14 165/189/14 155/156/14
f 99/190/14 139/139/14 135/135/14
f 47/185/14 145/145/14 65/157/14
f 84/184/14 149/191/14 98/98/14
f 105/105/15 63/63/15 123/123/15
f 155/192/14 154/155/14 86/86/14
f 113/113/15 162/193/15 117/117/15
f 102/102/15 161/194/15 96/96/15
f 71/71/23 166/195/23 80/80/23
f 93/93/67 167/196/68 168/197/67
f 169/198/69 73/73/70 167/196/68
f 166/195/71 170/199/71 171/200/71
f 80/80/43 134/134/43 91/91/43
f 131/131/14 143/201/14 142/142/14
f 169/198/72 77/77/72 71/71/72
f 77/77/23 172/202/23 71/71/23
f 132/132/73 76/76/73 88/88/73
f 132/132/52 127/127/47 74/74/50
f 128/128/54 160/164/54 75/75/54
f 92/92/74 173/203/75 125/125/76
f 93/93/77 174/204/78 175/205/79
f 176/206/80 177/207/81 150/151/82
f 125/125/83 174/204/83 160/164/83
f 168/197/84 178/208/85 179/209/86
f 168/197/84 163/186/65 72/72/87
f 167/196/88 164/187/66 178/208/85
f 180/210/89 174/211/89 173/212/89
f 181/213/90 182/214/91 183/215/92
f 182/214/93 177/216/94 183/215/95
f 163/217/96 179/218/97 164/219/98
f 164/219/99 179/218/100 178/220/101
f 93/93/102 180/221/102 92/92/102
f 150/151/103 182/222/104 158/162/105
f 158/162/106 181/223/107 78/78/108
f 176/206/109 181/223/110 183/224/111
f 170/199/23 184/225/23 171/200/23
f 185/226/112 170/199/112 172/202/112
f 81/81/113 186/227/113 185/226/113
f 166/195/114 184/225/114 81/81/114
f 71/71/16 94/94/115 72/72/17
f 74/74/19 128/128/19 75/75/19
f 77/77/20 158/162/116 78/78/21
f 80/80/23 166/195/23 81/81/23
f 83/83/14 149/150/14 84/84/14
f 86/86/24 157/160/24 87/87/25
f 88/88/26 89/89/28 90/90/30
f 78/78/33 176/206/117 92/92/34
f 89/89/28 94/94/63 71/71/36
f 93/93/37 168/197/118 72/72/38
f 95/95/24 187/228/41 96/96/41
f 96/96/41 187/228/41 101/101/42
f 103/103/15 60/60/15 61/61/15
f 105/105/43 108/108/44 106/106/44
f 102/102/42 101/101/42 106/106/44
f 109/109/25 95/95/24 97/97/24
f 81/81/23 185/226/23 77/77/23
f 62/62/45 105/105/43 107/107/43
f 102/102/15 108/108/15 111/111/15
f 113/113/15 122/122/15 114/114/15
f 116/116/24 188/229/41 117/117/41
f 117/117/41 188/229/41 119/119/42
f 103/103/43 122/122/44 120/120/44
f 113/113/42 119/119/42 120/120/44
f 108/108/15 105/105/15 123/123/15
f 124/124/25 116/116/24 118/118/24
f 60/60/45 103/103/43 121/121/43
f 122/122/15 103/103/15 104/104/15
f 85/85/14 84/84/14 66/66/14
f 127/127/47 133/133/53 77/77/48
f 129/129/44 153/154/42 130/130/42
f 132/132/52 134/134/119 133/133/53
f 135/135/41 189/230/41 136/136/24
f 138/138/42 189/230/41 135/135/41
f 137/137/24 136/136/24 140/140/25
f 141/141/44 138/138/42 139/139/42
f 97/97/15 147/147/15 68/68/15
f 142/142/14 143/201/14 67/67/14
f 141/141/44 83/83/44 85/85/43
f 96/96/15 161/194/15 147/147/15
f 100/148/14 99/190/14 135/135/14
f 146/146/43 85/85/43 50/50/45
f 118/118/15 156/159/15 69/69/15
f 139/139/14 98/231/14 149/150/14
f 92/92/57 176/206/57 150/151/58
f 129/129/44 131/131/44 142/142/43
f 153/154/42 190/232/41 154/155/41
f 130/130/14 145/233/14 144/158/14
f 117/117/15 162/193/15 156/159/15
f 154/155/41 190/232/41 157/160/24
f 151/152/59 150/151/58 158/162/60
f 152/153/43 142/142/43 53/53/45
f 151/152/42 169/198/42 93/93/42
f 70/70/14 100/148/14 137/137/14
f 65/65/14 155/192/14 86/86/14
f 73/73/64 72/72/87 163/186/65
f 165/188/14 145/233/14 130/130/14
f 99/190/14 98/231/14 139/139/14
f 105/105/15 62/62/15 63/63/15
f 155/192/14 165/188/14 154/155/14
f 113/113/15 115/115/15 162/193/15
f 102/102/15 112/112/15 161/194/15
f 71/71/23 172/202/23 166/195/23
f 93/93/67 169/198/69 167/196/68
f 169/198/69 71/71/120 73/73/70
f 166/195/71 172/202/71 170/199/71
f 80/80/43 82/82/43 134/134/43
f 131/131/14 144/158/14 143/201/14
f 169/198/72 151/152/72 77/77/72
f 77/77/23 185/226/23 172/202/23
f 132/132/73 74/74/73 76/76/73
f 125/125/54 160/164/54 128/128/54
f 160/164/54 94/94/54 75/75/54
f 92/92/74 180/221/121 173/203/75
f 93/93/77 160/164/122 174/204/78
f 176/206/80 183/224/123 177/207/81
f 125/125/83 173/203/83 174/204/83
f 168/197/84 167/196/88 178/208/85
f 168/197/84 179/209/86 163/186/65
f 167/196/88 73/73/64 164/187/66
f 180/210/89 175/234/89 174/211/89
f 93/93/102 175/205/102 180/221/102
f 150/151/103 177/207/124 182/222/104
f 158/162/106 182/222/125 181/223/107
f 176/206/109 78/78/126 181/223/110
f 170/199/23 186/227/23 184/225/23
f 185/226/112 186/227/112 170/199/112
f 81/81/113 184/225/113 186/227/113
f 166/195/114 171/200/114 184/225/114
