# Blender v2.90.0 Alpha OBJ File: 'Decos.blend'
# www.blender.org
o Pickup_Cube.003_Pickup_Cube.014
v -1.203825 2.043860 -3.913304
v -1.203824 2.157297 -0.651280
v 1.203825 2.043860 -3.913304
v 1.369061 1.171861 -1.537378
v 0.989625 0.502206 -1.599581
v 1.369061 0.540250 -1.699828
v 0.989624 1.470843 2.651386
v 1.369060 1.171860 2.992693
v 1.369060 1.470843 2.211028
v 0.989625 1.470845 -1.878685
v 1.369061 1.470844 -2.319046
v 1.369061 0.540250 -2.497900
v 1.369061 0.939286 -2.663186
v 1.369060 0.374962 2.431206
v 1.369060 0.540249 2.830242
v 1.369060 0.540249 2.032171
v 1.369060 0.939285 1.866884
v 1.369061 0.374963 -2.098865
v 0.989624 0.540249 2.830242
v 0.989624 0.939285 2.995529
v 0.989625 1.171863 -2.660351
v 0.989624 0.540249 2.032171
v 0.989624 1.171860 1.869721
v 0.989625 0.540250 -2.497900
v 1.203824 2.235913 1.319955
v 1.004374 2.840563 0.628624
v -1.203824 2.235913 1.319955
v 0.994837 2.840563 -0.478855
v -1.369060 1.171860 2.992693
v -0.989624 1.470843 2.651386
v -1.369060 1.470843 2.211028
v -1.369061 1.171861 -1.537378
v -0.989625 1.470845 -1.878685
v -1.369061 1.470844 -2.319046
v -0.989625 0.502206 -1.599581
v -1.369061 0.540250 -1.699828
v -1.369060 0.540249 2.830242
v -1.369060 0.540249 2.032171
v -1.369060 0.939285 1.866884
v -1.369060 0.374962 2.431206
v -1.369061 0.540250 -2.497900
v -1.369061 0.939286 -2.663186
v -1.369061 0.374963 -2.098865
v -0.989624 0.540249 2.830242
v -0.989624 0.939285 2.995529
v -0.989624 1.171860 1.869721
v -0.989624 0.540249 2.032171
v -0.989625 1.171863 -2.660351
v -0.989625 0.540250 -2.497900
v -1.203822 0.813287 3.350547
v -1.203824 2.113183 3.131024
v -1.203825 0.813288 -3.913304
v 1.203824 2.113183 3.131024
v 1.203825 0.813288 -3.913304
v 1.203824 2.157297 -0.651280
v 1.203822 0.813287 3.350547
v -0.994837 2.840563 -0.478855
v -1.004374 2.840563 0.628624
vt 0.070312 0.820312
vt 0.070312 0.820312
vt 0.070312 0.820312
vt 0.070312 0.820312
vt 0.051597 0.808749
vt 0.051597 0.808749
vt 0.051597 0.808749
vt 0.051597 0.808749
vt 0.051597 0.808749
vt 0.051597 0.808749
vt 0.051597 0.808749
vt 0.051597 0.808749
vt 0.054688 0.789062
vt 0.054688 0.789062
vt 0.054688 0.789062
vt 0.054688 0.789062
vt 0.054688 0.789062
vt 0.054688 0.789062
vt 0.054688 0.789062
vt 0.054688 0.789062
vt 0.054688 0.789062
vt 0.054688 0.789062
vt 0.054688 0.789062
vt 0.054688 0.789062
vt 0.051597 0.808749
vt 0.051597 0.808749
vt 0.051597 0.808749
vt 0.051597 0.808749
vt 0.051597 0.808749
vt 0.051597 0.808749
vt 0.051597 0.808749
vt 0.051597 0.808749
vt 0.051597 0.808749
vt 0.051597 0.808749
vt 0.051597 0.808749
vt 0.051597 0.808749
vt 0.051597 0.808749
vt 0.051597 0.808749
vt 0.051597 0.808749
vt 0.051597 0.808749
vt 0.051597 0.808749
vt 0.051597 0.808749
vt 0.051597 0.808749
vt 0.070312 0.804688
vt 0.070312 0.804688
vt 0.070312 0.804688
vt 0.070312 0.804688
vt 0.070312 0.804688
vt 0.070312 0.804688
vt 0.070312 0.804688
vt 0.070312 0.804688
vt 0.070312 0.804688
vt 0.070312 0.804688
vt 0.070312 0.804688
vt 0.070312 0.804688
vt 0.070312 0.804688
vt 0.070312 0.804688
vt 0.070312 0.804688
vt 0.070312 0.804688
vt 0.070312 0.804688
vt 0.070312 0.804688
vt 0.070312 0.804688
vt 0.070312 0.804688
vt 0.070312 0.804688
vt 0.070312 0.820312
vt 0.070312 0.820312
vt 0.070312 0.820312
vt 0.070312 0.820312
vt 0.070312 0.820312
vt 0.070312 0.820312
vt 0.070312 0.820312
vt 0.070312 0.820312
vt 0.070312 0.820312
vt 0.070312 0.820312
vt 0.070312 0.820312
vt 0.070312 0.820312
vn 0.6211 0.7352 -0.2716
vn 0.0378 0.8471 -0.5301
vn -0.5967 0.8012 -0.0449
vn 0.0004 0.8639 0.5037
vn 0.4753 0.3546 0.8052
vn -0.0319 -0.2855 0.9578
vn 0.8983 -0.2351 0.3712
vn 0.0302 0.9427 0.3322
vn 0.5596 0.3379 0.7567
vn 0.5511 0.7870 -0.2773
vn -0.0666 0.9167 0.3939
vn 0.2493 -0.4972 -0.8310
vn 0.6310 -0.0136 -0.7757
vn 1.0000 0.0000 0.0000
vn 0.8686 -0.2837 0.4063
vn 0.2493 -0.4972 -0.8311
vn -0.2706 -0.2936 0.9168
vn -0.0514 -0.0175 0.9985
vn 0.0025 0.4077 -0.9131
vn -0.4863 -0.2661 -0.8323
vn -0.0438 0.8911 0.4517
vn -0.7908 -0.5315 -0.3036
vn 0.0107 0.7022 0.7119
vn 0.0102 0.7026 0.7115
vn 0.8069 0.2747 -0.5229
vn 0.7610 0.2749 0.5876
vn 0.8180 0.5585 -0.1375
vn 0.8009 -0.3172 -0.5079
vn -0.9419 0.3289 -0.0688
vn -0.8840 0.3383 0.3225
vn -0.6854 0.7147 0.1394
vn -0.9478 0.3171 -0.0333
vn -0.5596 0.3379 0.7567
vn -0.0302 0.9427 0.3322
vn -0.5511 0.7870 -0.2773
vn -0.4753 0.3546 0.8052
vn 0.0666 0.9167 0.3939
vn 0.2669 -0.0725 0.9610
vn -0.4798 -0.3647 0.7980
vn -0.3552 -0.4299 0.8301
vn -0.8281 -0.3147 -0.4639
vn -0.6310 -0.0136 -0.7757
vn -1.0000 0.0000 0.0000
vn -0.0905 -0.6259 0.7746
vn 0.0514 -0.0175 0.9985
vn -0.0025 0.4077 -0.9131
vn 0.0872 -0.6578 -0.7481
vn -0.9975 -0.0467 0.0530
vn -0.9474 0.2798 -0.1553
vn -0.7103 -0.0332 -0.7031
vn -0.9220 0.3862 0.0284
vn -0.8650 -0.0558 0.4987
vn -0.9548 0.2415 0.1736
vn 0.2923 0.9258 0.2396
vn 0.7092 -0.0138 -0.7049
vn 0.8023 -0.0548 -0.5944
vn 0.4391 0.8377 0.3247
vn 0.5643 -0.6741 0.4765
vn 0.0463 0.0003 -0.9989
vn -0.2414 0.9691 -0.0513
vn 0.0563 0.8784 0.4746
vn 0.2765 0.9414 0.1932
vn 0.1908 0.9414 -0.2781
vn -0.6439 0.5125 -0.5681
vn -0.1830 0.7472 -0.6389
vn 0.5008 0.2416 -0.8311
vn -0.0167 0.2741 -0.9616
vn 0.0000 -0.0251 0.9997
s 1
f 1/1/1 2/2/2 55/3/3 3/4/4
f 4/5/5 5/6/6 6/7/7
f 7/8/8 8/9/9 9/10/10
f 10/11/11 4/5/5 11/12/10
f 11/13/10 4/14/5 6/15/7
f 12/16/12 13/17/13 11/13/10
f 14/18/14 9/19/10 15/20/15
f 9/19/10 8/21/9 15/20/15
f 14/18/14 16/22/14 9/19/10
f 16/22/16 17/23/13 9/19/10
f 18/24/14 12/16/14 11/13/10
f 18/24/14 11/13/10 6/15/7
f 19/25/17 15/26/15 8/9/9 20/27/18
f 21/28/19 10/11/11 11/12/10
f 8/9/9 7/8/8 20/27/18
f 16/29/16 22/30/20 23/31/19 17/32/13
f 23/31/19 7/8/8 9/10/10
f 23/31/19 9/10/10 17/32/13
f 12/33/12 24/34/20 21/28/19 13/35/13
f 21/28/19 11/12/10 13/35/13
f 4/5/5 10/11/11 5/6/6
f 25/36/21 26/37/22 58/38/23 27/39/24
f 25/36/25 55/40/26 26/37/27
f 55/40/26 28/41/28 26/37/27
f 27/39/29 58/38/30 2/42/31
f 2/42/31 58/38/30 57/43/32
f 29/44/33 30/45/34 31/46/35
f 32/47/36 33/48/37 34/49/35
f 35/50/38 32/47/36 36/51/39
f 31/46/35 37/52/40 29/44/33
f 38/53/41 31/46/35 39/54/42
f 40/55/43 37/52/43 31/46/35
f 40/55/43 31/46/35 38/53/41
f 34/49/35 36/51/39 32/47/36
f 41/56/41 34/49/35 42/57/42
f 43/58/43 36/51/43 34/49/35
f 43/58/43 34/49/35 41/56/41
f 29/44/33 37/52/40 44/59/44 45/60/45
f 45/60/45 30/45/34 29/44/33
f 39/54/42 31/46/35 46/61/46
f 31/46/35 30/45/34 46/61/46
f 46/61/46 47/62/47 38/53/41 39/54/42
f 48/63/46 49/64/47 41/56/41 42/57/42
f 35/50/38 33/48/37 32/47/36
f 42/57/42 34/49/35 48/63/46
f 34/49/35 33/48/37 48/63/46
f 50/65/48 51/66/49 52/67/50
f 51/66/49 27/68/51 2/2/52 52/67/50
f 52/67/50 2/2/52 1/1/53
f 53/69/54 54/70/55 55/3/56 25/71/57
f 56/72/58 54/70/55 53/69/54
f 54/70/55 3/4/59 55/3/56
f 28/73/60 57/74/61 58/75/62 26/76/63
f 3/4/59 54/70/55 52/67/50 1/1/53
f 28/73/64 55/3/65 2/2/66 57/74/67
f 50/65/68 56/72/58 53/69/54 51/66/49
f 27/68/51 51/66/49 53/69/54 25/71/57
