# Blender v2.83.4 OBJ File: 'decos.blend'
# www.blender.org
o IndustrialCatWalk_PipeStraightTillable_Cube.001_IndustrialC.025
v -3.998194 4.253038 -9.999999
v -3.998194 4.253038 -2.208341
v -0.000004 4.253038 -2.208339
v -0.000004 4.253037 -9.999999
v -3.998194 4.253028 10.000001
v -0.000004 4.253026 10.000001
v -0.060956 4.672019 -9.999999
v -0.060954 4.672019 -1.906607
v -0.282110 4.672009 10.000001
v -0.282108 4.672018 1.906609
v -3.716092 4.672019 -9.999999
v -3.716094 4.672019 -1.906607
v -3.937246 4.672009 10.000001
v -3.937248 4.672018 1.906609
v -3.716092 4.672009 10.000001
v -3.716094 4.672018 1.906609
v -3.998194 4.253036 2.208343
v -0.060956 4.672009 10.000001
v -0.060954 4.672018 1.906609
v -0.282108 4.672019 -1.906607
v -0.282110 4.672019 -9.999999
v -0.000004 4.253036 2.208341
v -3.937248 4.672019 -1.906607
v -3.937246 4.672019 -9.999999
v 8.000900 4.253036 -2.208335
v 8.000900 4.253034 2.208337
v -11.999100 4.253043 -2.208343
v -11.999100 4.253042 2.208345
v -11.999098 4.672015 -1.887453
v -3.956910 4.672019 -1.887457
v 8.000900 4.672015 -1.672085
v -0.041290 4.672019 -1.672085
v 8.000900 4.672014 1.887459
v -0.041290 4.672018 1.887461
v 8.000900 4.672014 1.672089
v -0.041290 4.672018 1.672091
v 8.000900 4.672015 -1.887455
v -0.041290 4.672019 -1.887457
v -3.956910 4.672019 -1.672085
v -11.999098 4.672015 -1.672083
vt 0.179688 0.882812
vt 0.179688 0.882812
vt 0.179688 0.882812
vt 0.179688 0.882812
vt 0.179688 0.882812
vt 0.179688 0.882812
vt 0.179688 0.882812
vt 0.179688 0.882812
vt 0.179688 0.882812
vt 0.179688 0.882812
vt 0.179688 0.882812
vt 0.179688 0.882812
vt 0.179688 0.882812
vt 0.179688 0.882812
vt 0.179688 0.882812
vt 0.179688 0.882812
vt 0.179688 0.882812
vt 0.179688 0.882812
vt 0.179688 0.882812
vt 0.179688 0.882812
vt 0.179688 0.882812
vt 0.179688 0.882812
vt 0.179688 0.882812
vt 0.179688 0.882812
vt 0.179688 0.882812
vt 0.179688 0.882812
vt 0.179688 0.882812
vt 0.179688 0.882812
vt 0.179688 0.882812
vt 0.179688 0.882812
vt 0.179688 0.882812
vt 0.179688 0.882812
vt 0.179688 0.882812
vt 0.179688 0.882812
vt 0.179688 0.882812
vt 0.179688 0.882812
vt 0.179688 0.882812
vt 0.179688 0.882812
vt 0.179688 0.882812
vt 0.179688 0.882812
vn 0.0000 1.0000 -0.0000
s 1
f 1/1/1 2/2/1 3/3/1 4/4/1
f 16/5/1 14/6/1 13/7/1 15/8/1
f 10/9/1 9/10/1 18/11/1 19/12/1
f 20/13/1 8/14/1 7/15/1 21/16/1
f 12/17/1 11/18/1 24/19/1 23/20/1
f 17/21/1 2/2/1 27/22/1 28/23/1
f 22/24/1 3/3/1 2/2/1 17/21/1
f 5/25/1 6/26/1 22/24/1 17/21/1
f 26/27/1 25/28/1 3/3/1 22/24/1
f 36/29/1 34/30/1 33/31/1 35/32/1
f 32/33/1 31/34/1 37/35/1 38/36/1
f 39/37/1 30/38/1 29/39/1 40/40/1
