# Blender v2.83.4 OBJ File: 'decos.blend'
# www.blender.org
o IndustrialCatWalk_PipeStraightTillable_Cube.001_IndustrialC.062
v 0.000000 4.253036 2.000001
v 0.000000 4.253036 -1.999993
v 0.000000 4.672019 -1.717761
v -39.999271 4.672019 -1.717757
v 0.000000 4.672019 -1.939019
v -39.999271 4.672019 -1.939015
v 0.000000 4.672018 1.939025
v -39.999271 4.672018 1.939029
v 0.000000 4.672018 1.717769
v -39.999271 4.672018 1.717773
v -39.999271 4.253036 2.000007
v -39.999271 4.253036 -1.999989
vt 0.257812 0.804688
vt 0.257812 0.804688
vt 0.257812 0.804688
vt 0.257812 0.804688
vt 0.257812 0.804688
vt 0.257812 0.804688
vt 0.257812 0.804688
vt 0.257812 0.804688
vt 0.257812 0.804688
vt 0.257812 0.804688
vt 0.257812 0.804688
vt 0.257812 0.804688
vn 0.0000 1.0000 0.0000
s 1
f 3/1/1 5/2/1 6/3/1 4/4/1
f 10/5/1 8/6/1 7/7/1 9/8/1
f 1/9/1 2/10/1 12/11/1 11/12/1
