# Blender v2.83.4 OBJ File: 'decos.blend'
# www.blender.org
o IndustrialCatWalk_PipeStraightTillable_Cube.001_IndustrialC.065
v -3.999996 4.253023 20.268305
v -0.000004 4.253020 20.268305
v -0.282234 4.671999 20.268305
v -0.282238 4.672029 -19.730965
v -0.060978 4.671999 20.268305
v -0.060980 4.672029 -19.730965
v -3.939020 4.672003 20.268305
v -3.939022 4.672018 1.958695
v -3.717766 4.672003 20.268305
v -3.717768 4.672018 1.958695
v -4.000002 4.253053 -19.730965
v -0.000006 4.253052 -19.730965
v -3.939024 4.672033 -19.730965
v -3.717768 4.672033 -19.730965
v -3.939022 4.672019 -1.957987
v -3.717768 4.672019 -1.957987
vt 0.257812 0.804688
vt 0.257812 0.804688
vt 0.257812 0.804688
vt 0.257812 0.804688
vt 0.257812 0.804688
vt 0.257812 0.804688
vt 0.257812 0.804688
vt 0.257812 0.804688
vt 0.257812 0.804688
vt 0.257812 0.804688
vt 0.257812 0.804688
vt 0.257812 0.804688
vt 0.257812 0.804688
vt 0.257812 0.804688
vt 0.257812 0.804688
vt 0.257812 0.804688
vn 0.0000 1.0000 0.0000
s 1
f 3/1/1 5/2/1 6/3/1 4/4/1
f 10/5/1 8/6/1 7/7/1 9/8/1
f 1/9/1 2/10/1 12/11/1 11/12/1
f 14/13/1 13/14/1 15/15/1 16/16/1
