# Blender v2.83.4 OBJ File: 'decos.blend'
# www.blender.org
o IndustrialCatWalk_PipeStraightTillable_Cube.001_IndustrialC.059
v 0.000000 4.253036 2.000001
v 0.000000 4.253036 -1.999993
v -3.911493 4.672019 -1.717761
v -39.999271 4.672019 -1.717757
v -3.911493 4.672019 -1.939019
v -39.999271 4.672019 -1.939015
v -0.254705 4.672015 1.939025
v -39.999271 4.672018 1.939029
v -39.999271 4.672018 1.717773
v -0.475047 4.672017 1.718494
v -39.999271 4.253036 2.000007
v -39.999271 4.253036 -1.999989
v -0.475964 4.672017 -1.882857
v -0.254705 4.672017 -1.882857
vt 0.179688 0.882812
vt 0.179688 0.882812
vt 0.179688 0.882812
vt 0.179688 0.882812
vt 0.179688 0.882812
vt 0.179688 0.882812
vt 0.179688 0.882812
vt 0.179688 0.882812
vt 0.179688 0.882812
vt 0.179688 0.882812
vt 0.179688 0.882812
vt 0.179688 0.882812
vt 0.179688 0.882812
vt 0.179688 0.882812
vn 0.0000 1.0000 0.0000
s 1
f 3/1/1 5/2/1 6/3/1 4/4/1
f 9/5/1 8/6/1 7/7/1 10/8/1
f 1/9/1 2/10/1 12/11/1 11/12/1
f 14/13/1 13/14/1 10/8/1 7/7/1
