# Blender v2.90.0 Alpha OBJ File: 'Decos.blend'
# www.blender.org
o Cylinder.004
v -1.006408 -0.460152 2.434398
v -0.833486 2.719815 2.363085
v -0.935090 2.719815 2.607316
v -1.077722 2.719815 2.261481
v -1.179324 2.719815 2.505713
v -4.451864 -0.460148 1.001056
v -4.380548 2.719816 1.173976
v -4.624780 2.719816 1.072372
v -4.278944 2.719816 0.929742
v -4.523178 2.719816 0.828138
v -3.025990 -0.460148 2.431304
v -3.198688 2.719815 2.359461
v -2.954144 2.719815 2.258605
v -3.097832 2.719815 2.604004
v -2.853288 2.719815 2.503150
v -3.018522 -0.460150 -2.444398
v -3.191442 2.719816 -2.373081
v -3.089834 2.719816 -2.617317
v -2.947208 2.719816 -2.271480
v -2.845600 2.719816 -2.515713
v 0.426934 -0.460152 -1.011056
v 0.355618 2.719816 -1.183976
v 0.599852 2.719816 -1.082371
v 0.254016 2.719816 -0.939742
v 0.498250 2.719816 -0.838138
v -0.998940 -0.460152 -2.441304
v -0.826240 2.719816 -2.369460
v -1.070784 2.719816 -2.268605
v -0.927094 2.719816 -2.614003
v -1.171638 2.719816 -2.513148
v 0.423840 -0.460152 1.008526
v 0.495684 2.719816 0.835826
v 0.596542 2.719816 1.080370
v 0.251142 2.719816 0.936680
v 0.351998 2.719816 1.181226
v -4.448770 -0.460148 -1.018526
v -4.520612 2.719816 -0.845826
v -4.621466 2.719816 -1.090370
v -4.276068 2.719816 -0.946682
v -4.376926 2.719816 -1.191226
v -2.012462 3.541648 -0.004999
v 1.264066 2.859342 -1.356305
v -0.651126 2.859343 -3.277371
v -0.661156 2.859342 3.271528
v 1.259908 2.859342 1.356339
v -5.288994 2.859344 1.346308
v -3.373800 2.859342 3.267372
v -3.363772 2.859343 -3.281529
v -5.284834 2.859344 -1.366338
vt 0.179688 0.804688
vt 0.179688 0.804688
vt 0.179688 0.804688
vt 0.179688 0.804688
vt 0.179688 0.804688
vt 0.179688 0.804688
vt 0.179688 0.804688
vt 0.179688 0.804688
vt 0.179688 0.804688
vt 0.179688 0.804688
vt 0.179688 0.804688
vt 0.179688 0.804688
vt 0.179688 0.804688
vt 0.179688 0.804688
vt 0.179688 0.804688
vt 0.179688 0.804688
vt 0.179688 0.804688
vt 0.179688 0.804688
vt 0.179688 0.804688
vt 0.179688 0.804688
vt 0.179688 0.804688
vt 0.179688 0.804688
vt 0.179688 0.804688
vt 0.179688 0.804688
vt 0.179688 0.804688
vt 0.179688 0.804688
vt 0.179688 0.804688
vt 0.179688 0.804688
vt 0.179688 0.804688
vt 0.179688 0.804688
vt 0.179688 0.804688
vt 0.179688 0.804688
vt 0.179688 0.804688
vt 0.179688 0.804688
vt 0.179688 0.804688
vt 0.179688 0.804688
vt 0.179688 0.804688
vt 0.179688 0.804688
vt 0.179688 0.804688
vt 0.179688 0.804688
vt 0.226562 0.882813
vt 0.226562 0.882812
vt 0.226562 0.882812
vt 0.226562 0.882812
vt 0.226562 0.882812
vt 0.226562 0.882813
vt 0.226562 0.882812
vt 0.226562 0.882812
vt 0.226562 0.882812
vn 0.9233 -0.0000 0.3841
vn 0.3841 -0.0000 -0.9233
vn -0.3841 -0.0000 0.9233
vn -0.9233 -0.0000 -0.3841
vn -0.3813 -0.0000 -0.9245
vn -0.9245 -0.0000 0.3813
vn 0.9245 -0.0000 -0.3813
vn 0.3813 -0.0000 0.9245
vn -0.1592 0.9664 0.2016
vn 0.4338 0.8831 -0.1789
vn 0.1802 0.8831 -0.4332
vn 0.1789 0.8831 0.4338
vn 0.4332 0.8831 0.1802
vn -0.4338 0.8831 0.1789
vn -0.1802 0.8831 0.4332
vn -0.1789 0.8831 -0.4338
vn -0.4332 0.8831 -0.1802
s 1
f 1/1/1 2/2/1 3/3/1
f 1/1/2 4/4/2 2/2/2
f 1/1/3 3/3/3 5/5/3
f 6/6/3 7/7/3 8/8/3
f 6/6/1 9/9/1 7/7/1
f 6/6/4 8/8/4 10/10/4
f 6/6/2 10/10/2 9/9/2
f 11/11/5 12/12/5 13/13/5
f 11/11/6 14/14/6 12/12/6
f 11/11/7 13/13/7 15/15/7
f 11/11/8 15/15/8 14/14/8
f 1/1/4 5/5/4 4/4/4
f 16/16/4 17/17/4 18/18/4
f 16/16/3 19/19/3 17/17/3
f 16/16/2 18/18/2 20/20/2
f 21/21/2 22/22/2 23/23/2
f 21/21/4 24/24/4 22/22/4
f 21/21/1 23/23/1 25/25/1
f 21/21/3 25/25/3 24/24/3
f 26/26/8 27/27/8 28/28/8
f 26/26/7 29/29/7 27/27/7
f 26/26/6 28/28/6 30/30/6
f 26/26/5 30/30/5 29/29/5
f 16/16/1 20/20/1 19/19/1
f 31/31/7 32/32/7 33/33/7
f 31/31/5 34/34/5 32/32/5
f 31/31/8 33/33/8 35/35/8
f 31/31/6 35/35/6 34/34/6
f 36/36/6 37/37/6 38/38/6
f 36/36/8 39/39/8 37/37/8
f 36/36/5 38/38/5 40/40/5
f 36/36/7 40/40/7 39/39/7
f 41/41/9 42/42/10 43/43/11
f 41/41/9 44/44/12 45/45/13
f 41/41/9 46/46/14 47/47/15
f 41/41/9 43/43/11 48/48/16
f 41/41/9 45/45/13 42/42/10
f 41/41/9 47/47/15 44/44/12
f 41/41/9 48/48/16 49/49/17
f 41/41/9 49/49/17 46/46/14
