# Blender v2.83.4 OBJ File: 'decos.blend'
# www.blender.org
o IndustrialCatWalk_PipeStraightTillable_Cube.001_IndustrialC.078
v -3.999996 4.253025 10.099198
v -0.000004 4.253024 10.099198
v -0.282238 4.672006 10.099198
v -0.282236 4.672018 1.958695
v -0.282236 4.672030 -10.000216
v -0.060980 4.672030 -10.000216
v -3.939020 4.672006 10.099198
v -3.939022 4.672018 1.958695
v -3.717766 4.672006 10.099198
v -3.717768 4.672018 1.958695
v -4.000002 4.253049 -10.000216
v -0.000006 4.253048 -10.000216
v -0.060984 4.672006 10.099198
v -0.060982 4.672018 1.958695
v -3.939024 4.672030 -10.000216
v -3.717768 4.672030 -10.000216
v -3.939022 4.672019 -1.957987
v -3.717768 4.672019 -1.957987
v -0.060982 4.672019 -1.957987
v -0.282236 4.672019 -1.957987
vt 0.179688 0.882812
vt 0.179688 0.882812
vt 0.179688 0.882812
vt 0.179688 0.882812
vt 0.179688 0.882812
vt 0.179688 0.882812
vt 0.179688 0.882812
vt 0.179688 0.882812
vt 0.179688 0.882812
vt 0.179688 0.882812
vt 0.179688 0.882812
vt 0.179688 0.882812
vt 0.179688 0.882812
vt 0.179688 0.882812
vt 0.179688 0.882812
vt 0.179688 0.882812
vt 0.179688 0.882812
vt 0.179688 0.882812
vt 0.179688 0.882812
vt 0.179688 0.882812
vn 0.0000 1.0000 0.0000
s 1
f 10/1/1 8/2/1 7/3/1 9/4/1
f 1/5/1 2/6/1 12/7/1 11/8/1
f 4/9/1 3/10/1 13/11/1 14/12/1
f 16/13/1 15/14/1 17/15/1 18/16/1
f 5/17/1 20/18/1 19/19/1 6/20/1
