# Blender v2.83.4 OBJ File: 'decos.blend'
# www.blender.org
o IndustrialCatWalk_PipeStraightTillable_Cube.001_IndustrialC.008
v 0.000000 4.253036 -2.000000
v 0.000000 4.253036 1.999994
v -39.999271 4.672018 1.717758
v -3.911493 4.672018 1.717762
v -39.999271 4.672018 1.939016
v -3.911493 4.672018 1.939020
v -39.999271 4.672019 -1.939028
v -0.254705 4.672016 -1.939024
v -39.999271 4.672019 -1.717772
v -0.475047 4.672018 -1.718493
v -39.999271 4.253036 -2.000006
v -39.999271 4.253036 1.999990
v -0.475964 4.672016 1.882858
v -0.254705 4.672016 1.882858
vt 0.179688 0.882812
vt 0.179688 0.882812
vt 0.179688 0.882812
vt 0.179688 0.882812
vt 0.179688 0.882812
vt 0.179688 0.882812
vt 0.179688 0.882812
vt 0.179688 0.882812
vt 0.179688 0.882812
vt 0.179688 0.882812
vt 0.179688 0.882812
vt 0.179688 0.882812
vt 0.179688 0.882812
vt 0.179688 0.882812
vn 0.0000 1.0000 0.0000
s 1
f 4/1/1 3/2/1 5/3/1 6/4/1
f 9/5/1 10/6/1 8/7/1 7/8/1
f 1/9/1 11/10/1 12/11/1 2/12/1
f 14/13/1 8/7/1 10/6/1 13/14/1
