# Blender v2.83.4 OBJ File: 'decos.blend'
# www.blender.org
o Cube.002_Cube.001_Cube.002_Cube.001
v 0.000362 11.854986 -4.051696
v 0.062344 11.854986 -3.989716
v 0.062344 10.152060 -3.989716
v 0.000362 10.152060 -4.051697
v -0.061619 11.854986 -3.989716
v -0.061619 10.152060 -3.989716
v 0.000362 11.854986 -3.927736
v 0.000362 10.152060 -3.927736
v 0.000362 11.854984 4.051700
v 0.000362 10.152058 4.051700
v 0.062344 10.152058 3.989720
v 0.062344 11.854984 3.989720
v -0.061619 11.854984 3.989720
v -0.061619 10.152058 3.989720
v 0.000362 10.152058 3.927740
v 0.000362 11.854984 3.927740
v 0.111626 11.634410 -4.811551
v 0.111626 12.365537 -2.327099
v 0.000362 12.254273 -2.327099
v 0.000362 11.523148 -4.811551
v -0.110901 12.365537 -2.327099
v -0.110901 11.634410 -4.811551
v 0.000362 12.476798 -2.327099
v 0.000362 12.710136 0.000002
v 0.111626 12.598874 0.000002
v 0.000362 11.745672 -4.811551
v -0.110901 9.935707 -4.811552
v -0.110901 10.666834 -2.327099
v 0.000362 10.778095 -2.327099
v 0.000362 10.046969 -4.811552
v 0.000362 12.487612 0.000002
v -0.110901 12.598874 0.000002
v 0.111626 9.935707 -4.811552
v 0.111626 10.666834 -2.327099
v 0.000362 10.555571 -2.327099
v 0.000362 9.824445 -4.811552
v 0.000362 11.011434 0.000002
v 0.111626 10.900171 0.000002
v 0.000362 10.788909 0.000002
v -0.110901 10.900171 0.000002
v 0.000362 12.412204 -4.570289
v -0.054440 12.485153 -4.632510
v -0.100002 12.485153 -4.678073
v -0.162224 12.412204 -4.732876
v 0.000362 13.562654 -4.136642
v 0.055012 13.510553 -4.140231
v 0.593006 13.510553 -4.678226
v 0.596596 13.562654 -4.732874
v 0.173885 13.725533 -4.732876
v 0.000362 13.725533 -4.559354
v 0.000362 12.412204 -4.895463
v 0.055164 12.485153 -4.833241
v 0.100727 12.485153 -4.787678
v 0.162949 12.412204 -4.732876
v -0.100002 12.485153 -4.787678
v -0.054440 12.485153 -4.833241
v 0.000362 13.978338 -4.732874
v 0.000362 4.475143 -4.640970
v -0.091549 4.475143 -4.732881
v -0.595871 13.562654 -4.732874
v -0.592281 13.510553 -4.678226
v -0.054287 13.510553 -4.140231
v -0.173161 13.725533 -4.732876
v 0.593006 13.510553 -4.787524
v 0.055012 13.510553 -5.325519
v 0.000362 13.562654 -5.329108
v 0.000362 13.725533 -4.906396
v -0.054287 13.510553 -5.325519
v -0.592281 13.510553 -4.787524
v 0.055164 12.485153 -4.632510
v 0.100727 12.485153 -4.678073
v -0.381523 12.865622 -4.678156
v -0.381523 12.865622 -4.787595
v 0.055080 12.865622 -5.114763
v -0.054356 12.865622 -5.114763
v 0.382248 12.865622 -4.678156
v 0.382248 12.865622 -4.787595
v 0.055080 12.865622 -4.350988
v -0.054356 12.865622 -4.350988
v 0.092274 4.475143 -4.732881
v 0.000362 4.475143 -4.824791
v -0.078732 4.565776 -4.732881
v 0.000362 4.565776 -4.811974
v 0.000362 4.459705 -4.940827
v -0.207584 4.459705 -4.732880
v 0.079456 4.565776 -4.732881
v 0.000362 4.565776 -4.653787
v 0.000362 4.459705 -4.524933
v 0.208309 4.459705 -4.732880
v 0.000362 4.003030 -4.524933
v 0.208309 4.003030 -4.732881
v 0.000362 4.003030 -4.940827
v -0.207584 4.003030 -4.732881
v 0.111626 11.634408 4.811555
v 0.000362 11.523146 4.811555
v 0.000362 12.254273 2.327103
v 0.111626 12.365537 2.327103
v -0.110901 11.634408 4.811555
v -0.110901 12.365537 2.327103
v 0.000362 12.476798 2.327103
v 0.000362 11.745670 4.811555
v -0.110901 9.935705 4.811554
v 0.000362 10.046968 4.811554
v 0.000362 10.778095 2.327103
v -0.110901 10.666834 2.327103
v 0.111626 9.935705 4.811554
v 0.000362 9.824443 4.811554
v 0.000362 10.555571 2.327103
v 0.111626 10.666834 2.327103
v 0.000362 12.412202 4.570293
v -0.162224 12.412202 4.732880
v -0.100002 12.485151 4.678077
v -0.054440 12.485151 4.632514
v 0.000362 13.562653 4.136646
v 0.000362 13.725531 4.559359
v 0.173885 13.725531 4.732881
v 0.596596 13.562653 4.732879
v 0.593006 13.510551 4.678230
v 0.055012 13.510551 4.140235
v 0.000362 12.412202 4.895467
v 0.162949 12.412202 4.732880
v 0.100727 12.485151 4.787682
v 0.055164 12.485151 4.833245
v -0.054440 12.485151 4.833245
v -0.100002 12.485151 4.787682
v 0.000362 13.978336 4.732879
v 0.000362 4.475141 4.640972
v -0.091549 4.475141 4.732883
v -0.595871 13.562653 4.732879
v -0.173161 13.725531 4.732881
v -0.054287 13.510551 4.140235
v -0.592281 13.510551 4.678230
v 0.000362 13.725531 4.906401
v 0.000362 13.562653 5.329113
v 0.055012 13.510551 5.325523
v 0.593006 13.510551 4.787529
v -0.592281 13.510551 4.787529
v -0.054287 13.510551 5.325523
v 0.055164 12.485151 4.632514
v 0.100727 12.485151 4.678077
v -0.381523 12.865620 4.787599
v -0.381523 12.865620 4.678160
v 0.055080 12.865620 5.114767
v -0.054356 12.865620 5.114767
v 0.382248 12.865620 4.678160
v 0.382248 12.865620 4.787599
v -0.054356 12.865620 4.350992
v 0.055080 12.865620 4.350992
v 0.092274 4.475141 4.732883
v 0.000362 4.475141 4.824793
v -0.078732 4.565774 4.732883
v -0.207584 4.459703 4.732882
v 0.000362 4.459703 4.940829
v 0.000362 4.565774 4.811976
v 0.079456 4.565774 4.732883
v 0.208309 4.459703 4.732882
v 0.000362 4.459703 4.524935
v 0.000362 4.565774 4.653789
v 0.208309 4.003028 4.732882
v 0.000362 4.003028 4.524934
v 0.000362 4.003028 4.940828
v -0.207584 4.003028 4.732882
vt 0.195312 0.835938
vt 0.195312 0.835938
vt 0.195312 0.835938
vt 0.195312 0.835938
vt 0.195312 0.835938
vt 0.195312 0.835938
vt 0.195312 0.835938
vt 0.195312 0.835938
vt 0.195312 0.835938
vt 0.195312 0.835938
vt 0.195312 0.835938
vt 0.195312 0.835938
vt 0.195312 0.835938
vt 0.195312 0.835938
vt 0.195312 0.835938
vt 0.195312 0.835938
vt 0.195312 0.835938
vt 0.195312 0.835938
vt 0.195312 0.835938
vt 0.195312 0.835938
vt 0.195312 0.835938
vt 0.195312 0.835938
vt 0.195312 0.835938
vt 0.195312 0.835938
vt 0.195312 0.835938
vt 0.195312 0.835938
vt 0.195312 0.835938
vt 0.195312 0.835938
vt 0.195312 0.835938
vt 0.195312 0.835938
vt 0.195312 0.835938
vt 0.195312 0.835938
vt 0.195312 0.835938
vt 0.195312 0.835938
vt 0.195312 0.835938
vt 0.195312 0.835938
vt 0.195312 0.835938
vt 0.195312 0.835938
vt 0.195312 0.835938
vt 0.195312 0.835938
vt 0.195312 0.835938
vt 0.195312 0.835938
vt 0.195312 0.835938
vt 0.195312 0.835938
vt 0.195312 0.835938
vt 0.195312 0.835938
vt 0.195312 0.835938
vt 0.195312 0.835938
vt 0.195312 0.835938
vt 0.195312 0.835938
vt 0.195312 0.835938
vt 0.195312 0.835938
vt 0.195312 0.835938
vt 0.195312 0.835938
vt 0.195312 0.835938
vt 0.195312 0.835938
vt 0.195312 0.835938
vt 0.195312 0.835938
vt 0.195312 0.835938
vt 0.195312 0.835938
vt 0.195312 0.835938
vt 0.195312 0.835938
vt 0.195312 0.835938
vt 0.195312 0.835938
vt 0.195312 0.835938
vt 0.195312 0.835938
vt 0.195312 0.835938
vt 0.195312 0.835938
vt 0.195312 0.835938
vt 0.195312 0.835938
vt 0.195312 0.835938
vt 0.195312 0.835938
vt 0.195312 0.835938
vt 0.195312 0.835938
vt 0.195312 0.835938
vt 0.195312 0.835938
vt 0.195312 0.835938
vt 0.195312 0.835938
vt 0.195312 0.835938
vt 0.195312 0.835938
vt 0.195312 0.835938
vt 0.039062 0.742188
vt 0.039062 0.742188
vt 0.039062 0.742188
vt 0.039062 0.742188
vt 0.039062 0.742188
vt 0.039062 0.742188
vt 0.039062 0.742188
vt 0.039062 0.742188
vt 0.039062 0.742188
vt 0.039062 0.742188
vt 0.039062 0.742188
vt 0.039062 0.742188
vt 0.039062 0.742188
vt 0.039062 0.742188
vt 0.039062 0.742188
vt 0.039062 0.742188
vt 0.039062 0.742188
vt 0.039062 0.742188
vt 0.039062 0.742188
vt 0.039062 0.742188
vt 0.039062 0.742188
vt 0.039062 0.742188
vt 0.039062 0.742188
vt 0.039062 0.742188
vt 0.195312 0.835938
vt 0.195312 0.835938
vt 0.195312 0.835938
vt 0.195312 0.835938
vt 0.195312 0.835938
vt 0.195312 0.835938
vt 0.195312 0.835938
vt 0.195312 0.835938
vt 0.195312 0.835938
vt 0.195312 0.835938
vt 0.195312 0.835938
vt 0.195312 0.835938
vt 0.195312 0.835938
vt 0.195312 0.835938
vt 0.195312 0.835938
vt 0.195312 0.835938
vt 0.195312 0.835938
vt 0.195312 0.835938
vt 0.195312 0.835938
vt 0.195312 0.835938
vt 0.195312 0.835938
vt 0.195312 0.835938
vt 0.195312 0.835938
vt 0.195312 0.835938
vt 0.195312 0.835938
vt 0.195312 0.835938
vt 0.195312 0.835938
vt 0.195312 0.835938
vt 0.195312 0.835938
vt 0.195312 0.835938
vt 0.195312 0.835938
vt 0.195312 0.835938
vt 0.195312 0.835938
vt 0.195312 0.835938
vt 0.195312 0.835938
vt 0.195312 0.835938
vt 0.195312 0.835938
vt 0.195312 0.835938
vt 0.195312 0.835938
vt 0.195312 0.835938
vt 0.195312 0.835938
vt 0.195312 0.835938
vt 0.195312 0.835938
vt 0.195312 0.835938
vt 0.195312 0.835938
vt 0.195312 0.835938
vt 0.195312 0.835938
vt 0.195312 0.835938
vt 0.195312 0.835938
vt 0.195312 0.835938
vt 0.195312 0.835938
vt 0.195312 0.835938
vt 0.195312 0.835938
vt 0.195312 0.835938
vt 0.195312 0.835938
vt 0.195312 0.835938
vt 0.195312 0.835938
vt 0.195312 0.835938
vt 0.195312 0.835938
vt 0.195312 0.835938
vt 0.195312 0.835938
vt 0.195312 0.835938
vt 0.195312 0.835938
vt 0.195312 0.835938
vt 0.195312 0.835938
vt 0.195312 0.835938
vt 0.195312 0.835938
vt 0.195312 0.835938
vt 0.195312 0.835938
vt 0.039062 0.742188
vt 0.039062 0.742188
vt 0.039062 0.742188
vt 0.039062 0.742188
vt 0.039062 0.742188
vt 0.039062 0.742188
vt 0.039062 0.742188
vt 0.039062 0.742188
vt 0.039062 0.742188
vt 0.039062 0.742188
vt 0.039062 0.742188
vt 0.039062 0.742188
vt 0.039062 0.742188
vt 0.039062 0.742188
vt 0.039062 0.742188
vt 0.039062 0.742188
vt 0.039062 0.742188
vt 0.039062 0.742188
vt 0.039062 0.742188
vt 0.039062 0.742188
vt 0.039062 0.742188
vt 0.039062 0.742188
vt 0.039062 0.742188
vt 0.039062 0.742188
vt 0.195312 0.835938
vt 0.195312 0.835938
vt 0.195312 0.835938
vt 0.195312 0.835938
vt 0.195312 0.835938
vt 0.195312 0.835938
vt 0.195312 0.835938
vt 0.195312 0.835938
vt 0.195312 0.835938
vt 0.195312 0.835938
vt 0.195312 0.835938
vt 0.195312 0.835938
vn 0.7071 0.0000 -0.7071
vn -0.7071 0.0000 -0.7071
vn 0.7071 -0.0000 0.7071
vn -0.7071 -0.0000 0.7071
vn 0.9912 -0.1268 0.0373
vn 0.9990 0.0407 -0.0164
vn 0.0000 -0.9797 0.2003
vn 0.0000 -0.9593 0.2823
vn -0.9990 0.0407 -0.0164
vn -0.9912 -0.1268 0.0373
vn 0.0000 0.9828 -0.1844
vn 0.0000 0.9950 -0.0998
vn 0.9990 0.0449 -0.0045
vn 0.0000 0.9593 -0.2823
vn -0.0000 -0.9950 0.0998
vn -0.9990 0.0449 -0.0045
vn 0.0000 0.1851 0.9827
vn -0.4122 -0.0190 0.9109
vn -0.9109 -0.0190 0.4122
vn -0.9827 0.1851 -0.0000
vn 0.0000 0.6825 0.7309
vn 0.2475 0.3576 0.9005
vn 0.9005 0.3576 0.2475
vn 0.7309 0.6825 0.0000
vn 0.5662 0.8242 -0.0000
vn 0.0000 0.8242 0.5662
vn 0.0000 0.1852 -0.9827
vn 0.4122 -0.0189 -0.9109
vn 0.9109 -0.0189 -0.4122
vn 0.9827 0.1851 -0.0000
vn -0.9109 -0.0189 -0.4122
vn -0.4122 -0.0189 -0.9109
vn 0.0000 1.0000 0.0000
vn 0.0000 -0.0089 1.0000
vn -1.0000 -0.0089 -0.0000
vn -0.7309 0.6825 0.0000
vn -0.9005 0.3576 0.2475
vn -0.2475 0.3576 0.9005
vn -0.5662 0.8242 -0.0000
vn 0.9005 0.3576 -0.2475
vn 0.2475 0.3576 -0.9005
vn 0.0000 0.6825 -0.7309
vn 0.0000 0.8242 -0.5662
vn -0.2475 0.3576 -0.9005
vn -0.9005 0.3576 -0.2475
vn 0.4122 -0.0190 0.9109
vn 0.9109 -0.0190 0.4122
vn -0.8886 -0.4586 0.0000
vn 0.0000 -0.4586 -0.8886
vn 0.8886 -0.4586 0.0000
vn 0.0000 -0.4586 0.8886
vn 1.0000 -0.0089 -0.0000
vn 0.0000 -0.0089 -1.0000
vn 0.4935 -0.2113 0.8437
vn 0.8437 -0.2113 0.4935
vn 0.8387 -0.4195 0.3472
vn 0.3472 -0.4195 0.8387
vn -0.4935 -0.2113 -0.8437
vn -0.8437 -0.2113 -0.4935
vn -0.8387 -0.4195 -0.3472
vn -0.3472 -0.4195 -0.8387
vn -0.8387 -0.4195 0.3472
vn -0.3472 -0.4195 0.8387
vn -0.4397 0.0765 0.8949
vn -0.8949 0.0765 0.4397
vn 0.8437 -0.2113 -0.4935
vn 0.4935 -0.2113 -0.8437
vn 0.3472 -0.4195 -0.8387
vn 0.8387 -0.4195 -0.3472
vn -0.8437 -0.2113 0.4935
vn -0.4935 -0.2113 0.8437
vn -0.8949 0.0765 -0.4397
vn -0.4397 0.0765 -0.8949
vn 0.8949 0.0765 0.4397
vn 0.4397 0.0765 0.8949
vn 0.4397 0.0765 -0.8949
vn 0.8949 0.0765 -0.4397
vn -0.6356 0.7721 -0.0000
vn 0.0000 0.7721 -0.6356
vn 0.0000 0.3664 -0.9305
vn -0.9304 0.3664 0.0000
vn 0.6356 0.7721 -0.0000
vn 0.0000 0.7721 0.6355
vn 0.0000 0.3664 0.9304
vn 0.9304 0.3664 0.0000
vn 0.0000 -0.0000 1.0000
vn 1.0000 0.0000 -0.0000
vn 0.0000 0.0000 -1.0000
vn -1.0000 0.0000 -0.0000
vn 0.9912 -0.1268 -0.0373
vn 0.0000 -0.9593 -0.2823
vn 0.0000 -0.9797 -0.2003
vn 0.9990 0.0407 0.0164
vn -0.9912 -0.1268 -0.0373
vn -0.9990 0.0407 0.0164
vn 0.9990 0.0449 0.0045
vn 0.0000 0.9950 0.0998
vn 0.0000 0.9828 0.1844
vn 0.0000 0.9593 0.2823
vn 0.0000 -0.9950 -0.0998
vn -0.9990 0.0449 0.0045
vn 0.0000 0.1851 -0.9827
vn -0.9109 -0.0190 -0.4122
vn -0.4122 -0.0190 -0.9109
vn 0.9109 -0.0189 0.4122
vn 0.4122 -0.0189 0.9109
vn -0.4122 -0.0189 0.9109
vn -0.9109 -0.0189 0.4122
vn 0.4122 -0.0190 -0.9109
vn 0.9109 -0.0190 -0.4122
vn 0.0000 0.3664 0.9305
vn 0.0000 0.7721 0.6356
vn 0.0000 0.3664 -0.9304
vn 0.0000 0.7721 -0.6355
s off
f 1/1/1 2/2/1 3/3/1 4/4/1
f 5/5/2 1/1/2 4/4/2 6/6/2
f 2/2/3 7/7/3 8/8/3 3/3/3
f 7/7/4 5/5/4 6/6/4 8/8/4
f 9/9/3 10/10/3 11/11/3 12/12/3
f 13/13/4 14/14/4 10/10/4 9/9/4
f 12/12/1 11/11/1 15/15/1 16/16/1
f 16/16/2 15/15/2 14/14/2 13/13/2
s 1
f 17/17/5 18/18/6 19/19/7 20/20/8
f 20/20/8 19/19/7 21/21/9 22/22/10
f 18/18/6 23/23/11 24/24/12 25/25/13
f 26/26/14 23/23/11 18/18/6 17/17/5
f 27/27/10 28/28/9 29/29/11 30/30/14
f 19/19/7 18/18/6 25/25/13 31/31/15
f 23/23/11 21/21/9 32/32/16 24/24/12
f 21/21/9 19/19/7 31/31/15 32/32/16
f 33/33/5 34/34/6 35/35/7 36/36/8
f 36/36/8 35/35/7 28/28/9 27/27/10
f 34/34/6 29/29/11 37/37/12 38/38/13
f 30/30/14 29/29/11 34/34/6 33/33/5
f 35/35/7 34/34/6 38/38/13 39/39/15
f 29/29/11 28/28/9 40/40/16 37/37/12
f 28/28/9 35/35/7 39/39/15 40/40/16
f 41/41/17 42/42/18 43/43/19 44/44/20
f 45/45/21 46/46/22 47/47/23 48/48/24 49/49/25 50/50/26
f 51/51/27 52/52/28 53/53/29 54/54/30
f 44/44/20 55/55/31 56/56/32 51/51/27
f 50/50/26 49/49/25 57/57/33
f 58/58/34 41/41/17 44/44/20 59/59/35
f 60/60/36 61/61/37 62/62/38 45/45/21 50/50/26 63/63/39
f 48/48/24 64/64/40 65/65/41 66/66/42 67/67/43 49/49/25
f 67/67/43 63/63/39 57/57/33
f 49/49/25 67/67/43 57/57/33
f 63/63/39 50/50/26 57/57/33
f 66/66/42 68/68/44 69/69/45 60/60/36 63/63/39 67/67/43
f 70/70/46 42/42/18 41/41/17
f 43/43/19 55/55/31 44/44/20
f 53/53/29 71/71/47 54/54/30
f 56/56/32 52/52/28 51/51/27
f 65/65/41 68/68/44 66/66/42
f 62/62/38 46/46/22 45/45/21
f 47/47/23 64/64/40 48/48/24
f 69/69/45 61/61/37 60/60/36
f 43/43/19 72/72/48 73/73/48 55/55/31
f 74/74/49 52/52/28 56/56/32 75/75/49
f 76/76/50 71/71/47 53/53/29 77/77/50
f 70/70/46 78/78/51 79/79/51 42/42/18
f 47/47/23 76/76/50 77/77/50 64/64/40
f 69/69/45 73/73/48 72/72/48 61/61/37
f 75/75/49 68/68/44 65/65/41 74/74/49
f 78/78/51 46/46/22 62/62/38 79/79/51
f 54/54/30 71/71/47 70/70/46 41/41/17
f 80/80/52 54/54/30 41/41/17 58/58/34
f 81/81/53 51/51/27 54/54/30 80/80/52
f 59/59/35 44/44/20 51/51/27 81/81/53
f 70/82/54 71/83/55 76/84/56 78/85/57
f 56/86/58 55/87/59 73/88/60 75/89/61
f 72/90/62 79/91/63 62/92/64 61/93/65
f 53/94/66 52/95/67 74/96/68 77/97/69
f 43/98/70 42/99/71 79/91/63 72/90/62
f 75/89/61 73/88/60 69/100/72 68/101/73
f 78/85/57 76/84/56 47/102/74 46/103/75
f 77/97/69 74/96/68 65/104/76 64/105/77
f 82/106/78 83/107/79 84/108/80 85/109/81
f 86/110/82 87/111/83 88/112/84 89/113/85
f 83/107/79 86/110/82 89/113/85 84/108/80
f 87/111/83 82/106/78 85/109/81 88/112/84
f 89/113/85 88/112/84 90/114/86 91/115/87
f 84/108/80 89/113/85 91/115/87 92/116/88
f 88/112/84 85/109/81 93/117/89 90/114/86
f 85/109/81 84/108/80 92/116/88 93/117/89
f 22/22/10 21/21/9 23/23/11 26/26/14
f 94/118/90 95/119/91 96/120/92 97/121/93
f 95/119/91 98/122/94 99/123/95 96/120/92
f 97/121/93 25/25/96 24/24/97 100/124/98
f 101/125/99 94/118/90 97/121/93 100/124/98
f 102/126/94 103/127/99 104/128/98 105/129/95
f 31/31/88 32/32/88 24/24/88 25/25/88
f 96/120/92 31/31/100 25/25/96 97/121/93
f 100/124/98 24/24/97 32/32/101 99/123/95
f 99/123/95 32/32/101 31/31/100 96/120/92
f 106/130/90 107/131/91 108/132/92 109/133/93
f 107/131/91 102/126/94 105/129/95 108/132/92
f 109/133/93 38/38/96 37/37/97 104/128/98
f 103/127/99 106/130/90 109/133/93 104/128/98
f 39/39/88 40/40/88 37/37/88 38/38/88
f 108/132/92 39/39/100 38/38/96 109/133/93
f 104/128/98 37/37/97 40/40/101 105/129/95
f 105/129/95 40/40/101 39/39/100 108/132/92
f 110/134/102 111/135/20 112/136/103 113/137/104
f 114/138/42 115/139/43 116/140/25 117/141/24 118/142/40 119/143/41
f 120/144/17 121/145/30 122/146/105 123/147/106
f 111/135/20 120/144/17 124/148/107 125/149/108
f 115/139/43 126/150/33 116/140/25
f 127/151/53 128/152/35 111/135/20 110/134/102
f 129/153/36 130/154/39 115/139/43 114/138/42 131/155/44 132/156/45
f 117/141/24 116/140/25 133/157/26 134/158/21 135/159/22 136/160/23
f 133/157/26 126/150/33 130/154/39
f 116/140/25 126/150/33 133/157/26
f 130/154/39 126/150/33 115/139/43
f 134/158/21 133/157/26 130/154/39 129/153/36 137/161/37 138/162/38
f 139/163/109 110/134/102 113/137/104
f 112/136/103 111/135/20 125/149/108
f 122/146/105 121/145/30 140/164/110
f 124/148/107 120/144/17 123/147/106
f 135/159/22 134/158/21 138/162/38
f 131/155/44 114/138/42 119/143/41
f 118/142/40 117/141/24 136/160/23
f 137/161/37 129/153/36 132/156/45
f 112/136/103 125/149/108 141/165/48 142/166/48
f 143/167/51 144/168/51 124/148/107 123/147/106
f 145/169/50 146/170/50 122/146/105 140/164/110
f 139/163/109 113/137/104 147/171/49 148/172/49
f 118/142/40 136/160/23 146/170/50 145/169/50
f 137/161/37 132/156/45 142/166/48 141/165/48
f 144/168/51 143/167/51 135/159/22 138/162/38
f 148/172/49 147/171/49 131/155/44 119/143/41
f 121/145/30 110/134/102 139/163/109 140/164/110
f 149/173/52 127/151/53 110/134/102 121/145/30
f 150/174/34 149/173/52 121/145/30 120/144/17
f 128/152/35 150/174/34 120/144/17 111/135/20
f 139/175/67 148/176/68 145/177/69 140/178/66
f 124/179/71 144/180/63 141/181/62 125/182/70
f 142/183/60 132/184/72 131/185/73 147/186/61
f 122/187/55 146/188/56 143/189/57 123/190/54
f 112/191/59 142/183/60 147/186/61 113/192/58
f 144/180/63 138/193/64 137/194/65 141/181/62
f 148/176/68 119/195/76 118/196/77 145/177/69
f 146/188/56 136/197/74 135/198/75 143/189/57
f 151/199/78 152/200/81 153/201/111 154/202/112
f 155/203/82 156/204/85 157/205/113 158/206/114
f 154/202/112 153/201/111 156/204/85 155/203/82
f 158/206/114 157/205/113 152/200/81 151/199/78
f 156/204/85 159/207/87 160/208/88 157/205/113
f 153/201/111 161/209/86 159/207/87 156/204/85
f 157/205/113 160/208/88 162/210/89 152/200/81
f 152/200/81 162/210/89 161/209/86 153/201/111
f 98/122/94 101/125/99 100/124/98 99/123/95
