# Blender v2.91.0 Beta OBJ File: 'decos.blend'
# www.blender.org
o IndustrialCatWalk_PipeStraightTillable_Cube.001_IndustrialC.014
v 0.000000 4.000000 2.000004
v -39.999271 4.000000 2.000010
v -39.999271 3.999998 -1.999986
v 0.000000 3.999998 -1.999990
v 0.000000 4.253036 2.000004
v 0.000000 4.253036 -1.999990
v -3.723353 4.264144 -1.717760
v -3.723353 4.672019 -1.717758
v -39.999271 4.672019 -1.717754
v -39.999271 4.264144 -1.717756
v -3.723353 4.672019 -1.939016
v -39.999271 4.672019 -1.939012
v -3.723353 4.264144 -1.939016
v -39.999271 4.264148 1.939032
v -0.062153 4.264143 1.939028
v -0.062153 4.672015 1.939028
v -39.999271 4.672018 1.939032
v -39.999271 4.672018 1.717776
v -0.282495 4.672017 1.718497
v -39.999271 4.253036 2.000010
v -39.999271 4.253036 -1.999986
v -39.999271 4.264144 -1.939012
v -39.999271 4.264148 1.717776
v -0.282494 4.264143 1.718497
v -11.423864 4.047421 -1.485736
v -11.012884 4.047421 -1.893092
v -11.012884 -19.327980 -1.893116
v -11.423864 -19.327980 -1.485762
v -10.601906 4.047421 -1.485736
v -10.601908 -19.327980 -1.485762
v -11.012886 -19.327978 1.078360
v -11.423864 -19.327980 1.485716
v -11.423864 4.047420 1.485738
v -11.012884 4.047420 1.078382
v -10.601908 4.047420 1.485738
v -11.012884 4.047420 1.893094
v -11.012886 -19.327982 1.893070
v -10.601908 -19.327980 1.485716
v -11.012884 -19.327980 -1.078406
v -11.012884 4.047418 -1.078380
v -20.629787 4.047421 -1.485736
v -20.218807 4.047421 -1.893092
v -20.218807 -19.327980 -1.893116
v -20.629786 -19.327980 -1.485762
v -19.807831 4.047421 -1.485736
v -19.807831 -19.327980 -1.485762
v -20.218809 -19.327978 1.078360
v -20.629786 -19.327980 1.485716
v -20.629786 4.047420 1.485738
v -20.218809 4.047420 1.078382
v -19.807831 4.047420 1.485738
v -20.218809 4.047420 1.893094
v -20.218809 -19.327982 1.893070
v -19.807831 -19.327980 1.485716
v -20.218809 -19.327980 -1.078406
v -20.218809 4.047418 -1.078380
v -29.835711 4.047421 -1.485736
v -29.424732 4.047421 -1.893092
v -29.424732 -19.327980 -1.893116
v -29.835709 -19.327980 -1.485762
v -29.013752 4.047421 -1.485736
v -29.013754 -19.327980 -1.485762
v -29.424732 -19.327978 1.078360
v -29.835709 -19.327980 1.485716
v -29.835709 4.047420 1.485738
v -29.424732 4.047420 1.078382
v -29.013754 4.047420 1.485738
v -29.424732 4.047420 1.893094
v -29.424732 -19.327982 1.893070
v -29.013754 -19.327980 1.485716
v -29.424732 -19.327980 -1.078406
v -29.424732 4.047418 -1.078380
v 0.000222 -19.327978 1.078360
v -0.410756 -19.327980 1.485716
v -0.410756 4.047420 1.485738
v 0.000222 4.047420 1.078382
v 0.000222 -19.327982 1.893070
v 0.000222 4.047420 1.893094
v -39.999779 -19.327978 1.078360
v -39.999779 4.047420 1.078382
v -39.588802 4.047420 1.485738
v -39.588802 -19.327980 1.485716
v -39.999779 4.047420 1.893094
v -39.999779 -19.327982 1.893070
v 0.000221 -19.327978 -1.078382
v 0.000221 4.047420 -1.078363
v -0.410755 4.047421 -1.485719
v -0.410755 -19.327980 -1.485738
v 0.000221 4.047421 -1.893075
v 0.000221 -19.327982 -1.893092
v -39.999779 -19.327978 -1.078382
v -39.588802 -19.327980 -1.485738
v -39.588802 4.047421 -1.485719
v -39.999779 4.047420 -1.078363
v -39.999779 -19.327982 -1.893092
v -39.999779 4.047421 -1.893075
v -0.283412 4.672019 -1.986332
v -0.062153 4.672019 -1.986332
v -0.062153 4.264143 -1.986332
v -0.283410 4.264143 -1.986332
vt 0.148438 0.804688
vt 0.148438 0.804688
vt 0.148438 0.804688
vt 0.148438 0.804688
vt 0.148438 0.804688
vt 0.148438 0.804688
vt 0.148438 0.804688
vt 0.148438 0.804688
vt 0.148438 0.804688
vt 0.148438 0.804688
vt 0.257812 0.804688
vt 0.257812 0.804688
vt 0.257812 0.804688
vt 0.257812 0.804688
vt 0.148438 0.804688
vt 0.148438 0.804688
vt 0.148438 0.804688
vt 0.148438 0.804688
vt 0.148438 0.804688
vt 0.148438 0.804688
vt 0.257812 0.804688
vt 0.257812 0.804688
vt 0.257812 0.804688
vt 0.257812 0.804688
vt 0.148438 0.804688
vt 0.257812 0.804688
vt 0.257812 0.804688
vt 0.257812 0.804688
vt 0.257812 0.804688
vt 0.148438 0.804688
vt 0.148438 0.804688
vt 0.148438 0.804688
vt 0.148438 0.804688
vt 0.148438 0.804688
vt 0.148438 0.804688
vt 0.148438 0.804688
vt 0.148438 0.804688
vt 0.148438 0.804688
vt 0.148438 0.804688
vt 0.148438 0.804688
vt 0.148438 0.804688
vt 0.148438 0.804688
vt 0.148438 0.804688
vt 0.148438 0.804688
vt 0.148438 0.804688
vt 0.148438 0.804688
vt 0.148438 0.804688
vt 0.148438 0.804688
vt 0.148438 0.804688
vt 0.148438 0.804688
vt 0.148438 0.804688
vt 0.148438 0.804688
vt 0.148438 0.804688
vt 0.148438 0.804688
vt 0.148438 0.804688
vt 0.148438 0.804688
vt 0.148438 0.804688
vt 0.148438 0.804688
vt 0.148438 0.804688
vt 0.148438 0.804688
vt 0.148438 0.804688
vt 0.148438 0.804688
vt 0.148438 0.804688
vt 0.148438 0.804688
vt 0.148438 0.804688
vt 0.148438 0.804688
vt 0.148438 0.804688
vt 0.148438 0.804688
vt 0.148438 0.804688
vt 0.148438 0.804688
vt 0.148438 0.804688
vt 0.148438 0.804688
vt 0.148438 0.804688
vt 0.148438 0.804688
vt 0.148438 0.804688
vt 0.148438 0.804688
vt 0.148438 0.804688
vt 0.148438 0.804688
vt 0.148438 0.804688
vt 0.148438 0.804688
vt 0.148438 0.804688
vt 0.148438 0.804688
vt 0.148438 0.804688
vt 0.148438 0.804688
vt 0.148438 0.804688
vt 0.148438 0.804688
vt 0.148438 0.804688
vt 0.148438 0.804688
vt 0.148438 0.804688
vt 0.148438 0.804688
vt 0.148438 0.804688
vt 0.148438 0.804688
vt 0.148438 0.804688
vt 0.148438 0.804688
vt 0.148438 0.804688
vt 0.148438 0.804688
vt 0.148438 0.804688
vt 0.148438 0.804688
vt 0.148438 0.804688
vt 0.148438 0.804688
vt 0.148438 0.804688
vt 0.148438 0.804688
vt 0.148438 0.804688
vt 0.148438 0.804688
vt 0.148438 0.804688
vt 0.148438 0.804688
vt 0.148438 0.804688
vt 0.148438 0.804688
vt 0.148438 0.804688
vt 0.148438 0.804688
vt 0.148438 0.804688
vt 0.148438 0.804688
vt 0.257812 0.804688
vt 0.257812 0.804688
vn 0.0000 -1.0000 0.0000
vn 1.0000 0.0000 0.0000
vn 0.0000 -0.0000 1.0000
vn 0.0000 1.0000 0.0000
vn -1.0000 0.0000 0.0000
vn -0.0000 0.0000 -1.0000
vn -0.7040 0.0000 -0.7102
vn 0.7040 0.0000 -0.7102
vn 0.7040 -0.0000 0.7102
vn -0.7040 -0.0000 0.7102
vn -1.0000 -0.0000 0.0002
s 1
f 1/1/1 2/2/1 3/3/1 4/4/1
f 5/5/2 1/1/2 4/4/2 6/6/2
f 7/7/3 8/8/3 9/9/3 10/10/3
f 8/11/4 11/12/4 12/13/4 9/14/4
f 8/8/2 7/7/2 13/15/2 11/16/2
f 14/17/3 15/18/3 16/19/3 17/20/3
f 18/21/4 17/22/4 16/23/4 19/24/4
f 20/25/3 2/2/3 1/1/3 5/5/3
f 5/26/4 6/27/4 21/28/4 20/29/4
f 3/3/5 2/2/5 20/25/5 21/30/5
f 22/31/6 12/32/6 11/16/6 13/15/6
f 10/10/5 9/9/5 12/32/5 22/31/5
f 23/33/5 14/17/5 17/20/5 18/34/5
f 23/33/6 18/34/6 19/35/6 24/36/6
f 21/30/6 6/6/6 4/4/6 3/3/6
f 25/37/7 26/38/7 27/39/7 28/40/7
f 29/41/8 30/42/8 27/39/8 26/38/8
f 31/43/7 32/44/7 33/45/7 34/46/7
f 35/47/9 36/48/9 37/49/9 38/50/9
f 34/46/8 35/47/8 38/50/8 31/43/8
f 39/51/9 30/42/9 29/41/9 40/52/9
f 32/44/10 37/49/10 36/48/10 33/45/10
f 40/52/10 25/37/10 28/40/10 39/51/10
f 41/53/7 42/54/7 43/55/7 44/56/7
f 45/57/8 46/58/8 43/55/8 42/54/8
f 47/59/7 48/60/7 49/61/7 50/62/7
f 51/63/9 52/64/9 53/65/9 54/66/9
f 50/62/8 51/63/8 54/66/8 47/59/8
f 55/67/9 46/58/9 45/57/9 56/68/9
f 48/60/10 53/65/10 52/64/10 49/61/10
f 56/68/10 41/53/10 44/56/10 55/67/10
f 57/69/7 58/70/7 59/71/7 60/72/7
f 61/73/8 62/74/8 59/71/8 58/70/8
f 63/75/7 64/76/7 65/77/7 66/78/7
f 67/79/9 68/80/9 69/81/9 70/82/9
f 66/78/8 67/79/8 70/82/8 63/75/8
f 71/83/9 62/74/9 61/73/9 72/84/9
f 64/76/10 69/81/10 68/80/10 65/77/10
f 72/84/10 57/69/10 60/72/10 71/83/10
f 73/85/7 74/86/7 75/87/7 76/88/7
f 74/86/10 77/89/10 78/90/10 75/87/10
f 79/91/8 80/92/8 81/93/8 82/94/8
f 82/94/9 81/93/9 83/95/9 84/96/9
f 13/15/1 7/7/1 10/10/1 22/31/1
f 15/18/1 14/17/1 23/33/1 24/36/1
f 27/39/1 30/42/1 39/51/1 28/40/1
f 26/38/4 25/37/4 40/52/4 29/41/4
f 36/48/4 35/47/4 34/46/4 33/45/4
f 37/49/1 32/44/1 31/43/1 38/50/1
f 43/55/1 46/58/1 55/67/1 44/56/1
f 42/54/4 41/53/4 56/68/4 45/57/4
f 52/64/4 51/63/4 50/62/4 49/61/4
f 53/65/1 48/60/1 47/59/1 54/66/1
f 59/71/1 62/74/1 71/83/1 60/72/1
f 58/70/4 57/69/4 72/84/4 61/73/4
f 68/80/4 67/79/4 66/78/4 65/77/4
f 69/81/1 64/76/1 63/75/1 70/82/1
f 85/97/10 86/98/10 87/99/10 88/100/10
f 88/100/7 87/99/7 89/101/7 90/102/7
f 91/103/9 92/104/9 93/105/9 94/106/9
f 92/104/8 95/107/8 96/108/8 93/105/8
f 97/109/6 98/110/6 99/111/6 100/112/6
f 100/112/1 99/111/1 15/18/1 24/36/1
f 97/109/11 100/112/11 24/36/11 19/35/11
f 99/111/2 98/110/2 16/19/2 15/18/2
f 98/113/4 97/114/4 19/24/4 16/23/4
