# Blender v2.83.4 OBJ File: 'decos.blend'
# www.blender.org
o IndustrialCatWalk_PipeStraightTillable_Cube.001_IndustrialC.030
v -19.424915 -19.327988 9.787711
v -19.835892 -19.327988 9.380361
v -19.424915 -19.327988 8.973001
v -19.013935 -19.327988 9.380361
v -19.424915 4.047410 9.787733
v -19.013935 4.047410 9.380375
v -19.424915 4.047411 8.973019
v -19.835894 4.047410 9.380375
v -10.452084 -6.692911 -9.238695
v -1.063220 3.157375 -9.123783
v -1.041146 3.992945 -9.008881
v -10.460540 -5.421494 -9.238695
v -10.694990 3.199518 -9.008881
v -1.226454 -6.692911 -9.238695
v -1.234910 -5.421494 -9.238695
v -10.130032 4.015641 -9.008881
v -10.218990 -19.327988 9.787711
v -10.629968 -19.327988 9.380361
v -10.218992 -19.327988 8.973001
v -9.808014 -19.327988 9.380361
v -10.218990 4.047410 9.787733
v -9.808014 4.047410 9.380375
v -10.218992 4.047411 8.973019
v -10.629970 4.047410 9.380375
v -19.677710 -6.692911 -9.238695
v -10.331644 3.338771 -9.238681
v -10.732436 4.228852 -9.238681
v -19.686167 -5.421494 -9.238695
v -19.163858 3.338771 -9.238681
v -19.564651 4.228852 -9.238681
v -1.424048 4.047424 -9.380373
v -1.424048 -19.327972 -9.380388
v -1.013068 -19.327972 -9.787741
v -1.013068 4.047424 -9.787731
v -0.602088 4.047424 -9.380373
v -0.602090 -19.327972 -9.380388
v -1.013068 -19.327988 9.787711
v -1.424048 -19.327988 9.380361
v -1.013068 -19.327988 8.973001
v -0.602090 -19.327988 9.380361
v -1.013068 4.047410 9.787733
v -0.602088 4.047410 9.380375
v -1.013068 4.047411 8.973019
v -1.424048 4.047410 9.380375
v -1.013068 -19.327972 -8.973030
v -1.013068 4.047423 -8.973017
v -10.629970 4.047424 -9.380373
v -10.629968 -19.327972 -9.380388
v -10.218990 -19.327972 -9.787741
v -10.218990 4.047424 -9.787731
v -9.808014 4.047424 -9.380373
v -9.808014 -19.327972 -9.380388
v -10.218992 -19.327972 -8.973030
v -10.218992 4.047423 -8.973017
v -19.835894 4.047424 -9.380373
v -19.835892 -19.327972 -9.380388
v -19.424915 -19.327972 -9.787741
v -19.424915 4.047424 -9.787731
v -19.013935 4.047424 -9.380373
v -19.013935 -19.327972 -9.380388
v -10.452084 -6.692926 9.238681
v -1.063220 3.157365 9.123785
v -1.041146 3.992934 9.008883
v -10.460540 -5.421509 9.238679
v -19.424915 -19.327972 -8.973030
v -19.424915 4.047423 -8.973017
v -19.677710 -6.692926 9.238681
v -10.331644 3.338761 9.238683
v -10.732436 4.228838 9.238683
v -19.686167 -5.421509 9.238679
v -10.694990 3.199506 9.008883
v -1.226454 -6.692926 9.238681
v -1.234910 -5.421509 9.238679
v -10.130032 4.015631 9.008883
v -19.163858 3.338761 9.238683
v -19.564651 4.228838 9.238683
v 0.000000 3.999990 9.999991
v -19.999638 3.999990 10.000021
v -19.999638 4.000008 -9.999959
v 0.000000 4.000008 -9.999979
v 0.000000 4.253028 9.999991
v 0.000000 4.253046 -9.999979
v -19.999638 4.253028 10.000021
v -19.999638 4.253046 -9.999959
vt 0.179688 0.882812
vt 0.179688 0.882812
vt 0.179688 0.882812
vt 0.179688 0.882812
vt 0.179688 0.882812
vt 0.179688 0.882812
vt 0.179688 0.882812
vt 0.179688 0.882812
vt 0.257812 0.882812
vt 0.257812 0.882812
vt 0.257812 0.882812
vt 0.257812 0.882812
vt 0.257812 0.882812
vt 0.257812 0.882812
vt 0.257812 0.882812
vt 0.257812 0.882812
vt 0.179688 0.882812
vt 0.179688 0.882812
vt 0.179688 0.882812
vt 0.179688 0.882812
vt 0.179688 0.882812
vt 0.179688 0.882812
vt 0.179688 0.882812
vt 0.179688 0.882812
vt 0.257812 0.882812
vt 0.257812 0.882812
vt 0.257812 0.882812
vt 0.257812 0.882812
vt 0.257812 0.882812
vt 0.257812 0.882812
vt 0.179688 0.882812
vt 0.179688 0.882812
vt 0.179688 0.882812
vt 0.179688 0.882812
vt 0.179688 0.882812
vt 0.179688 0.882812
vt 0.179688 0.882812
vt 0.179688 0.882812
vt 0.179688 0.882812
vt 0.179688 0.882812
vt 0.179688 0.882812
vt 0.179688 0.882812
vt 0.179688 0.882812
vt 0.179688 0.882812
vt 0.179688 0.882812
vt 0.179688 0.882812
vt 0.179688 0.882812
vt 0.179688 0.882812
vt 0.179688 0.882812
vt 0.179688 0.882812
vt 0.179688 0.882812
vt 0.179688 0.882812
vt 0.179688 0.882812
vt 0.179688 0.882812
vt 0.179688 0.882812
vt 0.179688 0.882812
vt 0.179688 0.882812
vt 0.179688 0.882812
vt 0.179688 0.882812
vt 0.179688 0.882812
vt 0.257812 0.882812
vt 0.257812 0.882812
vt 0.257812 0.882812
vt 0.257812 0.882812
vt 0.179688 0.882812
vt 0.179688 0.882812
vt 0.257812 0.882812
vt 0.257812 0.882812
vt 0.257812 0.882812
vt 0.257812 0.882812
vt 0.257812 0.882812
vt 0.257812 0.882812
vt 0.257812 0.882812
vt 0.257812 0.882812
vt 0.257812 0.882812
vt 0.257812 0.882812
vt 0.179688 0.882812
vt 0.179688 0.882812
vt 0.179688 0.882812
vt 0.179688 0.882812
vt 0.179688 0.882812
vt 0.179688 0.882812
vt 0.179688 0.882812
vt 0.179688 0.882812
vn 0.0000 -1.0000 -0.0000
vn 0.0000 1.0000 0.0000
vn 0.0377 -0.0547 0.9978
vn 0.0195 -0.0052 0.9998
vn -0.0000 -0.0000 1.0000
vn 0.7040 -0.0000 0.7102
vn -0.7040 -0.0000 0.7102
vn -0.7040 0.0000 -0.7102
vn 0.7040 0.0000 -0.7102
vn -0.0377 0.0547 0.9978
vn -0.0195 0.0052 0.9998
vn 1.0000 0.0000 0.0000
vn -1.0000 0.0000 0.0000
vn -0.0000 0.0000 -1.0000
s 1
f 1/1/1 2/2/1 3/3/1 4/4/1
f 5/5/2 6/6/2 7/7/2 8/8/2
f 9/9/3 10/10/3 11/11/3 12/12/3
f 13/13/4 14/14/4 15/15/4 16/16/4
f 17/17/1 18/18/1 19/19/1 20/20/1
f 21/21/2 22/22/2 23/23/2 24/24/2
f 25/25/5 26/26/5 27/27/5 28/28/5
f 29/29/5 9/9/5 12/12/5 30/30/5
f 31/31/6 32/32/6 33/33/6 34/34/6
f 35/35/7 34/34/7 33/33/7 36/36/7
f 37/37/1 38/38/1 39/39/1 40/40/1
f 8/8/7 2/2/7 1/1/7 5/5/7
f 41/41/2 42/42/2 43/43/2 44/44/2
f 45/45/8 46/46/8 35/35/8 36/36/8
f 3/3/9 7/7/9 6/6/9 4/4/9
f 46/46/9 45/45/9 32/32/9 31/31/9
f 47/47/6 48/48/6 49/49/6 50/50/6
f 51/51/7 50/50/7 49/49/7 52/52/7
f 19/19/9 23/23/9 22/22/9 20/20/9
f 39/39/9 43/43/9 42/42/9 40/40/9
f 23/23/8 19/19/8 18/18/8 24/24/8
f 53/53/8 54/54/8 51/51/8 52/52/8
f 24/24/7 18/18/7 17/17/7 21/21/7
f 54/54/9 53/53/9 48/48/9 47/47/9
f 55/55/6 56/56/6 57/57/6 58/58/6
f 59/59/7 58/58/7 57/57/7 60/60/7
f 44/44/7 38/38/7 37/37/7 41/41/7
f 61/61/10 62/62/10 63/63/10 64/64/10
f 42/42/6 41/41/6 37/37/6 40/40/6
f 65/65/8 66/66/8 59/59/8 60/60/8
f 67/67/5 68/68/5 69/69/5 70/70/5
f 66/66/9 65/65/9 56/56/9 55/55/9
f 33/33/2 32/32/2 45/45/2 36/36/2
f 34/34/1 35/35/1 46/46/1 31/31/1
f 6/6/6 5/5/6 1/1/6 4/4/6
f 7/7/8 3/3/8 2/2/8 8/8/8
f 49/49/2 48/48/2 53/53/2 52/52/2
f 50/50/1 51/51/1 54/54/1 47/47/1
f 43/43/8 39/39/8 38/38/8 44/44/8
f 22/22/6 21/21/6 17/17/6 20/20/6
f 57/57/2 56/56/2 65/65/2 60/60/2
f 58/58/1 59/59/1 66/66/1 55/55/1
f 71/71/11 72/72/11 73/73/11 74/74/11
f 75/75/5 61/61/5 64/64/5 76/76/5
f 77/77/1 78/78/1 79/79/1 80/80/1
f 81/81/12 77/77/12 80/80/12 82/82/12
f 83/83/5 78/78/5 77/77/5 81/81/5
f 81/81/2 82/82/2 84/84/2 83/83/2
f 79/79/13 78/78/13 83/83/13 84/84/13
f 84/84/14 82/82/14 80/80/14 79/79/14
