# Blender v2.83.4 OBJ File: 'decos.blend'
# www.blender.org
o IndustrialCatWalk_PipeStraightTillable_Cube.001_IndustrialC.048
v -3.998194 4.253039 -9.999998
v -3.998194 4.253038 -2.208340
v -0.000004 4.253038 -2.208338
v -0.000004 4.253038 -9.999998
v -3.998194 4.253026 10.000002
v -0.000004 4.253025 10.000002
v -0.060956 4.672020 -9.999998
v -0.060954 4.672019 -1.906606
v -0.282110 4.672008 10.000002
v -0.282108 4.672018 1.906610
v -3.716092 4.672020 -9.999998
v -3.716094 4.672019 -1.906606
v -3.937246 4.672008 10.000002
v -3.937248 4.672018 1.906610
v -3.716092 4.672008 10.000002
v -3.716094 4.672018 1.906610
v -3.998194 4.253036 2.208344
v -0.060956 4.672008 10.000002
v -0.060954 4.672018 1.906610
v -0.282108 4.672019 -1.906606
v -0.282110 4.672020 -9.999998
v -0.000004 4.253036 2.208342
v -3.937248 4.672019 -1.906606
v -3.937246 4.672020 -9.999998
v 8.000900 4.253036 -2.208334
v 8.000900 4.253034 2.208338
v -11.999100 4.253044 -2.208342
v -11.999100 4.253042 2.208346
v -11.999098 4.672016 -1.887452
v -3.956910 4.672019 -1.887456
v 8.000900 4.672016 -1.672084
v -0.041290 4.672019 -1.672084
v -11.999098 4.672014 1.672092
v -3.956908 4.672018 1.672092
v 8.000900 4.672014 1.887460
v -0.041290 4.672018 1.887462
v 8.000900 4.672014 1.672090
v -0.041290 4.672018 1.672092
v 8.000900 4.672016 -1.887454
v -0.041290 4.672019 -1.887456
v -3.956910 4.672019 -1.672084
v -11.999098 4.672016 -1.672082
v -3.956908 4.672018 1.887462
v -11.999098 4.672014 1.887462
vt 0.257812 0.804688
vt 0.257812 0.804688
vt 0.257812 0.804688
vt 0.257812 0.804688
vt 0.257812 0.804688
vt 0.257812 0.804688
vt 0.257812 0.804688
vt 0.257812 0.804688
vt 0.257812 0.804688
vt 0.257812 0.804688
vt 0.257812 0.804688
vt 0.257812 0.804688
vt 0.257812 0.804688
vt 0.257812 0.804688
vt 0.257812 0.804688
vt 0.257812 0.804688
vt 0.257812 0.804688
vt 0.257812 0.804688
vt 0.257812 0.804688
vt 0.257812 0.804688
vt 0.257812 0.804688
vt 0.257812 0.804688
vt 0.257812 0.804688
vt 0.257812 0.804688
vt 0.257812 0.804688
vt 0.257812 0.804688
vt 0.257812 0.804688
vt 0.257812 0.804688
vt 0.257812 0.804688
vt 0.257812 0.804688
vt 0.257812 0.804688
vt 0.257812 0.804688
vt 0.257812 0.804688
vt 0.257812 0.804688
vt 0.257812 0.804688
vt 0.257812 0.804688
vt 0.257812 0.804688
vt 0.257812 0.804688
vt 0.257812 0.804688
vt 0.257812 0.804688
vt 0.257812 0.804688
vt 0.257812 0.804688
vt 0.257812 0.804688
vt 0.257812 0.804688
vn 0.0000 1.0000 0.0000
s 1
f 1/1/1 2/2/1 3/3/1 4/4/1
f 16/5/1 14/6/1 13/7/1 15/8/1
f 10/9/1 9/10/1 18/11/1 19/12/1
f 20/13/1 8/14/1 7/15/1 21/16/1
f 12/17/1 11/18/1 24/19/1 23/20/1
f 17/21/1 2/2/1 27/22/1 28/23/1
f 22/24/1 3/3/1 2/2/1 17/21/1
f 5/25/1 6/26/1 22/24/1 17/21/1
f 26/27/1 25/28/1 3/3/1 22/24/1
f 38/29/1 36/30/1 35/31/1 37/32/1
f 32/33/1 31/34/1 39/35/1 40/36/1
f 41/37/1 30/38/1 29/39/1 42/40/1
f 34/41/1 33/42/1 44/43/1 43/44/1
