# Blender v2.83.4 OBJ File: 'decos.blend'
# www.blender.org
o IndustrialCatWalk_PipeStraightTillable_Cube.001_IndustrialC.014
v 0.000000 4.253036 2.000003
v 0.000000 4.253036 -1.999991
v -3.911493 4.672019 -1.717759
v -39.999271 4.672019 -1.717755
v -3.911493 4.672019 -1.939017
v -39.999271 4.672019 -1.939013
v -0.254705 4.672015 1.939027
v -39.999271 4.672018 1.939031
v -39.999271 4.672018 1.717775
v -0.475047 4.672017 1.718496
v -39.999271 4.253036 2.000009
v -39.999271 4.253036 -1.999987
vt 0.257812 0.804688
vt 0.257812 0.804688
vt 0.257812 0.804688
vt 0.257812 0.804688
vt 0.257812 0.804688
vt 0.257812 0.804688
vt 0.257812 0.804688
vt 0.257812 0.804688
vt 0.257812 0.804688
vt 0.257812 0.804688
vt 0.257812 0.804688
vt 0.257812 0.804688
vn 0.0000 1.0000 0.0000
s 1
f 3/1/1 5/2/1 6/3/1 4/4/1
f 9/5/1 8/6/1 7/7/1 10/8/1
f 1/9/1 2/10/1 12/11/1 11/12/1
