# Blender v2.83.4 OBJ File: 'decos.blend'
# www.blender.org
o IndustrialCatWalk_PipeStraightTillable_Cube.001_IndustrialC.001_IndustrialCatWalk_PipeStraightTillable_Cube.001_IndustrialC.008
v -39.999271 7.041214 3.918410
v -39.999271 7.041214 4.360921
v 0.000000 7.041214 4.360913
v 0.000000 7.041214 3.918401
v -39.999271 7.041214 -3.918404
v 0.000000 7.041214 -3.918395
v 0.000000 7.041214 -4.360907
v -39.999271 7.041214 -4.360915
v 0.000000 4.253036 4.000000
v 0.000000 4.253036 -3.999985
v -39.999271 4.253036 4.000011
v -39.999271 4.253036 -3.999977
vt 0.257812 0.804688
vt 0.257812 0.804688
vt 0.257812 0.804688
vt 0.257812 0.804688
vt 0.257812 0.804688
vt 0.257812 0.804688
vt 0.257812 0.804688
vt 0.257812 0.804688
vt 0.257812 0.804688
vt 0.257812 0.804688
vt 0.257812 0.804688
vt 0.257812 0.804688
vn 0.0000 1.0000 0.0000
s 1
f 1/1/1 2/2/1 3/3/1 4/4/1
f 5/5/1 6/6/1 7/7/1 8/8/1
f 9/9/1 10/10/1 12/11/1 11/12/1
