# Blender v2.91.0 Beta OBJ File: 'decos.blend'
# www.blender.org
o Cylinder.003
v -2.991027 2.859342 3.640297
v -2.991027 2.859343 -3.640296
v 2.991027 2.859343 -3.640296
v 2.991027 2.859342 3.640297
v 0.000000 4.475775 0.000001
v -2.185527 0.299252 -2.262130
v -2.164635 -0.460152 -2.211911
vt 0.210937 0.789062
vt 0.210938 0.789062
vt 0.210938 0.789062
vt 0.210938 0.789063
vt 0.210938 0.789062
vn -0.4220 0.9066 0.0002
vn -0.4823 0.8746 -0.0494
vn -0.5030 0.8634 0.0387
vn 0.0418 -0.9987 -0.0279
vn -0.0380 -0.9991 0.0213
vn -0.0385 -0.9982 -0.0457
vn -0.0028 0.9307 0.3657
vn -0.0588 0.9079 0.4151
vn 0.0417 0.8950 0.4442
vn 0.4563 0.8897 0.0113
vn 0.4844 0.8739 0.0422
vn 0.4965 0.8673 -0.0360
vn -0.0013 0.9332 -0.3594
vn 0.0198 0.9079 -0.4187
vn -0.0231 0.9105 -0.4129
vn 0.0069 -0.9997 0.0234
s 1
f 1/1/1 5/2/2 2/3/3
f 2/3/4 4/4/5 1/1/6
f 4/4/7 5/2/8 1/1/9
f 3/5/10 5/2/11 4/4/12
f 2/3/13 5/2/14 3/5/15
f 2/3/4 3/5/16 4/4/5
l 6 7
