# Blender v2.90.0 Alpha OBJ File: 'Decos.blend'
# www.blender.org
o PillarSquare_Cube_Cube.005
v 0.484557 10.554629 -0.484555
v 0.484557 10.554630 0.484559
v 0.484557 0.629997 0.484557
v 0.484557 0.629998 -0.484557
v -0.852455 10.889261 0.852457
v -0.852455 10.889260 -0.852453
v -0.852455 10.793968 -0.852453
v -0.852455 10.793969 0.852457
v 0.852455 10.889260 -0.852453
v 0.852455 10.793968 -0.852453
v 0.852455 10.889261 0.852457
v 0.852455 10.793969 0.852457
v -0.484557 10.554629 -0.484555
v 0.852455 11.184628 0.852457
v -0.852455 11.184628 0.852457
v -0.852455 11.089336 0.852457
v 0.852455 11.089336 0.852457
v 0.792428 10.889261 0.792431
v -0.792428 10.889261 0.792431
v 0.852455 11.184628 -0.852453
v 0.852455 11.089334 -0.852453
v 0.792428 10.889260 -0.792426
v -0.852455 11.184628 -0.852453
v -0.852455 11.089334 -0.852453
v -0.792428 10.889260 -0.792426
v 0.792428 11.089336 0.792430
v -0.792428 11.089336 0.792430
v 0.792428 11.089334 -0.792426
v -0.792428 11.089334 -0.792426
v -0.484557 10.554630 0.484559
v -0.852455 0.295366 0.852455
v -0.852455 0.390658 0.852455
v -0.852455 0.390659 -0.852455
v -0.852455 0.295367 -0.852455
v 0.852455 0.390659 -0.852455
v 0.852455 0.295367 -0.852455
v 0.852455 0.390658 0.852455
v 0.852455 0.295366 0.852455
v -0.484557 0.629998 -0.484557
v -0.484557 0.629997 0.484557
v 0.852455 -0.000000 0.852455
v 0.852455 0.095291 0.852455
v -0.852455 0.095291 0.852455
v -0.852455 -0.000000 0.852455
v -0.792428 0.295366 0.792429
v 0.792428 0.295366 0.792429
v 0.852455 0.000000 -0.852455
v 0.852455 0.095293 -0.852455
v 0.792428 0.295367 -0.792428
v -0.852455 0.000000 -0.852455
v -0.852455 0.095293 -0.852455
v -0.792428 0.295367 -0.792428
v 0.792428 0.095291 0.792428
v -0.792428 0.095291 0.792428
v 0.792428 0.095293 -0.792428
v -0.792428 0.095293 -0.792428
vt 0.101562 0.789062
vt 0.101562 0.789062
vt 0.101562 0.789062
vt 0.101562 0.789062
vt 0.101562 0.789062
vt 0.101562 0.789062
vt 0.101562 0.789062
vt 0.101562 0.789062
vt 0.101562 0.789062
vt 0.101562 0.789062
vt 0.101562 0.789062
vt 0.101562 0.789062
vt 0.101562 0.789062
vt 0.101562 0.789062
vt 0.101562 0.789062
vt 0.101562 0.789062
vt 0.101562 0.789062
vt 0.101562 0.789062
vt 0.101562 0.789062
vt 0.101562 0.789062
vt 0.101562 0.789062
vt 0.101562 0.789062
vt 0.101562 0.789062
vt 0.101562 0.789062
vt 0.101562 0.789062
vt 0.101562 0.789062
vt 0.101562 0.789062
vt 0.101562 0.789062
vt 0.101562 0.789062
vt 0.101562 0.789062
vt 0.101562 0.789062
vt 0.101562 0.789062
vt 0.101562 0.789062
vt 0.101562 0.789062
vt 0.101562 0.789062
vt 0.101562 0.789062
vt 0.101562 0.789062
vt 0.101562 0.789062
vt 0.101562 0.789062
vt 0.101562 0.789062
vt 0.101562 0.789062
vt 0.101562 0.789062
vt 0.101562 0.789062
vt 0.101562 0.789062
vt 0.101562 0.789062
vt 0.101562 0.789062
vt 0.101562 0.789062
vt 0.101562 0.789062
vt 0.101562 0.789062
vt 0.101562 0.789062
vt 0.101562 0.789062
vt 0.101562 0.789062
vt 0.101562 0.789062
vt 0.101562 0.789062
vt 0.101562 0.789062
vt 0.101562 0.789062
vn 0.9813 0.0937 -0.1681
vn 0.9808 -0.1891 0.0481
vn 0.8342 0.3820 -0.3978
vn 0.7629 0.6209 0.1802
vn -1.0000 0.0000 0.0000
vn -0.9961 0.0396 0.0786
vn -0.9961 -0.0786 0.0396
vn -0.9961 -0.0396 -0.0786
vn 0.0000 0.0000 -1.0000
vn -0.0786 0.0396 -0.9961
vn -0.0396 -0.0786 -0.9961
vn 0.0786 -0.0396 -0.9961
vn 1.0000 0.0000 0.0000
vn 0.9961 0.0396 -0.0786
vn 0.9961 -0.0786 -0.0396
vn 0.9961 -0.0396 0.0786
vn 0.0000 0.0000 1.0000
vn 0.0786 0.0396 0.9961
vn 0.0396 -0.0786 0.9961
vn -0.0786 -0.0396 0.9961
vn 0.0782 -0.8130 -0.5769
vn -0.3992 -0.8428 -0.3610
vn 0.0141 -0.8823 -0.4704
vn -0.0756 -0.8105 -0.5809
vn 0.0000 1.0000 0.0000
vn -0.0210 0.9961 0.0855
vn -0.0814 0.9961 0.0334
vn 0.0855 0.9961 0.0210
vn 0.0334 0.9961 0.0814
vn 0.0210 0.9961 -0.0855
vn 0.0814 0.9961 -0.0334
vn -0.0855 0.9961 -0.0210
vn -0.0334 0.9961 -0.0814
vn 0.0456 -0.9961 -0.0752
vn 0.0000 -1.0000 0.0000
vn 0.0340 -0.9961 0.0812
vn 0.0752 -0.9961 0.0456
vn -0.0812 -0.9961 0.0340
vn -0.0456 -0.9961 0.0753
vn -0.0340 -0.9961 -0.0812
vn -0.0752 -0.9961 -0.0456
vn 0.0812 -0.9961 -0.0340
vn 0.4169 -0.7094 0.5683
vn 0.0878 -0.8316 0.5485
vn 0.0756 -0.8105 0.5809
vn -0.0782 -0.8130 0.5769
vn -0.4704 -0.8823 -0.0141
vn -0.5809 -0.8105 0.0756
vn -0.5769 -0.8130 -0.0782
vn -0.5683 -0.7094 0.4169
vn 0.4704 -0.8823 0.0141
vn 0.5962 -0.8005 0.0612
vn 0.4872 -0.8714 0.0572
vn 0.2804 -0.9184 -0.2791
vn -0.9961 0.0396 -0.0786
vn -0.9961 -0.0786 -0.0396
vn -0.9961 -0.0396 0.0786
vn 0.0786 0.0396 -0.9961
vn 0.0396 -0.0786 -0.9961
vn -0.0786 -0.0396 -0.9961
vn 0.9961 0.0396 0.0786
vn 0.9961 -0.0786 0.0396
vn 0.9961 -0.0396 -0.0786
vn -0.0786 0.0396 0.9961
vn -0.0396 -0.0786 0.9961
vn 0.0786 -0.0396 0.9961
vn -0.9724 -0.2200 0.0775
vn -0.8952 0.3724 0.2448
vn -0.7487 0.6377 -0.1812
vn -0.9545 0.0642 -0.2914
vn -0.0552 0.5729 -0.8178
vn 0.4835 0.5887 -0.6478
vn -0.0141 0.7876 -0.6160
vn 0.4250 0.6500 -0.6299
vn 0.0210 -0.9961 -0.0855
vn 0.0814 -0.9961 -0.0334
vn -0.0855 -0.9961 -0.0210
vn -0.0334 -0.9961 -0.0814
vn -0.0210 -0.9961 0.0855
vn -0.0814 -0.9961 0.0334
vn 0.0855 -0.9961 0.0210
vn 0.0334 -0.9961 0.0814
vn -0.0456 0.9961 0.0753
vn -0.0340 0.9961 -0.0812
vn -0.0753 0.9961 -0.0456
vn 0.0812 0.9961 -0.0340
vn 0.0456 0.9961 -0.0752
vn 0.0340 0.9961 0.0812
vn 0.0753 0.9961 0.0456
vn -0.0812 0.9961 0.0340
vn 0.0114 0.1780 -0.9840
vn -0.0775 -0.2200 -0.9724
vn -0.3328 0.4132 -0.8477
vn 0.2121 0.6251 -0.7512
vn -0.2342 0.1305 0.9634
vn -0.1366 0.7229 0.6773
vn -0.0756 0.8595 0.5055
vn 0.0833 0.7051 0.7042
vn -0.6160 0.7876 0.0141
vn -0.5842 0.6808 -0.4418
vn -0.7533 0.6569 0.0330
vn -0.5257 0.7275 -0.4410
vn -0.2913 0.0643 0.9545
vn 0.0775 -0.2200 0.9724
vn 0.2208 0.2585 0.9404
vn -0.6451 0.5765 0.5015
vn 0.6160 0.7876 -0.0141
vn 0.5949 0.6851 0.4205
vn 0.8492 0.5272 0.0308
vn 0.7418 0.5212 0.4220
s 1
f 1/1/1 2/2/2 3/3/3 4/4/4
f 5/5/5 6/6/6 7/7/7 8/8/8
f 6/6/9 9/9/10 10/10/11 7/7/12
f 9/9/13 11/11/14 12/12/15 10/10/16
f 11/11/17 5/5/18 8/8/19 12/12/20
f 1/1/21 13/13/22 7/7/23 10/10/24
f 14/14/17 15/15/17 16/16/19 17/17/17
f 11/11/25 18/18/26 19/19/27 5/5/25
f 20/20/13 14/14/13 17/17/15 21/21/13
f 9/9/25 22/22/28 18/18/29 11/11/25
f 23/23/9 20/20/9 21/21/11 24/24/9
f 6/6/25 25/25/30 22/22/31 9/9/25
f 15/15/5 23/23/5 24/24/7 16/16/5
f 5/5/25 19/19/32 25/25/33 6/6/25
f 26/26/17 27/27/17 19/19/19 18/18/20
f 28/28/13 26/26/13 18/18/15 22/22/16
f 29/29/9 28/28/9 22/22/11 25/25/12
f 27/27/5 29/29/5 25/25/7 19/19/8
f 24/24/34 29/29/35 27/27/35 16/16/36
f 21/21/37 28/28/35 29/29/35 24/24/38
f 17/17/39 26/26/35 28/28/35 21/21/40
f 16/16/41 27/27/35 26/26/35 17/17/42
f 15/15/25 14/14/25 20/20/25 23/23/25
f 2/2/43 12/12/44 8/8/45 30/30/46
f 8/8/47 7/7/48 13/13/49 30/30/50
f 10/10/51 12/12/52 2/2/53 1/1/54
f 31/31/5 32/32/55 33/33/56 34/34/57
f 34/34/9 33/33/58 35/35/59 36/36/60
f 36/36/13 35/35/61 37/37/62 38/38/63
f 38/38/17 37/37/64 32/32/65 31/31/66
f 13/13/67 39/39/68 40/40/69 30/30/70
f 4/4/71 35/35/72 33/33/73 39/39/74
f 41/41/17 42/42/17 43/43/65 44/44/17
f 38/38/35 31/31/75 45/45/76 46/46/35
f 47/47/13 48/48/13 42/42/62 41/41/13
f 36/36/35 38/38/77 46/46/78 49/49/35
f 50/50/9 51/51/9 48/48/59 47/47/9
f 34/34/35 36/36/79 49/49/80 52/52/35
f 44/44/5 43/43/5 51/51/56 50/50/5
f 31/31/35 34/34/81 52/52/82 45/45/35
f 53/53/17 46/46/17 45/45/65 54/54/66
f 55/55/13 49/49/13 46/46/62 53/53/63
f 56/56/9 52/52/9 49/49/59 55/55/60
f 54/54/5 45/45/5 52/52/56 56/56/57
f 51/51/83 43/43/25 54/54/25 56/56/84
f 48/48/85 51/51/25 56/56/25 55/55/86
f 42/42/87 48/48/25 55/55/25 53/53/88
f 43/43/89 42/42/25 53/53/25 54/54/90
f 44/44/35 50/50/35 47/47/35 41/41/35
f 13/13/91 1/1/92 4/4/93 39/39/94
f 3/3/95 40/40/96 32/32/97 37/37/98
f 32/32/99 40/40/100 39/39/101 33/33/102
f 2/2/103 30/30/104 40/40/105 3/3/106
f 35/35/107 4/4/108 3/3/109 37/37/110
