# Blender v2.91.0 Beta OBJ File: 'decos.blend'
# www.blender.org
o Cube.003_Cube.002
v -2.477398 23.461277 -2.428286
v -0.086352 21.224163 -4.610477
v -0.477332 23.729118 -4.610472
v -7.033794 21.332914 -6.949044
v -4.520094 21.592970 -8.455070
v -4.520094 18.577166 -9.351491
v -7.504798 18.472601 -8.886100
v -1.067358 20.431858 -4.610477
v -4.520094 10.943296 -10.625847
v -4.520094 6.889988 -4.610490
v -8.025542 10.943296 -9.053558
v -2.125646 26.631878 -4.610472
v -4.520094 31.076887 -4.610466
v -3.399492 26.208372 -3.197399
v -3.399492 26.208378 -6.023545
v -1.831554 23.908094 -4.610472
v 1.718042 16.260176 -4.610478
v 1.018306 14.263737 -4.610483
v -1.014646 10.943296 -9.053558
v -1.800794 23.838810 -4.610472
v -2.477398 23.461283 -6.792658
v -1.275018 15.073910 -1.593876
v -1.014646 10.943285 -0.167410
v 2.423153 13.178690 -4.610483
v 1.345837 10.943298 -4.610484
v -4.520094 10.943285 1.404878
v -8.025542 10.943285 -0.167410
v 1.559183 17.650578 -4.610478
v -1.535390 18.472595 -0.334857
v -6.562790 23.461283 -6.792658
v -4.520094 23.615421 -8.864009
v 0.646207 20.358040 -4.610477
v -2.006394 21.332909 -2.271904
v -4.520094 21.592964 -0.765876
v -4.520094 18.577160 0.130535
v -2.006394 21.332914 -6.949044
v -4.520094 26.574345 -1.919830
v -4.520094 23.615416 -0.356935
v -11.463341 13.178690 -4.610483
v -10.386024 10.943298 -4.610484
v -10.599371 17.650578 -4.610478
v -10.758230 16.260176 -4.610478
v -7.504798 18.472595 -0.334857
v -1.535390 18.472601 -8.886100
v -7.239394 23.838810 -4.610472
v -8.562856 23.729118 -4.610472
v -7.989411 20.377491 -4.610477
v -7.981120 20.404675 -4.610477
v -3.967284 -4.226217 -4.610507
v -4.520094 27.551237 -4.649531
v -4.520094 -4.226220 -4.057696
v -10.058495 14.263737 -4.610483
v -9.686395 20.358040 -4.610477
v -1.059068 20.404675 -4.610477
v -4.520094 -4.226217 -5.163319
v -4.520094 15.230754 0.112081
v -7.972830 20.431858 -4.610477
v -8.953836 21.224163 -4.610477
v -4.520094 15.230765 -9.333045
v -7.765170 15.073915 -7.627089
v -5.640696 26.208372 -3.197399
v -6.562790 23.461277 -2.428286
v -7.033794 21.332909 -2.271904
v -7.765170 15.073910 -1.593876
v -1.050777 20.377491 -4.610477
v -1.275018 15.073915 -7.627089
v -6.914542 26.631878 -4.610472
v -5.072904 -4.226217 -4.610507
v -7.208634 23.908094 -4.610472
v -5.640696 26.208378 -6.023545
v -4.520094 26.574350 -7.301114
v 3.850734 23.461273 6.250295
v 6.241780 21.224165 4.068104
v 5.850800 23.729120 4.068109
v -0.705662 21.332911 1.729538
v 1.808038 21.592966 0.223511
v 1.808038 18.577162 -0.672909
v -1.176666 18.472597 -0.207518
v 5.260774 20.431860 4.068104
v 1.808038 10.943292 -1.947266
v 1.808038 6.889986 4.068091
v -1.697410 10.943292 -0.374977
v 4.202486 26.631880 4.068110
v 1.808038 31.076889 4.068115
v 2.928640 26.208374 5.481182
v 2.928640 26.208374 2.655036
v 4.496578 23.908096 4.068109
v 8.046174 16.260178 4.068103
v 7.346438 14.263732 4.068099
v 5.313486 10.943292 -0.374977
v 4.527338 23.838812 4.068109
v 3.850734 23.461279 1.885923
v 5.053114 15.073908 7.084704
v 5.313486 10.943283 8.511171
v 8.751286 13.178685 4.068099
v 7.673969 10.943293 4.068097
v 1.808038 10.943280 10.083459
v -1.697410 10.943283 8.511171
v 7.887315 17.650579 4.068103
v 4.792742 18.472591 8.343724
v -0.234658 23.461279 1.885923
v 1.808038 23.615417 -0.185428
v 6.974339 20.358042 4.068104
v 4.321738 21.332905 6.406676
v 1.808038 21.592960 7.912703
v 1.808038 18.577156 8.809115
v 4.321738 21.332911 1.729538
v 1.808038 26.574341 6.758752
v 1.808038 23.615412 8.321646
v -5.135209 13.178685 4.068099
v -4.057892 10.943293 4.068097
v -4.271239 17.650579 4.068103
v -4.430098 16.260178 4.068103
v -1.176666 18.472591 8.343724
v 4.792742 18.472597 -0.207518
v -0.911262 23.838812 4.068109
v -2.234724 23.729120 4.068109
v -1.661279 20.377493 4.068104
v -1.652988 20.404676 4.068104
v 2.360848 -4.226221 4.068076
v 1.808038 27.551239 4.029051
v 1.808038 -4.226222 4.620883
v -3.730362 14.263732 4.068099
v -3.358263 20.358042 4.068104
v 5.269064 20.404676 4.068104
v 1.808038 -4.226221 3.515262
v 1.808038 15.230749 8.790665
v -1.644698 20.431860 4.068104
v -2.625704 21.224165 4.068104
v 1.808038 15.230761 -0.654465
v -1.437038 15.073915 1.051494
v 0.687436 26.208374 5.481182
v -0.234658 23.461273 6.250295
v -0.705662 21.332905 6.406676
v -1.437038 15.073908 7.084704
v 5.277355 20.377493 4.068104
v 5.053114 15.073915 1.051494
v -0.586410 26.631880 4.068110
v 1.255228 -4.226221 4.068076
v -0.880502 23.908096 4.068109
v 0.687436 26.208374 2.655036
v 1.808038 26.574347 1.377468
vt 0.117188 0.820312
vt 0.117188 0.820312
vt 0.117188 0.820312
vt 0.117188 0.820312
vt 0.117188 0.820312
vt 0.117188 0.820312
vt 0.117188 0.820312
vt 0.117188 0.820312
vt 0.257812 0.835938
vt 0.257812 0.835938
vt 0.257812 0.835938
vt 0.117188 0.820312
vt 0.117188 0.820312
vt 0.117188 0.820312
vt 0.117188 0.820312
vt 0.117188 0.820312
vt 0.117188 0.820312
vt 0.117188 0.820312
vt 0.117188 0.820312
vt 0.117188 0.820312
vt 0.117188 0.820312
vt 0.117188 0.820312
vt 0.117188 0.820312
vt 0.117188 0.820312
vt 0.117188 0.820312
vt 0.257812 0.835938
vt 0.257812 0.835938
vt 0.117188 0.820312
vt 0.117188 0.820312
vt 0.117188 0.820312
vt 0.117188 0.820312
vt 0.117188 0.820312
vt 0.117188 0.820312
vt 0.117188 0.820312
vt 0.117188 0.820312
vt 0.117188 0.820312
vt 0.117188 0.820312
vt 0.117188 0.820312
vt 0.117188 0.820312
vt 0.117188 0.820312
vt 0.117188 0.820312
vt 0.117188 0.820312
vt 0.117188 0.820312
vt 0.117188 0.820312
vt 0.117188 0.820312
vt 0.117188 0.820312
vt 0.117188 0.820312
vt 0.117188 0.820312
vt 0.117188 0.820312
vt 0.179688 0.898438
vt 0.179688 0.898438
vt 0.179688 0.898438
vt 0.117188 0.820312
vt 0.117188 0.820312
vt 0.117188 0.820312
vt 0.257812 0.835938
vt 0.179688 0.898438
vt 0.117188 0.820312
vt 0.117188 0.820312
vt 0.117188 0.820312
vt 0.117188 0.820312
vt 0.117188 0.820312
vt 0.117188 0.820312
vt 0.117188 0.820312
vt 0.117188 0.820312
vt 0.117188 0.820312
vt 0.117188 0.820312
vt 0.117188 0.820312
vt 0.117188 0.820312
vt 0.117188 0.820312
vt 0.117188 0.820312
vt 0.179688 0.898438
vt 0.117188 0.820312
vt 0.117188 0.820312
vt 0.117188 0.820312
vt 0.257812 0.835938
vt 0.257812 0.835938
vt 0.117188 0.820312
vt 0.257812 0.835938
vt 0.117188 0.820312
vt 0.117188 0.820312
vt 0.117188 0.820312
vt 0.117188 0.820312
vt 0.117188 0.820312
vt 0.117188 0.820312
vt 0.117188 0.820312
vt 0.117188 0.820312
vt 0.257812 0.835938
vt 0.257812 0.835938
vt 0.257812 0.835938
vt 0.117188 0.820312
vt 0.117188 0.820312
vt 0.117188 0.820312
vt 0.117188 0.820312
vt 0.117188 0.820312
vt 0.117188 0.820312
vt 0.117188 0.820312
vt 0.117188 0.820312
vt 0.117188 0.820312
vt 0.117188 0.820312
vt 0.117188 0.820312
vt 0.117188 0.820312
vt 0.117188 0.820312
vt 0.117188 0.820312
vt 0.257812 0.835938
vt 0.257812 0.835938
vt 0.117188 0.820312
vt 0.117188 0.820312
vt 0.117188 0.820312
vt 0.117188 0.820312
vt 0.117188 0.820312
vt 0.117188 0.820312
vt 0.117188 0.820312
vt 0.117188 0.820312
vt 0.117188 0.820312
vt 0.117188 0.820312
vt 0.117188 0.820312
vt 0.117188 0.820312
vt 0.117188 0.820312
vt 0.117188 0.820312
vt 0.117188 0.820312
vt 0.117188 0.820312
vt 0.117188 0.820312
vt 0.117188 0.820312
vt 0.117188 0.820312
vt 0.117188 0.820312
vt 0.117188 0.820312
vt 0.117188 0.820312
vt 0.179688 0.898438
vt 0.179688 0.898438
vt 0.179688 0.898438
vt 0.117188 0.820312
vt 0.117188 0.820312
vt 0.117188 0.820312
vt 0.257812 0.835938
vt 0.179688 0.898438
vt 0.117188 0.820312
vt 0.117188 0.820312
vt 0.117188 0.820312
vt 0.117188 0.820312
vt 0.117188 0.820312
vt 0.117188 0.820312
vt 0.117188 0.820312
vt 0.117188 0.820312
vt 0.117188 0.820312
vt 0.117188 0.820312
vt 0.117188 0.820312
vt 0.117188 0.820312
vt 0.117188 0.820312
vt 0.117188 0.820312
vt 0.179688 0.898438
vt 0.117188 0.820312
vt 0.117188 0.820312
vt 0.117188 0.820312
vt 0.257812 0.835938
vt 0.257812 0.835938
vt 0.117188 0.820312
vt 0.257812 0.835938
vn 0.7445 0.2637 0.6133
vn 0.9040 -0.4275 -0.0000
vn 0.7711 0.6367 0.0000
vn -0.7886 0.2777 -0.5486
vn 0.0000 0.2607 -0.9654
vn 0.0000 0.1515 -0.9885
vn -0.5608 0.1696 -0.8104
vn 1.0000 -0.0048 -0.0000
vn -0.0000 -0.2829 -0.9591
vn 0.0000 -1.0000 -0.0000
vn -0.5981 -0.3266 -0.7318
vn 0.9546 0.2978 -0.0000
vn 0.0000 1.0000 0.0000
vn 0.7359 0.3131 0.6003
vn 0.7359 0.3131 -0.6003
vn 0.9332 0.3592 0.0000
vn 0.9995 -0.0306 0.0000
vn 0.9984 0.0557 -0.0000
vn 0.5981 -0.3266 -0.7318
vn 0.5338 0.8456 0.0000
vn 0.7445 0.2637 -0.6133
vn 0.5668 0.0836 0.8196
vn 0.5981 -0.3266 0.7318
vn 0.9556 0.2946 0.0000
vn 0.7892 -0.6142 -0.0000
vn 0.0000 -0.2829 0.9591
vn -0.5981 -0.3266 0.7318
vn 0.9797 0.2003 0.0000
vn 0.5608 0.1696 0.8104
vn -0.7445 0.2637 -0.6133
vn 0.0000 0.2574 -0.9663
vn 0.6169 0.7870 0.0000
vn 0.7886 0.2777 0.5486
vn 0.0000 0.2607 0.9654
vn 0.0000 0.1515 0.9885
vn 0.7886 0.2777 -0.5486
vn 0.0000 0.5122 0.8588
vn 0.0000 0.2574 0.9663
vn -0.9556 0.2946 0.0000
vn -0.7892 -0.6142 -0.0000
vn -0.9797 0.2003 0.0000
vn -0.9995 -0.0306 0.0000
vn -0.5608 0.1696 0.8104
vn 0.5608 0.1696 -0.8104
vn -0.5338 0.8456 0.0000
vn -0.7711 0.6367 0.0000
vn -0.6425 0.7663 0.0000
vn -0.9554 0.2953 -0.0000
vn 0.7070 0.0132 0.7070
vn -0.9984 0.0557 -0.0000
vn -0.6169 0.7870 0.0000
vn 0.9554 0.2953 -0.0000
vn 0.7071 0.0114 -0.7071
vn -0.0000 0.0738 0.9973
vn -1.0000 -0.0048 -0.0000
vn -0.9040 -0.4275 -0.0000
vn 0.0000 0.0738 -0.9973
vn -0.5668 0.0836 -0.8196
vn -0.7359 0.3131 0.6003
vn -0.7445 0.2637 0.6133
vn -0.7886 0.2777 0.5486
vn -0.5668 0.0836 0.8196
vn 0.6425 0.7663 0.0000
vn 0.5668 0.0836 -0.8196
vn -0.9546 0.2978 -0.0000
vn -0.7071 0.0114 -0.7071
vn -0.7070 0.0132 0.7070
vn -0.9332 0.3592 0.0000
vn -0.7359 0.3131 -0.6003
vn -0.0000 0.5122 -0.8588
s 1
f 1/1/1 2/2/2 3/3/3
f 4/4/4 5/5/5 6/6/6 7/7/7
f 1/1/1 8/8/8 2/2/2
f 9/9/9 10/10/10 11/11/11
f 12/12/12 13/13/13 14/14/14
f 15/15/15 12/12/12 16/16/16
f 17/17/17 18/18/18 19/19/19
f 20/20/20 3/3/3 21/21/21
f 22/22/22 23/23/23 17/17/17
f 24/24/24 23/23/23 25/25/25
f 26/26/26 27/27/27 10/10/10
f 28/28/28 29/29/29 17/17/17
f 30/30/30 31/31/31 5/5/5 4/4/4
f 32/32/32 29/29/29 28/28/28
f 33/33/33 34/34/34 35/35/35 29/29/29
f 21/21/21 36/36/36 5/5/5 31/31/31
f 17/17/17 23/23/23 18/18/18
f 37/37/37 38/38/38 1/1/1 14/14/14
f 39/39/39 40/40/40 27/41/27
f 41/42/41 42/43/42 43/44/43
f 24/24/24 25/25/25 19/19/19
f 32/32/32 28/28/28 44/45/44
f 45/46/45 30/30/30 46/47/46
f 4/4/4 7/7/7 47/48/47 48/49/48
f 49/50/49 50/51/49 51/52/49
f 52/53/50 39/39/39 27/41/27
f 47/48/47 7/7/7 53/54/51
f 15/15/15 16/16/16 20/20/20 21/21/21
f 18/18/18 23/23/23 24/24/24
f 28/28/28 17/17/17 44/45/44
f 42/43/42 52/53/50 27/41/27
f 1/1/1 33/33/33 54/55/52 8/8/8
f 9/9/9 19/56/19 10/10/10
f 49/50/53 55/57/53 50/51/53
f 29/29/29 35/35/35 56/58/54 22/22/22
f 47/48/47 53/54/51 43/44/43
f 36/36/36 44/45/44 6/6/6 5/5/5
f 14/14/14 1/1/1 20/20/20 16/16/16
f 30/30/30 57/59/55 58/60/56
f 7/7/7 6/6/6 59/61/57 60/62/58
f 53/54/51 41/42/41 43/44/43
f 52/53/50 11/63/11 39/39/39
f 21/21/21 2/2/2 8/8/8
f 37/37/37 61/64/59 62/65/60 38/38/38
f 45/46/45 46/47/46 62/65/60
f 63/66/61 43/44/43 35/35/35 34/34/34
f 14/14/14 16/16/16 12/12/12
f 64/67/62 27/41/27 26/68/26 56/58/54
f 36/36/36 54/55/52 65/69/63 44/45/44
f 17/17/17 19/19/19 66/70/64
f 67/71/65 61/64/59 13/13/13
f 68/72/66 50/51/66 55/57/66
f 68/72/67 51/52/67 50/51/67
f 60/62/58 11/63/11 42/43/42
f 12/12/12 15/15/15 13/13/13
f 62/65/60 58/60/56 57/59/55
f 42/43/42 11/63/11 52/53/50
f 61/64/59 69/73/68 45/46/45 62/65/60
f 22/22/22 56/58/54 26/68/26 23/23/23
f 62/65/60 46/47/46 58/60/56
f 30/30/30 58/60/56 46/47/46
f 41/42/41 7/7/7 42/43/42
f 53/54/51 7/7/7 41/42/41
f 67/71/65 13/13/13 70/74/69
f 44/45/44 66/70/64 59/61/57 6/6/6
f 63/66/61 48/49/48 47/48/47 43/44/43
f 21/21/21 3/3/3 2/2/2
f 70/74/69 30/30/30 45/46/45 69/73/68
f 71/75/70 15/15/15 21/21/21 31/31/31
f 65/69/63 32/32/32 44/45/44
f 21/21/21 8/8/8 54/55/52 36/36/36
f 26/26/26 10/10/10 23/76/23
f 71/75/70 31/31/31 30/30/30 70/74/69
f 65/69/63 29/29/29 32/32/32
f 18/18/18 24/24/24 19/19/19
f 27/27/27 40/77/40 10/10/10
f 60/62/58 59/61/57 9/78/9 11/63/11
f 61/64/59 67/71/65 69/73/68
f 61/64/59 37/37/37 13/13/13
f 20/20/20 1/1/1 3/3/3
f 42/43/42 27/41/27 64/67/62
f 39/39/39 11/63/11 40/40/40
f 23/76/23 10/10/10 25/79/25
f 62/65/60 57/59/55 48/49/48 63/66/61
f 70/74/69 69/73/68 67/71/65
f 62/65/60 63/66/61 34/34/34 38/38/38
f 1/1/1 38/38/38 34/34/34 33/33/33
f 33/33/33 29/29/29 65/69/63 54/55/52
f 70/74/69 13/13/13 71/75/70
f 11/11/11 10/10/10 40/77/40
f 43/44/43 64/67/62 56/58/54 35/35/35
f 66/70/64 19/19/19 9/78/9 59/61/57
f 15/15/15 71/75/70 13/13/13
f 19/56/19 25/79/25 10/10/10
f 30/30/30 4/4/4 48/49/48 57/59/55
f 14/14/14 13/13/13 37/37/37
f 43/44/43 42/43/42 64/67/62
f 29/29/29 22/22/22 17/17/17
f 44/45/44 17/17/17 66/70/64
f 7/7/7 60/62/58 42/43/42
f 72/80/1 73/81/2 74/82/3
f 75/83/4 76/84/5 77/85/6 78/86/7
f 72/80/1 79/87/8 73/81/2
f 80/88/9 81/89/10 82/90/11
f 83/91/12 84/92/13 85/93/14
f 86/94/15 83/91/12 87/95/16
f 88/96/17 89/97/18 90/98/19
f 91/99/20 74/82/3 92/100/21
f 93/101/22 94/102/23 88/96/17
f 95/103/24 94/102/23 96/104/25
f 97/105/26 98/106/27 81/89/10
f 99/107/28 100/108/29 88/96/17
f 101/109/30 102/110/31 76/84/5 75/83/4
f 103/111/32 100/108/29 99/107/28
f 104/112/33 105/113/34 106/114/35 100/108/29
f 92/100/21 107/115/36 76/84/5 102/110/31
f 88/96/17 94/102/23 89/97/18
f 108/116/37 109/117/38 72/80/1 85/93/14
f 110/118/39 111/119/40 98/120/27
f 112/121/41 113/122/42 114/123/43
f 95/103/24 96/104/25 90/98/19
f 103/111/32 99/107/28 115/124/44
f 116/125/45 101/109/30 117/126/46
f 75/83/4 78/86/7 118/127/47 119/128/48
f 120/129/49 121/130/49 122/131/49
f 123/132/50 110/118/39 98/120/27
f 118/127/47 78/86/7 124/133/51
f 86/94/15 87/95/16 91/99/20 92/100/21
f 89/97/18 94/102/23 95/103/24
f 99/107/28 88/96/17 115/124/44
f 113/122/42 123/132/50 98/120/27
f 72/80/1 104/112/33 125/134/52 79/87/8
f 80/88/9 90/135/19 81/89/10
f 120/129/53 126/136/53 121/130/53
f 100/108/29 106/114/35 127/137/54 93/101/22
f 118/127/47 124/133/51 114/123/43
f 107/115/36 115/124/44 77/85/6 76/84/5
f 85/93/14 72/80/1 91/99/20 87/95/16
f 101/109/30 128/138/55 129/139/56
f 78/86/7 77/85/6 130/140/57 131/141/58
f 124/133/51 112/121/41 114/123/43
f 123/132/50 82/142/11 110/118/39
f 92/100/21 73/81/2 79/87/8
f 108/116/37 132/143/59 133/144/60 109/117/38
f 116/125/45 117/126/46 133/144/60
f 134/145/61 114/123/43 106/114/35 105/113/34
f 85/93/14 87/95/16 83/91/12
f 135/146/62 98/120/27 97/147/26 127/137/54
f 107/115/36 125/134/52 136/148/63 115/124/44
f 88/96/17 90/98/19 137/149/64
f 138/150/65 132/143/59 84/92/13
f 139/151/66 121/130/66 126/136/66
f 139/151/67 122/131/67 121/130/67
f 131/141/58 82/142/11 113/122/42
f 83/91/12 86/94/15 84/92/13
f 133/144/60 129/139/56 128/138/55
f 113/122/42 82/142/11 123/132/50
f 132/143/59 140/152/68 116/125/45 133/144/60
f 93/101/22 127/137/54 97/147/26 94/102/23
f 133/144/60 117/126/46 129/139/56
f 101/109/30 129/139/56 117/126/46
f 112/121/41 78/86/7 113/122/42
f 124/133/51 78/86/7 112/121/41
f 138/150/65 84/92/13 141/153/69
f 115/124/44 137/149/64 130/140/57 77/85/6
f 134/145/61 119/128/48 118/127/47 114/123/43
f 92/100/21 74/82/3 73/81/2
f 141/153/69 101/109/30 116/125/45 140/152/68
f 142/154/70 86/94/15 92/100/21 102/110/31
f 136/148/63 103/111/32 115/124/44
f 92/100/21 79/87/8 125/134/52 107/115/36
f 97/105/26 81/89/10 94/155/23
f 142/154/70 102/110/31 101/109/30 141/153/69
f 136/148/63 100/108/29 103/111/32
f 89/97/18 95/103/24 90/98/19
f 98/106/27 111/156/40 81/89/10
f 131/141/58 130/140/57 80/157/9 82/142/11
f 132/143/59 138/150/65 140/152/68
f 132/143/59 108/116/37 84/92/13
f 91/99/20 72/80/1 74/82/3
f 113/122/42 98/120/27 135/146/62
f 110/118/39 82/142/11 111/119/40
f 94/155/23 81/89/10 96/158/25
f 133/144/60 128/138/55 119/128/48 134/145/61
f 141/153/69 140/152/68 138/150/65
f 133/144/60 134/145/61 105/113/34 109/117/38
f 72/80/1 109/117/38 105/113/34 104/112/33
f 104/112/33 100/108/29 136/148/63 125/134/52
f 141/153/69 84/92/13 142/154/70
f 82/90/11 81/89/10 111/156/40
f 114/123/43 135/146/62 127/137/54 106/114/35
f 137/149/64 90/98/19 80/157/9 130/140/57
f 86/94/15 142/154/70 84/92/13
f 90/135/19 96/158/25 81/89/10
f 101/109/30 75/83/4 119/128/48 128/138/55
f 85/93/14 84/92/13 108/116/37
f 114/123/43 113/122/42 135/146/62
f 100/108/29 93/101/22 88/96/17
f 115/124/44 88/96/17 137/149/64
f 78/86/7 131/141/58 113/122/42
