# Blender v2.91.0 Beta OBJ File: 'decos.blend'
# www.blender.org
o Cube.008_Cube.023
v 1.432889 10.311209 0.000010
v 0.000000 10.311209 -1.432879
v 0.000000 10.698633 -1.662746
v 1.662756 10.698633 0.000010
v 2.537969 7.143653 0.000005
v 0.000000 7.143653 -2.537964
v 0.000000 8.338213 -2.187082
v 2.187088 8.338213 0.000005
v 0.000000 7.143651 2.537974
v 0.000000 8.338213 2.187094
v -2.537969 7.143653 0.000005
v -2.187088 8.338213 0.000005
v 0.000000 14.651767 -0.063386
v 0.063396 14.651767 0.000010
v 0.000000 10.311209 1.432899
v -1.432889 10.311209 0.000010
v 0.000000 10.698633 1.662766
v -1.662756 10.698633 0.000010
v -0.063396 14.651767 0.000010
v 0.000000 14.803138 0.000010
v 0.000000 14.651767 0.063406
v 0.000000 4.512992 -3.880141
v -3.880146 4.512992 0.000005
v 3.880146 4.512992 0.000005
v 0.000000 4.512990 3.880151
vt 0.257812 0.851562
vt 0.257812 0.851562
vt 0.257812 0.851562
vt 0.117188 0.820312
vt 0.117188 0.820312
vt 0.117188 0.820312
vt 0.117188 0.820312
vt 0.117188 0.820312
vt 0.117188 0.820312
vt 0.117188 0.820312
vt 0.117188 0.820312
vt 0.117188 0.820312
vt 0.117188 0.820312
vt 0.117188 0.820312
vt 0.117188 0.820312
vt 0.117188 0.820312
vt 0.117188 0.820312
vt 0.117188 0.820312
vt 0.257812 0.851562
vt 0.257812 0.851562
vt 0.257812 0.851562
vt 0.257812 0.851562
vt 0.257812 0.851562
vt 0.117188 0.820312
vt 0.117188 0.820312
vt 0.117188 0.820312
vt 0.117188 0.820312
vt 0.117188 0.820312
vt 0.117188 0.820312
vt 0.117188 0.820312
vt 0.117188 0.820312
vt 0.117188 0.820312
vt 0.117188 0.820312
vn 0.9941 -0.1085 -0.0000
vn 0.0000 -0.0638 -0.9980
vn 0.9980 -0.0638 -0.0000
vn -0.0000 0.3851 -0.9229
vn 0.9595 0.2818 0.0000
vn 0.9229 0.3851 -0.0000
vn 0.0000 0.3851 0.9229
vn 0.0000 0.2818 0.9595
vn -0.9229 0.3851 -0.0000
vn -0.0000 0.2818 -0.9595
vn 0.9251 0.3797 0.0000
vn 0.0000 0.3571 0.9341
vn -0.9941 -0.1085 0.0000
vn -0.9341 0.3571 -0.0000
vn 0.0000 -0.1085 -0.9941
vn 0.0000 0.3571 -0.9341
vn -0.0000 -0.1085 0.9941
vn -0.0000 -0.0638 0.9980
vn -0.9980 -0.0638 0.0000
vn 0.0000 0.3797 -0.9251
vn -0.9251 0.3797 0.0000
vn 0.0000 1.0000 0.0000
vn -0.9595 0.2818 -0.0000
vn 0.0000 0.3797 0.9251
vn -0.9767 0.2144 0.0000
vn -0.0000 0.2136 -0.9769
vn 0.9767 0.2144 -0.0000
vn 0.0000 0.2136 0.9769
vn 0.9341 0.3571 -0.0000
s 1
f 1/1/1 3/2/2 4/3/3
f 6/4/4 8/5/5 5/6/6
f 9/7/7 8/5/5 10/8/8
f 11/9/9 7/10/10 6/4/4
f 3/11/2 14/12/11 4/13/3
f 10/8/12 16/14/13 12/15/14
f 12/15/14 2/16/15 7/10/16
f 10/8/12 1/17/1 15/18/17
f 16/19/13 17/20/18 18/21/19
f 4/3/3 15/22/17 1/1/1
f 16/19/13 3/2/2 2/23/15
f 13/24/20 19/25/21 20/26/22
f 9/7/7 12/15/23 11/9/9
f 17/27/18 19/25/21 18/28/19
f 3/11/2 19/25/21 13/24/20
f 21/29/24 14/12/11 20/26/22
f 14/12/11 13/24/20 20/26/22
f 19/25/21 21/29/24 20/26/22
f 17/27/18 14/12/11 21/29/24
f 23/30/25 6/4/4 22/31/26
f 24/32/27 9/7/7 25/33/28
f 23/30/25 9/7/7 11/9/9
f 24/32/27 6/4/4 5/6/6
f 8/5/29 2/16/15 1/17/1
f 1/1/1 2/23/15 3/2/2
f 6/4/4 7/10/10 8/5/5
f 9/7/7 5/6/6 8/5/5
f 11/9/9 12/15/23 7/10/10
f 3/11/2 13/24/20 14/12/11
f 10/8/12 15/18/17 16/14/13
f 12/15/14 16/14/13 2/16/15
f 10/8/12 8/5/29 1/17/1
f 16/19/13 15/22/17 17/20/18
f 4/3/3 17/20/18 15/22/17
f 16/19/13 18/21/19 3/2/2
f 9/7/7 10/8/8 12/15/23
f 17/27/18 21/29/24 19/25/21
f 3/11/2 18/28/19 19/25/21
f 17/27/18 4/13/3 14/12/11
f 23/30/25 11/9/9 6/4/4
f 24/32/27 5/6/6 9/7/7
f 23/30/25 25/33/28 9/7/7
f 24/32/27 22/31/26 6/4/4
f 8/5/29 7/10/16 2/16/15
