# Blender v2.91.0 Beta OBJ File: 'decos.blend'
# www.blender.org
o Cube.003_Cube.001_Cube.003_Cube.001
v -8.281275 10.449402 6.490463
v -0.194935 10.449402 6.490463
v -0.194935 10.449398 14.576802
v -8.281275 10.449398 14.576802
v 2.215646 10.449405 0.988628
v 10.301985 10.449405 0.988628
v 10.301985 10.449397 9.074968
v 2.215646 10.449397 9.074968
v -8.426060 10.449408 -4.802777
v -0.339721 10.449408 -4.802777
v -0.339721 10.449400 3.283563
v -8.426060 10.449400 3.283563
v 2.650002 10.449410 -11.969641
v 10.736341 10.449410 -11.969641
v 10.736341 10.449407 -3.883300
v 2.650002 10.449407 -3.883300
v -4.382891 30.472469 -0.759598
v -4.238105 30.472464 10.533643
v 6.258815 30.472471 5.031808
v 6.693171 30.472477 -7.926461
vt 0.117188 0.820312
vt 0.117188 0.820312
vt 0.117188 0.820312
vt 0.117188 0.820312
vt 0.117188 0.820312
vt 0.117188 0.820312
vt 0.117188 0.820312
vt 0.117188 0.820312
vt 0.117188 0.820312
vt 0.117188 0.820312
vt 0.117188 0.820312
vt 0.117188 0.820312
vt 0.117188 0.820312
vt 0.117188 0.820312
vt 0.117188 0.820312
vt 0.117188 0.820312
vt 0.117188 0.820312
vt 0.117188 0.820312
vt 0.117188 0.820312
vt 0.117188 0.820312
vn 0.0000 -1.0000 -0.0000
vn 1.0000 0.0000 0.0000
vn -0.0000 0.0000 1.0000
vn -1.0000 0.0000 -0.0000
vn 0.0000 0.0000 -1.0000
s 1
f 1/1/1 2/2/1 3/3/1 4/4/1
f 5/5/1 6/6/1 7/7/1 8/8/1
f 9/9/1 10/10/1 11/11/1 12/12/1
f 13/13/1 14/14/1 15/15/1 16/16/1
f 10/10/2 17/17/2 11/11/2
f 3/3/3 18/18/3 4/4/3
f 11/11/3 17/17/3 12/12/3
f 8/8/4 19/19/4 5/5/4
f 16/16/4 20/20/4 13/13/4
f 5/5/5 19/19/5 6/6/5
f 13/13/5 20/20/5 14/14/5
f 6/6/2 19/19/2 7/7/2
f 14/14/2 20/20/2 15/15/2
f 7/7/3 19/19/3 8/8/3
f 4/4/4 18/18/4 1/1/4
f 15/15/3 20/20/3 16/16/3
f 12/12/4 17/17/4 9/9/4
f 1/1/5 18/18/5 2/2/5
f 9/9/5 17/17/5 10/10/5
f 2/2/2 18/18/2 3/3/2
