# Blender v2.91.0 Beta OBJ File: 'decos.blend'
# www.blender.org
o Cube.003_Cube.001
v -3.880146 4.512992 0.000004
v -2.743677 4.512992 -2.743673
v 0.000000 4.512992 -3.880142
v 2.743677 4.512992 -2.743673
v 3.880146 4.512992 0.000004
v 2.743677 4.512990 2.743681
v 0.000000 4.512990 3.880150
v -2.743677 4.512990 2.743681
v 0.000000 14.803138 0.000008
vt 0.117188 0.820312
vt 0.117188 0.820312
vt 0.117188 0.820312
vt 0.117188 0.820312
vt 0.117188 0.820312
vt 0.117188 0.820312
vt 0.117188 0.820312
vt 0.117188 0.820312
vt 0.117188 0.820312
vn -0.8725 0.3290 -0.3614
vn 0.8725 0.3290 0.3614
vn -0.3614 0.3290 -0.8725
vn 0.8725 0.3290 -0.3614
vn -0.8725 0.3290 0.3614
vn 0.3614 0.3290 0.8725
vn -0.3614 0.3290 0.8725
vn 0.3614 0.3290 -0.8725
s 1
f 2/1/1 1/2/1 9/3/1
f 6/4/2 5/5/2 9/3/2
f 3/6/3 2/1/3 9/3/3
f 5/5/4 4/7/4 9/3/4
f 1/2/5 8/8/5 9/3/5
f 7/9/6 6/4/6 9/3/6
f 8/8/7 7/9/7 9/3/7
f 4/7/8 3/6/8 9/3/8
