# Blender v2.91.0 Beta OBJ File: 'decos.blend'
# www.blender.org
o Cube.003_Cube.001
v 0.276405 -2.113110 -0.000005
v 0.000000 -2.113110 -0.276410
v 0.000000 13.775619 -0.019513
v -0.276405 -2.113110 -0.000005
v 0.000000 -2.113110 0.276400
v -3.881066 3.943123 0.000004
v -3.880146 4.512992 0.000004
v -2.743677 4.512992 -2.743673
v -2.744328 3.943125 -2.744324
v 0.000000 3.943127 -3.881062
v 0.000000 4.512992 -3.880142
v 2.743677 4.512992 -2.743673
v 2.744328 3.943125 -2.744324
v 3.881066 3.943123 0.000004
v 3.880146 4.512992 0.000004
v 2.743677 4.512990 2.743681
v 2.744328 3.943123 2.744332
v 0.000000 3.943119 3.881070
v 0.000000 4.512990 3.880150
v -2.743677 4.512990 2.743681
v -2.744328 3.943123 2.744332
v -1.494289 7.979486 1.494293
v -2.113244 7.979486 0.000004
v 1.494289 7.979486 -1.494285
v 2.113244 7.979486 0.000004
v 0.000000 7.979486 -2.113240
v 0.000000 7.979486 2.113248
v 1.494289 7.979486 1.494293
v 2.488589 8.515797 0.000005
v 1.759698 8.515797 1.759702
v -1.494289 7.979486 -1.494285
v -1.759698 8.515797 -1.759693
v 0.000000 8.515797 -2.488583
v 1.759698 8.515797 -1.759693
v -2.488589 8.515797 0.000005
v -1.759698 8.515797 1.759702
v 0.000000 8.515797 2.488594
v 1.432889 10.311209 0.000008
v 1.013206 10.311209 1.013214
v -1.013206 10.311209 -1.013198
v 0.000000 10.311209 -1.432881
v 1.013206 10.311209 -1.013198
v 0.000000 10.698633 -1.662748
v 1.175746 10.698633 -1.175738
v -1.013206 10.311209 1.013214
v 0.000000 10.311209 1.432897
v 0.000000 10.698633 1.662764
v -1.175746 10.698633 1.175754
v 1.175746 10.698633 1.175754
v -1.432889 10.311209 0.000008
v -1.662756 10.698633 0.000008
v -1.175746 10.698633 -1.175738
v 1.662756 10.698633 0.000008
v -0.584217 12.420521 -0.584209
v 0.000000 12.420521 -0.826200
v 0.584217 12.420521 -0.584209
v 0.826208 12.420521 0.000008
v 0.000000 12.420521 0.826216
v -0.584217 12.420521 0.584225
v 0.000000 12.639577 -0.871742
v 0.616421 12.639577 -0.616413
v 0.000000 12.639577 0.871758
v -0.616421 12.639577 0.616429
v 0.584217 12.420521 0.584225
v 0.616421 12.639577 0.616429
v -0.826208 12.420521 0.000008
v -0.871750 12.639577 0.000008
v 0.871750 12.639577 0.000008
v -0.616421 12.639577 -0.616413
v 0.000000 14.803138 0.000008
vt 0.179688 0.898438
vt 0.179688 0.898438
vt 0.179688 0.898438
vt 0.179688 0.898438
vt 0.179688 0.898438
vt 0.117188 0.820312
vt 0.117188 0.820312
vt 0.117188 0.820312
vt 0.117188 0.820312
vt 0.117188 0.820312
vt 0.117188 0.820312
vt 0.117188 0.820312
vt 0.117188 0.820312
vt 0.117188 0.820312
vt 0.117188 0.820312
vt 0.117188 0.820312
vt 0.117188 0.820312
vt 0.117188 0.820312
vt 0.117188 0.820312
vt 0.117188 0.820312
vt 0.257812 0.851562
vt 0.257812 0.851562
vt 0.257812 0.851562
vt 0.257812 0.851562
vt 0.257812 0.851562
vt 0.257812 0.851562
vt 0.257812 0.851562
vt 0.257812 0.851562
vt 0.257812 0.851562
vt 0.117188 0.820312
vt 0.117188 0.820312
vt 0.117188 0.820312
vt 0.117188 0.820312
vt 0.117188 0.820312
vt 0.117188 0.820312
vt 0.117188 0.820312
vt 0.117188 0.820312
vt 0.117188 0.820312
vt 0.117188 0.820312
vt 0.257812 0.851562
vt 0.257812 0.851562
vt 0.257812 0.851562
vt 0.257812 0.851562
vt 0.257812 0.851562
vt 0.257812 0.851562
vt 0.257812 0.851562
vt 0.117188 0.820312
vt 0.117188 0.820312
vt 0.117188 0.820312
vt 0.117188 0.820312
vt 0.117188 0.820312
vt 0.117188 0.820312
vt 0.257812 0.851562
vt 0.257812 0.851562
vt 0.257812 0.851562
vt 0.257812 0.851562
vt 0.257812 0.851562
vt 0.257812 0.851562
vt 0.257812 0.851562
vt 0.257812 0.851562
vt 0.257812 0.851562
vt 0.257812 0.851562
vt 0.117188 0.820312
vt 0.117188 0.820312
vt 0.117188 0.820312
vt 0.117188 0.820312
vt 0.117188 0.820312
vt 0.117188 0.820312
vt 0.117188 0.820312
vt 0.117188 0.820312
vt 0.117188 0.820312
vt 0.117188 0.820312
vt 0.257812 0.851562
vt 0.257812 0.851562
vt 0.257812 0.851562
vt 0.257812 0.851562
vt 0.257812 0.851562
vt 0.257812 0.851562
vt 0.117188 0.820312
vt 0.117188 0.820312
vt 0.117188 0.820312
vt 0.117188 0.820312
vt 0.117188 0.820312
vt 0.117188 0.820312
vt 0.117188 0.820312
vt 0.117188 0.820312
vt 0.117188 0.820312
vt 0.117188 0.820312
vt 0.117188 0.820312
vt 0.117188 0.820312
vt 0.117188 0.820312
vt 0.117188 0.820312
vt 0.117188 0.820312
vt 0.117188 0.820312
vt 0.117188 0.820312
vt 0.117188 0.820312
vt 0.117188 0.820312
vt 0.117188 0.820312
vt 0.117188 0.820312
vt 0.117188 0.820312
vt 0.117188 0.820312
vt 0.117188 0.820312
vn 0.7071 0.0114 -0.7071
vn -0.7071 0.0114 -0.7071
vn -0.7070 0.0132 0.7070
vn 0.7070 0.0132 0.7070
vn -0.9239 0.0015 -0.3827
vn 0.3827 0.0015 -0.9239
vn 0.9239 0.0015 0.3827
vn -0.3827 0.0015 0.9239
vn 0.3827 0.0015 0.9239
vn -0.3827 0.0015 -0.9239
vn 0.9239 0.0015 -0.3827
vn -0.9239 0.0015 0.3827
vn 0.7758 -0.5430 0.3214
vn -0.3214 -0.5430 -0.7758
vn 0.7758 -0.5430 -0.3214
vn 0.3214 -0.5430 -0.7758
vn -0.8118 0.4774 0.3363
vn -0.8118 0.4774 -0.3363
vn 0.8118 0.4774 0.3363
vn -0.3363 0.4774 -0.8118
vn -0.7758 -0.5430 -0.3214
vn -0.7758 -0.5430 0.3214
vn 0.3214 -0.5430 0.7758
vn -0.3214 -0.5430 0.7758
vn 0.3363 0.4774 0.8118
vn -0.3363 0.4774 0.8118
vn 0.3363 0.4774 -0.8118
vn 0.8118 0.4774 -0.3363
vn 0.3356 -0.4807 -0.8101
vn -0.3356 -0.4807 0.8101
vn 0.3356 -0.4807 0.8101
vn -0.8101 -0.4807 0.3356
vn 0.3491 0.4095 0.8429
vn -0.8429 0.4095 0.3491
vn -0.8429 0.4095 -0.3491
vn 0.8429 0.4095 0.3491
vn 0.8101 -0.4807 -0.3356
vn -0.3356 -0.4807 -0.8101
vn 0.8101 -0.4807 0.3356
vn -0.8101 -0.4807 -0.3356
vn -0.3491 0.4095 0.8429
vn 0.3491 0.4095 -0.8429
vn 0.8429 0.4095 -0.3491
vn -0.3491 0.4095 -0.8429
vn 0.3758 -0.1886 -0.9073
vn -0.3758 -0.1886 0.9073
vn 0.3758 -0.1886 0.9073
vn -0.9073 -0.1886 0.3758
vn 0.9073 -0.1886 -0.3758
vn -0.3758 -0.1886 -0.9073
vn 0.9073 -0.1886 0.3758
vn -0.9073 -0.1886 -0.3758
vn -0.8658 0.3489 -0.3586
vn 0.8658 0.3489 0.3586
vn -0.3586 0.3489 -0.8658
vn 0.8658 0.3489 -0.3586
vn -0.8658 0.3489 0.3586
vn 0.3586 0.3489 0.8658
vn -0.3586 0.3489 0.8658
vn 0.3586 0.3489 -0.8658
vn -0.8358 0.4260 -0.3462
vn -0.3462 0.4260 -0.8358
vn 0.3462 0.4260 0.8358
vn 0.8358 0.4260 0.3462
vn -0.3462 0.4260 0.8358
vn 0.3462 0.4260 -0.8358
vn 0.8358 0.4260 -0.3462
vn -0.8358 0.4260 0.3462
s 1
f 1/1/1 2/2/1 3/3/1
f 4/4/2 3/3/2 2/2/2
f 4/4/3 5/5/3 3/3/3
f 1/1/4 3/3/4 5/5/4
f 7/6/5 9/7/5 6/8/5
f 11/9/6 13/10/6 10/11/6
f 14/12/7 16/13/7 17/14/7
f 19/15/8 21/16/8 18/17/8
f 17/14/9 19/15/9 18/17/9
f 8/18/10 10/11/10 9/7/10
f 12/19/11 14/12/11 13/10/11
f 20/20/12 6/8/12 21/16/12
f 28/21/13 29/22/13 30/23/13
f 26/24/14 32/25/14 33/26/14
f 24/27/15 29/22/15 25/28/15
f 26/24/16 34/29/16 24/27/16
f 36/30/17 50/31/17 35/32/17
f 35/32/18 40/33/18 32/34/18
f 30/35/19 38/36/19 39/37/19
f 32/34/20 41/38/20 33/39/20
f 23/40/21 32/25/21 31/41/21
f 22/42/22 35/43/22 23/40/22
f 28/21/23 37/44/23 27/45/23
f 27/45/24 36/46/24 22/42/24
f 30/35/25 46/47/25 37/48/25
f 37/48/26 45/49/26 36/30/26
f 34/50/27 41/38/27 42/51/27
f 29/52/28 42/51/28 38/36/28
f 41/53/29 44/54/29 42/55/29
f 46/56/30 48/57/30 45/58/30
f 39/59/31 47/60/31 46/56/31
f 50/61/32 48/57/32 51/62/32
f 47/63/33 64/64/33 58/65/33
f 51/66/34 59/67/34 66/68/34
f 51/66/35 54/69/35 52/70/35
f 53/71/36 64/64/36 49/72/36
f 38/73/37 44/54/37 53/74/37
f 40/75/38 43/76/38 41/53/38
f 38/73/39 49/77/39 39/59/39
f 50/61/40 52/78/40 40/75/40
f 47/63/41 59/67/41 48/79/41
f 43/80/42 56/81/42 44/82/42
f 53/71/43 56/81/43 57/83/43
f 43/80/44 54/69/44 55/84/44
f 55/84/45 61/85/45 56/81/45
f 58/65/46 63/86/46 59/67/46
f 58/65/47 65/87/47 62/88/47
f 59/67/48 67/89/48 66/68/48
f 56/81/49 68/90/49 57/83/49
f 55/84/50 69/91/50 60/92/50
f 64/64/51 68/90/51 65/87/51
f 54/69/52 67/89/52 69/91/52
f 69/91/53 67/89/53 70/93/53
f 65/87/54 68/90/54 70/93/54
f 60/92/55 69/91/55 70/93/55
f 68/90/56 61/85/56 70/93/56
f 67/89/57 63/86/57 70/93/57
f 62/88/58 65/87/58 70/93/58
f 63/86/59 62/88/59 70/93/59
f 61/85/60 60/92/60 70/93/60
f 8/18/61 23/94/61 31/95/61
f 8/18/62 26/96/62 11/9/62
f 16/13/63 27/97/63 19/15/63
f 15/98/64 28/99/64 16/13/64
f 19/15/65 22/100/65 20/20/65
f 11/9/66 24/101/66 12/19/66
f 12/19/67 25/102/67 15/98/67
f 20/20/68 23/94/68 7/6/68
f 7/6/5 8/18/5 9/7/5
f 11/9/6 12/19/6 13/10/6
f 14/12/7 15/98/7 16/13/7
f 19/15/8 20/20/8 21/16/8
f 17/14/9 16/13/9 19/15/9
f 8/18/10 11/9/10 10/11/10
f 12/19/11 15/98/11 14/12/11
f 20/20/12 7/6/12 6/8/12
f 28/21/13 25/28/13 29/22/13
f 26/24/14 31/41/14 32/25/14
f 24/27/15 34/29/15 29/22/15
f 26/24/16 33/26/16 34/29/16
f 36/30/17 45/49/17 50/31/17
f 35/32/18 50/31/18 40/33/18
f 30/35/19 29/52/19 38/36/19
f 32/34/20 40/33/20 41/38/20
f 23/40/21 35/43/21 32/25/21
f 22/42/22 36/46/22 35/43/22
f 28/21/23 30/23/23 37/44/23
f 27/45/24 37/44/24 36/46/24
f 30/35/25 39/37/25 46/47/25
f 37/48/26 46/47/26 45/49/26
f 34/50/27 33/39/27 41/38/27
f 29/52/28 34/50/28 42/51/28
f 41/53/29 43/76/29 44/54/29
f 46/56/30 47/60/30 48/57/30
f 39/59/31 49/77/31 47/60/31
f 50/61/32 45/58/32 48/57/32
f 47/63/33 49/72/33 64/64/33
f 51/66/34 48/79/34 59/67/34
f 51/66/35 66/68/35 54/69/35
f 53/71/36 57/83/36 64/64/36
f 38/73/37 42/55/37 44/54/37
f 40/75/38 52/78/38 43/76/38
f 38/73/39 53/74/39 49/77/39
f 50/61/40 51/62/40 52/78/40
f 47/63/41 58/65/41 59/67/41
f 43/80/42 55/84/42 56/81/42
f 53/71/43 44/82/43 56/81/43
f 43/80/44 52/70/44 54/69/44
f 55/84/45 60/92/45 61/85/45
f 58/65/46 62/88/46 63/86/46
f 58/65/47 64/64/47 65/87/47
f 59/67/48 63/86/48 67/89/48
f 56/81/49 61/85/49 68/90/49
f 55/84/50 54/69/50 69/91/50
f 64/64/51 57/83/51 68/90/51
f 54/69/52 66/68/52 67/89/52
f 8/18/61 7/6/61 23/94/61
f 8/18/62 31/95/62 26/96/62
f 16/13/63 28/99/63 27/97/63
f 15/98/64 25/102/64 28/99/64
f 19/15/65 27/97/65 22/100/65
f 11/9/66 26/96/66 24/101/66
f 12/19/67 24/101/67 25/102/67
f 20/20/68 22/100/68 23/94/68
