# Blender v2.82 (sub 7) OBJ File: ''
# www.blender.org
mtllib pipe-meter.mtl
o PipeStraightShort_Cube.005
v 1.754765 0.778128 0.000000
v -1.757029 0.778128 0.000000
v -1.757029 0.550220 0.550220
v 1.754765 0.550220 0.550220
v -1.745891 -0.661208 0.661208
v -2.001132 -0.661208 0.661208
v -2.001132 -0.935089 -0.000000
v -1.745891 -0.935089 -0.000000
v 1.754765 -0.550219 -0.550220
v 1.754765 -0.778128 -0.000000
v -1.757029 -0.778128 -0.000000
v -1.757029 -0.550219 -0.550220
v 1.754765 0.550221 -0.550220
v -1.757029 0.550221 -0.550220
v -1.745891 -0.661207 -0.661208
v -2.001132 -0.661207 -0.661208
v -2.001132 0.000001 -0.935089
v -1.745891 0.000001 -0.935089
v 1.743627 0.000000 0.000000
v 1.743627 -0.000000 0.935090
v 1.743627 0.661208 0.661208
v 1.743627 0.935089 0.000000
v 1.743627 0.000001 -0.935089
v 1.743627 0.661209 -0.661208
v 1.743627 -0.661207 -0.661208
v 1.743627 -0.935089 -0.000000
v -1.745891 -0.000000 0.935090
v -2.001132 -0.000000 0.935089
v 1.743627 -0.661208 0.661208
v 2.005407 0.000000 0.000000
v 2.005407 0.935089 0.000000
v 2.005407 0.661208 0.661208
v 2.005407 -0.000000 0.935089
v 2.005407 0.000001 -0.935089
v 2.005407 0.661209 -0.661208
v 2.005407 -0.661207 -0.661208
v 2.005407 -0.935089 -0.000000
v -2.001132 0.000000 0.000000
v -2.001132 0.935089 0.000000
v -2.001132 0.661209 -0.661208
v -2.001132 0.661208 0.661208
v 2.005407 -0.661208 0.661208
v -1.757029 0.000001 -0.778128
v 1.754765 0.000001 -0.778128
v -1.745891 0.935089 0.000000
v -1.745891 0.661208 0.661208
v -1.745891 0.661209 -0.661208
v 1.754765 -0.000000 0.778129
v -1.757029 -0.000000 0.778129
v -1.745891 0.000000 0.000000
v 1.754765 -0.550220 0.550220
v -1.757029 -0.550220 0.550220
vt 0.007812 0.867188
vt 0.007812 0.867188
vt 0.007812 0.867188
vt 0.007812 0.867188
vt 0.007812 0.867188
vt 0.007812 0.867188
vt 0.007812 0.867188
vt 0.007812 0.867188
vt 0.007812 0.867188
vt 0.007812 0.867188
vt 0.007812 0.867188
vt 0.007812 0.867188
vt 0.007812 0.867188
vt 0.007812 0.867188
vt 0.007812 0.867188
vt 0.007812 0.867188
vt 0.007812 0.867188
vt 0.007812 0.867188
vt 0.007812 0.867188
vt 0.007812 0.867188
vt 0.007812 0.867188
vt 0.007812 0.867188
vt 0.007812 0.867188
vt 0.007812 0.867188
vt 0.007812 0.867188
vt 0.007812 0.867188
vt 0.007812 0.867188
vt 0.007812 0.867188
vt 0.007812 0.867188
vt 0.007812 0.867188
vt 0.007812 0.867188
vt 0.007812 0.867188
vt 0.007812 0.867188
vt 0.007812 0.867188
vt 0.007812 0.867188
vt 0.007812 0.867188
vt 0.007812 0.867188
vt 0.007812 0.867188
vt 0.007812 0.867188
vt 0.007812 0.867188
vt 0.007812 0.867188
vt 0.007812 0.867188
vt 0.007812 0.867188
vt 0.007812 0.867188
vt 0.007812 0.867188
vt 0.007812 0.867188
vt 0.007812 0.867188
vt 0.007812 0.867188
vt 0.007812 0.867188
vt 0.007812 0.867188
vt 0.007812 0.867188
vt 0.007812 0.867188
vn 0.0000 1.0000 0.0000
vn 0.0000 0.7071 0.7071
vn -0.0000 -0.7071 0.7071
vn 0.0000 -1.0000 -0.0000
vn 0.0000 -0.7071 -0.7071
vn 0.0000 0.7071 -0.7071
vn 0.0000 0.0000 -1.0000
vn -1.0000 -0.0000 0.0000
vn -0.0000 -0.0000 1.0000
vn 1.0000 -0.0000 0.0000
usemtl Default_OBJ.024
s 1
f 1/1/1 2/2/1 3/3/2 4/4/2
f 5/5/3 6/6/3 7/7/4 8/8/4
f 9/9/5 10/10/4 11/11/4 12/12/5
f 13/13/6 14/14/6 2/2/1 1/1/1
f 15/15/5 16/16/5 17/17/7 18/18/7
f 19/19/8 20/20/8 21/21/8 22/22/8
f 23/23/8 19/19/8 22/22/8 24/24/8
f 25/25/8 26/26/8 19/19/8 23/23/8
f 27/27/9 28/28/9 6/6/3 5/5/3
f 26/26/8 29/29/8 20/20/8 19/19/8
f 30/30/10 31/31/10 32/32/10 33/33/10
f 34/34/10 35/35/10 31/31/10 30/30/10
f 36/36/10 34/34/10 30/30/10 37/37/10
f 17/17/8 38/38/8 39/39/8 40/40/8
f 38/38/8 28/28/8 41/41/8 39/39/8
f 37/37/10 30/30/10 33/33/10 42/42/10
f 9/9/5 12/12/5 43/43/7 44/44/7
f 45/45/1 39/39/1 41/41/2 46/46/2
f 46/46/2 41/41/2 28/28/9 27/27/9
f 23/23/7 24/24/6 35/35/6 34/34/7
f 29/29/3 26/26/4 37/37/4 42/42/3
f 25/25/5 23/23/7 34/34/7 36/36/5
f 21/21/2 20/20/9 33/33/9 32/32/2
f 24/24/6 22/22/1 31/31/1 35/35/6
f 26/26/4 25/25/5 36/36/5 37/37/4
f 8/8/4 7/7/4 16/16/5 15/15/5
f 22/22/1 21/21/2 32/32/2 31/31/1
f 20/20/9 29/29/3 42/42/3 33/33/9
f 47/47/6 40/40/6 39/39/1 45/45/1
f 48/48/9 4/4/2 3/3/2 49/49/9
f 50/50/10 45/45/10 46/46/10 27/27/10
f 51/51/3 48/48/9 49/49/9 52/52/3
f 8/8/10 50/50/10 27/27/10 5/5/10
f 10/10/4 51/51/3 52/52/3 11/11/4
f 18/18/7 17/17/7 40/40/6 47/47/6
f 7/7/8 6/6/8 28/28/8 38/38/8
f 18/18/10 47/47/10 45/45/10 50/50/10
f 15/15/10 18/18/10 50/50/10 8/8/10
f 16/16/8 7/7/8 38/38/8 17/17/8
f 44/44/7 43/43/7 14/14/6 13/13/6
o PipeStraightShort_Cube.001_PipeStraightShort_Cube.003
v 0.324123 0.930166 0.129207
v 0.324123 0.930166 0.393416
v 0.000000 0.795910 0.129207
v -0.324123 0.930167 0.129207
v -0.458379 1.254289 0.129207
v 0.458379 1.254289 0.129207
v 0.458379 1.254289 0.393416
v 0.355452 1.254289 0.303843
v 0.251342 1.002947 0.303843
v 0.000000 0.898838 0.303843
v -0.251342 1.002947 0.303843
v 0.000000 1.712667 0.129207
v 0.324123 1.578411 0.129207
v -0.324123 1.578412 0.129207
v -0.324123 1.578412 0.393416
v 0.000000 1.254289 0.129207
v -0.251342 1.505631 0.303843
v 0.000000 1.609740 0.303843
v 0.251342 1.505631 0.303843
v 0.324123 1.578411 0.393416
v 0.000000 1.712667 0.393416
v -0.458379 1.254289 0.393416
v 0.000000 0.795910 0.393416
v -0.324123 0.930167 0.393416
v -0.355452 1.254289 0.303843
v 0.000000 1.254289 0.303843
v -0.054741 1.199548 0.349971
v 0.054741 1.199548 0.349971
v 0.205280 1.459569 0.349971
v -0.054741 1.309030 0.349971
v 0.000000 1.254289 0.393416
vt 0.007812 0.851562
vt 0.007812 0.851562
vt 0.007812 0.851562
vt 0.007812 0.851562
vt 0.007812 0.851562
vt 0.007812 0.851562
vt 0.007812 0.851562
vt 0.007812 0.851562
vt 0.007812 0.851562
vt 0.007812 0.851562
vt 0.007812 0.851562
vt 0.007812 0.851562
vt 0.007812 0.851562
vt 0.007812 0.851562
vt 0.007812 0.851562
vt 0.007812 0.851562
vt 0.007812 0.851562
vt 0.007812 0.851562
vt 0.007812 0.851562
vt 0.007812 0.851562
vt 0.007812 0.851562
vt 0.007812 0.851562
vt 0.007812 0.851562
vt 0.007812 0.851562
vt 0.007812 0.804688
vt 0.007812 0.804688
vt 0.007812 0.804688
vt 0.007812 0.804688
vt 0.007812 0.804688
vt 0.007812 0.804688
vt 0.007812 0.804688
vt 0.007812 0.804688
vt 0.007812 0.804688
vt 0.007812 0.851562
vt 0.054688 0.804688
vt 0.054688 0.804688
vt 0.054688 0.804688
vt 0.054688 0.804688
vn 0.7071 -0.7071 0.0000
vn 0.4015 -0.4015 0.8232
vn -0.0000 -0.5678 0.8232
vn -0.0000 -1.0000 0.0000
vn -0.7071 -0.7071 0.0000
vn -0.4015 -0.4015 0.8232
vn -0.5678 -0.0000 0.8232
vn -1.0000 -0.0000 0.0000
vn 1.0000 0.0000 0.0000
vn 0.5678 0.0000 0.8232
vn -0.6565 -0.0000 0.7543
vn -0.4642 0.4642 0.7543
vn 0.0000 0.6565 0.7543
vn 0.4642 0.4642 0.7543
vn 0.0000 1.0000 0.0000
vn 0.0000 0.5678 0.8232
vn 0.4015 0.4015 0.8232
vn 0.7071 0.7071 0.0000
vn -0.7071 0.7071 0.0000
vn -0.4015 0.4015 0.8232
vn 0.0000 0.0000 -1.0000
vn 0.4642 -0.4642 0.7543
vn -0.0000 -0.6565 0.7543
vn -0.4642 -0.4642 0.7543
vn 0.0000 -0.0000 1.0000
vn 0.6565 0.0000 0.7543
usemtl Default_OBJ.024
s 1
f 53/53/11 54/54/12 75/55/13 55/56/14
f 56/57/15 76/58/16 74/59/17 57/60/18
f 58/61/19 59/62/20 54/54/12 53/53/11
f 54/54/12 59/62/20 60/63/21 61/64/22
f 76/58/16 75/55/13 62/65/23 63/66/24
f 64/67/25 73/68/26 72/69/27 65/70/28
f 65/70/28 72/69/27 59/62/20 58/61/19
f 55/56/14 75/55/13 76/58/16 56/57/15
f 66/71/29 67/72/30 73/68/26 64/67/25
f 68/73/31 64/67/31 65/70/31 58/61/31
f 55/56/31 68/73/31 58/61/31 53/53/31
f 57/60/18 74/59/17 67/72/30 66/71/29
f 73/68/26 67/72/30 69/74/32 70/75/33
f 57/60/31 66/71/31 64/67/31 68/73/31
f 56/57/31 57/60/31 68/73/31 55/56/31
f 59/62/20 72/69/27 71/76/34 60/63/21
f 77/77/35 78/78/35 70/79/35 69/80/35
f 78/78/35 60/81/35 71/82/35 70/79/35
f 62/83/35 61/84/35 60/81/35 78/78/35
f 63/85/35 62/83/35 78/78/35 77/77/35
f 72/69/27 73/68/26 70/75/33 71/76/34
f 74/59/17 76/58/16 63/66/24 77/86/36
f 75/55/13 54/54/12 61/64/22 62/65/23
f 67/72/30 74/59/17 77/86/36 69/74/32
f 79/87/35 80/88/35 81/89/35 82/90/35
o PipeStraightTillable_Cube.003_PipeStraightTillable_Cube.003
v 0.000000 1.268558 -0.224731
v 0.000000 0.670466 -0.224731
v -0.158908 0.670466 -0.158909
v -0.158908 1.268558 -0.158909
v 0.158908 0.670466 0.158907
v 0.224730 0.670466 -0.000001
v 0.224729 1.268558 -0.000001
v 0.158908 1.268558 0.158907
v -0.224729 0.670466 -0.000002
v -0.224730 1.268558 -0.000002
v 0.158908 1.268558 -0.158909
v 0.158908 0.670466 -0.158909
v 0.000000 0.670466 0.224728
v 0.000000 1.268558 0.224728
v -0.158908 1.268558 0.158906
v -0.158908 0.670466 0.158906
v 0.000000 0.670466 -0.000001
v 0.000000 1.268558 -0.000001
vt 0.007812 0.867188
vt 0.007812 0.867188
vt 0.007812 0.867188
vt 0.007812 0.867188
vt 0.007812 0.867188
vt 0.007812 0.867188
vt 0.007812 0.867188
vt 0.007812 0.867188
vt 0.007812 0.867188
vt 0.007812 0.867188
vt 0.007812 0.867188
vt 0.007812 0.867188
vt 0.007812 0.867188
vt 0.007812 0.867188
vt 0.007812 0.867188
vt 0.007812 0.867188
vt 0.007812 0.867188
vt 0.007812 0.867188
vn 0.0000 0.0000 -1.0000
vn -0.7071 -0.0000 -0.7071
vn 0.7071 0.0000 0.7071
vn 1.0000 0.0000 0.0000
vn -1.0000 -0.0000 -0.0000
vn 0.7071 0.0000 -0.7071
vn -0.0000 -0.0000 1.0000
vn -0.7071 -0.0000 0.7071
vn 0.0000 -1.0000 0.0000
vn 0.0000 1.0000 0.0000
usemtl Default_OBJ.025
s 1
f 84/91/37 85/92/37 86/93/38 87/94/38
f 88/95/39 89/96/40 90/97/40 91/98/39
f 92/99/41 93/100/41 87/94/38 86/93/38
f 94/101/42 95/102/42 85/92/37 84/91/37
f 96/103/43 88/95/39 91/98/39 97/104/43
f 98/105/44 99/106/44 96/103/43 97/104/43
f 99/106/44 98/105/44 93/100/41 92/99/41
f 90/97/40 89/96/40 95/102/42 94/101/42
f 85/92/45 95/102/45 100/107/45
f 99/106/45 92/99/45 100/107/45
f 92/99/45 86/93/45 100/107/45
f 86/93/45 85/92/45 100/107/45
f 89/96/45 88/95/45 100/107/45
f 96/103/45 99/106/45 100/107/45
f 95/102/45 89/96/45 100/107/45
f 88/95/45 96/103/45 100/107/45
f 91/98/46 90/97/46 101/108/46
f 90/97/46 94/101/46 101/108/46
f 94/101/46 84/91/46 101/108/46
f 93/100/46 98/105/46 101/108/46
f 97/104/46 91/98/46 101/108/46
f 84/91/46 87/94/46 101/108/46
f 98/105/46 97/104/46 101/108/46
f 87/94/46 93/100/46 101/108/46
