# Blender v2.90.0 Alpha OBJ File: 'Decos.blend'
# www.blender.org
o PipeStraightTillable_Cube.003_PipeStraightTillable_Cube.005
v 10.000000 -0.778128 -0.000000
v 10.000000 0.000001 0.778129
v 0.000000 0.000001 0.778128
v 0.000000 -0.778128 -0.000000
v 10.000000 0.778130 0.000000
v 0.000000 0.778130 0.000000
v 0.000000 0.000002 -0.778129
v 10.000000 0.000002 -0.778128
v 10.000000 0.000001 0.000000
v 0.000000 0.000001 0.000000
vt 0.007812 0.867188
vt 0.007812 0.867188
vt 0.007812 0.867188
vt 0.007812 0.867188
vt 0.007812 0.867188
vt 0.007812 0.867188
vt 0.007812 0.867188
vt 0.007812 0.867188
vt 0.007812 0.867188
vt 0.007812 0.867188
vn 0.0000 -1.0000 -0.0000
vn -0.0000 -0.0000 1.0000
vn -0.0000 1.0000 0.0000
vn 0.0000 0.0000 -1.0000
vn 1.0000 0.0000 0.0000
vn -1.0000 0.0000 0.0000
s 1
f 1/1/1 2/2/2 3/3/2 4/4/1
f 3/3/2 2/2/2 5/5/3 6/6/3
f 4/4/1 7/7/4 8/8/4 1/1/1
f 5/5/5 2/2/5 9/9/5
f 1/1/5 8/8/5 9/9/5
f 5/5/5 9/9/5 8/8/5
f 2/2/5 1/1/5 9/9/5
f 4/4/6 3/3/6 10/10/6
f 6/6/6 10/10/6 3/3/6
f 4/4/6 10/10/6 7/7/6
f 6/6/6 7/7/6 10/10/6
f 8/8/4 7/7/4 6/6/3 5/5/3
