# Blender v2.82 (sub 7) OBJ File: ''
# www.blender.org
mtllib pipe-elbow-side.mtl
o PipeCurve1_Cube.004
v 3.496260 0.505254 -0.570685
v 3.144714 0.714536 -0.931990
v 1.775282 0.638285 -0.170535
v 1.919975 0.451336 0.275595
v 0.569613 -0.661207 0.668678
v 0.569613 -0.935089 -0.000002
v 0.567966 0.000000 -0.000001
v 0.569613 -0.000000 0.945655
v 0.000000 -0.935088 -0.000002
v 0.000000 -0.661207 -0.668682
v 0.569613 -0.661207 -0.668682
v 0.000000 -0.661207 0.668678
v 0.000000 -0.000000 0.945655
v 0.000000 0.000000 -0.000001
v 0.569613 0.935090 0.000000
v 0.569613 0.661208 0.668680
v 4.000012 0.000003 -3.414595
v 4.000012 0.935092 -3.414595
v 3.349392 0.661211 -3.414595
v 3.079897 0.000003 -3.414595
v 4.000012 -0.935087 -3.414597
v 3.349392 -0.661205 -3.414595
v 4.650630 -0.661205 -3.414595
v 4.920125 0.000003 -3.414595
v 0.000000 0.935090 0.000000
v 0.000000 0.661208 0.668680
v 4.650629 0.661211 -3.414595
v 4.000012 0.000004 -4.000020
v 3.079897 0.000004 -4.000020
v 3.349392 0.661212 -4.000020
v 4.000012 0.935093 -4.000020
v 4.000012 -0.935085 -4.000021
v 3.349392 -0.661204 -4.000020
v 4.650630 -0.661204 -4.000020
v 4.920125 0.000004 -4.000020
v 1.775282 -0.638284 -0.170536
v 0.504604 -0.670939 -0.000002
v 0.504604 -0.474425 -0.479788
v 1.630589 -0.451335 -0.616665
v 3.415102 0.479358 -2.244475
v 3.874357 0.677913 -2.133940
v 3.998985 0.677079 -3.520986
v 3.527889 0.478768 -3.520986
v 4.650629 0.661212 -4.000020
v 0.000000 0.000000 -0.945655
v 0.569613 0.000000 -0.945655
v 0.569613 0.661208 -0.668680
v 0.000000 0.661208 -0.668680
v 1.979910 0.000000 0.460386
v 0.504604 0.474426 0.479787
v 0.504604 -0.000000 0.678520
v 4.333612 -0.479356 -2.023405
v 3.874357 -0.677912 -2.133940
v 3.998985 -0.677071 -3.520986
v 4.470082 -0.478761 -3.520986
v 1.919975 -0.451335 0.275594
v 0.504604 -0.474425 0.479785
v 2.793168 -0.505252 -1.293296
v 2.647552 0.000000 -1.442953
v 3.224872 0.000002 -2.290260
v 3.415102 -0.479355 -2.244475
v 3.332752 0.000004 -3.520986
v 3.608797 0.000001 -0.447400
v 3.496260 -0.505252 -0.570686
v 4.523842 0.000001 -1.977618
v 0.504604 0.670939 -0.000000
v 3.144714 -0.714535 -0.931991
v 2.793168 0.505254 -1.293296
v 1.630589 0.451336 -0.616664
v 0.504604 0.474426 -0.479786
v 4.333612 0.479357 -2.023404
v 4.665217 0.000004 -3.520986
v 4.470082 0.478768 -3.520986
v 1.570655 0.000000 -0.801457
v 0.504604 0.000000 -0.678523
v 3.527889 -0.478761 -3.520986
vt 0.007812 0.867188
vt 0.007812 0.867188
vt 0.007812 0.867188
vt 0.007812 0.867188
vt 0.007812 0.867188
vt 0.007812 0.867188
vt 0.007812 0.867188
vt 0.007812 0.867188
vt 0.007812 0.867188
vt 0.007812 0.867188
vt 0.007812 0.867188
vt 0.007812 0.867188
vt 0.007812 0.867188
vt 0.007812 0.867188
vt 0.007812 0.867188
vt 0.007812 0.867188
vt 0.007812 0.867188
vt 0.007812 0.867188
vt 0.007812 0.867188
vt 0.007812 0.867188
vt 0.007812 0.867188
vt 0.007812 0.867188
vt 0.007812 0.867188
vt 0.007812 0.867188
vt 0.007812 0.867188
vt 0.007812 0.867188
vt 0.007812 0.867188
vt 0.007812 0.867188
vt 0.007812 0.867188
vt 0.007812 0.867188
vt 0.007812 0.867188
vt 0.007812 0.867188
vt 0.007812 0.867188
vt 0.007812 0.867188
vt 0.007812 0.867188
vt 0.007812 0.867188
vt 0.007812 0.867188
vt 0.007812 0.867188
vt 0.007812 0.867188
vt 0.007812 0.867188
vt 0.007812 0.867188
vt 0.007812 0.867188
vt 0.007812 0.867188
vt 0.007812 0.867188
vt 0.007812 0.867188
vt 0.007812 0.867188
vt 0.007812 0.867188
vt 0.007812 0.867188
vt 0.007812 0.867188
vt 0.007812 0.867188
vt 0.007812 0.867188
vt 0.007812 0.867188
vt 0.007812 0.867188
vt 0.007812 0.867188
vt 0.007812 0.867188
vt 0.007812 0.867188
vt 0.007812 0.867188
vt 0.007812 0.867188
vt 0.007812 0.867188
vt 0.007812 0.867188
vt 0.007812 0.867188
vt 0.007812 0.867188
vt 0.007812 0.867188
vt 0.007812 0.867188
vt 0.007812 0.867188
vt 0.007812 0.867188
vt 0.007812 0.867188
vt 0.007812 0.867188
vt 0.007812 0.867188
vt 0.007812 0.867188
vt 0.007812 0.867188
vt 0.007812 0.867188
vt 0.007812 0.867188
vt 0.007812 0.867188
vt 0.007812 0.867188
vt 0.007812 0.867188
vn 0.5163 0.6680 0.5359
vn 0.0317 0.9985 0.0451
vn 0.0070 0.9986 0.0519
vn 0.2294 0.6789 0.6975
vn 1.0000 0.0012 -0.0012
vn 1.0000 0.0012 0.0000
vn 1.0000 0.0000 0.0000
vn 1.0000 0.0000 -0.0012
vn -0.0000 -1.0000 -0.0000
vn -0.0000 -0.7099 -0.7043
vn -1.0000 0.0000 0.0000
vn 1.0000 -0.0012 -0.0000
vn 1.0000 -0.0012 -0.0012
vn -0.0000 -0.0000 1.0000
vn 0.0000 1.0000 0.0000
vn 0.0000 0.7099 0.7043
vn 0.0000 0.0000 -1.0000
vn 0.0070 -0.9986 0.0519
vn 0.0280 -0.9992 0.0284
vn -0.0688 -0.7264 -0.6839
vn -0.2225 -0.7367 -0.6385
vn -0.6367 0.7358 -0.2308
vn 0.0586 0.9982 0.0098
vn 0.0222 0.9998 0.0018
vn -0.6996 0.7118 -0.0621
vn 0.0000 0.7099 -0.7043
vn -0.0000 -0.7099 0.7043
vn -0.7111 -0.7031 -0.0000
vn 0.7111 0.7031 0.0000
vn 0.7111 -0.7031 -0.0000
vn -0.7111 0.7031 0.0000
vn 0.3171 -0.0000 0.9484
vn 0.1142 0.6941 0.7108
vn 0.1478 -0.0000 0.9890
vn 0.7077 -0.6700 0.2242
vn 0.0586 -0.9982 0.0098
vn 0.0222 -0.9998 0.0018
vn 0.7209 -0.6900 0.0654
vn 0.2294 -0.6789 0.6975
vn 0.1142 -0.6941 0.7108
vn -0.4714 -0.7368 -0.4846
vn -0.6882 -0.0000 -0.7255
vn -0.9404 0.0000 -0.3400
vn -0.6367 -0.7358 -0.2308
vn 1.0000 0.0012 0.0012
vn 1.0000 0.0000 0.0012
vn 1.0000 -0.0012 0.0012
vn -0.9961 0.0000 -0.0878
vn 0.6946 -0.0000 0.7194
vn 0.5163 -0.6680 0.5359
vn 0.9531 -0.0000 0.3025
vn 0.0280 0.9992 0.0284
vn 0.0317 -0.9985 0.0451
vn -0.4714 0.7368 -0.4846
vn -0.2225 0.7367 -0.6385
vn -0.0688 0.7264 -0.6839
vn 0.7077 0.6700 0.2242
vn 0.9959 0.0000 0.0909
vn 0.7209 0.6900 0.0654
vn -0.3222 0.0000 -0.9467
vn -0.1133 0.0000 -0.9936
vn -0.6996 -0.7118 -0.0621
usemtl Default_OBJ.006
s 1
f 1/1/1 2/2/2 3/3/3 4/4/4
f 5/5/5 6/6/6 7/7/7 8/8/8
f 6/6/9 9/9/9 10/10/10 11/11/10
f 12/12/11 13/13/11 14/14/11 9/9/11
f 8/8/8 7/7/7 15/15/12 16/16/13
f 17/17/14 18/18/14 19/19/14 20/20/14
f 21/21/14 17/17/14 20/20/14 22/22/14
f 23/23/14 24/24/14 17/17/14 21/21/14
f 15/15/15 25/25/15 26/26/16 16/16/16
f 24/24/14 27/27/14 18/18/14 17/17/14
f 28/28/17 29/29/17 30/30/17 31/31/17
f 32/32/17 33/33/17 29/29/17 28/28/17
f 34/34/17 32/32/17 28/28/17 35/35/17
f 36/36/18 37/37/19 38/38/20 39/39/21
f 40/40/22 41/41/23 42/42/24 43/43/25
f 35/35/17 28/28/17 31/31/17 44/44/17
f 11/11/10 10/10/10 45/45/17 46/46/17
f 47/47/26 48/48/26 25/25/15 15/15/15
f 5/5/27 12/12/27 9/9/9 6/6/9
f 21/21/9 22/22/28 33/33/28 32/32/9
f 27/27/29 24/24/7 35/35/7 44/44/29
f 23/23/30 21/21/9 32/32/9 34/34/30
f 19/19/31 18/18/15 31/31/15 30/30/31
f 22/22/28 20/20/11 29/29/11 33/33/28
f 24/24/7 23/23/30 34/34/30 35/35/7
f 46/46/17 45/45/17 48/48/26 47/47/26
f 20/20/11 19/19/31 30/30/31 29/29/11
f 18/18/15 27/27/29 44/44/29 31/31/15
f 8/8/14 13/13/14 12/12/27 5/5/27
f 49/49/32 4/4/4 50/50/33 51/51/34
f 52/52/35 53/53/36 54/54/37 55/55/38
f 13/13/11 26/26/11 25/25/11 14/14/11
f 56/56/39 57/57/40 37/37/19 36/36/18
f 58/58/41 59/59/42 60/60/43 61/61/44
f 16/16/16 26/26/16 13/13/14 8/8/14
f 9/9/11 14/14/11 45/45/11 10/10/11
f 6/6/6 11/11/45 46/46/46 7/7/7
f 14/14/11 25/25/11 48/48/11 45/45/11
f 7/7/7 46/46/46 47/47/47 15/15/12
f 60/60/43 40/40/22 43/43/25 62/62/48
f 63/63/49 64/64/50 52/52/35 65/65/51
f 4/4/4 3/3/3 66/66/52 50/50/33
f 67/67/53 58/58/41 61/61/44 53/53/36
f 3/3/3 2/2/2 68/68/54 69/69/55
f 66/66/52 3/3/3 69/69/55 70/70/56
f 71/71/57 65/65/51 72/72/58 73/73/59
f 74/74/60 59/59/42 58/58/41 39/39/21
f 75/75/61 74/74/60 39/39/21 38/38/20
f 1/1/1 63/63/49 65/65/51 71/71/57
f 65/65/51 52/52/35 55/55/38 72/72/58
f 61/61/44 60/60/43 62/62/48 76/76/62
f 64/64/50 56/56/39 36/36/18 67/67/53
f 57/57/40 56/56/39 49/49/32 51/51/34
f 56/56/39 64/64/50 63/63/49 49/49/32
f 64/64/50 67/67/53 53/53/36 52/52/35
f 53/53/36 61/61/44 76/76/62 54/54/37
f 59/59/42 68/68/54 40/40/22 60/60/43
f 63/63/49 1/1/1 4/4/4 49/49/32
f 70/70/56 69/69/55 74/74/60 75/75/61
f 69/69/55 68/68/54 59/59/42 74/74/60
f 68/68/54 2/2/2 41/41/23 40/40/22
f 2/2/2 1/1/1 71/71/57 41/41/23
f 41/41/23 71/71/57 73/73/59 42/42/24
f 67/67/53 36/36/18 39/39/21 58/58/41
