# Blender v2.90.0 Alpha OBJ File: 'Decos.blend'
# www.blender.org
o PipeCurve1_Cube.004
v 3.344223 0.505254 -0.472451
v 2.986956 0.714536 -0.829719
v 1.503116 0.701955 -0.168629
v 1.664832 0.496357 0.316520
v 0.578883 -0.661207 0.661206
v 0.578883 -0.935089 -0.000002
v 0.578883 0.000000 -0.000001
v 0.578883 -0.000000 0.935089
v 0.000000 -0.935088 -0.000002
v 0.000000 -0.661207 -0.661210
v 0.578883 -0.661207 -0.661210
v 0.000000 -0.661207 0.661206
v 0.000000 -0.000000 0.935089
v 0.000000 0.000000 -0.000001
v 0.578883 0.935090 0.000000
v 0.578883 0.661208 0.661208
v 4.065112 0.000003 -3.026914
v 4.065112 0.935092 -3.026914
v 3.403904 0.661211 -3.026914
v 3.130022 0.000003 -3.026914
v 4.065112 -0.935087 -3.026916
v 3.403904 -0.661205 -3.026914
v 4.726319 -0.661205 -3.026914
v 5.000200 0.000003 -3.026914
v 0.000000 0.935090 0.000000
v 0.000000 0.661208 0.661208
v 4.726318 0.661211 -3.026914
v 4.065112 0.000004 -3.605797
v 3.130022 0.000004 -3.605797
v 3.403904 0.661212 -3.605797
v 4.065112 0.935093 -3.605797
v 4.065112 -0.935085 -3.605798
v 3.403904 -0.661204 -3.605797
v 4.726319 -0.661204 -3.605797
v 5.000200 0.000004 -3.605797
v 1.503116 -0.701954 -0.168630
v 0.558851 -0.740531 -0.000002
v 0.558851 -0.523634 -0.523636
v 1.341400 -0.496356 -0.653779
v 3.169624 0.479358 -1.869868
v 3.636353 0.677913 -1.760568
v 4.064069 0.677079 -3.132116
v 3.585305 0.478768 -3.132116
v 4.726318 0.661212 -3.605797
v 0.000000 0.000000 -0.935089
v 0.578883 0.000000 -0.935089
v 0.578883 0.661208 -0.661208
v 0.000000 0.661208 -0.661208
v 1.731818 -0.000000 0.517474
v 0.558851 0.523635 0.523635
v 0.558851 -0.000000 0.740530
v 4.103083 -0.479356 -1.651268
v 3.636353 -0.677912 -1.760568
v 4.064069 -0.677071 -3.132116
v 4.542833 -0.478761 -3.132116
v 1.664832 -0.496356 0.316519
v 0.558851 -0.523634 0.523633
v 2.629688 -0.505252 -1.186988
v 2.481702 0.000000 -1.334973
v 2.976298 0.000002 -1.915142
v 3.169624 -0.479355 -1.869868
v 3.386993 0.000004 -3.132116
v 3.327052 0.000001 -0.350544
v 3.344223 -0.505252 -0.472452
v 4.296409 0.000001 -1.605993
v 0.558851 0.740531 0.000000
v 2.986956 -0.714535 -0.829720
v 2.629688 0.505254 -1.186988
v 1.341400 0.496357 -0.653778
v 0.558851 0.523635 -0.523634
v 4.103083 0.479357 -1.651267
v 4.741144 0.000004 -3.132116
v 4.542833 0.478768 -3.132116
v 1.274415 0.000000 -0.854734
v 0.558851 0.000000 -0.740533
v 3.585305 -0.478761 -3.132116
vt 0.007812 0.867188
vt 0.007812 0.867188
vt 0.007812 0.867188
vt 0.007812 0.867188
vt 0.007812 0.867188
vt 0.007812 0.867188
vt 0.007812 0.867188
vt 0.007812 0.867188
vt 0.007812 0.867188
vt 0.007812 0.867188
vt 0.007812 0.867188
vt 0.007812 0.867188
vt 0.007812 0.867188
vt 0.007812 0.867188
vt 0.007812 0.867188
vt 0.007812 0.867188
vt 0.007812 0.867188
vt 0.007812 0.867188
vt 0.007812 0.867188
vt 0.007812 0.867188
vt 0.007812 0.867188
vt 0.007812 0.867188
vt 0.007812 0.867188
vt 0.007812 0.867188
vt 0.007812 0.867188
vt 0.007812 0.867188
vt 0.007812 0.867188
vt 0.007812 0.867188
vt 0.007812 0.867188
vt 0.007812 0.867188
vt 0.007812 0.867188
vt 0.007812 0.867188
vt 0.007812 0.867188
vt 0.007812 0.867188
vt 0.007812 0.867188
vt 0.007812 0.867188
vt 0.007812 0.867188
vt 0.007812 0.867188
vt 0.007812 0.867188
vt 0.007812 0.867188
vt 0.007812 0.867188
vt 0.007812 0.867188
vt 0.007812 0.867188
vt 0.007812 0.867188
vt 0.007812 0.867188
vt 0.007812 0.867188
vt 0.007812 0.867188
vt 0.007812 0.867188
vt 0.007812 0.867188
vt 0.007812 0.867188
vt 0.007812 0.867188
vt 0.007812 0.867188
vt 0.007812 0.867188
vt 0.007812 0.867188
vt 0.007812 0.867188
vt 0.007812 0.867188
vt 0.007812 0.867188
vt 0.007812 0.867188
vt 0.007812 0.867188
vt 0.007812 0.867188
vt 0.007812 0.867188
vt 0.007812 0.867188
vt 0.007812 0.867188
vt 0.007812 0.867188
vt 0.007812 0.867188
vt 0.007812 0.867188
vt 0.007812 0.867188
vt 0.007812 0.867188
vt 0.007812 0.867188
vt 0.007812 0.867188
vt 0.007812 0.867188
vt 0.007812 0.867188
vt 0.007812 0.867188
vt 0.007812 0.867188
vt 0.007812 0.867188
vt 0.007812 0.867188
vn 0.5220 0.6341 0.5705
vn 0.0457 0.9982 0.0389
vn 0.0253 0.9993 0.0259
vn 0.2416 0.6729 0.6992
vn 1.0000 -0.0000 0.0000
vn -0.0000 -1.0000 -0.0000
vn -0.0000 -0.7071 -0.7071
vn -1.0000 0.0000 0.0000
vn -0.0000 -0.0000 1.0000
vn 0.0000 1.0000 0.0000
vn 0.0000 0.7071 0.7071
vn 0.0000 0.0000 -1.0000
vn 0.0253 -0.9993 0.0259
vn 0.0434 -0.9984 0.0368
vn -0.0886 -0.7306 -0.6770
vn -0.1818 -0.7187 -0.6711
vn -0.6043 0.7213 -0.3385
vn 0.0402 0.9992 0.0068
vn 0.0722 0.9972 0.0188
vn -0.6429 0.7362 -0.2117
vn 0.0000 0.7071 -0.7071
vn -0.0000 -0.7071 0.7071
vn -0.7071 -0.7071 -0.0000
vn 0.7071 0.7071 0.0000
vn 0.7071 -0.7071 -0.0000
vn -0.7071 0.7071 0.0000
vn 0.3251 -0.0000 0.9457
vn 0.1508 0.6865 0.7113
vn 0.1903 -0.0000 0.9817
vn 0.6811 -0.6560 0.3254
vn 0.0402 -0.9992 0.0068
vn 0.0722 -0.9972 0.0188
vn 0.7173 -0.6636 0.2125
vn 0.2416 -0.6729 0.6992
vn 0.1508 -0.6865 0.7113
vn -0.4014 -0.7383 -0.5420
vn -0.5843 -0.0000 -0.8115
vn -0.8680 0.0000 -0.4966
vn -0.6043 -0.7213 -0.3385
vn -0.9487 0.0000 -0.3163
vn 0.6331 -0.0000 0.7741
vn 0.5220 -0.6341 0.5705
vn 0.9028 -0.0000 0.4301
vn 0.0434 0.9984 0.0368
vn 0.0457 -0.9982 0.0389
vn -0.4014 0.7383 -0.5420
vn -0.1818 0.7187 -0.6711
vn -0.0886 0.7306 -0.6770
vn 0.6811 0.6560 0.3254
vn 0.9594 0.0000 0.2821
vn 0.7173 0.6636 0.2125
vn -0.2661 0.0000 -0.9639
vn -0.1536 0.0000 -0.9881
vn -0.6429 -0.7362 -0.2117
s 1
f 1/1/1 2/2/2 3/3/3 4/4/4
f 5/5/5 6/6/5 7/7/5 8/8/5
f 6/6/6 9/9/6 10/10/7 11/11/7
f 12/12/8 13/13/8 14/14/8 9/9/8
f 8/8/5 7/7/5 15/15/5 16/16/5
f 17/17/9 18/18/9 19/19/9 20/20/9
f 21/21/9 17/17/9 20/20/9 22/22/9
f 23/23/9 24/24/9 17/17/9 21/21/9
f 15/15/10 25/25/10 26/26/11 16/16/11
f 24/24/9 27/27/9 18/18/9 17/17/9
f 28/28/12 29/29/12 30/30/12 31/31/12
f 32/32/12 33/33/12 29/29/12 28/28/12
f 34/34/12 32/32/12 28/28/12 35/35/12
f 36/36/13 37/37/14 38/38/15 39/39/16
f 40/40/17 41/41/18 42/42/19 43/43/20
f 35/35/12 28/28/12 31/31/12 44/44/12
f 11/11/7 10/10/7 45/45/12 46/46/12
f 47/47/21 48/48/21 25/25/10 15/15/10
f 5/5/22 12/12/22 9/9/6 6/6/6
f 21/21/6 22/22/23 33/33/23 32/32/6
f 27/27/24 24/24/5 35/35/5 44/44/24
f 23/23/25 21/21/6 32/32/6 34/34/25
f 19/19/26 18/18/10 31/31/10 30/30/26
f 22/22/23 20/20/8 29/29/8 33/33/23
f 24/24/5 23/23/25 34/34/25 35/35/5
f 46/46/12 45/45/12 48/48/21 47/47/21
f 20/20/8 19/19/26 30/30/26 29/29/8
f 18/18/10 27/27/24 44/44/24 31/31/10
f 8/8/9 13/13/9 12/12/22 5/5/22
f 49/49/27 4/4/4 50/50/28 51/51/29
f 52/52/30 53/53/31 54/54/32 55/55/33
f 13/13/8 26/26/8 25/25/8 14/14/8
f 56/56/34 57/57/35 37/37/14 36/36/13
f 58/58/36 59/59/37 60/60/38 61/61/39
f 16/16/11 26/26/11 13/13/9 8/8/9
f 9/9/8 14/14/8 45/45/8 10/10/8
f 6/6/5 11/11/5 46/46/5 7/7/5
f 14/14/8 25/25/8 48/48/8 45/45/8
f 7/7/5 46/46/5 47/47/5 15/15/5
f 60/60/38 40/40/17 43/43/20 62/62/40
f 63/63/41 64/64/42 52/52/30 65/65/43
f 4/4/4 3/3/3 66/66/44 50/50/28
f 67/67/45 58/58/36 61/61/39 53/53/31
f 3/3/3 2/2/2 68/68/46 69/69/47
f 66/66/44 3/3/3 69/69/47 70/70/48
f 71/71/49 65/65/43 72/72/50 73/73/51
f 74/74/52 59/59/37 58/58/36 39/39/16
f 75/75/53 74/74/52 39/39/16 38/38/15
f 1/1/1 63/63/41 65/65/43 71/71/49
f 65/65/43 52/52/30 55/55/33 72/72/50
f 61/61/39 60/60/38 62/62/40 76/76/54
f 64/64/42 56/56/34 36/36/13 67/67/45
f 57/57/35 56/56/34 49/49/27 51/51/29
f 56/56/34 64/64/42 63/63/41 49/49/27
f 64/64/42 67/67/45 53/53/31 52/52/30
f 53/53/31 61/61/39 76/76/54 54/54/32
f 59/59/37 68/68/46 40/40/17 60/60/38
f 63/63/41 1/1/1 4/4/4 49/49/27
f 70/70/48 69/69/47 74/74/52 75/75/53
f 69/69/47 68/68/46 59/59/37 74/74/52
f 68/68/46 2/2/2 41/41/18 40/40/17
f 2/2/2 1/1/1 71/71/49 41/41/18
f 41/41/18 71/71/49 73/73/51 42/42/19
f 67/67/45 36/36/13 39/39/16 58/58/36
