# Blender v2.90.0 Alpha OBJ File: 'Decos.blend'
# www.blender.org
o PipeStraightTillable_Cube.002_PipeStraightTillable_Cube.001
v 0.547105 9.999998 0.547114
v 0.000000 9.999998 0.773733
v 0.000000 -0.000001 0.773723
v 0.547105 -0.000000 0.547104
v -0.547105 -0.000000 0.547105
v -0.547105 9.999998 0.547115
v -0.773723 9.999998 0.000010
v -0.773723 0.000000 0.000000
v 0.547105 0.000001 -0.547105
v 0.000000 0.000001 -0.773723
v -0.000001 9.999998 -0.773713
v 0.547104 9.999998 -0.547096
v 0.000000 9.999999 0.000009
v 0.773723 9.999998 0.000009
v -0.547106 9.999998 -0.547095
v 0.773723 0.000000 -0.000001
v 0.000000 0.000000 0.000000
v -0.547105 0.000001 -0.547105
vt 0.007812 0.867188
vt 0.007812 0.867188
vt 0.007812 0.867188
vt 0.007812 0.867188
vt 0.007812 0.867188
vt 0.007812 0.867188
vt 0.007812 0.867188
vt 0.007812 0.867188
vt 0.007812 0.867188
vt 0.007812 0.867188
vt 0.007812 0.867188
vt 0.007812 0.867188
vt 0.007812 0.867188
vt 0.007812 0.867188
vt 0.007812 0.867188
vt 0.007812 0.867188
vt 0.007812 0.867188
vt 0.007812 0.867188
vn 0.7071 -0.0000 0.7071
vn 0.0000 -0.0000 1.0000
vn -0.7071 -0.0000 0.7071
vn -1.0000 -0.0000 0.0000
vn 0.7071 0.0000 -0.7071
vn -0.0000 0.0000 -1.0000
vn -0.0000 1.0000 0.0000
vn 0.0000 -1.0000 -0.0000
vn -0.7071 0.0000 -0.7071
vn 1.0000 0.0000 -0.0000
s 1
f 1/1/1 2/2/2 3/3/2 4/4/1
f 5/5/3 6/6/3 7/7/4 8/8/4
f 9/9/5 10/10/6 11/11/6 12/12/5
f 7/7/7 6/6/7 2/2/7 13/13/7
f 14/14/7 12/12/7 11/11/7 13/13/7
f 7/7/7 13/13/7 11/11/7 15/15/7
f 2/2/7 1/1/7 14/14/7 13/13/7
f 16/16/8 4/4/8 3/3/8 17/17/8
f 8/8/8 17/17/8 3/3/8 5/5/8
f 16/16/8 17/17/8 10/10/8 9/9/8
f 8/8/8 18/18/8 10/10/8 17/17/8
f 15/15/9 18/18/9 8/8/4 7/7/4
f 14/14/10 1/1/1 4/4/1 16/16/10
f 3/3/2 2/2/2 6/6/3 5/5/3
f 16/16/10 9/9/5 12/12/5 14/14/10
f 11/11/6 10/10/6 18/18/9 15/15/9
