# Blender v2.82 (sub 7) OBJ File: ''
# www.blender.org
mtllib pipe-tee-up-and-down.mtl
o PipeStraightShort_Cube.002
v 0.778128 -1.754765 0.000000
v 0.778128 1.757029 0.000000
v 0.550220 1.757029 0.550220
v 0.550220 -1.754765 0.550220
v -0.661208 1.745891 0.661208
v -0.661208 2.001132 0.661208
v -0.935089 2.001132 -0.000000
v -0.935089 1.745891 -0.000000
v -0.550219 -1.754765 -0.550220
v -0.778128 -1.754765 -0.000000
v -0.778128 1.757029 -0.000000
v -0.550219 1.757029 -0.550220
v 0.550221 -1.754765 -0.550220
v 0.550221 1.757029 -0.550220
v -0.661207 1.745891 -0.661208
v -0.661207 2.001132 -0.661208
v 0.000001 2.001132 -0.935089
v 0.000001 1.745891 -0.935089
v -0.000000 -1.743627 0.000000
v -0.000000 -1.743627 0.935090
v 0.661208 -1.743627 0.661208
v 0.935089 -1.743627 0.000000
v 0.000001 -1.743627 -0.935089
v 0.661209 -1.743627 -0.661208
v -0.661207 -1.743627 -0.661208
v -0.935089 -1.743627 -0.000000
v 0.000000 1.745891 0.935090
v 0.000000 2.001132 0.935089
v -0.661208 -1.743627 0.661208
v -0.000000 -2.005407 0.000000
v 0.935089 -2.005407 0.000000
v 0.661208 -2.005407 0.661208
v -0.000000 -2.005407 0.935089
v 0.000001 -2.005407 -0.935089
v 0.661209 -2.005407 -0.661208
v -0.661207 -2.005407 -0.661208
v -0.935089 -2.005407 -0.000000
v 0.000000 2.001132 0.000000
v 0.935089 2.001132 0.000000
v 0.661209 2.001132 -0.661208
v 0.661208 2.001132 0.661208
v -0.661208 -2.005407 0.661208
v 0.000001 1.757029 -0.778128
v 0.000001 -1.754765 -0.778128
v 0.935089 1.745891 0.000000
v 0.661208 1.745891 0.661208
v 0.661209 1.745891 -0.661208
v -0.000000 -1.754765 0.778129
v 0.000000 1.757029 0.778129
v 0.000000 1.745891 0.000000
v -0.550220 -1.754765 0.550220
v -0.550220 1.757029 0.550220
vt 0.007812 0.867188
vt 0.007812 0.867188
vt 0.007812 0.867188
vt 0.007812 0.867188
vt 0.007812 0.867188
vt 0.007812 0.867188
vt 0.007812 0.867188
vt 0.007812 0.867188
vt 0.007812 0.867188
vt 0.007812 0.867188
vt 0.007812 0.867188
vt 0.007812 0.867188
vt 0.007812 0.867188
vt 0.007812 0.867188
vt 0.007812 0.867188
vt 0.007812 0.867188
vt 0.007812 0.867188
vt 0.007812 0.867188
vt 0.007812 0.867188
vt 0.007812 0.867188
vt 0.007812 0.867188
vt 0.007812 0.867188
vt 0.007812 0.867188
vt 0.007812 0.867188
vt 0.007812 0.867188
vt 0.007812 0.867188
vt 0.007812 0.867188
vt 0.007812 0.867188
vt 0.007812 0.867188
vt 0.007812 0.867188
vt 0.007812 0.867188
vt 0.007812 0.867188
vt 0.007812 0.867188
vt 0.007812 0.867188
vt 0.007812 0.867188
vt 0.007812 0.867188
vt 0.007812 0.867188
vt 0.007812 0.867188
vt 0.007812 0.867188
vt 0.007812 0.867188
vt 0.007812 0.867188
vt 0.007812 0.867188
vt 0.007812 0.867188
vt 0.007812 0.867188
vt 0.007812 0.867188
vt 0.007812 0.867188
vt 0.007812 0.867188
vt 0.007812 0.867188
vt 0.007812 0.867188
vt 0.007812 0.867188
vt 0.007812 0.867188
vt 0.007812 0.867188
vn 1.0000 -0.0000 0.0000
vn 0.7071 -0.0000 0.7071
vn -0.7071 0.0000 0.7071
vn -1.0000 0.0000 -0.0000
vn -0.7071 0.0000 -0.7071
vn 0.7071 -0.0000 -0.7071
vn 0.0000 0.0000 -1.0000
vn 0.0000 1.0000 -0.0000
vn -0.0000 0.0000 1.0000
vn 0.0000 -1.0000 -0.0000
usemtl Default_OBJ.003
s 1
f 1/1/1 2/2/1 3/3/2 4/4/2
f 5/5/3 6/6/3 7/7/4 8/8/4
f 9/9/5 10/10/4 11/11/4 12/12/5
f 13/13/6 14/14/6 2/2/1 1/1/1
f 15/15/5 16/16/5 17/17/7 18/18/7
f 19/19/8 20/20/8 21/21/8 22/22/8
f 23/23/8 19/19/8 22/22/8 24/24/8
f 25/25/8 26/26/8 19/19/8 23/23/8
f 27/27/9 28/28/9 6/6/3 5/5/3
f 26/26/8 29/29/8 20/20/8 19/19/8
f 30/30/10 31/31/10 32/32/10 33/33/10
f 34/34/10 35/35/10 31/31/10 30/30/10
f 36/36/10 34/34/10 30/30/10 37/37/10
f 17/17/8 38/38/8 39/39/8 40/40/8
f 38/38/8 28/28/8 41/41/8 39/39/8
f 37/37/10 30/30/10 33/33/10 42/42/10
f 9/9/5 12/12/5 43/43/7 44/44/7
f 45/45/1 39/39/1 41/41/2 46/46/2
f 46/46/2 41/41/2 28/28/9 27/27/9
f 23/23/7 24/24/6 35/35/6 34/34/7
f 29/29/3 26/26/4 37/37/4 42/42/3
f 25/25/5 23/23/7 34/34/7 36/36/5
f 21/21/2 20/20/9 33/33/9 32/32/2
f 24/24/6 22/22/1 31/31/1 35/35/6
f 26/26/4 25/25/5 36/36/5 37/37/4
f 8/8/4 7/7/4 16/16/5 15/15/5
f 22/22/1 21/21/2 32/32/2 31/31/1
f 20/20/9 29/29/3 42/42/3 33/33/9
f 47/47/6 40/40/6 39/39/1 45/45/1
f 48/48/9 4/4/2 3/3/2 49/49/9
f 50/50/10 45/45/10 46/46/10 27/27/10
f 51/51/3 48/48/9 49/49/9 52/52/3
f 8/8/10 50/50/10 27/27/10 5/5/10
f 10/10/4 51/51/3 52/52/3 11/11/4
f 18/18/7 17/17/7 40/40/6 47/47/6
f 7/7/8 6/6/8 28/28/8 38/38/8
f 18/18/10 47/47/10 45/45/10 50/50/10
f 15/15/10 18/18/10 50/50/10 8/8/10
f 16/16/8 7/7/8 38/38/8 17/17/8
f 44/44/7 43/43/7 14/14/6 13/13/6
o PipeStraightShort_Cube.001_PipeStraightShort_Cube.003
v -0.000000 0.778128 0.000000
v -1.757029 0.778128 0.000000
v -1.757029 0.550220 0.550220
v -0.000000 0.550220 0.550220
v -1.745891 -0.661208 0.661208
v -2.001132 -0.661208 0.661208
v -2.001132 -0.935089 -0.000000
v -1.745891 -0.935089 -0.000000
v -0.000000 -0.550219 -0.550220
v -0.000000 -0.778128 -0.000000
v -1.757029 -0.778128 -0.000000
v -1.757029 -0.550219 -0.550220
v -0.000000 0.550221 -0.550220
v -1.757029 0.550221 -0.550220
v -1.745891 -0.661207 -0.661208
v -2.001132 -0.661207 -0.661208
v -2.001132 0.000001 -0.935089
v -1.745891 0.000001 -0.935089
v -1.745891 -0.000000 0.935090
v -2.001132 -0.000000 0.935089
v -2.001132 0.000000 0.000000
v -2.001132 0.935089 0.000000
v -2.001132 0.661209 -0.661208
v -2.001132 0.661208 0.661208
v -1.757029 0.000001 -0.778128
v -0.000000 0.000001 -0.778128
v -1.745891 0.935089 0.000000
v -1.745891 0.661208 0.661208
v -1.745891 0.661209 -0.661208
v -0.000000 -0.000000 0.778129
v -1.757029 -0.000000 0.778129
v -1.745891 0.000000 0.000000
v -0.000000 -0.550220 0.550220
v -1.757029 -0.550220 0.550220
vt 0.007812 0.867188
vt 0.007812 0.867188
vt 0.007812 0.867188
vt 0.007812 0.867188
vt 0.007812 0.867188
vt 0.007812 0.867188
vt 0.007812 0.867188
vt 0.007812 0.867188
vt 0.007812 0.867188
vt 0.007812 0.867188
vt 0.007812 0.867188
vt 0.007812 0.867188
vt 0.007812 0.867188
vt 0.007812 0.867188
vt 0.007812 0.867188
vt 0.007812 0.867188
vt 0.007812 0.867188
vt 0.007812 0.867188
vt 0.007812 0.867188
vt 0.007812 0.867188
vt 0.007812 0.867188
vt 0.007812 0.867188
vt 0.007812 0.867188
vt 0.007812 0.867188
vt 0.007812 0.867188
vt 0.007812 0.867188
vt 0.007812 0.867188
vt 0.007812 0.867188
vt 0.007812 0.867188
vt 0.007812 0.867188
vt 0.007812 0.867188
vt 0.007812 0.867188
vt 0.007812 0.867188
vt 0.007812 0.867188
vn 0.0000 1.0000 0.0000
vn 0.0000 0.7071 0.7071
vn -0.0000 -0.7071 0.7071
vn 0.0000 -1.0000 -0.0000
vn 0.0000 -0.7071 -0.7071
vn 0.0000 0.7071 -0.7071
vn 0.0000 0.0000 -1.0000
vn -0.0000 -0.0000 1.0000
vn -1.0000 0.0000 0.0000
vn 1.0000 0.0000 0.0000
usemtl Default_OBJ.003
s 1
f 53/53/11 54/54/11 55/55/12 56/56/12
f 57/57/13 58/58/13 59/59/14 60/60/14
f 61/61/15 62/62/14 63/63/14 64/64/15
f 65/65/16 66/66/16 54/54/11 53/53/11
f 67/67/15 68/68/15 69/69/17 70/70/17
f 71/71/18 72/72/18 58/58/13 57/57/13
f 69/69/19 73/73/19 74/74/19 75/75/19
f 73/73/19 72/72/19 76/76/19 74/74/19
f 61/61/15 64/64/15 77/77/17 78/78/17
f 79/79/11 74/74/11 76/76/12 80/80/12
f 80/80/12 76/76/12 72/72/18 71/71/18
f 60/60/14 59/59/14 68/68/15 67/67/15
f 81/81/16 75/75/16 74/74/11 79/79/11
f 82/82/18 56/56/12 55/55/12 83/83/18
f 84/84/20 79/79/20 80/80/20 71/71/20
f 85/85/13 82/82/18 83/83/18 86/86/13
f 60/60/20 84/84/20 71/71/20 57/57/20
f 62/62/14 85/85/13 86/86/13 63/63/14
f 70/70/17 69/69/17 75/75/16 81/81/16
f 59/59/19 58/58/19 72/72/19 73/73/19
f 70/70/20 81/81/20 79/79/20 84/84/20
f 67/67/20 70/70/20 84/84/20 60/60/20
f 68/68/19 59/59/19 73/73/19 69/69/19
f 78/78/17 77/77/17 66/66/16 65/65/16
