# Blender v2.82 (sub 7) OBJ File: ''
# www.blender.org
mtllib pipe.mtl
o PipeStraightTillable_Cube.003_PipeStraightTillable_Cube.002
v -0.000000 0.778130 -0.000000
v -10.000000 0.778130 0.000001
v -10.000000 0.550222 0.550221
v 0.000000 0.550222 0.550220
v -10.000000 -0.550219 -0.550219
v -10.000000 0.000001 -0.778128
v -0.000000 0.000001 -0.778128
v -0.000000 -0.550219 -0.550220
v -10.000000 0.000002 0.778129
v 0.000000 0.000002 0.778129
v -0.000000 0.550221 -0.550220
v -10.000000 0.550221 -0.550219
v -10.000000 -0.778128 0.000001
v 0.000000 -0.778128 0.000000
v 0.000000 -0.550218 0.550220
v -10.000000 -0.550218 0.550221
v -10.000000 0.000001 0.000001
v -0.000000 0.000001 -0.000000
vt 0.007812 0.867188
vt 0.007812 0.867188
vt 0.007812 0.867188
vt 0.007812 0.867188
vt 0.007812 0.867188
vt 0.007812 0.867188
vt 0.007812 0.867188
vt 0.007812 0.867188
vt 0.007812 0.867188
vt 0.007812 0.867188
vt 0.007812 0.867188
vt 0.007812 0.867188
vt 0.007812 0.867188
vt 0.007812 0.867188
vt 0.007812 0.867188
vt 0.007812 0.867188
vt 0.007812 0.867188
vt 0.007812 0.867188
vn -0.0000 1.0000 -0.0000
vn 0.0000 0.7071 0.7071
vn -0.0000 -0.7071 -0.7071
vn -0.0000 -0.0000 -1.0000
vn 0.0000 0.0000 1.0000
vn -0.0000 0.7071 -0.7071
vn -0.0000 -1.0000 0.0000
vn 0.0000 -0.7071 0.7071
vn -1.0000 -0.0000 0.0000
vn 1.0000 0.0000 -0.0000
usemtl Default_OBJ.014
s 1
f 1/1/1 2/2/1 3/3/2 4/4/2
f 5/5/3 6/6/4 7/7/4 8/8/3
f 9/9/5 10/10/5 4/4/2 3/3/2
f 11/11/6 12/12/6 2/2/1 1/1/1
f 13/13/7 5/5/3 8/8/3 14/14/7
f 15/15/8 16/16/8 13/13/7 14/14/7
f 16/16/8 15/15/8 10/10/5 9/9/5
f 7/7/4 6/6/4 12/12/6 11/11/6
f 2/2/9 12/12/9 17/17/9
f 16/16/9 9/9/9 17/17/9
f 9/9/9 3/3/9 17/17/9
f 3/3/9 2/2/9 17/17/9
f 6/6/9 5/5/9 17/17/9
f 13/13/9 16/16/9 17/17/9
f 12/12/9 6/6/9 17/17/9
f 5/5/9 13/13/9 17/17/9
f 8/8/10 7/7/10 18/18/10
f 7/7/10 11/11/10 18/18/10
f 11/11/10 1/1/10 18/18/10
f 10/10/10 15/15/10 18/18/10
f 14/14/10 8/8/10 18/18/10
f 1/1/10 4/4/10 18/18/10
f 15/15/10 14/14/10 18/18/10
f 4/4/10 10/10/10 18/18/10
