# Blender v2.90.0 Alpha OBJ File: 'Decos.blend'
# www.blender.org
o PillarSquare_Cube_Cube.001
v 5.218073 -1.009291 0.205428
v 5.218073 0.735748 0.205428
v 5.218073 0.735748 -0.205416
v 5.218073 -1.009291 -0.205416
v 5.966554 0.735748 -0.205416
v 5.966554 -1.009291 -0.205416
v 5.966554 0.735748 0.205428
v 5.966554 -1.009291 0.205428
v 5.592314 0.403591 0.110020
v 5.592314 -0.448864 0.110019
v 5.592314 -0.448865 -0.110007
v 5.592314 0.403591 -0.110007
v -5.592314 0.403592 0.110018
v -5.592314 0.403592 -0.110009
v -5.592314 -0.448864 -0.110009
v -5.592314 -0.448864 0.110018
vt 0.132812 0.773438
vt 0.132812 0.773438
vt 0.132812 0.773438
vt 0.132812 0.773438
vt 0.132812 0.773438
vt 0.132812 0.773438
vt 0.132812 0.773438
vt 0.132812 0.773438
vt 0.132812 0.867188
vt 0.132812 0.867188
vt 0.132812 0.867188
vt 0.132812 0.867188
vt 0.132812 0.867188
vt 0.132812 0.867188
vt 0.132812 0.867188
vt 0.132812 0.867188
vn -1.0000 0.0000 0.0000
vn 0.0000 0.0000 -1.0000
vn 1.0000 0.0000 0.0000
vn 0.0000 -0.0000 1.0000
vn 0.0000 -1.0000 0.0000
vn 0.0000 1.0000 0.0000
s off
f 1/1/1 2/2/1 3/3/1 4/4/1
f 4/4/2 3/3/2 5/5/2 6/6/2
f 6/6/3 5/5/3 7/7/3 8/8/3
f 8/8/4 7/7/4 2/2/4 1/1/4
f 4/4/5 6/6/5 8/8/5 1/1/5
f 5/5/6 3/3/6 2/2/6 7/7/6
s 1
f 9/9/3 10/10/3 11/11/3 12/12/3
f 13/13/1 14/14/1 15/15/1 16/16/1
f 12/12/2 11/11/2 15/15/2 14/14/2
f 11/11/5 10/10/5 16/16/5 15/15/5
f 9/9/4 13/13/4 16/16/4 10/10/4
f 12/12/6 14/14/6 13/13/6 9/9/6
