# Blender v2.90.0 Alpha OBJ File: 'Decos.blend'
# www.blender.org
o PillarSquare_Cube_Cube.003
v 5.592314 0.403591 0.110020
v 5.592314 -0.448864 0.110019
v 5.592314 -0.448865 -0.110007
v 5.592314 0.403591 -0.110007
v -5.592314 0.403592 0.110018
v -5.592314 0.403592 -0.110009
v -5.592314 -0.448864 -0.110009
v -5.592314 -0.448864 0.110018
v 5.218073 -1.009291 0.205428
v 5.218073 0.735748 0.205428
v 5.218073 -1.009291 -0.205416
v 5.218073 0.735748 -0.205416
v 5.966554 -1.009291 0.205428
v 5.966554 0.735748 0.205428
v 5.966554 -1.009291 -0.205416
v 5.966554 0.735748 -0.205416
vt 0.132812 0.773438
vt 0.132812 0.773438
vt 0.132812 0.773438
vt 0.132812 0.773438
vt 0.132812 0.773438
vt 0.132812 0.773438
vt 0.132812 0.773438
vt 0.132812 0.773438
vt 0.117188 0.867188
vt 0.117188 0.867188
vt 0.117188 0.867188
vt 0.117188 0.867188
vt 0.117188 0.867188
vt 0.117188 0.867188
vt 0.117188 0.867188
vt 0.117188 0.867188
vn -1.0000 0.0000 0.0000
vn 0.0000 0.0000 -1.0000
vn 1.0000 0.0000 0.0000
vn 0.0000 0.0000 1.0000
vn 0.0000 -1.0000 0.0000
vn 0.0000 1.0000 0.0000
s off
f 9/1/1 10/2/1 12/3/1 11/4/1
f 11/4/2 12/3/2 16/5/2 15/6/2
f 15/6/3 16/5/3 14/7/3 13/8/3
f 13/8/4 14/7/4 10/2/4 9/1/4
f 11/4/5 15/6/5 13/8/5 9/1/5
f 16/5/6 12/3/6 10/2/6 14/7/6
s 1
f 1/9/3 2/10/3 3/11/3 4/12/3
f 5/13/1 6/14/1 7/15/1 8/16/1
f 4/12/2 3/11/2 7/15/2 6/14/2
f 3/11/5 2/10/5 8/16/5 7/15/5
f 1/9/4 5/13/4 8/16/4 2/10/4
f 4/12/6 6/14/6 5/13/6 1/9/6
