# Blender v2.91.0 Beta OBJ File: 'decos.blend'
# www.blender.org
o FountainSquare_Cube.006_FountainSquare_Cube.006
v -5.007673 -0.206336 -0.000000
v -5.007673 -2.206336 -0.000001
v -5.007669 -2.206352 5.000000
v -5.007669 -0.206352 5.000000
v 4.483346 -0.206352 4.497915
v 4.483343 -0.206336 -0.000006
v 4.361845 -0.494780 -0.000006
v 4.361897 -0.494678 4.497915
v -4.483340 -0.206352 4.497921
v -4.483343 -0.206336 -0.000000
v 5.007673 -0.206336 -0.000006
v 5.007676 -0.206352 4.999994
v 5.007676 -2.206352 4.999991
v 5.007673 -2.206336 -0.000008
v -4.361891 -0.494678 4.497921
v 0.000003 -0.206352 4.497918
v 0.000003 -0.494584 4.497918
v 4.483340 -0.206320 -5.000006
v 4.361825 -0.494802 -5.000006
v 5.007669 -0.206320 -5.000006
v 5.007669 -2.206320 -5.000009
v -5.007676 -0.206320 -5.000000
v -4.483346 -0.206320 -5.000000
v -5.007676 -2.206320 -5.000000
v -4.361845 -0.494780 -0.000000
v -4.361832 -0.494803 -5.000000
v 0.000003 -0.206352 4.999997
v 0.000003 -2.206352 4.999997
v -4.308483 -0.530810 -0.000000
v -4.308484 -0.530800 -5.000000
v 4.308477 -0.530800 -5.000006
v 4.308483 -0.530810 -0.000006
v 4.308493 -0.530807 4.459730
v 0.000003 -0.530793 4.459733
v -4.308487 -0.530807 4.459736
vt 0.164062 0.789062
vt 0.164062 0.789062
vt 0.164062 0.789062
vt 0.148438 0.804688
vt 0.148438 0.804688
vt 0.148438 0.804688
vt 0.164062 0.789062
vt 0.164062 0.789062
vt 0.164062 0.789062
vt 0.164062 0.789062
vt 0.164062 0.789062
vt 0.164062 0.789062
vt 0.148438 0.804688
vt 0.148438 0.804688
vt 0.148438 0.804688
vt 0.148438 0.804688
vt 0.148438 0.804688
vt 0.164062 0.789062
vt 0.164062 0.789062
vt 0.164062 0.789062
vt 0.164062 0.789062
vt 0.164062 0.789062
vt 0.164062 0.789062
vt 0.148438 0.804688
vt 0.148438 0.804688
vt 0.148438 0.804688
vt 0.164062 0.789062
vt 0.164062 0.789062
vt 0.164062 0.789062
vt 0.164062 0.789062
vt 0.179688 0.773438
vt 0.179688 0.773438
vt 0.179688 0.773438
vt 0.179688 0.773438
vt 0.179688 0.773438
vt 0.179688 0.773438
vt 0.179688 0.773438
vt 0.179688 0.773438
vt 0.148438 0.804688
vt 0.179688 0.773438
vt 0.179688 0.773438
vt 0.179688 0.773438
vt 0.179688 0.773438
vt 0.164062 0.789062
vt 0.148438 0.804688
vt 0.164062 0.789062
vt 0.148438 0.804688
vt 0.179688 0.773438
vt 0.179688 0.773438
vn -1.0000 0.0000 0.0000
vn -0.9216 0.3882 0.0000
vn 0.0000 1.0000 0.0000
vn 1.0000 -0.0000 -0.0000
vn -0.0000 -0.0000 -1.0000
vn 0.9216 0.3882 0.0000
vn 0.0000 -0.0000 1.0000
vn 0.5593 0.8289 -0.0000
vn 0.5596 0.8288 0.0000
vn -0.5596 0.8288 -0.0000
vn -0.5593 0.8289 0.0000
vn -0.2948 0.8650 -0.4061
vn -0.0000 0.7256 -0.6881
vn 0.2948 0.8650 -0.4061
vn 0.3568 0.8745 -0.3284
vn -0.3568 0.8745 -0.3284
s 1
f 2/1/1 4/2/1 1/3/1
f 6/4/2 8/5/2 5/6/2
f 1/3/3 9/7/3 10/8/3
f 11/9/3 5/10/3 12/11/3
f 12/11/4 14/12/4 11/9/4
f 15/13/5 16/14/5 17/15/5
f 18/16/2 7/17/2 6/4/2
f 11/9/4 21/18/4 20/19/4
f 20/19/3 6/20/3 11/9/3
f 1/3/3 23/21/3 22/22/3
f 24/23/1 1/3/1 22/22/1
f 25/24/6 23/25/6 10/26/6
f 27/27/3 5/10/3 16/28/3
f 4/2/7 28/29/7 27/27/7
f 27/27/7 13/30/7 12/11/7
f 27/27/3 9/7/3 4/2/3
f 16/14/5 8/5/5 17/15/5
f 30/31/8 25/32/9 29/33/9
f 32/34/10 19/35/11 31/36/11
f 33/37/12 7/38/10 32/34/10
f 15/13/6 10/26/6 9/39/6
f 17/40/13 33/37/12 34/41/13
f 17/40/13 35/42/14 15/43/15
f 25/32/9 35/42/14 29/33/9
f 2/1/1 3/44/1 4/2/1
f 6/4/2 7/17/2 8/5/2
f 1/3/3 4/2/3 9/7/3
f 11/9/3 6/20/3 5/10/3
f 12/11/4 13/30/4 14/12/4
f 15/13/5 9/39/5 16/14/5
f 18/16/2 19/45/2 7/17/2
f 11/9/4 14/12/4 21/18/4
f 20/19/3 18/46/3 6/20/3
f 1/3/3 10/8/3 23/21/3
f 24/23/1 2/1/1 1/3/1
f 25/24/6 26/47/6 23/25/6
f 27/27/3 12/11/3 5/10/3
f 4/2/7 3/44/7 28/29/7
f 27/27/7 28/29/7 13/30/7
f 27/27/3 16/28/3 9/7/3
f 16/14/5 5/6/5 8/5/5
f 30/31/8 26/48/8 25/32/9
f 32/34/10 7/38/10 19/35/11
f 33/37/12 8/49/16 7/38/10
f 15/13/6 25/24/6 10/26/6
f 17/40/13 8/49/16 33/37/12
f 17/40/13 34/41/13 35/42/14
f 25/32/9 15/43/15 35/42/14
o FountainSquare_Cube.006_FountainSquare_Cube.002_FountainSqu.002
v -3.872236 -0.537311 -0.000001
v -3.872233 -0.537326 3.976965
v 0.000003 -0.537326 3.976962
v 0.000000 -0.537311 -0.000003
v -3.872239 -0.537295 -5.000000
v -0.000003 -0.537295 -5.000003
v 3.872232 -0.537295 -5.000005
v 3.872236 -0.537311 -0.000006
v 3.872238 -0.537326 3.976960
v -4.120594 -0.536388 -0.000000
v -4.120592 -0.536400 4.241123
v 0.000003 -0.536398 4.241120
v 4.120597 -0.536400 4.241117
v 4.120594 -0.536388 -0.000006
v 4.308493 -0.530807 4.459730
v 4.308483 -0.530810 -0.000006
v 4.120590 -0.536373 -5.000006
v 4.308477 -0.530800 -5.000006
v -4.120596 -0.536373 -5.000000
v -4.308484 -0.530800 -5.000000
v -4.308483 -0.530810 -0.000000
v 0.000003 -0.530793 4.459733
v -4.308487 -0.530807 4.459736
vt 0.023438 0.929688
vt 0.023438 0.929688
vt 0.023438 0.929688
vt 0.023438 0.929688
vt 0.023438 0.929688
vt 0.023438 0.929688
vt 0.023438 0.929688
vt 0.023438 0.929688
vt 0.023438 0.929688
vt 0.820312 0.367188
vt 0.820312 0.367188
vt 0.820312 0.367188
vt 0.820312 0.367188
vt 0.820312 0.367188
vt 0.820312 0.367188
vt 0.820312 0.367188
vt 0.820312 0.351562
vt 0.820312 0.351562
vt 0.820312 0.351562
vt 0.820312 0.351562
vt 0.820312 0.351562
vt 0.820312 0.351562
vt 0.820312 0.351562
vt 0.820312 0.351562
vt 0.820312 0.367188
vt 0.820312 0.367188
vt 0.820312 0.367188
vt 0.820312 0.367188
vt 0.820312 0.367188
vt 0.820312 0.351562
vt 0.820312 0.351562
vt 0.820312 0.351562
vt 0.820312 0.351562
vt 0.820312 0.367188
vt 0.820312 0.351562
vt 0.820312 0.351562
vt 0.820312 0.367188
vn 0.0015 1.0000 -0.0001
vn 0.0000 1.0000 0.0000
vn 0.0019 1.0000 0.0000
vn -0.0019 1.0000 0.0000
vn -0.0000 1.0000 -0.0018
vn -0.0006 1.0000 -0.0004
vn 0.0167 0.9999 0.0000
vn -0.0000 0.9999 -0.0146
vn 0.0120 0.9999 -0.0097
vn -0.0120 0.9999 -0.0097
vn -0.0297 0.9996 0.0000
vn -0.0167 0.9999 0.0000
vn -0.0296 0.9996 0.0000
vn 0.0297 0.9996 0.0000
vn -0.0000 0.9997 -0.0256
vn 0.0134 0.9998 -0.0140
vn -0.0134 0.9998 -0.0140
vn 0.0296 0.9996 0.0000
s 1
f 37/50/17 39/51/18 36/52/19
f 36/52/19 41/53/18 40/54/19
f 42/55/20 39/51/18 43/56/20
f 43/56/20 38/57/21 44/58/22
f 45/59/23 37/60/17 36/61/19
f 47/62/24 37/60/17 46/63/25
f 47/62/24 44/64/22 38/65/21
f 48/66/26 51/67/27 49/68/28
f 49/68/28 53/69/29 52/70/28
f 54/71/23 56/72/30 45/73/23
f 36/61/19 54/74/23 45/59/23
f 42/75/20 49/76/28 52/77/28
f 44/64/22 49/76/28 43/78/20
f 57/79/31 48/66/26 47/80/24
f 57/79/31 46/81/25 58/82/32
f 56/72/30 46/81/25 45/73/23
f 37/50/17 38/57/21 39/51/18
f 36/52/19 39/51/18 41/53/18
f 42/55/20 41/53/18 39/51/18
f 43/56/20 39/51/18 38/57/21
f 45/59/23 46/63/25 37/60/17
f 47/62/24 38/65/21 37/60/17
f 47/62/24 48/83/26 44/64/22
f 48/66/26 50/84/33 51/67/27
f 49/68/28 51/67/27 53/69/29
f 54/71/23 55/85/34 56/72/30
f 36/61/19 40/86/19 54/74/23
f 42/75/20 43/78/20 49/76/28
f 44/64/22 48/83/26 49/76/28
f 57/79/31 50/84/33 48/66/26
f 57/79/31 47/80/24 46/81/25
f 56/72/30 58/82/32 46/81/25
