# Blender v2.91.0 Beta OBJ File: 'decos.blend'
# www.blender.org
o FountainSquare_Cube.020
v 10.896947 -1.263570 -23.258934
v 10.896947 0.931290 -23.258934
v 10.896947 0.931266 23.154617
v 10.896947 -1.263593 23.154617
v -11.233634 -1.263570 -23.258934
v -11.233634 0.931290 -23.258934
v -11.233634 0.931266 23.154617
v -11.233634 -1.263593 23.154617
v 9.699430 0.772741 -22.481874
v 9.699430 0.772719 22.377558
v -10.036119 0.772719 22.377558
v -10.036119 0.772741 -22.481874
v -7.307275 0.772741 -22.481874
v -6.186445 0.772741 -22.481874
v -4.018017 0.772741 -22.481874
v -2.897186 0.772741 -22.481874
v -0.728759 0.772741 -22.481874
v 0.392072 0.772741 -22.481874
v 2.560499 0.772741 -22.481874
v 3.681330 0.772741 -22.481874
v 5.849757 0.772741 -22.481874
v 6.970588 0.772741 -22.481874
v 6.970587 0.772719 22.377558
v 5.849757 0.772719 22.377558
v 3.681329 0.772719 22.377558
v 2.560498 0.772719 22.377558
v 0.392071 0.772719 22.377558
v -0.728760 0.772719 22.377558
v -2.897187 0.772719 22.377558
v -4.018018 0.772719 22.377558
v -6.186445 0.772719 22.377558
v -7.307276 0.772719 22.377558
vt 0.257812 0.789062
vt 0.257812 0.789062
vt 0.257812 0.789062
vt 0.257812 0.789062
vt 0.257812 0.789062
vt 0.257812 0.789062
vt 0.257812 0.789062
vt 0.257812 0.789062
vt 0.257812 0.789062
vt 0.257812 0.789062
vt 0.257812 0.789062
vt 0.257812 0.789062
vt 0.257812 0.789062
vt 0.257812 0.789062
vt 0.257812 0.789062
vt 0.257812 0.789062
vt 0.257812 0.789062
vt 0.257812 0.789062
vt 0.257812 0.789062
vt 0.257812 0.789062
vt 0.257812 0.789062
vt 0.257812 0.789062
vt 0.257812 0.789062
vt 0.257812 0.789062
vt 0.257812 0.789062
vt 0.257812 0.789062
vt 0.257812 0.789062
vt 0.257812 0.789062
vt 0.257812 0.789062
vt 0.257812 0.789062
vt 0.257812 0.789062
vt 0.257812 0.789062
vt 0.023438 0.914062
vt 0.023438 0.914062
vt 0.023438 0.914062
vt 0.023438 0.914062
vt 0.023438 0.914062
vt 0.023438 0.914062
vt 0.023438 0.914062
vt 0.023438 0.914062
vn 1.0000 0.0000 0.0000
vn 0.0000 0.0000 -1.0000
vn 0.0000 0.0000 1.0000
vn -0.7071 -0.0000 0.7071
vn -0.7071 -0.0000 -0.7071
vn 0.3625 0.8730 0.3262
vn 0.3625 0.8730 -0.3262
vn -0.3625 0.8730 -0.3262
vn -0.3625 0.8730 0.3262
vn 0.7071 -0.0000 -0.7071
vn 0.7071 -0.0000 0.7071
vn -1.0000 0.0000 0.0000
vn 0.0000 1.0000 0.0000
s 1
f 1/1/1 2/2/1 3/3/1 4/4/1
f 1/1/2 5/5/2 6/6/2 2/2/2
f 3/3/3 7/7/3 8/8/3 4/4/3
f 9/9/4 10/10/5 3/3/6 2/2/7 6/6/8 7/7/9 11/11/10 12/12/11 13/13/3 14/14/3 15/15/3 16/16/3 17/17/3 18/18/3 19/19/3 20/20/3 21/21/3 22/22/3
f 5/5/12 8/8/12 7/7/12 6/6/12
f 3/3/6 10/10/5 23/23/2 24/24/2 25/25/2 26/26/2 27/27/2 28/28/2 29/29/2 30/30/2 31/31/2 32/32/2 11/11/10 7/7/9
f 32/33/13 23/34/13 10/35/13 9/36/13 22/37/13 13/38/13 12/39/13 11/40/13
