# Blender v2.90.0 Alpha OBJ File: 'Decos.blend'
# www.blender.org
o Silo.001_Cone.005
v -3.425860 -0.154491 0.510434
v 3.657571 -0.154491 0.443638
v 3.657571 -0.154486 -3.195114
v -3.425860 -0.154486 -3.195114
v 3.657571 -1.158753 0.443638
v 3.657571 -1.158751 -3.195114
v -3.425860 -1.158751 -3.195114
v -3.425860 -1.158753 0.510434
v 3.427257 -0.189341 0.451570
v 3.427257 1.308384 0.451570
v 3.893154 1.308384 0.914772
v 3.893154 -0.189341 0.914772
v -1.739345 1.308384 0.914772
v -1.739345 -0.189341 0.914772
v -3.723516 -1.010507 1.171148
v -3.723516 3.656332 1.171154
v -3.723516 3.656332 0.641170
v -3.723516 -1.010507 0.641164
v -3.365565 3.656332 0.641170
v -3.365565 -1.010507 0.641164
v -3.365565 3.656332 1.171154
v -3.365565 -1.010507 1.171148
v 3.579784 -1.010507 1.171148
v 3.579784 3.656332 1.171154
v 3.579784 3.656332 0.641170
v 3.579784 -1.010507 0.641164
v 3.937735 3.656332 0.641170
v 3.937735 -1.010507 0.641164
v 3.937735 3.656332 1.171154
v 3.937735 -1.010507 1.171148
v -3.766797 3.776006 -3.198097
v -3.766797 3.776004 1.264998
v 3.981015 3.776004 1.264998
v 3.981015 3.776006 -3.198097
v 3.981015 3.517092 -3.198102
v -3.766797 3.517092 -3.198102
v -3.766797 3.517091 1.264998
v 3.981015 3.517091 1.264998
v -1.739345 -0.189341 0.451570
v -1.739345 1.308384 0.451570
v 3.427257 -0.189336 -3.328549
v 3.427257 1.308390 -3.328549
v 3.893154 1.308390 -3.328549
v 3.893154 -0.189336 -3.328549
v -3.661443 -0.189341 0.986011
v -3.661443 1.308384 0.986011
v -3.403284 1.308384 0.986011
v -3.403284 -0.189341 0.986011
v -3.661443 -0.189336 -3.328549
v -3.661443 1.308390 -3.328549
v -3.403284 1.308390 -3.328549
v -3.403284 -0.189336 -3.328549
vt 0.132812 0.789062
vt 0.132812 0.789062
vt 0.132812 0.789062
vt 0.132812 0.789062
vt 0.132812 0.789062
vt 0.132812 0.789062
vt 0.132812 0.789062
vt 0.132812 0.789062
vt 0.117188 0.789062
vt 0.117188 0.789062
vt 0.117188 0.789062
vt 0.117188 0.789062
vt 0.117188 0.789062
vt 0.117188 0.789062
vt 0.117188 0.789062
vt 0.117188 0.789062
vt 0.117188 0.789062
vt 0.117188 0.789062
vt 0.117188 0.789062
vt 0.117188 0.789062
vt 0.117188 0.789062
vt 0.117188 0.789062
vt 0.117188 0.789062
vt 0.117188 0.789062
vt 0.117188 0.789062
vt 0.117188 0.789062
vt 0.117188 0.789062
vt 0.117188 0.789062
vt 0.117188 0.789062
vt 0.117188 0.789062
vt 0.117188 0.789062
vt 0.117188 0.789062
vt 0.117188 0.789062
vt 0.117188 0.789062
vt 0.117188 0.789062
vt 0.117188 0.789062
vt 0.117188 0.789062
vt 0.117188 0.789062
vt 0.117188 0.789062
vt 0.117188 0.789062
vt 0.117188 0.789062
vt 0.117188 0.789062
vt 0.117188 0.789062
vt 0.117188 0.789062
vt 0.117188 0.789062
vt 0.117188 0.789062
vt 0.117188 0.789062
vt 0.117188 0.789062
vt 0.117188 0.789062
vt 0.117188 0.789062
vt 0.117188 0.789062
vt 0.117188 0.789062
vn 0.0000 1.0000 0.0000
vn 1.0000 0.0000 0.0000
vn -1.0000 -0.0000 0.0000
vn 0.0094 -0.0000 1.0000
vn 0.0000 0.0000 -1.0000
vn 0.8283 0.0000 -0.5603
vn 0.8282 -0.0000 -0.5604
vn -0.0005 -0.0001 1.0000
vn 0.0000 -0.0000 1.0000
vn -1.0000 0.0000 0.0007
vn 0.1923 0.0000 -0.9813
vn 0.1924 0.0000 -0.9813
vn 0.1924 0.0001 -0.9813
s off
f 1/1/1 2/2/1 3/3/1 4/4/1
f 3/3/2 2/2/2 5/5/2 6/6/2
f 1/1/3 4/4/3 7/7/3 8/8/3
f 2/2/4 1/1/4 8/8/4 5/5/4
f 4/4/5 3/3/5 6/6/5 7/7/5
s 1
f 9/9/6 10/10/6 11/11/7 12/12/6
f 11/11/8 13/13/8 14/14/8 12/12/8
f 15/15/3 16/16/3 17/17/3 18/18/3
f 18/18/5 17/17/5 19/19/5 20/20/5
f 20/20/2 19/19/2 21/21/2 22/22/2
f 22/22/9 21/21/9 16/16/9 15/15/9
f 19/19/1 17/17/1 16/16/1 21/21/1
f 23/23/3 24/24/3 25/25/3 26/26/3
f 26/26/5 25/25/5 27/27/5 28/28/5
f 28/28/2 27/27/2 29/29/2 30/30/2
f 30/30/9 29/29/9 24/24/9 23/23/9
f 27/27/1 25/25/1 24/24/1 29/29/1
f 31/31/1 32/32/1 33/33/1 34/34/1
f 34/34/5 35/35/5 36/36/5 31/31/5
f 32/32/9 37/37/9 38/38/9 33/33/9
f 33/33/2 38/38/2 35/35/2 34/34/2
f 31/31/3 36/36/3 37/37/3 32/32/3
f 39/39/5 40/40/5 10/10/5 9/9/5
f 39/39/3 14/14/3 13/13/3 40/40/3
f 10/10/1 40/40/1 13/13/1 11/11/1
f 41/41/5 42/42/5 43/43/5 44/44/5
f 43/43/2 11/11/2 12/12/2 44/44/2
f 9/9/10 10/10/10 42/42/10 41/41/10
f 42/42/1 10/10/1 11/11/1 43/43/1
f 45/45/11 46/46/12 47/47/11 48/48/13
f 49/49/5 50/50/5 51/51/5 52/52/5
f 51/51/2 47/47/2 48/48/2 52/52/2
f 45/45/10 46/46/10 50/50/10 49/49/10
f 50/50/1 46/46/1 47/47/1 51/51/1
