# Blender v2.90.0 Alpha OBJ File: 'Decos.blend'
# www.blender.org
o Silo.001_Cone.001
v -3.425860 0.827663 0.510434
v 3.657571 0.827663 0.443638
v 3.657571 0.827667 -3.195114
v -3.425860 0.827667 -3.195114
v 3.657571 -1.158753 0.443638
v 3.657571 -1.158751 -3.195114
v -3.425860 -1.158751 -3.195114
v -3.425860 -1.158753 0.510434
v 3.427257 -0.189341 0.451570
v 3.427257 1.308384 0.451570
v 3.893154 1.308384 0.914772
v 3.893154 -0.189341 0.914772
v -1.739345 1.308384 0.914772
v -1.739345 -0.189341 0.914772
v -3.723516 -1.010507 1.171148
v -3.723516 3.656332 1.171152
v -3.723516 3.656332 0.641168
v -3.723516 -1.010507 0.641164
v -3.365565 3.656332 0.641168
v -3.365565 -1.010507 0.641164
v -3.365565 3.656332 1.171152
v -3.365565 -1.010507 1.171148
v 3.579784 -1.010507 1.171148
v 3.579784 3.656332 1.171152
v 3.579784 3.656332 0.641168
v 3.579784 -1.010507 0.641164
v 3.937735 3.656332 0.641168
v 3.937735 -1.010507 0.641164
v 3.937735 3.656332 1.171152
v 3.937735 -1.010507 1.171148
v -3.766797 3.776006 -3.198099
v -3.766797 3.776004 1.264996
v 3.981015 3.776004 1.264996
v 3.981015 3.776006 -3.198099
v 3.981015 3.517092 -3.198102
v -3.766797 3.517092 -3.198102
v -3.766797 3.517091 1.264996
v 3.981015 3.517091 1.264996
v -1.739345 -0.189341 0.451570
v -1.739345 1.308384 0.451570
v 3.427257 -0.189338 -3.328549
v 3.427257 1.308388 -3.328549
v 3.893154 1.308388 -3.328549
v 3.893154 -0.189338 -3.328549
v -3.661443 -0.189341 0.986011
v -3.661443 1.308384 0.986011
v -3.403284 1.308384 0.986011
v -3.403284 -0.189341 0.986011
v -3.661443 -0.189338 -3.328549
v -3.661443 1.308388 -3.328549
v -3.403284 1.308388 -3.328549
v -3.403284 -0.189338 -3.328549
vt 0.070312 0.820312
vt 0.070312 0.820312
vt 0.070312 0.820312
vt 0.070312 0.820312
vt 0.054688 0.789062
vt 0.054688 0.789062
vt 0.054688 0.789062
vt 0.054688 0.789062
vt 0.054688 0.789062
vt 0.054688 0.789062
vt 0.054688 0.789062
vt 0.054688 0.789062
vt 0.039062 0.804688
vt 0.039062 0.804688
vt 0.039062 0.804688
vt 0.039062 0.804688
vt 0.039062 0.804688
vt 0.039062 0.804688
vt 0.039062 0.804688
vt 0.039062 0.804688
vt 0.039062 0.804688
vt 0.039062 0.804688
vt 0.039062 0.804688
vt 0.039062 0.804688
vt 0.039062 0.804688
vt 0.039062 0.804688
vt 0.039062 0.804688
vt 0.039062 0.804688
vt 0.039062 0.804688
vt 0.039062 0.804688
vt 0.039062 0.804688
vt 0.039062 0.804688
vt 0.039062 0.804688
vt 0.039062 0.804688
vt 0.039062 0.804688
vt 0.039062 0.804688
vt 0.039062 0.804688
vt 0.039062 0.804688
vt 0.039062 0.804688
vt 0.039062 0.804688
vt 0.039062 0.804688
vt 0.039062 0.804688
vt 0.039062 0.804688
vt 0.039062 0.804688
vt 0.039062 0.804688
vt 0.039062 0.804688
vt 0.039062 0.804688
vt 0.039062 0.804688
vt 0.039062 0.804688
vt 0.039062 0.804688
vt 0.039062 0.804688
vt 0.039062 0.804688
vt 0.039062 0.804688
vt 0.039062 0.804688
vt 0.039062 0.804688
vt 0.039062 0.804688
vn 0.0000 1.0000 0.0000
vn 1.0000 0.0000 0.0000
vn -1.0000 -0.0000 0.0000
vn 0.0094 -0.0000 1.0000
vn 0.0000 0.0000 -1.0000
vn 0.8283 0.0000 -0.5603
vn 0.8282 -0.0000 -0.5604
vn -0.0005 -0.0001 1.0000
vn 0.0000 -0.0000 1.0000
vn -1.0000 0.0000 0.0007
vn 0.1923 0.0000 -0.9813
vn 0.1924 0.0000 -0.9813
vn 0.1924 0.0001 -0.9813
s off
f 1/1/1 2/2/1 3/3/1 4/4/1
f 3/5/2 2/6/2 5/7/2 6/8/2
f 1/9/3 4/10/3 7/11/3 8/12/3
f 2/6/4 1/9/4 8/12/4 5/7/4
f 4/10/5 3/5/5 6/8/5 7/11/5
s 1
f 9/13/6 10/14/6 11/15/7 12/16/6
f 11/15/8 13/17/8 14/18/8 12/16/8
f 15/19/3 16/20/3 17/21/3 18/22/3
f 18/22/5 17/21/5 19/23/5 20/24/5
f 20/24/2 19/23/2 21/25/2 22/26/2
f 22/26/9 21/25/9 16/20/9 15/19/9
f 19/23/1 17/21/1 16/20/1 21/25/1
f 23/27/3 24/28/3 25/29/3 26/30/3
f 26/30/5 25/29/5 27/31/5 28/32/5
f 28/32/2 27/31/2 29/33/2 30/34/2
f 30/34/9 29/33/9 24/28/9 23/27/9
f 27/31/1 25/29/1 24/28/1 29/33/1
f 31/35/1 32/36/1 33/37/1 34/38/1
f 34/38/5 35/39/5 36/40/5 31/35/5
f 32/36/9 37/41/9 38/42/9 33/37/9
f 33/37/2 38/42/2 35/39/2 34/38/2
f 31/35/3 36/40/3 37/41/3 32/36/3
f 39/43/5 40/44/5 10/14/5 9/13/5
f 39/43/3 14/18/3 13/17/3 40/44/3
f 10/14/1 40/44/1 13/17/1 11/15/1
f 41/45/5 42/46/5 43/47/5 44/48/5
f 43/47/2 11/15/2 12/16/2 44/48/2
f 9/13/10 10/14/10 42/46/10 41/45/10
f 42/46/1 10/14/1 11/15/1 43/47/1
f 45/49/11 46/50/12 47/51/11 48/52/13
f 49/53/5 50/54/5 51/55/5 52/56/5
f 51/55/2 47/51/2 48/52/2 52/56/2
f 45/49/10 46/50/10 50/54/10 49/53/10
f 50/54/1 46/50/1 47/51/1 51/55/1
