# Blender v2.90.0 Alpha OBJ File: 'Decos.blend'
# www.blender.org
o Silo.001_Cone.004
v 3.893154 -1.000000 0.914772
v 3.893154 1.000000 0.914772
v 3.427257 -1.000000 0.451570
v 3.427257 1.000000 0.451570
v -3.723516 -1.010507 1.171148
v -3.365565 -1.010507 1.171148
v -3.544541 3.656332 0.906156
v -3.604199 -1.010507 0.641164
v 3.579784 -1.010507 1.171148
v 3.937735 -1.010507 1.171148
v 3.758759 3.656332 0.906156
v 3.699101 -1.010507 0.641164
v -3.766797 3.518379 -3.198104
v 3.981015 3.518379 1.264992
v -3.766797 3.519654 1.264992
v 3.981015 3.519654 -3.198104
v -1.739345 -1.000000 0.683171
v -1.739345 1.000000 0.683171
v 3.660205 -1.000000 -3.328549
v 3.660205 1.000000 -3.328549
v -3.532364 -0.985112 0.986011
v -3.532363 -0.985111 -3.328549
vt 0.054688 0.820312
vt 0.054688 0.820312
vt 0.054688 0.820312
vt 0.054688 0.820312
vt 0.054688 0.820312
vt 0.054688 0.820312
vt 0.054688 0.820312
vt 0.054688 0.820312
vt 0.054688 0.820312
vt 0.054688 0.820312
vt 0.054688 0.820312
vt 0.054688 0.820312
vt 0.054688 0.820312
vt 0.054688 0.789063
vt 0.054688 0.789062
vt 0.054688 0.789062
vt 0.054688 0.789062
vt 0.054688 0.820312
vt 0.054688 0.820312
vt 0.054688 0.820312
vn -0.9753 0.0249 -0.2196
vn 0.9118 0.0117 -0.4105
vn 0.0000 0.0567 0.9984
vn 0.0000 1.0000 -0.0000
vn -0.0417 -0.0001 0.9991
vn -0.0448 0.0000 -0.9990
vn 0.9985 0.0000 -0.0548
vn -0.9982 0.0000 -0.0607
vn 0.8283 0.0000 -0.5603
vn 0.8282 -0.0000 -0.5604
s off
f 7/1/1 8/2/1 5/3/1
f 7/1/2 6/4/2 8/2/2
f 7/1/3 5/3/3 6/4/3
f 11/5/1 12/6/1 9/7/1
f 11/5/2 10/8/2 12/6/2
f 11/5/3 9/7/3 10/8/3
f 4/9/4 18/10/4 2/11/4
f 1/12/5 2/11/5 18/10/5 17/13/5
f 16/14/4 13/15/4 15/16/4 14/17/4
f 3/18/6 17/13/6 18/10/6 4/9/6
f 19/19/7 20/20/7 2/11/7 1/12/7
f 19/19/8 3/18/8 4/9/8 20/20/8
f 4/9/4 2/11/4 20/20/4
f 1/12/9 3/18/9 4/9/9 2/11/10
l 21 22
