# Blender v2.91.0 Beta OBJ File: 'HOUSE02.blend'
# www.blender.org
o alumsiding01.019_tree.002_tree.005_alumsiding01.019_tree.001
v 7.000000 17.544140 3.000000
v 7.000000 12.673816 2.999999
v 7.000000 46.998512 11.000002
v -7.000000 17.544140 3.000000
v -7.000000 12.673816 2.999999
v 4.000000 46.998512 14.000002
v 8.000000 17.544140 7.000000
v 3.999999 17.544140 13.999999
v 6.999999 17.544140 11.000000
v 8.000000 30.301926 7.000002
v -7.000000 46.998512 11.000002
v -4.000000 46.998512 14.000002
v 4.000000 12.673816 13.999998
v 8.000000 12.673816 6.999999
v 7.000000 12.673816 10.999999
v -8.000000 17.544140 7.000000
v -3.999999 17.544140 13.999999
v -6.999999 17.544140 11.000000
v -8.000000 30.301926 7.000002
v -4.000000 12.673816 13.999998
v -8.000000 12.673816 6.999999
v -7.000000 12.673816 10.999999
v 0.000000 17.636333 -11.568745
v 0.000000 12.673816 -11.568747
v 0.000000 12.673816 14.999998
v 0.000000 17.636330 14.999999
v 7.000000 35.172249 3.000000
v 7.000000 30.301926 2.999999
v -7.000000 35.172249 3.000000
v -7.000000 30.301926 2.999999
v 7.000000 46.998512 3.000002
v 8.000000 35.172249 7.000000
v -7.000000 46.998512 3.000002
v 3.999999 35.172249 13.999999
v -8.000000 35.172249 7.000000
v -3.999999 35.172249 13.999999
v -6.999999 35.172249 11.000000
v -8.000000 46.998512 7.000002
v -4.000000 30.301926 13.999998
v -7.000000 30.301926 10.999999
v 0.000000 35.264442 -11.568745
v 0.000000 47.005245 -11.568743
v 0.000000 30.301926 -11.568747
v 0.000000 30.301926 14.999998
v 0.000000 35.264439 14.999999
v 0.000000 47.005245 15.000002
v 0.000000 47.005596 15.849733
v 0.000000 47.005596 -12.169888
v -8.629510 46.998333 7.220222
v -7.550822 46.998333 2.905467
v -7.662050 47.005596 -12.103683
v 6.999999 35.172249 11.000000
v 8.000000 46.998512 7.000002
v 4.000000 30.301926 13.999998
v 7.000000 30.301926 10.999999
v -4.314755 46.998333 14.771044
v -7.550822 46.998333 11.534977
v 0.000000 47.842606 -12.169888
v 0.000000 47.838455 2.905356
v 0.000000 47.842606 15.849733
v -8.629510 47.835342 7.220222
v -7.550822 47.835342 2.905467
v -7.662050 47.842606 -12.103683
v -4.314755 47.835342 14.771044
v -7.550822 47.835342 11.534977
v -6.864632 12.779965 3.023232
v -6.741437 12.779965 -11.203590
v 8.629510 46.998333 7.220222
v 7.550822 46.998333 2.905467
v 7.662050 47.005596 -12.103683
v -3.922647 12.779965 13.810509
v -7.845294 12.779965 6.945878
v -6.864632 12.779965 10.868526
v 0.000000 12.779965 -11.263781
v 0.000000 12.779965 14.791172
v 4.314755 46.998333 14.771044
v 7.550822 46.998333 11.534977
v -7.326410 12.779965 2.943979
v -7.360972 12.779965 -12.239869
v -4.186520 12.779965 14.456906
v -8.373040 12.779965 7.130498
v -7.326410 12.779965 11.317019
v 0.000000 12.779965 -12.304107
v 0.000000 12.779965 15.503538
v 8.629510 47.835342 7.220222
v 7.550822 47.835342 2.905467
v -7.326410 11.695015 2.943979
v -7.360972 11.695015 -12.239869
v 7.662050 47.842606 -12.103683
v 4.314755 47.835342 14.771044
v 7.550822 47.835342 11.534977
v -4.186520 11.695015 14.456906
v -8.373040 11.695015 7.130498
v -7.326410 11.695015 11.317019
v 0.000000 11.695015 -12.304107
v 0.000000 11.695015 15.503538
v 6.864632 12.779965 3.023232
v 6.741437 12.779965 -11.203590
v -5.400763 11.695015 3.274468
v -4.777466 11.695015 -7.918512
v 3.922647 12.779965 13.810509
v 7.845294 12.779965 6.945878
v 6.864632 12.779965 10.868526
v -3.086150 11.695015 11.761379
v -6.172301 11.695015 6.360618
v -5.400763 11.695015 9.446768
v 0.000000 11.695015 -7.965867
v 0.000000 11.695015 12.532919
v 7.326410 12.779965 2.943979
v 7.360972 12.779965 -12.239869
v 4.186520 12.779965 14.456906
v 8.373040 12.779965 7.130498
v 7.326410 12.779965 11.317019
v -8.000000 12.543983 7.000002
v -7.000000 12.543983 2.999999
v -6.923051 12.543983 -11.507370
v 7.326410 11.695015 2.943979
v -4.000000 12.543983 13.999998
v -7.000000 12.543983 10.999999
v 0.000000 12.543983 -11.568747
v 0.000000 12.543983 14.999998
v 7.360972 11.695015 -12.239869
v 4.186520 11.695015 14.456906
v 8.373040 11.695015 7.130498
v 7.326410 11.695015 11.317019
v 5.400763 11.695015 3.274468
v 4.777466 11.695015 -7.918512
v 3.086150 11.695015 11.761379
v 6.172301 11.695015 6.360618
v 5.400763 11.695015 9.446768
v 8.000000 12.543983 7.000002
v 7.000000 12.543983 2.999999
v 6.923051 12.543983 -11.507370
v 4.000000 12.543983 13.999998
v 7.000000 12.543983 10.999999
v 0.000000 47.002289 2.905900
v 5.302253 17.636333 -11.521738
v 6.931648 17.626034 -9.886530
v 5.302253 12.673816 -11.521739
v 6.931648 12.673816 -9.886530
v -6.931648 17.626034 -9.886530
v -5.302253 17.636333 -11.521738
v -6.931648 12.673816 -9.886530
v -5.302253 12.673816 -11.521739
v 6.931648 35.254143 -9.886530
v 5.302253 35.264442 -11.521738
v -6.931648 35.254143 -9.886530
v -5.302253 35.264442 -11.521738
v -5.302253 30.301926 -11.521739
v -6.931648 30.301926 -9.886530
v 6.931648 30.301926 -9.886530
v 5.302253 30.301926 -11.521739
v 6.931648 47.004494 -9.886528
v 5.302253 47.005245 -11.521736
v -5.302253 47.005245 -11.521736
v -6.931648 47.004494 -9.886528
v -8.000000 8.552877 7.000001
v -7.000000 8.552877 2.999999
v -6.923051 8.581719 -11.507370
v -4.000000 8.552877 13.999998
v -7.000000 8.552877 11.000000
v 0.000000 8.581718 14.999998
v 0.000000 8.581719 -11.568746
v 8.000000 8.552877 7.000001
v 7.000000 8.552877 2.999999
v 6.923051 8.581719 -11.507370
v 4.000000 8.552877 13.999998
v 7.000000 8.552877 11.000000
v -0.000000 -0.121609 -10.248575
v -6.343500 -0.121609 -10.192337
v -6.414007 -0.213802 3.100571
v -6.414006 -0.213802 10.430864
v -3.665146 -0.213802 13.179724
v -7.330293 -0.213802 6.765718
v -7.330293 8.552877 6.765719
v -0.000000 -0.121613 14.096010
v -6.414006 8.552877 10.430864
v -0.000000 8.581719 -10.248577
v 6.414007 -0.213802 3.100571
v 6.343500 -0.121609 -10.192337
v 6.414006 -0.213802 10.430864
v 3.665146 -0.213802 13.179724
v 7.330293 -0.213802 6.765718
v 7.330293 8.552877 6.765719
v 6.414006 8.552877 10.430864
v -6.414007 8.552877 3.100571
v -6.343500 8.581719 -10.192337
v -3.665146 8.552877 13.179724
v -0.000000 8.581718 14.096010
v 6.414007 8.552877 3.100571
v 6.343500 8.581719 -10.192337
v 3.665146 8.552877 13.179724
vt 0.022299 0.222168
vt 0.151441 0.176758
vt 0.022299 0.176758
vt 0.019043 0.222168
vt 0.064335 0.176758
vt 0.019043 0.176758
vt 0.103477 0.679311
vt 0.021766 0.548154
vt 0.103477 0.548154
vt 0.022299 0.548154
vt 0.151441 0.679311
vt 0.151441 0.548154
vt 0.103477 0.176758
vt 0.190918 0.222168
vt 0.190918 0.176758
vt 0.190918 0.548154
vt 0.103477 0.679311
vt 0.190918 0.679311
vt 0.151441 0.363656
vt 0.151441 0.222168
vt 0.151441 0.363656
vt 0.151441 0.222168
vt 0.019043 0.222168
vt 0.064335 0.176758
vt 0.064335 0.222168
vt 0.019043 0.363656
vt 0.103477 0.222168
vt 0.190918 0.363656
vt 0.190918 0.222168
vt 0.171715 0.222168
vt 0.171715 0.363656
vt 0.103477 0.176758
vt 0.103477 0.222168
vt 0.103477 0.176758
vt 0.190918 0.176758
vt 0.151441 0.176758
vt 0.103477 0.363656
vt 0.190918 0.222168
vt 0.103477 0.222168
vt 0.190918 0.363656
vt 0.103477 0.222168
vt 0.103477 0.176758
vt 0.190918 0.176758
vt 0.103477 0.176758
vt 0.019043 0.363656
vt 0.064335 0.222168
vt 0.021766 0.222168
vt 0.021766 0.363656
vt 0.021766 0.176758
vt 0.171715 0.176758
vt 0.019043 0.176758
vt 0.103477 0.363656
vt 0.171715 0.176758
vt 0.171715 0.176758
vt 0.019043 0.222168
vt 0.019043 0.176758
vt 0.019043 0.679311
vt 0.064335 0.548154
vt 0.019043 0.548154
vt 0.019043 0.222168
vt 0.171715 0.176758
vt 0.019043 0.176758
vt 0.064335 0.222168
vt 0.064335 0.548154
vt 0.019043 0.679311
vt 0.019043 0.548154
vt 0.022299 0.222168
vt 0.151441 0.176758
vt 0.022299 0.176758
vt 0.151441 0.679311
vt 0.151441 0.548154
vt 0.103477 0.222168
vt 0.021766 0.176758
vt 0.103477 0.176758
vt 0.171715 0.548154
vt 0.171715 0.679311
vt 0.064335 0.222168
vt 0.103477 0.679311
vt 0.190918 0.548154
vt 0.103477 0.548154
vt 0.103477 0.679311
vt 0.103477 0.548154
vt 0.103477 0.176758
vt 0.190918 0.222168
vt 0.190918 0.176758
vt 0.103477 0.176758
vt 0.151441 0.176758
vt 0.021766 0.679311
vt 0.103477 0.222168
vt 0.171715 0.548154
vt 0.171715 0.679311
vt 0.081132 0.228781
vt 0.081132 0.228781
vt 0.081132 0.228781
vt 0.081132 0.228781
vt 0.081055 0.231934
vt 0.081055 0.231934
vt 0.081055 0.231934
vt 0.081132 0.228781
vt 0.081132 0.228781
vt 0.081132 0.228781
vt 0.081132 0.228781
vt 0.081132 0.228781
vt 0.081132 0.228781
vt 0.081055 0.231934
vt 0.081055 0.231934
vt 0.081055 0.231934
vt 0.081055 0.231934
vt 0.081055 0.231934
vt 0.081055 0.231934
vt 0.081055 0.231934
vt 0.081055 0.231934
vt 0.081055 0.231934
vt 0.151367 0.169922
vt 0.151367 0.169922
vt 0.151367 0.169922
vt 0.081055 0.231934
vt 0.081055 0.231934
vt 0.151367 0.169922
vt 0.151367 0.169922
vt 0.151367 0.169922
vt 0.081055 0.231934
vt 0.081055 0.231934
vt 0.081055 0.231934
vt 0.081055 0.231934
vt 0.081055 0.231934
vt 0.151367 0.169922
vt 0.151367 0.169922
vt 0.151367 0.169922
vt 0.081055 0.231934
vt 0.081055 0.231934
vt 0.081055 0.231934
vt 0.081055 0.231934
vt 0.081055 0.231934
vt 0.151367 0.169922
vt 0.151367 0.169922
vt 0.151367 0.169922
vt 0.151367 0.169922
vt 0.151367 0.169922
vt 0.151367 0.169922
vt 0.151367 0.169922
vt 0.151367 0.169922
vt 0.151367 0.169922
vt 0.151367 0.169922
vt 0.151367 0.169922
vt 0.151367 0.169922
vt 0.151367 0.169922
vt 0.151367 0.169922
vt 0.151367 0.169922
vt 0.151367 0.169922
vt 0.151367 0.169922
vt 0.151367 0.169922
vt 0.151367 0.169922
vt 0.151367 0.169922
vt 0.151367 0.169922
vt 0.151367 0.169922
vt 0.151367 0.169922
vt 0.151367 0.169922
vt 0.151367 0.169922
vt 0.151367 0.169922
vt 0.151367 0.169922
vt 0.151367 0.169922
vt 0.151367 0.169922
vt 0.019043 0.140455
vt 0.064335 0.140455
vt 0.019043 0.140455
vt 0.019043 0.184718
vt 0.064335 0.140455
vt 0.151367 0.169922
vt 0.151367 0.169922
vt 0.151367 0.169922
vt 0.151367 0.169922
vt 0.151367 0.169922
vt 0.151367 0.169922
vt 0.190918 0.140455
vt 0.103477 0.184718
vt 0.103477 0.140455
vt 0.151367 0.169922
vt 0.151367 0.169922
vt 0.103477 0.140455
vt 0.190918 0.184718
vt 0.081055 0.231934
vt 0.064335 0.140455
vt 0.019043 0.184718
vt 0.019043 0.140455
vt 0.022299 0.140455
vt 0.190918 0.184718
vt 0.190918 0.140455
vt 0.103477 0.184718
vt 0.190918 0.140455
vt 0.103477 0.140455
vt 0.190918 0.184718
vt 0.103477 0.140455
vt 0.091075 0.140455
vt 0.009364 0.140455
vt 0.091075 0.140455
vt 0.190918 0.184718
vt 0.190918 0.140455
vt 0.081132 0.228781
vt 0.081132 0.228781
vt 0.081132 0.228781
vt 0.171715 0.222168
vt 0.171715 0.222168
vt 0.151441 0.222168
vt 0.171715 0.222168
vt 0.151441 0.222168
vt 0.171715 0.363656
vt 0.103477 0.140455
vt 0.190918 0.140455
vt 0.091075 0.184718
vt 0.009364 0.140455
vt 0.009364 0.184718
vt 0.091075 0.184718
vt 0.091075 0.140455
vt 0.103477 0.140455
vt 0.190918 0.140455
vt 0.190918 0.043230
vt 0.190918 0.140455
vt 0.190918 0.043230
vt 0.019043 0.140455
vt 0.009364 0.043230
vt 0.091075 0.043230
vt 0.091075 0.140455
vt 0.022299 0.043230
vt 0.190918 0.140455
vt 0.103477 0.043230
vt 0.190918 0.043230
vt 0.103477 0.140455
vt 0.103477 0.043230
vt 0.064335 0.043230
vt 0.019043 0.043230
vt 0.103477 0.043230
vt 0.190918 0.043230
vt 0.103477 0.043230
vt 0.064335 0.043230
vt 0.019043 0.043230
vt 0.022299 0.140455
vt 0.064335 0.140455
vt 0.022299 0.679311
vt 0.103477 0.222168
vt 0.103477 0.548154
vt 0.022299 0.363656
vt 0.064335 0.363656
vt 0.103477 0.363656
vt 0.103477 0.363656
vt 0.064335 0.363656
vt 0.064335 0.679311
vt 0.064335 0.176758
vt 0.064335 0.679311
vt 0.021766 0.222168
vt 0.064335 0.176758
vt 0.190918 0.679311
vt 0.103477 0.222168
vt 0.151367 0.169922
vt 0.064335 0.184718
vt 0.151367 0.169922
vt 0.103477 0.184718
vt 0.064335 0.184718
vt 0.022299 0.184718
vt 0.103477 0.184718
vt 0.091075 0.043230
vt 0.103477 0.140455
vn -0.0000 0.0000 -1.0000
vn 0.0089 0.0000 -1.0000
vn 0.9922 -0.0000 -0.1248
vn 1.0000 0.0000 0.0000
vn 0.4926 -0.0000 0.8703
vn -0.0000 -0.0000 1.0000
vn 0.4927 -0.0000 0.8702
vn 0.8702 -0.0000 0.4927
vn -0.0089 0.0000 -1.0000
vn -0.9922 -0.0000 -0.1248
vn -1.0000 0.0000 0.0000
vn -0.9232 0.0000 -0.3843
vn -0.4927 -0.0000 0.8702
vn -0.8702 -0.0000 0.4927
vn 0.9232 -0.0000 -0.3843
vn 0.9232 0.0000 -0.3844
vn -0.4926 -0.0000 0.8703
vn -0.9232 0.0000 -0.3844
vn 0.0000 -1.0000 -0.0002
vn 0.0004 -1.0000 -0.0000
vn 0.0005 -1.0000 -0.0002
vn 0.0003 -1.0000 -0.0002
vn 0.0000 1.0000 0.0002
vn 0.0004 1.0000 0.0000
vn 0.0004 1.0000 0.0002
vn -0.0005 -1.0000 -0.0002
vn -0.0002 -1.0000 -0.0003
vn -0.0004 -1.0000 -0.0000
vn 0.0002 -1.0000 -0.0003
vn -0.0003 -1.0000 -0.0002
vn 0.0002 1.0000 0.0002
vn -0.0004 1.0000 0.0002
vn -0.0004 1.0000 0.0000
vn -0.0002 1.0000 0.0002
vn 0.9930 0.0000 -0.1185
vn 0.0000 1.0000 -0.0003
vn 0.0010 1.0000 -0.0001
vn 0.0000 1.0000 0.0000
vn 0.4928 0.0000 0.8701
vn -0.0010 1.0000 -0.0001
vn -0.9930 0.0000 -0.1185
vn -1.0000 0.0000 0.0074
vn -0.4928 0.0000 0.8701
vn 0.0086 0.0000 -1.0000
vn -0.0086 0.0000 -1.0000
vn 1.0000 0.0000 0.0074
vn 0.9926 0.0000 -0.1211
vn 1.0000 0.0000 0.0023
vn 0.0000 -1.0000 0.0000
vn -1.0000 0.0000 0.0023
vn -0.9926 0.0000 -0.1211
vn 0.0087 0.0000 -1.0000
vn -0.0087 0.0000 -1.0000
vn -0.0002 -1.0000 -0.0011
vn 0.9922 0.0000 -0.1249
vn 0.4932 -0.0000 0.8699
vn 0.0001 1.0000 0.0003
vn 0.0000 1.0000 0.0003
vn -0.9922 -0.0000 -0.1249
vn -0.4932 -0.0000 0.8699
vn -0.0039 -1.0000 0.0014
vn 0.0000 -1.0000 0.0004
vn -0.0033 -1.0000 0.0014
vn -0.0001 1.0000 0.0003
vn 0.0010 -1.0000 0.0000
vn -0.0010 -1.0000 0.0000
vn 0.0000 -1.0000 0.0003
vn -0.7084 0.0000 -0.7058
vn 0.7084 0.0000 -0.7058
vn 0.0039 -1.0000 0.0014
vn -1.0000 -0.0000 -0.0053
vn 0.0025 -1.0000 -0.0011
vn 0.0012 -1.0000 -0.0005
vn 1.0000 0.0000 -0.0053
vn 0.9922 0.0000 -0.1247
vn -0.9922 0.0000 -0.1247
vn 0.4921 -0.0000 0.8705
vn 0.4946 -0.0000 0.8691
vn -0.4921 -0.0000 0.8705
vn -0.4946 -0.0000 0.8691
vn -0.9921 0.0000 -0.1251
vn 0.9921 0.0000 -0.1251
vn -0.0025 -1.0000 -0.0011
vn -0.0012 -1.0000 -0.0005
vn 0.0033 -1.0000 0.0014
vn 0.0002 -1.0000 -0.0011
s 1
f 23/1/1 139/2/2 24/3/1
f 1/4/3 14/5/4 2/6/3
f 6/7/5 45/8/6 34/9/7
f 41/10/1 154/11/2 146/12/2
f 10/13/4 52/14/8 55/15/8
f 52/16/8 53/17/4 3/18/8
f 23/1/1 152/19/2 137/20/2
f 149/21/9 23/1/1 142/22/9
f 4/23/10 21/24/11 16/25/11
f 16/25/11 30/26/10 4/23/10
f 7/27/4 55/28/8 9/29/8
f 141/30/12 30/26/10 150/31/12
f 13/32/7 9/29/8 8/33/7
f 14/34/4 9/29/8 15/35/8
f 144/36/9 23/1/1 24/3/1
f 39/37/13 18/38/14 17/39/13
f 40/40/14 16/41/11 18/38/14
f 20/42/13 18/38/14 22/43/14
f 22/43/14 16/41/11 21/44/11
f 28/45/3 7/46/4 1/4/3
f 39/37/13 26/47/6 44/48/6
f 25/49/6 17/39/13 20/42/13
f 4/23/10 143/50/12 5/51/10
f 9/29/8 54/52/7 8/33/7
f 8/33/7 25/49/6 13/32/7
f 140/53/15 1/4/3 2/6/3
f 52/16/8 6/7/5 34/9/7
f 151/54/15 27/55/3 28/56/3
f 31/57/3 32/58/4 27/59/3
f 54/52/7 26/47/6 8/33/7
f 29/60/10 150/61/12 30/62/10
f 30/62/10 35/63/11 29/60/10
f 35/64/11 33/65/10 29/66/10
f 41/67/1 152/68/2 43/69/1
f 155/70/9 41/10/1 148/71/9
f 34/72/7 44/73/6 54/74/7
f 31/57/3 145/75/15 153/76/16
f 32/77/4 28/56/3 27/55/3
f 12/78/17 37/79/14 36/80/13
f 37/79/14 38/81/11 35/82/11
f 39/83/13 37/84/14 40/85/14
f 37/84/14 19/86/11 40/85/14
f 149/87/9 41/67/1 43/69/1
f 12/78/17 45/8/6 46/88/6
f 44/73/6 36/89/13 39/83/13
f 147/90/12 33/65/10 156/91/18
f 54/74/7 52/14/8 34/72/7
f 136/92/19 49/93/20 50/94/21
f 136/92/19 57/95/22 49/93/20
f 59/96/23 85/97/24 86/98/25
f 69/99/26 136/92/19 70/100/27
f 68/101/28 136/92/19 69/99/26
f 136/92/19 51/102/29 48/103/19
f 136/92/19 50/94/21 51/102/29
f 77/104/30 136/92/19 68/101/28
f 59/96/23 91/105/31 85/97/24
f 136/92/19 48/103/19 70/100/27
f 59/96/23 62/106/32 61/107/33
f 59/96/23 61/107/33 65/108/34
f 68/109/4 91/105/8 77/110/8
f 69/111/35 85/97/4 68/109/4
f 59/96/23 60/112/36 90/113/37
f 103/114/38 112/115/38 102/116/38
f 77/110/8 90/113/5 76/117/39
f 59/96/23 65/108/34 64/118/40
f 59/96/23 64/118/40 60/112/36
f 98/119/38 83/120/38 74/121/38
f 62/106/41 51/122/42 50/123/41
f 64/118/17 57/124/14 56/125/43
f 59/96/23 90/113/37 91/105/31
f 47/126/6 64/118/17 56/125/43
f 75/127/38 111/128/38 101/129/38
f 48/130/1 89/131/44 70/132/44
f 61/107/11 50/123/41 49/133/11
f 63/134/45 48/130/1 51/122/45
f 65/108/14 49/133/11 57/124/14
f 70/132/46 86/98/35 69/111/35
f 47/126/6 90/113/5 60/112/6
f 75/127/38 80/135/38 84/136/38
f 73/137/38 81/138/38 82/139/38
f 67/140/38 83/120/38 79/141/38
f 102/116/38 109/142/38 97/143/38
f 117/144/47 110/145/48 109/142/47
f 124/146/4 109/142/47 112/115/4
f 109/142/38 98/119/38 97/143/38
f 67/140/38 78/147/38 66/148/38
f 72/149/38 78/147/38 81/138/38
f 71/150/38 82/139/38 80/135/38
f 101/129/38 113/151/38 103/114/38
f 123/152/7 113/151/8 111/128/7
f 129/153/49 117/144/49 124/146/49
f 96/154/6 111/128/7 84/136/6
f 79/141/50 87/155/51 78/147/51
f 78/147/51 93/156/11 81/138/11
f 82/139/14 92/157/13 80/135/13
f 122/158/52 83/120/1 110/145/52
f 128/159/49 125/160/49 123/152/49
f 80/135/13 96/154/6 84/136/6
f 81/138/11 94/161/14 82/139/14
f 83/120/1 88/162/53 79/141/53
f 125/160/8 112/115/4 113/151/8
f 117/144/49 127/163/49 122/158/49
f 165/164/54 184/165/49 190/166/54
f 132/167/3 164/168/4 165/164/55
f 108/169/49 123/152/49 96/154/49
f 87/155/49 100/170/49 99/171/49
f 87/155/49 105/172/49 93/156/49
f 94/161/49 104/173/49 92/157/49
f 127/163/49 95/174/49 122/158/49
f 168/175/8 134/176/7 167/177/56
f 92/157/49 108/169/49 96/154/49
f 93/156/49 106/178/49 94/161/49
f 95/174/49 100/170/49 88/162/49
f 130/179/49 124/146/49 125/160/49
f 164/180/4 135/181/8 168/175/8
f 59/96/23 89/131/57 58/182/58
f 157/183/11 115/184/10 158/185/59
f 163/186/1 133/187/2 166/188/2
f 118/189/13 161/190/14 160/191/60
f 119/192/14 157/193/11 161/190/14
f 167/194/61 189/195/62 192/196/63
f 116/197/9 163/186/1 159/198/9
f 63/134/64 59/96/23 58/182/58
f 56/199/65 57/95/22 136/92/19
f 76/200/66 136/92/19 77/104/30
f 56/199/65 136/92/19 47/201/67
f 76/200/66 47/201/67 136/92/19
f 144/36/68 141/30/12 142/22/68
f 138/202/15 139/2/69 137/20/69
f 149/87/68 147/203/12 148/204/68
f 156/91/18 148/71/68 147/90/12
f 146/12/69 153/76/16 145/75/15
f 150/31/12 142/22/68 141/30/12
f 145/205/15 152/68/69 146/206/69
f 137/20/69 151/207/15 138/202/15
f 28/45/3 138/202/15 151/207/15
f 168/175/49 192/208/63 185/209/49
f 118/210/13 162/211/6 121/212/6
f 134/213/7 162/211/6 167/194/56
f 160/214/70 189/195/62 162/211/49
f 159/198/71 115/184/10 116/197/71
f 164/180/49 185/209/49 184/215/49
f 163/186/49 187/216/72 159/198/73
f 132/167/3 166/188/74 133/187/74
f 190/166/75 180/217/74 191/218/74
f 170/219/71 186/220/76 187/216/71
f 192/196/77 176/221/6 182/222/78
f 188/223/79 176/221/6 189/195/6
f 187/216/9 169/224/1 170/219/9
f 177/225/14 174/226/11 172/227/14
f 188/228/79 172/227/14 173/229/80
f 169/224/1 191/218/2 180/217/2
f 174/230/11 186/220/76 171/231/81
f 183/232/4 185/209/8 181/233/8
f 181/233/8 192/208/77 182/234/78
f 190/166/75 183/235/4 179/236/82
f 157/193/49 177/225/49 161/190/49
f 165/164/54 191/218/83 166/188/84
f 161/190/49 188/228/85 160/191/70
f 163/186/49 191/218/83 178/237/49
f 158/185/86 175/238/49 157/183/49
f 158/185/86 187/216/72 186/220/86
f 23/1/1 137/20/2 139/2/2
f 1/4/3 7/46/4 14/5/4
f 6/7/5 46/88/6 45/8/6
f 41/10/1 42/239/1 154/11/2
f 10/13/4 32/240/4 52/14/8
f 52/16/8 32/241/4 53/17/4
f 23/1/1 43/242/1 152/19/2
f 149/21/9 43/242/1 23/1/1
f 4/23/10 5/51/10 21/24/11
f 16/25/11 19/243/11 30/26/10
f 7/27/4 10/244/4 55/28/8
f 141/30/12 4/23/10 30/26/10
f 13/32/7 15/35/8 9/29/8
f 14/34/4 7/27/4 9/29/8
f 144/36/9 142/22/9 23/1/1
f 39/37/13 40/40/14 18/38/14
f 40/40/14 19/245/11 16/41/11
f 20/42/13 17/39/13 18/38/14
f 22/43/14 18/38/14 16/41/11
f 28/45/3 10/246/4 7/46/4
f 39/37/13 17/39/13 26/47/6
f 25/49/6 26/47/6 17/39/13
f 4/23/10 141/30/12 143/50/12
f 9/29/8 55/28/8 54/52/7
f 8/33/7 26/47/6 25/49/6
f 140/53/15 138/202/15 1/4/3
f 52/16/8 3/18/8 6/7/5
f 151/54/15 145/205/15 27/55/3
f 31/57/3 53/247/4 32/58/4
f 54/52/7 44/48/6 26/47/6
f 29/60/10 147/203/12 150/61/12
f 30/62/10 19/248/11 35/63/11
f 35/64/11 38/249/11 33/65/10
f 41/67/1 146/206/2 152/68/2
f 155/70/9 42/239/1 41/10/1
f 34/72/7 45/250/6 44/73/6
f 31/57/3 27/59/3 145/75/15
f 32/77/4 10/251/4 28/56/3
f 12/78/17 11/252/14 37/79/14
f 37/79/14 11/252/14 38/81/11
f 39/83/13 36/89/13 37/84/14
f 37/84/14 35/253/11 19/86/11
f 149/87/9 148/204/9 41/67/1
f 12/78/17 36/80/13 45/8/6
f 44/73/6 45/250/6 36/89/13
f 147/90/12 29/66/10 33/65/10
f 54/74/7 55/15/8 52/14/8
f 68/109/4 85/97/4 91/105/8
f 69/111/35 86/98/35 85/97/4
f 103/114/38 113/151/38 112/115/38
f 77/110/8 91/105/8 90/113/5
f 98/119/38 110/145/38 83/120/38
f 62/106/41 63/134/42 51/122/42
f 64/118/17 65/108/14 57/124/14
f 47/126/6 60/112/6 64/118/17
f 75/127/38 84/136/38 111/128/38
f 48/130/1 58/182/1 89/131/44
f 61/107/11 62/106/41 50/123/41
f 63/134/45 58/182/1 48/130/1
f 65/108/14 61/107/11 49/133/11
f 70/132/46 89/131/46 86/98/35
f 47/126/6 76/117/39 90/113/5
f 75/127/38 71/150/38 80/135/38
f 73/137/38 72/149/38 81/138/38
f 67/140/38 74/121/38 83/120/38
f 102/116/38 112/115/38 109/142/38
f 117/144/47 122/158/48 110/145/48
f 124/146/4 117/144/47 109/142/47
f 109/142/38 110/145/38 98/119/38
f 67/140/38 79/141/38 78/147/38
f 72/149/38 66/148/38 78/147/38
f 71/150/38 73/137/38 82/139/38
f 101/129/38 111/128/38 113/151/38
f 123/152/7 125/160/8 113/151/8
f 129/153/49 126/254/49 117/144/49
f 96/154/6 123/152/7 111/128/7
f 79/141/50 88/162/50 87/155/51
f 78/147/51 87/155/51 93/156/11
f 82/139/14 94/161/14 92/157/13
f 122/158/52 95/174/1 83/120/1
f 128/159/49 130/179/49 125/160/49
f 80/135/13 92/157/13 96/154/6
f 81/138/11 93/156/11 94/161/14
f 83/120/1 95/174/1 88/162/53
f 125/160/8 124/146/4 112/115/4
f 117/144/49 126/254/49 127/163/49
f 165/164/54 164/168/49 184/165/49
f 132/167/3 131/255/4 164/168/4
f 108/169/49 128/159/49 123/152/49
f 87/155/49 88/162/49 100/170/49
f 87/155/49 99/171/49 105/172/49
f 94/161/49 106/178/49 104/173/49
f 127/163/49 107/256/49 95/174/49
f 168/175/8 135/181/8 134/176/7
f 92/157/49 104/173/49 108/169/49
f 93/156/49 105/172/49 106/178/49
f 95/174/49 107/256/49 100/170/49
f 130/179/49 129/153/49 124/146/49
f 164/180/4 131/257/4 135/181/8
f 59/96/23 86/98/25 89/131/57
f 157/183/11 114/258/11 115/184/10
f 163/186/1 120/259/1 133/187/2
f 118/189/13 119/192/14 161/190/14
f 119/192/14 114/260/11 157/193/11
f 167/194/61 162/211/49 189/195/62
f 116/197/9 120/259/1 163/186/1
f 63/134/64 62/106/32 59/96/23
f 144/36/68 143/50/12 141/30/12
f 138/202/15 140/53/15 139/2/69
f 149/87/68 150/61/12 147/203/12
f 156/91/18 155/70/68 148/71/68
f 146/12/69 154/11/69 153/76/16
f 150/31/12 149/21/68 142/22/68
f 145/205/15 151/54/15 152/68/69
f 137/20/69 152/19/69 151/207/15
f 28/45/3 1/4/3 138/202/15
f 168/175/49 167/177/61 192/208/63
f 118/210/13 160/214/60 162/211/6
f 134/213/7 121/212/6 162/211/6
f 160/214/70 188/223/85 189/195/62
f 159/198/71 158/185/59 115/184/10
f 164/180/49 168/175/49 185/209/49
f 163/186/49 178/237/49 187/216/72
f 132/167/3 165/164/55 166/188/74
f 190/166/75 179/236/82 180/217/74
f 170/219/71 171/231/81 186/220/76
f 192/196/77 189/195/6 176/221/6
f 188/223/79 173/261/80 176/221/6
f 187/216/9 178/237/1 169/224/1
f 177/225/14 175/262/11 174/226/11
f 188/228/79 177/225/14 172/227/14
f 169/224/1 178/237/1 191/218/2
f 174/230/11 175/238/11 186/220/76
f 183/232/4 184/215/4 185/209/8
f 181/233/8 185/209/8 192/208/77
f 190/166/75 184/165/4 183/235/4
f 157/193/49 175/262/49 177/225/49
f 165/164/54 190/166/54 191/218/83
f 161/190/49 177/225/49 188/228/85
f 163/186/49 166/188/84 191/218/83
f 158/185/86 186/220/86 175/238/49
f 158/185/86 159/198/73 187/216/72
