# Blender v2.91.0 Beta OBJ File: 'decos.blend'
# www.blender.org
o Cylinder.001_Cylinder.006
v 2.100048 1.532125 1.914676
v 2.922822 1.532125 1.833949
v 3.504612 2.113914 1.914676
v 2.922822 2.354899 1.914676
v 3.745597 1.532125 1.914676
v 3.504612 0.950336 1.914676
v 2.922822 0.709350 1.914676
v 2.341033 0.950336 1.914676
v 2.341033 2.113914 1.914676
v 2.922822 3.006446 1.779856
v 3.965325 2.574628 1.779856
v 4.397144 1.532125 1.779856
v 3.965325 0.489622 1.779856
v 2.922822 0.057803 1.779856
v 1.880319 0.489622 1.779856
v 1.448501 1.532125 1.779856
v 4.563643 1.577403 1.660214
v 1.282001 1.577403 1.950092
v 4.563643 1.005535 1.376252
v 2.218800 3.520438 1.950092
v 1.172156 1.623857 1.950092
v 4.682908 1.005535 1.376252
v 4.118287 3.520438 1.950092
v 2.264202 3.405149 1.950092
v -5.145809 3.464308 1.897280
v -5.035064 5.104083 1.897280
v 1.758665 2.185365 1.897279
v 2.217514 4.334422 1.897280
v 1.757883 4.827716 1.897280
v 2.471426 4.956365 1.897280
v 2.140178 5.218048 1.897280
v 2.591250 4.987747 1.897280
v 4.297314 5.061924 1.897280
v 4.219978 5.178106 1.897280
v 4.279890 5.363548 1.897280
v 4.700352 3.396814 0.865018
v 4.741669 3.520438 0.931163
v 4.119061 3.520438 0.975046
v 4.682908 1.005535 0.975046
v 4.741669 1.042082 0.917492
v 4.741669 1.005535 0.931163
v 4.741669 3.443098 0.905598
v 4.741669 1.078919 0.905598
v 4.700352 1.122835 0.865018
v 1.880319 2.574628 1.779856
v -5.145809 3.464308 1.218717
v 1.757883 4.970683 1.218717
v 2.140178 5.361014 1.218717
v 4.219978 5.321074 1.218717
v 4.279890 5.506515 1.218717
v -5.035064 5.247050 1.218717
v 1.758665 2.185365 1.218717
v 4.297314 5.204891 1.218717
v 3.406618 3.405149 1.950092
v 3.690843 3.248838 1.939996
v 1.610272 2.322326 1.183865
v -4.994553 3.506702 1.183865
v 1.532777 4.128286 1.152648
v 1.532777 3.999483 1.669001
v -4.811867 4.701708 1.152648
v -4.811867 4.572906 1.669001
v 2.100048 1.532125 -1.914676
v 4.563643 1.577403 -1.660214
v 1.282001 1.577403 -1.950092
v 4.700352 1.122835 0.000000
v 4.563643 1.005535 -1.376252
v 4.180231 2.790208 0.000000
v 4.682908 1.005535 0.000000
v 4.681475 1.607281 -1.660214
v 1.172156 1.623857 -1.950092
v 4.682908 1.005535 -1.376252
v 4.118287 3.520438 -1.950092
v 2.264202 3.405149 -1.950092
v 2.218800 3.520438 -1.950092
v -5.145809 3.464308 -1.897280
v -5.035064 5.104083 -1.897280
v 1.758665 2.185365 -1.897279
v 2.217514 4.334422 -1.897280
v 1.757883 4.827716 -1.897280
v 2.471426 4.956365 -1.897280
v 2.591250 4.987747 -1.897280
v 2.140178 5.218048 -1.897280
v 4.297314 5.061924 -1.897280
v 4.219978 5.178106 -1.897280
v 4.279890 5.363548 -1.897280
v 4.700352 3.396814 -0.865018
v 4.741669 3.520438 -0.931163
v 4.700352 3.396814 0.000000
v 4.119834 3.520438 0.000000
v 4.741669 3.520438 0.000000
v 4.119061 3.520438 -0.975046
v 4.682908 1.005535 -0.975046
v 4.741669 1.042082 -0.917492
v 4.741669 1.005535 -0.931163
v 4.741669 3.443098 -0.905598
v 4.741669 1.005535 0.000000
v 4.741669 1.078919 -0.905598
v 4.741669 3.443098 0.000000
v 4.741669 1.078919 0.000000
v 4.700352 1.122835 -0.865018
v 3.406618 3.405149 -1.950092
v 2.922822 1.532125 -1.833949
v -5.145809 3.464308 -1.218717
v 1.757883 4.970683 -1.218717
v 2.140178 5.361014 -1.218717
v 4.219978 5.321074 -1.218717
v 4.279890 5.506515 -1.218717
v -5.035064 5.247050 -1.218717
v 1.758665 2.185365 -1.218717
v 4.297314 5.204891 -1.218717
v 3.504612 2.113914 -1.914676
v 2.922822 2.354899 -1.914676
v 3.745597 1.532125 -1.914676
v 3.504612 0.950336 -1.914676
v 2.922822 0.709350 -1.914676
v 2.341033 0.950336 -1.914676
v 2.341033 2.113914 -1.914676
v 3.690843 3.248838 -1.939996
v 1.610272 2.322326 -1.183865
v -4.994553 3.506702 -1.183865
v 1.532777 4.128286 -1.152648
v 1.532777 3.999483 -1.669001
v -4.811867 4.701708 -1.152648
v -4.811867 4.572906 -1.669001
v 2.922822 3.006446 -1.779856
v 3.965325 2.574628 -1.779856
v 4.397144 1.532125 -1.779856
v 3.965325 0.489622 -1.779856
v 2.922822 0.057803 -1.779856
v 1.880319 0.489622 -1.779856
v 1.448501 1.532125 -1.779856
v 1.880319 2.574628 -1.779856
v -2.448207 1.532125 1.914676
v -1.625432 1.532125 1.833949
v -1.043643 2.113914 1.914676
v -1.625432 2.354899 1.914676
v -0.802658 1.532125 1.914676
v -1.043643 0.950336 1.914676
v -1.625432 0.709350 1.914676
v -2.207222 0.950336 1.914676
v -2.207222 2.113914 1.914676
v -1.625432 3.006446 1.779856
v -0.582930 2.574628 1.779856
v -0.151111 1.532125 1.779856
v -0.582930 0.489622 1.779856
v -1.625432 0.057803 1.779856
v -2.667935 0.489622 1.779856
v -3.099754 1.532125 1.779856
v -2.667935 2.574628 1.779856
v -2.448207 1.532125 -1.914676
v -1.625432 1.532125 -1.833949
v -1.043643 2.113914 -1.914676
v -1.625432 2.354899 -1.914676
v -0.802658 1.532125 -1.914676
v -1.043643 0.950336 -1.914676
v -1.625432 0.709350 -1.914676
v -2.207222 0.950336 -1.914676
v -2.207222 2.113914 -1.914676
v -1.625432 3.006446 -1.779856
v -0.582930 2.574628 -1.779856
v -0.151111 1.532125 -1.779856
v -0.582930 0.489622 -1.779856
v -1.625432 0.057803 -1.779856
v -2.667935 0.489622 -1.779856
v -3.099754 1.532125 -1.779856
v -2.667935 2.574628 -1.779856
vt 0.367188 0.867188
vt 0.367188 0.867188
vt 0.367188 0.867188
vt 0.367188 0.867188
vt 0.367188 0.867188
vt 0.367188 0.867188
vt 0.367188 0.867188
vt 0.367188 0.867188
vt 0.835938 0.398438
vt 0.835938 0.398438
vt 0.835938 0.398438
vt 0.835938 0.398438
vt 0.835938 0.398438
vt 0.835938 0.398438
vt 0.367188 0.867188
vt 0.367188 0.867188
vt 0.367188 0.867188
vt 0.367188 0.867188
vt 0.367188 0.867188
vt 0.367188 0.867188
vt 0.367188 0.867188
vt 0.367188 0.867188
vt 0.367188 0.867188
vt 0.367188 0.867188
vt 0.367188 0.867188
vt 0.367188 0.867188
vt 0.367188 0.867188
vt 0.367188 0.867188
vt 0.367188 0.867188
vt 0.367188 0.867188
vt 0.367188 0.867188
vt 0.367188 0.867188
vt 0.367187 0.867187
vt 0.835938 0.398438
vt 0.835938 0.398438
vt 0.367188 0.867188
vt 0.367188 0.867188
vt 0.367188 0.867188
vt 0.367188 0.867188
vt 0.367188 0.867188
vt 0.367188 0.867188
vt 0.367188 0.867188
vt 0.367188 0.867188
vt 0.367188 0.867188
vt 0.367188 0.867188
vt 0.367188 0.867188
vt 0.367188 0.867188
vt 0.367188 0.867188
vt 0.367188 0.867188
vt 0.367188 0.867188
vt 0.367188 0.867188
vt 0.835938 0.398438
vt 0.835938 0.398438
vt 0.835938 0.398438
vt 0.367188 0.867188
vt 0.367188 0.867188
vt 0.367188 0.867188
vt 0.367188 0.867188
vt 0.367188 0.867188
vt 0.367188 0.867188
vt 0.367188 0.867188
vt 0.367188 0.867188
vt 0.367188 0.867188
vt 0.367188 0.867188
vt 0.835938 0.398438
vt 0.835938 0.398438
vt 0.367188 0.867188
vt 0.367187 0.867187
vt 0.367188 0.867188
vt 0.367188 0.867188
vt 0.835938 0.398438
vt 0.367187 0.867188
vt 0.367188 0.867188
vt 0.367188 0.867188
vt 0.367188 0.867188
vt 0.835938 0.398438
vt 0.835938 0.398438
vt 0.835938 0.398438
vt 0.367188 0.867188
vt 0.367188 0.867188
vt 0.367188 0.867188
vt 0.367188 0.867188
vt 0.367188 0.867188
vt 0.367188 0.867188
vt 0.367188 0.867188
vt 0.367188 0.867188
vt 0.367188 0.867188
vt 0.367188 0.867188
vt 0.367188 0.867188
vt 0.367188 0.867188
vt 0.367188 0.867188
vt 0.367188 0.867188
vt 0.367188 0.867188
vt 0.367188 0.867188
vt 0.367188 0.867188
vt 0.367188 0.867188
vt 0.367188 0.867188
vt 0.367187 0.867187
vt 0.367188 0.867188
vt 0.367188 0.867188
vt 0.367188 0.867188
vt 0.367187 0.867187
vt 0.367188 0.867188
vt 0.367188 0.867188
vt 0.367188 0.867188
vt 0.367188 0.867188
vt 0.367188 0.867188
vt 0.367187 0.867187
vt 0.367188 0.867188
vt 0.367188 0.867188
vt 0.367188 0.867188
vt 0.367188 0.867188
vt 0.367188 0.867188
vt 0.367188 0.867188
vt 0.367188 0.867188
vt 0.367188 0.867188
vt 0.367188 0.867188
vt 0.367188 0.867188
vt 0.367188 0.867188
vt 0.367188 0.867188
vt 0.367188 0.867188
vt 0.367188 0.867188
vt 0.367188 0.867188
vt 0.367188 0.867188
vt 0.367188 0.867188
vt 0.367188 0.867188
vt 0.367188 0.867188
vt 0.367188 0.867188
vt 0.367187 0.867188
vt 0.835938 0.398438
vt 0.835938 0.398438
vt 0.835938 0.398438
vt 0.367188 0.867188
vt 0.367188 0.867188
vt 0.367188 0.867188
vt 0.835938 0.398438
vt 0.835938 0.398438
vt 0.835938 0.398438
vt 0.835938 0.398438
vt 0.835938 0.398438
vt 0.835938 0.398438
vt 0.835938 0.398438
vt 0.835938 0.398438
vt 0.835938 0.398438
vt 0.835938 0.398438
vt 0.835938 0.398438
vt 0.835938 0.398438
vt 0.835938 0.398438
vt 0.835938 0.398438
vt 0.835938 0.398438
vt 0.835938 0.398438
vt 0.835938 0.398438
vt 0.835937 0.398438
vt 0.835938 0.398438
vt 0.835938 0.398438
vt 0.835938 0.398438
vt 0.367188 0.867188
vt 0.367188 0.867188
vt 0.367188 0.867188
vt 0.835938 0.398438
vt 0.367188 0.867188
vt 0.367187 0.867187
vt 0.835938 0.398438
vt 0.835938 0.398438
vt 0.367187 0.867188
vt 0.367188 0.867188
vt 0.367188 0.867188
vt 0.367188 0.867188
vt 0.835938 0.398438
vt 0.835938 0.398438
vt 0.835938 0.398438
vt 0.367188 0.867188
vt 0.367187 0.867187
vt 0.367188 0.867188
vt 0.367188 0.867188
vt 0.367188 0.867188
vt 0.367188 0.867188
vt 0.367188 0.867188
vt 0.367188 0.867188
vt 0.367187 0.867188
vt 0.835938 0.398438
vt 0.835938 0.398438
vt 0.835938 0.398438
vt 0.835938 0.398438
vt 0.835938 0.398438
vt 0.835938 0.398438
vt 0.835938 0.398438
vt 0.835938 0.398438
vt 0.835938 0.398438
vt 0.835938 0.398438
vt 0.835938 0.398438
vt 0.835938 0.398438
vt 0.835938 0.398438
vt 0.835938 0.398438
vt 0.835938 0.398438
vt 0.835938 0.398438
vt 0.835938 0.398438
vt 0.835938 0.398438
vt 0.835938 0.398438
vt 0.835938 0.398438
vt 0.835938 0.398438
vt 0.367188 0.867188
vn 0.0000 0.0000 1.0000
vn -0.1433 -0.1433 0.9793
vn 0.0000 -0.2026 0.9793
vn 0.2026 0.0000 0.9793
vn 0.1433 0.1433 0.9793
vn 0.9046 0.4262 0.0000
vn 0.7283 0.6852 0.0000
vn 0.9296 0.3686 0.0000
vn -0.9979 0.0640 0.0016
vn -0.9979 0.0632 0.0102
vn -0.9981 0.0620 0.0061
vn -0.0000 1.0000 0.0000
vn 0.9687 0.2411 0.0595
vn 0.9966 0.0824 -0.0008
vn 0.9808 0.1943 0.0156
vn 1.0000 0.0000 0.0000
vn 0.0000 0.0000 -1.0000
vn 0.0852 -0.0017 0.9964
vn 0.5854 0.1797 0.7906
vn 0.0703 -0.0055 0.9975
vn 0.1433 -0.1433 0.9793
vn -0.9496 0.3068 0.0646
vn -0.9510 0.3072 0.0342
vn 0.0230 0.2689 -0.9629
vn 0.0168 0.3915 -0.9200
vn 0.0163 0.4006 -0.9161
vn -0.9511 0.3073 -0.0302
vn -0.9511 0.3073 0.0302
vn 0.9983 0.0577 0.0121
vn 0.9983 0.0577 0.0065
vn 0.9983 0.0577 0.0056
vn 0.0015 -0.0091 1.0000
vn -1.0000 -0.0002 0.0000
vn 0.9679 0.2495 -0.0303
vn 0.9801 0.1940 -0.0416
vn 0.9712 0.2312 -0.0577
vn 0.6286 0.1806 0.7565
vn 0.5732 0.2871 0.7675
vn 0.0191 0.9944 0.1038
vn 0.0188 0.9783 0.2061
vn -0.9966 -0.0824 -0.0008
vn 0.9983 0.0577 -0.0065
vn 0.9983 0.0577 -0.0056
vn -0.7127 0.6980 -0.0695
vn -0.7123 0.6977 0.0764
vn -0.7127 0.6980 0.0695
vn 0.9277 0.3710 0.0419
vn 0.9282 0.3626 0.0828
vn 0.9264 0.3736 0.0459
vn -0.7068 0.6922 0.1458
vn 0.0191 0.9944 -0.1038
vn 0.0191 0.9944 0.1035
vn 0.0000 -0.0976 0.9952
vn -0.0690 -0.0690 0.9952
vn -0.9981 0.0620 -0.0061
vn -0.9979 0.0640 -0.0016
vn 0.7007 0.0000 -0.7134
vn 0.0000 0.2026 0.9793
vn -0.0690 0.0690 0.9952
vn -0.0976 0.0000 0.9952
vn -0.1433 0.1433 0.9793
vn 0.0690 -0.0690 0.9952
vn 0.0690 0.0690 0.9952
vn -0.0000 0.0976 0.9952
vn 0.0976 -0.0000 0.9952
vn -0.2026 0.0000 0.9793
vn 0.0318 -0.0871 0.9957
vn 0.0440 -0.1028 0.9937
vn 0.9264 0.3736 -0.0459
vn -0.9663 0.2561 -0.0263
vn -0.9668 0.2537 0.0298
vn -0.9663 0.2561 0.0263
vn 0.0893 0.9885 -0.1223
vn 0.0894 0.9887 0.1206
vn 0.0893 0.9885 0.1223
vn -0.0545 -0.3035 -0.9513
vn -0.0817 -0.4413 -0.8936
vn -0.0539 -0.3007 -0.9522
vn 0.0874 0.9666 0.2411
vn -0.9979 0.0632 -0.0102
vn -0.9977 0.0674 0.0000
vn 0.5854 0.1797 -0.7906
vn 0.5732 0.2871 -0.7675
vn 0.6286 0.1806 -0.7565
vn -0.0976 0.0000 -0.9952
vn -0.0690 0.0690 -0.9952
vn 0.0852 -0.0017 -0.9964
vn 0.0703 -0.0055 -0.9975
vn -0.9496 0.3068 -0.0646
vn -0.9510 0.3073 -0.0342
vn -0.9668 0.2537 -0.0298
vn -0.9663 0.2511 -0.0563
vn -0.9673 0.2460 -0.0614
vn 0.0126 -0.4426 -0.8966
vn 0.0675 -0.2892 -0.9549
vn 0.0729 -0.2781 -0.9578
vn 0.9983 0.0577 -0.0121
vn 0.0311 -0.0867 -0.9957
vn 0.0439 -0.1028 -0.9937
vn 0.0188 0.9783 -0.2061
vn 0.0191 0.9944 -0.1035
vn 1.0000 0.0024 0.0000
vn 0.9764 0.2063 0.0641
vn 0.9695 0.2421 0.0382
vn 0.7007 0.0000 0.7134
vn -0.7068 0.6922 -0.1458
vn -0.7123 0.6977 -0.0764
vn 0.0015 -0.0091 -1.0000
vn -0.8755 0.4832 0.0000
vn -0.0690 -0.0690 -0.9952
vn 0.0000 -0.0976 -0.9952
vn -1.0000 0.0000 0.0000
vn 0.0690 0.0690 -0.9952
vn 0.0976 -0.0000 -0.9952
vn -0.0000 0.0976 -0.9952
vn 0.0690 -0.0690 -0.9952
vn 0.1433 0.1433 -0.9793
vn 0.0000 0.2026 -0.9793
vn -0.9966 -0.0824 0.0008
vn -0.0545 -0.3035 0.9513
vn -0.0817 -0.4413 0.8936
vn -0.0819 -0.4421 0.8932
vn 0.0874 0.9666 -0.2411
vn 0.0894 0.9887 -0.1206
vn 0.0168 0.3915 0.9200
vn 0.0230 0.2689 0.9629
vn 0.0163 0.4006 0.9161
vn 0.9277 0.3710 -0.0419
vn 0.9282 0.3626 -0.0828
vn 0.9305 0.3585 -0.0755
vn -0.9663 0.2511 0.0563
vn 0.2026 0.0000 -0.9793
vn 0.1433 -0.1433 -0.9793
vn 0.0000 -0.2026 -0.9793
vn -0.1433 -0.1433 -0.9793
vn -0.2026 0.0000 -0.9793
vn -0.1433 0.1433 -0.9793
vn -0.3827 0.9239 0.0000
vn -0.9239 0.3827 0.0000
vn -0.9239 -0.3827 0.0000
vn -0.3827 -0.9239 0.0000
vn 0.7071 -0.7071 0.0000
vn 0.3827 -0.9239 0.0000
vn 0.9239 0.3827 0.0000
vn 0.3827 0.9239 0.0000
vn 0.0235 0.2597 -0.9654
vn 0.0615 -0.1335 0.9891
vn 0.0000 -0.4447 0.8957
vn 0.9305 0.3585 0.0755
vn -0.0819 -0.4421 -0.8932
vn 0.9966 0.0824 0.0008
vn 0.0000 -0.4447 -0.8957
vn -0.0539 -0.3007 0.9522
vn 0.0235 0.2597 0.9654
vn -0.9673 0.2460 0.0614
s 1
f 34/1/1 33/2/1 35/3/1
f 25/4/1 29/5/1 26/6/1
f 25/4/1 27/7/1 28/8/1
f 15/9/2 7/10/3 8/11/2
f 12/12/4 3/13/5 5/14/4
f 44/15/6 99/16/7 65/17/8
f 46/18/9 26/6/10 51/19/11
f 30/20/1 29/5/1 28/8/1
f 37/21/12 89/22/12 38/23/12
f 72/24/13 89/22/14 67/25/15
f 43/26/16 96/27/16 99/16/16
f 30/20/1 32/28/1 31/29/1
f 70/30/17 73/31/17 64/32/17
f 38/23/18 40/33/19 37/21/20
f 25/4/1 28/8/1 29/5/1
f 13/34/21 5/14/4 6/35/21
f 35/3/22 49/36/23 34/1/22
f 29/5/24 61/37/25 26/6/26
f 107/38/27 49/36/23 50/39/28
f 35/3/29 53/40/30 50/39/31
f 54/41/32 20/42/1 24/43/1
f 36/44/16 65/17/8 88/45/16
f 37/21/16 43/26/16 42/46/16
f 40/33/33 41/47/33 43/26/33
f 34/1/1 32/28/1 33/2/1
f 22/48/34 23/49/35 17/50/36
f 40/33/19 39/51/37 41/47/38
f 44/15/6 65/17/8 36/44/16
f 49/36/39 31/29/40 34/1/40
f 38/23/41 89/22/41 67/25/41
f 89/22/12 20/42/12 23/49/12
f 50/52/31 110/53/42 107/54/43
f 105/55/44 47/56/45 48/57/46
f 51/19/47 61/37/48 60/58/49
f 31/29/50 47/56/45 29/5/50
f 106/59/51 48/57/52 49/36/39
f 4/60/53 2/61/1 3/62/54
f 46/18/9 108/63/55 103/64/56
f 36/44/57 43/26/57 44/15/57
f 3/13/5 10/65/58 4/66/58
f 2/61/1 6/67/59 5/68/60
f 24/43/1 21/69/1 18/70/1
f 10/65/58 9/71/61 4/66/58
f 9/72/62 2/61/1 4/60/53
f 2/61/1 8/73/63 7/74/64
f 3/62/54 2/61/1 5/68/60
f 8/73/63 2/61/1 1/75/65
f 1/75/65 2/61/1 9/72/62
f 7/74/64 6/67/59 2/61/1
f 45/76/61 1/77/66 9/71/61
f 7/10/3 13/34/21 6/35/21
f 16/78/66 8/11/2 1/77/66
f 90/79/16 42/46/16 98/80/16
f 54/41/32 55/81/67 23/49/68
f 123/82/69 51/19/47 60/58/49
f 104/83/70 58/84/71 47/56/72
f 121/85/73 60/58/74 58/84/75
f 52/86/76 57/87/77 56/88/78
f 58/84/75 61/37/79 59/89/79
f 84/90/17 85/91/17 83/92/17
f 75/93/17 76/94/17 79/95/17
f 75/93/17 78/96/17 77/97/17
f 100/98/6 86/99/16 65/17/8
f 22/48/34 67/25/15 23/49/35
f 103/64/56 76/94/80 75/93/81
f 80/100/17 79/95/17 82/101/17
f 93/102/82 94/103/83 92/104/84
f 87/105/12 89/22/12 90/79/12
f 80/100/17 82/101/17 81/106/17
f 75/93/17 79/95/17 78/96/17
f 102/107/17 113/108/85 114/109/86
f 93/102/82 91/110/87 87/105/88
f 85/91/89 106/59/90 107/38/27
f 121/85/91 79/95/92 122/111/93
f 71/112/94 63/113/95 69/114/96
f 85/91/97 110/115/42 83/92/97
f 69/114/96 118/116/98 72/24/99
f 72/24/12 74/117/12 89/22/12
f 86/99/16 88/45/16 65/17/8
f 84/90/17 81/106/17 82/101/17
f 93/102/33 97/118/33 94/103/33
f 106/59/51 82/101/100 105/55/101
f 71/112/102 69/114/103 68/119/104
f 86/99/105 97/118/105 95/120/105
f 97/118/16 87/105/16 95/120/16
f 97/118/16 96/27/16 94/103/16
f 90/79/16 95/120/16 87/105/16
f 82/101/106 104/83/107 105/55/44
f 101/121/108 74/117/17 72/24/99
f 70/30/109 20/42/109 74/117/109
f 100/98/6 99/16/7 97/118/7
f 111/122/110 113/108/85 102/107/17
f 112/123/111 111/122/110 102/107/17
f 17/50/112 66/124/112 19/125/112
f 116/126/113 62/127/114 102/107/17
f 115/128/115 102/107/17 114/109/86
f 102/107/17 115/128/115 116/126/113
f 62/127/114 117/129/116 102/107/17
f 117/129/116 112/123/111 102/107/17
f 111/130/117 125/131/118 126/132/117
f 91/110/119 67/25/119 89/22/119
f 101/121/108 72/24/99 118/116/98
f 109/133/120 120/134/121 103/64/122
f 121/85/73 124/135/123 123/82/124
f 124/135/125 79/95/126 76/94/127
f 108/63/128 124/135/129 76/94/130
f 58/84/71 29/5/131 47/56/72
f 111/130/117 127/136/132 113/137/132
f 113/137/132 128/138/133 114/139/133
f 115/140/134 128/138/133 129/141/134
f 115/140/134 130/142/135 116/143/135
f 116/143/135 131/144/136 62/145/136
f 62/145/136 132/146/137 117/147/137
f 117/147/137 125/131/118 112/148/118
f 147/149/2 139/150/3 140/151/2
f 137/152/4 143/153/5 135/154/5
f 138/155/21 144/156/4 137/152/4
f 136/157/53 134/158/1 135/159/54
f 143/153/5 136/160/58 135/154/5
f 134/158/1 138/161/59 137/162/60
f 142/163/58 141/164/61 136/160/58
f 141/165/62 134/158/1 136/157/53
f 134/158/1 140/166/63 139/167/64
f 135/159/54 134/158/1 137/162/60
f 140/166/63 134/158/1 133/168/65
f 133/168/65 134/158/1 141/165/62
f 139/167/64 138/161/59 134/158/1
f 141/164/61 148/169/66 133/170/66
f 139/150/3 145/171/21 138/155/21
f 148/169/66 140/151/2 133/170/66
f 151/172/17 154/173/85 155/174/86
f 152/175/110 154/173/85 151/172/17
f 153/176/111 152/175/110 151/172/17
f 157/177/113 150/178/114 151/172/17
f 156/179/115 151/172/17 155/174/86
f 151/172/17 156/179/115 157/177/113
f 150/178/114 158/180/116 151/172/17
f 158/180/116 153/176/111 151/172/17
f 152/181/117 159/182/118 160/183/117
f 154/184/132 160/183/117 161/185/132
f 154/184/132 162/186/133 155/187/133
f 156/188/134 162/186/133 163/189/134
f 156/188/134 164/190/135 157/191/135
f 157/191/135 165/192/136 150/193/136
f 158/194/137 165/192/136 166/195/137
f 158/194/137 159/182/118 153/196/118
f 132/146/138 10/65/12 125/131/12
f 131/144/112 45/76/139 132/146/139
f 130/142/140 16/78/112 131/144/112
f 129/141/141 15/9/141 130/142/141
f 128/138/142 14/197/143 129/141/143
f 127/136/16 13/34/142 128/138/142
f 126/132/144 12/12/16 127/136/16
f 125/131/12 11/198/145 126/132/145
f 166/195/138 142/163/12 159/182/12
f 166/195/139 148/169/112 149/199/139
f 164/190/140 148/169/112 165/192/112
f 163/189/141 147/149/141 164/190/141
f 162/186/142 146/200/143 163/189/143
f 161/185/16 145/171/142 162/186/142
f 160/183/144 144/156/16 161/185/16
f 159/182/12 143/153/145 160/183/145
f 15/9/2 14/197/3 7/10/3
f 12/12/4 11/198/5 3/13/5
f 44/15/6 43/26/7 99/16/7
f 46/18/9 25/4/81 26/6/10
f 30/20/1 31/29/1 29/5/1
f 37/21/12 90/79/12 89/22/12
f 68/119/104 69/114/103 67/25/15
f 69/114/103 72/24/13 67/25/15
f 43/26/16 41/47/16 96/27/16
f 70/30/17 74/117/17 73/31/17
f 38/23/18 39/51/37 40/33/19
f 13/34/21 12/12/4 5/14/4
f 35/3/22 50/39/28 49/36/23
f 29/5/24 59/89/146 61/37/25
f 107/38/27 106/59/90 49/36/23
f 35/3/29 33/2/29 53/40/30
f 54/41/32 23/49/68 20/42/1
f 37/21/16 40/33/16 43/26/16
f 34/1/1 31/29/1 32/28/1
f 23/49/68 55/81/67 17/50/147
f 17/50/148 19/125/148 22/48/148
f 49/36/39 48/57/52 31/29/40
f 89/22/12 74/117/12 20/42/12
f 50/52/31 53/201/30 110/53/42
f 105/55/44 104/83/107 47/56/45
f 51/19/47 26/6/149 61/37/48
f 31/29/50 48/57/46 47/56/45
f 106/59/51 105/55/101 48/57/52
f 46/18/9 51/19/11 108/63/55
f 36/44/57 42/46/57 43/26/57
f 3/13/5 11/198/5 10/65/58
f 24/43/1 20/42/1 21/69/1
f 10/65/58 45/76/61 9/71/61
f 45/76/61 16/78/66 1/77/66
f 7/10/3 14/197/3 13/34/21
f 16/78/66 15/9/2 8/11/2
f 90/79/16 37/21/16 42/46/16
f 123/82/69 108/63/128 51/19/47
f 104/83/70 121/85/91 58/84/71
f 121/85/73 123/82/124 60/58/74
f 52/86/76 46/18/150 57/87/77
f 58/84/75 60/58/74 61/37/79
f 68/119/104 67/25/15 22/48/34
f 67/25/15 89/22/151 23/49/35
f 103/64/56 108/63/55 76/94/80
f 80/100/17 78/96/17 79/95/17
f 87/105/12 91/110/12 89/22/12
f 93/102/82 92/104/84 91/110/87
f 85/91/89 84/90/89 106/59/90
f 121/85/91 104/83/70 79/95/92
f 71/112/94 66/124/152 63/113/95
f 85/91/97 107/38/43 110/115/42
f 69/114/96 63/113/95 118/116/98
f 84/90/17 83/92/17 81/106/17
f 106/59/51 84/90/100 82/101/100
f 86/99/105 100/98/105 97/118/105
f 97/118/16 93/102/16 87/105/16
f 97/118/16 99/16/16 96/27/16
f 90/79/16 98/80/16 95/120/16
f 82/101/106 79/95/106 104/83/107
f 101/121/108 73/31/17 74/117/17
f 70/30/109 21/69/109 20/42/109
f 100/98/6 65/17/8 99/16/7
f 17/50/112 63/113/112 66/124/112
f 111/130/117 112/148/118 125/131/118
f 109/133/120 119/202/153 120/134/121
f 121/85/73 122/111/123 124/135/123
f 124/135/125 122/111/154 79/95/126
f 108/63/128 123/82/69 124/135/129
f 58/84/71 59/89/155 29/5/131
f 111/130/117 126/132/117 127/136/132
f 113/137/132 127/136/132 128/138/133
f 115/140/134 114/139/133 128/138/133
f 115/140/134 129/141/134 130/142/135
f 116/143/135 130/142/135 131/144/136
f 62/145/136 131/144/136 132/146/137
f 117/147/137 132/146/137 125/131/118
f 147/149/2 146/200/3 139/150/3
f 137/152/4 144/156/4 143/153/5
f 138/155/21 145/171/21 144/156/4
f 143/153/5 142/163/58 136/160/58
f 142/163/58 149/199/61 141/164/61
f 141/164/61 149/199/61 148/169/66
f 139/150/3 146/200/3 145/171/21
f 148/169/66 147/149/2 140/151/2
f 152/181/117 153/196/118 159/182/118
f 154/184/132 152/181/117 160/183/117
f 154/184/132 161/185/132 162/186/133
f 156/188/134 155/187/133 162/186/133
f 156/188/134 163/189/134 164/190/135
f 157/191/135 164/190/135 165/192/136
f 158/194/137 150/193/136 165/192/136
f 158/194/137 166/195/137 159/182/118
f 132/146/138 45/76/138 10/65/12
f 131/144/112 16/78/112 45/76/139
f 130/142/140 15/9/140 16/78/112
f 129/141/141 14/197/141 15/9/141
f 128/138/142 13/34/142 14/197/143
f 127/136/16 12/12/16 13/34/142
f 126/132/144 11/198/144 12/12/16
f 125/131/12 10/65/12 11/198/145
f 166/195/138 149/199/138 142/163/12
f 166/195/139 165/192/112 148/169/112
f 164/190/140 147/149/140 148/169/112
f 163/189/141 146/200/141 147/149/141
f 162/186/142 145/171/142 146/200/143
f 161/185/16 144/156/16 145/171/142
f 160/183/144 143/153/144 144/156/16
f 159/182/12 142/163/12 143/153/145
l 92 68
l 39 68
