# Blender v2.90.0 Alpha OBJ File: 'Decos.blend'
# www.blender.org
o Cube.002_Cube.007
v -0.588067 -1.582046 0.588067
v -0.588067 6.109070 0.588067
v -0.588067 -1.582046 -0.588067
v -0.588067 6.109070 -0.588067
v 0.588067 -1.582046 0.588067
v 0.588067 6.109070 0.588067
v 0.588067 -1.582046 -0.588067
v 0.588067 6.109070 -0.588067
v 0.426096 6.065523 0.332146
v 0.375254 7.082335 0.306725
v 0.476938 7.082335 0.357567
v 0.476938 7.082335 -0.275590
v 0.375254 7.082335 -0.326432
v 0.426096 6.065523 -0.301011
v 0.078037 6.065523 0.332146
v -0.451517 6.065523 0.382988
v 0.000000 7.082335 -0.301011
v -0.400675 6.065523 0.281304
v 0.039018 6.065523 -0.262880
v -0.426096 7.082335 0.332146
v -0.426096 7.082335 -0.301011
v -0.476938 6.065523 -0.326432
v -0.375254 6.065523 -0.275590
v -0.039018 6.065523 0.370278
v 0.000000 6.065523 0.255884
v 0.000000 7.082335 0.332146
v 0.000000 6.065523 -0.377274
v -0.078037 6.065523 -0.301011
vt 0.023438 0.757812
vt 0.023438 0.757812
vt 0.023438 0.757812
vt 0.023438 0.757812
vt 0.023438 0.757812
vt 0.023438 0.757812
vt 0.023438 0.757812
vt 0.023438 0.757812
vt 0.023438 0.757812
vt 0.023438 0.757812
vt 0.023438 0.757812
vt 0.023438 0.757812
vt 0.023438 0.757812
vt 0.023438 0.757812
vt 0.039062 0.804688
vt 0.039062 0.804688
vt 0.039062 0.804688
vt 0.039062 0.804688
vt 0.039062 0.804688
vt 0.039062 0.804688
vt 0.039062 0.804688
vt 0.039062 0.804688
vt 0.023438 0.757812
vt 0.023438 0.757812
vt 0.023438 0.757812
vt 0.023438 0.757812
vt 0.023438 0.757812
vt 0.023438 0.757812
vn -0.8944 0.0000 -0.4472
vn 0.3096 0.0238 0.9506
vn 0.8944 0.0000 0.4472
vn 0.6979 0.0536 -0.7142
vn 0.9462 0.0242 -0.3227
vn 0.4472 -0.0000 -0.8944
vn -0.4472 0.0000 0.8944
vn -0.9462 0.0242 -0.3227
vn -0.6979 0.0536 -0.7142
vn -0.3096 0.0238 0.9506
vn 0.0000 0.0000 -1.0000
vn 1.0000 0.0000 0.0000
vn 0.0000 0.0000 1.0000
vn 0.0000 -1.0000 0.0000
vn 0.0000 1.0000 0.0000
vn -1.0000 0.0000 0.0000
s off
f 20/1/1 18/2/1 16/3/1
f 15/4/2 26/5/2 24/6/2
f 20/1/3 16/3/3 18/2/3
f 25/7/4 26/5/4 15/4/4
f 27/8/5 17/9/5 19/10/5
f 21/11/6 23/12/6 22/13/6
f 21/11/7 22/13/7 23/12/7
f 26/5/8 25/7/8 24/6/8
f 17/9/9 27/8/9 28/14/9
f 17/9/10 28/14/10 19/10/10
f 7/15/11 3/16/11 4/17/11 8/18/11
f 5/19/12 7/15/12 8/18/12 6/20/12
f 1/21/13 5/19/13 6/20/13 2/22/13
f 1/21/14 3/16/14 7/15/14 5/19/14
f 6/20/15 8/18/15 4/17/15 2/22/15
f 9/23/6 10/24/6 11/25/6
f 9/23/7 11/25/7 10/24/7
f 14/26/6 13/27/6 12/28/6
f 14/26/7 12/28/7 13/27/7
f 3/16/16 1/21/16 2/22/16 4/17/16
