# Blender v2.91.0 Beta OBJ File: 'decos.blend'
# www.blender.org
o Cube.002_Cube.012
v -0.588067 -1.582046 0.588067
v -0.588067 6.109070 0.588069
v -0.588067 6.109070 -0.588065
v -0.588067 -1.582046 -0.588067
v 0.588067 6.109070 -0.588065
v 0.588067 -1.582046 -0.588067
v 0.588067 6.109070 0.588069
v 0.588067 -1.582046 0.588067
vt 0.039062 0.804688
vt 0.039062 0.804688
vt 0.039062 0.804688
vt 0.039062 0.804688
vt 0.039062 0.804688
vt 0.039062 0.804688
vt 0.039062 0.804688
vt 0.039062 0.804688
vn -1.0000 0.0000 0.0000
vn 0.0000 0.0000 -1.0000
vn 1.0000 0.0000 0.0000
vn 0.0000 -0.0000 1.0000
vn 0.0000 1.0000 0.0000
s 1
f 2/1/1 4/2/1 1/3/1
f 3/4/2 6/5/2 4/2/2
f 5/6/3 8/7/3 6/5/3
f 7/8/4 1/3/4 8/7/4
f 3/4/5 7/8/5 5/6/5
f 2/1/1 3/4/1 4/2/1
f 3/4/2 5/6/2 6/5/2
f 5/6/3 7/8/3 8/7/3
f 7/8/4 2/1/4 1/3/4
f 3/4/5 2/1/5 7/8/5
