# Blender v2.90.0 Alpha OBJ File: 'Decos.blend'
# www.blender.org
o Cube.002_Cube.007
v -5.000000 -1.582046 0.588067
v -5.000000 6.109070 0.588067
v -5.000000 -1.582046 -0.588067
v -5.000000 6.109070 -0.588067
v 5.000000 -1.582046 0.588067
v 5.000000 6.109070 0.588067
v 5.000000 -1.582046 -0.588067
v 5.000000 6.109070 -0.588067
v 4.393306 6.065523 0.332146
v 4.512295 6.065523 0.382988
v 4.482548 6.065523 0.255884
v 4.482548 8.094976 0.332146
v 4.482548 8.094976 -0.301011
v 4.542043 6.065523 -0.326432
v 4.393306 6.065523 -0.301011
v 4.482548 6.065523 -0.224749
v 0.045659 6.065523 0.370278
v -4.393306 6.065523 0.332146
v 0.045659 8.094976 -0.262880
v -0.045659 8.094976 -0.339143
v -4.512295 6.065523 0.382988
v 0.045659 6.065523 -0.262880
v -4.482548 6.065523 0.255884
v -4.482548 8.094976 0.332146
v -4.482548 8.094976 -0.301011
v -4.542043 6.065523 -0.326432
v -4.393306 6.065523 -0.301011
v -4.482548 6.065523 -0.224749
v -0.091318 6.065523 0.332146
v 0.000000 6.065523 0.255884
v 0.045659 8.094976 0.294015
v -0.045659 8.094976 0.370278
v 0.000000 6.065523 -0.377274
v 2.301252 6.065523 -0.224749
v 2.360747 6.065523 0.306725
v 2.212010 6.065523 0.332146
v 2.301252 6.065523 0.408409
v 2.212010 6.065523 -0.301011
v 2.360747 6.065523 -0.326432
v 2.301252 8.094976 -0.301011
v 2.301252 8.094976 0.332146
v -0.091318 6.065523 -0.301011
v -2.301252 6.065523 -0.224749
v -2.360747 6.065523 0.306725
v -2.212010 6.065523 0.332146
v -2.301252 6.065523 0.408409
v -2.212010 6.065523 -0.301011
v -2.360747 6.065523 -0.326432
v 3.384660 6.065523 0.408409
v 3.354913 6.065523 0.281304
v 3.473902 6.065523 0.332146
v 3.384661 8.094976 0.332146
v 3.384661 8.094976 -0.301011
v 3.473902 6.065523 -0.301011
v 3.354913 6.065523 -0.351853
v 3.384660 6.065523 -0.224749
v 1.116279 6.065523 0.332146
v 1.235268 6.065523 0.382988
v 1.205521 6.065523 0.255884
v 1.205521 8.094976 0.332146
v 1.205521 8.094976 -0.301011
v 1.265015 6.065523 -0.326432
v 1.116279 6.065523 -0.301011
v 1.205521 6.065523 -0.224749
v -2.301252 8.094976 -0.301011
v -2.301252 8.094976 0.332146
v -3.384660 6.065523 0.408409
v -3.354913 6.065523 0.281304
v -3.473902 6.065523 0.332146
v -3.384661 8.094976 0.332146
v -3.384661 8.094976 -0.301011
v -3.473902 6.065523 -0.301011
v -3.354913 6.065523 -0.351853
v -3.384660 6.065523 -0.224749
v -1.116279 6.065523 0.332146
v -1.235268 6.065523 0.382988
v -1.205521 6.065523 0.255884
v -1.205521 8.094976 0.332146
v -1.205521 8.094976 -0.301011
v -1.265015 6.065523 -0.326432
v -1.116279 6.065523 -0.301011
v -1.205521 6.065523 -0.224749
vt 0.023438 0.757812
vt 0.023438 0.757812
vt 0.023438 0.757812
vt 0.023438 0.757812
vt 0.023438 0.757812
vt 0.023438 0.757812
vt 0.023438 0.757812
vt 0.023438 0.757812
vt 0.023438 0.757812
vt 0.023438 0.757812
vt 0.023438 0.757812
vt 0.023438 0.757812
vt 0.023438 0.757812
vt 0.023438 0.757812
vt 0.023438 0.757812
vt 0.023438 0.757812
vt 0.023438 0.757812
vt 0.023438 0.757812
vt 0.023438 0.757812
vt 0.023438 0.757812
vt 0.023438 0.757812
vt 0.023438 0.757812
vt 0.023438 0.757812
vt 0.023438 0.757812
vt 0.023438 0.757812
vt 0.023438 0.757812
vt 0.023438 0.757812
vt 0.023438 0.757812
vt 0.023438 0.757812
vt 0.023438 0.757812
vt 0.023438 0.757812
vt 0.023438 0.757812
vt 0.023438 0.757812
vt 0.023438 0.757812
vt 0.023438 0.757812
vt 0.023438 0.757812
vt 0.023438 0.757812
vt 0.023438 0.757812
vt 0.023438 0.757812
vt 0.023438 0.757812
vt 0.023438 0.757812
vt 0.023438 0.757812
vt 0.023438 0.757812
vt 0.023438 0.757812
vt 0.023438 0.757812
vt 0.023438 0.757812
vt 0.023438 0.757812
vt 0.023438 0.757812
vt 0.023438 0.757812
vt 0.023438 0.757812
vt 0.023438 0.757812
vt 0.023438 0.757812
vt 0.023438 0.757812
vt 0.023438 0.757812
vt 0.023438 0.757812
vt 0.023438 0.757812
vt 0.023438 0.757812
vt 0.023438 0.757812
vt 0.023438 0.757812
vt 0.023438 0.757812
vt 0.023438 0.757812
vt 0.023438 0.757812
vt 0.023438 0.757812
vt 0.023438 0.757812
vt 0.023438 0.757812
vt 0.023438 0.757812
vt 0.023438 0.757812
vt 0.023438 0.757812
vt 0.023438 0.757812
vt 0.023438 0.757812
vt 0.023438 0.757812
vt 0.023438 0.757812
vt 0.023438 0.757812
vt 0.023438 0.757812
vt 0.039062 0.804688
vt 0.039062 0.804688
vt 0.039062 0.804688
vt 0.039062 0.804688
vt 0.039062 0.804688
vt 0.039062 0.804688
vt 0.039062 0.804688
vt 0.039062 0.804688
vn 0.8630 0.0190 0.5049
vn -0.8630 0.0190 0.5049
vn -0.6494 0.0286 -0.7599
vn 0.9737 0.0086 -0.2279
vn -0.3929 0.0173 0.9194
vn -0.1685 0.0074 -0.9857
vn -0.6494 0.0286 0.7599
vn 0.6494 0.0286 0.7599
vn 0.3929 0.0173 0.9194
vn 0.9287 -0.0139 -0.3707
vn 0.6494 0.0286 -0.7599
vn -0.9737 0.0086 -0.2279
vn -0.2682 -0.0121 0.9633
vn 0.1685 0.0074 -0.9857
vn -0.6410 -0.0000 -0.7675
vn 0.3929 0.0173 -0.9194
vn -0.9737 0.0086 0.2279
vn -0.3929 0.0173 -0.9194
vn 0.9737 0.0086 0.2279
vn -0.4479 0.0134 0.8940
vn 0.8120 0.0146 -0.5834
vn 0.6407 0.0288 0.7672
vn -0.6407 0.0288 -0.7672
vn -1.0000 0.0000 0.0000
vn 0.0000 0.0000 1.0000
vn 0.0000 0.0000 -1.0000
vn 1.0000 0.0000 0.0000
vn 0.0000 -1.0000 0.0000
vn 0.0000 1.0000 0.0000
s off
f 35/1/1 41/2/1 37/3/1
f 25/4/2 26/5/2 28/6/2
f 9/7/3 12/8/3 11/9/3
f 11/9/4 12/8/4 10/10/4
f 10/10/5 12/8/5 9/7/5
f 15/11/6 13/12/6 14/13/6
f 14/13/1 13/12/1 16/14/1
f 16/14/7 13/12/7 15/11/7
f 25/4/8 28/6/8 27/15/8
f 24/16/9 21/17/9 18/18/9
f 30/19/10 31/20/10 17/21/10
f 24/16/11 18/18/11 23/22/11
f 24/16/12 23/22/12 21/17/12
f 32/23/13 29/24/13 17/21/13
f 25/4/14 27/15/14 26/5/14
f 20/25/15 33/26/15 42/27/15
f 66/28/14 45/29/14 44/30/14
f 36/31/6 41/2/6 35/1/6
f 65/32/8 43/33/8 47/34/8
f 37/3/7 41/2/7 36/31/7
f 38/35/6 40/36/6 39/37/6
f 39/37/1 40/36/1 34/38/1
f 34/38/7 40/36/7 38/35/7
f 65/32/14 47/34/14 48/39/14
f 65/32/2 48/39/2 43/33/2
f 66/28/8 46/40/8 45/29/8
f 51/41/8 52/42/8 49/43/8
f 50/44/16 52/42/16 51/41/16
f 49/43/17 52/42/17 50/44/17
f 55/45/16 53/46/16 54/47/16
f 54/47/8 53/46/8 56/48/8
f 56/48/17 53/46/17 55/45/17
f 57/49/3 60/50/3 59/51/3
f 59/51/4 60/50/4 58/52/4
f 58/52/5 60/50/5 57/49/5
f 63/53/6 61/54/6 62/55/6
f 62/55/1 61/54/1 64/56/1
f 64/56/7 61/54/7 63/53/7
f 66/28/2 44/30/2 46/40/2
f 70/57/7 69/58/7 67/59/7
f 70/57/18 68/60/18 69/58/18
f 70/57/19 67/59/19 68/60/19
f 71/61/18 73/62/18 72/63/18
f 71/61/7 72/63/7 74/64/7
f 71/61/19 74/64/19 73/62/19
f 78/65/11 75/66/11 77/67/11
f 78/65/12 77/67/12 76/68/12
f 78/65/9 76/68/9 75/66/9
f 79/69/14 81/70/14 80/71/14
f 79/69/2 80/71/2 82/72/2
f 79/69/8 82/72/8 81/70/8
f 42/27/20 22/73/20 19/74/20 20/25/20
f 19/74/21 22/73/21 33/26/21 20/25/21
f 17/21/22 31/20/22 32/23/22
f 30/19/23 29/24/23 32/23/23 31/20/23
f 4/75/24 3/76/24 1/77/24 2/78/24
f 6/79/25 2/78/25 1/77/25 5/80/25
f 4/75/26 8/81/26 7/82/26 3/76/26
f 5/80/27 7/82/27 8/81/27 6/79/27
f 7/82/28 5/80/28 1/77/28 3/76/28
f 8/81/29 4/75/29 2/78/29 6/79/29
