# Blender v2.91.0 Beta OBJ File: 'decos.blend'
# www.blender.org
o Cube.002_Cube.012
v -0.524384 6.269926 0.524387
v 0.524384 6.269926 0.524387
v 0.585283 6.299789 0.585285
v -0.585283 6.299789 0.585285
v -0.524384 6.269926 -0.524382
v -0.585283 6.299789 -0.585280
v 0.585283 6.299789 -0.585280
v 0.524384 6.269926 -0.524382
v -0.524384 6.329652 0.524387
v -0.524384 6.329652 -0.524382
v 0.524384 6.329652 0.524387
v 0.524384 6.329652 -0.524382
v -0.524384 6.684862 0.524387
v 0.524384 6.684862 0.524387
v 0.585283 6.714725 0.585285
v -0.585283 6.714725 0.585285
v -0.524384 6.684862 -0.524382
v -0.585283 6.714725 -0.585280
v 0.585283 6.714725 -0.585280
v 0.524384 6.684862 -0.524382
v -0.524384 6.744588 0.524387
v -0.524384 6.744588 -0.524382
v 0.524384 6.744588 0.524387
v 0.524384 6.744588 -0.524382
v -0.524384 7.147885 0.524387
v 0.524384 7.147885 0.524387
v 0.585283 7.177749 0.585285
v -0.585283 7.177749 0.585285
v -0.524384 7.147885 -0.524382
v -0.585283 7.177749 -0.585280
v 0.585283 7.177749 -0.585280
v 0.524384 7.147885 -0.524382
v -0.524384 7.207612 0.524387
v -0.524384 7.207612 -0.524382
v 0.524384 7.207612 0.524387
v 0.524384 7.207612 -0.524382
v -0.524384 7.803350 0.524386
v 0.524384 7.803350 0.524386
v 0.585283 7.833214 0.585284
v -0.585283 7.833214 0.585284
v -0.524384 7.803350 -0.524383
v -0.585283 7.833214 -0.585281
v 0.585283 7.833214 -0.585281
v 0.524384 7.803350 -0.524383
v -0.524384 7.863077 0.524386
v -0.524384 7.863077 -0.524383
v 0.524384 7.863077 0.524386
v 0.524384 7.863077 -0.524383
v -0.588067 -1.582046 0.588067
v -0.588067 6.109070 0.588069
v -0.588067 6.109070 -0.588065
v -0.588067 -1.582046 -0.588067
v 0.588067 6.109070 -0.588065
v 0.588067 -1.582046 -0.588067
v 0.588067 6.109070 0.588069
v 0.588067 -1.582046 0.588067
v 0.426096 6.065523 0.255886
v 0.502359 6.065523 0.332148
v 0.426096 6.065523 0.408411
v 0.349833 6.065523 0.332148
v 0.426096 7.966361 0.255886
v 0.349833 7.966361 0.332148
v 0.426096 7.966361 0.408411
v 0.502359 7.966361 0.332148
v 0.502359 6.065523 -0.301009
v 0.426096 6.065523 -0.377272
v 0.426096 7.966361 -0.377272
v 0.502359 7.966361 -0.301009
v 0.426096 6.065523 -0.224747
v 0.349833 6.065523 -0.301009
v 0.349833 7.966361 -0.301009
v 0.426096 7.966361 -0.224747
v -0.502359 6.065523 -0.301009
v -0.502359 7.966361 -0.301009
v -0.426096 7.966361 -0.377272
v -0.426096 6.065523 -0.377272
v -0.502359 6.065523 0.332148
v -0.502359 7.966361 0.332148
v -0.426096 7.966361 0.255886
v -0.426096 6.065523 0.255886
v 0.000000 6.065523 0.408411
v 0.078037 6.065523 0.332148
v 0.078037 7.966361 0.332148
v 0.000000 7.966361 0.408411
v -0.349833 6.065523 0.332148
v -0.349833 7.966361 0.332148
v -0.426096 7.966361 0.408411
v -0.426096 6.065523 0.408411
v 0.000000 6.065523 0.255886
v 0.000000 7.966361 0.255886
v -0.349833 6.065523 -0.301009
v -0.426096 6.065523 -0.224747
v 0.078037 6.065523 -0.301009
v 0.000000 6.065523 -0.377272
v 0.000000 7.966361 -0.377272
v 0.078037 7.966361 -0.301009
v 0.000000 6.065523 -0.224747
v 0.000000 7.966361 -0.224747
v -0.349833 7.966361 -0.301009
v -0.426096 7.966361 -0.224747
v -0.078037 7.966361 0.332148
v -0.078037 6.065523 0.332148
v -0.078037 6.065523 -0.301009
v -0.078037 7.966361 -0.301009
vt 0.023438 0.757812
vt 0.023438 0.757812
vt 0.023438 0.757812
vt 0.023438 0.757812
vt 0.023438 0.757812
vt 0.023438 0.757812
vt 0.023438 0.757812
vt 0.023438 0.757812
vt 0.023438 0.757812
vt 0.023438 0.757812
vt 0.023438 0.757812
vt 0.023438 0.757812
vt 0.023438 0.757812
vt 0.023438 0.757812
vt 0.023438 0.757812
vt 0.023438 0.757812
vt 0.023438 0.757812
vt 0.023438 0.757812
vt 0.023438 0.757812
vt 0.023438 0.757812
vt 0.023438 0.757812
vt 0.023438 0.757812
vt 0.023438 0.757812
vt 0.023438 0.757812
vt 0.023438 0.757812
vt 0.023438 0.757812
vt 0.023438 0.757812
vt 0.023438 0.757812
vt 0.023438 0.757812
vt 0.023438 0.757812
vt 0.023438 0.757812
vt 0.023438 0.757812
vt 0.023438 0.757812
vt 0.023438 0.757812
vt 0.023438 0.757812
vt 0.023438 0.757812
vt 0.023438 0.757812
vt 0.023438 0.757812
vt 0.023438 0.757812
vt 0.023438 0.757812
vt 0.023438 0.757812
vt 0.023438 0.757812
vt 0.023438 0.757812
vt 0.023438 0.757812
vt 0.023438 0.757812
vt 0.023438 0.757812
vt 0.023438 0.757812
vt 0.023438 0.757812
vt 0.039062 0.804688
vt 0.039062 0.804688
vt 0.039062 0.804688
vt 0.039062 0.804688
vt 0.039062 0.804688
vt 0.039062 0.804688
vt 0.039062 0.804688
vt 0.039062 0.804688
vt 0.023438 0.757812
vt 0.023438 0.757812
vt 0.023438 0.757812
vt 0.023438 0.757812
vt 0.023438 0.757812
vt 0.023438 0.757812
vt 0.023438 0.757812
vt 0.023438 0.757812
vt 0.023438 0.757812
vt 0.023438 0.757812
vt 0.023438 0.757812
vt 0.023438 0.757812
vt 0.023438 0.757812
vt 0.023438 0.757812
vt 0.023438 0.757812
vt 0.023438 0.757812
vt 0.023438 0.757812
vt 0.023438 0.757812
vt 0.023438 0.757812
vt 0.023438 0.757812
vt 0.023438 0.757812
vt 0.023438 0.757812
vt 0.023438 0.757812
vt 0.023438 0.757812
vt 0.023438 0.757812
vt 0.023438 0.757812
vt 0.023438 0.757812
vt 0.023438 0.757812
vt 0.023438 0.757812
vt 0.023438 0.757812
vt 0.023438 0.757812
vt 0.023438 0.757812
vt 0.023438 0.757812
vt 0.023438 0.757812
vt 0.023438 0.757812
vt 0.023438 0.757812
vt 0.023438 0.757812
vt 0.023438 0.757812
vt 0.023438 0.757812
vt 0.023438 0.757812
vt 0.023438 0.757812
vt 0.023438 0.757812
vt 0.023438 0.757812
vt 0.023438 0.757812
vt 0.023438 0.757812
vt 0.023438 0.757812
vt 0.023438 0.757812
vt 0.023438 0.757812
vn -0.8971 -0.3788 0.2274
vn -0.0036 -1.0000 0.0001
vn -0.0000 -1.0000 0.0000
vn -0.3406 -0.9290 -0.1448
vn -0.0391 -0.0004 -0.9992
vn -0.9798 0.0099 0.1998
vn -0.0003 0.9999 0.0163
vn -1.0000 -0.0000 0.0001
vn 0.9992 -0.0004 0.0391
vn 0.1448 -0.9290 0.3406
vn 0.0175 0.0001 0.9998
vn 0.2746 0.9577 0.0863
vn -0.0001 0.0000 1.0000
vn -0.1998 0.0099 -0.9798
vn -0.0163 0.9999 -0.0002
vn -0.0001 0.0000 -1.0000
vn 0.9798 0.0099 -0.1998
vn 0.0003 0.9999 -0.0163
vn 1.0000 -0.0000 -0.0001
vn -1.0000 0.0000 0.0000
vn 1.0000 0.0000 0.0000
vn 0.0000 0.0000 1.0000
vn -0.9992 -0.0004 -0.0391
vn -0.1448 -0.9290 -0.3406
vn -0.0391 -0.0003 -0.9992
vn 0.0175 0.0000 0.9998
vn -0.0163 0.9999 -0.0003
vn -0.8971 -0.3789 0.2274
vn -0.0036 -1.0000 0.0000
vn 0.0391 -0.0004 -0.9992
vn 0.3406 -0.9290 -0.1448
vn 0.1998 0.0099 0.9798
vn 0.0163 0.9999 0.0003
vn -0.0000 1.0000 0.0000
vn -0.0002 0.9999 0.0163
vn 0.0002 0.9999 -0.0163
vn 0.0175 -0.0001 0.9998
vn 0.2746 -0.9577 0.0863
vn 0.0163 -0.9999 -0.0002
vn 0.0001 -0.0000 -1.0000
vn 0.1998 -0.0100 -0.9798
vn -0.9992 0.0004 -0.0391
vn -0.1448 0.9290 -0.3406
vn 0.9798 -0.0099 -0.1998
vn 0.0003 -0.9999 -0.0163
vn -0.8971 0.3789 0.2274
vn -0.0036 1.0000 -0.0000
vn 0.0391 0.0004 -0.9992
vn 0.3406 0.9290 -0.1448
vn 0.9992 0.0004 0.0391
vn 0.1448 0.9290 0.3406
vn -0.9798 -0.0099 0.1998
vn -0.0003 -0.9999 0.0163
vn 0.0163 -0.9999 -0.0003
vn 0.1998 -0.0099 -0.9798
vn -0.8971 0.3788 0.2274
vn -0.1998 -0.0099 -0.9798
vn -0.0163 -0.9999 -0.0003
vn -0.0391 0.0004 0.9992
vn 0.0001 -0.0000 1.0000
vn -0.3406 0.9290 0.1448
vn 0.0000 0.0000 -1.0000
vn 0.7071 -0.0000 0.7071
vn -0.7071 0.0000 -0.7071
vn 0.7071 0.0000 -0.7071
vn -0.7071 -0.0000 0.7071
vn 0.6989 -0.0000 0.7152
vn 0.6989 0.0000 -0.7152
vn -0.6989 -0.0000 0.7152
vn -0.6989 0.0000 -0.7152
s off
f 2/1/1 4/2/2 1/3/3
f 5/4/4 7/5/5 8/6/3
f 4/2/6 10/7/7 6/8/8
f 7/5/9 2/1/10 8/6/3
f 11/9/11 4/2/12 3/10/13
f 6/8/14 12/11/15 7/5/16
f 7/5/17 11/9/18 3/10/19
f 2/1/20 12/11/20 8/6/20
f 5/4/21 9/12/21 1/3/21
f 2/1/22 9/12/22 1/3/22
f 8/6/22 10/7/22 5/4/22
f 4/2/23 5/4/24 1/3/3
f 14/13/1 16/14/2 13/15/3
f 17/16/4 19/17/25 20/18/3
f 16/14/6 22/19/7 18/20/8
f 19/17/9 14/13/10 20/18/3
f 23/21/26 16/14/12 15/22/13
f 18/20/14 24/23/27 19/17/16
f 19/17/17 23/21/18 15/22/19
f 14/13/20 24/23/20 20/18/20
f 17/16/21 21/24/21 13/15/21
f 14/13/22 21/24/22 13/15/22
f 20/18/22 22/19/22 17/16/22
f 16/14/23 17/16/24 13/15/3
f 26/25/28 28/26/29 25/27/3
f 30/28/30 32/29/31 29/30/3
f 28/26/6 34/31/7 30/28/8
f 31/32/9 26/25/10 32/29/3
f 27/33/32 33/34/33 28/26/34
f 30/28/14 36/35/27 31/32/16
f 31/32/17 35/36/18 27/33/19
f 26/25/20 36/35/20 32/29/20
f 29/30/21 33/34/21 25/27/21
f 26/25/22 33/34/22 25/27/22
f 32/29/22 34/31/22 29/30/22
f 28/26/23 29/30/24 25/27/3
f 38/37/28 40/38/29 37/39/3
f 42/40/30 44/41/31 41/42/3
f 40/38/6 46/43/35 42/40/8
f 43/44/9 38/37/10 44/41/3
f 39/45/32 45/46/33 40/38/34
f 42/40/14 48/47/27 43/44/16
f 43/44/17 47/48/36 39/45/19
f 38/37/20 48/47/20 44/41/20
f 41/42/21 45/46/21 37/39/21
f 38/37/22 45/46/22 37/39/22
f 44/41/22 46/43/22 41/42/22
f 40/38/23 41/42/24 37/39/3
f 2/1/37 3/10/13 4/2/38
f 5/4/39 6/8/40 7/5/41
f 4/2/42 9/12/34 10/7/43
f 7/5/44 3/10/19 2/1/45
f 11/9/46 9/12/34 4/2/47
f 6/8/48 10/7/34 12/11/49
f 7/5/50 12/11/34 11/9/51
f 2/1/20 11/9/20 12/11/20
f 5/4/21 10/7/21 9/12/21
f 2/1/22 11/9/22 9/12/22
f 8/6/22 12/11/22 10/7/22
f 4/2/52 6/8/8 5/4/53
f 14/13/37 15/22/13 16/14/38
f 17/16/54 18/20/40 19/17/55
f 16/14/42 21/24/34 22/19/43
f 19/17/44 15/22/19 14/13/45
f 23/21/56 21/24/34 16/14/47
f 18/20/48 22/19/34 24/23/49
f 19/17/50 24/23/34 23/21/51
f 14/13/20 23/21/20 24/23/20
f 17/16/21 22/19/21 21/24/21
f 14/13/22 23/21/22 21/24/22
f 20/18/22 24/23/22 22/19/22
f 16/14/52 18/20/8 17/16/53
f 26/25/37 27/33/13 28/26/38
f 30/28/57 31/32/16 32/29/58
f 28/26/42 33/34/34 34/31/43
f 31/32/44 27/33/19 26/25/45
f 27/33/59 35/36/60 33/34/61
f 30/28/48 34/31/34 36/35/49
f 31/32/50 36/35/34 35/36/51
f 26/25/20 35/36/20 36/35/20
f 29/30/21 34/31/21 33/34/21
f 26/25/22 35/36/22 33/34/22
f 32/29/22 36/35/22 34/31/22
f 28/26/52 30/28/8 29/30/53
f 38/37/37 39/45/13 40/38/38
f 42/40/57 43/44/16 44/41/58
f 40/38/42 45/46/34 46/43/43
f 43/44/44 39/45/19 38/37/45
f 39/45/59 47/48/60 45/46/61
f 42/40/48 46/43/34 48/47/49
f 43/44/50 48/47/34 47/48/51
f 38/37/20 47/48/20 48/47/20
f 41/42/21 46/43/21 45/46/21
f 38/37/22 47/48/22 45/46/22
f 44/41/22 48/47/22 46/43/22
f 40/38/52 42/40/8 41/42/53
s 1
f 50/49/20 52/50/20 49/51/20
f 51/52/62 54/53/62 52/50/62
f 53/54/21 56/55/21 54/53/21
f 55/56/22 49/51/22 56/55/22
f 54/53/3 49/51/3 52/50/3
f 51/52/34 55/56/34 53/54/34
f 57/57/3 59/58/3 60/59/3
f 61/60/34 63/61/34 64/62/34
f 58/63/63 63/61/63 59/58/63
f 60/59/64 61/60/64 57/57/64
f 57/57/65 64/62/65 58/63/65
f 59/58/66 62/64/66 60/59/66
f 66/65/65 68/66/65 65/67/65
f 66/65/3 69/68/3 70/69/3
f 70/69/64 67/70/64 66/65/64
f 65/67/63 72/71/63 69/68/63
f 67/70/34 72/71/34 68/66/34
f 69/68/66 71/72/66 70/69/66
f 74/73/64 76/74/64 73/75/64
f 78/76/64 80/77/64 77/78/64
f 82/79/67 84/80/67 81/81/67
f 86/82/63 88/83/63 85/84/63
f 89/85/68 83/86/68 82/79/68
f 76/74/3 92/87/3 73/75/3
f 94/88/68 96/89/68 93/90/68
f 80/77/3 88/83/3 77/78/3
f 87/91/66 77/78/66 88/83/66
f 93/90/67 98/92/67 97/93/67
f 79/94/34 87/91/34 86/82/34
f 79/94/65 85/84/65 80/77/65
f 75/95/65 91/96/65 76/74/65
f 100/97/66 73/75/66 92/87/66
f 75/95/34 100/97/34 99/98/34
f 99/98/63 92/87/63 91/96/63
f 84/80/69 102/99/69 81/81/69
f 101/100/70 89/85/70 102/99/70
f 104/101/70 94/88/70 103/102/70
f 98/92/69 103/102/69 97/93/69
f 84/80/34 83/86/34 90/103/34
f 101/100/34 84/80/34 90/103/34
f 96/89/34 95/104/34 98/92/34
f 98/92/34 95/104/34 104/101/34
f 50/49/20 51/52/20 52/50/20
f 51/52/62 53/54/62 54/53/62
f 53/54/21 55/56/21 56/55/21
f 55/56/22 50/49/22 49/51/22
f 54/53/3 56/55/3 49/51/3
f 51/52/34 50/49/34 55/56/34
f 57/57/3 58/63/3 59/58/3
f 61/60/34 62/64/34 63/61/34
f 58/63/63 64/62/63 63/61/63
f 60/59/64 62/64/64 61/60/64
f 57/57/65 61/60/65 64/62/65
f 59/58/66 63/61/66 62/64/66
f 66/65/65 67/70/65 68/66/65
f 66/65/3 65/67/3 69/68/3
f 70/69/64 71/72/64 67/70/64
f 65/67/63 68/66/63 72/71/63
f 67/70/34 71/72/34 72/71/34
f 69/68/66 72/71/66 71/72/66
f 74/73/64 75/95/64 76/74/64
f 78/76/64 79/94/64 80/77/64
f 82/79/67 83/86/67 84/80/67
f 86/82/63 87/91/63 88/83/63
f 89/85/68 90/103/68 83/86/68
f 76/74/3 91/96/3 92/87/3
f 94/88/68 95/104/68 96/89/68
f 80/77/3 85/84/3 88/83/3
f 87/91/66 78/76/66 77/78/66
f 93/90/67 96/89/67 98/92/67
f 79/94/34 78/76/34 87/91/34
f 79/94/65 86/82/65 85/84/65
f 75/95/65 99/98/65 91/96/65
f 100/97/66 74/73/66 73/75/66
f 75/95/34 74/73/34 100/97/34
f 99/98/63 100/97/63 92/87/63
f 84/80/69 101/100/69 102/99/69
f 101/100/70 90/103/70 89/85/70
f 104/101/70 95/104/70 94/88/70
f 98/92/69 104/101/69 103/102/69
