# Blender v2.90.0 Alpha OBJ File: 'Decos.blend'
# www.blender.org
o Cube.002_Cube.007
v -0.588067 -1.582046 0.588067
v -0.588067 6.109070 0.588067
v -0.588067 -1.582046 -0.588067
v -0.588067 6.109070 -0.588067
v 0.588067 -1.582046 0.588067
v 0.588067 6.109070 0.588067
v 0.588067 -1.582046 -0.588067
v 0.588067 6.109070 -0.588067
v 0.426096 6.065523 0.408409
v 0.349833 6.065523 0.332146
v 0.502359 6.065523 0.332146
v 0.426096 6.065523 0.255884
v 0.426096 7.082335 0.408409
v 0.349833 7.082335 0.332146
v 0.426096 7.082335 0.255884
v 0.502359 7.082335 0.332146
v 0.502359 7.082335 -0.301011
v 0.426096 7.082335 -0.377274
v 0.349833 7.082335 -0.301011
v 0.426096 7.082335 -0.224749
v 0.426096 6.065523 -0.377274
v 0.502359 6.065523 -0.301011
v 0.349833 6.065523 -0.301011
v 0.426096 6.065523 -0.224749
v -0.426096 6.065523 0.255884
v 0.078037 6.065523 0.332146
v -0.502359 6.065523 0.332146
v 0.078037 7.082335 0.332146
v 0.078037 7.082335 -0.301011
v 0.000000 7.082335 -0.377274
v -0.349833 6.065523 0.332146
v 0.000000 7.082335 -0.224749
v 0.078037 6.065523 -0.301011
v -0.426096 6.065523 0.408409
v 0.000000 6.065523 -0.224749
v -0.426096 7.082335 0.408409
v -0.349833 7.082335 0.332146
v -0.426096 7.082335 0.255884
v -0.502359 7.082335 0.332146
v -0.502359 7.082335 -0.301011
v -0.426096 7.082335 -0.377274
v -0.349833 7.082335 -0.301011
v -0.426096 7.082335 -0.224749
v -0.426096 6.065523 -0.377274
v -0.502359 6.065523 -0.301011
v -0.349833 6.065523 -0.301011
v -0.426096 6.065523 -0.224749
v 0.000000 6.065523 0.408409
v -0.078037 6.065523 0.332146
v 0.000000 6.065523 0.255884
v 0.000000 7.082335 0.408409
v 0.000000 7.082335 0.255884
v -0.078037 7.082335 0.332146
v -0.078037 7.082335 -0.301011
v 0.000000 6.065523 -0.377274
v -0.078037 6.065523 -0.301011
vt 0.039062 0.804688
vt 0.039062 0.804688
vt 0.039062 0.804688
vt 0.039062 0.804688
vt 0.039062 0.804688
vt 0.039062 0.804688
vt 0.039062 0.804688
vt 0.039062 0.804688
vt 0.023438 0.757812
vt 0.023438 0.757812
vt 0.023438 0.757812
vt 0.023438 0.757812
vt 0.023438 0.757812
vt 0.023438 0.757812
vt 0.023438 0.757812
vt 0.023438 0.757812
vt 0.023438 0.757812
vt 0.023438 0.757812
vt 0.023438 0.757812
vt 0.023438 0.757812
vt 0.023438 0.757812
vt 0.023438 0.757812
vt 0.023438 0.757812
vt 0.023438 0.757812
vt 0.023438 0.757812
vt 0.023438 0.757812
vt 0.023438 0.757812
vt 0.023438 0.757812
vt 0.023438 0.757812
vt 0.023438 0.757812
vt 0.023438 0.757812
vt 0.023438 0.757812
vt 0.023438 0.757812
vt 0.023438 0.757812
vt 0.023438 0.757812
vt 0.023438 0.757812
vt 0.023438 0.757812
vt 0.023438 0.757812
vt 0.023438 0.757812
vt 0.023438 0.757812
vt 0.023438 0.757812
vt 0.023438 0.757812
vt 0.023438 0.757812
vt 0.023438 0.757812
vt 0.023438 0.757812
vt 0.023438 0.757812
vt 0.023438 0.757812
vt 0.023438 0.757812
vt 0.023438 0.757812
vt 0.023438 0.757812
vt 0.023438 0.757812
vt 0.023438 0.757812
vt 0.023438 0.757812
vt 0.023438 0.757812
vt 0.023438 0.757812
vt 0.023438 0.757812
vn -1.0000 0.0000 0.0000
vn 0.0000 0.0000 -1.0000
vn 1.0000 0.0000 0.0000
vn 0.0000 0.0000 1.0000
vn 0.0000 -1.0000 0.0000
vn 0.0000 1.0000 0.0000
vn 0.7071 0.0000 0.7071
vn -0.7071 0.0000 -0.7071
vn 0.7071 0.0000 -0.7071
vn -0.7071 0.0000 0.7071
vn 0.6989 0.0000 0.7152
vn 0.6989 0.0000 -0.7152
vn -0.6989 0.0000 0.7152
vn -0.6989 0.0000 -0.7152
s off
f 1/1/1 2/2/1 4/3/1 3/4/1
f 3/4/2 4/3/2 8/5/2 7/6/2
f 7/6/3 8/5/3 6/7/3 5/8/3
f 5/8/4 6/7/4 2/2/4 1/1/4
f 3/4/5 7/6/5 5/8/5 1/1/5
f 8/5/6 4/3/6 2/2/6 6/7/6
f 12/9/5 11/10/5 9/11/5 10/12/5
f 15/13/6 14/14/6 13/15/6 16/16/6
f 9/11/7 11/10/7 16/16/7 13/15/7
f 12/9/8 10/12/8 14/14/8 15/13/8
f 11/10/9 12/9/9 15/13/9 16/16/9
f 10/12/10 9/11/10 13/15/10 14/14/10
f 22/17/9 21/18/9 18/19/9 17/20/9
f 21/18/5 22/17/5 24/21/5 23/22/5
f 21/18/8 23/22/8 19/23/8 18/19/8
f 24/21/7 22/17/7 17/20/7 20/24/7
f 18/19/6 19/23/6 20/24/6 17/20/6
f 23/22/10 24/21/10 20/24/10 19/23/10
f 45/25/8 40/26/8 41/27/8 44/28/8
f 27/29/8 39/30/8 38/31/8 25/32/8
f 48/33/11 26/34/11 28/35/11 51/36/11
f 31/37/7 37/38/7 36/39/7 34/40/7
f 26/34/12 50/41/12 52/42/12 28/35/12
f 44/28/5 46/43/5 47/44/5 45/25/5
f 33/45/12 55/46/12 30/47/12 29/48/12
f 25/32/5 31/37/5 34/40/5 27/29/5
f 34/40/10 36/39/10 39/30/10 27/29/10
f 35/49/11 33/45/11 29/48/11 32/50/11
f 38/31/6 39/30/6 36/39/6 37/38/6
f 25/32/9 38/31/9 37/38/9 31/37/9
f 44/28/9 41/27/9 42/51/9 46/43/9
f 47/44/10 43/52/10 40/26/10 45/25/10
f 41/27/6 40/26/6 43/52/6 42/51/6
f 46/43/7 42/51/7 43/52/7 47/44/7
f 48/33/13 51/36/13 53/53/13 49/54/13
f 49/54/14 53/53/14 52/42/14 50/41/14
f 56/55/14 54/56/14 30/47/14 55/46/14
f 35/49/13 32/50/13 54/56/13 56/55/13
f 51/36/6 28/35/6 52/42/6
f 53/53/6 51/36/6 52/42/6
f 29/48/6 30/47/6 32/50/6
f 32/50/6 30/47/6 54/56/6
