# Blender v2.90.0 Alpha OBJ File: 'Decos.blend'
# www.blender.org
o Cube.001_Cube.005
v -0.104566 -1.457783 -3.232764
v -0.104566 1.457782 -3.232764
v 0.104564 1.457782 -3.232764
v 0.104564 -1.457783 -3.232764
v 0.104566 1.457783 3.232764
v 0.104566 -1.457782 3.232764
v -0.104564 1.457783 3.232764
v -0.104564 -1.457782 3.232764
v -0.104564 1.400833 3.106472
v -0.104564 -1.400832 3.106472
v -0.104566 -1.400833 -3.106472
v -0.077288 -1.359949 3.015810
v -0.077290 -1.359949 -3.015810
v -0.104566 1.400832 -3.106472
v -0.077290 1.359949 -3.015810
v -0.106934 -1.376375 -3.052237
v -0.106934 1.376374 -3.052237
v -0.077288 1.359949 3.015810
v -0.106932 -1.376374 3.052237
v -0.106932 1.376375 3.052237
v -0.115170 0.101346 2.319216
v -0.115170 0.794405 2.319216
v -0.115172 0.794405 -2.319216
v -0.115172 0.101346 -2.319216
v -0.115170 -0.735591 2.319216
v -0.115170 -0.042532 2.319216
v -0.115172 -0.042532 -2.319216
v -0.115172 -0.735591 -2.319216
vt 0.210938 0.898438
vt 0.210938 0.898438
vt 0.210938 0.898438
vt 0.210938 0.898438
vt 0.210938 0.898438
vt 0.210938 0.898438
vt 0.210938 0.898438
vt 0.210938 0.898438
vt 0.039062 0.742188
vt 0.039062 0.742188
vt 0.039062 0.742188
vt 0.039062 0.742188
vt 0.210938 0.898438
vt 0.210938 0.898438
vt 0.210938 0.898438
vt 0.210938 0.898438
vt 0.039062 0.742188
vt 0.039062 0.742188
vt 0.039062 0.742188
vt 0.039062 0.742188
vt 0.210938 0.898438
vt 0.210938 0.898438
vt 0.210938 0.898438
vt 0.210938 0.898438
vt 0.210938 0.898438
vt 0.210938 0.898438
vt 0.148438 0.773438
vt 0.148438 0.773438
vt 0.148438 0.773438
vt 0.148438 0.773438
vt 0.210938 0.898438
vt 0.210938 0.898438
vt 0.039062 0.742188
vt 0.039062 0.742188
vt 0.039062 0.742188
vt 0.039062 0.742188
vt 0.039062 0.742188
vt 0.039062 0.742188
vt 0.039062 0.742188
vt 0.039062 0.742188
vn 0.0000 -0.0000 -1.0000
vn 1.0000 0.0000 -0.0000
vn 0.0000 0.0000 1.0000
vn -1.0000 -0.0000 0.0000
vn 0.0000 -1.0000 0.0000
vn 0.0000 1.0000 -0.0000
vn -0.9619 0.1737 0.2111
vn -0.9619 0.1737 -0.2111
vn -0.9334 0.3346 -0.1299
vn -0.9334 0.3346 0.1299
vn 0.7756 -0.0000 -0.6312
vn -0.9619 -0.1737 0.2111
vn -0.9334 -0.3346 0.1299
vn -0.9619 -0.1737 -0.2111
vn -0.9334 -0.3346 -0.1299
vn 0.4847 0.8747 -0.0000
vn 0.7756 0.0000 0.6312
vn 0.4847 -0.8747 0.0000
s 1
f 1/1/1 2/2/1 3/3/1 4/4/1
f 4/4/2 3/3/2 5/5/2 6/6/2
f 6/6/3 5/5/3 7/7/3 8/8/3
f 8/9/4 7/10/4 9/11/4 10/12/4
f 4/4/5 6/6/5 8/8/5 1/1/5
f 5/5/6 3/3/6 2/2/6 7/7/6
f 11/13/7 10/14/8 12/15/9 13/16/10
f 2/17/4 1/18/4 11/19/4 14/20/4
f 1/18/4 8/9/4 10/12/4 11/19/4
f 7/10/4 2/17/4 14/20/4 9/11/4
f 15/21/11 13/16/11 16/22/11 17/23/11
f 14/24/12 11/13/7 13/16/10 15/21/13
f 9/25/14 14/24/12 15/21/13 18/26/15
f 10/14/8 9/25/14 18/26/15 12/15/9
f 19/27/4 20/28/4 17/29/4 16/30/4
f 18/26/16 15/21/16 17/23/16 20/31/16
f 12/15/17 18/26/17 20/31/17 19/32/17
f 13/16/18 12/15/18 19/32/18 16/22/18
f 21/33/4 22/34/4 23/35/4 24/36/4
f 25/37/4 26/38/4 27/39/4 28/40/4
