# Blender v2.91.0 Beta OBJ File: 'HOUSE.blend'
# www.blender.org
o Plane_Plane.012
v -0.010888 1.322524 0.429597
v -0.010888 1.406259 -0.476867
v -0.010888 1.322524 -0.427521
v -0.010888 1.322524 0.478944
v -0.010888 1.406259 0.478944
v -0.004356 1.322524 0.429597
v -0.004356 1.406259 0.478944
v -0.004356 1.322524 0.478944
v -0.004356 1.322524 -0.427521
v 0.419764 -0.084452 0.429597
v 0.419764 -0.084452 -0.427521
v -0.004356 1.322524 -0.476867
v -0.004356 1.406259 -0.476867
v -0.010888 1.322524 -0.476867
v -0.007622 1.406259 -0.476867
v -0.007622 1.322524 0.429597
v -0.007622 1.322524 -0.427521
v -0.406048 -0.084452 0.429597
v -0.406048 -0.084452 -0.427521
v -0.007622 1.322524 0.478944
v -0.007622 1.406259 0.478944
v 0.390804 -0.084452 0.429597
v 0.390804 -0.084452 -0.427521
v -0.007622 1.322524 -0.476867
vt 0.678223 0.804199
vt 0.709473 0.807129
vt 0.708496 0.804199
vt 0.677246 0.804199
vt 0.677246 0.807129
vt 0.678223 0.804199
vt 0.677246 0.807129
vt 0.677246 0.804199
vt 0.708496 0.804199
vt 0.678223 0.753418
vt 0.708496 0.753418
vt 0.709473 0.804199
vt 0.709473 0.807129
vt 0.709473 0.804199
vt 0.709473 0.807129
vt 0.678223 0.804199
vt 0.708496 0.804199
vt 0.708496 0.753418
vt 0.678223 0.753418
vt 0.677246 0.804199
vt 0.677246 0.807129
vt 0.678223 0.753418
vt 0.708496 0.753418
vt 0.709473 0.804199
vn -1.0000 0.0000 0.0000
vn 1.0000 0.0000 0.0000
vn 0.9574 0.2886 0.0000
vn -0.9622 0.2725 0.0000
vn -0.9622 -0.2725 -0.0000
s 1
f 1/1/1 2/2/1 3/3/1
f 1/1/1 4/4/1 5/5/1
f 6/6/2 7/7/2 8/8/2
f 9/9/3 10/10/3 11/11/3
f 9/9/2 12/12/2 13/13/2
f 13/13/2 6/6/2 9/9/2
f 3/3/1 2/2/1 14/14/1
f 15/15/2 16/16/2 17/17/2
f 17/17/4 19/18/4 18/19/4
f 16/16/1 20/20/1 21/21/1
f 22/22/5 17/17/5 23/23/5
f 17/17/1 15/15/1 24/24/1
f 1/1/1 5/5/1 2/2/1
f 9/9/3 6/6/3 10/10/3
f 13/13/2 7/7/2 6/6/2
f 15/15/2 21/21/2 16/16/2
f 17/17/4 18/19/4 16/16/4
f 22/22/5 16/16/5 17/17/5
