# Blender v2.91.0 Beta OBJ File: 'HOUSE.blend'
# www.blender.org
o Plane_Plane.006
v -7.358416 2.987984 12.660411
v -13.306057 0.050193 12.660409
v -7.358416 0.050193 12.660410
v 0.000000 2.987575 12.660411
v -1.417764 0.050194 12.660410
v 0.000000 0.050194 12.660410
v -1.417764 2.987708 12.660411
v 7.358416 2.987984 12.660411
v 13.306055 0.050193 12.660410
v 13.306055 2.988260 12.660411
v 1.417764 0.050194 12.660410
v 1.417764 2.987708 12.660411
v 7.358416 0.050193 12.660410
v 13.306054 2.987985 6.712771
v 13.306054 0.050194 6.712770
v 13.306053 2.987710 0.772119
v 13.306053 0.050196 0.772118
v 7.358414 2.987986 0.785575
v 13.306053 0.050195 0.785578
v 7.358414 0.050195 0.785578
v -0.000002 2.987577 0.785575
v 1.417763 0.050196 0.785578
v -0.000002 0.050196 0.785578
v 1.417763 2.987710 0.785575
v -7.358418 2.987986 0.785575
v -13.306057 0.050195 0.785578
v -13.306057 2.988262 0.785575
v -1.417765 0.050196 0.785578
v -1.417765 2.987710 0.785575
v -7.358418 0.050195 0.785578
v -13.306057 2.987985 6.712770
v -13.306057 2.988260 12.660409
v -13.306057 2.987710 0.772120
v -13.306057 0.050194 6.712770
v -13.427853 2.988297 0.418205
v 13.860248 3.481478 -0.070201
v 13.427850 2.988297 0.418205
v 13.860250 3.481476 14.376792
v -13.427853 2.988295 13.842036
v 13.427852 2.988295 13.842036
v -13.860250 3.481478 -0.070201
v -13.860250 5.532686 -0.070201
v 13.860249 5.532686 -0.070201
v -13.860250 3.481476 14.376792
v 13.860249 5.532684 14.376792
v -13.860250 5.532684 14.376792
v 6.595770 3.892906 14.463976
v -6.595772 5.231755 14.454687
v -6.595772 3.892906 14.463976
v 13.306053 2.988262 0.785575
v -13.306057 0.050196 0.772120
v 6.595770 5.231755 14.454687
v 6.595770 3.892906 14.442908
v -6.595772 5.231755 14.433619
v -6.595772 3.892906 14.442908
v 6.595770 5.231755 14.433619
vt 0.104442 0.060059
vt 0.019600 0.018066
vt 0.104442 0.018066
vt 0.124880 0.060059
vt 0.104442 0.018066
vt 0.124490 0.018066
vt 0.104442 0.060059
vt 0.019600 0.018066
vt 0.104442 0.060059
vt 0.019600 0.018066
vt 0.019601 0.060059
vt 0.104442 0.018066
vt 0.104442 0.060059
vt 0.019600 0.018066
vt 0.019601 0.060059
vt 0.104442 0.060059
vt 0.104442 0.018066
vt 0.104442 0.060059
vt 0.019600 0.018066
vt 0.104442 0.018066
vt 0.104442 0.060059
vt 0.019600 0.018066
vt 0.104442 0.018066
vt 0.124880 0.060059
vt 0.104442 0.018066
vt 0.124490 0.018066
vt 0.104442 0.060059
vt 0.019600 0.018066
vt 0.104442 0.060059
vt 0.019600 0.018066
vt 0.019601 0.060059
vt 0.104442 0.018066
vt 0.104442 0.060059
vt 0.019600 0.018066
vt 0.019601 0.060059
vt 0.104442 0.060059
vt 0.019601 0.060059
vt 0.104442 0.060059
vt 0.019600 0.018066
vt 0.019601 0.060059
vt 0.063965 0.069824
vt 0.201660 0.077637
vt 0.199707 0.069824
vt 0.201660 0.077637
vt 0.063965 0.069824
vt 0.199707 0.069824
vt 0.062012 0.077637
vt 0.055176 0.100098
vt 0.208496 0.100098
vt 0.062012 0.077637
vt 0.208496 0.100098
vt 0.055176 0.100098
vt 0.117676 0.125488
vt 0.025879 0.139160
vt 0.025879 0.125488
vt 0.019601 0.060059
vt 0.104442 0.018066
vt 0.019601 0.060059
vt 0.019601 0.060059
vt 0.019601 0.060059
vt 0.104442 0.018066
vt 0.104442 0.018066
vt 0.104442 0.018066
vt 0.117676 0.139160
vt 0.117676 0.125488
vt 0.025879 0.125488
vt 0.025879 0.139160
vt 0.117676 0.139160
vn 0.0000 -0.0000 1.0000
vn 1.0000 0.0000 -0.0000
vn 0.0000 -0.0000 -1.0000
vn -1.0000 0.0000 0.0000
vn 0.0000 -0.7037 -0.7105
vn 0.0000 -0.7351 0.6780
vn 0.7519 -0.6593 -0.0000
vn -0.7519 -0.6593 -0.0000
vn 0.0000 1.0000 0.0000
vn 0.0000 0.0069 1.0000
vn 0.7519 -0.6592 -0.0000
vn 0.0000 -0.0069 -1.0000
s 1
f 1/1/1 2/2/1 3/3/1
f 4/4/1 5/5/1 6/6/1
f 7/7/1 3/8/1 5/5/1
f 8/9/1 9/10/1 10/11/1
f 4/4/1 11/12/1 12/13/1
f 12/13/1 13/14/1 8/15/1
f 14/16/2 9/10/2 15/17/2
f 16/18/2 15/19/2 17/20/2
f 18/21/3 19/22/3 20/23/3
f 21/24/3 22/25/3 23/26/3
f 24/27/3 20/28/3 22/25/3
f 25/29/3 26/30/3 27/31/3
f 21/24/3 28/32/3 29/33/3
f 29/33/3 30/34/3 25/35/3
f 31/36/4 2/2/4 32/37/4
f 33/38/4 34/39/4 31/40/4
f 35/41/5 36/42/5 37/43/5
f 38/44/6 39/45/6 40/46/6
f 36/42/7 40/46/7 37/43/7
f 39/45/8 41/47/8 35/41/8
f 36/42/3 42/48/3 43/49/3
f 44/50/1 45/51/1 46/52/1
f 42/48/4 44/50/4 46/52/4
f 43/49/9 46/52/9 45/51/9
f 47/53/10 48/54/10 49/55/10
f 38/44/2 43/49/2 45/51/2
f 1/1/1 32/37/1 2/2/1
f 4/4/1 7/7/1 5/5/1
f 7/7/1 1/56/1 3/8/1
f 8/9/1 13/57/1 9/10/1
f 4/4/1 6/6/1 11/12/1
f 12/13/1 11/12/1 13/14/1
f 14/16/2 10/11/2 9/10/2
f 16/18/2 14/58/2 15/19/2
f 18/21/3 50/59/3 19/22/3
f 21/24/3 24/27/3 22/25/3
f 24/27/3 18/60/3 20/28/3
f 25/29/3 30/61/3 26/30/3
f 21/24/3 23/26/3 28/32/3
f 29/33/3 28/32/3 30/34/3
f 31/36/4 34/62/4 2/2/4
f 33/38/4 51/63/4 34/39/4
f 35/41/5 41/47/5 36/42/5
f 38/44/6 44/50/6 39/45/6
f 36/42/11 38/44/11 40/46/11
f 39/45/8 44/50/8 41/47/8
f 36/42/3 41/47/3 42/48/3
f 44/50/1 38/44/1 45/51/1
f 42/48/4 41/47/4 44/50/4
f 43/49/9 42/48/9 46/52/9
f 47/53/10 52/64/10 48/54/10
f 38/44/2 36/42/2 43/49/2
f 53/65/12 55/66/12 54/67/12
f 53/65/12 54/67/12 56/68/12
