# Blender v2.90.0 Alpha OBJ File: 'Decos.blend'
# www.blender.org
o Text.004
v 0.121459 -0.756400 -3.157168
v 0.121459 -0.465981 -3.157168
v 0.121459 -0.465982 3.091598
v 0.121459 -0.756401 3.091598
v 0.180366 1.562790 2.807116
v 0.180366 -0.407695 2.807116
v 0.180366 -0.407694 -3.043237
v 0.180366 1.562791 -3.043237
vt 0.132812 0.773438
vt 0.132812 0.773438
vt 0.132812 0.773438
vt 0.132812 0.773438
vt 0.007812 0.742188
vt 0.007812 0.742188
vt 0.007812 0.742188
vt 0.007812 0.742188
vn 1.0000 0.0000 0.0000
s 1
f 1/1/1 2/2/1 3/3/1 4/4/1
f 5/5/1 6/6/1 7/7/1 8/8/1
