# Blender v2.91.0 Beta OBJ File: 'HOUSE.blend'
# www.blender.org
o Cube.005
v -0.144497 1.892528 -2.568211
v 2.302546 -0.019813 -1.585674
v 2.270418 0.021302 0.028158
v 0.011824 0.030874 2.007934
v -2.301378 -0.040736 0.990163
v -2.378874 -0.026784 -1.235638
v 0.020538 0.515299 0.036934
vt 0.898926 0.985840
vt 0.901855 0.930176
vt 0.946777 0.956543
vt 0.946777 0.903808
vt 0.901855 0.880371
vt 0.856934 0.903809
vt 0.856934 0.956543
vn 0.0337 0.8844 0.4654
vn 0.0256 0.9633 0.2670
vn 0.3551 0.9136 0.1981
vn 0.2143 0.9749 0.0605
vn 0.0123 0.9710 0.2387
vn -0.1911 0.9760 0.1037
vn -0.3301 0.9148 0.2328
s 1
f 1/1/1 7/2/2 2/3/3
f 2/3/3 7/2/2 3/4/4
f 3/4/4 7/2/2 4/5/5
f 4/5/5 7/2/2 5/6/6
f 5/6/6 7/2/2 6/7/7
f 6/7/7 7/2/2 1/1/1
