# Blender v2.90.0 Alpha OBJ File: 'Decos.blend'
# www.blender.org
o Cube.001_Cube
v 2.346935 -1.376375 -0.049176
v 2.346935 1.376375 -0.049176
v -2.994480 1.032281 -0.049176
v -2.231421 -1.376375 -0.049176
v 0.550610 0.684805 -0.097200
v 0.550610 0.980765 -0.097200
v -0.336210 0.980765 -0.097200
v -0.336210 0.684805 -0.097200
v 0.548664 -0.948527 -0.097200
v 0.548664 -0.653865 -0.097200
v -0.334265 -0.653865 -0.097200
v -0.334265 -0.948527 -0.097200
v 2.346935 -1.376375 0.049176
v 2.346935 1.376375 0.049176
v -2.231421 1.376375 -0.049176
v -2.994480 1.032281 0.049176
v -2.231421 -1.376375 0.049176
v 0.550610 0.684805 0.097200
v 3.109994 1.032281 -0.049176
v 0.550610 0.980765 0.097200
v -0.336210 0.980765 0.097200
v -0.336210 0.684805 0.097200
v 3.206858 -1.065041 -0.049176
v -3.091343 -1.065041 -0.049175
v 3.206858 1.065041 -0.049176
v -2.304068 1.420055 -0.049176
v -2.994480 -1.032281 -0.049176
v -2.304068 -1.420055 -0.049176
v -3.091343 1.065041 -0.049175
v 2.419583 1.420055 -0.049176
v 3.109994 -1.032281 -0.049176
v 2.419583 -1.420055 -0.049176
v 3.397668 -1.129574 0.000000
v 3.397668 1.129574 0.000000
v 2.562690 -1.506098 0.000000
v -3.282151 1.129573 0.000000
v -3.282151 -1.129573 0.000000
v -2.447175 -1.506098 0.000000
v 2.562690 1.506098 0.000000
v -2.447175 1.506098 0.000000
v 0.548664 -0.948527 0.097200
v 0.548664 -0.653865 0.097200
v -0.334265 -0.653865 0.097200
v -0.334265 -0.948527 0.097200
v -2.231421 1.376375 0.049176
v 3.109994 1.032281 0.049176
v 3.206858 -1.065041 0.049176
v -3.091343 -1.065041 0.049175
v 3.206858 1.065041 0.049176
v -2.304068 1.420055 0.049176
v -2.994480 -1.032281 0.049176
v -2.304068 -1.420055 0.049176
v -3.091343 1.065041 0.049175
v 2.419583 1.420055 0.049176
v 3.109994 -1.032281 0.049176
v 2.419583 -1.420055 0.049176
v 2.968007 -0.158916 0.000000
v 2.968007 -0.000000 0.029865
v 2.968007 -0.000000 -0.029865
v 2.968007 0.158916 0.000000
v 4.510525 -0.158916 0.000000
v 4.510525 -0.000000 0.029865
v 4.510525 -0.000000 -0.029865
v 4.510525 0.158916 0.000000
vt 0.210938 0.789062
vt 0.210938 0.789062
vt 0.210938 0.789062
vt 0.210938 0.789062
vt 0.210938 0.789062
vt 0.210938 0.789062
vt 0.210938 0.789062
vt 0.210938 0.789062
vt 0.039062 0.742188
vt 0.039062 0.742188
vt 0.039062 0.742188
vt 0.039062 0.742188
vt 0.039062 0.742188
vt 0.039062 0.742188
vt 0.039062 0.742188
vt 0.039062 0.742188
vt 0.148438 0.773438
vt 0.148438 0.773438
vt 0.148438 0.773438
vt 0.148438 0.773438
vt 0.148438 0.773438
vt 0.148438 0.773438
vt 0.148438 0.773438
vt 0.039062 0.742188
vt 0.039062 0.742188
vt 0.039062 0.742188
vt 0.039062 0.742188
vt 0.039062 0.742188
vt 0.039062 0.742188
vt 0.039062 0.742188
vt 0.039062 0.742188
vt 0.148438 0.773438
vt 0.148438 0.773438
vt 0.148438 0.773438
vt 0.148438 0.773438
vt 0.148438 0.773438
vt 0.148438 0.773438
vt 0.039062 0.742188
vt 0.039062 0.742188
vt 0.039062 0.742188
vt 0.039062 0.742188
vt 0.148438 0.773438
vt 0.148438 0.773438
vt 0.148438 0.773438
vt 0.039062 0.742188
vt 0.039062 0.742188
vt 0.039062 0.742188
vt 0.039062 0.742188
vt 0.039062 0.742188
vt 0.039062 0.742188
vt 0.039062 0.742188
vt 0.039062 0.742188
vt 0.039062 0.742188
vt 0.039062 0.742188
vt 0.039062 0.742188
vt 0.039062 0.742188
vt 0.039062 0.742188
vt 0.039062 0.742188
vt 0.039062 0.742188
vt 0.039062 0.742188
vt 0.039062 0.742188
vt 0.039062 0.742188
vt 0.039062 0.742188
vt 0.039062 0.742188
vn -1.0000 0.0000 0.0000
vn 0.0000 0.1847 -0.9828
vn 1.0000 0.0000 0.0000
vn 0.0000 -0.1847 0.9828
vn 0.0000 -0.1847 -0.9828
vn 0.0000 0.1847 0.9828
vn -0.0000 0.0000 -1.0000
vn -0.0393 -0.4458 0.8943
vn -0.1905 -0.1732 0.9663
vn -0.2097 -0.1194 0.9704
vn -0.1087 -0.3508 0.9301
vn -0.0393 0.4458 0.8943
vn 0.0392 0.4458 0.8943
vn 0.1087 0.3508 0.9301
vn -0.1087 0.3508 0.9301
vn -0.0000 -0.0000 1.0000
vn -0.0393 0.4458 -0.8943
vn -0.1087 0.3508 -0.9301
vn 0.1087 0.3508 -0.9301
vn 0.0392 0.4458 -0.8943
vn -0.0393 -0.4458 -0.8943
vn -0.1087 -0.3508 -0.9301
vn -0.2097 -0.1194 -0.9704
vn -0.1905 -0.1732 -0.9663
vn -0.2097 0.1194 -0.9704
vn -0.1905 0.1732 -0.9663
vn 0.0392 -0.4458 -0.8943
vn 0.1087 -0.3508 -0.9301
vn 0.2097 0.1194 -0.9704
vn 0.1905 0.1732 -0.9663
vn 0.1905 -0.1732 -0.9663
vn 0.2097 -0.1194 -0.9704
vn -0.1905 0.1732 0.9663
vn -0.2097 0.1194 0.9704
vn 0.0392 -0.4458 0.8943
vn 0.1087 -0.3508 0.9301
vn 0.1905 0.1732 0.9663
vn 0.2097 0.1194 0.9704
vn 0.1905 -0.1732 0.9663
vn 0.2097 -0.1194 0.9704
s off
f 57/1/1 58/2/1 60/3/1 59/4/1
f 59/4/2 60/3/2 64/5/2 63/6/2
f 63/6/3 64/5/3 62/7/3 61/8/3
f 61/8/4 62/7/4 58/2/4 57/1/4
f 59/4/5 63/6/5 61/8/5 57/1/5
f 64/5/6 60/3/6 58/2/6 62/7/6
s 1
f 8/9/7 7/10/7 6/11/7 5/12/7
f 12/13/7 11/14/7 10/15/7 9/16/7
f 1/17/7 2/18/7 19/19/7 31/20/7
f 15/21/7 2/18/7 3/22/7
f 2/18/7 1/17/7 4/23/7 3/22/7
f 52/24/8 48/25/9 37/26/10 38/27/11
f 50/28/12 54/29/13 39/30/14 40/31/15
f 45/32/16 16/33/16 14/34/16
f 3/22/7 4/23/7 27/35/7
f 16/33/16 51/36/16 17/37/16
f 22/38/16 18/39/16 20/40/16 21/41/16
f 13/42/16 55/43/16 46/44/16 14/34/16
f 14/34/16 16/33/16 17/37/16 13/42/16
f 44/45/16 41/46/16 42/47/16 43/48/16
f 26/49/17 40/31/18 39/30/19 30/50/20
f 28/51/21 38/27/22 37/26/23 24/52/24
f 24/52/24 37/26/23 36/53/25 29/54/26
f 29/54/26 36/53/25 40/31/18 26/49/17
f 32/55/27 35/56/28 38/27/22 28/51/21
f 30/50/20 39/30/19 34/57/29 25/58/30
f 23/59/31 33/60/32 35/56/28 32/55/27
f 25/58/30 34/57/29 33/60/32 23/59/31
f 48/25/9 53/61/33 36/53/34 37/26/10
f 53/61/33 50/28/12 40/31/15 36/53/34
f 56/62/35 52/24/8 38/27/11 35/56/36
f 54/29/13 49/63/37 34/57/38 39/30/14
f 47/64/39 56/62/35 35/56/36 33/60/40
f 49/63/37 47/64/39 33/60/40 34/57/38
