# Blender v2.91.0 Beta OBJ File: 'HOUSE.blend'
# www.blender.org
o tree.002_tree.009_tree.002_tree.006_tree.002_tree.009_tree.002_
v -6.953725 3.750626 13.731825
v 0.000000 4.364510 10.010419
v -6.953725 4.364511 10.010419
v 6.953725 3.750626 13.731825
v 0.000000 3.750624 13.731825
v 6.953725 4.364511 10.010419
v 7.777106 4.476181 -3.270374
v 0.000000 7.096928 -3.270374
v 0.000000 7.344568 -3.270374
v -7.777106 4.476181 -3.270374
v -7.738249 4.235522 -3.270374
v 0.000000 7.344565 3.544159
v -7.777107 4.476178 9.999946
v 0.000000 7.344565 9.999946
v 6.532582 -0.729395 10.076737
v 6.916139 0.015854 10.076737
v 6.532582 0.015854 10.076737
v -7.777106 4.476178 3.544159
v -7.738249 4.235519 3.544159
v 6.532582 4.364515 -2.978274
v 6.916139 0.015858 -2.978273
v 6.532582 0.015858 -2.978273
v -6.532582 4.364515 -2.978274
v -6.916139 0.015858 -2.978273
v -6.916139 4.364515 -2.978274
v 7.777106 4.476178 3.544159
v 7.777107 4.476178 9.999946
v 7.738249 4.235522 -3.270374
v 7.738249 4.235519 3.544159
v 0.000000 7.124959 9.999946
v -6.532582 -0.729395 10.076737
v 0.000000 0.015852 10.076737
v -6.532582 0.015854 10.076737
v 6.929409 0.015858 -2.988425
v 6.929406 4.364511 3.544159
v 6.929408 0.015855 3.544157
v 7.738250 4.235520 9.999946
v -6.916139 0.015854 3.541732
v -6.916139 -0.729395 10.074313
v -6.916139 0.015854 10.074313
v -6.929407 0.015854 10.076737
v -6.929406 4.364511 3.544159
v -6.929408 0.015855 3.544157
v -6.532582 -0.729391 -2.978273
v -6.532582 0.015858 -2.978273
v 0.000000 4.364510 10.076742
v 6.532582 4.364511 10.076742
v 6.532582 -0.729391 -2.978273
v 6.916139 -0.729391 -2.978273
v 1.583835 3.762699 13.157519
v 1.967391 -0.585957 13.157515
v 1.967391 3.762699 13.157519
v -1.583835 3.762699 13.157519
v -1.967391 -0.585957 13.157515
v -1.583835 -0.585958 13.157515
v -6.147281 3.762699 13.157519
v -6.530838 -0.585957 13.157515
v -6.147281 -0.585958 13.157515
v 6.916139 4.364511 10.076742
v -6.916139 -0.729391 -2.990851
v -6.916139 -0.729395 3.541732
v -6.532582 4.364511 10.076742
v -6.916139 0.015854 10.076737
v 6.916139 -0.729395 10.074313
v 6.916139 0.015854 3.541732
v 6.916139 0.015854 10.074313
v 0.000000 -0.729397 10.076737
v 0.000000 0.015856 -2.978273
v 6.916139 -0.729391 -2.990851
v 6.916139 0.015858 -2.990851
v 0.000000 -0.729393 -2.978273
v 0.000000 4.364513 -2.978274
v 0.000000 5.483356 -2.988423
v 6.929406 4.364514 -2.988423
v -6.929406 4.364514 -2.988423
v -6.929409 0.015858 -2.988425
v 6.147281 3.762699 13.157519
v 6.530838 -0.585957 13.157515
v 6.530838 3.762699 13.157519
v 6.929407 0.015854 10.076737
v 6.929407 4.364511 10.076742
v 0.000000 0.015852 9.982568
v -6.532582 -0.729395 9.982568
v 0.000000 -0.729397 9.982568
v -6.532582 0.015854 13.240620
v 0.000000 -0.729397 13.240620
v 0.000000 0.015852 13.240620
v 6.532582 -0.729395 13.240620
v 6.532582 -0.729395 9.982568
v -4.054038 3.471555 13.608692
v -5.570399 3.795372 13.608692
v -5.570399 3.471554 13.608692
v -4.054038 2.837501 13.608690
v -5.570399 2.837500 13.608690
v 5.880843 3.471555 13.608692
v 4.364482 3.795372 13.608692
v 4.364482 3.471554 13.608692
v 5.880843 2.837501 13.608690
v 4.364482 2.837500 13.608690
v 6.916139 -0.729395 10.076737
v 6.916139 4.364515 -2.978274
v -6.929407 4.364511 10.076742
v -6.916139 -0.729391 -2.978273
v 1.583835 -0.585958 13.157515
v -1.967391 3.762699 13.157519
v -6.530838 3.762699 13.157519
v -6.916139 0.015858 -2.990851
v -6.916139 4.364511 10.076742
v 6.916139 -0.729395 3.541732
v -6.916139 -0.729395 10.076737
v 6.147281 -0.585958 13.157515
v -6.532582 -0.729395 13.240620
v -4.054038 3.795372 13.608692
v 5.880843 3.795372 13.608692
v 6.532582 0.015854 13.240620
v 6.532582 0.015854 9.982568
v -6.532582 0.015854 9.982568
v 2.495498 4.239708 10.076742
v 0.007248 6.301198 10.076743
v 0.007248 4.239707 10.076742
v 0.007248 6.922100 10.076743
v 2.495498 6.301199 10.076743
v 2.495498 6.922100 10.076743
v -2.483682 4.239708 10.076742
v -2.483682 6.301199 10.076743
v -2.483682 6.922101 10.076743
v 0.000000 4.235520 9.999946
v -7.738250 4.235520 9.999946
v 0.000000 7.124961 -2.998564
v 7.738250 4.235522 -2.998565
v 0.000000 4.235522 -2.998565
v -7.738250 4.235522 -2.998565
vt 0.073017 0.803223
vt 0.216309 0.874512
vt 0.073017 0.874512
vt 0.073017 0.803223
vt 0.216309 0.803223
vt 0.073017 0.874512
vt 0.016113 0.928223
vt 0.016113 0.928223
vt 0.016113 0.928223
vt 0.016113 0.928223
vt 0.016113 0.928223
vt 0.127441 0.807129
vt 0.237793 0.928223
vt 0.237793 0.807129
vt 0.244629 0.018066
vt 0.249512 0.018066
vt 0.244629 0.018066
vt 0.127441 0.928223
vt 0.127441 0.928223
vt 0.503418 0.073730
vt 0.508301 0.018066
vt 0.503418 0.018066
vt 0.503418 0.073730
vt 0.508301 0.018066
vt 0.508301 0.073730
vt 0.127441 0.928223
vt 0.237793 0.928223
vt 0.016113 0.928223
vt 0.127441 0.928223
vt 0.237793 0.928223
vt 0.237793 0.807129
vt 0.131348 0.001465
vt 0.215332 0.017090
vt 0.131348 0.017090
vt 0.458496 0.018066
vt 0.374512 0.073730
vt 0.374512 0.018066
vt 0.237793 0.928223
vt 0.215332 0.017090
vt 0.131348 0.001465
vt 0.131348 0.017090
vt 0.290527 0.018066
vt 0.374512 0.073730
vt 0.374512 0.018066
vt 0.503418 0.018066
vt 0.503418 0.018066
vt 0.124512 0.073520
vt 0.208751 0.018066
vt 0.208751 0.073520
vt 0.503418 0.018066
vt 0.508301 0.018066
vt 0.244629 0.073730
vt 0.249512 0.018066
vt 0.249512 0.073730
vt 0.244629 0.073730
vt 0.249512 0.018066
vt 0.244629 0.018066
vt 0.244629 0.073730
vt 0.249512 0.018066
vt 0.244629 0.018066
vt 0.244629 0.073730
vt 0.249512 0.073730
vt 0.131348 0.001465
vt 0.215332 0.001465
vt 0.244629 0.073730
vt 0.249512 0.018066
vt 0.244629 0.018066
vt 0.208751 0.018066
vt 0.124512 0.018066
vt 0.131348 0.001465
vt 0.215332 0.017090
vt 0.131348 0.017090
vt 0.215332 0.001465
vt 0.131348 0.017090
vt 0.244629 0.018066
vt 0.390137 0.001465
vt 0.474121 0.017090
vt 0.390137 0.017090
vt 0.131348 0.001465
vt 0.131348 0.017090
vt 0.390137 0.001465
vt 0.474121 0.001465
vt 0.377441 0.073730
vt 0.461426 0.018066
vt 0.461426 0.073730
vt 0.355957 0.073730
vt 0.355957 0.073730
vt 0.355957 0.073730
vt 0.458496 0.018066
vt 0.244629 0.073730
vt 0.249512 0.018066
vt 0.249512 0.073730
vt 0.376465 0.073730
vt 0.292480 0.018066
vt 0.376465 0.018066
vt 0.290527 0.018066
vt 0.290527 0.073730
vt 0.215332 0.017090
vt 0.131348 0.001465
vt 0.131348 0.017090
vt 0.131348 0.017090
vt 0.215332 0.001465
vt 0.131348 0.017090
vt 0.215332 0.001465
vt 0.215332 0.017090
vt 0.131348 0.017090
vt 0.173340 0.001465
vt 0.173340 0.017090
vt 0.171387 0.017090
vt 0.131348 0.001465
vt 0.171387 0.001465
vt 0.046387 0.140559
vt 0.016113 0.145020
vt 0.016113 0.140559
vt 0.046387 0.125488
vt 0.016113 0.125488
vt 0.046387 0.140559
vt 0.016113 0.145020
vt 0.016113 0.140559
vt 0.046387 0.125488
vt 0.016113 0.125488
vt 0.249512 0.018066
vt 0.508301 0.073730
vt 0.458496 0.073730
vt 0.290527 0.073730
vt 0.508301 0.018066
vt 0.016113 0.807129
vt 0.244629 0.018066
vt 0.249512 0.073730
vt 0.249512 0.073730
vt 0.131348 0.017090
vt 0.249512 0.073730
vt 0.208751 0.073520
vt 0.215332 0.001465
vt 0.131348 0.001465
vt 0.249512 0.018066
vt 0.390137 0.017090
vt 0.377441 0.018066
vt 0.458496 0.073730
vt 0.244629 0.018066
vt 0.292480 0.073730
vt 0.131348 0.001465
vt 0.131348 0.001465
vt 0.046387 0.145020
vt 0.046387 0.145020
vt 0.241699 0.023926
vt 0.204590 0.045410
vt 0.204590 0.023926
vt 0.204590 0.045410
vt 0.204590 0.023926
vt 0.241699 0.045410
vt 0.413933 0.073730
vt 0.374512 0.105957
vt 0.374512 0.073730
vt 0.374512 0.115510
vt 0.413933 0.105957
vt 0.413933 0.115510
vt 0.335687 0.073730
vt 0.335687 0.105957
vt 0.335687 0.115510
vt 0.152832 0.153809
vt 0.152832 0.121582
vt 0.236816 0.121582
vt 0.236816 0.121582
vt 0.152832 0.153809
vt 0.236816 0.121582
vt 0.152832 0.121582
vt 0.236816 0.121582
vn 0.0000 0.9867 0.1628
vn 0.0000 0.0000 -1.0000
vn -0.3460 0.9382 0.0000
vn 0.0000 0.0000 1.0000
vn -0.9872 -0.1594 -0.0000
vn 0.3460 0.9382 0.0000
vn 0.9872 -0.1594 -0.0000
vn 1.0000 0.0000 0.0000
vn -1.0000 0.0000 0.0000
vn -0.0000 1.0000 0.0000
s off
f 1/1/1 2/2/1 3/3/1
f 4/4/1 2/2/1 5/5/1
f 1/1/1 5/5/1 2/2/1
f 4/4/1 6/6/1 2/2/1
s 1
f 7/7/2 8/8/2 9/9/2
f 10/10/2 8/8/2 11/11/2
f 12/12/3 13/13/3 14/14/3
f 15/15/4 16/16/4 17/17/4
f 18/18/5 11/11/5 19/19/5
f 20/20/2 21/21/2 22/22/2
f 23/23/2 24/24/2 25/25/2
f 26/26/6 14/14/6 27/27/6
f 28/28/7 26/26/7 29/29/7
f 13/13/5 19/19/5 128/30/5
f 30/31/4 13/13/4 128/30/4
f 31/32/4 32/33/4 33/34/4
f 34/35/8 35/36/8 36/37/8
f 26/26/7 37/38/7 29/29/7
f 38/39/9 39/40/9 40/41/9
f 41/42/9 42/43/9 43/44/9
f 44/45/2 24/24/2 45/46/2
f 7/7/6 12/12/6 26/26/6
f 46/47/4 17/48/4 47/49/4
f 48/50/2 21/21/2 49/51/2
f 50/52/4 51/53/4 52/54/4
f 53/55/4 54/56/4 55/57/4
f 56/58/4 57/59/4 58/60/4
f 30/31/4 27/27/4 14/14/4
f 47/61/4 16/16/4 59/62/4
f 38/39/9 60/63/9 61/64/9
f 62/65/4 63/66/4 33/67/4
f 46/47/4 33/68/4 32/69/4
f 64/70/8 65/71/8 66/72/8
f 67/73/4 17/74/4 32/33/4
f 63/66/4 31/75/4 33/67/4
f 12/12/3 10/10/3 18/18/3
f 48/76/2 68/77/2 22/78/2
f 65/71/8 69/79/8 70/80/8
f 44/81/2 68/77/2 71/82/2
f 72/83/2 45/84/2 23/85/2
f 73/86/2 74/87/2 75/88/2
f 42/43/9 76/89/9 43/44/9
f 77/90/4 78/91/4 79/92/4
f 72/93/2 22/94/2 68/95/2
f 80/96/8 35/36/8 81/97/8
f 82/98/2 83/99/2 117/100/2
f 116/101/2 84/102/2 82/98/2
f 85/103/4 86/104/4 87/105/4
f 86/104/4 115/106/4 87/105/4
f 83/107/9 85/103/9 117/108/9
f 116/109/8 88/110/8 89/111/8
f 90/112/4 91/113/4 92/114/4
f 93/115/4 92/114/4 94/116/4
f 95/117/4 96/118/4 97/119/4
f 98/120/4 97/119/4 99/121/4
f 7/7/2 28/28/2 8/8/2
f 10/10/2 9/9/2 8/8/2
f 12/12/3 18/18/3 13/13/3
f 15/15/4 100/122/4 16/16/4
f 18/18/5 10/10/5 11/11/5
f 20/20/2 101/123/2 21/21/2
f 23/23/2 45/46/2 24/24/2
f 26/26/6 12/12/6 14/14/6
f 28/28/7 7/7/7 26/26/7
f 13/13/5 18/18/5 19/19/5
f 30/31/4 14/14/4 13/13/4
f 31/32/4 67/73/4 32/33/4
f 34/35/8 74/124/8 35/36/8
f 26/26/7 27/27/7 37/38/7
f 38/39/9 61/64/9 39/40/9
f 41/42/9 102/125/9 42/43/9
f 44/45/2 103/126/2 24/24/2
f 7/7/6 9/127/6 12/12/6
f 46/47/4 32/69/4 17/48/4
f 48/50/2 22/22/2 21/21/2
f 50/52/4 104/128/4 51/53/4
f 53/55/4 105/129/4 54/56/4
f 56/58/4 106/130/4 57/59/4
f 30/31/4 37/38/4 27/27/4
f 47/61/4 17/17/4 16/16/4
f 38/39/9 107/131/9 60/63/9
f 62/65/4 108/132/4 63/66/4
f 46/47/4 62/133/4 33/68/4
f 64/70/8 109/134/8 65/71/8
f 67/73/4 15/135/4 17/74/4
f 63/66/4 110/136/4 31/75/4
f 12/12/3 9/127/3 10/10/3
f 48/76/2 71/82/2 68/77/2
f 65/71/8 109/134/8 69/79/8
f 44/81/2 45/137/2 68/77/2
f 72/83/2 68/138/2 45/84/2
f 42/43/9 75/139/9 76/89/9
f 77/90/4 111/140/4 78/91/4
f 72/93/2 20/141/2 22/94/2
f 80/96/8 36/37/8 35/36/8
f 82/98/2 84/102/2 83/99/2
f 116/101/2 89/142/2 84/102/2
f 85/103/4 112/143/4 86/104/4
f 86/104/4 88/110/4 115/106/4
f 83/107/9 112/143/9 85/103/9
f 116/109/8 115/106/8 88/110/8
f 90/112/4 113/144/4 91/113/4
f 93/115/4 90/112/4 92/114/4
f 95/117/4 114/145/4 96/118/4
f 98/120/4 95/117/4 97/119/4
f 82/146/10 115/147/10 116/148/10
f 85/149/10 82/146/10 117/150/10
f 82/146/10 87/151/10 115/147/10
f 85/149/10 87/151/10 82/146/10
f 118/152/4 119/153/4 120/154/4
f 121/155/4 122/156/4 123/157/4
f 119/153/4 124/158/4 120/154/4
f 125/159/4 121/155/4 126/160/4
f 118/152/4 122/156/4 119/153/4
f 121/155/4 119/153/4 122/156/4
f 119/153/4 125/159/4 124/158/4
f 125/159/4 119/153/4 121/155/4
f 30/161/4 127/162/4 37/163/4
f 30/161/4 128/164/4 127/162/4
f 129/165/2 130/166/2 131/167/2
f 129/165/2 131/167/2 132/168/2
