# Blender v2.90.0 Alpha OBJ File: 'Decos.blend'
# www.blender.org
o Text
v -0.093121 -1.090411 1.829263
v -0.093121 0.642503 2.086740
v -0.093121 0.873943 1.829262
v -0.093121 0.873943 2.274785
v -0.093121 0.704702 2.818671
v -0.093121 0.642502 2.321073
v -0.093121 0.530760 2.637496
v -0.093121 0.214337 3.006717
v -0.093121 -0.161755 2.086740
v -0.093121 0.217230 2.743453
v -0.093121 -0.095577 2.626648
v -0.093121 -0.264818 2.821203
v -0.093121 -0.219615 2.329752
v -0.093121 -0.393195 2.086740
v -0.093121 -0.204788 2.207161
v -0.093121 -0.451056 2.347111
v -0.093121 -1.090411 2.086740
v -0.093121 -0.437314 2.222349
v -0.093121 0.708680 0.369014
v -0.093121 0.713020 1.361679
v -0.093121 0.899980 0.857210
v -0.093121 0.668540 0.854317
v -0.093121 0.545948 1.172186
v -0.093121 0.237481 1.560212
v -0.093121 0.237481 0.171566
v -0.093121 0.546310 0.553444
v -0.093121 0.237481 0.434830
v -0.093121 0.234588 1.296948
v -0.093121 -0.256501 0.364675
v -0.093121 -0.094130 0.551274
v -0.093121 -0.260840 1.364933
v -0.093121 -0.097747 1.177611
v -0.093121 -0.219615 0.854317
v -0.093121 -0.451056 0.857210
v -0.093122 -0.425019 -1.202614
v -0.093122 1.548015 -0.945136
v -0.093122 1.548015 -1.202614
v -0.093122 0.703256 -0.945136
v -0.093122 0.848268 -0.762876
v -0.093121 0.768710 -0.234902
v -0.093121 0.899981 -0.551686
v -0.093122 0.703256 -0.939350
v -0.093122 0.694577 -0.621119
v -0.093121 0.608510 -0.435243
v -0.093121 0.370559 -0.109056
v -0.093122 0.506531 -0.945136
v -0.093122 0.651543 -0.779873
v -0.093121 0.379239 -0.366534
v -0.093122 -0.425019 -0.945136
v -0.093121 -0.425019 -0.366534
v -0.093121 -0.425019 -0.109056
v -0.093122 1.431210 -2.424550
v -0.093122 1.539336 -1.765305
v -0.093122 1.574052 -1.989513
v -0.093122 1.435187 -1.549776
v -0.093122 1.276433 -1.794235
v -0.093122 1.114063 -1.549776
v -0.093122 1.047524 -2.588366
v -0.093122 1.254374 -2.237227
v -0.093122 1.319466 -2.012657
v -0.093122 1.085132 -2.325102
v -0.093122 0.677942 -1.898383
v -0.093122 0.500022 -2.161647
v -0.093122 0.084151 -1.471663
v -0.093122 0.052328 -1.734928
v -0.093122 -0.268796 -2.576793
v -0.093122 -0.122699 -2.334866
v -0.093122 0.089937 -2.576794
v -0.093122 -0.299534 -1.628610
v -0.093122 -0.113297 -1.813039
v -0.093122 -0.196471 -2.056051
v -0.093122 -0.406576 -2.318955
v -0.093122 -0.451056 -2.024229
v -0.076262 -0.756401 -3.091598
v -0.076262 -0.465983 -3.091598
v 0.121458 -0.465983 -3.091598
v 0.121458 -0.756401 -3.091598
v 0.121459 -0.465982 3.157168
v 0.121459 -0.756400 3.157168
v -0.076261 -0.465982 3.157168
v -0.076261 -0.756400 3.157168
v 0.138318 1.319466 -2.012657
v 0.138318 1.276433 -1.794235
v 0.138318 1.254374 -2.237227
v 0.138318 1.085132 -2.325102
v 0.138318 0.677942 -1.898383
v 0.138318 0.084151 -1.471664
v 0.138319 -0.299534 -1.628610
v 0.138318 -0.451056 -2.024229
v 0.138318 -0.406576 -2.318955
v 0.138318 -0.268796 -2.576793
v 0.138318 0.089937 -2.576794
v 0.138318 -0.122699 -2.334866
v 0.138319 -0.196471 -2.056051
v 0.138319 -0.113297 -1.813039
v 0.138318 0.052328 -1.734928
v 0.138318 0.500022 -2.161647
v 0.138318 1.047524 -2.588366
v 0.138319 1.431210 -2.424550
v 0.138319 1.574052 -1.989513
v 0.138318 1.539336 -1.765305
v 0.138318 1.435187 -1.549776
v 0.138318 1.114063 -1.549776
v 0.138318 0.848268 -0.762876
v 0.138318 0.703256 -0.939350
v 0.138319 0.899981 -0.551687
v 0.138320 0.768710 -0.234902
v 0.138320 0.370559 -0.109056
v 0.138320 -0.425019 -0.109056
v 0.138319 -0.425019 -0.366534
v 0.138319 0.379239 -0.366534
v 0.138319 0.608510 -0.435243
v 0.138319 0.694577 -0.621119
v 0.138318 0.651543 -0.779873
v 0.138318 0.506531 -0.945136
v 0.138319 -0.425019 -0.945136
v 0.138319 -0.425019 -1.202614
v 0.138318 1.548015 -1.202614
v 0.138318 1.548015 -0.945136
v 0.138318 0.703256 -0.945136
v 0.138320 -0.451056 0.857210
v 0.138320 -0.260840 1.364933
v 0.138320 -0.256501 0.364674
v 0.138320 0.237481 0.171566
v 0.138320 0.708680 0.369014
v 0.138320 0.899980 0.857210
v 0.138320 0.713020 1.361679
v 0.138320 0.237481 1.560212
v 0.138320 -0.219615 0.854317
v 0.138320 -0.094130 0.551274
v 0.138320 -0.097747 1.177611
v 0.138320 0.234588 1.296948
v 0.138320 0.545948 1.172186
v 0.138320 0.668540 0.854317
v 0.138320 0.546310 0.553444
v 0.138320 0.237481 0.434830
v 0.138320 0.873943 1.829262
v 0.138320 -1.090411 1.829263
v 0.138320 0.873943 2.274785
v 0.138320 0.704702 2.818671
v 0.138320 0.214337 3.006717
v 0.138320 -0.264818 2.821203
v 0.138320 -0.451056 2.347111
v 0.138320 -0.437314 2.222349
v 0.138320 -0.393195 2.086740
v 0.138320 -1.090411 2.086740
v 0.138320 -0.219615 2.329752
v 0.138320 -0.204788 2.207161
v 0.138320 -0.095577 2.626648
v 0.138320 0.217230 2.743453
v 0.138320 0.530760 2.637496
v 0.138320 0.642502 2.321073
v 0.138320 0.642503 2.086740
v 0.138320 -0.161755 2.086740
vt 0.023438 0.742188
vt 0.023438 0.742188
vt 0.023438 0.742188
vt 0.023438 0.742188
vt 0.023438 0.742188
vt 0.023438 0.742188
vt 0.023438 0.742188
vt 0.023438 0.742188
vt 0.023438 0.742188
vt 0.023438 0.742188
vt 0.023438 0.742188
vt 0.023438 0.742188
vt 0.023438 0.742188
vt 0.023438 0.742188
vt 0.023438 0.742188
vt 0.023438 0.742188
vt 0.023438 0.742188
vt 0.023438 0.742188
vt 0.023438 0.742188
vt 0.023438 0.742188
vt 0.023438 0.742188
vt 0.023438 0.742188
vt 0.023438 0.742188
vt 0.023438 0.742188
vt 0.023438 0.742188
vt 0.023438 0.742188
vt 0.023438 0.742188
vt 0.023438 0.742188
vt 0.023438 0.742188
vt 0.023438 0.742188
vt 0.023438 0.742188
vt 0.023438 0.742188
vt 0.023438 0.742188
vt 0.023438 0.742188
vt 0.023438 0.742188
vt 0.023438 0.742188
vt 0.023438 0.742188
vt 0.023438 0.742188
vt 0.023438 0.742188
vt 0.023438 0.742188
vt 0.023438 0.742188
vt 0.023438 0.742188
vt 0.023438 0.742188
vt 0.023438 0.742188
vt 0.023438 0.742188
vt 0.023438 0.742188
vt 0.023438 0.742188
vt 0.023438 0.742188
vt 0.023438 0.742188
vt 0.023438 0.742188
vt 0.023438 0.742188
vt 0.023438 0.742188
vt 0.023438 0.742188
vt 0.023438 0.742188
vt 0.023438 0.742188
vt 0.023438 0.742188
vt 0.023438 0.742188
vt 0.023438 0.742188
vt 0.023438 0.742188
vt 0.023438 0.742188
vt 0.023438 0.742188
vt 0.023438 0.742188
vt 0.023438 0.742188
vt 0.023438 0.742188
vt 0.023438 0.742188
vt 0.023438 0.742188
vt 0.023438 0.742188
vt 0.023438 0.742188
vt 0.023438 0.742188
vt 0.023438 0.742188
vt 0.023438 0.742188
vt 0.023438 0.742188
vt 0.023438 0.742188
vt 0.132812 0.773438
vt 0.132812 0.773438
vt 0.132812 0.773438
vt 0.132812 0.773438
vt 0.132812 0.773438
vt 0.132812 0.773438
vt 0.132812 0.773438
vt 0.132812 0.773438
vt 0.023438 0.742188
vt 0.023438 0.742188
vt 0.023438 0.742188
vt 0.023438 0.742188
vt 0.023438 0.742188
vt 0.023438 0.742188
vt 0.023438 0.742188
vt 0.023438 0.742188
vt 0.023438 0.742188
vt 0.023438 0.742188
vt 0.023438 0.742188
vt 0.023438 0.742188
vt 0.023438 0.742188
vt 0.023438 0.742188
vt 0.023438 0.742188
vt 0.023438 0.742188
vt 0.023438 0.742188
vt 0.023438 0.742188
vt 0.023438 0.742188
vt 0.023438 0.742188
vt 0.023438 0.742188
vt 0.023438 0.742188
vt 0.023438 0.742188
vt 0.023438 0.742188
vt 0.023438 0.742188
vt 0.023438 0.742188
vt 0.023438 0.742188
vt 0.023438 0.742188
vt 0.023438 0.742188
vt 0.023438 0.742188
vt 0.023438 0.742188
vt 0.023438 0.742188
vt 0.023438 0.742188
vt 0.023438 0.742188
vt 0.023438 0.742188
vt 0.023438 0.742188
vt 0.023438 0.742188
vt 0.023438 0.742188
vt 0.023438 0.742188
vt 0.023438 0.742188
vt 0.023438 0.742188
vt 0.023438 0.742188
vt 0.023438 0.742188
vt 0.023438 0.742188
vt 0.023438 0.742188
vt 0.023438 0.742188
vt 0.023438 0.742188
vt 0.023438 0.742188
vt 0.023438 0.742188
vt 0.023438 0.742188
vt 0.023438 0.742188
vt 0.023438 0.742188
vt 0.023438 0.742188
vt 0.023438 0.742188
vt 0.023438 0.742188
vt 0.023438 0.742188
vt 0.023438 0.742188
vt 0.023438 0.742188
vt 0.023438 0.742188
vt 0.023438 0.742188
vt 0.023438 0.742188
vt 0.023438 0.742188
vt 0.023438 0.742188
vt 0.023438 0.742188
vt 0.023438 0.742188
vt 0.023438 0.742188
vt 0.023438 0.742188
vt 0.023438 0.742188
vt 0.023438 0.742188
vt 0.023438 0.742188
vt 0.023438 0.742188
vt 0.023438 0.742188
vt 0.023438 0.742188
vn -1.0000 0.0000 0.0000
vn 0.0000 0.0000 -1.0000
vn 1.0000 0.0000 -0.0000
vn 0.0000 -0.0000 1.0000
vn 0.0000 -1.0000 0.0000
vn 0.0000 1.0000 -0.0000
vn 0.0000 -0.9248 -0.3806
vn 0.0000 -0.9990 0.0438
vn 0.0000 -0.7732 0.6342
vn 0.0000 -0.4608 0.8875
vn 0.0000 0.7235 0.6904
vn 0.0000 0.6563 0.7545
vn 0.0000 0.1172 0.9931
vn 0.0000 -0.7150 0.6991
vn 0.0000 -0.9942 0.1078
vn 0.0000 -0.9491 -0.3148
vn 0.0000 -0.8820 -0.4713
vn 0.0000 0.7511 0.6602
vn 0.0000 0.8824 0.4705
vn 0.0000 0.9994 -0.0355
vn 0.0000 0.7452 -0.6668
vn 0.0000 0.4266 -0.9045
vn 0.0000 -0.6899 -0.7239
vn 0.0000 -0.6531 -0.7572
vn 0.0000 -0.6147 -0.7887
vn 0.0000 0.3927 -0.9197
vn 0.0000 0.7369 -0.6760
vn 0.0000 0.9967 -0.0817
vn 0.0000 0.9548 0.2973
vn 0.0000 0.9004 0.4351
vn 0.0000 -0.8330 -0.5533
vn 0.0000 0.9414 -0.3372
vn -0.0000 0.8943 -0.4475
vn 0.0000 0.9971 0.0763
vn 0.0000 0.6758 0.7371
vn 0.0000 0.1525 0.9883
vn 0.0000 -0.1451 -0.9894
vn 0.0000 -0.6550 -0.7556
vn 0.0000 -0.9964 -0.0844
vn 0.0000 -0.8812 0.4728
vn 0.0000 -0.4126 0.9109
vn 0.0000 -0.7124 0.7018
vn -0.0000 -1.0000 -0.0089
vn -0.0000 -0.7059 -0.7084
vn -0.0000 0.0121 -0.9999
vn -0.0000 0.7153 -0.6988
vn 0.0000 1.0000 -0.0093
vn 0.0000 0.7213 0.6926
vn 0.0000 0.0110 0.9999
vn 0.0000 0.6874 0.7262
vn 0.0000 0.9999 0.0161
vn 0.0000 0.7015 -0.7126
vn 0.0000 -0.0182 -0.9998
vn 0.0000 -0.7117 -0.7025
vn 0.0000 -1.0000 0.0089
vn 0.0000 -0.7003 0.7139
vn 0.0000 -0.0145 0.9999
vn 0.0000 0.9886 0.1503
vn 0.0000 0.7295 0.6839
vn 0.0000 -0.0016 1.0000
vn 0.0000 -0.7054 0.7088
vn 0.0000 -0.9913 0.1319
vn 0.0000 -0.9776 -0.2105
vn 0.0000 -0.9509 -0.3094
vn 0.0000 0.9733 0.2297
vn 0.0000 0.9905 -0.1373
vn 0.0000 0.6934 -0.7205
vn 0.0000 0.0157 -0.9999
vn 0.0000 -0.7023 -0.7119
vn 0.0000 -0.9856 -0.1689
vn 0.0000 0.9417 0.3365
s off
f 1/1/1 2/2/1 3/3/1
f 2/2/1 4/4/1 3/3/1
f 2/2/1 5/5/1 4/4/1
f 2/2/1 6/6/1 5/5/1
f 6/6/1 7/7/1 5/5/1
f 7/7/1 8/8/1 5/5/1
f 1/1/1 9/9/1 2/2/1
f 10/10/1 8/8/1 7/7/1
f 11/11/1 8/8/1 10/10/1
f 11/11/1 12/12/1 8/8/1
f 13/13/1 12/12/1 11/11/1
f 1/1/1 14/14/1 9/9/1
f 14/14/1 15/15/1 9/9/1
f 14/14/1 13/13/1 15/15/1
f 14/14/1 12/12/1 13/13/1
f 14/14/1 16/16/1 12/12/1
f 1/1/1 17/17/1 14/14/1
f 18/18/1 16/16/1 14/14/1
f 19/19/1 20/20/1 21/21/1
f 19/19/1 22/22/1 20/20/1
f 22/22/1 23/23/1 20/20/1
f 23/23/1 24/24/1 20/20/1
f 25/25/1 26/26/1 19/19/1
f 26/26/1 22/22/1 19/19/1
f 25/25/1 27/27/1 26/26/1
f 28/28/1 24/24/1 23/23/1
f 29/29/1 27/27/1 25/25/1
f 29/29/1 30/30/1 27/27/1
f 28/28/1 31/31/1 24/24/1
f 32/32/1 31/31/1 28/28/1
f 29/29/1 33/33/1 30/30/1
f 33/33/1 31/31/1 32/32/1
f 29/29/1 31/31/1 33/33/1
f 34/34/1 31/31/1 29/29/1
f 35/35/1 36/36/1 37/37/1
f 35/35/1 38/38/1 36/36/1
f 39/39/1 40/40/1 41/41/1
f 42/42/1 40/40/1 39/39/1
f 42/42/1 43/43/1 40/40/1
f 43/43/1 44/44/1 40/40/1
f 44/44/1 45/45/1 40/40/1
f 35/35/1 42/42/1 38/38/1
f 35/35/1 46/46/1 42/42/1
f 46/46/1 47/47/1 42/42/1
f 47/47/1 43/43/1 42/42/1
f 48/48/1 45/45/1 44/44/1
f 35/35/1 49/49/1 46/46/1
f 50/50/1 45/45/1 48/48/1
f 50/50/1 51/51/1 45/45/1
f 52/52/1 53/53/1 54/54/1
f 52/52/1 55/55/1 53/53/1
f 52/52/1 56/56/1 55/55/1
f 56/56/1 57/57/1 55/55/1
f 58/58/1 59/59/1 52/52/1
f 59/59/1 60/60/1 52/52/1
f 60/60/1 56/56/1 52/52/1
f 58/58/1 61/61/1 59/59/1
f 58/58/1 62/62/1 61/61/1
f 63/63/1 62/62/1 58/58/1
f 63/63/1 64/64/1 62/62/1
f 65/65/1 64/64/1 63/63/1
f 66/66/1 67/67/1 68/68/1
f 65/65/1 69/69/1 64/64/1
f 70/70/1 69/69/1 65/65/1
f 71/71/1 69/69/1 70/70/1
f 66/66/1 71/71/1 67/67/1
f 66/66/1 69/69/1 71/71/1
f 72/72/1 69/69/1 66/66/1
f 72/72/1 73/73/1 69/69/1
f 74/74/2 75/75/2 76/76/2 77/77/2
f 77/77/3 76/76/3 78/78/3 79/79/3
f 79/79/4 78/78/4 80/80/4 81/81/4
f 81/81/1 80/80/1 75/75/1 74/74/1
f 77/77/5 79/79/5 81/81/5 74/74/5
f 78/78/6 76/76/6 75/75/6 80/80/6
s 1
f 56/56/7 60/60/8 82/82/8 83/83/7
f 60/60/8 59/59/9 84/84/9 82/82/8
f 59/59/9 61/61/10 85/85/10 84/84/9
f 61/61/11 62/62/12 86/86/12 85/85/11
f 62/62/12 64/64/13 87/87/13 86/86/12
f 64/64/13 69/69/14 88/88/14 87/87/13
f 69/69/14 73/73/15 89/89/15 88/88/14
f 73/73/15 72/72/16 90/90/16 89/89/15
f 72/72/16 66/66/17 91/91/17 90/90/16
f 66/66/2 68/68/2 92/92/2 91/91/2
f 68/68/18 67/67/19 93/93/19 92/92/18
f 67/67/19 71/71/20 94/94/20 93/93/19
f 71/71/20 70/70/21 95/95/21 94/94/20
f 70/70/21 65/65/22 96/96/22 95/95/21
f 65/65/23 63/63/24 97/97/24 96/96/23
f 63/63/24 58/58/25 98/98/25 97/97/24
f 58/58/26 52/52/27 99/99/27 98/98/26
f 52/52/27 54/54/28 100/100/28 99/99/27
f 54/54/28 53/53/29 101/101/29 100/100/28
f 53/53/29 55/55/30 102/102/30 101/101/29
f 55/55/4 57/57/4 103/103/4 102/102/4
f 57/57/31 56/56/7 83/83/7 103/103/31
f 42/42/32 39/39/33 104/104/33 105/105/32
f 39/39/33 41/41/34 106/106/34 104/104/33
f 41/41/34 40/40/35 107/107/35 106/106/34
f 40/40/35 45/45/36 108/108/36 107/107/35
f 45/45/36 51/51/4 109/109/4 108/108/36
f 51/51/5 50/50/5 110/110/5 109/109/5
f 50/50/2 48/48/37 111/111/37 110/110/2
f 48/48/37 44/44/38 112/112/38 111/111/37
f 44/44/38 43/43/39 113/113/39 112/112/38
f 43/43/39 47/47/40 114/114/40 113/113/39
f 47/47/40 46/46/41 115/115/41 114/114/40
f 46/46/41 49/49/4 116/116/4 115/115/41
f 49/49/5 35/35/5 117/117/5 116/116/5
f 35/35/2 37/37/2 118/118/2 117/117/2
f 37/37/6 36/36/6 119/119/6 118/118/6
f 36/36/4 38/38/4 120/120/4 119/119/4
f 38/38/6 42/42/32 105/105/32 120/120/6
f 31/31/42 34/34/43 121/121/43 122/122/42
f 34/34/43 29/29/44 123/123/44 121/121/43
f 29/29/44 25/25/45 124/124/45 123/123/44
f 25/25/45 19/19/46 125/125/46 124/124/45
f 19/19/46 21/21/47 126/126/47 125/125/46
f 21/21/47 20/20/48 127/127/48 126/126/47
f 20/20/48 24/24/49 128/128/49 127/127/48
f 24/24/49 31/31/42 122/122/42 128/128/49
f 30/30/50 33/33/51 129/129/51 130/130/50
f 33/33/51 32/32/52 131/131/52 129/129/51
f 32/32/52 28/28/53 132/132/53 131/131/52
f 28/28/53 23/23/54 133/133/54 132/132/53
f 23/23/54 22/22/55 134/134/55 133/133/54
f 22/22/55 26/26/56 135/135/56 134/134/55
f 26/26/56 27/27/57 136/136/57 135/135/56
f 27/27/57 30/30/50 130/130/50 136/136/57
f 1/1/2 3/3/2 137/137/2 138/138/2
f 3/3/6 4/4/58 139/139/58 137/137/6
f 4/4/58 5/5/59 140/140/59 139/139/58
f 5/5/59 8/8/60 141/141/60 140/140/59
f 8/8/60 12/12/61 142/142/61 141/141/60
f 12/12/61 16/16/62 143/143/62 142/142/61
f 16/16/62 18/18/63 144/144/63 143/143/62
f 18/18/63 14/14/64 145/145/64 144/144/63
f 14/14/4 17/17/4 146/146/4 145/145/4
f 17/17/5 1/1/5 138/138/5 146/146/5
f 15/15/65 13/13/66 147/147/66 148/148/65
f 13/13/66 11/11/67 149/149/67 147/147/66
f 11/11/67 10/10/68 150/150/68 149/149/67
f 10/10/68 7/7/69 151/151/69 150/150/68
f 7/7/69 6/6/70 152/152/70 151/151/69
f 6/6/70 2/2/5 153/153/5 152/152/70
f 2/2/4 9/9/4 154/154/4 153/153/4
f 9/9/71 15/15/65 148/148/65 154/154/71
