# Blender v2.90.0 Alpha OBJ File: 'Decos.blend'
# www.blender.org
o Cube.001_Cube.002
v 0.035687 -1.806313 -1.653762
v 0.035687 1.806313 -1.653763
v 0.035687 1.806313 1.958863
v 0.035687 -1.806313 1.958864
v 0.035687 2.554513 0.152550
v 0.035687 -2.554513 0.152551
v 0.035687 -0.000000 -2.401962
v 0.035687 0.000000 2.707063
v 0.035687 -0.000000 0.152551
v 0.035687 -2.086934 -1.934383
v 0.035687 2.086934 -1.934384
v 0.035687 2.086934 2.239484
v 0.035687 -2.086934 2.239485
v 0.035687 2.951370 0.152550
v 0.035687 -2.951370 0.152551
v 0.035687 -0.000000 -2.798820
v 0.035687 0.000000 3.103921
v 0.010528 -1.590211 -1.437660
v 0.010528 1.590211 -1.437660
v 0.010528 1.590211 1.742761
v 0.010528 -1.590211 1.742761
v 0.010528 2.248898 0.152550
v 0.010528 -2.248898 0.152551
v 0.010528 -0.000000 -2.096348
v 0.010528 0.000000 2.401448
v 0.010528 -1.700896 -1.548345
v 0.010528 1.700896 -1.548346
v 0.010528 1.700896 1.853446
v 0.010528 -1.700896 1.853446
v 0.010528 2.405430 0.152550
v 0.010528 -2.405430 0.152551
v 0.010528 -0.000000 -2.252880
v 0.010528 0.000000 2.557981
vt 0.148438 0.773438
vt 0.148438 0.773438
vt 0.148438 0.773438
vt 0.148438 0.773438
vt 0.148438 0.773438
vt 0.148438 0.773438
vt 0.148438 0.773438
vt 0.148438 0.773438
vt 0.148438 0.773438
vt 0.039062 0.742188
vt 0.039062 0.742188
vt 0.039062 0.742188
vt 0.039062 0.742188
vt 0.039062 0.742188
vt 0.039062 0.742188
vt 0.039062 0.742188
vt 0.039062 0.742188
vt 0.039062 0.742188
vt 0.039062 0.742188
vt 0.039062 0.742188
vt 0.039062 0.742188
vt 0.039062 0.742188
vt 0.039062 0.742188
vt 0.039062 0.742188
vt 0.039062 0.742188
vt 0.039062 0.742188
vt 0.039062 0.742188
vt 0.039062 0.742188
vt 0.039062 0.742188
vt 0.039062 0.742188
vt 0.039062 0.742188
vt 0.039062 0.742188
vt 0.039062 0.742188
vt 0.039062 0.742188
vt 0.039062 0.742188
vt 0.039062 0.742188
vt 0.039062 0.742188
vt 0.039062 0.742188
vt 0.039062 0.742188
vt 0.039062 0.742188
vt 0.039062 0.742188
vn -1.0000 -0.0048 0.0000
vn -1.0000 -0.0048 -0.0008
vn -1.0000 -0.0028 0.0039
vn -1.0000 0.0008 0.0048
vn -1.0000 -0.0008 -0.0048
vn -1.0000 -0.0028 -0.0039
vn -1.0000 0.0028 -0.0040
vn -1.0000 0.0048 0.0008
vn -1.0000 0.0028 0.0040
vn -1.0000 0.0048 0.0005
vn -1.0000 0.0031 0.0037
vn -1.0000 0.0031 -0.0037
vn -1.0000 -0.0031 -0.0038
vn -1.0000 -0.0005 -0.0048
vn -1.0000 0.0005 0.0049
vn -1.0000 -0.0031 0.0038
vn -1.0000 -0.0049 -0.0005
s 1
f 9/1/1 6/2/2 4/3/3 8/4/4
f 7/5/5 1/6/6 6/2/2 9/1/1
f 2/7/7 7/5/5 9/1/1 5/8/8
f 5/8/8 9/1/1 8/4/4 3/9/9
f 6/10/10 1/11/11 10/12/6 15/13/2
f 4/14/12 6/10/10 15/13/2 13/15/3
f 3/16/13 8/17/14 17/18/4 12/19/9
f 7/20/15 2/21/16 11/22/7 16/23/5
f 2/21/16 5/24/17 14/25/8 11/22/7
f 8/17/14 4/14/12 13/15/3 17/18/4
f 5/24/17 3/16/13 12/19/9 14/25/8
f 1/11/11 7/20/15 16/23/5 10/12/6
f 23/26/10 18/27/11 26/28/6 31/29/2
f 21/30/12 23/26/10 31/29/2 29/31/3
f 20/32/13 25/33/14 33/34/4 28/35/9
f 24/36/15 19/37/16 27/38/7 32/39/5
f 19/37/16 22/40/17 30/41/8 27/38/7
f 25/33/14 21/30/12 29/31/3 33/34/4
f 22/40/17 20/32/13 28/35/9 30/41/8
f 18/27/11 24/36/15 32/39/5 26/28/6
