# Blender v2.90.0 Alpha OBJ File: 'Decos.blend'
# www.blender.org
o Cube.001_Cube.002
v 0.041630 1.093335 -3.080214
v 0.041630 1.201975 -2.512938
v 0.250760 1.201975 -2.512938
v 0.250760 1.093335 -3.080214
v 0.250760 1.093336 3.385314
v 0.250760 1.201975 2.818039
v 0.041630 1.201975 2.818039
v 0.041630 1.093336 3.385314
v 0.041630 1.155018 2.713909
v 0.041630 1.050625 3.259023
v 0.250760 -1.457782 2.577124
v 0.250760 -1.201975 2.818040
v 0.041630 -1.201975 2.818040
v 0.041630 -1.457782 2.577124
v 0.250760 1.457782 -2.272022
v 0.041630 1.457782 -2.272022
v 0.041630 -1.400832 2.482405
v 0.041630 -1.155017 2.713910
v 0.068906 -1.121310 2.639157
v 0.068906 -1.359949 2.414409
v 0.041630 -1.093337 -3.080213
v 0.041630 -1.201975 -2.512938
v 0.041630 -1.155018 -2.408808
v 0.041630 -1.050624 -2.953922
v 0.041630 1.155017 -2.408808
v 0.041630 1.400832 -2.177304
v 0.068906 -1.019962 -2.863260
v 0.068906 -1.121310 -2.334055
v 0.039262 -1.134853 -2.364090
v 0.039262 -1.032282 -2.899687
v 0.068906 1.121310 -2.334055
v 0.068906 1.359949 -2.109308
v 0.068906 1.121310 2.639156
v 0.068906 1.019962 3.168361
v 0.039262 1.134853 -2.364090
v 0.039262 1.376375 -2.136627
v 0.039262 1.134853 2.669191
v 0.039262 1.032283 3.204788
v 0.039262 -1.134853 2.669192
v 0.039262 -1.376375 2.441729
v 0.034747 0.124113 2.614032
v 0.034747 0.639033 2.614032
v 0.034747 0.639033 -0.832171
v 0.034747 0.124113 -0.832171
v 0.034747 -0.606315 2.606472
v 0.034747 -0.093654 2.606472
v 0.034747 -0.093654 -0.824610
v 0.034747 -0.606315 -0.824611
v 0.039262 1.032281 -2.899686
v 0.068906 1.019961 -2.863259
v 0.041630 1.050624 -2.953921
v 0.039262 1.376375 2.441728
v 0.041630 -1.400832 -2.177303
v 0.068906 -1.359949 -2.109307
v 0.041630 -1.457782 -2.272022
v 0.039262 -1.376375 -2.136627
v 0.068906 1.359949 2.414408
v 0.250760 -1.457782 -2.272022
v 0.041630 -1.050623 3.259022
v 0.068906 -1.019961 3.168360
v 0.250760 -1.093336 3.385315
v 0.041630 -1.093336 3.385315
v 0.250760 -1.093337 -3.080213
v 0.041630 1.400833 2.482404
v 0.041630 1.457782 2.577123
v 0.250760 1.457782 2.577123
v 0.039262 -1.032280 3.204787
v 0.250760 -1.201975 -2.512938
v 0.034747 0.728096 -2.396511
v 0.034747 -0.611290 -2.396510
v 0.034747 -0.500364 -2.293554
v 0.034747 0.617170 -2.293554
v 0.034747 0.728096 -1.153351
v 0.034747 0.617170 -1.256307
v 0.034747 -0.611290 -1.153350
v 0.034747 -0.500364 -1.256306
v 0.034747 -1.005516 2.470482
v 0.034747 -0.892389 2.470482
v 0.034747 -0.892389 -1.941008
v 0.034747 -1.005516 -1.941008
v 0.034747 0.828112 0.412670
v 0.034747 0.998476 0.412670
v 0.034747 0.998476 -0.209907
v 0.034747 0.828112 -0.209907
vt 0.210938 0.898438
vt 0.210938 0.898438
vt 0.210938 0.898438
vt 0.210938 0.898438
vt 0.210938 0.898438
vt 0.210938 0.898438
vt 0.210938 0.898438
vt 0.210938 0.898438
vt 0.039062 0.742188
vt 0.039062 0.742188
vt 0.039062 0.742188
vt 0.039062 0.742188
vt 0.210938 0.898438
vt 0.210938 0.898438
vt 0.210938 0.898438
vt 0.210938 0.898438
vt 0.210938 0.898438
vt 0.210938 0.898438
vt 0.210938 0.898438
vt 0.210938 0.898438
vt 0.210938 0.898438
vt 0.210938 0.898437
vt 0.039062 0.742188
vt 0.039062 0.742188
vt 0.039062 0.742188
vt 0.039062 0.742188
vt 0.039062 0.742187
vt 0.039062 0.742188
vt 0.039062 0.742188
vt 0.039062 0.742187
vt 0.039062 0.742187
vt 0.039062 0.742188
vt 0.039062 0.742188
vt 0.039062 0.742187
vt 0.210937 0.898437
vt 0.210938 0.898438
vt 0.210938 0.898438
vt 0.210938 0.898438
vt 0.210938 0.898438
vt 0.210938 0.898438
vt 0.210938 0.898437
vt 0.210938 0.898438
vt 0.210938 0.898438
vt 0.210938 0.898438
vt 0.210938 0.898438
vt 0.210938 0.898438
vt 0.210938 0.898438
vt 0.210938 0.898437
vt 0.210938 0.898438
vt 0.210937 0.898438
vt 0.210938 0.898438
vt 0.210938 0.898438
vt 0.210938 0.898438
vt 0.210938 0.898438
vt 0.164062 0.898438
vt 0.164062 0.898438
vt 0.164062 0.898438
vt 0.164062 0.898438
vt 0.164062 0.898438
vt 0.164062 0.898438
vt 0.164062 0.898438
vt 0.164062 0.898438
vt 0.148438 0.773438
vt 0.148438 0.773438
vt 0.148438 0.773438
vt 0.148438 0.773438
vt 0.210938 0.898437
vt 0.210938 0.898438
vt 0.039062 0.742188
vt 0.039062 0.742188
vt 0.148438 0.773438
vt 0.148438 0.773438
vt 0.148438 0.773438
vt 0.210938 0.898437
vt 0.210938 0.898438
vt 0.039062 0.742187
vt 0.039062 0.742187
vt 0.210937 0.898438
vt 0.210938 0.898438
vt 0.210938 0.898438
vt 0.210938 0.898438
vt 0.210938 0.898438
vt 0.210938 0.898438
vt 0.210937 0.898437
vt 0.210938 0.898438
vt 0.210938 0.898438
vt 0.210938 0.898438
vt 0.210938 0.898438
vt 0.210938 0.898438
vt 0.148438 0.773438
vt 0.148438 0.773438
vt 0.148438 0.773438
vt 0.210938 0.898438
vt 0.039062 0.742187
vt 0.039062 0.742187
vt 0.210938 0.898438
vt 0.210938 0.898438
vt 0.210938 0.898438
vt 0.039062 0.742188
vt 0.039062 0.742188
vt 0.210938 0.898438
vt 0.210938 0.898438
vt 0.148438 0.773438
vt 0.148438 0.773438
vt 0.164062 0.898438
vt 0.164062 0.898438
vt 0.164062 0.898438
vt 0.164062 0.898438
vt 0.164062 0.898438
vt 0.164062 0.898438
vt 0.164062 0.898438
vt 0.164062 0.898438
vt 0.164062 0.898438
vt 0.164062 0.898438
vt 0.164062 0.898438
vt 0.164062 0.898438
vt 0.164062 0.898438
vt 0.164062 0.898438
vt 0.164062 0.898438
vt 0.164062 0.898438
vn 0.0000 0.9822 -0.1881
vn 0.0000 0.8765 -0.4814
vn 0.0000 0.9822 0.1881
vn 0.0000 0.8765 0.4814
vn -1.0000 -0.0000 0.0000
vn -0.9648 -0.2474 -0.0886
vn -0.9967 -0.0456 -0.0667
vn 0.0000 -0.9180 0.3965
vn 0.0000 -0.8765 0.4814
vn 0.0000 0.9180 -0.3965
vn -0.9903 0.1209 -0.0690
vn -0.9648 0.2474 -0.0886
vn -0.9316 0.3006 -0.2044
vn -0.8894 0.4488 -0.0869
vn -0.9648 0.2474 0.0886
vn -0.9967 0.0456 0.0667
vn -0.9648 -0.2474 0.0886
vn -0.9903 -0.1209 0.0690
vn 0.7361 -0.5312 -0.4194
vn 0.6836 -0.6110 -0.3992
vn 0.6288 -0.7188 -0.2965
vn 0.7796 -0.3592 -0.5130
vn -0.9316 0.3006 0.2044
vn -0.9382 0.2938 0.1829
vn -0.9316 -0.3006 0.2044
vn -0.8894 -0.4488 0.0869
vn -0.9316 -0.3006 -0.2044
vn -0.9382 -0.2938 -0.1829
vn 0.6124 0.7633 -0.2056
vn 0.6836 0.6110 -0.3992
vn 0.6288 0.7188 -0.2965
vn 0.6797 0.6447 -0.3499
vn 0.7361 0.5312 0.4194
vn 0.6836 0.6110 0.3992
vn 0.6288 0.7188 0.2965
vn 0.7796 0.3592 0.5130
vn 0.6124 -0.7633 0.2056
vn 0.6836 -0.6110 0.3992
vn 0.6288 -0.7188 0.2965
vn 0.6797 -0.6447 0.3499
vn 0.7361 0.5312 -0.4194
vn 0.7796 0.3592 -0.5130
vn -0.9967 -0.0456 0.0667
vn -0.9903 0.1209 0.0690
vn -0.8894 0.4488 0.0869
vn 0.6124 -0.7633 -0.2056
vn 0.6797 -0.6447 -0.3499
vn 0.6124 0.7633 0.2056
vn 0.6797 0.6447 0.3499
vn 0.0000 -0.9180 -0.3965
vn -0.9967 0.0456 -0.0667
vn -0.9382 0.2938 -0.1829
vn -0.9382 -0.2938 0.1829
vn 0.0000 0.0000 1.0000
vn 0.0000 -0.0000 -1.0000
vn -0.9903 -0.1209 -0.0690
vn -0.8894 -0.4488 -0.0869
vn 0.0000 0.9180 0.3965
vn 0.7361 -0.5312 0.4194
vn 0.7796 -0.3592 0.5130
vn 0.0000 -0.9822 0.1881
vn 0.0000 -0.8765 -0.4814
vn 0.0000 -0.9822 -0.1881
s 1
f 1/1/1 2/2/2 3/3/2 4/4/1
f 5/5/3 6/6/4 7/7/4 8/8/3
f 8/9/5 7/10/5 9/11/6 10/12/7
f 11/13/8 12/14/9 13/15/9 14/16/8
f 15/17/10 3/3/2 2/2/2 16/18/10
f 17/19/11 18/20/12 19/21/13 20/22/14
f 21/23/5 22/24/5 23/25/15 24/26/16
f 14/27/5 13/28/5 18/29/12 17/30/11
f 16/31/5 2/32/5 25/33/17 26/34/18
f 27/35/19 28/36/20 29/37/21 30/38/22
f 24/39/16 23/40/15 28/36/23 27/35/24
f 26/41/18 25/42/17 31/43/25 32/44/26
f 10/45/7 9/46/6 33/47/27 34/48/28
f 32/44/29 31/43/30 35/49/31 36/50/32
f 34/48/33 33/47/34 37/51/35 38/52/36
f 20/22/37 19/21/38 39/53/39 40/54/40
f 41/55/5 42/56/5 43/57/5 44/58/5
f 45/59/5 46/60/5 47/61/5 48/62/5
f 29/63/5 35/64/5 49/65/5 30/66/5
f 50/67/41 27/35/19 30/38/22 49/68/42
f 1/69/5 21/23/5 24/26/16 51/70/43
f 52/71/5 36/72/5 35/64/5 37/73/5
f 53/74/44 17/19/11 20/22/14 54/75/45
f 55/76/5 14/27/5 17/30/11 53/77/44
f 54/75/46 20/22/37 40/54/40 56/78/47
f 57/79/48 32/44/29 36/50/32 52/80/49
f 11/13/8 14/16/8 55/81/50 58/82/50
f 59/83/51 10/45/7 34/48/28 60/84/52
f 51/85/43 24/39/16 27/35/24 50/67/53
f 61/86/54 5/5/54 8/8/54 62/87/54
f 21/88/55 1/1/55 4/4/55 63/89/55
f 35/64/5 29/63/5 39/90/5 37/73/5
f 39/90/5 29/63/5 56/91/5 40/92/5
f 33/47/34 57/79/48 52/80/49 37/51/35
f 9/46/6 64/93/56 57/79/57 33/47/27
f 7/10/5 65/94/5 64/95/56 9/11/6
f 6/6/4 66/96/58 65/97/58 7/7/4
f 25/42/17 51/85/43 50/67/53 31/43/25
f 31/43/30 50/67/41 49/68/42 35/49/31
f 2/32/5 1/69/5 51/70/43 25/33/17
f 19/21/38 60/84/59 67/98/60 39/53/39
f 18/20/12 59/83/51 60/84/52 19/21/13
f 13/28/5 62/99/5 59/100/51 18/29/12
f 12/14/9 61/86/61 62/87/61 13/15/9
f 22/101/62 21/88/63 63/89/63 68/102/62
f 62/99/5 8/9/5 10/12/7 59/100/51
f 60/84/59 34/48/33 38/52/36 67/98/60
f 64/93/56 26/41/18 32/44/26 57/79/57
f 28/36/20 54/75/46 56/78/47 29/37/21
f 22/24/5 55/76/5 53/77/44 23/25/15
f 23/40/15 53/74/44 54/75/45 28/36/23
f 68/102/62 58/82/50 55/81/50 22/101/62
f 37/73/5 39/90/5 67/103/5 38/104/5
f 65/94/5 16/31/5 26/34/18 64/95/56
f 15/17/10 16/18/10 65/97/58 66/96/58
f 69/105/5 70/106/5 71/107/5 72/108/5
f 73/109/5 69/105/5 72/108/5 74/110/5
f 75/111/5 73/109/5 74/110/5 76/112/5
f 70/106/5 75/111/5 76/112/5 71/107/5
f 77/113/5 78/114/5 79/115/5 80/116/5
f 81/117/5 82/118/5 83/119/5 84/120/5
