# Blender v2.90.0 Alpha OBJ File: 'Decos.blend'
# www.blender.org
o Cube.001_Cube
v 0.104565 -1.457782 3.232764
v 0.104565 1.457782 3.232764
v -0.104565 -1.457782 3.232764
v -0.104565 1.457782 3.232764
v 0.104565 -1.457782 -3.232764
v 0.104565 1.457782 -3.232764
v -0.104565 -1.457782 -3.232764
v -0.104565 1.457782 -3.232764
v 0.104565 -1.400832 3.106472
v 0.104565 1.400832 3.106472
v 0.104565 1.400832 -3.106472
v 0.104565 -1.400832 -3.106472
v 0.077289 -1.359949 3.015810
v 0.077289 1.359949 3.015810
v 0.077289 1.359949 -3.015810
v 0.077289 -1.359949 -3.015810
v 0.106933 -1.376375 3.052237
v 0.106933 1.376375 3.052237
v 0.106933 1.376375 -3.052237
v 0.106933 -1.376375 -3.052237
v 0.114924 -0.033912 -2.969504
v 0.114924 -0.059850 -2.923337
v 0.114924 -0.076284 -2.876972
v 0.114924 -0.082026 -2.829618
v 0.114924 -0.068463 -2.763453
v 0.114924 -0.028170 -2.718474
v 0.114924 0.038259 -2.695077
v 0.114924 0.038259 -2.976632
v 0.114924 0.161051 -2.955149
v 0.114924 0.234146 -2.895056
v 0.114924 0.258335 -2.802887
v 0.114924 0.232595 -2.705273
v 0.114924 0.161711 -2.639736
v 0.114924 0.055188 -2.615778
v 0.114924 -0.049125 -2.638416
v 0.114924 -0.127104 -2.704218
v 0.114924 -0.157761 -2.810015
v 0.114924 -0.152646 -2.870768
v 0.114924 -0.137037 -2.921819
v 0.114924 -0.110538 -2.969504
v 0.114924 0.090828 -2.696859
v 0.114924 0.144585 -2.716098
v 0.114924 0.178145 -2.752167
v 0.114924 0.189728 -2.804670
v 0.114924 0.177551 -2.853278
v 0.114924 0.143397 -2.885255
v 0.114924 0.090828 -2.898224
v 0.114924 0.250316 -2.287891
v 0.114924 -0.149742 -2.287891
v 0.114924 -0.149742 -2.367190
v 0.114924 0.059643 -2.367190
v 0.114924 0.122013 -2.380291
v 0.114924 0.165968 -2.414974
v 0.114924 0.182600 -2.464309
v 0.114924 0.177584 -2.486451
v 0.114924 0.163856 -2.512554
v 0.114924 0.143397 -2.538261
v 0.114924 0.212003 -2.580138
v 0.114924 0.237875 -2.547898
v 0.114924 0.253253 -2.516448
v 0.114924 0.258335 -2.484802
v 0.114924 0.248105 -2.447049
v 0.114924 0.215699 -2.408506
v 0.114924 0.158543 -2.368972
v 0.114924 0.158543 -2.367190
v 0.114924 0.250316 -2.367190
v 0.114924 0.258335 -1.977824
v 0.114924 0.230978 -1.870013
v 0.114924 0.158279 -1.794873
v 0.114924 0.054297 -1.766658
v 0.114924 -0.055329 -1.794080
v 0.114924 -0.130107 -1.868429
v 0.114924 -0.157761 -1.977824
v 0.114924 -0.130899 -2.090980
v 0.114924 -0.056913 -2.166715
v 0.114924 0.054297 -2.194336
v 0.114924 0.159863 -2.166121
v 0.114924 0.231770 -2.089792
v 0.114924 0.187055 -1.976933
v 0.114924 0.169631 -2.047519
v 0.114924 0.122508 -2.095535
v 0.114924 0.053406 -2.113256
v 0.114924 -0.021273 -2.096525
v 0.114924 -0.069420 -2.049500
v 0.114924 -0.086481 -1.976933
v 0.114924 -0.068793 -1.909382
v 0.114924 -0.019821 -1.864206
v 0.114924 0.054297 -1.847738
v 0.114924 0.122772 -1.864601
v 0.114924 0.169664 -1.910175
v 0.114924 0.333179 -1.586676
v 0.114924 0.187946 -1.437879
v 0.114924 0.179036 -1.437879
v 0.114924 0.179036 -1.507377
v 0.114924 -0.032130 -1.507377
v 0.114924 -0.096777 -1.521897
v 0.114924 -0.141228 -1.565325
v 0.114924 -0.157761 -1.637463
v 0.114924 -0.154197 -1.667757
v 0.114924 -0.144693 -1.702209
v 0.114924 -0.131031 -1.733691
v 0.114924 -0.057078 -1.733691
v 0.114924 -0.073413 -1.702440
v 0.114924 -0.083214 -1.672575
v 0.114924 -0.086481 -1.643700
v 0.114924 -0.081267 -1.618620
v 0.114924 -0.062589 -1.596312
v 0.114924 -0.025893 -1.586676
v 0.114924 0.179036 -1.586676
v 0.114924 0.179036 -1.713197
v 0.114924 0.250316 -1.713197
v 0.114924 0.250316 -1.586676
v 0.114924 0.257628 -1.111982
v 0.114924 0.276381 -1.077395
v 0.114924 0.287632 -1.041557
v 0.114924 0.291383 -1.005094
v 0.114924 0.275547 -0.928286
v 0.114924 0.231271 -0.877733
v 0.114924 0.163397 -0.859528
v 0.114924 0.064270 -0.913311
v 0.114924 -0.000947 -1.013193
v 0.114924 -0.078509 -1.066976
v 0.114924 -0.106065 -1.058616
v 0.114924 -0.129245 -1.032910
v 0.114924 -0.138986 -0.988919
v 0.114924 -0.130938 -0.942976
v 0.114924 -0.107419 -0.900314
v 0.114924 -0.069367 -0.862341
v 0.114924 -0.156566 -0.862341
v 0.114924 -0.181491 -0.903414
v 0.114924 -0.196103 -0.947612
v 0.114924 -0.200869 -0.996655
v 0.114924 -0.183861 -1.065856
v 0.114924 -0.137944 -1.113337
v 0.114924 -0.070774 -1.130969
v 0.114924 0.039657 -1.077186
v 0.114924 0.102426 -0.977303
v 0.114924 0.172539 -0.923520
v 0.114924 0.202309 -0.933365
v 0.114924 0.222233 -0.960088
v 0.114924 0.229500 -0.999468
v 0.114924 0.225150 -1.033951
v 0.114924 0.209705 -1.071873
v 0.114924 0.179571 -1.111982
v 0.114924 0.250316 -0.490749
v 0.114924 -0.149742 -0.490749
v 0.114924 -0.149742 -0.570048
v 0.114924 0.059643 -0.570048
v 0.114924 0.122013 -0.583149
v 0.114924 0.165968 -0.617832
v 0.114924 0.182600 -0.667166
v 0.114924 0.177584 -0.689309
v 0.114924 0.163856 -0.715412
v 0.114924 0.143397 -0.741119
v 0.114924 0.212003 -0.782996
v 0.114924 0.237875 -0.750755
v 0.114924 0.253253 -0.719306
v 0.114924 0.258335 -0.687660
v 0.114924 0.248105 -0.649908
v 0.114924 0.215699 -0.611364
v 0.114924 0.158543 -0.571830
v 0.114924 0.158543 -0.570048
v 0.114924 0.250316 -0.570048
v 0.114924 -0.033912 -0.392739
v 0.114924 -0.059850 -0.346572
v 0.114924 -0.076284 -0.300208
v 0.114924 -0.082026 -0.252853
v 0.114924 -0.068463 -0.186688
v 0.114924 -0.028170 -0.141709
v 0.114924 0.038259 -0.118312
v 0.114924 0.038259 -0.399867
v 0.114924 0.161051 -0.378384
v 0.114924 0.234146 -0.318291
v 0.114924 0.258335 -0.226123
v 0.114924 0.232595 -0.128509
v 0.114924 0.161711 -0.062971
v 0.114924 0.055188 -0.039013
v 0.114924 -0.049125 -0.061651
v 0.114924 -0.127104 -0.127453
v 0.114924 -0.157761 -0.233251
v 0.114924 -0.152646 -0.294003
v 0.114924 -0.137037 -0.345054
v 0.114924 -0.110538 -0.392739
v 0.114924 0.090828 -0.120094
v 0.114924 0.144585 -0.139333
v 0.114924 0.178145 -0.175402
v 0.114924 0.189728 -0.227905
v 0.114924 0.177551 -0.276514
v 0.114924 0.143397 -0.308491
v 0.114924 0.090828 -0.321460
v 0.114924 0.333179 0.145423
v 0.114924 0.187946 0.294220
v 0.114924 0.179036 0.294220
v 0.114924 0.179036 0.224722
v 0.114924 -0.032130 0.224722
v 0.114924 -0.096777 0.210202
v 0.114924 -0.141228 0.166774
v 0.114924 -0.157761 0.094636
v 0.114924 -0.154197 0.064342
v 0.114924 -0.144693 0.029890
v 0.114924 -0.131031 -0.001591
v 0.114924 -0.057078 -0.001591
v 0.114924 -0.073413 0.029659
v 0.114924 -0.083214 0.059524
v 0.114924 -0.086481 0.088399
v 0.114924 -0.081267 0.113479
v 0.114924 -0.062589 0.135787
v 0.114924 -0.025893 0.145423
v 0.114924 0.179036 0.145423
v 0.114924 0.179036 0.018902
v 0.114924 0.250316 0.018902
v 0.114924 0.250316 0.145423
v 0.114924 -0.149742 0.350353
v 0.114924 0.250316 0.350353
v 0.114924 0.250316 0.429651
v 0.114924 -0.035694 0.429651
v 0.114924 -0.066483 0.457932
v 0.114924 -0.085392 0.490173
v 0.114924 -0.091827 0.524988
v 0.114924 -0.081432 0.570396
v 0.114924 -0.051435 0.597786
v 0.114924 -0.003618 0.606960
v 0.114924 0.250316 0.606960
v 0.114924 0.250316 0.686259
v 0.114924 0.001728 0.686259
v 0.114924 -0.084765 0.668472
v 0.114924 -0.138984 0.619995
v 0.114924 -0.157761 0.548154
v 0.114924 -0.150435 0.507333
v 0.114924 -0.130041 0.466314
v 0.114924 -0.098955 0.429651
v 0.114924 -0.149742 0.429651
v 0.114924 -0.139941 1.055131
v 0.114924 -0.150105 1.026620
v 0.114924 -0.155913 1.000484
v 0.114924 -0.157761 0.974941
v 0.114924 -0.131361 0.869606
v 0.114924 -0.059421 0.798128
v 0.114924 0.047169 0.771794
v 0.114924 0.158444 0.797765
v 0.114924 0.226952 0.873830
v 0.114924 0.250316 0.997217
v 0.114924 0.250316 1.134430
v 0.114924 -0.354671 1.134430
v 0.114924 -0.354671 1.055131
v 0.114924 0.179036 1.055131
v 0.114924 0.179036 0.982961
v 0.114924 0.163493 0.910823
v 0.114924 0.118845 0.867395
v 0.114924 0.048060 0.852875
v 0.114924 -0.021273 0.869474
v 0.114924 -0.068826 0.914387
v 0.114924 -0.086481 0.980288
v 0.114924 -0.084435 1.005434
v 0.114924 -0.078429 1.030580
v 0.114924 -0.068661 1.055131
v 0.114924 0.250316 1.819607
v 0.114924 -0.149742 1.819607
v 0.114924 -0.149742 1.740309
v 0.114924 0.140724 1.740309
v 0.114924 0.170918 1.708695
v 0.114924 0.186857 1.676883
v 0.114924 0.191510 1.640517
v 0.114924 0.181940 1.604382
v 0.114924 0.151778 1.578345
v 0.114924 0.098847 1.568346
v 0.114924 -0.149742 1.568346
v 0.114924 -0.149742 1.489047
v 0.114924 0.140724 1.489047
v 0.114924 0.167156 1.459017
v 0.114924 0.185273 1.428195
v 0.114924 0.191510 1.399948
v 0.114924 0.180719 1.358269
v 0.114924 0.149139 1.328470
v 0.114924 0.097956 1.317085
v 0.114924 -0.149742 1.317085
v 0.114924 -0.149742 1.237786
v 0.114924 0.101520 1.237786
v 0.114924 0.184151 1.254187
v 0.114924 0.238667 1.300090
v 0.114924 0.258335 1.370545
v 0.114924 0.248336 1.422816
v 0.114924 0.222299 1.466772
v 0.114924 0.186164 1.504194
v 0.114924 0.225863 1.535742
v 0.114924 0.250118 1.576002
v 0.114924 0.258335 1.623588
v 0.114924 0.251735 1.661373
v 0.114924 0.231671 1.700148
v 0.114924 0.197747 1.740309
v 0.114924 0.250316 1.740309
v 0.114924 0.258335 2.120764
v 0.114924 0.230978 2.228575
v 0.114924 0.158279 2.303716
v 0.114924 0.054297 2.331931
v 0.114924 -0.055329 2.304508
v 0.114924 -0.130107 2.230159
v 0.114924 -0.157761 2.120764
v 0.114924 -0.130899 2.007608
v 0.114924 -0.056913 1.931873
v 0.114924 0.054297 1.904252
v 0.114924 0.159863 1.932467
v 0.114924 0.231770 2.008796
v 0.114924 0.187055 2.121655
v 0.114924 0.169631 2.051069
v 0.114924 0.122508 2.003054
v 0.114924 0.053406 1.985333
v 0.114924 -0.021273 2.002064
v 0.114924 -0.069420 2.049088
v 0.114924 -0.086481 2.121655
v 0.114924 -0.068793 2.189206
v 0.114924 -0.019821 2.234383
v 0.114924 0.054297 2.250850
v 0.114924 0.122772 2.233987
v 0.114924 0.169664 2.188414
v 0.114925 0.498356 2.146914
v 0.114925 0.543804 2.270259
v 0.114925 0.569910 2.379335
v 0.114925 0.578260 2.480801
v 0.114925 0.511039 2.756768
v 0.114925 0.329668 2.944902
v 0.114925 0.064588 3.014449
v 0.114925 -0.151872 2.959488
v 0.114924 -0.340113 2.787841
v 0.114924 -0.420546 2.489362
v 0.114924 -0.409448 2.351379
v 0.114924 -0.379325 2.236860
v 0.114925 -0.334934 2.136926
v 0.114925 -0.182259 2.136926
v 0.114925 -0.242452 2.249384
v 0.114925 -0.279498 2.364063
v 0.114925 -0.292128 2.476521
v 0.114925 -0.244830 2.682624
v 0.114925 -0.115408 2.820237
v 0.114925 0.077430 2.870335
v 0.114925 0.269106 2.819180
v 0.114925 0.400853 2.681778
v 0.114925 0.449842 2.482228
v 0.114925 0.439114 2.371831
v 0.114925 0.405874 2.262068
v 0.114925 0.348535 2.146914
v 0.116635 0.425955 -2.315284
v 0.116635 0.366080 -2.316784
v 0.116635 0.318955 -2.321284
v 0.116635 0.146955 -2.346284
v 0.116635 0.098955 -2.356159
v 0.116635 0.083955 -2.371284
v 0.116635 0.098955 -2.386409
v 0.116635 0.146955 -2.396284
v 0.116635 0.318955 -2.421284
v 0.116635 0.366080 -2.425784
v 0.116635 0.425955 -2.427284
v 0.116635 0.537080 -2.413534
v 0.116635 0.573955 -2.371284
v 0.116635 0.537080 -2.329034
v 0.116635 -0.006045 -2.372284
v 0.116635 -0.023670 -2.329909
v 0.116635 -0.066045 -2.312284
v 0.116635 -0.108420 -2.329909
v 0.116635 -0.126045 -2.372284
v 0.116635 -0.108420 -2.414660
v 0.116635 -0.066045 -2.432284
v 0.116635 -0.023670 -2.414660
v 0.116635 0.303955 -2.175284
v 0.116635 0.331830 -2.107409
v 0.116635 0.340955 -2.043284
v 0.116635 0.308455 -1.935534
v 0.116635 0.218955 -1.895284
v 0.116635 0.088830 -2.000284
v 0.116635 0.002955 -2.105284
v 0.116635 -0.033795 -2.085784
v 0.116635 -0.048045 -2.039284
v 0.116635 -0.033545 -1.974034
v 0.116635 0.010955 -1.892284
v 0.116635 -0.085045 -1.892284
v 0.116635 -0.116795 -1.971409
v 0.116635 -0.126045 -2.048284
v 0.116635 -0.089670 -2.154159
v 0.116635 0.005955 -2.196284
v 0.116635 0.067830 -2.173534
v 0.116635 0.131955 -2.095284
v 0.116635 0.186705 -2.011159
v 0.116635 0.221955 -1.986284
v 0.116635 0.251455 -2.002284
v 0.116635 0.262955 -2.045284
v 0.116635 0.251830 -2.103909
v 0.116635 0.215955 -2.175284
v 0.116635 0.331955 -1.524284
v 0.116635 -0.117045 -1.524284
v 0.116635 -0.117045 -1.613284
v 0.116635 0.117955 -1.613284
v 0.116635 0.215830 -1.644909
v 0.116635 0.255955 -1.722284
v 0.116635 0.243705 -1.761534
v 0.116635 0.211955 -1.805284
v 0.116635 0.288955 -1.852284
v 0.116635 0.328080 -1.798409
v 0.116635 0.340955 -1.745284
v 0.116635 0.314580 -1.681409
v 0.116635 0.228955 -1.615284
v 0.116635 0.228955 -1.613284
v 0.116635 0.331955 -1.613284
v 0.116635 0.012955 -1.414284
v 0.116635 -0.026795 -1.336534
v 0.116635 -0.041045 -1.257284
v 0.116635 -0.006920 -1.154784
v 0.116635 0.093955 -1.106284
v 0.116635 0.093955 -1.422284
v 0.116635 0.279705 -1.369409
v 0.116635 0.340955 -1.227284
v 0.116635 0.277955 -1.075784
v 0.116635 0.112955 -1.017284
v 0.116635 -0.053045 -1.073784
v 0.116635 -0.126045 -1.235284
v 0.116635 -0.113045 -1.333034
v 0.116635 -0.073045 -1.414284
v 0.116635 0.152955 -1.108284
v 0.116635 0.235080 -1.147784
v 0.116635 0.263955 -1.229284
v 0.116635 0.233955 -1.304284
v 0.116635 0.152955 -1.334284
v 0.116635 0.424955 -0.810284
v 0.116635 0.261955 -0.643284
v 0.116635 0.251955 -0.643284
v 0.116635 0.251955 -0.721284
v 0.116635 0.014955 -0.721284
v 0.116635 -0.085920 -0.757909
v 0.116635 -0.126045 -0.867284
v 0.116635 -0.117420 -0.920534
v 0.116635 -0.096045 -0.975284
v 0.116635 -0.013045 -0.975284
v 0.116635 -0.037795 -0.923284
v 0.116635 -0.046045 -0.874284
v 0.116635 -0.031920 -0.832534
v 0.116635 0.021955 -0.810284
v 0.116635 0.251955 -0.810284
v 0.116635 0.251955 -0.952284
v 0.116635 0.331955 -0.952284
v 0.116635 0.331955 -0.810284
v 0.116635 -0.117045 -0.580284
v 0.116635 0.331955 -0.580284
v 0.116635 0.331955 -0.491284
v 0.116635 0.010955 -0.491284
v 0.116635 -0.035920 -0.441909
v 0.116635 -0.052045 -0.384284
v 0.116635 -0.026170 -0.315409
v 0.116635 0.046955 -0.292284
v 0.116635 0.331955 -0.292284
v 0.116635 0.331955 -0.203284
v 0.116635 0.052955 -0.203284
v 0.116635 -0.079295 -0.246659
v 0.116635 -0.126045 -0.358284
v 0.116635 -0.108045 -0.427409
v 0.116635 -0.060045 -0.491284
v 0.116635 -0.117045 -0.491284
v 0.116635 -0.106045 0.210716
v 0.116635 -0.121295 0.163841
v 0.116635 -0.126045 0.120716
v 0.116635 -0.061670 -0.043159
v 0.116635 0.103955 -0.107284
v 0.116635 0.273455 -0.042284
v 0.116635 0.331955 0.145716
v 0.116635 0.331955 0.299716
v 0.116635 -0.347045 0.299716
v 0.116635 -0.347045 0.210716
v 0.116635 0.251955 0.210716
v 0.116635 0.251955 0.129716
v 0.116635 0.213330 0.020341
v 0.116635 0.104955 -0.016284
v 0.116635 -0.003170 0.024091
v 0.116635 -0.046045 0.126716
v 0.116635 -0.040920 0.169091
v 0.116635 -0.026045 0.210716
v 0.116635 0.331955 1.068716
v 0.116635 -0.117045 1.068716
v 0.116635 -0.117045 0.979716
v 0.116635 0.208955 0.979716
v 0.116635 0.253580 0.926716
v 0.116635 0.265955 0.867716
v 0.116635 0.241330 0.810716
v 0.116635 0.161955 0.786716
v 0.116635 -0.117045 0.786716
v 0.116635 -0.117045 0.697716
v 0.116635 0.208955 0.697716
v 0.116635 0.250205 0.646591
v 0.116635 0.265955 0.597716
v 0.116635 0.238955 0.532091
v 0.116635 0.160955 0.504716
v 0.116635 -0.117045 0.504716
v 0.116635 -0.117045 0.415716
v 0.116635 0.164955 0.415716
v 0.116635 0.292705 0.456091
v 0.116635 0.340955 0.564716
v 0.116635 0.316955 0.649091
v 0.116635 0.259955 0.714716
v 0.116635 0.320330 0.771591
v 0.116635 0.340955 0.848716
v 0.116635 0.324205 0.912716
v 0.116635 0.272955 0.979716
v 0.116635 0.331955 0.979716
v 0.116635 0.340955 1.406716
v 0.116635 0.274830 1.575466
v 0.116635 0.111955 1.643716
v 0.116635 -0.058795 1.576966
v 0.116635 -0.126045 1.406716
v 0.116635 -0.060295 1.231216
v 0.116635 0.111955 1.163716
v 0.116635 0.276330 1.232341
v 0.116635 0.260955 1.407716
v 0.116635 0.218580 1.297841
v 0.116635 0.110955 1.254716
v 0.116635 -0.003920 1.295966
v 0.116635 -0.046045 1.407716
v 0.116635 -0.002670 1.512466
v 0.116635 0.111955 1.552716
v 0.116635 0.218705 1.511716
v 0.116635 0.517955 1.731716
v 0.116635 0.560580 1.857341
v 0.116635 0.573955 1.965716
v 0.116635 0.471955 2.234091
v 0.116635 0.213955 2.339716
v 0.116635 -0.009670 2.251716
v 0.116635 -0.126045 1.971716
v 0.116635 -0.109170 1.833216
v 0.116635 -0.066045 1.724716
v 0.116635 0.040955 1.724716
v 0.116635 -0.016295 1.843716
v 0.116635 -0.036045 1.962716
v 0.116635 0.036080 2.162216
v 0.116635 0.222955 2.238716
v 0.116635 0.409705 2.161216
v 0.116635 0.483955 1.966716
v 0.116635 0.466830 1.851091
v 0.116635 0.412955 1.731716
v 0.107200 0.101346 2.319216
v 0.107200 0.794405 2.319216
v 0.107200 0.794405 -2.319216
v 0.107200 0.101346 -2.319216
v 0.107200 -0.735591 2.319216
v 0.107200 -0.042532 2.319216
v 0.107200 -0.042532 -2.319216
v 0.107200 -0.735591 -2.319216
vt 0.210938 0.898438
vt 0.210938 0.898438
vt 0.210938 0.898438
vt 0.210938 0.898438
vt 0.210938 0.898438
vt 0.210938 0.898438
vt 0.210938 0.898438
vt 0.210938 0.898438
vt 0.085938 0.742188
vt 0.085938 0.742188
vt 0.085938 0.742188
vt 0.085938 0.742188
vt 0.210938 0.898438
vt 0.210938 0.898438
vt 0.210938 0.898438
vt 0.210938 0.898438
vt 0.085938 0.742188
vt 0.085938 0.742188
vt 0.085938 0.742188
vt 0.085938 0.742188
vt 0.210938 0.898438
vt 0.210938 0.898438
vt 0.210938 0.898438
vt 0.210938 0.898438
vt 0.210938 0.898438
vt 0.210938 0.898438
vt 0.148438 0.773438
vt 0.148438 0.773438
vt 0.148438 0.773438
vt 0.148438 0.773438
vt 0.210938 0.898438
vt 0.210938 0.898438
vt 0.085938 0.742188
vt 0.085938 0.742188
vt 0.085938 0.742188
vt 0.085938 0.742188
vt 0.085938 0.742188
vt 0.085938 0.742188
vt 0.085938 0.742188
vt 0.085938 0.742188
vn 0.0000 0.0000 1.0000
vn -1.0000 0.0000 0.0000
vn 0.0000 0.0000 -1.0000
vn 1.0000 0.0000 -0.0000
vn 0.9976 -0.0441 0.0536
vn 0.9976 0.0441 0.0536
vn 0.0000 -1.0000 -0.0000
vn 0.0000 1.0000 -0.0000
vn 0.9976 0.0441 -0.0536
vn 0.9334 0.3346 0.1299
vn 0.9334 0.3346 -0.1299
vn 0.9976 -0.0441 -0.0536
vn -0.7756 0.0000 0.6312
vn 0.9334 -0.3346 -0.1299
vn 0.9334 -0.3346 0.1299
vn -0.4847 0.8747 0.0000
vn -0.7756 0.0000 -0.6312
vn -0.4847 -0.8747 0.0000
s 1
f 1/1/1 2/2/1 4/3/1 3/4/1
f 3/4/2 4/3/2 8/5/2 7/6/2
f 7/6/3 8/5/3 6/7/3 5/8/3
f 5/9/4 6/10/4 11/11/5 12/12/6
f 3/4/7 7/6/7 5/8/7 1/1/7
f 8/5/8 4/3/8 2/2/8 6/7/8
f 9/13/9 12/14/6 16/15/10 13/16/11
f 2/17/4 1/18/4 9/19/9 10/20/12
f 1/18/4 5/9/4 12/12/6 9/19/9
f 6/10/4 2/17/4 10/20/12 11/11/5
f 14/21/13 13/16/13 17/22/13 18/23/13
f 10/24/12 9/13/9 13/16/11 14/21/14
f 11/25/5 10/24/12 14/21/14 15/26/15
f 12/14/6 11/25/5 15/26/15 16/15/10
f 20/27/4 19/28/4 18/29/4 17/30/4
f 15/26/16 14/21/16 18/23/16 19/31/16
f 16/15/17 15/26/17 19/31/17 20/32/17
f 13/16/18 16/15/18 20/32/18 17/22/18
f 538/33/4 537/34/4 536/35/4 535/36/4
f 542/37/4 541/38/4 540/39/4 539/40/4
