# Blender v2.91.0 Beta OBJ File: 'HOUSE.blend'
# www.blender.org
o tree.002_tree.009_tree.002_tree.002_tree.002_tree.009_tree.002_tree.011
v 0.000000 0.015854 9.982568
v 6.532582 0.015856 9.982568
v -6.532582 0.015856 9.982568
v 0.000000 0.015854 13.240620
v 6.532582 0.015856 13.240620
v -6.532582 0.015856 13.240620
v -6.953725 3.750626 13.731825
v 0.000000 4.364510 10.010419
v -6.953725 4.364511 10.010419
v 6.953725 3.750626 13.731825
v 0.000000 3.750624 13.731825
v 6.953725 4.364511 10.010419
v 0.000000 5.728734 3.544159
v -7.777107 4.476178 9.999946
v 0.000000 5.728734 9.999946
v 6.532582 -0.729395 10.076737
v 6.916139 0.015854 10.076737
v 6.532582 0.015854 10.076737
v -7.777106 4.476178 3.544159
v -7.738249 4.235522 -2.984654
v -7.738249 4.235519 3.544159
v 6.532582 4.364515 -2.978274
v 6.916139 0.015858 -2.978273
v 6.532582 0.015858 -2.978273
v -6.532582 4.364515 -2.978274
v -6.916139 0.015858 -2.978273
v -6.916139 4.364515 -2.978274
v 7.777106 4.476178 3.544159
v 7.777107 4.476178 9.999946
v 7.777106 4.476181 -2.984654
v 7.738249 4.235519 3.544159
v 7.738249 4.235522 -2.984654
v -7.738250 4.235520 9.999946
v 0.000000 5.484962 -2.984654
v -7.777106 4.476181 -2.984654
v 0.000000 5.728736 -2.984654
v 0.000000 5.484961 9.999946
v 0.000000 6.875707 10.012459
v -6.411158 4.364511 10.012458
v -6.411158 6.875709 10.012459
v -6.532582 -0.729395 10.076737
v 0.000000 0.015852 10.076737
v -6.532582 0.015854 10.076737
v 0.000000 8.035437 10.012459
v 6.929409 0.015858 -2.988425
v 6.929406 4.364511 3.544159
v 6.929408 0.015855 3.544157
v 6.532582 4.364511 10.076742
v 0.000000 6.875707 10.076743
v 0.000000 4.364510 10.076742
v 0.000000 8.035437 10.076743
v 6.532582 6.875709 10.076743
v 6.532582 8.035439 10.076743
v 7.738250 4.235520 9.999946
v -6.411158 6.875709 10.076743
v -6.916139 0.015854 3.541732
v -6.916139 -0.729395 10.074313
v -6.916139 0.015854 10.074313
v -6.929407 0.015854 10.076737
v -6.929406 4.364511 3.544159
v -6.929408 0.015855 3.544157
v -6.532582 -0.729391 -2.978273
v -6.532582 0.015858 -2.978273
v -6.411158 8.035439 10.076743
v 6.532582 4.364511 10.012458
v 6.532582 6.875709 10.012459
v 6.532582 8.035439 10.012459
v 6.532582 -0.729391 -2.978273
v 6.916139 -0.729391 -2.978273
v 1.583835 3.762699 13.157519
v 1.967391 -0.585957 13.157515
v 1.967391 3.762699 13.157519
v -1.583835 3.762699 13.157519
v -1.967391 -0.585957 13.157515
v -1.583835 -0.585958 13.157515
v -6.147281 3.762699 13.157519
v -6.530838 -0.585957 13.157515
v -6.147281 -0.585958 13.157515
v 6.916139 4.364511 10.076742
v -6.916139 -0.729391 -2.990851
v -6.916139 -0.729395 3.541732
v -6.532582 4.364511 10.076742
v -6.916139 0.015854 10.076737
v 6.916139 -0.729395 10.074313
v 6.916139 0.015854 3.541732
v 6.916139 0.015854 10.074313
v 0.000000 -0.729397 10.076737
v 0.000000 0.015856 -2.978273
v 6.916139 -0.729391 -2.990851
v 6.916139 0.015858 -2.990851
v 0.000000 -0.729393 -2.978273
v 0.000000 4.364513 -2.978274
v 0.000000 5.483356 -2.988423
v 6.929406 4.364514 -2.988423
v -6.929406 4.364514 -2.988423
v -6.929409 0.015858 -2.988425
v 6.147281 3.762699 13.157519
v 6.530838 -0.585957 13.157515
v 6.530838 3.762699 13.157519
v 6.929407 0.015854 10.076737
v 6.929407 4.364511 10.076742
v 0.000000 0.015852 9.982568
v -6.532582 -0.729395 9.982568
v -6.532582 0.015854 9.982568
v 6.532582 0.015854 9.982568
v 0.000000 -0.729397 9.982568
v -6.532582 0.015854 13.240620
v 0.000000 -0.729397 13.240620
v 0.000000 0.015852 13.240620
v 6.532582 0.015854 13.240620
v 6.532582 -0.729395 13.240620
v 6.532582 -0.729395 9.982568
v 6.916139 -0.729395 10.076737
v 6.916139 4.364515 -2.978274
v 0.000000 4.364510 10.012458
v -6.411158 8.035439 10.012459
v -6.411158 4.364511 10.076742
v -6.929407 4.364511 10.076742
v -6.916139 -0.729391 -2.978273
v 1.583835 -0.585958 13.157515
v -1.967391 3.762699 13.157519
v -6.530838 3.762699 13.157519
v -6.916139 0.015858 -2.990851
v -6.916139 4.364511 10.076742
v 6.916139 -0.729395 3.541732
v -6.916139 -0.729395 10.076737
v 6.147281 -0.585958 13.157515
v -6.532582 -0.729395 13.240620
vt 0.073017 0.803223
vt 0.216309 0.874512
vt 0.073017 0.874512
vt 0.073017 0.803223
vt 0.216309 0.803223
vt 0.073017 0.874512
vt 0.241699 0.023926
vt 0.204590 0.045410
vt 0.204590 0.023926
vt 0.204590 0.045410
vt 0.204590 0.023926
vt 0.127441 0.807129
vt 0.237793 0.928223
vt 0.237793 0.807129
vt 0.244629 0.018066
vt 0.249512 0.018066
vt 0.244629 0.018066
vt 0.127441 0.928223
vt 0.016113 0.928223
vt 0.127441 0.928223
vt 0.503418 0.073730
vt 0.508301 0.018066
vt 0.503418 0.018066
vt 0.503418 0.073730
vt 0.508301 0.018066
vt 0.508301 0.073730
vt 0.127441 0.928223
vt 0.237793 0.928223
vt 0.016113 0.928223
vt 0.127441 0.928223
vt 0.016113 0.928223
vt 0.237793 0.928223
vt 0.016113 0.807129
vt 0.016113 0.928223
vt 0.016113 0.807129
vt 0.237793 0.807129
vt 0.124512 0.105542
vt 0.042484 0.073520
vt 0.042484 0.105542
vt 0.131348 0.001465
vt 0.215332 0.017090
vt 0.131348 0.017090
vt 0.124512 0.120331
vt 0.458496 0.018066
vt 0.374512 0.073730
vt 0.374512 0.018066
vt 0.208751 0.073520
vt 0.124512 0.105542
vt 0.124512 0.073520
vt 0.124512 0.120331
vt 0.208751 0.105542
vt 0.208751 0.120331
vt 0.237793 0.928223
vt 0.042484 0.105542
vt 0.215332 0.017090
vt 0.131348 0.001465
vt 0.131348 0.017090
vt 0.290527 0.018066
vt 0.374512 0.073730
vt 0.374512 0.018066
vt 0.503418 0.018066
vt 0.503418 0.018066
vt 0.042484 0.120331
vt 0.208751 0.073520
vt 0.208751 0.105542
vt 0.208751 0.120331
vt 0.208751 0.018066
vt 0.503418 0.018066
vt 0.508301 0.018066
vt 0.244629 0.073730
vt 0.249512 0.018066
vt 0.249512 0.073730
vt 0.244629 0.073730
vt 0.249512 0.018066
vt 0.244629 0.018066
vt 0.244629 0.073730
vt 0.249512 0.018066
vt 0.244629 0.018066
vt 0.244629 0.073730
vt 0.249512 0.073730
vt 0.131348 0.001465
vt 0.215332 0.001465
vt 0.244629 0.073730
vt 0.249512 0.018066
vt 0.244629 0.018066
vt 0.208751 0.018066
vt 0.124512 0.018066
vt 0.131348 0.001465
vt 0.215332 0.017090
vt 0.131348 0.017090
vt 0.215332 0.001465
vt 0.131348 0.017090
vt 0.244629 0.018066
vt 0.390137 0.001465
vt 0.474121 0.017090
vt 0.390137 0.017090
vt 0.131348 0.001465
vt 0.131348 0.017090
vt 0.390137 0.001465
vt 0.474121 0.001465
vt 0.377441 0.073730
vt 0.461426 0.018066
vt 0.461426 0.073730
vt 0.355957 0.073730
vt 0.355957 0.073730
vt 0.355957 0.073730
vt 0.458496 0.018066
vt 0.244629 0.073730
vt 0.249512 0.018066
vt 0.249512 0.073730
vt 0.376465 0.073730
vt 0.292480 0.018066
vt 0.376465 0.018066
vt 0.290527 0.018066
vt 0.290527 0.073730
vt 0.215332 0.017090
vt 0.131348 0.001465
vt 0.131348 0.017090
vt 0.131348 0.017090
vt 0.215332 0.001465
vt 0.131348 0.017090
vt 0.215332 0.001465
vt 0.215332 0.017090
vt 0.131348 0.017090
vt 0.173340 0.001465
vt 0.173340 0.017090
vt 0.171387 0.017090
vt 0.131348 0.001465
vt 0.171387 0.001465
vt 0.249512 0.018066
vt 0.508301 0.073730
vt 0.124512 0.073520
vt 0.042484 0.120331
vt 0.458496 0.073730
vt 0.042484 0.073520
vt 0.290527 0.073730
vt 0.508301 0.018066
vt 0.244629 0.018066
vt 0.249512 0.073730
vt 0.249512 0.073730
vt 0.131348 0.017090
vt 0.249512 0.073730
vt 0.208751 0.073520
vt 0.215332 0.001465
vt 0.131348 0.001465
vt 0.249512 0.018066
vt 0.390137 0.017090
vt 0.377441 0.018066
vt 0.458496 0.073730
vt 0.244629 0.018066
vt 0.292480 0.073730
vt 0.131348 0.001465
vt 0.131348 0.001465
vt 0.241699 0.045410
vn 0.0000 0.9867 0.1628
vn -0.0000 1.0000 0.0000
vn -0.1590 0.9873 0.0000
vn -0.0000 0.0000 1.0000
vn -0.9872 -0.1594 -0.0000
vn 0.0000 -0.0000 -1.0000
vn 0.1590 0.9873 0.0000
vn 0.9872 -0.1594 -0.0000
vn 1.0000 0.0000 0.0000
vn -1.0000 0.0000 0.0000
vn -0.7071 0.0000 -0.7071
vn 0.7071 0.0000 -0.7071
vn -0.7071 0.0000 0.7071
vn 0.7071 0.0000 0.7071
s off
f 7/1/1 8/2/1 9/3/1
f 10/4/1 8/2/1 11/5/1
f 7/1/1 11/5/1 8/2/1
f 10/4/1 12/6/1 8/2/1
s 1
f 1/7/2 5/8/2 2/9/2
f 6/10/2 1/7/2 3/11/2
f 13/12/3 14/13/3 15/14/3
f 16/15/4 17/16/4 18/17/4
f 19/18/5 20/19/5 21/20/5
f 22/21/6 23/22/6 24/23/6
f 25/24/6 26/25/6 27/26/6
f 28/27/7 15/14/7 29/28/7
f 30/29/8 31/30/8 32/31/8
f 14/13/5 21/20/5 33/32/5
f 34/33/6 30/29/6 32/31/6
f 34/33/6 35/34/6 36/35/6
f 37/36/4 14/13/4 33/32/4
f 38/37/6 39/38/6 40/39/6
f 41/40/4 42/41/4 43/42/4
f 40/39/6 44/43/6 38/37/6
f 45/44/9 46/45/9 47/46/9
f 48/47/4 49/48/4 50/49/4
f 51/50/4 52/51/4 53/52/4
f 28/27/8 54/53/8 31/30/8
f 55/54/4 50/49/4 49/48/4
f 56/55/10 57/56/10 58/57/10
f 59/58/10 60/59/10 61/60/10
f 62/61/6 26/25/6 63/62/6
f 55/54/4 51/50/4 64/63/4
f 30/29/7 13/12/7 28/27/7
f 65/64/6 38/37/6 66/65/6
f 66/65/6 44/43/6 67/66/6
f 50/49/4 18/67/4 48/47/4
f 68/68/6 23/22/6 69/69/6
f 70/70/4 71/71/4 72/72/4
f 73/73/4 74/74/4 75/75/4
f 76/76/4 77/77/4 78/78/4
f 37/36/4 29/28/4 15/14/4
f 48/79/4 17/16/4 79/80/4
f 56/55/10 80/81/10 81/82/10
f 82/83/4 83/84/4 43/85/4
f 50/49/4 43/86/4 42/87/4
f 84/88/9 85/89/9 86/90/9
f 87/91/4 18/92/4 42/41/4
f 83/84/4 41/93/4 43/85/4
f 13/12/3 35/34/3 19/18/3
f 68/94/6 88/95/6 24/96/6
f 85/89/9 89/97/9 90/98/9
f 62/99/6 88/95/6 91/100/6
f 92/101/6 63/102/6 25/103/6
f 93/104/6 94/105/6 95/106/6
f 60/59/10 96/107/10 61/60/10
f 97/108/4 98/109/4 99/110/4
f 92/111/6 24/112/6 88/113/6
f 100/114/9 46/45/9 101/115/9
f 102/116/6 103/117/11 104/118/11
f 105/119/12 106/120/6 102/116/6
f 107/121/13 108/122/4 109/123/4
f 108/122/4 110/124/14 109/123/4
f 103/125/11 107/121/13 104/126/11
f 105/127/12 111/128/14 112/129/12
f 13/12/3 19/18/3 14/13/3
f 16/15/4 113/130/4 17/16/4
f 19/18/5 35/34/5 20/19/5
f 22/21/6 114/131/6 23/22/6
f 25/24/6 63/62/6 26/25/6
f 28/27/7 13/12/7 15/14/7
f 30/29/8 28/27/8 31/30/8
f 14/13/5 19/18/5 21/20/5
f 34/33/6 36/35/6 30/29/6
f 34/33/6 20/19/6 35/34/6
f 37/36/4 15/14/4 14/13/4
f 38/37/6 115/132/6 39/38/6
f 41/40/4 87/91/4 42/41/4
f 40/39/6 116/133/6 44/43/6
f 45/44/9 94/134/9 46/45/9
f 48/47/4 52/51/4 49/48/4
f 51/50/4 49/48/4 52/51/4
f 28/27/8 29/28/8 54/53/8
f 55/54/4 117/135/4 50/49/4
f 56/55/10 81/82/10 57/56/10
f 59/58/10 118/136/10 60/59/10
f 62/61/6 119/137/6 26/25/6
f 55/54/4 49/48/4 51/50/4
f 30/29/7 36/35/7 13/12/7
f 65/64/6 115/132/6 38/37/6
f 66/65/6 38/37/6 44/43/6
f 50/49/4 42/87/4 18/67/4
f 68/68/6 24/23/6 23/22/6
f 70/70/4 120/138/4 71/71/4
f 73/73/4 121/139/4 74/74/4
f 76/76/4 122/140/4 77/77/4
f 37/36/4 54/53/4 29/28/4
f 48/79/4 18/17/4 17/16/4
f 56/55/10 123/141/10 80/81/10
f 82/83/4 124/142/4 83/84/4
f 50/49/4 82/143/4 43/86/4
f 84/88/9 125/144/9 85/89/9
f 87/91/4 16/145/4 18/92/4
f 83/84/4 126/146/4 41/93/4
f 13/12/3 36/35/3 35/34/3
f 68/94/6 91/100/6 88/95/6
f 85/89/9 125/144/9 89/97/9
f 62/99/6 63/147/6 88/95/6
f 92/101/6 88/148/6 63/102/6
f 60/59/10 95/149/10 96/107/10
f 97/108/4 127/150/4 98/109/4
f 92/111/6 22/151/6 24/112/6
f 100/114/9 47/46/9 46/45/9
f 102/116/6 106/120/6 103/117/11
f 105/119/12 112/152/12 106/120/6
f 107/121/13 128/153/13 108/122/4
f 108/122/4 111/128/14 110/124/14
f 103/125/11 128/153/13 107/121/13
f 105/127/12 110/124/14 111/128/14
f 1/7/2 4/154/2 5/8/2
f 6/10/2 4/154/2 1/7/2
