# Blender v2.82 (sub 7) OBJ File: ''
# www.blender.org
mtllib retail-sign-green.mtl
o Cube.005
v -0.200000 2.250000 -2.000000
v -0.200000 1.312500 -3.000000
v -0.200000 1.312500 -1.000000
v -0.200000 0.000000 -3.000000
v -0.200000 -0.000000 3.000000
v -0.200000 1.312500 3.000000
v -0.200000 2.250000 -2.000000
v 0.200000 2.250000 -2.000000
v 0.200000 1.312500 -3.000000
v -0.200000 1.312500 -3.000000
v -0.200000 0.000000 -3.000000
v 0.200000 0.000000 -3.000000
v 0.200000 0.000000 0.000000
v 0.200000 1.312500 0.000000
v 0.200000 1.312500 3.000000
v 0.200000 -0.000000 3.000000
v -0.200000 1.312500 3.000000
v -0.200000 -0.000000 3.000000
v 0.200000 0.000000 -2.250000
v 0.200000 1.312500 -1.000000
v 0.200000 0.000000 -1.500000
v -0.200000 1.312500 0.000000
v -0.200000 1.312500 -1.000000
vt 0.054688 0.742188
vt 0.054688 0.742188
vt 0.054688 0.742188
vt 0.054688 0.742188
vt 0.054688 0.742188
vt 0.054688 0.742188
vt 0.140625 0.921875
vt 0.140625 0.921875
vt 0.140625 0.921875
vt 0.140625 0.921875
vt 0.140625 0.921875
vt 0.140625 0.921875
vt 0.140625 0.921875
vt 0.140625 0.921875
vt 0.140625 0.921875
vt 0.140625 0.921875
vt 0.140625 0.921875
vt 0.140625 0.921875
vt 0.140625 0.921875
vt 0.140625 0.921875
vt 0.140625 0.921875
vt 0.140625 0.921875
vt 0.140625 0.921875
vn -1.0000 -0.0000 0.0000
vn 0.0000 0.7295 -0.6839
vn 0.0000 0.0000 -1.0000
vn 1.0000 -0.0000 0.0000
vn 0.0000 0.0000 1.0000
vn 0.0000 1.0000 0.0000
vn 0.0000 -1.0000 -0.0000
vn 0.0000 0.7295 0.6839
usemtl Material.004
s off
f 1/1/1 2/2/1 3/3/1
f 4/4/1 5/5/1 6/6/1 2/2/1
s 1
f 7/7/2 8/8/2 9/9/2 10/10/2
f 11/11/3 10/10/3 9/9/3 12/12/3
f 13/13/4 14/14/4 15/15/4 16/16/4
f 16/16/5 15/15/5 17/17/5 18/18/5
f 19/19/4 8/8/4 20/20/4 21/21/4
f 22/22/6 14/14/6 20/20/6 23/23/6
f 17/17/6 15/15/6 14/14/6 22/22/6
f 11/11/7 12/12/7 19/19/7 21/21/7 13/13/7 16/16/7 18/18/7
f 21/21/4 20/20/4 14/14/4 13/13/4
f 12/12/4 9/9/4 8/8/4 19/19/4
f 23/23/8 20/20/8 8/8/8 7/7/8
