# Blender v2.91.0 Beta OBJ File: 'decos.blend'
# www.blender.org
o Cube.015_Cube.019
v 1.428445 -0.003646 -0.388035
v 0.846778 -0.003646 0.930291
v 1.279723 -2.003646 -0.388035
v 0.750773 -2.003646 0.762309
v 0.682066 -2.003646 0.762309
v -1.412859 -0.003646 -0.388035
v -1.412859 -0.226242 -0.388035
v -1.412859 -0.082042 -0.388035
v 0.584164 -1.806330 0.739583
v -0.630652 -1.868363 0.762309
v 0.630652 -1.868363 0.762309
v 1.428445 -1.935636 -0.388035
v 1.428445 -2.003646 -0.388035
v 1.573180 -0.082042 -0.302771
v 1.428445 -0.082042 -0.388035
v -0.847909 -0.003646 0.930291
v -0.750773 -0.082042 0.762309
v -1.558448 -0.082042 -0.304240
v -0.584164 -1.806330 0.739583
v -0.630652 -0.988411 0.762309
v 0.750773 -1.935636 0.762309
v 0.682066 -1.935636 0.930291
v 0.846778 -1.935636 0.930291
v -1.412859 -0.486644 -0.388035
v -1.412859 -0.430995 -0.388035
v 0.584164 -0.940004 0.739583
v -0.630652 -0.953624 0.762309
v 0.630652 -0.953624 0.762309
v -0.315326 -0.573940 0.762309
v 0.000000 -0.522036 0.762309
v -0.341033 -0.535684 0.762309
v -1.264137 -2.003646 -0.388035
v 0.682066 -0.953624 0.762309
v 0.630652 -0.617623 0.762309
v 0.750773 -0.953624 0.762309
v 1.428445 -0.486644 -0.388035
v 0.682066 -0.582928 0.762309
v 0.750773 -0.486644 0.762309
v 0.315326 -0.573940 0.762309
v 0.341033 -0.535684 0.762309
v -0.750773 -0.953624 0.762309
v -0.682066 -0.582928 0.762309
v -0.750773 -0.486644 0.762309
v -0.750773 -0.226242 0.762309
v -1.412859 -0.264048 -0.388035
v -0.750773 -0.264048 0.762309
v 0.630652 -0.988411 0.762309
v -0.682066 -0.486644 0.762309
v 0.000000 -0.430995 0.762309
v -0.682066 -0.430995 0.762309
v -0.682066 -0.082042 0.762309
v 0.750773 -0.082042 0.762309
v 0.682066 -0.226242 0.762309
v 0.750773 -0.226242 0.762309
v 1.573180 -1.935636 -0.302771
v 1.428445 -0.226242 -0.388035
v 1.428445 -0.430995 -0.388035
v -0.682066 -0.264048 0.762309
v -0.750773 -0.430995 0.762309
v 0.000000 -0.082042 0.762309
v 0.682066 -0.082042 0.762309
v 1.573180 -0.003646 -0.302771
v 0.682066 -0.430995 0.762309
v 0.750773 -0.430995 0.762309
v 0.682066 -0.486644 0.762309
v 0.000000 -2.003646 0.762309
v 1.428445 -0.264048 -0.388035
v 0.750773 -0.264048 0.762309
v 0.682066 -0.264048 0.762309
v -0.750773 -1.935636 0.762309
v -0.682066 -0.953624 0.762309
v -0.584164 -0.647788 0.739583
v -0.630652 -0.617623 0.762309
v -0.682066 -0.082042 0.930291
v -1.558448 -1.935636 -0.304240
v -0.847909 -1.935636 0.930291
v -1.558448 -0.003646 -0.304240
v 0.000000 -0.264048 0.762309
v 0.000000 -0.003646 0.930291
v -0.750773 -2.003646 0.762309
v -1.558448 -2.003646 -0.304240
v -1.412859 -2.003646 -0.388035
v 0.584164 -1.010260 0.739583
v -0.584164 -1.010260 0.739583
v -0.682066 -0.226242 0.762309
v -0.682066 -1.935636 0.762309
v 0.682066 -1.935636 0.762309
v 0.000000 -0.486644 0.762309
v -1.412859 -1.935636 -0.388035
v 0.000000 -0.082042 0.930291
v 0.000000 -0.226242 0.762309
v 0.584164 -0.647788 0.739583
v -0.292082 -0.607325 0.739583
v 0.000000 -0.561320 0.762309
v 0.000000 -0.595635 0.739583
v 0.292082 -0.607325 0.739583
v -0.584164 -0.940004 0.739583
v 1.409604 -0.957260 -0.377555
v 1.441900 -0.617623 -0.358632
v 1.441900 -0.953624 -0.358632
v 1.246478 -0.536271 -0.095013
v 1.126574 -0.561320 0.187528
v 1.284237 -0.573940 -0.085552
v 1.441900 -0.988411 -0.358632
v 1.398974 -1.806330 -0.329735
v 1.441900 -1.868363 -0.358632
v 1.409604 -1.935636 -0.377555
v 0.811247 -1.868363 0.733689
v 0.757102 -1.935636 0.752611
v 1.409604 -0.581467 -0.377555
v 0.920227 -0.536271 0.470070
v 0.811247 -0.617623 0.733689
v 0.968911 -0.573940 0.460609
v 1.398974 -0.647788 -0.329735
v 1.398974 -0.940004 -0.329735
v 0.814810 -0.647788 0.682066
v 0.960851 -0.607325 0.429116
v 0.757102 -0.957260 0.752611
v 0.757102 -0.581467 0.752611
v 1.083353 -0.523214 0.187528
v 0.757102 -0.990540 0.752611
v 0.811247 -0.988411 0.733689
v 1.409604 -0.990540 -0.377555
v 0.811247 -0.953624 0.733689
v 0.814810 -1.806330 0.682066
v 1.398974 -1.010260 -0.329735
v 0.814810 -1.010260 0.682066
v 1.106892 -0.595635 0.176165
v 1.252933 -0.607325 -0.076785
v 0.814810 -0.940004 0.682066
v -1.409604 -0.957260 -0.377555
v -1.441900 -0.617623 -0.358632
v -1.409604 -0.581467 -0.377555
v -1.246478 -0.536271 -0.095013
v -1.126574 -0.561320 0.187528
v -1.083353 -0.523214 0.187528
v -1.398974 -1.806330 -0.329735
v -1.441900 -0.988411 -0.358632
v -1.441900 -1.868363 -0.358632
v -1.284237 -0.573940 -0.085552
v -0.920227 -0.536271 0.470070
v -0.811247 -0.617623 0.733689
v -0.757102 -0.581467 0.752611
v -0.811247 -1.868363 0.733689
v -1.409604 -1.935636 -0.377555
v -0.757102 -1.935636 0.752611
v -0.814810 -1.806330 0.682066
v -1.441900 -0.953624 -0.358632
v -1.398974 -0.647788 -0.329735
v -0.814810 -0.940004 0.682066
v -0.811247 -0.953624 0.733689
v -0.968911 -0.573940 0.460609
v -0.814810 -0.647788 0.682066
v -0.757102 -0.957260 0.752611
v -0.757102 -0.990540 0.752611
v -1.409604 -0.990540 -0.377555
v -0.811247 -0.988411 0.733689
v -0.960851 -0.607325 0.429116
v -1.106892 -0.595635 0.176165
v -0.814810 -1.010260 0.682066
v -1.398974 -1.010260 -0.329735
v -1.398974 -0.940004 -0.329735
v -1.252933 -0.607325 -0.076785
v 1.573180 -2.003646 -0.302771
v 0.000000 -2.003646 0.930291
v 0.682066 -2.003646 0.930291
v 0.846778 -2.003646 0.930291
v -0.682066 -1.935636 0.930291
v 0.846778 -0.082042 0.930291
v 0.682066 -0.082042 0.930291
v -0.847909 -2.003646 0.930291
v -0.847909 -0.082042 0.930291
v -0.682066 -2.003646 0.930291
v -0.682066 -2.003646 0.762309
vt 0.835938 0.382812
vt 0.835938 0.382812
vt 0.835938 0.382812
vt 0.835938 0.382812
vt 0.835938 0.382812
vt 0.835938 0.382812
vt 0.835938 0.445312
vt 0.835938 0.445312
vt 0.835938 0.445312
vt 0.835938 0.382812
vt 0.835938 0.382812
vt 0.835938 0.382812
vt 0.835938 0.445312
vt 0.835938 0.445312
vt 0.835938 0.445312
vt 0.835938 0.382812
vt 0.835938 0.382812
vt 0.835938 0.382812
vt 0.835938 0.445312
vt 0.835938 0.445312
vt 0.835938 0.445312
vt 0.835938 0.382812
vt 0.835938 0.382812
vt 0.835938 0.382812
vt 0.835938 0.382812
vt 0.835938 0.382812
vt 0.835938 0.445312
vt 0.835938 0.445312
vt 0.835938 0.382812
vt 0.835938 0.382812
vt 0.835938 0.382812
vt 0.835938 0.382812
vt 0.835938 0.382812
vt 0.835938 0.382812
vt 0.835938 0.445312
vt 0.835938 0.382812
vt 0.835938 0.382812
vt 0.835938 0.445312
vt 0.835938 0.445312
vt 0.835938 0.445312
vt 0.835938 0.445312
vt 0.835938 0.445312
vt 0.835938 0.382812
vt 0.835938 0.382812
vt 0.835938 0.382812
vt 0.835938 0.445312
vt 0.835938 0.445312
vt 0.835938 0.445312
vt 0.835938 0.445312
vt 0.835938 0.445312
vt 0.835938 0.445312
vt 0.835938 0.445312
vt 0.835938 0.382812
vt 0.851562 0.242188
vt 0.851562 0.242188
vt 0.851562 0.242188
vt 0.835938 0.445312
vt 0.835938 0.445312
vt 0.835938 0.445312
vt 0.835938 0.445312
vt 0.835938 0.445312
vt 0.851562 0.242188
vt 0.851562 0.242188
vt 0.851562 0.242188
vt 0.835938 0.445312
vt 0.835938 0.445312
vt 0.835938 0.445312
vt 0.835938 0.445312
vt 0.835938 0.445312
vt 0.835938 0.445312
vt 0.835938 0.445312
vt 0.835938 0.445312
vt 0.835938 0.445312
vt 0.835938 0.445312
vt 0.835938 0.445312
vt 0.835938 0.445312
vt 0.835938 0.445312
vt 0.835938 0.445312
vt 0.835938 0.445312
vt 0.835938 0.445312
vt 0.835938 0.445312
vt 0.835938 0.445312
vt 0.835938 0.445312
vt 0.835938 0.445312
vt 0.289062 0.835938
vt 0.289062 0.835938
vt 0.289062 0.835938
vt 0.835938 0.445312
vt 0.835938 0.445312
vt 0.835938 0.445312
vt 0.835938 0.445312
vt 0.835938 0.445312
vt 0.835938 0.445312
vt 0.835938 0.445312
vt 0.835938 0.445312
vt 0.835938 0.382812
vt 0.835938 0.382812
vt 0.835938 0.382813
vt 0.835938 0.382812
vt 0.851562 0.242188
vt 0.851562 0.242188
vt 0.835938 0.445312
vt 0.835938 0.445312
vt 0.851562 0.242188
vt 0.851562 0.242188
vt 0.851562 0.242188
vt 0.835938 0.445312
vt 0.835938 0.445312
vt 0.851562 0.242188
vt 0.851562 0.242188
vt 0.851562 0.242188
vt 0.835938 0.445312
vt 0.835938 0.445312
vt 0.835938 0.445312
vt 0.851562 0.242188
vt 0.851562 0.242188
vt 0.851562 0.242188
vt 0.835938 0.445312
vt 0.835938 0.445312
vt 0.835938 0.445312
vt 0.835938 0.382812
vt 0.835938 0.382812
vt 0.835938 0.382812
vt 0.835938 0.445312
vt 0.835938 0.445312
vt 0.835938 0.445312
vt 0.835938 0.382812
vt 0.835938 0.382812
vt 0.835938 0.445312
vt 0.851562 0.242188
vt 0.851562 0.242188
vt 0.835938 0.382812
vt 0.835938 0.382812
vt 0.835938 0.382812
vt 0.835938 0.382812
vt 0.835938 0.382812
vt 0.835938 0.382812
vt 0.289062 0.835938
vt 0.289062 0.835938
vt 0.289062 0.835938
vt 0.835938 0.382812
vt 0.835938 0.382812
vt 0.289062 0.835938
vt 0.289062 0.835938
vt 0.835938 0.382812
vt 0.835938 0.382812
vt 0.835938 0.382812
vt 0.289062 0.835938
vt 0.289062 0.835938
vt 0.835938 0.382812
vt 0.835938 0.382812
vt 0.835938 0.382812
vt 0.835938 0.382812
vt 0.835938 0.382812
vt 0.835938 0.445312
vt 0.835938 0.382812
vt 0.835938 0.382812
vt 0.835938 0.382812
vt 0.835938 0.382812
vt 0.835938 0.382812
vt 0.835938 0.382812
vt 0.835938 0.382812
vt 0.835938 0.382812
vt 0.835938 0.382812
vt 0.835938 0.382812
vt 0.835938 0.382812
vt 0.835938 0.382812
vt 0.835937 0.382812
vt 0.835938 0.382812
vt 0.835938 0.382812
vt 0.835938 0.382812
vt 0.835938 0.445312
vt 0.289062 0.835938
vt 0.289062 0.835938
vt 0.289062 0.835938
vt 0.289062 0.835938
vt 0.289062 0.835938
vt 0.289062 0.835938
vt 0.289062 0.835938
vt 0.835938 0.382812
vt 0.835938 0.382812
vt 0.835938 0.382812
vt 0.835938 0.382812
vt 0.835938 0.382812
vt 0.835938 0.382812
vt 0.835938 0.382812
vt 0.835938 0.382812
vt 0.835938 0.382812
vt 0.835938 0.382812
vt 0.835938 0.382812
vt 0.835938 0.382812
vt 0.835938 0.382812
vt 0.835938 0.382812
vt 0.835938 0.382812
vt 0.835938 0.382812
vt 0.835938 0.382812
vt 0.835938 0.382812
vt 0.835938 0.382812
vt 0.289062 0.835938
vt 0.289062 0.835938
vt 0.289062 0.835938
vt 0.289062 0.835938
vt 0.289062 0.835938
vt 0.289062 0.835938
vt 0.289062 0.835938
vt 0.289062 0.835938
vt 0.289062 0.835938
vt 0.289062 0.835938
vt 0.835938 0.382812
vt 0.851562 0.242188
vt 0.851562 0.242188
vt 0.835938 0.382812
vt 0.835938 0.445312
vt 0.835938 0.445312
vt 0.835938 0.445312
vt 0.851562 0.242188
vt 0.851562 0.242188
vt 0.851562 0.242188
vt 0.851562 0.242188
vt 0.851562 0.242188
vt 0.835938 0.445312
vt 0.851562 0.242188
vt 0.851562 0.242188
vt 0.851562 0.242188
vt 0.851562 0.242188
vt 0.289062 0.835938
vt 0.289062 0.835938
vt 0.289062 0.835938
vt 0.835938 0.445312
vt 0.835938 0.445312
vt 0.835938 0.445312
vt 0.835938 0.382812
vt 0.835938 0.382812
vt 0.835938 0.445312
vt 0.835938 0.382812
vt 0.835938 0.382812
vt 0.835938 0.445312
vt 0.835938 0.382812
vt 0.851562 0.242188
vt 0.835938 0.445312
vt 0.851562 0.242188
vt 0.835938 0.445312
vt 0.835938 0.445312
vt 0.289062 0.835938
vt 0.851562 0.242188
vt 0.851562 0.242188
vt 0.851562 0.242188
vt 0.835938 0.382812
vt 0.289062 0.835938
vt 0.289062 0.835938
vn 0.0000 0.3440 0.9390
vn -0.5992 0.6610 0.4517
vn 0.0028 0.0000 -1.0000
vn 0.4988 -0.0000 -0.8667
vn -0.7989 -0.0000 -0.6015
vn -0.8132 0.3440 0.4695
vn 0.0000 0.0000 -1.0000
vn 0.8660 0.0000 0.5000
vn -0.0000 -1.0000 -0.0000
vn 0.4392 -0.0000 0.8984
vn -0.7108 -0.5520 0.4359
vn 0.0000 0.8578 0.5141
vn 0.0000 -0.0000 1.0000
vn 0.2899 -0.0159 0.9569
vn 0.0770 -0.1303 0.9885
vn 0.0273 0.0376 0.9989
vn -0.8667 -0.0000 0.4988
vn 0.0559 -0.3266 0.9435
vn 0.8616 -0.0000 0.5076
vn -0.0026 0.0000 -1.0000
vn -0.4392 -0.0000 0.8984
vn 0.5076 0.0000 -0.8616
vn 0.8107 -0.0000 -0.5855
vn -0.0000 1.0000 -0.0070
vn 0.0000 1.0000 0.0000
vn -0.0000 0.9999 -0.0161
vn -0.5076 0.0000 -0.8616
vn -0.4988 0.0000 -0.8667
vn -0.8667 -0.0000 -0.4988
vn -0.8660 -0.0000 0.5000
vn 0.8616 0.0000 -0.5076
vn -0.1666 -0.6455 0.7453
vn -0.1745 -0.4686 0.8660
vn -0.3299 -0.0000 0.9440
vn 0.0000 0.9999 -0.0140
vn 0.0655 0.9963 -0.0557
vn 0.0274 -0.1143 0.9931
vn 0.1666 -0.6455 0.7453
vn 0.0873 0.2119 0.9734
vn -0.0508 0.0690 0.9963
vn -0.0631 0.0580 0.9963
vn -0.0000 0.9998 -0.0197
vn -0.6485 0.7154 0.2600
vn 0.6105 0.6924 0.3845
vn -0.0221 -0.5520 0.8335
vn 0.7329 -0.5520 0.3976
vn 0.0000 -0.7209 0.6931
vn 0.5055 0.0000 -0.8628
vn -0.6248 0.7086 0.3280
vn 0.5584 -0.0000 0.8295
vn -0.7568 -0.4862 0.4369
vn 0.9976 -0.0000 0.0689
vn 0.7702 -0.5261 0.3605
vn 0.7702 -0.5261 0.3606
vn 0.6974 -0.5261 0.4868
vn 0.6248 0.7086 0.3280
vn -0.6105 0.6924 0.3845
vn 0.3299 -0.0000 0.9440
vn -0.5055 0.0000 -0.8628
vn 0.0221 -0.5520 0.8335
vn 0.6002 -0.7209 0.3465
vn -0.9976 -0.0000 0.0689
vn 0.4452 0.8578 0.2570
vn -0.7329 -0.5520 0.3976
vn -0.5584 0.0000 0.8295
vn 0.6485 0.7154 0.2600
vn 0.5992 0.6610 0.4517
vn 0.7568 -0.4862 0.4369
vn 0.8132 0.3440 0.4695
vn -0.4452 0.8578 0.2570
vn -0.7702 -0.5261 0.3605
vn -0.7702 -0.5261 0.3606
vn -0.6974 -0.5261 0.4868
vn 0.7108 -0.5520 0.4359
vn -0.6002 -0.7209 0.3465
vn -0.1147 -0.6772 0.7268
vn 0.0729 -0.5261 0.8473
vn -0.0946 -0.6761 0.7308
vn -0.1657 -0.7099 0.6845
vn -0.0729 -0.5261 0.8473
vn 0.1147 -0.6772 0.7268
s 1
f 19/1/1 11/2/1 9/3/1
f 141/4/2 142/5/2 143/6/2
f 6/7/3 7/8/4 8/9/5
f 137/10/6 144/11/6 147/12/6
f 3/13/7 12/14/7 13/15/7
f 100/16/8 122/17/8 104/18/8
f 80/19/9 81/20/9 82/21/9
f 19/1/10 20/22/10 10/23/10
f 163/24/11 135/25/11 140/26/11
f 6/7/3 24/27/7 25/28/4
f 26/29/12 27/30/12 28/31/12
f 30/32/13 39/33/14 40/34/15
f 6/7/3 32/35/7 24/27/7
f 33/36/13 34/37/16 28/31/13
f 89/38/17 41/39/17 24/27/17
f 37/40/13 35/41/13 38/42/13
f 71/43/13 73/44/18 42/45/13
f 36/46/19 38/42/19 35/41/19
f 1/47/20 36/46/7 3/13/7
f 41/39/13 42/48/13 43/49/13
f 173/50/13 76/51/13 171/52/13
f 47/53/21 9/3/21 11/2/21
f 54/54/19 15/55/19 52/56/19
f 3/13/7 36/46/7 12/14/7
f 62/57/22 15/58/23 1/47/20
f 167/59/19 55/60/19 23/61/19
f 25/62/17 46/63/17 45/64/17
f 2/65/24 62/57/25 1/47/26
f 1/47/20 15/58/23 56/66/27
f 1/47/20 57/67/27 36/46/7
f 85/68/13 17/69/13 44/70/13
f 50/71/13 46/72/13 59/73/13
f 65/74/13 64/75/13 63/76/13
f 81/20/28 89/38/28 82/21/28
f 4/77/9 164/78/9 167/59/9
f 79/79/13 170/80/13 2/65/13
f 165/81/9 174/82/9 66/83/9
f 28/31/13 47/53/13 33/36/13
f 45/84/29 7/8/4 6/7/3
f 66/83/9 32/35/9 3/13/9
f 147/85/30 161/86/30 137/87/30
f 67/88/31 1/47/20 56/66/27
f 68/89/13 53/90/13 69/91/13
f 172/92/17 77/93/17 18/94/17
f 53/90/13 78/95/13 69/91/13
f 40/34/15 92/96/32 34/37/33
f 154/97/34 157/98/34 155/99/34
f 52/56/9 170/100/9 61/101/9
f 2/65/13 170/80/13 169/102/13
f 16/103/35 6/7/36 77/93/25
f 17/104/9 74/105/9 172/106/9
f 6/7/3 25/28/4 45/84/29
f 43/49/17 25/28/17 24/27/17
f 71/43/13 20/22/13 27/30/13
f 88/107/13 63/76/13 49/108/13
f 64/109/19 67/110/19 68/111/19
f 169/102/19 62/57/19 2/65/19
f 70/112/25 75/113/25 76/51/25
f 1/47/20 67/88/31 57/67/27
f 3/13/9 4/77/9 5/114/9
f 49/115/13 69/116/13 78/117/13
f 16/103/13 172/92/13 74/118/13
f 166/119/13 23/61/13 22/120/13
f 38/42/13 65/74/13 37/40/13
f 31/121/37 72/122/38 29/123/39
f 88/107/13 40/124/40 65/74/13
f 31/125/41 88/107/13 48/126/13
f 6/7/36 16/103/35 79/79/42
f 48/126/13 42/48/13 31/125/41
f 133/127/43 140/26/43 134/128/43
f 33/129/13 35/41/13 37/40/13
f 170/100/9 60/130/9 61/101/9
f 91/131/13 61/101/13 60/130/13
f 166/119/9 66/83/9 5/114/9
f 40/34/40 34/37/16 37/132/13
f 88/107/13 50/71/13 48/126/13
f 65/74/13 40/124/40 37/40/13
f 32/35/7 1/47/20 3/13/7
f 32/35/7 89/38/7 24/27/7
f 1/47/26 6/7/36 79/79/42
f 1/47/26 79/79/42 2/65/24
f 3/13/9 5/114/9 66/83/9
f 120/133/44 113/134/44 102/135/44
f 94/136/45 96/137/45 39/33/45
f 73/44/18 31/121/37 42/45/13
f 93/138/13 26/139/13 95/140/13
f 33/36/13 11/2/13 87/141/13
f 43/49/13 42/48/13 48/126/13
f 55/60/22 13/15/22 12/14/22
f 24/27/17 41/39/17 43/49/17
f 28/31/21 92/96/21 26/29/21
f 10/23/13 71/43/13 86/142/13
f 27/30/13 47/53/13 28/31/13
f 32/35/7 82/21/7 89/38/7
f 18/94/28 6/7/3 8/9/5
f 92/143/13 96/144/13 26/139/13
f 96/144/13 95/140/13 26/139/13
f 102/135/46 117/145/46 128/146/46
f 84/147/47 47/53/47 20/22/47
f 97/148/13 93/138/13 72/149/13
f 98/150/48 99/151/48 100/16/48
f 134/128/49 135/25/49 136/152/49
f 104/18/50 105/153/50 106/154/50
f 21/155/25 55/60/25 12/14/25
f 144/11/51 145/156/51 146/157/51
f 124/158/52 116/159/52 112/160/52
f 113/134/53 116/159/54 117/145/53
f 103/161/55 114/162/55 99/151/55
f 101/163/56 102/135/56 103/161/56
f 136/152/57 152/164/57 141/4/57
f 121/165/58 108/166/58 122/17/58
f 123/167/48 106/154/48 107/168/48
f 38/42/19 57/67/19 64/75/19
f 131/169/59 138/170/59 148/171/59
f 35/41/19 12/14/19 36/46/19
f 85/68/13 46/72/13 58/172/13
f 117/173/8 115/174/8 128/175/8
f 114/176/8 129/177/8 115/174/8
f 130/178/8 117/173/8 116/179/8
f 129/177/8 128/175/8 115/174/8
f 93/180/60 94/136/60 29/123/60
f 104/18/61 127/181/61 126/182/61
f 122/17/52 125/183/52 127/181/52
f 10/23/13 87/141/13 11/2/13
f 153/184/62 151/185/62 142/5/62
f 100/16/63 130/186/63 124/158/63
f 135/25/64 158/187/64 152/164/64
f 131/169/59 132/188/59 133/127/59
f 148/171/65 149/189/65 132/188/65
f 137/10/65 138/170/65 139/190/65
f 110/191/66 103/161/66 99/151/66
f 111/192/67 112/160/67 113/134/67
f 107/168/68 108/166/68 109/193/68
f 105/153/69 108/166/69 106/154/69
f 100/16/50 114/162/50 115/194/50
f 150/195/70 148/171/70 151/185/70
f 152/164/71 153/184/72 142/5/72
f 149/189/73 140/26/73 132/188/73
f 118/196/58 112/160/58 119/197/58
f 32/35/9 80/19/9 82/21/9
f 155/99/34 144/11/34 146/157/34
f 139/190/59 156/198/59 145/156/59
f 74/118/13 79/79/13 16/103/13
f 122/17/58 118/196/58 121/165/58
f 98/150/48 104/18/48 123/167/48
f 158/199/30 159/200/30 150/201/30
f 9/202/13 84/203/13 19/204/13
f 162/205/30 163/206/30 149/207/30
f 153/208/30 158/199/30 150/201/30
f 163/206/30 150/201/30 159/200/30
f 102/135/74 129/209/74 103/161/74
f 157/98/62 147/12/62 144/11/62
f 27/30/10 72/122/10 73/44/10
f 17/104/9 18/210/9 8/211/9
f 138/170/75 160/212/75 157/98/75
f 22/120/13 165/81/13 166/119/13
f 168/213/25 87/214/25 86/215/25
f 56/66/19 68/89/19 67/88/19
f 168/213/13 165/81/13 22/120/13
f 87/214/13 35/41/13 33/129/13
f 86/215/13 41/39/13 70/112/13
f 91/131/13 51/216/13 85/217/13
f 90/218/9 51/216/9 60/130/9
f 44/219/17 8/211/17 7/220/17
f 63/76/13 68/89/13 69/91/13
f 85/68/13 78/95/13 91/221/13
f 80/19/9 173/50/9 171/52/9
f 21/155/25 22/120/25 23/61/25
f 52/56/9 14/222/9 169/223/9
f 49/115/13 58/224/13 50/225/13
f 7/8/17 46/72/17 44/70/17
f 4/77/9 166/119/9 5/114/9
f 70/112/25 168/213/25 86/215/25
f 29/123/39 30/32/13 31/121/37
f 105/226/8 127/227/8 125/228/8
f 148/171/30 157/98/30 151/185/30
f 61/229/13 54/230/13 52/231/13
f 171/52/17 75/113/17 81/20/17
f 19/1/10 84/147/10 20/22/10
f 26/29/12 97/232/12 27/30/12
f 142/5/34 154/97/34 143/6/34
f 47/53/21 83/233/21 9/3/21
f 66/83/9 174/82/9 32/35/9
f 72/122/76 93/180/77 29/123/78
f 88/107/13 30/234/13 40/124/40
f 31/125/41 30/234/13 88/107/13
f 71/43/13 27/30/13 73/44/18
f 39/33/79 96/137/80 92/96/81
f 33/36/13 47/53/13 11/2/13
f 10/23/13 20/22/13 71/43/13
f 84/147/47 83/233/47 47/53/47
f 97/148/13 26/139/13 93/138/13
f 98/150/48 110/191/48 99/151/48
f 104/18/50 126/182/50 105/153/50
f 113/134/53 112/160/54 116/159/54
f 103/161/55 129/209/55 114/162/55
f 121/165/58 109/193/58 108/166/58
f 123/167/48 104/18/48 106/154/48
f 130/178/8 115/174/8 117/173/8
f 104/18/61 122/17/61 127/181/61
f 122/17/52 108/166/52 125/183/52
f 100/16/63 115/194/63 130/186/63
f 131/169/59 148/171/59 132/188/59
f 137/10/65 161/235/65 138/170/65
f 150/195/70 162/236/70 148/171/70
f 152/164/71 158/187/71 153/184/72
f 149/189/73 163/24/73 140/26/73
f 155/99/34 157/98/34 144/11/34
f 139/190/59 138/170/59 156/198/59
f 162/205/30 150/201/30 163/206/30
f 157/98/62 160/212/62 147/12/62
f 138/170/75 161/235/75 160/212/75
f 168/213/13 173/50/13 165/81/13
f 48/126/13 59/73/13 43/49/13
f 41/39/13 71/237/13 42/48/13
f 34/37/16 33/36/13 37/132/13
f 19/1/1 10/23/1 11/2/1
f 141/4/2 152/164/2 142/5/2
f 137/10/6 139/190/6 144/11/6
f 100/16/8 124/158/8 122/17/8
f 80/19/9 171/52/9 81/20/9
f 163/24/11 159/238/11 135/25/11
f 30/32/13 94/136/13 39/33/14
f 89/38/17 70/112/17 41/39/17
f 173/50/13 168/213/13 76/51/13
f 54/54/19 56/239/19 15/55/19
f 62/57/22 14/240/22 15/58/23
f 167/59/19 164/78/19 55/60/19
f 25/62/17 59/241/17 46/63/17
f 85/68/13 51/242/13 17/69/13
f 50/71/13 58/172/13 46/72/13
f 65/74/13 38/42/13 64/75/13
f 81/20/28 75/113/28 89/38/28
f 4/77/9 13/15/9 164/78/9
f 79/79/13 90/243/13 170/80/13
f 165/81/9 173/50/9 174/82/9
f 147/85/30 160/244/30 161/86/30
f 68/89/13 54/230/13 53/90/13
f 172/92/17 16/103/17 77/93/17
f 53/90/13 91/221/13 78/95/13
f 40/34/15 39/33/14 92/96/32
f 154/97/34 151/185/34 157/98/34
f 52/56/9 169/223/9 170/100/9
f 17/104/9 51/216/9 74/105/9
f 43/49/17 59/73/17 25/28/17
f 88/107/13 65/74/13 63/76/13
f 64/109/19 57/245/19 67/110/19
f 169/102/19 14/240/19 62/57/19
f 70/112/25 89/38/25 75/113/25
f 3/13/9 13/15/9 4/77/9
f 49/115/13 63/246/13 69/116/13
f 166/119/13 167/59/13 23/61/13
f 31/121/37 73/44/18 72/122/38
f 133/127/43 132/188/43 140/26/43
f 170/100/9 90/218/9 60/130/9
f 91/131/13 53/247/13 61/101/13
f 166/119/9 165/81/9 66/83/9
f 88/107/13 49/108/13 50/71/13
f 32/35/7 6/7/3 1/47/20
f 120/133/44 111/192/44 113/134/44
f 94/136/45 95/248/45 96/137/45
f 55/60/22 164/78/22 13/15/22
f 28/31/21 34/37/21 92/96/21
f 27/30/13 20/22/13 47/53/13
f 18/94/28 77/93/28 6/7/3
f 102/135/46 113/134/46 117/145/46
f 134/128/49 140/26/49 135/25/49
f 21/155/25 23/61/25 55/60/25
f 144/11/51 139/190/51 145/156/51
f 124/158/52 130/186/52 116/159/52
f 101/163/56 120/133/56 102/135/56
f 136/152/57 135/25/57 152/164/57
f 38/42/19 36/46/19 57/67/19
f 131/169/59 156/198/59 138/170/59
f 35/41/19 21/155/19 12/14/19
f 85/68/13 44/70/13 46/72/13
f 93/180/60 95/248/60 94/136/60
f 10/23/13 86/142/13 87/141/13
f 153/184/62 150/195/62 151/185/62
f 135/25/64 159/238/64 158/187/64
f 148/171/65 162/236/65 149/189/65
f 110/191/66 101/163/66 103/161/66
f 111/192/67 119/197/67 112/160/67
f 107/168/68 106/154/68 108/166/68
f 105/153/69 125/183/69 108/166/69
f 100/16/50 99/151/50 114/162/50
f 118/196/58 124/158/58 112/160/58
f 32/35/9 174/82/9 80/19/9
f 74/118/13 90/243/13 79/79/13
f 122/17/58 124/158/58 118/196/58
f 98/150/48 100/16/48 104/18/48
f 9/202/13 83/249/13 84/203/13
f 102/135/74 128/146/74 129/209/74
f 27/30/10 97/232/10 72/122/10
f 17/104/9 172/106/9 18/210/9
f 168/213/25 22/120/25 87/214/25
f 56/66/19 54/230/19 68/89/19
f 87/214/13 21/155/13 35/41/13
f 86/215/13 71/237/13 41/39/13
f 91/131/13 60/130/13 51/216/13
f 90/218/9 74/105/9 51/216/9
f 44/219/17 17/104/17 8/211/17
f 63/76/13 64/75/13 68/89/13
f 85/68/13 58/172/13 78/95/13
f 80/19/9 174/82/9 173/50/9
f 21/155/25 87/214/25 22/120/25
f 52/56/9 15/55/9 14/222/9
f 49/115/13 78/117/13 58/224/13
f 7/8/17 45/84/17 46/72/17
f 4/77/9 167/59/9 166/119/9
f 70/112/25 76/51/25 168/213/25
f 29/123/39 94/136/13 30/32/13
f 105/226/8 126/250/8 127/227/8
f 148/171/30 138/170/30 157/98/30
f 61/229/13 53/90/13 54/230/13
f 171/52/17 76/51/17 75/113/17
f 142/5/34 151/185/34 154/97/34
f 48/126/13 50/71/13 59/73/13
