# Blender v2.90.0 Alpha OBJ File: 'Decos.blend'
# www.blender.org
o Detail_Cube.001_Detail_Cube.006
v 10.000002 0.442645 1.312012
v 10.000004 0.442644 1.215703
v 0.000004 0.442644 1.215704
v 0.000000 0.442645 1.312012
v 10.000004 0.442643 -2.482850
v 10.000004 0.442642 -2.579159
v 0.000004 0.442642 -2.579159
v 0.000004 0.442643 -2.482849
v 0.000004 0.426228 -3.046930
v 0.000004 -0.478711 -3.046930
v 0.000000 -0.478708 1.779785
v 0.000000 0.426234 1.779785
v 10.000004 -0.478711 -3.046931
v 10.000004 0.426228 -3.046931
v 10.000002 0.426234 1.779785
v 10.000002 -0.478708 1.779785
vt 0.007812 0.804688
vt 0.007812 0.804688
vt 0.007812 0.804688
vt 0.007812 0.804688
vt 0.101562 0.789062
vt 0.101562 0.789062
vt 0.101562 0.789062
vt 0.101562 0.789062
vt 0.148438 0.773438
vt 0.148438 0.773438
vt 0.148438 0.773438
vt 0.148438 0.773438
vt 0.148438 0.773438
vt 0.148438 0.773438
vt 0.148438 0.773438
vt 0.148438 0.773438
vn -0.0000 1.0000 -0.0000
vn -1.0000 0.0000 -0.0000
vn -0.0000 0.0000 -1.0000
vn 0.0000 -0.0000 1.0000
s 1
f 1/1/1 2/2/1 3/3/1 4/4/1
f 5/5/1 6/6/1 7/7/1 8/8/1
f 9/9/2 10/10/2 11/11/2 12/12/2
f 13/13/3 10/10/3 9/9/3 14/14/3
f 15/15/1 14/14/1 9/9/1 12/12/1
f 11/11/4 16/16/4 15/15/4 12/12/4
