# Blender v2.90.0 Alpha OBJ File: 'Decos.blend'
# www.blender.org
o Torus.002
v 12.002112 0.412650 8.954792
v 10.394134 0.412651 2.953734
v 6.236480 0.412650 5.354157
v 7.201267 0.412650 8.954792
v 6.001055 0.412651 -1.439344
v 3.600633 0.412651 2.718310
v 0.000002 0.412652 -3.047322
v 0.000000 0.412651 1.753524
v 12.002112 -0.470726 8.954792
v 7.201267 -0.470726 8.954792
v 6.236480 -0.470726 5.354157
v 10.394134 -0.470725 2.953734
v 3.600633 -0.470725 2.718310
v 6.001055 -0.470725 -1.439344
v 0.000000 -0.470725 1.753524
v 0.000002 -0.470724 -3.047322
v -0.015836 0.447763 -2.505644
v 5.571717 0.447763 -0.701080
v 5.615883 0.447764 -0.777074
v -0.015836 0.447764 -2.601952
v 3.831470 0.447760 2.293286
v 6.729753 0.447759 5.018304
v 6.806993 0.447760 4.975899
v 3.875635 0.447761 2.217293
v 9.773296 0.447762 3.347407
v 9.850537 0.447764 3.305000
v -0.015836 0.447760 1.289217
v -0.015836 0.447761 1.192909
v 7.663285 0.447759 8.928671
v 7.759594 0.447760 8.928671
v 11.458146 0.447762 8.928671
v 11.554455 0.447763 8.928671
vt 0.148438 0.773438
vt 0.148438 0.773438
vt 0.148438 0.773438
vt 0.148438 0.773438
vt 0.148438 0.773438
vt 0.148438 0.773438
vt 0.148438 0.773438
vt 0.148438 0.773438
vt 0.148438 0.773438
vt 0.148438 0.773438
vt 0.148438 0.773438
vt 0.148438 0.773438
vt 0.148438 0.773438
vt 0.148438 0.773438
vt 0.148438 0.773438
vt 0.148438 0.773438
vt 0.007812 0.804688
vt 0.007812 0.804688
vt 0.007812 0.804688
vt 0.007812 0.804688
vt 0.101562 0.789062
vt 0.101562 0.789062
vt 0.101562 0.789062
vt 0.101562 0.789062
vt 0.007812 0.804688
vt 0.007812 0.804688
vt 0.101562 0.789062
vt 0.101562 0.789062
vt 0.101562 0.789062
vt 0.101562 0.789062
vt 0.007812 0.804688
vt 0.007812 0.804688
vn 0.0000 1.0000 0.0000
vn 0.2588 0.0000 -0.9659
vn -1.0000 0.0000 -0.0000
vn -0.9659 0.0000 0.2588
vn 0.0000 0.0000 1.0000
vn -0.7071 0.0000 0.7071
vn 0.7071 -0.0000 -0.7071
vn 0.9659 0.0000 -0.2588
vn -0.2588 -0.0000 0.9659
s off
f 1/1/1 2/2/1 3/3/1 4/4/1
f 2/2/1 5/5/1 6/6/1 3/3/1
f 5/5/1 7/7/1 8/8/1 6/6/1
f 5/5/2 14/9/2 16/10/2 7/7/2
f 7/7/3 16/10/3 15/11/3 8/8/3
f 3/3/4 11/12/4 10/13/4 4/4/4
f 4/4/5 10/13/5 9/14/5 1/1/5
f 6/6/6 13/15/6 11/12/6 3/3/6
f 2/2/7 12/16/7 14/9/7 5/5/7
f 1/1/8 9/14/8 12/16/8 2/2/8
f 8/8/9 15/11/9 13/15/9 6/6/9
s 1
f 17/17/1 18/18/1 19/19/1 20/20/1
f 21/21/1 22/22/1 23/23/1 24/24/1
f 18/18/1 25/25/1 26/26/1 19/19/1
f 27/27/1 21/21/1 24/24/1 28/28/1
f 22/22/1 29/29/1 30/30/1 23/23/1
f 25/25/1 31/31/1 32/32/1 26/26/1
