# Blender v2.91.0 Beta OBJ File: 'deer.blend'
# www.blender.org
o rock.014
v 1.733698 -0.877109 1.243076
v -1.192602 1.438116 -1.500136
v -1.630890 0.897289 1.301419
v -1.998557 -0.507056 -1.821604
v 2.071672 -0.696396 -1.481407
v -1.411239 -1.047680 1.860890
vt 0.039062 0.460938
vt 0.039062 0.460938
vt 0.039062 0.460938
vt 0.039062 0.460938
vt 0.039063 0.460938
vt 0.039062 0.460938
vn 0.5427 0.8310 0.1224
vn 0.1693 0.2901 0.9419
vn 0.0421 -0.9973 -0.0609
vn -0.0343 -0.9896 -0.1398
vn -0.9867 -0.0691 0.1472
vn -0.9177 0.3915 -0.0680
vn 0.4564 0.8576 0.2370
vn 0.0885 0.1266 -0.9880
s 1
f 1/1/1 5/2/1 2/3/1
f 3/4/2 6/5/2 1/1/2
f 1/1/3 6/5/3 5/2/3
f 6/5/4 4/6/4 5/2/4
f 6/5/5 3/4/5 4/6/5
f 4/6/6 3/4/6 2/3/6
f 2/3/7 3/4/7 1/1/7
f 5/2/8 4/6/8 2/3/8
