# Blender v2.91.0 Beta OBJ File: 'deer.blend'
# www.blender.org
o rock.014
v 0.300025 1.348963 -0.534519
v 0.971868 -0.733552 1.571446
v -1.511130 1.225272 -0.457520
v 1.121988 -1.336635 0.777996
v 2.040214 -0.598175 0.498502
v 2.052387 -0.023287 -0.996622
v -0.989130 0.573582 -1.958724
v -0.592705 1.304008 -1.411459
v -0.074655 -1.252244 1.573623
v -2.232875 -0.008444 0.002933
v -2.068284 -0.532525 -1.011832
v -2.011353 0.456690 1.273508
v -1.117060 0.713261 1.380124
v -1.140773 -0.835504 1.984762
v 1.420189 0.239569 0.732249
v 1.914892 -0.741107 -1.271711
v -0.782319 1.272467 0.618326
v -1.386882 -0.316069 -2.061117
v 1.406149 0.138108 -1.489954
v 0.624937 -1.302800 -0.634618
v -1.851258 -0.726810 1.375557
v 0.646335 -0.941602 -1.912647
v -0.885306 -1.114224 -1.704404
v -0.722741 -1.382317 0.219353
v -1.932806 0.595192 -1.609559
vt 0.039062 0.460938
vt 0.039062 0.460938
vt 0.039062 0.460938
vt 0.039062 0.460938
vt 0.039062 0.460938
vt 0.039062 0.460938
vt 0.039062 0.460938
vt 0.039062 0.460938
vt 0.039062 0.460938
vt 0.039062 0.460938
vt 0.039062 0.460938
vt 0.039062 0.460938
vt 0.039062 0.460938
vt 0.039062 0.460938
vt 0.039062 0.460938
vt 0.039062 0.460938
vt 0.039062 0.460938
vt 0.039062 0.460938
vt 0.039062 0.460938
vt 0.039062 0.460938
vt 0.039062 0.460938
vt 0.039062 0.460938
vt 0.039062 0.460938
vt 0.039062 0.460938
vt 0.039062 0.460938
vn 0.6310 0.7674 0.1141
vn 0.6197 -0.5639 0.5459
vn 0.6299 -0.7764 0.0181
vn -0.0768 0.9970 0.0083
vn -0.4056 0.8563 -0.3198
vn -0.0600 0.9981 0.0099
vn -0.2944 0.8275 0.4781
vn 0.1628 0.3567 0.9199
vn 0.2963 0.7031 0.6464
vn 0.1949 -0.3895 0.9002
vn 0.2523 0.4888 -0.8351
vn 0.1514 0.2661 -0.9520
vn -0.2790 -0.9340 0.2232
vn -0.3213 -0.9234 0.2099
vn 0.0358 -0.9987 -0.0365
vn 0.0715 -0.9602 -0.2702
vn 0.3361 -0.9313 -0.1406
vn -0.0275 -0.9904 -0.1357
vn -0.4778 -0.8747 -0.0815
vn 0.2763 -0.9261 -0.2571
vn -0.9845 0.0264 -0.1733
vn -0.6019 -0.6091 -0.5165
vn -0.9710 -0.1132 0.2107
vn -0.5192 -0.8544 -0.0223
vn -0.6528 -0.0230 0.7572
vn -0.8676 0.4962 -0.0304
vn 0.8127 0.5416 0.2149
vn 0.6585 0.2941 0.6928
vn 0.9844 -0.1670 -0.0562
vn 0.4461 0.0362 -0.8943
vn 0.6245 0.1723 -0.7617
vn 0.3712 0.8361 0.4040
vn -0.4355 0.8627 0.2572
vn 0.3015 0.5392 0.7863
vn -0.2112 0.3583 0.9094
vn 0.1964 0.0250 -0.9802
vn 0.4975 0.7699 -0.3998
vn -0.0714 -0.4440 -0.8932
vn 0.4290 0.7676 -0.4761
vn -0.0050 -0.9952 0.0980
vn 0.3538 -0.7112 0.6075
vn -0.8019 -0.2017 -0.5624
vn -0.8573 0.5138 0.0328
vn -0.2463 0.6632 -0.7067
vn -0.3307 0.2525 -0.9093
vn -0.9196 -0.3893 0.0519
s 1
f 15/1/1 6/2/1 1/3/1
f 4/4/2 5/5/2 2/6/2
f 16/7/3 5/5/3 4/4/3
f 17/8/4 8/9/4 3/10/4
f 3/10/5 8/9/5 25/11/5
f 8/9/6 17/8/6 1/3/6
f 12/12/7 13/13/7 17/8/7
f 13/13/8 14/14/8 2/6/8
f 17/8/9 13/13/9 15/1/9
f 2/6/10 14/14/10 9/15/10
f 19/16/11 7/17/11 8/9/11
f 22/18/12 18/19/12 19/16/12
f 14/14/13 24/20/13 9/15/13
f 21/21/14 24/20/14 14/14/14
f 4/4/15 24/20/15 20/22/15
f 20/22/16 23/23/16 22/18/16
f 4/4/17 20/22/17 16/7/17
f 24/20/18 23/23/18 20/22/18
f 11/24/19 23/23/19 24/20/19
f 22/18/20 16/7/20 20/22/20
f 11/24/21 10/25/21 25/11/21
f 11/24/22 18/19/22 23/23/22
f 21/21/23 12/12/23 10/25/23
f 24/20/24 21/21/24 11/24/24
f 21/21/25 14/14/25 12/12/25
f 10/25/26 12/12/26 3/10/26
f 15/1/27 5/5/27 6/2/27
f 5/5/28 15/1/28 2/6/28
f 16/7/29 6/2/29 5/5/29
f 19/16/30 16/7/30 22/18/30
f 19/16/31 6/2/31 16/7/31
f 1/3/32 17/8/32 15/1/32
f 3/10/33 12/12/33 17/8/33
f 13/13/34 2/6/34 15/1/34
f 13/13/35 12/12/35 14/14/35
f 19/16/36 18/19/36 7/17/36
f 6/2/37 19/16/37 1/3/37
f 22/18/38 23/23/38 18/19/38
f 1/3/39 19/16/39 8/9/39
f 4/4/40 9/15/40 24/20/40
f 2/6/41 9/15/41 4/4/41
f 11/24/42 25/11/42 18/19/42
f 25/11/43 10/25/43 3/10/43
f 7/17/44 25/11/44 8/9/44
f 18/19/45 25/11/45 7/17/45
f 11/24/46 21/21/46 10/25/46
