# Blender v2.83.4 OBJ File: 'decos.blend'
# www.blender.org
o Cube.001_Cube.016
v -1.275865 0.738854 0.165442
v -1.275865 1.050486 0.165442
v 1.015865 1.052707 0.165442
v 1.015865 0.741045 0.165442
v 0.804647 0.647163 0.165442
v -1.064647 1.144346 0.165442
v 0.593430 1.052668 0.165442
v 0.804647 1.146562 0.165442
v -0.853429 0.738854 0.165442
v -1.064647 0.644994 0.165442
v -0.853429 1.050486 0.165442
v 0.593430 0.741006 0.165442
v -1.096476 1.013915 -0.215113
v 0.836476 1.016936 -0.215113
v -1.275865 1.175588 -1.834559
v 0.804647 0.776026 -1.834559
v -0.853429 0.863956 -1.834559
v 0.593430 0.869837 -1.834559
v -1.275865 0.863956 -1.834559
v 1.015865 1.181674 -1.834559
v 1.015865 0.869954 -1.834559
v -1.064647 1.269448 -1.834559
v 0.593430 1.181557 -1.834559
v 0.804647 1.275519 -1.834559
v -1.064647 0.770096 -1.834559
v -0.853429 1.175588 -1.834559
v -1.275865 1.107427 -3.834559
v 1.015865 1.428995 -3.834559
v 0.804647 1.023217 -3.834559
v -1.064647 1.512919 -3.834559
v 0.804647 1.522827 -3.834559
v -0.853429 1.107427 -3.834559
v -0.853429 1.419059 -3.834559
v -1.275865 1.419059 -3.834559
v 1.015865 1.117201 -3.834559
v 0.593430 1.428780 -3.834559
v -1.064647 1.013567 -3.834559
v 0.593430 1.116986 -3.834559
v 0.836476 1.769462 -5.954915
v -1.096476 1.755046 -5.954915
v -1.275865 1.949470 -7.834559
v 1.015865 1.966646 -7.834559
v 0.804647 1.872491 -7.834559
v -1.064647 2.354962 -7.834559
v 0.593430 2.278150 -7.834559
v 0.593430 1.966136 -7.834559
v -1.275865 2.261103 -7.834559
v 1.015865 2.278660 -7.834559
v 0.804647 2.372454 -7.834559
v -0.853429 1.949470 -7.834559
v -1.064647 1.855610 -7.834559
v -0.853429 2.261103 -7.834559
v -1.275865 3.264985 -11.834559
v 0.804647 3.194609 -11.834559
v -1.064647 3.670478 -11.834559
v -0.853429 3.264985 -11.834559
v 0.593430 3.288005 -11.834559
v -1.275865 3.576618 -11.834559
v 1.015865 3.601561 -11.834559
v 1.015865 3.289105 -11.834559
v 0.593430 3.600461 -11.834559
v 0.804647 3.695279 -11.834559
v -0.853429 3.576618 -11.834559
v 0.836476 3.598279 -11.954914
v -1.096476 3.571757 -11.954914
v -1.275865 5.365604 -15.834558
v -1.275865 5.053970 -15.834558
v 0.804647 4.987659 -15.834558
v 0.593430 5.394095 -15.834558
v -0.853429 5.053970 -15.834558
v 0.593430 5.080304 -15.834558
v 1.015865 5.396985 -15.834558
v 1.015865 5.083189 -15.834558
v -1.064647 5.459464 -15.834558
v 0.804647 5.490471 -15.834558
v -1.064647 4.960112 -15.834558
v -0.853429 5.365604 -15.834558
v 0.836476 5.409238 -15.954914
v -1.096476 5.374087 -15.954914
v -1.275865 7.628057 -19.834557
v -1.275865 7.316425 -19.834557
v 1.015865 7.316425 -19.834557
v 1.015865 7.628057 -19.834557
v 0.804647 7.222565 -19.834557
v -1.064647 7.721918 -19.834557
v 0.804647 7.721918 -19.834557
v 0.593430 7.628057 -19.834557
v -1.064647 7.222565 -19.834557
v -0.853429 7.316425 -19.834557
v -0.853429 7.628057 -19.834557
v 0.593430 7.316425 -19.834557
v 0.836476 7.077353 -18.954912
v -1.096476 7.031222 -18.954912
v -0.331679 -3.874009 0.164824
v -0.331679 0.945030 0.164825
v -0.331679 0.951812 -0.020665
v -0.331679 -3.874009 -0.020666
v 0.071679 0.952611 -0.020665
v 0.071679 -3.874009 -0.020666
v 0.071679 0.945712 0.164825
v 0.071679 -3.874009 0.164824
v -0.331679 -3.874008 -6.698312
v -0.331679 1.870173 -6.698311
v 0.071679 1.877372 -6.698311
v 0.071679 -3.874008 -6.698312
v 0.071679 1.791508 -6.327332
v 0.071679 -3.874008 -6.327332
v -0.331679 1.784830 -6.327332
v -0.331679 -3.874008 -6.327332
v -0.331679 -3.874007 -13.375960
v -0.331679 4.103421 -13.375958
v 0.071679 4.111324 -13.375958
v 0.071679 -3.874007 -13.375960
v 0.071679 3.953386 -13.004979
v 0.071679 -3.874007 -13.004981
v -0.331679 3.944573 -13.004979
v -0.331679 -3.874007 -13.004981
v -0.331679 7.521547 -19.834557
v 0.071679 7.521547 -19.834557
v 0.071679 -3.874006 -19.834558
v -0.331679 -3.874006 -19.834558
v 0.071679 7.406165 -19.649067
v 0.071679 -3.874006 -19.649069
v -0.331679 7.406165 -19.649067
v -0.331679 -3.874006 -19.649069
vt 0.289062 0.960938
vt 0.289062 0.960938
vt 0.289062 0.960938
vt 0.289062 0.960938
vt 0.289062 0.960938
vt 0.289062 0.960938
vt 0.289062 0.960938
vt 0.289062 0.960938
vt 0.289062 0.960938
vt 0.289062 0.960938
vt 0.148438 0.898438
vt 0.148438 0.898438
vt 0.148438 0.898438
vt 0.148438 0.898438
vt 0.148438 0.898438
vt 0.148438 0.898438
vt 0.148438 0.898438
vt 0.148438 0.898438
vt 0.148438 0.898438
vt 0.148438 0.898438
vt 0.148438 0.898438
vt 0.148438 0.898438
vt 0.148438 0.898438
vt 0.148438 0.898438
vt 0.148438 0.898438
vt 0.148438 0.898438
vt 0.148438 0.898438
vt 0.148438 0.898438
vt 0.148438 0.898438
vt 0.148438 0.898438
vt 0.148438 0.898438
vt 0.148438 0.898438
vt 0.148438 0.898438
vt 0.148438 0.898438
vt 0.148438 0.898438
vt 0.148438 0.898438
vt 0.148438 0.898438
vt 0.148438 0.898438
vt 0.148438 0.898438
vt 0.148438 0.898438
vt 0.148438 0.898438
vt 0.148438 0.898438
vt 0.148438 0.898438
vt 0.148438 0.898438
vt 0.148438 0.898438
vt 0.148438 0.898438
vt 0.148438 0.898438
vt 0.148438 0.898438
vt 0.148438 0.898438
vt 0.148438 0.898438
vt 0.148438 0.898438
vt 0.148438 0.898438
vt 0.148438 0.898438
vt 0.148438 0.898438
vt 0.148438 0.898438
vt 0.148438 0.898438
vt 0.148438 0.898438
vt 0.148438 0.898438
vt 0.148438 0.898438
vt 0.148438 0.898438
vt 0.148438 0.898438
vt 0.148438 0.898438
vt 0.148438 0.898438
vt 0.148438 0.898438
vt 0.148438 0.898438
vt 0.148438 0.898438
vt 0.148438 0.898438
vt 0.148438 0.898438
vt 0.148438 0.898438
vt 0.148438 0.898438
vt 0.148438 0.898438
vt 0.148438 0.898438
vt 0.148438 0.898438
vt 0.148438 0.898438
vt 0.148438 0.898438
vt 0.148438 0.898438
vt 0.148438 0.898438
vt 0.148438 0.898438
vt 0.148438 0.898438
vt 0.148438 0.898438
vt 0.148438 0.898438
vt 0.148438 0.898438
vt 0.148438 0.898438
vt 0.148438 0.898438
vt 0.148438 0.898438
vt 0.148438 0.898438
vt 0.148438 0.898438
vt 0.148438 0.898438
vt 0.148438 0.898438
vt 0.148438 0.898438
vt 0.148438 0.898438
vt 0.148438 0.898438
vt 0.148438 0.898438
vt 0.117188 0.835938
vt 0.117188 0.835938
vt 0.117188 0.835938
vt 0.117188 0.835938
vt 0.117188 0.835938
vt 0.117188 0.835938
vt 0.117188 0.835938
vt 0.117188 0.835938
vt 0.117188 0.835938
vt 0.117188 0.835938
vt 0.117188 0.835938
vt 0.117188 0.835938
vt 0.117188 0.835938
vt 0.117188 0.835938
vt 0.117188 0.835938
vt 0.117188 0.835938
vt 0.117188 0.835938
vt 0.117188 0.835938
vt 0.117188 0.835938
vt 0.117188 0.835938
vt 0.117188 0.835938
vt 0.117188 0.835938
vt 0.117188 0.835938
vt 0.117188 0.835938
vt 0.117188 0.835938
vt 0.117188 0.835938
vt 0.117188 0.835938
vt 0.117188 0.835938
vt 0.117188 0.835938
vt 0.117188 0.835938
vt 0.117188 0.835938
vt 0.117188 0.835938
vn -0.0145 0.9113 0.4116
vn -0.0184 0.8745 0.4847
vn -0.0101 0.9568 0.2907
vn -0.0045 0.9916 0.1290
vn 0.4049 -0.9104 -0.0849
vn 0.4048 -0.9103 -0.0862
vn 0.4055 -0.9122 -0.0588
vn 1.0000 0.0000 0.0000
vn -0.4050 0.9103 0.0862
vn -0.4050 0.9104 0.0849
vn -0.4056 0.9121 0.0588
vn 0.4047 -0.9107 -0.0832
vn 0.4046 -0.9106 -0.0845
vn 0.4054 -0.9123 -0.0571
vn -0.4046 -0.9106 -0.0845
vn -0.4047 -0.9107 -0.0832
vn -0.4054 -0.9123 -0.0571
vn -1.0000 0.0000 0.0000
vn 0.4047 0.9107 0.0832
vn 0.4046 0.9106 0.0845
vn 0.4054 0.9123 0.0571
vn 0.4046 0.9106 0.0849
vn 0.4045 0.9105 0.0862
vn 0.4053 0.9123 0.0588
vn -0.4044 -0.9105 -0.0862
vn -0.4044 -0.9106 -0.0849
vn -0.4053 -0.9123 -0.0588
vn 0.4020 -0.9033 -0.1497
vn 0.4019 -0.9028 -0.1531
vn -0.4014 0.9033 0.1515
vn -0.4016 0.9037 0.1482
vn -0.4047 0.9107 0.0832
vn -0.4046 0.9106 0.0845
vn 0.4016 0.9037 0.1482
vn 0.4014 0.9033 0.1515
vn 0.4016 -0.9037 -0.1482
vn 0.4014 -0.9033 -0.1515
vn -0.4014 -0.9033 -0.1515
vn -0.4016 -0.9037 -0.1482
vn 0.4014 0.9036 0.1499
vn 0.4012 0.9031 0.1532
vn -0.4021 0.9027 0.1531
vn -0.4023 0.9032 0.1498
vn -0.4009 -0.9032 -0.1531
vn -0.4011 -0.9037 -0.1498
vn 0.0000 -0.9665 -0.2567
vn 0.1905 -0.9449 -0.2661
vn 0.3957 -0.8874 -0.2366
vn 0.3951 -0.8858 -0.2433
vn -0.3957 0.8856 0.2433
vn -0.3963 0.8871 0.2366
vn -0.1905 -0.9449 -0.2661
vn 0.3947 0.8882 0.2353
vn 0.3940 0.8867 0.2420
vn 0.3943 0.8879 0.2369
vn 0.3936 0.8864 0.2436
vn -0.3940 0.8867 0.2420
vn -0.3947 0.8882 0.2353
vn -0.3937 -0.8882 -0.2368
vn -0.3930 -0.8867 -0.2435
vn 0.3860 -0.8615 -0.3298
vn 0.3850 -0.8587 -0.3383
vn -0.3822 0.8602 0.3376
vn -0.3835 0.8629 0.3292
vn 0.3835 0.8629 0.3292
vn 0.3822 0.8602 0.3376
vn 0.0000 -0.9325 -0.3612
vn -0.3800 -0.8607 -0.3389
vn -0.3814 -0.8633 -0.3305
vn 0.3827 0.8627 0.3306
vn 0.3814 0.8600 0.3390
vn -0.3864 0.8581 0.3382
vn -0.3873 0.8610 0.3297
vn -0.3732 0.8269 0.4207
vn -0.3751 0.8305 0.4118
vn 0.3733 -0.8311 -0.4121
vn 0.3715 -0.8274 -0.4211
vn -0.3678 0.8277 0.4238
vn -0.3696 0.8317 0.4144
vn 0.3696 0.8317 0.4144
vn 0.3678 0.8277 0.4238
vn -0.2050 -0.8740 -0.4406
vn 0.0000 -0.8936 -0.4488
vn 0.2050 -0.8740 -0.4406
vn -0.3658 -0.8295 -0.4220
vn -0.3673 -0.8332 -0.4133
vn 0.3607 -0.8118 -0.4592
vn -0.3607 0.8118 0.4592
vn 0.3691 0.8326 0.4129
vn 0.3675 0.8290 0.4216
vn -0.3659 0.8126 0.4536
vn -0.3607 -0.8118 -0.4592
vn 0.3607 0.8118 0.4592
vn 0.3612 0.8144 0.4543
vn -0.3596 -0.8145 -0.4552
vn 0.3645 -0.8130 -0.4541
vn -0.0000 0.0000 -1.0000
vn -0.0018 0.9993 0.0369
vn 0.0000 -1.0000 0.0000
vn -0.0000 -0.0000 1.0000
vn -0.0168 0.9743 0.2248
vn -0.0191 0.9195 0.3926
vn 0.0000 0.8491 0.5282
vn -0.4054 0.9123 0.0571
s off
f 65/1/1 64/2/1 78/3/1 79/4/1
f 79/4/2 78/3/2 92/5/2 93/6/2
f 40/7/3 39/8/3 64/2/3 65/1/3
f 14/9/4 39/8/4 40/7/4 13/10/4
s 1
f 16/11/5 21/12/6 4/13/7 5/14/7
f 17/15/8 26/16/8 11/17/8 9/18/8
f 24/19/9 23/20/10 7/21/11 8/22/11
f 21/12/8 20/23/8 3/24/8 4/13/8
f 25/25/12 17/15/13 9/18/14 10/26/14
f 19/27/15 25/25/16 10/26/17 1/28/17
f 7/21/18 23/20/18 18/29/18 12/30/18
f 15/31/18 34/32/18 27/33/18 19/27/18
f 26/16/19 22/34/20 6/35/21 11/17/21
f 20/23/22 24/19/23 8/22/24 3/24/24
f 18/29/25 16/11/26 5/14/27 12/30/27
f 32/36/8 33/37/8 26/16/8 17/15/8
f 35/38/8 28/39/8 20/23/8 21/12/8
f 29/40/28 35/38/29 21/12/6 16/11/5
f 30/41/30 34/32/31 15/31/32 22/34/33
f 33/37/34 30/41/35 22/34/20 26/16/19
f 37/42/36 32/36/37 17/15/13 25/25/12
f 23/20/18 36/43/18 38/44/18 18/29/18
f 27/33/38 37/42/39 25/25/16 19/27/15
f 36/43/18 45/45/18 46/46/18 38/44/18
f 28/39/40 31/47/41 24/19/23 20/23/22
f 31/47/42 36/43/43 23/20/10 24/19/9
f 38/44/44 29/40/45 16/11/26 18/29/25
f 51/48/46 50/49/47 32/36/37 37/42/36
f 43/50/48 42/51/49 35/38/29 29/40/28
f 49/52/50 45/45/51 36/43/43 31/47/42
f 41/53/52 51/48/46 37/42/39 27/33/38
f 52/54/53 44/55/54 30/41/35 33/37/34
f 48/56/55 49/52/56 31/47/41 28/39/40
f 34/32/18 47/57/18 41/53/18 27/33/18
f 44/55/57 47/57/58 34/32/31 30/41/30
f 43/50/59 29/40/45 38/44/44 46/46/60
f 47/57/18 58/58/18 53/59/18 41/53/18
f 60/60/8 59/61/8 48/56/8 42/51/8
f 54/62/61 60/60/62 42/51/49 43/50/48
f 55/63/63 58/58/64 47/57/58 44/55/57
f 45/45/18 61/64/18 57/65/18 46/46/18
f 63/66/65 55/63/66 44/55/54 52/54/53
f 50/49/8 56/67/8 63/66/8 52/54/8
f 56/67/67 50/49/47 51/48/46 41/53/52 53/59/67
f 57/65/68 54/62/69 43/50/59 46/46/60
f 59/61/70 62/68/71 49/52/56 48/56/55
f 62/68/72 61/64/73 45/45/51 49/52/50
f 73/69/8 72/70/8 59/61/8 60/60/8
f 75/71/74 69/72/75 61/64/73 62/68/72
f 69/72/18 71/73/18 57/65/18 61/64/18
f 68/74/76 73/69/77 60/60/62 54/62/61
f 74/75/78 66/76/79 58/58/64 55/63/63
f 58/58/18 66/76/18 67/77/18 53/59/18
f 77/78/80 74/75/81 55/63/66 63/66/65
f 56/67/67 53/59/67 67/77/82 76/79/83 70/80/84
f 71/73/85 68/74/86 54/62/69 57/65/68
f 66/76/18 80/81/18 81/82/18 67/77/18
f 89/83/87 70/80/84 76/79/83 88/84/87
f 70/80/8 77/78/8 63/66/8 56/67/8
f 85/85/88 80/81/88 66/76/79 74/75/78
f 72/70/89 75/71/90 62/68/71 59/61/70
f 42/51/8 48/56/8 28/39/8 35/38/8
f 82/86/8 83/87/8 72/70/8 73/69/8
f 69/72/18 87/88/18 91/89/18 71/73/18
f 86/90/91 87/88/91 69/72/75 75/71/74
f 89/83/8 90/91/8 77/78/8 70/80/8
f 88/84/92 76/79/83 67/77/82 81/82/92
f 90/91/93 85/85/93 74/75/81 77/78/80
f 83/87/94 86/90/94 75/71/90 72/70/89
f 91/89/95 84/92/95 68/74/86 71/73/85
f 84/92/96 82/86/96 73/69/77 68/74/76
f 2/93/18 15/31/18 19/27/18 1/28/18
f 94/94/18 95/95/18 96/96/18 97/97/18
f 97/97/97 96/96/97 98/98/97 99/99/97
f 98/98/98 96/96/98 95/95/98 100/100/98
f 97/97/99 99/99/99 101/101/99 94/94/99
f 99/99/8 98/98/8 100/100/8 101/101/8
f 102/102/97 103/103/97 104/104/97 105/105/97
f 105/105/8 104/104/8 106/106/8 107/107/8
f 107/107/100 106/106/100 108/108/100 109/109/100
f 102/102/99 105/105/99 107/107/99 109/109/99
f 104/104/101 103/103/101 108/108/101 106/106/101
f 109/109/18 108/108/18 103/103/18 102/102/18
f 110/110/97 111/111/97 112/112/97 113/113/97
f 113/113/8 112/112/8 114/114/8 115/115/8
f 115/115/100 114/114/100 116/116/100 117/117/100
f 110/110/99 113/113/99 115/115/99 117/117/99
f 112/112/102 111/111/102 116/116/102 114/114/102
f 118/118/97 119/119/97 120/120/97 121/121/97
f 117/117/18 116/116/18 111/111/18 110/110/18
f 120/120/8 119/119/8 122/122/8 123/123/8
f 123/123/100 122/122/100 124/124/100 125/125/100
f 121/121/99 120/120/99 123/123/99 125/125/99
f 119/119/103 118/118/103 124/124/103 122/122/103
f 125/125/18 124/124/18 118/118/18 121/121/18
f 95/95/100 94/94/100 101/101/100 100/100/100
f 22/34/33 15/31/32 2/93/104 6/35/104
f 32/36/8 50/49/8 52/54/8 33/37/8
