# Blender v2.83.4 OBJ File: 'decos.blend'
# www.blender.org
o Cube.006_Cube.023
v -1.285865 0.738857 -19.833876
v -1.285865 1.050489 -19.833876
v 1.005865 0.741049 -19.833876
v 1.005865 1.052710 -19.833876
v 0.794647 0.647166 -19.833876
v -1.074647 1.144349 -19.833876
v 0.794647 1.146565 -19.833876
v 0.583429 1.052671 -19.833876
v -1.074647 0.644997 -19.833876
v -0.863429 0.738857 -19.833876
v -0.863429 1.050489 -19.833876
v 0.583429 0.741009 -19.833876
v -1.106476 1.003419 -19.713522
v 0.826476 1.005924 -19.713522
v -1.285865 7.316421 0.166123
v -1.285865 7.628053 0.166123
v 1.005865 7.316421 0.166123
v 1.005865 7.628053 0.166123
v 0.794647 7.222561 0.166123
v -1.074647 7.721914 0.166123
v 0.794647 7.721914 0.166123
v 0.583429 7.628053 0.166123
v -1.074647 7.222561 0.166123
v -0.863429 7.316421 0.166123
v -0.863429 7.628053 0.166123
v 0.583429 7.316421 0.166123
v -1.106476 7.031218 -0.713521
v 0.826476 7.077349 -0.713521
v -0.341679 -3.874005 -19.833260
v -0.341679 -3.874005 -19.647770
v -0.341679 0.951815 -19.647770
v -0.341679 0.945033 -19.833260
v 0.061679 -3.874005 -19.647770
v 0.061679 0.952615 -19.647770
v 0.061679 0.945715 -19.833260
v 0.061679 -3.874005 -19.833260
v -0.341679 -3.874006 -12.970124
v 0.061679 -3.874006 -12.970124
v 0.061679 1.877373 -12.970123
v -0.341679 1.870174 -12.970123
v 0.061679 -3.874006 -13.341105
v 0.061679 1.791509 -13.341104
v -0.341679 -3.874006 -13.341105
v -0.341679 1.784831 -13.341104
v -0.341679 -3.874007 -6.292478
v 0.061679 -3.874007 -6.292478
v 0.061679 4.111323 -6.292477
v -0.341679 4.103420 -6.292477
v 0.061679 -3.874007 -6.663456
v 0.061679 3.953385 -6.663455
v -0.341679 -3.874007 -6.663456
v -0.341679 3.944572 -6.663455
v -0.341679 7.521544 0.166123
v -0.341679 -3.874008 0.166121
v 0.061679 -3.874008 0.166121
v 0.061679 7.521544 0.166123
v 0.061679 -3.874008 -0.019368
v 0.061679 7.406162 -0.019366
v -0.341679 -3.874008 -0.019368
v -0.341679 7.406162 -0.019366
vt 0.289062 0.960938
vt 0.289062 0.960938
vt 0.289062 0.960938
vt 0.289062 0.960938
vt 0.148438 0.898438
vt 0.148438 0.898438
vt 0.148438 0.898438
vt 0.148438 0.898438
vt 0.148438 0.898438
vt 0.148438 0.898438
vt 0.148438 0.898438
vt 0.148438 0.898438
vt 0.148438 0.898438
vt 0.148438 0.898438
vt 0.148438 0.898438
vt 0.148438 0.898438
vt 0.148438 0.898438
vt 0.148438 0.898438
vt 0.148438 0.898438
vt 0.148438 0.898438
vt 0.148438 0.898438
vt 0.148438 0.898438
vt 0.148438 0.898438
vt 0.148438 0.898438
vt 0.148438 0.898438
vt 0.148438 0.898438
vt 0.148438 0.898438
vt 0.148438 0.898438
vt 0.117188 0.835938
vt 0.117188 0.835938
vt 0.117188 0.835938
vt 0.117188 0.835938
vt 0.117188 0.835938
vt 0.117188 0.835938
vt 0.117188 0.835938
vt 0.117188 0.835938
vt 0.117188 0.835938
vt 0.117188 0.835938
vt 0.117188 0.835938
vt 0.117188 0.835938
vt 0.117188 0.835938
vt 0.117188 0.835938
vt 0.117188 0.835938
vt 0.117188 0.835938
vt 0.117188 0.835938
vt 0.117188 0.835938
vt 0.117188 0.835938
vt 0.117188 0.835938
vt 0.117188 0.835938
vt 0.117188 0.835938
vt 0.117188 0.835938
vt 0.117188 0.835938
vt 0.117188 0.835938
vt 0.117188 0.835938
vt 0.117188 0.835938
vt 0.117188 0.835938
vt 0.117188 0.835938
vt 0.117188 0.835938
vt 0.117188 0.835938
vt 0.117188 0.835938
vn -0.0120 0.9528 -0.3034
vn -1.0000 0.0000 0.0000
vn 1.0000 0.0000 0.0000
vn 0.3890 -0.8752 0.2877
vn -0.3889 0.8752 -0.2878
vn -0.3890 0.8752 -0.2877
vn 0.3889 -0.8752 0.2878
vn -0.3889 -0.8752 0.2878
vn 0.3889 0.8752 -0.2878
vn 0.3889 0.8752 -0.2877
vn 0.3889 0.8759 -0.2855
vn -0.3889 -0.8752 0.2877
vn 0.0000 0.0000 1.0000
vn -0.0018 0.9993 -0.0369
vn 0.0000 -1.0000 -0.0000
vn -0.0000 0.0000 -1.0000
vn -0.0168 0.9743 -0.2248
vn -0.0191 0.9195 -0.3926
vn 0.0000 0.8491 -0.5282
s off
f 14/1/1 13/2/1 27/3/1 28/4/1
s 1
f 1/5/2 15/6/2 16/7/2 2/8/2
f 3/9/3 4/10/3 18/11/3 17/12/3
f 5/13/4 3/9/4 17/12/4 19/14/4
f 6/15/5 2/8/5 16/7/5 20/16/5
f 7/17/6 8/18/6 22/19/6 21/20/6
f 9/21/7 10/22/7 24/23/7 23/24/7
f 11/25/3 25/26/3 24/23/3 10/22/3
f 12/27/2 26/28/2 22/19/2 8/18/2
f 1/5/8 9/21/8 23/24/8 15/6/8
f 11/25/9 6/15/9 20/16/9 25/26/9
f 4/10/10 7/17/11 21/20/10 18/11/10
f 12/27/12 5/13/12 19/14/12 26/28/12
f 29/29/2 30/30/2 31/31/2 32/32/2
f 30/30/13 33/33/13 34/34/13 31/31/13
f 34/34/14 35/35/14 32/32/14 31/31/14
f 30/30/15 29/29/15 36/36/15 33/33/15
f 33/33/3 36/36/3 35/35/3 34/34/3
f 37/37/13 38/38/13 39/39/13 40/40/13
f 38/38/3 41/41/3 42/42/3 39/39/3
f 41/41/16 43/43/16 44/44/16 42/42/16
f 37/37/15 43/43/15 41/41/15 38/38/15
f 39/39/17 42/42/17 44/44/17 40/40/17
f 43/43/2 37/37/2 40/40/2 44/44/2
f 45/45/13 46/46/13 47/47/13 48/48/13
f 46/46/3 49/49/3 50/50/3 47/47/3
f 49/49/16 51/51/16 52/52/16 50/50/16
f 45/45/15 51/51/15 49/49/15 46/46/15
f 47/47/18 50/50/18 52/52/18 48/48/18
f 53/53/13 54/54/13 55/55/13 56/56/13
f 51/51/2 45/45/2 48/48/2 52/52/2
f 55/55/3 57/57/3 58/58/3 56/56/3
f 57/57/16 59/59/16 60/60/16 58/58/16
f 54/54/15 59/59/15 57/57/15 55/55/15
f 56/56/19 58/58/19 60/60/19 53/53/19
f 59/59/2 54/54/2 53/53/2 60/60/2
f 32/32/16 35/35/16 36/36/16 29/29/16
