# Blender v2.90.0 Alpha OBJ File: 'Decos.blend'
# www.blender.org
o PipeStraightTillable_Cube.003_PipeStraightTillable_Cube.003
v 0.000000 0.000001 -0.412665
v -5.000000 0.000001 -0.412665
v -5.000000 0.000002 0.412665
v 0.000000 0.000002 0.412665
v -5.000000 -0.825328 0.412665
v 0.000000 -0.825328 0.412665
v -5.000000 -0.825329 -0.412665
v 0.000000 -0.825329 -0.412665
v -0.929787 0.000001 -0.412665
v -1.953191 0.000001 -0.412665
v -2.976596 0.000001 -0.412665
v -4.000000 0.000001 -0.412665
v -4.000000 0.000002 0.412665
v -2.976596 0.000002 0.412665
v -1.953191 0.000002 0.412665
v -0.929787 0.000002 0.412665
v -4.000000 -0.825328 0.412665
v -2.976596 -0.825328 0.412665
v -1.953191 -0.825328 0.412665
v -0.929787 -0.825328 0.412665
v -4.000000 -0.825329 -0.412665
v -2.976596 -0.825329 -0.412665
v -1.953191 -0.825329 -0.412665
v -0.929787 -0.825329 -0.412665
v -0.953413 0.009217 -0.421881
v -1.975745 0.009217 -0.421881
v -2.998078 0.009217 -0.421881
v -4.020410 0.009217 -0.421881
v -4.020410 0.009218 0.421881
v -2.998078 0.009218 0.421881
v -1.975745 0.009218 0.421881
v -0.953413 0.009218 0.421881
v -4.020410 -1.302455 0.421881
v -2.998078 -1.302455 0.421881
v -1.975745 -1.302455 0.421881
v -0.953413 -1.302455 0.421881
v -4.020410 -1.302455 -0.421881
v -2.998078 -1.302455 -0.421881
v -1.975745 -1.302455 -0.421881
v -0.953413 -1.302455 -0.421881
v -0.903512 0.009217 -0.421881
v -1.925844 0.009217 -0.421881
v -2.948176 0.009217 -0.421881
v -3.970508 0.009217 -0.421881
v -3.970508 0.009218 0.421881
v -2.948176 0.009218 0.421881
v -1.925844 0.009218 0.421881
v -0.903512 0.009218 0.421881
v -3.970508 -1.302455 0.421881
v -2.948176 -1.302455 0.421881
v -1.925844 -1.302455 0.421881
v -0.903512 -1.302455 0.421881
v -3.970508 -1.302455 -0.421881
v -2.948176 -1.302455 -0.421881
v -1.925844 -1.302455 -0.421881
v -0.903512 -1.302455 -0.421881
v -0.953413 -1.302455 -0.481439
v -0.953413 0.068775 -0.481439
v -1.975745 -1.302455 -0.481439
v -1.975745 0.068775 -0.481439
v -2.998078 -1.302455 -0.481439
v -2.998078 0.068775 -0.481439
v -4.020410 -1.302455 -0.481439
v -4.020410 0.068775 -0.481439
v -4.020410 -1.302455 0.481439
v -4.020410 0.068776 0.481439
v -2.998078 -1.302455 0.481439
v -2.998078 0.068776 0.481439
v -1.975745 -1.302455 0.481439
v -1.975745 0.068776 0.481439
v -0.953413 -1.302455 0.481439
v -0.953413 0.068776 0.481439
v -0.903512 -1.302455 -0.481439
v -0.903512 0.068775 -0.481439
v -1.925844 -1.302455 -0.481439
v -1.925844 0.068775 -0.481439
v -2.948176 -1.302455 -0.481439
v -2.948176 0.068775 -0.481439
v -3.970508 -1.302455 -0.481439
v -3.970508 0.068775 -0.481439
v -3.970508 -1.302455 0.481439
v -3.970508 0.068776 0.481439
v -2.948176 -1.302455 0.481439
v -2.948176 0.068776 0.481439
v -1.925844 -1.302455 0.481439
v -1.925844 0.068776 0.481439
v -0.903512 -1.302455 0.481439
v -0.903512 0.068776 0.481439
v -4.500000 -0.412663 0.496845
v -3.488298 -0.412663 0.496845
v -2.464893 -0.412663 0.496845
v -1.441489 -0.412663 0.496845
v -0.464893 -0.412663 0.496845
v -4.500000 -0.412663 -0.496846
v -3.488298 -0.412663 -0.496846
v -2.464893 -0.412663 -0.496846
v -1.441489 -0.412663 -0.496846
v -0.464893 -0.412663 -0.496846
v -0.049562 0.009217 -0.421881
v -0.049562 0.009218 0.421881
v -0.049562 -1.302455 0.421881
v -0.049562 -1.302455 -0.421881
v 0.000339 0.009217 -0.421881
v 0.000339 0.009218 0.421881
v 0.000339 -1.302455 0.421881
v 0.000339 -1.302455 -0.421881
v -0.049562 -1.302455 -0.481439
v -0.049562 0.068775 -0.481439
v -0.049562 -1.302455 0.481439
v -0.049562 0.068776 0.481439
v 0.000339 -1.302455 -0.481439
v 0.000339 0.068775 -0.481439
v 0.000339 -1.302455 0.481439
v 0.000339 0.068776 0.481439
v -4.999994 0.009217 -0.421881
v -4.999994 0.009218 0.421881
v -4.999994 -1.302455 0.421881
v -4.999994 -1.302455 -0.421881
v -4.950092 0.009217 -0.421881
v -4.950092 0.009218 0.421881
v -4.950092 -1.302455 0.421881
v -4.950092 -1.302455 -0.421881
v -4.999994 -1.302455 -0.481439
v -4.999994 0.068775 -0.481439
v -4.999994 -1.302455 0.481439
v -4.999994 0.068776 0.481439
v -4.950092 -1.302455 -0.481439
v -4.950092 0.068775 -0.481439
v -4.950092 -1.302455 0.481439
v -4.950092 0.068776 0.481439
vt 0.257812 0.804688
vt 0.257812 0.804688
vt 0.257812 0.804688
vt 0.257812 0.804688
vt 0.257812 0.804688
vt 0.257812 0.804688
vt 0.257812 0.804688
vt 0.257812 0.804688
vt 0.257812 0.804688
vt 0.257812 0.804688
vt 0.257812 0.804688
vt 0.257812 0.804688
vt 0.257812 0.804688
vt 0.257812 0.804688
vt 0.257812 0.804688
vt 0.257812 0.804688
vt 0.257812 0.804688
vt 0.257812 0.804688
vt 0.257812 0.804688
vt 0.257812 0.804688
vt 0.257812 0.804688
vt 0.257812 0.804688
vt 0.257812 0.804688
vt 0.257812 0.804688
vt 0.257812 0.804688
vt 0.257812 0.804688
vt 0.257812 0.804688
vt 0.257812 0.804688
vt 0.257812 0.804688
vt 0.257812 0.804688
vt 0.257812 0.804688
vt 0.257812 0.804688
vt 0.257812 0.804688
vt 0.257812 0.804688
vt 0.257812 0.804688
vt 0.257812 0.804688
vt 0.257812 0.804688
vt 0.257812 0.804688
vt 0.257812 0.804688
vt 0.257812 0.804688
vt 0.257812 0.804688
vt 0.257812 0.804688
vt 0.257812 0.804688
vt 0.257812 0.804688
vt 0.257812 0.804688
vt 0.257812 0.804688
vt 0.257812 0.804688
vt 0.257812 0.804688
vt 0.257812 0.804688
vt 0.257812 0.804688
vt 0.257812 0.804688
vt 0.257812 0.804688
vt 0.257812 0.804688
vt 0.257812 0.804688
vt 0.257812 0.804688
vt 0.257812 0.804688
vt 0.257812 0.804688
vt 0.257812 0.804688
vt 0.257812 0.804688
vt 0.257812 0.804688
vt 0.257812 0.804688
vt 0.257812 0.804688
vt 0.257812 0.804688
vt 0.257812 0.804688
vt 0.257812 0.804688
vt 0.257812 0.804688
vt 0.257812 0.804688
vt 0.257812 0.804688
vt 0.257812 0.804688
vt 0.257812 0.804688
vt 0.257812 0.804688
vt 0.257812 0.804688
vt 0.257812 0.804688
vt 0.257812 0.804688
vt 0.257812 0.804688
vt 0.257812 0.804688
vt 0.257812 0.804688
vt 0.257812 0.804688
vt 0.257812 0.804688
vt 0.257812 0.804688
vt 0.257812 0.804688
vt 0.257812 0.804688
vt 0.257812 0.804688
vt 0.257812 0.804688
vt 0.257812 0.804688
vt 0.257812 0.804688
vt 0.257812 0.804688
vt 0.257812 0.804688
vt 0.257812 0.804688
vt 0.257812 0.804688
vt 0.257812 0.804688
vt 0.257812 0.804688
vt 0.257812 0.804688
vt 0.257812 0.804688
vt 0.257812 0.804688
vt 0.257812 0.804688
vt 0.257812 0.804688
vt 0.257812 0.804688
vt 0.257812 0.804688
vt 0.257812 0.804688
vt 0.257812 0.804688
vt 0.257812 0.804688
vt 0.257812 0.804688
vt 0.257812 0.804688
vt 0.257812 0.804688
vt 0.257812 0.804688
vt 0.257812 0.804688
vt 0.257812 0.804688
vt 0.257812 0.804688
vt 0.257812 0.804688
vt 0.257812 0.804688
vt 0.257812 0.804688
vt 0.257812 0.804688
vt 0.257812 0.804688
vt 0.257812 0.804688
vt 0.257812 0.804688
vt 0.257812 0.804688
vt 0.257812 0.804688
vt 0.257812 0.804688
vt 0.257812 0.804688
vt 0.257812 0.804688
vt 0.257812 0.804688
vt 0.257812 0.804688
vt 0.257812 0.804688
vt 0.257812 0.804688
vt 0.257812 0.804688
vt 0.257812 0.804688
vt 0.257812 0.804688
vt 0.257812 0.804688
vt 0.257812 0.804688
vn 0.0000 -0.0000 1.0000
vn 0.0000 0.0000 -1.0000
vn 0.0000 1.0000 -0.0000
vn 1.0000 0.0000 0.0000
vn -1.0000 0.0000 0.0000
vn 0.0000 -0.1999 0.9798
vn 0.1660 -0.0000 0.9861
vn -0.1623 -0.0000 0.9867
vn -0.1660 -0.0000 0.9861
vn 0.0000 0.1999 0.9798
vn 0.1623 -0.0000 0.9867
vn -0.1782 -0.0000 0.9840
vn 0.1782 -0.0000 0.9840
s off
f 70/1/1 69/2/1 85/3/1 86/4/1
f 64/5/2 80/6/2 79/7/2 63/8/2
f 68/9/3 84/10/3 78/11/3 62/12/3
f 58/13/2 74/14/2 73/15/2 57/16/2
f 72/17/1 71/18/1 87/19/1 88/20/1
f 66/21/1 65/22/1 81/23/1 82/24/1
f 66/21/3 82/24/3 80/6/3 64/5/3
f 60/25/2 76/26/2 75/27/2 59/28/2
f 72/17/3 88/20/3 74/14/3 58/13/3
f 68/9/1 67/29/1 83/30/1 84/10/1
f 62/12/2 78/11/2 77/31/2 61/32/2
f 70/1/3 86/4/3 76/26/3 60/25/3
f 48/33/4 88/20/4 87/19/4 52/34/4
f 35/35/5 69/2/5 70/1/5 31/36/5
f 48/33/4 41/37/4 74/14/4 88/20/4
f 36/38/5 71/18/5 72/17/5 32/39/5
f 47/40/4 42/41/4 76/26/4 86/4/4
f 25/42/5 32/39/5 72/17/5 58/13/5
f 46/43/4 43/44/4 78/11/4 84/10/4
f 26/45/5 31/36/5 70/1/5 60/25/5
f 45/46/4 44/47/4 80/6/4 82/24/4
f 27/48/5 30/49/5 68/9/5 62/12/5
f 28/50/5 29/51/5 66/21/5 64/5/5
f 41/37/4 56/52/4 73/15/4 74/14/4
f 42/41/4 55/53/4 75/27/4 76/26/4
f 40/54/5 25/42/5 58/13/5 57/16/5
f 43/44/4 54/55/4 77/31/4 78/11/4
f 39/56/5 26/45/5 60/25/5 59/28/5
f 44/47/4 53/57/4 79/7/4 80/6/4
f 38/58/5 27/48/5 62/12/5 61/32/5
f 45/46/4 82/24/4 81/23/4 49/59/4
f 37/60/5 28/50/5 64/5/5 63/8/5
f 46/43/4 84/10/4 83/30/4 50/61/4
f 33/62/5 65/22/5 66/21/5 29/51/5
f 47/40/4 86/4/4 85/3/4 51/63/4
f 34/64/5 67/29/5 68/9/5 30/49/5
f 108/65/2 112/66/2 111/67/2 107/68/2
f 110/69/1 109/70/1 113/71/1 114/72/1
f 110/69/3 114/72/3 112/66/3 108/65/3
f 104/73/4 114/72/4 113/71/4 105/74/4
f 104/73/4 103/75/4 112/66/4 114/72/4
f 101/76/5 109/70/5 110/69/5 100/77/5
f 99/78/5 100/77/5 110/69/5 108/65/5
f 103/75/4 106/79/4 111/67/4 112/66/4
f 102/80/5 99/78/5 108/65/5 107/68/5
f 124/81/2 128/82/2 127/83/2 123/84/2
f 126/85/1 125/86/1 129/87/1 130/88/1
f 126/85/3 130/88/3 128/82/3 124/81/3
f 120/89/4 130/88/4 129/87/4 121/90/4
f 120/89/4 119/91/4 128/82/4 130/88/4
f 117/92/5 125/86/5 126/85/5 116/93/5
f 115/94/5 116/93/5 126/85/5 124/81/5
f 119/91/4 122/95/4 127/83/4 128/82/4
f 118/96/5 115/94/5 124/81/5 123/84/5
s 1
f 12/97/3 2/98/3 3/99/3 13/100/3
f 20/101/6 6/102/6 93/103/6
f 21/104/2 7/105/2 2/98/2 12/97/2
f 5/106/5 3/99/5 2/98/5
f 7/105/5 5/106/5 2/98/5
f 6/102/4 8/107/4 1/108/4
f 4/109/4 6/102/4 1/108/4
f 8/107/2 24/110/2 9/111/2 1/108/2
f 24/110/2 23/112/2 10/113/2 9/111/2
f 23/112/2 22/114/2 11/115/2 10/113/2
f 22/114/2 21/104/2 12/97/2 11/115/2
f 17/116/7 13/100/7 89/117/7
f 13/100/8 17/116/8 90/118/8
f 14/119/8 18/120/8 91/121/8
f 19/122/6 20/101/6 92/123/6
f 1/108/3 9/111/3 16/124/3 4/109/3
f 9/111/3 10/113/3 15/125/3 16/124/3
f 10/113/3 11/115/3 14/119/3 15/125/3
f 11/115/3 12/97/3 13/100/3 14/119/3
f 3/99/9 5/106/9 89/117/9
f 5/106/6 17/116/6 89/117/6
f 13/100/10 3/99/10 89/117/10
f 17/116/6 18/120/6 90/118/6
f 14/119/10 13/100/10 90/118/10
f 18/120/11 14/119/11 90/118/11
f 18/120/6 19/122/6 91/121/6
f 15/125/10 14/119/10 91/121/10
f 19/122/11 15/125/11 91/121/11
f 16/124/10 15/125/10 92/123/10
f 20/101/11 16/124/11 92/123/11
f 15/125/8 19/122/8 92/123/8
f 4/109/10 16/124/10 93/103/10
f 16/124/12 20/101/12 93/103/12
f 6/102/13 4/109/13 93/103/13
f 24/110/10 8/107/10 98/126/10
f 21/104/9 12/97/9 94/127/9
f 12/97/11 21/104/11 95/128/11
f 11/115/11 22/114/11 96/129/11
f 23/112/10 24/110/10 97/130/10
f 2/98/7 7/105/7 94/127/7
f 7/105/10 21/104/10 94/127/10
f 12/97/6 2/98/6 94/127/6
f 21/104/10 22/114/10 95/128/10
f 11/115/6 12/97/6 95/128/6
f 22/114/8 11/115/8 95/128/8
f 22/114/10 23/112/10 96/129/10
f 10/113/6 11/115/6 96/129/6
f 23/112/8 10/113/8 96/129/8
f 9/111/6 10/113/6 97/130/6
f 24/110/8 9/111/8 97/130/8
f 10/113/11 23/112/11 97/130/11
f 1/108/6 9/111/6 98/126/6
f 9/111/13 24/110/13 98/126/13
f 8/107/12 1/108/12 98/126/12
