# Blender v2.90.0 Alpha OBJ File: 'Decos.blend'
# www.blender.org
o Cube.002_Cube.003
v -0.003038 1.024251 -0.007327
v -0.499377 1.024251 0.200001
v -0.499377 0.990738 0.233334
v 0.020685 0.990738 0.016397
v -0.287728 1.024251 -0.292017
v -0.499377 1.024251 -0.199999
v -0.499377 0.990738 -0.166666
v -0.264004 0.990738 -0.268293
v -0.253285 0.993282 -0.310817
v -0.302670 0.993282 -0.261432
v -0.042490 0.993282 -0.001252
v 0.006895 0.993282 -0.050637
v -0.026763 0.990738 -0.031051
v -0.499377 0.990738 0.166668
v -0.311453 0.990738 -0.315741
v -0.499377 0.990738 -0.233332
v 0.500623 0.990482 -0.499999
v -0.499377 0.990482 -0.499999
v -0.499377 0.990481 0.500001
v 0.500623 0.990481 0.500001
v 0.175821 0.990738 -0.499999
v 0.210028 1.024251 -0.499999
v 0.244235 0.990738 -0.499999
v -0.226989 0.990738 -0.499999
v -0.192783 1.024251 -0.499999
v -0.158576 0.990738 -0.499999
v 0.500623 0.507409 0.500001
v -0.499377 0.507409 0.500001
v 0.500623 0.507409 -0.499999
v -0.499377 0.507409 -0.499999
vt 0.210938 0.789062
vt 0.210938 0.789062
vt 0.210938 0.789062
vt 0.210938 0.789062
vt 0.210938 0.789062
vt 0.210938 0.789062
vt 0.210938 0.789062
vt 0.210938 0.789062
vt 0.210938 0.789062
vt 0.210938 0.789062
vt 0.210938 0.789062
vt 0.210938 0.789062
vt 0.210938 0.789062
vt 0.210938 0.789062
vt 0.210938 0.789062
vt 0.210938 0.789062
vt 0.132812 0.773438
vt 0.132812 0.773438
vt 0.132812 0.773438
vt 0.132812 0.773438
vt 0.210938 0.789062
vt 0.210938 0.789062
vt 0.210938 0.789062
vt 0.210938 0.789062
vt 0.210938 0.789062
vt 0.210938 0.789062
vt 0.132812 0.773438
vt 0.132812 0.773438
vt 0.132812 0.773438
vt 0.132812 0.773438
vn 0.2832 0.6778 0.6785
vn 0.2923 0.6778 0.6747
vn 0.0000 1.0000 0.0000
vn -0.2836 0.6778 -0.6783
vn -0.2942 0.6778 -0.6739
vn -0.6709 0.6825 -0.2900
vn 0.6708 0.6825 0.2902
vn -0.6649 0.6823 -0.3041
vn 0.6653 0.6823 0.3032
vn 0.0000 -0.0000 1.0000
vn 1.0000 0.0000 0.0000
vn 0.0000 0.0000 -1.0000
vn -1.0000 0.0000 0.0000
s 1
f 1/1/1 2/2/1 3/3/1 4/4/1
f 5/5/2 6/6/2 7/7/2 8/8/2
f 9/9/3 10/10/3 11/11/3 12/12/3
f 13/13/4 14/14/4 2/2/4 1/1/4
f 15/15/5 16/16/5 6/6/5 5/5/5
f 17/17/3 18/18/3 19/19/3 20/20/3
f 21/21/6 13/13/6 1/1/6 22/22/6
f 22/22/7 1/1/7 4/4/7 23/23/7
f 24/24/8 15/15/8 5/5/8 25/25/8
f 25/25/9 5/5/9 8/8/9 26/26/9
f 27/27/10 20/20/10 19/19/10 28/28/10
f 29/29/11 17/17/11 20/20/11 27/27/11
f 30/30/12 18/18/12 17/17/12 29/29/12
f 28/28/13 19/19/13 18/18/13 30/30/13
