# Blender v2.90.0 Alpha OBJ File: 'Decos.blend'
# www.blender.org
o Cube.001_Cube.002
v -0.499377 0.511487 0.500001
v -0.499377 0.964390 0.500001
v -0.499377 0.964390 -0.499999
v -0.499377 0.511487 -0.499999
v 0.500623 0.511487 -0.499999
v 0.500623 0.964390 -0.499999
v 0.500623 0.964390 0.500001
v 0.500623 0.511487 0.500001
vt 0.132812 0.773438
vt 0.132812 0.773438
vt 0.132812 0.773438
vt 0.132812 0.773438
vt 0.132812 0.773438
vt 0.132812 0.773438
vt 0.132812 0.773438
vt 0.132812 0.773438
vn -1.0000 0.0000 0.0000
vn 1.0000 0.0000 0.0000
vn 0.0000 0.0000 -1.0000
vn 0.0000 -0.0000 1.0000
vn 0.0000 1.0000 0.0000
s 1
f 1/1/1 2/2/1 3/3/1 4/4/1
f 5/5/2 6/6/2 7/7/2 8/8/2
f 4/4/3 3/3/3 6/6/3 5/5/3
f 8/8/4 7/7/4 2/2/4 1/1/4
f 6/6/5 3/3/5 2/2/5 7/7/5
