# Blender v2.90.0 Alpha OBJ File: 'Decos.blend'
# www.blender.org
o PipeStraightTillable_Cube.003_PipeStraightTillable_Cube.003
v 0.000000 0.000001 -0.412665
v -5.000000 0.000001 -0.412665
v -5.000000 0.000002 0.412665
v 0.000000 0.000002 0.412665
v -5.000000 -0.825328 0.412665
v 0.000000 -0.825328 0.412665
v -5.000000 -0.825329 -0.412665
v 0.000000 -0.825329 -0.412665
vt 0.257812 0.804688
vt 0.257812 0.804688
vt 0.257812 0.804688
vt 0.257812 0.804688
vt 0.257812 0.804688
vt 0.257812 0.804688
vt 0.257812 0.804688
vt 0.257812 0.804688
vn -0.0000 1.0000 -0.0000
vn 0.0000 -0.0000 1.0000
vn 0.0000 -1.0000 0.0000
vn -0.0000 0.0000 -1.0000
vn -1.0000 0.0000 0.0000
vn 1.0000 0.0000 0.0000
s 1
f 1/1/1 2/2/1 3/3/1 4/4/1
f 5/5/2 6/6/2 4/4/2 3/3/2
f 6/6/3 5/5/3 7/7/3 8/8/3
f 8/8/4 7/7/4 2/2/4 1/1/4
f 5/5/5 3/3/5 2/2/5
f 7/7/5 5/5/5 2/2/5
f 6/6/6 8/8/6 1/1/6
f 4/4/6 6/6/6 1/1/6
