# Blender v2.90.0 Alpha OBJ File: 'Decos.blend'
# www.blender.org
o PipeStraightTillable_Cube.003_PipeStraightTillable_Cube.002
v 0.000000 0.000002 0.412665
v 0.000000 -0.825329 -0.412665
v -1.140638 -0.826153 0.412665
v 0.000000 -0.825328 0.412665
v 0.000000 0.000001 -0.412665
v -1.140638 -0.826153 -0.412665
v -0.677088 -0.301453 -0.412665
v -0.677088 -0.301453 0.412665
vt 0.257812 0.804688
vt 0.257812 0.804688
vt 0.257812 0.804688
vt 0.257812 0.804688
vt 0.257812 0.804688
vt 0.257812 0.804688
vt 0.257812 0.804688
vt 0.257812 0.804688
vn 1.0000 0.0000 0.0000
vn 0.0007 -1.0000 0.0000
vn -0.0000 0.0000 -1.0000
vn -0.5916 0.8062 -0.0000
vn -0.7494 0.6621 -0.0000
vn 0.0000 -0.0000 1.0000
vn -0.4067 0.9135 -0.0000
s 1
f 1/1/1 4/2/1 5/3/1
f 4/2/1 2/4/1 5/3/1
f 4/2/2 6/5/2 2/4/2
f 3/6/2 6/5/2 4/2/2
f 2/4/3 6/5/3 7/7/3
f 7/7/4 6/5/5 3/6/5 8/8/4
f 8/8/6 3/6/6 4/2/6
f 1/1/6 8/8/6 4/2/6
f 5/3/7 7/7/4 8/8/4 1/1/7
f 2/4/3 7/7/3 5/3/3
