# Blender v2.90.0 Alpha OBJ File: 'Decos.blend'
# www.blender.org
o Detail_Cube.025
v -6.823677 1.434714 8.837947
v -6.958247 0.946668 8.966275
v -6.823677 0.458621 8.837947
v -6.708072 0.394722 8.722342
v -6.335633 -0.517472 8.288674
v 6.958247 0.946668 8.966275
v 6.823677 1.434714 8.837947
v 6.708072 0.394722 8.722342
v 6.823677 0.458621 8.837947
v 6.335633 -0.517472 8.288674
v -6.958247 0.946674 -8.966275
v -6.823677 1.434720 -8.837947
v -6.708072 0.394728 -8.722342
v -6.823677 0.458627 -8.837947
v -6.335633 -0.517466 -8.288674
v 6.823677 1.434720 -8.837947
v 6.958247 0.946674 -8.966275
v 6.823677 0.458627 -8.837947
v 6.708072 0.394728 -8.722342
v 6.335633 -0.517466 -8.288674
v -6.743935 1.190691 8.712173
v 6.743935 1.190691 8.712173
v -6.743935 1.190697 -8.712173
v 6.743935 1.190697 -8.712173
v -6.743935 0.702644 8.712173
v 6.743935 0.702644 8.712173
v -6.743935 0.702650 -8.712173
v 6.743935 0.702650 -8.712173
v -6.823677 1.434717 0.000000
v -6.823677 0.458624 0.000000
v -6.958247 0.946671 0.000000
v -6.335633 -0.517469 0.000000
v -6.708072 0.394725 0.000000
v 6.823677 1.434717 0.000000
v 6.823677 0.458624 0.000000
v 6.958247 0.946671 0.000000
v 6.335633 -0.517469 0.000000
v 6.708072 0.394725 0.000000
v 6.743935 1.190694 0.000000
v -6.743935 1.190694 0.000000
v 6.743935 0.702647 0.000000
v -6.743935 0.702647 0.000000
v -6.414628 -0.061375 8.366066
v 6.414628 -0.061375 8.366066
v -6.414628 -0.061369 -8.366066
v 6.414628 -0.061369 -8.366066
v 6.414628 -0.061372 0.000000
v -6.414628 -0.061372 0.000000
vt 0.101562 0.773438
vt 0.101562 0.773438
vt 0.101562 0.773438
vt 0.101562 0.773438
vt 0.101562 0.773438
vt 0.101562 0.773438
vt 0.101562 0.773438
vt 0.101562 0.773438
vt 0.101562 0.773438
vt 0.101562 0.773438
vt 0.101562 0.773438
vt 0.101562 0.773438
vt 0.101562 0.773438
vt 0.101562 0.773438
vt 0.101562 0.773438
vt 0.101562 0.773438
vt 0.101562 0.773438
vt 0.101562 0.773438
vt 0.101562 0.773438
vt 0.101562 0.773438
vt 0.101562 0.773438
vt 0.101562 0.773438
vt 0.101562 0.773438
vt 0.101562 0.773438
vt 0.101562 0.773438
vt 0.101562 0.773438
vt 0.101562 0.773438
vt 0.101562 0.773438
vt 0.101562 0.773438
vt 0.101562 0.773438
vt 0.101562 0.773438
vt 0.101562 0.773438
vt 0.101562 0.773438
vt 0.101562 0.773438
vt 0.101562 0.773438
vt 0.101562 0.773438
vt 0.101562 0.773438
vt 0.101562 0.773438
vt 0.101562 0.773438
vt 0.101562 0.773438
vt 0.101562 0.773438
vt 0.101562 0.773438
vt 0.101562 0.773438
vt 0.101562 0.773438
vt 0.101562 0.773438
vt 0.101562 0.773438
vt 0.101562 0.773438
vt 0.101562 0.773438
vn 0.0000 -0.4461 0.8950
vn 0.0000 -0.6156 0.7881
vn 0.0000 -0.7213 0.6927
vn -0.7514 -0.6599 -0.0000
vn -0.9317 -0.3631 -0.0000
vn -0.9155 -0.4024 -0.0000
vn -0.8410 -0.5411 -0.0000
vn -0.4838 -0.8752 -0.0000
vn 0.0000 1.0000 0.0000
vn 0.9317 -0.3631 -0.0000
vn 0.8410 -0.5411 -0.0000
vn 0.9155 -0.4024 -0.0000
vn 0.4838 -0.8752 -0.0000
vn 0.0000 -1.0000 -0.0000
vn 0.0000 0.7213 -0.6927
vn 0.0000 -0.8752 -0.4838
vn 0.0000 -0.8752 0.4838
vn 0.0000 -0.4461 -0.8950
vn 0.0000 -0.1673 -0.9859
vn 0.0000 0.4581 -0.8889
vn -0.9505 -0.3106 -0.0000
vn 0.7514 -0.6599 -0.0000
vn 0.9505 -0.3106 -0.0000
vn 0.0000 -0.4581 0.8889
vn 0.0000 0.7213 0.6927
vn 0.7514 0.6599 0.0000
vn -0.7514 0.6599 0.0000
vn 0.0000 -0.4581 -0.8889
vn 0.9505 0.3106 0.0000
vn 0.0000 -0.7213 -0.6927
vn -0.9505 0.3106 0.0000
vn 0.0000 0.4581 0.8889
vn -0.9853 -0.1707 -0.0000
vn 0.9853 -0.1707 -0.0000
vn 0.0000 -0.6156 -0.7881
vn 0.0000 -0.1673 0.9859
s 1
f 43/1/1 44/2/1 8/3/2 4/4/2
f 25/5/3 26/6/3 6/7/3 2/8/3
f 42/9/4 25/5/4 2/8/4 31/10/4
f 48/11/5 43/1/6 4/4/7 33/12/7
f 33/12/8 4/4/8 3/13/8 30/14/8
f 29/15/9 34/16/9 16/17/9 12/18/9
f 47/19/10 38/20/11 8/3/11 44/2/12
f 38/20/13 35/21/13 9/22/13 8/3/13
f 37/23/14 32/24/14 15/25/14 20/26/14
f 23/27/15 24/28/15 17/29/15 11/30/15
f 14/31/16 18/32/16 19/33/16 13/34/16
f 4/4/17 8/3/17 9/22/17 3/13/17
f 45/35/18 46/36/18 20/26/19 15/25/19
f 27/37/20 28/38/20 18/32/20 14/31/20
f 40/39/21 21/40/21 1/41/21 29/15/21
f 41/42/22 36/43/22 6/7/22 26/6/22
f 39/44/23 34/16/23 7/45/23 22/46/23
f 21/40/24 22/46/24 7/45/24 1/41/24
f 2/8/25 6/7/25 22/46/25 21/40/25
f 36/43/26 39/44/26 22/46/26 6/7/26
f 31/10/27 2/8/27 21/40/27 40/39/27
f 12/18/28 16/17/28 24/28/28 23/27/28
f 35/21/29 41/42/29 26/6/29 9/22/29
f 11/30/30 17/29/30 28/38/30 27/37/30
f 30/14/31 3/13/31 25/5/31 42/9/31
f 3/13/32 9/22/32 26/6/32 25/5/32
f 14/31/31 30/14/31 42/9/31 27/37/31
f 18/32/29 28/38/29 41/42/29 35/21/29
f 11/30/27 31/10/27 40/39/27 23/27/27
f 17/29/26 24/28/26 39/44/26 36/43/26
f 24/28/23 16/17/23 34/16/23 39/44/23
f 28/38/22 17/29/22 36/43/22 41/42/22
f 23/27/21 40/39/21 29/15/21 12/18/21
f 10/47/14 5/48/14 32/24/14 37/23/14
f 19/33/13 18/32/13 35/21/13 38/20/13
f 46/36/12 19/33/11 38/20/11 47/19/10
f 1/41/9 7/45/9 34/16/9 29/15/9
f 13/34/8 33/12/8 30/14/8 14/31/8
f 45/35/6 48/11/5 33/12/7 13/34/7
f 27/37/4 42/9/4 31/10/4 11/30/4
f 15/25/33 32/24/33 48/11/5 45/35/6
f 20/26/34 46/36/12 47/19/10 37/23/34
f 13/34/35 19/33/35 46/36/18 45/35/18
f 37/23/34 47/19/10 44/2/12 10/47/34
f 32/24/33 5/48/33 43/1/6 48/11/5
f 5/48/36 10/47/36 44/2/1 43/1/1
