# Blender v2.90.0 Alpha OBJ File: 'Decos.blend'
# www.blender.org
o Detail_Cube.001
v -6.414628 -0.061376 8.366066
v 6.414628 -0.061376 8.366066
v 6.708072 0.394721 8.722342
v -6.708072 0.394721 8.722342
v -6.743935 0.702643 8.712173
v 6.743935 0.702643 8.712173
v 6.958247 0.946667 8.966275
v -6.958247 0.946667 8.966275
v -6.743935 0.702647 0.000000
v -6.958247 0.946671 0.000000
v -6.414628 -0.061372 -0.000000
v -6.708072 0.394725 0.000000
v -6.823677 0.458620 8.837947
v -6.823677 0.458624 0.000000
v -6.823677 1.434717 0.000000
v 6.823677 1.434717 0.000000
v 6.823677 1.434721 -8.837947
v -6.823677 1.434721 -8.837947
v 6.414628 -0.061372 -0.000000
v 6.708072 0.394725 0.000000
v 6.823677 0.458624 0.000000
v 6.823677 0.458620 8.837947
v 6.335633 -0.517469 -0.000000
v -6.335633 -0.517469 -0.000000
v -6.335633 -0.517465 -8.288674
v 6.335633 -0.517465 -8.288674
v -6.743935 1.190698 -8.712173
v 6.743935 1.190698 -8.712173
v 6.958247 0.946675 -8.966275
v -6.958247 0.946675 -8.966275
v -6.823677 0.458628 -8.837947
v 6.823677 0.458628 -8.837947
v 6.708072 0.394729 -8.722342
v -6.708072 0.394729 -8.722342
v -6.414628 -0.061368 -8.366066
v 6.414628 -0.061368 -8.366066
v -6.743935 0.702651 -8.712173
v 6.743935 0.702651 -8.712173
v -6.743935 1.190694 0.000000
v -6.743935 1.190690 8.712173
v -6.823677 1.434713 8.837947
v 6.743935 0.702647 0.000000
v 6.958247 0.946671 0.000000
v 6.743935 1.190694 0.000000
v 6.823677 1.434713 8.837947
v 6.743935 1.190690 8.712173
v 6.335633 -0.517473 8.288674
v -6.335633 -0.517473 8.288674
vt 0.242188 0.804688
vt 0.242188 0.804688
vt 0.242188 0.804688
vt 0.242188 0.804688
vt 0.242188 0.804688
vt 0.242188 0.804688
vt 0.242188 0.804688
vt 0.242188 0.804688
vt 0.242188 0.804688
vt 0.242188 0.804688
vt 0.242188 0.804688
vt 0.242188 0.804688
vt 0.242188 0.804688
vt 0.242188 0.804688
vt 0.242188 0.804688
vt 0.242188 0.804688
vt 0.242188 0.804688
vt 0.242188 0.804688
vt 0.242188 0.804688
vt 0.242188 0.804688
vt 0.242188 0.804688
vt 0.242188 0.804688
vt 0.242188 0.804688
vt 0.242188 0.804688
vt 0.242188 0.804688
vt 0.242188 0.804688
vt 0.242188 0.804688
vt 0.242188 0.804688
vt 0.242188 0.804688
vt 0.242188 0.804688
vt 0.242188 0.804688
vt 0.242188 0.804688
vt 0.242188 0.804688
vt 0.242188 0.804688
vt 0.242188 0.804688
vt 0.242188 0.804688
vt 0.242188 0.804688
vt 0.242188 0.804688
vt 0.242188 0.804688
vt 0.242188 0.804688
vt 0.242188 0.804688
vt 0.242188 0.804688
vt 0.242188 0.804688
vt 0.242188 0.804688
vt 0.242188 0.804688
vt 0.242188 0.804688
vt 0.242188 0.804688
vt 0.242188 0.804688
vn 0.0000 -0.4461 0.8950
vn 0.0000 -0.6156 0.7881
vn 0.0000 -0.7213 0.6927
vn -0.7514 -0.6599 -0.0000
vn -0.9317 -0.3631 -0.0000
vn -0.9155 -0.4024 -0.0000
vn -0.8410 -0.5411 -0.0000
vn -0.4838 -0.8752 -0.0000
vn 0.0000 1.0000 0.0000
vn 0.9317 -0.3631 -0.0000
vn 0.8410 -0.5411 -0.0000
vn 0.9155 -0.4024 -0.0000
vn 0.4838 -0.8752 -0.0000
vn 0.0000 -1.0000 -0.0000
vn 0.0000 0.7213 -0.6927
vn 0.0000 -0.8752 -0.4838
vn 0.0000 -0.8752 0.4838
vn 0.0000 -0.4461 -0.8950
vn 0.0000 -0.1673 -0.9859
vn 0.0000 0.4581 -0.8889
vn -0.9505 -0.3106 -0.0000
vn 0.7514 -0.6599 -0.0000
vn 0.9505 -0.3106 -0.0000
vn 0.0000 -0.4581 0.8889
vn 0.0000 0.7213 0.6927
vn 0.7514 0.6599 0.0000
vn -0.7514 0.6599 0.0000
vn 0.0000 -0.4581 -0.8889
vn 0.9505 0.3106 0.0000
vn 0.0000 -0.7213 -0.6927
vn -0.9505 0.3106 0.0000
vn 0.0000 0.4581 0.8889
vn -0.9853 -0.1707 -0.0000
vn 0.9853 -0.1707 -0.0000
vn 0.0000 -0.6156 -0.7881
vn 0.0000 -0.1673 0.9859
s 1
f 1/1/1 2/2/1 3/3/2 4/4/2
f 5/5/3 6/6/3 7/7/3 8/8/3
f 9/9/4 5/5/4 8/8/4 10/10/4
f 11/11/5 1/1/6 4/4/7 12/12/7
f 12/12/8 4/4/8 13/13/8 14/14/8
f 15/15/9 16/16/9 17/17/9 18/18/9
f 19/19/10 20/20/11 3/3/11 2/2/12
f 20/20/13 21/21/13 22/22/13 3/3/13
f 23/23/14 24/24/14 25/25/14 26/26/14
f 27/27/15 28/28/15 29/29/15 30/30/15
f 31/31/16 32/32/16 33/33/16 34/34/16
f 4/4/17 3/3/17 22/22/17 13/13/17
f 35/35/18 36/36/18 26/26/19 25/25/19
f 37/37/20 38/38/20 32/32/20 31/31/20
f 39/39/21 40/40/21 41/41/21 15/15/21
f 42/42/22 43/43/22 7/7/22 6/6/22
f 44/44/23 16/16/23 45/45/23 46/46/23
f 40/40/24 46/46/24 45/45/24 41/41/24
f 8/8/25 7/7/25 46/46/25 40/40/25
f 43/43/26 44/44/26 46/46/26 7/7/26
f 10/10/27 8/8/27 40/40/27 39/39/27
f 18/18/28 17/17/28 28/28/28 27/27/28
f 21/21/29 42/42/29 6/6/29 22/22/29
f 30/30/30 29/29/30 38/38/30 37/37/30
f 14/14/31 13/13/31 5/5/31 9/9/31
f 13/13/32 22/22/32 6/6/32 5/5/32
f 31/31/31 14/14/31 9/9/31 37/37/31
f 32/32/29 38/38/29 42/42/29 21/21/29
f 30/30/27 10/10/27 39/39/27 27/27/27
f 29/29/26 28/28/26 44/44/26 43/43/26
f 28/28/23 17/17/23 16/16/23 44/44/23
f 38/38/22 29/29/22 43/43/22 42/42/22
f 27/27/21 39/39/21 15/15/21 18/18/21
f 47/47/14 48/48/14 24/24/14 23/23/14
f 33/33/13 32/32/13 21/21/13 20/20/13
f 36/36/12 33/33/11 20/20/11 19/19/10
f 41/41/9 45/45/9 16/16/9 15/15/9
f 34/34/8 12/12/8 14/14/8 31/31/8
f 35/35/6 11/11/5 12/12/7 34/34/7
f 37/37/4 9/9/4 10/10/4 30/30/4
f 25/25/33 24/24/33 11/11/5 35/35/6
f 26/26/34 36/36/12 19/19/10 23/23/34
f 34/34/35 33/33/35 36/36/18 35/35/18
f 23/23/34 19/19/10 2/2/12 47/47/34
f 24/24/33 48/48/33 1/1/6 11/11/5
f 48/48/36 47/47/36 2/2/1 1/1/1
