# Blender v2.90.0 Alpha OBJ File: 'Decos.blend'
# www.blender.org
o Sedan_Cube.038
v -1.219259 0.365724 1.729825
v -1.219259 0.573113 2.037680
v -1.219259 0.445597 1.729825
v -1.224640 0.523439 -1.751126
v -1.219259 0.445598 -2.099039
v -1.219259 0.365725 -2.099039
v 1.435351 0.377074 1.729825
v 1.387953 0.578973 2.037680
v 1.404546 0.531841 2.077738
v 1.224640 0.523439 -1.751126
v 1.219259 0.445598 -2.099039
v 1.219259 0.573115 -1.791184
v 1.224640 0.523439 -2.446950
v 1.219259 0.365725 -2.099039
v 1.387953 0.578975 1.421971
v 1.417097 0.454833 1.729825
v -1.224640 0.523439 -2.446950
v -1.219259 0.573115 -2.406892
v -1.219259 0.573099 1.421985
v -1.224635 0.523429 1.381907
v -1.224640 0.523435 2.077738
v -1.219259 0.573115 -1.791184
v 1.219259 0.573115 -2.406892
v 1.404544 0.531843 1.381913
v -1.129663 1.495813 -3.338096
v -1.125860 0.601950 -3.376894
v -1.116122 0.602990 -2.632365
v 1.092008 1.623967 1.358448
v -0.789317 2.119888 0.503975
v -1.024548 1.477543 1.391185
v 1.116170 0.604300 -2.633477
v 1.126829 0.608982 -3.376714
v 1.245916 1.293341 -3.479360
v 1.142600 1.617305 1.440516
v 1.046916 1.544126 2.899914
v 1.116200 0.562501 2.670779
v -1.107411 1.466818 3.141448
v -0.808480 2.114271 -1.684493
v 1.100004 1.484690 -2.580420
v -1.099941 1.484048 -2.583252
v -1.114312 0.975064 3.212069
v 0.968633 0.797849 3.372472
v 1.123503 0.810152 3.211088
v 0.775813 2.136647 0.500935
v 0.837791 2.157548 0.367801
v 1.116709 0.616861 3.093428
v 1.116122 0.505685 2.969990
v 1.133313 1.637110 1.240478
v 1.133712 1.581469 1.371112
v 1.116126 0.603511 1.394474
v 0.966634 0.631416 3.246859
v -0.964201 0.807971 3.248362
v 0.934066 1.142843 1.388160
v 1.329110 0.881509 1.239466
v 1.011504 0.806884 1.246623
v -1.231105 0.880970 -2.589405
v -1.219259 1.188824 -2.406892
v -1.231089 1.227779 -2.445733
v 1.249875 1.218989 2.076529
v 1.011518 0.806821 2.213029
v 1.329128 0.881387 2.220194
v 0.901299 1.277484 1.729634
v 1.217132 1.362132 1.729504
v 1.250379 1.231172 1.382956
v -1.219259 1.321555 -2.099039
v -1.230839 1.381878 -2.098669
v 1.218056 1.303625 1.729709
v 1.247186 1.184497 1.421680
v 1.091983 0.464073 2.064556
v 1.231089 1.227779 -2.445733
v 1.219259 0.880970 -2.534409
v 1.231105 0.880970 -2.589405
v 1.091983 0.464074 1.395095
v 0.904674 1.222829 -2.440534
v 0.904862 0.880970 -2.582240
v 1.230890 1.256332 -1.752263
v 0.904749 0.881179 -1.615833
v 1.231086 0.881063 -1.608652
v 0.903927 1.400637 -2.098331
v 1.230839 1.382025 -2.098669
v 1.219259 1.188824 -2.406892
v 0.904862 0.528899 -1.764308
v 0.904862 0.528899 -2.433768
v -1.116139 0.602033 2.671727
v -1.097393 1.501294 1.469090
v -1.091478 1.538415 1.256067
v -0.859557 2.139207 -1.581740
v -1.131071 1.577621 -2.478720
v -1.114333 0.791965 3.094496
v -1.116125 0.602635 2.969986
v -1.230837 0.879254 1.239630
v -0.894029 1.188319 1.393683
v -0.904546 0.879069 1.246785
v -1.231105 0.880965 2.220194
v -0.904862 0.880965 2.213029
v -1.231140 1.226847 2.077244
v -0.895607 1.335252 1.736299
v -1.222253 1.342874 1.736014
v -1.220804 1.193967 1.388682
v -1.212151 1.293445 1.734247
v -1.219137 1.188168 2.038038
v -0.904862 0.528895 2.064556
v -1.219259 0.880969 -1.663665
v -0.904862 0.528914 1.395088
v -0.904674 1.222829 -2.440534
v -0.904862 0.880970 -2.582240
v -1.218858 0.879261 1.294661
v -0.904749 0.881179 -1.615833
v -1.230890 1.256067 -1.752263
v -1.231086 0.881063 -1.608652
v -0.903927 1.400483 -2.098331
v 1.317593 0.878680 2.165198
v -1.219259 0.880963 2.165199
v -0.904862 0.528899 -1.764308
v -1.219259 1.204518 -1.791183
v -0.904862 0.528899 -2.433768
v 1.317589 0.878701 1.729809
v 1.247233 1.178395 2.037672
v 1.317578 0.878747 1.294454
v 1.219259 0.880970 -2.099039
v 1.219259 1.204724 -1.791183
v 1.219259 0.880969 -1.663665
v -1.219252 0.880689 1.729950
v -1.211122 1.162509 1.426821
v -1.219259 0.880970 -2.099039
v -1.219259 0.880970 -2.534409
v 1.219259 1.321670 -2.099039
v -1.085535 1.453450 1.394218
v -0.855149 2.174339 0.390656
v 0.860909 2.138595 -1.582037
v 1.131175 1.577652 -2.478517
v -1.120693 1.508594 -2.592246
v 1.121126 1.508156 -2.594041
v 1.141897 1.547510 -2.644487
v 0.808480 2.113804 -1.684493
v -1.137948 1.548977 -2.647827
v -0.963813 0.963153 3.376421
v 0.933428 1.139465 2.071497
v 0.903953 1.295077 -1.757152
v -1.116140 0.601978 1.394383
v -0.904807 1.221669 2.072363
v -0.903953 1.294829 -1.757152
v -1.049110 2.168439 2.699837
v 0.013832 2.296862 2.682818
v 1.119623 2.014103 2.688311
vt 0.055386 0.809186
vt 0.055386 0.809186
vt 0.055386 0.809186
vt 0.055386 0.809186
vt 0.055386 0.809186
vt 0.055386 0.809186
vt 0.055386 0.809186
vt 0.055386 0.809186
vt 0.055386 0.809186
vt 0.055386 0.809186
vt 0.055386 0.809186
vt 0.055386 0.809186
vt 0.055386 0.809186
vt 0.055386 0.809186
vt 0.055386 0.809186
vt 0.055386 0.809186
vt 0.055386 0.809186
vt 0.055386 0.809186
vt 0.055386 0.809186
vt 0.055386 0.809186
vt 0.055386 0.809186
vt 0.055386 0.809186
vt 0.055386 0.809186
vt 0.055386 0.809186
vt 0.007812 0.851562
vt 0.007812 0.851562
vt 0.007812 0.851562
vt 0.051952 0.803767
vt 0.051952 0.803767
vt 0.051952 0.803767
vt 0.007812 0.851562
vt 0.007812 0.851562
vt 0.007812 0.851562
vt 0.007812 0.851562
vt 0.007812 0.851562
vt 0.007812 0.851562
vt 0.007812 0.851562
vt 0.007812 0.851562
vt 0.051952 0.803767
vt 0.051952 0.803767
vt 0.051952 0.803767
vt 0.007812 0.851562
vt 0.007812 0.851562
vt 0.007812 0.851562
vt 0.007812 0.851562
vt 0.007812 0.851562
vt 0.007812 0.851562
vt 0.007812 0.851562
vt 0.007812 0.851562
vt 0.007812 0.851562
vt 0.007812 0.851562
vt 0.007812 0.851562
vt 0.007812 0.851562
vt 0.007812 0.851562
vt 0.055226 0.803518
vt 0.055226 0.803518
vt 0.055226 0.803518
vt 0.055386 0.809186
vt 0.055386 0.809186
vt 0.055386 0.809186
vt 0.055226 0.803518
vt 0.055226 0.803518
vt 0.055226 0.803518
vt 0.055226 0.803518
vt 0.055226 0.803518
vt 0.055226 0.803518
vt 0.055386 0.809186
vt 0.055386 0.809186
vt 0.055386 0.809186
vt 0.055386 0.809186
vt 0.055386 0.809186
vt 0.055226 0.803518
vt 0.055226 0.803518
vt 0.055386 0.809186
vt 0.055386 0.809186
vt 0.055386 0.809186
vt 0.055226 0.803518
vt 0.055226 0.803518
vt 0.055226 0.803518
vt 0.055226 0.803518
vt 0.055226 0.803518
vt 0.055226 0.803518
vt 0.055226 0.803518
vt 0.055226 0.803518
vt 0.055226 0.803518
vt 0.055226 0.803518
vt 0.055226 0.803518
vt 0.055386 0.809186
vt 0.055386 0.809186
vt 0.055226 0.803518
vt 0.055226 0.803518
vt 0.055226 0.803518
vt 0.055226 0.803518
vt 0.007812 0.851562
vt 0.007812 0.851562
vt 0.051952 0.803767
vt 0.051952 0.803767
vt 0.051952 0.803767
vt 0.007812 0.851562
vt 0.007812 0.851562
vt 0.007812 0.851562
vt 0.007812 0.851562
vt 0.055226 0.803518
vt 0.055226 0.803518
vt 0.055226 0.803518
vt 0.055386 0.809186
vt 0.055226 0.803518
vt 0.055226 0.803518
vt 0.055226 0.803518
vt 0.055226 0.803518
vt 0.055226 0.803518
vt 0.055226 0.803518
vt 0.055386 0.809186
vt 0.055386 0.809186
vt 0.055386 0.809186
vt 0.055226 0.803518
vt 0.055226 0.803518
vt 0.055386 0.809186
vt 0.055226 0.803518
vt 0.055226 0.803518
vt 0.055226 0.803518
vt 0.055226 0.803518
vt 0.055226 0.803518
vt 0.055386 0.809186
vt 0.055386 0.809186
vt 0.055226 0.803518
vt 0.055226 0.803518
vt 0.055226 0.803518
vt 0.055226 0.803518
vt 0.055226 0.803518
vt 0.055226 0.803518
vt 0.055386 0.809186
vt 0.055386 0.809186
vt 0.055386 0.809186
vt 0.055226 0.803518
vt 0.055226 0.803518
vt 0.055386 0.809186
vt 0.055386 0.809186
vt 0.055226 0.803518
vt 0.055226 0.803518
vt 0.007658 0.885748
vt 0.007658 0.885748
vt 0.007658 0.885748
vt 0.007658 0.885748
vt 0.007658 0.885748
vt 0.007658 0.885748
vt 0.007658 0.885748
vt 0.007658 0.885748
vt 0.007658 0.885748
vt 0.007658 0.885748
vt 0.007658 0.885748
vt 0.007658 0.885748
vt 0.007658 0.885748
vt 0.007658 0.885748
vt 0.007658 0.885748
vt 0.007658 0.885748
vt 0.007658 0.885748
vt 0.007658 0.885748
vt 0.007658 0.885748
vt 0.007658 0.885748
vt 0.007658 0.885748
vt 0.007658 0.885748
vt 0.007658 0.885748
vt 0.007658 0.885748
vt 0.007658 0.885748
vt 0.007658 0.885748
vt 0.007658 0.885748
vt 0.007658 0.885748
vt 0.007658 0.885748
vt 0.007658 0.885748
vt 0.007658 0.885748
vt 0.007658 0.885748
vt 0.055386 0.809186
vt 0.055386 0.809186
vt 0.055386 0.809186
vt 0.055386 0.809186
vt 0.055386 0.809186
vt 0.055386 0.809186
vt 0.055386 0.809186
vt 0.055386 0.809186
vt 0.055386 0.809186
vt 0.055386 0.809186
vt 0.055386 0.809186
vt 0.055386 0.809186
vt 0.055386 0.809186
vt 0.055386 0.809186
vt 0.055386 0.809186
vt 0.007812 0.851562
vt 0.007812 0.851562
vt 0.007812 0.851562
vt 0.051952 0.803767
vt 0.051952 0.803767
vt 0.051952 0.803767
vt 0.007812 0.851562
vt 0.007812 0.851562
vt 0.007812 0.851562
vt 0.007812 0.851562
vt 0.007812 0.851562
vt 0.007812 0.851562
vt 0.007812 0.851562
vt 0.007812 0.851562
vt 0.007812 0.851562
vt 0.007812 0.851562
vt 0.051952 0.803767
vt 0.051952 0.803767
vt 0.007812 0.851562
vt 0.007812 0.851562
vt 0.055226 0.803518
vt 0.055226 0.803518
vt 0.007812 0.851562
vt 0.051952 0.803767
vt 0.055226 0.803518
vt 0.055226 0.803518
vt 0.007658 0.885748
vt 0.007658 0.885748
vt 0.007658 0.885748
vt 0.007658 0.885748
vt 0.051952 0.803767
vt 0.007812 0.851562
vt 0.007812 0.851562
vt 0.007812 0.851562
vn -1.0000 0.0000 0.0000
vn -0.9999 0.0000 -0.0155
vn 0.9541 0.2958 -0.0471
vn 0.9962 0.0809 -0.0335
vn 0.9999 0.0000 0.0155
vn 0.9735 0.2285 -0.0000
vn -0.9962 0.0809 0.0335
vn -0.9964 0.0699 0.0471
vn -0.9964 0.0699 -0.0471
vn -0.9962 0.0809 -0.0335
vn 0.9999 0.0000 -0.0155
vn 0.9962 0.0809 0.0335
vn 0.9541 0.2958 0.0471
vn -0.9999 0.0000 0.0155
vn -0.9997 -0.0192 0.0128
vn -0.9999 -0.0048 0.0131
vn -0.9999 -0.0071 0.0072
vn -0.0241 0.8406 0.5411
vn -0.0367 0.8271 0.5609
vn -0.0475 0.8150 0.5775
vn 0.9980 -0.0476 0.0421
vn 0.9854 -0.1695 0.0131
vn 0.9921 -0.0883 0.0892
vn 0.9862 0.1234 -0.1100
vn 0.9978 0.0577 0.0316
vn 0.9991 0.0391 0.0184
vn -0.0520 0.9982 0.0306
vn 0.0702 0.9973 0.0224
vn -0.0244 0.9997 0.0050
vn 0.0004 0.8186 -0.5743
vn 0.0003 0.8185 -0.5745
vn 0.0005 0.8187 -0.5742
vn -0.0139 0.0081 -0.9999
vn -0.0554 -0.0976 -0.9937
vn -0.0001 0.0434 -0.9991
vn 0.0841 0.9964 0.0084
vn 0.0732 0.9874 0.1400
vn 0.0728 0.9867 0.1451
vn 0.0137 0.9094 0.4157
vn -0.0103 0.9886 0.1504
vn -0.0004 0.9981 0.0623
vn 0.9979 0.0496 -0.0413
vn 0.0276 0.1975 0.9799
vn 0.0769 0.3597 0.9299
vn 0.0882 0.3966 0.9137
vn 1.0000 -0.0046 -0.0006
vn 0.8804 0.4516 0.1449
vn 0.9610 0.2624 -0.0872
vn 0.9998 -0.0214 -0.0034
vn 0.6436 -0.4395 0.6266
vn 0.6439 -0.4398 0.6261
vn 0.6283 -0.4205 0.6545
vn -0.0542 -0.6033 0.7956
vn -0.0529 -0.6333 0.7721
vn -0.0543 -0.6011 0.7973
vn -0.1947 0.6792 -0.7076
vn 0.6681 0.1584 -0.7270
vn -0.0271 -0.0059 -0.9996
vn -0.9776 -0.0057 0.2106
vn -0.9914 -0.0918 0.0937
vn -0.9779 -0.1468 0.1489
vn 0.5500 0.6568 0.5159
vn -0.0206 -0.0081 0.9998
vn 0.6669 0.1570 0.7284
vn -0.2569 0.9664 0.0063
vn 0.4977 0.8673 0.0098
vn 0.5456 0.6623 -0.5135
vn -0.9930 -0.1181 0.0049
vn -0.9822 -0.1875 0.0045
vn 0.9953 0.0966 0.0011
vn 0.9864 0.1281 0.1029
vn 0.1301 -0.6906 0.7115
vn 0.5453 -0.6375 0.5443
vn 0.9776 -0.1469 0.1505
vn 0.9913 0.0000 0.1319
vn 0.9790 -0.0038 0.2036
vn 0.5513 -0.6380 -0.5376
vn 0.1228 -0.7017 -0.7018
vn -0.0048 0.6883 -0.7254
vn -0.0220 0.0092 -0.9997
vn -0.0278 0.0027 -0.9996
vn 0.0470 0.6949 0.7176
vn -0.0115 -0.0244 0.9996
vn -0.0277 -0.0101 0.9996
vn 0.0702 0.9947 -0.0749
vn 0.0393 0.9978 -0.0530
vn -0.0220 0.6978 -0.7160
vn 0.9821 -0.1884 0.0037
vn 0.9914 -0.0907 0.0942
vn -0.0313 -0.7020 0.7115
vn -0.0435 -0.6965 0.7162
vn -0.0333 -0.7063 -0.7072
vn -0.0410 -0.7113 -0.7017
vn -0.9999 0.0143 -0.0031
vn -0.9999 0.0123 -0.0059
vn -0.9639 0.1949 -0.1816
vn -0.7988 0.5206 0.3015
vn -0.9119 0.4102 0.0123
vn -0.6302 0.6296 -0.4544
vn -0.9999 0.0105 -0.0037
vn -1.0000 0.0094 0.0000
vn -0.6270 -0.4209 0.6556
vn 0.0222 0.0293 -0.9993
vn 0.0227 0.7220 -0.6915
vn 0.0232 0.0350 -0.9991
vn -0.9790 -0.0038 -0.2037
vn -0.8965 -0.2626 -0.3568
vn -0.9573 -0.1777 0.2279
vn 0.0219 -0.0037 0.9998
vn 0.0224 0.7268 0.6864
vn 0.0277 0.0033 0.9996
vn 0.0228 0.9988 -0.0425
vn 0.0234 0.9991 -0.0348
vn 0.0231 0.7179 -0.6958
vn -0.9772 -0.1448 -0.1553
vn -0.9931 -0.1173 -0.0064
vn -0.9908 -0.0914 -0.1000
vn 0.0312 -0.7020 0.7115
vn 0.0435 -0.6966 0.7162
vn -0.9555 -0.1788 0.2345
vn -0.9954 0.0366 -0.0883
vn -0.9077 -0.2530 -0.3347
vn 0.0436 -0.7123 -0.7005
vn 0.0369 -0.0077 -0.9993
vn 0.0410 -0.7124 -0.7006
vn 0.0220 0.0092 -0.9997
vn 0.0048 0.6885 -0.7252
vn 0.0253 -0.0011 -0.9997
vn -0.9610 -0.1598 -0.2257
vn -0.9913 0.0025 0.1314
vn -0.9773 0.0003 0.2117
vn 0.0115 -0.0243 0.9996
vn -0.0470 0.6949 0.7176
vn 0.0277 -0.0100 0.9996
vn -0.0702 0.9947 -0.0746
vn -0.0392 0.9978 -0.0527
vn 0.0220 0.6979 -0.7159
vn 0.9852 0.0775 -0.1528
vn 0.9650 0.2265 -0.1319
vn -0.9913 0.0001 -0.1319
vn 0.0313 -0.7020 0.7115
vn 0.0435 -0.6965 0.7162
vn -0.9934 -0.0776 -0.0840
vn -0.9839 -0.1309 -0.1220
vn 0.0438 -0.7112 -0.7016
vn 0.0361 -0.0061 -0.9993
vn 0.0411 -0.7113 -0.7017
vn 0.9737 0.2279 0.0005
vn 0.9863 0.1358 -0.0932
vn 0.9654 0.2252 0.1318
vn 0.9978 0.0641 -0.0179
vn 1.0000 0.0000 0.0000
vn 0.9934 -0.0772 -0.0851
vn 0.9917 -0.0056 -0.1281
vn -1.0000 0.0079 -0.0038
vn -0.9937 -0.0755 0.0827
vn -1.0000 0.0005 -0.0005
vn -0.9913 -0.0000 0.1319
vn -0.9813 -0.1256 0.1457
vn -0.9798 -0.1999 -0.0102
vn 0.9931 -0.1175 0.0038
vn 0.8965 -0.2626 0.3568
vn 0.9573 -0.1777 -0.2279
vn 0.9778 -0.0083 -0.2092
vn 0.9840 -0.1298 -0.1219
vn -0.9917 -0.0057 -0.1287
vn -0.9776 -0.0075 -0.2102
vn 0.9610 -0.1607 0.2251
vn -0.8794 -0.2301 0.4168
vn 0.6708 0.7343 0.1041
vn -0.3511 0.9156 0.1962
vn -0.9004 0.4299 -0.0667
vn 0.4545 0.8245 0.3372
vn 0.4510 0.8254 0.3395
vn -0.2439 0.8122 0.5299
vn -0.2419 0.8122 0.5308
vn 0.8936 0.4487 -0.0065
vn 0.6213 0.6312 -0.4643
vn 0.6838 0.6865 -0.2472
vn -0.4548 0.8904 0.0188
vn -0.6804 0.6781 -0.2778
vn 0.4600 0.8657 0.1974
vn 0.9509 -0.2075 0.2297
vn -0.3810 0.8305 -0.4064
vn 0.3752 0.8318 -0.4092
vn 0.3910 0.8286 -0.4006
vn 0.0731 0.9966 -0.0374
vn -0.3440 0.9135 -0.2173
vn 0.0085 0.9783 -0.2069
vn -0.9399 -0.3385 0.0458
vn -0.0082 0.8569 0.5154
vn 0.0454 0.9976 0.0530
vn -0.0369 0.9980 0.0506
vn 0.3306 0.9435 0.0214
vn 0.0002 0.8184 -0.5746
vn -0.0704 -0.1360 -0.9882
vn 0.0852 0.9963 -0.0058
vn 0.0003 0.9946 -0.1042
vn 0.0028 0.9943 -0.1067
vn 0.0003 0.9719 -0.2353
vn 0.0003 0.9718 -0.2357
vn 0.0121 0.9854 0.1697
vn 0.9899 0.0466 -0.1337
vn 0.0109 0.1420 0.9898
vn 0.6584 -0.4584 0.5969
vn -0.0528 -0.6355 0.7703
vn -0.1829 0.6830 0.7071
vn 0.0768 0.7332 0.6757
vn -0.9997 0.0244 -0.0018
vn -0.9391 0.3435 -0.0040
vn -0.9998 0.0115 -0.0177
vn -0.6664 -0.4736 0.5759
vn 0.0218 0.7321 0.6808
vn -0.9834 -0.1290 0.1280
vn 0.0260 -0.6979 -0.7157
vn -0.9084 -0.2522 0.3335
vn -0.0768 0.7332 0.6757
vn 0.0271 -0.6970 -0.7165
vn 0.9077 -0.2530 -0.3347
vn -0.9943 0.0236 0.1043
vn -0.9573 -0.1777 -0.2279
vn -0.8995 -0.2693 0.3441
vn 0.8657 0.5006 0.0054
vn -0.3966 0.8273 -0.3979
vn 0.8741 0.4850 -0.0269
vn 0.3383 0.9410 0.0013
vn -0.9009 0.3711 -0.2252
vn -0.0857 0.8711 -0.4837
vn -0.1135 0.8777 -0.4655
vn 0.0055 0.9023 -0.4311
vn 0.0595 0.9087 -0.4133
vn 0.2393 0.9303 -0.2779
s off
f 1/1/1 2/2/1 3/3/1
f 4/4/2 5/5/2 6/6/2
f 7/7/3 8/8/3 9/9/3
f 10/10/4 11/11/4 12/12/4
f 13/13/5 11/11/5 14/14/5
f 7/7/6 15/15/6 16/16/6
f 17/17/7 5/5/7 18/18/7
f 1/1/8 19/19/8 20/20/8
f 1/1/9 21/21/9 2/2/9
f 4/4/10 22/22/10 5/5/10
f 7/7/6 16/16/6 8/8/6
f 10/10/11 14/14/11 11/11/11
f 13/13/12 23/23/12 11/11/12
f 7/7/13 24/24/13 15/15/13
f 17/17/14 6/6/14 5/5/14
f 1/1/1 3/3/1 19/19/1
s 1
f 25/25/15 26/26/16 27/27/17
f 28/28/18 29/29/19 30/30/20
f 31/31/21 32/32/22 33/33/23
f 34/34/24 35/35/25 36/36/26
f 35/35/27 30/37/28 37/38/29
f 38/39/30 39/40/31 40/41/32
f 25/25/33 32/32/34 26/26/35
f 41/42/36 42/43/37 43/44/38
f 29/45/39 44/46/40 45/47/41
f 35/35/25 46/48/42 36/36/26
f 37/38/43 43/44/44 35/35/45
f 36/36/26 46/48/42 47/49/46
f 48/50/47 49/51/48 50/52/49
f 43/44/50 51/53/51 46/48/52
f 42/43/53 52/54/54 51/53/55
f 53/55/56 54/56/57 55/57/58
f 56/58/59 57/59/60 58/60/61
f 59/61/62 60/62/63 61/63/64
f 62/64/65 59/61/62 63/65/66
f 53/55/56 63/65/66 64/66/67
f 58/60/61 65/67/68 66/68/69
f 64/69/67 67/70/70 68/71/71
f 61/63/64 69/72/72 9/73/73
f 70/74/74 71/75/75 72/76/76
f 55/57/58 24/77/77 73/78/78
f 74/79/79 72/80/80 75/81/81
f 76/82/82 77/83/83 78/84/84
f 79/85/85 76/82/82 80/86/86
f 74/79/79 80/86/86 70/87/87
f 80/88/88 81/89/89 70/74/74
f 78/84/84 82/90/90 10/91/91
f 75/81/81 13/92/92 83/93/93
f 84/94/94 37/38/95 85/95/96
f 86/96/97 87/97/98 88/98/99
f 89/99/100 37/38/95 84/94/94
f 84/94/101 90/100/101 89/99/101
f 86/101/97 88/102/99 27/27/17
f 52/54/102 41/42/102 89/99/102
f 91/103/103 92/104/104 93/105/105
f 94/106/106 2/2/107 21/21/108
f 95/107/109 96/108/110 94/109/111
f 96/108/110 97/110/112 98/111/113
f 98/111/113 92/104/104 99/112/114
f 96/113/115 100/114/116 101/115/117
f 102/116/118 94/109/111 21/117/119
f 4/4/120 103/118/121 22/22/122
f 20/119/123 93/105/124 104/120/125
f 56/121/126 105/122/127 106/123/128
f 20/20/129 107/124/130 91/125/131
f 108/126/132 109/127/133 110/128/134
f 109/127/133 111/129/135 66/130/136
f 66/130/136 105/122/127 58/131/137
f 61/132/64 8/8/138 112/133/139
f 96/113/115 113/134/140 94/106/106
f 114/135/141 110/128/134 4/136/142
f 66/68/69 115/137/143 109/138/144
f 17/139/145 106/123/146 116/140/147
f 117/141/148 118/142/149 112/143/139
f 68/144/71 117/141/148 119/145/150
f 15/146/151 117/141/148 16/147/6
f 117/141/148 8/148/138 16/147/6
f 120/149/152 121/150/153 122/151/154
f 81/152/89 120/149/152 71/153/75
f 23/154/152 120/149/152 11/155/152
f 120/149/152 12/156/152 11/155/152
f 123/157/155 101/158/117 100/159/116
f 123/157/155 124/160/156 107/161/130
f 19/162/157 123/157/155 107/161/130
f 2/163/1 123/157/155 3/164/1
f 125/165/1 115/166/143 65/167/68
f 125/165/1 57/168/60 126/169/158
f 18/170/1 125/165/1 126/169/158
f 22/171/1 125/165/1 5/172/1
f 54/173/57 68/71/71 119/174/150
f 99/175/159 100/114/116 98/176/160
f 80/88/88 121/177/153 127/178/161
f 91/125/131 124/179/156 99/175/159
f 72/76/76 23/23/162 13/13/163
f 78/180/164 121/177/153 76/181/165
f 59/182/62 67/70/70 63/183/66
f 109/138/144 103/118/166 110/184/167
f 54/173/57 15/15/151 24/24/77
f 10/10/168 122/185/154 78/180/164
f 59/182/62 112/133/139 118/186/149
f 56/58/59 18/18/169 126/187/158
f 28/188/170 49/51/48 48/50/47
f 30/37/171 128/189/172 85/95/96
f 44/46/173 48/50/47 45/47/174
f 86/101/97 29/45/175 129/190/176
f 130/191/177 48/192/47 131/193/178
f 40/194/179 132/195/180 88/102/99
f 39/196/181 133/197/182 134/198/183
f 88/102/99 38/199/184 40/194/179
f 131/200/178 135/201/185 130/202/186
f 25/25/187 39/196/188 33/33/189
f 27/27/17 132/195/180 25/25/15
f 132/195/180 136/203/190 25/25/15
f 28/28/18 44/204/191 29/29/19
f 33/33/23 134/198/183 133/197/182
f 133/197/182 31/31/21 33/33/23
f 36/36/26 50/52/49 34/34/24
f 50/52/49 49/51/48 34/34/24
f 35/35/27 34/34/192 28/188/193
f 28/188/193 30/37/28 35/35/27
f 30/37/28 85/95/194 37/38/29
f 38/39/30 135/205/195 39/40/31
f 25/25/33 33/33/196 32/32/34
f 41/42/36 137/206/197 42/43/37
f 45/47/41 130/202/198 87/207/199
f 130/202/198 135/201/200 87/207/199
f 135/201/200 38/199/201 87/207/199
f 87/207/199 129/190/202 45/47/41
f 129/190/202 29/45/39 45/47/41
f 35/35/25 43/44/203 46/48/42
f 37/38/43 41/42/204 43/44/44
f 50/52/49 31/31/21 48/50/47
f 31/31/21 133/197/182 131/200/178
f 48/50/47 31/31/21 131/200/178
f 43/44/50 42/43/205 51/53/51
f 42/43/53 137/206/206 52/54/54
f 53/55/56 64/66/67 54/56/57
f 56/58/59 126/187/158 57/59/60
f 59/61/62 138/208/207 60/62/63
f 62/64/65 138/208/207 59/61/62
f 53/55/56 62/64/65 63/65/66
f 58/60/61 57/59/60 65/67/68
f 64/69/67 63/183/66 67/70/70
f 61/63/64 60/62/63 69/72/72
f 70/74/74 81/89/89 71/75/75
f 55/57/58 54/56/57 24/77/77
f 74/79/79 70/87/87 72/80/80
f 76/82/82 139/209/208 77/83/83
f 79/85/85 139/209/208 76/82/82
f 74/79/79 79/85/85 80/86/86
f 80/88/88 127/178/161 81/89/89
f 78/84/84 77/83/83 82/90/90
f 75/81/81 72/80/80 13/92/92
f 128/189/172 140/210/209 85/95/96
f 140/210/209 84/94/94 85/95/96
f 86/96/97 129/211/210 87/97/98
f 89/99/100 41/42/211 37/38/95
f 132/195/180 27/27/17 88/102/99
f 27/27/17 140/210/209 86/101/97
f 140/210/209 128/189/172 86/101/97
f 52/54/212 137/206/212 41/42/212
f 91/103/103 99/112/114 92/104/104
f 94/106/106 113/134/140 2/2/107
f 95/107/109 141/212/213 96/108/110
f 96/108/110 141/212/213 97/110/112
f 98/111/113 97/110/112 92/104/104
f 96/113/115 98/176/160 100/114/116
f 102/116/118 95/107/109 94/109/111
f 4/4/214 110/184/167 103/118/166
f 20/119/215 91/103/103 93/105/105
f 56/121/126 58/131/137 105/122/127
f 20/20/129 19/19/216 107/124/130
f 108/126/132 142/213/217 109/127/133
f 109/127/133 142/213/217 111/129/135
f 66/130/136 111/129/135 105/122/127
f 61/132/64 9/9/73 8/8/138
f 96/113/115 101/115/117 113/134/140
f 114/135/141 108/126/132 110/128/134
f 66/68/69 65/67/68 115/137/143
f 17/139/218 56/121/126 106/123/128
f 117/141/148 67/214/70 118/142/149
f 68/144/71 67/214/70 117/141/148
f 15/146/151 119/145/150 117/141/148
f 117/141/148 112/143/139 8/148/138
f 120/149/152 127/215/161 121/150/153
f 81/152/89 127/215/161 120/149/152
f 23/154/152 71/153/75 120/149/152
f 120/149/152 122/151/154 12/156/152
f 123/157/155 113/216/140 101/158/117
f 123/157/155 100/159/116 124/160/156
f 19/162/157 3/164/1 123/157/155
f 2/163/1 113/216/140 123/157/155
f 125/165/1 103/217/166 115/166/143
f 125/165/1 65/167/68 57/168/60
f 18/170/1 5/172/1 125/165/1
f 22/171/1 103/217/166 125/165/1
f 54/173/57 64/69/67 68/71/71
f 99/175/159 124/179/156 100/114/116
f 80/88/88 76/181/165 121/177/153
f 91/125/131 107/124/130 124/179/156
f 72/76/76 71/75/75 23/23/162
f 78/180/164 122/185/154 121/177/153
f 59/182/62 118/186/149 67/70/70
f 109/138/144 115/137/143 103/118/166
f 54/173/57 119/174/150 15/15/151
f 10/10/168 12/12/219 122/185/154
f 59/182/62 61/132/64 112/133/139
f 56/58/220 17/17/221 18/18/222
f 28/188/170 34/34/24 49/51/48
f 30/37/171 86/101/97 128/189/172
f 44/46/173 28/188/170 48/50/47
f 86/101/97 30/37/171 29/45/175
f 130/191/177 45/218/223 48/192/47
f 40/194/179 136/203/190 132/195/180
f 39/196/181 131/200/178 133/197/182
f 88/102/99 87/207/224 38/199/184
f 131/200/178 39/196/181 135/201/185
f 25/25/187 136/203/225 40/194/226
f 40/194/226 39/196/188 25/25/187
f 39/196/188 134/198/227 33/33/189
f 30/37/228 143/219/229 144/220/230
f 28/188/231 30/37/228 144/220/230
f 145/221/232 28/188/231 144/220/230
