# Blender v2.90.0 Alpha OBJ File: 'Decos.blend'
# www.blender.org
o Sedan_Cube.002
v -0.870899 -0.494444 1.235542
v -0.866816 -0.381489 1.490116
v -0.866943 -0.381190 -1.245447
v -0.871475 -0.494436 -1.499361
v 1.025251 -0.486337 1.235542
v 1.002503 -0.375994 1.484083
v 0.866926 -0.381189 -1.245445
v 0.871475 -0.494436 -1.499361
v 0.874428 -0.381790 -1.747833
v 0.994321 -0.377218 0.976316
v -0.874428 -0.381790 -1.747833
v -0.858199 -0.378144 0.965808
v -0.812804 0.298562 -2.202788
v -0.793290 -0.325517 -2.408880
v 0.780006 0.404301 0.970272
v -0.584204 0.908636 0.353687
v -0.731820 0.299712 0.993656
v 0.807642 -0.321931 -2.402646
v 0.830690 0.272872 -2.134131
v 0.747797 0.150752 2.120178
v 0.807736 -0.341215 1.819226
v -0.791008 0.176122 2.251691
v -0.590065 0.542235 -1.188531
v -0.677031 -0.144555 2.253364
v 0.691039 -0.277489 2.264775
v 0.579970 0.676438 0.351488
v 0.797230 -0.394472 2.121374
v 0.810562 0.395746 0.977339
v 0.650016 0.142799 1.035707
v -0.874332 0.011482 -1.826474
v 0.911992 0.012868 1.580745
v 0.785361 -0.446872 1.538859
v 0.869196 0.195286 1.095827
v -0.876139 0.223546 -1.353212
v 0.874323 0.011464 -1.826481
v 0.779988 -0.424194 0.996449
v 0.646322 0.010658 -1.845001
v 0.876138 0.223547 -1.353213
v 0.645775 -0.400975 -1.196868
v 0.645857 0.208520 -1.361212
v 0.646330 -0.377891 -1.738453
v -0.811307 -0.325344 2.120642
v -0.779030 0.297458 0.990480
v -0.642840 -0.019500 0.887334
v -0.646373 -0.401182 1.538805
v -0.873679 0.204645 1.390318
v -0.643894 0.178276 1.396252
v -0.646330 -0.377880 0.996444
v -0.646322 0.010658 -1.845001
v -0.645775 -0.400975 -1.196868
v -0.645857 0.208520 -1.361212
v -0.646330 -0.377891 -1.738453
v 0.574646 0.548159 -1.188401
v 0.799731 0.283891 2.162961
v -0.764066 0.524775 2.154126
vt 0.051952 0.803767
vt 0.051952 0.803767
vt 0.051952 0.803767
vt 0.054688 0.789062
vt 0.054688 0.789062
vt 0.054688 0.789062
vt 0.054688 0.789062
vt 0.054688 0.789062
vt 0.051952 0.803767
vt 0.051952 0.803767
vt 0.051952 0.803767
vt 0.054688 0.789062
vt 0.054688 0.789062
vt 0.054688 0.789062
vt 0.054688 0.789062
vt 0.054688 0.789062
vt 0.055226 0.803518
vt 0.055226 0.803518
vt 0.055226 0.803518
vt 0.055226 0.803518
vt 0.055226 0.803518
vt 0.055226 0.803518
vt 0.055226 0.803518
vt 0.055226 0.803518
vt 0.055226 0.803518
vt 0.055226 0.803518
vt 0.055226 0.803518
vt 0.055226 0.803518
vt 0.055226 0.803518
vt 0.055226 0.803518
vt 0.054688 0.789063
vt 0.054688 0.789062
vt 0.051952 0.803767
vt 0.054688 0.789062
vt 0.055226 0.803518
vt 0.055226 0.803518
vt 0.055226 0.803518
vt 0.055226 0.803518
vt 0.055226 0.803518
vt 0.055226 0.803518
vt 0.055226 0.803518
vt 0.055226 0.803518
vt 0.055226 0.803518
vt 0.055226 0.803518
vt 0.055226 0.803518
vt 0.055226 0.803518
vt 0.055226 0.803518
vt 0.007658 0.885748
vt 0.007658 0.885748
vt 0.007658 0.885748
vt 0.007658 0.885748
vt 0.007658 0.885748
vt 0.007658 0.885748
vt 0.007658 0.885748
vt 0.007658 0.885748
vt 0.007658 0.885748
vt 0.007658 0.885748
vt 0.007658 0.885748
vt 0.007658 0.885748
vt 0.007658 0.885748
vt 0.007658 0.885748
vt 0.051952 0.803767
vt 0.051952 0.803767
vt 0.051952 0.803767
vt 0.054688 0.789062
vt 0.054688 0.789062
vt 0.054688 0.789062
vt 0.054688 0.789062
vt 0.054688 0.789062
vt 0.054688 0.789062
vt 0.055226 0.803518
vt 0.055226 0.803518
vt 0.055226 0.803518
vt 0.007658 0.885748
vt 0.007658 0.885748
vt 0.007658 0.885748
vt 0.007658 0.885748
vt 0.007658 0.885748
vt 0.054688 0.789062
vt 0.054688 0.789062
vn 0.0904 0.8595 0.5030
vn 0.1138 0.9683 0.2223
vn -0.0398 0.7285 0.6839
vn 0.7892 0.5962 0.1476
vn 0.7843 0.1774 0.5944
vn 0.9896 0.0879 0.1140
vn -0.0214 0.9862 0.1644
vn -0.0515 0.9428 0.3292
vn 0.0229 0.9948 0.0988
vn -0.3955 0.9106 -0.1200
vn 0.6531 0.5827 -0.4837
vn -0.6209 0.5834 -0.5236
vn 0.6053 0.2923 -0.7404
vn -0.6199 0.2346 -0.7488
vn 0.6719 0.2506 0.6970
vn -0.7211 0.0285 0.6922
vn 0.8080 0.5748 0.1294
vn -0.3772 0.7573 -0.5331
vn 0.1952 0.5626 0.8033
vn 0.4221 0.8568 -0.2962
vn -0.1086 -0.0911 0.9899
vn 0.8312 -0.2845 0.4777
vn 0.5908 0.1545 -0.7919
vn -0.0137 -0.3313 -0.9434
vn 0.5521 0.7444 0.3755
vn 0.1388 0.1920 0.9715
vn 0.7820 0.0978 0.6155
vn 0.0316 0.4379 -0.8985
vn 0.6166 0.3715 -0.6941
vn 0.6044 -0.3497 -0.7159
vn -0.0421 -0.6131 -0.7889
vn -0.9750 -0.0177 0.2216
vn -0.7921 0.5752 0.2042
vn -0.2958 -0.1002 0.9500
vn -0.1504 0.1818 0.9718
vn -0.5775 0.7560 0.3081
vn -0.7958 0.1057 0.5962
vn -0.5107 0.2558 -0.8208
vn -0.8278 -0.0895 -0.5538
vn 0.1154 -0.6339 -0.7647
vn -0.1388 0.1920 0.9715
vn -0.5521 0.7444 0.3755
vn -0.7821 0.0978 0.6155
vn -0.0699 0.5497 -0.8324
vn -0.6166 0.3715 -0.6941
vn 0.0652 -0.6121 -0.7881
vn -0.0038 0.1219 -0.9925
vn 0.0422 -0.6131 -0.7888
vn 0.9725 0.2322 -0.0167
vn 0.9999 -0.0060 0.0124
vn -0.9973 0.0720 -0.0159
vn -0.9999 0.0029 0.0132
vn -0.9999 -0.0060 0.0124
vn 0.3413 0.9316 -0.1250
vn 0.1572 0.9807 0.1164
vn 0.1158 0.9545 0.2747
vn -0.0737 0.8941 0.4417
vn -0.9631 0.2664 -0.0390
vn 0.0867 0.8666 0.4915
vn 0.0737 0.8941 0.4417
vn -0.0297 -0.5540 -0.8320
vn 0.8183 0.5731 -0.0444
vn 0.0616 0.9979 -0.0212
vn -0.0707 0.9789 -0.1918
vn 0.0242 0.9973 -0.0699
vn 0.1510 0.9838 0.0968
s 1
f 15/1/1 16/2/2 17/3/3
f 28/4/4 20/5/5 21/6/6
f 20/5/7 17/7/8 22/8/9
f 23/9/10 19/10/11 13/11/12
f 13/12/12 18/13/13 14/14/14
f 20/5/5 25/15/15 21/6/6
f 22/8/16 25/15/15 20/5/5
f 21/6/6 25/15/15 27/16/17
f 29/17/18 31/18/19 33/19/20
f 31/18/19 32/20/21 6/21/22
f 29/17/18 10/22/23 36/23/24
f 38/24/25 39/25/26 7/26/27
f 37/27/28 38/24/25 35/28/29
f 37/27/28 9/29/30 41/30/31
f 42/31/32 22/8/16 43/32/33
f 43/33/33 23/9/10 13/11/12
f 24/34/34 22/8/16 42/31/32
f 43/32/33 13/12/12 14/14/14
f 45/35/35 46/36/36 2/37/37
f 46/36/36 44/38/38 12/39/39
f 12/39/39 44/38/38 48/40/40
f 50/41/41 34/42/42 3/43/43
f 34/42/42 49/44/44 30/45/45
f 11/46/46 49/44/47 52/47/48
f 33/48/20 31/49/19 10/50/23
f 10/50/23 31/49/19 5/51/49
f 31/49/19 6/52/22 5/51/49
f 8/53/50 38/54/25 7/55/27
f 2/56/37 12/57/39 1/58/51
f 11/59/52 4/60/53 30/61/45
f 53/62/54 28/63/4 19/10/11
f 15/1/1 26/64/55 16/2/2
f 20/5/7 28/4/4 15/65/56
f 15/65/56 17/7/8 20/5/7
f 17/7/8 43/32/33 22/8/9
f 23/9/10 53/62/54 19/10/11
f 13/12/12 19/66/11 18/13/13
f 26/67/55 53/68/54 23/69/10
f 23/69/10 16/70/2 26/67/55
f 22/8/16 24/34/34 25/15/15
f 21/6/6 18/13/13 28/4/4
f 28/4/4 18/13/13 19/66/11
f 29/17/18 33/19/20 10/22/23
f 31/18/19 29/17/18 32/20/21
f 38/24/25 40/71/57 39/25/26
f 37/27/28 40/71/57 38/24/25
f 37/27/28 35/28/29 9/29/30
f 43/33/33 16/2/58 23/9/10
f 14/14/14 42/31/32 43/32/33
f 45/35/35 47/72/59 46/36/36
f 46/36/36 47/72/59 44/38/38
f 50/41/41 51/73/60 34/42/42
f 34/42/42 51/73/60 49/44/44
f 11/46/61 30/45/45 49/44/44
f 35/74/29 38/54/25 8/53/50
f 9/75/30 35/74/29 8/53/50
f 12/57/39 2/56/37 46/76/36
f 4/60/53 3/77/43 34/78/42
f 4/60/53 34/78/42 30/61/45
f 26/67/62 15/65/56 28/4/4
f 43/32/33 17/7/8 16/70/58
f 53/62/54 26/64/62 28/63/4
f 15/65/63 17/7/64 55/79/65
f 54/80/66 15/65/63 55/79/65
