# Blender v2.91.0 Beta OBJ File: 'decos.blend'
# www.blender.org
o Sailboat_Cube.002_Sailboat_Cube.001
v 1.793349 1.104733 2.251350
v 2.000603 1.104733 0.027590
v 1.409145 1.950262 0.027590
v 1.263162 1.950260 3.752718
v 0.000002 1.161384 0.000001
v 2.407955 1.161385 -4.242090
v 1.971880 1.284140 -6.842686
v -0.000388 1.454112 -9.120499
v -2.570409 1.161384 -2.570409
v -2.568913 1.161384 0.000001
v 2.301812 1.161381 2.567831
v 2.568913 1.161383 0.000001
v 2.570410 1.161384 -2.570409
v 2.516862 0.929231 -4.433950
v 2.516862 -0.377611 -4.433950
v 2.109667 -0.208596 -6.778371
v 2.098022 1.047373 -6.881256
v 2.409563 -0.473371 2.000124
v 2.409564 0.929642 2.647654
v 1.569793 1.088866 5.305628
v 0.977366 -0.149923 6.374671
v 2.671743 0.930064 0.117016
v -1.370419 1.127102 -7.905026
v 0.000000 0.882418 -9.100400
v -1.438950 0.214920 -7.993659
v -2.688034 0.929318 -2.603898
v -2.516861 0.929233 -4.433950
v -2.516862 -0.377610 -4.433950
v -2.688034 -0.473370 -1.258469
v -2.098021 1.047374 -6.881256
v -2.109667 -0.208595 -6.778371
v 0.000002 1.376354 6.495620
v 1.415252 1.321247 5.385567
v 0.831376 -0.651150 5.651009
v 2.049646 -0.974598 1.625322
v 0.856856 1.376354 6.495620
v 0.000002 1.674517 8.198322
v 0.000001 -0.149923 6.374671
v 0.000002 1.487407 8.431603
v -0.977364 -0.149923 6.374671
v -2.301810 1.161383 2.567831
v -1.415249 1.321247 5.385567
v 2.140918 -0.878837 -4.295648
v 1.794546 -0.709822 -6.453105
v -0.856852 1.376354 6.495620
v 2.688035 0.929318 -2.603898
v 2.688034 -0.473371 -1.258469
v -1.142792 1.362655 -7.998638
v -1.971879 1.284140 -6.842686
v 1.726884 -0.001617 -7.588562
v 1.142795 1.362655 -7.998635
v -2.409562 -0.473371 2.000124
v -2.409561 0.929643 2.647654
v -2.671741 0.930065 0.117016
v 1.370420 1.127101 -7.905026
v 0.000001 1.230983 -9.255312
v -1.726884 -0.001617 -7.588562
v -1.468939 -0.502844 -7.198687
v -1.794546 -0.709822 -6.453105
v 1.438950 0.214920 -7.993659
v -0.831376 -0.651150 5.651009
v 0.000000 -0.651150 5.651009
v 1.468940 -0.502844 -7.198687
v 1.224015 -0.286307 -7.571476
v -2.286522 -0.974598 -1.373405
v -2.049646 -0.974598 1.625322
v -2.140918 -0.878837 -4.295648
v -0.977363 1.147187 6.487864
v -1.569790 1.088867 5.305628
v -1.224014 -0.286306 -7.571476
v -2.407954 1.161386 -4.242090
v 0.977367 1.147187 6.487864
v 0.000000 0.381191 -8.589957
v 2.286523 -0.974598 -1.373405
v 0.000000 -0.974598 1.625322
v 0.000000 -0.878837 -4.295648
v 0.000000 -0.709822 -6.453105
v -0.000641 19.733028 1.767147
v 0.076265 19.733028 1.702311
v 0.000008 19.733028 1.636327
v -0.076249 19.733028 1.702311
v 0.000002 1.116598 1.511361
v -0.190942 1.116598 1.702305
v 0.000002 1.116598 1.893249
v 0.190946 1.116598 1.702305
v 0.000002 3.022886 1.683316
v 0.121533 3.022886 1.683316
v 0.000002 3.141083 1.683316
v -0.121529 3.022886 1.683316
v 0.000002 2.904690 1.683316
v 0.000000 3.022888 -6.999645
v 0.000000 3.141084 -6.999646
v 0.121532 3.022888 -6.999645
v -0.121531 3.022888 -6.999645
v 0.000000 2.904691 -6.999645
v 0.000002 1.663275 8.408916
v 0.069175 1.663275 8.408916
v 0.000002 1.687381 8.473751
v -0.069171 1.663275 8.408916
v 0.000002 1.639168 8.344079
v 0.000001 1.348802 -8.945772
v 0.076258 1.348802 -8.945772
v 0.000001 1.310583 -8.879786
v -0.076255 1.348802 -8.945772
v 0.000001 1.387029 -9.011756
v -1.409141 1.950262 0.027590
v -1.263158 1.950260 3.752718
v -1.409141 1.950262 -2.196170
v 1.409145 1.950262 -2.196170
v 1.319412 1.950263 -3.490054
v -1.319409 1.950263 -3.490054
v 1.596309 1.558454 -3.598615
v -1.596307 1.558454 -3.598615
v -1.198449 1.230702 4.356434
v 1.198452 1.230702 4.356434
v -1.793345 1.104733 2.251350
v -2.000602 1.104733 -2.196170
v -2.000602 1.104733 0.027590
v -1.873205 1.104735 -4.016737
v 2.000603 1.104733 -2.196170
v 1.873207 1.104735 -4.016737
v 0.000001 1.808089 1.644846
v -0.096385 1.895531 1.682495
v -0.096385 3.037977 -0.891928
v 0.000001 2.950704 -0.929961
v 0.000001 1.982804 1.720528
v 0.096388 1.895531 1.682495
v 0.096387 3.037977 -0.891928
v 0.000001 3.125417 -0.854278
v 0.000000 1.114577 -5.959745
v -0.075001 1.114577 -6.033721
v -0.075000 3.088458 -6.033720
v 0.000001 3.088458 -5.959744
v 0.075001 1.114577 -6.033721
v 0.075002 3.088458 -6.033720
v 0.000000 1.114577 -6.107718
v 0.000001 3.088458 -6.107717
v -0.000646 3.900901 7.505610
v -0.000646 3.443652 1.877487
v 0.021555 3.900901 7.505610
v 0.021555 3.443652 1.877487
v 0.021561 19.733028 1.767147
v 1.801247 1.417530 -0.256614
v 1.807426 1.417530 -1.030311
v 1.653579 1.637464 -1.030311
v 1.663338 1.637464 -0.256614
v 1.701081 1.426884 0.919600
v 1.764414 1.426884 0.211720
v 1.623654 1.628110 0.211720
v 1.574903 1.628110 0.919600
v 1.658786 1.426530 2.547755
v 1.708284 1.426530 1.837378
v 1.567027 1.628465 1.837378
v 1.532163 1.628465 2.547755
v -1.801245 1.417530 -0.256614
v -1.663336 1.637464 -0.256614
v -1.653577 1.637464 -1.030311
v -1.807424 1.417530 -1.030311
v -1.741331 1.426884 0.919600
v -1.615153 1.628110 0.919600
v -1.663904 1.628110 0.211720
v -1.804664 1.426884 0.211720
v -1.663882 1.426530 2.547755
v -1.537259 1.628465 2.547755
v -1.572124 1.628465 1.837378
v -1.713381 1.426530 1.837378
v -0.033144 3.022201 -6.562014
v -0.033142 10.721464 -1.177463
v -0.033139 16.375563 -0.011719
v 0.017582 3.022201 -6.562014
v 0.017587 16.375563 -0.011719
v 0.017585 10.721464 -1.177463
v 0.017584 8.460104 -1.421499
v -0.033142 8.460104 -1.421499
v -0.033144 3.022199 -0.105904
v -0.033143 5.250734 -1.058808
v 0.017583 5.250734 -1.058808
v 0.017582 3.022199 -0.105904
v -0.033143 6.789059 -1.306514
v 0.017583 6.789059 -1.306514
v -0.033141 12.368875 0.138797
v -0.033138 19.218920 1.551117
v -0.033142 9.629193 -0.156855
v -0.033142 7.604691 -0.017550
v 0.017583 5.740981 0.282550
v 0.017582 3.041069 1.437012
v 0.017585 12.368875 0.138797
v 0.017584 9.629193 -0.156855
v 0.017588 19.218920 1.551117
v 0.017584 7.604691 -0.017550
v -0.033144 3.041069 1.437012
v -0.033143 5.740981 0.282550
vt 0.242188 0.789062
vt 0.242188 0.789062
vt 0.242188 0.789062
vt 0.242188 0.789062
vt 0.148438 0.882812
vt 0.148438 0.882812
vt 0.148437 0.882812
vt 0.148438 0.882813
vt 0.148438 0.882812
vt 0.148438 0.882812
vt 0.148438 0.882812
vt 0.148438 0.882812
vt 0.148438 0.882813
vt 0.242188 0.789062
vt 0.242188 0.789062
vt 0.242188 0.789062
vt 0.242187 0.789062
vt 0.242188 0.789062
vt 0.242188 0.789062
vt 0.242188 0.789062
vt 0.242188 0.789062
vt 0.242188 0.789062
vt 0.242187 0.789062
vt 0.242188 0.789062
vt 0.242188 0.789062
vt 0.242188 0.789062
vt 0.242188 0.789062
vt 0.242188 0.789062
vt 0.242188 0.789062
vt 0.242187 0.789062
vt 0.242188 0.789062
vt 0.148438 0.882812
vt 0.148438 0.882812
vt 0.164062 0.773438
vt 0.164062 0.773438
vt 0.164062 0.773438
vt 0.164062 0.773438
vt 0.148438 0.882812
vt 0.148438 0.882812
vt 0.242188 0.789062
vt 0.242188 0.789062
vt 0.242188 0.789062
vt 0.148438 0.882812
vt 0.148438 0.882812
vt 0.164062 0.773438
vt 0.164062 0.773438
vt 0.164062 0.773438
vt 0.164062 0.773438
vt 0.148438 0.882812
vt 0.242187 0.789062
vt 0.242188 0.789062
vt 0.242188 0.789062
vt 0.242188 0.789062
vt 0.242187 0.789062
vt 0.242188 0.789062
vt 0.242187 0.789062
vt 0.242187 0.789062
vt 0.242188 0.789062
vt 0.242188 0.789062
vt 0.242188 0.789062
vt 0.242188 0.789063
vt 0.242188 0.789062
vt 0.164062 0.773438
vt 0.164062 0.773438
vt 0.164062 0.773438
vt 0.164062 0.773438
vt 0.242188 0.789062
vt 0.164062 0.773438
vt 0.164062 0.773438
vt 0.164062 0.773438
vt 0.164062 0.773438
vt 0.164062 0.773438
vt 0.164062 0.773438
vt 0.164062 0.773438
vt 0.164062 0.773438
vt 0.164062 0.773438
vt 0.164062 0.773438
vt 0.164062 0.773438
vt 0.164062 0.773438
vt 0.242188 0.789062
vt 0.164062 0.773438
vt 0.164062 0.773438
vt 0.242188 0.789062
vt 0.242188 0.789062
vt 0.164062 0.773438
vt 0.164062 0.773438
vt 0.148438 0.882812
vt 0.242188 0.789062
vt 0.164062 0.773438
vt 0.164062 0.773438
vt 0.164062 0.773438
vt 0.164062 0.773438
vt 0.242188 0.789062
vt 0.242188 0.789062
vt 0.242188 0.789063
vt 0.242188 0.789062
vt 0.242188 0.789062
vt 0.242188 0.789062
vt 0.242188 0.789062
vt 0.242188 0.789062
vt 0.242188 0.789062
vt 0.242188 0.789063
vt 0.242188 0.789062
vt 0.242188 0.789062
vt 0.242188 0.789062
vt 0.148438 0.882812
vt 0.164062 0.773438
vt 0.164062 0.773438
vt 0.164062 0.773438
vt 0.226562 0.789062
vt 0.226562 0.789062
vt 0.226562 0.789062
vt 0.226562 0.789062
vt 0.226562 0.789062
vt 0.226562 0.789062
vt 0.226562 0.789062
vt 0.226562 0.789062
vt 0.226562 0.789062
vt 0.226562 0.789062
vt 0.226562 0.789062
vt 0.226562 0.789062
vt 0.226562 0.789062
vt 0.226562 0.789062
vt 0.226562 0.789062
vt 0.226562 0.789062
vt 0.226562 0.789062
vt 0.226562 0.789062
vt 0.226562 0.789062
vt 0.226562 0.789062
vt 0.226562 0.789062
vt 0.226562 0.789062
vt 0.226562 0.789062
vt 0.226562 0.789062
vt 0.226562 0.789062
vt 0.226562 0.789062
vt 0.226562 0.789062
vt 0.226562 0.789062
vt 0.242188 0.789062
vt 0.242188 0.789062
vt 0.242188 0.789062
vt 0.242188 0.789062
vt 0.242188 0.789062
vt 0.242188 0.789062
vt 0.242188 0.789062
vt 0.242188 0.789062
vt 0.242188 0.789062
vt 0.242188 0.789062
vt 0.242188 0.789062
vt 0.242188 0.789062
vt 0.242188 0.789062
vt 0.242188 0.789062
vt 0.242188 0.789062
vt 0.242188 0.789062
vt 0.226562 0.789062
vt 0.226562 0.789062
vt 0.226562 0.789062
vt 0.226562 0.789062
vt 0.226562 0.789062
vt 0.226562 0.789062
vt 0.226562 0.789062
vt 0.226562 0.789062
vt 0.226562 0.789062
vt 0.226562 0.789062
vt 0.226562 0.789062
vt 0.226562 0.789062
vt 0.226562 0.789062
vt 0.226562 0.789062
vt 0.226562 0.789062
vt 0.226562 0.789062
vt 0.242188 0.789062
vt 0.242188 0.789062
vt 0.242188 0.789062
vt 0.242188 0.789062
vt 0.242188 0.789062
vt 0.242188 0.789062
vt 0.164062 0.773438
vt 0.164062 0.773438
vt 0.164062 0.773438
vt 0.164062 0.773438
vt 0.164062 0.773438
vt 0.164062 0.773438
vt 0.164062 0.773438
vt 0.164062 0.773438
vt 0.164062 0.773438
vt 0.164062 0.773438
vt 0.164062 0.773438
vt 0.164062 0.773438
vt 0.164062 0.773438
vt 0.164062 0.773438
vt 0.164062 0.773438
vt 0.164062 0.773438
vt 0.164062 0.773438
vt 0.164062 0.773438
vt 0.164062 0.773438
vt 0.164062 0.773438
vt 0.164062 0.773438
vt 0.164062 0.773438
vt 0.164062 0.773438
vt 0.164062 0.773438
vt 0.242188 0.789062
vt 0.242188 0.789062
vt 0.242188 0.789062
vt 0.242188 0.789062
vt 0.242188 0.789062
vt 0.242188 0.789062
vt 0.242188 0.789062
vt 0.242188 0.789062
vt 0.242188 0.789062
vt 0.242187 0.789062
vt 0.242188 0.789062
vt 0.242187 0.789062
vt 0.242188 0.789062
vt 0.242188 0.789062
vt 0.117187 0.835938
vt 0.117188 0.835938
vt 0.117188 0.835938
vt 0.117188 0.835938
vt 0.117188 0.835938
vt 0.117188 0.835938
vt 0.117188 0.835938
vt 0.117188 0.835938
vt 0.117187 0.835938
vt 0.117188 0.835938
vt 0.117188 0.835938
vt 0.117188 0.835938
vt 0.117188 0.835938
vt 0.117188 0.835938
vt 0.117188 0.835938
vt 0.117188 0.835938
vt 0.117188 0.835938
vt 0.117188 0.835938
vt 0.117188 0.835938
vt 0.117188 0.835938
vt 0.117187 0.835937
vt 0.117188 0.835937
vt 0.117188 0.835938
vt 0.117188 0.835938
vn 0.9142 0.3976 0.0783
vn -0.0000 1.0000 -0.0032
vn 0.0430 0.9987 0.0267
vn 0.0534 0.9980 0.0335
vn -0.0000 0.9994 0.0336
vn -0.0000 1.0000 0.0000
vn 0.0211 0.9994 -0.0268
vn 0.9642 0.2367 -0.1195
vn 0.9928 -0.0188 -0.1180
vn 0.9588 -0.0129 -0.2839
vn 0.9034 0.2607 -0.3404
vn 0.9821 -0.0856 0.1675
vn 0.9607 0.1718 0.2182
vn 0.9260 0.1717 0.3362
vn 0.9100 -0.0804 0.4067
vn 0.9767 0.2054 0.0618
vn -0.7414 0.2787 -0.6105
vn -0.6635 -0.2148 -0.7167
vn -0.7574 0.1103 -0.6435
vn -0.9760 0.2136 -0.0423
vn -0.9642 0.2367 -0.1195
vn -0.9928 -0.0188 -0.1180
vn -0.9992 -0.0361 0.0197
vn -0.9034 0.2607 -0.3404
vn -0.9588 -0.0129 -0.2839
vn 0.0000 0.9942 -0.1078
vn 0.0251 0.9989 -0.0392
vn 0.7354 -0.6473 0.2002
vn 0.7049 -0.6547 0.2728
vn 0.7571 -0.6382 0.1397
vn 0.0000 0.9957 -0.0931
vn 0.0000 0.9850 -0.1725
vn 0.0000 -0.8027 0.5964
vn 0.0000 -0.7824 0.6228
vn 0.0000 -0.8041 0.5945
vn -0.0211 0.9994 -0.0268
vn -0.0251 0.9989 -0.0392
vn 0.6691 -0.6529 -0.3551
vn 0.7798 -0.6135 -0.1248
vn 0.7819 -0.6135 -0.1107
vn 0.7188 -0.6382 -0.2758
vn 0.9760 0.2136 -0.0423
vn 0.9992 -0.0361 0.0197
vn -0.0451 0.9984 0.0355
vn -0.0534 0.9980 0.0335
vn 0.8560 0.0518 -0.5143
vn 0.0450 0.9984 0.0355
vn -0.9821 -0.0856 0.1675
vn -0.9607 0.1718 0.2182
vn -0.9767 0.2054 0.0618
vn 0.7413 0.2788 -0.6105
vn 0.6635 -0.2148 -0.7167
vn 0.6562 -0.3065 -0.6896
vn -0.6691 -0.6529 -0.3551
vn -0.4469 -0.6837 -0.5770
vn -0.5311 -0.6759 -0.5110
vn -0.7188 -0.6382 -0.2758
vn 0.7574 0.1103 -0.6435
vn 0.0000 -0.8221 0.5694
vn 0.2603 -0.6901 -0.6753
vn 0.4469 -0.6837 -0.5770
vn 0.5311 -0.6759 -0.5110
vn 0.1176 -0.8098 -0.5748
vn -0.6562 -0.3065 -0.6896
vn -0.7354 -0.6473 0.2002
vn -0.7848 -0.6197 0.0083
vn -0.7857 -0.6186 -0.0040
vn -0.7571 -0.6382 0.1397
vn -0.8560 0.0518 -0.5143
vn -0.7798 -0.6135 -0.1248
vn -0.7819 -0.6135 -0.1107
vn -0.9100 -0.0804 0.4067
vn -0.8849 0.1880 0.4261
vn -0.9260 0.1717 0.3362
vn -0.2603 -0.6901 -0.6753
vn -0.1176 -0.8098 -0.5748
vn -0.7049 -0.6547 0.2728
vn -0.0430 0.9987 0.0267
vn 0.8849 0.1880 0.4261
vn 0.8764 0.2799 0.3918
vn 0.0000 -0.7052 -0.7090
vn -0.0000 -0.7688 -0.6395
vn 0.7848 -0.6197 0.0083
vn 0.7857 -0.6186 -0.0040
vn -0.8764 0.2799 0.3918
vn -0.6621 0.3857 -0.6425
vn -0.6821 0.4148 -0.6023
vn -0.8057 0.4993 -0.3187
vn -0.8927 0.4490 -0.0375
vn -0.8736 0.4770 -0.0964
vn 0.8993 0.4358 0.0362
vn 0.8735 0.4606 0.1578
vn 0.8736 0.4770 -0.0964
vn 0.8927 0.4490 -0.0375
vn -0.8993 0.4358 0.0362
vn 0.8320 0.4376 0.3409
vn 0.8298 0.4233 0.3637
vn 0.8350 0.4286 0.3450
vn -0.8320 0.4376 0.3409
vn -0.8735 0.4606 0.1578
vn -0.8350 0.4286 0.3450
vn -0.8298 0.4233 0.3637
vn 0.8057 0.4993 -0.3187
vn 0.6818 0.4154 -0.6021
vn 0.6618 0.3867 -0.6423
vn 0.0000 -0.9994 0.0345
vn -0.0082 -0.9996 0.0287
vn 0.0000 -0.9968 0.0801
vn 0.0082 -0.9996 0.0287
vn 0.0790 -0.9109 -0.4049
vn 0.0116 -0.9998 -0.0155
vn 0.0000 -0.9985 -0.0539
vn 0.0000 -0.9987 -0.0509
vn 0.0310 -0.9768 -0.2121
vn 0.0000 -0.9698 -0.2440
vn -0.0790 -0.9109 -0.4049
vn -0.0310 -0.9768 -0.2121
vn -0.0116 -0.9998 -0.0155
vn -0.6931 0.0046 -0.7208
vn 0.6906 0.0046 0.7232
vn -0.6924 0.0046 0.7215
vn 0.6931 0.0046 -0.7208
vn 0.0000 0.0000 1.0000
vn 0.0000 -0.0000 -1.0000
vn -0.6972 -0.7169 0.0000
vn 0.6972 0.7169 0.0000
vn -0.6972 0.7169 0.0000
vn 0.6972 -0.7169 -0.0000
vn 0.0000 -0.9373 0.3485
vn -0.6694 -0.2585 -0.6965
vn 0.6647 0.2600 0.7004
vn -0.6680 0.2590 0.6977
vn 0.6694 -0.2585 -0.6965
vn 0.0000 -0.8653 -0.5012
vn 0.0000 -0.8653 -0.5013
vn -0.6582 0.3776 -0.6513
vn 0.6539 -0.3789 0.6549
vn -0.6571 -0.3775 0.6525
vn 0.6582 0.3776 -0.6513
vn 0.6637 0.7472 0.0335
vn -0.1300 0.9866 0.0990
vn 0.0000 0.2670 -0.9637
vn 0.0000 0.6427 0.7661
vn 0.8080 0.5865 -0.0560
vn -0.9557 0.1339 0.2621
vn -0.8080 0.5865 -0.0560
vn 0.9557 0.1339 0.2621
vn -0.8194 0.5732 0.0000
vn -0.8221 0.5667 -0.0537
vn -0.8524 0.5204 0.0506
vn 0.8221 0.5667 -0.0537
vn 0.8194 0.5732 0.0000
vn 0.0000 0.6777 -0.7354
vn -0.7027 -0.6503 -0.2886
vn 0.7027 0.6503 0.2886
vn -0.7027 0.6503 0.2886
vn 0.7027 -0.6503 -0.2886
vn 0.7022 -0.0000 -0.7120
vn -0.7022 0.0000 -0.7120
vn 0.7023 -0.0000 0.7119
vn -0.7023 0.0000 0.7119
vn -1.0000 0.0000 -0.0000
vn 1.0000 -0.0000 0.0000
vn 0.8333 0.5527 -0.0019
vn 0.8315 0.5515 0.0658
vn 0.8323 0.5521 0.0494
vn -0.8333 0.5527 -0.0019
vn -0.8315 0.5515 0.0658
vn -0.8323 0.5521 0.0494
s off
f 1/1/1 2/2/1 3/3/1
f 4/4/1 1/1/1 3/3/1
s 1
f 5/5/2 6/6/3 7/7/4 8/8/5
f 5/5/2 9/9/6 10/10/6
f 5/5/2 11/11/7 12/12/6
f 5/5/2 12/12/6 13/13/6
f 14/14/8 15/15/9 16/16/10 17/17/11
f 18/18/12 19/19/13 20/20/14 21/21/15
f 18/18/12 22/22/16 19/19/13
f 23/23/17 24/24/18 25/25/19
f 26/26/20 27/27/21 28/28/22 29/29/23
f 27/27/21 30/30/24 31/31/25 28/28/22
f 11/11/7 5/5/2 32/32/26 33/33/27
f 18/34/28 21/35/29 34/36/29 35/37/30
f 36/38/31 32/32/26 37/39/32
f 38/40/33 39/41/34 40/42/35
f 41/43/36 42/44/37 32/32/26 5/5/2
f 16/45/38 15/46/39 43/47/40 44/48/41
f 33/33/27 32/32/26 36/38/31
f 45/49/31 37/39/32 32/32/26
f 46/50/42 47/51/43 15/15/9 14/14/8
f 8/52/5 48/53/44 49/54/45
f 17/17/11 16/16/10 50/55/46
f 47/51/43 46/50/42 22/22/16 18/18/12
f 8/52/5 7/56/4 51/57/47
f 52/58/48 53/59/49 54/60/50
f 55/61/51 24/24/52 56/62/53
f 31/63/54 57/64/55 58/65/56 59/66/57
f 17/17/11 50/55/46 60/67/58 55/61/51
f 55/61/51 60/67/58 24/24/52
f 38/68/33 40/69/35 61/70/59 62/71/59
f 60/72/60 50/73/61 63/74/62 64/75/63
f 23/23/17 56/62/64 24/24/18
f 52/76/65 29/77/66 65/78/67 66/79/68
f 42/44/37 45/49/31 32/32/26
f 30/30/24 23/23/17 25/25/19 57/80/69
f 28/81/70 31/63/54 59/66/57 67/82/71
f 50/73/61 16/45/38 44/48/41 63/74/62
f 40/42/72 68/83/73 69/84/74
f 57/64/55 25/85/75 70/86/76 58/65/56
f 40/69/77 52/76/65 66/79/68 61/70/77
f 52/58/48 40/42/72 69/84/74 53/59/49
f 29/29/23 52/58/48 54/60/50 26/26/20
f 5/5/2 71/87/78 9/9/6
f 38/40/33 21/21/35 39/41/34
f 21/21/15 72/88/79 39/41/80
f 25/85/75 24/89/81 73/90/82 70/86/76
f 47/91/83 18/34/28 35/37/30 74/92/84
f 5/5/2 13/13/6 6/6/3
f 5/5/2 10/10/6 41/43/36
f 21/21/15 20/20/14 72/88/79
f 40/42/72 39/41/85 68/83/73
f 30/30/24 57/80/69 31/31/25
f 56/62/86 23/23/17 48/53/87 8/52/86
f 23/23/17 30/30/24 49/54/88 48/53/87
f 9/93/89 71/94/90 27/27/21 26/26/20
f 12/95/91 11/96/92 19/19/13 22/22/16
f 46/50/42 14/14/8 6/97/93 13/98/94
f 22/22/16 46/50/42 13/98/94 12/95/91
f 26/26/20 54/60/50 10/99/95 9/93/89
f 11/96/92 33/100/96 20/20/14 19/19/13
f 36/101/97 37/102/98 39/41/80 72/88/79
f 42/103/99 41/104/100 53/59/49 69/84/74
f 33/100/96 36/101/97 72/88/79 20/20/14
f 37/102/101 45/105/102 68/83/73 39/41/85
f 30/30/24 27/27/21 71/94/90 49/54/88
f 69/84/74 68/83/73 45/105/102 42/103/99
f 14/14/8 17/17/11 7/56/103 6/97/93
f 17/17/11 55/61/51 51/57/104 7/56/103
f 8/52/105 51/57/104 55/61/51 56/62/105
f 54/60/50 53/59/49 41/104/100 10/99/95
f 5/5/2 8/8/5 49/106/45 71/87/78
f 75/107/106 35/37/107 34/36/108 62/71/108
f 75/107/106 62/71/108 61/70/108 66/79/109
f 58/65/110 70/86/76 73/90/82
f 65/78/111 67/82/112 76/108/113
f 59/66/114 58/65/110 73/90/82 77/109/115
f 65/78/111 76/108/113 75/107/106 66/79/109
f 67/82/112 59/66/114 77/109/115 76/108/113
f 63/74/116 73/90/82 64/75/63
f 44/48/117 77/109/115 73/90/82 63/74/116
f 43/47/112 76/108/113 77/109/115 44/48/117
f 74/92/118 76/108/113 43/47/112
f 74/92/118 35/37/107 75/107/106 76/108/113
f 24/89/81 60/72/60 64/75/63 73/90/82
f 29/77/66 28/81/70 67/82/71 65/78/67
f 15/46/39 47/91/83 74/92/84 43/47/40
f 21/35/35 38/68/33 62/71/59 34/36/59
f 78/110/6 79/111/6 80/112/6 81/113/6
f 82/114/119 83/115/119 81/113/119 80/112/119
f 84/116/120 85/117/120 79/111/120 78/110/120
f 83/115/121 84/116/121 78/110/121 81/113/121
f 85/117/122 82/114/122 80/112/122 79/111/122
f 86/118/123 87/119/123 88/120/123
f 89/121/123 86/118/123 88/120/123
f 90/122/123 86/118/123 89/121/123
f 90/122/123 87/119/123 86/118/123
f 91/123/124 92/124/124 93/125/124
f 94/126/124 92/124/124 91/123/124
f 95/127/124 94/126/124 91/123/124
f 95/127/124 91/123/124 93/125/124
f 90/122/125 89/121/125 94/126/125 95/127/125
f 88/120/126 87/119/126 93/125/126 92/124/126
f 89/121/127 88/120/127 92/124/127 94/126/127
f 87/119/128 90/122/128 95/127/128 93/125/128
f 96/128/129 97/129/129 98/130/129
f 99/131/129 96/128/129 98/130/129
f 100/132/129 96/128/129 99/131/129
f 100/132/129 97/129/129 96/128/129
f 100/132/130 99/131/130 81/113/130 80/112/130
f 98/130/131 97/129/131 79/111/131 78/110/131
f 99/131/132 98/130/132 78/110/132 81/113/132
f 97/129/133 100/132/133 80/112/133 79/111/133
f 101/133/134 102/134/134 103/135/134
f 104/136/134 101/133/134 103/135/134
f 105/137/135 101/133/134 104/136/134
f 105/137/135 102/134/134 101/133/134
f 105/137/136 104/136/136 81/113/136 80/112/136
f 103/135/137 102/134/137 79/111/137 78/110/137
f 104/136/138 103/135/138 78/110/138 81/113/138
f 102/134/139 105/137/139 80/112/139 79/111/139
f 106/138/6 107/139/6 4/4/140 3/3/141
f 108/140/6 106/138/6 3/3/141 109/141/6
f 108/140/6 109/141/6 110/142/6 111/143/6
f 112/144/142 113/145/142 111/143/142 110/142/142
f 114/146/143 115/147/143 4/4/143 107/139/143
f 109/141/144 112/144/144 110/142/144
f 116/148/145 114/146/145 107/139/145
f 113/145/146 108/140/146 111/143/146
f 115/147/147 1/1/147 4/4/147
f 117/149/148 118/150/148 106/138/148 108/140/148
f 119/151/149 117/149/149 108/140/149 113/145/149
f 118/150/150 116/148/150 107/139/150 106/138/150
f 120/152/151 121/153/151 112/144/151 109/141/151
f 2/2/152 120/152/152 109/141/152 3/3/152
f 121/153/153 119/151/153 113/145/153 112/144/153
f 122/154/154 123/155/154 124/156/154 125/157/154
f 126/158/155 127/159/155 128/160/155 129/161/155
f 123/155/156 126/158/156 129/161/156 124/156/156
f 127/159/157 122/154/157 125/157/157 128/160/157
f 130/162/158 131/163/158 132/164/158 133/165/158
f 134/166/159 130/162/159 133/165/159 135/167/159
f 131/163/160 136/168/160 137/169/160 132/164/160
f 136/168/161 134/166/161 135/167/161 137/169/161
f 138/170/162 78/171/162 139/172/162
f 140/173/163 141/174/163 142/175/163
f 143/176/164 144/177/164 145/178/164 146/179/164
f 147/180/165 148/181/165 149/182/165 150/183/165
f 151/184/166 152/185/166 153/186/166 154/187/166
f 155/188/167 156/189/167 157/190/167 158/191/167
f 159/192/168 160/193/168 161/194/168 162/195/168
f 163/196/169 164/197/169 165/198/169 166/199/169
f 167/200/162 168/201/162 169/202/162
f 170/203/163 171/204/163 172/205/163
f 170/203/163 172/205/163 173/206/163
f 167/200/162 174/207/162 168/201/162
f 167/200/162 175/208/162 176/209/162
f 170/203/163 177/210/163 178/211/163
f 167/200/162 179/212/162 174/207/162
f 170/203/163 173/206/163 180/213/163
f 167/200/162 176/209/162 179/212/162
f 170/203/163 180/213/163 177/210/163
f 169/214/162 168/215/162 181/216/162 182/217/162
f 168/215/162 174/218/162 183/219/162 181/216/162
f 174/218/162 179/220/162 184/221/162 183/219/162
f 178/222/163 177/223/163 185/224/163 186/225/163
f 173/226/163 172/227/163 187/228/163 188/229/163
f 172/227/163 171/230/163 189/231/163 187/228/163
f 177/223/163 180/232/163 190/233/163 185/224/163
f 176/234/162 175/235/162 191/236/162 192/237/162
f 180/232/163 173/226/163 188/229/163 190/233/163
f 179/220/162 176/234/162 192/237/162 184/221/162
