# Blender v2.90.0 Alpha OBJ File: 'Decos.blend'
# www.blender.org
o rock.001
v 3.618380 0.273009 3.096770
v 3.580390 2.612550 1.832901
v 1.651220 3.717608 2.959222
v 2.415540 4.595770 -1.352648
v 3.892910 1.719020 -1.948320
v 1.870270 2.468510 -3.654989
v 1.318890 6.007080 0.115442
v 0.395860 5.744320 -1.620058
v 1.183900 4.334712 -2.681168
v -3.831750 1.924500 -1.796490
v -2.275600 4.919360 -1.016588
v -2.136800 1.825902 -3.905250
v -1.536540 4.116050 -2.672598
v -1.021430 6.121160 -0.121768
v -1.499570 3.782398 2.990782
v -2.557610 4.562030 1.189162
v -3.730330 2.117389 2.213200
v -1.120810 4.788670 2.301382
v 0.686360 5.220870 2.171752
v -0.820350 1.731908 4.230062
v 2.508700 4.599360 1.226702
v 1.077080 -0.086932 4.190770
v 4.145920 -0.329260 -0.546760
v 2.558030 -0.479820 -3.113470
v 0.377090 -0.871119 -2.945350
v -0.992480 0.039792 -4.380270
v -1.568950 -0.460978 -3.791370
v -4.445520 0.052330 -1.030250
v -3.072590 0.207468 3.537480
v 2.268180 0.362762 -3.999300
v -4.418600 0.951880 0.850740
vt 0.132812 0.804688
vt 0.132812 0.804688
vt 0.132812 0.804688
vt 0.132812 0.804688
vt 0.132812 0.804688
vt 0.132812 0.804688
vt 0.132812 0.804688
vt 0.132812 0.804688
vt 0.132812 0.804688
vt 0.132812 0.804688
vt 0.132812 0.804688
vt 0.132812 0.804688
vt 0.132812 0.804688
vt 0.132812 0.804688
vt 0.132812 0.804688
vt 0.132812 0.804688
vt 0.132812 0.804688
vt 0.132812 0.804688
vt 0.132812 0.804688
vt 0.132812 0.804688
vt 0.132812 0.804688
vt 0.132812 0.804688
vt 0.132812 0.804688
vt 0.132812 0.804688
vt 0.132812 0.804688
vt 0.132812 0.804688
vt 0.132812 0.804688
vt 0.132812 0.804688
vt 0.132812 0.804688
vt 0.132812 0.804688
vt 0.132812 0.804688
vn 0.7122 -0.3698 0.5967
vn 0.8770 0.3534 0.3257
vn 0.3717 0.4698 0.8007
vn 0.7163 0.6114 -0.3364
vn 0.9119 0.1882 -0.3647
vn 0.2974 0.3409 -0.8918
vn 0.4038 0.9131 0.0564
vn 0.0835 0.8378 -0.5396
vn 0.2619 0.5873 -0.7658
vn -0.8655 0.3122 -0.3917
vn -0.6790 0.6670 -0.3068
vn -0.4321 0.2134 -0.8762
vn -0.3744 0.5870 -0.7178
vn -0.3250 0.9456 -0.0142
vn -0.3412 0.5162 0.7856
vn -0.7235 0.6317 0.2784
vn -0.8186 0.3511 0.4545
vn -0.2984 0.7176 0.6293
vn 0.1549 0.7556 0.6365
vn -0.1214 0.2123 0.9696
vn 0.7309 0.6204 0.2845
vn 0.1784 -0.5559 0.8119
vn 0.8047 -0.5932 -0.0241
vn 0.4985 -0.7366 -0.4571
vn -0.0188 -0.9766 -0.2143
vn -0.1622 -0.3221 -0.9327
vn -0.4388 -0.7167 -0.5420
vn -0.8106 -0.5523 -0.1948
vn -0.5428 -0.5054 0.6708
vn 0.3920 -0.1476 -0.9080
vn -0.9847 0.0010 0.1740
vn 0.3920 -0.1476 -0.9081
s 1
f 1/1/1 2/2/2 3/3/3
f 4/4/4 5/5/5 6/6/6
f 7/7/7 4/4/4 8/8/8
f 9/9/9 8/8/8 4/4/4
f 6/6/6 9/9/9 4/4/4
f 10/10/10 11/11/11 12/12/12
f 13/13/13 11/11/11 14/14/14
f 15/15/15 16/16/16 17/17/17
f 18/18/18 19/19/19 14/14/14
f 20/20/20 15/15/15 17/17/17
f 3/3/3 15/15/15 20/20/20
f 16/16/16 18/18/18 14/14/14
f 15/15/15 18/18/18 16/16/16
f 19/19/19 7/7/7 14/14/14
f 19/19/19 21/21/21 7/7/7
f 3/3/3 19/19/19 15/15/15
f 15/15/15 19/19/19 18/18/18
f 1/1/1 3/3/3 20/20/20
f 22/22/22 23/23/23 1/1/1
f 23/23/23 24/24/24 5/5/5
f 25/25/25 24/24/24 23/23/23
f 26/26/26 27/27/27 28/28/28
f 28/28/28 22/22/22 29/29/29
f 30/30/30 12/12/12 6/6/6
f 31/31/31 28/28/28 29/29/29
f 10/10/10 17/17/17 16/16/16
f 28/28/28 31/31/31 10/10/10
f 29/29/29 22/22/22 20/20/20
f 4/4/4 21/21/21 2/2/2
f 3/3/3 21/21/21 19/19/19
f 7/7/7 21/21/21 4/4/4
f 2/2/2 21/21/21 3/3/3
f 7/7/7 8/8/8 14/14/14
f 30/30/32 6/6/6 5/5/5
f 8/8/8 13/13/13 14/14/14
f 11/11/11 13/13/13 12/12/12
f 9/9/9 13/13/13 8/8/8
f 13/13/13 9/9/9 12/12/12
f 10/10/10 16/16/16 11/11/11
f 28/28/28 10/10/10 12/12/12
f 11/11/11 16/16/16 14/14/14
f 29/29/29 17/17/17 31/31/31
f 29/29/29 20/20/20 17/17/17
f 22/22/22 25/25/25 23/23/23
f 5/5/5 24/24/24 30/30/32
f 27/27/27 25/25/25 22/22/22
f 24/24/24 25/25/25 27/27/27
f 30/30/32 24/24/24 26/26/26
f 24/24/24 27/27/27 26/26/26
f 27/27/27 22/22/22 28/28/28
f 1/1/1 5/5/5 2/2/2
f 23/23/23 5/5/5 1/1/1
f 2/2/2 5/5/5 4/4/4
f 30/30/32 26/26/26 6/6/6
f 28/28/28 12/12/12 26/26/26
f 26/26/26 12/12/12 6/6/6
f 9/9/9 6/6/6 12/12/12
f 10/10/10 31/31/31 17/17/17
f 22/22/22 1/1/1 20/20/20
