# Blender v2.90.0 Alpha OBJ File: 'Decos.blend'
# www.blender.org
o rock.005
v 3.618375 -0.009766 3.096769
v 3.586323 0.993997 1.834341
v 1.872308 2.656446 3.349824
v 4.541399 4.164506 -1.815107
v 4.298142 0.776173 -2.106833
v 2.445046 2.104519 -4.735075
v 3.557758 14.609053 1.848714
v 0.635341 12.093943 -2.581054
v 2.704272 5.055130 -4.421174
v -6.226440 5.014380 -3.077868
v -3.030761 14.378942 -1.258352
v -2.337008 2.790564 -5.166340
v -1.856214 8.294160 -3.924134
v -1.716977 16.739716 -0.045098
v -2.240620 7.715744 3.728350
v -3.362250 13.933590 1.347287
v -6.764311 5.796350 2.430566
v -1.716962 13.681548 3.464704
v 1.260848 13.551546 4.525676
v -1.062390 1.785949 4.230064
v 3.836542 3.905230 1.945756
v 1.077079 -0.216054 4.190766
v 4.154058 -0.577768 -0.546779
v 2.658900 -0.788796 -3.216773
v 0.362717 -1.008168 -2.985323
v -1.004695 -0.022575 -4.614388
v -1.600348 -0.441931 -3.852022
v -12.178908 0.372481 -1.100616
v -3.930862 0.853850 3.537480
v 2.474914 0.084846 -4.431404
v -9.655457 3.198667 1.000960
vt 0.132812 0.804688
vt 0.132812 0.804688
vt 0.132812 0.804688
vt 0.132812 0.804688
vt 0.132812 0.804688
vt 0.132812 0.804688
vt 0.132812 0.804688
vt 0.132812 0.804688
vt 0.132812 0.804688
vt 0.132812 0.804688
vt 0.132812 0.804688
vt 0.132812 0.804688
vt 0.132812 0.804688
vt 0.132812 0.804688
vt 0.132812 0.804688
vt 0.132812 0.804688
vt 0.132812 0.804688
vt 0.132812 0.804688
vt 0.132812 0.804688
vt 0.132812 0.804688
vt 0.132812 0.804688
vt 0.132812 0.804688
vt 0.132812 0.804688
vt 0.132812 0.804688
vt 0.132812 0.804688
vt 0.132812 0.804688
vt 0.132812 0.804688
vt 0.132812 0.804688
vt 0.132812 0.804688
vt 0.132812 0.804688
vt 0.132812 0.804688
vn 0.7227 -0.3603 0.5899
vn 0.9292 0.1737 0.3263
vn 0.4202 0.0552 0.9057
vn 0.9709 0.0706 -0.2288
vn 0.9397 -0.1999 -0.2775
vn 0.3768 -0.0663 -0.9239
vn 0.7882 0.6081 0.0945
vn 0.3191 0.4315 -0.8438
vn 0.5340 0.2142 -0.8179
vn -0.6067 0.4004 -0.6867
vn -0.5754 0.5209 -0.6306
vn -0.1611 -0.0114 -0.9869
vn -0.2598 0.2765 -0.9252
vn -0.2173 0.9556 -0.1991
vn -0.2381 0.0689 0.9688
vn -0.8348 0.4320 0.3413
vn -0.7068 0.3532 0.6129
vn -0.4964 0.3999 0.7705
vn 0.2215 0.3800 0.8981
vn -0.0190 0.0114 0.9998
vn 0.8584 -0.0469 0.5108
vn 0.1700 -0.5432 0.8222
vn 0.7417 -0.6691 0.0464
vn 0.3933 -0.8461 -0.3598
vn -0.0913 -0.9776 -0.1897
vn -0.0650 -0.5646 -0.8228
vn -0.1500 -0.9336 -0.3255
vn -0.9363 -0.3347 -0.1060
vn -0.3098 -0.4244 0.8509
vn 0.3692 -0.4005 -0.8386
vn -0.7664 0.4098 0.4947
s 1
f 1/1/1 2/2/2 3/3/3
f 4/4/4 5/5/5 6/6/6
f 7/7/7 4/4/4 8/8/8
f 9/9/9 8/8/8 4/4/4
f 6/6/6 9/9/9 4/4/4
f 10/10/10 11/11/11 12/12/12
f 13/13/13 11/11/11 14/14/14
f 15/15/15 16/16/16 17/17/17
f 18/18/18 19/19/19 14/14/14
f 20/20/20 15/15/15 17/17/17
f 3/3/3 15/15/15 20/20/20
f 16/16/16 18/18/18 14/14/14
f 15/15/15 18/18/18 16/16/16
f 19/19/19 7/7/7 14/14/14
f 19/19/19 21/21/21 7/7/7
f 3/3/3 19/19/19 15/15/15
f 15/15/15 19/19/19 18/18/18
f 1/1/1 3/3/3 20/20/20
f 22/22/22 23/23/23 1/1/1
f 23/23/23 24/24/24 5/5/5
f 25/25/25 24/24/24 23/23/23
f 26/26/26 27/27/27 28/28/28
f 28/28/28 22/22/22 29/29/29
f 30/30/30 12/12/12 6/6/6
f 31/31/31 28/28/28 29/29/29
f 10/10/10 17/17/17 16/16/16
f 28/28/28 31/31/31 10/10/10
f 29/29/29 22/22/22 20/20/20
f 4/4/4 21/21/21 2/2/2
f 3/3/3 21/21/21 19/19/19
f 7/7/7 21/21/21 4/4/4
f 2/2/2 21/21/21 3/3/3
f 7/7/7 8/8/8 14/14/14
f 30/30/30 6/6/6 5/5/5
f 8/8/8 13/13/13 14/14/14
f 11/11/11 13/13/13 12/12/12
f 9/9/9 13/13/13 8/8/8
f 13/13/13 9/9/9 12/12/12
f 10/10/10 16/16/16 11/11/11
f 28/28/28 10/10/10 12/12/12
f 11/11/11 16/16/16 14/14/14
f 29/29/29 17/17/17 31/31/31
f 29/29/29 20/20/20 17/17/17
f 22/22/22 25/25/25 23/23/23
f 5/5/5 24/24/24 30/30/30
f 27/27/27 25/25/25 22/22/22
f 24/24/24 25/25/25 27/27/27
f 30/30/30 24/24/24 26/26/26
f 24/24/24 27/27/27 26/26/26
f 27/27/27 22/22/22 28/28/28
f 1/1/1 5/5/5 2/2/2
f 23/23/23 5/5/5 1/1/1
f 2/2/2 5/5/5 4/4/4
f 30/30/30 26/26/26 6/6/6
f 28/28/28 12/12/12 26/26/26
f 26/26/26 12/12/12 6/6/6
f 9/9/9 6/6/6 12/12/12
f 10/10/10 31/31/31 17/17/17
f 22/22/22 1/1/1 20/20/20
