# Blender v2.90.0 Alpha OBJ File: 'Decos.blend'
# www.blender.org
o rock.002
v 3.618380 -0.009763 3.096770
v 3.580390 0.991330 1.832900
v 1.651220 2.517879 2.959221
v 2.415540 3.201030 -1.352648
v 3.892910 0.705660 -1.948320
v 1.870270 1.659293 -3.654990
v 1.318890 6.680270 0.115443
v 0.395860 7.635490 -1.620057
v 1.183900 4.138802 -2.681167
v -3.831750 3.832000 -1.796487
v -2.275600 8.404860 -1.016587
v -2.136800 2.591213 -3.905250
v -1.536540 6.430943 -2.672597
v -1.021430 8.579329 -0.121767
v -1.499570 5.074780 2.990783
v -2.557610 8.019040 1.189163
v -3.730330 3.572577 2.213202
v -1.120810 6.858637 2.301383
v 0.686360 5.580440 2.171753
v -0.820350 1.684487 4.230062
v 2.508700 2.879520 1.226701
v 1.077080 -0.216053 4.190770
v 4.145920 -0.571810 -0.546760
v 2.558030 -0.604657 -3.113470
v 0.377090 -0.797270 -2.945350
v -0.992480 0.087863 -4.380270
v -1.568950 -0.330847 -3.791370
v -4.445520 0.587730 -1.030250
v -3.072590 0.367677 3.537480
v 2.268180 0.147473 -3.999300
v -4.418600 2.112130 0.850740
vt 0.132812 0.804688
vt 0.132812 0.804688
vt 0.132812 0.804688
vt 0.132812 0.804688
vt 0.132812 0.804688
vt 0.132812 0.804688
vt 0.132812 0.804688
vt 0.132812 0.804688
vt 0.132812 0.804688
vt 0.132812 0.804688
vt 0.132812 0.804688
vt 0.132812 0.804688
vt 0.132812 0.804688
vt 0.132812 0.804688
vt 0.132812 0.804688
vt 0.132812 0.804688
vt 0.132812 0.804688
vt 0.132812 0.804688
vt 0.132812 0.804688
vt 0.132812 0.804688
vt 0.132812 0.804688
vt 0.132812 0.804688
vt 0.132812 0.804688
vt 0.132812 0.804688
vt 0.132812 0.804688
vt 0.132812 0.804688
vt 0.132812 0.804688
vt 0.132812 0.804688
vt 0.132812 0.804688
vt 0.132812 0.804688
vt 0.132812 0.804688
vn 0.7355 -0.3223 0.5960
vn 0.8907 0.3999 0.2160
vn 0.5374 0.4161 0.7335
vn 0.8674 0.4328 -0.2455
vn 0.9193 0.1600 -0.3596
vn 0.3661 0.3547 -0.8603
vn 0.8030 0.5691 0.1768
vn 0.4756 0.7175 -0.5089
vn 0.5397 0.3738 -0.7543
vn -0.8810 0.2456 -0.4043
vn -0.4107 0.8026 -0.4326
vn -0.3592 0.1611 -0.9192
vn -0.1948 0.4534 -0.8698
vn 0.2447 0.9684 0.0491
vn -0.1372 0.3334 0.9328
vn -0.5407 0.7095 0.4519
vn -0.8066 0.2579 0.5318
vn 0.1346 0.5773 0.8054
vn 0.5525 0.4596 0.6954
vn -0.0512 0.1735 0.9835
vn 0.8548 0.4524 0.2541
vn 0.1428 -0.5671 0.8112
vn 0.8070 -0.5905 -0.0017
vn 0.4303 -0.7871 -0.4420
vn -0.0718 -0.9783 -0.1944
vn -0.1776 -0.3325 -0.9262
vn -0.4823 -0.7080 -0.5158
vn -0.8245 -0.5306 -0.1969
vn -0.5621 -0.5395 0.6268
vn 0.4022 -0.1387 -0.9050
vn -0.3592 0.1611 -0.9193
vn -0.9834 0.0495 0.1746
s 1
f 1/1/1 2/2/2 3/3/3
f 4/4/4 5/5/5 6/6/6
f 7/7/7 4/4/4 8/8/8
f 9/9/9 8/8/8 4/4/4
f 6/6/6 9/9/9 4/4/4
f 10/10/10 11/11/11 12/12/12
f 13/13/13 11/11/11 14/14/14
f 15/15/15 16/16/16 17/17/17
f 18/18/18 19/19/19 14/14/14
f 20/20/20 15/15/15 17/17/17
f 3/3/3 15/15/15 20/20/20
f 16/16/16 18/18/18 14/14/14
f 15/15/15 18/18/18 16/16/16
f 19/19/19 7/7/7 14/14/14
f 19/19/19 21/21/21 7/7/7
f 3/3/3 19/19/19 15/15/15
f 15/15/15 19/19/19 18/18/18
f 1/1/1 3/3/3 20/20/20
f 22/22/22 23/23/23 1/1/1
f 23/23/23 24/24/24 5/5/5
f 25/25/25 24/24/24 23/23/23
f 26/26/26 27/27/27 28/28/28
f 28/28/28 22/22/22 29/29/29
f 30/30/30 12/12/31 6/6/6
f 31/31/32 28/28/28 29/29/29
f 10/10/10 17/17/17 16/16/16
f 28/28/28 31/31/32 10/10/10
f 29/29/29 22/22/22 20/20/20
f 4/4/4 21/21/21 2/2/2
f 3/3/3 21/21/21 19/19/19
f 7/7/7 21/21/21 4/4/4
f 2/2/2 21/21/21 3/3/3
f 7/7/7 8/8/8 14/14/14
f 30/30/30 6/6/6 5/5/5
f 8/8/8 13/13/13 14/14/14
f 11/11/11 13/13/13 12/12/12
f 9/9/9 13/13/13 8/8/8
f 13/13/13 9/9/9 12/12/12
f 10/10/10 16/16/16 11/11/11
f 28/28/28 10/10/10 12/12/12
f 11/11/11 16/16/16 14/14/14
f 29/29/29 17/17/17 31/31/32
f 29/29/29 20/20/20 17/17/17
f 22/22/22 25/25/25 23/23/23
f 5/5/5 24/24/24 30/30/30
f 27/27/27 25/25/25 22/22/22
f 24/24/24 25/25/25 27/27/27
f 30/30/30 24/24/24 26/26/26
f 24/24/24 27/27/27 26/26/26
f 27/27/27 22/22/22 28/28/28
f 1/1/1 5/5/5 2/2/2
f 23/23/23 5/5/5 1/1/1
f 2/2/2 5/5/5 4/4/4
f 30/30/30 26/26/26 6/6/6
f 28/28/28 12/12/12 26/26/26
f 26/26/26 12/12/12 6/6/6
f 9/9/9 6/6/6 12/12/12
f 10/10/10 31/31/32 17/17/17
f 22/22/22 1/1/1 20/20/20
