# Blender v2.90.0 Alpha OBJ File: 'Decos.blend'
# www.blender.org
o rock.003
v 3.618380 -0.009762 3.096770
v 3.580390 0.968500 1.832900
v 1.651220 1.567840 2.959220
v 2.415540 1.619630 -1.352650
v 3.892910 0.705660 -1.948320
v 1.870270 1.326112 -3.654990
v 1.318890 2.327680 0.115440
v 0.395860 2.598850 -1.620059
v 1.183900 1.922011 -2.681170
v -3.831750 1.636110 -1.796490
v -2.275600 2.939630 -1.016590
v -2.136800 1.501332 -3.905250
v -1.536540 2.465680 -2.672599
v -1.021430 3.167830 -0.121768
v -1.499570 2.253779 2.990781
v -2.557610 2.817070 1.189160
v -3.730330 1.775880 2.213200
v -1.120810 2.526788 2.301382
v 0.686360 2.232710 2.171751
v -0.820350 1.210648 4.230060
v 2.508700 1.538600 1.226700
v 1.077080 -0.216052 4.190770
v 4.145920 -0.571810 -0.546760
v 2.558030 -0.604658 -3.113470
v 0.377090 -0.941200 -2.945350
v -0.992480 0.009102 -4.380270
v -1.568950 -0.465858 -3.791370
v -4.445520 0.052330 -1.030250
v -3.072590 0.199418 3.537480
v 2.268180 0.147472 -3.999300
v -4.418600 0.899640 0.850740
vt 0.132812 0.804688
vt 0.132812 0.804688
vt 0.132812 0.804688
vt 0.132812 0.804688
vt 0.132812 0.804688
vt 0.132812 0.804688
vt 0.132812 0.804688
vt 0.132812 0.804688
vt 0.132812 0.804688
vt 0.132812 0.804688
vt 0.132812 0.804688
vt 0.132812 0.804688
vt 0.132812 0.804688
vt 0.132812 0.804688
vt 0.132812 0.804688
vt 0.132812 0.804688
vt 0.132812 0.804688
vt 0.132812 0.804688
vt 0.132812 0.804688
vt 0.132812 0.804688
vt 0.132812 0.804688
vt 0.132812 0.804688
vt 0.132812 0.804688
vt 0.132812 0.804688
vt 0.132812 0.804688
vt 0.132812 0.804688
vt 0.132812 0.804688
vt 0.132812 0.804688
vt 0.132812 0.804688
vt 0.132812 0.804688
vt 0.132812 0.804688
vn 0.7312 -0.2648 0.6287
vn 0.7684 0.6083 0.1990
vn 0.3732 0.7522 0.5431
vn 0.4813 0.8695 -0.1109
vn 0.8735 0.3439 -0.3447
vn 0.2819 0.5810 -0.7635
vn 0.4269 0.9034 0.0411
vn 0.2802 0.9300 -0.2379
vn 0.2880 0.8851 -0.3657
vn -0.7862 0.4803 -0.3888
vn -0.3377 0.9218 -0.1904
vn -0.3987 0.3790 -0.8351
vn -0.0897 0.8733 -0.4788
vn 0.0841 0.9964 0.0063
vn -0.1239 0.8118 0.5706
vn -0.3682 0.9115 0.1833
vn -0.7293 0.5279 0.4352
vn 0.0797 0.9357 0.3436
vn 0.2874 0.9068 0.3085
vn -0.0648 0.3639 0.9292
vn 0.4492 0.8877 0.1007
vn 0.1795 -0.5209 0.8345
vn 0.8141 -0.5808 0.0010
vn 0.4522 -0.7658 -0.4572
vn -0.0481 -0.9733 -0.2244
vn -0.1464 -0.2841 -0.9475
vn -0.4516 -0.7092 -0.5414
vn -0.8228 -0.5340 -0.1946
vn -0.5586 -0.4562 0.6927
vn 0.3910 -0.0836 -0.9166
vn -0.9840 0.0501 0.1707
s 1
f 1/1/1 2/2/2 3/3/3
f 4/4/4 5/5/5 6/6/6
f 7/7/7 4/4/4 8/8/8
f 9/9/9 8/8/8 4/4/4
f 6/6/6 9/9/9 4/4/4
f 10/10/10 11/11/11 12/12/12
f 13/13/13 11/11/11 14/14/14
f 15/15/15 16/16/16 17/17/17
f 18/18/18 19/19/19 14/14/14
f 20/20/20 15/15/15 17/17/17
f 3/3/3 15/15/15 20/20/20
f 16/16/16 18/18/18 14/14/14
f 15/15/15 18/18/18 16/16/16
f 19/19/19 7/7/7 14/14/14
f 19/19/19 21/21/21 7/7/7
f 3/3/3 19/19/19 15/15/15
f 15/15/15 19/19/19 18/18/18
f 1/1/1 3/3/3 20/20/20
f 22/22/22 23/23/23 1/1/1
f 23/23/23 24/24/24 5/5/5
f 25/25/25 24/24/24 23/23/23
f 26/26/26 27/27/27 28/28/28
f 28/28/28 22/22/22 29/29/29
f 30/30/30 12/12/12 6/6/6
f 31/31/31 28/28/28 29/29/29
f 10/10/10 17/17/17 16/16/16
f 28/28/28 31/31/31 10/10/10
f 29/29/29 22/22/22 20/20/20
f 4/4/4 21/21/21 2/2/2
f 3/3/3 21/21/21 19/19/19
f 7/7/7 21/21/21 4/4/4
f 2/2/2 21/21/21 3/3/3
f 7/7/7 8/8/8 14/14/14
f 30/30/30 6/6/6 5/5/5
f 8/8/8 13/13/13 14/14/14
f 11/11/11 13/13/13 12/12/12
f 9/9/9 13/13/13 8/8/8
f 13/13/13 9/9/9 12/12/12
f 10/10/10 16/16/16 11/11/11
f 28/28/28 10/10/10 12/12/12
f 11/11/11 16/16/16 14/14/14
f 29/29/29 17/17/17 31/31/31
f 29/29/29 20/20/20 17/17/17
f 22/22/22 25/25/25 23/23/23
f 5/5/5 24/24/24 30/30/30
f 27/27/27 25/25/25 22/22/22
f 24/24/24 25/25/25 27/27/27
f 30/30/30 24/24/24 26/26/26
f 24/24/24 27/27/27 26/26/26
f 27/27/27 22/22/22 28/28/28
f 1/1/1 5/5/5 2/2/2
f 23/23/23 5/5/5 1/1/1
f 2/2/2 5/5/5 4/4/4
f 30/30/30 26/26/26 6/6/6
f 28/28/28 12/12/12 26/26/26
f 26/26/26 12/12/12 6/6/6
f 9/9/9 6/6/6 12/12/12
f 10/10/10 31/31/31 17/17/17
f 22/22/22 1/1/1 20/20/20
