# Blender v2.91.0 Beta OBJ File: 'decos.blend'
# www.blender.org
o Cube.001_Cube.010
v -0.494279 0.199999 -0.079594
v -0.789908 0.199999 -0.021164
v -0.245694 0.200000 -0.245694
v -0.079594 0.200000 -0.494280
v -0.021164 0.200000 -0.789594
v -4.000000 0.200000 -0.021267
v -0.021267 0.200002 -4.000000
v -0.665555 0.199982 -0.493744
v -0.832919 0.199982 -0.460676
v -0.562562 0.200000 -0.562562
v -0.493731 0.200000 -0.665575
v -0.460674 0.200000 -0.832650
v -3.999986 0.200000 -0.460775
v -0.460775 0.200002 -3.999986
v -0.672328 0.199981 -0.510121
v -0.575094 0.200000 -0.575093
v -0.510108 0.200000 -0.672348
v -0.478312 0.200000 -0.834378
v -3.999985 0.200000 -0.478497
v -0.478497 0.200002 -3.999985
v -3.999985 0.200000 -3.999985
vt 0.179688 0.882812
vt 0.179688 0.882812
vt 0.179688 0.882812
vt 0.179688 0.882812
vt 0.179688 0.882812
vt 0.179688 0.882812
vt 0.179688 0.882812
vt 0.179688 0.882812
vt 0.179688 0.882812
vt 0.179688 0.882812
vt 0.179688 0.882812
vt 0.179688 0.882812
vt 0.179688 0.882812
vt 0.257812 0.835938
vt 0.257812 0.835938
vt 0.257812 0.835938
vt 0.257812 0.835938
vt 0.257812 0.835938
vt 0.257812 0.835938
vt 0.257812 0.835938
vt 0.179688 0.882812
vn 0.0000 1.0000 0.0000
vn -0.0001 1.0000 0.0001
vn 0.0000 1.0000 0.0001
vn 0.0000 1.0000 0.0003
s 1
f 3/1/1 11/2/1 10/3/1
f 5/4/1 11/2/1 4/5/1
f 7/6/1 12/7/1 5/4/1
f 2/8/1 8/9/1 9/10/1
f 6/11/1 9/10/1 13/12/1
f 3/1/1 8/9/2 1/13/1
f 21/14/1 18/15/1 20/16/1
f 18/15/1 19/17/1 17/18/1
f 17/18/1 19/17/1 16/19/3
f 16/19/3 19/17/1 15/20/4
f 3/1/1 4/5/1 11/2/1
f 5/4/1 12/7/1 11/2/1
f 7/6/1 14/21/1 12/7/1
f 2/8/1 1/13/1 8/9/1
f 6/11/1 2/8/1 9/10/1
f 3/1/1 10/3/2 8/9/2
f 21/14/1 19/17/1 18/15/1
