# Blender v2.91.0 Beta OBJ File: 'decos.blend'
# www.blender.org
o Cube.035_Cube.001_Cube.035_Cube.006
v 2.000000 -0.104579 -1.979696
v -2.000000 -0.104579 -1.979696
v 2.000000 -0.104756 2.020304
v -2.000000 -0.104756 2.020304
v 2.000000 0.145067 2.020304
v -2.000000 0.145067 2.020304
v 2.000000 0.145244 -1.979696
v -2.000000 0.145244 -1.979696
vt 0.164062 0.789062
vt 0.164062 0.789062
vt 0.164062 0.789062
vt 0.164062 0.789062
vt 0.164062 0.789062
vt 0.164062 0.789062
vt 0.164062 0.789062
vt 0.164062 0.789062
vn 0.0000 -1.0000 -0.0000
vn 0.0000 1.0000 0.0000
vn 1.0000 0.0000 0.0000
vn 0.0000 0.0000 -1.0000
vn -1.0000 0.0000 0.0000
vn 0.0000 0.0000 1.0000
s 1
f 3/1/1 2/2/1 1/3/1
f 8/4/2 5/5/2 7/6/2
f 1/3/3 5/5/3 3/1/3
f 2/2/4 7/6/4 1/3/4
f 2/2/5 6/7/5 8/4/5
f 3/1/6 6/7/6 4/8/6
f 3/1/1 4/8/1 2/2/1
f 8/4/2 6/7/2 5/5/2
f 1/3/3 7/6/3 5/5/3
f 2/2/4 8/4/4 7/6/4
f 2/2/5 4/8/5 6/7/5
f 3/1/6 5/5/6 6/7/6
