# Blender v2.91.0 Beta OBJ File: 'decos.blend'
# www.blender.org
o Cube
v 1.350580 10.997098 0.000000
v 0.600604 11.885798 0.000000
v 1.587662 11.366955 0.000000
v 0.544245 11.456887 0.000000
v -1.350580 10.997098 0.000000
v -0.600604 11.885798 0.000000
v -1.587662 11.366955 0.000000
v -0.544245 11.456887 0.000000
v 2.084929 3.966114 0.000000
v 1.758493 3.966114 0.000000
v 0.270740 11.990847 0.066743
v 0.321990 12.734841 0.020894
v 0.000000 12.734841 0.020894
v -2.084929 3.966114 0.000000
v 1.690499 10.447175 0.000000
v 2.024673 10.605868 0.000000
v -1.758493 3.966114 0.000000
v -0.270740 11.990847 0.066743
v -0.321990 12.734841 0.020894
v -1.690499 10.447175 0.000000
v -2.024673 10.605868 0.000000
vt 0.164062 0.789062
vt 0.164062 0.789062
vt 0.164062 0.789062
vt 0.164062 0.789062
vt 0.164062 0.789062
vt 0.164062 0.789062
vt 0.164062 0.789062
vt 0.164062 0.789062
vt 0.164062 0.789062
vt 0.164062 0.789062
vt 0.164062 0.789062
vt 0.164062 0.789062
vt 0.164062 0.789062
vt 0.164062 0.789062
vt 0.164062 0.789062
vt 0.164062 0.789062
vt 0.164062 0.789062
vt 0.164062 0.789062
vt 0.164062 0.789062
vt 0.164062 0.789062
vt 0.164062 0.789062
vn 0.0000 0.0615 0.9981
vn -0.0000 0.0000 1.0000
s off
f 11/1/1 13/2/1 18/3/1
f 7/4/2 8/5/2 6/6/2
f 14/7/2 20/8/2 21/9/2
f 4/10/2 3/11/2 2/12/2
f 5/13/2 21/9/2 20/8/2
f 15/14/2 9/15/2 16/16/2
f 8/5/2 2/12/2 6/6/2
f 1/17/2 16/16/2 3/11/2
f 12/18/1 13/2/1 11/1/1
f 13/2/1 19/19/1 18/3/1
f 7/4/2 5/13/2 8/5/2
f 14/7/2 17/20/2 20/8/2
f 4/10/2 1/17/2 3/11/2
f 5/13/2 7/4/2 21/9/2
f 15/14/2 10/21/2 9/15/2
f 8/5/2 4/10/2 2/12/2
f 1/17/2 15/14/2 16/16/2
