# Blender v2.91.0 Beta OBJ File: 'decos.blend'
# www.blender.org
o Cube.001_Cube.010
v -4.000000 0.200000 -0.021267
v -3.999986 0.200000 -0.460775
v 0.000000 0.200001 -3.999985
v 0.000000 0.200000 -0.478497
v 0.000000 0.200000 -0.460775
v 0.000000 0.200000 -0.021267
v -3.999985 0.200000 -0.478497
v -3.999985 0.200001 -3.999985
vt 0.000000 0.000000
vt 0.000000 0.000000
vt 0.000000 0.000000
vt 0.000000 0.000000
vt 0.179688 0.882812
vt 0.179688 0.882812
vt 0.179688 0.882812
vt 0.179688 0.882812
vn 0.0000 1.0000 0.0000
s off
f 4/1/1 8/2/1 7/3/1
f 4/1/1 3/4/1 8/2/1
s 1
f 6/5/1 2/6/1 1/7/1
f 6/5/1 5/8/1 2/6/1
