# Blender v2.91.0 Beta OBJ File: 'decos.blend'
# www.blender.org
o Cube_Cube.001
v -0.681581 -1.000000 1.000000
v -0.681581 1.000000 1.000000
v -0.681581 -1.000000 -1.000000
v -0.681581 1.000000 -1.000000
v 0.681581 -1.000000 1.000000
v 0.681581 1.000000 1.000000
v 0.681581 1.000000 -1.000000
v -0.278654 -1.000000 1.009539
v -0.278654 0.539751 1.009539
v 0.278654 -1.000000 1.009539
v 0.278654 0.539751 1.009539
v -0.237808 -0.937402 1.035650
v -0.237808 0.477153 1.035650
v 0.237808 0.477153 1.035650
v 0.237808 -0.937402 1.035650
v 0.681581 -1.000000 -1.000000
v 0.000000 1.356949 -1.000000
v 0.000000 1.356949 1.000000
v -0.816577 0.941894 1.187999
v -0.816577 0.941894 -1.187999
v 0.816577 0.941894 1.187999
v 0.816577 0.941894 -1.187999
v 0.000000 1.367636 -1.187999
v 0.000000 1.367636 1.187999
v -0.816577 1.003095 1.187999
v -0.783919 1.059807 1.151168
v -0.783919 1.059807 -1.151168
v -0.816577 1.003095 -1.187999
v 0.000000 1.428766 -1.187999
v 0.000000 1.468522 -1.151168
v 0.783919 1.059807 -1.151168
v 0.816577 1.003095 -1.187999
v 0.783919 1.059807 1.151168
v 0.816577 1.003095 1.187999
v 0.000000 1.428766 1.187999
v 0.000000 1.468522 1.151168
v -0.278654 -1.000000 1.009539
v -0.278654 0.539751 1.009539
v 0.278654 -1.000000 1.009539
v 0.278654 0.539751 1.009539
v -0.237808 -0.937402 1.035650
v -0.237808 0.477153 1.035650
v 0.237808 0.477153 1.035650
v 0.237808 -0.937402 1.035650
v -0.309082 -1.000000 1.009539
v -0.309082 0.586769 1.009539
v 0.309082 -1.000000 1.009539
v 0.309082 0.586769 1.009539
v -0.619131 -1.058565 -0.908375
v -0.619131 -1.058565 0.908375
v 0.619131 -1.058565 -0.908375
v 0.619131 -1.058565 0.908375
vt 0.164062 0.789062
vt 0.164062 0.789062
vt 0.164062 0.789062
vt 0.164062 0.789062
vt 0.164062 0.789062
vt 0.164062 0.789062
vt 0.164062 0.789062
vt 0.164062 0.789062
vt 0.164062 0.789062
vt 0.835938 0.226562
vt 0.835938 0.226562
vt 0.835938 0.226562
vt 0.835938 0.226562
vt 0.835938 0.226562
vt 0.835938 0.226562
vt 0.835938 0.226562
vt 0.835938 0.226562
vt 0.164062 0.789062
vt 0.164062 0.789062
vt 0.835938 0.226562
vt 0.835938 0.226562
vt 0.835938 0.226562
vt 0.835938 0.226562
vt 0.835938 0.226562
vt 0.835938 0.226562
vt 0.835938 0.226562
vt 0.835938 0.226562
vt 0.835938 0.226562
vt 0.835938 0.226562
vt 0.835938 0.226562
vt 0.835938 0.226562
vt 0.835938 0.226562
vt 0.835938 0.226562
vt 0.835938 0.226562
vt 0.835938 0.226562
vt 0.835938 0.226562
vt 0.835938 0.226562
vt 0.835938 0.226562
vt 0.835938 0.226562
vt 0.835938 0.226562
vt 0.835938 0.226562
vt 0.835938 0.226562
vt 0.835938 0.226562
vt 0.835938 0.226562
vt 0.835938 0.226562
vt 0.257812 0.882812
vt 0.257812 0.882812
vt 0.257812 0.882812
vt 0.164062 0.789062
vt 0.164062 0.789062
vt 0.164062 0.789062
vt 0.257812 0.882812
vn -1.0000 0.0000 0.0000
vn 0.0000 0.0000 -1.0000
vn 1.0000 0.0000 0.0000
vn 0.0000 0.0000 1.0000
vn -0.4639 0.8859 0.0000
vn 0.0000 0.3850 0.9229
vn 0.5386 0.0000 0.8426
vn 0.0000 -0.3850 0.9229
vn -0.5386 0.0000 0.8426
vn 0.4639 0.8859 0.0000
vn 0.0000 -0.8426 -0.5386
vn 0.4623 -0.8867 0.0000
vn -0.4623 -0.8867 0.0000
vn -0.4623 0.8867 0.0000
vn 0.4623 0.8867 0.0000
vn -0.8666 0.4990 0.0000
vn 0.3340 0.6406 -0.6915
vn 0.8666 0.4990 0.0000
vn -0.3340 0.6406 0.6915
vn -0.3342 0.6411 -0.6909
vn 0.3342 0.6411 0.6909
vn 0.0000 -1.0000 0.0000
vn 0.6841 -0.7294 0.0000
vn -0.6841 -0.7294 0.0000
vn 0.0000 -0.8426 0.5386
vn 0.3342 0.6411 -0.6909
vn -0.3342 0.6411 0.6909
vn -0.3340 0.6406 -0.6915
vn 0.3340 0.6406 0.6915
s off
f 2/1/1 3/2/1 1/3/1
f 16/4/2 17/5/2 7/6/2
f 7/6/3 5/7/3 16/4/3
f 5/7/4 2/1/4 1/3/4
f 4/8/5 18/9/5 17/5/5
f 8/10/2 11/11/2 10/12/2
f 14/13/4 12/14/4 15/15/4
f 9/16/6 14/13/6 11/11/6
f 11/11/7 15/15/7 10/12/7
f 10/12/8 12/14/8 8/10/8
f 8/10/9 13/17/9 9/16/9
f 17/5/10 6/18/10 7/6/10
f 16/4/11 49/19/11 3/2/11
f 5/7/4 6/18/4 18/9/4
f 4/8/2 16/4/2 3/2/2
f 24/20/12 20/21/12 23/22/12
f 21/23/13 23/22/13 22/24/13
f 24/20/4 25/25/4 19/26/4
f 22/24/3 34/27/3 21/23/3
f 23/22/2 32/28/2 22/24/2
f 24/20/4 34/27/4 35/29/4
f 27/30/14 36/31/14 30/32/14
f 23/22/2 28/33/2 29/34/2
f 30/32/15 33/35/15 31/36/15
f 27/30/16 25/25/16 26/37/16
f 31/36/17 29/34/17 30/32/17
f 33/35/18 32/28/18 31/36/18
f 26/37/19 35/29/19 36/31/19
f 27/30/20 29/34/20 28/33/20
f 33/35/21 35/29/21 34/27/21
f 19/26/1 28/33/1 20/21/1
f 38/38/6 43/39/6 40/40/6
f 40/40/7 44/41/7 39/42/7
f 39/42/8 41/43/8 37/44/8
f 37/44/9 42/45/9 38/38/9
f 48/46/4 45/47/4 47/48/4
f 51/49/22 50/50/22 49/19/22
f 16/4/23 52/51/23 51/49/23
f 1/3/24 49/19/24 50/50/24
f 1/3/25 52/51/25 5/7/25
f 2/1/1 4/8/1 3/2/1
f 7/6/3 6/18/3 5/7/3
f 5/7/4 18/9/4 2/1/4
f 4/8/5 2/1/5 18/9/5
f 8/10/2 9/16/2 11/11/2
f 14/13/4 13/17/4 12/14/4
f 9/16/6 13/17/6 14/13/6
f 11/11/7 14/13/7 15/15/7
f 10/12/8 15/15/8 12/14/8
f 8/10/9 12/14/9 13/17/9
f 17/5/10 18/9/10 6/18/10
f 16/4/11 51/49/11 49/19/11
f 4/8/2 17/5/2 16/4/2
f 24/20/12 19/26/12 20/21/12
f 21/23/13 24/20/13 23/22/13
f 24/20/4 35/29/4 25/25/4
f 22/24/3 32/28/3 34/27/3
f 23/22/2 29/34/2 32/28/2
f 24/20/4 21/23/4 34/27/4
f 27/30/14 26/37/14 36/31/14
f 23/22/2 20/21/2 28/33/2
f 30/32/15 36/31/15 33/35/15
f 27/30/16 28/33/16 25/25/16
f 31/36/26 32/28/26 29/34/26
f 33/35/18 34/27/18 32/28/18
f 26/37/27 25/25/27 35/29/27
f 27/30/28 30/32/28 29/34/28
f 33/35/29 36/31/29 35/29/29
f 19/26/1 25/25/1 28/33/1
f 38/38/6 42/45/6 43/39/6
f 40/40/7 43/39/7 44/41/7
f 39/42/8 44/41/8 41/43/8
f 37/44/9 41/43/9 42/45/9
f 48/46/4 46/52/4 45/47/4
f 51/49/22 52/51/22 50/50/22
f 16/4/23 5/7/23 52/51/23
f 1/3/24 3/2/24 49/19/24
f 1/3/25 50/50/25 52/51/25
