# Blender v2.91.0 Beta OBJ File: 'decos.blend'
# www.blender.org
o Cylinder
v 0.738306 0.558832 -0.738306
v 0.000000 0.558832 -1.044122
v 1.044122 0.558832 0.000000
v 0.738306 0.558832 0.738306
v -0.000000 0.558832 1.044122
v -0.738306 0.558832 0.738305
v -1.044122 0.558832 -0.000000
v -0.738306 0.558832 -0.738306
v 0.676609 0.796643 -0.676609
v -0.000000 0.796643 -0.956870
v 0.956870 0.796643 0.000000
v 0.676609 0.796643 0.676609
v -0.000000 0.796643 0.956870
v -0.676609 0.796643 0.676609
v -0.956870 0.796643 -0.000000
v -0.676609 0.796643 -0.676609
v 0.551512 0.988154 -0.551512
v -0.000000 0.988154 -0.779956
v 0.779956 0.988154 0.000000
v 0.551512 0.988154 0.551512
v -0.000000 0.988154 0.779956
v -0.551513 0.988154 0.551512
v -0.779956 0.988154 -0.000000
v -0.551513 0.988154 -0.551512
v 0.522202 1.035402 -0.522202
v -0.000000 1.035402 -0.738505
v 0.738505 1.035402 0.000000
v 0.522202 1.035402 0.522202
v -0.000000 1.035402 0.738505
v -0.522202 1.035402 0.522202
v -0.738505 1.035402 -0.000000
v -0.522202 1.035402 -0.522202
v 0.292897 0.951122 -0.292897
v -0.000000 0.951122 -0.414219
v 0.414219 0.951122 0.000000
v 0.292897 0.951122 0.292897
v -0.000000 0.951122 0.414219
v -0.292897 0.951122 0.292897
v -0.414219 0.951122 -0.000000
v -0.292897 0.951122 -0.292897
v -0.272077 1.456051 0.272077
v -0.264781 1.960979 0.264781
v -0.272077 2.465908 0.272077
v -0.384775 2.465908 -0.000000
v -0.374457 1.960979 -0.000000
v -0.384775 1.456051 -0.000000
v 0.272077 1.456051 0.272077
v 0.264781 1.960979 0.264781
v 0.272077 2.465908 0.272077
v -0.000000 2.465908 0.384775
v -0.000000 1.960979 0.374457
v -0.000000 1.456051 0.384775
v 0.272077 1.456051 -0.272077
v 0.264781 1.960979 -0.264781
v 0.272077 2.465908 -0.272077
v 0.384775 2.465908 0.000000
v 0.374457 1.960979 0.000000
v 0.384775 1.456051 0.000000
v -0.272077 2.465908 -0.272077
v -0.264781 1.960979 -0.264781
v -0.272077 1.456051 -0.272077
v -0.000000 1.456051 -0.384775
v -0.000000 1.960979 -0.374457
v -0.000000 2.465908 -0.384775
v 0.215335 3.018529 -0.215335
v -0.000000 3.018529 -0.304530
v 0.304530 3.018529 0.000000
v 0.215335 3.018529 0.215335
v -0.000000 3.018529 0.304530
v -0.215335 3.018529 0.215335
v -0.304530 3.018529 -0.000000
v -0.215335 3.018529 -0.215335
v -0.003094 4.504635 -0.003094
v -0.004375 4.504635 -0.000000
v -0.003094 4.504635 0.003094
v -0.000000 4.504635 0.004375
v 0.003094 4.504635 0.003094
v 0.004375 4.504635 0.000000
v -0.000000 4.504635 -0.004375
v 0.003094 4.504635 -0.003094
v -0.000000 -0.768650 -0.960928
v 0.679478 -0.768650 -0.679478
v 0.960928 -0.768650 0.000000
v 0.679478 -0.768650 0.679478
v -0.000000 -0.768650 0.960928
v -0.679478 -0.768650 0.679478
v -0.960928 -0.768650 -0.000000
v -0.679478 -0.768650 -0.679478
v -0.000000 0.563808 -0.995904
v 0.704211 0.563808 -0.704211
v -0.704211 0.563808 -0.704210
v 0.995904 0.563808 0.000000
v 0.704211 0.563808 0.704211
v -0.000000 0.563808 0.995904
v -0.704211 0.563808 0.704210
v -0.995904 0.563808 -0.000000
v 0.190256 3.108805 -0.190256
v -0.000000 3.108805 -0.269063
v 0.269063 3.108805 0.000000
v 0.190256 3.108805 0.190256
v -0.000000 3.108805 0.269063
v -0.190256 3.108805 0.190256
v -0.269063 3.108805 -0.000000
v -0.190256 3.108805 -0.190256
v -0.000000 0.730759 -0.962034
v 0.680261 0.730759 -0.680261
v -0.680261 0.730759 -0.680261
v 0.962034 0.730759 0.000000
v 0.680261 0.730759 0.680261
v -0.000000 0.730759 0.962034
v -0.680261 0.730759 0.680261
v -0.962034 0.730759 -0.000000
v -0.000000 0.999331 -0.734646
v 0.519473 0.999331 -0.519473
v -0.519473 0.999331 -0.519473
v 0.734646 0.999331 0.000000
v 0.519473 0.999331 0.519473
v -0.000000 0.999331 0.734646
v -0.519473 0.999331 0.519473
v -0.734646 0.999331 -0.000000
v 0.540320 0.989233 -0.540320
v -0.000000 0.989233 -0.764128
v 0.764128 0.989233 0.000000
v 0.540320 0.989233 0.540320
v -0.000000 0.989233 0.764128
v -0.540320 0.989233 0.540320
v -0.764128 0.989233 -0.000000
v -0.540320 0.989233 -0.540320
vt 0.835938 0.226562
vt 0.835938 0.226562
vt 0.835938 0.226562
vt 0.835938 0.226562
vt 0.835938 0.226562
vt 0.835938 0.226562
vt 0.835938 0.226562
vt 0.835938 0.226562
vt 0.835938 0.226562
vt 0.835938 0.226562
vt 0.835938 0.226562
vt 0.835938 0.226562
vt 0.835938 0.226562
vt 0.835938 0.226562
vt 0.835938 0.226562
vt 0.835938 0.226562
vt 0.835938 0.226562
vt 0.835938 0.226562
vt 0.835938 0.226562
vt 0.835938 0.226562
vt 0.835938 0.226562
vt 0.835938 0.226562
vt 0.835938 0.226562
vt 0.835938 0.226562
vt 0.835938 0.226562
vt 0.835938 0.226562
vt 0.835938 0.226562
vt 0.835938 0.226562
vt 0.835938 0.226562
vt 0.835938 0.226562
vt 0.835938 0.226562
vt 0.835938 0.226562
vt 0.164062 0.789062
vt 0.164062 0.789063
vt 0.164062 0.789062
vt 0.164062 0.789062
vt 0.164062 0.789063
vt 0.164062 0.789062
vt 0.164062 0.789062
vt 0.164062 0.789062
vt 0.164062 0.789062
vt 0.164062 0.789062
vt 0.164062 0.789062
vt 0.164062 0.789062
vt 0.164062 0.789062
vt 0.164062 0.789062
vt 0.164062 0.789062
vt 0.164062 0.789062
vt 0.164062 0.789062
vt 0.164062 0.789062
vt 0.164062 0.789062
vt 0.164062 0.789062
vt 0.164062 0.789062
vt 0.164062 0.789062
vt 0.164062 0.789062
vt 0.164062 0.789062
vt 0.164062 0.789062
vt 0.164062 0.789062
vt 0.164062 0.789062
vt 0.164062 0.789062
vt 0.164062 0.789062
vt 0.164062 0.789062
vt 0.164062 0.789062
vt 0.164062 0.789062
vt 0.164062 0.789062
vt 0.164062 0.789062
vt 0.164062 0.789063
vt 0.164062 0.789062
vt 0.164062 0.789063
vt 0.164062 0.789063
vt 0.164062 0.789063
vt 0.164062 0.789063
vt 0.835938 0.226562
vt 0.835938 0.226562
vt 0.835938 0.226562
vt 0.835938 0.226562
vt 0.835938 0.226562
vt 0.835938 0.226562
vt 0.835938 0.226562
vt 0.835938 0.226562
vt 0.835938 0.226562
vt 0.835938 0.226562
vt 0.835938 0.226562
vt 0.835938 0.226562
vt 0.835938 0.226562
vt 0.835938 0.226562
vt 0.835938 0.226562
vt 0.835938 0.226562
vt 0.164063 0.789063
vt 0.164062 0.789062
vt 0.164062 0.789062
vt 0.164062 0.789062
vt 0.164062 0.789062
vt 0.164062 0.789062
vt 0.164062 0.789062
vt 0.164062 0.789062
vt 0.164062 0.789062
vt 0.164062 0.789062
vt 0.164062 0.789062
vt 0.164062 0.789062
vt 0.164062 0.789062
vt 0.164062 0.789062
vt 0.164063 0.789063
vt 0.835938 0.226562
vt 0.835938 0.226562
vt 0.835938 0.226562
vt 0.835938 0.226562
vt 0.835938 0.226562
vt 0.835938 0.226562
vt 0.835938 0.226562
vt 0.835938 0.226562
vt 0.835938 0.226562
vt 0.835938 0.226562
vt 0.835938 0.226562
vt 0.835938 0.226562
vt 0.835938 0.226562
vt 0.835938 0.226562
vt 0.835938 0.226562
vt 0.835938 0.226562
vt 0.164062 0.789062
vt 0.164062 0.789062
vt 0.164062 0.789062
vt 0.164062 0.789062
vt 0.164062 0.789062
vt 0.164062 0.789062
vt 0.164062 0.789062
vt 0.164062 0.789062
vt 0.164062 0.789062
vn 0.3624 0.3210 -0.8750
vn -0.3624 0.3210 -0.8750
vn -0.8750 0.3210 0.3624
vn 0.3624 0.3210 0.8750
vn 0.8750 0.3210 -0.3624
vn -0.8750 0.3210 -0.3624
vn -0.3624 0.3210 0.8750
vn 0.8750 0.3210 0.3624
vn 0.2973 0.6297 0.7177
vn 0.7177 0.6297 -0.2973
vn -0.7177 0.6297 -0.2973
vn -0.2973 0.6297 0.7177
vn 0.7177 0.6297 0.2973
vn 0.2973 0.6297 -0.7177
vn -0.2973 0.6297 -0.7177
vn -0.7177 0.6297 0.2973
vn -0.9114 0.1640 -0.3775
vn 0.3775 0.1640 -0.9114
vn -0.3821 0.0538 -0.9225
vn -0.3826 0.0189 -0.9237
vn -0.3826 -0.0189 -0.9237
vn 0.3821 0.0538 -0.9225
vn 0.3826 0.0189 -0.9237
vn 0.3826 -0.0189 -0.9237
vn 0.9225 0.0538 0.3821
vn 0.9237 0.0189 0.3826
vn 0.9237 -0.0189 0.3826
vn -0.3821 0.0538 0.9225
vn -0.3826 0.0189 0.9237
vn -0.3826 -0.0189 0.9237
vn -0.9225 0.0538 -0.3821
vn -0.9237 0.0189 -0.3826
vn -0.9237 -0.0189 -0.3826
vn 0.9225 0.0538 -0.3821
vn 0.9237 0.0189 -0.3826
vn 0.9237 -0.0189 -0.3826
vn 0.3821 0.0538 0.9225
vn 0.3826 0.0189 0.9237
vn 0.3826 -0.0189 0.9237
vn -0.9225 0.0538 0.3821
vn -0.9237 0.0189 0.3826
vn -0.9237 -0.0189 0.3826
vn -0.3775 0.1640 0.9114
vn 0.9114 0.1640 0.3775
vn 0.9114 0.1640 -0.3775
vn -0.3775 0.1640 -0.9114
vn -0.9114 0.1640 0.3775
vn 0.3775 0.1640 0.9114
vn -0.9082 0.1834 -0.3762
vn 0.9082 0.1834 0.3762
vn -0.3762 0.1834 -0.9082
vn 0.9082 0.1834 -0.3762
vn 0.3762 0.1834 -0.9082
vn 0.3762 0.1834 0.9082
vn -0.3762 0.1834 0.9082
vn -0.9082 0.1834 0.3762
vn -0.9236 -0.0242 0.3826
vn 0.9236 -0.0242 0.3826
vn 0.3826 -0.0242 -0.9236
vn -0.3826 -0.0242 0.9236
vn 0.9236 -0.0242 -0.3826
vn -0.9236 -0.0242 -0.3826
vn 0.3826 -0.0242 0.9236
vn -0.3826 -0.0242 -0.9236
vn 0.7277 0.6161 0.3014
vn 0.3014 0.6161 0.7277
vn 0.7277 0.6161 -0.3014
vn 0.3014 0.6161 -0.7277
vn -0.7277 0.6161 0.3014
vn -0.3014 0.6161 -0.7277
vn -0.7277 0.6161 -0.3014
vn -0.3014 0.6161 0.7277
vn -0.1082 0.9931 -0.0448
vn -0.0448 0.9931 0.1082
vn 0.0448 0.9931 0.1082
vn 0.1082 0.9931 -0.0448
vn -0.0448 0.9931 -0.1082
vn -0.1082 0.9931 0.0448
vn 0.1082 0.9931 0.0448
vn 0.0448 0.9931 -0.1082
s off
f 2/1/1 9/2/1 1/3/1
f 8/4/2 10/5/2 2/1/2
f 6/6/3 15/7/3 7/8/3
f 5/9/4 12/10/4 13/11/4
f 3/12/5 9/2/5 11/13/5
f 7/8/6 16/14/6 8/4/6
f 5/9/7 14/15/7 6/6/7
f 3/12/8 12/10/8 4/16/8
f 20/17/9 29/18/9 21/19/9
f 17/20/10 27/21/10 19/22/10
f 23/23/11 32/24/11 24/25/11
f 22/26/12 29/18/12 30/27/12
f 20/17/13 27/21/13 28/28/13
f 18/29/14 25/30/14 17/20/14
f 24/25/15 26/31/15 18/29/15
f 22/26/16 31/32/16 23/23/16
f 44/33/17 104/34/17 59/35/17
f 64/36/18 97/37/18 55/38/18
f 40/39/19 62/40/19 34/41/19
f 61/42/20 63/43/20 62/40/20
f 60/44/21 64/36/21 63/43/21
f 34/41/22 53/45/22 33/46/22
f 62/40/23 54/47/23 53/45/23
f 63/43/24 55/38/24 54/47/24
f 35/48/25 47/49/25 36/50/25
f 58/51/26 48/52/26 47/49/26
f 57/53/27 49/54/27 48/52/27
f 37/55/28 41/56/28 38/57/28
f 52/58/29 42/59/29 41/56/29
f 51/60/30 43/61/30 42/59/30
f 39/62/31 61/42/31 40/39/31
f 46/63/32 60/44/32 61/42/32
f 45/64/33 59/35/33 60/44/33
f 33/46/34 58/51/34 35/48/34
f 53/45/35 57/53/35 58/51/35
f 54/47/36 56/65/36 57/53/36
f 36/50/37 52/58/37 37/55/37
f 52/58/38 48/52/38 51/60/38
f 48/52/39 50/66/39 51/60/39
f 38/57/40 46/63/40 39/62/40
f 41/56/41 45/64/41 46/63/41
f 42/59/42 44/33/42 45/64/42
f 50/66/43 102/67/43 43/61/43
f 56/65/44 100/68/44 49/54/44
f 56/65/45 97/37/45 99/69/45
f 59/35/46 98/70/46 64/36/46
f 43/61/47 103/71/47 44/33/47
f 49/54/48 101/72/48 50/66/48
f 73/73/49 71/74/49 74/75/49
f 77/76/50 67/77/50 78/78/50
f 79/79/51 72/80/51 73/73/51
f 78/78/52 65/81/52 80/82/52
f 80/82/53 66/83/53 79/79/53
f 76/84/54 68/85/54 77/76/54
f 75/86/55 69/87/55 76/84/55
f 74/75/56 70/88/56 75/86/56
f 95/89/57 87/90/57 86/91/57
f 92/92/58 84/93/58 83/94/58
f 89/95/59 82/96/59 81/97/59
f 85/98/60 95/89/60 86/91/60
f 90/99/61 83/94/61 82/96/61
f 96/100/62 88/101/62 87/90/62
f 93/102/63 85/98/63 84/93/63
f 91/103/64 81/97/64 88/101/64
f 108/104/65 117/105/65 109/106/65
f 109/106/66 118/107/66 110/108/66
f 106/109/67 116/110/67 108/104/67
f 105/111/68 114/112/68 106/109/68
f 111/113/69 120/114/69 112/115/69
f 107/116/70 113/117/70 105/111/70
f 107/116/71 120/114/71 115/118/71
f 110/108/72 119/119/72 111/113/72
f 35/48/73 124/120/73 123/121/73
f 34/41/74 121/122/74 122/123/74
f 34/41/75 128/124/75 40/39/75
f 39/62/76 126/125/76 38/57/76
f 37/55/77 124/120/77 36/50/77
f 35/48/78 121/122/78 33/46/78
f 40/39/79 127/126/79 39/62/79
f 38/57/80 125/127/80 37/55/80
f 2/1/1 10/5/1 9/2/1
f 8/4/2 16/14/2 10/5/2
f 6/6/3 14/15/3 15/7/3
f 5/9/4 4/16/4 12/10/4
f 3/12/5 1/3/5 9/2/5
f 7/8/6 15/7/6 16/14/6
f 5/9/7 13/11/7 14/15/7
f 3/12/8 11/13/8 12/10/8
f 20/17/9 28/28/9 29/18/9
f 17/20/10 25/30/10 27/21/10
f 23/23/11 31/32/11 32/24/11
f 22/26/12 21/19/12 29/18/12
f 20/17/13 19/22/13 27/21/13
f 18/29/14 26/31/14 25/30/14
f 24/25/15 32/24/15 26/31/15
f 22/26/16 30/27/16 31/32/16
f 44/33/17 103/71/17 104/34/17
f 64/36/18 98/70/18 97/37/18
f 40/39/19 61/42/19 62/40/19
f 61/42/20 60/44/20 63/43/20
f 60/44/21 59/35/21 64/36/21
f 34/41/22 62/40/22 53/45/22
f 62/40/23 63/43/23 54/47/23
f 63/43/24 64/36/24 55/38/24
f 35/48/25 58/51/25 47/49/25
f 58/51/26 57/53/26 48/52/26
f 57/53/27 56/65/27 49/54/27
f 37/55/28 52/58/28 41/56/28
f 52/58/29 51/60/29 42/59/29
f 51/60/30 50/66/30 43/61/30
f 39/62/31 46/63/31 61/42/31
f 46/63/32 45/64/32 60/44/32
f 45/64/33 44/33/33 59/35/33
f 33/46/34 53/45/34 58/51/34
f 53/45/35 54/47/35 57/53/35
f 54/47/36 55/38/36 56/65/36
f 36/50/37 47/49/37 52/58/37
f 52/58/38 47/49/38 48/52/38
f 48/52/39 49/54/39 50/66/39
f 38/57/40 41/56/40 46/63/40
f 41/56/41 42/59/41 45/64/41
f 42/59/42 43/61/42 44/33/42
f 50/66/43 101/72/43 102/67/43
f 56/65/44 99/69/44 100/68/44
f 56/65/45 55/38/45 97/37/45
f 59/35/46 104/34/46 98/70/46
f 43/61/47 102/67/47 103/71/47
f 49/54/48 100/68/48 101/72/48
f 73/73/49 72/80/49 71/74/49
f 77/76/50 68/85/50 67/77/50
f 79/79/51 66/83/51 72/80/51
f 78/78/52 67/77/52 65/81/52
f 80/82/53 65/81/53 66/83/53
f 76/84/54 69/87/54 68/85/54
f 75/86/55 70/88/55 69/87/55
f 74/75/56 71/74/56 70/88/56
f 95/89/57 96/100/57 87/90/57
f 92/92/58 93/102/58 84/93/58
f 89/95/59 90/99/59 82/96/59
f 85/98/60 94/128/60 95/89/60
f 90/99/61 92/92/61 83/94/61
f 96/100/62 91/103/62 88/101/62
f 93/102/63 94/128/63 85/98/63
f 91/103/64 89/95/64 81/97/64
f 108/104/65 116/110/65 117/105/65
f 109/106/66 117/105/66 118/107/66
f 106/109/67 114/112/67 116/110/67
f 105/111/68 113/117/68 114/112/68
f 111/113/69 119/119/69 120/114/69
f 107/116/70 115/118/70 113/117/70
f 107/116/71 112/115/71 120/114/71
f 110/108/72 118/107/72 119/119/72
f 35/48/73 36/50/73 124/120/73
f 34/41/74 33/46/74 121/122/74
f 34/41/75 122/123/75 128/124/75
f 39/62/76 127/126/76 126/125/76
f 37/55/77 125/127/77 124/120/77
f 35/48/78 123/121/78 121/122/78
f 40/39/79 128/124/79 127/126/79
f 38/57/80 126/125/80 125/127/80
