# Blender v2.90.0 Alpha OBJ File: 'Decos.blend'
# www.blender.org
o Sedan_Cube.052
v 1.139075 1.620328 1.388772
v -0.842377 2.248940 0.481404
v -1.138298 1.623006 1.384286
v 1.148164 1.375011 3.167389
v 1.148164 0.612493 2.969986
v -1.148164 1.375011 3.167389
v -0.860469 2.248755 -1.652644
v 1.145243 1.703916 -2.847776
v -1.144788 1.701596 -2.990295
v 1.148164 0.612494 -3.399873
v -1.148164 0.612494 -3.399873
v 0.994617 0.856285 3.151029
v 0.904862 1.282617 2.122032
v 1.251300 1.102758 2.242482
v 1.251300 1.282617 1.337620
v 0.904862 0.526077 2.094159
v 1.251300 0.526077 2.094159
v 0.904862 1.102759 1.217170
v 1.251300 0.526078 1.365492
v 0.904862 0.526078 1.365492
v 0.904862 1.403068 -2.311386
v 1.251300 1.282619 -2.491244
v 0.904862 0.506167 -2.515839
v 1.251300 1.102761 -1.586381
v 0.904862 0.526079 -1.734705
v 1.251300 0.526079 -1.734705
v -1.148164 0.612493 2.969986
v -0.995477 0.856229 3.150130
v -1.251300 1.102758 2.242482
v -0.904862 1.282617 2.122032
v -1.251300 1.282617 1.337620
v -0.904862 0.526077 2.094159
v -1.251300 0.526077 2.094159
v -1.251300 0.526078 1.365492
v -0.904862 1.102759 1.217170
v -0.904862 0.526078 1.365492
v -1.251300 1.282619 -2.491244
v -0.904862 1.403068 -2.311386
v -0.904862 0.506167 -2.515839
v -1.251300 1.102761 -1.586381
v -0.904862 0.526079 -1.734705
v -1.251300 0.526079 -1.734705
v -1.251300 0.375167 1.729826
v -1.251300 0.375167 -2.099039
v -1.251300 0.526079 -2.463370
v 0.863297 2.248757 -1.637017
v 0.847881 2.248940 0.464783
v 0.904862 1.091442 -1.613706
v 1.251300 0.526079 -2.463370
v -0.904862 1.091442 -1.613706
v 1.251300 0.375167 1.729826
v 1.251300 0.375167 -2.099039
vt 0.054688 0.804688
vt 0.054688 0.804688
vt 0.054688 0.804688
vt 0.007812 0.804687
vt 0.007812 0.804688
vt 0.007812 0.804688
vt 0.007812 0.804687
vt 0.007812 0.804688
vt 0.054688 0.804688
vt 0.054688 0.804688
vt 0.054688 0.804688
vt 0.007812 0.804688
vt 0.007812 0.804688
vt 0.007812 0.804688
vt 0.007812 0.804688
vt 0.054688 0.804688
vt 0.054688 0.804688
vt 0.054688 0.804688
vt 0.054688 0.804688
vt 0.054688 0.804688
vt 0.054688 0.804688
vt 0.054688 0.804688
vt 0.054688 0.804688
vt 0.054688 0.804688
vt 0.054688 0.804688
vt 0.054688 0.804688
vt 0.054688 0.804688
vt 0.054688 0.804688
vt 0.054688 0.804688
vt 0.007812 0.804688
vt 0.007812 0.804688
vt 0.054688 0.804688
vt 0.054688 0.804688
vt 0.054688 0.804688
vt 0.054688 0.804688
vt 0.054688 0.804688
vt 0.054688 0.804688
vt 0.054688 0.804688
vt 0.054688 0.804688
vt 0.054688 0.804688
vt 0.054688 0.804688
vt 0.054688 0.804688
vt 0.054688 0.804688
vt 0.054688 0.804688
vt 0.054688 0.804688
vt 0.007812 0.882812
vt 0.007812 0.882812
vt 0.007812 0.882812
vt 0.007812 0.882812
vt 0.007812 0.882812
vt 0.007812 0.882812
vt 0.007812 0.882812
vt 0.007812 0.882812
vt 0.054688 0.804688
vt 0.054688 0.804688
vt 0.007812 0.804688
vt 0.007812 0.804688
vt 0.007812 0.804688
vt 0.007812 0.804688
vt 0.007812 0.804688
vt 0.054688 0.804688
vt 0.054688 0.804688
vt 0.054688 0.804688
vt 0.054688 0.804688
vt 0.007812 0.882812
vt 0.007812 0.882812
vt 0.007812 0.882812
vt 0.007812 0.882812
vt 0.007812 0.882812
vt 0.007812 0.882812
vt 0.007812 0.882812
vt 0.007812 0.882812
vt 0.007812 0.882812
vt 0.007812 0.882812
vt 0.007812 0.882812
vt 0.007812 0.882812
vn 0.7579 0.6201 0.2025
vn -0.4604 0.8602 0.2194
vn -0.7579 0.6199 0.2036
vn 0.5908 0.5090 0.6260
vn 0.9774 -0.0508 0.2052
vn -0.5907 0.5085 0.6264
vn -0.4764 0.8691 -0.1328
vn 0.6563 0.5688 -0.4958
vn -0.6230 0.5614 -0.5447
vn 0.5957 0.3409 -0.7272
vn -0.6113 0.2809 -0.7399
vn 0.3412 -0.1305 0.9309
vn 0.0152 0.8096 0.5868
vn 0.5517 0.3258 0.7678
vn 0.5246 0.6893 -0.4996
vn -0.1104 -0.5587 0.8220
vn 0.6774 -0.4994 0.5400
vn 0.0087 0.3906 -0.9205
vn 0.5544 -0.3996 -0.7300
vn 0.0001 -0.6008 -0.7994
vn 0.0565 0.9525 -0.2992
vn 0.5290 0.5573 -0.6400
vn -0.0100 0.0361 -0.9993
vn 0.5662 0.3877 0.7274
vn -0.0216 -0.5931 0.8048
vn 0.7931 -0.3832 0.4734
vn -0.9776 -0.0504 0.2045
vn -0.3414 -0.1314 0.9307
vn -0.5517 0.3258 0.7678
vn -0.0152 0.8096 0.5868
vn -0.5246 0.6893 -0.4996
vn 0.1104 -0.5587 0.8220
vn -0.6541 -0.2822 0.7018
vn 0.0216 -0.6002 -0.7996
vn -0.0418 0.1383 -0.9895
vn -0.0000 -0.6008 -0.7994
vn -0.5290 0.5574 -0.6400
vn -0.0565 0.9525 -0.2992
vn -0.0622 -0.0543 -0.9966
vn -0.5662 0.3877 0.7274
vn 0.0215 -0.5931 0.8048
vn 0.0000 -0.6008 0.7994
vn -1.0000 0.0000 0.0000
vn -0.9486 -0.2308 -0.2165
vn 0.4782 0.8672 -0.1389
vn 0.4670 0.8580 0.2137
vn -0.0848 0.4537 0.8871
vn 0.6606 -0.1469 -0.7362
vn -0.0332 0.4845 -0.8742
vn 0.0848 0.4537 0.8871
vn -0.3245 -0.3665 -0.8720
vn 1.0000 0.0000 0.0000
s 1
f 1/1/1 2/2/2 3/3/3
f 1/4/1 4/5/4 5/6/5
f 4/5/4 3/7/3 6/8/6
f 7/9/7 8/10/8 9/11/9
f 9/12/9 10/13/10 11/14/11
f 4/5/4 12/15/12 5/6/5
f 6/8/6 12/15/12 4/5/4
f 13/16/13 14/17/14 15/18/15
f 14/17/14 16/19/16 17/20/17
f 18/21/18 19/22/19 20/23/20
f 21/24/21 22/25/22 23/26/23
f 21/24/21 24/27/24 22/25/22
f 24/27/24 25/28/25 26/29/26
f 27/30/27 6/8/6 3/7/3
f 3/3/3 7/9/7 9/11/9
f 28/31/28 6/8/6 27/30/27
f 3/7/3 9/12/9 11/14/11
f 29/32/29 30/33/30 31/34/31
f 32/35/32 29/32/29 33/36/33
f 34/37/34 35/38/35 36/39/36
f 37/40/37 38/41/38 39/42/39
f 40/43/40 38/41/38 37/40/37
f 41/44/41 40/43/40 42/45/42
f 43/46/43 29/47/29 31/48/31
f 34/49/44 43/46/43 31/48/31
f 44/50/43 40/51/40 37/52/37
f 45/53/43 44/50/43 37/52/37
f 46/54/45 1/1/1 8/10/8
f 1/1/1 47/55/46 2/2/2
f 1/4/1 3/7/3 4/5/4
f 7/9/7 46/54/45 8/10/8
f 9/12/9 8/56/8 10/13/10
f 47/57/46 46/58/45 7/59/7
f 7/59/7 2/60/2 47/57/46
f 6/8/6 28/31/28 12/15/12
f 5/6/5 10/13/10 1/4/1
f 1/4/1 10/13/10 8/56/8
f 18/21/18 13/16/13 15/18/15
f 14/17/14 13/16/13 16/19/16
f 18/21/18 15/18/15 19/22/19
f 21/24/21 48/61/47 24/27/24
f 24/27/24 48/61/47 25/28/25
f 23/26/23 22/25/22 49/62/48
f 3/3/3 2/2/2 7/9/7
f 11/14/11 27/30/27 3/7/3
f 31/34/31 30/33/30 35/38/49
f 32/35/32 30/33/30 29/32/29
f 34/37/44 31/34/31 35/38/49
f 40/43/40 50/63/50 38/41/38
f 41/44/41 50/63/50 40/43/40
f 45/64/51 37/40/37 39/42/39
f 51/65/52 15/66/15 14/67/14
f 19/68/19 15/66/15 51/65/52
f 51/65/52 14/67/14 17/69/17
f 52/70/52 22/71/22 24/72/24
f 49/73/48 22/71/22 52/70/52
f 52/70/52 24/72/24 26/74/26
f 33/75/33 29/47/29 43/46/43
f 42/76/43 40/51/40 44/50/43
f 46/54/45 47/55/46 1/1/1
