# Blender v2.90.0 Alpha OBJ File: 'Decos.blend'
# www.blender.org
o Sedan_Cube.044
v 1.139075 1.592504 1.388772
v -0.842377 2.221115 0.481404
v -1.138298 1.595184 1.384286
v 1.148164 1.347187 3.167389
v 1.148164 0.584669 2.969986
v -1.148164 1.347187 3.167389
v -0.860469 2.220931 -1.652644
v 1.145243 1.676092 -2.847777
v -1.144788 1.673772 -2.990295
v 1.148164 0.584670 -3.399873
v -1.148164 0.584670 -3.399873
v 0.994617 0.828461 3.151028
v 0.904862 1.375244 1.517476
v 1.251300 1.254793 1.337620
v 0.904862 0.478342 1.313023
v 1.251300 1.074934 2.242482
v 0.904862 0.458953 2.216386
v 1.251300 0.498253 2.094159
v 0.904862 1.375244 -2.311387
v 1.251300 1.254795 -2.491244
v 0.904862 0.478343 -2.515840
v 1.251300 1.074937 -1.586381
v 0.904862 0.458955 -1.612480
v 1.251300 0.498255 -1.734706
v -1.148164 0.584669 2.969986
v -0.995477 0.828405 3.150130
v -1.251300 1.254793 1.337620
v -0.904862 1.375244 1.517476
v -0.904862 0.478342 1.313023
v -1.251300 1.074934 2.242482
v -0.904862 0.458953 2.216386
v -1.251300 0.498253 2.094159
v -1.251300 1.254795 -2.491244
v -0.904862 1.375244 -2.311387
v -0.904862 0.478343 -2.515840
v -1.251300 1.074937 -1.586381
v -0.904862 0.498255 -1.734706
v -1.251300 0.498255 -1.734706
v -1.251300 0.347343 1.729825
v -1.251300 0.498254 1.365492
v -1.251300 0.347343 -2.099039
v -1.251300 0.498255 -2.463370
v 0.863297 2.220932 -1.637017
v 0.847881 2.221115 0.464783
v 1.251300 0.498254 1.365492
v 1.251300 0.498255 -2.463370
v -0.904862 1.063618 -1.613706
v 1.251300 0.347343 1.729825
v 1.251300 0.347343 -2.099039
vt 0.051952 0.803767
vt 0.051952 0.803767
vt 0.051952 0.803767
vt 0.234272 0.551485
vt 0.234272 0.551485
vt 0.234272 0.551485
vt 0.234272 0.551485
vt 0.234272 0.551485
vt 0.051952 0.803767
vt 0.051952 0.803767
vt 0.051952 0.803767
vt 0.234272 0.551485
vt 0.234272 0.551485
vt 0.234272 0.551485
vt 0.234272 0.551485
vt 0.055226 0.803518
vt 0.055226 0.803518
vt 0.055226 0.803518
vt 0.055226 0.803518
vt 0.055226 0.803518
vt 0.055226 0.803518
vt 0.055226 0.803518
vt 0.055226 0.803518
vt 0.055226 0.803518
vt 0.055226 0.803518
vt 0.055226 0.803518
vt 0.055226 0.803518
vt 0.234272 0.551485
vt 0.234272 0.551485
vt 0.055226 0.803518
vt 0.055226 0.803518
vt 0.055226 0.803518
vt 0.055226 0.803518
vt 0.055226 0.803518
vt 0.055226 0.803518
vt 0.055226 0.803518
vt 0.055226 0.803518
vt 0.055226 0.803518
vt 0.055226 0.803518
vt 0.055226 0.803518
vt 0.055226 0.803518
vt 0.007658 0.885748
vt 0.007658 0.885748
vt 0.007658 0.885748
vt 0.007658 0.885748
vt 0.007658 0.885748
vt 0.007658 0.885748
vt 0.007658 0.885748
vt 0.007658 0.885748
vt 0.051952 0.803767
vt 0.051952 0.803767
vt 0.234272 0.551485
vt 0.234272 0.551485
vt 0.234272 0.551485
vt 0.234272 0.551485
vt 0.234272 0.551485
vt 0.055226 0.803518
vt 0.055226 0.803518
vt 0.055226 0.803518
vt 0.055226 0.803518
vt 0.055226 0.803518
vt 0.007658 0.885748
vt 0.007658 0.885748
vt 0.007658 0.885748
vt 0.007658 0.885748
vt 0.007658 0.885748
vt 0.007658 0.885748
vt 0.007658 0.885748
vt 0.007658 0.885748
vt 0.007658 0.885748
vt 0.007658 0.885748
vt 0.007658 0.885748
vt 0.007658 0.885748
vn 0.7579 0.6201 0.2025
vn -0.4604 0.8602 0.2194
vn -0.7579 0.6199 0.2036
vn 0.5908 0.5090 0.6260
vn 0.9774 -0.0508 0.2052
vn -0.5907 0.5085 0.6264
vn -0.4764 0.8691 -0.1328
vn 0.6563 0.5688 -0.4958
vn -0.6230 0.5614 -0.5447
vn 0.5957 0.3409 -0.7272
vn -0.6113 0.2809 -0.7399
vn 0.3412 -0.1305 0.9309
vn -0.1825 0.9564 -0.2282
vn 0.5290 0.5573 -0.6400
vn -0.0100 0.0361 -0.9993
vn 0.3545 0.5103 0.7835
vn -0.0091 -0.0680 0.9976
vn 0.7662 -0.4616 0.4471
vn 0.5290 0.5574 -0.6400
vn 0.8614 -0.3438 0.3739
vn -0.9776 -0.0504 0.2045
vn -0.3414 -0.1314 0.9307
vn -0.5290 0.5573 -0.6400
vn 0.1825 0.9564 -0.2282
vn -0.0622 -0.0543 -0.9966
vn -0.3545 0.5103 0.7835
vn 0.4300 0.0344 0.9022
vn -0.7506 -0.2594 0.6077
vn -0.5290 0.5574 -0.6400
vn -0.0565 0.9525 -0.2992
vn -0.5662 0.3877 0.7274
vn 0.0215 -0.5931 0.8048
vn 0.0000 -0.6008 0.7994
vn -1.0000 0.0000 0.0000
vn -0.8361 -0.2541 -0.4862
vn 0.4782 0.8672 -0.1389
vn 0.4670 0.8580 0.2137
vn 0.5934 -0.2699 -0.7583
vn 0.6606 -0.1469 -0.7362
vn 0.0848 0.4537 0.8871
vn -0.3245 -0.3665 -0.8720
vn 1.0000 0.0000 0.0000
s 1
f 1/1/1 2/2/2 3/3/3
f 1/4/1 4/5/4 5/6/5
f 4/5/4 3/7/3 6/8/6
f 7/9/7 8/10/8 9/11/9
f 9/12/9 10/13/10 11/14/11
f 4/5/4 12/15/12 5/6/5
f 6/8/6 12/15/12 4/5/4
f 13/16/13 14/17/14 15/18/15
f 13/16/13 16/19/16 14/17/14
f 16/19/16 17/20/17 18/21/18
f 19/22/13 20/23/19 21/24/15
f 19/22/13 22/25/16 20/23/19
f 22/25/16 23/26/17 24/27/20
f 25/28/21 6/8/6 3/7/3
f 3/3/3 7/9/7 9/11/9
f 26/29/22 6/8/6 25/28/21
f 3/7/3 9/12/9 11/14/11
f 27/30/23 28/31/24 29/32/25
f 30/33/26 28/31/24 27/30/23
f 31/34/27 30/33/26 32/35/28
f 33/36/29 34/37/30 35/38/25
f 36/39/31 34/37/30 33/36/29
f 37/40/32 36/39/31 38/41/33
f 39/42/34 30/43/26 27/44/23
f 40/45/35 39/42/34 27/44/23
f 41/46/34 36/47/31 33/48/29
f 42/49/34 41/46/34 33/48/29
f 43/50/36 1/1/1 8/10/8
f 1/1/1 44/51/37 2/2/2
f 1/4/1 3/7/3 4/5/4
f 7/9/7 43/50/36 8/10/8
f 9/12/9 8/52/8 10/13/10
f 44/53/37 43/54/36 7/55/7
f 7/55/7 2/56/2 44/53/37
f 6/8/6 26/29/22 12/15/12
f 5/6/5 10/13/10 1/4/1
f 1/4/1 10/13/10 8/52/8
f 13/16/13 17/20/17 16/19/16
f 15/18/15 14/17/14 45/57/38
f 19/22/13 23/26/17 22/25/16
f 21/24/15 20/23/19 46/58/39
f 3/3/3 2/2/2 7/9/7
f 11/14/11 25/28/21 3/7/3
f 30/33/26 31/34/27 28/31/24
f 40/59/35 27/30/23 29/32/25
f 36/39/31 47/60/40 34/37/30
f 37/40/32 47/60/40 36/39/31
f 42/61/41 33/36/29 35/38/25
f 48/62/42 14/63/14 16/64/16
f 45/65/38 14/63/14 48/62/42
f 48/62/42 16/64/16 18/66/18
f 49/67/42 20/68/19 22/69/16
f 46/70/39 20/68/19 49/67/42
f 49/67/42 22/69/16 24/71/20
f 32/72/28 30/43/26 39/42/34
f 38/73/34 36/47/31 41/46/34
f 43/50/36 44/51/37 1/1/1
