# Blender v2.83.4 OBJ File: 'decos.blend'
# www.blender.org
o RetopoFlow.002
v 0.360770 0.415790 2.655379
v 0.000000 1.896817 -3.709803
v -0.360770 0.415790 2.655379
v -0.412068 0.644923 2.722636
v 0.000000 0.905980 -3.125372
v 0.000000 1.266021 -1.729061
v 0.412068 0.644923 2.722636
v -0.025937 1.691852 0.718556
v 0.000000 0.551756 -1.190173
v 0.000000 0.553120 -1.196451
v 2.016709 -0.740964 0.605652
v 0.000000 0.811272 2.729730
v 0.000000 0.743205 2.588470
v 0.000000 1.616955 0.224996
v 0.000000 1.691852 0.718556
v 0.000000 0.649135 2.995226
v 0.000000 0.593858 3.032232
v -0.300892 1.175178 2.903481
v -0.337240 0.700502 2.933641
v -0.519452 0.792848 2.620674
v 0.000000 2.243700 0.237957
v -0.653454 0.615975 1.512535
v -1.093554 0.033100 0.923516
v -1.638607 -0.299099 1.120188
v -0.746245 0.661843 1.170878
v -1.968629 -0.744602 0.597909
v -2.016709 -0.740964 0.605652
v -2.009061 -0.756953 0.611185
v -0.577578 1.164984 -0.158614
v -0.632794 0.390707 0.722478
v 0.025937 1.691852 0.718556
v -0.240474 0.647388 -1.020335
v 0.000000 0.384779 -0.504088
v -0.000214 0.551917 -1.190303
v -0.434335 0.226587 -0.925805
v -0.074300 0.952639 -2.522980
v 0.000000 0.214666 -3.548379
v -0.279520 0.526748 2.633104
v -0.273693 0.793958 2.666122
v 1.968629 -0.744602 0.597909
v 0.000000 0.551790 -1.189672
v 0.000000 0.551974 -1.190138
v 0.746245 0.661843 1.170878
v 0.000000 0.773031 2.850429
v 0.000000 1.027905 -2.532686
v 0.000000 0.916869 -2.604125
v 0.000000 0.157098 0.707510
v 0.000000 0.900574 3.595856
v 0.000000 1.171350 2.915412
v 0.000000 0.518828 2.650103
v 0.000000 0.663098 2.578117
v 0.000000 0.371936 2.724672
v 0.300892 1.175178 2.903481
v 0.337240 0.700502 2.933641
v 0.519452 0.792848 2.620674
v 0.653454 0.615975 1.512535
v 1.093554 0.033100 0.923516
v 1.638607 -0.299099 1.120188
v 0.279520 0.526748 2.633104
v 0.273693 0.793958 2.666122
v -0.331036 1.052119 2.917065
v -0.313363 1.015339 2.956527
v -0.356673 1.009856 2.889156
v -0.339000 0.973076 2.928617
v 0.331036 1.052119 2.917065
v 0.313363 1.015339 2.956527
v 0.356673 1.009856 2.889156
v 0.339000 0.973076 2.928617
v 2.009061 -0.756953 0.611185
v 0.577578 1.164984 -0.158614
v 0.632794 0.390707 0.722478
v 0.240474 0.647388 -1.020335
v 0.000214 0.551917 -1.190303
v 0.434335 0.226587 -0.925805
v 0.074300 0.952639 -2.522980
vt 0.164062 0.773438
vt 0.164062 0.773438
vt 0.164062 0.773438
vt 0.164062 0.773438
vt 0.164062 0.773438
vt 0.164062 0.773438
vt 0.164062 0.773438
vt 0.164062 0.773438
vt 0.164062 0.835938
vt 0.164062 0.835938
vt 0.164062 0.835938
vt 0.289062 0.882812
vt 0.289062 0.882812
vt 0.289062 0.882812
vt 0.289062 0.882812
vt 0.164062 0.835938
vt 0.164062 0.835938
vt 0.164062 0.835938
vt 0.257812 0.804688
vt 0.257812 0.804688
vt 0.257812 0.804688
vt 0.289062 0.882812
vt 0.164062 0.835938
vt 0.164062 0.835938
vt 0.164062 0.835938
vt 0.164062 0.835938
vt 0.164062 0.835938
vt 0.164062 0.835938
vt 0.164062 0.835938
vt 0.164062 0.835938
vt 0.164062 0.835938
vt 0.164062 0.835938
vt 0.164062 0.835938
vt 0.164062 0.835938
vt 0.164062 0.835938
vt 0.164062 0.835938
vt 0.164062 0.835938
vt 0.164062 0.835938
vt 0.257812 0.804688
vt 0.257812 0.804688
vt 0.257812 0.804688
vt 0.164062 0.835937
vt 0.164062 0.835938
vt 0.164062 0.835938
vt 0.164062 0.835938
vt 0.257812 0.804688
vt 0.257812 0.804688
vt 0.164062 0.835938
vt 0.164062 0.835938
vt 0.289062 0.882812
vt 0.257812 0.804688
vt 0.257812 0.804688
vt 0.257812 0.804688
vt 0.257812 0.804688
vt 0.164062 0.835938
vt 0.164062 0.835938
vt 0.164062 0.835938
vt 0.164062 0.835938
vt 0.164062 0.835938
vt 0.164062 0.835938
vt 0.289062 0.882812
vt 0.289062 0.882812
vt 0.257812 0.804688
vt 0.257812 0.804688
vt 0.257812 0.804688
vt 0.257812 0.804688
vt 0.257812 0.804688
vt 0.164062 0.835938
vt 0.164062 0.835938
vt 0.257812 0.804688
vt 0.257812 0.804688
vt 0.257812 0.804688
vt 0.289062 0.882812
vt 0.164062 0.835938
vt 0.164062 0.835938
vt 0.257812 0.804688
vt 0.257812 0.804688
vt 0.289062 0.882812
vt 0.289062 0.882812
vt 0.289062 0.882812
vt 0.257812 0.804688
vt 0.164062 0.835938
vt 0.164062 0.835938
vt 0.164062 0.835938
vt 0.164062 0.835938
vt 0.257812 0.804688
vt 0.257812 0.804688
vt 0.164062 0.835938
vt 0.289062 0.882812
vt 0.164062 0.835938
vt 0.257812 0.804688
vt 0.164062 0.835938
vn -0.8361 0.1609 0.5244
vn 0.8361 0.1609 0.5244
vn -0.0000 0.9780 -0.2084
vn 0.0000 0.8931 -0.4498
vn 0.5181 0.8124 0.2676
vn 0.0000 0.0825 0.9966
vn -0.1707 0.5729 0.8017
vn -0.1846 -0.3870 0.9034
vn 0.0000 -0.5124 0.8587
vn 0.7443 -0.6663 -0.0463
vn 0.9147 -0.2830 -0.2886
vn 0.0000 -0.9924 -0.1231
vn 0.7125 -0.6739 -0.1954
vn 0.0553 -0.9867 0.1526
vn 0.0000 0.8559 0.5171
vn -0.6024 -0.4573 -0.6542
vn -0.5361 -0.5743 -0.6187
vn 0.4900 -0.2448 0.8367
vn 0.0000 0.0623 -0.9981
vn 0.0000 0.7051 -0.7091
vn 0.9901 -0.1352 -0.0383
vn 0.9107 0.3762 -0.1708
vn 0.8777 0.4788 -0.0206
vn 0.0000 -0.6906 -0.7233
vn 0.0000 -0.9066 0.4219
vn -0.9901 -0.1352 -0.0383
vn 0.5813 0.7273 0.3648
vn 0.9659 0.0227 0.2581
vn 0.0000 0.9665 0.2566
vn 0.6050 -0.7036 0.3727
vn 0.0000 -0.9292 0.3695
vn 0.0000 -0.9987 -0.0519
vn 0.0000 0.9531 0.3028
vn 0.6024 -0.4573 -0.6542
vn -0.9427 0.3163 0.1058
vn -0.8777 0.4788 -0.0206
vn 0.8499 -0.4638 0.2501
vn -0.5813 0.7273 0.3648
vn -0.9659 0.0227 0.2581
vn 0.0000 0.9085 0.4180
vn 0.7950 -0.3401 0.5024
vn 0.0000 -0.9703 -0.2417
vn 0.0294 -0.9144 -0.4037
vn 0.0000 -0.5314 -0.8471
vn -0.8499 -0.4638 0.2501
vn -0.4900 -0.2448 0.8367
vn -0.9147 -0.2830 -0.2886
vn -0.0294 -0.9144 -0.4037
vn -0.7443 -0.6663 -0.0463
vn 0.4211 -0.7782 0.4660
vn 0.4658 0.7163 0.5196
vn 0.0000 -0.8786 -0.4776
vn 0.0000 -0.9785 -0.2060
vn -0.0000 -0.7009 0.7132
vn -0.6050 -0.7036 0.3727
vn -0.5181 0.8124 0.2676
vn -0.7898 -0.3659 0.4923
vn 0.0000 -0.0055 1.0000
vn 0.9629 -0.0718 0.2603
vn 0.9427 0.3163 0.1058
vn 0.3224 -0.5750 0.7519
vn -0.7125 -0.6739 -0.1954
vn 0.0030 -0.7598 -0.6501
vn 0.3214 -0.8879 -0.3291
vn 0.0802 -0.8893 -0.4502
vn -0.7950 -0.3401 0.5024
vn 0.5361 -0.5743 -0.6187
vn -0.3224 -0.5750 0.7519
vn 0.0000 0.9625 -0.2713
vn 0.0000 -0.9224 0.3862
vn 0.7898 -0.3659 0.4923
vn -0.9107 0.3762 -0.1708
vn 0.1061 0.9605 -0.2573
s off
f 61/1/1 63/2/1 64/3/1 62/4/1
f 65/5/2 66/6/2 68/7/2 67/8/2
s 1
f 14/9/3 21/10/4 31/11/5
f 51/12/6 59/13/7 60/14/8 13/15/9
f 74/16/10 72/17/11 33/18/12
f 33/19/12 72/20/11 71/21/13
f 13/15/9 60/14/8 12/22/14
f 21/10/4 15/23/15 31/11/5
f 57/24/16 40/25/17 58/26/18
f 5/27/19 2/28/20 75/29/21
f 71/30/13 70/31/22 43/32/23
f 75/29/21 70/31/22 72/17/11
f 37/33/24 46/34/25 36/35/26
f 53/36/27 55/37/28 43/32/23
f 2/28/20 36/35/26 45/38/29
f 71/21/13 1/39/30 52/40/31 47/41/32
f 53/36/27 31/11/5 15/23/15 49/42/33
f 23/43/34 27/44/35 25/45/36
f 56/46/37 55/47/28 1/39/30
f 70/31/22 14/9/3 31/11/5
f 18/48/38 25/45/36 20/49/39
f 51/12/6 50/50/40 59/13/7
f 55/47/28 7/51/41 1/39/30
f 10/52/42 73/53/43 42/54/44
f 73/53/43 10/52/42 72/20/11
f 23/43/34 22/55/45 24/56/46
f 25/45/36 27/44/35 24/56/46
f 56/57/37 43/32/23 55/37/28
f 32/58/47 34/59/48 35/60/49
f 51/12/6 13/15/9 39/61/50 38/62/51
f 9/63/52 41/64/53 34/65/48
f 52/40/31 17/66/54 3/67/55
f 21/10/4 8/68/56 15/23/15
f 37/33/24 75/29/21 46/34/25
f 52/40/31 1/39/30 17/66/54
f 10/52/42 42/54/44 34/65/48
f 34/65/48 41/64/53 33/19/12
f 10/69/42 75/29/21 72/17/11
f 20/70/39 19/71/57 48/72/58
f 39/61/50 4/73/59 38/62/51
f 70/31/22 31/11/5 53/36/27
f 11/74/60 58/26/18 69/75/61
f 30/76/62 33/19/12 47/41/32
f 3/67/55 22/77/45 30/76/62
f 13/15/9 12/22/14 39/61/50
f 57/24/16 11/74/60 40/25/17
f 10/69/42 46/34/25 75/29/21
f 42/54/44 73/53/43 9/63/52
f 35/60/49 33/18/12 32/58/47
f 57/24/16 58/26/18 56/57/37
f 16/78/63 19/79/64 44/80/65
f 71/21/13 47/41/32 33/19/12
f 18/48/38 49/42/33 15/23/15 8/68/56
f 4/81/66 3/67/55 17/66/54
f 26/82/67 24/56/46 28/83/68
f 72/17/11 70/31/22 71/30/13
f 73/84/43 74/16/10 33/18/12
f 71/30/13 57/24/16 56/57/37
f 14/9/3 8/68/56 21/10/4
f 58/26/18 43/32/23 56/57/37
f 6/85/69 70/31/22 75/29/21
f 6/85/69 14/9/3 70/31/22
f 48/72/58 16/86/70 54/87/71
f 73/53/43 33/19/12 41/64/53
f 57/24/16 43/32/23 11/74/60
f 7/51/41 17/66/54 1/39/30
f 6/85/69 29/88/72 14/9/3
f 71/30/13 43/32/23 57/24/16
f 23/43/34 26/82/67 27/44/35
f 30/76/62 47/41/32 52/40/31 3/67/55
f 2/28/20 45/38/29 75/29/21
f 17/89/73 59/13/7 50/50/40
f 43/32/23 70/31/22 53/36/27
f 55/47/28 48/72/58 54/87/71
f 22/77/45 3/67/55 20/70/39
f 24/56/46 22/55/45 25/45/36
f 1/39/30 71/21/13 56/46/37
f 37/33/24 36/35/26 5/27/19
f 20/70/39 3/67/55 4/81/66
f 72/17/11 74/16/10 73/84/43
f 40/25/17 69/75/61 58/26/18
f 10/69/42 32/58/47 36/35/26
f 49/42/33 48/90/58 53/36/27
f 6/85/69 36/35/26 29/88/72
f 4/73/59 17/89/73 38/62/51
f 55/47/28 54/87/71 7/51/41
f 48/72/58 19/71/57 16/86/70
f 4/73/59 39/61/50 19/79/64
f 27/44/35 28/83/68 24/56/46
f 34/65/48 32/91/47 10/52/42
f 5/27/19 36/35/26 2/28/20
f 51/12/6 38/62/51 50/50/40
f 29/88/72 18/48/38 8/68/56
f 36/35/26 32/58/47 29/88/72
f 43/32/23 58/26/18 11/74/60
f 49/42/33 18/48/38 48/90/58
f 17/89/73 50/50/40 38/62/51
f 37/33/24 5/27/19 75/29/21
f 29/88/72 8/68/56 14/9/3
f 36/35/26 6/85/69 45/38/29
f 12/22/14 44/80/65 19/79/64 39/61/50
f 25/45/36 18/48/38 29/88/72
f 10/69/42 36/35/26 46/34/25
f 75/29/21 45/38/29 6/85/69
f 33/19/12 30/76/62 32/91/47
f 30/92/62 22/55/45 23/43/34
f 30/92/62 25/45/36 29/88/72
f 22/55/45 20/49/39 25/45/36
f 42/54/44 9/63/52 34/65/48
f 23/43/34 24/56/46 26/82/67
f 34/59/48 33/18/12 35/60/49
f 9/63/52 73/53/43 41/64/53
f 32/58/47 30/92/62 29/88/72
f 20/70/39 4/81/66 19/71/57
f 53/36/27 48/90/58 55/37/28
f 30/92/62 23/43/34 25/45/36
f 18/48/38 20/49/39 48/90/58
