# Blender v2.91.0 Beta OBJ File: 'decos.blend'
# www.blender.org
o Text.003_Text.003
v -3.049528 6.813546 0.253346
v 3.049535 6.813544 0.253344
v 2.917521 6.937872 0.253344
v -2.917514 6.937874 0.253346
v 3.049535 6.813544 -0.285765
v -3.049528 6.813546 -0.285767
v -2.917514 6.851259 -0.285767
v 2.917522 6.851257 -0.285765
v 2.744223 7.024050 0.201423
v -2.744215 7.024051 0.201425
v -2.848516 6.870970 -0.233845
v 2.848524 6.870969 -0.233843
v -5.137776 8.667149 0.253347
v 5.137786 8.667147 0.253345
v 4.911663 8.869910 0.253345
v -4.911652 8.869914 0.253347
v -5.137776 8.667149 -0.253347
v 5.137786 8.667147 -0.253345
v 4.911663 8.869910 -0.253345
v -4.911652 8.869914 -0.253347
v 4.795506 8.971744 0.201423
v -4.795494 8.971747 0.201425
v 4.795506 8.971744 -0.201423
v -4.795494 8.971747 -0.201425
v -3.049528 12.429696 0.253347
v 3.049528 12.429696 0.253347
v 2.714873 12.668772 0.237058
v -2.714873 12.668772 0.237058
v 3.049528 12.429696 -0.285766
v -3.049528 12.429696 -0.285766
v -2.714873 12.668772 -0.269476
v 2.714873 12.668772 -0.269476
v 2.650667 12.702274 0.188274
v -2.650667 12.702274 0.188274
v -2.650667 12.702274 -0.220692
v 2.650667 12.702274 -0.220692
v -2.064714 -0.000000 0.000001
v -2.064714 14.338090 0.000005
v -2.017456 14.338090 -0.114088
v -2.017456 0.000000 -0.114091
v -1.903362 0.000000 -0.161350
v -1.903362 14.338090 -0.161346
v -1.789269 14.338090 -0.114088
v -1.789269 0.000000 -0.114091
v -1.742011 -0.000000 0.000001
v -1.742011 14.338090 0.000005
v -1.789269 14.338090 0.114098
v -1.789269 -0.000000 0.114094
v -1.903362 -0.000000 0.161353
v -1.903362 14.338090 0.161357
v -2.017456 14.338090 0.114098
v -2.017456 -0.000000 0.114094
v 3.049528 8.555901 -0.285763
v 2.917515 8.518189 -0.285763
v -3.049534 8.555904 -0.285765
v -3.049534 8.555904 0.253348
v 3.049528 8.555901 0.253346
v 2.917515 8.431574 0.253346
v 2.848517 8.498478 -0.233842
v 2.744216 8.345397 0.201425
v -2.917519 8.518189 -0.285765
v -2.917519 8.431575 0.253348
v -2.848522 8.498480 -0.233844
v -2.744221 8.345399 0.201426
v -5.137786 11.334833 -0.253348
v 5.137774 11.334831 -0.253347
v 4.911653 11.132066 -0.253347
v -5.137786 11.334833 0.253348
v 5.137774 11.334831 0.253347
v 4.911653 11.132066 0.253347
v 4.795494 11.030232 -0.201425
v 4.795494 11.030232 0.201425
v -4.911661 11.132069 -0.253348
v -4.911661 11.132069 0.253348
v -4.795504 11.030236 -0.201426
v -4.795504 11.030236 0.201426
v 4.765679 15.812994 -0.285764
v 4.765679 15.812994 0.253349
v -4.765679 15.812994 -0.285764
v -4.765679 15.812994 0.253349
v 4.311825 15.501966 -0.269475
v 4.311825 15.501966 0.237059
v 4.247621 15.468465 -0.220691
v 4.247621 15.468465 0.188275
v -4.311825 15.501966 -0.269475
v -4.311825 15.501966 0.237059
v -4.247621 15.468465 -0.220691
v -4.247621 15.468465 0.188275
v 0.000000 12.429695 0.253346
v 0.000000 12.429695 -0.285765
v -0.000000 12.702274 0.188273
v -0.000000 12.702274 -0.220691
v 0.000000 15.097931 -0.285763
v -0.000000 14.842572 0.188274
v -0.000000 14.876075 0.237058
v 0.000000 15.097931 0.253348
v -0.000000 14.876075 -0.269474
v -0.000000 12.668771 0.237057
v -0.000000 14.842572 -0.220690
v -0.000000 12.668771 -0.269475
v 2.064714 -0.000000 0.000001
v 2.064714 14.338090 0.000005
v 2.017456 14.338090 -0.114088
v 2.017456 0.000000 -0.114091
v 1.903362 0.000000 -0.161350
v 1.903362 14.338090 -0.161346
v 1.789269 14.338090 -0.114088
v 1.789269 0.000000 -0.114091
v 1.742011 -0.000000 0.000001
v 1.742011 14.338090 0.000005
v 1.789269 14.338090 0.114098
v 1.789269 -0.000000 0.114094
v 1.903362 -0.000000 0.161353
v 1.903362 14.338090 0.161357
v 2.017456 14.338090 0.114098
v 2.017456 -0.000000 0.114094
v 5.203731 11.401436 0.196865
v 5.203731 11.401436 -0.196865
v 5.231818 8.667331 -0.195866
v 5.231818 8.667331 0.195866
v -5.203743 11.401438 0.196866
v -5.203743 11.401438 -0.196866
v -5.231808 8.667333 -0.195867
v -5.231808 8.667333 0.195867
v -0.861498 14.943981 0.119375
v -0.861498 14.943981 -0.151791
v 0.861498 14.943981 0.119375
v 0.861498 14.943981 -0.151791
v 0.000000 16.666975 0.119375
v -0.861498 15.838296 0.119375
v -0.447158 16.555952 0.119375
v -0.750476 16.252634 0.119375
v -0.861498 15.838296 -0.151791
v 0.000000 16.666975 -0.151791
v -0.750476 16.252634 -0.151791
v -0.447158 16.555952 -0.151791
v 0.861498 15.838296 0.119375
v 0.750476 16.252634 0.119375
v 0.447158 16.555952 0.119375
v 0.861498 15.838296 -0.151791
v 0.447158 16.555952 -0.151791
v 0.750476 16.252634 -0.151791
v -0.917087 14.888392 0.167972
v 0.917087 14.888392 0.167972
v 0.000000 16.745590 0.167972
v 0.000000 16.745590 -0.200387
v -0.818558 16.291941 -0.200387
v -0.939441 15.848557 0.167972
v 0.485836 16.624393 0.167972
v 0.818558 16.291941 -0.200387
v 0.818558 16.291941 0.167972
v 0.939441 15.848557 -0.200387
v 0.939441 15.848557 0.167972
v -0.861498 15.838296 0.167972
v 0.861498 14.943981 -0.200387
v -0.861498 14.943981 -0.200387
v -0.818558 16.291941 0.167972
v -0.750476 16.252634 0.167972
v -0.861498 14.943981 0.167972
v 0.861498 14.943981 0.167972
v -0.447158 16.555952 0.167972
v 0.000000 16.666975 0.167972
v -0.485836 16.624393 0.167972
v 0.000000 16.666975 -0.200387
v -0.447158 16.555952 -0.200387
v 0.750476 16.252634 -0.200387
v -0.750476 16.252634 -0.200387
v 0.485836 16.624393 -0.200387
v 0.447158 16.555952 -0.200387
v -0.861498 15.838296 -0.200387
v 0.861498 15.838296 0.167972
v 0.447158 16.555952 0.167972
v 0.750476 16.252634 0.167972
v 0.861498 15.838296 -0.200387
v -0.485836 16.624393 -0.200387
v 0.917087 14.888392 -0.200387
v -0.917087 14.888392 -0.200387
v -0.939441 15.848557 -0.200387
vt 0.835938 0.382812
vt 0.835938 0.382812
vt 0.835938 0.382812
vt 0.835938 0.382812
vt 0.835938 0.382812
vt 0.835938 0.382812
vt 0.835938 0.382812
vt 0.835938 0.382812
vt 0.835938 0.382812
vt 0.835938 0.382812
vt 0.835938 0.382812
vt 0.835938 0.382812
vt 0.835938 0.382812
vt 0.835938 0.382812
vt 0.835938 0.382812
vt 0.835938 0.382812
vt 0.835938 0.382812
vt 0.835938 0.382812
vt 0.835938 0.382812
vt 0.835938 0.382812
vt 0.835938 0.382812
vt 0.835938 0.382812
vt 0.835938 0.382812
vt 0.835938 0.382812
vt 0.835938 0.382812
vt 0.835938 0.382812
vt 0.835938 0.382812
vt 0.835938 0.382812
vt 0.835938 0.382812
vt 0.835938 0.382812
vt 0.835938 0.382812
vt 0.835938 0.382812
vt 0.835938 0.382812
vt 0.835938 0.382812
vt 0.835938 0.382812
vt 0.835938 0.398438
vt 0.835938 0.398438
vt 0.835938 0.398438
vt 0.835938 0.398438
vt 0.835938 0.398438
vt 0.835938 0.398438
vt 0.835938 0.398438
vt 0.835938 0.398438
vt 0.835938 0.398438
vt 0.835938 0.398438
vt 0.835938 0.398438
vt 0.835938 0.398438
vt 0.835938 0.398438
vt 0.835938 0.398438
vt 0.835938 0.398438
vt 0.835938 0.398438
vt 0.835938 0.382812
vt 0.835938 0.382812
vt 0.835938 0.382812
vt 0.835938 0.382812
vt 0.835938 0.382812
vt 0.835938 0.382812
vt 0.835938 0.382812
vt 0.835938 0.382812
vt 0.835938 0.382812
vt 0.835938 0.382812
vt 0.835938 0.429688
vt 0.835938 0.429688
vt 0.835938 0.429688
vt 0.835938 0.429688
vt 0.835938 0.429688
vt 0.835938 0.429688
vt 0.835938 0.429688
vt 0.835938 0.429688
vt 0.835938 0.382812
vt 0.835938 0.382812
vt 0.835938 0.382812
vt 0.835938 0.382812
vt 0.835938 0.382812
vt 0.835938 0.382812
vt 0.835938 0.382812
vt 0.835938 0.382812
vt 0.835938 0.382812
vt 0.835938 0.382812
vt 0.835938 0.382812
vt 0.835938 0.382812
vt 0.835938 0.382812
vt 0.835938 0.382812
vt 0.757812 0.414062
vt 0.757812 0.414062
vt 0.757812 0.414062
vt 0.757812 0.414062
vt 0.835938 0.382812
vt 0.757812 0.414062
vt 0.757812 0.414062
vt 0.757812 0.414062
vt 0.757812 0.414062
vt 0.835938 0.382812
vt 0.835938 0.382812
vt 0.835938 0.382812
vt 0.835938 0.382812
vt 0.835938 0.382812
vt 0.835938 0.382812
vt 0.835938 0.382812
vt 0.835938 0.382812
vt 0.835938 0.382812
vt 0.835938 0.382812
vt 0.835938 0.382812
vt 0.835938 0.382812
vt 0.835938 0.382812
vt 0.835938 0.382812
vt 0.835938 0.382812
vt 0.835938 0.382812
vt 0.835938 0.382812
vt 0.835938 0.429688
vt 0.835938 0.429688
vt 0.835938 0.429688
vt 0.835938 0.429688
vt 0.835938 0.382812
vt 0.835938 0.382812
vt 0.835938 0.382812
vt 0.835938 0.429688
vt 0.835938 0.429688
vt 0.835938 0.429688
vt 0.835938 0.429688
vt 0.835938 0.382812
vt 0.835938 0.382812
vt 0.835938 0.382812
vt 0.835938 0.382812
vt 0.835938 0.382812
vt 0.835938 0.382812
vt 0.835938 0.382812
vt 0.835938 0.429688
vt 0.835938 0.429688
vt 0.835938 0.429688
vt 0.835938 0.429688
vt 0.835938 0.398438
vt 0.835938 0.398438
vt 0.835938 0.398438
vt 0.835938 0.398438
vt 0.835938 0.398438
vt 0.835938 0.398438
vt 0.835938 0.398438
vt 0.835938 0.398438
vt 0.835938 0.398438
vt 0.835938 0.398438
vt 0.835938 0.398438
vt 0.835938 0.398438
vt 0.835938 0.398438
vt 0.835938 0.398438
vt 0.835938 0.398438
vt 0.835938 0.398438
vt 0.835938 0.382812
vt 0.835938 0.382812
vt 0.835938 0.382812
vt 0.835938 0.382812
vt 0.835938 0.382812
vt 0.835938 0.429688
vt 0.835938 0.429688
vt 0.835938 0.429688
vt 0.835938 0.382812
vt 0.835938 0.382812
vt 0.835938 0.382812
vt 0.835938 0.382812
vt 0.835938 0.382812
vt 0.835938 0.382812
vt 0.835938 0.382812
vt 0.835938 0.382812
vt 0.835938 0.382812
vt 0.835938 0.382812
vt 0.835938 0.382812
vt 0.835938 0.382812
vt 0.835938 0.429688
vt 0.835938 0.429688
vt 0.835938 0.429688
vt 0.757812 0.414062
vt 0.757812 0.414062
vt 0.757812 0.414062
vt 0.757812 0.414062
vt 0.835938 0.429688
vt 0.835938 0.429688
vt 0.835938 0.429688
vt 0.835938 0.429688
vt 0.757812 0.414062
vt 0.757812 0.414062
vt 0.757812 0.414062
vt 0.757812 0.414062
vt 0.757812 0.414062
vt 0.835938 0.429688
vt 0.835938 0.429688
vt 0.835938 0.429688
vt 0.835938 0.429688
vt 0.835938 0.429688
vt 0.835938 0.429688
vt 0.835938 0.429688
vt 0.835938 0.429688
vt 0.757812 0.414062
vt 0.757812 0.414062
vt 0.757812 0.414062
vt 0.757812 0.414062
vt 0.835938 0.382812
vt 0.757812 0.414062
vt 0.757812 0.414062
vt 0.757812 0.414062
vt 0.757812 0.414062
vt 0.757812 0.414062
vt 0.835938 0.382812
vt 0.835938 0.382812
vt 0.835938 0.382812
vt 0.835938 0.382812
vt 0.835938 0.382812
vt 0.835938 0.382812
vt 0.835938 0.382812
vt 0.835938 0.382812
vt 0.835938 0.382812
vt 0.835938 0.382812
vt 0.835938 0.382812
vt 0.835938 0.429688
vt 0.835938 0.429688
vt 0.835938 0.429688
vt 0.835938 0.429688
vt 0.835938 0.429688
vt 0.835938 0.429688
vt 0.835938 0.429688
vt 0.835938 0.429688
vt 0.835938 0.429688
vt 0.835938 0.429688
vt 0.835938 0.429688
vt 0.835938 0.429688
vt 0.835938 0.382812
vt 0.835938 0.382812
vt 0.835938 0.382812
vt 0.835938 0.382812
vt 0.835938 0.429688
vt 0.835938 0.382812
vt 0.835938 0.382812
vt 0.835938 0.382812
vt 0.835938 0.382812
vt 0.835938 0.382812
vt 0.835938 0.382812
vt 0.835938 0.382812
vt 0.835938 0.429688
vt 0.835938 0.382812
vt 0.835938 0.429688
vt 0.835938 0.429688
vt 0.835938 0.429688
vt 0.835938 0.429688
vt 0.835938 0.429688
vt 0.835938 0.429688
vt 0.835938 0.429688
vt 0.835938 0.429688
vn 0.0000 0.0000 1.0000
vn 0.0000 0.0953 0.9955
vn 0.0000 -0.0000 -1.0000
vn 0.0000 0.2000 -0.9798
vn 0.0000 0.5161 0.8565
vn 0.0000 0.9349 -0.3549
vn 0.0000 0.1131 0.9936
vn 0.0000 0.1131 -0.9936
vn 0.0000 0.4542 0.8909
vn 0.0000 0.4542 -0.8909
vn -0.0000 0.0680 -0.9977
vn -0.0000 0.4956 -0.8686
vn -0.0000 0.2584 -0.9660
vn 0.8918 -0.4524 0.0000
vn 0.0000 0.8243 -0.5661
vn -1.0000 -0.0000 -0.0000
vn -0.7071 0.0000 -0.7071
vn 0.7071 0.0000 -0.7071
vn 1.0000 0.0000 -0.0000
vn 0.7071 -0.0000 0.7071
vn -0.7071 -0.0000 0.7071
vn 0.0000 1.0000 0.0000
vn -0.4847 -0.3794 -0.7881
vn -0.6013 -0.0000 -0.7990
vn -0.3142 -0.6705 -0.6721
vn -0.2870 -0.0000 0.9579
vn -0.2037 -0.1711 0.9640
vn -0.1308 -0.3053 0.9432
vn 0.6013 0.0000 -0.7990
vn 0.4847 -0.3794 -0.7881
vn 0.3142 -0.6705 -0.6721
vn 0.2037 -0.1711 0.9640
vn 0.1308 -0.3053 0.9432
vn 0.2870 0.0000 0.9579
vn -0.5794 0.0029 -0.8151
vn 0.0000 0.6468 -0.7627
vn -0.4081 -0.0000 0.9129
vn -0.2294 -0.2216 0.9478
vn -0.2088 -0.2446 0.9469
vn 0.2294 -0.2216 -0.9478
vn 0.2088 -0.2446 -0.9469
vn 0.4081 0.0000 -0.9129
vn 0.2294 -0.2216 0.9478
vn 0.2088 -0.2446 0.9469
vn -0.2294 -0.2216 -0.9478
vn -0.2088 -0.2446 -0.9469
vn 0.4081 0.0000 0.9129
vn 0.0000 -0.0698 0.9976
vn -0.0166 -0.0234 0.9996
vn -0.0179 -0.0210 0.9996
vn -0.5719 0.3262 -0.7527
vn -0.2988 -0.3892 -0.8713
vn -0.3531 -0.2942 -0.8881
vn -0.3531 -0.2942 0.8881
vn -0.2988 -0.3892 0.8713
vn -0.2415 0.6812 0.6911
vn -0.1631 0.2224 0.9612
vn -0.8918 -0.4524 0.0000
vn -0.0000 -0.8611 0.5085
vn -0.0179 -0.0210 -0.9996
vn -0.0166 -0.0234 -0.9996
vn 0.0000 -0.0698 -0.9976
vn 0.0434 0.0231 -0.9988
vn 0.0179 -0.0210 -0.9996
vn 0.0166 -0.0234 -0.9996
vn 0.0179 -0.0210 0.9996
vn 0.0166 -0.0234 0.9996
vn -0.0302 0.0368 0.9989
vn 0.0302 0.0368 0.9989
vn 0.1631 0.2224 0.9612
vn 0.0000 0.4956 0.8686
vn 0.0000 0.0680 0.9977
vn 0.5719 0.3262 -0.7527
vn 0.3531 -0.2942 -0.8881
vn 0.2988 -0.3892 -0.8713
vn 0.3531 -0.2942 0.8881
vn 0.2988 -0.3892 0.8713
vn -0.1484 0.9889 0.0000
vn 0.2415 0.6812 0.6911
vn 0.0000 -0.8611 -0.5085
vn -0.0000 0.8243 0.5661
vn 0.1484 0.9889 0.0000
vn -0.0434 0.0231 -0.9988
vn -0.4081 -0.0000 -0.9129
vn 0.5794 0.0029 -0.8151
vn 0.5794 0.0029 0.8151
vn 0.9999 0.0103 0.0000
vn 0.0000 0.6468 0.7627
vn -0.5794 0.0029 0.8151
vn -0.9999 0.0103 0.0000
vn 0.4920 -0.8706 0.0000
vn 0.8660 -0.5000 0.0000
vn -0.4920 -0.8706 0.0000
vn 0.0000 -1.0000 0.0000
vn 0.6988 -0.7153 0.0000
vn 0.9926 0.1211 0.0000
vn -0.6988 -0.7153 0.0000
vn -0.9926 0.1211 0.0000
vn -0.4885 0.8726 0.0025
vn 0.0072 0.9999 0.0072
vn -0.0072 0.9999 -0.0072
vn -0.4966 0.8680 -0.0013
vn -0.8648 0.5021 0.0000
vn 0.4885 0.8726 -0.0025
vn 0.4966 0.8680 0.0013
vn 0.8648 0.5021 0.0000
vn -0.9914 -0.1305 0.0000
vn -0.7071 0.7071 0.0000
vn -0.8660 -0.5000 0.0000
vn 0.7071 0.7071 0.0000
vn 0.0045 -0.0008 -1.0000
vn 0.0039 0.0024 -1.0000
vn -0.0039 0.0024 1.0000
vn -0.0045 -0.0008 1.0000
vn 0.0073 0.0057 -1.0000
vn -0.0073 0.0057 1.0000
vn 0.9914 -0.1305 0.0000
s 1
f 1/1/1 2/2/1 3/3/2 4/4/2
f 5/5/3 6/6/3 7/7/4 8/8/4
f 4/4/2 3/3/2 9/9/5 10/10/5
f 8/8/4 7/7/4 11/11/6 12/12/6
f 13/13/1 14/14/1 15/15/7 16/16/7
f 17/17/3 20/18/8 19/19/8 18/20/3
f 16/16/7 15/15/7 21/21/9 22/22/9
f 20/18/8 24/23/10 23/24/10 19/19/8
f 90/25/11 100/26/12 32/27/13 29/28/11
f 90/25/11 30/29/11 31/30/13 100/26/12
f 78/31/14 26/32/14 29/28/14 77/33/14
f 100/26/12 31/30/13 35/34/15 92/35/15
f 37/36/16 38/37/16 39/38/17 40/39/17
f 41/40/3 42/41/3 43/42/18 44/43/18
f 45/44/19 46/45/19 47/46/20 48/47/20
f 49/48/1 50/49/1 51/50/21 52/51/21
f 48/47/20 47/46/20 50/49/1 49/48/1
f 40/39/17 39/38/17 42/41/3 41/40/3
f 44/43/18 43/42/18 46/45/19 45/44/19
f 52/51/21 51/50/21 38/37/16 37/36/16
f 53/52/3 5/5/3 8/8/3 54/53/3
f 55/54/22 56/55/22 57/56/22 53/52/22
f 2/2/1 57/56/1 58/57/1 3/3/1
f 56/55/16 55/54/16 6/6/16 1/1/16
f 53/52/19 57/56/19 2/2/19 5/5/19
f 54/53/23 8/8/24 12/12/24 59/58/25
f 3/3/26 58/57/27 60/59/28 9/9/26
f 6/6/3 55/54/3 61/60/3 7/7/3
f 57/56/1 56/55/1 62/61/1 58/57/1
f 55/54/3 53/52/3 54/53/3 61/60/3
f 56/55/1 1/1/1 4/4/1 62/61/1
f 11/62/3 63/63/3 59/64/3 12/65/3
f 10/66/1 9/67/1 60/68/1 64/69/1
f 7/7/29 61/60/30 63/70/31 11/11/29
f 58/57/27 62/61/32 64/71/33 60/59/28
f 61/60/30 54/53/23 59/58/25 63/70/31
f 62/61/32 4/4/34 10/10/34 64/71/33
f 18/20/3 19/19/3 67/72/3 66/73/3
f 122/74/35 65/75/35 17/17/35 123/76/35
f 14/14/1 69/77/1 70/78/1 15/15/1
f 118/79/36 66/73/36 65/75/36 122/74/36
f 66/73/3 67/72/3 73/80/3 65/75/3
f 15/15/37 70/78/38 72/81/39 21/21/37
f 65/75/3 73/80/3 20/18/3 17/17/3
f 69/77/1 68/82/1 74/83/1 70/78/1
f 24/84/3 75/85/3 71/86/3 23/87/3
f 68/82/1 13/13/1 16/16/1 74/83/1
f 73/80/40 75/88/41 24/23/42 20/18/42
f 22/89/1 21/90/1 72/91/1 76/92/1
f 70/78/38 74/83/43 76/93/44 72/81/39
f 67/72/45 71/94/46 75/88/41 73/80/40
f 74/83/43 16/16/47 22/22/47 76/93/44
f 96/95/48 95/96/48 82/97/49 78/31/50
f 32/27/51 36/98/51 83/99/52 81/100/53
f 82/97/54 84/101/55 33/102/56 27/103/57
f 80/104/58 79/105/58 30/29/58 25/106/58
f 95/96/59 94/107/59 84/101/55 82/97/54
f 77/33/60 81/100/61 97/108/62 93/109/62
f 33/110/1 84/111/1 94/112/1 91/113/1
f 30/29/63 79/105/64 85/114/65 31/30/63
f 96/95/48 80/104/66 86/115/67 95/96/48
f 78/31/50 82/97/49 27/103/57 26/32/68
f 80/104/66 25/106/69 28/116/70 86/115/67
f 36/117/3 92/118/3 99/119/3 83/120/3
f 26/32/68 27/103/57 98/121/71 89/122/72
f 31/30/73 85/114/74 87/123/75 35/34/73
f 95/96/59 86/115/76 88/124/77 94/107/59
f 77/33/78 93/109/22 96/95/22 78/31/78
f 86/115/76 28/116/70 34/125/79 88/124/77
f 85/114/74 97/108/80 99/126/80 87/123/75
f 81/100/53 83/99/52 99/126/80 97/108/80
f 27/103/57 33/102/56 91/127/81 98/121/71
f 79/105/82 80/104/82 96/95/22 93/109/22
f 79/105/64 93/109/62 97/108/62 85/114/65
f 29/28/83 32/27/83 81/100/61 77/33/60
f 35/128/3 87/129/3 99/119/3 92/118/3
f 28/116/70 98/121/71 91/127/81 34/125/79
f 34/130/1 91/113/1 94/112/1 88/131/1
f 100/26/12 92/35/15 36/98/15 32/27/13
f 25/106/69 89/122/72 98/121/71 28/116/70
f 101/132/19 104/133/18 103/134/18 102/135/19
f 105/136/3 108/137/17 107/138/17 106/139/3
f 109/140/16 112/141/21 111/142/21 110/143/16
f 113/144/1 116/145/20 115/146/20 114/147/1
f 112/141/21 113/144/1 114/147/1 111/142/21
f 104/133/18 105/136/3 106/139/3 103/134/18
f 108/137/17 109/140/16 110/143/16 107/138/17
f 116/145/20 101/132/19 102/135/19 115/146/20
f 19/19/84 23/24/84 71/94/46 67/72/45
f 118/79/85 119/148/85 18/20/85 66/73/85
f 69/77/86 14/14/86 120/149/86 117/150/86
f 117/150/87 120/149/87 119/148/87 118/79/87
f 69/77/88 117/150/88 121/151/88 68/82/88
f 117/150/22 118/79/22 122/74/22 121/151/22
f 68/82/89 121/151/89 124/152/89 13/13/89
f 121/151/90 122/74/90 123/76/90 124/152/90
f 155/153/3 177/154/3 156/155/3
f 159/156/1 148/157/1 143/158/1
f 160/159/1 153/160/1 171/161/1
f 156/162/3 178/163/3 170/164/3
f 155/165/3 152/166/3 176/167/3
f 159/168/1 144/169/1 160/170/1
f 140/171/3 128/172/3 126/173/3 133/174/3
f 165/175/91 136/176/91 135/177/92 167/178/92
f 133/174/3 135/179/3 136/180/3
f 136/180/3 134/181/3 133/174/3
f 134/181/3 141/182/3 140/171/3
f 133/174/3 134/181/3 140/171/3
f 141/182/3 142/183/3 140/171/3
f 169/184/93 141/185/93 134/186/94 164/187/94
f 158/188/92 132/189/92 131/190/91 161/191/91
f 130/192/1 125/193/1 127/194/1 137/195/1
f 144/196/95 176/167/95 152/166/96 153/160/96
f 137/195/1 138/197/1 139/198/1
f 139/198/1 129/199/1 137/195/1
f 129/199/1 131/200/1 130/192/1
f 137/195/1 129/199/1 130/192/1
f 131/200/1 132/201/1 130/192/1
f 177/202/97 143/158/97 148/157/98 178/163/98
f 143/158/97 177/202/97 176/167/95 144/196/95
f 163/203/99 145/204/100 146/205/101 175/206/102
f 157/207/103 163/203/99 175/206/102 147/208/103
f 148/157/98 157/207/103 147/208/103 178/163/98
f 168/209/104 146/205/101 145/204/100 149/210/105
f 150/211/106 168/209/104 149/210/105 151/212/106
f 152/166/96 150/211/106 151/212/106 153/160/96
f 171/213/107 137/214/107 127/215/108 160/170/108
f 164/187/94 134/186/94 136/176/91 165/175/91
f 173/216/109 138/217/109 137/214/107 171/213/107
f 174/218/107 140/219/107 142/220/109 166/221/109
f 161/191/91 131/190/91 129/222/94 162/223/94
f 160/170/108 127/215/108 125/224/110 159/168/110
f 150/211/3 166/225/3 169/226/3 168/209/111
f 147/208/3 175/206/112 165/227/3 167/228/3
f 155/153/3 176/229/3 177/154/3
f 159/156/1 154/230/1 148/157/1
f 151/212/1 149/210/113 172/231/1 173/232/1
f 157/207/1 158/233/1 161/234/1 163/203/114
f 160/159/1 144/196/1 153/160/1
f 146/205/115 168/209/111 169/226/3 164/235/3
f 156/162/3 177/202/3 178/163/3
f 155/165/3 174/236/3 152/166/3
f 159/168/1 143/237/1 144/169/1
f 145/204/116 162/238/1 172/231/1 149/210/113
f 152/166/3 174/236/3 166/225/3 150/211/3
f 145/204/116 163/203/114 161/234/1 162/238/1
f 146/205/115 164/235/3 165/227/3 175/206/112
f 178/163/3 147/208/3 167/228/3 170/164/3
f 148/157/1 154/230/1 158/233/1 157/207/1
f 153/160/1 151/212/1 173/232/1 171/161/1
f 170/239/117 133/240/117 126/241/110 156/155/110
f 154/242/117 130/243/117 132/189/92 158/188/92
f 155/153/108 128/244/108 140/219/107 174/218/107
f 167/178/92 135/177/92 133/240/117 170/239/117
f 162/223/94 129/222/94 139/245/93 172/246/93
f 156/155/110 126/241/110 128/244/108 155/153/108
f 166/221/109 142/220/109 141/185/93 169/184/93
f 172/246/93 139/245/93 138/217/109 173/216/109
f 159/168/110 125/224/110 130/243/117 154/242/117
