# Blender v2.91.0 Beta OBJ File: 'decos.blend'
# www.blender.org
o Text.003_Text.005
v 2.744223 7.024050 0.201424
v -2.744215 7.024051 0.201426
v -2.848516 6.870970 -0.233844
v 2.848524 6.870969 -0.233842
v 4.795506 8.971744 0.201424
v -4.795494 8.971747 0.201426
v -4.795494 8.971747 -0.201424
v 4.795506 8.971744 -0.201422
v -2.064714 -0.000000 0.000001
v -2.064714 11.080958 0.000007
v -2.017456 11.080958 -0.114086
v -2.017456 0.000000 -0.114091
v -1.903362 0.000000 -0.161350
v -1.903362 11.080958 -0.161344
v -1.789269 11.080958 -0.114086
v -1.789269 0.000000 -0.114091
v -1.742011 -0.000000 0.000001
v -1.742011 11.080958 0.000007
v -1.789269 11.080958 0.114100
v -1.789269 -0.000000 0.114094
v -1.903362 -0.000000 0.161353
v -1.903362 11.080958 0.161359
v -2.017456 11.080958 0.114100
v -2.017456 -0.000000 0.114094
v 2.848517 8.498478 -0.233841
v 2.744216 8.345397 0.201426
v -2.848522 8.498480 -0.233843
v -2.744221 8.345399 0.201427
v 4.795494 11.030232 0.201427
v -4.795504 11.030236 -0.201424
v 4.795494 11.030232 -0.201423
v -4.795504 11.030236 0.201428
v 2.064714 -0.000000 0.000001
v 2.017456 0.000000 -0.114091
v 2.017456 11.080958 -0.114086
v 2.064714 11.080958 0.000007
v 1.903362 0.000000 -0.161350
v 1.789269 0.000000 -0.114091
v 1.789269 11.080958 -0.114086
v 1.903362 11.080958 -0.161344
v 1.742011 -0.000000 0.000001
v 1.789269 -0.000000 0.114094
v 1.789269 11.080958 0.114100
v 1.742011 11.080958 0.000007
v 1.903362 -0.000000 0.161353
v 2.017456 -0.000000 0.114094
v 2.017456 11.080958 0.114100
v 1.903362 11.080958 0.161359
vt 0.835938 0.398438
vt 0.835938 0.398438
vt 0.835938 0.398438
vt 0.835938 0.398438
vt 0.835938 0.398438
vt 0.835938 0.398438
vt 0.835938 0.398438
vt 0.835938 0.398438
vt 0.835938 0.398438
vt 0.835938 0.398438
vt 0.835938 0.398438
vt 0.835938 0.398438
vt 0.835938 0.398438
vt 0.835938 0.398438
vt 0.835938 0.398438
vt 0.835938 0.398438
vt 0.835938 0.429688
vt 0.835938 0.429688
vt 0.835938 0.429688
vt 0.835938 0.429688
vt 0.835938 0.429688
vt 0.835938 0.429688
vt 0.835938 0.429688
vt 0.835938 0.429688
vt 0.820312 0.414062
vt 0.820312 0.414062
vt 0.820312 0.414062
vt 0.820312 0.414062
vt 0.820312 0.414062
vt 0.820312 0.414062
vt 0.820312 0.414062
vt 0.820312 0.414062
vt 0.835938 0.398438
vt 0.835938 0.398438
vt 0.835938 0.398438
vt 0.835938 0.398438
vt 0.835938 0.398438
vt 0.835938 0.398438
vt 0.835938 0.398438
vt 0.835938 0.398438
vt 0.835938 0.398438
vt 0.835938 0.398438
vt 0.835938 0.398438
vt 0.835938 0.398438
vt 0.835938 0.398438
vt 0.835938 0.398438
vt 0.835938 0.398438
vt 0.835938 0.398438
vn -1.0000 -0.0000 -0.0000
vn -0.7071 0.0000 -0.7071
vn 0.0000 0.0000 -1.0000
vn 0.7071 0.0000 -0.7071
vn 1.0000 -0.0000 -0.0000
vn 0.7071 -0.0000 0.7071
vn 0.0000 -0.0000 1.0000
vn -0.7071 -0.0000 0.7071
s 1
f 9/1/1 10/2/1 11/3/2 12/4/2
f 13/5/3 14/6/3 15/7/4 16/8/4
f 17/9/5 18/10/5 19/11/6 20/12/6
f 21/13/7 22/14/7 23/15/8 24/16/8
f 20/12/6 19/11/6 22/14/7 21/13/7
f 12/4/2 11/3/2 14/6/3 13/5/3
f 16/8/4 15/7/4 18/10/5 17/9/5
f 24/16/8 23/15/8 10/2/1 9/1/1
f 3/17/3 27/18/3 25/19/3 4/20/3
f 2/21/7 1/22/7 26/23/7 28/24/7
f 7/25/3 30/26/3 31/27/3 8/28/3
f 6/29/7 5/30/7 29/31/7 32/32/7
f 33/33/5 34/34/4 35/35/4 36/36/5
f 37/37/3 38/38/2 39/39/2 40/40/3
f 41/41/1 42/42/8 43/43/8 44/44/1
f 45/45/7 46/46/6 47/47/6 48/48/7
f 42/42/8 45/45/7 48/48/7 43/43/8
f 34/34/4 37/37/3 40/40/3 35/35/4
f 38/38/2 41/41/1 44/44/1 39/39/2
f 46/46/6 33/33/5 36/36/5 47/47/6
