# Blender v2.91.0 Beta OBJ File: 'decos.blend'
# www.blender.org
o Text.003_Text.022
v -3.049528 4.156339 0.403956
v 3.049535 4.156336 0.403953
v 2.917521 4.229567 0.403953
v -2.917514 4.229569 0.403956
v 3.049535 4.156336 -0.436376
v -3.049528 4.156339 -0.436379
v -2.917514 4.229569 -0.436379
v 2.917522 4.229567 -0.436376
v 2.848524 4.267842 0.323021
v -2.848516 4.267845 0.323024
v -2.848516 4.267845 -0.355446
v 2.848524 4.267842 -0.355444
v -0.184186 -0.000000 0.000001
v -0.184186 14.338090 0.000003
v -0.130240 14.338090 -0.130236
v -0.130240 0.000000 -0.130238
v 0.000000 0.000000 -0.184185
v 0.000000 14.338090 -0.184182
v 0.130240 14.338090 -0.130236
v 0.130240 0.000000 -0.130238
v 0.184186 -0.000000 0.000001
v 0.184186 14.338090 0.000003
v 0.130240 14.338090 0.130242
v 0.130240 -0.000000 0.130240
v 0.000000 -0.000000 0.184187
v 0.000000 14.338090 0.184189
v -0.130240 14.338090 0.130242
v -0.130240 -0.000000 0.130240
v 3.049528 7.539635 -0.436374
v 2.917515 7.466404 -0.436374
v -3.049534 7.539638 -0.436377
v 3.049528 7.539635 0.403955
v 2.917515 7.466404 0.403955
v -3.049534 7.539638 0.403958
v 2.848517 7.428129 -0.355443
v 2.848517 7.428129 0.323023
v -2.917519 7.466407 -0.436377
v -2.917519 7.466407 0.403958
v -2.848522 7.428132 -0.355446
v -2.848522 7.428132 0.323025
v -3.049528 8.309342 0.403956
v 3.049535 8.309340 0.403953
v 2.917521 8.382569 0.403953
v -2.917514 8.382572 0.403956
v 3.049535 8.309340 -0.436376
v -3.049528 8.309342 -0.436379
v -2.917514 8.382572 -0.436379
v 2.917522 8.382569 -0.436376
v 2.848524 8.420845 0.323021
v -2.848516 8.420848 0.323024
v -2.848516 8.420848 -0.355446
v 2.848524 8.420845 -0.355444
v 3.049528 11.692637 -0.436374
v 2.917515 11.619407 -0.436374
v -3.049534 11.692640 -0.436377
v 3.049528 11.692637 0.403955
v 2.917515 11.619407 0.403955
v -3.049534 11.692640 0.403958
v 2.848517 11.581132 -0.355443
v 2.848517 11.581132 0.323023
v -2.917519 11.619410 -0.436377
v -2.917519 11.619410 0.403958
v -2.848522 11.581135 -0.355446
v -2.848522 11.581135 0.323025
v -3.049528 12.429696 0.403956
v 3.049535 12.429693 0.403953
v 2.917521 12.502923 0.403953
v -2.917514 12.502926 0.403956
v 3.049535 12.429693 -0.436376
v -3.049528 12.429696 -0.436379
v -2.917514 12.502926 -0.436379
v 2.917522 12.502923 -0.436376
v 2.848524 12.541199 0.323021
v -2.848516 12.541202 0.323024
v -2.848516 12.541202 -0.355446
v 2.848524 12.541199 -0.355444
v 3.049528 15.812991 -0.436374
v 2.917515 15.739760 -0.436374
v -4.765679 15.812994 -0.436377
v 3.049528 15.812991 0.403955
v 2.917515 15.739760 0.403955
v -4.765679 15.812994 0.403958
v 2.848517 15.701486 -0.355443
v 2.848517 15.701486 0.323023
v -4.633664 15.739763 -0.436377
v -4.633664 15.739763 0.403958
v -4.564667 15.701488 -0.355446
v -4.564667 15.701488 0.323025
vt 0.835938 0.382812
vt 0.835938 0.382812
vt 0.835938 0.382812
vt 0.835938 0.382812
vt 0.835938 0.382812
vt 0.835938 0.382812
vt 0.835938 0.382812
vt 0.835938 0.382812
vt 0.835938 0.382812
vt 0.835938 0.382812
vt 0.835938 0.382812
vt 0.835938 0.382812
vt 0.835938 0.382812
vt 0.835938 0.382812
vt 0.835938 0.382812
vt 0.835938 0.382812
vt 0.835938 0.382812
vt 0.835938 0.382812
vt 0.835938 0.382812
vt 0.835938 0.382812
vt 0.835938 0.382812
vt 0.835938 0.382812
vt 0.835938 0.382812
vt 0.835938 0.382812
vt 0.835938 0.382812
vt 0.835938 0.382812
vt 0.835938 0.382812
vt 0.835938 0.382812
vt 0.835938 0.382812
vt 0.835938 0.382812
vt 0.835938 0.382812
vt 0.835938 0.382812
vt 0.835938 0.382812
vt 0.835938 0.382812
vt 0.835938 0.382812
vt 0.835938 0.382812
vt 0.835938 0.398438
vt 0.835938 0.398438
vt 0.835938 0.398438
vt 0.835938 0.398438
vt 0.835938 0.398438
vt 0.835938 0.398438
vt 0.835938 0.398438
vt 0.835938 0.398438
vt 0.835938 0.398438
vt 0.835938 0.398438
vt 0.835938 0.398438
vt 0.835938 0.398438
vt 0.835938 0.398438
vt 0.835938 0.398438
vt 0.835938 0.398438
vt 0.835938 0.398438
vt 0.835938 0.382812
vt 0.835938 0.382812
vt 0.835938 0.382812
vt 0.835938 0.382812
vt 0.835938 0.382812
vt 0.835938 0.382812
vt 0.835938 0.382812
vt 0.835938 0.382812
vt 0.835938 0.382812
vt 0.835938 0.382812
vt 0.757812 0.414062
vt 0.757812 0.414062
vt 0.757812 0.414062
vt 0.757812 0.414062
vt 0.757812 0.414062
vt 0.757812 0.414062
vt 0.757812 0.414062
vt 0.757812 0.414062
vt 0.835938 0.382812
vt 0.835938 0.382812
vt 0.835938 0.382812
vt 0.835938 0.382812
vt 0.835938 0.382812
vt 0.835938 0.382812
vt 0.835938 0.382812
vt 0.835938 0.382812
vt 0.835938 0.382812
vt 0.835938 0.382812
vt 0.835938 0.382812
vt 0.835938 0.382812
vt 0.835938 0.398438
vt 0.835938 0.398438
vt 0.835938 0.398438
vt 0.835938 0.398438
vt 0.835938 0.398438
vt 0.835938 0.398438
vt 0.835938 0.398438
vt 0.835938 0.398438
vt 0.835938 0.382812
vt 0.835938 0.382812
vt 0.835938 0.382812
vt 0.835938 0.382812
vt 0.835938 0.382812
vt 0.835938 0.382812
vt 0.835938 0.382812
vt 0.835938 0.382812
vt 0.835938 0.382812
vt 0.835938 0.382812
vt 0.835938 0.382812
vt 0.835938 0.382812
vt 0.757812 0.414062
vt 0.757812 0.414062
vt 0.757812 0.414062
vt 0.757812 0.414062
vt 0.757812 0.414062
vt 0.757812 0.414062
vt 0.757812 0.414062
vt 0.757812 0.414062
vt 0.835938 0.382812
vt 0.835938 0.382812
vn 0.0000 -0.0000 1.0000
vn 0.0000 -0.0000 -1.0000
vn 0.0000 0.9040 0.4275
vn 0.0000 0.9040 -0.4275
vn -1.0000 0.0000 -0.0000
vn -0.7071 0.0000 -0.7071
vn 0.7071 0.0000 -0.7071
vn 1.0000 -0.0000 -0.0000
vn 0.7071 -0.0000 0.7071
vn -0.7071 -0.0000 0.7071
vn 0.0000 1.0000 0.0000
vn -0.5421 -0.4805 -0.6894
vn -0.7610 -0.0000 -0.6488
vn -0.4397 -0.6071 -0.6619
vn -0.7610 -0.0000 0.6488
vn -0.5421 -0.4805 0.6894
vn -0.4397 -0.6071 0.6619
vn 0.7610 0.0000 -0.6488
vn 0.5421 -0.4805 -0.6894
vn 0.4397 -0.6071 -0.6619
vn 0.5421 -0.4805 0.6894
vn 0.4397 -0.6071 0.6619
vn 0.7610 0.0000 0.6488
vn -0.4396 -0.6071 -0.6619
vn -0.8918 -0.4524 0.0000
vn 0.7045 0.3780 -0.6006
vn 0.5295 -0.3727 -0.7621
vn 0.5176 -0.3946 -0.7592
vn 0.5295 -0.3727 0.7621
vn 0.5176 -0.3946 0.7592
vn 0.7045 0.3780 0.6006
s off
f 1/1/1 2/2/1 3/3/1 4/4/1
f 5/5/2 6/6/2 7/7/2 8/8/2
f 4/4/3 3/3/3 9/9/3 10/10/3
f 8/8/4 7/7/4 11/11/4 12/12/4
f 41/13/1 42/14/1 43/15/1 44/16/1
f 45/17/2 46/18/2 47/19/2 48/20/2
f 44/16/3 43/15/3 49/21/3 50/22/3
f 48/20/4 47/19/4 51/23/4 52/24/4
f 65/25/1 66/26/1 67/27/1 68/28/1
f 69/29/2 70/30/2 71/31/2 72/32/2
f 68/28/3 67/27/3 73/33/3 74/34/3
f 72/32/4 71/31/4 75/35/4 76/36/4
s 1
f 13/37/5 14/38/5 15/39/6 16/40/6
f 17/41/2 18/42/2 19/43/7 20/44/7
f 21/45/8 22/46/8 23/47/9 24/48/9
f 25/49/1 26/50/1 27/51/10 28/52/10
f 24/48/9 23/47/9 26/50/1 25/49/1
f 16/40/6 15/39/6 18/42/2 17/41/2
f 20/44/7 19/43/7 22/46/8 21/45/8
f 28/52/10 27/51/10 14/38/5 13/37/5
f 29/53/2 5/5/2 8/8/2 30/54/2
f 31/55/11 34/56/11 32/57/11 29/53/11
f 2/2/1 32/57/1 33/58/1 3/3/1
f 34/56/5 31/55/5 6/6/5 1/1/5
f 29/53/8 32/57/8 2/2/8 5/5/8
f 30/54/12 8/8/13 12/12/13 35/59/14
f 3/3/15 33/58/16 36/60/17 9/9/15
f 6/6/2 31/55/2 37/61/2 7/7/2
f 32/57/1 34/56/1 38/62/1 33/58/1
f 31/55/2 29/53/2 30/54/2 37/61/2
f 34/56/1 1/1/1 4/4/1 38/62/1
f 11/63/2 39/64/2 35/65/2 12/66/2
f 10/67/1 9/68/1 36/69/1 40/70/1
f 7/7/18 37/61/19 39/71/20 11/11/18
f 33/58/16 38/62/21 40/72/22 36/60/17
f 37/61/19 30/54/12 35/59/14 39/71/20
f 38/62/21 4/4/23 10/10/23 40/72/22
f 53/73/2 45/17/2 48/20/2 54/74/2
f 55/75/11 58/76/11 56/77/11 53/73/11
f 42/14/1 56/77/1 57/78/1 43/15/1
f 58/76/5 55/75/5 46/18/5 41/13/5
f 53/73/8 56/77/8 42/14/8 45/17/8
f 54/74/12 48/20/13 52/24/13 59/79/24
f 43/15/15 57/78/16 60/80/17 49/21/15
f 46/18/2 55/75/2 61/81/2 47/19/2
f 56/77/1 58/76/1 62/82/1 57/78/1
f 55/75/2 53/73/2 54/74/2 61/81/2
f 58/76/1 41/13/1 44/16/1 62/82/1
f 51/83/2 63/84/2 59/85/2 52/86/2
f 50/87/1 49/88/1 60/89/1 64/90/1
f 47/19/18 61/81/19 63/91/20 51/23/18
f 57/78/16 62/82/21 64/92/22 60/80/17
f 61/81/19 54/74/12 59/79/24 63/91/20
f 62/82/21 44/16/23 50/22/23 64/92/22
f 77/93/2 69/29/2 72/32/2 78/94/2
f 79/95/11 82/96/11 80/97/11 77/93/11
f 66/26/1 80/97/1 81/98/1 67/27/1
f 82/96/25 79/95/25 70/30/25 65/25/25
f 77/93/8 80/97/8 66/26/8 69/29/8
f 78/94/12 72/32/13 76/36/13 83/99/24
f 67/27/15 81/98/16 84/100/17 73/33/15
f 70/30/2 79/95/2 85/101/2 71/31/2
f 80/97/1 82/96/1 86/102/1 81/98/1
f 79/95/2 77/93/2 78/94/2 85/101/2
f 82/96/1 65/25/1 68/28/1 86/102/1
f 75/103/2 87/104/2 83/105/2 76/106/2
f 74/107/1 73/108/1 84/109/1 88/110/1
f 71/31/26 85/101/27 87/111/28 75/35/26
f 81/98/16 86/102/29 88/112/30 84/100/17
f 85/101/27 78/94/12 83/99/24 87/111/28
f 86/102/29 68/28/31 74/34/31 88/112/30
