# Blender v2.91.0 Beta OBJ File: 'decos.blend'
# www.blender.org
o Text.003_Text.022
v 2.848524 4.267842 0.323021
v -2.848516 4.267845 0.323024
v -2.848516 4.267845 -0.355446
v 2.848524 4.267842 -0.355444
v -0.184186 -0.000000 0.000001
v -0.184186 14.338090 0.000003
v -0.130240 14.338090 -0.130236
v -0.130240 0.000000 -0.130238
v 0.000000 0.000000 -0.184185
v 0.000000 14.338090 -0.184182
v 0.130240 14.338090 -0.130236
v 0.130240 0.000000 -0.130238
v 0.184186 -0.000000 0.000001
v 0.184186 14.338090 0.000003
v 0.130240 14.338090 0.130242
v 0.130240 -0.000000 0.130240
v 0.000000 -0.000000 0.184187
v 0.000000 14.338090 0.184189
v -0.130240 14.338090 0.130242
v -0.130240 -0.000000 0.130240
v 2.848517 7.428129 -0.355443
v 2.848517 7.428129 0.323023
v -2.848522 7.428132 -0.355446
v -2.848522 7.428132 0.323025
v 2.848524 8.420845 0.323021
v -2.848516 8.420848 0.323024
v -2.848516 8.420848 -0.355446
v 2.848524 8.420845 -0.355444
v 2.848517 11.581132 -0.355443
v 2.848517 11.581132 0.323023
v -2.848522 11.581135 -0.355446
v -2.848522 11.581135 0.323025
v 2.848524 12.541199 0.323021
v -2.848516 12.541202 0.323024
v -2.848516 12.541202 -0.355446
v 2.848524 12.541199 -0.355444
v 2.848517 15.701486 -0.355443
v 2.848517 15.701486 0.323023
v -4.564667 15.701488 -0.355446
v -4.564667 15.701488 0.323025
vt 0.835938 0.398438
vt 0.835938 0.398438
vt 0.835938 0.398438
vt 0.835938 0.398438
vt 0.835938 0.398438
vt 0.835938 0.398438
vt 0.835938 0.398438
vt 0.835938 0.398438
vt 0.835938 0.398438
vt 0.835938 0.398438
vt 0.835938 0.398438
vt 0.835938 0.398438
vt 0.835938 0.398438
vt 0.835938 0.398438
vt 0.835938 0.398438
vt 0.835938 0.398438
vt 0.757812 0.414062
vt 0.757812 0.414062
vt 0.757812 0.414062
vt 0.757812 0.414062
vt 0.757812 0.414062
vt 0.757812 0.414062
vt 0.757812 0.414062
vt 0.757812 0.414062
vt 0.835938 0.398438
vt 0.835938 0.398438
vt 0.835938 0.398438
vt 0.835938 0.398438
vt 0.835938 0.398438
vt 0.835938 0.398438
vt 0.835938 0.398438
vt 0.835938 0.398438
vt 0.757812 0.414062
vt 0.757812 0.414062
vt 0.757812 0.414062
vt 0.757812 0.414062
vt 0.757812 0.414062
vt 0.757812 0.414062
vt 0.757812 0.414062
vt 0.757812 0.414062
vn -1.0000 0.0000 -0.0000
vn -0.7071 0.0000 -0.7071
vn 0.0000 0.0000 -1.0000
vn 0.7071 0.0000 -0.7071
vn 1.0000 -0.0000 -0.0000
vn 0.7071 -0.0000 0.7071
vn 0.0000 -0.0000 1.0000
vn -0.7071 -0.0000 0.7071
s 1
f 5/1/1 6/2/1 7/3/2 8/4/2
f 9/5/3 10/6/3 11/7/4 12/8/4
f 13/9/5 14/10/5 15/11/6 16/12/6
f 17/13/7 18/14/7 19/15/8 20/16/8
f 16/12/6 15/11/6 18/14/7 17/13/7
f 8/4/2 7/3/2 10/6/3 9/5/3
f 12/8/4 11/7/4 14/10/5 13/9/5
f 20/16/8 19/15/8 6/2/1 5/1/1
f 3/17/3 23/18/3 21/19/3 4/20/3
f 2/21/7 1/22/7 22/23/7 24/24/7
f 27/25/3 31/26/3 29/27/3 28/28/3
f 26/29/7 25/30/7 30/31/7 32/32/7
f 35/33/3 39/34/3 37/35/3 36/36/3
f 34/37/7 33/38/7 38/39/7 40/40/7
