# Blender v2.91.0 Beta OBJ File: 'decos.blend'
# www.blender.org
o Detail_Cube.018
v 1.414629 -7.941845 5.197683
v 1.414623 -7.941833 -5.197686
v 1.414623 6.770215 -5.197679
v 1.414629 6.770204 5.197690
v -1.414629 6.770215 -5.197679
v -1.414621 6.770204 5.197690
v -1.414629 -7.941833 -5.197686
v -1.414621 -7.941845 5.197683
vt 0.257812 0.835938
vt 0.257812 0.835938
vt 0.257812 0.835938
vt 0.117188 0.820312
vt 0.117188 0.820312
vt 0.117188 0.820312
vt 0.257812 0.835938
vt 0.257812 0.835938
vt 0.257812 0.835938
vt 0.257812 0.835938
vt 0.257812 0.835938
vt 0.117188 0.820312
vn 1.0000 -0.0000 -0.0000
vn 0.0000 1.0000 0.0000
vn 0.0000 0.0000 -1.0000
vn -1.0000 0.0000 0.0000
vn 0.0000 -0.0000 1.0000
s 1
f 2/1/1 4/2/1 1/3/1
f 3/4/2 6/5/2 4/6/2
f 7/7/3 3/8/3 2/1/3
f 7/7/4 6/9/4 5/10/4
f 1/3/5 6/9/5 8/11/5
f 2/1/1 3/8/1 4/2/1
f 3/4/2 5/12/2 6/5/2
f 7/7/3 5/10/3 3/8/3
f 7/7/4 8/11/4 6/9/4
f 1/3/5 4/2/5 6/9/5
