# Blender v2.91.0 Beta OBJ File: 'decos.blend'
# www.blender.org
o Cube.004_Cube.001
v 0.000000 -1.000000 0.877169
v 0.000000 4.171035 0.000001
v -0.877169 -1.000000 -0.000000
v 0.877169 -1.000000 -0.000000
v 0.000000 -1.000000 -0.877169
vt 0.257812 0.835938
vt 0.257812 0.835938
vt 0.257812 0.835938
vt 0.257812 0.835938
vt 0.257812 0.835938
vn 0.0000 0.1672 0.9859
vn 0.0000 1.0000 -0.0000
vn -0.9859 0.1672 -0.0000
vn 0.9859 0.1672 -0.0000
vn 0.0000 0.1672 -0.9859
s 1
f 1/1/1 2/2/2 3/3/3
f 1/1/1 4/4/4 2/2/2
f 4/4/4 5/5/5 2/2/2
f 5/5/5 3/3/3 2/2/2
