# Blender v2.91.0 Beta OBJ File: 'decos.blend'
# www.blender.org
o Detail_Cube.024
v 2.270030 1.470683 5.831629
v 2.270019 1.470696 -5.831625
v 1.989507 2.468340 -5.831625
v 1.989517 2.468327 5.831634
v 0.000006 2.814546 5.831634
v -0.000004 2.814559 -5.831625
v -1.989515 2.468340 -5.831625
v -1.989505 2.468327 5.831634
v -2.270028 1.470696 -5.831625
v -2.270017 1.470683 5.831629
v -1.989505 0.473039 5.831627
v -1.989515 0.473051 -5.831627
v -2.478508 0.473052 -5.831604
v -2.478496 0.473039 5.831606
v 1.989507 0.473051 -5.831627
v 1.989517 0.473039 5.831627
v 2.478510 0.473039 5.831606
v 2.478498 0.473052 -5.831604
v 2.478510 -6.251256 5.831604
v 2.478498 -6.251243 -5.831605
v -2.478508 -6.251243 -5.831605
v -2.478496 -6.251256 5.831604
vt 0.257812 0.835938
vt 0.257812 0.835938
vt 0.257812 0.835938
vt 0.257812 0.835938
vt 0.257812 0.835938
vt 0.257812 0.835938
vt 0.257812 0.835938
vt 0.257812 0.835938
vt 0.257812 0.835938
vt 0.257812 0.835938
vt 0.257812 0.789062
vt 0.257812 0.789062
vt 0.257812 0.789062
vt 0.257812 0.789062
vt 0.257812 0.789062
vt 0.257812 0.789062
vt 0.257812 0.789062
vt 0.257812 0.789062
vt 0.257812 0.835938
vt 0.257812 0.835938
vt 0.257812 0.835938
vt 0.257812 0.835938
vt 0.257812 0.789062
vt 0.257812 0.789062
vt 0.257812 0.789062
vt 0.257812 0.789062
vn 1.0000 0.0000 -0.0000
vn 0.9627 0.2707 -0.0000
vn 0.0000 1.0000 0.0000
vn -0.1714 0.9852 0.0000
vn -1.0000 0.0000 0.0000
vn -0.9627 0.2707 0.0000
vn 0.1714 0.9852 0.0000
vn -0.9627 -0.2707 0.0000
vn 0.9627 -0.2707 -0.0000
s 1
f 1/1/1 2/2/1 3/3/2 4/4/2
f 5/5/3 6/6/3 7/7/4 8/8/4
f 9/9/5 10/10/5 8/8/6 7/7/6
f 11/11/3 12/12/3 13/13/3 14/14/3
f 15/15/3 16/16/3 17/17/3 18/18/3
f 4/4/7 3/3/7 6/6/3 5/5/3
f 12/19/8 11/20/8 10/10/5 9/9/5
f 16/21/9 15/22/9 2/2/1 1/1/1
f 18/18/1 17/17/1 19/23/1 20/24/1
f 14/14/5 13/13/5 21/25/5 22/26/5
