# Blender v2.91.0 Beta OBJ File: 'decos.blend'
# www.blender.org
o Detail_Cube.005_Detail_Cube.009
v -9.201336 2.024425 5.385439
v 4.684731 2.024425 5.385439
v 4.684731 2.024429 1.049862
v -9.201336 2.024429 1.049862
v -9.201336 0.837145 5.385439
v -9.201336 0.837158 1.049860
v 4.684731 0.837145 5.385439
v 4.684731 0.837158 1.049860
v 4.893605 0.924129 5.529145
v 4.893605 0.924151 0.956948
v -9.410210 0.924151 0.956948
v -9.410210 0.924129 5.529145
vt 0.257812 0.835938
vt 0.257812 0.835938
vt 0.257812 0.835938
vt 0.257812 0.835938
vt 0.257812 0.835938
vt 0.257812 0.835938
vt 0.257812 0.835938
vt 0.257812 0.835938
vt 0.257812 0.789062
vt 0.257812 0.789062
vt 0.257812 0.789062
vt 0.257812 0.789062
vn 0.0000 1.0000 0.0000
vn -1.0000 0.0000 0.0000
vn 1.0000 0.0000 0.0000
vn 0.0000 -0.0000 1.0000
vn 0.0000 0.0000 -1.0000
s 1
f 1/1/1 2/2/1 3/3/1 4/4/1
f 5/5/2 1/1/2 4/4/2 6/6/2
f 7/7/3 8/8/3 3/3/3 2/2/3
f 5/5/4 7/7/4 2/2/4 1/1/4
f 8/8/5 6/6/5 4/4/5 3/3/5
f 9/9/1 10/10/1 11/11/1 12/12/1
