# Blender v2.91.0 Beta OBJ File: 'decos.blend'
# www.blender.org
o Cube.003_Cube.017
v 0.276615 0.466378 -0.219937
v 0.150609 0.617318 -0.219937
v 0.276615 0.466378 -0.330686
v 0.142092 2.000158 -0.321230
v 0.208360 2.013238 -0.219937
v 0.402621 0.315439 -0.219937
v -0.126634 3.304611 -0.312527
v -1.045834 5.542339 -0.300487
v -0.986901 5.558322 -0.219936
v -0.062965 3.318214 -0.219936
v -1.902324 6.928406 -0.219655
v -0.126634 3.304611 -0.127345
v -1.045834 5.542339 -0.139385
v 0.276615 0.466378 -0.109188
v 0.142092 2.000158 -0.118643
v 0.075825 1.987078 -0.219937
v -0.190303 3.291007 -0.219936
v -1.104768 5.526357 -0.219936
v -0.038422 2.998777 -0.127345
v 1.020901 4.784852 -0.139385
v 0.964576 4.808434 -0.219936
v -0.059079 3.060519 -0.219937
v 2.051942 6.046483 -0.220217
v -0.038422 2.998777 -0.312528
v 1.020901 4.784852 -0.300487
v 1.077227 4.761271 -0.219936
v -0.017764 2.937035 -0.219937
v -0.851040 4.485758 0.580543
v -1.316750 3.708986 1.848330
v -0.687437 4.107485 0.570953
v -0.623691 4.302396 -0.219936
v -0.162682 2.317647 -0.938204
v -0.116502 1.939261 -0.939937
v -0.809778 1.722314 -2.120836
v -0.501043 3.533243 -1.005953
v -0.340263 3.153830 -1.005105
v -0.971982 2.757371 -2.288377
v -0.162682 2.317647 0.498330
v -0.809778 1.722314 1.680962
v -0.116502 1.939261 0.500064
v -1.059114 4.978389 -0.840042
v -0.921999 4.676472 -0.830118
v -1.537225 4.285691 -1.809949
v -0.824838 4.839039 -0.219936
v -0.501043 3.533243 0.566081
v -0.971982 2.757372 1.848503
v -0.340263 3.153830 0.565234
v -1.673389 5.965765 -0.780255
v -1.570201 5.798810 -0.782085
v -1.555421 5.774673 -1.295369
v -1.353729 6.053354 -0.219936
v -1.673389 5.965765 0.340383
v -1.555420 5.774673 0.855497
v -1.570200 5.798810 0.342213
v -1.059114 4.978389 0.400170
v -0.921999 4.676473 0.390246
v -1.537225 4.285691 1.370077
v -1.999261 6.358176 -0.643343
v -1.901040 6.247050 -0.644723
v -1.886943 6.230968 -1.032571
v -1.714179 6.515801 -0.219936
v -1.999261 6.358176 0.203471
v -1.901040 6.247049 0.204851
v -1.886942 6.230967 0.592699
v -1.359133 5.622578 0.395180
v -1.204990 5.328969 0.383389
v -1.803285 4.906471 1.367483
v -0.851040 4.485758 -1.020415
v -0.687437 4.107485 -1.010825
v -1.316750 3.708987 -2.288201
v -1.359133 5.622578 -0.835052
v -1.204990 5.328969 -0.823261
v -1.803285 4.906471 -1.807355
v -2.074541 7.224970 -0.318488
v -2.162945 7.379617 -0.220405
v -2.074541 7.224970 -0.122318
v 0.689084 3.762987 -1.020414
v 1.048800 2.931804 -2.288199
v 0.477237 3.409467 -1.010824
v 0.439631 3.611059 -0.219936
v 0.960031 4.224039 0.400171
v 0.784467 3.942736 0.390248
v 1.343059 3.474578 1.370079
v 0.709488 4.116652 -0.219936
v 1.698612 5.122227 0.340383
v 1.574398 4.970264 0.342213
v 1.556578 4.948277 0.855497
v 1.393218 5.251024 -0.219936
v 1.698612 5.122228 -0.780255
v 1.556578 4.948277 -1.295369
v 1.574399 4.970264 -0.782085
v 0.960031 4.224039 -0.840043
v 0.784467 3.942736 -0.830120
v 1.343058 3.474578 -1.809951
v 2.073179 5.468461 0.203471
v 1.961219 5.371192 0.204851
v 1.945132 5.357099 0.592699
v 1.811258 5.662148 -0.219936
v 2.073179 5.468461 -0.643343
v 1.961219 5.371192 -0.644723
v 1.945132 5.357099 -1.032571
v 1.342022 4.823266 -0.835053
v 1.150668 4.552433 -0.823262
v 1.688318 4.055061 -1.807356
v 0.689084 3.762987 0.580542
v 0.477237 3.409467 0.570952
v 1.048801 2.931804 1.848328
v 1.342022 4.823266 0.395181
v 1.150669 4.552434 0.383390
v 1.688319 4.055061 1.367484
v 2.261601 6.317872 -0.121384
v 2.369542 6.459575 -0.219467
v 2.261601 6.317872 -0.317554
vt 0.179688 0.804688
vt 0.179688 0.804688
vt 0.179688 0.804688
vt 0.179688 0.804688
vt 0.179688 0.804688
vt 0.179688 0.804688
vt 0.179688 0.804688
vt 0.179688 0.804688
vt 0.179688 0.804688
vt 0.179688 0.804688
vt 0.179688 0.804688
vt 0.179688 0.804688
vt 0.179688 0.804688
vt 0.179688 0.804688
vt 0.179688 0.804688
vt 0.179688 0.804688
vt 0.179688 0.804688
vt 0.179688 0.804688
vt 0.179688 0.804688
vt 0.179688 0.804688
vt 0.179688 0.804688
vt 0.179688 0.804688
vt 0.179688 0.804688
vt 0.179688 0.804688
vt 0.179688 0.804688
vt 0.179688 0.804688
vt 0.179688 0.804688
vt 0.257812 0.835938
vt 0.257812 0.835938
vt 0.257812 0.835938
vt 0.257812 0.835938
vt 0.257812 0.835938
vt 0.257812 0.835938
vt 0.257812 0.835938
vt 0.257812 0.835938
vt 0.257812 0.835938
vt 0.257812 0.835938
vt 0.257812 0.835938
vt 0.257812 0.835938
vt 0.257812 0.835938
vt 0.257812 0.835938
vt 0.257812 0.835938
vt 0.257812 0.835938
vt 0.257812 0.835938
vt 0.257812 0.835938
vt 0.257812 0.835938
vt 0.257812 0.835938
vt 0.257812 0.835938
vt 0.257812 0.835938
vt 0.257812 0.835938
vt 0.257812 0.835938
vt 0.257812 0.835938
vt 0.257812 0.835938
vt 0.257812 0.835938
vt 0.257812 0.835938
vt 0.257812 0.835938
vt 0.257812 0.835938
vt 0.257812 0.835938
vt 0.257812 0.835938
vt 0.257812 0.835938
vt 0.257812 0.835938
vt 0.257812 0.835938
vt 0.257812 0.835938
vt 0.257812 0.835938
vt 0.257812 0.835938
vt 0.257812 0.835938
vt 0.257812 0.835938
vt 0.257812 0.835938
vt 0.257812 0.835938
vt 0.257812 0.835938
vt 0.257812 0.835938
vt 0.257812 0.835938
vt 0.257812 0.835938
vt 0.257812 0.835938
vt 0.257812 0.835938
vt 0.257812 0.835938
vt 0.257812 0.835938
vt 0.257812 0.835938
vt 0.257812 0.835938
vt 0.257812 0.835938
vt 0.257812 0.835938
vt 0.257812 0.835938
vt 0.257812 0.835938
vt 0.257812 0.835938
vt 0.257812 0.835938
vt 0.257812 0.835938
vt 0.257812 0.835938
vt 0.257812 0.835938
vt 0.257812 0.835938
vt 0.257812 0.835938
vt 0.257812 0.835938
vt 0.257812 0.835938
vt 0.257812 0.835938
vt 0.257812 0.835938
vt 0.257812 0.835938
vt 0.257812 0.835938
vt 0.257812 0.835938
vt 0.257812 0.835938
vt 0.257812 0.835938
vt 0.257812 0.835938
vt 0.257812 0.835938
vt 0.257812 0.835938
vt 0.257812 0.835938
vt 0.257812 0.835938
vt 0.257812 0.835938
vt 0.257812 0.835938
vt 0.257812 0.835938
vt 0.257812 0.835938
vt 0.257812 0.835938
vt 0.257812 0.835938
vt 0.257812 0.835938
vt 0.257812 0.835938
vt 0.257812 0.835938
vt 0.257812 0.835938
vt 0.257812 0.835938
vt 0.257812 0.835938
vt 0.257812 0.835938
vt 0.257812 0.835938
vt 0.257812 0.835938
vn -0.7677 -0.6409 0.0000
vn 0.7636 0.0796 -0.6407
vn 0.7500 0.3103 -0.5841
vn 0.6752 0.4512 -0.5835
vn 0.7500 0.3103 0.5841
vn 0.7636 0.0796 0.6407
vn 0.6753 0.4511 0.5836
vn 0.8078 0.1691 -0.5647
vn 0.8078 0.1691 0.5647
vn -0.8089 -0.1640 0.5647
vn -0.7007 -0.3987 0.5917
vn -0.7514 -0.3064 0.5844
vn -0.7565 -0.0524 0.6519
vn -0.8089 -0.1640 -0.5647
vn -0.7007 -0.3985 -0.5917
vn -0.7514 -0.3064 -0.5844
vn -0.7565 -0.0524 -0.6519
vn -0.7269 0.4303 0.5352
vn -0.6101 0.5360 0.5835
vn -0.7269 0.4303 -0.5352
vn -0.6102 0.5358 -0.5836
vn 0.6422 -0.4872 -0.5917
vn 0.7260 -0.4315 -0.5354
vn 0.6424 -0.4870 0.5918
vn 0.7261 -0.4315 0.5354
vn 0.8666 0.3662 0.3391
vn 0.8003 0.3335 0.4983
vn 0.8626 0.3642 0.3511
vn 0.9062 0.3877 0.1686
vn 0.9099 0.1129 -0.3991
vn 0.9096 0.1128 -0.3999
vn 0.8489 0.1060 -0.5178
vn 0.9574 0.1181 -0.2636
vn 0.8541 0.3611 -0.3744
vn 0.8528 0.3606 -0.3777
vn 0.7990 0.3375 -0.4976
vn 0.8947 0.3786 -0.2370
vn 0.9099 0.1129 0.3991
vn 0.8489 0.1060 0.5178
vn 0.9096 0.1128 0.3999
vn 0.8272 0.3616 -0.4301
vn 0.8238 0.3597 -0.4382
vn 0.7411 0.3171 -0.5918
vn 0.8855 0.3941 -0.2460
vn 0.8541 0.3611 0.3744
vn 0.7990 0.3375 0.4976
vn 0.8528 0.3606 0.3777
vn 0.8947 0.3786 0.2370
vn 0.8145 0.5065 -0.2829
vn 0.8255 0.5128 -0.2357
vn 0.8506 0.5257 -0.0002
vn 0.7377 0.4613 -0.4930
vn 0.8145 0.5065 0.2829
vn 0.8506 0.5258 0.0002
vn 0.8255 0.5128 0.2357
vn 0.8855 0.3941 0.2460
vn 0.8272 0.3616 0.4301
vn 0.8238 0.3597 0.4382
vn 0.7411 0.3171 0.5918
vn 0.7377 0.4613 0.4930
vn 0.6992 0.6223 -0.3520
vn 0.7144 0.6351 -0.2937
vn 0.7493 0.6623 -0.0002
vn 0.5958 0.5340 -0.5999
vn 0.5958 0.5340 0.5999
vn 0.6992 0.6223 0.3520
vn 0.7144 0.6351 0.2937
vn 0.7493 0.6623 0.0002
vn 0.8534 0.4366 0.2846
vn 0.7993 0.4017 0.4470
vn 0.7953 0.3992 0.4562
vn 0.7229 0.3558 0.5923
vn 0.8666 0.3662 -0.3391
vn 0.8626 0.3642 -0.3511
vn 0.8003 0.3335 -0.4983
vn 0.9062 0.3877 -0.1686
vn 0.7993 0.4017 -0.4470
vn 0.7953 0.3992 -0.4562
vn 0.7230 0.3558 -0.5923
vn 0.8534 0.4366 -0.2846
vn 0.9574 0.1181 0.2636
vn 0.8663 0.4995 0.0000
vn 0.8682 0.4963 0.0000
vn 0.8648 0.5022 0.0000
vn -0.8110 0.4768 -0.3391
vn -0.7496 0.4357 -0.4983
vn -0.8074 0.4743 -0.3511
vn -0.8475 0.5033 -0.1686
vn -0.7726 0.4670 0.4301
vn -0.7694 0.4647 0.4382
vn -0.6930 0.4117 0.5918
vn -0.8261 0.5069 0.2460
vn -0.7410 0.6091 0.2829
vn -0.7511 0.6167 0.2357
vn -0.7743 0.6329 0.0002
vn -0.6707 0.5542 0.4930
vn -0.7410 0.6091 -0.2829
vn -0.7743 0.6329 -0.0002
vn -0.7511 0.6167 -0.2357
vn -0.8261 0.5069 -0.2460
vn -0.7726 0.4670 -0.4301
vn -0.7694 0.4647 -0.4382
vn -0.6930 0.4117 -0.5918
vn -0.6707 0.5542 -0.4930
vn -0.6114 0.7087 0.3520
vn -0.6248 0.7234 0.2937
vn -0.6558 0.7549 0.0002
vn -0.5205 0.6076 0.5999
vn -0.5205 0.6076 -0.5999
vn -0.6114 0.7087 -0.3520
vn -0.6248 0.7234 -0.2937
vn -0.6558 0.7549 -0.0002
vn -0.7887 0.5449 -0.2846
vn -0.7396 0.5031 -0.4470
vn -0.7360 0.5002 -0.4562
vn -0.6700 0.4476 -0.5923
vn -0.8110 0.4768 0.3391
vn -0.8074 0.4743 0.3511
vn -0.7496 0.4357 0.4983
vn -0.8475 0.5033 0.1686
vn -0.7396 0.5031 0.4470
vn -0.7360 0.5002 0.4562
vn -0.6700 0.4476 0.5923
vn -0.7887 0.5449 0.2846
vn -0.7932 0.6089 0.0000
vn -0.7955 0.6060 0.0000
vn -0.7914 0.6114 0.0000
s off
f 1/1/1 2/2/1 3/3/1
f 3/3/2 4/4/2 5/5/2 6/6/2
f 7/7/3 8/8/3 9/9/3 10/10/3
f 8/8/4 11/11/4 9/9/4
f 12/12/5 10/10/5 9/9/5 13/13/5
f 14/14/6 6/6/6 5/5/6 15/15/6
f 1/1/1 14/14/1 2/2/1
f 13/13/7 9/9/7 11/11/7
f 4/4/8 7/7/8 10/10/8 5/5/8
f 15/15/9 5/5/9 10/10/9 12/12/9
f 16/16/10 15/15/10 12/12/10 17/17/10
f 18/18/11 13/13/11 11/11/11
f 6/6/1 14/14/1 1/1/1
f 17/17/12 12/12/12 13/13/12 18/18/12
f 2/2/13 14/14/13 15/15/13 16/16/13
f 16/16/14 17/17/14 7/7/14 4/4/14
f 18/18/15 11/11/15 8/8/15
f 17/17/16 18/18/16 8/8/16 7/7/16
f 2/2/17 16/16/17 4/4/17 3/3/17
f 6/6/1 1/1/1 3/3/1
f 19/19/18 20/20/18 21/21/18 22/22/18
f 20/20/19 23/23/19 21/21/19
f 24/24/20 22/22/20 21/21/20 25/25/20
f 25/25/21 21/21/21 23/23/21
f 26/26/22 25/25/22 23/23/22
f 27/27/23 24/24/23 25/25/23 26/26/23
f 26/26/24 23/23/24 20/20/24
f 27/27/25 26/26/25 20/20/25 19/19/25
s 1
f 28/28/26 29/29/27 30/30/28
f 31/31/29 28/28/26 30/30/28
f 32/32/30 33/33/31 34/34/32
f 16/35/33 33/33/31 32/32/30
f 35/36/34 36/37/35 37/38/36
f 17/39/37 36/37/35 35/36/34
f 38/40/38 39/41/39 40/42/40
f 41/43/41 42/44/42 43/45/43
f 44/46/44 42/44/42 41/43/41
f 45/47/45 46/48/46 47/49/47
f 17/39/48 45/47/45 47/49/47
f 48/50/49 49/51/50 50/52/51
f 51/53/52 49/51/50 48/50/49
f 52/54/53 53/55/54 54/56/55
f 44/46/56 55/57/57 56/58/58
f 55/57/57 57/59/59 56/58/58
f 51/53/60 52/54/53 54/56/55
f 58/60/61 59/61/62 60/62/63
f 61/63/64 59/61/62 58/60/61
f 61/63/65 62/64/66 63/65/67
f 62/64/66 64/66/68 63/65/67
f 18/67/69 65/68/70 66/69/71
f 65/68/70 67/70/72 66/69/71
f 68/71/73 69/72/74 70/73/75
f 31/31/76 69/72/74 68/71/73
f 71/74/77 72/75/78 73/76/79
f 18/67/80 72/75/78 71/74/77
f 16/35/81 38/40/38 40/42/40
f 74/77/82 75/78/83 76/79/82
f 11/80/84 74/77/82 76/79/82
f 77/81/85 78/82/86 79/83/87
f 80/84/88 77/81/85 79/83/87
f 81/85/89 82/86/90 83/87/91
f 84/88/92 82/86/90 81/85/89
f 85/89/93 86/90/94 87/91/95
f 88/92/96 86/90/94 85/89/93
f 89/93/97 90/94/98 91/95/99
f 84/88/100 92/96/101 93/97/102
f 92/96/101 94/98/103 93/97/102
f 88/92/104 89/93/97 91/95/99
f 95/99/105 96/100/106 97/101/107
f 98/102/108 96/100/106 95/99/105
f 98/102/109 99/103/110 100/104/111
f 99/103/110 101/105/112 100/104/111
f 26/106/113 102/107/114 103/108/115
f 102/107/114 104/109/116 103/108/115
f 105/110/117 106/111/118 107/112/119
f 80/84/120 106/111/118 105/110/117
f 108/113/121 109/114/122 110/115/123
f 26/106/124 109/114/122 108/113/121
f 111/116/125 112/117/126 113/118/125
f 23/119/127 111/116/125 113/118/125
