# Blender v2.83.4 OBJ File: 'decos.blend'
# www.blender.org
o Detail_Cube.002_Detail_Cube.002
v 2.369925 0.924141 0.007050
v 1.880932 0.924141 0.007073
v 1.036304 0.924138 5.205646
v 1.520849 0.924138 5.272724
v -2.098090 0.924141 0.007073
v -2.587081 0.924141 0.007050
v -3.391031 0.924138 4.592537
v -2.906494 0.924138 4.659657
v -5.133495 0.924138 7.859848
v -5.468720 0.924138 7.496990
v -8.832385 0.924135 9.980690
v -8.668997 0.924135 10.450455
v -2.405574 0.924136 10.812363
v -2.070317 0.924135 11.175188
v -7.175872 0.924135 14.742691
v -7.339301 0.924136 14.272942
v -12.885341 0.924134 15.508652
v -12.882506 0.924132 16.007050
v -12.911019 0.924135 10.954670
v -12.908231 0.924135 11.453072
v -0.108579 2.028028 0.007076
v 1.880932 1.864805 0.007076
v 2.161445 1.394473 0.007075
v -2.098090 1.864805 0.007076
v -2.378602 1.394473 0.007075
v 1.520847 -5.515369 5.272724
v -2.070318 -5.515372 11.175188
v 1.314264 1.394471 5.244141
v -2.213264 1.394469 11.020510
v -2.906495 1.864803 4.659662
v -3.184454 1.394471 4.621166
v -5.325809 1.394471 7.651701
v -5.133498 1.864803 7.859849
v 2.369923 -5.515366 0.007049
v 1.036304 1.864803 5.205649
v -0.935096 2.028025 4.932656
v -2.587083 -5.515366 0.007049
v -3.391034 -5.515369 4.592535
v -2.405575 1.864801 10.812365
v -3.769537 2.028025 9.336107
v -8.004152 2.028023 12.361698
v -7.339305 1.864801 14.272942
v -8.762737 1.394469 10.180977
v -5.468722 -5.515370 7.496987
v -8.669001 1.864800 10.450455
v -12.908233 1.864801 11.453072
v -12.896789 2.028023 13.480858
v -7.245564 1.394468 14.542419
v -12.885343 1.864799 15.508648
v -12.883729 1.394466 15.794559
v -8.832385 -5.515372 9.980688
v -7.175872 -5.515373 14.742687
v -12.911019 -5.515372 10.954668
v -12.882506 -5.515375 16.007046
v -12.909844 1.394469 11.167164
vt 0.242188 0.789062
vt 0.242188 0.789062
vt 0.242188 0.789062
vt 0.242188 0.789062
vt 0.242188 0.789062
vt 0.242188 0.789062
vt 0.242188 0.789062
vt 0.242188 0.789062
vt 0.242188 0.789062
vt 0.242188 0.789062
vt 0.242188 0.789062
vt 0.242188 0.789062
vt 0.242188 0.789062
vt 0.242188 0.789062
vt 0.242188 0.789062
vt 0.242188 0.789062
vt 0.242188 0.789062
vt 0.242188 0.789062
vt 0.242188 0.789062
vt 0.242188 0.789062
vt 0.257812 0.835938
vt 0.257812 0.835938
vt 0.257812 0.835938
vt 0.257812 0.835938
vt 0.257812 0.835938
vt 0.257812 0.835938
vt 0.257812 0.835938
vt 0.242188 0.789062
vt 0.242188 0.789062
vt 0.257812 0.835938
vt 0.257812 0.835938
vt 0.257812 0.835938
vt 0.257812 0.835938
vt 0.257812 0.835938
vt 0.257812 0.835938
vt 0.257812 0.835938
vt 0.257812 0.835938
vt 0.242188 0.789062
vt 0.257812 0.835938
vt 0.257812 0.835938
vt 0.257812 0.835938
vt 0.242188 0.789062
vt 0.242188 0.789062
vt 0.257812 0.835938
vt 0.257812 0.835938
vt 0.257812 0.835938
vt 0.257812 0.835938
vt 0.257812 0.835938
vt 0.257812 0.835938
vt 0.257812 0.835938
vt 0.242188 0.789062
vt 0.257812 0.835938
vt 0.257812 0.835938
vt 0.257812 0.835938
vt 0.257812 0.835938
vt 0.257812 0.835938
vt 0.257812 0.835938
vt 0.242188 0.789062
vt 0.257812 0.835938
vt 0.242188 0.789062
vt 0.257812 0.835938
vt 0.242188 0.789062
vt 0.242188 0.789062
vt 0.257812 0.835938
vt 0.257812 0.835938
vn -0.0000 1.0000 0.0000
vn 0.0000 0.0000 -1.0000
vn 0.9383 0.0000 0.3459
vn 0.9383 0.0001 0.3459
vn 0.7291 -0.0000 0.6844
vn 0.8040 -0.5068 0.3111
vn 0.9422 -0.0000 0.3351
vn 0.7259 0.0000 0.6878
vn 0.6312 -0.5074 0.5867
vn -0.8012 0.5090 -0.3147
vn -0.9169 0.0000 -0.3990
vn -0.7173 0.0000 -0.6968
vn -0.6165 0.5033 -0.6054
vn 0.8492 -0.5098 0.1377
vn 0.9871 -0.0000 0.1600
vn 0.9872 -0.0000 0.1592
vn 0.8492 0.5098 0.1377
vn 0.8040 0.5068 0.3111
vn 0.0086 1.0000 0.0012
vn -0.0812 0.9966 -0.0139
vn -0.0761 0.9965 -0.0334
vn 0.0096 0.9999 0.0057
vn -0.9852 -0.0000 -0.1716
vn -0.8478 -0.5094 -0.1477
vn -0.8012 -0.5090 -0.3147
vn 0.0812 0.9966 0.0134
vn 0.0779 0.9966 0.0271
vn -0.9850 0.0000 -0.1727
vn -0.9221 0.0000 -0.3869
vn -0.8478 0.5094 -0.1477
vn 0.0599 0.9966 0.0573
vn 0.0079 1.0000 0.0061
vn 0.0047 0.9999 0.0090
vn 0.0320 0.9968 0.0738
vn -0.6165 -0.5033 -0.6054
vn -0.3539 -0.5181 -0.7786
vn -0.4256 0.0000 -0.9049
vn 0.6312 0.5074 0.5867
vn -0.0607 0.9965 -0.0573
vn -0.7124 0.0000 -0.7018
vn -0.0343 0.9968 -0.0729
vn -0.0185 0.9967 -0.0794
vn 0.0023 0.9999 0.0111
vn 0.3985 0.0000 0.9172
vn 0.3490 0.5182 0.7809
vn 0.1863 0.5135 0.8376
vn 0.2171 0.0000 0.9761
vn -0.4216 0.0000 -0.9068
vn -0.3539 0.5181 -0.7786
vn 0.3490 -0.5182 0.7809
vn 0.4022 -0.0000 0.9155
vn -1.0000 -0.0000 0.0056
vn -0.1981 -0.5132 -0.8351
vn -0.2307 0.0000 -0.9730
vn 0.0179 0.9967 0.0795
vn -0.2323 0.0000 -0.9727
vn -0.1981 0.5132 -0.8351
vn 0.1863 -0.5134 0.8376
vn 0.2163 -0.0000 0.9763
vn 0.0000 -1.0000 -0.0000
s off
f 1/1/1 2/2/1 3/3/1 4/4/1
f 5/5/1 6/6/1 7/7/1 8/8/1
f 9/9/1 10/10/1 11/11/1 12/12/1
f 4/4/1 3/3/1 13/13/1 14/14/1
f 8/8/1 7/7/1 10/10/1 9/9/1
f 15/15/1 16/16/1 17/17/1 18/18/1
f 14/14/1 13/13/1 16/16/1 15/15/1
f 12/12/1 11/11/1 19/19/1 20/20/1
s 1
f 2/21/2 21/22/2 22/23/2 23/24/2
f 24/25/2 21/22/2 5/26/2 25/27/2
f 5/26/2 21/22/2 2/21/2
f 26/28/3 4/4/4 14/14/5 27/29/5
f 3/30/6 28/31/7 29/32/8 13/33/9
f 30/34/10 31/35/11 32/36/12 33/37/13
f 2/21/14 23/24/15 28/31/7 3/30/6
f 34/38/16 1/1/16 4/4/3 26/28/4
f 23/24/15 22/23/17 35/39/18 28/31/7
f 21/22/19 24/25/20 30/34/21 36/40/22
f 25/27/23 5/26/24 8/41/25 31/35/11
f 22/23/26 21/22/19 36/40/22 35/39/27
f 6/6/28 37/42/28 38/43/29 7/7/29
f 24/25/30 25/27/23 31/35/11 30/34/10
f 39/44/31 40/45/32 41/46/33 42/47/34
f 32/36/12 9/48/35 12/49/36 43/50/37
f 28/31/7 35/39/18 39/44/38 29/32/8
f 36/40/22 30/34/21 33/37/39 40/45/32
f 31/35/11 8/41/25 9/48/35 32/36/12
f 35/39/27 36/40/22 40/45/32 39/44/31
f 7/7/29 38/43/29 44/51/40 10/10/40
f 41/46/33 45/52/41 46/53/42 47/54/43
f 48/55/44 42/47/45 49/56/46 50/57/47
f 10/10/40 44/51/40 51/58/48 11/11/48
f 33/37/13 32/36/12 43/50/37 45/52/49
f 13/33/9 29/32/8 48/55/44 16/59/50
f 27/29/5 14/14/5 15/15/51 52/60/51
f 29/32/8 39/44/38 42/47/45 48/55/44
f 40/45/32 33/37/39 45/52/41 41/46/33
f 17/61/52 50/57/52 49/56/52 47/54/52
f 53/62/52 54/63/52 18/18/52 19/19/52
f 46/53/52 55/64/52 20/65/52 47/54/52
f 20/65/52 17/61/52 47/54/52
f 43/50/37 12/49/36 20/65/53 55/64/54
f 42/47/34 41/46/33 47/54/43 49/56/55
f 11/11/48 51/58/48 53/62/56 19/19/56
f 45/52/49 43/50/37 55/64/54 46/53/57
f 16/59/50 48/55/44 50/57/47 17/61/58
f 52/60/51 15/15/51 18/18/59 54/63/59
f 34/38/60 26/28/60 38/43/60 37/42/60
