# Blender v2.91.0 Beta OBJ File: 'decos.blend'
# www.blender.org
o Detail_Cube.002_Detail_Cube.001
v 2.478510 0.924142 -5.831620
v 1.989517 0.924142 -5.831598
v 1.144889 0.924140 -0.633024
v 1.629434 0.924140 -0.565946
v -1.989505 0.924142 -5.831598
v -2.478496 0.924142 -5.831620
v -3.282446 0.924140 -1.246133
v -2.797909 0.924140 -1.179013
v -5.024910 0.924140 2.021177
v -5.360135 0.924140 1.658320
v -8.723800 0.924138 4.142020
v -8.560411 0.924138 4.611784
v -2.296989 0.924139 4.973692
v -1.961732 0.924138 5.336518
v -7.067286 0.924138 8.904019
v -7.230716 0.924139 8.434272
v -12.776755 0.924137 9.669980
v -12.773921 0.924136 10.168380
v -12.802434 0.924138 5.116000
v -12.799644 0.924138 5.614401
v -1.989505 2.919430 -5.831594
v 1.989517 2.919430 -5.831594
v 1.144889 2.919429 -0.633022
v -2.296990 2.919427 4.973694
v -2.797910 2.919428 -1.179008
v -5.024913 2.919428 2.021179
v -8.560415 2.919426 4.611784
v -7.230719 2.919427 8.434272
v -12.799647 2.919426 5.614401
v -12.776757 2.919425 9.669978
vt 0.257812 0.789062
vt 0.257812 0.789062
vt 0.257812 0.789062
vt 0.257812 0.789062
vt 0.257812 0.789062
vt 0.257812 0.789062
vt 0.257812 0.789062
vt 0.257812 0.789062
vt 0.257812 0.789062
vt 0.257812 0.789062
vt 0.257812 0.789062
vt 0.257812 0.789062
vt 0.257812 0.789062
vt 0.257812 0.789062
vt 0.257812 0.789062
vt 0.257812 0.789062
vt 0.257812 0.789062
vt 0.257812 0.789062
vt 0.257812 0.789062
vt 0.257812 0.789062
vt 0.257812 0.835938
vt 0.257812 0.835938
vt 0.257812 0.835938
vt 0.257812 0.835938
vt 0.257813 0.835938
vt 0.257812 0.835938
vt 0.257812 0.835938
vt 0.257812 0.835938
vt 0.257812 0.835938
vt 0.257812 0.835938
vt 0.257812 0.835938
vt 0.257812 0.835938
vt 0.257812 0.835938
vt 0.257812 0.835938
vt 0.257812 0.835937
vt 0.257812 0.835938
vt 0.257812 0.835938
vt 0.257812 0.835938
vt 0.257812 0.835938
vt 0.257812 0.835938
vn -0.0000 1.0000 0.0000
vn 0.0000 0.0000 -1.0000
vn 0.9374 -0.0000 0.3484
vn 0.7284 -0.0000 0.6852
vn 0.9871 -0.0000 0.1604
vn 0.1879 0.9817 0.0307
vn -0.9852 0.0000 -0.1712
vn -0.9249 0.0000 -0.3802
vn -0.7157 -0.0000 -0.6984
vn -0.4190 -0.0000 -0.9080
vn 0.4036 0.0000 0.9149
vn -0.2302 -0.0000 -0.9732
vn 0.2175 0.0000 0.9761
s off
f 1/1/1 2/2/1 3/3/1 4/4/1
f 5/5/1 6/6/1 7/7/1 8/8/1
f 9/9/1 10/10/1 11/11/1 12/12/1
f 4/4/1 3/3/1 13/13/1 14/14/1
f 8/8/1 7/7/1 10/10/1 9/9/1
f 15/15/1 16/16/1 17/17/1 18/18/1
f 14/14/1 13/13/1 16/16/1 15/15/1
f 12/12/1 11/11/1 19/19/1 20/20/1
s 1
f 21/21/2 22/22/2 5/23/2
f 3/24/3 23/25/3 24/26/4 13/27/4
f 2/28/5 22/22/5 23/25/3 3/24/3
f 22/22/6 21/21/1 25/29/1 23/25/1
f 21/21/7 5/23/7 8/30/8 25/29/8
f 26/31/9 9/32/9 12/33/10 27/34/10
f 23/25/1 25/29/1 26/31/1 24/26/1
f 25/29/8 8/30/8 9/32/9 26/31/9
f 28/35/1 27/34/1 29/36/1 30/37/1
f 13/27/4 24/26/4 28/35/11 16/38/11
f 24/26/1 26/31/1 27/34/1 28/35/1
f 27/34/10 12/33/10 20/39/12 29/36/12
f 16/38/11 28/35/11 30/37/13 17/40/13
