# Blender v2.91.0 Beta OBJ File: 'decos.blend'
# www.blender.org
o Cube.015_Cube.024
v -0.259569 0.023518 -0.246643
v -0.054712 0.023518 -0.045227
v -0.054708 0.023518 -0.331543
v -0.742536 0.035940 -0.046036
v -0.276560 0.042896 -0.263580
v -0.742536 0.035940 -0.662537
v -0.342966 0.023518 -0.045227
v 0.150145 0.023518 0.156204
v -0.054708 0.023518 0.241104
v -0.259569 0.023518 0.156204
v -0.742536 0.035940 0.570465
v -0.770948 0.002919 -0.046036
v -0.770948 0.002918 0.595932
v -0.054716 0.035940 -0.662537
v 0.167139 0.042896 -0.263580
v 0.633105 0.035940 -0.662537
v -0.054716 0.002919 -0.046036
v -0.770948 0.002919 -0.688004
v -0.054716 0.002919 -0.688004
v 0.661517 0.002918 0.595932
v 0.661517 0.002919 -0.046036
v 0.633105 0.035940 -0.046036
v -0.054708 0.042896 -0.355515
v 0.233538 0.023518 -0.045227
v 0.661517 0.002919 -0.688004
v 0.150145 0.023518 -0.246643
v 0.167139 0.042896 0.172684
v 0.257448 0.042896 -0.045441
v -0.054716 0.035940 0.570465
v 0.633105 0.035940 0.570465
v -0.366876 0.042896 -0.045441
v -0.276560 0.042896 0.172684
v -0.054708 0.042896 0.264618
v -0.054716 0.002918 0.595932
v 0.089046 0.979883 -0.053024
v -0.073682 3.469669 -0.181580
v 0.058047 3.469668 -0.048233
v -0.061699 0.977579 0.095139
v -0.320979 -0.122073 -0.052002
v -0.061097 -0.117587 0.206772
v 0.198675 -0.121642 -0.052002
v -0.065178 0.935790 -0.206085
v -0.061092 -0.127344 -0.313187
v -0.212898 0.962450 -0.052734
v -0.068883 3.469668 0.064087
v -0.199256 3.469668 -0.047028
v -0.413590 6.664034 0.518768
v -1.935755 5.839007 0.081848
v -1.485176 5.603239 1.334183
v 1.320072 3.538553 -0.140945
v 1.396430 4.090271 1.360809
v -0.116491 3.605671 1.767639
v 1.359838 5.755490 1.175934
v -0.046357 5.985765 1.616531
v 1.067876 5.193628 1.738922
v -0.097068 4.947830 2.251450
v -1.523416 4.285439 1.470413
v -1.476240 3.542461 -0.092056
v -0.186118 6.497457 -1.310928
v -2.213833 4.613173 0.065216
v -1.700741 4.503590 -1.348434
v -0.074282 3.687522 -1.887268
v 1.445971 6.253410 0.166245
v 1.556464 4.509066 -1.353928
v -0.072631 4.808087 -2.387344
v -0.069397 3.196007 -0.121811
v 1.394183 5.804007 -1.188309
v 2.069199 4.626452 0.069107
v -1.538913 5.770141 -1.197708
vt 0.835938 0.382812
vt 0.835938 0.382812
vt 0.835938 0.382812
vt 0.835938 0.414062
vt 0.835938 0.414062
vt 0.835938 0.414062
vt 0.835938 0.382812
vt 0.835938 0.382812
vt 0.835938 0.382812
vt 0.835938 0.382812
vt 0.835938 0.414062
vt 0.835938 0.414062
vt 0.835938 0.414062
vt 0.835938 0.414062
vt 0.835938 0.414062
vt 0.835938 0.414062
vt 0.833333 0.606645
vt 0.791667 0.625000
vt 0.791667 0.606645
vt 0.875000 0.588290
vt 0.833333 0.588290
vt 0.835938 0.414062
vt 0.835938 0.382812
vt 0.835938 0.382812
vt 0.835938 0.382812
vt 0.791667 0.588290
vt 0.835938 0.382812
vt 0.835938 0.382812
vt 0.835938 0.382812
vt 0.835938 0.382812
vt 0.835938 0.414062
vt 0.835938 0.414062
vt 0.835938 0.414062
vt 0.835938 0.382812
vt 0.835938 0.414062
vt 0.835938 0.414062
vt 0.835938 0.414062
vt 0.835938 0.382812
vt 0.835938 0.382812
vt 0.835938 0.414062
vt 0.835938 0.414062
vt 0.835938 0.414062
vt 0.835938 0.414062
vt 0.875000 0.606645
vt 0.833333 0.625000
vt 0.835938 0.414062
vt 0.835938 0.414062
vt 0.835938 0.414062
vt 0.835938 0.414062
vt 0.875000 0.625000
vt 0.226562 0.898438
vt 0.226562 0.898438
vt 0.226562 0.898438
vt 0.226562 0.898438
vt 0.226562 0.898438
vt 0.226562 0.898438
vt 0.226562 0.898438
vt 0.226562 0.898438
vt 0.226562 0.898438
vt 0.226562 0.898438
vt 0.226562 0.898438
vt 0.226562 0.898438
vt 0.226562 0.867188
vt 0.226562 0.867188
vt 0.226562 0.867188
vt 0.226562 0.867188
vt 0.226562 0.867188
vt 0.226562 0.867188
vt 0.226562 0.867188
vt 0.226562 0.867188
vt 0.226562 0.867188
vt 0.226562 0.867188
vt 0.226562 0.867188
vt 0.226562 0.867188
vt 0.226562 0.867188
vt 0.226562 0.867188
vt 0.226562 0.867188
vt 0.226562 0.867188
vt 0.226562 0.867188
vt 0.226562 0.867188
vt 0.226562 0.867188
vt 0.226562 0.867188
vt 0.226562 0.867188
vt 0.226562 0.867188
vt 0.226562 0.867188
vn -0.0000 1.0000 0.0000
vn -0.0149 0.9999 0.0000
vn -0.7580 0.6522 0.0000
vn 0.0000 0.9998 -0.0174
vn 0.0000 -1.0000 -0.0000
vn 0.0149 0.9999 0.0000
vn 0.2521 0.7527 0.6083
vn -0.2521 0.7527 0.6082
vn -0.6105 0.7506 -0.2528
vn 0.0000 0.9998 0.0175
vn 0.6079 0.7530 0.2517
vn 0.7580 0.6522 0.0000
vn -0.2548 0.7463 -0.6149
vn 0.2548 0.7463 -0.6149
vn 0.6105 0.7505 -0.2528
vn 0.0000 0.6107 0.7919
vn 0.0000 0.6107 -0.7919
vn -0.6079 0.7531 0.2517
vn -0.0185 0.9998 -0.0077
vn 0.0094 0.9997 -0.0226
vn 0.0185 0.9998 -0.0077
vn 0.2521 0.7526 0.6084
vn -0.2521 0.7526 0.6083
vn -0.6106 0.7505 -0.2528
vn 0.0094 0.9997 0.0227
vn 0.6080 0.7530 0.2517
vn -0.0094 0.9997 0.0227
vn -0.0094 0.9997 -0.0226
vn -0.2549 0.7462 -0.6150
vn -0.0185 0.9998 0.0077
vn 0.2549 0.7462 -0.6150
vn 0.6107 0.7504 -0.2528
vn 0.0185 0.9998 0.0077
vn -0.6080 0.7530 0.2517
vn 0.6990 0.0358 -0.7142
vn 0.7109 0.0102 -0.7032
vn 0.7114 0.0102 -0.7027
vn -0.6988 0.0478 0.7137
vn -0.7040 0.0714 0.7066
vn -0.7044 0.0716 0.7062
vn 0.7045 0.0724 0.7060
vn 0.6990 0.0437 -0.7138
vn 0.7045 0.0729 -0.7059
vn 0.7063 0.0736 -0.7041
vn -0.7165 0.0376 -0.6966
vn -0.7072 0.0696 -0.7036
vn -0.7064 0.0699 -0.7043
vn 0.6993 0.0364 0.7139
vn 0.6647 0.0110 0.7470
vn 0.6627 0.0112 0.7488
vn -0.7271 0.0069 -0.6865
vn -0.7162 0.0393 -0.6968
vn -0.6646 0.0141 0.7470
vn -0.7006 0.0386 0.7125
vn 0.6987 0.0702 0.7120
vn 0.7001 0.0394 0.7129
vn -0.7238 0.0029 -0.6900
vn -0.7311 0.0055 -0.6823
vn -0.7256 0.0036 -0.6881
vn -0.6852 -0.0046 0.7283
vn -0.6486 0.0076 0.7611
vn -0.6758 -0.0018 0.7371
vn -0.5215 0.7846 0.3353
vn 0.3639 -0.8801 0.3048
vn 0.3287 0.5778 0.7471
vn 0.2775 0.8559 0.4364
vn 0.2719 0.8537 0.4442
vn 0.2769 0.8561 0.4363
vn 0.3409 -0.3232 0.8828
vn 0.2605 0.4945 0.8292
vn -0.2941 0.5092 0.8089
vn -0.4664 -0.8042 0.3683
vn -0.3137 0.7573 0.5728
vn -0.4417 0.8868 -0.1357
vn -0.7800 -0.5740 0.2494
vn -0.5152 -0.7227 -0.4608
vn 0.2037 0.9770 -0.0636
vn 0.4502 -0.3644 -0.8152
vn 0.2276 -0.9379 -0.2618
vn 0.2934 0.5277 -0.7972
vn 0.8190 -0.5152 -0.2526
vn 0.8718 0.0729 0.4844
vn 0.9244 0.1601 -0.3463
vn -0.9239 0.1594 -0.3477
vn -0.8883 0.0727 0.4534
vn 0.7953 -0.5810 0.1730
vn 0.2727 0.8535 0.4441
vn 0.2367 -0.9483 0.2115
vn 0.4274 -0.1766 0.8867
vn -0.3393 -0.3146 0.8865
vn -0.2302 -0.9522 0.2007
vn -0.4771 0.8572 -0.1941
vn -0.8134 -0.5229 -0.2547
vn -0.3314 0.4911 -0.8056
vn 0.4026 0.8641 -0.3021
vn -0.4521 -0.3630 -0.8148
vn -0.2361 -0.9363 -0.2600
vn 0.5149 -0.7155 -0.4721
vn 0.9107 0.3344 0.2426
vn 0.9194 0.3614 -0.1551
vn 0.5500 0.1734 -0.8169
vn -0.5524 0.1678 -0.8165
vn -0.9295 0.2149 -0.2998
vn -0.5141 0.1029 0.8515
vn 0.8520 0.0762 0.5179
vn -0.9090 0.2013 0.3649
s off
f 1/1/1 2/2/1 3/3/1
f 4/4/2 5/5/2 6/6/2
f 7/7/1 2/2/1 1/1/1
f 8/8/1 2/2/1 9/9/1
f 9/9/1 2/2/1 10/10/1
f 11/11/3 12/12/3 13/13/3
f 14/14/4 15/15/4 16/16/4
f 17/17/5 18/18/5 19/19/5
f 20/20/5 17/17/5 21/21/5
f 15/15/6 22/22/6 16/16/6
f 10/10/1 2/2/1 7/7/1
f 1/1/7 23/23/7 5/24/7
f 24/25/1 2/2/1 8/8/1
f 21/21/5 19/19/5 25/26/5
f 23/23/8 26/27/8 15/28/8
f 24/25/9 27/29/9 28/30/9
f 27/31/10 29/32/10 30/33/10
f 3/3/1 2/2/1 26/27/1
f 26/27/1 2/2/1 24/25/1
f 31/34/11 1/1/11 5/24/11
f 16/16/12 21/35/12 25/36/12
f 29/32/10 32/37/10 11/11/10
f 5/5/4 14/14/4 6/6/4
f 8/8/13 33/38/13 27/29/13
f 32/37/2 4/4/2 11/11/2
f 33/38/14 10/10/14 32/39/14
f 32/39/15 7/7/15 31/34/15
f 30/33/16 34/40/16 20/41/16
f 21/35/12 30/33/12 20/41/12
f 19/42/17 16/16/17 25/36/17
f 12/12/3 6/6/3 18/43/3
f 6/6/17 19/42/17 18/43/17
f 34/44/5 12/45/5 17/17/5
f 22/22/6 27/31/6 30/33/6
f 34/40/16 11/11/16 13/13/16
f 26/27/18 28/30/18 15/28/18
f 4/4/19 31/46/19 5/5/19
f 11/11/3 4/4/3 12/12/3
f 14/14/20 23/47/20 15/15/20
f 17/17/5 12/45/5 18/18/5
f 20/20/5 34/44/5 17/17/5
f 15/15/21 28/48/21 22/22/21
f 1/1/22 3/3/22 23/23/22
f 21/21/5 17/17/5 19/19/5
f 23/23/23 3/3/23 26/27/23
f 24/25/24 8/8/24 27/29/24
f 27/31/25 33/49/25 29/32/25
f 31/34/26 7/7/26 1/1/26
f 16/16/12 22/22/12 21/35/12
f 29/32/27 33/49/27 32/37/27
f 5/5/28 23/47/28 14/14/28
f 8/8/29 9/9/29 33/38/29
f 32/37/30 31/46/30 4/4/30
f 33/38/31 9/9/31 10/10/31
f 32/39/32 10/10/32 7/7/32
f 30/33/16 29/32/16 34/40/16
f 21/35/12 22/22/12 30/33/12
f 19/42/17 14/14/17 16/16/17
f 12/12/3 4/4/3 6/6/3
f 6/6/17 14/14/17 19/42/17
f 34/44/5 13/50/5 12/45/5
f 22/22/33 28/48/33 27/31/33
f 34/40/16 29/32/16 11/11/16
f 26/27/34 24/25/34 28/30/34
s 1
f 35/51/35 36/52/36 37/53/37
f 38/54/38 39/55/39 40/56/40
f 41/57/41 38/54/41 40/56/41
f 42/58/42 41/57/43 43/59/44
f 44/60/45 43/59/46 39/55/47
f 38/54/48 37/53/49 45/61/50
f 44/60/45 36/52/51 42/58/52
f 38/54/38 46/62/53 44/60/54
f 35/51/35 42/58/42 36/52/36
f 38/54/38 44/60/54 39/55/39
f 41/57/55 35/51/56 38/54/48
f 42/58/42 35/51/35 41/57/43
f 44/60/45 42/58/52 43/59/46
f 38/54/48 35/51/56 37/53/49
f 44/60/57 46/62/58 36/52/59
f 38/54/60 45/61/61 46/62/62
f 47/63/63 48/64/63 49/65/63
f 50/66/64 51/67/64 52/68/64
f 53/69/65 54/70/65 55/71/65
f 53/69/66 47/63/67 54/70/68
f 51/67/69 56/72/69 52/68/69
f 55/71/70 54/70/70 56/72/70
f 56/72/71 54/70/71 49/65/71
f 57/73/72 58/74/72 52/68/72
f 47/63/73 49/65/73 54/70/73
f 59/75/74 48/64/74 47/63/74
f 60/76/75 58/74/75 57/73/75
f 61/77/76 62/78/76 58/74/76
f 47/63/77 63/79/77 59/75/77
f 64/80/78 62/78/78 65/81/78
f 50/66/79 66/82/79 62/78/79
f 59/75/80 67/83/80 65/81/80
f 68/84/81 50/66/81 64/80/81
f 68/84/82 53/69/82 51/67/82
f 67/83/83 68/84/83 64/80/83
f 60/76/84 69/85/84 61/77/84
f 49/65/85 60/76/85 57/73/85
f 68/84/86 51/67/86 50/66/86
f 53/69/66 63/79/87 47/63/67
f 50/66/88 52/68/88 66/82/88
f 51/67/89 55/71/89 56/72/89
f 52/68/90 56/72/90 57/73/90
f 66/82/91 52/68/91 58/74/91
f 59/75/92 69/85/92 48/64/92
f 60/76/93 61/77/93 58/74/93
f 59/75/94 65/81/94 69/85/94
f 59/75/95 63/79/95 67/83/95
f 61/77/96 65/81/96 62/78/96
f 58/74/97 62/78/97 66/82/97
f 64/80/98 50/66/98 62/78/98
f 68/84/99 63/79/99 53/69/99
f 67/83/100 63/79/100 68/84/100
f 65/81/101 67/83/101 64/80/101
f 61/77/102 69/85/102 65/81/102
f 60/76/103 48/64/103 69/85/103
f 56/72/104 49/65/104 57/73/104
f 51/67/105 53/69/105 55/71/105
f 49/65/106 48/64/106 60/76/106
