# Blender v2.83.4 OBJ File: 'decos.blend'
# www.blender.org
o Cube.001_Cube.015
v -1.204221 3.217856 -0.044639
v -1.662786 3.852111 -0.044639
v -1.890326 4.604337 -0.044639
v -2.073568 5.899908 -0.044639
v -0.000000 2.724508 -0.044639
v 1.059284 2.890064 -0.044639
v 1.890326 4.604337 -0.044639
v 2.073568 5.899908 -0.044639
v 0.000000 5.635345 -0.044639
v -0.000000 4.147295 -0.044639
v -1.059284 2.890064 -0.044639
v 1.662786 3.852111 -0.044639
v 1.204221 3.217856 -0.044639
v -0.529642 2.731147 -0.044639
v 0.529642 2.731147 -0.044639
v -1.827331 5.291848 -0.060850
v -1.856285 5.451434 -0.060850
v -1.856285 5.451435 -0.208707
v -1.827331 5.291848 -0.208707
v -2.394508 5.247801 -0.060850
v -2.476314 5.399906 -0.060850
v -2.775218 4.956866 -0.060850
v -2.913559 5.065552 -0.060850
v -2.907351 4.470824 -0.060850
v -3.133516 4.459576 -0.060850
v -2.797901 4.223603 -0.060850
v -2.942674 4.067657 -0.060850
v -2.423599 3.921925 -0.060850
v -2.464367 3.828647 -0.060850
v -1.365930 3.649963 -0.060850
v -1.365930 3.649963 -0.208707
v -1.365930 3.609719 -0.060850
v -1.365930 3.609719 -0.208707
v 1.526340 3.534984 -0.044639
v -1.526340 3.534984 -0.044639
v -1.036784 5.675906 -0.044639
v 1.036784 5.675906 -0.044639
v -1.965771 3.679615 -0.060850
v -1.959508 3.722726 -0.060850
v -2.024018 5.848425 -0.050249
v 2.024018 5.848425 -0.050249
v 0.000000 5.583862 -0.050249
v -1.012009 5.624423 -0.050249
v 1.012009 5.624423 -0.050249
v -2.024018 5.886100 -0.050249
v 2.024018 5.886100 -0.050249
v 0.000000 6.000308 -0.050249
v -1.012009 6.000308 -0.050249
v 1.012009 6.000308 -0.050249
v -2.053797 5.821254 -0.079751
v 2.053797 5.821254 -0.079751
v 0.000000 5.556691 -0.079751
v -1.026899 5.597252 -0.079751
v 1.026899 5.597252 -0.079751
v -2.053797 5.885081 -0.079751
v 2.053797 5.885081 -0.079751
v 0.000000 6.125907 -0.079751
v -1.026899 6.088985 -0.079751
v 1.026899 6.088985 -0.079751
v -1.540348 5.709253 -0.079751
v -1.540348 6.018067 -0.079751
v 1.540348 5.709253 -0.079751
v 1.540348 6.018067 -0.079751
v -1.518014 5.736424 -0.050249
v -1.518014 5.963066 -0.050249
v 1.518014 5.736424 -0.050249
v 1.518014 5.963066 -0.050249
v -3.093117 4.830878 -0.060850
v -2.910740 4.774633 -0.060850
vt 0.257812 0.789062
vt 0.257812 0.789063
vt 0.257812 0.789062
vt 0.257812 0.789062
vt 0.257812 0.789062
vt 0.257812 0.789062
vt 0.257812 0.789062
vt 0.257812 0.789062
vt 0.257812 0.789062
vt 0.257812 0.789063
vt 0.257812 0.789062
vt 0.257812 0.789062
vt 0.257812 0.789062
vt 0.257812 0.789062
vt 0.257812 0.789062
vt 0.257812 0.789062
vt 0.257812 0.789062
vt 0.257812 0.789062
vt 0.257812 0.789062
vt 0.257812 0.789062
vt 0.257812 0.789062
vt 0.257812 0.789062
vt 0.257812 0.789062
vt 0.257812 0.789062
vt 0.257812 0.789062
vt 0.257812 0.789062
vt 0.257812 0.789062
vt 0.257812 0.789062
vt 0.257812 0.789062
vt 0.257812 0.789062
vt 0.257812 0.789062
vt 0.257812 0.789062
vt 0.257812 0.789062
vt 0.257812 0.789062
vt 0.257812 0.789062
vt 0.257812 0.789062
vt 0.257812 0.789062
vt 0.257812 0.789062
vt 0.257812 0.789062
vt 0.257812 0.789062
vt 0.257812 0.789062
vt 0.257812 0.789062
vt 0.257812 0.789063
vt 0.257812 0.789062
vt 0.257812 0.789062
vt 0.257812 0.789062
vt 0.257812 0.789062
vt 0.257812 0.789062
vt 0.257812 0.789062
vt 0.257812 0.789062
vt 0.257812 0.789062
vt 0.257812 0.789062
vt 0.257812 0.789062
vt 0.257812 0.789062
vt 0.257812 0.789062
vt 0.164062 0.773438
vt 0.164062 0.773438
vt 0.164062 0.773438
vt 0.164062 0.773438
vt 0.164062 0.773438
vt 0.164062 0.773438
vt 0.164062 0.773438
vt 0.164062 0.773438
vt 0.164062 0.773438
vt 0.164062 0.773438
vt 0.164062 0.773438
vt 0.164062 0.773438
vt 0.164062 0.773438
vt 0.164062 0.773438
vn -0.0000 -0.0000 1.0000
vn 0.9839 0.1785 0.0000
vn 1.0000 -0.0000 0.0000
s off
f 62/1/1 63/2/1 59/3/1 54/4/1
f 54/4/1 59/3/1 57/5/1 52/6/1
f 60/7/1 53/8/1 58/9/1 61/10/1
f 53/8/1 52/6/1 57/5/1 58/9/1
f 50/11/1 60/7/1 61/10/1 55/12/1
f 51/13/1 56/14/1 63/2/1 62/1/1
s 1
f 10/15/1 5/16/1 15/17/1 6/18/1
f 10/15/1 4/19/1 3/20/1
f 10/15/1 11/21/1 14/22/1 5/16/1
f 10/15/1 7/23/1 8/24/1
f 10/15/1 3/20/1 2/25/1
f 10/15/1 12/26/1 7/23/1
f 10/15/1 2/25/1 35/27/1
f 10/15/1 8/24/1 37/28/1
f 10/15/1 13/29/1 34/30/1
f 10/15/1 9/31/1 36/32/1
f 10/15/1 1/33/1 11/21/1
f 10/15/1 6/18/1 13/29/1
f 16/34/2 19/35/2 18/36/2 17/37/2
f 16/34/1 17/37/1 21/38/1 20/39/1
f 20/39/1 21/38/1 23/40/1 22/41/1
f 69/42/1 68/43/1 25/44/1 24/45/1
f 24/45/1 25/44/1 27/46/1 26/47/1
f 26/47/1 27/46/1 29/48/1 28/49/1
f 30/50/3 32/51/3 33/52/3 31/53/3
f 39/54/1 38/55/1 32/51/1 30/50/1
f 1/33/1 10/15/1 35/27/1
f 12/26/1 10/15/1 34/30/1
f 4/19/1 10/15/1 36/32/1
f 9/31/1 10/15/1 37/28/1
f 28/49/1 29/48/1 38/55/1 39/54/1
f 66/56/1 41/57/1 46/58/1 67/59/1
f 64/60/1 43/61/1 48/62/1 65/63/1
f 43/61/1 42/64/1 47/65/1 48/62/1
f 42/64/1 44/66/1 49/67/1 47/65/1
f 40/68/1 64/60/1 65/63/1 45/69/1
f 44/66/1 66/56/1 67/59/1 49/67/1
f 22/41/1 23/40/1 68/43/1 69/42/1
o Circle
v -0.308502 7.562893 -0.088392
v -2.463277 6.666833 -0.088392
v -3.353323 4.509567 -0.088392
v -2.457264 2.354791 -0.088392
v -0.299998 1.464745 -0.088392
v 1.854778 2.360805 -0.088392
v 2.744824 4.518071 -0.088392
v 1.848764 6.672846 -0.088392
v -2.463277 6.666833 -0.285934
v -0.308501 7.562893 -0.285934
v -3.353323 4.509567 -0.285934
v -2.457264 2.354792 -0.285934
v -0.299998 1.464745 -0.285934
v 1.854777 2.360804 -0.285934
v 2.744824 4.518070 -0.285934
v 1.848765 6.672846 -0.285934
v -1.475008 7.329168 -0.088392
v -1.475008 7.329168 -0.285934
v 0.858652 7.332423 -0.088392
v 0.858653 7.332423 -0.285934
v 2.511100 5.684577 -0.088392
v 2.511100 5.684577 -0.285934
v -3.122854 5.676721 -0.088392
v -3.122853 5.676721 -0.285934
v -3.119599 3.343060 -0.088392
v -3.119599 3.343061 -0.285934
v -1.467151 1.695215 -0.088392
v -1.467152 1.695215 -0.285934
v 0.866509 1.698469 -0.088392
v 0.866508 1.698469 -0.285934
v 2.514354 3.350917 -0.088392
v 2.514354 3.350917 -0.285934
v -0.304250 4.513819 -0.088392
v -0.304250 4.513819 -0.285934
vt 0.164062 0.882812
vt 0.164062 0.882812
vt 0.164062 0.882812
vt 0.164062 0.882812
vt 0.164062 0.882812
vt 0.164062 0.882812
vt 0.164062 0.882812
vt 0.164062 0.882812
vt 0.164062 0.882812
vt 0.164062 0.882812
vt 0.164062 0.882812
vt 0.164062 0.882812
vt 0.164062 0.882812
vt 0.164062 0.882812
vt 0.164062 0.882812
vt 0.164062 0.882812
vt 0.164062 0.882812
vt 0.164062 0.882812
vt 0.164062 0.882812
vt 0.164062 0.882812
vt 0.164062 0.882812
vt 0.164062 0.882812
vt 0.164062 0.882812
vt 0.164062 0.882812
vt 0.164062 0.882812
vt 0.164062 0.882812
vt 0.164062 0.882812
vt 0.164062 0.882812
vt 0.164062 0.882812
vt 0.164062 0.882812
vt 0.164062 0.882812
vt 0.164062 0.882812
vt 0.164062 0.882812
vt 0.164062 0.882812
vn 0.0000 -0.0000 1.0000
vn -0.0000 0.0000 -1.0000
vn 0.1965 -0.9805 0.0000
vn -0.9805 -0.1965 -0.0000
vn -0.1965 0.9805 0.0000
vn 0.5544 0.8322 0.0000
vn 0.8322 -0.5544 0.0000
vn -0.5544 -0.8322 -0.0000
vn -0.8322 0.5544 0.0000
vn 0.9805 0.1965 0.0000
vn -0.5567 0.8307 0.0000
vn 0.1937 0.9811 0.0000
vn 0.8307 0.5567 0.0000
vn -0.9811 0.1937 -0.0000
vn -0.8307 -0.5567 -0.0000
vn -0.1937 -0.9811 0.0000
vn 0.5567 -0.8307 0.0000
vn 0.9811 -0.1937 0.0000
s off
f 94/70/4 73/71/4 102/72/4
f 91/73/5 84/74/5 103/75/5
f 98/76/6 74/77/6 82/78/6 99/79/6
f 94/70/7 72/80/7 80/81/7 95/82/7
f 86/83/8 70/84/8 79/85/8 87/86/8
f 88/87/9 77/88/9 85/89/9 89/90/9
f 100/91/10 75/92/10 83/93/10 101/94/10
f 96/95/11 73/71/11 81/96/11 97/97/11
f 92/98/12 71/99/12 78/100/12 93/101/12
f 90/102/13 76/103/13 84/74/13 91/73/13
f 71/99/14 86/83/14 87/86/14 78/100/14
f 70/84/15 88/87/15 89/90/15 79/85/15
f 77/88/16 90/102/16 91/73/16 85/89/16
f 72/80/17 92/98/17 93/101/17 80/81/17
f 73/71/18 94/70/18 95/82/18 81/96/18
f 74/77/19 96/95/19 97/97/19 82/78/19
f 75/92/20 98/76/20 99/79/20 83/93/20
f 76/103/21 100/91/21 101/94/21 84/74/21
f 101/94/5 83/93/5 103/75/5
f 77/88/4 88/87/4 102/72/4
f 70/84/4 86/83/4 102/72/4
f 90/102/4 77/88/4 102/72/4
f 100/91/4 76/103/4 102/72/4
f 71/99/4 92/98/4 102/72/4
f 86/83/4 71/99/4 102/72/4
f 96/95/4 74/77/4 102/72/4
f 72/80/4 94/70/4 102/72/4
f 73/71/4 96/95/4 102/72/4
f 92/98/4 72/80/4 102/72/4
f 74/77/4 98/76/4 102/72/4
f 88/87/4 70/84/4 102/72/4
f 98/76/4 75/92/4 102/72/4
f 75/92/4 100/91/4 102/72/4
f 76/103/4 90/102/4 102/72/4
f 99/79/5 82/78/5 103/75/5
f 80/81/5 93/101/5 103/75/5
f 97/97/5 81/96/5 103/75/5
f 82/78/5 97/97/5 103/75/5
f 78/100/5 87/86/5 103/75/5
f 95/82/5 80/81/5 103/75/5
f 87/86/5 79/85/5 103/75/5
f 84/74/5 101/94/5 103/75/5
f 85/89/5 91/73/5 103/75/5
f 93/101/5 78/100/5 103/75/5
f 89/90/5 85/89/5 103/75/5
f 81/96/5 95/82/5 103/75/5
f 79/85/5 89/90/5 103/75/5
f 83/93/5 99/79/5 103/75/5
