# Blender v2.83.4 OBJ File: 'decos.blend'
# www.blender.org
o Text
v 1.839189 0.522234 0.081694
v 1.650554 -0.470581 0.081694
v 1.237827 -0.470581 0.081694
v 1.222225 0.522234 0.081694
v 1.605168 0.002424 0.081694
v 1.623606 0.522234 0.081694
v 0.121619 0.522234 0.081694
v 0.835028 0.317998 0.081694
v 0.337202 0.317998 0.081694
v 0.337202 0.143546 0.081694
v 0.615190 0.143546 0.081694
v 0.615190 -0.060690 0.081694
v 0.337202 -0.060690 0.081694
v 0.863394 -0.264926 0.081694
v -0.574769 -0.470581 0.081694
v -0.790352 -0.470581 0.081694
v -0.004610 0.203115 0.081694
v -0.193245 -0.086220 0.081694
v -0.574769 -0.114586 0.081694
v -0.255650 0.283249 0.081694
v -0.342167 0.317998 0.081694
v -0.574769 0.317998 0.081694
v -1.700905 -0.377682 0.081694
v -1.846991 0.025827 0.081694
v -1.783876 0.312325 0.081694
v -1.700905 0.429335 0.081694
v -1.065504 0.374021 0.081694
v -0.966222 0.025827 0.081694
v -0.991042 -0.158553 0.081694
v -1.065504 -0.322368 0.081694
v -1.604460 0.165530 0.081694
v -1.622898 0.025827 0.081694
v -1.203079 -0.442924 0.081694
v -1.405897 -0.487601 0.081694
v -1.575385 -0.457816 0.081694
v -1.783876 -0.260671 0.081694
v -1.832099 -0.122387 0.081694
v -1.832099 0.174040 0.081694
v -1.575385 0.509469 0.081694
v -1.405897 0.539254 0.081694
v -1.203079 0.494577 0.081694
v -0.991042 0.210207 0.081694
v -1.508015 -0.251452 0.081694
v -1.405897 -0.279109 0.081694
v -1.281086 -0.228760 0.081694
v -1.210171 -0.112458 0.081694
v -1.190315 0.025827 0.081694
v -1.208753 0.168366 0.081694
v -1.278250 0.283249 0.081694
v -1.405897 0.332181 0.081694
v -1.534254 0.281831 0.081694
v -1.611552 -0.080546 0.081694
v -1.576094 -0.177700 0.081694
v -0.790352 0.522234 0.081694
v -0.350677 0.522234 0.081694
v -0.088999 0.430044 0.081694
v -0.024466 0.090360 0.081694
v -0.084035 -0.011049 0.081694
v -0.350677 -0.114586 0.081694
v -0.574769 0.088232 0.081694
v -0.342167 0.088232 0.081694
v -0.257069 0.122271 0.081694
v -0.228702 0.203115 0.081694
v 0.863394 -0.470581 0.081694
v 0.121619 -0.470581 0.081694
v 0.835028 0.522234 0.081694
v 0.337202 -0.264926 0.081694
v 1.839189 -0.470581 0.081694
v 1.319427 0.055611 0.081694
v 1.233572 0.130781 0.081694
v 1.237827 0.055611 0.081694
v 1.025081 -0.470581 0.081694
v 1.025081 0.522234 0.081694
v -2.004663 -0.704571 0.060802
v -2.004663 0.704571 0.060802
v -2.004663 -0.704571 -0.060802
v -2.004663 0.704571 -0.060802
v 2.004663 -0.704571 0.060802
v 2.004663 0.704571 0.060802
v 2.004663 -0.704571 -0.060802
v 2.004663 0.704571 -0.060802
v 1.899097 -0.730358 -0.060802
v -1.899097 -0.730358 -0.060802
v -1.899097 0.730358 -0.060802
v 1.899097 0.730358 -0.060802
v -1.899097 -0.730358 0.060802
v 1.899097 -0.730358 0.060802
v 1.899097 0.730358 0.060802
v -1.899097 0.730358 0.060802
v -2.078032 -0.615874 0.060802
v -2.078032 0.615874 0.060802
v -2.078032 0.615874 -0.060802
v -2.078032 -0.615874 -0.060802
v 2.078032 0.615874 -0.060802
v 2.078032 -0.615874 -0.060802
v 2.078032 0.615874 0.060802
v 2.078032 -0.615874 0.060802
v 1.899097 0.615874 0.060802
v 1.899097 -0.615874 0.060802
v -1.899097 0.615874 0.060802
v -1.899097 -0.615874 0.060802
v -1.899097 0.615874 -0.060802
v -1.899097 -0.615874 -0.060802
v 1.899097 0.615874 -0.060802
v 1.899097 -0.615874 -0.060802
v -2.091414 -0.769319 0.000000
v -2.091414 0.769319 0.000000
v 2.091414 -0.769319 0.000000
v 2.091414 0.769319 0.000000
v 1.981280 0.797476 0.000000
v -1.981279 0.797476 0.000000
v -1.981279 -0.797475 -0.000000
v 1.981280 -0.797475 -0.000000
v 2.167958 -0.672471 0.000000
v 2.167958 0.672471 0.000000
v -2.167958 -0.672471 0.000000
v -2.167958 0.672471 0.000000
vt 0.007812 0.695312
vt 0.007812 0.695312
vt 0.007812 0.695312
vt 0.007812 0.695312
vt 0.007812 0.695312
vt 0.007812 0.695312
vt 0.007812 0.695312
vt 0.007812 0.695312
vt 0.007812 0.695312
vt 0.007812 0.695312
vt 0.007812 0.695312
vt 0.007812 0.695312
vt 0.007812 0.695312
vt 0.007812 0.695312
vt 0.007812 0.695312
vt 0.007812 0.695312
vt 0.007812 0.695312
vt 0.007812 0.695312
vt 0.007812 0.695312
vt 0.007812 0.695312
vt 0.007812 0.695312
vt 0.007812 0.695312
vt 0.007812 0.695312
vt 0.007812 0.695312
vt 0.007812 0.695312
vt 0.007812 0.695312
vt 0.007812 0.695312
vt 0.007812 0.695312
vt 0.007812 0.695312
vt 0.007812 0.695312
vt 0.007812 0.695312
vt 0.007812 0.695312
vt 0.007812 0.695312
vt 0.007812 0.695312
vt 0.007812 0.695312
vt 0.007812 0.695312
vt 0.007812 0.695312
vt 0.007812 0.695312
vt 0.007812 0.695312
vt 0.007812 0.695312
vt 0.007812 0.695312
vt 0.007812 0.695312
vt 0.007812 0.695312
vt 0.007812 0.695312
vt 0.007812 0.695312
vt 0.007812 0.695312
vt 0.007812 0.695312
vt 0.007812 0.695312
vt 0.007812 0.695312
vt 0.007812 0.695312
vt 0.007812 0.695312
vt 0.007812 0.695312
vt 0.007812 0.695312
vt 0.007812 0.695312
vt 0.007812 0.695312
vt 0.007812 0.695312
vt 0.007812 0.695312
vt 0.007812 0.695312
vt 0.007812 0.695312
vt 0.007812 0.695312
vt 0.007812 0.695312
vt 0.007812 0.695312
vt 0.007812 0.695312
vt 0.007812 0.695312
vt 0.007812 0.695312
vt 0.007812 0.695312
vt 0.007812 0.695312
vt 0.007812 0.695312
vt 0.007812 0.695312
vt 0.007812 0.695312
vt 0.007812 0.695312
vt 0.007812 0.695312
vt 0.007812 0.695312
vt 0.117188 0.835938
vt 0.117188 0.835938
vt 0.117188 0.835938
vt 0.117188 0.835938
vt 0.117188 0.835938
vt 0.117188 0.835938
vt 0.117188 0.835938
vt 0.117188 0.835938
vt 0.117188 0.835938
vt 0.117188 0.835938
vt 0.117188 0.835938
vt 0.117188 0.835938
vt 0.117188 0.835938
vt 0.117188 0.835938
vt 0.117188 0.835938
vt 0.117188 0.835938
vt 0.117188 0.835938
vt 0.117188 0.835938
vt 0.117188 0.835938
vt 0.117188 0.835938
vt 0.117188 0.835938
vt 0.117188 0.835938
vt 0.117188 0.835938
vt 0.117188 0.835938
vt 0.117188 0.835938
vt 0.117188 0.835938
vt 0.117188 0.835938
vt 0.117188 0.835938
vt 0.117188 0.835938
vt 0.117188 0.835938
vt 0.117188 0.835938
vt 0.117188 0.835938
vt 0.117188 0.835938
vt 0.117188 0.835938
vt 0.117188 0.835938
vt 0.117188 0.835938
vt 0.117188 0.835938
vt 0.117188 0.835938
vt 0.117188 0.835938
vt 0.117188 0.835938
vt 0.117188 0.835938
vt 0.117188 0.835938
vt 0.117188 0.835938
vt 0.117188 0.835938
vn 0.0000 -0.0000 1.0000
vn -0.4666 0.1818 -0.8656
vn -0.2961 0.4153 -0.8602
vn -0.1514 0.2878 -0.9456
vn -0.3037 0.0884 -0.9487
vn 0.0000 0.0000 -1.0000
vn 0.1514 0.2878 -0.9456
vn 0.3037 0.0884 -0.9487
vn 0.4666 0.1818 0.8656
vn 0.2961 0.4153 0.8602
vn 0.1514 0.2878 0.9456
vn 0.3037 0.0884 0.9487
vn -0.1514 0.2878 0.9456
vn -0.3037 0.0884 0.9487
vn 0.1020 -0.5986 0.7945
vn 0.2961 -0.4153 0.8602
vn 0.1514 -0.2878 0.9456
vn 0.0436 -0.6418 0.7657
vn -0.1020 0.5986 0.7945
vn -0.2961 0.4153 0.8602
vn -0.0436 0.6418 0.7657
vn 0.1020 0.5986 0.7945
vn 0.0436 0.6418 0.7657
vn -0.2961 -0.4153 0.8602
vn -0.1020 -0.5986 0.7945
vn -0.0436 -0.6418 0.7657
vn -0.1514 -0.2878 0.9456
vn -0.1514 -0.2878 -0.9456
vn -0.3037 -0.0884 -0.9487
vn 0.3037 -0.0884 0.9487
vn -0.3037 -0.0884 0.9487
vn 0.4666 -0.1818 0.8656
vn 0.3037 -0.0884 -0.9487
vn 0.1514 -0.2878 -0.9456
vn -0.2961 -0.4153 -0.8602
vn -0.4666 -0.1818 -0.8656
vn 0.0000 1.0000 0.0000
vn 1.0000 -0.0000 0.0000
vn 0.0000 -1.0000 0.0000
vn -1.0000 -0.0000 0.0000
vn -0.4666 0.1818 0.8656
vn -0.4666 -0.1818 0.8656
vn 0.4666 0.1818 -0.8656
vn 0.4666 -0.1818 -0.8656
vn 0.2961 -0.4153 -0.8602
vn -0.0436 -0.6418 -0.7657
vn 0.0436 -0.6418 -0.7657
vn 0.1020 -0.5986 -0.7945
vn -0.1020 -0.5986 -0.7945
vn 0.0436 0.6418 -0.7657
vn -0.0436 0.6418 -0.7657
vn -0.1020 0.5986 -0.7945
vn 0.1020 0.5986 -0.7945
vn 0.2961 0.4153 -0.8602
s 1
f 72/1/1 4/2/1 73/3/1
f 72/1/1 70/4/1 4/2/1
f 70/4/1 5/5/1 4/2/1
f 5/5/1 1/6/1 6/7/1
f 5/5/1 68/8/1 1/6/1
f 72/1/1 71/9/1 70/4/1
f 69/10/1 5/5/1 70/4/1
f 72/1/1 3/11/1 71/9/1
f 2/12/1 5/5/1 69/10/1
f 2/12/1 68/8/1 5/5/1
f 65/13/1 9/14/1 7/15/1
f 9/14/1 66/16/1 7/15/1
f 9/14/1 8/17/1 66/16/1
f 65/13/1 10/18/1 9/14/1
f 65/13/1 13/19/1 10/18/1
f 13/19/1 11/20/1 10/18/1
f 13/19/1 12/21/1 11/20/1
f 65/13/1 67/22/1 13/19/1
f 65/13/1 14/23/1 67/22/1
f 65/13/1 64/24/1 14/23/1
f 16/25/1 22/26/1 54/27/1
f 22/26/1 55/28/1 54/27/1
f 22/26/1 56/29/1 55/28/1
f 22/26/1 21/30/1 56/29/1
f 21/30/1 17/31/1 56/29/1
f 16/25/1 60/32/1 22/26/1
f 20/33/1 17/31/1 21/30/1
f 63/34/1 17/31/1 20/33/1
f 62/35/1 17/31/1 63/34/1
f 62/35/1 57/36/1 17/31/1
f 61/37/1 57/36/1 62/35/1
f 61/37/1 58/38/1 57/36/1
f 16/25/1 19/39/1 60/32/1
f 19/39/1 61/37/1 60/32/1
f 19/39/1 58/38/1 61/37/1
f 19/39/1 18/40/1 58/38/1
f 19/39/1 59/41/1 18/40/1
f 16/25/1 15/42/1 19/39/1
f 39/43/1 41/44/1 40/45/1
f 26/46/1 41/44/1 39/43/1
f 26/46/1 27/47/1 41/44/1
f 25/48/1 27/47/1 26/46/1
f 25/48/1 50/49/1 27/47/1
f 50/49/1 42/50/1 27/47/1
f 25/48/1 51/51/1 50/49/1
f 49/52/1 42/50/1 50/49/1
f 38/53/1 51/51/1 25/48/1
f 48/54/1 42/50/1 49/52/1
f 38/53/1 31/55/1 51/51/1
f 48/54/1 28/56/1 42/50/1
f 24/57/1 31/55/1 38/53/1
f 47/58/1 28/56/1 48/54/1
f 24/57/1 32/59/1 31/55/1
f 37/60/1 32/59/1 24/57/1
f 37/60/1 52/61/1 32/59/1
f 46/62/1 28/56/1 47/58/1
f 46/62/1 29/63/1 28/56/1
f 37/60/1 53/64/1 52/61/1
f 45/65/1 29/63/1 46/62/1
f 36/66/1 53/64/1 37/60/1
f 45/65/1 30/67/1 29/63/1
f 36/66/1 43/68/1 53/64/1
f 44/69/1 30/67/1 45/65/1
f 36/66/1 44/69/1 43/68/1
f 23/70/1 44/69/1 36/66/1
f 23/70/1 30/67/1 44/69/1
f 23/70/1 33/71/1 30/67/1
f 35/72/1 33/71/1 23/70/1
f 35/72/1 34/73/1 33/71/1
f 117/74/2 107/75/3 77/76/4 92/77/5
f 104/78/6 85/79/6 81/80/7 94/81/8
f 115/82/9 109/83/10 79/84/11 96/85/12
f 100/86/1 89/87/1 75/88/13 91/89/14
f 113/90/15 108/91/16 78/92/17 87/93/18
f 111/94/19 107/75/20 75/88/13 89/87/21
f 109/83/10 110/95/22 88/96/23 79/84/11
f 110/95/22 111/94/19 89/87/21 88/96/23
f 106/97/24 112/98/25 86/99/26 74/100/27
f 112/98/25 113/90/15 87/93/18 86/99/26
f 96/85/12 79/84/11 88/96/1 98/101/1
f 98/101/1 88/96/1 89/87/1 100/86/1
f 92/77/5 77/76/4 84/102/6 102/103/6
f 102/103/6 84/102/6 85/79/6 104/78/6
f 83/104/6 103/105/6 105/106/6 82/107/6
f 76/108/28 93/109/29 103/105/6 83/104/6
f 93/109/29 92/77/5 102/103/6 103/105/6
f 87/93/1 99/110/1 101/111/1 86/99/1
f 78/92/17 97/112/30 99/110/1 87/93/1
f 97/112/30 96/85/12 98/101/1 99/110/1
f 86/99/1 101/111/1 90/113/31 74/100/27
f 101/111/1 100/86/1 91/89/14 90/113/31
f 108/91/16 114/114/32 97/112/30 78/92/17
f 114/114/32 115/82/9 96/85/12 97/112/30
f 82/107/6 105/106/6 95/115/33 80/116/34
f 105/106/6 104/78/6 94/81/8 95/115/33
f 106/97/35 116/117/36 93/109/29 76/108/28
f 116/117/36 117/74/2 92/77/5 93/109/29
f 105/106/37 103/105/37 101/111/37 99/110/37
f 103/105/38 102/103/38 100/86/38 101/111/38
f 102/103/39 104/78/39 98/101/39 100/86/39
f 104/78/40 105/106/40 99/110/40 98/101/40
f 90/113/31 91/89/14 117/74/41 116/117/42
f 74/100/27 90/113/31 116/117/42 106/97/24
f 95/115/33 94/81/8 115/82/43 114/114/44
f 80/116/34 95/115/33 114/114/44 108/91/45
f 83/104/46 82/107/47 113/90/48 112/98/49
f 76/108/28 83/104/46 112/98/49 106/97/35
f 85/79/50 84/102/51 111/94/52 110/95/53
f 81/80/7 85/79/50 110/95/53 109/83/54
f 84/102/51 77/76/4 107/75/3 111/94/52
f 82/107/47 80/116/34 108/91/45 113/90/48
f 94/81/8 81/80/7 109/83/54 115/82/43
f 91/89/14 75/88/13 107/75/20 117/74/41
