# Blender v2.91.0 Beta OBJ File: 'decos.blend'
# www.blender.org
o Cube.001_Cube.032
v -1.649151 3.615890 0.090818
v -1.649151 0.000034 -0.036274
v -1.649151 0.000034 0.090815
v -1.649151 3.615890 -0.036271
v -1.522062 0.000034 -0.036274
v -1.522062 3.615890 0.090818
v -1.522062 0.000034 0.090815
v 1.649151 0.000034 -0.036274
v 1.649151 3.615890 0.090818
v 1.649151 0.000034 0.090815
v 1.522062 0.000034 -0.036274
v 1.522062 3.615890 0.090818
v 1.522062 0.000034 0.090815
v 1.649151 3.615890 -0.036271
v 1.522062 3.615890 -0.036271
v 0.000000 6.732923 0.237319
v 2.320248 6.732923 0.237319
v 2.159508 7.063479 0.237319
v 2.571888 6.246863 0.237319
v 2.628207 6.271789 0.237319
v 2.571069 6.422859 0.237319
v 2.604324 5.611688 0.237319
v 2.661366 5.650546 0.237319
v 2.603493 5.886094 0.237319
v -2.769306 5.199429 0.237319
v -2.852088 5.135676 0.237319
v -2.830881 4.891171 0.237318
v 2.312880 4.120557 0.237318
v 2.320248 4.451114 0.237318
v 2.039304 3.721035 0.237318
v 1.071570 8.299204 -0.168382
v 1.495473 8.018289 -0.168382
v 0.000000 6.732923 -0.168383
v 2.449965 6.237333 -0.168383
v 0.001926 6.237333 -0.168383
v 0.481848 6.438718 -0.168383
v 2.480841 5.596825 -0.168383
v 0.001488 5.596825 -0.168383
v 0.487548 5.910813 -0.168383
v 2.767836 5.199429 -0.168383
v 2.829411 4.891171 -0.168384
v 2.637333 4.820864 -0.168384
v -2.312880 4.120557 -0.168384
v -2.039304 3.721035 -0.168384
v -2.262531 3.920797 -0.168384
v -1.522062 3.615890 -0.036271
v 1.918734 7.599443 0.237319
v 1.495473 8.018289 0.237319
v 1.071570 8.299204 0.237319
v 0.535785 8.475071 0.237319
v 0.000000 8.526790 0.237319
v -0.535785 8.475071 0.237319
v -1.071570 8.299204 0.237319
v -1.495473 8.018289 0.237319
v -1.918734 7.599443 0.237319
v -2.159508 7.063479 0.237319
v -2.320248 6.732923 0.237319
v -2.624355 6.271789 0.237319
v -2.568033 6.246863 0.237319
v -2.567214 6.422859 0.237319
v -2.446113 6.237333 0.237319
v 0.001926 6.237333 0.237319
v 2.449965 6.237333 0.237319
v 0.481848 6.438718 0.237319
v -2.454312 6.438718 0.237319
v -2.644035 6.391614 0.237319
v 2.458164 6.438718 0.237319
v 2.647890 6.391614 0.237319
v -2.658387 5.650546 0.237319
v -2.601348 5.611688 0.237319
v -2.600517 5.886094 0.237319
v -2.477865 5.596825 0.237319
v 0.001488 5.596825 0.237319
v 2.480841 5.596825 0.237319
v 0.487548 5.910813 0.237319
v -2.486169 5.910813 0.237319
v -2.678322 5.837379 0.237319
v 2.489148 5.910813 0.237319
v 2.681298 5.837379 0.237319
v -2.770188 4.840316 0.237318
v -2.638803 4.820864 0.237318
v -0.000735 4.820864 0.237318
v -2.647638 5.231775 0.237319
v 2.637333 4.820864 0.237318
v 0.516441 5.231775 0.237319
v 2.768721 4.840316 0.237318
v 2.829411 4.891171 0.237318
v 2.767836 5.199429 0.237319
v 2.850621 5.135676 0.237319
v 2.646171 5.231775 0.237319
v 0.000000 4.451114 0.237318
v -2.320248 4.451114 0.237318
v -2.039304 3.721035 0.237318
v -2.312880 4.120557 0.237318
v -2.262531 3.920797 0.237318
v -2.192823 3.802958 0.237318
v 0.000000 3.721035 0.237318
v 2.192823 3.802958 0.237318
v 2.262531 3.920797 0.237318
v 1.918734 7.599443 -0.168382
v 2.159508 7.063479 -0.168383
v 2.320248 6.732923 -0.168383
v -2.320248 6.732923 -0.168383
v -2.159508 7.063479 -0.168383
v -1.918734 7.599443 -0.168382
v -1.495473 8.018289 -0.168382
v -1.071570 8.299204 -0.168382
v -0.535785 8.475071 -0.168382
v 0.000000 8.526790 -0.168382
v 0.535785 8.475071 -0.168382
v -2.446113 6.237333 -0.168383
v -2.568033 6.246863 -0.168383
v -2.567214 6.422859 -0.168383
v -2.624355 6.271789 -0.168383
v -2.454312 6.438718 -0.168383
v -2.644035 6.391614 -0.168383
v 2.458164 6.438718 -0.168383
v 2.571069 6.422859 -0.168383
v 2.571888 6.246863 -0.168383
v 2.628207 6.271789 -0.168383
v 2.647890 6.391614 -0.168383
v -2.477865 5.596825 -0.168383
v -2.601348 5.611688 -0.168383
v -2.600517 5.886094 -0.168383
v -2.658387 5.650546 -0.168383
v -2.678322 5.837379 -0.168383
v -2.486169 5.910813 -0.168383
v 2.489148 5.910813 -0.168383
v 2.603493 5.886094 -0.168383
v 2.604324 5.611688 -0.168383
v 2.681298 5.837379 -0.168383
v 2.661366 5.650546 -0.168383
v -0.000735 4.820864 -0.168384
v -2.638803 4.820864 -0.168384
v -2.647638 5.231775 -0.168383
v -2.770188 4.840316 -0.168384
v -2.830881 4.891171 -0.168384
v -2.769306 5.199429 -0.168383
v -2.852088 5.135676 -0.168383
v 0.516441 5.231775 -0.168383
v 2.646171 5.231775 -0.168383
v 2.768721 4.840316 -0.168384
v 2.850621 5.135676 -0.168383
v -2.320248 4.451114 -0.168384
v 0.000000 4.451114 -0.168384
v 2.320248 4.451114 -0.168384
v 2.039304 3.721035 -0.168384
v 2.312880 4.120557 -0.168384
v 2.262531 3.920797 -0.168384
v 2.192823 3.802958 -0.168384
v 0.000000 3.721035 -0.168384
v -2.192823 3.802958 -0.168384
vt 0.226562 0.789062
vt 0.226562 0.789062
vt 0.226562 0.789062
vt 0.226562 0.789062
vt 0.226562 0.789062
vt 0.226562 0.789062
vt 0.226562 0.789062
vt 0.226562 0.789062
vt 0.226562 0.789062
vt 0.226562 0.789062
vt 0.226562 0.789062
vt 0.226562 0.789062
vt 0.226562 0.789062
vt 0.226562 0.789062
vt 0.226562 0.789062
vt 0.132812 0.882812
vt 0.132812 0.882812
vt 0.132812 0.882812
vt 0.054688 0.742188
vt 0.054688 0.742188
vt 0.054688 0.742188
vt 0.070312 0.742188
vt 0.070312 0.742188
vt 0.070312 0.742188
vt 0.085938 0.742188
vt 0.085938 0.742188
vt 0.085938 0.742188
vt 0.132812 0.882812
vt 0.132812 0.882812
vt 0.132812 0.882812
vt 0.132812 0.882812
vt 0.132812 0.882812
vt 0.132812 0.882812
vt 0.054688 0.742188
vt 0.054688 0.742188
vt 0.054688 0.742188
vt 0.070312 0.742188
vt 0.070312 0.742188
vt 0.070312 0.742188
vt 0.085938 0.742188
vt 0.085938 0.742188
vt 0.085938 0.742188
vt 0.132812 0.882812
vt 0.132812 0.882812
vt 0.132812 0.882812
vt 0.226562 0.789062
vt 0.132812 0.882812
vt 0.132812 0.882812
vt 0.132812 0.882812
vt 0.132812 0.882812
vt 0.132812 0.882812
vt 0.132812 0.882812
vt 0.132812 0.882812
vt 0.132812 0.882812
vt 0.132812 0.882812
vt 0.132812 0.882812
vt 0.132812 0.882812
vt 0.054688 0.742188
vt 0.054688 0.742188
vt 0.054688 0.742188
vt 0.054688 0.742188
vt 0.054688 0.742188
vt 0.054688 0.742188
vt 0.054688 0.742188
vt 0.054688 0.742188
vt 0.054688 0.742188
vt 0.054688 0.742188
vt 0.054688 0.742188
vt 0.070312 0.742188
vt 0.070312 0.742188
vt 0.070312 0.742188
vt 0.070312 0.742188
vt 0.070312 0.742188
vt 0.070312 0.742188
vt 0.070312 0.742188
vt 0.070312 0.742188
vt 0.070312 0.742188
vt 0.070312 0.742188
vt 0.070312 0.742188
vt 0.085938 0.742188
vt 0.085938 0.742188
vt 0.085938 0.742188
vt 0.085938 0.742188
vt 0.085938 0.742188
vt 0.085938 0.742188
vt 0.085938 0.742188
vt 0.085938 0.742188
vt 0.085938 0.742188
vt 0.085938 0.742188
vt 0.085938 0.742188
vt 0.132812 0.882812
vt 0.132812 0.882812
vt 0.132812 0.882812
vt 0.132812 0.882812
vt 0.132812 0.882812
vt 0.132812 0.882812
vt 0.132812 0.882812
vt 0.132812 0.882812
vt 0.132812 0.882812
vt 0.132812 0.882812
vt 0.132812 0.882812
vt 0.132812 0.882812
vt 0.132812 0.882812
vt 0.132812 0.882812
vt 0.132812 0.882812
vt 0.132812 0.882812
vt 0.132812 0.882812
vt 0.132812 0.882812
vt 0.132812 0.882812
vt 0.132812 0.882812
vt 0.054688 0.742188
vt 0.054688 0.742188
vt 0.054688 0.742188
vt 0.054688 0.742188
vt 0.054688 0.742188
vt 0.054688 0.742188
vt 0.054688 0.742188
vt 0.054688 0.742188
vt 0.054688 0.742188
vt 0.054688 0.742188
vt 0.054688 0.742188
vt 0.070312 0.742188
vt 0.070312 0.742188
vt 0.070312 0.742188
vt 0.070312 0.742188
vt 0.070312 0.742188
vt 0.070312 0.742188
vt 0.070312 0.742188
vt 0.070312 0.742188
vt 0.070312 0.742188
vt 0.070312 0.742188
vt 0.070312 0.742188
vt 0.085938 0.742188
vt 0.085938 0.742188
vt 0.085938 0.742188
vt 0.085938 0.742188
vt 0.085938 0.742188
vt 0.085938 0.742188
vt 0.085938 0.742188
vt 0.085938 0.742188
vt 0.085938 0.742188
vt 0.085938 0.742188
vt 0.085938 0.742188
vt 0.132812 0.882812
vt 0.132812 0.882812
vt 0.132812 0.882812
vt 0.132812 0.882812
vt 0.132812 0.882812
vt 0.132812 0.882812
vt 0.132812 0.882812
vt 0.132812 0.882812
vt 0.132812 0.882812
vn -1.0000 0.0000 0.0000
vn 0.0000 0.0000 -1.0000
vn 1.0000 0.0000 0.0000
vn 0.0000 -0.0000 1.0000
vn 0.0000 -1.0000 -0.0000
s 1
f 1/1/1 2/2/1 3/3/1
f 4/4/2 5/5/2 2/2/2
f 5/5/3 6/6/3 7/7/3
f 6/6/4 3/3/4 7/7/4
f 5/5/5 3/3/5 2/2/5
f 8/8/3 9/9/3 10/10/3
f 10/10/5 11/11/5 8/8/5
f 10/10/4 12/12/4 13/13/4
f 11/11/2 14/14/2 8/8/2
f 13/13/1 15/15/1 11/11/1
f 16/16/4 17/17/4 18/18/4
f 19/19/4 20/20/4 21/21/4
f 22/22/4 23/23/4 24/24/4
f 25/25/4 26/26/4 27/27/4
f 28/28/4 29/29/4 30/30/4
f 31/31/2 32/32/2 33/33/2
f 34/34/2 35/35/2 36/36/2
f 37/37/2 38/38/2 39/39/2
f 40/40/2 41/41/2 42/42/2
f 43/43/2 44/44/2 45/45/2
f 1/1/1 4/4/1 2/2/1
f 4/4/2 46/46/2 5/5/2
f 5/5/3 46/46/3 6/6/3
f 6/6/4 1/1/4 3/3/4
f 5/5/5 7/7/5 3/3/5
f 8/8/3 14/14/3 9/9/3
f 10/10/5 13/13/5 11/11/5
f 10/10/4 9/9/4 12/12/4
f 11/11/2 15/15/2 14/14/2
f 13/13/1 12/12/1 15/15/1
f 18/18/4 47/47/4 16/16/4
f 47/47/4 48/48/4 16/16/4
f 48/48/4 49/49/4 16/16/4
f 49/49/4 50/50/4 16/16/4
f 50/50/4 51/51/4 16/16/4
f 51/51/4 52/52/4 16/16/4
f 52/52/4 53/53/4 16/16/4
f 53/53/4 54/54/4 16/16/4
f 54/54/4 55/55/4 16/16/4
f 55/55/4 56/56/4 16/16/4
f 56/56/4 57/57/4 16/16/4
f 58/58/4 59/59/4 60/60/4
f 59/59/4 61/61/4 60/60/4
f 62/62/4 63/63/4 64/64/4
f 63/63/4 19/19/4 21/21/4
f 61/61/4 62/62/4 65/65/4
f 60/60/4 61/61/4 65/65/4
f 60/60/4 66/66/4 58/58/4
f 64/64/4 65/65/4 62/62/4
f 21/21/4 67/67/4 63/63/4
f 67/67/4 64/64/4 63/63/4
f 20/20/4 68/68/4 21/21/4
f 69/69/4 70/70/4 71/71/4
f 70/70/4 72/72/4 71/71/4
f 73/73/4 74/74/4 75/75/4
f 74/74/4 22/22/4 24/24/4
f 72/72/4 73/73/4 76/76/4
f 71/71/4 72/72/4 76/76/4
f 71/71/4 77/77/4 69/69/4
f 75/75/4 76/76/4 73/73/4
f 24/24/4 78/78/4 74/74/4
f 78/78/4 75/75/4 74/74/4
f 23/23/4 79/79/4 24/24/4
f 80/80/4 81/81/4 27/27/4
f 81/81/4 82/82/4 83/83/4
f 25/25/4 81/81/4 83/83/4
f 82/82/4 84/84/4 85/85/4
f 84/84/4 86/86/4 87/87/4
f 84/84/4 87/87/4 88/88/4
f 87/87/4 89/89/4 88/88/4
f 88/88/4 90/90/4 84/84/4
f 85/85/4 83/83/4 82/82/4
f 90/90/4 85/85/4 84/84/4
f 81/81/4 25/25/4 27/27/4
f 91/91/4 92/92/4 93/93/4
f 92/92/4 94/94/4 93/93/4
f 94/94/4 95/95/4 93/93/4
f 95/95/4 96/96/4 93/93/4
f 93/93/4 97/97/4 91/91/4
f 97/97/4 30/30/4 91/91/4
f 30/30/4 98/98/4 99/99/4
f 91/91/4 30/30/4 29/29/4
f 99/99/4 28/28/4 30/30/4
f 32/32/2 100/100/2 33/33/2
f 100/100/2 101/101/2 33/33/2
f 101/101/2 102/102/2 33/33/2
f 33/33/2 103/103/2 104/104/2
f 104/104/2 105/105/2 33/33/2
f 105/105/2 106/106/2 33/33/2
f 106/106/2 107/107/2 33/33/2
f 107/107/2 108/108/2 33/33/2
f 108/108/2 109/109/2 33/33/2
f 109/109/2 110/110/2 33/33/2
f 110/110/2 31/31/2 33/33/2
f 111/111/2 112/112/2 113/113/2
f 112/112/2 114/114/2 113/113/2
f 111/111/2 113/113/2 115/115/2
f 114/114/2 116/116/2 113/113/2
f 115/115/2 36/36/2 35/35/2
f 36/36/2 117/117/2 34/34/2
f 117/117/2 118/118/2 34/34/2
f 119/119/2 118/118/2 120/120/2
f 118/118/2 121/121/2 120/120/2
f 119/119/2 34/34/2 118/118/2
f 35/35/2 111/111/2 115/115/2
f 122/122/2 123/123/2 124/124/2
f 123/123/2 125/125/2 124/124/2
f 125/125/2 126/126/2 124/124/2
f 124/124/2 127/127/2 122/122/2
f 127/127/2 39/39/2 38/38/2
f 39/39/2 128/128/2 37/37/2
f 128/128/2 129/129/2 37/37/2
f 37/37/2 129/129/2 130/130/2
f 129/129/2 131/131/2 132/132/2
f 132/132/2 130/130/2 129/129/2
f 38/38/2 122/122/2 127/127/2
f 133/133/2 134/134/2 135/135/2
f 134/134/2 136/136/2 137/137/2
f 134/134/2 137/137/2 138/138/2
f 137/137/2 139/139/2 138/138/2
f 138/138/2 135/135/2 134/134/2
f 140/140/2 141/141/2 42/42/2
f 141/141/2 40/40/2 42/42/2
f 135/135/2 140/140/2 133/133/2
f 142/142/2 42/42/2 41/41/2
f 42/42/2 133/133/2 140/140/2
f 143/143/2 41/41/2 40/40/2
f 43/43/2 144/144/2 44/44/2
f 144/144/2 145/145/2 44/44/2
f 145/145/2 146/146/2 147/147/2
f 146/146/2 148/148/2 147/147/2
f 148/148/2 149/149/2 147/147/2
f 149/149/2 150/150/2 147/147/2
f 147/147/2 151/151/2 145/145/2
f 151/151/2 44/44/2 145/145/2
f 44/44/2 152/152/2 45/45/2
