# Blender v2.91.0 Beta OBJ File: 'HOUSE.blend'
# www.blender.org
o tree.002_tree.016
v -0.913720 3.125852 -6.083457
v -9.280976 -0.431116 18.961502
v 0.398538 -0.431116 22.218470
v -13.064180 -0.431116 0.101125
v -9.117945 -0.431116 -21.014589
v 0.091139 -0.431116 -26.871479
v 9.168489 -0.431116 -20.501253
v 12.796721 -0.431116 0.827101
v 7.802649 -0.431116 19.628134
v 11.606913 -0.431116 10.498806
v -12.105572 -0.431116 9.957468
v 0.026778 2.763143 11.020460
v -12.175821 -0.431116 -10.844146
v 11.757433 -0.431116 -10.379456
vt 0.963379 0.941895
vt 0.959473 0.933105
vt 0.960449 0.929199
vt 0.957520 0.941895
vt 0.959473 0.954590
vt 0.963379 0.957520
vt 0.960449 0.956543
vt 0.967285 0.941895
vt 0.965332 0.929199
vt 0.967285 0.933105
vt 0.963379 0.925293
vt 0.969238 0.941895
vt 0.967285 0.954590
vt 0.965332 0.956543
vn -0.0563 0.9918 -0.1151
vn -0.1688 0.9773 -0.1279
vn -0.3080 0.9493 -0.0632
vn 0.0048 0.9857 -0.1684
vn 0.1716 0.9760 -0.1337
vn 0.2873 0.9563 -0.0543
vn 0.2752 0.9601 -0.0502
vn -0.3867 0.9190 0.0773
vn -0.5194 0.8432 0.1384
vn -0.0246 0.8531 0.5212
vn -0.1850 0.9631 0.1956
vn -0.0542 0.8809 0.4703
vn 0.2871 0.9239 0.2530
vn 0.2958 0.9542 -0.0443
s 1
f 1/1/1 5/2/2 13/3/3
f 5/2/2 1/1/1 6/4/4
f 6/4/4 1/1/1 7/5/5
f 1/1/1 8/6/6 14/7/7
f 12/8/8 11/9/9 2/10/10
f 4/11/11 12/8/8 1/1/1
f 12/8/8 8/6/6 1/1/1
f 12/8/8 3/12/12 9/13/13
f 4/11/11 1/1/1 13/3/3
f 7/5/5 1/1/1 14/7/7
f 3/12/12 12/8/8 2/10/10
f 10/14/14 12/8/8 9/13/13
f 4/11/11 11/9/9 12/8/8
f 12/8/8 10/14/14 8/6/6
