# Blender v2.91.0 Beta OBJ File: 'decos.blend'
# www.blender.org
o Silo.001_Cone.004
v 2.151750 10.853311 5.194788
v 3.975917 10.853311 3.975919
v 0.353959 13.376671 0.000002
v 5.194786 10.853312 2.151753
v 5.622796 10.853312 0.000002
v 0.000000 13.376671 0.353961
v -0.250287 13.856889 0.250289
v -0.250287 13.856889 -0.250285
v 5.083199 -0.773722 2.105531
v 5.502015 -0.773722 0.000001
v -2.151750 10.853311 5.194788
v -3.975917 10.853311 3.975919
v -0.353959 13.376671 0.000002
v -5.194786 10.853312 2.151753
v -5.622796 10.853312 0.000002
v 2.151751 10.853312 -5.194784
v 3.975917 10.853312 -3.975915
v 2.105531 -0.773721 -5.083199
v 0.000000 -0.773721 -5.502015
v -0.000000 10.853312 -5.622794
v 5.194786 10.853312 -2.151749
v 0.000000 13.376671 -0.353957
v 0.250287 13.856889 -0.250285
v 5.083200 -0.773721 -2.105529
v 0.000000 13.856889 -0.353957
v -5.083199 -0.773722 2.105531
v -5.502015 -0.773722 0.000001
v -2.151751 10.853312 -5.194784
v 2.105529 -0.773723 5.083200
v 3.890511 -0.773722 3.890513
v 3.890513 -0.773721 -3.890512
v -3.975917 10.853312 -3.975915
v -0.000000 10.853311 5.622798
v 0.000000 -0.773723 5.502016
v 3.123857 10.853311 4.675186
v 5.514755 10.853312 1.096956
v 5.083199 4.920095 2.105532
v 5.396295 -0.773722 1.073391
v -2.105531 -0.773721 -5.083199
v 2.105531 4.920097 -5.083198
v 1.073391 -0.773721 -5.396295
v 1.096953 10.853312 -5.514753
v 0.000000 4.920097 -5.502015
v 5.083200 4.920096 -2.105529
v -5.194786 10.853312 -2.151749
v 2.105529 4.920095 5.083201
v 3.890511 4.920095 3.890514
v 3.890512 4.920096 -3.890511
v -5.083200 -0.773721 -2.105529
v -2.105529 -0.773723 5.083200
v -3.890511 -0.773722 3.890513
v 4.675184 10.853312 -3.123856
v 5.502015 4.920096 0.000002
v -3.890513 -0.773721 -3.890512
v 3.056756 -0.773721 -4.574758
v 4.675183 10.853311 3.123860
v 4.574759 -0.773721 -3.056755
v 5.514755 10.853312 -1.096951
v -3.123857 10.853311 4.675186
v -5.514755 10.853312 1.096956
v -5.083199 4.920095 2.105532
v 4.574758 -0.773722 3.056757
v 1.096952 10.853311 5.514758
v 3.056755 -0.773723 4.574760
v 5.396296 -0.773722 -1.073389
v -5.396295 -0.773722 1.073391
v 1.073388 -0.773723 5.396297
v -2.105531 4.920097 -5.083198
v 3.123858 10.853312 -4.675182
v 0.000000 4.920095 5.502017
v -1.073391 -0.773721 -5.396295
v 1.073389 4.920095 5.396297
v -1.096953 10.853312 -5.514753
v -5.083200 4.920096 -2.105529
v -2.105529 4.920095 5.083201
v 3.056756 4.920097 -4.574757
v 4.574759 4.920096 -3.056755
v 4.574758 4.920095 3.056757
v 3.056755 4.920095 4.574760
v -3.890511 4.920095 3.890514
v -3.890512 4.920096 -3.890511
v -4.675184 10.853312 -3.123856
v 5.396296 4.920096 -1.073388
v 1.073390 4.920097 -5.396295
v -5.502015 4.920096 0.000002
v 5.396295 4.920096 1.073392
v -0.353959 13.856889 0.000002
v -3.056756 -0.773721 -4.574758
v -4.675183 10.853311 3.123860
v -4.574759 -0.773721 -3.056755
v -5.514755 10.853312 -1.096951
v -4.574758 -0.773722 3.056757
v -1.096952 10.853311 5.514758
v -3.056755 -0.773723 4.574760
v -5.396296 -0.773722 -1.073389
v -1.073388 -0.773723 5.396297
v -3.123858 10.853312 -4.675182
v -1.073389 4.920095 5.396297
v -3.056756 4.920097 -4.574757
v -4.574759 4.920096 -3.056755
v -4.574758 4.920095 3.056757
v -3.056755 4.920095 4.574760
v -5.396296 4.920096 -1.073388
v -1.073390 4.920097 -5.396295
v -5.396295 4.920096 1.073392
v 0.000000 10.579893 -5.502014
v -3.890512 10.579893 -3.890510
v 5.083199 10.579892 2.105532
v 2.105530 10.579893 -5.083198
v 5.083199 10.579892 -2.105528
v -5.083199 10.579892 -2.105528
v -3.890512 10.579891 3.890515
v 2.105530 10.579891 5.083201
v 3.890512 10.579891 3.890515
v 3.890512 10.579893 -3.890510
v 5.502015 10.579892 0.000002
v -5.083199 10.579892 2.105532
v -5.502015 10.579892 0.000002
v 0.000000 10.579891 5.502017
v 1.073389 10.579891 5.396298
v -2.105530 10.579893 -5.083198
v -3.056756 10.579893 -4.574757
v 3.056756 10.579893 -4.574757
v 4.574759 10.579893 -3.056754
v 4.574758 10.579891 3.056758
v 3.056755 10.579891 4.574761
v -4.574759 10.579893 -3.056754
v -4.574758 10.579891 3.056758
v -2.105530 10.579891 5.083201
v -3.056755 10.579891 4.574761
v 5.396296 10.579892 -1.073388
v 1.073390 10.579893 -5.396294
v 5.396295 10.579892 1.073392
v -1.073390 10.579893 -5.396294
v -1.073389 10.579891 5.396298
v -5.396296 10.579892 -1.073388
v -5.396295 10.579892 1.073392
v 0.250287 13.376671 -0.250285
v -0.250287 13.376671 -0.250285
v 0.000000 13.856889 0.353961
v -0.250287 13.376671 0.250289
v 0.250287 13.376671 0.250289
v 0.353959 13.856889 0.000002
v 0.250287 13.856889 0.250289
vt 0.835938 0.398438
vt 0.835938 0.398438
vt 0.835938 0.445312
vt 0.835938 0.398438
vt 0.835938 0.398438
vt 0.835938 0.445312
vt 0.835938 0.445312
vt 0.835938 0.445312
vt 0.835938 0.367188
vt 0.835938 0.367188
vt 0.835938 0.367188
vt 0.835938 0.398438
vt 0.835938 0.398438
vt 0.835938 0.445312
vt 0.835938 0.492188
vt 0.835938 0.476562
vt 0.835938 0.476562
vt 0.835938 0.398438
vt 0.835938 0.398438
vt 0.835938 0.445312
vt 0.835938 0.445312
vt 0.835938 0.398438
vt 0.835938 0.398438
vt 0.835938 0.398438
vt 0.835938 0.398438
vt 0.835938 0.476562
vt 0.835938 0.492188
vt 0.835938 0.476562
vt 0.835938 0.398438
vt 0.835938 0.398438
vt 0.835938 0.445312
vt 0.835938 0.367188
vt 0.835938 0.367188
vt 0.835938 0.367188
vt 0.835937 0.398437
vt 0.835938 0.398438
vt 0.835938 0.398438
vt 0.835938 0.398438
vt 0.835938 0.398438
vt 0.835937 0.445312
vt 0.835938 0.429688
vt 0.835938 0.429688
vt 0.835938 0.445312
vt 0.835938 0.445312
vt 0.835938 0.445312
vt 0.835938 0.445312
vt 0.835938 0.445312
vt 0.835938 0.445312
vt 0.835938 0.429688
vt 0.835938 0.429688
vt 0.835938 0.398438
vt 0.835938 0.382812
vt 0.835938 0.398438
vt 0.835938 0.382812
vt 0.835938 0.398438
vt 0.835938 0.398438
vt 0.835938 0.429688
vt 0.835938 0.445312
vt 0.835938 0.429688
vt 0.835937 0.398437
vt 0.835938 0.398438
vt 0.835938 0.398438
vt 0.835938 0.398438
vt 0.835938 0.429688
vt 0.835938 0.398438
vt 0.835938 0.398438
vt 0.835938 0.398438
vt 0.835938 0.445312
vt 0.835938 0.445312
vt 0.835938 0.492188
vt 0.835938 0.476562
vt 0.835938 0.398438
vt 0.835938 0.398438
vt 0.835938 0.398438
vt 0.835938 0.398438
vt 0.835938 0.398438
vt 0.835938 0.398438
vt 0.835938 0.398438
vt 0.835938 0.398438
vt 0.835938 0.398438
vt 0.835938 0.398438
vt 0.835938 0.367188
vt 0.835938 0.367188
vt 0.835938 0.367188
vt 0.835938 0.398438
vt 0.835938 0.429688
vt 0.835938 0.445312
vt 0.835938 0.429688
vt 0.835938 0.382812
vt 0.835938 0.382812
vt 0.835938 0.492188
vt 0.835938 0.476562
vt 0.835938 0.476562
vt 0.835938 0.445312
vt 0.835938 0.476563
vt 0.835938 0.445312
vt 0.835938 0.476562
vt 0.835938 0.492188
vt 0.835938 0.476562
vt 0.835938 0.445313
vt 0.835938 0.382812
vt 0.835938 0.398438
vt 0.835938 0.398438
vt 0.835938 0.445312
vt 0.835938 0.398438
vt 0.835938 0.398438
vt 0.835938 0.398438
vt 0.835938 0.382812
vt 0.835938 0.367188
vt 0.835938 0.398438
vt 0.835938 0.445313
vt 0.835938 0.429688
vt 0.835937 0.398437
vt 0.835938 0.398438
vt 0.835938 0.398438
vt 0.835938 0.382812
vt 0.835938 0.398438
vt 0.835937 0.398437
vt 0.835938 0.382812
vt 0.835938 0.398438
vt 0.835938 0.398438
vt 0.835938 0.398438
vt 0.835938 0.429688
vt 0.835938 0.367188
vt 0.835938 0.429688
vt 0.835938 0.445312
vt 0.835938 0.367188
vt 0.835938 0.382812
vt 0.835938 0.382812
vt 0.835938 0.476562
vt 0.835938 0.382812
vt 0.835938 0.367188
vt 0.835938 0.476562
vt 0.835938 0.445312
vt 0.835938 0.367188
vt 0.835938 0.367188
vt 0.835938 0.367188
vt 0.835938 0.367188
vt 0.835938 0.445312
vt 0.835938 0.382812
vt 0.835938 0.382812
vt 0.835938 0.382812
vt 0.835938 0.382812
vt 0.835938 0.382812
vt 0.835938 0.382812
vt 0.835938 0.382812
vt 0.835938 0.382812
vt 0.835938 0.382812
vt 0.835938 0.382812
vt 0.835938 0.382812
vt 0.835938 0.382812
vt 0.835938 0.382812
vt 0.835938 0.382812
vt 0.835938 0.382812
vt 0.835938 0.382812
vt 0.835938 0.382812
vt 0.835938 0.382812
vt 0.835938 0.382812
vt 0.835938 0.382812
vt 0.835938 0.382812
vt 0.835938 0.382812
vt 0.835938 0.382812
vt 0.835938 0.382812
vt 0.835938 0.382812
vt 0.835938 0.382812
vt 0.835938 0.382812
vt 0.835938 0.382812
vt 0.835938 0.382812
vt 0.835938 0.382812
vt 0.835938 0.382812
vt 0.835938 0.382812
vt 0.835938 0.382812
vt 0.835938 0.382812
vt 0.835938 0.382812
vt 0.835938 0.382812
vt 0.835938 0.382812
vt 0.835938 0.382812
vt 0.835938 0.382812
vt 0.835938 0.382812
vt 0.835938 0.382812
vt 0.835938 0.382812
vt 0.835938 0.382812
vt 0.835938 0.382812
vt 0.835938 0.382812
vt 0.835938 0.382812
vt 0.835938 0.382812
vt 0.835938 0.382812
vt 0.835938 0.382812
vt 0.835938 0.382812
vt 0.835938 0.382812
vt 0.835938 0.382812
vt 0.835938 0.382812
vt 0.835938 0.382812
vt 0.835938 0.382812
vt 0.835938 0.382812
vt 0.835938 0.445312
vt 0.835938 0.382812
vt 0.835938 0.398438
vt 0.835938 0.492188
vt 0.835938 0.367188
vt 0.835938 0.382812
vt 0.835938 0.382812
vt 0.835938 0.382812
vt 0.835938 0.382812
vn 0.2332 0.9068 0.3512
vn 0.2998 0.9052 0.3013
vn 0.3487 0.9372 0.0000
vn 0.4231 0.9021 0.0845
vn 0.4319 0.9019 -0.0000
vn 0.0000 1.0000 0.0000
vn 0.9808 -0.0000 0.1951
vn 1.0000 -0.0000 0.0000
vn -0.2998 0.9052 -0.3013
vn -0.3554 0.9038 -0.2385
vn -0.3487 0.9372 0.0000
vn 0.0000 -0.2091 -0.9779
vn -0.1951 0.0000 -0.9808
vn -0.1908 -0.2091 -0.9591
vn -0.4231 0.9021 0.0845
vn -0.4319 0.9019 -0.0000
vn 0.0000 0.0000 1.0000
vn -0.7071 0.0000 0.7071
vn -0.3972 0.9028 -0.1651
vn -0.4231 0.9021 -0.0845
vn 0.1663 0.9049 -0.3919
vn 0.2332 0.9068 -0.3512
vn 0.1951 0.0000 -0.9808
vn -0.0000 0.0000 -1.0000
vn 0.3972 0.9028 -0.1651
vn 0.4231 0.9021 -0.0845
vn 0.9808 0.0000 -0.1951
vn -0.6915 -0.2091 -0.6915
vn -0.8315 0.0000 -0.5556
vn -0.8131 -0.2091 -0.5433
vn -0.1663 0.9049 0.3919
vn -0.2332 0.9068 0.3512
vn -0.3742 -0.2091 -0.9034
vn -0.5556 0.0000 -0.8315
vn -0.5433 -0.2091 -0.8131
vn -1.0000 0.0000 0.0000
vn 0.7071 0.0000 -0.7071
vn -0.3827 0.0000 -0.9239
vn 0.3827 -0.0000 0.9239
vn 0.5556 -0.0000 0.8315
vn 0.8315 -0.0000 0.5556
vn 0.9239 -0.0000 0.3827
vn 0.9239 0.0000 -0.3827
vn 0.8315 0.0000 -0.5556
vn 0.5556 0.0000 -0.8315
vn 0.3827 0.0000 -0.9239
vn -0.8131 -0.2091 0.5433
vn -0.6915 -0.2091 0.6915
vn -0.7071 0.0000 -0.7071
vn -0.0000 0.9321 -0.3622
vn -0.0845 0.9021 -0.4231
vn -0.1663 0.9049 -0.3919
vn 0.7071 0.0000 0.7071
vn 0.1663 0.9049 0.3919
vn 0.3269 0.8868 0.3268
vn 0.0845 0.9021 0.4231
vn 0.0000 0.9321 0.3622
vn 0.3554 0.9038 0.2385
vn 0.3972 0.9028 0.1651
vn 0.2998 0.9052 -0.3013
vn 0.3554 0.9038 -0.2385
vn 0.3269 0.8868 -0.3268
vn 0.0000 0.9019 -0.4319
vn 0.0845 0.9021 -0.4231
vn -0.3554 0.9038 0.2385
vn -0.3972 0.9028 0.1651
vn -0.9779 -0.2091 0.0000
vn -0.9808 -0.0000 0.1951
vn -0.9591 -0.2091 0.1908
vn -0.2332 0.9068 -0.3512
vn -0.5556 -0.0000 0.8315
vn -0.3827 -0.0000 0.9239
vn -0.9239 0.0000 -0.3827
vn 0.1951 -0.0000 0.9808
vn 0.1908 -0.2091 0.9591
vn 0.3742 -0.2091 0.9034
vn -0.3269 0.8868 0.3268
vn -0.1951 -0.0000 0.9808
vn -0.0000 -0.2091 0.9779
vn -0.1908 -0.2091 0.9591
vn -0.3742 -0.2091 0.9034
vn -0.9239 -0.0000 0.3827
vn -0.8315 -0.0000 0.5556
vn 0.0000 0.9019 0.4319
vn -0.2998 0.9052 0.3013
vn -0.0845 0.9021 0.4231
vn -0.9034 -0.2091 -0.3742
vn -0.9808 -0.0000 -0.1951
vn 0.3742 -0.2091 -0.9034
vn 0.5433 -0.2091 -0.8131
vn 0.6915 -0.2091 -0.6915
vn 0.9034 -0.2091 -0.3742
vn 0.8131 -0.2091 -0.5433
vn 0.8131 -0.2091 0.5433
vn 0.9034 -0.2091 0.3742
vn 0.6915 -0.2091 0.6915
vn 0.5433 -0.2091 0.8131
vn -0.9591 -0.2091 -0.1908
vn -0.5433 -0.2091 0.8131
vn -0.3269 0.8868 -0.3268
vn -0.9034 -0.2091 0.3742
vn 0.9591 -0.2091 -0.1908
vn 0.1908 -0.2091 -0.9591
vn 0.9779 -0.2091 0.0000
vn 0.9591 -0.2091 0.1908
vn 0.8972 -0.4041 0.1785
vn 0.8451 -0.4041 0.3501
vn 0.9147 -0.4041 0.0000
vn -0.8972 -0.4041 -0.1785
vn -0.8451 -0.4041 -0.3500
vn 0.1785 -0.4041 -0.8972
vn 0.3501 -0.4041 -0.8451
vn 0.0000 -0.4041 -0.9147
vn 0.8972 -0.4041 -0.1785
vn 0.8451 -0.4041 -0.3500
vn -0.8972 -0.4041 0.1785
vn -0.8451 -0.4041 0.3501
vn -0.3501 -0.4041 0.8451
vn -0.5082 -0.4041 0.7606
vn -0.6468 -0.4041 0.6468
vn -0.9147 -0.4041 0.0000
vn 0.3501 -0.4041 0.8451
vn 0.5082 -0.4041 0.7606
vn 0.6468 -0.4041 0.6468
vn 0.7606 -0.4041 0.5082
vn 0.7606 -0.4041 -0.5082
vn 0.6468 -0.4041 -0.6468
vn 0.5082 -0.4041 -0.7606
vn -0.7606 -0.4041 0.5082
vn -0.7606 -0.4041 -0.5082
vn -0.1785 -0.4041 0.8972
vn 0.0000 -0.4041 0.9147
vn 0.1785 -0.4041 0.8972
vn -0.5082 -0.4041 -0.7606
vn -0.6468 -0.4041 -0.6468
vn -0.1785 -0.4041 -0.8972
vn -0.3501 -0.4041 -0.8451
s 1
f 35/1/1 2/2/2 3/3/3
f 36/4/4 5/5/5 3/3/3
f 140/6/6 25/7/6 7/8/6
f 38/9/7 53/10/8 86/11/7
f 32/12/9 82/13/10 13/14/11
f 106/15/12 104/16/13 134/17/14
f 60/18/15 13/14/11 15/19/16
f 6/20/17 7/8/18 141/21/18
f 45/22/19 91/23/20 13/14/11
f 16/24/21 3/3/3 69/25/22
f 41/26/23 43/27/24 84/28/23
f 21/29/25 3/3/3 58/30/26
f 25/7/6 87/31/6 7/8/6
f 83/32/27 10/33/8 65/34/27
f 107/35/28 100/36/29 127/37/30
f 11/38/31 13/14/11 59/39/32
f 121/40/33 99/41/34 122/42/35
f 141/21/18 87/31/36 13/14/36
f 22/43/24 23/44/37 138/45/37
f 104/16/13 39/46/38 68/47/38
f 134/17/14 68/47/38 121/40/33
f 46/48/39 64/49/40 79/50/40
f 62/51/41 37/52/42 78/53/41
f 44/54/43 57/55/44 77/56/44
f 55/57/45 40/58/46 76/59/45
f 128/60/47 80/61/18 112/62/48
f 81/63/49 88/64/34 54/65/49
f 107/35/28 99/41/34 81/63/49
f 22/43/50 73/66/51 28/67/52
f 3/3/8 144/68/53 142/69/53
f 104/16/13 19/70/24 71/71/13
f 1/72/54 3/3/3 142/69/55
f 63/73/56 1/72/54 6/20/57
f 56/74/58 4/75/59 3/3/3
f 17/76/60 3/3/3 52/77/61
f 138/45/62 3/3/3 16/24/21
f 20/78/63 22/43/50 42/79/64
f 89/80/65 13/14/11 14/81/66
f 118/82/67 105/83/68 137/84/69
f 28/67/52 97/85/70 13/14/11
f 94/86/71 75/87/72 102/88/71
f 100/36/29 49/89/73 74/90/73
f 70/91/17 67/92/74 72/93/74
f 72/93/74 29/94/39 46/48/39
f 120/95/75 46/48/39 113/96/76
f 120/95/75 70/91/17 72/93/74
f 11/38/31 6/20/57 141/21/77
f 98/97/78 119/98/79 135/99/80
f 75/87/72 135/99/80 129/100/81
f 61/101/82 92/102/83 101/103/83
f 138/45/37 143/104/8 3/3/8
f 22/43/50 16/24/21 42/79/64
f 3/3/3 21/29/25 52/77/61
f 2/2/2 56/74/58 3/3/3
f 33/105/84 63/73/56 6/20/57
f 68/47/38 88/64/34 99/41/34
f 13/14/11 82/13/10 45/22/19
f 12/106/85 13/14/11 89/80/65
f 93/107/86 6/20/57 11/38/31
f 20/78/63 73/66/51 22/43/50
f 54/65/49 100/36/29 81/63/49
f 33/105/84 6/20/57 93/107/86
f 100/36/29 111/108/87 127/37/30
f 49/89/73 103/109/88 74/90/73
f 101/103/83 51/110/18 80/61/18
f 128/60/47 61/101/82 101/103/83
f 76/59/45 109/111/89 123/112/90
f 115/113/91 76/59/45 123/112/90
f 48/114/37 55/57/45 76/59/45
f 77/56/44 31/115/37 48/114/37
f 115/113/91 77/56/44 48/114/37
f 110/116/92 77/56/44 124/117/93
f 125/118/94 37/52/42 108/119/95
f 47/120/53 125/118/94 114/121/96
f 30/122/53 78/53/41 47/120/53
f 79/50/40 30/122/53 47/120/53
f 126/123/97 47/120/53 114/121/96
f 113/96/76 79/50/40 126/123/97
f 103/109/88 118/82/67 136/124/98
f 80/61/18 130/125/99 112/62/48
f 102/88/71 129/100/81 130/125/99
f 13/14/11 97/85/70 32/12/9
f 13/14/11 91/23/20 15/19/16
f 28/67/52 13/14/11 139/126/100
f 59/39/32 13/14/11 12/106/85
f 61/101/82 66/127/68 26/128/82
f 117/129/101 105/83/68 61/101/82
f 96/130/78 70/91/17 98/97/78
f 51/110/18 102/88/71 80/61/18
f 44/54/43 65/34/27 24/131/43
f 131/132/102 44/54/43 110/116/92
f 131/132/102 53/10/8 83/32/27
f 3/3/3 5/5/5 58/30/26
f 84/28/23 106/15/12 132/133/103
f 40/58/46 132/133/103 109/111/89
f 18/134/46 84/28/23 40/58/46
f 3/3/3 17/76/60 69/25/22
f 139/126/49 25/7/24 22/43/24
f 14/81/66 13/14/11 60/18/15
f 95/135/88 85/136/36 103/109/88
f 74/90/73 136/124/98 111/108/87
f 85/136/36 66/127/68 105/83/68
f 86/11/7 116/137/104 133/138/105
f 37/52/42 133/138/105 108/119/95
f 37/52/42 38/9/7 86/11/7
f 4/75/59 36/4/4 3/3/3
f 1/72/54 35/1/1 3/3/3
f 140/6/6 143/104/6 23/44/6
f 50/139/72 98/97/78 75/87/72
f 108/119/95 36/140/106 4/141/107
f 133/142/105 5/143/108 36/140/106
f 111/108/87 91/144/109 45/145/110
f 109/146/89 42/147/111 16/148/112
f 132/149/103 20/150/113 42/147/111
f 5/143/108 131/151/102 58/152/114
f 58/152/114 110/116/92 21/153/115
f 60/154/116 117/129/101 14/155/117
f 130/156/99 11/157/118 59/158/119
f 112/159/48 59/158/119 12/160/120
f 136/161/98 15/162/121 91/144/109
f 1/163/122 126/164/97 35/165/123
f 35/165/123 114/166/96 2/167/124
f 2/167/124 125/168/94 56/169/125
f 56/169/125 108/119/95 4/141/107
f 21/153/115 124/170/93 52/171/126
f 17/172/127 124/170/93 115/173/91
f 115/173/91 69/174/128 17/172/127
f 69/174/128 109/146/89 16/148/112
f 89/175/129 117/129/101 128/176/47
f 127/177/30 45/145/110 82/178/130
f 11/157/118 135/179/80 93/180/131
f 93/180/131 119/181/79 33/182/132
f 63/183/133 119/181/79 120/184/75
f 1/163/122 120/184/75 113/185/76
f 15/162/121 137/186/69 60/154/116
f 97/187/134 107/188/28 32/189/135
f 12/160/120 128/176/47 112/159/48
f 73/190/136 121/191/33 28/192/137
f 28/192/137 122/193/35 97/187/134
f 32/189/135 127/177/30 82/178/130
f 73/190/136 106/194/12 134/195/14
f 142/69/53 140/6/17 6/20/17
f 13/14/36 8/196/49 139/126/49
f 13/14/11 11/38/31 141/21/77
f 6/20/57 1/72/54 142/69/55
f 22/43/50 138/45/62 16/24/21
f 22/43/50 28/67/52 139/126/100
f 140/6/6 23/44/6 25/7/6
f 38/9/7 10/33/8 53/10/8
f 106/15/12 43/27/24 104/16/13
f 6/20/17 140/6/17 7/8/18
f 41/26/23 19/70/24 43/27/24
f 25/7/6 8/196/6 87/31/6
f 83/32/27 53/10/8 10/33/8
f 107/35/28 81/63/49 100/36/29
f 121/40/33 68/47/38 99/41/34
f 141/21/18 7/8/18 87/31/36
f 22/43/24 25/7/24 23/44/37
f 104/16/13 71/71/13 39/46/38
f 134/17/14 104/16/13 68/47/38
f 46/48/39 29/94/39 64/49/40
f 62/51/41 9/197/42 37/52/42
f 44/54/43 24/131/43 57/55/44
f 55/57/45 18/134/46 40/58/46
f 128/60/47 101/103/83 80/61/18
f 81/63/49 99/41/34 88/64/34
f 107/35/28 122/42/35 99/41/34
f 3/3/8 143/104/8 144/68/53
f 104/16/13 43/27/24 19/70/24
f 118/82/67 85/136/36 105/83/68
f 94/86/71 50/139/72 75/87/72
f 100/36/29 90/198/29 49/89/73
f 70/91/17 34/199/17 67/92/74
f 72/93/74 67/92/74 29/94/39
f 120/95/75 72/93/74 46/48/39
f 120/95/75 119/98/79 70/91/17
f 98/97/78 70/91/17 119/98/79
f 75/87/72 98/97/78 135/99/80
f 61/101/82 26/128/82 92/102/83
f 138/45/37 23/44/37 143/104/8
f 68/47/38 39/46/38 88/64/34
f 54/65/49 90/198/29 100/36/29
f 100/36/29 74/90/73 111/108/87
f 49/89/73 95/135/88 103/109/88
f 101/103/83 92/102/83 51/110/18
f 128/60/47 117/129/101 61/101/82
f 76/59/45 40/58/46 109/111/89
f 115/113/91 48/114/37 76/59/45
f 48/114/37 31/115/37 55/57/45
f 77/56/44 57/55/44 31/115/37
f 115/113/91 124/117/93 77/56/44
f 110/116/92 44/54/43 77/56/44
f 125/118/94 78/53/41 37/52/42
f 47/120/53 78/53/41 125/118/94
f 30/122/53 62/51/41 78/53/41
f 79/50/40 64/49/40 30/122/53
f 126/123/97 79/50/40 47/120/53
f 113/96/76 46/48/39 79/50/40
f 103/109/88 85/136/36 118/82/67
f 80/61/18 102/88/71 130/125/99
f 102/88/71 75/87/72 129/100/81
f 61/101/82 105/83/68 66/127/68
f 117/129/101 137/84/69 105/83/68
f 96/130/78 34/199/17 70/91/17
f 51/110/18 94/86/71 102/88/71
f 44/54/43 83/32/27 65/34/27
f 131/132/102 83/32/27 44/54/43
f 131/132/102 116/137/104 53/10/8
f 84/28/23 43/27/24 106/15/12
f 40/58/46 84/28/23 132/133/103
f 18/134/46 41/26/23 84/28/23
f 139/126/49 8/196/49 25/7/24
f 95/135/88 27/200/36 85/136/36
f 74/90/73 103/109/88 136/124/98
f 85/136/36 27/200/36 66/127/68
f 86/11/7 53/10/8 116/137/104
f 37/52/42 86/11/7 133/138/105
f 37/52/42 9/197/42 38/9/7
f 140/6/6 144/68/6 143/104/6
f 50/139/72 96/130/78 98/97/78
f 108/119/95 133/142/105 36/140/106
f 133/142/105 116/201/104 5/143/108
f 111/108/87 136/161/98 91/144/109
f 109/146/89 132/149/103 42/147/111
f 132/149/103 106/194/12 20/150/113
f 5/143/108 116/201/104 131/151/102
f 58/152/114 131/151/102 110/116/92
f 60/154/116 137/186/69 117/129/101
f 130/156/99 129/202/81 11/157/118
f 112/159/48 130/156/99 59/158/119
f 136/161/98 118/203/67 15/162/121
f 1/163/122 113/185/76 126/164/97
f 35/165/123 126/164/97 114/166/96
f 2/167/124 114/166/96 125/168/94
f 56/169/125 125/168/94 108/119/95
f 21/153/115 110/116/92 124/170/93
f 17/172/127 52/171/126 124/170/93
f 115/173/91 123/204/90 69/174/128
f 69/174/128 123/204/90 109/146/89
f 89/175/129 14/155/117 117/129/101
f 127/177/30 111/108/87 45/145/110
f 11/157/118 129/202/81 135/179/80
f 93/180/131 135/179/80 119/181/79
f 63/183/133 33/182/132 119/181/79
f 1/163/122 63/183/133 120/184/75
f 15/162/121 118/203/67 137/186/69
f 97/187/134 122/193/35 107/188/28
f 12/160/120 89/175/129 128/176/47
f 73/190/136 134/195/14 121/191/33
f 28/192/137 121/191/33 122/193/35
f 32/189/135 107/188/28 127/177/30
f 73/190/136 20/150/113 106/194/12
f 142/69/53 144/68/53 140/6/17
f 13/14/36 87/31/36 8/196/49
