# Blender v2.90.0 Alpha OBJ File: ''
# www.blender.org
mtllib smokestack1-simple.mtl
o Cube.005_Cube.007
v 1.165215 22.746904 0.000012
v -1.165215 22.746904 0.000012
v 0.000000 22.746904 -1.165203
v 0.000000 22.746904 1.165226
v -1.701112 -0.774778 -0.000000
v 1.701112 -0.774778 -0.000000
v 0.000000 -0.774778 -1.701112
v 0.000000 -0.774779 1.701111
vt 0.023438 0.898438
vt 0.023438 0.898438
vt 0.023438 0.898438
vt 0.023438 0.898438
vt 0.039062 0.867188
vt 0.039062 0.851562
vt 0.039062 0.851562
vt 0.039062 0.867188
vt 0.039062 0.851562
vt 0.039062 0.867188
vt 0.039062 0.867188
vt 0.039062 0.851562
vn 0.0000 1.0000 0.0000
vn -0.0000 0.0410 -0.9992
vn 0.0000 0.0067 -1.0000
vn -1.0000 0.0067 -0.0000
vn -0.9992 0.0410 0.0000
vn -0.0000 0.0067 1.0000
vn 0.0000 0.0410 0.9992
vn 0.9992 0.0410 0.0000
vn 1.0000 0.0067 -0.0000
usemtl Material.001
s off
f 2/1/1 1/2/1 3/3/1
f 1/2/1 2/1/1 4/4/1
s 1
f 3/5/2 7/6/3 5/7/4 2/8/5
f 2/8/5 5/7/4 8/9/6 4/10/7
f 1/11/8 4/10/7 8/9/6 6/12/9
f 1/11/8 6/12/9 7/6/3 3/5/2
