# Blender v2.90.0 Alpha OBJ File: ''
# www.blender.org
mtllib smokestack3-simple.mtl
o Cube.005_Cube.004
v 1.704503 22.746904 0.000012
v 1.408568 22.746904 0.000012
v -1.704503 22.746904 0.000012
v -1.408568 22.746904 0.000012
v 0.000000 22.746904 -1.704491
v 0.000000 22.746904 -1.408556
v -1.175316 22.100183 0.000011
v 1.175316 22.100183 0.000011
v -0.000000 22.100183 -1.175305
v 0.000000 22.746904 1.704515
v 0.000000 22.746904 1.408580
v -0.000000 22.100183 0.000011
v -0.000000 22.100183 1.175326
v 1.296919 19.736465 0.000009
v -1.296919 19.736465 0.000009
v 0.000000 19.736465 1.296928
v 0.000000 19.736465 -1.296910
v -1.704503 -0.774778 -0.000000
v 1.704503 -0.774778 -0.000000
v 0.000000 -0.774778 -1.704503
v 0.000000 -0.774779 1.704503
vt 0.039062 0.851562
vt 0.039062 0.851562
vt 0.039062 0.851562
vt 0.039062 0.851562
vt 0.039062 0.851562
vt 0.039062 0.851562
vt 0.039062 0.851562
vt 0.039062 0.851562
vt 0.039062 0.851562
vt 0.039062 0.851562
vt 0.039062 0.851562
vt 0.039062 0.851562
vt 0.039062 0.851562
vt 0.039062 0.726562
vt 0.054688 0.726562
vt 0.054688 0.726562
vt 0.039062 0.726562
vt 0.039062 0.726562
vt 0.039062 0.726562
vt 0.039062 0.726562
vt 0.039062 0.726562
vt 0.039062 0.726562
vt 0.054688 0.726562
vt 0.054688 0.726562
vt 0.039062 0.726562
vt 0.039062 0.726562
vt 0.039062 0.726562
vt 0.039062 0.726562
vt 0.039062 0.726562
vn 0.0000 1.0000 0.0000
vn 0.3630 0.3161 0.8765
vn 0.8765 0.3161 0.3630
vn -0.3630 0.3161 -0.8765
vn -0.8765 0.3161 -0.3630
vn -0.8765 0.3161 0.3630
vn -0.3630 0.3161 0.8765
vn 0.8765 0.3161 -0.3630
vn 0.3630 0.3161 -0.8765
vn -0.8738 -0.4863 -0.0000
vn -0.9968 0.0800 0.0000
vn 0.0000 0.0800 0.9968
vn 0.0000 -0.4863 0.8738
vn -0.0000 0.0800 -0.9968
vn 0.9968 0.0800 0.0000
vn 1.0000 -0.0000 -0.0000
vn 0.0000 -0.0000 -1.0000
vn 0.8738 -0.4863 -0.0000
vn 0.0000 -0.4863 -0.8738
vn -0.0000 -0.0000 1.0000
vn -1.0000 -0.0000 -0.0000
usemtl Material.001
s off
f 3/1/1 10/2/1 11/3/1 4/4/1
f 1/5/1 5/6/1 6/7/1 2/8/1
f 6/7/2 4/4/3 7/9/3 9/10/2
f 11/3/4 2/8/5 8/11/5 13/12/4
f 2/8/6 6/7/7 9/10/7 8/11/6
f 5/6/1 3/1/1 4/4/1 6/7/1
f 4/4/8 11/3/9 13/12/9 7/9/8
f 12/13/1 7/9/1 13/12/1
f 8/11/1 12/13/1 13/12/1
f 8/11/1 9/10/1 12/13/1
f 9/10/1 7/9/1 12/13/1
f 10/2/1 1/5/1 2/8/1 11/3/1
s 1
f 3/14/10 15/15/11 16/16/12 10/17/13
f 17/18/14 14/19/15 19/20/16 20/21/17
f 1/22/18 14/23/15 17/24/14 5/25/19
f 14/19/15 16/26/12 21/27/20 19/20/16
f 5/25/19 17/24/14 15/15/11 3/14/10
f 1/22/18 10/17/13 16/16/12 14/23/15
f 15/28/11 18/29/21 21/27/20 16/26/12
f 15/28/11 17/18/14 20/21/17 18/29/21
