# Blender v2.90.0 Alpha OBJ File: ''
# www.blender.org
mtllib smokestack4.mtl
o Cube.005_Cube.008
v 1.205263 22.746904 1.205276
v 0.996006 22.746904 0.996019
v -1.205268 22.746904 -1.205255
v -0.996010 22.746904 -0.995997
v 1.205263 22.746904 -1.205255
v 0.996006 22.746904 -0.995997
v -0.996009 22.084644 -0.995998
v 0.996007 22.084644 0.996018
v 0.996007 22.084644 -0.995998
v -1.205268 22.746904 1.205276
v -0.996010 22.746904 0.996019
v -1.418555 21.657612 -1.418543
v -0.996009 22.084644 0.996018
v -1.481959 -0.774778 -1.481964
v 1.481972 -0.774779 1.481967
v 1.481972 -0.774778 -1.481964
v -1.481959 -0.774779 1.481967
v 1.418552 21.657612 1.418563
v 1.418552 21.657612 -1.418543
v -1.418555 21.657612 1.418563
v 1.418552 22.023762 -1.418543
v 1.418552 22.023762 1.418563
v -1.418555 22.023762 1.418563
v -1.418555 22.023762 -1.418543
v -1.418555 19.378172 -1.418543
v 1.418552 19.378172 1.418563
v 1.418552 19.378172 -1.418543
v -1.418555 19.378172 1.418563
v 1.418552 19.744322 -1.418543
v 1.418552 19.744322 1.418563
v -1.418555 19.744322 1.418563
v -1.418555 19.744322 -1.418543
v -1.675282 10.715767 -1.675270
v 1.675279 10.715767 1.675290
v 1.675279 10.715767 -1.675270
v -1.675282 10.715767 1.675290
v 1.675279 11.123663 -1.675270
v 1.675279 11.123663 1.675290
v -1.675282 11.123663 1.675290
v -1.675282 11.123663 -1.675270
v -1.804553 6.930930 -1.804541
v 1.804550 6.930929 1.804561
v 1.804550 6.930930 -1.804541
v -1.804553 6.930929 1.804561
v 1.804550 7.338826 -1.804541
v 1.804550 7.338825 1.804561
v -1.804553 7.338825 1.804561
v -1.804553 7.338826 -1.804541
v 1.205268 10.795207 -1.205259
v -1.205263 10.795207 -1.205259
v 1.205268 10.795207 1.205272
v -1.205263 10.795207 1.205272
v 1.481968 10.761649 1.481972
v -1.481964 10.761649 1.481972
v 1.481968 10.761649 -1.481959
v -1.481964 10.761649 -1.481959
v 1.481970 7.259928 1.481970
v -1.481961 7.259928 1.481970
v 1.481970 7.259929 -1.481961
v -1.481961 7.259929 -1.481961
v -0.727560 9.870364 1.481972
v 0.727565 9.870364 1.481972
v 0.727566 8.151214 1.481971
v -0.727559 8.151214 1.481971
v -1.481962 8.151214 -0.727558
v -1.481963 9.870364 -0.727556
v -1.481963 9.870364 0.727569
v -1.481962 8.151214 0.727568
v 0.727566 8.151214 -1.481961
v 0.727565 9.870364 -1.481959
v -0.727559 8.151214 -1.481961
v -0.727560 9.870364 -1.481959
v 1.481969 8.151214 -0.727558
v 1.481968 9.870364 -0.727556
v 1.481968 9.870364 0.727569
v 1.481969 8.151214 0.727568
v -0.727560 9.870364 0.969837
v 0.727565 9.870364 0.969837
v 0.727566 8.151214 0.969836
v -0.727559 8.151214 0.969836
v -0.969827 8.151214 -0.727558
v -0.969828 9.870364 -0.727556
v -0.969828 9.870364 0.727569
v -0.969827 8.151214 0.727568
v 0.727566 8.151214 -0.969826
v 0.727565 9.870364 -0.969825
v -0.727559 8.151214 -0.969826
v -0.727560 9.870364 -0.969825
v 0.969835 8.151214 -0.727558
v 0.969833 9.870364 -0.727556
v 0.969833 9.870364 0.727569
v 0.969835 8.151214 0.727568
v 1.205265 19.401762 -1.205256
v -1.205267 19.401762 -1.205256
v 1.205265 19.401762 1.205275
v -1.205267 19.401762 1.205275
v 0.956461 19.401762 1.205275
v 0.956463 10.795207 1.205273
v -0.956462 19.401762 1.205275
v -0.956460 10.795207 1.205273
v -1.205266 19.401762 0.956471
v -1.205264 10.795207 0.956468
v -1.205264 10.795207 -0.956454
v -1.205266 19.401762 -0.956452
v 0.956463 10.795207 -1.205259
v -0.956460 10.795207 -1.205259
v 0.956461 19.401762 -1.205256
v -0.956462 19.401762 -1.205256
v 1.205265 19.401762 0.956471
v 1.205267 10.795207 0.956468
v 1.205267 10.795207 -0.956454
v 1.205265 19.401762 -0.956452
vt 0.054688 0.726562
vt 0.054688 0.726562
vt 0.054688 0.726562
vt 0.054688 0.726562
vt 0.054688 0.726562
vt 0.054688 0.726562
vt 0.054688 0.726562
vt 0.054688 0.726562
vt 0.054688 0.726562
vt 0.054688 0.726562
vt 0.054688 0.726562
vt 0.054688 0.726562
vt 0.054688 0.789062
vt 0.054688 0.789062
vt 0.054688 0.789062
vt 0.054688 0.789062
vt 0.054688 0.726562
vt 0.054688 0.726562
vt 0.054688 0.726562
vt 0.054688 0.726562
vt 0.054688 0.726562
vt 0.054688 0.726562
vt 0.054688 0.726562
vt 0.054688 0.726562
vt 0.023438 0.773438
vt 0.023438 0.773438
vt 0.023438 0.773438
vt 0.023438 0.773438
vt 0.007812 0.726562
vt 0.007812 0.726562
vt 0.007812 0.726562
vt 0.007812 0.726562
vt 0.007812 0.726562
vt 0.007812 0.726562
vt 0.007812 0.726562
vt 0.007812 0.726562
vt 0.054688 0.726562
vt 0.054688 0.726562
vt 0.054688 0.726562
vt 0.054688 0.726562
vt 0.054688 0.726562
vt 0.054688 0.726562
vt 0.054688 0.726562
vt 0.054688 0.726562
vt 0.054688 0.726562
vt 0.054688 0.726562
vt 0.054688 0.726562
vt 0.054688 0.726562
vt 0.054688 0.726562
vt 0.054688 0.726562
vt 0.054688 0.726562
vt 0.054688 0.726562
vt 0.007812 0.726562
vt 0.007812 0.726562
vt 0.007812 0.726562
vt 0.007812 0.726562
vt 0.007812 0.726562
vt 0.007812 0.726562
vt 0.007812 0.726562
vt 0.007812 0.726562
vt 0.007812 0.726562
vt 0.007812 0.726562
vt 0.007812 0.726562
vt 0.007812 0.726562
vt 0.007812 0.773438
vt 0.007812 0.773438
vt 0.007812 0.773438
vt 0.007812 0.773438
vt 0.007812 0.773438
vt 0.007812 0.773438
vt 0.007812 0.773438
vt 0.007812 0.773438
vt 0.054688 0.726562
vt 0.054688 0.726562
vt 0.054688 0.726562
vt 0.054688 0.726562
vt 0.007812 0.726562
vt 0.007812 0.726562
vt 0.007812 0.726562
vt 0.007812 0.726562
vt 0.007812 0.726562
vt 0.007812 0.726562
vt 0.007812 0.726562
vt 0.007812 0.726562
vt 0.007812 0.726562
vt 0.007812 0.726562
vt 0.007812 0.726562
vt 0.007812 0.726562
vt 0.007812 0.726562
vt 0.007812 0.726562
vt 0.007812 0.726562
vt 0.007812 0.726562
vt 0.007812 0.726562
vt 0.007812 0.726562
vt 0.007812 0.726562
vt 0.007812 0.726562
vt 0.007812 0.726562
vt 0.007812 0.726562
vt 0.007812 0.726562
vt 0.007812 0.726562
vt 0.007812 0.726562
vt 0.007812 0.726562
vt 0.007812 0.726562
vt 0.007812 0.726562
vt 0.007812 0.726562
vt 0.007812 0.726562
vt 0.007812 0.726562
vt 0.007812 0.726562
vt 0.007812 0.726562
vt 0.007812 0.726562
vt 0.007812 0.726562
vt 0.007812 0.726562
vt 0.007812 0.726562
vt 0.007812 0.726562
vt 0.023438 0.773438
vt 0.023438 0.773438
vt 0.023438 0.773438
vt 0.023438 0.773438
vt 0.023438 0.773438
vt 0.023438 0.773438
vt 0.023438 0.773438
vt 0.023438 0.773438
vt 0.023438 0.773438
vt 0.023438 0.773438
vt 0.023438 0.773438
vt 0.023438 0.773438
vt 0.023438 0.773438
vt 0.023438 0.773438
vt 0.023438 0.773438
vt 0.023438 0.773438
vt 0.054688 0.726562
vt 0.054688 0.726562
vt 0.007812 0.726562
vt 0.007812 0.726562
vt 0.007812 0.773438
vt 0.007812 0.773438
vt 0.054688 0.726562
vt 0.054688 0.726562
vt 0.007812 0.773438
vt 0.007812 0.773438
vt 0.007812 0.773438
vt 0.007812 0.773438
vt 0.007812 0.726562
vt 0.007812 0.726562
vt 0.007812 0.726562
vt 0.007812 0.726562
vt 0.007812 0.773438
vt 0.007812 0.773438
vt 0.007812 0.773438
vt 0.007812 0.773438
vt 0.007812 0.773438
vt 0.007812 0.773438
vt 0.007812 0.726562
vt 0.007812 0.726562
vt 0.007812 0.726562
vt 0.007812 0.726562
vt 0.054688 0.726562
vt 0.054688 0.726562
vt 0.007812 0.773438
vt 0.007812 0.773438
vt 0.007812 0.726562
vt 0.007812 0.726562
vt 0.007812 0.726562
vt 0.007812 0.726562
vt 0.007812 0.773438
vt 0.007812 0.773438
vt 0.054688 0.726562
vt 0.054688 0.726562
vn 0.0000 1.0000 0.0000
vn -0.3827 -0.0000 0.9239
vn 0.3827 -0.0000 0.9239
vn 0.3827 0.0000 -0.9239
vn -0.3827 0.0000 -0.9239
vn -0.9239 -0.0000 -0.3827
vn -0.9239 -0.0000 0.3827
vn 0.9239 0.0000 0.3827
vn 0.9239 0.0000 -0.3827
vn -1.0000 0.0000 0.0000
vn 0.0000 0.0000 1.0000
vn 0.0000 -0.0000 -1.0000
vn 1.0000 0.0000 0.0000
vn 0.0000 -1.0000 0.0000
vn 0.0000 0.9927 0.1204
vn 0.1204 0.9927 0.0000
vn 0.0000 0.9927 -0.1204
vn -0.1204 0.9927 0.0000
vn 0.0000 -0.1986 0.9801
vn 0.0000 0.1986 -0.9801
usemtl Material.001
s off
f 3/1/1 10/2/1 11/3/1 4/4/1
f 1/5/1 5/6/1 6/7/1 2/8/1
f 6/7/2 4/4/3 7/9/3 9/10/2
f 11/3/4 2/8/5 8/11/5 13/12/4
f 2/8/6 6/7/7 9/10/7 8/11/6
f 5/6/1 3/1/1 4/4/1 6/7/1
f 4/4/8 11/3/9 13/12/9 7/9/8
f 9/13/1 7/14/1 13/15/1
f 8/16/1 9/13/1 13/15/1
f 10/2/1 1/5/1 2/8/1 11/3/1
f 22/17/1 21/18/1 23/19/1
f 21/18/1 24/20/1 23/19/1
f 12/21/10 20/22/10 23/19/10 24/20/10
f 20/22/11 18/23/11 22/17/11 23/19/11
f 19/24/12 12/21/12 24/20/12 21/18/12
f 18/23/13 19/24/13 21/18/13 22/17/13
f 30/25/1 29/26/1 31/27/1
f 29/26/1 32/28/1 31/27/1
f 25/29/10 28/30/10 31/31/10 32/32/10
f 28/30/11 26/33/11 30/34/11 31/31/11
f 27/35/12 25/29/12 32/32/12 29/36/12
f 26/33/13 27/35/13 29/36/13 30/34/13
f 38/37/1 37/38/1 39/39/1
f 37/38/1 40/40/1 39/39/1
f 33/41/10 36/42/10 39/39/10 40/40/10
f 36/42/11 34/43/11 38/37/11 39/39/11
f 35/44/12 33/41/12 40/40/12 37/38/12
f 34/43/13 35/44/13 37/38/13 38/37/13
f 46/45/1 45/46/1 47/47/1
f 45/46/1 48/48/1 47/47/1
f 41/49/10 44/50/10 47/47/10 48/48/10
f 44/50/11 42/51/11 46/45/11 47/47/11
f 43/52/12 41/49/12 48/48/12 45/46/12
f 42/51/13 43/52/13 45/46/13 46/45/13
s 1
f 58/53/10 60/54/10 14/55/10 17/56/10
f 60/54/12 59/57/12 16/58/12 14/55/12
f 59/57/13 57/59/13 15/60/13 16/58/13
f 57/59/11 58/53/11 17/56/11 15/60/11
f 52/61/14 51/62/14 98/63/14 100/64/14
f 95/65/13 51/66/13 110/67/13 109/68/13
f 93/69/12 49/70/12 105/71/12 107/72/12
f 96/73/14 94/74/14 104/75/14 101/76/14
f 51/62/15 52/61/15 54/77/15 53/78/15
f 49/79/16 51/62/16 53/78/16 55/80/16
f 50/81/17 49/79/17 55/80/17 56/82/17
f 52/61/18 50/81/18 56/82/18 54/77/18
f 58/53/11 57/59/11 63/83/11 64/84/11
f 55/80/13 53/78/13 75/85/13 74/86/13
f 60/54/12 56/82/12 72/87/12 71/88/12
f 54/77/10 56/82/10 66/89/10 67/90/10
f 70/91/10 69/92/10 85/93/10 86/94/10
f 57/59/11 53/78/11 62/95/11 63/83/11
f 53/78/11 54/77/11 61/96/11 62/95/11
f 54/77/11 58/53/11 64/84/11 61/96/11
f 63/83/10 62/95/10 78/97/10 79/98/10
f 56/82/10 60/54/10 65/99/10 66/89/10
f 60/54/10 58/53/10 68/100/10 65/99/10
f 58/53/10 54/77/10 67/90/10 68/100/10
f 66/89/11 65/99/11 81/101/11 82/102/11
f 59/57/12 60/54/12 71/88/12 69/92/12
f 56/82/12 55/80/12 70/91/12 72/87/12
f 55/80/12 59/57/12 69/92/12 70/91/12
f 62/95/14 61/96/14 77/103/14 78/97/14
f 53/78/13 57/59/13 76/104/13 75/85/13
f 59/57/13 55/80/13 74/86/13 73/105/13
f 57/59/13 59/57/13 73/105/13 76/104/13
f 78/97/11 77/103/11 80/106/11 79/98/11
f 83/107/10 82/102/10 81/101/10 84/108/10
f 88/109/12 86/94/12 85/93/12 87/110/12
f 90/111/13 91/112/13 92/113/13 89/114/13
f 67/90/14 66/89/14 82/102/14 83/107/14
f 73/105/11 74/86/11 90/111/11 89/114/11
f 61/96/13 64/84/13 80/106/13 77/103/13
f 71/88/13 72/87/13 88/109/13 87/110/13
f 68/100/12 67/90/12 83/107/12 84/108/12
f 74/86/14 75/85/14 91/112/14 90/111/14
f 64/115/1 63/116/1 79/117/1 80/118/1
f 72/87/14 70/91/14 86/94/14 88/109/14
f 65/119/1 68/120/1 84/121/1 81/122/1
f 75/85/12 76/104/12 92/113/12 91/112/12
f 69/123/1 71/124/1 87/125/1 85/126/1
f 76/127/1 73/128/1 89/129/1 92/130/1
f 10/2/10 3/1/10 94/74/10 96/73/10
f 3/1/12 5/6/12 93/131/12 94/74/12
f 5/6/13 1/5/13 95/132/13 93/131/13
f 97/133/11 99/134/11 100/64/11 98/63/11
f 51/66/11 95/65/11 97/135/11 98/136/11
f 95/132/19 96/73/19 99/137/19 97/138/19
f 96/139/11 52/140/11 100/141/11 99/142/11
f 101/143/10 104/144/10 103/145/10 102/146/10
f 50/81/14 52/61/14 102/146/14 103/145/14
f 52/140/10 96/139/10 101/147/10 102/148/10
f 94/149/10 50/150/10 103/151/10 104/152/10
f 108/153/12 107/154/12 105/155/12 106/156/12
f 94/74/20 93/131/20 107/157/20 108/158/20
f 50/150/12 94/149/12 108/159/12 106/160/12
f 49/79/1 50/81/1 106/156/1 105/155/1
f 112/161/13 109/162/13 110/163/13 111/164/13
f 49/70/13 93/69/13 112/165/13 111/166/13
f 51/62/1 49/79/1 111/164/1 110/163/1
f 93/131/1 95/132/1 109/167/1 112/168/1
f 1/5/11 10/2/11 96/73/11 95/132/11
