# Blender v2.90.0 Alpha OBJ File: ''
# www.blender.org
mtllib smokestack4-simple.mtl
o Cube.005_Cube.008
v 1.205263 22.746904 1.205276
v -1.205268 22.746904 -1.205255
v 1.205263 22.746904 -1.205255
v -1.205268 22.746904 1.205276
v -1.481959 -0.774778 -1.481964
v 1.481972 -0.774779 1.481967
v 1.481972 -0.774778 -1.481964
v -1.481959 -0.774779 1.481967
v 1.205268 10.795207 -1.205259
v -1.205263 10.795207 1.205272
v 1.481968 10.761649 1.481972
v -1.481964 10.761649 1.481972
v 1.481968 10.761649 -1.481959
v -1.481964 10.761649 -1.481959
v 1.205268 10.795207 1.205272
v -1.205263 10.795207 -1.205259
vt 0.054688 0.726562
vt 0.054688 0.726562
vt 0.054688 0.726562
vt 0.054688 0.726562
vt 0.007812 0.726562
vt 0.007812 0.726562
vt 0.007812 0.726562
vt 0.007812 0.726562
vt 0.007812 0.726562
vt 0.007812 0.726562
vt 0.007812 0.726562
vt 0.007812 0.726562
vt 0.007812 0.726562
vt 0.007812 0.726562
vt 0.007812 0.726562
vt 0.007812 0.726562
vt 0.007812 0.726562
vt 0.007812 0.726563
vt 0.007812 0.726562
vt 0.007812 0.726562
vn 0.3827 0.8767 -0.2915
vn 0.0000 0.7560 -0.6546
vn -0.0000 0.9974 0.0717
vn 0.2915 0.8767 0.3827
vn 0.2915 0.8767 -0.3827
vn -0.0717 0.9974 0.0000
vn -1.0000 -0.0000 0.0000
vn 0.0000 0.0000 -1.0000
vn 1.0000 0.0000 0.0000
vn 0.0000 0.9927 0.1204
vn 0.1204 0.9927 0.0000
vn 0.0000 0.9927 -0.1204
vn -0.1204 0.9927 0.0000
vn 0.0000 -0.0000 1.0000
usemtl Material.001
s off
f 4/1/1 1/2/2 3/3/3
f 2/4/4 4/1/5 3/3/6
s 1
f 8/5/7 12/6/7 14/7/7 5/8/7
f 14/7/8 13/9/8 7/10/8 5/8/8
f 13/9/9 11/11/9 6/12/9 7/10/9
f 15/13/10 10/14/10 12/6/10 11/11/10
f 9/15/11 15/13/11 11/11/11 13/9/11
f 16/16/12 9/15/12 13/9/12 14/7/12
f 10/14/13 16/16/13 14/7/13 12/6/13
f 11/11/14 12/6/14 8/5/14 6/12/14
f 1/17/14 4/18/14 10/14/14 15/13/14
f 4/18/7 2/19/7 16/16/7 10/14/7
f 2/19/8 3/20/8 9/15/8 16/16/8
f 3/20/9 1/17/9 15/13/9 9/15/9
