# Blender v2.90.0 Alpha OBJ File: 'Decos.blend'
# www.blender.org
o soccer-field
v -23.248528 -1.609639 16.423922
v -22.940006 -0.059687 16.205967
v -23.248528 -1.609633 -16.423922
v -22.940006 -0.059681 -16.205967
v 23.248528 -1.609639 16.423922
v 22.940006 -0.059687 16.205967
v 23.248528 -1.609633 -16.423922
v 22.940006 -0.059681 -16.205967
v -22.939653 -0.003694 16.203999
v -19.819839 -0.003693 13.201336
v -20.360226 -0.003693 13.600533
v -13.786329 -0.003692 7.654106
v -19.819839 -0.003692 7.339068
v -19.819839 -0.003692 7.654106
v -14.091301 -0.003692 7.339068
v -0.143934 -0.003692 3.831656
v -2.943079 -0.003691 2.636291
v -0.143934 -0.003692 3.559623
v -0.184775 -0.003693 13.201336
v -2.826135 -0.003691 2.483325
v -13.786329 -0.003692 3.839986
v -13.786329 -0.003692 3.519530
v -12.728242 -0.003691 2.416003
v -12.827420 -0.003691 2.251834
v 22.939653 -0.003694 16.203999
v 19.819839 -0.003693 13.201336
v 20.360226 -0.003693 13.600533
v 13.786329 -0.003692 7.654106
v 19.819839 -0.003692 7.339068
v 19.819839 -0.003692 7.654106
v 14.091301 -0.003692 7.339068
v 0.143934 -0.003692 3.831656
v 2.943079 -0.003691 2.636291
v 0.143934 -0.003692 3.559623
v 0.184775 -0.003693 13.201336
v 2.826135 -0.003691 2.483325
v 13.786329 -0.003692 3.839986
v 13.786329 -0.003692 3.519530
v 12.728242 -0.003691 2.416003
v 12.827420 -0.003691 2.251834
v -22.939653 -0.003688 -16.203999
v -19.819839 -0.003689 -13.201336
v -20.360226 -0.003689 -13.600533
v -13.786329 -0.003690 -7.654106
v -19.819839 -0.003690 -7.339068
v -19.819839 -0.003690 -7.654106
v -14.091301 -0.003690 -7.339068
v -0.131061 -0.003691 -0.000000
v -3.902520 -0.003691 -0.000000
v -0.143934 -0.003690 -3.831656
v -2.943079 -0.003691 -2.636291
v -0.143934 -0.003690 -3.559623
v -0.184775 -0.003689 -13.201336
v -2.826135 -0.003691 -2.483325
v -3.729694 -0.003691 -0.000000
v -12.345094 -0.003691 -0.000000
v -12.185112 -0.003691 -0.000000
v -13.786329 -0.003690 -3.839986
v -13.786329 -0.003690 -3.519530
v -12.728242 -0.003691 -2.416003
v -12.827420 -0.003691 -2.251834
v 22.939653 -0.003688 -16.203999
v 19.819839 -0.003689 -13.201336
v 20.360226 -0.003689 -13.600533
v 19.819839 -0.003690 -7.339068
v 13.786329 -0.003690 -7.654106
v 19.819839 -0.003690 -7.654106
v 13.786329 -0.003691 -0.000000
v 14.091301 -0.003690 -7.339068
v 0.131061 -0.003691 -0.000000
v 3.902520 -0.003691 -0.000000
v 0.143934 -0.003690 -3.831656
v 2.943079 -0.003691 -2.636291
v 0.143934 -0.003690 -3.559623
v 0.184775 -0.003689 -13.201336
v 2.826135 -0.003691 -2.483325
v 3.729694 -0.003691 -0.000000
v 12.345094 -0.003691 -0.000000
v 12.185112 -0.003691 -0.000000
v 13.786329 -0.003690 -3.839986
v 13.786329 -0.003690 -3.519530
v 12.728242 -0.003691 -2.416003
v 12.827420 -0.003691 -2.251834
vt 0.179688 0.851562
vt 0.179688 0.851562
vt 0.179688 0.851562
vt 0.179688 0.851562
vt 0.179688 0.851562
vt 0.179688 0.851562
vt 0.179688 0.851562
vt 0.179688 0.851562
vt 0.117188 0.789062
vt 0.117188 0.789062
vt 0.117188 0.789062
vt 0.117188 0.789062
vt 0.164062 0.851562
vt 0.164062 0.851562
vt 0.164062 0.851562
vt 0.117188 0.789062
vt 0.117188 0.789062
vt 0.164062 0.851562
vt 0.164062 0.851562
vt 0.164062 0.851562
vt 0.164062 0.851562
vt 0.164062 0.851562
vt 0.117188 0.789062
vt 0.117188 0.789062
vt 0.117188 0.789062
vt 0.117188 0.789062
vt 0.117188 0.789062
vt 0.117188 0.789062
vt 0.117188 0.789062
vt 0.117188 0.789062
vt 0.117188 0.789062
vt 0.164062 0.851562
vt 0.164062 0.851562
vt 0.164062 0.851562
vt 0.164062 0.851562
vt 0.117188 0.789062
vt 0.164062 0.851562
vt 0.164062 0.851562
vt 0.164062 0.851562
vt 0.117188 0.789062
vt 0.117188 0.789062
vt 0.164062 0.851562
vt 0.164062 0.851562
vt 0.117188 0.789062
vt 0.117188 0.789062
vt 0.117188 0.789062
vt 0.117188 0.789062
vt 0.164062 0.851562
vt 0.164062 0.851562
vt 0.164062 0.851562
vt 0.164062 0.851562
vt 0.117188 0.789062
vt 0.117188 0.789062
vt 0.117188 0.789062
vt 0.117188 0.789062
vt 0.164062 0.851562
vt 0.117188 0.789062
vt 0.117188 0.789062
vt 0.117188 0.789062
vt 0.117188 0.789062
vt 0.117188 0.789062
vt 0.117188 0.789062
vt 0.164062 0.851562
vt 0.164062 0.851562
vt 0.164062 0.851562
vt 0.117188 0.789062
vt 0.117188 0.789062
vt 0.164062 0.851562
vt 0.164062 0.851562
vt 0.164062 0.851562
vt 0.164062 0.851562
vt 0.164062 0.851562
vt 0.164062 0.851562
vt 0.164062 0.851562
vt 0.164062 0.851562
vt 0.164062 0.851562
vt 0.164062 0.851562
vt 0.164062 0.851562
vt 0.117188 0.789062
vt 0.117188 0.789062
vt 0.164062 0.851562
vt 0.164062 0.851562
vt 0.164062 0.851562
vt 0.164062 0.851562
vt 0.117188 0.789062
vt 0.164062 0.851562
vt 0.117188 0.789062
vt 0.117188 0.789062
vt 0.117188 0.789062
vt 0.117188 0.789062
vt 0.164062 0.851562
vt 0.164062 0.851562
vt 0.164062 0.851562
vt 0.164062 0.851562
vt 0.117188 0.789062
vt 0.117188 0.789062
vt 0.117188 0.789062
vt 0.117188 0.789062
vt 0.164062 0.851562
vt 0.117188 0.789062
vt 0.117188 0.789062
vt 0.117188 0.789062
vt 0.117188 0.789062
vt 0.164062 0.851562
vt 0.164062 0.851562
vt 0.164062 0.851562
vt 0.117188 0.789062
vt 0.117188 0.789062
vt 0.164062 0.851562
vt 0.164062 0.851562
vt 0.164062 0.851562
vt 0.164062 0.851562
vt 0.117188 0.789062
vt 0.117188 0.789062
vt 0.117188 0.789062
vt 0.117188 0.789062
vt 0.117188 0.789062
vt 0.117188 0.789062
vt 0.164062 0.851562
vt 0.164062 0.851562
vt 0.164062 0.851562
vt 0.164062 0.851562
vt 0.164062 0.851562
vt 0.164062 0.851562
vt 0.117188 0.789062
vt 0.164062 0.851562
vt 0.164062 0.851562
vt 0.117188 0.789062
vt 0.117188 0.789062
vt 0.164062 0.851562
vt 0.164062 0.851562
vt 0.117188 0.789062
vt 0.117188 0.789062
vt 0.117188 0.789062
vt 0.117188 0.789062
vt 0.117188 0.789062
vt 0.164062 0.851562
vt 0.164062 0.851562
vt 0.164062 0.851562
vt 0.117188 0.789062
vt 0.164062 0.851562
vt 0.164062 0.851562
vt 0.164062 0.851562
vt 0.164062 0.851562
vt 0.164062 0.851562
vt 0.164062 0.851562
vt 0.117188 0.789062
vt 0.164062 0.851562
vt 0.117188 0.789062
vt 0.117188 0.789062
vt 0.164062 0.851562
vt 0.164062 0.851562
vt 0.117188 0.789062
vt 0.117188 0.789062
vn -0.9808 0.1952 0.0000
vn 0.0000 0.1393 -0.9903
vn 0.9808 0.1952 0.0000
vn 0.0000 0.1393 0.9903
vn 0.0000 1.0000 0.0000
s 1
f 1/1/1 2/2/1 4/3/1 3/4/1
f 3/4/2 4/3/2 8/5/2 7/6/2
f 7/6/3 8/5/3 6/7/3 5/8/3
f 5/8/4 6/7/4 2/2/4 1/1/4
f 8/5/5 4/3/5 2/2/5 6/7/5
f 11/9/5 14/10/5 13/11/5
f 11/9/5 10/12/5 14/10/5
f 12/13/5 23/14/5 21/15/5
f 14/10/5 12/16/5 15/17/5 13/11/5
f 10/18/5 12/13/5 14/19/5
f 12/13/5 16/20/5 17/21/5 57/22/5
f 27/23/5 35/24/5 19/25/5
f 16/26/5 32/27/5 34/28/5 18/29/5
f 70/30/5 48/31/5 18/29/5 34/28/5
f 9/32/5 11/33/5 43/34/5 41/35/5
f 11/9/5 13/11/5 43/36/5
f 22/37/5 24/38/5 56/39/5
f 15/17/5 12/16/5 21/40/5 22/41/5
f 12/13/5 57/22/5 23/14/5
f 10/18/5 19/42/5 16/20/5 12/13/5
f 9/32/5 27/43/5 11/33/5
f 11/9/5 27/23/5 19/25/5 10/12/5
f 35/24/5 32/27/5 16/26/5 19/25/5
f 16/26/5 18/29/5 20/44/5 17/45/5
f 17/45/5 20/44/5 55/46/5 49/47/5
f 20/48/5 48/49/5 55/50/5
f 48/49/5 20/48/5 18/51/5
f 24/52/5 22/41/5 21/40/5 23/53/5
f 56/54/5 24/52/5 23/53/5 57/55/5
f 57/22/5 17/21/5 49/56/5
f 69/57/5 68/58/5 38/59/5
f 27/23/5 29/60/5 30/61/5
f 27/23/5 30/61/5 26/62/5
f 28/63/5 37/64/5 39/65/5
f 30/61/5 29/60/5 31/66/5 28/67/5
f 26/68/5 30/69/5 28/63/5
f 28/63/5 79/70/5 33/71/5 32/72/5
f 29/73/5 65/74/5 69/75/5 31/76/5
f 25/77/5 64/78/5 27/43/5
f 27/23/5 64/79/5 65/80/5 29/60/5
f 38/81/5 68/82/5 78/83/5 40/84/5
f 31/66/5 69/57/5 38/59/5 37/85/5 28/67/5
f 28/63/5 39/65/5 79/70/5
f 26/68/5 28/63/5 32/72/5 35/86/5
f 25/77/5 27/43/5 9/32/5
f 27/23/5 26/62/5 35/24/5
f 32/27/5 33/87/5 36/88/5 34/28/5
f 33/87/5 71/89/5 77/90/5 36/88/5
f 36/91/5 77/92/5 70/93/5
f 70/93/5 34/94/5 36/91/5
f 40/95/5 39/96/5 37/85/5 38/59/5
f 78/97/5 79/98/5 39/96/5 40/95/5
f 79/70/5 71/99/5 33/71/5
f 15/17/5 22/41/5 59/100/5
f 43/36/5 45/101/5 46/102/5
f 43/36/5 46/102/5 42/103/5
f 44/104/5 58/105/5 60/106/5
f 46/102/5 45/101/5 47/107/5 44/108/5
f 42/109/5 46/110/5 44/104/5
f 44/104/5 57/22/5 51/111/5 50/112/5
f 64/79/5 53/113/5 75/114/5
f 50/115/5 52/116/5 74/117/5 72/118/5
f 70/30/5 74/117/5 52/116/5 48/31/5
f 45/119/5 13/120/5 15/121/5 47/122/5
f 43/36/5 13/11/5 45/101/5
f 59/123/5 22/37/5 56/39/5 61/124/5
f 47/107/5 15/17/5 59/100/5 58/125/5 44/108/5
f 44/104/5 60/106/5 57/22/5
f 42/109/5 44/104/5 50/112/5 53/126/5
f 41/35/5 43/34/5 64/78/5 62/127/5
f 43/36/5 42/103/5 53/113/5 64/79/5
f 75/114/5 53/113/5 50/115/5 72/118/5
f 50/115/5 51/128/5 54/129/5 52/116/5
f 51/128/5 49/47/5 55/46/5 54/129/5
f 54/130/5 55/50/5 48/49/5
f 48/49/5 52/131/5 54/130/5
f 61/132/5 60/133/5 58/125/5 59/100/5
f 56/54/5 57/55/5 60/133/5 61/132/5
f 57/22/5 49/56/5 51/111/5
f 69/57/5 81/134/5 68/58/5
f 64/79/5 67/135/5 65/80/5
f 64/79/5 63/136/5 67/135/5
f 66/137/5 82/138/5 80/139/5
f 67/135/5 66/140/5 69/57/5 65/80/5
f 63/141/5 66/137/5 67/142/5
f 66/137/5 72/143/5 73/144/5 79/70/5
f 62/127/5 64/78/5 25/77/5
f 81/145/5 83/146/5 78/83/5 68/82/5
f 69/57/5 66/140/5 80/147/5 81/134/5
f 66/137/5 79/70/5 82/138/5
f 63/141/5 75/148/5 72/143/5 66/137/5
f 64/79/5 75/114/5 63/136/5
f 72/118/5 74/117/5 76/149/5 73/150/5
f 73/150/5 76/149/5 77/90/5 71/89/5
f 76/151/5 70/93/5 77/92/5
f 70/93/5 76/151/5 74/152/5
f 83/153/5 81/134/5 80/147/5 82/154/5
f 78/97/5 83/153/5 82/154/5 79/98/5
f 79/70/5 73/144/5 71/99/5
