# Blender v2.91.0 Beta OBJ File: 'decos.blend'
# www.blender.org
o Detail.001_Cube.003
v 0.874292 0.970565 -1.805387
v 0.874292 0.970565 -1.305311
v 0.874292 0.647404 -1.305311
v 0.874292 0.647474 -0.805173
v 0.874292 0.324312 -0.805173
v 0.941364 0.000511 -0.305382
v 0.938429 0.105977 -0.354198
v 0.938429 1.414914 -0.354198
v 0.941364 1.444511 -0.305382
v 0.851381 1.295016 -2.305097
v 0.854316 1.316043 -2.267274
v 0.854316 2.624980 -2.267272
v 0.851381 2.695292 -2.305097
v 0.941364 1.295016 -2.305097
v 0.938429 1.316043 -2.267274
v 0.851381 2.695291 -1.939563
v 0.854316 2.624980 -1.917575
v 0.854316 1.414914 -0.354198
v 0.851381 1.444511 -0.305382
v 0.941364 2.695291 -1.939563
v 0.941364 2.695292 -2.305097
v 0.874292 1.295016 -2.305097
v 0.874292 1.294377 -1.805305
v -0.874292 0.647404 -1.305311
v -0.874292 0.970565 -1.305311
v -0.874292 0.970565 -1.805387
v 0.874292 -1.595325 -0.305382
v 0.874292 0.323673 -0.305382
v 0.874292 0.000511 -0.305382
v -0.874292 0.324312 -0.805173
v -0.874292 0.647474 -0.805173
v 0.941364 -1.595325 -0.305382
v -0.874292 0.000511 -0.305382
v -0.874292 0.323673 -0.305382
v 0.851381 0.000511 -0.305382
v -0.874292 1.294377 -1.805305
v -0.874292 1.295016 -2.305097
v 0.854316 0.105977 -0.354198
v 0.938429 2.624980 -1.917575
v 0.938429 2.624980 -2.267272
v -0.941364 1.295016 -2.305097
v -0.941364 0.000511 -0.305382
v -0.938429 0.105977 -0.354198
v -0.938429 1.316043 -2.267274
v -0.941364 1.444511 -0.305382
v -0.938429 1.414914 -0.354198
v -0.851381 1.295016 -2.305097
v -0.851381 2.695292 -2.305097
v -0.854316 2.624980 -2.267272
v -0.854316 1.316043 -2.267274
v -0.851381 2.695291 -1.939563
v -0.851381 1.444511 -0.305382
v -0.854316 1.414914 -0.354198
v -0.854316 2.624980 -1.917575
v -0.941364 2.695292 -2.305097
v -0.941364 2.695291 -1.939563
v -0.851381 0.000511 -0.305382
v -0.854316 0.105977 -0.354198
v -0.938429 2.624980 -2.267272
v -0.938429 2.624980 -1.917575
v 0.874292 0.000000 -2.305382
v -0.874292 0.000000 -2.305382
v -0.874292 -1.595325 -0.305382
v 0.851381 -1.595325 -0.305382
v -0.941364 -1.595325 -0.305382
v -0.851381 -1.595325 -0.305382
v 0.874292 -1.595836 -2.305382
v -0.874292 -1.595836 -2.305382
vt 0.835938 0.445312
vt 0.835938 0.445312
vt 0.835938 0.445312
vt 0.835938 0.445312
vt 0.835938 0.445312
vt 0.835938 0.398438
vt 0.835938 0.398438
vt 0.835938 0.398438
vt 0.835938 0.398438
vt 0.835938 0.398438
vt 0.835938 0.398438
vt 0.835938 0.398438
vt 0.835938 0.398438
vt 0.835938 0.398438
vt 0.835938 0.398438
vt 0.835938 0.398438
vt 0.835938 0.445312
vt 0.835938 0.445312
vt 0.835938 0.445312
vt 0.835938 0.445312
vt 0.835938 0.445312
vt 0.835938 0.445312
vt 0.835938 0.445312
vt 0.835938 0.445312
vt 0.835938 0.445312
vt 0.835938 0.445312
vt 0.835938 0.445312
vt 0.835938 0.398438
vt 0.835938 0.398438
vt 0.835938 0.445312
vt 0.835938 0.445312
vt 0.835938 0.398438
vt 0.835938 0.398438
vt 0.835938 0.398438
vt 0.835938 0.398438
vt 0.835938 0.398438
vt 0.835938 0.398438
vt 0.835938 0.398438
vt 0.835938 0.398438
vt 0.835938 0.398438
vt 0.835938 0.398438
vt 0.835938 0.398438
vt 0.835938 0.398438
vt 0.835938 0.398438
vt 0.835938 0.398438
vt 0.835938 0.398438
vt 0.835938 0.398438
vt 0.835938 0.398438
vt 0.835938 0.398438
vt 0.835938 0.398438
vt 0.835938 0.398438
vt 0.835938 0.398438
vt 0.835938 0.398438
vt 0.835938 0.398438
vt 0.835938 0.398438
vt 0.835938 0.398438
vt 0.835938 0.445312
vt 0.835938 0.445312
vt 0.835938 0.398438
vt 0.835938 0.445312
vt 0.835938 0.398438
vt 0.835938 0.445312
vt 0.835938 0.445312
vt 0.835938 0.398438
vt 0.835938 0.398438
vt 0.835938 0.398438
vt 0.835938 0.445312
vt 0.835938 0.398438
vn 1.0000 0.0000 0.0000
vn 0.9982 0.0000 -0.0600
vn -0.9970 -0.0000 0.0774
vn 0.9971 0.0645 0.0408
vn 0.9989 0.0399 0.0258
vn 0.9989 0.0397 0.0257
vn -0.9976 -0.0546 -0.0418
vn -0.9985 -0.0437 -0.0338
vn -0.9976 -0.0548 -0.0419
vn 0.0000 1.0000 0.0000
vn -1.0000 0.0000 0.0000
vn 0.0000 -0.0000 1.0000
vn 0.0000 0.7941 0.6078
vn -0.9989 0.0399 0.0258
vn -0.9971 0.0645 0.0408
vn -0.9989 0.0397 0.0257
vn -0.9982 -0.0000 -0.0600
vn 0.9991 -0.0417 -0.0000
vn 0.9985 -0.0437 -0.0338
vn 0.9976 -0.0546 -0.0418
vn 0.9976 -0.0547 -0.0419
vn 0.0000 0.8451 0.5346
vn -0.9970 0.0651 0.0412
vn 0.9970 -0.0000 0.0774
vn 0.9976 -0.0548 -0.0419
vn -0.9991 -0.0417 -0.0000
vn -0.9985 -0.0435 -0.0337
vn 0.0000 1.0000 0.0013
vn 0.0000 -0.0003 1.0000
vn 0.0000 1.0000 -0.0001
vn 0.9970 0.0651 0.0412
vn 0.9985 -0.0435 -0.0337
vn -0.9976 -0.0547 -0.0419
s 1
f 1/1/1 2/2/1 3/3/1
f 3/3/1 4/4/1 5/5/1
f 7/6/2 9/7/2 6/8/2
f 10/9/3 12/10/3 13/11/3
f 14/12/4 7/6/5 6/8/6
f 17/13/7 19/14/8 16/15/9
f 16/15/10 21/16/10 13/11/10
f 22/17/1 23/18/1 1/1/1
f 24/19/11 25/20/11 26/21/11
f 29/22/1 5/5/1 28/23/1
f 30/24/11 31/25/11 24/19/11
f 33/26/11 34/27/11 30/24/11
f 35/28/12 9/7/12 19/14/12
f 19/14/13 20/29/13 16/15/13
f 26/21/11 36/30/11 37/31/11
f 38/32/14 10/9/15 35/28/16
f 19/14/17 38/32/17 35/28/17
f 20/29/18 40/33/18 21/16/18
f 9/7/19 39/34/20 20/29/21
f 12/10/12 15/35/12 40/33/12
f 11/36/22 7/6/22 15/35/22
f 41/37/15 43/38/14 44/39/23
f 45/40/17 43/38/17 42/41/17
f 47/42/24 49/43/24 50/44/24
f 52/45/19 54/46/20 51/47/25
f 55/48/10 51/47/10 48/49/10
f 45/40/12 57/50/12 52/45/12
f 56/51/13 52/45/13 51/47/13
f 43/38/22 50/44/22 44/39/22
f 52/45/2 58/52/2 53/53/2
f 56/51/26 59/54/26 60/55/26
f 47/42/4 58/52/5 57/50/6
f 45/40/8 60/55/7 46/56/27
f 51/47/18 49/43/18 48/49/18
f 41/37/3 59/54/3 55/48/3
f 44/39/12 49/43/12 59/54/12
f 40/33/24 14/12/24 21/16/24
f 12/10/26 16/15/26 13/11/26
f 23/18/28 37/31/28 36/30/28
f 1/1/29 36/30/29 26/21/29
f 2/2/10 26/21/10 25/20/10
f 3/3/12 25/20/12 24/19/12
f 4/4/30 24/19/30 31/25/30
f 5/5/12 31/25/12 30/24/12
f 28/23/28 30/24/28 34/27/28
f 29/22/12 34/27/12 33/26/12
f 29/22/1 61/57/1 5/5/1
f 33/26/11 30/24/11 62/58/11
f 61/57/1 3/3/1 5/5/1
f 61/57/1 1/1/1 3/3/1
f 61/57/1 22/17/1 1/1/1
f 62/58/11 30/24/11 24/19/11
f 62/58/11 24/19/11 26/21/11
f 62/58/11 26/21/11 37/31/11
f 42/41/12 66/59/12 57/50/12
f 62/58/11 63/60/11 33/26/11
f 35/28/12 32/61/12 6/8/12
f 33/26/12 27/62/12 29/22/12
f 61/57/1 27/62/1 67/63/1
f 7/6/2 8/64/2 9/7/2
f 10/9/3 11/36/3 12/10/3
f 14/12/4 15/35/31 7/6/5
f 17/13/7 18/65/27 19/14/8
f 16/15/10 20/29/10 21/16/10
f 35/28/12 6/8/12 9/7/12
f 19/14/13 9/7/13 20/29/13
f 38/32/14 11/36/23 10/9/15
f 19/14/17 18/65/17 38/32/17
f 20/29/18 39/34/18 40/33/18
f 9/7/19 8/64/32 39/34/20
f 12/10/12 11/36/12 15/35/12
f 11/36/22 38/32/22 7/6/22
f 41/37/15 42/41/16 43/38/14
f 45/40/17 46/56/17 43/38/17
f 47/42/24 48/49/24 49/43/24
f 52/45/19 53/53/32 54/46/20
f 55/48/10 56/51/10 51/47/10
f 45/40/12 42/41/12 57/50/12
f 56/51/13 45/40/13 52/45/13
f 43/38/22 58/52/22 50/44/22
f 52/45/2 57/50/2 58/52/2
f 56/51/26 55/48/26 59/54/26
f 47/42/4 50/44/31 58/52/5
f 45/40/8 56/51/33 60/55/7
f 51/47/18 54/46/18 49/43/18
f 41/37/3 44/39/3 59/54/3
f 44/39/12 50/44/12 49/43/12
f 40/33/24 15/35/24 14/12/24
f 12/10/26 17/13/26 16/15/26
f 23/18/28 22/17/28 37/31/28
f 1/1/29 23/18/29 36/30/29
f 2/2/10 1/1/10 26/21/10
f 3/3/12 2/2/12 25/20/12
f 4/4/30 3/3/30 24/19/30
f 5/5/12 4/4/12 31/25/12
f 28/23/28 5/5/28 30/24/28
f 29/22/12 28/23/12 34/27/12
f 42/41/12 65/66/12 66/59/12
f 62/58/11 68/67/11 63/60/11
f 35/28/12 64/68/12 32/61/12
f 33/26/12 63/60/12 27/62/12
f 61/57/1 29/22/1 27/62/1
