# Blender v2.91.0 Beta OBJ File: 'decos.blend'
# www.blender.org
o Detail.001_Cube.006
v -0.874292 0.323673 -0.305382
v 0.874292 0.323673 -0.305382
v 0.874292 0.324312 -0.805173
v -0.874292 0.324312 -0.805173
v 0.874292 0.647474 -0.805173
v -0.874292 0.647474 -0.805173
v 0.874292 0.647404 -1.805388
v 0.874292 0.970565 -1.805387
v 0.874292 0.970565 -1.305311
v 0.874292 0.647404 -1.305311
v -0.874292 0.000511 -0.305382
v 0.874292 0.000511 -0.305382
v -0.874292 0.647404 -1.305311
v -0.874292 0.970565 -1.305311
v 0.874292 0.324312 -1.305250
v 0.874292 0.000511 -0.805458
v -0.874292 0.970565 -1.805387
v -0.874292 0.647404 -1.805388
v -0.874292 0.324312 -1.305250
v -0.874292 0.000511 -0.805458
v -0.874292 1.294377 -1.805305
v 0.874292 1.294377 -1.805305
v 0.874292 1.295016 -2.305097
v -0.874292 1.295016 -2.305097
v 0.874292 0.971215 -2.305382
v -0.874292 0.971215 -2.305382
vt 0.835938 0.414062
vt 0.835938 0.414062
vt 0.835938 0.414062
vt 0.835938 0.414062
vt 0.835938 0.398438
vt 0.835938 0.398438
vt 0.835938 0.398438
vt 0.835938 0.398438
vt 0.835938 0.398438
vt 0.835938 0.398438
vt 0.835938 0.398438
vt 0.835938 0.398438
vt 0.835938 0.398438
vt 0.835938 0.398438
vt 0.835938 0.398438
vt 0.835938 0.398438
vt 0.835938 0.398438
vt 0.835938 0.398438
vt 0.835938 0.398438
vt 0.835938 0.398438
vt 0.835938 0.398438
vt 0.835938 0.398438
vt 0.835938 0.414062
vt 0.835938 0.414062
vt 0.835938 0.414062
vt 0.835938 0.414062
vt 0.835938 0.414062
vt 0.835938 0.414062
vt 0.835938 0.414062
vt 0.835938 0.414062
vt 0.835938 0.398438
vt 0.835938 0.398438
vt 0.835938 0.414062
vt 0.835938 0.414062
vt 0.835938 0.414062
vt 0.835938 0.414062
vt 0.835938 0.398438
vt 0.835938 0.398438
vt 0.835938 0.398438
vt 0.835938 0.398438
vt 0.835938 0.398438
vt 0.835938 0.398438
vn 0.0000 1.0000 0.0013
vn 0.0000 -0.0000 1.0000
vn 1.0000 0.0000 0.0000
vn 0.0000 0.0000 -1.0000
vn 0.0000 1.0000 -0.0001
vn -1.0000 0.0000 0.0000
vn 0.0000 1.0000 0.0000
vn 0.0000 -0.0003 1.0000
s 1
f 1/1/1 2/2/1 3/3/1 4/4/1
f 4/5/2 3/6/2 5/7/2 6/8/2
f 7/9/3 8/10/3 9/11/3 10/12/3
f 11/13/2 12/14/2 2/15/2 1/16/2
f 13/17/2 10/12/2 9/11/2 14/18/2
f 15/19/3 10/12/3 5/7/3 3/6/3
f 16/20/3 3/6/3 2/15/3 12/14/3
f 17/21/4 8/10/4 7/9/4 18/22/4
f 6/23/5 5/24/5 10/25/5 13/26/5
f 18/22/6 13/17/6 14/18/6 17/21/6
f 14/27/7 9/28/7 8/29/7 17/30/7
f 19/31/6 4/5/6 6/8/6 13/17/6
f 20/32/6 11/13/6 1/16/6 4/5/6
f 21/33/1 22/34/1 23/35/1 24/36/1
f 17/21/8 8/10/8 22/37/8 21/38/8
f 25/39/3 23/40/3 22/37/3 8/10/3
f 26/41/6 17/21/6 21/38/6 24/42/6
