# Blender v2.90.0 Alpha OBJ File: 'Decos.blend'
# www.blender.org
o Detail.001_Cube.001
v 0.874292 1.295016 -2.305097
v 0.874292 1.294377 -1.805305
v 0.874292 0.323673 -0.305382
v 0.874292 0.000511 -0.305382
v -0.874292 0.000511 -0.305382
v -0.874292 0.323673 -0.305382
v -0.874292 1.294377 -1.805305
v -0.874292 1.295016 -2.305097
vt 0.070312 0.820312
vt 0.070312 0.820312
vt 0.070312 0.820312
vt 0.070312 0.820312
vt 0.054688 0.726562
vt 0.054688 0.726562
vt 0.054688 0.726562
vt 0.054688 0.726562
vn 0.0000 1.0000 0.0013
vn 0.0000 -0.0000 1.0000
vn 0.0000 0.8395 0.5433
s 1
f 7/1/1 2/2/1 1/3/1 8/4/1
f 5/5/2 4/6/2 3/7/2 6/8/2
f 7/1/3 6/8/3 3/7/3 2/2/3
