# Blender v2.91.0 Beta OBJ File: 'decos.blend'
# www.blender.org
o Pedestal_Cube.006
v -0.250479 0.348149 0.250479
v -0.260156 0.375828 0.260156
v -0.260156 0.375828 -0.260156
v -0.250479 0.348149 -0.250479
v 0.260156 0.375828 -0.260156
v 0.250479 0.348149 -0.250479
v 0.260156 0.375828 0.260156
v 0.250479 0.348149 0.250479
v -0.260156 0.000000 -0.260156
v 0.260156 0.000000 -0.260156
v 0.260156 -0.000000 0.260156
v -0.260156 -0.000000 0.260156
v 0.250479 0.029364 0.250479
v 0.204737 0.058728 0.204737
v -0.204737 0.058728 0.204737
v -0.250479 0.029364 0.250479
v 0.204737 0.320470 0.204737
v -0.204737 0.320470 0.204737
v -0.177353 0.302965 0.204737
v 0.177353 0.302965 0.204737
v 0.250479 0.029364 -0.250479
v 0.204737 0.058728 -0.204737
v 0.204737 0.320470 -0.204737
v -0.250479 0.029364 -0.250479
v -0.204737 0.058728 -0.204737
v -0.204737 0.320470 -0.204737
v -0.177353 0.076232 0.204737
v 0.177353 0.076232 0.204737
v 0.161809 0.086168 0.183457
v -0.161809 0.086168 0.183457
v 0.161809 0.293029 0.183457
v -0.161809 0.293029 0.183457
vt 0.257812 0.804688
vt 0.257812 0.804688
vt 0.257812 0.804688
vt 0.257812 0.804688
vt 0.257812 0.804688
vt 0.257812 0.804688
vt 0.257812 0.804688
vt 0.257812 0.804688
vt 0.257812 0.804688
vt 0.257812 0.804688
vt 0.257812 0.804688
vt 0.257812 0.804688
vt 0.257812 0.804688
vt 0.257812 0.804688
vt 0.257812 0.804688
vt 0.257812 0.804688
vt 0.257812 0.804688
vt 0.257812 0.804688
vt 0.257812 0.804688
vt 0.257812 0.804688
vt 0.257812 0.804688
vt 0.257812 0.804688
vt 0.257812 0.804688
vt 0.257812 0.804688
vt 0.257812 0.804688
vt 0.257812 0.804688
vt 0.257812 0.804688
vt 0.257812 0.804688
vt 0.257812 0.804688
vt 0.257812 0.804688
vt 0.257812 0.804688
vt 0.257812 0.804688
vn -0.9440 -0.3300 -0.0000
vn 0.0000 -0.3300 -0.9440
vn 0.9440 -0.3300 -0.0000
vn 0.0000 -0.3300 0.9440
vn 0.0000 -1.0000 -0.0000
vn 0.0000 1.0000 0.0000
vn 0.0000 0.8415 0.5402
vn 0.0000 -0.0000 1.0000
vn 0.5402 0.8415 0.0000
vn 1.0000 0.0000 0.0000
vn 0.0000 0.8415 -0.5402
vn 0.0000 0.0000 -1.0000
vn -0.5402 0.8415 0.0000
vn -1.0000 -0.0000 0.0000
vn 0.0000 -0.8556 0.5177
vn 0.5177 -0.8556 -0.0000
vn 0.0000 -0.8556 -0.5177
vn -0.5177 -0.8556 -0.0000
vn -0.9498 0.3130 0.0000
vn 0.0000 0.3130 -0.9498
vn 0.9498 0.3130 0.0000
vn 0.0000 0.3130 0.9498
vn 0.0000 0.9061 0.4231
vn 0.8075 -0.0000 0.5898
vn 0.0000 -0.9061 0.4231
vn -0.8075 -0.0000 0.5898
s 1
f 1/1/1 2/2/1 3/3/1 4/4/1
f 4/4/2 3/3/2 5/5/2 6/6/2
f 6/6/3 5/5/3 7/7/3 8/8/3
f 8/8/4 7/7/4 2/2/4 1/1/4
f 9/9/5 10/10/5 11/11/5 12/12/5
f 5/5/6 3/3/6 2/2/6 7/7/6
f 13/13/7 14/14/7 15/15/7 16/16/7
f 17/17/8 18/18/8 19/19/8 20/20/8
f 21/21/9 22/22/9 14/14/9 13/13/9
f 22/22/10 23/23/10 17/17/10 14/14/10
f 24/24/11 25/25/11 22/22/11 21/21/11
f 25/25/12 26/26/12 23/23/12 22/22/12
f 16/16/13 15/15/13 25/25/13 24/24/13
f 15/15/14 18/18/14 26/26/14 25/25/14
f 17/17/15 8/8/15 1/1/15 18/18/15
f 23/23/16 6/6/16 8/8/16 17/17/16
f 26/26/17 4/4/17 6/6/17 23/23/17
f 18/18/18 1/1/18 4/4/18 26/26/18
f 12/12/19 16/16/19 24/24/19 9/9/19
f 9/9/20 24/24/20 21/21/20 10/10/20
f 10/10/21 21/21/21 13/13/21 11/11/21
f 11/11/22 13/13/22 16/16/22 12/12/22
f 27/27/23 28/28/23 29/29/23 30/30/23
f 14/14/8 17/17/8 20/20/8 28/28/8
f 18/18/8 15/15/8 27/27/8 19/19/8
f 15/15/8 14/14/8 28/28/8 27/27/8
f 29/29/8 31/31/8 32/32/8 30/30/8
f 19/19/24 27/27/24 30/30/24 32/32/24
f 20/20/25 19/19/25 32/32/25 31/31/25
f 28/28/26 20/20/26 31/31/26 29/29/26
