# Blender v2.83.4 OBJ File: 'decos.blend'
# www.blender.org
o Cube.008_Cube.003
v -3.449901 -0.007565 3.449901
v -3.449901 0.432791 3.449901
v -3.449901 -0.007565 -3.449901
v -3.449901 0.432791 -3.449901
v 3.449901 -0.007565 3.449901
v 3.449901 0.432791 3.449901
v 3.449901 -0.007565 -3.449901
v 3.449901 0.432791 -3.449901
v 3.119795 -0.007565 -3.749047
v -3.119795 -0.007565 -3.749047
v -3.119795 0.432791 -3.749047
v 3.119795 0.432791 -3.749047
v -3.119795 -0.007565 3.749047
v 3.119795 -0.007565 3.749047
v 3.119795 0.432791 3.749047
v -3.119795 0.432791 3.749047
v -3.749047 -0.007565 -2.857400
v -3.749047 -0.007565 2.857400
v -3.749047 0.432791 2.857400
v -3.749047 0.432791 -2.857400
v 3.749047 -0.007565 2.857400
v 3.749047 -0.007565 -2.857400
v 3.749047 0.432791 -2.857400
v 3.749047 0.432791 2.857400
v 3.119795 0.432791 -2.857400
v 3.119795 0.432791 2.857400
v -3.119795 0.432791 -2.857400
v -3.119795 0.432791 2.857400
v -3.119795 -0.007565 -2.857400
v -3.119795 -0.007565 2.857400
v 3.119795 -0.007565 -2.857400
v 3.119795 -0.007565 2.857400
v 3.433580 0.339012 3.433580
v -3.105035 0.339012 3.731311
v 3.105035 0.339012 3.731311
v -3.433580 0.339012 -3.433580
v 3.105035 0.339012 -3.731311
v -3.105035 0.339012 -3.731311
v 3.433580 0.339012 -3.433580
v 3.731311 0.339012 2.843881
v 3.731311 0.339012 -2.843881
v -3.433580 0.339012 3.433580
v -3.731311 0.339012 -2.843881
v -3.731311 0.339012 2.843881
v -3.449901 0.308344 3.449901
v -3.449901 0.369680 3.449901
v -3.449901 0.308344 -3.449901
v -3.449901 0.369680 -3.449901
v 3.449901 0.308344 -3.449901
v 3.449901 0.369680 -3.449901
v 3.449901 0.308344 3.449901
v 3.449901 0.369680 3.449901
v 3.119795 0.308344 3.749047
v 3.119795 0.369680 3.749047
v -3.119795 0.369680 3.749047
v -3.119795 0.308344 3.749047
v -3.119795 0.308344 -3.749047
v -3.119795 0.369680 -3.749047
v 3.119795 0.369680 -3.749047
v 3.119795 0.308344 -3.749047
v 3.749047 0.308344 -2.857400
v 3.749047 0.369680 -2.857400
v 3.749047 0.369680 2.857400
v 3.749047 0.308344 2.857400
v -3.749047 0.308344 2.857400
v -3.749047 0.369680 2.857400
v -3.749047 0.369680 -2.857400
v -3.749047 0.308344 -2.857400
vt 0.164062 0.882812
vt 0.164062 0.882812
vt 0.164062 0.882812
vt 0.164062 0.882812
vt 0.164062 0.882812
vt 0.164062 0.882812
vt 0.164062 0.882812
vt 0.164062 0.882812
vt 0.164062 0.882812
vt 0.164062 0.882812
vt 0.164062 0.882812
vt 0.164062 0.882812
vt 0.164062 0.882812
vt 0.164062 0.882812
vt 0.164062 0.882812
vt 0.164062 0.882812
vt 0.164062 0.882812
vt 0.164062 0.882812
vt 0.164062 0.882812
vt 0.164062 0.882812
vt 0.164062 0.882812
vt 0.164062 0.882812
vt 0.164062 0.882812
vt 0.164062 0.882812
vt 0.164062 0.882812
vt 0.164062 0.882812
vt 0.164062 0.882812
vt 0.164062 0.882812
vt 0.164062 0.882812
vt 0.164062 0.882812
vt 0.164062 0.882812
vt 0.164062 0.882812
vt 0.164062 0.882812
vt 0.164062 0.882812
vt 0.164062 0.882812
vt 0.164062 0.882812
vt 0.164062 0.882812
vt 0.164062 0.882812
vt 0.164062 0.882812
vt 0.164062 0.882812
vt 0.164062 0.882812
vt 0.164062 0.882812
vt 0.164062 0.882812
vt 0.164062 0.882812
vt 0.179688 0.898438
vt 0.179688 0.898438
vt 0.179688 0.898438
vt 0.179688 0.898438
vt 0.164062 0.882812
vt 0.164062 0.882812
vt 0.164062 0.882812
vt 0.164062 0.882812
vt 0.164062 0.882812
vt 0.164062 0.882812
vt 0.164062 0.882812
vt 0.164062 0.882812
vt 0.164062 0.882812
vt 0.164062 0.882812
vt 0.164062 0.882812
vt 0.164062 0.882812
vt 0.179688 0.898438
vt 0.179688 0.898438
vt 0.179688 0.898438
vt 0.179688 0.898438
vt 0.179688 0.898438
vt 0.179688 0.898438
vt 0.179688 0.898438
vt 0.179688 0.898438
vt 0.179688 0.898438
vt 0.179688 0.898438
vt 0.179688 0.898438
vt 0.179688 0.898438
vt 0.179688 0.898438
vt 0.179688 0.898438
vt 0.179688 0.898438
vt 0.179688 0.898438
vt 0.179688 0.898438
vt 0.179688 0.898438
vt 0.179688 0.898438
vt 0.179688 0.898438
vt 0.179688 0.898438
vt 0.179688 0.898438
vt 0.179688 0.898438
vt 0.179688 0.898438
vt 0.179688 0.898438
vt 0.179688 0.898438
vt 0.179688 0.898438
vt 0.179688 0.898438
vt 0.179688 0.898438
vt 0.179688 0.898438
vt 0.179688 0.898438
vt 0.179688 0.898438
vn 0.3599 0.0000 -0.9330
vn 0.7954 0.0000 -0.6060
vn 0.9728 0.0000 0.2317
vn 0.7954 0.0000 0.6060
vn 0.3599 0.0000 0.9330
vn -0.3599 0.0000 0.9330
vn -0.9728 0.0000 -0.2317
vn -0.7954 0.0000 -0.6060
vn 0.0000 -1.0000 0.0000
vn 0.0000 1.0000 0.0000
vn -0.3599 0.0000 -0.9330
vn 0.9728 0.0000 -0.2317
vn -0.9728 0.0000 0.2317
vn -0.7954 0.0000 0.6060
vn -0.8003 -0.5588 -0.2176
vn -0.6332 -0.5983 -0.4910
vn -0.6430 -0.5973 -0.4794
vn -0.8219 -0.5463 -0.1610
vn -0.8219 0.5463 0.1610
vn -0.8219 0.5463 -0.1610
vn -0.8003 0.5588 -0.2176
vn -0.8003 0.5588 0.2176
vn -0.6430 0.5973 0.4794
vn -0.6332 0.5983 0.4910
vn 0.8219 0.5463 -0.1610
vn 0.8219 0.5463 0.1610
vn 0.8003 0.5588 0.2176
vn 0.8003 0.5588 -0.2176
vn 0.6430 0.5973 -0.4794
vn 0.6332 0.5983 -0.4910
vn -0.2525 0.5726 -0.7800
vn 0.2525 0.5726 -0.7800
vn 0.3198 0.5850 -0.7453
vn -0.3198 0.5850 -0.7453
vn -0.6430 0.5973 -0.4794
vn -0.6332 0.5983 -0.4910
vn 0.2525 0.5726 0.7800
vn -0.2525 0.5726 0.7800
vn -0.3198 0.5850 0.7453
vn 0.3198 0.5850 0.7453
vn 0.6430 0.5973 0.4794
vn 0.6332 0.5983 0.4910
vn 0.3198 -0.5850 -0.7453
vn 0.6332 -0.5983 -0.4910
vn 0.6430 -0.5973 -0.4794
vn 0.2525 -0.5726 -0.7800
vn 0.8003 -0.5588 0.2176
vn 0.6332 -0.5983 0.4910
vn 0.6430 -0.5973 0.4794
vn 0.8219 -0.5463 0.1610
vn -0.3198 -0.5850 0.7453
vn -0.6332 -0.5983 0.4910
vn -0.6430 -0.5973 0.4794
vn -0.2525 -0.5726 0.7800
vn 0.3198 -0.5850 0.7453
vn 0.2525 -0.5726 0.7800
vn -0.3198 -0.5850 -0.7453
vn -0.2525 -0.5726 -0.7800
vn 0.8003 -0.5588 -0.2176
vn 0.8219 -0.5463 -0.1610
vn -0.8003 -0.5588 0.2176
vn -0.8219 -0.5463 0.1610
s 1
f 9/1/1 60/2/1 49/3/2 7/4/2
f 21/5/3 64/6/3 51/7/4 5/8/4
f 14/9/5 53/10/5 56/11/6 13/12/6
f 17/13/7 68/14/7 47/15/8 3/16/8
f 32/17/9 21/5/9 5/8/9 14/9/9
f 28/18/10 19/19/10 2/20/10 16/21/10
f 24/22/10 26/23/10 15/24/10 6/25/10
f 26/23/10 28/18/10 16/21/10 15/24/10
f 18/26/9 30/27/9 13/12/9 1/28/9
f 30/27/9 32/17/9 14/9/9 13/12/9
f 5/8/4 51/7/4 53/10/5 14/9/5
f 10/29/11 57/30/11 60/2/1 9/1/1
f 3/16/8 47/15/8 57/30/11 10/29/11
f 22/31/12 61/32/12 64/6/3 21/5/3
f 10/29/9 9/1/9 31/33/9 29/34/9
f 29/34/9 31/33/9 32/17/9 30/27/9
f 3/16/9 10/29/9 29/34/9 17/13/9
f 17/13/9 29/34/9 30/27/9 18/26/9
f 12/35/10 11/36/10 27/37/10 25/38/10
f 25/38/10 27/37/10 28/18/10 26/23/10
f 8/39/10 12/35/10 25/38/10 23/40/10
f 23/40/10 25/38/10 26/23/10 24/22/10
f 11/36/10 4/41/10 20/42/10 27/37/10
f 27/37/10 20/42/10 19/19/10 28/18/10
f 9/1/9 7/4/9 22/31/9 31/33/9
f 31/33/9 22/31/9 21/5/9 32/17/9
f 7/4/2 49/3/2 61/32/12 22/31/12
f 18/26/13 65/43/13 68/14/7 17/13/7
f 13/12/6 56/11/6 45/44/14 1/28/14
f 67/45/15 48/46/16 36/47/17 43/48/18
f 66/49/13 19/19/13 20/42/7 67/50/7
f 55/51/6 16/21/6 2/20/14 46/52/14
f 62/53/12 23/40/12 24/22/3 63/54/3
f 59/55/1 12/35/1 8/39/2 50/56/2
f 58/57/11 11/36/11 12/35/1 59/55/1
f 67/50/7 20/42/7 4/41/8 48/58/8
f 54/59/5 15/24/5 16/21/6 55/51/6
f 63/54/3 24/22/3 6/25/4 52/60/4
f 1/28/14 45/44/14 65/43/13 18/26/13
f 52/60/4 6/25/4 15/24/5 54/59/5
f 50/56/2 8/39/2 23/40/12 62/53/12
f 48/58/8 4/41/8 11/36/11 58/57/11
f 44/61/19 43/48/20 68/62/21 65/63/22
f 42/64/23 44/61/19 65/63/22 45/65/24
f 41/66/25 40/67/26 64/68/27 61/69/28
f 39/70/29 41/66/25 61/69/28 49/71/30
f 38/72/31 37/73/32 60/74/33 57/75/34
f 36/47/35 38/72/31 57/75/34 47/76/36
f 35/77/37 34/78/38 56/79/39 53/80/40
f 33/81/41 35/77/37 53/80/40 51/82/42
f 34/78/38 42/64/23 45/65/24 56/79/39
f 40/67/26 33/81/41 51/82/42 64/68/27
f 37/73/32 39/70/29 49/71/30 60/74/33
f 43/48/20 36/47/35 47/76/36 68/62/21
f 46/52/14 2/20/14 19/19/13 66/49/13
f 59/83/43 50/84/44 39/70/45 37/73/46
f 63/85/47 52/86/48 33/81/49 40/67/50
f 55/87/51 46/88/52 42/64/53 34/78/54
f 52/86/48 54/89/55 35/77/56 33/81/49
f 54/89/55 55/87/51 34/78/54 35/77/56
f 48/46/16 58/90/57 38/72/58 36/47/17
f 58/90/57 59/83/43 37/73/46 38/72/58
f 50/84/44 62/91/59 41/66/60 39/70/45
f 62/91/59 63/85/47 40/67/50 41/66/60
f 46/88/52 66/92/61 44/61/62 42/64/53
f 66/92/61 67/45/15 43/48/18 44/61/62
