# Blender v2.83.4 OBJ File: 'decos.blend'
# www.blender.org
o Torus.001
v 3.523599 3.947129 -0.026599
v 3.213692 3.947129 -0.784373
v 2.443583 3.947129 -1.128779
v 1.635513 3.947129 -0.822666
v 1.286487 3.947129 -0.011410
v 1.635513 3.947129 0.799847
v 2.443583 3.947129 1.105959
v 3.201930 3.947129 0.773713
v 3.051526 2.185331 -0.026599
v 2.783138 2.340284 -0.784373
v 2.116205 2.725338 -1.128779
v 1.416396 3.129373 -0.822666
v 1.114130 3.303885 -0.011410
v 1.416396 3.129373 0.799847
v 2.116205 2.725338 1.105960
v 2.772953 2.346165 0.773714
v 1.761799 0.895600 -0.026599
v 1.606845 1.163990 -0.784373
v 1.221792 1.830923 -1.128779
v 0.817757 2.530734 -0.822666
v 0.643243 2.832999 -0.011410
v 0.817757 2.530734 0.799847
v 1.221792 1.830923 1.105960
v 1.600965 1.174176 0.773714
v 0.000000 0.423529 -0.026599
v 0.000000 0.733437 -0.784373
v 0.000000 1.503546 -1.128779
v 0.000000 2.311617 -0.822666
v 0.000000 2.660642 -0.011410
v 0.000000 2.311617 0.799847
v 0.000000 1.503546 1.105960
v 0.000000 0.745198 0.773714
v -1.761799 0.895600 -0.026599
v -1.606845 1.163990 -0.784374
v -1.221791 1.830923 -1.128779
v -0.817756 2.530734 -0.822666
v -0.643243 2.832999 -0.011410
v -0.817756 2.530734 0.799847
v -1.221791 1.830923 1.105960
v -1.600965 1.174176 0.773714
v -3.051526 2.185328 -0.026599
v -2.783138 2.340285 -0.784374
v -2.116205 2.725338 -1.128779
v -1.416396 3.129372 -0.822666
v -1.114130 3.303885 -0.011410
v -1.416396 3.129372 0.799847
v -2.116205 2.725339 1.105960
v -2.772953 2.346165 0.773714
v -3.523599 3.947129 -0.026599
v -3.213692 3.947129 -0.784373
v -2.443583 3.947129 -1.128779
v -1.635513 3.947129 -0.822666
v -1.286487 3.947129 -0.011410
v -1.635513 3.947129 0.799847
v -2.443583 3.947129 1.105959
v -3.201930 3.947129 0.773714
v -3.051527 5.708929 -0.026599
v -2.783139 5.553972 -0.784374
v -2.116206 5.168922 -1.128779
v -1.416396 4.764887 -0.822666
v -1.114130 4.590375 -0.011410
v -1.416396 4.764887 0.799847
v -2.116206 5.168922 1.105959
v -2.772953 5.548092 0.773714
v -1.761799 6.998653 -0.026599
v -1.606845 6.730268 -0.784373
v -1.221791 6.063334 -1.128779
v -0.817756 5.363526 -0.822666
v -0.643243 5.061261 -0.011410
v -0.817756 5.363525 0.799847
v -1.221792 6.063335 1.105959
v -1.600965 6.720081 0.773713
v 0.000000 7.470728 -0.026599
v 0.000000 7.160826 -0.784373
v 0.000000 6.390715 -1.128779
v 0.000000 5.582642 -0.822666
v 0.000000 5.233619 -0.011410
v 0.000000 5.582642 0.799846
v 0.000000 6.390715 1.105959
v 0.000000 7.149063 0.773713
v 1.761799 6.998653 -0.026599
v 1.606845 6.730268 -0.784373
v 1.221792 6.063334 -1.128779
v 0.817757 5.363526 -0.822666
v 0.643243 5.061261 -0.011410
v 0.817757 5.363526 0.799847
v 1.221792 6.063334 1.105959
v 1.600965 6.720081 0.773713
v 3.051526 5.708929 -0.026599
v 2.783138 5.553976 -0.784373
v 2.116205 5.168922 -1.128779
v 1.416396 4.764887 -0.822666
v 1.114130 4.590375 -0.011410
v 1.416396 4.764887 0.799847
v 2.116205 5.168922 1.105959
v 2.772953 5.548096 0.773713
v 3.425238 3.947129 0.400478
v 2.966343 2.234510 0.400478
v 1.712619 0.980785 0.400478
v 0.000000 0.521891 0.400478
v -1.712618 0.980785 0.400478
v -2.966343 2.234510 0.400478
v -3.425238 3.947129 0.400478
v -2.966343 5.659746 0.400478
v -1.712619 6.913473 0.400477
v 0.000000 7.372368 0.400477
v 1.712619 6.913473 0.400477
v 2.966343 5.659748 0.400477
v 1.939214 0.388284 0.265422
v 1.939214 2.941928 0.265422
v 1.939214 0.388284 -0.083812
v 1.939214 2.941928 -0.083812
v 2.288448 0.388284 0.265422
v 2.288448 2.941928 0.265422
v 2.288448 0.388284 -0.083812
v 2.288448 2.941928 -0.083812
v -1.939214 0.388284 0.265422
v -1.939214 2.941928 0.265422
v -1.939214 0.388284 -0.083812
v -1.939214 2.941928 -0.083812
v -2.288448 0.388284 0.265422
v -2.288448 2.941928 0.265422
v -2.288448 0.388284 -0.083812
v -2.288448 2.941928 -0.083812
vt 0.210938 0.554688
vt 0.210938 0.554688
vt 0.210938 0.554688
vt 0.210938 0.554688
vt 0.210938 0.554688
vt 0.210938 0.554688
vt 0.210938 0.554688
vt 0.210938 0.554688
vt 0.210938 0.554688
vt 0.210938 0.554688
vt 0.210938 0.554688
vt 0.210938 0.554688
vt 0.210938 0.554688
vt 0.210938 0.554688
vt 0.210938 0.554688
vt 0.210938 0.554688
vt 0.195312 0.554688
vt 0.195312 0.554688
vt 0.195312 0.554688
vt 0.195312 0.554688
vt 0.195312 0.554688
vt 0.195312 0.554688
vt 0.195312 0.554688
vt 0.195312 0.554688
vt 0.195312 0.554688
vt 0.195312 0.554688
vt 0.195312 0.554688
vt 0.195312 0.554688
vt 0.179688 0.804688
vt 0.179688 0.804688
vt 0.179688 0.804688
vt 0.179688 0.804688
vt 0.179688 0.804688
vt 0.179688 0.804688
vt 0.210938 0.554688
vt 0.210938 0.554688
vt 0.210938 0.554688
vt 0.210938 0.554688
vt 0.195312 0.554688
vt 0.195312 0.554688
vt 0.195312 0.554688
vt 0.195312 0.554688
vt 0.195312 0.554688
vt 0.195312 0.554688
vt 0.179688 0.804688
vt 0.179688 0.804688
vt 0.179688 0.804688
vt 0.210938 0.554688
vt 0.210938 0.554688
vt 0.195312 0.554688
vt 0.195312 0.554688
vt 0.195312 0.554688
vt 0.195312 0.554688
vt 0.195312 0.554688
vt 0.195312 0.554688
vt 0.179688 0.804688
vt 0.179688 0.804688
vt 0.179688 0.804688
vt 0.210938 0.554688
vt 0.210938 0.554688
vt 0.195312 0.554688
vt 0.195312 0.554688
vt 0.195312 0.554688
vt 0.195312 0.554688
vt 0.195312 0.554688
vt 0.195312 0.554688
vt 0.179688 0.804688
vt 0.179688 0.804688
vt 0.179688 0.804688
vt 0.210938 0.554688
vt 0.210938 0.554688
vt 0.195312 0.554688
vt 0.195312 0.554688
vt 0.195312 0.554688
vt 0.195312 0.554688
vt 0.195312 0.554688
vt 0.195312 0.554688
vt 0.179688 0.804688
vt 0.179688 0.804688
vt 0.179688 0.804688
vt 0.210938 0.554688
vt 0.210938 0.554688
vt 0.195312 0.554688
vt 0.195312 0.554688
vt 0.195312 0.554688
vt 0.195312 0.554688
vt 0.195312 0.554688
vt 0.195312 0.554688
vt 0.179688 0.804688
vt 0.179688 0.804688
vt 0.179688 0.804688
vt 0.210938 0.554688
vt 0.210938 0.554688
vt 0.195312 0.554688
vt 0.195312 0.554688
vt 0.195312 0.554688
vt 0.195312 0.554688
vt 0.195312 0.554688
vt 0.195312 0.554688
vt 0.179688 0.804688
vt 0.179688 0.804688
vt 0.179688 0.804688
vt 0.210938 0.554688
vt 0.210938 0.554688
vt 0.195312 0.554688
vt 0.195312 0.554688
vt 0.195312 0.554688
vt 0.195312 0.554688
vt 0.195312 0.554688
vt 0.195312 0.554688
vt 0.179688 0.804688
vt 0.179688 0.804688
vt 0.179688 0.804688
vt 0.210938 0.554688
vt 0.210938 0.554688
vt 0.195312 0.554688
vt 0.195312 0.554688
vt 0.195312 0.554688
vt 0.195312 0.554688
vt 0.195312 0.554688
vt 0.195312 0.554688
vt 0.179688 0.804688
vt 0.179688 0.804688
vt 0.179688 0.804688
vt 0.210938 0.554688
vt 0.210938 0.554688
vt 0.195312 0.554688
vt 0.195312 0.554688
vt 0.195312 0.554688
vt 0.195312 0.554688
vt 0.195312 0.554688
vt 0.195312 0.554688
vt 0.179688 0.804688
vt 0.179688 0.804688
vt 0.179688 0.804688
vt 0.210938 0.554688
vt 0.210938 0.554688
vt 0.195312 0.554688
vt 0.195312 0.554688
vt 0.195312 0.554688
vt 0.195312 0.554688
vt 0.195312 0.554688
vt 0.195312 0.554688
vt 0.179688 0.804688
vt 0.179688 0.804688
vt 0.179688 0.804688
vt 0.210938 0.554688
vt 0.210938 0.554688
vt 0.179688 0.804688
vt 0.179688 0.804688
vt 0.179688 0.804688
vt 0.179688 0.804688
vt 0.179688 0.804688
vt 0.179688 0.804688
vt 0.179688 0.804688
vt 0.179688 0.804688
vt 0.179688 0.804688
vt 0.179688 0.804688
vt 0.179688 0.804688
vt 0.179688 0.804688
vn -1.0000 0.0000 0.0000
vn 0.0000 0.0000 -1.0000
vn 1.0000 0.0000 0.0000
vn 0.0000 0.0000 1.0000
vn 0.9970 0.0000 -0.0771
vn 0.8634 -0.4985 -0.0771
vn 0.6459 -0.3729 -0.6662
vn 0.7458 0.0000 -0.6662
vn 0.0799 -0.0461 -0.9957
vn 0.0922 0.0000 -0.9957
vn -0.5667 0.3272 -0.7562
vn -0.6543 0.0000 -0.7562
vn -0.8660 0.5000 0.0000
vn -0.5667 0.3272 0.7562
vn -0.6543 0.0000 0.7562
vn 0.0761 -0.0439 0.9961
vn 0.0879 0.0000 0.9961
vn 0.5956 -0.3439 0.7260
vn 0.6877 0.0000 0.7260
vn 0.9311 0.0000 0.3648
vn 0.8063 -0.4655 0.3648
vn 0.4985 -0.8634 -0.0771
vn 0.3729 -0.6459 -0.6662
vn 0.0461 -0.0799 -0.9957
vn -0.3272 0.5667 -0.7562
vn -0.5000 0.8660 0.0000
vn -0.3272 0.5667 0.7562
vn 0.0439 -0.0761 0.9961
vn 0.3439 -0.5956 0.7260
vn 0.4655 -0.8063 0.3648
vn 0.0000 -0.9970 -0.0771
vn 0.0000 -0.7458 -0.6662
vn 0.0000 -0.0922 -0.9957
vn 0.0000 0.6543 -0.7562
vn 0.0000 1.0000 0.0000
vn 0.0000 0.6543 0.7562
vn 0.0000 -0.0879 0.9961
vn 0.0000 -0.6877 0.7260
vn 0.0000 -0.9310 0.3648
vn -0.4985 -0.8634 -0.0771
vn -0.3729 -0.6459 -0.6662
vn -0.0461 -0.0799 -0.9957
vn 0.3272 0.5667 -0.7562
vn 0.5000 0.8660 0.0000
vn 0.3272 0.5667 0.7562
vn -0.0439 -0.0761 0.9961
vn -0.3439 -0.5956 0.7260
vn -0.4655 -0.8063 0.3648
vn -0.8634 -0.4985 -0.0771
vn -0.6459 -0.3729 -0.6662
vn -0.0799 -0.0461 -0.9957
vn 0.5667 0.3272 -0.7562
vn 0.8660 0.5000 0.0000
vn 0.5667 0.3272 0.7562
vn -0.0761 -0.0439 0.9961
vn -0.5956 -0.3439 0.7260
vn -0.8063 -0.4655 0.3648
vn -0.9970 0.0000 -0.0771
vn -0.7458 0.0000 -0.6662
vn -0.0922 0.0000 -0.9957
vn 0.6543 0.0000 -0.7562
vn 0.6543 0.0000 0.7562
vn -0.0879 0.0000 0.9961
vn -0.6877 0.0000 0.7260
vn -0.9311 0.0000 0.3648
vn -0.8634 0.4985 -0.0771
vn -0.6459 0.3729 -0.6662
vn -0.0799 0.0461 -0.9957
vn 0.5667 -0.3272 -0.7562
vn 0.8660 -0.5000 0.0000
vn 0.5667 -0.3272 0.7562
vn -0.0761 0.0439 0.9961
vn -0.5956 0.3439 0.7260
vn -0.8063 0.4655 0.3648
vn -0.4985 0.8634 -0.0771
vn -0.3729 0.6459 -0.6662
vn -0.0461 0.0799 -0.9957
vn 0.3272 -0.5667 -0.7562
vn 0.5000 -0.8660 0.0000
vn 0.3272 -0.5667 0.7562
vn -0.0439 0.0761 0.9961
vn -0.3439 0.5956 0.7260
vn -0.4655 0.8063 0.3648
vn 0.0000 0.9970 -0.0771
vn 0.0000 0.7458 -0.6662
vn 0.0000 0.0922 -0.9957
vn 0.0000 -0.6543 -0.7562
vn 0.0000 -1.0000 0.0000
vn 0.0000 -0.6543 0.7562
vn 0.0000 0.0879 0.9961
vn 0.0000 0.6877 0.7260
vn 0.0000 0.9311 0.3648
vn 0.4985 0.8634 -0.0771
vn 0.3729 0.6459 -0.6662
vn 0.0461 0.0799 -0.9957
vn -0.3272 -0.5667 -0.7562
vn -0.5000 -0.8660 0.0000
vn -0.3272 -0.5667 0.7562
vn 0.0439 0.0761 0.9961
vn 0.3439 0.5956 0.7260
vn 0.4655 0.8063 0.3648
vn 0.8634 0.4985 -0.0771
vn 0.6459 0.3729 -0.6662
vn 0.0799 0.0461 -0.9957
vn -0.5667 -0.3272 -0.7562
vn -0.8660 -0.5000 0.0000
vn -0.5667 -0.3272 0.7562
vn 0.0761 0.0439 0.9961
vn 0.5956 0.3439 0.7260
vn 0.8063 0.4655 0.3648
s off
f 109/1/1 110/2/1 112/3/1 111/4/1
f 111/4/2 112/3/2 116/5/2 115/6/2
f 115/6/3 116/5/3 114/7/3 113/8/3
f 113/8/4 114/7/4 110/2/4 109/1/4
f 117/9/3 119/10/3 120/11/3 118/12/3
f 119/10/2 123/13/2 124/14/2 120/11/2
f 123/13/1 121/15/1 122/16/1 124/14/1
f 121/15/4 117/9/4 118/12/4 122/16/4
s 1
f 1/17/5 9/18/6 10/19/7 2/20/8
f 2/20/8 10/19/7 11/21/9 3/22/10
f 3/22/10 11/21/9 12/23/11 4/24/12
f 4/24/12 12/23/11 13/25/13 5/26/1
f 5/26/1 13/25/13 14/27/14 6/28/15
f 6/29/15 14/30/14 15/31/16 7/32/17
f 7/32/17 15/31/16 16/33/18 8/34/19
f 97/35/20 98/36/21 9/37/6 1/38/5
f 9/18/6 17/39/22 18/40/23 10/19/7
f 10/19/7 18/40/23 19/41/24 11/21/9
f 11/21/9 19/41/24 20/42/25 12/23/11
f 12/23/11 20/42/25 21/43/26 13/25/13
f 13/25/13 21/43/26 22/44/27 14/27/14
f 14/30/14 22/45/27 23/46/28 15/31/16
f 15/31/16 23/46/28 24/47/29 16/33/18
f 98/36/21 99/48/30 17/49/22 9/37/6
f 17/39/22 25/50/31 26/51/32 18/40/23
f 18/40/23 26/51/32 27/52/33 19/41/24
f 19/41/24 27/52/33 28/53/34 20/42/25
f 20/42/25 28/53/34 29/54/35 21/43/26
f 21/43/26 29/54/35 30/55/36 22/44/27
f 22/45/27 30/56/36 31/57/37 23/46/28
f 23/46/28 31/57/37 32/58/38 24/47/29
f 99/48/30 100/59/39 25/60/31 17/49/22
f 25/50/31 33/61/40 34/62/41 26/51/32
f 26/51/32 34/62/41 35/63/42 27/52/33
f 27/52/33 35/63/42 36/64/43 28/53/34
f 28/53/34 36/64/43 37/65/44 29/54/35
f 29/54/35 37/65/44 38/66/45 30/55/36
f 30/56/36 38/67/45 39/68/46 31/57/37
f 31/57/37 39/68/46 40/69/47 32/58/38
f 100/59/39 101/70/48 33/71/40 25/60/31
f 33/61/40 41/72/49 42/73/50 34/62/41
f 34/62/41 42/73/50 43/74/51 35/63/42
f 35/63/42 43/74/51 44/75/52 36/64/43
f 36/64/43 44/75/52 45/76/53 37/65/44
f 37/65/44 45/76/53 46/77/54 38/66/45
f 38/67/45 46/78/54 47/79/55 39/68/46
f 39/68/46 47/79/55 48/80/56 40/69/47
f 101/70/48 102/81/57 41/82/49 33/71/40
f 41/72/49 49/83/58 50/84/59 42/73/50
f 42/73/50 50/84/59 51/85/60 43/74/51
f 43/74/51 51/85/60 52/86/61 44/75/52
f 44/75/52 52/86/61 53/87/3 45/76/53
f 45/76/53 53/87/3 54/88/62 46/77/54
f 46/78/54 54/89/62 55/90/63 47/79/55
f 47/79/55 55/90/63 56/91/64 48/80/56
f 102/81/57 103/92/65 49/93/58 41/82/49
f 49/83/58 57/94/66 58/95/67 50/84/59
f 50/84/59 58/95/67 59/96/68 51/85/60
f 51/85/60 59/96/68 60/97/69 52/86/61
f 52/86/61 60/97/69 61/98/70 53/87/3
f 53/87/3 61/98/70 62/99/71 54/88/62
f 54/89/62 62/100/71 63/101/72 55/90/63
f 55/90/63 63/101/72 64/102/73 56/91/64
f 103/92/65 104/103/74 57/104/66 49/93/58
f 57/94/66 65/105/75 66/106/76 58/95/67
f 58/95/67 66/106/76 67/107/77 59/96/68
f 59/96/68 67/107/77 68/108/78 60/97/69
f 60/97/69 68/108/78 69/109/79 61/98/70
f 61/98/70 69/109/79 70/110/80 62/99/71
f 62/100/71 70/111/80 71/112/81 63/101/72
f 63/101/72 71/112/81 72/113/82 64/102/73
f 104/103/74 105/114/83 65/115/75 57/104/66
f 65/105/75 73/116/84 74/117/85 66/106/76
f 66/106/76 74/117/85 75/118/86 67/107/77
f 67/107/77 75/118/86 76/119/87 68/108/78
f 68/108/78 76/119/87 77/120/88 69/109/79
f 69/109/79 77/120/88 78/121/89 70/110/80
f 70/111/80 78/122/89 79/123/90 71/112/81
f 71/112/81 79/123/90 80/124/91 72/113/82
f 105/114/83 106/125/92 73/126/84 65/115/75
f 73/116/84 81/127/93 82/128/94 74/117/85
f 74/117/85 82/128/94 83/129/95 75/118/86
f 75/118/86 83/129/95 84/130/96 76/119/87
f 76/119/87 84/130/96 85/131/97 77/120/88
f 77/120/88 85/131/97 86/132/98 78/121/89
f 78/122/89 86/133/98 87/134/99 79/123/90
f 79/123/90 87/134/99 88/135/100 80/124/91
f 106/125/92 107/136/101 81/137/93 73/126/84
f 81/127/93 89/138/102 90/139/103 82/128/94
f 82/128/94 90/139/103 91/140/104 83/129/95
f 83/129/95 91/140/104 92/141/105 84/130/96
f 84/130/96 92/141/105 93/142/106 85/131/97
f 85/131/97 93/142/106 94/143/107 86/132/98
f 86/133/98 94/144/107 95/145/108 87/134/99
f 87/134/99 95/145/108 96/146/109 88/135/100
f 107/136/101 108/147/110 89/148/102 81/137/93
f 89/138/102 1/17/5 2/20/8 90/139/103
f 90/139/103 2/20/8 3/22/10 91/140/104
f 91/140/104 3/22/10 4/24/12 92/141/105
f 92/141/105 4/24/12 5/26/1 93/142/106
f 93/142/106 5/26/1 6/28/15 94/143/107
f 94/144/107 6/29/15 7/32/17 95/145/108
f 95/145/108 7/32/17 8/34/19 96/146/109
f 108/147/110 97/35/20 1/38/5 89/148/102
f 96/146/109 8/34/19 97/149/20 108/150/110
f 88/135/100 96/146/109 108/150/110 107/151/101
f 80/124/91 88/135/100 107/151/101 106/152/92
f 72/113/82 80/124/91 106/152/92 105/153/83
f 64/102/73 72/113/82 105/153/83 104/154/74
f 56/91/64 64/102/73 104/154/74 103/155/65
f 48/80/56 56/91/64 103/155/65 102/156/57
f 40/69/47 48/80/56 102/156/57 101/157/48
f 32/58/38 40/69/47 101/157/48 100/158/39
f 24/47/29 32/58/38 100/158/39 99/159/30
f 16/33/18 24/47/29 99/159/30 98/160/21
f 8/34/19 16/33/18 98/160/21 97/149/20
