# Blender v2.90.0 Alpha OBJ File: 'Decos.blend'
# www.blender.org
o Cube.002_Cube.007
v -4.536229 -1.000000 2.964819
v -4.536229 -0.483000 2.964819
v -4.536229 -1.000000 -1.000000
v -4.536229 0.950591 -1.000000
v 4.536229 -1.000000 2.964819
v 4.536229 -0.483000 2.964819
v 4.536229 -1.000000 -1.000000
v 4.536229 0.950591 -1.000000
vt 0.085938 0.757812
vt 0.085938 0.757812
vt 0.085938 0.757812
vt 0.085938 0.757812
vt 0.085938 0.757812
vt 0.085938 0.757812
vt 0.085938 0.757812
vt 0.085938 0.757812
vt 0.007812 0.742188
vt 0.007812 0.742188
vt 0.007812 0.742188
vt 0.007812 0.742188
vn -1.0000 0.0000 0.0000
vn 1.0000 0.0000 0.0000
vn 0.0000 0.0000 1.0000
vn 0.0000 -1.0000 0.0000
vn 0.0000 0.9404 0.3400
s off
f 1/1/1 2/2/1 4/3/1 3/4/1
f 7/5/2 8/6/2 6/7/2 5/8/2
f 5/8/3 6/7/3 2/2/3 1/1/3
f 3/4/4 7/5/4 5/8/4 1/1/4
f 8/9/5 4/10/5 2/11/5 6/12/5
