# Blender v2.90.0 Alpha OBJ File: 'Decos.blend'
# www.blender.org
o Cube.002_Cube
v -0.930466 2.354255 0.053097
v -0.904645 4.735154 0.053097
v -0.930466 2.354255 -0.053096
v -0.904645 4.735154 -0.053096
v 0.505790 2.354255 0.053097
v 0.479968 4.735154 0.053097
v 0.505790 2.354255 -0.053096
v 0.479968 4.735154 -0.053096
v -0.775326 5.880366 0.053097
v -0.775326 5.880366 -0.053096
v 0.461167 5.880366 0.053097
v 0.461167 5.880366 -0.053096
v -0.564746 6.778282 0.053097
v -0.564746 6.778282 -0.053096
v 0.250587 6.778282 0.053097
v 0.250587 6.778282 -0.053096
v -0.233843 7.166458 0.053097
v -0.233843 7.166458 -0.053096
v -0.080316 7.166458 0.053097
v -0.080316 7.166458 -0.053096
v -0.699865 0.886762 0.053097
v -0.699865 0.886762 -0.053096
v 0.275189 0.886762 0.053097
v 0.275189 0.886762 -0.053096
v -0.413966 0.100944 0.053097
v -0.413966 0.100944 -0.053096
v -0.010711 0.100944 0.053097
v -0.010711 0.100944 -0.053096
v -0.065037 2.354255 -0.053096
v -0.339420 2.354255 -0.053096
v -0.334487 4.735154 -0.053096
v -0.069970 4.735154 -0.053096
v -0.339420 2.354255 0.053097
v -0.065037 2.354255 0.053097
v -0.069970 4.735154 0.053097
v -0.334487 4.735154 0.053097
v -0.288669 5.880366 -0.053096
v -0.052449 5.880366 -0.053096
v -0.052449 5.880366 0.053097
v -0.288669 5.880366 0.053097
v -0.248440 6.778282 -0.053096
v -0.092678 6.778282 -0.053096
v -0.092678 6.778282 0.053097
v -0.248440 6.778282 0.053097
v -0.183632 7.166458 -0.053096
v -0.155894 7.166458 -0.053096
v -0.155894 7.166458 0.053097
v -0.183632 7.166458 0.053097
v -0.109091 0.886762 -0.053096
v -0.295366 0.886762 -0.053096
v -0.295366 0.886762 0.053097
v -0.109091 0.886762 0.053097
v -0.163710 0.100944 -0.053096
v -0.240748 0.100944 -0.053096
v -0.240748 0.100944 0.053097
v -0.163710 0.100944 0.053097
v -0.173267 2.354255 -0.053096
v -0.216952 2.354255 -0.053096
v -0.216167 4.735154 -0.053096
v -0.174052 4.735154 -0.053096
v -0.216952 2.354255 0.053097
v -0.173267 2.354255 0.053097
v -0.174052 4.735154 0.053097
v -0.216167 4.735154 0.053097
v -0.198787 5.880366 -0.053096
v -0.161178 5.880366 -0.053096
v -0.161178 5.880366 0.053097
v -0.198787 5.880366 0.053097
v -0.192382 6.778282 -0.053096
v -0.167583 6.778282 -0.053096
v -0.167583 6.778282 0.053097
v -0.192382 6.778282 0.053097
v -0.177648 7.166458 -0.053096
v -0.177648 7.166458 0.053097
v -0.180281 0.886762 -0.053096
v -0.209938 0.886762 -0.053096
v -0.209938 0.886762 0.053097
v -0.180281 0.886762 0.053097
v -0.188977 0.100944 -0.053096
v -0.201242 0.100944 -0.053096
v -0.201242 0.100944 0.053097
v -0.188977 0.100944 0.053097
vt 0.132812 0.898438
vt 0.132812 0.898438
vt 0.132812 0.898438
vt 0.132812 0.898438
vt 0.132812 0.898438
vt 0.132812 0.898438
vt 0.132812 0.898438
vt 0.132812 0.898438
vt 0.132812 0.898438
vt 0.132812 0.898438
vt 0.132812 0.898438
vt 0.132812 0.898438
vt 0.132812 0.898438
vt 0.132812 0.898438
vt 0.132812 0.898438
vt 0.132812 0.898438
vt 0.132812 0.898438
vt 0.132812 0.898438
vt 0.132812 0.898438
vt 0.132812 0.898438
vt 0.132812 0.898438
vt 0.132812 0.898438
vt 0.132812 0.898438
vt 0.132812 0.898438
vt 0.132812 0.898438
vt 0.132812 0.898438
vt 0.132812 0.898438
vt 0.132812 0.898438
vt 0.132812 0.898438
vt 0.132812 0.898438
vt 0.132812 0.898438
vt 0.132812 0.898438
vt 0.132812 0.898438
vt 0.132812 0.898438
vt 0.132812 0.898438
vt 0.132812 0.898438
vt 0.132812 0.898438
vt 0.132812 0.898438
vt 0.132812 0.898438
vt 0.132812 0.898438
vt 0.132812 0.898438
vt 0.132812 0.898438
vt 0.132812 0.898438
vt 0.132812 0.898438
vt 0.132812 0.898438
vt 0.132812 0.898438
vt 0.132812 0.898438
vt 0.132812 0.898438
vt 0.257812 0.789062
vt 0.257812 0.789062
vt 0.257812 0.789062
vt 0.257812 0.789062
vt 0.132812 0.898438
vt 0.257812 0.789062
vt 0.257812 0.789062
vt 0.257812 0.789062
vt 0.257812 0.789062
vt 0.257812 0.789062
vt 0.257812 0.789062
vt 0.132812 0.898438
vt 0.257812 0.789062
vt 0.257812 0.789062
vt 0.132812 0.898438
vt 0.132812 0.898438
vt 0.257812 0.789062
vt 0.257812 0.789062
vt 0.257812 0.789062
vt 0.132812 0.898438
vt 0.257812 0.789062
vt 0.257812 0.789062
vt 0.132812 0.898438
vt 0.132812 0.898438
vt 0.257812 0.789062
vt 0.257812 0.789062
vt 0.257812 0.789062
vt 0.257812 0.789062
vt 0.257812 0.789062
vt 0.257812 0.789063
vt 0.257812 0.789062
vt 0.257812 0.789062
vt 0.257812 0.789062
vt 0.257812 0.789062
vt 0.132812 0.898438
vt 0.257812 0.789062
vt 0.257812 0.789062
vt 0.257812 0.789062
vt 0.257812 0.789062
vt 0.257812 0.789062
vt 0.257812 0.789062
vt 0.257812 0.789062
vt 0.257812 0.789062
vt 0.132812 0.898438
vt 0.132812 0.898438
vt 0.132812 0.898438
vt 0.132812 0.898438
vt 0.257812 0.789062
vt 0.257812 0.789062
vt 0.132812 0.898438
vt 0.132812 0.898438
vt 0.132812 0.898438
vt 0.132812 0.898438
vt 0.257812 0.789062
vt 0.257812 0.789062
vt 0.132812 0.898438
vt 0.132812 0.898438
vt 0.257812 0.789063
vt 0.257812 0.789062
vt 0.132812 0.898438
vt 0.132812 0.898438
vt 0.257812 0.789062
vt 0.257812 0.789062
vt 0.132812 0.898438
vt 0.132812 0.898438
vt 0.257812 0.789062
vt 0.257812 0.789062
vt 0.257812 0.789062
vt 0.132812 0.898438
vt 0.132812 0.898438
vt 0.132812 0.898438
vt 0.257812 0.789062
vt 0.257812 0.789062
vt 0.132812 0.898438
vt 0.132812 0.898438
vt 0.257812 0.789062
vt 0.257812 0.789062
vt 0.132812 0.898438
vt 0.257812 0.789062
vt 0.257812 0.789062
vt 0.132812 0.898438
vt 0.132812 0.898438
vt 0.257812 0.789062
vt 0.257812 0.789062
vt 0.132812 0.898438
vt 0.132812 0.898438
vt 0.132812 0.898438
vt 0.132812 0.898438
vn -0.9999 0.0108 0.0000
vn 0.0000 0.0000 -1.0000
vn 0.9999 0.0108 0.0000
vn 0.0000 0.0000 1.0000
vn 0.9736 0.2283 0.0000
vn 0.9999 0.0164 0.0000
vn -0.9937 0.1122 0.0000
vn -0.9736 0.2283 0.0000
vn 0.0000 1.0000 0.0000
vn 0.7610 0.6487 0.0000
vn -0.7610 0.6487 0.0000
vn 0.9397 -0.3419 0.0000
vn -0.9879 -0.1552 0.0000
vn 0.9879 -0.1552 0.0000
vn 0.0000 -1.0000 0.0000
vn -0.9397 -0.3419 0.0000
s off
f 1/1/1 2/2/1 4/3/1 3/4/1
f 29/5/2 32/6/2 8/7/2 7/8/2
f 7/8/3 8/7/3 6/9/3 5/10/3
f 33/11/4 36/12/4 2/2/4 1/1/4
f 33/11/4 1/1/4 21/13/4 51/14/4
f 31/15/2 4/3/2 10/16/2 37/17/2
f 11/18/5 12/19/5 16/20/5 15/21/5
f 6/9/6 8/7/6 12/19/6 11/18/6
f 4/3/7 2/2/7 9/22/7 10/16/7
f 35/23/4 6/9/4 11/18/4 39/24/4
f 43/25/4 15/21/4 19/26/4 47/27/4
f 10/16/8 9/22/8 13/28/8 14/29/8
f 39/24/4 11/18/4 15/21/4 43/25/4
f 37/17/2 10/16/2 14/29/2 41/30/2
f 45/31/9 18/32/9 17/33/9 48/34/9
f 41/30/2 14/29/2 18/32/2 45/31/2
f 15/21/10 16/20/10 20/35/10 19/26/10
f 14/29/11 13/28/11 17/33/11 18/32/11
f 24/36/12 23/37/12 27/38/12 28/39/12
f 29/5/2 7/8/2 24/36/2 49/40/2
f 1/1/13 3/4/13 22/41/13 21/13/13
f 7/8/14 5/10/14 23/37/14 24/36/14
f 53/42/15 28/39/15 27/38/15 56/43/15
f 21/13/16 22/41/16 26/44/16 25/45/16
f 51/14/4 21/13/4 25/45/4 55/46/4
f 49/40/2 24/36/2 28/39/2 53/42/2
f 22/41/2 50/47/2 54/48/2 26/44/2
f 75/49/2 49/50/2 53/51/2 79/52/2
f 23/37/4 52/53/4 56/43/4 27/38/4
f 77/54/4 51/55/4 55/56/4 81/57/4
f 26/44/15 54/48/15 55/46/15 25/45/15
f 79/52/15 53/51/15 56/58/15 82/59/15
f 3/4/2 30/60/2 50/47/2 22/41/2
f 57/61/2 29/62/2 49/50/2 75/49/2
f 16/20/2 42/63/2 46/64/2 20/35/2
f 69/65/2 41/66/2 45/67/2
f 20/35/9 46/64/9 47/27/9 19/26/9
f 12/19/2 38/68/2 42/63/2 16/20/2
f 65/69/2 37/70/2 41/66/2 69/65/2
f 9/22/4 40/71/4 44/72/4 13/28/4
f 67/73/4 39/74/4 43/75/4 71/76/4
f 13/28/4 44/72/4 48/34/4 17/33/4
f 71/76/4 43/75/4 47/77/4 74/78/4
f 2/2/4 36/12/4 40/71/4 9/22/4
f 63/79/4 35/80/4 39/74/4 67/73/4
f 8/7/2 32/6/2 38/68/2 12/19/2
f 59/81/2 31/82/2 37/70/2 65/69/2
f 5/10/4 34/83/4 52/53/4 23/37/4
f 61/84/4 33/85/4 51/55/4 77/54/4
f 5/10/4 6/9/4 35/23/4 34/83/4
f 61/84/4 64/86/4 36/87/4 33/85/4
f 3/4/2 4/3/2 31/15/2 30/60/2
f 57/61/2 60/88/2 32/89/2 29/62/2
f 30/90/2 31/82/2 59/81/2 58/91/2
f 58/92/2 59/93/2 60/94/2 57/95/2
f 34/96/4 35/80/4 63/79/4 62/97/4
f 62/98/4 63/99/4 64/100/4 61/101/4
f 34/96/4 62/97/4 78/102/4 52/103/4
f 62/98/4 61/101/4 77/104/4 78/105/4
f 32/89/2 60/88/2 66/106/2 38/107/2
f 60/94/2 59/93/2 65/108/2 66/109/2
f 36/87/4 64/86/4 68/110/4 40/111/4
f 64/100/4 63/99/4 67/112/4 68/113/4
f 44/114/4 72/115/4 48/116/4
f 72/117/4 71/118/4 74/119/4 48/34/4
f 40/111/4 68/110/4 72/115/4 44/114/4
f 68/113/4 67/112/4 71/118/4 72/117/4
f 38/107/2 66/106/2 70/120/2 42/121/2
f 66/109/2 65/108/2 69/122/2 70/123/2
f 46/124/9 73/125/9 74/78/9 47/77/9
f 73/126/9 45/31/9 48/34/9 74/119/9
f 42/121/2 70/120/2 73/125/2 46/124/2
f 70/123/2 69/122/2 45/31/2 73/126/2
f 30/90/2 58/91/2 76/127/2 50/128/2
f 58/92/2 57/95/2 75/129/2 76/130/2
f 54/131/15 80/132/15 81/57/15 55/56/15
f 80/133/15 79/134/15 82/135/15 81/136/15
f 52/103/4 78/102/4 82/59/4 56/58/4
f 78/105/4 77/104/4 81/136/4 82/135/4
f 50/128/2 76/127/2 80/132/2 54/131/2
f 76/130/2 75/129/2 79/134/2 80/133/2
