# Blender v2.90.0 Alpha OBJ File: 'Decos.blend'
# www.blender.org
o Cube.002_Cube
v -0.930466 2.354255 0.053097
v -0.904645 4.735154 0.053097
v -0.930466 2.354255 -0.053096
v -0.904645 4.735154 -0.053096
v 0.505790 2.354255 0.053097
v 0.479968 4.735154 0.053097
v 0.505790 2.354255 -0.053096
v 0.479968 4.735154 -0.053096
v -0.775326 5.880366 0.053097
v -0.775326 5.880366 -0.053096
v 0.461167 5.880366 0.053097
v 0.461167 5.880366 -0.053096
v -0.564746 6.778282 0.053097
v -0.564746 6.778282 -0.053096
v 0.250587 6.778282 0.053097
v 0.250587 6.778282 -0.053096
v -0.233843 7.166458 0.053097
v -0.233843 7.166458 -0.053096
v -0.080316 7.166458 0.053097
v -0.080316 7.166458 -0.053096
v -0.699865 0.886762 0.053097
v -0.699865 0.886762 -0.053096
v 0.275189 0.886762 0.053097
v 0.275189 0.886762 -0.053096
v -0.413966 0.100944 0.053097
v -0.413966 0.100944 -0.053096
v -0.010711 0.100944 0.053097
v -0.010711 0.100944 -0.053096
v -0.118142 2.354255 -0.053096
v -0.274654 2.354255 -0.053096
v -0.271840 4.735154 -0.053096
v -0.120956 4.735154 -0.053096
v -0.274654 2.354255 0.053097
v -0.118142 2.354255 0.053097
v -0.120956 4.735154 0.053097
v -0.271840 4.735154 0.053097
v -0.245705 5.880366 -0.053096
v -0.110961 5.880366 -0.053096
v -0.110961 5.880366 0.053097
v -0.245705 5.880366 0.053097
v -0.222757 6.778282 -0.053096
v -0.133909 6.778282 -0.053096
v -0.133909 6.778282 0.053097
v -0.222757 6.778282 0.053097
v -0.186698 7.166458 -0.053096
v -0.169968 7.166458 -0.053096
v -0.169968 7.166458 0.053097
v -0.186698 7.166458 0.053097
v -0.143271 0.886762 -0.053096
v -0.249525 0.886762 -0.053096
v -0.249525 0.886762 0.053097
v -0.143271 0.886762 0.053097
v -0.174426 0.100944 -0.053096
v -0.218370 0.100944 -0.053096
v -0.218370 0.100944 0.053097
v -0.174426 0.100944 0.053097
vt 0.195312 0.867188
vt 0.195312 0.867188
vt 0.195312 0.867188
vt 0.195312 0.867188
vt 0.195312 0.867188
vt 0.195312 0.867188
vt 0.195312 0.867188
vt 0.195312 0.867188
vt 0.195312 0.867188
vt 0.195312 0.867188
vt 0.195312 0.867188
vt 0.195312 0.867188
vt 0.195312 0.867188
vt 0.195312 0.867188
vt 0.195312 0.867188
vt 0.195312 0.867188
vt 0.195312 0.867188
vt 0.195312 0.867188
vt 0.195312 0.867188
vt 0.195312 0.867188
vt 0.195312 0.867188
vt 0.195312 0.867188
vt 0.195312 0.867188
vt 0.195312 0.867188
vt 0.195312 0.867188
vt 0.195312 0.867188
vt 0.195312 0.867188
vt 0.195312 0.867188
vt 0.195312 0.867188
vt 0.195312 0.867188
vt 0.195312 0.867188
vt 0.195312 0.867188
vt 0.195312 0.867188
vt 0.195312 0.867188
vt 0.195312 0.867188
vt 0.195312 0.867188
vt 0.195312 0.867188
vt 0.195312 0.867188
vt 0.195312 0.867188
vt 0.195312 0.867188
vt 0.195312 0.867188
vt 0.195312 0.867188
vt 0.195312 0.867188
vt 0.195312 0.867188
vt 0.195312 0.867188
vt 0.195312 0.867188
vt 0.195312 0.867188
vt 0.195312 0.867188
vt 0.164062 0.898438
vt 0.164062 0.898438
vt 0.164062 0.898438
vt 0.164062 0.898438
vt 0.195312 0.867188
vt 0.164062 0.898438
vt 0.164062 0.898438
vt 0.164062 0.898438
vt 0.164062 0.898438
vt 0.195312 0.867188
vt 0.164062 0.898438
vt 0.164062 0.898438
vt 0.195312 0.867188
vt 0.195312 0.867188
vt 0.164062 0.898438
vt 0.164062 0.898438
vt 0.164062 0.898438
vt 0.164062 0.898438
vt 0.164062 0.898438
vt 0.164062 0.898438
vt 0.195312 0.867188
vt 0.164062 0.898438
vt 0.164062 0.898438
vt 0.195312 0.867188
vt 0.195312 0.867188
vt 0.164062 0.898438
vt 0.164062 0.898438
vt 0.164062 0.898438
vt 0.164062 0.898438
vt 0.164062 0.898438
vt 0.164062 0.898438
vt 0.164062 0.898438
vt 0.164062 0.898438
vt 0.195312 0.867188
vt 0.164062 0.898438
vt 0.164062 0.898438
vn -0.9999 0.0108 0.0000
vn 0.0000 0.0000 -1.0000
vn 0.9999 0.0108 0.0000
vn 0.0000 0.0000 1.0000
vn 0.9736 0.2283 0.0000
vn 0.9999 0.0164 0.0000
vn -0.9937 0.1122 0.0000
vn -0.9736 0.2283 0.0000
vn 0.0000 1.0000 0.0000
vn 0.7610 0.6487 0.0000
vn -0.7610 0.6487 0.0000
vn 0.9397 -0.3419 0.0000
vn -0.9879 -0.1552 0.0000
vn 0.9879 -0.1552 0.0000
vn 0.0000 -1.0000 0.0000
vn -0.9397 -0.3419 0.0000
s off
f 1/1/1 2/2/1 4/3/1 3/4/1
f 29/5/2 32/6/2 8/7/2 7/8/2
f 7/8/3 8/7/3 6/9/3 5/10/3
f 33/11/4 36/12/4 2/2/4 1/1/4
f 33/11/4 1/1/4 21/13/4 51/14/4
f 31/15/2 4/3/2 10/16/2 37/17/2
f 11/18/5 12/19/5 16/20/5 15/21/5
f 6/9/6 8/7/6 12/19/6 11/18/6
f 4/3/7 2/2/7 9/22/7 10/16/7
f 35/23/4 6/9/4 11/18/4 39/24/4
f 43/25/4 15/21/4 19/26/4 47/27/4
f 10/16/8 9/22/8 13/28/8 14/29/8
f 39/24/4 11/18/4 15/21/4 43/25/4
f 37/17/2 10/16/2 14/29/2 41/30/2
f 45/31/9 18/32/9 17/33/9 48/34/9
f 41/30/2 14/29/2 18/32/2 45/31/2
f 15/21/10 16/20/10 20/35/10 19/26/10
f 14/29/11 13/28/11 17/33/11 18/32/11
f 24/36/12 23/37/12 27/38/12 28/39/12
f 29/5/2 7/8/2 24/36/2 49/40/2
f 1/1/13 3/4/13 22/41/13 21/13/13
f 7/8/14 5/10/14 23/37/14 24/36/14
f 53/42/15 28/39/15 27/38/15 56/43/15
f 21/13/16 22/41/16 26/44/16 25/45/16
f 51/14/4 21/13/4 25/45/4 55/46/4
f 49/40/2 24/36/2 28/39/2 53/42/2
f 22/41/2 50/47/2 54/48/2 26/44/2
f 50/49/2 49/50/2 53/51/2 54/52/2
f 23/37/4 52/53/4 56/43/4 27/38/4
f 52/54/4 51/55/4 55/56/4 56/57/4
f 26/44/15 54/48/15 55/46/15 25/45/15
f 54/52/15 53/51/15 56/57/15 55/56/15
f 3/4/2 30/58/2 50/47/2 22/41/2
f 30/59/2 29/60/2 49/50/2 50/49/2
f 16/20/2 42/61/2 46/62/2 20/35/2
f 42/63/2 41/64/2 45/65/2 46/66/2
f 20/35/9 46/62/9 47/27/9 19/26/9
f 46/66/9 45/65/9 48/67/9 47/68/9
f 12/19/2 38/69/2 42/61/2 16/20/2
f 38/70/2 37/71/2 41/64/2 42/63/2
f 9/22/4 40/72/4 44/73/4 13/28/4
f 40/74/4 39/75/4 43/76/4 44/77/4
f 13/28/4 44/73/4 48/34/4 17/33/4
f 44/77/4 43/76/4 47/68/4 48/67/4
f 2/2/4 36/12/4 40/72/4 9/22/4
f 36/78/4 35/79/4 39/75/4 40/74/4
f 8/7/2 32/6/2 38/69/2 12/19/2
f 32/80/2 31/81/2 37/71/2 38/70/2
f 5/10/4 34/82/4 52/53/4 23/37/4
f 34/83/4 33/84/4 51/55/4 52/54/4
f 5/10/4 6/9/4 35/23/4 34/82/4
f 34/83/4 35/79/4 36/78/4 33/84/4
f 3/4/2 4/3/2 31/15/2 30/58/2
f 30/59/2 31/81/2 32/80/2 29/60/2
