# Blender v2.90.0 Alpha OBJ File: 'Decos.blend'
# www.blender.org
o Cube.002_Cube
v -0.930466 2.354255 0.053097
v -0.904645 4.735154 0.053097
v -0.930466 2.354255 -0.053096
v -0.904645 4.735154 -0.053096
v 0.505790 2.354255 0.053097
v 0.479968 4.735154 0.053097
v 0.505790 2.354255 -0.053096
v 0.479968 4.735154 -0.053096
v -0.775326 5.880366 0.053097
v -0.775326 5.880366 -0.053096
v 0.461167 5.880366 0.053097
v 0.461167 5.880366 -0.053096
v -0.564746 6.778282 0.053097
v -0.564746 6.778282 -0.053096
v 0.250587 6.778282 0.053097
v 0.250587 6.778282 -0.053096
v -0.233843 7.166458 0.053097
v -0.233843 7.166458 -0.053096
v -0.080316 7.166458 0.053097
v -0.080316 7.166458 -0.053096
v -0.699865 0.886762 0.053097
v -0.699865 0.886762 -0.053096
v 0.275189 0.886762 0.053097
v 0.275189 0.886762 -0.053096
v -0.413966 0.100944 0.053097
v -0.413966 0.100944 -0.053096
v -0.010711 0.100944 0.053097
v -0.010711 0.100944 -0.053096
vt 0.226562 0.882812
vt 0.226562 0.882812
vt 0.226562 0.882812
vt 0.226562 0.882812
vt 0.226562 0.882812
vt 0.226562 0.882812
vt 0.226562 0.882812
vt 0.226562 0.882812
vt 0.226562 0.882812
vt 0.226562 0.882812
vt 0.226562 0.882812
vt 0.226562 0.882812
vt 0.226562 0.882812
vt 0.226562 0.882812
vt 0.226562 0.882812
vt 0.226562 0.882812
vt 0.226562 0.882812
vt 0.226562 0.882812
vt 0.226562 0.882812
vt 0.226562 0.882812
vt 0.226562 0.882812
vt 0.226562 0.882812
vt 0.226562 0.882812
vt 0.226562 0.882812
vt 0.226562 0.882812
vt 0.226562 0.882812
vt 0.226562 0.882812
vt 0.226562 0.882812
vn -0.9999 0.0108 0.0000
vn 0.0000 0.0000 -1.0000
vn 0.9999 0.0108 0.0000
vn 0.0000 0.0000 1.0000
vn 0.9736 0.2283 0.0000
vn 0.9999 0.0164 0.0000
vn -0.9937 0.1122 0.0000
vn -0.9736 0.2283 0.0000
vn 0.0000 1.0000 0.0000
vn 0.7610 0.6487 0.0000
vn -0.7610 0.6487 0.0000
vn 0.9397 -0.3419 0.0000
vn -0.9879 -0.1552 0.0000
vn 0.9879 -0.1552 0.0000
vn 0.0000 -1.0000 0.0000
vn -0.9397 -0.3419 0.0000
s off
f 1/1/1 2/2/1 4/3/1 3/4/1
f 3/4/2 4/3/2 8/5/2 7/6/2
f 7/6/3 8/5/3 6/7/3 5/8/3
f 5/8/4 6/7/4 2/2/4 1/1/4
f 5/8/4 1/1/4 21/9/4 23/10/4
f 8/5/2 4/3/2 10/11/2 12/12/2
f 11/13/5 12/12/5 16/14/5 15/15/5
f 6/7/6 8/5/6 12/12/6 11/13/6
f 4/3/7 2/2/7 9/16/7 10/11/7
f 2/2/4 6/7/4 11/13/4 9/16/4
f 13/17/4 15/15/4 19/18/4 17/19/4
f 10/11/8 9/16/8 13/17/8 14/20/8
f 9/16/4 11/13/4 15/15/4 13/17/4
f 12/12/2 10/11/2 14/20/2 16/14/2
f 20/21/9 18/22/9 17/19/9 19/18/9
f 16/14/2 14/20/2 18/22/2 20/21/2
f 15/15/10 16/14/10 20/21/10 19/18/10
f 14/20/11 13/17/11 17/19/11 18/22/11
f 24/23/12 23/10/12 27/24/12 28/25/12
f 3/4/2 7/6/2 24/23/2 22/26/2
f 1/1/13 3/4/13 22/26/13 21/9/13
f 7/6/14 5/8/14 23/10/14 24/23/14
f 26/27/15 28/25/15 27/24/15 25/28/15
f 21/9/16 22/26/16 26/27/16 25/28/16
f 23/10/4 21/9/4 25/28/4 27/24/4
f 22/26/2 24/23/2 28/25/2 26/27/2
