# Blender v2.90.0 Alpha OBJ File: 'Decos.blend'
# www.blender.org
o table-small
v 0.000000 -0.372002 0.221087
v 0.000000 1.139045 0.221087
v -0.221087 -0.372002 -0.000000
v -0.221087 1.139045 0.000000
v 0.221087 -0.372002 -0.000000
v 0.221087 1.139045 0.000000
v 0.000000 -0.372002 -0.221087
v 0.000000 1.139045 -0.221087
v 1.088451 1.102347 0.000000
v -1.088451 1.102347 0.000000
v 0.280151 0.114115 1.495828
v -0.275315 0.114115 1.495828
v 0.428146 1.618820 1.976027
v -0.423310 1.618820 1.976027
v 0.534589 -0.342363 1.817890
v -0.529753 -0.342361 1.901690
v -0.529753 -0.342335 1.716969
v -0.316867 -0.342363 1.817890
v 0.321704 -0.342361 1.901690
v 0.321704 -0.342335 1.716969
v 0.534589 0.480604 1.119825
v -0.529753 0.480604 1.233245
v -0.529753 0.480604 1.063116
v -0.316867 0.480604 1.119825
v 0.321704 0.480604 1.233245
v 0.321704 0.480604 1.063116
v 0.534589 -0.342404 1.176535
v -0.529753 -0.342404 1.233245
v -0.529753 -0.342404 1.063116
v -0.316867 -0.342404 1.176535
v 0.321704 -0.342404 1.233245
v 0.321704 -0.342404 1.063116
v -0.391430 1.215981 2.001647
v -0.391430 1.254760 1.872995
v -0.391430 1.144812 1.915423
v 0.437379 1.144812 1.915423
v 0.437379 1.215981 2.001647
v 0.437379 1.278482 1.901737
v 0.280151 0.114115 -1.495828
v -0.275315 0.114115 -1.495828
v 0.428146 1.618820 -1.976027
v -0.423310 1.618820 -1.976027
v 0.534589 -0.342363 -1.817890
v -0.529753 -0.342361 -1.901690
v -0.529753 -0.342335 -1.716969
v -0.316867 -0.342363 -1.817890
v 0.321704 -0.342361 -1.901690
v 0.321704 -0.342335 -1.716969
v 0.534589 0.480604 -1.119825
v -0.529753 0.480604 -1.233245
v -0.529753 0.480604 -1.063116
v -0.316867 0.480604 -1.119825
v 0.321704 0.480604 -1.233245
v 0.321704 0.480604 -1.063116
v 0.534589 -0.342404 -1.176535
v -0.529753 -0.342404 -1.233245
v -0.529753 -0.342404 -1.063116
v -0.316867 -0.342404 -1.176535
v 0.321704 -0.342404 -1.233245
v 0.321704 -0.342404 -1.063116
v -0.391430 1.215981 -2.001647
v -0.391430 1.254760 -1.872995
v -0.391430 1.144812 -1.915423
v 0.437379 1.144812 -1.915423
v 0.437379 1.215981 -2.001647
v 0.437379 1.278482 -1.901737
vt 0.132812 0.882812
vt 0.132812 0.882812
vt 0.132812 0.882812
vt 0.132812 0.882812
vt 0.132812 0.882812
vt 0.132812 0.882812
vt 0.132812 0.882812
vt 0.132812 0.882812
vt 0.132812 0.882812
vt 0.132812 0.882812
vt 0.132812 0.882812
vt 0.132812 0.882812
vt 0.132812 0.882812
vt 0.132812 0.882812
vt 0.132812 0.882812
vt 0.132812 0.882812
vt 0.132812 0.882812
vt 0.132812 0.882812
vt 0.132812 0.882812
vt 0.132812 0.882812
vt 0.132812 0.882812
vt 0.132812 0.882812
vt 0.132812 0.882812
vt 0.132812 0.882812
vt 0.132812 0.882812
vt 0.132812 0.882812
vt 0.132812 0.882812
vt 0.132812 0.882812
vt 0.132812 0.882812
vt 0.132812 0.882812
vt 0.132812 0.882812
vt 0.132812 0.882812
vt 0.132812 0.882812
vt 0.132812 0.882812
vt 0.132812 0.882812
vt 0.132812 0.882812
vt 0.132812 0.882812
vt 0.132812 0.882812
vt 0.132812 0.882812
vt 0.132812 0.882812
vt 0.132812 0.882812
vt 0.132812 0.882812
vt 0.132812 0.882812
vt 0.132812 0.882812
vt 0.132812 0.882812
vt 0.132812 0.882812
vt 0.132812 0.882812
vt 0.132812 0.882812
vt 0.132812 0.882812
vt 0.132812 0.882812
vt 0.132812 0.882812
vt 0.132812 0.882812
vt 0.132812 0.882812
vt 0.132812 0.882812
vt 0.132812 0.882812
vt 0.132812 0.882812
vt 0.132812 0.882812
vt 0.132812 0.882812
vt 0.132812 0.882812
vt 0.132812 0.882812
vn -0.7071 -0.0000 0.7071
vn -0.5194 0.1396 -0.8430
vn 0.0180 0.9964 0.0831
vn 0.9984 0.0552 -0.0119
vn -0.5912 0.0015 0.8065
vn 0.0180 0.9964 -0.0831
vn -0.5194 0.1396 0.8430
vn 0.9984 0.0552 0.0119
vn -0.5912 0.0015 -0.8065
vn -0.7071 0.0000 -0.7071
vn 0.7071 0.0000 -0.7071
vn 0.7071 -0.0000 0.7071
vn -1.0000 0.0000 0.0000
vn 0.3709 -0.0320 -0.9281
vn 0.9992 -0.0014 -0.0400
vn 0.9992 0.0014 0.0400
vn 0.3709 0.0320 0.9281
vn 0.0201 -0.2244 -0.9743
vn 0.0006 0.7551 -0.6556
vn -0.0006 0.7869 -0.6171
vn -0.0201 0.9141 0.4050
vn 0.0000 -0.7712 0.6366
vn 0.9992 -0.0014 0.0400
vn 0.3709 -0.0320 0.9281
vn 0.9992 0.0014 -0.0400
vn 0.3709 0.0320 -0.9281
vn 0.0006 0.7551 0.6556
vn 0.0201 -0.2244 0.9743
vn -0.0006 0.7869 0.6171
vn -0.0201 0.9141 -0.4050
vn 0.0000 -0.7712 -0.6366
s 1
f 3/1/1 1/2/1 2/3/1 4/4/1
f 17/5/2 14/6/3 18/7/4
f 18/7/4 14/6/3 16/8/5
f 15/9/4 13/10/3 19/11/5
f 16/8/5 14/6/3 17/5/2
f 20/12/2 13/10/3 15/9/4
f 19/11/5 13/10/3 20/12/2
f 42/13/6 45/14/7 46/15/8
f 42/13/6 46/15/8 44/16/9
f 41/17/6 43/18/8 47/19/9
f 42/13/6 44/16/9 45/14/7
f 41/17/6 48/20/7 43/18/8
f 41/17/6 47/19/9 48/20/7
f 7/21/10 3/1/10 4/4/10 8/22/10
f 5/23/11 7/21/11 8/22/11 6/24/11
f 1/2/12 5/23/12 6/24/12 2/3/12
f 32/25/13 31/26/13 25/27/13 26/28/13
f 32/25/14 26/28/14 21/29/15 27/30/16
f 27/30/16 21/29/15 25/27/17 31/26/17
f 29/31/14 23/32/14 24/33/15 30/34/16
f 29/31/13 28/35/13 22/36/13 23/32/13
f 30/34/16 24/33/15 22/36/17 28/35/17
f 36/37/18 35/38/18 34/39/19 38/40/20
f 38/40/20 34/39/19 33/41/21 37/42/21
f 37/42/22 33/41/22 35/38/22 36/37/22
f 54/43/13 53/44/13 59/45/13 60/46/13
f 49/47/23 54/43/24 60/46/24 55/48/25
f 53/44/26 49/47/23 55/48/25 59/45/26
f 52/49/23 51/50/24 57/51/24 58/52/25
f 51/50/13 50/53/13 56/54/13 57/51/13
f 50/53/26 52/49/23 58/52/25 56/54/26
f 62/55/27 63/56/28 64/57/28 66/58/29
f 61/59/30 62/55/27 66/58/29 65/60/30
f 63/56/31 61/59/31 65/60/31 64/57/31
l 9 10
l 11 12
l 39 40
