# Blender v2.90.0 Alpha OBJ File: 'Decos.blend'
# www.blender.org
o table-small
v 0.000000 -0.372002 0.221087
v 0.000000 1.139045 0.221087
v -0.221087 -0.372002 -0.000000
v -0.221087 1.139045 0.000000
v 0.221087 -0.372002 -0.000000
v 0.221087 1.139045 0.000000
v 0.000000 -0.372002 -0.221087
v 0.000000 1.139045 -0.221087
v 1.088451 1.139045 0.985221
v -1.088451 1.139045 0.985221
v 1.088451 1.139045 -0.985221
v -1.088451 1.139045 -0.985221
v 1.088451 1.102072 0.985221
v -1.088451 1.102072 0.985221
v -1.088451 1.102072 -0.985221
v 1.088451 1.102072 -0.985221
v 0.570056 0.474660 1.949447
v -0.565220 0.474660 1.949447
v 0.570056 0.474660 1.042185
v -0.565220 0.474660 1.042185
v 0.321704 1.618819 2.061087
v -0.316867 1.618819 1.890968
v 0.321704 1.618819 1.890968
v -0.529753 1.618819 1.890968
v 0.534589 1.618819 2.061087
v 0.534589 1.618819 1.890968
v -0.529753 1.618819 2.061087
v -0.316867 1.618819 2.061087
v 0.534589 0.480604 1.925875
v -0.529753 0.480604 1.925875
v 0.534589 0.480604 1.755747
v -0.529753 0.480604 1.755747
v -0.316867 0.480604 1.925875
v -0.316867 0.480604 1.755747
v 0.321704 0.480604 1.925875
v 0.321704 0.480604 1.755747
v 0.534589 -0.342404 1.925875
v -0.529753 -0.342404 1.925875
v 0.534589 -0.342404 1.755747
v -0.529753 -0.342404 1.755747
v -0.316867 -0.342404 1.925875
v -0.316867 -0.342404 1.755747
v 0.321704 -0.342404 1.925875
v 0.321704 -0.342404 1.755747
v 0.534589 0.480604 1.233245
v -0.529753 0.480604 1.233245
v 0.534589 0.480604 1.063116
v -0.529753 0.480604 1.063116
v -0.316867 0.480604 1.233245
v -0.316867 0.480604 1.063116
v 0.321704 0.480604 1.233245
v 0.321704 0.480604 1.063116
v 0.534589 -0.342404 1.233245
v -0.529753 -0.342404 1.233245
v 0.534589 -0.342404 1.063116
v -0.529753 -0.342404 1.063116
v -0.316867 -0.342404 1.233245
v -0.316867 -0.342404 1.063116
v 0.321704 -0.342404 1.233245
v 0.321704 -0.342404 1.063116
v -0.391430 1.215981 2.001647
v -0.391430 1.302205 1.930478
v -0.391430 1.144812 1.915423
v -0.391430 1.231037 1.844254
v 0.437379 1.144812 1.915423
v 0.437379 1.215981 2.001647
v 0.437379 1.302205 1.930478
v 0.437379 1.231037 1.844254
v 0.549191 0.492328 1.058859
v 0.549191 0.492328 1.932772
v -0.544355 0.492328 1.932772
v -0.544355 0.492328 1.058859
v 0.570056 0.474660 -1.949447
v -0.565220 0.474660 -1.949447
v 0.570056 0.474660 -1.042185
v -0.565220 0.474660 -1.042185
v 0.321704 1.618819 -2.061087
v -0.316867 1.618819 -1.890968
v 0.321704 1.618819 -1.890968
v -0.529753 1.618819 -1.890968
v 0.534589 1.618819 -2.061087
v 0.534589 1.618819 -1.890968
v -0.529753 1.618819 -2.061087
v -0.316867 1.618819 -2.061087
v 0.534589 0.480604 -1.925875
v -0.529753 0.480604 -1.925875
v 0.534589 0.480604 -1.755747
v -0.529753 0.480604 -1.755747
v -0.316867 0.480604 -1.925875
v -0.316867 0.480604 -1.755747
v 0.321704 0.480604 -1.925875
v 0.321704 0.480604 -1.755747
v 0.534589 -0.342404 -1.925875
v -0.529753 -0.342404 -1.925875
v 0.534589 -0.342404 -1.755747
v -0.529753 -0.342404 -1.755747
v -0.316867 -0.342404 -1.925875
v -0.316867 -0.342404 -1.755747
v 0.321704 -0.342404 -1.925875
v 0.321704 -0.342404 -1.755747
v 0.534589 0.480604 -1.233245
v -0.529753 0.480604 -1.233245
v 0.534589 0.480604 -1.063116
v -0.529753 0.480604 -1.063116
v -0.316867 0.480604 -1.233245
v -0.316867 0.480604 -1.063116
v 0.321704 0.480604 -1.233245
v 0.321704 0.480604 -1.063116
v 0.534589 -0.342404 -1.233245
v -0.529753 -0.342404 -1.233245
v 0.534589 -0.342404 -1.063116
v -0.529753 -0.342404 -1.063116
v -0.316867 -0.342404 -1.233245
v -0.316867 -0.342404 -1.063116
v 0.321704 -0.342404 -1.233245
v 0.321704 -0.342404 -1.063116
v -0.391430 1.215981 -2.001647
v -0.391430 1.302205 -1.930478
v -0.391430 1.144812 -1.915423
v -0.391430 1.231037 -1.844254
v 0.437379 1.144812 -1.915423
v 0.437379 1.215981 -2.001647
v 0.437379 1.302205 -1.930478
v 0.437379 1.231037 -1.844254
v 0.549191 0.492328 -1.058859
v 0.549191 0.492328 -1.932772
v -0.544355 0.492328 -1.932772
v -0.544355 0.492328 -1.058859
vt 0.132812 0.882812
vt 0.132812 0.882812
vt 0.132812 0.882812
vt 0.132812 0.882812
vt 0.132812 0.882812
vt 0.132812 0.882812
vt 0.132812 0.882812
vt 0.132812 0.882812
vt 0.521536 0.741988
vt 0.521536 0.741988
vt 0.521536 0.741988
vt 0.521536 0.741988
vt 0.132812 0.882812
vt 0.132812 0.882812
vt 0.132812 0.882812
vt 0.132812 0.882812
vt 0.132812 0.882812
vt 0.132812 0.882812
vt 0.132812 0.882812
vt 0.132812 0.882812
vt 0.132812 0.882812
vt 0.132812 0.882812
vt 0.132812 0.882812
vt 0.132812 0.882812
vt 0.132812 0.882812
vt 0.132812 0.882812
vt 0.132812 0.882812
vt 0.132812 0.882812
vt 0.132812 0.882812
vt 0.132812 0.882812
vt 0.132812 0.882812
vt 0.132812 0.882812
vt 0.132812 0.882812
vt 0.132812 0.882812
vt 0.132812 0.882812
vt 0.132812 0.882812
vt 0.132812 0.882812
vt 0.132812 0.882812
vt 0.132812 0.882812
vt 0.132812 0.882812
vt 0.132812 0.882812
vt 0.132812 0.882812
vt 0.132812 0.882812
vt 0.132812 0.882812
vt 0.132812 0.882812
vt 0.132812 0.882812
vt 0.132812 0.882812
vt 0.132812 0.882812
vt 0.132812 0.882812
vt 0.132812 0.882812
vt 0.132812 0.882812
vt 0.132812 0.882812
vt 0.132812 0.882812
vt 0.132812 0.882812
vt 0.132812 0.882812
vt 0.132812 0.882812
vt 0.132812 0.882812
vt 0.132812 0.882812
vt 0.132812 0.882812
vt 0.132812 0.882812
vt 0.132812 0.882812
vt 0.132812 0.882812
vt 0.132812 0.882812
vt 0.132812 0.882812
vt 0.132812 0.882812
vt 0.132812 0.882812
vt 0.132812 0.882812
vt 0.132812 0.882812
vt 0.521536 0.741988
vt 0.521536 0.741988
vt 0.521536 0.741988
vt 0.521536 0.741988
vt 0.132812 0.882812
vt 0.132812 0.882812
vt 0.132812 0.882812
vt 0.132812 0.882812
vt 0.132812 0.882812
vt 0.132812 0.882812
vt 0.132812 0.882812
vt 0.132812 0.882812
vt 0.132812 0.882812
vt 0.132812 0.882812
vt 0.132812 0.882812
vt 0.132812 0.882812
vt 0.132812 0.882812
vt 0.132812 0.882812
vt 0.132812 0.882812
vt 0.132812 0.882812
vt 0.132812 0.882812
vt 0.132812 0.882812
vt 0.132812 0.882812
vt 0.132812 0.882812
vt 0.132812 0.882812
vt 0.132812 0.882812
vt 0.132812 0.882812
vt 0.132812 0.882812
vt 0.132812 0.882812
vt 0.132812 0.882812
vt 0.132812 0.882812
vt 0.132812 0.882812
vt 0.132812 0.882812
vt 0.132812 0.882812
vt 0.132812 0.882812
vt 0.132812 0.882812
vt 0.132812 0.882812
vt 0.132812 0.882812
vt 0.132812 0.882812
vt 0.132812 0.882812
vt 0.132812 0.882812
vt 0.132812 0.882812
vt 0.132812 0.882812
vt 0.132812 0.882812
vt 0.132812 0.882812
vt 0.132812 0.882812
vt 0.132812 0.882812
vt 0.132812 0.882812
vt 0.132812 0.882812
vt 0.132812 0.882812
vt 0.132812 0.882812
vt 0.132812 0.882812
vt 0.132812 0.882812
vt 0.132812 0.882812
vt 0.132812 0.882812
vt 0.132812 0.882812
vt 0.132812 0.882812
vt 0.132812 0.882812
vt 0.132812 0.882812
vt 0.132812 0.882812
vt 0.521536 0.741988
vt 0.521536 0.741988
vt 0.521536 0.741988
vt 0.521536 0.741988
vt 0.132812 0.882812
vt 0.132812 0.882812
vt 0.132812 0.882812
vt 0.132812 0.882812
vt 0.132812 0.882812
vt 0.132812 0.882812
vt 0.132812 0.882812
vt 0.132812 0.882812
vn -0.7071 -0.0000 0.7071
vn -0.7071 0.0000 -0.7071
vn 0.7071 0.0000 -0.7071
vn 0.7071 -0.0000 0.7071
vn 0.0000 1.0000 0.0000
vn 0.0000 0.0000 1.0000
vn 1.0000 0.0000 0.0000
vn -1.0000 0.0000 0.0000
vn 0.0000 0.0000 -1.0000
vn 0.0000 0.1180 -0.9930
vn 0.0000 -0.1180 0.9930
vn 0.0000 -0.6366 -0.7712
vn 0.0000 0.7712 -0.6366
vn 0.0000 0.6366 0.7712
vn 0.0000 -0.7712 0.6366
vn 0.0000 0.6864 0.7272
vn 0.6462 0.7632 0.0000
vn 0.0000 0.6864 -0.7273
vn -0.6462 0.7632 0.0000
vn 0.0000 0.1180 0.9930
vn 0.0000 -0.1180 -0.9930
vn 0.0000 -0.6366 0.7712
vn 0.0000 0.7712 0.6366
vn 0.0000 0.6366 -0.7712
vn 0.0000 -0.7712 -0.6366
vn 0.0000 0.6864 -0.7272
vn 0.0000 0.6864 0.7273
s 1
f 1/1/1 2/2/1 4/3/1 3/4/1
f 3/4/2 4/3/2 8/5/2 7/6/2
f 7/6/3 8/5/3 6/7/3 5/8/3
f 5/8/4 6/7/4 2/2/4 1/1/4
f 12/9/5 10/10/5 9/11/5 11/12/5
f 10/13/6 14/14/6 13/15/6 9/16/6
f 9/16/7 13/15/7 16/17/7 11/18/7
f 12/19/8 15/20/8 14/14/8 10/13/8
f 11/18/9 16/17/9 15/20/9 12/19/9
f 33/21/7 34/22/7 22/23/7 28/24/7
f 34/22/10 32/25/10 24/26/10 22/23/10
f 30/27/11 33/21/11 28/24/11 27/28/11
f 35/29/11 29/30/11 25/31/11 21/32/11
f 32/25/8 30/27/8 27/28/8 24/26/8
f 31/33/10 36/34/10 23/35/10 26/36/10
f 36/34/8 35/29/8 21/32/8 23/35/8
f 24/26/5 27/28/5 28/24/5 22/23/5
f 23/35/5 21/32/5 25/31/5 26/36/5
f 34/22/7 33/21/7 41/37/7 42/38/7
f 35/29/8 36/34/8 44/39/8 43/40/8
f 29/30/7 31/33/7 26/36/7 25/31/7
f 36/34/9 31/33/9 39/41/9 44/39/9
f 31/33/7 29/30/7 37/42/7 39/41/7
f 29/30/6 35/29/6 43/40/6 37/42/6
f 32/25/9 34/22/9 42/38/9 40/43/9
f 30/27/8 32/25/8 40/43/8 38/44/8
f 33/21/6 30/27/6 38/44/6 41/37/6
f 50/45/7 49/46/7 57/47/7 58/48/7
f 51/49/8 52/50/8 60/51/8 59/52/8
f 52/50/9 47/53/9 55/54/9 60/51/9
f 47/53/7 45/55/7 53/56/7 55/54/7
f 45/55/6 51/49/6 59/52/6 53/56/6
f 48/57/9 50/45/9 58/48/9 56/58/9
f 46/59/8 48/57/8 56/58/8 54/60/8
f 49/46/6 46/59/6 54/60/6 57/47/6
f 63/61/12 64/62/12 68/63/12 65/64/12
f 64/62/13 62/65/13 67/66/13 68/63/13
f 62/65/14 61/67/14 66/68/14 67/66/14
f 61/67/15 63/61/15 65/64/15 66/68/15
f 72/69/5 71/70/5 70/71/5 69/72/5
f 18/73/16 17/74/16 70/75/16 71/76/16
f 17/74/17 19/77/17 69/78/17 70/75/17
f 19/77/18 20/79/18 72/80/18 69/78/18
f 20/79/19 18/73/19 71/76/19 72/80/19
f 89/81/7 84/82/7 78/83/7 90/84/7
f 90/84/20 78/83/20 80/85/20 88/86/20
f 86/87/21 83/88/21 84/82/21 89/81/21
f 91/89/21 77/90/21 81/91/21 85/92/21
f 88/86/8 80/85/8 83/88/8 86/87/8
f 87/93/20 82/94/20 79/95/20 92/96/20
f 92/96/8 79/95/8 77/90/8 91/89/8
f 80/85/5 78/83/5 84/82/5 83/88/5
f 79/95/5 82/94/5 81/91/5 77/90/5
f 90/84/7 98/97/7 97/98/7 89/81/7
f 91/89/8 99/99/8 100/100/8 92/96/8
f 85/92/7 81/91/7 82/94/7 87/93/7
f 92/96/6 100/100/6 95/101/6 87/93/6
f 87/93/7 95/101/7 93/102/7 85/92/7
f 85/92/9 93/102/9 99/99/9 91/89/9
f 88/86/6 96/103/6 98/97/6 90/84/6
f 86/87/8 94/104/8 96/103/8 88/86/8
f 89/81/9 97/98/9 94/104/9 86/87/9
f 106/105/7 114/106/7 113/107/7 105/108/7
f 107/109/8 115/110/8 116/111/8 108/112/8
f 108/112/6 116/111/6 111/113/6 103/114/6
f 103/114/7 111/113/7 109/115/7 101/116/7
f 101/116/9 109/115/9 115/110/9 107/109/9
f 104/117/6 112/118/6 114/106/6 106/105/6
f 102/119/8 110/120/8 112/118/8 104/117/8
f 105/108/9 113/107/9 110/120/9 102/119/9
f 119/121/22 121/122/22 124/123/22 120/124/22
f 120/124/23 124/123/23 123/125/23 118/126/23
f 118/126/24 123/125/24 122/127/24 117/128/24
f 117/128/25 122/127/25 121/122/25 119/121/25
f 128/129/5 125/130/5 126/131/5 127/132/5
f 74/133/26 127/134/26 126/135/26 73/136/26
f 73/136/17 126/135/17 125/137/17 75/138/17
f 75/138/27 125/137/27 128/139/27 76/140/27
f 76/140/19 128/139/19 127/134/19 74/133/19
