# Blender v2.90.0 Alpha OBJ File: 'Decos.blend'
# www.blender.org
o tank-simple
v -4.567697 -0.034145 4.567697
v -4.567697 18.030178 4.567700
v -4.567697 -0.034143 -4.567697
v -4.567697 18.030178 -4.567694
v 4.567697 -0.034145 4.567697
v 4.567697 18.030178 4.567700
v 4.567697 -0.034143 -4.567697
v 4.567697 18.030178 -4.567694
v 0.000000 -0.034143 -6.459699
v 0.000000 18.030180 -6.459696
v 0.000000 -0.034145 6.459699
v 0.000000 18.030176 6.459702
v -6.459699 -0.034144 -0.000000
v -6.459699 18.030178 0.000003
v 6.459699 -0.034144 -0.000000
v 6.459699 18.030178 0.000003
v 0.000000 18.030176 0.000003
v -5.789514 -0.041631 5.789514
v -5.789514 -0.041629 -5.789514
v 5.789514 -0.041631 5.789514
v 5.789514 -0.041629 -5.789514
v 0.000000 -0.041629 -8.187610
v 0.000000 -0.041631 8.187610
v -8.187610 -0.041630 -0.000000
v 8.187610 -0.041630 -0.000000
v 0.000000 -0.041630 -0.000000
vt 0.210938 0.789062
vt 0.210938 0.789062
vt 0.210938 0.789062
vt 0.210938 0.789062
vt 0.210938 0.789062
vt 0.210938 0.789062
vt 0.210938 0.789062
vt 0.210938 0.789062
vt 0.210938 0.789062
vt 0.117188 0.789062
vt 0.117188 0.789062
vt 0.117188 0.789062
vt 0.117188 0.789062
vt 0.132812 0.882812
vt 0.132812 0.882812
vt 0.132812 0.882812
vt 0.132812 0.882812
vt 0.132812 0.882812
vt 0.132812 0.882812
vt 0.132812 0.882812
vt 0.117188 0.789062
vt 0.117188 0.789062
vt 0.117188 0.789062
vt 0.117188 0.789062
vt 0.117188 0.789062
vt 0.117188 0.789062
vt 0.117188 0.789062
vt 0.117188 0.789062
vt 0.117188 0.789062
vt 0.117188 0.789062
vt 0.117188 0.789062
vt 0.117188 0.789062
vt 0.132812 0.882812
vt 0.132812 0.882812
vn -0.0000 1.0000 0.0000
vn 0.7071 0.0000 -0.7071
vn 0.0000 0.0000 -1.0000
vn -0.7071 0.0000 -0.7071
vn -0.7071 -0.0000 0.7071
vn 0.0000 -0.0000 1.0000
vn -1.0000 -0.0000 0.0000
vn 0.7071 -0.0000 0.7071
vn 1.0000 0.0000 0.0000
s off
f 26/1/1 23/2/1 20/3/1 25/4/1
f 24/5/1 18/6/1 23/2/1 26/1/1
f 19/7/1 24/5/1 26/1/1 22/8/1
f 22/8/1 26/1/1 25/4/1 21/9/1
s 1
f 8/10/2 7/11/2 9/12/3 10/13/3
f 17/14/1 14/15/1 2/16/1
f 12/17/1 6/18/1 17/14/1
f 10/19/1 4/20/1 17/14/1
f 9/12/3 3/21/4 4/22/4 10/13/3
f 2/23/5 1/24/5 11/25/6 12/26/6
f 4/22/4 3/21/4 13/27/7 14/28/7
f 11/25/6 5/29/8 6/30/8 12/26/6
f 15/31/9 7/11/2 8/10/2 16/32/9
f 13/27/7 1/24/5 2/23/5 14/28/7
f 6/18/1 16/33/1 17/14/1
f 4/20/1 14/15/1 17/14/1
f 8/34/1 10/19/1 17/14/1
f 12/17/1 17/14/1 2/16/1
f 16/33/1 8/34/1 17/14/1
f 6/30/8 5/29/8 15/31/9 16/32/9
