# Blender v2.90.0 Alpha OBJ File: 'Decos.blend'
# www.blender.org
o TankShort_Cube.018
v 0.000000 -0.041630 -0.000000
v 0.000000 -0.041631 8.187610
v 5.789514 -0.041631 5.789514
v 8.187610 -0.041630 -0.000000
v -8.187610 -0.041630 -0.000000
v -5.789514 -0.041631 5.789514
v -5.789514 -0.041629 -5.789514
v 0.000000 -0.041629 -8.187610
v 5.789514 -0.041629 -5.789514
v -6.539041 10.951889 0.000002
v -6.539041 11.090523 0.000002
v -4.623800 11.090524 -4.623797
v -4.623800 10.951890 -4.623797
v 4.623800 10.951890 -4.623797
v 4.623800 11.090524 -4.623797
v 6.539041 11.090523 0.000002
v 6.539041 10.951889 0.000002
v 0.000000 10.951888 6.539044
v 0.000000 11.090522 6.539044
v -4.623800 11.090522 4.623802
v -4.623800 10.951888 4.623802
v 0.000000 11.090524 -6.539039
v 0.000000 10.951890 -6.539039
v 4.623800 11.090522 4.623802
v 4.623800 10.951888 4.623802
v -4.623800 10.510777 4.623802
v -6.539041 10.510778 0.000002
v -6.539041 10.262728 0.000002
v -4.623800 10.262727 4.623802
v 0.000000 10.510779 -6.539039
v 4.623800 10.510779 -4.623797
v 4.623800 10.262729 -4.623797
v 0.000000 10.262729 -6.539039
v 0.000000 10.510777 6.539044
v 0.000000 10.262727 6.539044
v 4.623800 10.510777 4.623802
v 4.623800 10.262727 4.623802
v 6.539041 10.510778 0.000002
v 6.539041 10.262728 0.000002
v -4.623800 10.510779 -4.623797
v -4.623800 10.262729 -4.623797
v -4.623800 9.791131 4.623801
v -6.539041 9.791130 0.000002
v -6.539041 9.574837 0.000002
v -4.623800 9.574838 4.623801
v 0.000000 9.791133 -6.539040
v 4.623800 9.791131 -4.623797
v 4.623800 9.574838 -4.623797
v 0.000000 9.574840 -6.539040
v 0.000000 9.791131 6.539043
v 0.000000 9.574838 6.539043
v 4.623800 9.791131 4.623801
v 4.623800 9.574838 4.623801
v 6.539041 9.791130 0.000002
v 6.539041 9.574837 0.000002
v -4.623800 9.791131 -4.623797
v -4.623800 9.574838 -4.623797
v -6.691171 9.186739 0.000001
v -6.691171 11.279261 0.000002
v -6.497576 11.279261 -0.193594
v -6.497576 9.186739 -0.193595
v -6.303980 11.279261 0.000002
v -6.303980 9.186739 0.000001
v -6.497576 11.279261 0.193598
v -6.497576 9.186739 0.193597
v -4.731372 9.186740 -4.731369
v -4.731372 11.279262 -4.731369
v -4.457587 11.279262 -4.731370
v -4.457587 9.186740 -4.731370
v -4.457587 11.279262 -4.457584
v -4.457587 9.186740 -4.457584
v -4.731373 11.279262 -4.457584
v -4.731373 9.186740 -4.457584
v 0.000000 9.186740 -6.691170
v 0.000000 11.279262 -6.691169
v 0.193596 11.279262 -6.497574
v 0.193596 9.186740 -6.497575
v 0.000000 11.279262 -6.303976
v 0.000000 9.186740 -6.303977
v -0.193596 11.279262 -6.497574
v -0.193596 9.186740 -6.497575
v 4.731372 9.186740 -4.731369
v 4.731372 11.279262 -4.731369
v 4.731373 11.279262 -4.457584
v 4.731373 9.186740 -4.457584
v 4.457586 11.279262 -4.457583
v 4.457586 9.186740 -4.457583
v 4.457587 11.279262 -4.731370
v 4.457587 9.186740 -4.731370
v 6.691170 9.186739 0.000001
v 6.691170 11.279261 0.000002
v 6.497576 11.279261 0.193598
v 6.497576 9.186739 0.193597
v 6.303979 11.279261 0.000002
v 6.303979 9.186739 0.000001
v 6.497576 11.279261 -0.193594
v 6.497576 9.186739 -0.193595
v 4.731372 9.186738 4.731373
v 4.731372 11.279260 4.731374
v 4.457587 11.279260 4.731375
v 4.457587 9.186738 4.731374
v 4.457586 11.279260 4.457588
v 4.457586 9.186738 4.457587
v 4.731373 11.279260 4.457589
v 4.731373 9.186738 4.457588
v 0.000000 9.186738 6.691173
v 0.000000 11.279260 6.691173
v -0.193596 11.279260 6.497579
v -0.193596 9.186738 6.497579
v 0.000000 11.279260 6.303981
v 0.000000 9.186738 6.303980
v 0.193596 11.279260 6.497579
v 0.193596 9.186738 6.497579
v -4.731372 9.186738 4.731373
v -4.731372 11.279260 4.731374
v -4.731373 11.279260 4.457589
v -4.731373 9.186738 4.457588
v -4.457586 11.279260 4.457588
v -4.457586 9.186738 4.457587
v -4.457587 11.279260 4.731375
v -4.457587 9.186738 4.731374
v -6.508122 10.951889 0.000002
v -4.601937 10.951890 -4.601934
v -4.601937 11.090524 -4.601934
v -6.508122 11.090523 0.000002
v 4.601937 10.951890 -4.601934
v 6.508122 10.951889 0.000002
v 6.508122 11.090523 0.000002
v 4.601937 11.090524 -4.601934
v 0.000000 10.951888 6.508124
v -4.601937 10.951888 4.601939
v -4.601937 11.090522 4.601939
v 0.000000 11.090522 6.508124
v 0.000000 10.951890 -6.508119
v 0.000000 11.090524 -6.508119
v 4.601937 10.951888 4.601939
v 4.601937 11.090522 4.601939
v -4.601937 10.510777 4.601939
v -4.601937 10.262727 4.601939
v -6.508122 10.262728 0.000002
v -6.508122 10.510778 0.000002
v 0.000000 10.510779 -6.508119
v 0.000000 10.262729 -6.508119
v 4.601937 10.262729 -4.601934
v 4.601937 10.510779 -4.601934
v 0.000000 10.510777 6.508124
v 0.000000 10.262727 6.508124
v 4.601937 10.510777 4.601939
v 4.601937 10.262727 4.601939
v 6.508122 10.262728 0.000002
v 6.508122 10.510778 0.000002
v -4.601937 10.262729 -4.601934
v -4.601937 10.510779 -4.601934
v -4.601937 9.791131 4.601938
v -4.601937 9.574838 4.601938
v -6.508122 9.574837 0.000002
v -6.508122 9.791130 0.000002
v 0.000000 9.791133 -6.508120
v 0.000000 9.574840 -6.508120
v 4.601937 9.574838 -4.601934
v 4.601937 9.791131 -4.601934
v 0.000000 9.791131 6.508123
v 0.000000 9.574838 6.508123
v 4.601937 9.791131 4.601938
v 4.601937 9.574838 4.601938
v 6.508122 9.574837 0.000002
v 6.508122 9.791130 0.000002
v -4.601937 9.574838 -4.601934
v -4.601937 9.791131 -4.601934
v 5.789514 -2.009172 -5.789515
v 0.000000 -2.009171 -8.187610
v -5.789514 -2.009172 -5.789515
v -8.187610 -2.009174 -0.000000
v -5.789514 -2.009175 5.789514
v 0.000000 -2.009176 8.187610
v 5.789514 -2.009175 5.789514
v 8.187610 -2.009174 -0.000000
v 0.000000 -0.034143 -6.715284
v -4.748423 -0.034143 -4.748423
v -4.748423 9.224109 -4.748422
v 0.000000 9.224109 -6.715281
v 0.000000 9.224108 0.000002
v -6.715284 9.224108 0.000002
v -4.748423 9.224107 4.748425
v 0.000000 9.224107 6.715285
v 6.715284 9.224108 0.000002
v 4.748423 9.224107 4.748425
v 4.748423 9.224109 -4.748422
v -4.748423 -0.034145 4.748423
v 0.000000 -0.034145 6.715284
v -6.715284 -0.034144 -0.000000
v 4.748423 -0.034145 4.748423
v 4.748423 -0.034143 -4.748423
v 6.715284 -0.034144 -0.000000
vt 0.003026 0.888338
vt 0.003026 0.888338
vt 0.003026 0.888338
vt 0.003026 0.888338
vt 0.003026 0.888338
vt 0.003026 0.888338
vt 0.003026 0.888338
vt 0.003026 0.888338
vt 0.003026 0.888338
vt 0.101562 0.789062
vt 0.101562 0.789062
vt 0.101562 0.789062
vt 0.101562 0.789062
vt 0.101562 0.789062
vt 0.101562 0.789062
vt 0.101562 0.789062
vt 0.101562 0.789062
vt 0.101562 0.789062
vt 0.101562 0.789062
vt 0.101562 0.789062
vt 0.101562 0.789062
vt 0.101562 0.789062
vt 0.101562 0.789062
vt 0.101562 0.789062
vt 0.101562 0.789062
vt 0.101562 0.789062
vt 0.101562 0.789062
vt 0.101562 0.789062
vt 0.101562 0.789062
vt 0.101562 0.789062
vt 0.101562 0.789062
vt 0.101562 0.789062
vt 0.101562 0.789062
vt 0.101562 0.789062
vt 0.101562 0.789062
vt 0.101562 0.789062
vt 0.101562 0.789062
vt 0.101562 0.789062
vt 0.101562 0.789062
vt 0.101562 0.789062
vt 0.101562 0.789062
vt 0.101562 0.789062
vt 0.101562 0.789062
vt 0.101562 0.789062
vt 0.101562 0.789062
vt 0.101562 0.789062
vt 0.101562 0.789062
vt 0.101562 0.789062
vt 0.101562 0.789062
vt 0.101562 0.789062
vt 0.101562 0.789062
vt 0.101562 0.789062
vt 0.101562 0.789062
vt 0.101562 0.789062
vt 0.101562 0.789062
vt 0.101562 0.789062
vt 0.101562 0.789062
vt 0.006847 0.891640
vt 0.006847 0.891640
vt 0.006847 0.891640
vt 0.006847 0.891640
vt 0.006847 0.891640
vt 0.006847 0.891640
vt 0.006847 0.891640
vt 0.006847 0.891640
vt 0.006847 0.891640
vt 0.006847 0.891640
vt 0.006847 0.891640
vt 0.006847 0.891640
vt 0.006847 0.891640
vt 0.006847 0.891640
vt 0.006847 0.891640
vt 0.006847 0.891640
vt 0.006847 0.891640
vt 0.006847 0.891640
vt 0.006847 0.891640
vt 0.006847 0.891640
vt 0.006847 0.891640
vt 0.006847 0.891640
vt 0.006847 0.891640
vt 0.006847 0.891640
vt 0.006847 0.891640
vt 0.006847 0.891640
vt 0.006847 0.891640
vt 0.006847 0.891640
vt 0.006847 0.891640
vt 0.006847 0.891640
vt 0.006847 0.891640
vt 0.006847 0.891640
vt 0.006847 0.891640
vt 0.006847 0.891640
vt 0.006847 0.891640
vt 0.006847 0.891640
vt 0.006847 0.891640
vt 0.006847 0.891640
vt 0.006847 0.891640
vt 0.006847 0.891640
vt 0.006847 0.891640
vt 0.006847 0.891640
vt 0.006847 0.891640
vt 0.006847 0.891640
vt 0.006847 0.891640
vt 0.006847 0.891640
vt 0.006847 0.891640
vt 0.006847 0.891640
vt 0.006847 0.891640
vt 0.006847 0.891640
vt 0.006847 0.891640
vt 0.006847 0.891640
vt 0.006847 0.891640
vt 0.006847 0.891640
vt 0.006847 0.891640
vt 0.006847 0.891640
vt 0.006847 0.891640
vt 0.006847 0.891640
vt 0.006847 0.891640
vt 0.006847 0.891640
vt 0.006847 0.891640
vt 0.006847 0.891640
vt 0.006847 0.891640
vt 0.006847 0.891640
vt 0.101562 0.789062
vt 0.101562 0.789062
vt 0.101562 0.789062
vt 0.101562 0.789062
vt 0.101562 0.789062
vt 0.101562 0.789062
vt 0.101562 0.789062
vt 0.101562 0.789062
vt 0.101562 0.789062
vt 0.101562 0.789062
vt 0.101562 0.789062
vt 0.101562 0.789062
vt 0.101562 0.789062
vt 0.101562 0.789062
vt 0.101562 0.789062
vt 0.101562 0.789062
vt 0.101562 0.789062
vt 0.101562 0.789062
vt 0.101562 0.789062
vt 0.101562 0.789062
vt 0.101562 0.789062
vt 0.101562 0.789062
vt 0.101562 0.789062
vt 0.101562 0.789062
vt 0.101562 0.789062
vt 0.101562 0.789062
vt 0.101562 0.789062
vt 0.101562 0.789062
vt 0.101562 0.789062
vt 0.101562 0.789062
vt 0.101562 0.789062
vt 0.101562 0.789062
vt 0.101562 0.789062
vt 0.101562 0.789062
vt 0.101562 0.789062
vt 0.101562 0.789062
vt 0.101562 0.789062
vt 0.101562 0.789062
vt 0.101562 0.789062
vt 0.101562 0.789062
vt 0.101562 0.789062
vt 0.101562 0.789062
vt 0.101562 0.789062
vt 0.101562 0.789062
vt 0.101562 0.789062
vt 0.101562 0.789062
vt 0.101562 0.789062
vt 0.101562 0.789062
vt 0.003026 0.888338
vt 0.003026 0.888338
vt 0.003026 0.888338
vt 0.003026 0.888338
vt 0.003026 0.888338
vt 0.003026 0.888338
vt 0.003026 0.888338
vt 0.003026 0.888338
vt 0.101562 0.789062
vt 0.101562 0.789062
vt 0.101562 0.789062
vt 0.101562 0.789062
vt 0.242188 0.789062
vt 0.242188 0.789062
vt 0.242188 0.789062
vt 0.242188 0.789062
vt 0.242188 0.789062
vt 0.242188 0.789062
vt 0.242188 0.789062
vt 0.242188 0.789062
vt 0.242188 0.789062
vt 0.101562 0.789062
vt 0.101562 0.789062
vt 0.101562 0.789062
vt 0.101562 0.789062
vt 0.101562 0.789062
vt 0.101562 0.789062
vt 0.101562 0.789062
vt 0.101562 0.789062
vt 0.101562 0.789062
vt 0.101562 0.789062
vt 0.101562 0.789062
vt 0.101562 0.789062
vn -0.0000 1.0000 0.0000
vn -0.9239 0.0000 -0.3827
vn 0.9239 0.0000 -0.3827
vn -0.3827 0.0000 0.9239
vn -0.3827 0.0000 -0.9239
vn 0.9239 0.0000 0.3827
vn -0.9239 -0.0000 0.3827
vn 0.3827 0.0000 0.9239
vn 0.3827 0.0000 -0.9239
vn -0.7071 0.0000 -0.7071
vn 0.7071 0.0000 -0.7071
vn 0.7071 -0.0000 0.7071
vn -0.7071 -0.0000 0.7071
vn -0.0000 0.0000 -1.0000
vn 1.0000 0.0000 0.0000
vn 0.0000 -0.0000 1.0000
vn -1.0000 0.0000 -0.0000
s off
f 1/1/1 2/2/1 3/3/1 4/4/1
f 5/5/1 6/6/1 2/2/1 1/1/1
f 7/7/1 5/5/1 1/1/1 8/8/1
f 8/8/1 1/1/1 4/4/1 9/9/1
f 10/10/2 11/11/2 12/12/2 13/13/2
f 14/14/3 15/15/3 16/16/3 17/17/3
f 18/18/4 19/19/4 20/20/4 21/21/4
f 13/13/5 12/12/5 22/22/5 23/23/5
f 17/17/6 16/16/6 24/24/6 25/25/6
f 21/21/7 20/20/7 11/11/7 10/10/7
f 25/25/8 24/24/8 19/19/8 18/18/8
f 26/26/7 27/27/7 28/28/7 29/29/7
f 30/30/9 31/31/9 32/32/9 33/33/9
f 34/34/4 26/26/4 29/29/4 35/35/4
f 36/36/8 34/34/8 35/35/8 37/37/8
f 31/31/3 38/38/3 39/39/3 32/32/3
f 27/27/2 40/40/2 41/41/2 28/28/2
f 38/38/6 36/36/6 37/37/6 39/39/6
f 40/40/5 30/30/5 33/33/5 41/41/5
f 23/23/9 22/22/9 15/15/9 14/14/9
f 42/42/7 43/43/7 44/44/7 45/45/7
f 46/46/9 47/47/9 48/48/9 49/49/9
f 50/50/4 42/42/4 45/45/4 51/51/4
f 52/52/8 50/50/8 51/51/8 53/53/8
f 47/47/3 54/54/3 55/55/3 48/48/3
f 43/43/2 56/56/2 57/57/2 44/44/2
f 54/54/6 52/52/6 53/53/6 55/55/6
f 56/56/5 46/46/5 49/49/5 57/57/5
f 58/58/10 59/59/10 60/60/10 61/61/10
f 61/61/11 60/60/11 62/62/11 63/63/11
f 63/63/12 62/62/12 64/64/12 65/65/12
f 65/65/13 64/64/13 59/59/13 58/58/13
f 62/62/1 60/60/1 59/59/1 64/64/1
f 66/66/14 67/67/14 68/68/14 69/69/14
f 69/69/15 68/68/15 70/70/15 71/71/15
f 71/71/16 70/70/16 72/72/16 73/73/16
f 73/73/17 72/72/17 67/67/17 66/66/17
f 70/70/1 68/68/1 67/67/1 72/72/1
f 74/74/11 75/75/11 76/76/11 77/77/11
f 77/77/12 76/76/12 78/78/12 79/79/12
f 79/79/13 78/78/13 80/80/13 81/81/13
f 81/81/10 80/80/10 75/75/10 74/74/10
f 78/78/1 76/76/1 75/75/1 80/80/1
f 82/82/15 83/83/15 84/84/15 85/85/15
f 85/85/16 84/84/16 86/86/16 87/87/16
f 87/87/17 86/86/17 88/88/17 89/89/17
f 89/89/14 88/88/14 83/83/14 82/82/14
f 86/86/1 84/84/1 83/83/1 88/88/1
f 90/90/12 91/91/12 92/92/12 93/93/12
f 93/93/13 92/92/13 94/94/13 95/95/13
f 95/95/10 94/94/10 96/96/10 97/97/10
f 97/97/11 96/96/11 91/91/11 90/90/11
f 94/94/1 92/92/1 91/91/1 96/96/1
f 98/98/16 99/99/16 100/100/16 101/101/16
f 101/101/17 100/100/17 102/102/17 103/103/17
f 103/103/14 102/102/14 104/104/14 105/105/14
f 105/105/15 104/104/15 99/99/15 98/98/15
f 102/102/1 100/100/1 99/99/1 104/104/1
f 106/106/13 107/107/13 108/108/13 109/109/13
f 109/109/10 108/108/10 110/110/10 111/111/10
f 111/111/11 110/110/11 112/112/11 113/113/11
f 113/113/12 112/112/12 107/107/12 106/106/12
f 110/110/1 108/108/1 107/107/1 112/112/1
f 114/114/17 115/115/17 116/116/17 117/117/17
f 117/117/14 116/116/14 118/118/14 119/119/14
f 119/119/15 118/118/15 120/120/15 121/121/15
f 121/121/16 120/120/16 115/115/16 114/114/16
f 118/118/1 116/116/1 115/115/1 120/120/1
f 122/122/6 123/123/6 124/124/6 125/125/6
f 126/126/7 127/127/7 128/128/7 129/129/7
f 130/130/9 131/131/9 132/132/9 133/133/9
f 123/123/8 134/134/8 135/135/8 124/124/8
f 127/127/2 136/136/2 137/137/2 128/128/2
f 131/131/3 122/122/3 125/125/3 132/132/3
f 136/136/5 130/130/5 133/133/5 137/137/5
f 138/138/3 139/139/3 140/140/3 141/141/3
f 142/142/4 143/143/4 144/144/4 145/145/4
f 146/146/9 147/147/9 139/139/9 138/138/9
f 148/148/5 149/149/5 147/147/5 146/146/5
f 145/145/7 144/144/7 150/150/7 151/151/7
f 141/141/6 140/140/6 152/152/6 153/153/6
f 151/151/2 150/150/2 149/149/2 148/148/2
f 153/153/8 152/152/8 143/143/8 142/142/8
f 134/134/4 126/126/4 129/129/4 135/135/4
f 154/154/3 155/155/3 156/156/3 157/157/3
f 158/158/4 159/159/4 160/160/4 161/161/4
f 162/162/9 163/163/9 155/155/9 154/154/9
f 164/164/5 165/165/5 163/163/5 162/162/5
f 161/161/7 160/160/7 166/166/7 167/167/7
f 157/157/6 156/156/6 168/168/6 169/169/6
f 167/167/2 166/166/2 165/165/2 164/164/2
f 169/169/8 168/168/8 159/159/8 158/158/8
f 8/8/9 9/9/9 170/170/9 171/171/9
f 5/5/2 7/7/2 172/172/2 173/173/2
f 2/2/4 6/6/4 174/174/4 175/175/4
f 3/3/8 2/2/8 175/175/8 176/176/8
f 9/9/3 4/4/3 177/177/3 170/170/3
f 7/7/5 8/8/5 171/171/5 172/172/5
f 6/6/7 5/5/7 173/173/7 174/174/7
f 4/4/6 3/3/6 176/176/6 177/177/6
s 1
f 178/178/14 179/179/10 180/180/10 181/181/14
f 182/182/1 183/183/1 184/184/1 185/185/1
f 186/186/1 182/182/1 185/185/1 187/187/1
f 188/188/1 181/189/1 182/182/1 186/186/1
f 181/189/1 180/190/1 183/183/1 182/182/1
f 184/191/13 189/192/13 190/193/16 185/194/16
f 191/195/17 189/192/13 184/191/13 183/196/17
f 190/193/16 192/197/12 187/198/12 185/194/16
f 188/199/11 193/200/11 178/178/14 181/181/14
f 194/201/15 193/200/11 188/199/11 186/202/15
f 180/180/10 179/179/10 191/195/17 183/196/17
f 187/198/12 192/197/12 194/201/15 186/202/15
