# Blender v2.90.0 Alpha OBJ File: 'Decos.blend'
# www.blender.org
o PileOfMaterials_Cone
v -2.124789 1.138095 -2.199001
v 0.312850 1.094954 -1.369882
v -2.244437 1.049825 2.268996
v -1.662351 1.248594 0.586798
v 1.926416 0.330895 2.214738
v 2.140244 1.694208 0.075469
v 0.854678 0.390770 -2.837223
v -1.219442 0.387361 1.908436
v -2.124789 2.643077 -2.199001
v 0.312850 2.599936 -1.369881
v -2.244436 2.554807 2.268996
v -1.662351 2.753576 0.586798
v 1.926416 1.835877 2.214738
v 2.140244 3.199190 0.075469
v 0.854678 1.895752 -2.837223
v -1.219442 1.892343 1.908436
v -2.124789 4.148692 -2.199001
v 0.312850 4.105552 -1.369881
v -2.244436 4.060423 2.268996
v -1.662351 4.259192 0.586798
v 1.926416 3.341493 2.214738
v 2.140244 4.704806 0.075469
v 0.854678 3.401368 -2.837223
v -1.219442 3.397959 1.908436
v -2.124789 5.654308 -2.199001
v 0.312850 5.611168 -1.369882
v -2.244436 5.566040 2.268996
v -1.662351 5.764808 0.586798
v 1.926417 4.847109 2.214738
v 2.140244 6.210422 0.075469
v 0.854678 4.906984 -2.837223
v -1.219442 4.903575 1.908436
vt 0.070312 0.773438
vt 0.070312 0.773438
vt 0.070312 0.773438
vt 0.070312 0.773438
vt 0.070312 0.773438
vt 0.070312 0.773438
vt 0.070312 0.773438
vt 0.070312 0.773438
vt 0.070312 0.773438
vt 0.070312 0.773438
vt 0.070312 0.773438
vt 0.070312 0.773438
vt 0.070312 0.773438
vt 0.070312 0.773438
vt 0.070312 0.773438
vt 0.070312 0.773438
vt 0.070312 0.773438
vt 0.070312 0.773438
vt 0.070312 0.773438
vt 0.070312 0.773438
vt 0.070312 0.773438
vt 0.070312 0.773438
vt 0.070312 0.773438
vt 0.070312 0.773438
vt 0.070312 0.773438
vt 0.070312 0.773438
vt 0.070312 0.773438
vt 0.070312 0.773438
vt 0.070312 0.773438
vt 0.070312 0.773438
vt 0.070312 0.773438
vt 0.070312 0.773438
vn -0.0183 0.9992 -0.0366
vn -0.1717 0.9848 0.0271
vn 0.0330 0.9984 -0.0451
vn -0.0603 0.9713 0.2301
vn 0.0905 0.8920 0.4429
vn -0.0458 -0.9487 0.3130
vn -0.1406 -0.9898 -0.0249
vn -0.1962 -0.9317 0.3058
vn -0.3123 -0.9339 0.1741
vn -0.3302 -0.8928 0.3065
vn 0.4549 -0.7256 0.5162
vn 0.1251 0.8838 -0.4507
vn 0.8782 -0.4382 -0.1915
vn 0.0236 -0.8339 -0.5513
vn -0.0458 -0.9487 0.3129
vn -0.3512 -0.9317 -0.0929
vn -0.2158 -0.7749 0.5941
vn 0.1496 0.8270 0.5420
vn -0.3418 0.9388 0.0429
vn 0.6203 0.7358 0.2716
s 1
f 1/1/1 4/2/2 2/3/3
f 3/4/4 6/5/5 4/2/2
f 2/3/6 5/6/7 8/7/8
f 5/6/7 3/4/9 8/7/8
f 7/8/10 2/3/6 4/2/11
f 7/8/12 1/1/12 6/5/12
f 7/8/13 6/5/13 5/6/13
f 6/5/14 8/7/14 4/2/14
f 9/9/1 12/10/2 10/11/3
f 11/12/4 14/13/5 12/10/2
f 10/11/6 13/14/7 16/15/8
f 13/14/7 11/12/9 16/15/8
f 15/16/10 10/11/6 12/10/11
f 15/16/12 9/9/12 14/13/12
f 15/16/13 14/13/13 13/14/13
f 14/13/14 16/15/14 12/10/14
f 17/17/1 20/18/2 18/19/3
f 19/20/4 22/21/5 20/18/2
f 18/19/6 21/22/7 24/23/8
f 21/22/7 19/20/9 24/23/8
f 23/24/10 18/19/6 20/18/11
f 23/24/12 17/17/12 22/21/12
f 23/24/13 22/21/13 21/22/13
f 22/21/14 24/23/14 20/18/14
f 25/25/1 28/26/2 26/27/3
f 27/28/4 30/29/5 28/26/2
f 26/27/15 29/30/7 32/31/8
f 29/30/7 27/28/9 32/31/8
f 31/32/10 26/27/15 28/26/11
f 31/32/12 25/25/12 30/29/12
f 31/32/13 30/29/13 29/30/13
f 30/29/14 32/31/14 28/26/14
f 1/1/1 3/4/4 4/2/2
f 11/12/9 9/9/16 15/16/16 16/15/8
f 2/3/6 7/8/10 5/6/7
f 1/1/17 2/3/17 6/5/17
f 5/6/18 6/5/5 3/4/4
f 6/5/19 2/3/19 8/7/19
f 8/7/20 7/8/20 4/2/20
f 9/9/1 11/12/4 12/10/2
f 19/20/9 17/17/16 23/24/16 24/23/8
f 10/11/6 15/16/10 13/14/7
f 9/9/17 10/11/17 14/13/17
f 13/14/18 14/13/5 11/12/4
f 14/13/19 10/11/19 16/15/19
f 16/15/20 15/16/20 12/10/20
f 17/17/1 19/20/4 20/18/2
f 27/28/9 25/25/16 31/32/16 32/31/8
f 18/19/6 23/24/10 21/22/7
f 17/17/17 18/19/17 22/21/17
f 21/22/18 22/21/5 19/20/4
f 22/21/19 18/19/19 24/23/19
f 24/23/20 23/24/20 20/18/20
f 25/25/1 27/28/4 28/26/2
f 26/27/15 31/32/10 29/30/7
f 3/4/9 1/1/16 7/8/16 8/7/8
f 25/25/17 26/27/17 30/29/17
f 29/30/18 30/29/5 27/28/4
f 30/29/19 26/27/19 32/31/19
f 32/31/20 31/32/20 28/26/20
