# Blender v2.91.0 Beta OBJ File: 'HOUSE.blend'
# www.blender.org
o Tire.001_Torus.004
v 0.358760 1.901005 0.195278
v 0.344392 1.901288 -0.253212
v 0.344222 2.247008 -0.252990
v 0.358590 2.246725 0.195502
v 0.099952 2.490897 -0.245013
v 0.114319 2.490614 0.203481
v -0.474731 2.245402 0.222195
v -0.489100 2.245686 -0.226296
v -0.474376 1.900129 0.221966
v -0.488743 1.900411 -0.226526
v -0.230104 1.656240 0.213986
v -0.244470 1.656522 -0.234501
v 0.114994 1.656603 0.202933
v 0.100628 1.656886 -0.245560
v 0.563040 1.815332 0.087982
v 0.555118 1.815486 -0.159322
v -0.245145 2.490534 -0.233956
v -0.230778 2.490250 0.214536
v -0.693376 2.331361 -0.118998
v -0.685454 2.331204 0.128303
v -0.692844 1.814174 -0.119342
v -0.684920 1.814019 0.127957
v -0.319024 1.448696 0.116007
v -0.326945 1.448852 -0.131295
v 0.189976 1.449395 -0.147854
v 0.197895 1.449241 0.099449
v -0.328050 2.697896 -0.130472
v -0.320127 2.697741 0.116829
v 0.196793 2.698285 0.100270
v 0.188870 2.698439 -0.147029
v 0.554767 2.333118 -0.158983
v 0.562691 2.332963 0.088319
v -0.149518 2.477462 0.215402
v 0.038376 2.477659 0.209384
v -0.170049 2.430041 -0.232514
v 0.017845 2.430239 -0.238532
v -0.111057 4.836446 -0.167919
v -0.122208 4.836267 0.019778
v 0.065687 4.836465 0.013758
v 0.076839 4.836644 -0.173938
v -0.107268 4.999833 -0.149223
v -0.112316 4.999654 -0.027767
v 0.075578 4.999852 -0.033785
v 0.080627 5.000031 -0.155242
vt 0.947754 0.963379
vt 0.950684 0.979004
vt 0.950684 0.964355
vt 0.978027 0.979004
vt 0.975098 0.964355
vt 0.978027 0.963379
vt 0.975098 0.964355
vt 0.975098 0.917167
vt 0.975098 0.903678
vt 0.975098 0.917167
vt 0.975098 0.927246
vt 0.975098 0.875488
vt 0.950684 0.890137
vt 0.975098 0.890137
vt 0.950684 0.890137
vt 0.947754 0.875488
vt 0.950684 0.875488
vt 0.978027 0.927246
vt 0.978027 0.963379
vt 0.978027 0.875488
vt 0.975098 0.890137
vt 0.947754 0.927246
vt 0.947754 0.891113
vt 0.978027 0.891113
vt 0.975098 0.927246
vt 0.950684 0.964355
vt 0.950684 0.927246
vt 0.978027 0.927246
vt 0.947754 0.927246
vt 0.950684 0.927246
vt 0.978027 0.891113
vt 0.947754 0.891113
vt 0.975098 0.979004
vt 0.947754 0.979004
vt 0.947754 0.963379
vt 0.963379 0.927246
vt 0.963379 0.927246
vt 0.963379 0.927246
vt 0.963379 0.927246
vt 0.963379 0.927246
vt 0.963379 0.927246
vt 0.963379 0.927246
vt 0.963379 0.927246
vt 0.963379 0.927246
vt 0.963379 0.927246
vt 0.963379 0.927246
vt 0.963379 0.927246
vt 0.963379 0.927246
vt 0.963379 0.927246
vt 0.963379 0.927246
vt 0.950684 0.917167
vt 0.950684 0.903678
vt 0.950684 0.903678
vt 0.963379 0.927246
vt 0.950684 0.917167
vt 0.950684 0.903678
vt 0.975098 0.903678
vt 0.975098 0.917167
vt 0.950684 0.917167
vt 0.963379 0.927246
vt 0.975098 0.903678
vt 0.963379 0.927246
vn -0.3045 -0.1394 0.9423
vn 0.8206 -0.3331 0.4642
vn 0.8201 0.3339 0.4646
vn -0.3646 0.1390 -0.9207
vn 0.3184 -0.8044 -0.5014
vn -0.1687 0.3351 -0.9269
vn 0.7887 0.3345 -0.5158
vn -0.0211 -0.7314 -0.6816
vn -0.0320 0.0704 -0.9970
vn -0.0320 0.0717 -0.9969
vn 0.3168 0.8057 -0.5004
vn -0.8208 0.3328 -0.4642
vn -0.3186 0.8044 0.5014
vn -0.3500 0.8050 -0.4790
vn -0.7886 -0.3346 0.5158
vn 0.3647 -0.1389 0.9207
vn -0.7894 0.3322 0.5163
vn -0.1681 -0.3342 -0.9274
vn -0.3641 -0.1382 -0.9210
vn 0.3050 -0.1377 -0.9424
vn -0.8200 -0.3340 -0.4647
vn 0.1680 0.3342 0.9274
vn 0.3642 0.1384 0.9210
vn 0.3045 0.1396 -0.9422
vn -0.3482 -0.8051 -0.4801
vn 0.3498 -0.8050 0.4790
vn -0.3168 -0.8057 0.5004
vn 0.1084 0.3354 -0.9358
vn -0.1084 -0.3354 0.9358
vn 0.3482 0.8051 0.4801
vn 0.1091 -0.3338 -0.9363
vn 0.1688 -0.3350 0.9270
vn 0.7892 -0.3325 -0.5163
vn -0.3049 0.1378 0.9423
vn -0.1090 0.3340 0.9362
vn 0.0255 -0.6307 0.7756
vn 0.0313 0.1781 0.9835
vn 0.0251 -0.6446 0.7640
vn 0.0313 0.1834 0.9825
vn 0.0193 0.7780 0.6280
vn -0.0217 0.7566 -0.6535
vn -0.0224 0.7364 -0.6761
vn 0.0175 0.8187 0.5740
vn -0.0208 -0.7367 -0.6758
s 1
f 4/1/1 15/2/2 32/3/3
f 2/4/4 25/5/5 14/6/6
f 15/2/2 31/7/7 32/3/3
f 36/8/8 37/9/9 40/10/10
f 30/11/11 32/3/3 31/7/7
f 19/12/12 28/13/13 27/14/14
f 22/15/15 7/16/16 20/17/17
f 5/18/18 31/7/7 3/19/19
f 8/20/20 21/21/21 19/12/12
f 22/15/15 11/22/22 9/23/23
f 10/24/24 24/25/25 21/21/21
f 26/26/26 11/22/22 23/27/27
f 12/28/28 25/5/5 24/25/25
f 6/29/29 32/3/3 29/30/30
f 28/13/13 30/11/11 27/14/14
f 17/31/31 30/11/11 5/18/18
f 19/12/12 17/31/31 8/20/20
f 20/17/17 18/32/32 28/13/13
f 3/19/19 16/33/33 2/4/4
f 19/12/12 22/15/15 20/17/17
f 24/25/25 26/26/26 23/27/27
f 24/25/25 22/15/15 21/21/21
f 15/2/2 25/5/5 16/33/33
f 26/26/26 1/34/34 13/35/35
f 12/36/28 9/37/23 11/38/22
f 10/39/24 7/40/16 9/37/23
f 17/41/31 7/40/16 8/42/20
f 18/32/32 29/30/30 28/13/13
f 3/43/19 6/44/29 5/45/18
f 2/46/4 4/47/1 3/43/19
f 2/46/4 13/48/35 1/49/34
f 12/36/28 13/48/35 14/50/6
f 34/51/36 38/52/37 33/53/38
f 17/41/31 6/44/29 18/54/32
f 39/55/39 42/56/40 38/52/37
f 40/10/10 41/57/41 44/58/42
f 41/57/41 43/59/43 44/58/42
f 36/8/8 33/60/38 35/61/44
f 4/1/1 1/34/34 15/2/2
f 2/4/4 16/33/33 25/5/5
f 15/2/2 16/33/33 31/7/7
f 36/8/8 35/61/44 37/9/9
f 30/11/11 29/30/30 32/3/3
f 19/12/12 20/17/17 28/13/13
f 22/15/15 9/23/23 7/16/16
f 5/18/18 30/11/11 31/7/7
f 8/20/20 10/24/24 21/21/21
f 22/15/15 23/27/27 11/22/22
f 10/24/24 12/28/28 24/25/25
f 26/26/26 13/35/35 11/22/22
f 12/28/28 14/6/6 25/5/5
f 6/29/29 4/1/1 32/3/3
f 28/13/13 29/30/30 30/11/11
f 17/31/31 27/14/14 30/11/11
f 19/12/12 27/14/14 17/31/31
f 20/17/17 7/16/16 18/32/32
f 3/19/19 31/7/7 16/33/33
f 19/12/12 21/21/21 22/15/15
f 24/25/25 25/5/5 26/26/26
f 24/25/25 23/27/27 22/15/15
f 15/2/2 26/26/26 25/5/5
f 26/26/26 15/2/2 1/34/34
f 12/36/28 10/39/24 9/37/23
f 10/39/24 8/42/20 7/40/16
f 17/41/31 18/54/32 7/40/16
f 18/32/32 6/29/29 29/30/30
f 3/43/19 4/47/1 6/44/29
f 2/46/4 1/49/34 4/47/1
f 2/46/4 14/50/6 13/48/35
f 12/36/28 11/38/22 13/48/35
f 34/51/36 39/55/39 38/52/37
f 17/41/31 5/45/18 6/44/29
f 39/55/39 43/59/43 42/56/40
f 40/10/10 37/9/9 41/57/41
f 41/57/41 42/56/40 43/59/43
f 36/8/8 34/62/36 33/60/38
