# Blender v2.91.0 Beta OBJ File: 'decos.blend'
# www.blender.org
o Cube.002_Cube.001
v -0.764150 0.828813 0.175858
v -0.764150 3.477437 0.175861
v -0.764150 3.477437 -0.175855
v -0.764150 0.828813 -0.175858
v 0.764150 0.828813 -0.175858
v 0.764150 3.477437 -0.175855
v 0.764150 3.477437 0.175861
v 0.764150 0.828813 0.175858
v 0.733122 0.871607 0.175858
v 0.733122 3.434644 0.175861
v 0.700200 3.406650 0.114873
v 0.700200 0.899600 0.114871
v -0.733122 3.434644 0.175861
v -0.733122 0.871607 0.175858
v -0.700200 3.406650 0.114873
v -0.700200 0.899600 0.114871
v -0.019631 0.871607 0.175858
v 0.019631 0.871607 0.175858
v 0.019631 3.434644 0.175861
v -0.019631 3.434644 0.175861
v -0.037881 3.406650 0.114873
v 0.037881 3.406650 0.114873
v 0.037881 0.899600 0.114871
v -0.037881 0.899600 0.114871
v -0.019631 0.828813 0.175858
v 0.019631 0.828813 0.175858
v 0.019631 3.477437 0.175861
v -0.019631 3.477437 0.175861
vt 0.835938 0.382812
vt 0.835938 0.382812
vt 0.835938 0.382812
vt 0.835938 0.382812
vt 0.835938 0.382812
vt 0.835938 0.382812
vt 0.835938 0.382812
vt 0.835938 0.382812
vt 0.835938 0.382812
vt 0.835938 0.382812
vt 0.835938 0.382812
vt 0.835938 0.382812
vt 0.835938 0.382812
vt 0.835938 0.382812
vt 0.835938 0.382812
vt 0.835938 0.382812
vt 0.835938 0.382812
vt 0.835938 0.382812
vt 0.835938 0.382812
vt 0.835938 0.382812
vt 0.835938 0.382812
vt 0.835938 0.382812
vt 0.835938 0.382812
vt 0.835938 0.382812
vt 0.835938 0.382812
vt 0.835938 0.382812
vt 0.835938 0.382812
vt 0.835938 0.382812
vn -1.0000 0.0000 0.0000
vn 1.0000 0.0000 0.0000
vn 0.0000 -1.0000 -0.0000
vn 0.0000 -0.0000 1.0000
vn -0.8800 -0.0000 0.4750
vn 0.0000 -0.9088 0.4172
vn 0.8800 -0.0000 0.4750
vn 0.0000 0.9088 0.4172
vn 0.0000 1.0000 -0.0000
vn -0.9580 -0.0000 0.2867
vn 0.0000 -0.9088 -0.4172
vn 0.0000 0.9088 -0.4172
vn 0.9580 -0.0000 0.2867
s 1
f 1/1/1 3/2/1 4/3/1
f 6/4/2 8/5/2 5/6/2
f 4/3/3 25/7/3 1/1/3
f 17/8/4 19/9/4 20/10/4
f 9/11/5 11/12/5 12/13/5
f 27/14/4 10/15/4 7/16/4
f 7/16/4 9/11/4 8/5/4
f 2/17/4 14/18/4 13/19/4
f 25/7/4 14/18/4 1/1/4
f 19/9/6 11/12/6 10/15/6
f 28/20/4 13/19/4 20/10/4
f 14/18/7 15/21/7 13/19/7
f 11/12/4 23/22/4 12/13/4
f 17/8/8 16/23/8 14/18/8
f 18/24/8 12/13/8 23/22/8
f 21/25/4 16/23/4 24/26/4
f 6/4/9 27/14/9 7/16/9
f 26/27/4 9/11/4 18/24/4
f 3/2/9 2/17/9 28/20/9
f 20/10/6 15/21/6 21/25/6
f 21/25/10 17/8/10 20/10/10
f 18/24/4 25/7/4 26/27/4
f 20/10/4 27/14/4 28/20/4
f 3/2/9 28/20/9 27/14/9
f 5/6/3 26/27/3 25/7/3
f 5/6/3 8/5/3 26/27/3
f 23/22/11 17/8/11 24/26/11
f 21/25/12 19/9/12 22/28/12
f 22/28/13 18/24/13 23/22/13
f 1/1/1 2/17/1 3/2/1
f 6/4/2 7/16/2 8/5/2
f 4/3/3 5/6/3 25/7/3
f 17/8/4 18/24/4 19/9/4
f 9/11/5 10/15/5 11/12/5
f 27/14/4 19/9/4 10/15/4
f 7/16/4 10/15/4 9/11/4
f 2/17/4 1/1/4 14/18/4
f 25/7/4 17/8/4 14/18/4
f 19/9/6 22/28/6 11/12/6
f 28/20/4 2/17/4 13/19/4
f 14/18/7 16/23/7 15/21/7
f 11/12/4 22/28/4 23/22/4
f 17/8/8 24/26/8 16/23/8
f 18/24/8 9/11/8 12/13/8
f 21/25/4 15/21/4 16/23/4
f 6/4/9 3/2/9 27/14/9
f 26/27/4 8/5/4 9/11/4
f 20/10/6 13/19/6 15/21/6
f 21/25/10 24/26/10 17/8/10
f 18/24/4 17/8/4 25/7/4
f 20/10/4 19/9/4 27/14/4
f 23/22/11 18/24/11 17/8/11
f 21/25/12 20/10/12 19/9/12
f 22/28/13 19/9/13 18/24/13
