# Blender v2.91.0 Beta OBJ File: 'decos.blend'
# www.blender.org
o Cube.033
v -1.078350 0.281308 1.067591
v -1.977281 0.318582 -0.419343
v -1.999999 0.281078 -0.432409
v 1.999999 0.281078 -0.432409
v 1.977281 0.318582 -0.419343
v 1.078350 0.281308 1.067591
v 1.066844 0.318582 1.047783
v -0.801964 -0.043783 0.815597
v 0.790731 -0.016763 0.792066
v 0.801964 -0.043783 0.815597
v 1.043075 0.079608 1.049923
v -1.025190 0.040315 1.026921
v 1.025190 0.040315 1.026921
v 1.900080 0.040315 -0.398481
v -1.934619 0.079378 -0.414742
v -1.900080 0.040315 -0.398481
v -1.043075 0.079608 1.049923
v 1.051628 0.242202 1.029345
v -1.948536 0.242346 -0.406261
v 1.883734 0.120704 -0.387964
v 1.016954 0.120559 1.011263
v -1.883734 0.120704 -0.387964
v -1.016954 0.120559 1.011263
v -1.051628 0.242202 1.029345
v 1.934619 0.079378 -0.414742
v 1.948536 0.242346 -0.406261
v 1.465535 -0.016763 -0.398481
v -0.790731 -0.016763 0.792066
v -1.465535 -0.016763 -0.398481
v 1.486355 -0.043783 -0.315336
v -1.486355 -0.043783 -0.315336
v 0.834162 -0.038889 0.851072
v 1.544366 -0.039022 -0.332868
v -0.834162 -0.038889 0.851072
v -1.544366 -0.039022 -0.332868
v 0.916718 0.015291 0.928132
v -1.696954 0.015432 -0.364187
v -0.916718 0.015291 0.928132
v 1.696954 0.015432 -0.364187
v -0.885403 -0.015499 0.894327
v 0.855479 -0.017994 0.863500
v 0.885403 -0.015499 0.894327
v 1.641471 -0.015491 -0.345804
v -1.587387 -0.018115 -0.330274
v -1.641471 -0.015491 -0.345804
v -0.855479 -0.017994 0.863500
v 1.587387 -0.018115 -0.330274
v -1.066844 0.318582 1.047783
vt 0.835938 0.445312
vt 0.835938 0.445312
vt 0.835938 0.445312
vt 0.835938 0.445312
vt 0.835938 0.445312
vt 0.835938 0.445312
vt 0.835938 0.445312
vt 0.835938 0.414062
vt 0.835938 0.414062
vt 0.835938 0.414062
vt 0.835938 0.382812
vt 0.835938 0.382812
vt 0.835938 0.382812
vt 0.835938 0.445312
vt 0.835938 0.445312
vt 0.835938 0.445312
vt 0.835938 0.445312
vt 0.835938 0.445312
vt 0.835938 0.445312
vt 0.835938 0.445312
vt 0.835938 0.414062
vt 0.835938 0.414062
vt 0.835938 0.414062
vt 0.835938 0.414062
vt 0.835938 0.414062
vt 0.835938 0.414062
vt 0.835938 0.445312
vt 0.835938 0.445312
vt 0.835938 0.445312
vt 0.835938 0.445312
vt 0.835938 0.445312
vt 0.835938 0.445312
vt 0.835938 0.445312
vt 0.835938 0.445312
vt 0.835938 0.414062
vt 0.835938 0.414062
vt 0.835938 0.414062
vt 0.835938 0.414062
vt 0.835938 0.414062
vt 0.835938 0.414062
vt 0.835938 0.414062
vt 0.835938 0.414062
vt 0.835938 0.414062
vt 0.835938 0.414062
vt 0.835938 0.414062
vt 0.835938 0.414062
vt 0.835938 0.414062
vt 0.835938 0.414062
vt 0.835938 0.414062
vt 0.835938 0.414062
vt 0.835938 0.414062
vt 0.835938 0.414062
vt 0.835938 0.414062
vt 0.835938 0.414062
vt 0.835938 0.414062
vt 0.835938 0.414062
vt 0.835938 0.414062
vt 0.835938 0.414062
vt 0.835938 0.414062
vt 0.835938 0.414062
vt 0.835938 0.414062
vt 0.835938 0.445312
vt 0.835938 0.382812
vt 0.835938 0.445312
vn -0.8082 0.3166 0.4965
vn 0.0000 0.3290 -0.9443
vn 0.8082 0.3166 0.4965
vn 0.0000 0.4693 0.8831
vn 0.0000 -0.6567 -0.7541
vn 0.0000 1.0000 0.0000
vn 0.0000 -0.5052 0.8630
vn 0.7001 -0.5702 0.4297
vn 0.0000 -0.3843 -0.9232
vn -0.7001 -0.5702 0.4297
vn 0.0000 -0.6992 0.7149
vn 0.0000 -0.5595 -0.8288
vn 0.5893 0.7206 0.3652
vn -0.6949 0.5816 0.4229
vn 0.0000 -0.1470 0.9891
vn 0.8095 -0.3053 0.5015
vn 0.0000 -0.1487 -0.9889
vn -0.8095 -0.3053 0.5014
vn 0.0000 0.5438 -0.8392
vn -0.5712 -0.7392 0.3568
vn 0.0000 0.6865 0.7272
vn 0.6723 -0.6143 0.4132
vn 0.0000 -1.0000 -0.0000
vn 0.0000 0.9510 0.3091
vn 0.6659 -0.6278 -0.4030
vn -0.3617 -0.9095 -0.2050
vn 0.0970 -0.9936 0.0585
vn 0.0933 -0.9940 0.0564
vn 0.0996 -0.9932 0.0599
vn -0.0970 -0.9936 0.0585
vn -0.0933 -0.9940 0.0564
vn -0.0907 -0.9944 0.0549
vn 0.0000 -0.9650 -0.2621
vn 0.0000 -0.9906 0.1367
vn 0.0000 -0.9694 0.2456
vn 0.0000 -0.8094 -0.5873
vn -0.1381 -0.9868 0.0844
vn -0.1434 -0.9858 0.0869
vn -0.1467 -0.9852 0.0885
vn 0.1381 -0.9868 0.0844
vn 0.1434 -0.9858 0.0869
vn 0.1349 -0.9874 0.0828
vn 0.0000 -0.9967 0.0807
vn 0.0000 -0.9860 -0.1666
vn -0.0565 -0.9978 0.0345
vn -0.0532 -0.9981 0.0326
vn -0.0509 -0.9982 0.0313
vn 0.0565 -0.9978 0.0345
vn 0.0532 -0.9981 0.0326
vn 0.0587 -0.9976 0.0358
vn 0.0000 -0.5112 0.8595
vn 0.0000 0.1231 -0.9924
vn -0.5542 -0.7631 0.3325
vn 0.4107 -0.8763 0.2519
vn 0.5404 -0.7756 0.3262
vn -0.4870 -0.8214 0.2969
vn 0.0000 -0.5110 -0.8596
vn 0.0000 -0.7393 0.6734
vn -0.7469 0.4768 0.4635
vn 0.7469 0.4768 0.4635
vn 0.7520 -0.4743 0.4578
vn -0.7520 -0.4743 0.4578
vn 0.6949 0.5816 0.4229
vn -0.5893 0.7206 0.3652
vn 0.7949 -0.3488 0.4966
vn -0.7949 -0.3488 0.4966
vn -0.6723 -0.6143 0.4132
vn 0.5712 -0.7392 0.3568
vn 0.3617 -0.9095 -0.2050
vn -0.6659 -0.6278 -0.4030
vn 0.0907 -0.9944 0.0549
vn -0.0996 -0.9932 0.0599
vn -0.1349 -0.9874 0.0828
vn 0.1467 -0.9852 0.0885
vn -0.0587 -0.9976 0.0358
vn 0.0509 -0.9982 0.0313
vn -0.4107 -0.8763 0.2519
vn 0.5542 -0.7631 0.3325
vn 0.4870 -0.8214 0.2969
vn -0.5404 -0.7756 0.3262
s 1
f 1/1/1 2/2/1 3/3/1
f 2/2/2 4/4/2 3/3/2
f 5/5/3 6/6/3 4/4/3
f 7/7/4 1/1/4 6/6/4
f 8/8/5 9/9/5 10/10/5
f 2/11/6 7/12/6 5/13/6
f 11/14/7 12/15/7 13/16/7
f 14/17/8 11/14/8 13/16/8
f 15/18/9 14/17/9 16/19/9
f 17/20/10 16/19/10 12/15/10
f 1/21/11 18/22/11 6/23/11
f 4/24/12 19/25/12 3/26/12
f 11/14/13 20/27/13 21/28/13
f 17/20/14 22/29/14 15/18/14
f 18/30/15 23/31/15 21/28/15
f 20/27/16 18/30/16 21/28/16
f 19/32/17 20/27/17 22/29/17
f 24/33/18 22/29/18 23/31/18
f 25/34/19 22/29/19 20/27/19
f 1/21/20 19/25/20 24/35/20
f 11/14/21 23/31/21 17/20/21
f 6/23/22 26/36/22 4/24/22
f 27/37/23 28/38/23 29/39/23
f 30/40/24 29/39/24 31/41/24
f 31/41/25 28/38/25 8/8/25
f 30/40/26 9/9/26 27/37/26
f 32/42/27 30/40/28 33/43/29
f 34/44/30 31/41/31 8/8/32
f 33/43/33 31/41/33 35/45/33
f 34/44/34 10/10/34 32/42/34
f 12/46/35 36/47/35 13/48/35
f 14/49/36 37/50/36 16/51/36
f 12/46/37 37/50/38 38/52/39
f 13/48/40 39/53/41 14/49/42
f 40/54/43 41/55/43 42/56/43
f 43/57/44 44/58/44 45/59/44
f 40/54/45 44/58/46 46/60/47
f 42/56/48 47/61/49 43/57/50
f 46/60/51 32/42/51 41/55/51
f 44/58/52 33/43/52 35/45/52
f 46/60/53 35/45/53 34/44/53
f 41/55/54 33/43/54 47/61/54
f 36/47/55 43/57/55 39/53/55
f 38/52/56 45/59/56 40/54/56
f 39/53/57 45/59/57 37/50/57
f 38/52/58 42/56/58 36/47/58
f 1/1/59 48/62/59 2/2/59
f 2/2/2 5/5/2 4/4/2
f 5/5/60 7/7/60 6/6/60
f 7/7/4 48/62/4 1/1/4
f 8/8/5 28/38/5 9/9/5
f 2/11/6 48/63/6 7/12/6
f 11/14/7 17/20/7 12/15/7
f 14/17/61 25/34/61 11/14/61
f 15/18/9 25/34/9 14/17/9
f 17/20/62 15/18/62 16/19/62
f 1/21/11 24/35/11 18/22/11
f 4/24/12 26/36/12 19/25/12
f 11/14/63 25/34/63 20/27/63
f 17/20/64 23/31/64 22/29/64
f 18/30/15 24/33/15 23/31/15
f 20/27/65 26/64/65 18/30/65
f 19/32/17 26/64/17 20/27/17
f 24/33/66 19/32/66 22/29/66
f 25/34/19 15/18/19 22/29/19
f 1/21/67 3/26/67 19/25/67
f 11/14/21 21/28/21 23/31/21
f 6/23/68 18/22/68 26/36/68
f 27/37/23 9/9/23 28/38/23
f 30/40/24 27/37/24 29/39/24
f 31/41/69 29/39/69 28/38/69
f 30/40/70 10/10/70 9/9/70
f 32/42/27 10/10/71 30/40/28
f 34/44/30 35/45/72 31/41/31
f 33/43/33 30/40/33 31/41/33
f 34/44/34 8/8/34 10/10/34
f 12/46/35 38/52/35 36/47/35
f 14/49/36 39/53/36 37/50/36
f 12/46/37 16/51/73 37/50/38
f 13/48/40 36/47/74 39/53/41
f 40/54/43 46/60/43 41/55/43
f 43/57/44 47/61/44 44/58/44
f 40/54/45 45/59/75 44/58/46
f 42/56/48 41/55/76 47/61/49
f 46/60/51 34/44/51 32/42/51
f 44/58/52 47/61/52 33/43/52
f 46/60/77 44/58/77 35/45/77
f 41/55/78 32/42/78 33/43/78
f 36/47/79 42/56/79 43/57/79
f 38/52/80 37/50/80 45/59/80
f 39/53/57 43/57/57 45/59/57
f 38/52/58 40/54/58 42/56/58
