# Blender v2.91.0 Beta OBJ File: 'decos.blend'
# www.blender.org
o Cube.027
v -1.066446 0.083469 1.059312
v -1.066844 0.318582 -0.419343
v -1.066446 0.083241 -0.424130
v 1.066446 0.083241 -0.424130
v 1.066844 0.318582 -0.419343
v 1.066446 0.083469 1.059312
v 1.066844 0.318582 1.047783
v -1.066844 0.318582 1.047783
vt 0.835938 0.382812
vt 0.835938 0.382812
vt 0.835938 0.382812
vt 0.835938 0.445312
vt 0.835938 0.445312
vt 0.835938 0.445312
vt 0.835938 0.445312
vt 0.835938 0.445312
vt 0.835938 0.445312
vt 0.835938 0.445312
vt 0.835938 0.382812
vt 0.835938 0.445312
vn 0.0000 1.0000 0.0000
vn -0.9963 0.0854 0.0084
vn -0.9956 -0.0928 0.0121
vn -0.9967 0.0794 0.0176
vn 0.9963 0.0854 0.0084
vn 0.9956 -0.0928 0.0121
vn 0.9967 0.0802 -0.0136
vn 0.0000 0.0490 0.9988
vn -0.9960 -0.0834 0.0310
vn 0.9960 -0.0886 -0.0075
s 1
f 8/1/1 5/2/1 2/3/1
f 8/4/2 3/5/3 1/6/4
f 7/7/5 4/8/6 5/9/7
f 8/4/8 6/10/8 7/7/8
f 8/1/1 7/11/1 5/2/1
f 8/4/2 2/12/9 3/5/3
f 7/7/5 6/10/10 4/8/6
f 8/4/8 1/6/8 6/10/8
