# Blender v2.91.0 Beta OBJ File: 'HOUSE.blend'
# www.blender.org
o nicebrick01.004_tree.002_tree.001
v -0.648777 1.114281 0.901049
v -0.135999 0.340200 1.606890
v -0.400326 0.340200 0.817821
v 0.258718 0.340200 0.597051
v -0.182544 0.340200 1.622482
v -0.695323 1.114281 0.916641
v -0.446871 0.340200 0.833413
v 0.443813 -0.314529 1.303851
v 0.410405 0.324577 1.204119
v 0.443813 0.324577 1.303851
v -0.155722 -0.314529 1.393763
v -0.122313 0.324577 1.493495
v -0.155722 0.324577 1.393763
v 0.251459 -0.314529 0.729634
v 0.218053 0.324577 0.629908
v 0.251459 0.324577 0.729634
v -0.348072 -0.314529 0.819558
v -0.314667 0.324577 0.919278
v -0.348072 0.324577 0.819558
v 0.398830 0.324577 1.207996
v 0.432239 -0.314529 1.307729
v 0.432239 0.324577 1.307729
v -0.110738 0.324577 1.489618
v -0.144147 -0.314529 1.389886
v -0.144147 0.324577 1.389886
v 0.206478 0.324577 0.633785
v 0.239884 -0.314529 0.733511
v 0.239884 0.324577 0.733511
v -0.303092 0.324577 0.915401
v -0.336497 -0.314529 0.815681
v -0.336497 0.324577 0.815681
v -0.384451 1.114281 1.690118
v 0.523044 0.340200 1.386120
v -0.430996 1.114281 1.705710
v 0.410405 -0.314529 1.204119
v -0.122313 -0.314529 1.493495
v 0.218053 -0.314529 0.629908
v -0.314667 -0.314529 0.919278
v 0.398830 -0.314529 1.207997
v -0.110738 -0.314529 1.489618
v 0.206478 -0.314529 0.633785
v -0.303092 -0.314529 0.915401
v -0.664835 1.114281 -0.444082
v -0.426936 0.340200 0.395297
v -0.402923 0.340200 -0.436522
v 0.291826 0.340200 -0.416466
v -0.476003 0.340200 0.393880
v -0.713902 1.114281 -0.445499
v -0.451990 0.340200 -0.437938
v 0.221814 -0.314529 0.310807
v 0.224849 0.324577 0.205671
v 0.221814 0.324577 0.310807
v -0.371948 -0.314529 0.188443
v -0.374983 0.324577 0.293578
v -0.371948 0.324577 0.188443
v 0.239289 -0.314529 -0.294520
v 0.242324 0.324577 -0.399649
v 0.239289 0.324577 -0.294520
v -0.354474 -0.314529 -0.416870
v -0.357509 0.324577 -0.311748
v -0.354474 0.324577 -0.416870
v 0.212647 0.324577 0.205319
v 0.209612 -0.314529 0.310454
v 0.209612 0.324577 0.310454
v -0.362781 0.324577 0.293930
v -0.359746 -0.314529 0.188795
v -0.359746 0.324577 0.188795
v 0.230122 0.324577 -0.400001
v 0.227087 -0.314529 -0.294873
v 0.227087 0.324577 -0.294873
v -0.345307 0.324577 -0.311396
v -0.342272 -0.314529 -0.416518
v -0.342272 0.324577 -0.416518
v -0.688848 1.114281 0.387736
v 0.267812 0.340200 0.415353
v -0.737915 1.114281 0.386320
v 0.224849 -0.314529 0.205672
v -0.374983 -0.314529 0.293578
v 0.242324 -0.314529 -0.399649
v -0.357509 -0.314529 -0.311748
v 0.212647 -0.314529 0.205319
v -0.362781 -0.314529 0.293930
v 0.230122 -0.314529 -0.400001
v -0.345307 -0.314529 -0.311396
v -0.411263 1.114281 -1.680136
v -0.366461 0.340200 -0.808846
v -0.157627 0.340200 -1.614381
v 0.515170 0.340200 -1.439960
v -0.413977 0.340200 -0.821164
v -0.458780 1.114281 -1.692454
v -0.205144 0.340200 -1.626699
v 0.284800 -0.314529 -0.746594
v 0.311194 0.324577 -0.848407
v 0.284800 0.324577 -0.746594
v -0.266746 -0.314529 -0.998237
v -0.293140 0.324577 -0.896424
v -0.266746 0.324577 -0.998237
v 0.436771 -0.314529 -1.332794
v 0.463164 0.324577 -1.434601
v 0.436771 0.324577 -1.332794
v -0.114778 -0.314529 -1.584424
v -0.141169 0.324577 -1.482624
v -0.114778 0.324577 -1.584424
v 0.299378 0.324577 -0.851471
v 0.272983 -0.314529 -0.749657
v 0.272983 0.324577 -0.749657
v -0.281324 0.324577 -0.893361
v -0.254929 -0.314529 -0.995173
v -0.254929 0.324577 -0.995173
v 0.451348 0.324577 -1.437664
v 0.424955 -0.314529 -1.335857
v 0.424955 0.324577 -1.335857
v -0.129353 0.324577 -1.479560
v -0.102961 -0.314529 -1.581360
v -0.102961 0.324577 -1.581360
v -0.620097 1.114281 -0.874600
v 0.306336 0.340200 -0.634424
v -0.667614 1.114281 -0.886919
v 0.311195 -0.314529 -0.848407
v -0.293140 -0.314529 -0.896424
v 0.463164 -0.314529 -1.434601
v -0.141169 -0.314529 -1.482624
v 0.299378 -0.314529 -0.851470
v -0.281324 -0.314529 -0.893361
v 0.451348 -0.314529 -1.437664
v -0.129353 -0.314529 -1.479560
vt 0.895020 0.502441
vt 0.869629 0.541504
vt 0.895020 0.541504
vt 0.784668 0.535645
vt 0.783691 0.505371
vt 0.784668 0.505371
vt 0.869629 0.541504
vt 0.895020 0.502441
vt 0.895020 0.541504
vt 0.783691 0.535645
vt 0.783691 0.520508
vt 0.783691 0.535645
vt 0.784668 0.520508
vt 0.784668 0.535645
vt 0.784668 0.520508
vt 0.783691 0.520508
vt 0.783691 0.505371
vt 0.783691 0.520508
vt 0.784668 0.505371
vt 0.784668 0.520508
vt 0.784668 0.505371
vt 0.783691 0.520508
vt 0.783691 0.535645
vt 0.783691 0.535645
vt 0.784668 0.535645
vt 0.784668 0.520508
vt 0.784668 0.520508
vt 0.783691 0.505371
vt 0.783691 0.520508
vt 0.783691 0.520508
vt 0.784668 0.520508
vt 0.784668 0.505371
vt 0.784668 0.505371
vt 0.869629 0.502441
vt 0.783691 0.535645
vt 0.869629 0.502441
vt 0.783691 0.520508
vt 0.784668 0.535645
vt 0.783691 0.505371
vt 0.784668 0.520508
vt 0.783691 0.520508
vt 0.784668 0.535645
vt 0.783691 0.505371
vt 0.784668 0.520508
vt 0.895020 0.502441
vt 0.869629 0.541504
vt 0.895020 0.541504
vt 0.784668 0.535645
vt 0.783691 0.505371
vt 0.784668 0.505371
vt 0.869629 0.541504
vt 0.895020 0.502441
vt 0.895020 0.541504
vt 0.783691 0.535645
vt 0.783691 0.520508
vt 0.783691 0.535645
vt 0.784668 0.520508
vt 0.784668 0.535645
vt 0.784668 0.520508
vt 0.783691 0.520508
vt 0.783691 0.505371
vt 0.783691 0.520508
vt 0.784668 0.505371
vt 0.784668 0.520508
vt 0.784668 0.505371
vt 0.783691 0.520508
vt 0.783691 0.535645
vt 0.783691 0.535645
vt 0.784668 0.535645
vt 0.784668 0.520508
vt 0.784668 0.520508
vt 0.783691 0.505371
vt 0.783691 0.520508
vt 0.783691 0.520508
vt 0.784668 0.520508
vt 0.784668 0.505371
vt 0.784668 0.505371
vt 0.869629 0.502441
vt 0.783691 0.535645
vt 0.869629 0.502441
vt 0.783691 0.520508
vt 0.784668 0.535645
vt 0.783691 0.505371
vt 0.784668 0.520508
vt 0.783691 0.520508
vt 0.784668 0.535645
vt 0.783691 0.505371
vt 0.784668 0.520508
vt 0.895020 0.502441
vt 0.869629 0.541504
vt 0.895020 0.541504
vt 0.784668 0.535645
vt 0.783691 0.505371
vt 0.784668 0.505371
vt 0.869629 0.541504
vt 0.895020 0.502441
vt 0.895020 0.541504
vt 0.783691 0.535645
vt 0.783691 0.520508
vt 0.783691 0.535645
vt 0.784668 0.520508
vt 0.784668 0.535645
vt 0.784668 0.520508
vt 0.783691 0.520508
vt 0.783691 0.505371
vt 0.783691 0.520508
vt 0.784668 0.505371
vt 0.784668 0.520508
vt 0.784668 0.505371
vt 0.783691 0.520508
vt 0.783691 0.535645
vt 0.783691 0.535645
vt 0.784668 0.535645
vt 0.784668 0.520508
vt 0.784668 0.520508
vt 0.783691 0.505371
vt 0.783691 0.520508
vt 0.783691 0.520508
vt 0.784668 0.520508
vt 0.784668 0.505371
vt 0.784668 0.505371
vt 0.869629 0.502441
vt 0.783691 0.535645
vt 0.869629 0.502441
vt 0.783691 0.520508
vt 0.784668 0.535645
vt 0.783691 0.505371
vt 0.784668 0.520508
vt 0.783691 0.520508
vt 0.784668 0.535645
vt 0.783691 0.505371
vt 0.784668 0.520508
vn 0.8982 0.3206 -0.3009
vn 0.0000 1.0000 0.0000
vn -0.8982 -0.3206 0.3009
vn 0.9482 0.0000 -0.3176
vn -0.9482 0.0000 0.3176
vn 0.9468 0.3206 0.0273
vn -0.9468 -0.3206 -0.0273
vn 0.9996 0.0000 0.0289
vn -0.9996 0.0000 -0.0289
vn 0.9169 0.3206 0.2377
vn -0.9169 -0.3206 -0.2377
vn 0.9680 0.0000 0.2509
vn -0.9680 0.0000 -0.2509
vn 0.9680 0.0000 0.2510
vn -0.9680 0.0000 -0.2510
s off
f 1/1/1 2/2/1 3/3/1
f 2/4/2 4/5/2 3/6/2
f 5/7/3 6/8/3 7/9/3
f 8/10/4 9/11/4 10/12/4
f 11/13/5 12/14/5 13/15/5
f 14/16/4 15/17/4 16/18/4
f 17/19/5 18/20/5 19/21/5
f 20/22/5 21/23/5 22/24/5
f 23/25/4 24/26/4 25/27/4
f 26/28/5 27/29/5 28/30/5
f 29/31/4 30/32/4 31/33/4
f 1/1/1 32/34/1 2/2/1
f 2/4/2 33/35/2 4/5/2
f 5/7/3 34/36/3 6/8/3
f 8/10/4 35/37/4 9/11/4
f 11/13/5 36/38/5 12/14/5
f 14/16/4 37/39/4 15/17/4
f 17/19/5 38/40/5 18/20/5
f 20/22/5 39/41/5 21/23/5
f 23/25/4 40/42/4 24/26/4
f 26/28/5 41/43/5 27/29/5
f 29/31/4 42/44/4 30/32/4
f 43/45/6 44/46/6 45/47/6
f 44/48/2 46/49/2 45/50/2
f 47/51/7 48/52/7 49/53/7
f 50/54/8 51/55/8 52/56/8
f 53/57/9 54/58/9 55/59/9
f 56/60/8 57/61/8 58/62/8
f 59/63/9 60/64/9 61/65/9
f 62/66/9 63/67/9 64/68/9
f 65/69/8 66/70/8 67/71/8
f 68/72/9 69/73/9 70/74/9
f 71/75/8 72/76/8 73/77/8
f 43/45/6 74/78/6 44/46/6
f 44/48/2 75/79/2 46/49/2
f 47/51/7 76/80/7 48/52/7
f 50/54/8 77/81/8 51/55/8
f 53/57/9 78/82/9 54/58/9
f 56/60/8 79/83/8 57/61/8
f 59/63/9 80/84/9 60/64/9
f 62/66/9 81/85/9 63/67/9
f 65/69/8 82/86/8 66/70/8
f 68/72/9 83/87/9 69/73/9
f 71/75/8 84/88/8 72/76/8
f 85/89/10 86/90/10 87/91/10
f 86/92/2 88/93/2 87/94/2
f 89/95/11 90/96/11 91/97/11
f 92/98/12 93/99/12 94/100/12
f 95/101/13 96/102/13 97/103/13
f 98/104/14 99/105/14 100/106/14
f 101/107/15 102/108/15 103/109/15
f 104/110/15 105/111/15 106/112/15
f 107/113/14 108/114/14 109/115/14
f 110/116/15 111/117/15 112/118/15
f 113/119/14 114/120/14 115/121/14
f 85/89/10 116/122/10 86/90/10
f 86/92/2 117/123/2 88/93/2
f 89/95/11 118/124/11 90/96/11
f 92/98/14 119/125/14 93/99/14
f 95/101/13 120/126/13 96/102/13
f 98/104/14 121/127/14 99/105/14
f 101/107/15 122/128/15 102/108/15
f 104/110/15 123/129/15 105/111/15
f 107/113/14 124/130/14 108/114/14
f 110/116/15 125/131/15 111/117/15
f 113/119/14 126/132/14 114/120/14
