# Blender v2.91.0 Beta OBJ File: 'HOUSE.blend'
# www.blender.org
o Cube.001
v -28.905342 -2.160352 9.635114
v -27.417517 -0.160352 9.139173
v -28.905342 -2.160352 -9.635114
v -27.417517 -0.160352 -9.139173
v 28.905342 -2.160352 9.635114
v 27.417517 -0.160352 9.139173
v 28.905342 -2.160352 -9.635114
v 27.417517 -0.160352 -9.139173
vt 0.764160 0.148926
vt 0.757324 0.225098
vt 0.757324 0.145996
vt 0.764160 0.224121
vt 0.993652 0.225098
vt 0.988770 0.224121
vt 0.993652 0.145996
vt 0.988770 0.148926
vn -0.8023 0.5969 0.0000
vn 0.0000 0.2407 -0.9706
vn 0.8023 0.5969 0.0000
vn 0.0000 0.2407 0.9706
vn 0.0000 1.0000 0.0000
s off
f 2/1/1 3/2/1 1/3/1
f 4/4/2 7/5/2 3/2/2
f 8/6/3 5/7/3 7/5/3
f 6/8/4 1/3/4 5/7/4
f 4/4/5 6/8/5 8/6/5
f 2/1/1 4/4/1 3/2/1
f 4/4/2 8/6/2 7/5/2
f 8/6/3 6/8/3 5/7/3
f 6/8/4 2/1/4 1/3/4
f 4/4/5 2/1/5 6/8/5
