# Blender v2.83.4 OBJ File: 'decos.blend'
# www.blender.org
o Cube_Cube.013
v 0.000000 0.982960 0.000000
v -2.304745 0.982960 0.000000
v -1.629700 0.982960 1.629701
v 0.000000 0.982960 2.304745
v 2.304745 0.982960 0.000000
v 1.629701 0.982960 1.629701
v 1.629700 0.982961 -1.629701
v -0.000000 0.982961 -2.304744
v -1.629701 0.982961 -1.629700
v 2.846119 0.982960 0.000000
v 2.012510 0.982961 -2.012510
v -0.000000 0.982961 -2.846119
v -2.012510 0.982961 -2.012510
v 2.012510 0.982960 2.012511
v -2.846119 0.982960 0.000000
v -2.012510 0.982960 2.012511
v 0.000000 0.982960 2.846120
v 1.970320 0.933162 1.970320
v 1.970320 3.400728 1.970320
v 2.786453 3.952827 0.000001
v 2.786453 0.933162 0.000000
v -1.970320 0.933162 -1.970320
v -1.970320 3.400728 -1.970319
v -2.786453 3.952827 0.000001
v -2.786453 0.933162 0.000000
v 1.970320 3.400728 -1.970320
v 1.970320 0.933162 -1.970320
v 0.000000 0.933161 2.786453
v 0.000000 3.952826 2.786454
v -1.970320 0.933162 1.970320
v -1.970320 3.400728 1.970321
v -0.000000 3.952827 -2.786453
v -0.000000 0.933162 -2.786453
v 0.000000 0.797356 2.922950
v 0.000000 4.021573 2.922950
v -0.136496 4.021573 2.786454
v -0.136496 0.797356 2.786453
v 0.000000 4.021573 2.649958
v 0.000000 0.797356 2.649958
v 0.136496 4.021573 2.786454
v 0.136496 0.797356 2.786453
v -2.066837 0.797356 2.066837
v -2.066837 4.021573 2.066838
v -2.066837 4.021573 1.873803
v -2.066837 0.797356 1.873803
v -1.873803 4.021573 1.873803
v -1.873803 0.797356 1.873803
v -1.873803 4.021573 2.066838
v -1.873803 0.797356 2.066837
v -2.922949 0.797357 0.000000
v -2.922949 4.021574 0.000001
v -2.786453 4.021574 -0.136495
v -2.786453 0.797357 -0.136496
v -2.649957 4.021574 0.000001
v -2.649957 0.797357 0.000000
v -2.786453 4.021574 0.136497
v -2.786453 0.797357 0.136496
v -2.066837 0.797357 -2.066837
v -2.066837 4.021574 -2.066836
v -1.873803 4.021574 -2.066836
v -1.873803 0.797357 -2.066837
v -1.873803 4.021574 -1.873802
v -1.873803 0.797357 -1.873802
v -2.066837 4.021574 -1.873802
v -2.066837 0.797357 -1.873802
v 0.000000 0.797357 -2.922949
v 0.000000 4.021574 -2.922948
v 0.136496 4.021574 -2.786452
v 0.136496 0.797357 -2.786453
v -0.000000 4.021574 -2.649956
v -0.000000 0.797357 -2.649957
v -0.136496 4.021574 -2.786452
v -0.136496 0.797357 -2.786453
v 2.066837 0.797357 -2.066837
v 2.066837 4.021574 -2.066836
v 2.066837 4.021574 -1.873802
v 2.066837 0.797357 -1.873802
v 1.873803 4.021574 -1.873802
v 1.873803 0.797357 -1.873803
v 1.873802 4.021574 -2.066836
v 1.873802 0.797357 -2.066837
v 2.922949 0.797357 0.000000
v 2.922949 4.021574 0.000001
v 2.786453 4.021574 0.136496
v 2.786453 0.797357 0.136496
v 2.649957 4.021574 0.000001
v 2.649957 0.797357 -0.000000
v 2.786453 4.021574 -0.136495
v 2.786453 0.797357 -0.136496
v 2.066837 0.797356 2.066837
v 2.066837 4.021573 2.066838
v 1.873802 4.021573 2.066837
v 1.873802 0.797356 2.066837
v 1.873803 4.021573 1.873803
v 1.873803 0.797356 1.873803
v 2.066837 4.021573 1.873803
v 2.066837 0.797356 1.873802
v -2.049131 0.835442 2.049131
v -2.049131 0.835442 1.891509
v -2.011937 -0.729830 1.891509
v -2.011937 -0.729830 2.049131
v -1.891509 0.835442 2.049131
v -1.898423 -0.620472 2.049131
v -1.891509 0.835442 1.891509
v -1.898423 -0.620472 1.891509
v 1.891509 0.835442 2.049131
v 1.898423 -0.620472 2.049131
v 2.011937 -0.729830 2.049131
v 2.049131 0.835442 2.049131
v 1.891509 0.835442 1.891509
v 1.898423 -0.620472 1.891509
v 2.049131 0.835442 1.891509
v 2.011937 -0.729830 1.891509
v 0.000000 -0.620472 2.824970
v 0.000000 -0.729831 2.825681
v 0.000000 -0.620472 2.982593
v 0.000000 -0.729831 2.983303
v -2.049131 0.835443 -2.049131
v -2.011937 -0.729830 -2.049131
v -2.011937 -0.729830 -1.891509
v -2.049131 0.835443 -1.891509
v -1.891509 0.835443 -2.049131
v -1.898423 -0.620471 -2.049131
v -1.898423 -0.620471 -1.891509
v -1.891509 0.835443 -1.891509
v 1.891509 0.835443 -2.049131
v 2.049131 0.835443 -2.049131
v 2.011937 -0.729830 -2.049131
v 1.898423 -0.620471 -2.049131
v 1.891509 0.835443 -1.891509
v 1.898423 -0.620471 -1.891509
v 2.049131 0.835443 -1.891509
v 2.011937 -0.729830 -1.891509
v 0.000000 -0.729830 -2.825681
v 0.000000 -0.620471 -2.824970
v 0.000000 -0.620471 -2.982593
v 0.000000 -0.729830 -2.983303
vt 0.195312 0.835938
vt 0.195312 0.835938
vt 0.195312 0.835938
vt 0.195312 0.835938
vt 0.195312 0.835938
vt 0.195312 0.835938
vt 0.195312 0.835938
vt 0.195312 0.835938
vt 0.195312 0.835938
vt 0.367188 0.929688
vt 0.367188 0.929688
vt 0.367188 0.929688
vt 0.367188 0.929688
vt 0.304688 0.929688
vt 0.304688 0.929688
vt 0.304688 0.929688
vt 0.304688 0.929688
vt 0.289062 0.929688
vt 0.289062 0.929688
vt 0.289062 0.929688
vt 0.289062 0.929688
vt 0.289062 0.929688
vt 0.289062 0.929688
vt 0.289062 0.929688
vt 0.289062 0.929688
vt 0.320312 0.929688
vt 0.320312 0.929688
vt 0.320312 0.929688
vt 0.320312 0.929688
vt 0.304688 0.929688
vt 0.304688 0.929688
vt 0.304688 0.929688
vt 0.304688 0.929688
vt 0.367188 0.929688
vt 0.367188 0.929688
vt 0.367188 0.929688
vt 0.367188 0.929688
vt 0.320312 0.929688
vt 0.320312 0.929688
vt 0.320312 0.929688
vt 0.320312 0.929688
vt 0.320312 0.929688
vt 0.320312 0.929688
vt 0.320312 0.929688
vt 0.320312 0.929688
vt 0.320312 0.929688
vt 0.320312 0.929688
vt 0.320312 0.929688
vt 0.320312 0.929688
vt 0.289062 0.929688
vt 0.289062 0.929688
vt 0.289062 0.929688
vt 0.289062 0.929688
vt 0.304688 0.929688
vt 0.304688 0.929688
vt 0.304688 0.929688
vt 0.304688 0.929688
vt 0.367188 0.929688
vt 0.367188 0.929688
vt 0.367188 0.929688
vt 0.367188 0.929688
vt 0.367188 0.929688
vt 0.367188 0.929688
vt 0.367188 0.929688
vt 0.367188 0.929688
vt 0.289062 0.929688
vt 0.289062 0.929688
vt 0.289062 0.929688
vt 0.289062 0.929688
vt 0.304688 0.929688
vt 0.304688 0.929688
vt 0.304688 0.929688
vt 0.304688 0.929688
vt 0.289062 0.929688
vt 0.289062 0.929688
vt 0.289062 0.929688
vt 0.289062 0.929688
vt 0.289062 0.929688
vt 0.289062 0.929688
vt 0.289062 0.929688
vt 0.289062 0.929688
vt 0.367188 0.929688
vt 0.367188 0.929688
vt 0.367188 0.929688
vt 0.367188 0.929688
vt 0.367188 0.929688
vt 0.367188 0.929688
vt 0.367188 0.929688
vt 0.367188 0.929688
vt 0.320312 0.929688
vt 0.320312 0.929688
vt 0.320312 0.929688
vt 0.320312 0.929688
vt 0.320312 0.929688
vt 0.320312 0.929688
vt 0.320312 0.929688
vt 0.320312 0.929688
vt 0.304688 0.929688
vt 0.304688 0.929688
vt 0.304688 0.929688
vt 0.304688 0.929688
vt 0.304688 0.929688
vt 0.304688 0.929688
vt 0.304688 0.929688
vt 0.304688 0.929688
vt 0.289062 0.929688
vt 0.289062 0.929688
vt 0.289062 0.929688
vt 0.289062 0.929688
vt 0.289062 0.929688
vt 0.289062 0.929688
vt 0.289062 0.929688
vt 0.289062 0.929688
vt 0.367188 0.929688
vt 0.367188 0.929688
vt 0.367188 0.929688
vt 0.367188 0.929688
vt 0.367188 0.929688
vt 0.367188 0.929688
vt 0.367188 0.929688
vt 0.367188 0.929688
vt 0.320312 0.929688
vt 0.320312 0.929688
vt 0.320312 0.929688
vt 0.320312 0.929688
vt 0.320312 0.929688
vt 0.320312 0.929688
vt 0.320312 0.929688
vt 0.320312 0.929688
vt 0.304688 0.929688
vt 0.304688 0.929688
vt 0.304688 0.929688
vt 0.304688 0.929688
vt 0.304688 0.929688
vt 0.304688 0.929688
vt 0.304688 0.929688
vt 0.304688 0.929688
vt 0.210938 0.835938
vt 0.210938 0.835938
vt 0.210938 0.835938
vt 0.210938 0.835938
vt 0.210938 0.835938
vt 0.210938 0.835937
vt 0.210938 0.835938
vt 0.210938 0.835938
vt 0.210938 0.835938
vt 0.210938 0.835937
vt 0.210938 0.835938
vt 0.210938 0.835938
vt 0.210938 0.835938
vt 0.210938 0.835938
vt 0.210938 0.835938
vt 0.210938 0.835938
vt 0.210938 0.835938
vt 0.210938 0.835937
vt 0.210938 0.835938
vt 0.210938 0.835938
vt 0.210938 0.835938
vt 0.210938 0.835938
vt 0.210938 0.835938
vt 0.210938 0.835938
vt 0.210938 0.835938
vt 0.210938 0.835937
vt 0.210938 0.835937
vt 0.210938 0.835938
vt 0.210938 0.835938
vt 0.210938 0.835938
vt 0.210938 0.835938
vt 0.210938 0.835937
vt 0.210938 0.835938
vt 0.210938 0.835938
vt 0.210938 0.835938
vt 0.210938 0.835938
vt 0.210938 0.835938
vt 0.210938 0.835938
vt 0.210938 0.835938
vt 0.210938 0.835938
vn 0.0000 1.0000 0.0000
vn -0.9239 0.0000 -0.3827
vn 0.9239 -0.0000 0.3827
vn -0.9239 -0.0000 0.3827
vn -0.3827 0.0000 -0.9239
vn 0.3827 0.0000 -0.9239
vn -0.3827 -0.0000 0.9239
vn 0.9239 0.0000 -0.3827
vn 0.3827 -0.0000 0.9239
vn -0.7071 -0.0000 0.7071
vn -0.7071 0.0000 -0.7071
vn 0.7071 0.0000 -0.7071
vn 0.7071 -0.0000 0.7071
vn -1.0000 -0.0000 0.0000
vn 0.0000 0.0000 -1.0000
vn 1.0000 0.0000 -0.0000
vn 0.0000 -0.0000 1.0000
vn -0.9997 -0.0238 -0.0000
vn 1.0000 -0.0047 -0.0000
vn -1.0000 -0.0047 -0.0000
vn 0.9997 -0.0238 -0.0000
vn 0.4203 -0.2210 -0.8800
vn -0.4203 0.2210 0.8800
vn 0.0000 -1.0000 -0.0000
vn -0.4203 -0.2210 -0.8800
vn 0.4203 0.2210 0.8800
vn 0.4203 -0.2210 0.8800
vn -0.4203 0.2210 -0.8800
vn -0.4203 -0.2210 0.8800
vn 0.4203 0.2210 -0.8800
s 1
f 1/1/1 2/2/1 3/3/1 4/4/1
f 5/5/1 1/1/1 4/4/1 6/6/1
f 7/7/1 8/8/1 1/1/1 5/5/1
f 8/8/1 9/9/1 2/2/1 1/1/1
f 7/10/1 5/11/1 10/12/1 11/13/1
f 9/14/1 8/15/1 12/16/1 13/17/1
f 5/18/1 6/19/1 14/20/1 10/21/1
f 2/22/1 9/23/1 13/24/1 15/25/1
f 3/26/1 2/27/1 15/28/1 16/29/1
f 6/30/1 4/31/1 17/32/1 14/33/1
f 4/34/1 3/35/1 16/36/1 17/37/1
f 8/38/1 7/39/1 11/40/1 12/41/1
f 18/42/2 19/43/2 20/44/2 21/45/2
f 22/46/3 23/47/3 24/48/3 25/49/3
f 21/50/4 20/51/4 26/52/4 27/53/4
f 28/54/5 29/55/5 19/56/5 18/57/5
f 30/58/6 31/59/6 29/60/6 28/61/6
f 27/62/7 26/63/7 32/64/7 33/65/7
f 25/66/8 24/67/8 31/68/8 30/69/8
f 33/70/9 32/71/9 23/72/9 22/73/9
f 34/74/10 35/75/10 36/76/10 37/77/10
f 37/77/11 36/76/11 38/78/11 39/79/11
f 39/79/12 38/78/12 40/80/12 41/81/12
f 41/81/13 40/80/13 35/75/13 34/74/13
f 38/78/1 36/76/1 35/75/1 40/80/1
f 42/82/14 43/83/14 44/84/14 45/85/14
f 45/85/15 44/84/15 46/86/15 47/87/15
f 47/87/16 46/86/16 48/88/16 49/89/16
f 49/89/17 48/88/17 43/83/17 42/82/17
f 46/86/1 44/84/1 43/83/1 48/88/1
f 50/90/11 51/91/11 52/92/11 53/93/11
f 53/93/12 52/92/12 54/94/12 55/95/12
f 55/95/13 54/94/13 56/96/13 57/97/13
f 57/97/10 56/96/10 51/91/10 50/90/10
f 54/94/1 52/92/1 51/91/1 56/96/1
f 58/98/15 59/99/15 60/100/15 61/101/15
f 61/101/16 60/100/16 62/102/16 63/103/16
f 63/103/17 62/102/17 64/104/17 65/105/17
f 65/105/14 64/104/14 59/99/14 58/98/14
f 62/102/1 60/100/1 59/99/1 64/104/1
f 66/106/12 67/107/12 68/108/12 69/109/12
f 69/109/13 68/108/13 70/110/13 71/111/13
f 71/111/10 70/110/10 72/112/10 73/113/10
f 73/113/11 72/112/11 67/107/11 66/106/11
f 70/110/1 68/108/1 67/107/1 72/112/1
f 74/114/16 75/115/16 76/116/16 77/117/16
f 77/117/17 76/116/17 78/118/17 79/119/17
f 79/119/14 78/118/14 80/120/14 81/121/14
f 81/121/15 80/120/15 75/115/15 74/114/15
f 78/118/1 76/116/1 75/115/1 80/120/1
f 82/122/13 83/123/13 84/124/13 85/125/13
f 85/125/10 84/124/10 86/126/10 87/127/10
f 87/127/11 86/126/11 88/128/11 89/129/11
f 89/129/12 88/128/12 83/123/12 82/122/12
f 86/126/1 84/124/1 83/123/1 88/128/1
f 90/130/17 91/131/17 92/132/17 93/133/17
f 93/133/14 92/132/14 94/134/14 95/135/14
f 95/135/15 94/134/15 96/136/15 97/137/15
f 97/137/16 96/136/16 91/131/16 90/130/16
f 94/134/1 92/132/1 91/131/1 96/136/1
f 98/138/18 99/139/18 100/140/18 101/141/18
f 102/142/17 98/138/17 101/141/17 103/143/17
f 99/139/15 104/144/15 105/145/15 100/140/15
f 104/144/19 102/142/19 103/143/19 105/145/19
f 106/146/17 107/147/17 108/148/17 109/149/17
f 110/150/20 111/151/20 107/147/20 106/146/20
f 112/152/15 113/153/15 111/151/15 110/150/15
f 109/149/21 108/148/21 113/153/21 112/152/21
f 100/140/22 105/145/22 114/154/22 115/155/22
f 105/145/1 103/143/1 116/156/1 114/154/1
f 103/143/23 101/141/23 117/157/23 116/156/23
f 101/141/24 100/140/24 115/155/24 117/157/24
f 113/153/25 115/155/25 114/154/25 111/151/25
f 111/151/1 114/154/1 116/156/1 107/147/1
f 107/147/26 116/156/26 117/157/26 108/148/26
f 108/148/24 117/157/24 115/155/24 113/153/24
f 118/158/18 119/159/18 120/160/18 121/161/18
f 122/162/15 123/163/15 119/159/15 118/158/15
f 121/161/17 120/160/17 124/164/17 125/165/17
f 125/165/19 124/164/19 123/163/19 122/162/19
f 126/166/15 127/167/15 128/168/15 129/169/15
f 130/170/20 126/166/20 129/169/20 131/171/20
f 132/172/17 130/170/17 131/171/17 133/173/17
f 127/167/21 132/172/21 133/173/21 128/168/21
f 120/160/27 134/174/27 135/175/27 124/164/27
f 124/164/1 135/175/1 136/176/1 123/163/1
f 123/163/28 136/176/28 137/177/28 119/159/28
f 119/159/24 137/177/24 134/174/24 120/160/24
f 133/173/29 131/171/29 135/175/29 134/174/29
f 131/171/1 129/169/1 136/176/1 135/175/1
f 129/169/30 128/168/30 137/177/30 136/176/30
f 128/168/24 133/173/24 134/174/24 137/177/24
