# Blender v2.90.0 Alpha OBJ File: 'Decos.blend'
# www.blender.org
o PileOfMaterials_Cone.007
v 1.024816 5.075790 -0.386876
v 1.590247 5.404527 0.051653
v 2.065537 5.424148 -0.575885
v 1.500104 5.095410 -1.014413
v 4.344649 -0.549513 0.963545
v 3.779217 -0.878250 0.525016
v 3.869359 -0.569132 1.591082
v 3.303928 -0.897867 1.152553
v -0.847951 1.081103 0.346203
v 4.552532 -0.687713 -1.885720
v 1.885721 -0.687712 -4.552533
v 4.552532 -0.687713 1.885721
v 1.885721 -0.687714 4.552533
v -1.885720 -0.687714 4.552533
v -4.552533 -0.687713 1.885722
v -4.552533 -0.687713 -1.885722
v -1.885719 -0.687712 -4.552533
v 1.699516 2.579056 -2.435599
v 4.173683 -0.923621 -0.658836
v 3.086775 -0.923620 -3.282863
v 3.086775 -0.923622 1.965192
v 0.462748 -0.923623 3.052099
v -2.161280 -0.923622 1.965193
v -3.248188 -0.923621 -0.658836
v -2.161280 -0.923620 -3.282863
v 0.462748 -0.923619 -4.369771
v 2.881738 -0.595288 1.363654
v 2.856047 -0.965433 2.866682
v 2.292473 -0.844214 2.646279
v 2.310363 -0.585740 1.596836
v 2.276178 -0.096162 1.806789
v 2.261864 -0.336080 2.697221
v 2.595965 0.197103 2.909181
v 2.612959 0.456149 1.857081
v 3.133497 0.277070 1.582790
v 3.107809 -0.093075 3.085818
v 3.305294 -0.652588 3.095722
v 3.335634 -0.215444 1.320637
v 1.783848 -0.936436 3.983063
v 1.543877 -0.823949 3.425683
v 1.623234 -0.290006 3.364698
v 1.844633 0.217456 3.689478
v 2.035607 -0.064076 4.202199
v 2.039021 -0.618341 4.414175
v 0.293221 -0.525279 4.058836
v 0.503294 -0.537423 3.479356
v 0.733565 0.015009 3.418068
v 0.803148 0.504572 3.740490
v 0.544980 0.347079 4.277972
v 0.278582 -0.132764 4.503664
v -0.742644 0.027183 3.049617
v -0.222107 -0.151896 2.775326
v 0.114675 0.400415 2.825618
v 0.080491 0.889992 3.035571
v -0.490885 0.899541 3.268754
v -0.944782 0.519697 3.311770
v -0.716954 0.397327 1.546590
v -0.205112 0.107150 1.723227
v 0.128989 0.640332 1.935186
v 0.098379 1.148466 1.986129
v -0.465194 1.269686 1.765726
v -0.914441 0.956840 1.536687
v 0.355245 0.368329 0.430209
v 0.546220 0.086797 0.942929
v 0.767618 0.594259 1.267709
v 0.846976 1.128201 1.206724
v 0.607004 1.240687 0.649344
v 0.351832 0.922593 0.218234
v 1.845871 -0.042825 0.354434
v 1.587703 -0.200320 0.891916
v 1.657287 0.289244 1.214338
v 1.887558 0.841675 1.153051
v 2.097630 0.829533 0.573569
v 2.112269 0.437018 0.128743
v 0.329429 3.902976 0.684944
v 0.329429 3.902976 0.605465
v -1.009938 3.902976 -0.733901
v -1.089416 3.902976 -0.733901
v 0.329429 3.902976 -2.152747
v 1.748275 3.902976 -0.733901
v 1.748275 0.204769 -0.733902
v 0.329429 0.204770 -2.152748
v 0.329429 3.902976 -2.073268
v -1.089416 0.204769 -0.733902
v 0.329429 0.204769 -0.733902
v 0.329429 0.204769 0.684944
v 1.668796 3.902976 -0.733901
v 0.329429 1.128931 -2.073269
v 1.668796 1.128931 -0.733902
v 0.329429 1.128930 0.605465
v 0.329429 1.128931 -0.733902
v -1.009938 1.128931 -0.733902
v -3.547711 -0.446868 0.717372
v -3.817189 1.125687 0.952699
v -2.230593 1.527135 0.337663
v -1.911743 -0.035919 0.083465
v -1.237931 1.355779 2.788422
v -0.908087 -0.209145 2.561369
v -2.824835 0.954385 3.402657
v -2.544054 -0.620094 3.195276
v -4.351299 1.414436 1.172980
v -3.347644 1.241211 3.650886
v -2.432722 1.727332 -0.117977
v -4.068689 1.316383 0.515928
v -2.694229 1.080892 3.910427
v -1.058262 1.491842 3.276519
v -0.826727 1.732216 2.664133
v -1.830383 1.905442 0.186228
v -3.544912 -0.446615 0.719322
v -1.912408 -0.036535 0.086758
v -0.910877 -0.209395 2.559416
v -2.543380 -0.619474 3.191980
v -3.512167 0.775891 -1.999469
v -3.059669 2.100261 -1.337618
v -2.761199 1.989414 -1.866310
v -3.077092 1.064703 -2.328457
v -2.624821 0.897759 -2.099293
v -2.371435 1.695824 -1.712614
v -2.095252 1.418488 -1.176292
v -2.411474 0.491703 -1.640383
v -2.953385 0.297370 -1.423976
v -2.500888 1.621739 -0.762123
v -2.991702 1.955263 -0.766207
v -3.526105 0.391175 -1.547858
v -1.922941 3.119569 -1.593784
v -1.967553 2.701041 -2.045178
v -1.673418 2.285665 -1.855289
v -1.299598 2.131311 -1.356840
v -1.364159 2.641047 -1.018290
v -1.649219 3.159071 -1.068741
v -0.767864 3.236716 -2.617910
v -1.161195 2.783703 -2.759841
v -0.939306 2.321875 -2.444495
v -0.493553 2.211884 -2.073448
v -0.209082 2.758195 -2.042416
v -0.285067 3.297424 -2.278239
v -0.271066 2.383082 -3.810075
v -0.812977 2.188749 -3.593669
v -0.599630 1.782693 -3.134758
v -0.147360 1.615749 -2.905593
v 0.287716 1.904561 -3.234581
v 0.301654 2.289278 -3.686193
v -0.723564 1.058713 -4.471927
v -1.129200 1.261963 -4.057759
v -0.853017 0.984628 -3.521437
v -0.463254 0.691039 -3.367741
v -0.164784 0.580192 -3.896432
v -0.232750 0.725189 -4.467844
v -1.860294 0.039405 -4.215760
v -1.924853 0.549141 -3.877212
v -1.551034 0.394787 -3.378762
v -1.256899 -0.020589 -3.188874
v -1.301512 -0.439117 -3.640267
v -1.575232 -0.478619 -4.165310
v -3.015369 -0.077744 -3.191636
v -2.730898 0.468567 -3.160605
v -2.285146 0.358576 -2.789557
v -2.063256 -0.103251 -2.474211
v -2.456587 -0.556265 -2.616143
v -2.939384 -0.616972 -2.955814
v -2.513227 1.959795 -0.650392
v -2.625414 2.067907 -0.582922
v -2.593075 2.334256 -0.680096
v -2.370084 2.175231 -0.814203
v -4.489733 -0.724911 -0.543701
v -4.253856 -0.501090 -1.479922
v -3.616571 -0.943764 -0.958355
v -3.040750 1.218223 -1.507943
v -2.745426 1.637258 -0.611593
v -2.664445 1.581006 -0.545316
v -2.399646 0.772896 -0.983249
v -2.903319 -0.310682 -1.074995
v -2.961723 -0.254163 0.099848
v -3.662938 -0.898897 -0.025637
v -2.670336 1.586708 -0.426792
v -2.446292 0.818034 -0.044943
v -3.822847 0.359945 0.617729
v -4.346592 -0.411350 0.385512
v -2.633023 2.077858 -0.429863
v -2.528445 1.979695 -0.344273
v -2.400332 2.204501 -0.205743
v -2.608199 2.348891 -0.375866
v -2.757210 1.648662 -0.374547
v -3.134042 1.308502 0.368672
v -2.838192 1.704913 -0.440824
v -3.775145 1.753831 -0.156021
v -2.416257 1.871582 -0.411743
v -2.177341 2.045475 -0.339850
v -4.625564 0.917534 -0.039233
v -4.983875 0.031325 -0.136055
v -4.567159 0.861017 -1.214076
v -4.937506 -0.013544 -1.068773
v -2.408648 1.861633 -0.564803
v -2.162217 2.030841 -0.644080
v -3.728498 1.708690 -1.094329
v -3.706037 0.246911 -1.731957
v -2.832300 1.699212 -0.559347
vt 0.039062 0.820312
vt 0.039062 0.820312
vt 0.039062 0.820312
vt 0.039062 0.820312
vt 0.039062 0.820312
vt 0.039062 0.820312
vt 0.039062 0.820312
vt 0.039062 0.820312
vt 0.023438 0.757812
vt 0.023438 0.757812
vt 0.023438 0.757812
vt 0.023438 0.757812
vt 0.023438 0.757812
vt 0.023438 0.757812
vt 0.023438 0.757812
vt 0.023438 0.757812
vt 0.023438 0.757812
vt 0.023438 0.757812
vt 0.023438 0.757812
vt 0.023438 0.757812
vt 0.023438 0.757812
vt 0.023438 0.757812
vt 0.023438 0.757812
vt 0.023438 0.757812
vt 0.023438 0.757812
vt 0.023438 0.757812
vt 0.070312 0.773438
vt 0.070312 0.773438
vt 0.070312 0.773438
vt 0.070312 0.773438
vt 0.070312 0.773438
vt 0.070312 0.773438
vt 0.070312 0.773438
vt 0.070312 0.773438
vt 0.070312 0.773438
vt 0.070312 0.773438
vt 0.070312 0.773438
vt 0.070312 0.773438
vt 0.070312 0.773438
vt 0.070312 0.773438
vt 0.070312 0.773438
vt 0.070312 0.773438
vt 0.070312 0.773438
vt 0.070312 0.773438
vt 0.070312 0.773438
vt 0.070312 0.773438
vt 0.070312 0.773438
vt 0.070312 0.773438
vt 0.070312 0.773438
vt 0.070312 0.773438
vt 0.070312 0.773438
vt 0.070312 0.773438
vt 0.070312 0.773438
vt 0.070312 0.773438
vt 0.070312 0.773438
vt 0.070312 0.773438
vt 0.070312 0.773438
vt 0.070312 0.773438
vt 0.070312 0.773438
vt 0.070312 0.773438
vt 0.070312 0.773438
vt 0.070312 0.773438
vt 0.070312 0.773438
vt 0.070312 0.773438
vt 0.070312 0.773438
vt 0.070312 0.773438
vt 0.070312 0.773438
vt 0.070312 0.773438
vt 0.070312 0.773438
vt 0.070312 0.773438
vt 0.070312 0.773438
vt 0.070312 0.773438
vt 0.070312 0.773438
vt 0.070312 0.773438
vt 0.023438 0.851562
vt 0.023438 0.851562
vt 0.023438 0.851562
vt 0.023438 0.851562
vt 0.023438 0.851562
vt 0.023438 0.851562
vt 0.023438 0.851562
vt 0.023438 0.851562
vt 0.023438 0.851562
vt 0.023438 0.851562
vt 0.023438 0.851562
vt 0.023438 0.851562
vt 0.023438 0.851562
vt 0.023438 0.851562
vt 0.023438 0.851562
vt 0.023438 0.851562
vt 0.023438 0.851562
vt 0.023438 0.851562
vt 0.039062 0.820312
vt 0.039062 0.820312
vt 0.039062 0.820312
vt 0.039062 0.820312
vt 0.039062 0.820312
vt 0.039062 0.820312
vt 0.039062 0.820312
vt 0.039062 0.820312
vt 0.039062 0.820312
vt 0.039062 0.820312
vt 0.039062 0.820312
vt 0.039062 0.820312
vt 0.039062 0.820312
vt 0.039062 0.820312
vt 0.039062 0.820312
vt 0.039062 0.820312
vt 0.039062 0.820312
vt 0.039062 0.820312
vt 0.039062 0.820312
vt 0.039062 0.820312
vt 0.070312 0.773438
vt 0.070312 0.773438
vt 0.070312 0.773438
vt 0.070312 0.773438
vt 0.070312 0.773438
vt 0.070312 0.773438
vt 0.070312 0.773438
vt 0.070312 0.773438
vt 0.070312 0.773438
vt 0.070312 0.773438
vt 0.070312 0.773438
vt 0.070312 0.773438
vt 0.070312 0.773438
vt 0.070312 0.773438
vt 0.070312 0.773438
vt 0.070312 0.773438
vt 0.070312 0.773438
vt 0.070312 0.773438
vt 0.070312 0.773438
vt 0.070312 0.773438
vt 0.070312 0.773438
vt 0.070312 0.773438
vt 0.070312 0.773438
vt 0.070312 0.773438
vt 0.070312 0.773438
vt 0.070312 0.773438
vt 0.070312 0.773438
vt 0.070312 0.773438
vt 0.070312 0.773438
vt 0.070312 0.773438
vt 0.070312 0.773438
vt 0.070312 0.773438
vt 0.070312 0.773438
vt 0.070312 0.773438
vt 0.070312 0.773438
vt 0.070312 0.773438
vt 0.070312 0.773438
vt 0.070312 0.773438
vt 0.070312 0.773438
vt 0.070312 0.773438
vt 0.070312 0.773438
vt 0.070312 0.773438
vt 0.070312 0.773438
vt 0.070312 0.773438
vt 0.070312 0.773438
vt 0.070312 0.773438
vt 0.070312 0.773438
vt 0.070312 0.773438
vt 0.023438 0.726562
vt 0.023438 0.726562
vt 0.023438 0.726562
vt 0.023438 0.726562
vt 0.023438 0.726562
vt 0.023438 0.726562
vt 0.023438 0.726562
vt 0.023438 0.726562
vt 0.023438 0.726562
vt 0.023438 0.726562
vt 0.023438 0.726562
vt 0.023438 0.726562
vt 0.023438 0.726562
vt 0.023438 0.726562
vt 0.023438 0.726562
vt 0.023438 0.726562
vt 0.023438 0.726562
vt 0.023438 0.726562
vt 0.023438 0.726562
vt 0.023438 0.726562
vt 0.023438 0.726562
vt 0.023438 0.726562
vt 0.023438 0.726562
vt 0.023438 0.726562
vt 0.023438 0.726562
vt 0.023438 0.726562
vt 0.023438 0.726562
vt 0.023438 0.726562
vt 0.023438 0.726562
vt 0.023438 0.726562
vt 0.023438 0.726562
vt 0.023438 0.726562
vt 0.023438 0.726562
vt 0.023438 0.726562
vt 0.023438 0.726562
vt 0.023438 0.726562
vt 0.023438 0.726562
vn -0.3466 0.9084 -0.2341
vn 0.6036 0.0249 -0.7969
vn 0.3466 -0.9084 0.2341
vn -0.6036 -0.0249 0.7969
vn -0.7180 -0.4175 -0.5569
vn 0.7180 0.4175 0.5569
vn -0.0618 0.9978 0.0252
vn 0.2677 0.9571 -0.1108
vn 0.1212 0.9533 -0.2766
vn 0.2810 0.9534 0.1098
vn 0.1383 0.9419 0.3062
vn -0.1366 0.9248 0.3552
vn -0.3727 0.9150 0.1545
vn -0.3482 0.9246 -0.1547
vn -0.1189 0.9417 -0.3148
vn 0.1822 0.9478 -0.2617
vn 0.7996 0.5971 0.0636
vn 0.6574 0.4129 -0.6303
vn 0.4168 0.7707 0.4820
vn -0.0189 0.8447 0.5349
vn -0.3596 0.8578 0.3672
vn -0.5701 0.8210 0.0308
vn -0.5399 0.7060 -0.4584
vn -0.0540 0.4972 -0.8659
vn 0.2839 -0.8575 -0.4291
vn 0.2767 -0.9609 -0.0092
vn -0.5785 -0.7417 -0.3395
vn -0.5815 -0.8112 -0.0621
vn -0.9058 0.1231 0.4054
vn -0.8943 0.2958 -0.3357
vn -0.7671 0.5924 -0.2463
vn -0.7650 0.4297 0.4798
vn 0.7290 0.6832 -0.0422
vn 0.7219 0.5795 0.3781
vn 0.8832 -0.3369 0.3263
vn 0.8959 -0.1539 -0.4168
vn -0.0228 -0.9528 0.3028
vn -0.3799 -0.7485 -0.5435
vn -0.3641 0.2953 -0.8833
vn -0.2381 0.5983 -0.7650
vn 0.4220 0.5878 0.6902
vn 0.3531 -0.3225 0.8782
vn -0.4393 -0.8378 0.3242
vn -0.1097 -0.8194 -0.5626
vn 0.3852 0.1224 -0.9147
vn 0.3962 0.9099 -0.1232
vn 0.0054 0.7030 0.7112
vn -0.3838 -0.1193 0.9157
vn -0.7290 -0.6832 0.0422
vn -0.3993 -0.9009 -0.1701
vn 0.9058 -0.1231 -0.4054
vn 0.5815 0.8112 0.0621
vn -0.2839 0.8575 0.4291
vn -0.8959 0.1539 0.4168
vn -0.7219 -0.5795 -0.3781
vn -0.3978 -0.8735 -0.2805
vn 0.8943 -0.2958 0.3357
vn 0.5785 0.7417 0.3395
vn -0.2767 0.9609 0.0092
vn -0.8832 0.3369 -0.3263
vn -0.4220 -0.5878 -0.6902
vn -0.3187 -0.8759 -0.3621
vn 0.3641 -0.2953 0.8833
vn 0.3799 0.7485 0.5435
vn 0.0228 0.9528 -0.3028
vn -0.3531 0.3225 -0.8782
vn -0.0054 -0.7030 -0.7112
vn -0.3962 -0.9099 0.1232
vn -0.3852 -0.1224 0.9147
vn 0.1097 0.8194 0.5626
vn 0.4393 0.8378 -0.3242
vn 0.3838 0.1193 -0.9157
vn -0.0000 1.0000 0.0000
vn 0.7071 0.0000 -0.7071
vn 0.0000 -1.0000 -0.0000
vn 0.7071 -0.0000 0.7071
vn -0.7071 -0.0000 0.7071
vn -0.7071 0.0000 -0.7071
vn -0.3765 0.0735 -0.9235
vn 0.9052 0.2415 -0.3497
vn 0.3728 -0.0557 0.9263
vn 0.1882 -0.9715 -0.1441
vn 0.4357 0.8929 -0.1140
vn -0.0621 0.9022 0.4267
vn -0.2977 0.9419 -0.1556
vn -0.5957 0.7477 0.2935
vn -0.9113 -0.2092 0.3545
vn 0.3761 -0.0718 0.9238
vn -0.9054 -0.2404 0.3499
vn -0.3731 0.0574 -0.9260
vn 0.9111 0.2104 -0.3543
vn 0.3993 0.9009 0.1701
vn 0.3187 0.8759 0.3621
vn 0.3978 0.8735 0.2805
vn 0.2381 -0.5983 0.7650
vn 0.7671 -0.5924 0.2463
vn 0.7650 -0.4297 -0.4798
vn -0.9463 0.1982 -0.2554
vn -0.8199 0.5682 -0.0706
vn -0.3408 0.3795 -0.8601
vn -0.2591 0.6244 -0.7369
vn 0.7804 0.4118 -0.4706
vn 0.5512 -0.2345 -0.8008
vn 0.7246 -0.3958 -0.5641
vn 0.9461 0.2299 -0.2280
vn 0.0402 -0.6472 0.7613
vn 0.1666 -0.2768 0.9464
vn -0.5775 0.2575 0.7748
vn -0.8012 -0.3973 0.4476
vn -0.5023 0.8529 -0.1420
vn -0.5511 0.1936 -0.8117
vn 0.0006 -0.7445 -0.6676
vn 0.1925 -0.8893 -0.4149
vn 0.4846 0.0081 0.8747
vn -0.0155 0.7614 0.6481
vn -0.1794 0.8858 -0.4281
vn -0.7605 0.1662 -0.6278
vn -0.5537 -0.8210 -0.1392
vn 0.3457 -0.7803 0.5211
vn 0.8075 0.0405 0.5884
vn 0.5556 0.8193 0.1418
vn -0.0402 0.6472 -0.7613
vn -0.4729 0.5656 -0.6756
vn -0.7804 -0.4118 0.4706
vn 0.2591 -0.6244 0.7369
vn 0.9463 -0.1982 0.2554
vn 0.8012 0.3973 -0.4476
vn -0.1666 0.2768 -0.9464
vn -0.5058 0.4684 -0.7244
vn -0.5512 0.2345 0.8008
vn 0.3408 -0.3795 0.8601
vn 0.8199 -0.5682 0.0706
vn 0.5775 -0.2575 -0.7748
vn -0.4846 -0.0081 -0.8747
vn -0.5895 0.3939 -0.7053
vn -0.0006 0.7445 0.6676
vn 0.5511 -0.1936 0.8117
vn 0.5023 -0.8529 0.1420
vn 0.0155 -0.7614 -0.6481
vn -0.8075 -0.0405 -0.5884
vn -0.3457 0.7803 -0.5211
vn 0.5537 0.8210 0.1392
vn 0.7605 -0.1662 0.6278
vn 0.1794 -0.8858 0.4281
vn -0.5556 -0.8193 -0.1418
vn 0.4729 -0.5656 0.6756
vn 0.5895 -0.3939 0.7053
vn 0.5058 -0.4684 0.7244
vn -0.1925 0.8893 0.4149
vn -0.7246 0.3958 0.5641
vn -0.9461 -0.2299 0.2280
vn -0.1485 -0.3110 -0.9387
vn -0.8511 0.1364 -0.5070
vn -0.8854 -0.0530 -0.4618
vn -0.2796 -0.4446 -0.8510
vn -0.5763 -0.8171 0.0107
vn -0.3123 -0.5365 -0.7840
vn 0.2279 -0.9117 -0.3420
vn 0.3466 0.3966 -0.8501
vn 0.3634 0.4069 -0.8381
vn 0.9272 -0.0262 -0.3737
vn 0.9218 -0.0218 -0.3869
vn 0.7158 -0.5428 -0.4393
vn 0.6662 -0.4948 0.5579
vn 0.1886 -0.8736 0.4485
vn 0.8671 -0.0037 0.4982
vn 0.8799 -0.0005 0.4752
vn -0.0647 0.0265 0.9976
vn -0.3909 -0.4604 0.7970
vn -0.8879 0.1891 0.4195
vn -0.2258 -0.2019 0.9530
vn -0.3380 -0.3304 0.8813
vn -0.9285 0.0135 0.3711
vn 0.2558 0.4443 0.8586
vn 0.2448 0.4563 0.8555
vn -0.3051 0.8683 0.3910
vn -0.3242 0.8730 0.3644
vn 0.4924 -0.6763 0.5479
vn 0.3732 -0.7607 0.5311
vn -0.7461 0.4998 0.4399
vn -0.9310 -0.0852 0.3550
vn -0.6965 0.4518 -0.5574
vn -0.8917 -0.1233 -0.4355
vn 0.5353 -0.7348 -0.4166
vn 0.3971 -0.8167 -0.4188
vn -0.2668 0.8366 -0.4785
vn 0.0344 -0.0695 -0.9970
vn 0.5763 0.8171 -0.0107
vn -0.2468 0.8462 -0.4724
s off
f 1/1/1 2/2/1 3/3/1 4/4/1
f 4/4/2 3/3/2 5/5/2 6/6/2
f 6/6/3 5/5/3 7/7/3 8/8/3
f 8/8/4 7/7/4 2/2/4 1/1/4
f 4/4/5 6/6/5 8/8/5 1/1/5
f 5/5/6 3/3/6 2/2/6 7/7/6
s 1
f 9/9/7 10/10/8 11/11/9
f 9/9/7 12/12/10 10/10/8
f 9/9/7 13/13/11 12/12/10
f 9/9/7 14/14/12 13/13/11
f 9/9/7 15/15/13 14/14/12
f 9/9/7 16/16/14 15/15/13
f 9/9/7 17/17/15 16/16/14
f 18/18/16 19/19/17 20/20/18
f 18/18/16 21/21/19 19/19/17
f 18/18/16 22/22/20 21/21/19
f 18/18/16 23/23/21 22/22/20
f 18/18/16 24/24/22 23/23/21
f 18/18/16 25/25/23 24/24/22
f 18/18/16 26/26/24 25/25/23
f 18/18/16 20/20/18 26/26/24
f 27/27/25 28/28/26 29/29/27 30/30/28
f 31/31/29 32/32/30 33/33/31 34/34/32
f 35/35/33 36/36/34 37/37/35 38/38/36
f 28/28/26 39/39/37 40/40/38 29/29/27
f 32/32/30 41/41/39 42/42/40 33/33/31
f 36/36/34 43/43/41 44/44/42 37/37/35
f 39/39/37 45/45/43 46/46/44 40/40/38
f 41/41/39 47/47/45 48/48/46 42/42/40
f 43/43/41 49/49/47 50/50/48 44/44/42
f 45/45/43 51/51/49 52/52/50 46/46/44
f 47/47/45 53/53/51 54/54/52 48/48/46
f 49/49/47 55/55/53 56/56/54 50/50/48
f 51/51/49 57/57/55 58/58/56 52/52/50
f 53/53/51 59/59/57 60/60/58 54/54/52
f 55/55/53 61/61/59 62/62/60 56/56/54
f 57/57/55 63/63/61 64/64/62 58/58/56
f 59/59/57 65/65/63 66/66/64 60/60/58
f 61/61/59 67/67/65 68/68/66 62/62/60
f 63/63/61 69/69/67 70/70/68 64/64/62
f 65/65/63 71/71/69 72/72/70 66/66/64
f 67/67/65 73/73/71 74/74/72 68/68/66
f 69/69/67 27/27/25 30/30/28 70/70/68
f 71/71/69 31/31/29 34/34/32 72/72/70
f 73/73/71 35/35/33 38/38/36 74/74/72
f 17/17/15 9/9/7 11/11/9
f 75/75/73 76/76/73 77/77/73 78/78/73
f 79/79/74 80/80/74 81/81/74 82/82/74
f 78/78/73 77/77/73 83/83/73 79/79/73
f 84/84/75 82/82/75 85/85/75
f 80/80/76 75/75/76 86/86/76 81/81/76
f 80/80/73 87/87/73 76/76/73 75/75/73
f 81/81/75 86/86/75 85/85/75
f 75/75/77 78/78/77 84/84/77 86/86/77
f 86/86/75 84/84/75 85/85/75
f 79/79/73 83/83/73 87/87/73 80/80/73
f 78/78/78 79/79/78 82/82/78 84/84/78
f 87/87/77 83/83/77 88/88/77 89/89/77
f 76/76/78 87/87/78 89/89/78 90/90/78
f 91/91/73 89/89/73 88/88/73
f 77/77/74 76/76/74 90/90/74 92/92/74
f 77/77/76 92/92/76 88/88/76 83/83/76
f 91/91/73 90/90/73 89/89/73
f 91/91/73 92/92/73 90/90/73
f 91/91/73 88/88/73 92/92/73
f 93/93/79 94/94/79 95/95/79 96/96/79
f 96/96/80 95/95/80 97/97/80 98/98/80
f 98/98/81 97/97/81 99/99/81 100/100/81
f 93/93/82 96/96/82 98/98/82 100/100/82
f 94/94/83 101/101/83 102/102/83 99/99/83
f 95/95/84 103/103/84 104/104/84 94/94/84
f 99/99/85 105/105/85 106/106/85 97/97/85
f 97/97/86 107/107/86 108/108/86 95/95/86
f 100/100/87 99/99/87 94/94/87 93/93/87
f 109/109/88 110/110/88 95/95/88 94/94/88
f 110/110/89 111/111/89 97/97/89 95/95/89
f 111/111/90 112/112/90 99/99/90 97/97/90
f 112/112/91 109/109/91 94/94/91 99/99/91
f 72/72/70 34/34/92 35/35/33 73/73/71
f 66/66/64 72/72/70 73/73/71 67/67/65
f 60/60/58 66/66/64 67/67/65 61/61/59
f 54/54/52 60/60/58 61/61/59 55/55/53
f 48/48/46 54/54/52 55/55/53 49/49/47
f 42/42/93 48/48/46 49/49/47 43/43/41
f 33/33/94 42/42/93 43/43/41 36/36/34
f 34/34/92 33/33/94 36/36/34 35/35/33
f 74/74/72 38/38/36 27/27/25 69/69/67
f 68/68/66 74/74/72 69/69/67 63/63/61
f 62/62/60 68/68/66 63/63/61 57/57/55
f 56/56/54 62/62/60 57/57/55 51/51/49
f 50/50/48 56/56/54 51/51/49 45/45/43
f 44/44/42 50/50/48 45/45/43 39/39/37
f 37/37/35 44/44/42 39/39/37 28/28/26
f 38/38/36 37/37/35 28/28/26 27/27/25
f 70/70/68 30/30/28 31/31/29 71/71/69
f 64/64/95 70/70/68 71/71/69 65/65/63
f 58/58/96 64/64/95 65/65/63 59/59/57
f 52/52/97 58/58/96 59/59/57 53/53/51
f 46/46/44 52/52/97 53/53/51 47/47/45
f 40/40/38 46/46/44 47/47/45 41/41/39
f 29/29/27 40/40/38 41/41/39 32/32/30
f 30/30/28 29/29/27 32/32/30 31/31/29
f 113/113/98 114/114/99 115/115/100 116/116/101
f 117/117/102 118/118/103 119/119/104 120/120/105
f 121/121/106 122/122/107 123/123/108 124/124/109
f 114/114/99 125/125/110 126/126/111 115/115/100
f 118/118/103 127/127/112 128/128/113 119/119/104
f 122/122/107 129/129/114 130/130/115 123/123/108
f 125/125/110 131/131/116 132/132/117 126/126/111
f 127/127/112 133/133/118 134/134/119 128/128/113
f 129/129/114 135/135/120 136/136/121 130/130/115
f 131/131/116 137/137/122 138/138/123 132/132/117
f 133/133/118 139/139/124 140/140/125 134/134/119
f 135/135/120 141/141/126 142/142/127 136/136/121
f 137/137/122 143/143/128 144/144/129 138/138/123
f 139/139/124 145/145/130 146/146/131 140/140/125
f 141/141/126 147/147/132 148/148/133 142/142/127
f 143/143/128 149/149/134 150/150/135 144/144/129
f 145/145/130 151/151/136 152/152/137 146/146/131
f 147/147/132 153/153/138 154/154/139 148/148/133
f 149/149/134 155/155/140 156/156/141 150/150/135
f 151/151/136 157/157/142 158/158/143 152/152/137
f 153/153/138 159/159/144 160/160/145 154/154/139
f 155/155/140 113/113/98 116/116/101 156/156/141
f 157/157/142 117/117/102 120/120/105 158/158/143
f 159/159/144 121/121/106 124/124/109 160/160/145
f 158/158/143 120/120/146 121/121/106 159/159/144
f 152/152/137 158/158/143 159/159/144 153/153/138
f 146/146/131 152/152/137 153/153/138 147/147/132
f 140/140/125 146/146/131 147/147/132 141/141/126
f 134/134/119 140/140/125 141/141/126 135/135/120
f 128/128/147 134/134/119 135/135/120 129/129/114
f 119/119/148 128/128/147 129/129/114 122/122/107
f 120/120/146 119/119/148 122/122/107 121/121/106
f 160/160/145 124/124/109 113/113/98 155/155/140
f 154/154/139 160/160/145 155/155/140 149/149/134
f 148/148/133 154/154/139 149/149/134 143/143/128
f 142/142/127 148/148/133 143/143/128 137/137/122
f 136/136/121 142/142/127 137/137/122 131/131/116
f 130/130/115 136/136/121 131/131/116 125/125/110
f 123/123/108 130/130/115 125/125/110 114/114/99
f 124/124/109 123/123/108 114/114/99 113/113/98
f 156/156/141 116/116/101 117/117/102 157/157/142
f 150/150/149 156/156/141 157/157/142 151/151/136
f 144/144/150 150/150/149 151/151/136 145/145/130
f 138/138/151 144/144/150 145/145/130 139/139/124
f 132/132/117 138/138/151 139/139/124 133/133/118
f 126/126/111 132/132/117 133/133/118 127/127/112
f 115/115/100 126/126/111 127/127/112 118/118/103
f 116/116/101 115/115/100 118/118/103 117/117/102
f 161/161/152 162/162/153 163/163/154 164/164/155
f 165/165/156 166/166/157 167/167/158
f 168/168/159 169/169/160 170/170/161 171/171/162
f 167/167/158 172/172/163 173/173/164 174/174/165
f 165/165/156 167/167/158 174/174/165
f 171/171/162 170/170/161 175/175/166 176/176/167
f 174/174/165 173/173/164 177/177/168 178/178/169
f 179/179/170 180/180/171 181/181/172 182/182/173
f 176/176/167 175/175/166 183/183/174 184/184/175
f 184/184/175 183/183/174 185/185/176 186/186/177
f 180/180/171 187/187/178 188/188/179 181/181/172
f 165/165/156 174/174/165 178/178/169
f 177/177/168 189/189/180 190/190/181 178/178/169
f 189/189/180 191/191/182 192/192/183 190/190/181
f 193/193/184 161/161/152 164/164/155 194/194/185
f 165/165/156 178/178/169 190/190/181
f 186/186/177 195/195/186 191/191/182 189/189/180
f 191/191/182 196/196/187 166/166/157 192/192/183
f 187/187/178 193/193/184 194/194/185 188/188/179
f 165/165/156 190/190/181 192/192/183
f 195/195/186 168/168/159 196/196/187 191/191/182
f 162/162/153 179/179/170 182/182/173 163/163/154
f 165/165/156 192/192/183 166/166/157
f 164/164/188 181/181/188 194/194/188
f 194/194/188 181/181/188 188/188/188
f 182/182/188 181/181/188 163/163/188
f 163/163/188 181/181/188 164/164/188
f 197/197/189 185/185/176 179/179/170 162/162/153
f 175/175/166 170/170/161 193/193/184 187/187/178
f 170/170/161 169/169/160 161/161/152 193/193/184
f 183/183/174 175/175/166 187/187/178 180/180/171
f 185/185/176 183/183/174 180/180/171 179/179/170
f 169/169/160 197/197/189 162/162/153 161/161/152
f 166/166/157 196/196/187 172/172/163 167/167/158
f 197/197/189 169/169/160 168/168/159 195/195/186
f 185/185/176 197/197/189 195/195/186 186/186/177
f 177/177/168 184/184/175 186/186/177 189/189/180
f 173/173/164 176/176/167 184/184/175 177/177/168
f 172/172/163 171/171/162 176/176/167 173/173/164
f 196/196/187 168/168/159 171/171/162 172/172/163
f 82/82/75 81/81/75 85/85/75
