# Blender v2.90.0 Alpha OBJ File: 'Decos.blend'
# www.blender.org
o PileOfMaterials_Cone
v -7.335064 0.565653 3.037149
v 2.742017 -0.999999 -6.619814
v 6.619813 -1.000000 -2.742016
v 6.619813 -1.000000 2.742017
v 2.742017 -1.000001 6.619814
v -2.742015 -1.000001 6.619815
v -6.619814 -1.000000 -2.742018
v -2.742014 -0.999999 -6.619815
v 2.471258 3.750191 -3.541592
v 4.488464 -1.343032 -4.773593
v 3.390650 -2.719029 1.961459
v 0.672880 -1.343034 4.438042
v -3.142706 -1.343034 2.857577
v -4.723173 -1.343033 -0.958009
v -2.316636 -2.356409 -3.807855
v 4.072731 0.477356 0.812051
v 3.131905 -0.588549 6.675930
v -1.435049 1.439903 3.625438
v 0.898876 1.729191 1.691128
v 0.681749 1.591814 0.598491
v -6.138522 -0.524958 3.646449
v -4.171317 0.419631 1.629856
v -2.610002 0.926996 5.637085
v -6.057405 2.078201 2.612009
v 4.212278 0.444167 3.261597
v 1.420187 0.645004 5.856396
v 3.029474 -0.627147 4.548908
v -0.022199 0.757723 3.618414
v 1.773840 0.688872 1.539326
v -5.158922 1.847571 -1.991502
v -3.974077 2.162596 -2.743299
v -1.574838 5.162891 -2.570232
v -2.044843 3.796813 -3.236322
v 0.217277 4.298536 -3.302825
v -1.022220 1.797417 -6.408030
v -1.842952 -0.517786 -6.087963
v -4.246470 -0.791076 -4.205379
v -4.256179 1.431689 -1.416475
v -1.789079 0.928587 -5.361960
v -6.932838 -0.501486 -2.118206
v -3.765368 2.727174 -0.738412
v -4.796997 -1.478276 -0.792738
v -6.885972 0.093155 0.619911
v -2.779456 4.101612 -0.220388
v -1.452033 3.908526 0.093453
v 0.040200 2.680441 3.418077
v 3.960495 3.146260 0.749126
v 0.905397 5.155410 -3.233024
v -0.597104 4.002566 -3.096970
v -1.853862 2.143077 1.653796
v 2.611596 4.132455 1.249571
v 1.272829 3.250048 1.837388
v 1.689515 4.650219 -1.249653
v -4.544599 5.139020 -0.350163
v -3.745917 4.675431 0.672100
v -4.789644 2.600284 3.736813
v -0.252668 2.749289 4.490662
v 0.208845 6.142787 0.052123
v -1.011316 5.245548 -1.092970
v -5.016007 2.858194 0.993794
v -1.432089 4.006894 4.150476
v -2.825339 3.257111 3.507709
v -0.494927 5.142126 1.870694
vt 0.023438 0.757812
vt 0.023438 0.757812
vt 0.023438 0.757812
vt 0.023438 0.757812
vt 0.023438 0.757812
vt 0.023438 0.757812
vt 0.023438 0.757812
vt 0.023438 0.757812
vt 0.023438 0.757812
vt 0.023438 0.757812
vt 0.023438 0.757812
vt 0.023438 0.757812
vt 0.023438 0.757812
vt 0.023438 0.757812
vt 0.023438 0.757812
vt 0.070312 0.773438
vt 0.070312 0.773438
vt 0.070312 0.773438
vt 0.070312 0.773437
vt 0.070312 0.773438
vt 0.070312 0.773438
vt 0.070312 0.773438
vt 0.070312 0.773438
vt 0.070312 0.773438
vt 0.023438 0.726562
vt 0.023438 0.726562
vt 0.023438 0.726562
vt 0.070312 0.773438
vt 0.070312 0.773438
vt 0.070312 0.773438
vt 0.070312 0.773438
vt 0.070312 0.773438
vt 0.070312 0.773438
vt 0.070312 0.773438
vt 0.070312 0.773438
vt 0.070312 0.773438
vt 0.070312 0.773438
vt 0.070312 0.773438
vt 0.023438 0.726562
vt 0.023438 0.726562
vt 0.023438 0.726562
vt 0.023438 0.726562
vt 0.070312 0.773438
vt 0.070312 0.773438
vt 0.070312 0.773438
vt 0.070312 0.773438
vt 0.070312 0.773438
vt 0.070312 0.773438
vt 0.070312 0.773438
vt 0.070312 0.773438
vt 0.070312 0.773438
vt 0.070312 0.773438
vt 0.070312 0.773438
vt 0.070312 0.773438
vt 0.070312 0.773438
vt 0.070312 0.773438
vt 0.070312 0.773438
vt 0.070312 0.773438
vt 0.070312 0.773438
vt 0.070312 0.773438
vt 0.070312 0.773438
vt 0.070312 0.773438
vt 0.023438 0.726563
vn 0.0079 1.0000 -0.0033
vn 0.0953 0.9947 -0.0395
vn 0.0532 0.9930 -0.1055
vn 0.1122 0.9930 0.0370
vn 0.0962 0.9826 0.1589
vn 0.0000 0.9163 0.4004
vn -0.0443 0.9826 -0.1804
vn -0.2833 0.9162 -0.2833
vn 0.2506 0.9088 -0.3337
vn 0.7854 0.4621 0.4120
vn 0.9247 0.3142 0.2149
vn 0.2150 0.8005 0.5594
vn -0.3596 0.8578 0.3672
vn -0.6060 0.7820 -0.1460
vn -0.4678 0.4011 -0.7876
vn -0.1633 0.1704 -0.9718
vn -0.1985 -0.9708 0.1349
vn 0.2188 -0.9748 -0.0436
vn -0.0180 -0.9434 -0.3312
vn 0.6113 -0.7901 -0.0455
vn -0.4620 -0.8773 -0.1299
vn 0.4631 0.8486 -0.2557
vn 0.3601 -0.8909 -0.2770
vn -0.2804 -0.8687 -0.4084
vn -0.4331 -0.8960 -0.0977
vn 0.6709 0.4820 0.5636
vn -0.5223 -0.5360 0.6633
vn -0.6219 -0.2724 -0.7342
vn 0.3649 0.9310 -0.0082
vn 0.3569 0.9333 -0.0405
vn 0.0795 0.9960 -0.0404
vn 0.1305 0.9802 -0.1492
vn 0.0360 0.9811 0.1901
vn 0.0804 0.9670 0.2416
vn -0.6257 -0.4405 0.6438
vn 0.4135 0.8269 0.3810
vn 0.1875 -0.7031 -0.6859
vn 0.4461 -0.7692 -0.4576
vn 0.5709 -0.7644 -0.2997
vn -0.3549 0.6546 -0.6675
vn -0.5601 0.4767 -0.6775
vn -0.5579 0.4764 -0.6796
vn 0.2432 -0.0147 0.9699
vn -0.0411 0.5399 0.8407
vn -0.1387 0.6862 0.7140
vn 0.2254 -0.4737 0.8514
vn 0.1166 -0.5675 0.8151
vn 0.1521 -0.5797 0.8005
vn -0.7036 0.4410 -0.5572
vn -0.6617 0.4848 -0.5719
vn -0.6793 0.2634 -0.6849
vn -0.6613 0.2113 -0.7197
vn -0.6206 0.1127 -0.7760
vn 0.1013 -0.5939 0.7981
vn 0.7738 0.4707 0.4238
vn -0.5591 0.4657 -0.6860
vn -0.5040 -0.8422 0.1915
vn 0.4862 -0.1304 0.8641
vn 0.4879 -0.1085 -0.8661
vn 0.2779 -0.6709 -0.6875
vn -0.2764 0.8667 0.4154
vn 0.0310 0.9126 0.4077
vn -0.2389 0.9018 0.3601
vn 0.2633 0.8354 0.4825
vn -0.4193 0.9024 0.0990
vn -0.4810 0.8211 0.3075
vn 0.0863 0.9781 0.1895
vn -0.1506 0.9886 0.0068
vn 0.6307 0.6981 0.3391
vn 0.4712 -0.8763 0.1004
vn 0.2446 -0.9689 0.0370
vn 0.9175 -0.3199 0.2364
vn 0.6688 -0.5550 -0.4947
vn -0.4705 0.8101 0.3498
vn -0.2471 0.7989 0.5484
vn -0.4260 0.8392 0.3379
vn 0.0488 -0.9940 -0.0975
vn -0.0847 0.6971 0.7119
vn -0.3854 0.9221 0.0347
vn -0.5682 0.8130 0.1274
vn -0.0256 0.8914 0.4526
vn -0.1168 0.9807 0.1568
vn 0.2454 0.4647 0.8508
vn 0.2878 -0.9474 0.1399
vn 0.1645 -0.9844 -0.0630
vn 0.5321 -0.5441 0.6487
vn 0.3993 -0.9160 -0.0396
vn 0.5330 0.7882 -0.3075
vn -0.6806 -0.1176 -0.7232
vn -0.3638 -0.8460 -0.3897
vn -0.2497 0.8447 0.4735
vn 0.1290 -0.6777 -0.7240
vn 0.3040 -0.1649 0.9383
vn 0.4751 -0.4088 0.7792
vn 0.9340 -0.3443 -0.0955
vn 0.5166 -0.6174 0.5932
vn -0.6927 0.3078 -0.6523
vn -0.6035 -0.6246 0.4957
vn 0.0994 0.7552 -0.6479
vn 0.7197 0.1740 0.6721
vn -0.8676 0.2439 -0.4334
vn -0.6744 0.7239 -0.1457
vn -0.5910 -0.6858 -0.4248
vn -0.2262 0.7433 -0.6295
vn -0.6945 0.2983 0.6547
vn 0.1843 -0.9778 0.1000
vn 0.2860 -0.8060 -0.5183
vn 0.0314 -0.9671 -0.2525
vn -0.0861 -0.9892 -0.1182
vn 0.4267 -0.6324 -0.6465
vn -0.5678 0.6864 -0.4544
vn 0.5138 0.2938 0.8060
vn -0.1674 -0.4746 -0.8641
vn 0.3274 0.8465 -0.4197
vn -0.9602 0.2595 0.1036
vn 0.5621 -0.7239 -0.4000
vn 0.1621 -0.8925 -0.4210
vn -0.0256 -0.9139 -0.4051
vn 0.7464 -0.5639 -0.3535
vn -0.1345 0.8445 -0.5184
vn -0.1664 0.1090 0.9800
vn -0.5620 0.3205 0.7625
vn 0.9658 0.0092 0.2591
vn 0.5613 -0.2528 0.7880
s 1
f 1/1/1 3/2/2 2/3/3
f 1/1/1 4/4/4 3/2/2
f 1/1/1 5/5/5 4/4/4
f 1/1/1 6/6/6 5/5/5
f 1/1/1 8/7/7 7/8/8
f 9/9/9 11/10/10 10/11/11
f 9/9/9 12/12/12 11/10/10
f 9/9/9 13/13/13 12/12/12
f 9/9/9 14/14/14 13/13/13
f 9/9/9 15/15/15 14/14/14
f 9/9/9 10/11/16 15/15/15
f 17/16/17 27/17/18 16/18/19
f 17/16/17 16/18/19 25/19/20
f 18/20/21 27/17/18 17/16/17
f 28/21/22 26/22/22 27/17/22
f 28/21/23 19/23/23 26/22/23
f 18/20/21 29/24/24 28/21/25
f 29/24/26 19/23/26 28/21/26
f 29/24/27 25/19/27 19/23/27
f 8/7/7 1/1/1 2/3/3
f 24/25/28 22/26/28 21/27/28
f 25/19/29 16/18/30 19/23/31
f 19/23/31 20/28/32 18/20/33
f 19/23/31 18/20/33 26/22/34
f 26/22/35 18/20/21 17/16/17
f 25/19/36 26/22/36 17/16/36
f 33/29/37 38/30/38 31/31/39
f 32/32/40 31/31/41 30/33/42
f 34/34/43 30/33/44 38/30/45
f 39/35/46 34/34/47 33/29/48
f 32/32/40 35/36/49 33/29/50
f 37/37/51 35/36/52 36/38/53
f 38/30/54 39/35/46 31/31/55
f 30/33/42 31/31/41 39/35/56
f 40/39/57 42/40/57 43/41/57
f 41/42/58 43/41/58 42/40/58
f 41/42/59 42/40/59 40/39/59
f 52/43/60 50/44/60 45/45/60
f 46/46/61 45/45/62 44/47/63
f 46/46/61 51/48/64 52/43/65
f 49/49/66 52/43/65 53/50/67
f 48/51/68 53/50/67 47/52/69
f 49/49/70 53/50/71 45/45/72
f 44/47/63 45/45/62 53/50/67
f 53/50/67 52/43/65 51/48/64
f 62/53/73 60/54/73 55/55/73
f 56/56/74 55/55/75 54/57/76
f 57/58/77 56/56/77 60/54/77
f 56/56/74 61/59/78 62/53/79
f 59/60/80 62/53/79 63/61/81
f 58/62/82 63/61/81 57/58/83
f 59/60/84 63/61/85 55/55/86
f 54/57/76 55/55/75 63/61/81
f 63/61/81 62/53/79 61/59/78
f 23/63/87 21/27/87 22/26/87
f 23/63/88 22/26/88 24/25/88
f 27/17/89 26/22/89 25/19/89
f 18/20/21 28/21/25 27/17/18
f 18/20/21 20/28/90 29/24/24
f 20/28/90 16/18/19 29/24/24
f 29/24/91 27/17/91 25/19/91
f 19/23/31 16/18/30 20/28/32
f 33/29/37 34/34/92 38/30/38
f 32/32/40 33/29/50 31/31/41
f 34/34/43 32/32/93 30/33/44
f 39/35/46 36/38/94 34/34/47
f 34/34/95 36/38/95 35/36/95
f 37/37/96 36/38/94 39/35/46
f 37/37/51 30/33/97 35/36/52
f 38/30/54 37/37/96 39/35/46
f 37/37/96 38/30/54 30/33/98
f 34/34/99 35/36/49 32/32/40
f 35/36/100 30/33/100 39/35/100
f 35/36/49 39/35/101 33/29/50
f 41/42/102 40/39/102 43/41/102
f 49/49/103 50/44/103 44/47/103
f 46/46/61 52/43/65 45/45/62
f 52/43/104 47/52/104 50/44/104
f 50/44/105 46/46/61 44/47/63
f 50/44/106 47/52/106 46/46/106
f 51/48/64 47/52/69 53/50/67
f 49/49/107 47/52/108 52/43/109
f 47/52/108 49/49/107 48/51/110
f 48/51/68 44/47/63 53/50/67
f 49/49/111 44/47/63 48/51/68
f 47/52/69 51/48/64 46/46/112
f 59/60/113 60/54/113 54/57/113
f 56/56/74 62/53/79 55/55/75
f 62/53/114 57/58/114 60/54/114
f 60/54/115 56/56/74 54/57/76
f 61/59/78 57/58/83 63/61/81
f 59/60/116 57/58/117 62/53/118
f 57/58/117 59/60/116 58/62/119
f 58/62/82 54/57/76 63/61/81
f 59/60/120 54/57/76 58/62/82
f 57/58/83 61/59/78 56/56/121
f 23/63/122 24/25/122 21/27/122
f 50/44/123 49/49/70 45/45/72
f 60/54/124 59/60/84 55/55/86
f 16/18/19 27/17/18 29/24/24
