# Blender v2.90.0 Alpha OBJ File: 'Decos.blend'
# www.blender.org
o PileOfMaterials_Cone
v -7.335064 0.565653 3.037149
v 2.742017 -0.999999 -6.619814
v 6.619813 -1.000000 -2.742016
v 6.619813 -1.000000 2.742017
v 2.742017 -1.000001 6.619814
v -2.742015 -1.000001 6.619815
v -6.619814 -1.000000 -2.742018
v -2.742014 -0.999999 -6.619815
v 2.471258 3.750191 -3.541592
v 4.488464 -1.343032 -4.773593
v 3.390650 -2.719029 1.961459
v 0.672880 -1.343034 4.438042
v -3.142706 -1.343034 2.857577
v -4.723173 -1.343033 -0.958009
v -2.316636 -2.356409 -3.807855
v 5.091301 -1.011915 2.959166
v 3.450490 -0.941902 3.130616
v 0.587413 0.135410 6.963395
v 1.681340 0.501322 5.449026
v 0.138984 1.088229 0.048564
v 0.900148 0.207824 1.146963
v 0.469391 5.675297 -3.062884
v 2.494003 5.675297 -1.076793
v 0.479021 0.297754 -1.067163
v -0.189429 5.675297 0.269738
v 0.479021 1.641573 -1.067163
v -5.550554 1.636855 1.385314
v -3.243494 2.220599 0.490994
v -1.800069 1.971432 4.054630
v -3.247132 -0.438479 2.389549
v -4.107578 1.387767 4.947786
v -6.327201 2.056725 1.705624
v -4.867791 1.804839 5.308734
v -3.537408 2.511704 -0.171550
v -5.916260 1.914146 0.750208
v -3.917664 1.571721 5.686131
v -1.538813 2.169280 4.764369
v -1.202139 2.518807 3.873901
v -2.661550 2.770693 0.270793
v -5.154638 -0.649421 1.045963
v -2.780823 -0.053126 0.126154
v -2.518661 -0.613837 4.178257
v 4.389618 0.633337 2.624178
v 0.098234 1.792861 2.637934
v 0.624017 -1.011048 5.441302
v -5.284094 0.708277 -2.559129
v -4.009454 3.142735 -2.582833
v -2.309692 4.533678 -1.040403
v -1.783049 3.337119 -1.963365
v 0.595436 3.189353 -5.051680
v -2.378967 -0.636051 -6.570404
v -2.905611 0.560510 -5.647441
v -3.641178 -0.077908 -2.757283
v -0.679205 0.754896 -5.027974
v -1.047479 3.975536 -4.853528
v 1.901275 7.619688 -0.243723
v 2.592390 7.648217 -1.156222
v 5.560876 -1.052315 1.538504
v -6.003580 -1.411918 -1.735671
v -3.765368 2.727174 -0.738412
v -6.885972 0.093155 0.619911
vt 0.039062 0.820312
vt 0.039062 0.820312
vt 0.039062 0.820312
vt 0.023438 0.757812
vt 0.023438 0.757812
vt 0.023438 0.757812
vt 0.023438 0.757812
vt 0.023438 0.757812
vt 0.023438 0.757812
vt 0.023438 0.757812
vt 0.023438 0.757812
vt 0.023438 0.757812
vt 0.023438 0.757812
vt 0.023438 0.757812
vt 0.023438 0.757812
vt 0.023438 0.757812
vt 0.023438 0.757812
vt 0.023438 0.757812
vt 0.070312 0.773438
vt 0.070312 0.773438
vt 0.070312 0.773438
vt 0.070312 0.773438
vt 0.070312 0.773438
vt 0.070312 0.773438
vt 0.070312 0.773438
vt 0.023438 0.851562
vt 0.023438 0.851562
vt 0.023438 0.851562
vt 0.023438 0.851562
vt 0.023438 0.851562
vt 0.039062 0.820312
vt 0.039062 0.820312
vt 0.039062 0.820312
vt 0.039062 0.820312
vt 0.039062 0.820312
vt 0.039062 0.820312
vt 0.039062 0.820312
vt 0.039062 0.820312
vt 0.039062 0.820312
vt 0.039062 0.820312
vt 0.039062 0.820312
vt 0.070312 0.773438
vt 0.070312 0.773438
vt 0.070312 0.773438
vt 0.070312 0.773438
vt 0.070312 0.773438
vt 0.070312 0.773438
vt 0.070312 0.773438
vt 0.070312 0.773438
vt 0.070312 0.773438
vt 0.070312 0.773438
vt 0.070312 0.773438
vt 0.023438 0.726562
vt 0.023438 0.726562
vt 0.023438 0.726562
vt 0.070312 0.773438
vt 0.039062 0.820312
vt 0.039062 0.820312
vt 0.039062 0.820312
vt 0.039062 0.820312
vt 0.039062 0.820312
vn -0.7180 -0.4175 -0.5569
vn 0.7180 0.4175 0.5569
vn 0.0079 1.0000 -0.0033
vn 0.0953 0.9947 -0.0395
vn 0.0532 0.9930 -0.1055
vn 0.1122 0.9930 0.0370
vn 0.0962 0.9826 0.1589
vn 0.0000 0.9163 0.4004
vn -0.0443 0.9826 -0.1804
vn -0.2833 0.9162 -0.2833
vn 0.2506 0.9088 -0.3337
vn 0.7854 0.4621 0.4120
vn 0.9247 0.3142 0.2149
vn 0.2150 0.8005 0.5594
vn -0.3596 0.8578 0.3672
vn -0.6060 0.7820 -0.1460
vn -0.4678 0.4011 -0.7876
vn -0.1633 0.1704 -0.9718
vn 0.2959 -0.7927 0.5329
vn -0.0676 -0.9653 -0.2523
vn 0.8761 -0.4779 -0.0632
vn -0.6547 0.3692 -0.6596
vn -0.6473 0.2468 -0.7212
vn -0.6295 0.1290 -0.7662
vn 0.6579 0.4205 0.6247
vn 0.5403 0.1933 0.8189
vn -0.2459 -0.8375 -0.4880
vn -0.4603 0.1843 -0.8684
vn 0.5203 0.2653 -0.8117
vn 0.6771 -0.2550 -0.6903
vn 0.4424 -0.1642 0.8817
vn -0.9784 -0.0735 -0.1934
vn -0.6607 0.3316 0.6735
vn 0.9763 0.0978 0.1930
vn 0.4357 0.8929 -0.1140
vn 0.4357 0.8928 -0.1141
vn -0.0631 0.9027 0.4257
vn -0.0610 0.9018 0.4278
vn -0.0637 0.9029 0.4250
vn -0.2977 0.9416 -0.1571
vn -0.2976 0.9422 -0.1541
vn -0.2976 0.9423 -0.1531
vn -0.5957 0.7476 0.2936
vn -0.5957 0.7477 0.2935
vn 0.3761 -0.0718 0.9238
vn 0.3760 -0.0720 0.9238
vn -0.9631 -0.0476 0.2650
vn -0.9762 0.1059 0.1891
vn -0.9054 -0.2404 0.3499
vn 0.2312 0.5036 -0.8324
vn 0.3501 0.4289 -0.8328
vn -0.3734 0.0595 -0.9258
vn 0.8166 0.3919 -0.4238
vn -0.9873 -0.1563 0.0280
vn -0.9916 -0.1206 0.0477
vn 0.9323 0.3278 0.1530
vn 0.9874 0.1551 -0.0301
vn 0.8905 -0.2271 -0.3942
vn 0.2605 0.0819 -0.9620
vn -0.1508 -0.8635 0.4812
vn 0.0533 0.6495 0.7585
vn -0.9190 -0.2608 0.2958
vn -0.6470 0.2923 -0.7042
vn -0.0533 -0.6495 -0.7585
vn 0.6470 -0.2923 0.7042
vn 0.9190 0.2608 -0.2958
vn 0.1508 0.8635 -0.4812
vn -0.2605 -0.0819 0.9620
vn 0.6622 -0.4939 0.5636
vn -0.6520 0.4589 -0.6036
vn -0.9805 -0.1928 0.0370
vn -0.1930 -0.7223 0.6641
vn -0.2864 -0.4965 0.8194
vn -0.3986 0.1056 0.9110
vn 0.2518 0.9348 -0.2504
vn -0.3905 0.4845 0.7828
vn -0.4378 0.2166 -0.8726
vn -0.5002 -0.7579 -0.4188
vn -0.1662 -0.5728 -0.8026
vn 0.1867 -0.9719 -0.1435
vn 0.8855 -0.2708 -0.3776
vn 0.7653 -0.6072 0.2137
vn -0.1063 -0.8258 0.5538
vn -0.0605 0.9015 0.4284
vn -0.2977 0.9415 -0.1580
vn 0.3762 -0.0717 0.9238
vn -0.9575 0.2709 0.0994
vn 0.9111 0.2104 -0.3543
vn 0.3922 0.7885 0.4738
vn 0.1572 0.9280 0.3378
vn 0.6651 -0.4620 -0.5868
vn 0.7916 -0.6098 -0.0374
vn -0.1353 0.9742 0.1807
vn -0.7916 0.6098 0.0374
vn 0.9595 0.0953 0.2652
vn -0.9595 -0.0953 -0.2652
vn 0.1353 -0.9742 -0.1807
vn -0.6622 0.4939 -0.5636
s off
f 58/1/1 56/2/1 57/3/1
f 58/1/2 57/3/2 56/2/2
s 1
f 1/4/3 3/5/4 2/6/5
f 1/4/3 4/7/6 3/5/4
f 1/4/3 5/8/7 4/7/6
f 1/4/3 6/9/8 5/8/7
f 1/4/3 8/10/9 7/11/10
f 9/12/11 11/13/12 10/14/13
f 9/12/11 12/15/14 11/13/12
f 9/12/11 13/16/15 12/15/14
f 9/12/11 14/17/16 13/16/15
f 9/12/11 15/18/17 14/17/16
f 9/12/11 10/14/18 15/18/17
f 45/19/19 17/20/20 16/21/21
f 45/19/22 43/22/23 17/20/24
f 43/22/25 18/23/26 16/21/21
f 16/21/21 21/24/27 20/25/28
f 43/22/29 16/21/21 20/25/28
f 8/10/9 1/4/3 2/6/5
f 23/26/30 24/27/30 22/28/30
f 25/29/31 24/27/31 23/26/31
f 22/28/32 24/27/32 25/29/32
f 22/28/33 26/30/33 23/26/33
f 26/30/34 22/28/34 25/29/34
f 32/31/35 31/32/36 27/33/35
f 34/34/37 27/33/38 28/35/39
f 31/32/40 37/36/41 29/37/42
f 29/37/43 39/38/44 28/35/44
f 41/39/45 27/33/45 40/40/46
f 41/39/47 29/37/48 28/35/49
f 42/41/50 31/32/51 29/37/52
f 40/40/53 31/32/51 42/41/50
f 20/25/28 45/19/54 18/23/55
f 21/24/56 44/42/57 45/19/58
f 47/43/59 49/44/59 53/45/59
f 53/45/60 48/46/61 46/47/62
f 46/47/62 52/48/63 51/49/64
f 53/45/60 46/47/62 51/49/64
f 49/44/65 50/50/66 48/46/61
f 51/49/64 55/51/67 50/50/66
f 50/50/66 55/51/67 48/46/61
f 52/48/68 54/52/68 55/51/68
f 60/53/69 61/54/69 59/55/69
f 45/19/22 19/56/70 43/22/23
f 45/19/54 20/25/28 21/24/27
f 18/23/55 44/42/71 20/25/28
f 44/42/72 21/24/73 43/22/74
f 44/42/75 43/22/29 20/25/28
f 16/21/21 17/20/20 21/24/27
f 21/24/73 17/20/76 43/22/74
f 25/29/77 23/26/77 26/30/77
f 27/33/78 28/35/79 30/57/80
f 30/57/80 28/35/81 29/37/82
f 30/57/80 29/37/82 31/32/83
f 32/31/35 33/58/36 31/32/36
f 34/34/37 35/59/84 27/33/38
f 31/32/40 36/60/85 37/36/41
f 29/37/43 38/61/43 39/38/44
f 31/32/83 27/33/78 30/57/80
f 41/39/45 28/35/86 27/33/45
f 41/39/47 42/41/87 29/37/48
f 40/40/53 27/33/88 31/32/51
f 19/56/89 44/42/90 18/23/26
f 43/22/25 19/56/89 18/23/26
f 18/23/26 45/19/19 16/21/21
f 45/19/58 44/42/57 19/56/91
f 55/51/67 51/49/64 52/48/63
f 50/50/66 54/52/92 51/49/64
f 54/52/93 52/48/93 53/45/93
f 54/52/92 53/45/60 51/49/64
f 46/47/62 47/43/94 52/48/63
f 52/48/95 47/43/95 53/45/95
f 49/44/65 54/52/92 50/50/66
f 49/44/65 48/46/61 53/45/60
f 48/46/61 55/51/67 47/43/94
f 48/46/61 47/43/94 46/47/62
f 55/51/96 54/52/96 49/44/96
f 55/51/97 49/44/97 47/43/97
f 60/53/98 59/55/98 61/54/98
