# Blender v2.90.0 Alpha OBJ File: 'Decos.blend'
# www.blender.org
o Cube.002_Cube.006
v -0.853553 -1.000000 0.853553
v -0.957608 2.484373 0.957608
v -0.853553 -1.000000 -0.853553
v -0.957608 2.484373 -0.957608
v 0.853553 -1.000000 0.853553
v 0.957608 2.484373 0.957608
v 0.853553 -1.000000 -0.853553
v 0.957608 2.484373 -0.957608
v -0.982394 -1.000000 -0.000000
v -1.102155 2.484373 0.000000
v 0.982394 -1.000000 0.000000
v 1.102155 2.484373 -0.000000
v 0.000000 -1.000000 -1.034575
v -0.000000 2.484373 -1.160697
v -0.000000 -1.000000 1.034575
v 0.000000 2.484373 1.160697
v 0.000000 -1.000000 0.000000
v -0.957608 2.696929 0.957608
v -0.957608 2.696929 -0.957608
v 0.957608 2.696929 0.957608
v 0.957608 2.696929 -0.957608
v -1.102155 2.696929 0.000000
v 1.102155 2.696929 -0.000000
v -0.000000 2.696929 -1.160697
v 0.000000 2.696929 1.160697
v 0.000000 2.769209 0.000000
v -0.873288 2.365696 0.873288
v -0.873288 2.365696 -0.873288
v 0.873288 2.365696 -0.873288
v 0.873288 2.365696 0.873288
v 1.005108 2.365696 -0.000000
v -1.005108 2.365696 0.000000
v 0.000000 2.365696 1.058494
v -0.000000 2.365696 -1.058494
vt 0.210938 0.851562
vt 0.210938 0.851562
vt 0.210938 0.851562
vt 0.210938 0.851562
vt 0.210938 0.851562
vt 0.210938 0.851562
vt 0.210938 0.851562
vt 0.210938 0.851562
vt 0.210938 0.851562
vt 0.210938 0.851562
vt 0.210938 0.851562
vt 0.210938 0.851562
vt 0.210938 0.851562
vt 0.210938 0.851562
vt 0.210938 0.851562
vt 0.210938 0.851562
vt 0.210938 0.851562
vt 0.210938 0.851562
vt 0.210938 0.851562
vt 0.210938 0.851562
vt 0.164062 0.773438
vt 0.164062 0.773438
vt 0.164062 0.773438
vt 0.164062 0.773438
vt 0.164062 0.773438
vt 0.164062 0.773438
vt 0.164062 0.773438
vt 0.164062 0.773438
vt 0.210938 0.851562
vt 0.210938 0.851562
vt 0.210938 0.851562
vt 0.210938 0.851562
vt 0.164062 0.773438
vt 0.164062 0.773438
vt 0.164062 0.773438
vt 0.164062 0.773438
vt 0.210938 0.851562
vt 0.164062 0.773438
vt 0.164062 0.773438
vt 0.164062 0.773438
vt 0.164062 0.773438
vt 0.164062 0.773438
vn -0.7689 -0.6288 -0.1161
vn 0.1587 -0.6443 -0.7481
vn 0.7689 -0.6288 0.1161
vn -0.1587 -0.6443 0.7481
vn 0.0000 -1.0000 0.0000
vn -0.2075 0.0000 -0.9782
vn 0.2075 0.0000 0.9782
vn 0.7689 -0.6288 -0.1161
vn -0.7689 -0.6288 0.1161
vn 0.2075 0.0000 -0.9782
vn -0.2075 0.0000 0.9782
vn 0.1587 -0.6443 0.7481
vn -0.1587 -0.6443 -0.7481
vn -0.0387 0.9986 0.0367
vn -0.0387 0.9986 -0.0367
vn 0.0387 0.9986 -0.0367
vn 0.0387 0.9986 0.0367
vn 0.9888 0.0000 0.1493
vn 0.9888 0.0000 -0.1493
vn -0.9888 0.0000 0.1493
vn -0.9888 0.0000 -0.1493
vn -0.2075 -0.0070 -0.9782
vn 0.2075 -0.0070 0.9782
vn -0.9888 -0.0067 0.1493
vn 0.9888 -0.0067 -0.1493
vn -0.2075 -0.0070 0.9782
vn 0.9888 -0.0067 0.1493
vn 0.2075 -0.0070 -0.9782
vn -0.9888 -0.0067 -0.1493
s off
f 32/1/1 10/2/1 4/3/1 28/4/1
f 34/5/2 14/6/2 8/7/2 29/8/2
f 31/9/3 12/10/3 6/11/3 30/12/3
f 33/13/4 16/14/4 2/15/4 27/16/4
f 17/17/5 11/18/5 5/19/5 15/20/5
f 14/21/6 4/22/6 19/23/6 24/24/6
f 16/25/7 6/26/7 20/27/7 25/28/7
f 13/29/5 7/30/5 11/18/5 17/17/5
f 29/8/8 8/7/8 12/10/8 31/9/8
f 27/16/9 2/15/9 10/2/9 32/1/9
f 3/31/5 13/29/5 17/17/5 9/32/5
f 8/33/10 14/21/10 24/24/10 21/34/10
f 2/35/11 16/25/11 25/28/11 18/36/11
f 9/32/5 17/17/5 15/20/5 1/37/5
f 30/12/12 6/11/12 16/14/12 33/13/12
f 28/4/13 4/3/13 14/6/13 34/5/13
f 26/38/14 22/39/14 18/36/14 25/28/14
f 24/24/15 19/23/15 22/39/15 26/38/15
f 21/34/16 24/24/16 26/38/16 23/40/16
f 23/40/17 26/38/17 25/28/17 20/27/17
f 6/26/18 12/41/18 23/40/18 20/27/18
f 12/41/19 8/33/19 21/34/19 23/40/19
f 10/42/20 2/35/20 18/36/20 22/39/20
f 4/22/21 10/42/21 22/39/21 19/23/21
f 3/31/22 28/4/22 34/5/22 13/29/22
f 5/19/23 30/12/23 33/13/23 15/20/23
f 1/37/24 27/16/24 32/1/24 9/32/24
f 7/30/25 29/8/25 31/9/25 11/18/25
f 15/20/26 33/13/26 27/16/26 1/37/26
f 11/18/27 31/9/27 30/12/27 5/19/27
f 13/29/28 34/5/28 29/8/28 7/30/28
f 9/32/29 32/1/29 28/4/29 3/31/29
