# Blender v2.90.0 Alpha OBJ File: ''
# www.blender.org
o Cube.001_Cube.001_Cube.001_Cube.002
v -3.487137 4.979369 3.417728
v -6.117190 8.624389 1.295845
v -5.435775 4.680707 -1.292883
v -0.116941 13.294171 1.750846
v -1.983685 10.615890 -4.216012
v 1.512286 6.952054 5.383001
v 0.898920 5.070015 -4.684038
v 6.578950 6.210503 -0.175431
v 4.461100 11.589937 -1.134826
vt 0.007812 0.710938
vt 0.007812 0.710938
vt 0.007812 0.710938
vt 0.007812 0.710938
vt 0.007812 0.710938
vt 0.007812 0.710938
vt 0.007812 0.710938
vt 0.007812 0.710938
vt 0.007812 0.710938
vn -0.8418 -0.3903 0.3730
vn -0.5979 0.7844 -0.1650
vn 0.0541 -0.9821 0.1803
vn 0.7072 0.3843 0.5934
vn -0.4270 0.2046 0.8808
vn -0.4577 -0.1642 -0.8738
vn 0.0778 -0.9965 0.0310
vn 0.0673 0.9022 -0.4260
vn 0.3086 -0.9382 0.1566
vn 0.5864 0.5107 0.6287
vn -0.3671 0.3894 0.8447
vn 0.6066 0.0981 -0.7890
vn 0.3811 0.2727 -0.8834
vn -0.8171 0.2110 -0.5365
s off
f 1/1/1 2/2/1 3/3/1
f 4/4/2 5/5/2 2/2/2
f 6/6/3 7/7/3 8/8/3
f 9/9/4 6/6/4 8/8/4
f 6/6/5 2/2/5 1/1/5
f 5/5/6 7/7/6 3/3/6
f 1/1/7 3/3/7 7/7/7
f 4/4/8 9/9/8 5/5/8
f 6/6/9 1/1/9 7/7/9
f 9/9/10 4/4/10 6/6/10
f 6/6/11 4/4/11 2/2/11
f 7/7/12 9/9/12 8/8/12
f 7/7/13 5/5/13 9/9/13
f 2/2/14 5/5/14 3/3/14
