# Blender v2.91.0 Beta OBJ File: 'decos.blend'
# www.blender.org
o Cube.003_Cube.008
v 2.517380 11.012553 11.942295
v -2.535408 7.007810 18.925179
v -4.789618 12.168821 18.882143
v 2.503477 17.273455 13.798081
v 2.511081 19.719709 18.934834
v 2.516185 17.451635 23.392853
v 7.732527 17.252710 18.877012
v 9.807001 12.156948 18.909861
v 2.509050 11.606715 25.028811
v 7.567797 7.021156 18.904837
v -2.726609 17.233511 18.854485
v 2.527665 6.446538 14.399506
v 2.508396 6.420874 23.030525
v -6.922458 11.012558 6.416538
v -11.975246 7.007814 13.399416
v -14.229457 12.168827 13.356386
v -6.936360 17.273455 8.272325
v -6.928757 19.719723 13.409068
v -6.923653 17.451635 17.867094
v -1.707310 17.252724 13.351260
v 0.367165 12.156954 13.384102
v -6.930789 11.606722 19.503052
v -1.872039 7.021160 13.379074
v -12.166448 17.233524 13.328733
v -6.912172 6.446544 8.873747
v -6.931441 6.420880 17.504766
v 5.510499 11.012564 0.967526
v 0.457712 7.007820 7.950404
v -1.796498 12.168833 7.907373
v 5.496597 17.273468 2.823313
v 5.504200 19.719723 7.960058
v 5.509305 17.451649 12.418089
v 10.725647 17.252724 7.902248
v 12.800121 12.156960 7.935091
v 5.502170 11.606727 14.054039
v 10.560918 7.021167 7.930062
v 0.266511 17.233524 7.879721
v 5.520785 6.446548 3.424734
v 5.501516 6.420886 12.055750
v -3.775844 11.012570 -4.865220
v -8.828632 7.007823 2.117659
v -11.082844 12.168839 2.074628
v -3.789747 17.273468 -3.009433
v -3.782143 19.719736 2.127312
v -3.777039 17.451649 6.585344
v 1.439304 17.252737 2.069502
v 3.513778 12.156966 2.102345
v -3.784174 11.606732 8.221293
v 1.274574 7.021173 2.097316
v -9.019835 17.233538 2.046976
v -3.765559 6.446552 -2.408011
v -3.784828 6.420892 6.223004
v 4.474169 11.012574 -11.770124
v -0.578619 7.007832 -4.787245
v -2.832830 12.168844 -4.830276
v 4.460266 17.273478 -9.914337
v 4.467870 19.719734 -4.777590
v 4.472974 17.451658 -0.319559
v 9.689317 17.252735 -4.835401
v 11.763791 12.156971 -4.802558
v 4.465839 11.606737 1.316392
v 9.524587 7.021178 -4.807588
v -0.769821 17.233536 -4.857927
v 4.484454 6.446559 -9.312916
v 4.465185 6.420897 -0.681899
v -6.735089 11.012580 -16.164154
v -11.787877 7.007834 -9.181274
v -14.042089 12.168849 -9.224306
v -6.748992 17.273478 -14.308366
v -6.741388 19.719746 -9.171621
v -6.736284 17.451658 -4.713589
v -1.519941 17.252747 -9.229431
v 0.554533 12.156976 -9.196589
v -6.743419 11.606742 -3.077638
v -1.684671 7.021178 -9.201618
v -11.979079 17.233547 -9.251958
v -6.724804 6.446563 -13.706945
v -6.744073 6.420902 -5.075929
vt 0.132812 0.820312
vt 0.132812 0.820312
vt 0.132812 0.820312
vt 0.132812 0.820312
vt 0.132812 0.820312
vt 0.132812 0.820312
vt 0.132812 0.820312
vt 0.132812 0.820312
vt 0.132812 0.820312
vt 0.132812 0.820312
vt 0.132812 0.820312
vt 0.132812 0.820312
vt 0.132812 0.820312
vt 0.132812 0.820312
vt 0.132812 0.820312
vt 0.132812 0.820312
vt 0.132812 0.820312
vt 0.132812 0.820312
vt 0.132812 0.820312
vt 0.132812 0.820312
vt 0.132812 0.820312
vt 0.132812 0.820312
vt 0.132812 0.820312
vt 0.132812 0.820312
vt 0.132812 0.820312
vt 0.132812 0.820312
vt 0.132812 0.820312
vt 0.132812 0.820312
vt 0.132812 0.820312
vt 0.132812 0.820312
vt 0.132812 0.820312
vt 0.132812 0.820312
vt 0.132812 0.820312
vt 0.132812 0.820312
vt 0.132812 0.820312
vt 0.132812 0.820312
vt 0.132812 0.820312
vt 0.132812 0.820312
vt 0.132812 0.820312
vt 0.132812 0.820312
vt 0.132812 0.820312
vt 0.132812 0.820312
vt 0.132812 0.820312
vt 0.132812 0.820312
vt 0.132812 0.820312
vt 0.132812 0.820312
vt 0.132812 0.820312
vt 0.132812 0.820312
vt 0.132812 0.820312
vt 0.132812 0.820312
vt 0.132812 0.820312
vt 0.132812 0.820312
vt 0.132812 0.820312
vt 0.132812 0.820312
vt 0.132812 0.820312
vt 0.132812 0.820312
vt 0.132812 0.820312
vt 0.132812 0.820312
vt 0.132812 0.820312
vt 0.132812 0.820312
vt 0.132812 0.820312
vt 0.132812 0.820312
vt 0.132812 0.820312
vt 0.132812 0.820312
vt 0.132812 0.820312
vt 0.132812 0.820312
vt 0.132812 0.820312
vt 0.132812 0.820312
vt 0.132812 0.820312
vt 0.132812 0.820312
vt 0.132812 0.820312
vt 0.132812 0.820312
vt 0.132812 0.820312
vt 0.132812 0.820312
vt 0.132812 0.820312
vt 0.132812 0.820312
vt 0.132812 0.820312
vt 0.132812 0.820312
vn 0.0011 -0.0992 -0.9951
vn -0.9086 -0.4150 0.0479
vn -0.9995 0.0003 0.0303
vn 0.0001 0.5807 -0.8141
vn -0.0008 0.9999 0.0146
vn -0.0000 0.5661 0.8243
vn 0.7972 0.6030 0.0288
vn 0.9994 0.0004 0.0339
vn -0.0006 -0.0413 0.9991
vn 0.9091 -0.4141 0.0446
vn -0.7977 0.6024 0.0277
vn 0.0010 -0.4739 -0.8806
vn 0.0003 -0.3596 0.9331
s 1
f 1/1/1 2/2/2 3/3/3
f 3/3/3 4/4/4 1/1/1
f 5/5/5 6/6/6 7/7/7
f 4/4/4 8/8/8 1/1/1
f 9/9/9 10/10/10 8/8/8
f 7/7/7 9/9/9 8/8/8
f 4/4/4 11/11/11 5/5/5
f 1/1/1 10/10/10 12/12/12
f 5/5/5 11/11/11 6/6/6
f 9/9/9 2/2/2 13/13/13
f 9/9/9 11/11/11 3/3/3
f 5/5/5 7/7/7 4/4/4
f 14/14/1 15/15/2 16/16/3
f 16/16/3 17/17/4 14/14/1
f 18/18/5 19/19/6 20/20/7
f 17/17/4 21/21/8 14/14/1
f 22/22/9 23/23/10 21/21/8
f 20/20/7 22/22/9 21/21/8
f 17/17/4 24/24/11 18/18/5
f 14/14/1 23/23/10 25/25/12
f 18/18/5 24/24/11 19/19/6
f 22/22/9 15/15/2 26/26/13
f 22/22/9 24/24/11 16/16/3
f 18/18/5 20/20/7 17/17/4
f 27/27/1 28/28/2 29/29/3
f 29/29/3 30/30/4 27/27/1
f 31/31/5 32/32/6 33/33/7
f 30/30/4 34/34/8 27/27/1
f 35/35/9 36/36/10 34/34/8
f 33/33/7 35/35/9 34/34/8
f 30/30/4 37/37/11 31/31/5
f 27/27/1 36/36/10 38/38/12
f 31/31/5 37/37/11 32/32/6
f 35/35/9 28/28/2 39/39/13
f 35/35/9 37/37/11 29/29/3
f 31/31/5 33/33/7 30/30/4
f 40/40/1 41/41/2 42/42/3
f 42/42/3 43/43/4 40/40/1
f 44/44/5 45/45/6 46/46/7
f 43/43/4 47/47/8 40/40/1
f 48/48/9 49/49/10 47/47/8
f 46/46/7 48/48/9 47/47/8
f 43/43/4 50/50/11 44/44/5
f 40/40/1 49/49/10 51/51/12
f 44/44/5 50/50/11 45/45/6
f 48/48/9 41/41/2 52/52/13
f 48/48/9 50/50/11 42/42/3
f 44/44/5 46/46/7 43/43/4
f 53/53/1 54/54/2 55/55/3
f 55/55/3 56/56/4 53/53/1
f 57/57/5 58/58/6 59/59/7
f 56/56/4 60/60/8 53/53/1
f 61/61/9 62/62/10 60/60/8
f 59/59/7 61/61/9 60/60/8
f 56/56/4 63/63/11 57/57/5
f 53/53/1 62/62/10 64/64/12
f 57/57/5 63/63/11 58/58/6
f 61/61/9 54/54/2 65/65/13
f 61/61/9 63/63/11 55/55/3
f 57/57/5 59/59/7 56/56/4
f 66/66/1 67/67/2 68/68/3
f 68/68/3 69/69/4 66/66/1
f 70/70/5 71/71/6 72/72/7
f 69/69/4 73/73/8 66/66/1
f 74/74/9 75/75/10 73/73/8
f 72/72/7 74/74/9 73/73/8
f 69/69/4 76/76/11 70/70/5
f 66/66/1 75/75/10 77/77/12
f 70/70/5 76/76/11 71/71/6
f 74/74/9 67/67/2 78/78/13
f 74/74/9 76/76/11 68/68/3
f 70/70/5 72/72/7 69/69/4
f 1/1/1 12/12/12 2/2/2
f 3/3/3 11/11/11 4/4/4
f 4/4/4 7/7/7 8/8/8
f 9/9/9 13/13/13 10/10/10
f 7/7/7 6/6/6 9/9/9
f 1/1/1 8/8/8 10/10/10
f 9/9/9 3/3/3 2/2/2
f 9/9/9 6/6/6 11/11/11
f 14/14/1 25/25/12 15/15/2
f 16/16/3 24/24/11 17/17/4
f 17/17/4 20/20/7 21/21/8
f 22/22/9 26/26/13 23/23/10
f 20/20/7 19/19/6 22/22/9
f 14/14/1 21/21/8 23/23/10
f 22/22/9 16/16/3 15/15/2
f 22/22/9 19/19/6 24/24/11
f 27/27/1 38/38/12 28/28/2
f 29/29/3 37/37/11 30/30/4
f 30/30/4 33/33/7 34/34/8
f 35/35/9 39/39/13 36/36/10
f 33/33/7 32/32/6 35/35/9
f 27/27/1 34/34/8 36/36/10
f 35/35/9 29/29/3 28/28/2
f 35/35/9 32/32/6 37/37/11
f 40/40/1 51/51/12 41/41/2
f 42/42/3 50/50/11 43/43/4
f 43/43/4 46/46/7 47/47/8
f 48/48/9 52/52/13 49/49/10
f 46/46/7 45/45/6 48/48/9
f 40/40/1 47/47/8 49/49/10
f 48/48/9 42/42/3 41/41/2
f 48/48/9 45/45/6 50/50/11
f 53/53/1 64/64/12 54/54/2
f 55/55/3 63/63/11 56/56/4
f 56/56/4 59/59/7 60/60/8
f 61/61/9 65/65/13 62/62/10
f 59/59/7 58/58/6 61/61/9
f 53/53/1 60/60/8 62/62/10
f 61/61/9 55/55/3 54/54/2
f 61/61/9 58/58/6 63/63/11
f 66/66/1 77/77/12 67/67/2
f 68/68/3 76/76/11 69/69/4
f 69/69/4 72/72/7 73/73/8
f 74/74/9 78/78/13 75/75/10
f 72/72/7 71/71/6 74/74/9
f 66/66/1 73/73/8 75/75/10
f 74/74/9 68/68/3 67/67/2
f 74/74/9 71/71/6 76/76/11
o Cube.003_Cube.001_Cube.003_Cube.010
v 1.972222 2.766991 18.847290
v 2.581078 -3.812254 16.963873
v 0.881619 -3.812255 18.663330
v 3.446151 2.766991 18.847290
v 4.280537 -3.812255 18.663330
v 2.737299 2.432658 19.504055
v 2.581078 -3.812255 20.362789
v 3.700380 9.105114 22.382124
v 2.683438 3.101324 18.190529
v 2.838143 9.342218 15.067420
v -7.467617 2.766997 13.321531
v -6.858760 -3.812248 11.438107
v -8.558220 -3.812249 13.137568
v -5.993687 2.766997 13.321531
v -5.159301 -3.812249 13.137568
v -6.702539 2.432664 13.978296
v -6.858760 -3.812249 14.837029
v -5.739457 9.105120 16.856365
v -6.756401 3.101329 12.664778
v -6.601696 9.342224 9.541659
v 4.965342 2.767003 7.872521
v 5.574198 -3.812243 5.989100
v 3.874739 -3.812243 7.688560
v 6.439270 2.767003 7.872521
v 7.273656 -3.812243 7.688560
v 5.730419 2.432669 8.529284
v 5.574198 -3.812244 9.388014
v 6.693500 9.105125 11.407352
v 5.676558 3.101335 7.215765
v 5.831263 9.342230 4.092643
v -4.321002 2.767009 2.039778
v -3.712147 -3.812237 0.156348
v -5.411605 -3.812237 1.855808
v -2.847073 2.767009 2.039778
v -2.012688 -3.812237 1.855808
v -3.555925 2.432676 2.696539
v -3.712147 -3.812238 3.555267
v -2.592844 9.105131 5.574605
v -3.609786 3.101341 1.383016
v -3.455081 9.342236 -1.740099
v -3.712147 -16.616318 1.855795
v 5.574198 -16.616331 7.688543
v -6.858760 -16.616331 13.137554
v 2.581077 -16.616343 18.663319
v 3.929011 2.767014 -4.865128
v 4.537866 -3.812232 -6.748550
v 2.838408 -3.812232 -5.049089
v 5.402940 2.767014 -4.865128
v 6.237325 -3.812232 -5.049089
v 4.694088 2.432681 -4.208364
v 4.537866 -3.812237 -3.349636
v 5.657169 9.105136 -1.330301
v 4.640227 3.101346 -5.521889
v 4.794932 9.342241 -8.645000
v 4.537866 -16.616320 -5.049109
v -7.280247 2.767015 -9.259157
v -6.671392 -3.812227 -11.142586
v -8.370851 -3.812231 -9.443125
v -5.806318 2.767015 -9.259157
v -4.971933 -3.812231 -9.443125
v -6.515170 2.432683 -8.602394
v -6.671392 -3.812232 -7.743660
v -5.552089 9.105141 -5.724329
v -6.569031 3.101351 -9.915912
v -6.414326 9.342245 -13.039030
v -6.671392 -16.616308 -9.443138
vt 0.179688 0.898438
vt 0.179688 0.898438
vt 0.179688 0.898438
vt 0.179688 0.898438
vt 0.179688 0.898438
vt 0.179688 0.898438
vt 0.179688 0.898438
vt 0.179688 0.898438
vt 0.179688 0.898438
vt 0.179688 0.898438
vt 0.179688 0.898438
vt 0.179688 0.898438
vt 0.179688 0.898438
vt 0.179688 0.898438
vt 0.179688 0.898438
vt 0.179688 0.898438
vt 0.179688 0.898438
vt 0.179688 0.898438
vt 0.179688 0.898438
vt 0.179688 0.898438
vt 0.179688 0.898438
vt 0.179688 0.898438
vt 0.179688 0.898438
vt 0.179688 0.898438
vt 0.179688 0.898438
vt 0.179688 0.898438
vt 0.179688 0.898438
vt 0.179688 0.898438
vt 0.179688 0.898438
vt 0.179688 0.898438
vt 0.179688 0.898438
vt 0.179688 0.898438
vt 0.179688 0.898438
vt 0.179688 0.898438
vt 0.179688 0.898438
vt 0.179688 0.898438
vt 0.179688 0.898438
vt 0.179688 0.898438
vt 0.179688 0.898438
vt 0.179688 0.898438
vt 0.179688 0.898438
vt 0.179688 0.898438
vt 0.179688 0.898438
vt 0.179688 0.898438
vt 0.179688 0.898438
vt 0.179688 0.898438
vt 0.179688 0.898438
vt 0.179688 0.898438
vt 0.179688 0.898438
vt 0.179688 0.898438
vt 0.179688 0.898438
vt 0.179688 0.898438
vt 0.179688 0.898438
vt 0.179688 0.898438
vt 0.179688 0.898438
vt 0.179688 0.898438
vt 0.179688 0.898438
vt 0.179688 0.898438
vt 0.179688 0.898438
vt 0.179688 0.898438
vt 0.179688 0.898438
vt 0.179688 0.898438
vt 0.179688 0.898438
vt 0.179688 0.898438
vt 0.179688 0.898438
vt 0.179688 0.898438
vn -0.7047 0.1342 -0.6967
vn -0.7011 0.1355 -0.7001
vn -0.7006 0.1357 -0.7006
vn 0.7002 0.1099 -0.7054
vn 0.6820 0.1170 -0.7220
vn 0.7029 0.1088 -0.7029
vn -0.6429 0.0886 0.7608
vn -0.6946 0.1107 0.7108
vn -0.7025 0.1142 0.7025
vn 0.7198 -0.3599 0.5936
vn 0.6949 0.3288 -0.6396
vn -0.6872 -0.2018 0.6978
vn -0.5312 -0.3686 -0.7629
vn 0.4687 0.4724 0.7464
vn 0.4913 -0.3995 -0.7740
vn -0.4337 0.4913 0.7553
vn -0.7059 0.4820 -0.5191
vn 0.7005 0.0776 0.7094
vn 0.6703 0.0661 0.7391
vn 0.7049 0.0793 0.7049
vn 0.7003 0.1099 -0.7054
vn 0.6532 -0.0266 -0.7567
vn 0.7567 -0.0266 -0.6532
vn 0.5368 0.6640 -0.5205
vn 0.5352 0.6640 -0.5222
vn 0.5527 0.6633 -0.5046
vn 0.5219 0.6640 -0.5355
vn 0.7567 -0.0266 0.6532
vn 0.6532 -0.0266 0.7567
vn 0.5205 0.6640 0.5368
vn 0.5222 0.6640 0.5352
vn 0.5046 0.6633 0.5527
vn -0.6532 -0.0266 0.7567
vn -0.7567 -0.0266 0.6532
vn -0.5368 0.6640 0.5205
vn 0.5355 0.6640 0.5219
vn -0.5352 0.6640 0.5222
vn -0.7567 -0.0266 -0.6532
vn -0.6532 -0.0266 -0.7567
vn -0.5205 0.6640 -0.5368
vn -0.5527 0.6633 0.5046
vn -0.5222 0.6640 -0.5352
vn -0.5219 0.6640 0.5355
vn -0.5046 0.6633 -0.5527
vn -0.5355 0.6640 -0.5219
vn -0.7056 0.1339 -0.6959
vn 0.6773 0.1188 -0.7261
vn 0.6820 0.1170 -0.7219
vn -0.6281 0.0825 0.7737
vn 0.6621 0.0631 0.7467
s 1
f 79/79/14 80/80/15 81/81/16
f 80/80/17 82/82/18 83/83/19
f 84/84/20 81/81/21 85/85/22
f 82/82/23 86/86/23 84/84/23
f 87/87/24 86/86/24 82/82/24
f 84/84/25 86/86/25 79/79/25
f 87/87/26 79/79/26 88/88/26
f 84/84/27 82/82/27 88/88/27
f 82/82/28 87/87/28 88/88/28
f 79/79/29 84/84/29 88/88/29
f 79/79/30 86/86/30 87/87/30
f 83/83/31 84/84/32 85/85/33
f 89/89/14 90/90/15 91/91/16
f 90/90/17 92/92/18 93/93/19
f 94/94/20 91/91/21 95/95/22
f 92/92/23 96/96/23 94/94/23
f 97/97/24 96/96/24 92/92/24
f 94/94/25 96/96/25 89/89/25
f 97/97/26 89/89/26 98/98/26
f 94/94/27 92/92/27 98/98/27
f 92/92/28 97/97/28 98/98/28
f 89/89/29 94/94/29 98/98/29
f 89/89/30 96/96/30 97/97/30
f 93/93/31 94/94/32 95/95/33
f 99/99/14 100/100/15 101/101/16
f 100/100/34 102/102/18 103/103/19
f 104/104/20 101/101/21 105/105/22
f 102/102/23 106/106/23 104/104/23
f 107/107/24 106/106/24 102/102/24
f 104/104/25 106/106/25 99/99/25
f 107/107/26 99/99/26 108/108/26
f 104/104/27 102/102/27 108/108/27
f 102/102/28 107/107/28 108/108/28
f 99/99/29 104/104/29 108/108/29
f 99/99/30 106/106/30 107/107/30
f 103/103/31 104/104/32 105/105/33
f 109/109/14 110/110/15 111/111/16
f 110/110/34 112/112/18 113/113/19
f 114/114/20 111/111/21 115/115/22
f 112/112/23 116/116/23 114/114/23
f 117/117/24 116/116/24 112/112/24
f 114/114/25 116/116/25 109/109/25
f 117/117/26 109/109/26 118/118/26
f 114/114/27 112/112/27 118/118/27
f 112/112/28 117/117/28 118/118/28
f 109/109/29 114/114/29 118/118/29
f 109/109/30 116/116/30 117/117/30
f 113/113/31 114/114/32 115/115/33
f 110/110/35 113/113/36 119/119/37
f 100/100/35 103/103/36 120/120/38
f 90/90/35 93/93/36 121/121/39
f 80/80/35 83/83/36 122/122/40
f 113/113/41 115/115/42 119/119/43
f 103/103/41 105/105/42 120/120/44
f 93/93/41 95/95/42 121/121/45
f 115/115/46 111/111/47 119/119/48
f 83/83/41 85/85/42 122/122/49
f 105/105/46 101/101/47 120/120/50
f 111/111/51 110/110/52 119/119/53
f 95/95/46 91/91/47 121/121/54
f 101/101/51 100/100/52 120/120/55
f 85/85/46 81/81/47 122/122/56
f 91/91/51 90/90/52 121/121/57
f 81/81/51 80/80/52 122/122/58
f 123/123/14 124/124/15 125/125/16
f 124/124/34 126/126/18 127/127/19
f 128/128/20 125/125/21 129/129/22
f 126/126/23 130/130/23 128/128/23
f 131/131/24 130/130/24 126/126/24
f 128/128/25 130/130/25 123/123/25
f 131/131/26 123/123/26 132/132/26
f 128/128/27 126/126/27 132/132/27
f 126/126/28 131/131/28 132/132/28
f 123/123/29 128/128/29 132/132/29
f 123/123/30 130/130/30 131/131/30
f 127/127/31 128/128/32 129/129/33
f 124/124/35 127/127/36 133/133/37
f 127/127/41 129/129/42 133/133/43
f 129/129/46 125/125/47 133/133/48
f 125/125/51 124/124/52 133/133/53
f 134/134/14 135/135/15 136/136/16
f 135/135/34 137/137/18 138/138/19
f 139/139/20 136/136/21 140/140/22
f 137/137/23 141/141/23 139/139/23
f 142/142/24 141/141/24 137/137/24
f 139/139/25 141/141/25 134/134/25
f 142/142/26 134/134/26 143/143/26
f 139/139/27 137/137/27 143/143/27
f 137/137/28 142/142/28 143/143/28
f 134/134/29 139/139/29 143/143/29
f 134/134/30 141/141/30 142/142/30
f 138/138/31 139/139/32 140/140/33
f 135/135/35 138/138/36 144/144/37
f 138/138/41 140/140/42 144/144/43
f 140/140/46 136/136/47 144/144/48
f 136/136/51 135/135/52 144/144/53
f 79/79/14 87/87/59 80/80/15
f 80/80/17 87/87/60 82/82/61
f 84/84/20 79/79/62 81/81/21
f 83/83/31 82/82/63 84/84/32
f 89/89/14 97/97/59 90/90/15
f 90/90/17 97/97/60 92/92/61
f 94/94/20 89/89/62 91/91/21
f 93/93/31 92/92/63 94/94/32
f 99/99/14 107/107/59 100/100/15
f 100/100/34 107/107/60 102/102/61
f 104/104/20 99/99/62 101/101/21
f 103/103/31 102/102/63 104/104/32
f 109/109/14 117/117/59 110/110/15
f 110/110/34 117/117/60 112/112/61
f 114/114/20 109/109/62 111/111/21
f 113/113/31 112/112/63 114/114/32
f 123/123/14 131/131/59 124/124/15
f 124/124/34 131/131/60 126/126/61
f 128/128/20 123/123/62 125/125/21
f 127/127/31 126/126/63 128/128/32
f 134/134/14 142/142/59 135/135/15
f 135/135/34 142/142/60 137/137/18
f 139/139/20 134/134/62 136/136/21
f 138/138/31 137/137/63 139/139/32
