# Blender v2.91.0 Beta OBJ File: 'decos.blend'
# www.blender.org
o Cube.003_Cube.014
v 4.310861 11.012563 2.795539
v -0.741927 7.007820 9.778418
v -2.996137 12.168827 9.735387
v 4.296958 17.273466 4.651325
v 4.304562 19.719723 9.788070
v 4.309666 17.451649 14.246102
v 9.526009 17.252724 9.730261
v 11.600483 12.156954 9.763103
v 4.302531 11.606722 15.882053
v 9.361279 7.021167 9.758076
v -0.933128 17.233524 9.707733
v 4.321146 6.446545 5.252749
v 4.301877 6.420885 13.883759
v -5.128977 11.012562 -2.730219
v -10.181765 7.007823 4.252660
v -12.435975 12.168832 4.209629
v -5.142879 17.273466 -0.874433
v -5.135276 19.719734 4.262313
v -5.130172 17.451649 8.720343
v 0.086171 17.252735 4.204502
v 2.160646 12.156959 4.237346
v -5.137307 11.606727 10.356295
v -0.078558 7.021172 4.232318
v -10.372966 17.233536 4.181976
v -5.118691 6.446550 -0.273009
v -5.137960 6.420890 8.358006
v 7.303981 11.012567 -8.179232
v 2.251193 7.007826 -1.196352
v -0.003017 12.168837 -1.239384
v 7.290078 17.273478 -6.323445
v 7.297682 19.719734 -1.186700
v 7.302786 17.451660 3.271332
v 12.519129 17.252735 -1.244510
v 14.593603 12.156964 -1.211666
v 7.295651 11.606731 4.907283
v 12.354400 7.021172 -1.216694
v 2.059992 17.233536 -1.267037
v 7.314266 6.446555 -5.722022
v 7.294997 6.420896 2.908994
v -1.982363 11.012572 -14.011978
v -7.035151 7.007831 -7.029098
v -9.289362 12.168842 -7.072129
v -1.996266 17.273478 -12.156191
v -1.988662 19.719746 -7.019444
v -1.983558 17.451660 -2.561414
v 3.232785 17.252747 -7.077256
v 5.307259 12.156969 -7.044412
v -1.990693 11.606736 -0.925462
v 3.068055 7.021177 -7.049440
v -7.226353 17.233547 -7.099782
v -1.972078 6.446560 -11.554770
v -1.991347 6.420897 -2.923752
v 3.765703 2.766998 9.700535
v 4.374559 -3.812243 7.817117
v 2.675100 -3.812248 9.516571
v 5.239632 2.766998 9.700535
v 6.074018 -3.812248 9.516571
v 4.530780 2.432665 10.357300
v 4.374559 -3.812248 11.216030
v 5.493861 9.105125 13.235367
v 4.476919 3.101334 9.043780
v 4.631624 9.342229 5.920660
v -5.674135 2.767003 4.174778
v -5.065279 -3.812238 2.291353
v -6.764738 -3.812243 3.990812
v -4.200206 2.767003 4.174778
v -3.365820 -3.812243 3.990812
v -4.909058 2.432670 4.831542
v -5.065279 -3.812243 5.690276
v -3.945976 9.105130 7.709604
v -4.962919 3.101340 3.518018
v -4.808214 9.342234 0.394904
v 6.758823 2.767008 -1.274235
v 7.367679 -3.812238 -3.157660
v 5.668220 -3.812238 -1.458200
v 8.232752 2.767008 -1.274235
v 9.067138 -3.812238 -1.458200
v 7.523900 2.432675 -0.617471
v 7.367679 -3.812238 0.241259
v 8.486981 9.105135 2.260592
v 7.470039 3.101340 -1.930995
v 7.624744 9.342239 -5.054111
v -2.527521 2.767013 -7.106977
v -1.918666 -3.812232 -8.990406
v -3.618124 -3.812233 -7.290946
v -1.053592 2.767013 -7.106977
v -0.219207 -3.812233 -7.290946
v -1.762444 2.432680 -6.450212
v -1.918666 -3.812233 -5.591486
v -0.799363 9.105140 -3.572153
v -1.816305 3.101345 -7.763741
v -1.661600 9.342243 -10.886854
v -1.918666 -16.616308 -7.290957
v 7.367679 -16.616320 -1.458210
v -5.065279 -16.616320 3.990802
v 4.374558 -16.616329 9.516562
vt 0.132812 0.820312
vt 0.132812 0.820312
vt 0.132812 0.820312
vt 0.132812 0.820312
vt 0.132812 0.820312
vt 0.132812 0.820312
vt 0.132812 0.820312
vt 0.132812 0.820312
vt 0.132812 0.820312
vt 0.132812 0.820312
vt 0.132812 0.820312
vt 0.132812 0.820312
vt 0.132812 0.820312
vt 0.132812 0.820312
vt 0.132812 0.820312
vt 0.132812 0.820312
vt 0.132812 0.820312
vt 0.132812 0.820312
vt 0.132812 0.820312
vt 0.132812 0.820312
vt 0.132812 0.820312
vt 0.132812 0.820312
vt 0.132812 0.820312
vt 0.132812 0.820312
vt 0.132812 0.820312
vt 0.132812 0.820312
vt 0.132812 0.820312
vt 0.132812 0.820312
vt 0.132812 0.820312
vt 0.132812 0.820312
vt 0.132812 0.820312
vt 0.132812 0.820312
vt 0.132812 0.820312
vt 0.132812 0.820312
vt 0.132812 0.820312
vt 0.132812 0.820312
vt 0.132812 0.820312
vt 0.132812 0.820312
vt 0.132812 0.820312
vt 0.132812 0.820312
vt 0.132812 0.820312
vt 0.132812 0.820312
vt 0.132812 0.820312
vt 0.132812 0.820312
vt 0.132812 0.820312
vt 0.132812 0.820312
vt 0.132812 0.820312
vt 0.132812 0.820312
vt 0.132812 0.820312
vt 0.132812 0.820312
vt 0.132812 0.820312
vt 0.132812 0.820312
vt 0.179688 0.898438
vt 0.179688 0.898438
vt 0.179688 0.898438
vt 0.179688 0.898438
vt 0.179688 0.898438
vt 0.179688 0.898438
vt 0.179688 0.898438
vt 0.179688 0.898438
vt 0.179688 0.898438
vt 0.179688 0.898438
vt 0.179688 0.898438
vt 0.179688 0.898438
vt 0.179688 0.898438
vt 0.179688 0.898438
vt 0.179688 0.898438
vt 0.179688 0.898438
vt 0.179688 0.898438
vt 0.179688 0.898438
vt 0.179688 0.898438
vt 0.179688 0.898438
vt 0.179688 0.898438
vt 0.179688 0.898438
vt 0.179688 0.898438
vt 0.179688 0.898438
vt 0.179688 0.898438
vt 0.179688 0.898438
vt 0.179688 0.898438
vt 0.179688 0.898438
vt 0.179688 0.898438
vt 0.179688 0.898438
vt 0.179688 0.898438
vt 0.179688 0.898438
vt 0.179688 0.898438
vt 0.179688 0.898438
vt 0.179688 0.898438
vt 0.179688 0.898438
vt 0.179688 0.898438
vt 0.179688 0.898438
vt 0.179688 0.898438
vt 0.179688 0.898438
vt 0.179688 0.898438
vt 0.179688 0.898438
vt 0.179688 0.898438
vt 0.179688 0.898438
vn 0.0011 -0.0992 -0.9951
vn -0.9086 -0.4150 0.0479
vn -0.9995 0.0003 0.0303
vn 0.0001 0.5807 -0.8141
vn -0.0008 0.9999 0.0146
vn -0.0000 0.5661 0.8243
vn 0.7972 0.6030 0.0288
vn 0.9994 0.0004 0.0339
vn -0.0006 -0.0413 0.9991
vn 0.9091 -0.4141 0.0446
vn -0.7977 0.6024 0.0277
vn 0.0010 -0.4739 -0.8806
vn 0.0003 -0.3596 0.9331
vn -0.7047 0.1342 -0.6967
vn -0.7011 0.1355 -0.7001
vn -0.7006 0.1357 -0.7006
vn 0.7002 0.1099 -0.7054
vn 0.6820 0.1170 -0.7220
vn 0.7029 0.1088 -0.7029
vn -0.6429 0.0886 0.7608
vn -0.6946 0.1107 0.7108
vn -0.7025 0.1142 0.7025
vn 0.7198 -0.3599 0.5936
vn 0.6949 0.3288 -0.6396
vn -0.6872 -0.2018 0.6978
vn -0.5312 -0.3686 -0.7629
vn 0.4687 0.4724 0.7464
vn 0.4913 -0.3995 -0.7740
vn -0.4337 0.4913 0.7553
vn -0.7059 0.4820 -0.5191
vn 0.7005 0.0776 0.7094
vn 0.6703 0.0661 0.7391
vn 0.7049 0.0793 0.7049
vn 0.7003 0.1099 -0.7054
vn 0.7003 0.1099 -0.7053
vn 0.6532 -0.0266 -0.7567
vn 0.7567 -0.0266 -0.6532
vn 0.5368 0.6640 -0.5205
vn 0.5352 0.6640 -0.5222
vn 0.5527 0.6633 -0.5046
vn 0.5219 0.6640 -0.5355
vn 0.7567 -0.0266 0.6532
vn 0.6532 -0.0266 0.7567
vn 0.5205 0.6640 0.5368
vn 0.5222 0.6640 0.5352
vn 0.5046 0.6633 0.5527
vn -0.6532 -0.0266 0.7567
vn -0.7567 -0.0266 0.6532
vn -0.5368 0.6640 0.5205
vn 0.5355 0.6640 0.5219
vn -0.5352 0.6640 0.5222
vn -0.7567 -0.0266 -0.6532
vn -0.6532 -0.0266 -0.7567
vn -0.5205 0.6640 -0.5368
vn -0.5527 0.6633 0.5046
vn -0.5222 0.6640 -0.5352
vn -0.5219 0.6640 0.5355
vn -0.5046 0.6633 -0.5527
vn -0.5355 0.6640 -0.5219
vn -0.7056 0.1339 -0.6959
vn 0.6773 0.1188 -0.7261
vn 0.6820 0.1170 -0.7219
vn -0.6281 0.0825 0.7737
vn 0.6621 0.0631 0.7467
s 1
f 1/1/1 2/2/2 3/3/3
f 3/3/3 4/4/4 1/1/1
f 5/5/5 6/6/6 7/7/7
f 4/4/4 8/8/8 1/1/1
f 9/9/9 10/10/10 8/8/8
f 7/7/7 9/9/9 8/8/8
f 4/4/4 11/11/11 5/5/5
f 1/1/1 10/10/10 12/12/12
f 5/5/5 11/11/11 6/6/6
f 9/9/9 2/2/2 13/13/13
f 9/9/9 11/11/11 3/3/3
f 5/5/5 7/7/7 4/4/4
f 14/14/1 15/15/2 16/16/3
f 16/16/3 17/17/4 14/14/1
f 18/18/5 19/19/6 20/20/7
f 17/17/4 21/21/8 14/14/1
f 22/22/9 23/23/10 21/21/8
f 20/20/7 22/22/9 21/21/8
f 17/17/4 24/24/11 18/18/5
f 14/14/1 23/23/10 25/25/12
f 18/18/5 24/24/11 19/19/6
f 22/22/9 15/15/2 26/26/13
f 22/22/9 24/24/11 16/16/3
f 18/18/5 20/20/7 17/17/4
f 27/27/1 28/28/2 29/29/3
f 29/29/3 30/30/4 27/27/1
f 31/31/5 32/32/6 33/33/7
f 30/30/4 34/34/8 27/27/1
f 35/35/9 36/36/10 34/34/8
f 33/33/7 35/35/9 34/34/8
f 30/30/4 37/37/11 31/31/5
f 27/27/1 36/36/10 38/38/12
f 31/31/5 37/37/11 32/32/6
f 35/35/9 28/28/2 39/39/13
f 35/35/9 37/37/11 29/29/3
f 31/31/5 33/33/7 30/30/4
f 40/40/1 41/41/2 42/42/3
f 42/42/3 43/43/4 40/40/1
f 44/44/5 45/45/6 46/46/7
f 43/43/4 47/47/8 40/40/1
f 48/48/9 49/49/10 47/47/8
f 46/46/7 48/48/9 47/47/8
f 43/43/4 50/50/11 44/44/5
f 40/40/1 49/49/10 51/51/12
f 44/44/5 50/50/11 45/45/6
f 48/48/9 41/41/2 52/52/13
f 48/48/9 50/50/11 42/42/3
f 44/44/5 46/46/7 43/43/4
f 1/1/1 12/12/12 2/2/2
f 3/3/3 11/11/11 4/4/4
f 4/4/4 7/7/7 8/8/8
f 9/9/9 13/13/13 10/10/10
f 7/7/7 6/6/6 9/9/9
f 1/1/1 8/8/8 10/10/10
f 9/9/9 3/3/3 2/2/2
f 9/9/9 6/6/6 11/11/11
f 14/14/1 25/25/12 15/15/2
f 16/16/3 24/24/11 17/17/4
f 17/17/4 20/20/7 21/21/8
f 22/22/9 26/26/13 23/23/10
f 20/20/7 19/19/6 22/22/9
f 14/14/1 21/21/8 23/23/10
f 22/22/9 16/16/3 15/15/2
f 22/22/9 19/19/6 24/24/11
f 27/27/1 38/38/12 28/28/2
f 29/29/3 37/37/11 30/30/4
f 30/30/4 33/33/7 34/34/8
f 35/35/9 39/39/13 36/36/10
f 33/33/7 32/32/6 35/35/9
f 27/27/1 34/34/8 36/36/10
f 35/35/9 29/29/3 28/28/2
f 35/35/9 32/32/6 37/37/11
f 40/40/1 51/51/12 41/41/2
f 42/42/3 50/50/11 43/43/4
f 43/43/4 46/46/7 47/47/8
f 48/48/9 52/52/13 49/49/10
f 46/46/7 45/45/6 48/48/9
f 40/40/1 47/47/8 49/49/10
f 48/48/9 42/42/3 41/41/2
f 48/48/9 45/45/6 50/50/11
f 53/53/14 54/54/15 55/55/16
f 54/54/17 56/56/18 57/57/19
f 58/58/20 55/55/21 59/59/22
f 56/56/23 60/60/23 58/58/23
f 61/61/24 60/60/24 56/56/24
f 58/58/25 60/60/25 53/53/25
f 61/61/26 53/53/26 62/62/26
f 58/58/27 56/56/27 62/62/27
f 56/56/28 61/61/28 62/62/28
f 53/53/29 58/58/29 62/62/29
f 53/53/30 60/60/30 61/61/30
f 57/57/31 58/58/32 59/59/33
f 63/63/14 64/64/15 65/65/16
f 64/64/17 66/66/18 67/67/19
f 68/68/20 65/65/21 69/69/22
f 66/66/23 70/70/23 68/68/23
f 71/71/24 70/70/24 66/66/24
f 68/68/25 70/70/25 63/63/25
f 71/71/26 63/63/26 72/72/26
f 68/68/27 66/66/27 72/72/27
f 66/66/28 71/71/28 72/72/28
f 63/63/29 68/68/29 72/72/29
f 63/63/30 70/70/30 71/71/30
f 67/67/31 68/68/32 69/69/33
f 73/73/14 74/74/15 75/75/16
f 74/74/34 76/76/18 77/77/19
f 78/78/20 75/75/21 79/79/22
f 76/76/23 80/80/23 78/78/23
f 81/81/24 80/80/24 76/76/24
f 78/78/25 80/80/25 73/73/25
f 81/81/26 73/73/26 82/82/26
f 78/78/27 76/76/27 82/82/27
f 76/76/28 81/81/28 82/82/28
f 73/73/29 78/78/29 82/82/29
f 73/73/30 80/80/30 81/81/30
f 77/77/31 78/78/32 79/79/33
f 83/83/14 84/84/15 85/85/16
f 84/84/35 86/86/18 87/87/19
f 88/88/20 85/85/21 89/89/22
f 86/86/23 90/90/23 88/88/23
f 91/91/24 90/90/24 86/86/24
f 88/88/25 90/90/25 83/83/25
f 91/91/26 83/83/26 92/92/26
f 88/88/27 86/86/27 92/92/27
f 86/86/28 91/91/28 92/92/28
f 83/83/29 88/88/29 92/92/29
f 83/83/30 90/90/30 91/91/30
f 87/87/31 88/88/32 89/89/33
f 84/84/36 87/87/37 93/93/38
f 74/74/36 77/77/37 94/94/39
f 64/64/36 67/67/37 95/95/40
f 54/54/36 57/57/37 96/96/41
f 87/87/42 89/89/43 93/93/44
f 77/77/42 79/79/43 94/94/45
f 67/67/42 69/69/43 95/95/46
f 89/89/47 85/85/48 93/93/49
f 57/57/42 59/59/43 96/96/50
f 79/79/47 75/75/48 94/94/51
f 85/85/52 84/84/53 93/93/54
f 69/69/47 65/65/48 95/95/55
f 75/75/52 74/74/53 94/94/56
f 59/59/47 55/55/48 96/96/57
f 65/65/52 64/64/53 95/95/58
f 55/55/52 54/54/53 96/96/59
f 53/53/14 61/61/60 54/54/15
f 54/54/17 61/61/61 56/56/62
f 58/58/20 53/53/63 55/55/21
f 57/57/31 56/56/64 58/58/32
f 63/63/14 71/71/60 64/64/15
f 64/64/17 71/71/61 66/66/62
f 68/68/20 63/63/63 65/65/21
f 67/67/31 66/66/64 68/68/32
f 73/73/14 81/81/60 74/74/15
f 74/74/34 81/81/61 76/76/18
f 78/78/20 73/73/63 75/75/21
f 77/77/31 76/76/64 78/78/32
f 83/83/14 91/91/60 84/84/15
f 84/84/34 91/91/61 86/86/62
f 88/88/20 83/83/63 85/85/21
f 87/87/31 86/86/64 88/88/32
