# Blender v2.91.0 Beta OBJ File: 'decos.blend'
# www.blender.org
o Cube.003_Cube.036
v -4.738163 17.577517 0.175606
v -0.069997 19.719732 0.271467
v -0.066015 16.992632 -5.198001
v -0.059232 12.189984 -6.637074
v -0.064351 6.724111 0.109576
v -6.597617 13.031887 0.252374
v 4.595021 17.571508 0.197068
v -0.071342 17.293192 4.935043
v 6.459574 13.032609 0.263857
v -0.071677 12.468655 6.394852
vt 0.257812 0.835938
vt 0.257812 0.835938
vt 0.257812 0.835938
vt 0.257812 0.835938
vt 0.257812 0.835938
vt 0.257812 0.835938
vt 0.257812 0.835938
vt 0.257812 0.835938
vt 0.257812 0.835938
vt 0.257812 0.835938
vn -0.7928 0.6093 0.0118
vn 0.0005 0.9999 0.0118
vn 0.0007 0.5704 -0.8214
vn 0.0014 -0.3620 -0.9322
vn 0.3589 -0.9334 -0.0006
vn -0.9782 -0.1979 -0.0630
vn 0.7928 0.6093 0.0147
vn -0.0006 0.5741 0.8188
vn 0.9732 -0.1938 0.1236
vn -0.0006 -0.3358 0.9419
s 1
f 1/1/1 2/2/2 3/3/3
f 4/4/4 5/5/5 6/6/6
f 7/7/7 2/2/2 8/8/8
f 2/2/2 7/7/7 3/3/3
f 8/8/8 2/2/2 1/1/1
f 9/9/9 10/10/10 5/5/5
f 4/4/4 9/9/9 5/5/5
f 10/10/10 6/6/6 5/5/5
f 8/8/8 1/1/1 6/6/6 10/10/10
f 3/3/3 7/7/7 9/9/9 4/4/4
f 7/7/7 8/8/8 10/10/10 9/9/9
f 3/3/3 4/4/4 6/6/6 1/1/1
