# Blender v2.91.0 Beta OBJ File: 'decos.blend'
# www.blender.org
o Cube.001_Cube.001_Cube.001_Cube.006
v 2.227889 12.105542 -0.383614
v 2.386589 10.810696 -2.603859
v 0.485873 10.883814 -1.963958
v 0.966235 7.298316 1.573614
v -0.527162 8.473405 2.026192
v -1.435605 8.093207 0.020001
v 0.845425 11.097654 2.029589
v 0.318338 11.479382 0.056531
v -0.566791 10.361816 1.424985
v -1.532786 10.124877 0.052317
v -0.610948 8.803851 -1.870218
v 1.642907 7.227336 -1.945939
v 1.784931 6.802752 -0.389289
v 3.793560 11.729565 -0.248960
v 1.839174 8.771043 -3.112836
v 3.069224 11.680103 1.589102
v 5.334153 10.511708 0.043732
v 4.058666 7.986854 -2.189170
v 4.803412 6.565510 0.050259
v 4.297264 8.900678 2.356705
v 5.944968 7.846205 0.050165
v 3.058694 7.152844 2.041374
v 2.371337 10.822115 2.701555
v 1.837672 8.737373 3.200827
v 4.243188 10.260905 -1.903185
v -1.041853 15.963270 -0.383613
v -0.490457 14.780994 -2.603857
v -2.320593 14.262661 -1.963957
v -0.754836 10.264942 1.573616
v -2.538450 11.127601 2.026195
v -3.284762 10.766861 0.020004
v -2.044808 14.577222 2.029589
v -2.664114 14.776322 0.056532
v -3.160197 13.322221 1.424985
v -4.005546 12.650862 0.052317
v -2.720330 11.188891 -1.870216
v -0.089389 10.592774 -1.945937
v 0.176991 9.875664 -0.389286
v 0.563335 16.089968 -0.248957
v -0.380193 11.889595 -3.112834
v -0.110188 15.818903 1.589106
v 2.405058 15.362910 0.043736
v 1.973014 11.748047 -2.189167
v 3.120846 11.271523 0.050262
v 1.917280 13.261461 2.356707
v 3.810328 11.971032 0.050169
v 1.280019 10.897617 2.041376
v -0.508493 14.786843 2.701555
v -0.371209 12.102635 3.200829
v 1.445157 14.820633 -1.903184
v -4.628363 10.459256 -0.307669
v -3.936831 9.638600 -2.134139
v -5.279099 8.834345 -1.607730
v -3.336024 6.580308 1.302434
v -4.893175 6.718337 1.674744
v -5.348046 6.047957 0.024364
v -5.127557 9.143326 1.677537
v -5.662299 9.169301 0.054413
v -6.344707 7.530173 0.223976
v -5.099473 6.908309 -1.530615
v -2.837955 6.835661 -1.592906
v -2.549205 6.607028 -0.312334
v -2.495887 11.009481 -0.058108
v -3.396846 7.987360 -2.552847
v -1.515255 8.445090 -1.792998
v -0.363123 7.800801 0.049256
v -3.857483 10.544464 1.315178
v -1.761771 9.181901 1.946642
v -0.152554 9.196342 0.049179
v -1.829134 7.420928 1.687235
v -3.952472 9.639609 2.230329
v -3.382744 7.963490 2.641053
v -2.410626 10.094640 -1.557734
v -0.628921 11.023415 2.279805
v -0.191276 10.085036 0.517587
v -1.643865 9.673633 1.025479
v -0.401114 7.085258 3.833268
v -1.816779 7.605597 4.192483
v -2.409131 7.095623 2.600158
v -1.424974 9.923296 4.195179
v -1.916519 10.082035 2.629152
v -2.964540 8.726977 2.792748
v -1.961138 7.834449 1.099880
v 0.127053 7.197793 1.039780
v 0.338480 6.912186 2.275304
v 1.495785 10.999395 2.520587
v -0.103759 8.411143 0.113608
v 1.763994 8.364094 0.846727
v 2.675035 7.474102 2.624174
v 0.110545 10.908828 3.845563
v 1.719758 9.112409 4.454813
v 3.222281 8.720989 2.624100
v 1.213960 7.489119 4.204533
v -0.205592 10.089911 4.728519
v -0.096628 8.385363 5.124796
v 1.345030 10.125823 1.073715
v -0.524864 10.932337 -2.637548
v -0.087220 9.993961 -4.399768
v -1.539810 9.582557 -3.891875
v -0.297059 6.994182 -1.084085
v -1.712724 7.514522 -0.724870
v -2.305076 7.004549 -2.317196
v -1.320919 9.832221 -0.722175
v -1.812464 9.990956 -2.288202
v -2.860485 8.635900 -2.124604
v -1.857083 7.743371 -3.817474
v 0.231108 7.106718 -3.877573
v 0.442535 6.821108 -2.642049
v 1.599840 10.908318 -2.396766
v 0.000296 8.320068 -4.803746
v 1.868049 8.273019 -4.070627
v 2.779090 7.383029 -2.293179
v 0.214600 10.817752 -1.071791
v 1.823813 9.021335 -0.462542
v 3.326336 8.629910 -2.293254
v 1.318015 7.398041 -0.712821
v -0.101536 9.998834 -0.188832
v 0.007427 8.294288 0.207443
v 1.449085 10.034748 -3.843638
v 0.000000 -2.114860 1.264325
v 0.634736 1.461396 -0.043914
v -0.028033 1.745746 0.631044
v -0.028406 1.755250 -0.682647
v 0.250955 4.866182 -0.082152
v 0.466695 4.857839 -0.471722
v -1.264326 -2.114860 -0.000000
v -0.596590 2.137741 -0.015225
v 0.000000 -2.114860 -1.264326
v 1.264326 -2.114860 -0.000000
v 1.696751 9.858761 0.091532
v 1.406609 10.098566 -0.276399
v 0.466164 4.855389 0.281114
v 0.684760 4.868540 -0.109663
v 1.986895 9.618953 -0.293578
v 1.696753 9.858761 -0.661304
v 0.410062 4.994043 -0.072272
v -1.718392 7.411665 0.091531
v -1.817680 7.156055 -0.276399
v 0.599814 5.478455 -0.427196
v -1.634048 7.685319 -0.293579
v 0.490972 5.783285 0.034196
v -1.737318 7.406288 -0.661305
v 0.615499 5.451704 0.390220
vt 0.132812 0.867188
vt 0.132812 0.867188
vt 0.132812 0.867188
vt 0.132812 0.867188
vt 0.132812 0.867188
vt 0.132812 0.867188
vt 0.132812 0.867188
vt 0.132812 0.867188
vt 0.132812 0.867188
vt 0.132812 0.867188
vt 0.132812 0.867188
vt 0.132812 0.867188
vt 0.132812 0.867188
vt 0.132812 0.867188
vt 0.132812 0.867188
vt 0.132812 0.867188
vt 0.132812 0.867188
vt 0.132812 0.867188
vt 0.132812 0.867188
vt 0.132812 0.867188
vt 0.132812 0.867188
vt 0.132812 0.867188
vt 0.132812 0.867188
vt 0.132812 0.867188
vt 0.132812 0.867188
vt 0.132812 0.867188
vt 0.132812 0.867188
vt 0.132812 0.867188
vt 0.132812 0.867188
vt 0.132812 0.867188
vt 0.132812 0.867188
vt 0.132812 0.867188
vt 0.132812 0.867188
vt 0.132812 0.867188
vt 0.132812 0.867188
vt 0.132812 0.867188
vt 0.132812 0.867188
vt 0.132812 0.867188
vt 0.132812 0.867188
vt 0.132812 0.867188
vt 0.132812 0.867188
vt 0.132812 0.867188
vt 0.132812 0.867188
vt 0.132812 0.867188
vt 0.132812 0.867188
vt 0.132812 0.867188
vt 0.132812 0.867188
vt 0.132812 0.867188
vt 0.132812 0.867188
vt 0.132812 0.867188
vt 0.132812 0.867188
vt 0.132812 0.867188
vt 0.132812 0.867188
vt 0.132812 0.867188
vt 0.132812 0.867188
vt 0.132812 0.867188
vt 0.132812 0.867188
vt 0.132812 0.867188
vt 0.132812 0.867188
vt 0.132812 0.867188
vt 0.132812 0.867188
vt 0.132812 0.867188
vt 0.132812 0.867188
vt 0.132812 0.867188
vt 0.132812 0.867188
vt 0.132812 0.867188
vt 0.132812 0.867188
vt 0.132812 0.867188
vt 0.132812 0.867188
vt 0.132812 0.867188
vt 0.132812 0.867188
vt 0.132812 0.867188
vt 0.132812 0.867188
vt 0.132812 0.867188
vt 0.132812 0.867188
vt 0.132812 0.867188
vt 0.132812 0.867188
vt 0.132812 0.867188
vt 0.132812 0.867188
vt 0.132812 0.867188
vt 0.132812 0.867188
vt 0.132812 0.867188
vt 0.132812 0.867188
vt 0.132812 0.867188
vt 0.132812 0.867188
vt 0.132812 0.867188
vt 0.132812 0.867188
vt 0.132812 0.867188
vt 0.132812 0.867188
vt 0.132812 0.867188
vt 0.132812 0.867188
vt 0.132812 0.867188
vt 0.132812 0.867188
vt 0.132812 0.867188
vt 0.132812 0.867188
vt 0.132812 0.867188
vt 0.132812 0.867188
vt 0.132812 0.867188
vt 0.132812 0.867188
vt 0.132812 0.867188
vt 0.132812 0.867188
vt 0.132812 0.867188
vt 0.132812 0.867188
vt 0.132812 0.867188
vt 0.132812 0.867188
vt 0.132812 0.867188
vt 0.132812 0.867188
vt 0.132812 0.867188
vt 0.132812 0.867188
vt 0.132812 0.867188
vt 0.132812 0.867188
vt 0.132812 0.867188
vt 0.132812 0.867188
vt 0.132812 0.867188
vt 0.132812 0.867188
vt 0.132812 0.867188
vt 0.132812 0.867188
vt 0.132812 0.867188
vt 0.132812 0.867188
vt 0.242188 0.898438
vt 0.242188 0.898438
vt 0.242188 0.898438
vt 0.242188 0.898438
vt 0.242188 0.898438
vt 0.242188 0.898438
vt 0.242188 0.898438
vt 0.242188 0.898438
vt 0.242188 0.898438
vt 0.242188 0.898438
vt 0.242188 0.898438
vt 0.242188 0.898438
vt 0.242188 0.898438
vt 0.242188 0.898438
vt 0.242188 0.898438
vt 0.242188 0.898438
vt 0.242188 0.898438
vt 0.242188 0.898438
vt 0.242188 0.898438
vt 0.242188 0.898438
vt 0.242188 0.898438
vt 0.242188 0.898438
vt 0.242188 0.898438
vt 0.242188 0.898438
vn -0.1377 0.8513 -0.5063
vn -0.5006 -0.7805 0.3746
vn -0.5380 0.7891 0.2964
vn -0.2498 0.9360 0.2478
vn -0.9062 -0.0500 0.4198
vn -0.5695 0.7775 0.2666
vn -0.5672 0.7760 -0.2758
vn -0.5110 -0.7071 -0.4888
vn -0.3580 0.8871 -0.2912
vn -0.7131 -0.6902 -0.1232
vn 0.2439 0.8452 -0.4755
vn -0.3911 -0.5228 -0.7574
vn 0.5718 0.7825 0.2464
vn 0.1934 -0.7980 -0.5708
vn 0.2227 0.9682 0.1138
vn 0.5723 -0.5101 0.6421
vn -0.1051 -0.9751 0.1955
vn 0.8380 0.1933 0.5103
vn 0.5658 0.4422 0.6960
vn 0.3224 -0.3845 0.8650
vn -0.4533 0.2360 0.8596
vn 0.4073 0.0813 -0.9097
vn -0.4417 0.1934 -0.8761
vn -0.2845 -0.6374 0.7161
vn -0.1900 0.9399 0.2837
vn -0.8202 0.1579 0.5499
vn -0.9108 -0.0370 -0.4113
vn -0.2924 -0.9556 -0.0369
vn 0.4193 0.7325 -0.5363
vn 0.1121 -0.6082 -0.7858
vn 0.6092 0.6679 -0.4274
vn 0.8453 0.1925 -0.4985
vn 0.6200 -0.5527 -0.5569
vn -0.0380 -0.9649 -0.2597
vn 0.5633 -0.5156 0.6457
vn -0.1122 -0.9736 0.1990
vn 0.6500 0.4552 0.6085
vn -0.2052 -0.6760 0.7077
vn -0.3385 0.3002 0.8918
vn 0.3126 0.1448 0.9388
vn 0.7653 0.0188 -0.6434
vn 0.3827 0.1257 -0.9153
vn -0.7241 0.3552 -0.5912
vn -0.4898 0.2551 0.8336
vn -0.2933 0.3048 -0.9061
vn -0.1019 0.8176 0.5667
vn -0.3942 0.7670 -0.5063
vn -0.3554 -0.8880 0.2919
vn -0.7802 0.5488 0.3003
vn -0.5275 0.8127 0.2476
vn -0.8614 -0.3361 0.3809
vn -0.8187 0.5162 0.2517
vn -0.8142 0.5144 -0.2692
vn -0.2200 -0.9360 -0.2747
vn -0.6151 0.7328 -0.2909
vn -0.7003 -0.6863 -0.1963
vn -0.0295 0.8792 -0.4755
vn -0.1746 -0.6800 -0.7122
vn 0.3204 0.9131 0.2521
vn 0.4152 -0.8229 -0.3879
vn -0.0877 0.9896 0.1138
vn 0.5094 -0.5020 0.6989
vn 0.3958 -0.8969 0.1975
vn 0.8115 0.3371 0.4774
vn 0.4539 0.5663 0.6879
vn 0.4385 -0.2340 0.8677
vn -0.4997 0.0707 0.8633
vn 0.3691 0.1488 -0.9174
vn -0.4769 0.0352 -0.8782
vn -0.1198 -0.6440 0.7556
vn -0.4714 0.8351 0.2837
vn -0.8297 -0.0838 0.5519
vn -0.8812 -0.3314 -0.3371
vn -0.1247 -0.9855 -0.1154
vn 0.1778 0.8242 -0.5377
vn 0.2560 -0.6142 -0.7464
vn 0.3902 0.8191 -0.4205
vn 0.8057 0.3329 -0.4900
vn 0.6333 -0.6243 -0.4574
vn 0.4378 -0.7858 -0.4369
vn 0.7305 -0.2800 0.6228
vn 0.2226 -0.9307 0.2903
vn 0.4985 0.5867 0.6382
vn 0.0362 -0.6667 0.7444
vn -0.4131 0.1461 0.8989
vn 0.2539 0.1894 0.9485
vn 0.7501 0.1879 -0.6341
vn 0.3319 0.1758 -0.9268
vn -0.7971 0.0854 -0.5978
vn -0.5403 0.0765 0.8380
vn -0.3635 0.1480 -0.9197
vn -0.3497 0.7459 0.5668
vn -0.5806 0.6376 -0.5063
vn 0.0074 -0.9272 0.3746
vn -0.8714 0.3931 0.2934
vn -0.7208 0.6473 0.2478
vn -0.7254 -0.5445 0.4211
vn -0.8971 0.3449 -0.2763
vn -0.0415 -0.8714 -0.4888
vn -0.7847 0.5472 -0.2912
vn -0.2199 -0.9677 -0.1232
vn -0.1717 0.8727 -0.4571
vn -0.0418 -0.6516 -0.7574
vn 0.5981 -0.5625 -0.5708
vn -0.2570 0.9638 0.0715
vn 0.7581 -0.1143 0.6421
vn 0.4449 -0.8740 0.1955
vn 0.5314 0.7138 0.4561
vn 0.2321 0.6795 0.6960
vn 0.4801 -0.1458 0.8650
vn -0.5086 -0.0501 0.8596
vn 0.2966 0.2907 -0.9097
vn -0.4756 -0.0794 -0.8761
vn 0.1101 -0.6893 0.7161
vn -0.6728 0.6832 0.2837
vn -0.7876 -0.4771 -0.3899
vn 0.2775 -0.9600 -0.0369
vn -0.0570 0.8509 -0.5223
vn 0.4263 -0.4481 -0.7858
vn 0.5714 0.7146 -0.4035
vn 0.8212 -0.1239 -0.5569
vn 0.4956 -0.8288 -0.2597
vn 0.7535 -0.1239 0.6457
vn 0.4382 -0.8766 0.1990
vn 0.3189 0.7557 0.5721
vn 0.1976 -0.6783 0.7077
vn -0.4476 0.0664 0.8918
vn 0.1826 0.2921 0.9388
vn 0.6306 0.4340 -0.6434
vn 0.2517 0.3144 -0.9153
vn -0.8277 -0.0993 -0.5523
vn -0.7247 -0.0708 0.6854
vn -0.4122 0.0950 -0.9061
vn -0.5322 0.6290 0.5667
vn -0.2347 -0.8970 0.3746
vn -0.7387 0.6068 0.2934
vn -0.5271 0.8129 0.2478
vn -0.8423 -0.3365 0.4211
vn -0.7761 0.5669 -0.2763
vn -0.2673 -0.8305 -0.4888
vn -0.6149 0.7329 -0.2912
vn -0.4647 -0.8769 -0.1232
vn 0.0618 0.8873 -0.4571
vn -0.2103 -0.6181 -0.7574
vn 0.4307 -0.6990 -0.5708
vn 0.0032 0.9974 0.0715
vn 0.7020 -0.3081 0.6421
vn 0.2016 -0.9598 0.1955
vn 0.6992 0.5505 0.4561
vn 0.4013 0.5955 0.6960
vn 0.4255 -0.2659 0.8650
vn -0.5040 0.0842 0.8596
vn 0.3622 0.2033 -0.9097
vn -0.4799 0.0473 -0.8761
vn -0.0734 -0.6941 0.7161
vn -0.8848 -0.2552 -0.3899
vn 0.0175 -0.9992 -0.0369
vn 0.1669 0.8363 -0.5223
vn 0.2947 -0.5437 -0.7858
vn 0.7380 0.5409 -0.4035
vn 0.7605 -0.3338 -0.5569
vn 0.2623 -0.9294 -0.2597
vn 0.6951 -0.3161 0.6457
vn 0.1944 -0.9605 0.1990
vn 0.5049 0.6463 0.5721
vn 0.0139 -0.7063 0.7077
vn -0.4148 0.1808 0.8918
vn 0.2525 0.2344 0.9388
vn 0.7219 0.2546 -0.6434
vn 0.3250 0.2379 -0.9153
vn -0.8250 0.1200 -0.5523
vn -0.7181 0.1206 0.6854
vn -0.3732 0.1992 -0.9061
vn -0.3498 0.7460 0.5667
vn -0.6148 0.7329 -0.2912
vn -0.5041 0.0842 0.8596
vn 0.7272 0.0299 0.6858
vn 0.7305 0.0292 0.6823
vn 0.7230 0.0311 0.6902
vn -0.7064 0.1953 -0.6803
vn -0.8384 0.1740 -0.5165
vn -0.8605 0.1700 -0.4802
vn -0.7335 0.0017 0.6797
vn -0.7289 -0.0001 0.6846
vn -0.7382 -0.0014 0.6746
vn 0.7117 0.0031 -0.7025
vn 0.7069 0.0029 -0.7073
vn 0.7051 0.0029 -0.7091
vn -0.7452 -0.0129 -0.6667
vn -0.7374 -0.0179 -0.6752
vn -0.7511 -0.0082 -0.6601
vn -0.8271 0.2206 0.5170
vn -0.7190 0.1867 0.6695
vn -0.7109 0.1822 0.6793
vn 0.7062 -0.0327 0.7072
vn -0.6609 0.2229 0.7166
vn 0.8567 -0.0225 -0.5153
vn 0.8332 -0.2475 -0.4945
vn -0.8575 0.1716 -0.4849
vn -0.7441 0.1569 -0.6494
vn -0.7392 0.1570 -0.6550
vn 0.8590 -0.1933 0.4740
vn -0.6036 -0.5692 0.5583
vn -0.5281 -0.5841 0.6164
vn -0.5453 -0.5789 0.6062
vn 0.6528 0.6757 -0.3424
vn 0.6153 0.6654 -0.4227
vn 0.6617 0.6879 -0.2984
vn -0.5014 -0.6738 -0.5427
vn 0.5318 0.7081 0.4645
vn 0.5356 0.7133 0.4519
vn 0.5315 0.7045 0.4703
vn 0.7104 0.0398 0.7027
vn 0.7052 0.0397 0.7079
vn 0.7064 0.0397 0.7067
vn -0.6881 0.1966 -0.6985
vn -0.7387 0.0100 0.6739
vn 0.7057 0.0120 -0.7084
vn 0.7008 0.0135 -0.7132
vn 0.7098 0.0112 -0.7044
vn -0.7480 -0.0207 -0.6634
vn -0.7532 -0.0188 -0.6576
vn -0.7439 -0.0219 -0.6679
vn -0.8355 0.2245 0.5016
vn 0.8728 -0.0034 0.4881
vn -0.8421 0.1906 0.5045
vn 0.6789 -0.0586 -0.7318
vn 0.7023 -0.1986 -0.6836
vn -0.8602 0.1722 -0.4800
vn 0.7310 -0.1748 0.6596
vn -0.5038 -0.4916 0.7103
vn -0.5035 -0.4938 0.7090
vn 0.6068 0.6288 -0.4862
vn 0.5445 0.5874 -0.5987
vn 0.5636 0.5826 -0.5856
vn -0.3651 -0.4529 -0.8134
vn 0.4904 0.6420 0.5893
vn 0.4785 0.6519 0.5882
vn 0.4973 0.6509 0.5736
vn 0.9953 -0.0954 -0.0181
vn 0.9948 -0.0990 -0.0223
s off
f 1/1/1 2/2/1 3/3/1
f 4/4/2 5/5/2 6/6/2
f 7/7/3 8/8/3 9/9/3
f 7/7/4 1/1/4 8/8/4
f 5/5/5 10/10/5 6/6/5
f 9/9/6 8/8/6 10/10/6
f 10/10/7 8/8/7 3/3/7
f 11/11/8 12/12/8 6/6/8
f 1/1/9 3/3/9 8/8/9
f 4/4/10 12/12/10 13/13/10
f 14/14/11 2/2/11 1/1/11
f 15/15/12 12/12/12 11/11/12
f 14/14/13 16/16/13 17/17/13
f 18/18/14 19/19/14 12/12/14
f 1/1/15 16/16/15 14/14/15
f 20/20/16 19/19/16 21/21/16
f 22/22/17 13/13/17 19/19/17
f 17/17/18 20/20/18 21/21/18
f 16/16/19 23/23/19 20/20/19
f 24/24/20 22/22/20 20/20/20
f 24/24/21 7/7/21 5/5/21
f 15/15/22 25/25/22 18/18/22
f 3/3/23 15/15/23 11/11/23
f 24/24/24 5/5/24 4/4/24
f 7/7/25 16/16/25 1/1/25
f 5/5/26 9/9/26 10/10/26
f 6/6/27 10/10/27 11/11/27
f 4/4/28 6/6/28 12/12/28
f 14/14/29 25/25/29 2/2/29
f 15/15/30 18/18/30 12/12/30
f 14/14/31 17/17/31 25/25/31
f 17/17/32 21/21/32 25/25/32
f 18/18/33 21/21/33 19/19/33
f 12/12/34 19/19/34 13/13/34
f 20/20/35 22/22/35 19/19/35
f 22/22/36 4/4/36 13/13/36
f 17/17/37 16/16/37 20/20/37
f 24/24/38 4/4/38 22/22/38
f 24/24/39 23/23/39 7/7/39
f 20/20/40 23/23/40 24/24/40
f 18/18/41 25/25/41 21/21/41
f 15/15/42 2/2/42 25/25/42
f 10/10/43 3/3/43 11/11/43
f 5/5/44 7/7/44 9/9/44
f 3/3/45 2/2/45 15/15/45
f 16/16/46 7/7/46 23/23/46
f 26/26/47 27/27/47 28/28/47
f 29/29/48 30/30/48 31/31/48
f 32/32/49 33/33/49 34/34/49
f 32/32/50 26/26/50 33/33/50
f 30/30/51 35/35/51 31/31/51
f 34/34/52 33/33/52 35/35/52
f 35/35/53 33/33/53 28/28/53
f 36/36/54 37/37/54 31/31/54
f 26/26/55 28/28/55 33/33/55
f 29/29/56 37/37/56 38/38/56
f 39/39/57 27/27/57 26/26/57
f 40/40/58 37/37/58 36/36/58
f 39/39/59 41/41/59 42/42/59
f 43/43/60 44/44/60 37/37/60
f 26/26/61 41/41/61 39/39/61
f 45/45/62 44/44/62 46/46/62
f 47/47/63 38/38/63 44/44/63
f 42/42/64 45/45/64 46/46/64
f 41/41/65 48/48/65 45/45/65
f 49/49/66 47/47/66 45/45/66
f 49/49/67 32/32/67 30/30/67
f 40/40/68 50/50/68 43/43/68
f 28/28/69 40/40/69 36/36/69
f 49/49/70 30/30/70 29/29/70
f 32/32/71 41/41/71 26/26/71
f 30/30/72 34/34/72 35/35/72
f 31/31/73 35/35/73 36/36/73
f 29/29/74 31/31/74 37/37/74
f 39/39/75 50/50/75 27/27/75
f 40/40/76 43/43/76 37/37/76
f 39/39/77 42/42/77 50/50/77
f 42/42/78 46/46/78 50/50/78
f 43/43/79 46/46/79 44/44/79
f 37/37/80 44/44/80 38/38/80
f 45/45/81 47/47/81 44/44/81
f 47/47/82 29/29/82 38/38/82
f 42/42/83 41/41/83 45/45/83
f 49/49/84 29/29/84 47/47/84
f 49/49/85 48/48/85 32/32/85
f 45/45/86 48/48/86 49/49/86
f 43/43/87 50/50/87 46/46/87
f 40/40/88 27/27/88 50/50/88
f 35/35/89 28/28/89 36/36/89
f 30/30/90 32/32/90 34/34/90
f 28/28/91 27/27/91 40/40/91
f 41/41/92 32/32/92 48/48/92
f 51/51/93 52/52/93 53/53/93
f 54/54/94 55/55/94 56/56/94
f 57/57/95 58/58/95 59/59/95
f 57/57/96 51/51/96 58/58/96
f 55/55/97 59/59/97 56/56/97
f 59/59/98 58/58/98 53/53/98
f 60/60/99 61/61/99 56/56/99
f 51/51/100 53/53/100 58/58/100
f 54/54/101 61/61/101 62/62/101
f 63/63/102 52/52/102 51/51/102
f 64/64/103 61/61/103 60/60/103
f 65/65/104 66/66/104 61/61/104
f 51/51/105 67/67/105 63/63/105
f 68/68/106 66/66/106 69/69/106
f 70/70/107 62/62/107 66/66/107
f 63/63/108 68/68/108 69/69/108
f 67/67/109 71/71/109 68/68/109
f 72/72/110 70/70/110 68/68/110
f 72/72/111 57/57/111 55/55/111
f 64/64/112 73/73/112 65/65/112
f 53/53/113 64/64/113 60/60/113
f 72/72/114 55/55/114 54/54/114
f 57/57/115 67/67/115 51/51/115
f 56/56/116 59/59/116 60/60/116
f 54/54/117 56/56/117 61/61/117
f 63/63/118 73/73/118 52/52/118
f 64/64/119 65/65/119 61/61/119
f 63/63/120 69/69/120 73/73/120
f 65/65/121 69/69/121 66/66/121
f 61/61/122 66/66/122 62/62/122
f 68/68/123 70/70/123 66/66/123
f 70/70/124 54/54/124 62/62/124
f 63/63/125 67/67/125 68/68/125
f 72/72/126 54/54/126 70/70/126
f 72/72/127 71/71/127 57/57/127
f 68/68/128 71/71/128 72/72/128
f 65/65/129 73/73/129 69/69/129
f 64/64/130 52/52/130 73/73/130
f 59/59/131 53/53/131 60/60/131
f 55/55/132 57/57/132 59/59/132
f 53/53/133 52/52/133 64/64/133
f 67/67/134 57/57/134 71/71/134
f 74/74/47 75/75/47 76/76/47
f 77/77/135 78/78/135 79/79/135
f 80/80/136 81/81/136 82/82/136
f 80/80/137 74/74/137 81/81/137
f 78/78/138 82/82/138 79/79/138
f 82/82/139 81/81/139 76/76/139
f 83/83/140 84/84/140 79/79/140
f 74/74/141 76/76/141 81/81/141
f 77/77/142 84/84/142 85/85/142
f 86/86/143 75/75/143 74/74/143
f 87/87/144 84/84/144 83/83/144
f 88/88/145 89/89/145 84/84/145
f 74/74/146 90/90/146 86/86/146
f 91/91/147 89/89/147 92/92/147
f 93/93/148 85/85/148 89/89/148
f 86/86/149 91/91/149 92/92/149
f 90/90/150 94/94/150 91/91/150
f 95/95/151 93/93/151 91/91/151
f 95/95/152 80/80/152 78/78/152
f 87/87/153 96/96/153 88/88/153
f 76/76/154 87/87/154 83/83/154
f 95/95/155 78/78/155 77/77/155
f 80/80/71 90/90/71 74/74/71
f 79/79/156 82/82/156 83/83/156
f 77/77/157 79/79/157 84/84/157
f 86/86/158 96/96/158 75/75/158
f 87/87/159 88/88/159 84/84/159
f 86/86/160 92/92/160 96/96/160
f 88/88/161 92/92/161 89/89/161
f 84/84/162 89/89/162 85/85/162
f 91/91/163 93/93/163 89/89/163
f 93/93/164 77/77/164 85/85/164
f 86/86/165 90/90/165 91/91/165
f 95/95/166 77/77/166 93/93/166
f 95/95/167 94/94/167 80/80/167
f 91/91/168 94/94/168 95/95/168
f 88/88/169 96/96/169 92/92/169
f 87/87/170 75/75/170 96/96/170
f 82/82/171 76/76/171 83/83/171
f 78/78/172 80/80/172 82/82/172
f 76/76/173 75/75/173 87/87/173
f 90/90/174 80/80/174 94/94/174
f 97/97/47 98/98/47 99/99/47
f 100/100/135 101/101/135 102/102/135
f 103/103/136 104/104/136 105/105/136
f 103/103/137 97/97/137 104/104/137
f 101/101/138 105/105/138 102/102/138
f 105/105/139 104/104/139 99/99/139
f 106/106/140 107/107/140 102/102/140
f 97/97/175 99/99/175 104/104/175
f 100/100/142 107/107/142 108/108/142
f 109/109/143 98/98/143 97/97/143
f 110/110/144 107/107/144 106/106/144
f 111/111/145 112/112/145 107/107/145
f 97/97/146 113/113/146 109/109/146
f 114/114/147 112/112/147 115/115/147
f 116/116/148 108/108/148 112/112/148
f 109/109/149 114/114/149 115/115/149
f 113/113/150 117/117/150 114/114/150
f 118/118/151 116/116/151 114/114/151
f 118/118/176 103/103/176 101/101/176
f 110/110/153 119/119/153 111/111/153
f 99/99/154 110/110/154 106/106/154
f 118/118/155 101/101/155 100/100/155
f 103/103/71 113/113/71 97/97/71
f 102/102/156 105/105/156 106/106/156
f 100/100/157 102/102/157 107/107/157
f 109/109/158 119/119/158 98/98/158
f 110/110/159 111/111/159 107/107/159
f 109/109/160 115/115/160 119/119/160
f 111/111/161 115/115/161 112/112/161
f 107/107/162 112/112/162 108/108/162
f 114/114/163 116/116/163 112/112/163
f 116/116/164 100/100/164 108/108/164
f 109/109/165 113/113/165 114/114/165
f 118/118/166 100/100/166 116/116/166
f 118/118/167 117/117/167 103/103/167
f 114/114/168 117/117/168 118/118/168
f 111/111/169 119/119/169 115/115/169
f 110/110/170 98/98/170 119/119/170
f 105/105/171 99/99/171 106/106/171
f 101/101/172 103/103/172 105/105/172
f 99/99/173 98/98/173 110/110/173
f 113/113/174 103/103/174 117/117/174
s 1
f 120/120/177 121/121/178 122/122/179
f 123/123/180 124/124/181 125/125/182
f 126/126/183 122/122/184 127/127/185
f 128/128/186 121/121/187 129/129/188
f 126/126/189 123/123/190 128/128/191
f 124/124/192 130/130/193 131/131/194
f 121/121/195 132/132/195 122/122/195
f 122/122/196 124/124/196 127/127/196
f 121/121/197 125/125/197 133/133/197
f 125/125/198 134/134/198 133/133/198
f 125/125/199 131/131/200 135/135/201
f 133/133/202 130/130/202 132/132/202
f 136/136/203 137/137/204 138/138/205
f 139/139/206 140/140/207 141/141/208
f 139/139/209 138/138/209 142/142/209
f 141/141/210 137/137/211 143/143/212
f 120/120/213 129/129/214 121/121/215
f 123/123/180 127/127/216 124/124/181
f 126/126/183 120/120/217 122/122/184
f 128/128/218 123/123/219 121/121/220
f 126/126/221 127/127/222 123/123/223
f 124/124/192 132/132/224 130/130/193
f 121/121/225 133/133/225 132/132/225
f 122/122/226 132/132/226 124/124/226
f 121/121/227 123/123/227 125/125/227
f 125/125/228 135/135/228 134/134/228
f 125/125/199 124/124/229 131/131/200
f 133/133/230 134/134/230 130/130/230
f 136/136/231 143/143/231 137/137/232
f 139/139/233 142/142/234 140/140/235
f 139/139/236 136/136/236 138/138/236
f 141/141/237 140/140/238 137/137/239
f 141/141/240 143/143/241 136/136/241 139/139/241
