# Blender v2.91.0 Beta OBJ File: 'decos.blend'
# www.blender.org
o Cube.001_Cube.037
v 0.004233 0.672436 0.431401
v 0.373628 7.827255 -0.036222
v -0.009568 7.827255 0.342331
v -0.421536 0.665815 -0.001789
v 0.001253 -2.494218 -0.746873
v -0.742335 -2.481328 -0.000054
v 0.001265 -2.492982 0.746446
v 0.444055 0.545729 -0.011779
v 0.751821 -2.509366 -0.000036
v 0.003376 0.622342 -0.436276
v -0.332310 7.827255 -0.022430
v -0.013022 7.827255 -0.397078
v -1.638920 17.006805 -1.013010
v -0.383371 14.635952 -5.387206
v -3.982172 13.958428 -4.092398
v 0.256862 8.025213 3.968980
v -4.058659 9.610662 4.188399
v -5.227763 8.218083 -0.159238
v -3.527414 14.395954 4.083223
v -4.793559 15.057683 0.042300
v -5.145232 12.781351 3.244247
v -6.618090 12.075006 -0.103427
v -4.373643 10.171511 -4.202279
v 0.116354 8.036439 -4.066711
v 3.619007 16.528114 -0.359326
v -0.335583 11.113306 -6.186307
v 3.726798 10.798405 -4.711850
v 5.275231 8.453296 -0.037938
v -0.625881 15.826813 4.330749
v 3.742602 10.814142 4.648276
v 6.712296 11.673427 -0.033198
v 0.201867 7.040847 -0.023909
v 3.266674 14.535374 4.181935
v -0.346776 11.151472 6.121708
v 3.293624 14.438051 -4.246818
vt 0.226562 0.898438
vt 0.226562 0.898438
vt 0.226562 0.898438
vt 0.226562 0.898438
vt 0.226562 0.898438
vt 0.226562 0.898438
vt 0.226562 0.898438
vt 0.226562 0.898438
vt 0.226562 0.898438
vt 0.226562 0.898438
vt 0.226562 0.898438
vt 0.226562 0.898438
vt 0.226562 0.867188
vt 0.226562 0.867188
vt 0.226562 0.867188
vt 0.226562 0.867188
vt 0.226562 0.867188
vt 0.226562 0.867188
vt 0.226562 0.867188
vt 0.226562 0.867188
vt 0.226562 0.867188
vt 0.226562 0.867188
vt 0.226562 0.867188
vt 0.226562 0.867188
vt 0.226562 0.867188
vt 0.226562 0.867188
vt 0.226562 0.867188
vt 0.226562 0.867188
vt 0.226562 0.867188
vt 0.226562 0.867188
vt 0.226562 0.867188
vt 0.226562 0.867188
vt 0.226562 0.867188
vt 0.226562 0.867188
vt 0.226562 0.867188
vn 0.7142 0.0358 0.6990
vn 0.7032 0.0102 0.7109
vn 0.7027 0.0102 0.7114
vn -0.7138 0.0478 -0.6987
vn -0.7066 0.0714 -0.7040
vn -0.7062 0.0716 -0.7044
vn -0.7061 0.0724 0.7044
vn 0.7138 0.0437 0.6990
vn 0.7059 0.0729 0.7045
vn 0.7041 0.0736 0.7063
vn 0.6967 0.0376 -0.7164
vn 0.7036 0.0696 -0.7072
vn 0.7043 0.0699 -0.7064
vn -0.7139 0.0364 0.6993
vn -0.7470 0.0110 0.6647
vn -0.7489 0.0112 0.6626
vn 0.6866 0.0069 -0.7270
vn 0.6968 0.0393 -0.7162
vn -0.7471 0.0141 -0.6645
vn -0.7125 0.0386 -0.7006
vn -0.7120 0.0702 0.6987
vn -0.7129 0.0394 0.7001
vn 0.6899 0.0029 -0.7239
vn 0.6823 0.0055 -0.7311
vn 0.6879 0.0036 -0.7258
vn -0.7283 -0.0046 -0.6852
vn -0.7611 0.0076 -0.6486
vn -0.7371 -0.0018 -0.6758
vn -0.3353 0.7846 -0.5215
vn -0.3048 -0.8801 0.3639
vn -0.7471 0.5778 0.3287
vn -0.4364 0.8559 0.2775
vn -0.4442 0.8537 0.2719
vn -0.4363 0.8561 0.2769
vn -0.8828 -0.3232 0.3409
vn -0.8292 0.4945 0.2605
vn -0.8089 0.5092 -0.2941
vn -0.3683 -0.8042 -0.4664
vn -0.5728 0.7573 -0.3137
vn 0.1357 0.8868 -0.4417
vn -0.2494 -0.5740 -0.7800
vn 0.4608 -0.7227 -0.5152
vn 0.0636 0.9770 0.2037
vn 0.8152 -0.3644 0.4502
vn 0.2617 -0.9379 0.2276
vn 0.7972 0.5277 0.2934
vn 0.2526 -0.5152 0.8190
vn -0.4844 0.0729 0.8718
vn 0.3463 0.1601 0.9244
vn 0.3477 0.1594 -0.9239
vn -0.4534 0.0726 -0.8883
vn -0.1730 -0.5810 0.7953
vn -0.4441 0.8535 0.2727
vn -0.2115 -0.9483 0.2367
vn -0.8867 -0.1766 0.4274
vn -0.8865 -0.3146 -0.3393
vn -0.2007 -0.9522 -0.2302
vn 0.1941 0.8572 -0.4771
vn 0.2547 -0.5229 -0.8134
vn 0.8056 0.4911 -0.3314
vn 0.3021 0.8641 0.4026
vn 0.8148 -0.3630 -0.4521
vn 0.2600 -0.9363 -0.2361
vn 0.4721 -0.7155 0.5149
vn -0.2426 0.3344 0.9107
vn 0.1551 0.3614 0.9194
vn 0.8169 0.1734 0.5500
vn 0.8165 0.1678 -0.5524
vn 0.2998 0.2149 -0.9295
vn -0.8515 0.1029 -0.5141
vn -0.5179 0.0762 0.8520
vn -0.3649 0.2013 -0.9090
s 1
f 1/1/1 2/2/2 3/3/3
f 4/4/4 5/5/5 6/6/6
f 7/7/7 4/4/7 6/6/7
f 8/8/8 7/7/9 9/9/10
f 10/10/11 9/9/12 5/5/13
f 4/4/14 3/3/15 11/11/16
f 10/10/11 2/2/17 8/8/18
f 4/4/4 12/12/19 10/10/20
f 1/1/1 8/8/8 2/2/2
f 4/4/4 10/10/20 5/5/5
f 7/7/21 1/1/22 4/4/14
f 8/8/8 1/1/1 7/7/9
f 10/10/11 8/8/18 9/9/12
f 4/4/14 1/1/22 3/3/15
f 10/10/23 12/12/24 2/2/25
f 4/4/26 11/11/27 12/12/28
f 13/13/29 14/14/29 15/15/29
f 16/16/30 17/17/30 18/18/30
f 19/19/31 20/20/31 21/21/31
f 19/19/32 13/13/33 20/20/34
f 17/17/35 22/22/35 18/18/35
f 21/21/36 20/20/36 22/22/36
f 22/22/37 20/20/37 15/15/37
f 23/23/38 24/24/38 18/18/38
f 13/13/39 15/15/39 20/20/39
f 25/25/40 14/14/40 13/13/40
f 26/26/41 24/24/41 23/23/41
f 27/27/42 28/28/42 24/24/42
f 13/13/43 29/29/43 25/25/43
f 30/30/44 28/28/44 31/31/44
f 16/16/45 32/32/45 28/28/45
f 25/25/46 33/33/46 31/31/46
f 34/34/47 16/16/47 30/30/47
f 34/34/48 19/19/48 17/17/48
f 33/33/49 34/34/49 30/30/49
f 26/26/50 35/35/50 27/27/50
f 15/15/51 26/26/51 23/23/51
f 34/34/52 17/17/52 16/16/52
f 19/19/32 29/29/53 13/13/33
f 16/16/54 18/18/54 32/32/54
f 17/17/55 21/21/55 22/22/55
f 18/18/56 22/22/56 23/23/56
f 32/32/57 18/18/57 24/24/57
f 25/25/58 35/35/58 14/14/58
f 26/26/59 27/27/59 24/24/59
f 25/25/60 31/31/60 35/35/60
f 25/25/61 29/29/61 33/33/61
f 27/27/62 31/31/62 28/28/62
f 24/24/63 28/28/63 32/32/63
f 30/30/64 16/16/64 28/28/64
f 34/34/65 29/29/65 19/19/65
f 33/33/66 29/29/66 34/34/66
f 31/31/67 33/33/67 30/30/67
f 27/27/68 35/35/68 31/31/68
f 26/26/69 14/14/69 35/35/69
f 22/22/70 15/15/70 23/23/70
f 17/17/71 19/19/71 21/21/71
f 15/15/72 14/14/72 26/26/72
