# Blender v2.91.0 Beta OBJ File: 'decos.blend'
# www.blender.org
o Cube.001_Cube.036
v 2.955533 10.982850 -0.594524
v 3.223947 9.129760 -3.746942
v 0.533497 9.252312 -2.844515
v 1.219387 3.979673 2.160477
v -0.852480 5.735689 2.883719
v -2.113965 5.146251 -0.019430
v 1.015545 9.551004 2.845367
v 0.315472 10.134826 0.040716
v -0.907489 8.539369 2.042338
v -2.268572 8.187500 0.032073
v -0.978104 6.212571 -2.757007
v 2.130260 3.911774 -2.776239
v 2.307750 3.288517 -0.558662
v 5.186131 10.450946 -0.418542
v 2.439192 6.183347 -4.474180
v 4.175247 10.366452 2.221269
v 7.345782 8.724683 0.026568
v 5.527738 5.085374 -3.208921
v 6.485850 3.027095 0.037848
v 5.895752 6.415082 3.350146
v 8.178920 4.945655 0.033804
v 4.094819 3.832922 2.861128
v 3.195342 9.130339 3.811462
v 2.425799 6.132055 4.513106
v 5.823979 8.349214 -2.794181
v -1.391696 14.014544 -0.594524
v -0.563307 12.335327 -3.746940
v -3.159745 11.619751 -2.844513
v -0.876725 6.817770 2.160477
v -3.390121 7.846889 2.883720
v -4.407451 6.896192 -0.019429
v -2.793715 12.052890 2.845367
v -3.640030 12.391563 0.040716
v -4.309573 10.496088 2.042340
v -5.495093 9.740508 0.032075
v -3.657079 8.261531 -2.757005
v 0.010484 7.034924 -2.776239
v 0.372038 6.497120 -0.558661
v 0.894044 14.198614 -0.418541
v -0.398298 9.290666 -4.474180
v -0.041143 13.805609 2.221270
v 3.481715 13.224942 0.026571
v 2.878401 9.201777 -3.208919
v 4.426135 7.540747 0.037851
v 2.817111 10.580112 3.350148
v 5.442806 9.888881 0.033807
v 1.903107 7.567549 2.861128
v -0.590690 12.327033 3.811463
v -0.395172 9.237747 4.513106
v 2.150658 12.397205 -2.794179
v -6.112005 8.785263 -0.495955
v -5.071591 7.604023 -3.141791
v -7.017365 6.461223 -2.384997
v -4.098437 3.047695 1.810755
v -6.364664 3.349566 2.432509
v -6.975749 2.352479 -0.018576
v -6.816827 6.890751 2.392713
v -7.571992 6.993868 0.033016
v -8.511913 4.619526 0.286215
v -6.675778 3.624709 -2.316554
v -3.439011 3.416986 -2.320529
v -3.015563 3.057298 -0.457309
v -3.021959 9.563426 -0.121238
v -4.266397 5.167695 -3.752048
v -1.605474 5.809180 -2.699532
v 0.001802 4.785722 0.036940
v -4.970536 8.909884 1.867280
v -1.951251 6.926095 2.817305
v 0.310916 6.942451 0.034227
v -2.033316 4.259712 2.403702
v -5.090559 7.590384 3.203532
v -4.255087 5.123956 3.791241
v -2.881920 8.240575 -2.350137
v -0.855280 9.563676 2.840402
v -0.179239 8.196148 0.277311
v -2.287202 7.619960 1.010301
v -0.417745 3.684760 5.074018
v -2.460186 4.542439 5.678979
v -3.282563 3.763376 3.302673
v -1.991917 7.970568 5.638850
v -2.670991 8.259398 3.352780
v -4.148301 6.276392 3.598383
v -2.682084 4.878589 1.075025
v 0.290090 3.863981 1.074128
v 0.598206 3.419255 2.879608
v 2.230942 9.510474 3.203674
v -0.041205 5.712781 -0.313914
v 2.606717 5.640514 0.703862
v 3.848825 4.274973 3.357052
v 0.244514 9.391764 5.130020
v 2.566281 6.773753 6.051578
v 4.684113 6.217963 3.354252
v 1.815474 4.297071 5.649428
v -0.200535 8.187968 6.424553
v -0.042050 5.668857 6.993763
v 2.028253 8.237779 1.042646
v -0.721109 9.446242 -3.500021
v -0.045070 8.078714 -6.063110
v -2.153033 7.502526 -5.330121
v -0.283576 3.567326 -1.266403
v -2.326018 4.425005 -0.661444
v -3.148395 3.645941 -3.037750
v -1.857749 7.853134 -0.701572
v -2.536823 8.141964 -2.987642
v -4.014133 6.158958 -2.742039
v -2.547915 4.761155 -5.265397
v 0.424258 3.746547 -5.266295
v 0.732374 3.301821 -3.460814
v 2.365109 9.393043 -3.136749
v 0.092963 5.595347 -6.654336
v 2.740885 5.523079 -5.636561
v 3.982993 4.157540 -2.983371
v 0.378682 9.274329 -1.210402
v 2.700449 6.656319 -0.288844
v 4.818281 6.100527 -2.986170
v 1.949642 4.179637 -0.690992
v -0.066366 8.070534 0.084131
v 0.092117 5.551423 0.653340
v 2.162421 8.120345 -5.297776
v 0.000000 -2.595134 1.264325
v 0.649473 1.440917 -0.043914
v -0.018317 1.738901 0.631044
v -0.018317 1.738901 -0.682647
v 0.155358 3.815588 -0.082153
v 0.518025 3.675058 -0.471723
v -1.264326 -2.595133 -0.000000
v -0.603681 2.036886 -0.015225
v 0.000000 -2.595133 -1.264326
v 1.264326 -2.595133 -0.000000
v 1.696751 5.331757 0.091529
v 1.406609 5.571563 -0.276402
v 0.517133 3.674067 0.281113
v 0.884602 3.538873 -0.109664
v 1.986895 5.091949 -0.293581
v 1.696753 5.331757 -0.661307
v -0.332014 2.179738 -0.072275
v -1.391348 3.802611 0.091530
v -1.730184 3.638661 -0.276400
v 0.120352 2.392829 -0.427199
v -1.039919 3.980553 -0.293580
v 0.203073 2.603898 0.034193
v -1.391348 3.802611 -0.661306
v 0.118627 2.391324 0.390217
v -2.439538 5.112772 0.091530
v -2.791116 4.978298 -0.276400
v -2.074222 5.260113 -0.293580
v -2.439538 5.112772 -0.661306
vt 0.007812 0.710938
vt 0.007812 0.710938
vt 0.007812 0.710938
vt 0.007812 0.710938
vt 0.007812 0.710938
vt 0.007812 0.710938
vt 0.007812 0.710938
vt 0.007812 0.710938
vt 0.007812 0.710938
vt 0.007812 0.710938
vt 0.007812 0.710938
vt 0.007812 0.710938
vt 0.007812 0.710938
vt 0.007812 0.710938
vt 0.007812 0.710938
vt 0.007812 0.710938
vt 0.007812 0.710938
vt 0.007812 0.710938
vt 0.007812 0.710938
vt 0.007812 0.710938
vt 0.007812 0.710938
vt 0.007812 0.710938
vt 0.007812 0.710938
vt 0.007812 0.710938
vt 0.007812 0.710938
vt 0.007812 0.710938
vt 0.007812 0.710938
vt 0.007812 0.710938
vt 0.007812 0.710938
vt 0.007812 0.710938
vt 0.007812 0.710938
vt 0.007812 0.710938
vt 0.007812 0.710938
vt 0.007812 0.710938
vt 0.007812 0.710938
vt 0.007812 0.710938
vt 0.007812 0.710938
vt 0.007812 0.710938
vt 0.007812 0.710938
vt 0.007812 0.710938
vt 0.007812 0.710938
vt 0.007812 0.710938
vt 0.007812 0.710938
vt 0.007812 0.710938
vt 0.007812 0.710938
vt 0.007812 0.710938
vt 0.007812 0.710938
vt 0.007812 0.710938
vt 0.007812 0.710938
vt 0.007812 0.710938
vt 0.007812 0.710938
vt 0.007812 0.710938
vt 0.007812 0.710938
vt 0.007812 0.710938
vt 0.007812 0.710938
vt 0.007812 0.710938
vt 0.007812 0.710938
vt 0.007812 0.710938
vt 0.007812 0.710938
vt 0.007812 0.710938
vt 0.007812 0.710938
vt 0.007812 0.710938
vt 0.007812 0.710938
vt 0.007812 0.710938
vt 0.007812 0.710938
vt 0.007812 0.710938
vt 0.007812 0.710938
vt 0.007812 0.710938
vt 0.007812 0.710938
vt 0.007812 0.710938
vt 0.007812 0.710938
vt 0.007812 0.710938
vt 0.007812 0.710938
vt 0.007812 0.710938
vt 0.007812 0.710938
vt 0.007812 0.710938
vt 0.007812 0.710938
vt 0.007812 0.710938
vt 0.007812 0.710938
vt 0.007812 0.710938
vt 0.007812 0.710938
vt 0.007812 0.710938
vt 0.007812 0.710938
vt 0.007812 0.710938
vt 0.007812 0.710938
vt 0.007812 0.710938
vt 0.007812 0.710938
vt 0.007812 0.710938
vt 0.007812 0.710938
vt 0.007812 0.710938
vt 0.007812 0.710938
vt 0.007812 0.710938
vt 0.007812 0.710938
vt 0.007812 0.710938
vt 0.007812 0.710938
vt 0.007812 0.710938
vt 0.007812 0.710938
vt 0.007812 0.710938
vt 0.007812 0.710938
vt 0.007812 0.710938
vt 0.007812 0.710938
vt 0.007812 0.710938
vt 0.007812 0.710938
vt 0.007812 0.710938
vt 0.007812 0.710938
vt 0.007812 0.710938
vt 0.007812 0.710938
vt 0.007812 0.710938
vt 0.007812 0.710938
vt 0.007812 0.710938
vt 0.007812 0.710938
vt 0.007812 0.710938
vt 0.007812 0.710938
vt 0.007812 0.710938
vt 0.007812 0.710938
vt 0.007812 0.710938
vt 0.007812 0.710938
vt 0.007812 0.710938
vt 0.007812 0.710938
vt 0.195312 0.898438
vt 0.195312 0.898438
vt 0.195312 0.898438
vt 0.195312 0.898438
vt 0.195312 0.898438
vt 0.195312 0.898438
vt 0.195312 0.898438
vt 0.195312 0.898438
vt 0.195312 0.898438
vt 0.195312 0.898438
vt 0.195312 0.898438
vt 0.195312 0.898438
vt 0.195312 0.898438
vt 0.195312 0.898438
vt 0.195312 0.898438
vt 0.195312 0.898438
vt 0.195312 0.898438
vt 0.195312 0.898438
vt 0.195312 0.898438
vt 0.195312 0.898438
vt 0.195312 0.898438
vt 0.195312 0.898438
vt 0.195312 0.898438
vt 0.195312 0.898438
vt 0.195312 0.898438
vt 0.195312 0.898438
vt 0.195312 0.898438
vt 0.195312 0.898438
vn -0.1326 0.8495 -0.5107
vn -0.5171 -0.7668 0.3804
vn -0.5390 0.7876 0.2985
vn -0.2396 0.9368 0.2548
vn -0.9119 -0.0532 0.4070
vn -0.5819 0.7709 0.2590
vn -0.5775 0.7675 -0.2784
vn -0.5210 -0.6998 -0.4887
vn -0.3562 0.8857 -0.2978
vn -0.7382 -0.6625 -0.1271
vn 0.2393 0.8458 -0.4768
vn -0.3877 -0.5175 -0.7628
vn 0.5741 0.7813 0.2448
vn 0.2037 -0.7986 -0.5664
vn 0.2217 0.9682 0.1159
vn 0.5834 -0.5135 0.6292
vn -0.0899 -0.9752 0.2022
vn 0.8459 0.1874 0.4993
vn 0.5658 0.4447 0.6943
vn 0.3212 -0.3877 0.8640
vn -0.4553 0.2316 0.8597
vn 0.4019 0.0794 -0.9122
vn -0.4392 0.1932 -0.8774
vn -0.2827 -0.6311 0.7224
vn -0.1860 0.9399 0.2863
vn -0.8309 0.1449 0.5372
vn -0.9173 -0.0399 -0.3962
vn -0.3048 -0.9515 -0.0431
vn 0.4169 0.7334 -0.5369
vn 0.1083 -0.6046 -0.7891
vn 0.6176 0.6640 -0.4216
vn 0.8539 0.1873 -0.4856
vn 0.6307 -0.5577 -0.5397
vn -0.0219 -0.9629 -0.2689
vn 0.5731 -0.5197 0.6337
vn -0.1002 -0.9731 0.2073
vn 0.6540 0.4570 0.6029
vn -0.2085 -0.6660 0.7162
vn -0.3387 0.2959 0.8931
vn 0.3041 0.1424 0.9419
vn 0.7744 0.0101 -0.6327
vn 0.3747 0.1269 -0.9184
vn -0.7327 0.3475 -0.5851
vn -0.4800 0.2435 0.8428
vn -0.2908 0.3016 -0.9080
vn -0.0969 0.8139 0.5729
vn -0.3888 0.7668 -0.5107
vn -0.2546 -0.8891 0.3804
vn -0.7562 0.5823 0.2985
vn -0.5176 0.8168 0.2548
vn -0.8507 -0.3327 0.4070
vn -0.7918 0.5532 0.2590
vn -0.7865 0.5513 -0.2784
vn -0.2790 -0.8266 -0.4887
vn -0.6126 0.7321 -0.2978
vn -0.4971 -0.8583 -0.1271
vn -0.0340 0.8783 -0.4768
vn -0.2087 -0.6120 -0.7628
vn 0.3043 0.9206 0.2448
vn 0.4407 -0.6964 -0.5664
vn -0.0886 0.9893 0.1159
vn 0.7136 -0.3079 0.6292
vn 0.2161 -0.9552 0.2022
vn 0.7465 0.4399 0.4993
vn 0.4005 0.5979 0.6943
vn 0.4253 -0.2693 0.8640
vn -0.5046 0.0794 0.8597
vn 0.3577 0.1999 -0.9122
vn -0.4774 0.0478 -0.8774
vn -0.0737 -0.6876 0.7224
vn -0.4676 0.8363 0.2863
vn -0.8350 -0.1192 0.5372
vn -0.8600 -0.3217 -0.3962
vn 0.0044 -0.9991 -0.0431
vn 0.1696 0.8264 -0.5369
vn 0.2900 -0.5414 -0.7891
vn 0.3820 0.8224 -0.4216
vn 0.7541 0.4422 -0.4856
vn 0.7722 -0.3353 -0.5397
vn 0.2770 -0.9225 -0.2689
vn 0.7057 -0.3170 0.6337
vn 0.2057 -0.9564 0.2073
vn 0.4806 0.6369 0.6029
vn 0.0077 -0.6978 0.7162
vn -0.4137 0.1767 0.8931
vn 0.2451 0.2295 0.9419
vn 0.7333 0.2491 -0.6327
vn 0.3170 0.2366 -0.9184
vn -0.8043 0.1039 -0.5851
vn -0.5318 0.0831 0.8428
vn -0.3698 0.1968 -0.9080
vn -0.3438 0.7440 0.5729
vn -0.5743 0.6393 -0.5113
vn -0.0187 -0.9245 0.3807
vn -0.8766 0.3787 0.2971
vn -0.7109 0.6550 0.2561
vn -0.7304 -0.5495 0.4056
vn -0.9026 0.3276 -0.2792
vn -0.0565 -0.8703 -0.4892
vn -0.7809 0.5479 -0.2998
vn -0.2567 -0.9582 -0.1266
vn -0.1651 0.8748 -0.4555
vn -0.0423 -0.6443 -0.7636
vn 0.6088 -0.5562 -0.5656
vn -0.2516 0.9652 0.0706
vn 0.7716 -0.1098 0.6265
vn 0.4611 -0.8634 0.2046
vn 0.5410 0.7143 0.4439
vn 0.2297 0.6821 0.6942
vn 0.4815 -0.1488 0.8637
vn -0.5075 -0.0551 0.8599
vn 0.2925 0.2847 -0.9129
vn -0.4729 -0.0781 -0.8777
vn 0.1076 -0.6819 0.7234
vn -0.6687 0.6860 0.2868
vn -0.7908 -0.4858 -0.3722
vn 0.2613 -0.9642 -0.0445
vn -0.0638 0.8564 -0.5123
vn 0.4201 -0.4471 -0.7897
vn 0.5808 0.7155 -0.3882
vn 0.8357 -0.1204 -0.5359
vn 0.5114 -0.8146 -0.2735
vn 0.7658 -0.1215 0.6315
vn 0.4491 -0.8683 0.2107
vn 0.3216 0.7599 0.5649
vn 0.1874 -0.6705 0.7178
vn -0.4449 0.0622 0.8934
vn 0.1761 0.2842 0.9424
vn 0.6459 0.4298 -0.6309
vn 0.2422 0.3103 -0.9193
vn -0.8318 -0.1133 -0.5435
vn -0.7292 -0.0855 0.6789
vn -0.4078 0.0928 -0.9084
vn -0.5245 0.6289 0.5739
vn -0.3875 0.7670 -0.5114
vn -0.2598 -0.8874 0.3808
vn -0.7477 0.5938 0.2971
vn -0.5152 0.8179 0.2564
vn -0.8486 -0.3400 0.4052
vn -0.7863 0.5512 -0.2793
vn -0.2819 -0.8254 -0.4892
vn -0.6109 0.7326 -0.3001
vn -0.4975 -0.8582 -0.1265
vn 0.0689 0.8876 -0.4554
vn -0.2087 -0.6108 -0.7638
vn 0.4431 -0.6956 -0.5655
vn 0.0089 0.9975 0.0706
vn 0.7167 -0.3072 0.6260
vn 0.2209 -0.9535 0.2051
vn 0.7089 0.5484 0.4436
vn 0.3996 0.5987 0.6941
vn 0.4261 -0.2694 0.8636
vn -0.5043 0.0790 0.8599
vn 0.3564 0.1985 -0.9130
vn -0.4768 0.0480 -0.8777
vn -0.0738 -0.6862 0.7237
vn -0.4665 0.8367 0.2869
vn -0.8903 -0.2630 -0.3717
vn 0.0002 -0.9990 -0.0447
vn 0.1616 0.8436 -0.5120
vn 0.2888 -0.5412 -0.7898
vn 0.7476 0.5393 -0.3877
vn 0.7758 -0.3343 -0.5352
vn 0.2823 -0.9192 -0.2746
vn 0.7080 -0.3171 0.6310
vn 0.2074 -0.9551 0.2116
vn 0.5087 0.6499 0.5646
vn 0.0058 -0.6959 0.7181
vn -0.4132 0.1759 0.8935
vn 0.2438 0.2283 0.9426
vn 0.7361 0.2462 -0.6306
vn 0.3143 0.2364 -0.9194
vn -0.8327 0.1071 -0.5432
vn -0.7265 0.1072 0.6788
vn -0.3694 0.1957 -0.9084
vn -0.3421 0.7439 0.5741
vn 0.7244 0.0161 0.6892
vn 0.7283 0.0154 0.6851
vn 0.7194 0.0174 0.6944
vn -0.6602 0.2591 -0.7050
vn -0.6649 0.2583 -0.7008
vn -0.6584 0.2594 -0.7065
vn -0.7329 -0.0091 0.6803
vn -0.7273 -0.0111 0.6863
vn -0.7385 -0.0120 0.6741
vn 0.7125 -0.0125 -0.7016
vn 0.7066 -0.0127 -0.7075
vn 0.7046 -0.0127 -0.7095
vn -0.7441 -0.0226 -0.6677
vn -0.7347 -0.0283 -0.6779
vn -0.7513 -0.0171 -0.6598
vn -0.5303 0.4574 0.7139
vn -0.5320 0.4594 0.7113
vn -0.5295 0.4564 0.7150
vn 0.6954 -0.0630 0.7158
vn -0.6352 0.2979 0.7126
vn 0.6804 -0.0990 -0.7261
vn 0.5310 -0.4610 -0.7110
vn -0.6197 0.3622 -0.6962
vn -0.6161 0.3608 -0.7002
vn -0.6215 0.3627 -0.6944
vn 0.6154 -0.3576 0.7024
vn -0.5573 -0.4352 0.7071
vn -0.5601 -0.4364 0.7042
vn -0.5575 -0.4357 0.7067
vn 0.7108 0.5557 -0.4312
vn 0.6694 0.5422 -0.5079
vn 0.7280 0.5647 -0.3888
vn -0.4569 -0.5991 -0.6574
vn 0.5249 0.6745 0.5192
vn 0.5286 0.6807 0.5072
vn 0.5235 0.6712 0.5249
vn -0.5597 -0.4421 0.7009
vn -0.5570 -0.4433 0.7023
vn 0.5561 0.4449 0.7020
vn 0.5523 0.4656 0.6915
vn 0.5342 0.4538 0.7132
vn 0.5541 0.4424 0.7052
vn -0.5692 -0.4531 -0.6861
vn 0.5389 0.4155 -0.7327
vn 0.5410 0.4351 -0.7197
vn 0.5606 0.4283 -0.7087
vn 0.7115 0.0225 0.7024
vn 0.7052 0.0223 0.7087
vn 0.7066 0.0222 0.7073
vn -0.6663 0.2580 -0.6996
vn -0.7390 -0.0002 0.6737
vn 0.7022 -0.0010 -0.7120
vn 0.6964 0.0007 -0.7177
vn 0.7070 -0.0019 -0.7072
vn -0.7459 -0.0314 -0.6653
vn -0.7519 -0.0294 -0.6586
vn -0.7407 -0.0327 -0.6710
vn -0.5328 0.4604 0.7100
vn 0.7171 -0.0586 0.6946
vn -0.6142 0.3018 0.7292
vn 0.6632 -0.1029 -0.7414
vn 0.5282 -0.4577 -0.7152
vn -0.6144 0.3602 -0.7019
vn 0.6234 -0.3603 0.6940
vn -0.5422 -0.4270 0.7237
vn -0.5423 -0.4291 0.7223
vn 0.6099 0.4902 -0.6227
vn 0.5287 0.4471 -0.7216
vn 0.5485 0.4392 -0.7115
vn -0.3887 -0.4824 -0.7850
vn 0.4481 0.5613 0.6958
vn 0.4346 0.5798 0.6892
vn 0.4567 0.5715 0.6818
vn 0.6244 -0.7811 0.0039
vn 0.6212 -0.7836 -0.0001
s off
f 1/1/1 2/2/1 3/3/1
f 4/4/2 5/5/2 6/6/2
f 7/7/3 8/8/3 9/9/3
f 7/7/4 1/1/4 8/8/4
f 5/5/5 10/10/5 6/6/5
f 9/9/6 8/8/6 10/10/6
f 10/10/7 8/8/7 3/3/7
f 11/11/8 12/12/8 6/6/8
f 1/1/9 3/3/9 8/8/9
f 4/4/10 12/12/10 13/13/10
f 14/14/11 2/2/11 1/1/11
f 15/15/12 12/12/12 11/11/12
f 14/14/13 16/16/13 17/17/13
f 18/18/14 19/19/14 12/12/14
f 1/1/15 16/16/15 14/14/15
f 20/20/16 19/19/16 21/21/16
f 22/22/17 13/13/17 19/19/17
f 17/17/18 20/20/18 21/21/18
f 16/16/19 23/23/19 20/20/19
f 24/24/20 22/22/20 20/20/20
f 24/24/21 7/7/21 5/5/21
f 15/15/22 25/25/22 18/18/22
f 3/3/23 15/15/23 11/11/23
f 24/24/24 5/5/24 4/4/24
f 7/7/25 16/16/25 1/1/25
f 5/5/26 9/9/26 10/10/26
f 6/6/27 10/10/27 11/11/27
f 4/4/28 6/6/28 12/12/28
f 14/14/29 25/25/29 2/2/29
f 15/15/30 18/18/30 12/12/30
f 14/14/31 17/17/31 25/25/31
f 17/17/32 21/21/32 25/25/32
f 18/18/33 21/21/33 19/19/33
f 12/12/34 19/19/34 13/13/34
f 20/20/35 22/22/35 19/19/35
f 22/22/36 4/4/36 13/13/36
f 17/17/37 16/16/37 20/20/37
f 24/24/38 4/4/38 22/22/38
f 24/24/39 23/23/39 7/7/39
f 20/20/40 23/23/40 24/24/40
f 18/18/41 25/25/41 21/21/41
f 15/15/42 2/2/42 25/25/42
f 10/10/43 3/3/43 11/11/43
f 5/5/44 7/7/44 9/9/44
f 3/3/45 2/2/45 15/15/45
f 16/16/46 7/7/46 23/23/46
f 26/26/47 27/27/47 28/28/47
f 29/29/48 30/30/48 31/31/48
f 32/32/49 33/33/49 34/34/49
f 32/32/50 26/26/50 33/33/50
f 30/30/51 35/35/51 31/31/51
f 34/34/52 33/33/52 35/35/52
f 35/35/53 33/33/53 28/28/53
f 36/36/54 37/37/54 31/31/54
f 26/26/55 28/28/55 33/33/55
f 29/29/56 37/37/56 38/38/56
f 39/39/57 27/27/57 26/26/57
f 40/40/58 37/37/58 36/36/58
f 39/39/59 41/41/59 42/42/59
f 43/43/60 44/44/60 37/37/60
f 26/26/61 41/41/61 39/39/61
f 45/45/62 44/44/62 46/46/62
f 47/47/63 38/38/63 44/44/63
f 42/42/64 45/45/64 46/46/64
f 41/41/65 48/48/65 45/45/65
f 49/49/66 47/47/66 45/45/66
f 49/49/67 32/32/67 30/30/67
f 40/40/68 50/50/68 43/43/68
f 28/28/69 40/40/69 36/36/69
f 49/49/70 30/30/70 29/29/70
f 32/32/71 41/41/71 26/26/71
f 30/30/72 34/34/72 35/35/72
f 31/31/73 35/35/73 36/36/73
f 29/29/74 31/31/74 37/37/74
f 39/39/75 50/50/75 27/27/75
f 40/40/76 43/43/76 37/37/76
f 39/39/77 42/42/77 50/50/77
f 42/42/78 46/46/78 50/50/78
f 43/43/79 46/46/79 44/44/79
f 37/37/80 44/44/80 38/38/80
f 45/45/81 47/47/81 44/44/81
f 47/47/82 29/29/82 38/38/82
f 42/42/83 41/41/83 45/45/83
f 49/49/84 29/29/84 47/47/84
f 49/49/85 48/48/85 32/32/85
f 45/45/86 48/48/86 49/49/86
f 43/43/87 50/50/87 46/46/87
f 40/40/88 27/27/88 50/50/88
f 35/35/89 28/28/89 36/36/89
f 30/30/90 32/32/90 34/34/90
f 28/28/91 27/27/91 40/40/91
f 41/41/92 32/32/92 48/48/92
f 51/51/93 52/52/93 53/53/93
f 54/54/94 55/55/94 56/56/94
f 57/57/95 58/58/95 59/59/95
f 57/57/96 51/51/96 58/58/96
f 55/55/97 59/59/97 56/56/97
f 59/59/98 58/58/98 53/53/98
f 60/60/99 61/61/99 56/56/99
f 51/51/100 53/53/100 58/58/100
f 54/54/101 61/61/101 62/62/101
f 63/63/102 52/52/102 51/51/102
f 64/64/103 61/61/103 60/60/103
f 65/65/104 66/66/104 61/61/104
f 51/51/105 67/67/105 63/63/105
f 68/68/106 66/66/106 69/69/106
f 70/70/107 62/62/107 66/66/107
f 63/63/108 68/68/108 69/69/108
f 67/67/109 71/71/109 68/68/109
f 72/72/110 70/70/110 68/68/110
f 72/72/111 57/57/111 55/55/111
f 64/64/112 73/73/112 65/65/112
f 53/53/113 64/64/113 60/60/113
f 72/72/114 55/55/114 54/54/114
f 57/57/115 67/67/115 51/51/115
f 56/56/116 59/59/116 60/60/116
f 54/54/117 56/56/117 61/61/117
f 63/63/118 73/73/118 52/52/118
f 64/64/119 65/65/119 61/61/119
f 63/63/120 69/69/120 73/73/120
f 65/65/121 69/69/121 66/66/121
f 61/61/122 66/66/122 62/62/122
f 68/68/123 70/70/123 66/66/123
f 70/70/124 54/54/124 62/62/124
f 63/63/125 67/67/125 68/68/125
f 72/72/126 54/54/126 70/70/126
f 72/72/127 71/71/127 57/57/127
f 68/68/128 71/71/128 72/72/128
f 65/65/129 73/73/129 69/69/129
f 64/64/130 52/52/130 73/73/130
f 59/59/131 53/53/131 60/60/131
f 55/55/132 57/57/132 59/59/132
f 53/53/133 52/52/133 64/64/133
f 67/67/134 57/57/134 71/71/134
f 74/74/135 75/75/135 76/76/135
f 77/77/136 78/78/136 79/79/136
f 80/80/137 81/81/137 82/82/137
f 80/80/138 74/74/138 81/81/138
f 78/78/139 82/82/139 79/79/139
f 82/82/140 81/81/140 76/76/140
f 83/83/141 84/84/141 79/79/141
f 74/74/142 76/76/142 81/81/142
f 77/77/143 84/84/143 85/85/143
f 86/86/144 75/75/144 74/74/144
f 87/87/145 84/84/145 83/83/145
f 88/88/146 89/89/146 84/84/146
f 74/74/147 90/90/147 86/86/147
f 91/91/148 89/89/148 92/92/148
f 93/93/149 85/85/149 89/89/149
f 86/86/150 91/91/150 92/92/150
f 90/90/151 94/94/151 91/91/151
f 95/95/152 93/93/152 91/91/152
f 95/95/153 80/80/153 78/78/153
f 87/87/154 96/96/154 88/88/154
f 76/76/155 87/87/155 83/83/155
f 95/95/156 78/78/156 77/77/156
f 80/80/157 90/90/157 74/74/157
f 79/79/158 82/82/158 83/83/158
f 77/77/159 79/79/159 84/84/159
f 86/86/160 96/96/160 75/75/160
f 87/87/161 88/88/161 84/84/161
f 86/86/162 92/92/162 96/96/162
f 88/88/163 92/92/163 89/89/163
f 84/84/164 89/89/164 85/85/164
f 91/91/165 93/93/165 89/89/165
f 93/93/166 77/77/166 85/85/166
f 86/86/167 90/90/167 91/91/167
f 95/95/168 77/77/168 93/93/168
f 95/95/169 94/94/169 80/80/169
f 91/91/170 94/94/170 95/95/170
f 88/88/171 96/96/171 92/92/171
f 87/87/172 75/75/172 96/96/172
f 82/82/173 76/76/173 83/83/173
f 78/78/174 80/80/174 82/82/174
f 76/76/175 75/75/175 87/87/175
f 90/90/176 80/80/176 94/94/176
f 97/97/135 98/98/135 99/99/135
f 100/100/136 101/101/136 102/102/136
f 103/103/137 104/104/137 105/105/137
f 103/103/138 97/97/138 104/104/138
f 101/101/139 105/105/139 102/102/139
f 105/105/140 104/104/140 99/99/140
f 106/106/141 107/107/141 102/102/141
f 97/97/142 99/99/142 104/104/142
f 100/100/143 107/107/143 108/108/143
f 109/109/144 98/98/144 97/97/144
f 110/110/145 107/107/145 106/106/145
f 111/111/146 112/112/146 107/107/146
f 97/97/147 113/113/147 109/109/147
f 114/114/148 112/112/148 115/115/148
f 116/116/149 108/108/149 112/112/149
f 109/109/150 114/114/150 115/115/150
f 113/113/151 117/117/151 114/114/151
f 118/118/152 116/116/152 114/114/152
f 118/118/153 103/103/153 101/101/153
f 110/110/154 119/119/154 111/111/154
f 99/99/155 110/110/155 106/106/155
f 118/118/156 101/101/156 100/100/156
f 103/103/157 113/113/157 97/97/157
f 102/102/158 105/105/158 106/106/158
f 100/100/159 102/102/159 107/107/159
f 109/109/160 119/119/160 98/98/160
f 110/110/161 111/111/161 107/107/161
f 109/109/162 115/115/162 119/119/162
f 111/111/163 115/115/163 112/112/163
f 107/107/164 112/112/164 108/108/164
f 114/114/165 116/116/165 112/112/165
f 116/116/166 100/100/166 108/108/166
f 109/109/167 113/113/167 114/114/167
f 118/118/168 100/100/168 116/116/168
f 118/118/169 117/117/169 103/103/169
f 114/114/170 117/117/170 118/118/170
f 111/111/171 119/119/171 115/115/171
f 110/110/172 98/98/172 119/119/172
f 105/105/173 99/99/173 106/106/173
f 101/101/174 103/103/174 105/105/174
f 99/99/175 98/98/175 110/110/175
f 113/113/176 103/103/176 117/117/176
s 1
f 120/120/177 121/121/178 122/122/179
f 123/123/180 124/124/181 125/125/182
f 126/126/183 122/122/184 127/127/185
f 128/128/186 121/121/187 129/129/188
f 126/126/189 123/123/190 128/128/191
f 124/124/192 130/130/193 131/131/194
f 121/121/195 132/132/195 122/122/195
f 122/122/196 124/124/196 127/127/196
f 121/121/197 125/125/197 133/133/197
f 125/125/198 134/134/198 133/133/198
f 125/125/199 131/131/200 135/135/201
f 133/133/202 130/130/202 132/132/202
f 136/136/203 137/137/204 138/138/205
f 139/139/206 140/140/207 141/141/208
f 139/139/209 138/138/209 142/142/209
f 141/141/210 137/137/211 143/143/212
f 138/138/205 137/137/204 144/144/213 145/145/214
f 137/137/215 140/140/216 146/146/217 144/144/218
f 142/142/219 138/138/219 145/145/219 147/147/219
f 140/140/220 142/142/221 147/147/221 146/146/222
f 120/120/223 129/129/224 121/121/225
f 123/123/180 127/127/226 124/124/181
f 126/126/183 120/120/227 122/122/184
f 128/128/228 123/123/229 121/121/230
f 126/126/231 127/127/232 123/123/233
f 124/124/192 132/132/234 130/130/193
f 121/121/235 133/133/235 132/132/235
f 122/122/236 132/132/236 124/124/236
f 121/121/237 123/123/237 125/125/237
f 125/125/238 135/135/238 134/134/238
f 125/125/199 124/124/239 131/131/200
f 133/133/240 134/134/240 130/130/240
f 136/136/241 143/143/241 137/137/242
f 139/139/243 142/142/244 140/140/245
f 139/139/246 136/136/246 138/138/246
f 141/141/247 140/140/248 137/137/249
f 141/141/250 143/143/251 136/136/251 139/139/251
