# Blender v2.90.0 Alpha OBJ File: 'Decos.blend'
# www.blender.org
o Cube.003_Cube.059
v -0.063698 11.012561 -6.721060
v -0.063965 6.724112 0.151660
v -7.370696 12.168838 0.218788
v -5.307687 17.233534 0.191128
v -0.077601 17.273464 -4.865281
v -0.069997 19.719732 0.271464
v -0.064893 17.451658 4.729497
v 5.151450 17.252733 0.213655
v 7.225924 12.156965 0.246505
v -0.072028 11.606739 6.365455
v 3.359426 17.352196 3.217942
v -3.503634 17.342596 3.203160
v -3.511972 17.253498 -3.092726
v 3.351088 17.263100 -3.077944
vt 0.257812 0.835938
vt 0.257812 0.835938
vt 0.257812 0.835938
vt 0.257812 0.835937
vt 0.257812 0.835938
vt 0.257812 0.835938
vt 0.257812 0.835938
vt 0.257812 0.835938
vt 0.257812 0.835938
vt 0.257812 0.835938
vt 0.257812 0.835938
vt 0.257812 0.835938
vt 0.257812 0.835938
vt 0.257812 0.835938
vn 0.0225 -0.1154 -0.9931
vn -0.6359 -0.3784 0.6726
vn -0.9903 -0.1214 0.0669
vn -0.5655 0.5494 -0.6152
vn 0.0003 0.6211 -0.7837
vn -0.0008 1.0000 0.0068
vn 0.0613 0.6005 0.7973
vn 0.5628 0.5461 0.6205
vn 0.5657 0.5503 -0.6141
vn 0.7791 0.6227 -0.0721
vn 0.9973 -0.0394 0.0612
vn 0.0009 -0.0985 0.9951
vn -0.8034 0.5951 0.0182
vn -0.5442 0.5422 0.6402
s 1
f 1/1/1 2/2/2 3/3/3
f 1/1/1 13/4/4 5/5/5
f 6/6/6 7/7/7 11/8/8
f 14/9/9 8/10/10 9/11/11
f 9/11/11 10/12/12 2/2/2
f 11/8/8 7/7/7 10/12/12
f 13/4/4 4/13/13 6/6/6
f 1/1/1 9/11/11 2/2/2
f 6/6/6 4/13/13 12/14/14
f 10/12/12 3/3/3 2/2/2
f 12/14/14 4/13/13 3/3/3
f 6/6/6 8/10/10 14/9/9
f 9/11/11 8/10/10 11/8/8
f 10/12/12 7/7/7 12/14/14
f 10/12/12 12/14/14 3/3/3
f 3/3/3 4/13/13 13/4/4
f 1/1/1 14/9/9 9/11/11
f 1/1/1 5/5/5 14/9/9
f 1/1/1 3/3/3 13/4/4
f 9/11/11 11/8/8 10/12/12
f 5/5/5 13/4/4 6/6/6
f 7/7/7 6/6/6 12/14/14
f 8/10/10 6/6/6 11/8/8
f 5/5/5 6/6/6 14/9/9
