# Blender v2.90.0 Alpha OBJ File: 'Cactus.blend'
# www.blender.org
o Cube.001_Cube.007
v -0.254287 10.711902 -2.906653
v 0.421754 9.344375 -5.469743
v -1.686210 8.768188 -4.736753
v 0.183248 4.832987 -0.673037
v -1.859193 5.690667 -0.068076
v -2.681573 4.911603 -2.444382
v -1.390924 9.118795 -0.108204
v -2.069999 9.407624 -2.394274
v -3.547311 7.424620 -2.148671
v -2.081092 6.026817 -4.672029
v 0.891082 5.012208 -4.672927
v 1.199199 4.567483 -2.867446
v 2.831935 10.658701 -2.543380
v 0.559787 6.861009 -6.060968
v 3.207709 6.788742 -5.043192
v 4.449818 5.423201 -2.390003
v 0.845508 10.539990 -0.617035
v 3.167274 7.921981 0.304524
v 5.285106 7.366190 -2.392802
v 2.416467 5.445299 -0.097626
v 0.400458 9.336195 0.677499
v 0.558942 6.817085 1.246709
v 2.629245 9.386005 -4.704408
v -2.027867 8.834828 -0.681470
v -1.468575 7.703461 -2.801935
v -3.212509 7.226778 -2.195526
v -1.665893 3.971155 1.166419
v -3.355620 4.680719 1.666908
v -4.035980 4.036194 -0.299029
v -2.968217 7.516838 1.633709
v -3.530022 7.755789 -0.257575
v -4.752211 6.115233 -0.054386
v -3.539199 4.958820 -2.141980
v -1.080296 4.119426 -2.142723
v -0.825387 3.751501 -0.649034
v 0.525389 8.790815 -0.380931
v -1.354378 5.648953 -3.291060
v 0.836269 5.589166 -2.449046
v 1.863874 4.459443 -0.254041
v -1.117999 8.692605 1.212750
v 0.802816 6.526704 1.975163
v 2.554915 6.066895 -0.256357
v 0.181668 4.477724 1.642461
v -1.486192 7.696695 2.283728
v -1.355077 5.612614 2.754640
v 0.357701 7.737903 -2.168767
v 1.966972 9.644529 -2.194899
v -0.007310 8.510131 -3.286876
v -0.627706 10.185551 -3.185372
v -4.085493 10.113379 1.250501
v -3.138331 11.669641 0.834758
v -4.512962 11.607530 -0.720179
v 0.679673 11.242114 -0.141535
v 0.514243 11.076802 -1.933043
v -1.722387 12.219991 -1.544595
v -3.675702 10.550515 -2.388466
v -4.624046 8.520911 -1.272549
v -4.746893 8.815228 0.149003
v 2.161469 7.610019 -1.108041
v -2.865661 8.319332 -2.863498
v -2.590763 6.768275 -1.453621
v -3.513417 6.673776 1.070722
v 2.287533 9.516526 -0.324718
v -0.296098 8.233428 1.732247
v -1.311836 6.042582 0.683681
v -3.162837 8.709416 2.040408
v 1.179600 10.212267 0.793280
v -1.491138 10.326776 2.004182
v 0.318541 7.191492 -2.198699
v 0.000000 -2.404604 1.264325
v 0.649473 1.440917 -0.043914
v -0.018317 1.738901 0.631044
v -0.018317 1.738901 -0.682647
v 0.155358 3.815588 -0.082153
v 0.518025 3.675058 -0.471723
v -1.264326 -2.404604 -0.000000
v -0.603681 2.036886 -0.015225
v 0.000000 -2.404604 -1.264326
v 1.264326 -2.404604 -0.000000
v 1.696751 5.331757 0.091529
v 1.406609 5.571563 -0.276402
v 0.517133 3.674067 0.281113
v 0.884602 3.538873 -0.109664
v 1.986895 5.091949 -0.293581
v 1.696753 5.331757 -0.661307
v -0.332014 2.179738 -0.072275
v -1.391348 3.802611 0.091530
v -1.730184 3.638661 -0.276400
v 0.120352 2.392829 -0.427199
v -1.039919 3.980553 -0.293580
v 0.203073 2.603898 0.034193
v -1.391348 3.802611 -0.661306
v 0.118627 2.391324 0.390217
v -2.439538 5.112772 0.091530
v -2.791116 4.978298 -0.276400
v -2.074223 5.260113 -0.293580
v -2.439538 5.112772 -0.661306
vt 0.007812 0.710938
vt 0.007812 0.710938
vt 0.007812 0.710938
vt 0.007812 0.710938
vt 0.007812 0.710938
vt 0.007812 0.710938
vt 0.007812 0.710938
vt 0.007812 0.710938
vt 0.007812 0.710938
vt 0.007812 0.710938
vt 0.007812 0.710938
vt 0.007812 0.710938
vt 0.007812 0.710938
vt 0.007812 0.710938
vt 0.007812 0.710938
vt 0.007812 0.710938
vt 0.007812 0.710938
vt 0.007812 0.710938
vt 0.007812 0.710938
vt 0.007812 0.710938
vt 0.007812 0.710938
vt 0.007812 0.710938
vt 0.007812 0.710938
vt 0.007812 0.710938
vt 0.007812 0.710938
vt 0.007812 0.710938
vt 0.007812 0.710938
vt 0.007812 0.710938
vt 0.007812 0.710938
vt 0.007812 0.710938
vt 0.007812 0.710938
vt 0.007812 0.710938
vt 0.007812 0.710938
vt 0.007812 0.710938
vt 0.007812 0.710938
vt 0.007812 0.710938
vt 0.007812 0.710938
vt 0.007812 0.710938
vt 0.007812 0.710938
vt 0.007812 0.710938
vt 0.007812 0.710938
vt 0.007812 0.710938
vt 0.007812 0.710938
vt 0.007812 0.710938
vt 0.007812 0.710938
vt 0.007812 0.710938
vt 0.007812 0.710938
vt 0.007812 0.710938
vt 0.007812 0.710938
vt 0.007812 0.710938
vt 0.007812 0.710938
vt 0.007812 0.710938
vt 0.007812 0.710938
vt 0.007812 0.710938
vt 0.007812 0.710938
vt 0.007812 0.710938
vt 0.007812 0.710938
vt 0.007812 0.710938
vt 0.007812 0.710938
vt 0.007812 0.710938
vt 0.007812 0.710938
vt 0.007812 0.710938
vt 0.007812 0.710938
vt 0.007812 0.710938
vt 0.007812 0.710938
vt 0.007812 0.710938
vt 0.007812 0.710938
vt 0.007812 0.710938
vt 0.007812 0.710938
vt 0.039062 0.710938
vt 0.039062 0.710938
vt 0.039062 0.710938
vt 0.039062 0.710938
vt 0.039062 0.710938
vt 0.039062 0.710938
vt 0.039062 0.710938
vt 0.039062 0.710938
vt 0.039062 0.710938
vt 0.039062 0.710938
vt 0.039062 0.710938
vt 0.039062 0.710938
vt 0.039062 0.710938
vt 0.039062 0.710938
vt 0.039062 0.710938
vt 0.039062 0.710938
vt 0.039062 0.710938
vt 0.039062 0.710938
vt 0.039062 0.710938
vt 0.039062 0.710938
vt 0.039062 0.710938
vt 0.039062 0.710938
vt 0.039062 0.710938
vt 0.039062 0.710938
vt 0.039062 0.710938
vt 0.039062 0.710938
vt 0.039062 0.710938
vt 0.039062 0.710938
vn -0.3875 0.7670 -0.5114
vn -0.2598 -0.8874 0.3808
vn -0.7477 0.5938 0.2971
vn -0.5152 0.8179 0.2564
vn -0.8486 -0.3400 0.4052
vn -0.7863 0.5512 -0.2793
vn -0.2819 -0.8254 -0.4892
vn -0.6109 0.7326 -0.3001
vn -0.4975 -0.8582 -0.1265
vn 0.0689 0.8876 -0.4554
vn -0.2087 -0.6108 -0.7638
vn 0.4431 -0.6956 -0.5655
vn 0.0089 0.9975 0.0706
vn 0.7167 -0.3072 0.6260
vn 0.2209 -0.9535 0.2051
vn 0.7089 0.5484 0.4436
vn 0.3996 0.5987 0.6941
vn 0.4261 -0.2694 0.8636
vn -0.5043 0.0790 0.8599
vn 0.3564 0.1985 -0.9130
vn -0.4768 0.0480 -0.8777
vn -0.0738 -0.6862 0.7237
vn -0.4665 0.8367 0.2869
vn -0.8903 -0.2630 -0.3717
vn 0.0002 -0.9990 -0.0447
vn 0.1616 0.8436 -0.5120
vn 0.2888 -0.5412 -0.7898
vn 0.7476 0.5393 -0.3877
vn 0.7758 -0.3343 -0.5352
vn 0.2823 -0.9192 -0.2746
vn 0.7080 -0.3171 0.6310
vn 0.2074 -0.9551 0.2116
vn 0.5087 0.6499 0.5646
vn 0.0058 -0.6959 0.7181
vn -0.4132 0.1759 0.8935
vn 0.2438 0.2283 0.9426
vn 0.7361 0.2462 -0.6306
vn 0.3143 0.2364 -0.9194
vn -0.8327 0.1071 -0.5432
vn -0.7265 0.1072 0.6788
vn -0.3694 0.1957 -0.9084
vn -0.3421 0.7439 0.5741
vn 0.3853 0.1973 -0.9015
vn -0.6425 0.5371 0.5466
vn 0.4347 0.8922 -0.1225
vn 0.6842 0.7177 -0.1294
vn -0.1791 0.9766 0.1193
vn 0.2284 0.6827 -0.6941
vn -0.8543 0.1212 -0.5055
vn 0.3962 0.5379 -0.7441
vn -0.8022 0.5672 -0.1867
vn 0.5957 -0.3334 -0.7307
vn -0.6738 -0.0885 -0.7336
vn -0.6434 -0.7193 -0.2621
vn 0.9857 0.0041 -0.1687
vn 0.0305 -0.4430 0.8960
vn -0.7604 -0.1679 0.6274
vn 0.5653 -0.5544 0.6108
vn 0.6584 -0.1400 0.7396
vn 0.0942 -0.0752 0.9927
vn 0.2343 0.7858 0.5723
vn -0.0881 -0.6785 -0.7293
vn -0.2378 0.1189 -0.9640
vn -0.2856 0.4058 0.8682
vn 0.7253 0.6840 -0.0775
vn -0.3384 0.7088 -0.6189
vn -0.9777 -0.0024 0.2102
vn 0.5273 -0.4595 -0.7147
vn -0.5711 -0.6053 -0.5545
vn 0.3219 -0.9280 -0.1878
vn -0.2960 -0.9443 -0.1435
vn -0.8711 -0.4904 0.0263
vn 0.0249 -0.4334 0.9009
vn -0.7624 -0.1464 0.6303
vn 0.6820 -0.3161 0.6595
vn -0.2885 0.3184 0.9030
vn 0.3131 0.7172 0.6226
vn 0.4142 0.1193 0.9023
vn 0.0475 -0.9368 -0.3465
vn -0.0696 -0.6451 -0.7609
vn -0.1421 0.5739 -0.8065
vn 0.1871 0.9268 0.3257
vn -0.1469 0.0055 -0.9891
vn 0.7112 0.6294 0.3131
vn 0.7247 0.0207 0.6888
vn 0.7283 0.0200 0.6849
vn 0.7200 0.0220 0.6936
vn -0.6602 0.2591 -0.7050
vn -0.6649 0.2583 -0.7008
vn -0.6584 0.2594 -0.7065
vn -0.7329 -0.0044 0.6803
vn -0.7277 -0.0064 0.6859
vn -0.7379 -0.0076 0.6749
vn 0.7122 -0.0076 -0.7020
vn 0.7067 -0.0078 -0.7075
vn 0.7048 -0.0078 -0.7094
vn -0.7446 -0.0182 -0.6673
vn -0.7358 -0.0236 -0.6768
vn -0.7512 -0.0130 -0.6599
vn -0.5303 0.4574 0.7139
vn -0.5320 0.4594 0.7113
vn -0.5295 0.4564 0.7150
vn 0.6954 -0.0630 0.7158
vn -0.6352 0.2979 0.7126
vn 0.6804 -0.0990 -0.7261
vn 0.5310 -0.4610 -0.7110
vn -0.6197 0.3622 -0.6962
vn -0.6161 0.3608 -0.7002
vn -0.6215 0.3627 -0.6944
vn 0.6154 -0.3576 0.7024
vn -0.5573 -0.4352 0.7071
vn -0.5601 -0.4364 0.7042
vn -0.5575 -0.4357 0.7067
vn 0.7108 0.5557 -0.4312
vn 0.6694 0.5422 -0.5079
vn 0.7280 0.5647 -0.3888
vn -0.4569 -0.5991 -0.6574
vn 0.5249 0.6745 0.5192
vn 0.5286 0.6807 0.5072
vn 0.5235 0.6712 0.5249
vn -0.5597 -0.4421 0.7009
vn -0.5570 -0.4433 0.7023
vn 0.5561 0.4449 0.7020
vn 0.5523 0.4656 0.6915
vn 0.5342 0.4538 0.7132
vn 0.5541 0.4424 0.7052
vn -0.5692 -0.4531 -0.6861
vn 0.5389 0.4155 -0.7327
vn 0.5410 0.4351 -0.7197
vn 0.5606 0.4283 -0.7087
vn 0.7111 0.0281 0.7026
vn 0.7052 0.0279 0.7085
vn 0.7065 0.0279 0.7072
vn -0.6663 0.2580 -0.6996
vn -0.7389 0.0043 0.6738
vn 0.7026 0.0034 -0.7116
vn 0.6971 0.0051 -0.7170
vn 0.7070 0.0026 -0.7072
vn -0.7459 -0.0270 -0.6655
vn -0.7515 -0.0251 -0.6593
vn -0.7410 -0.0283 -0.6709
vn -0.5328 0.4604 0.7100
vn 0.7171 -0.0586 0.6946
vn -0.6142 0.3018 0.7292
vn 0.6632 -0.1029 -0.7414
vn 0.5282 -0.4577 -0.7152
vn -0.6144 0.3602 -0.7019
vn 0.6234 -0.3603 0.6940
vn -0.5422 -0.4270 0.7237
vn -0.5423 -0.4291 0.7223
vn 0.6099 0.4902 -0.6227
vn 0.5287 0.4471 -0.7216
vn 0.5485 0.4392 -0.7115
vn -0.3887 -0.4824 -0.7850
vn 0.4481 0.5613 0.6958
vn 0.4346 0.5798 0.6892
vn 0.4567 0.5715 0.6818
vn 0.6244 -0.7811 0.0039
vn 0.6212 -0.7836 -0.0001
s off
f 1/1/1 2/2/1 3/3/1
f 4/4/2 5/5/2 6/6/2
f 7/7/3 8/8/3 9/9/3
f 7/7/4 1/1/4 8/8/4
f 5/5/5 9/9/5 6/6/5
f 9/9/6 8/8/6 3/3/6
f 10/10/7 11/11/7 6/6/7
f 1/1/8 3/3/8 8/8/8
f 4/4/9 11/11/9 12/12/9
f 13/13/10 2/2/10 1/1/10
f 14/14/11 11/11/11 10/10/11
f 15/15/12 16/16/12 11/11/12
f 1/1/13 17/17/13 13/13/13
f 18/18/14 16/16/14 19/19/14
f 20/20/15 12/12/15 16/16/15
f 13/13/16 18/18/16 19/19/16
f 17/17/17 21/21/17 18/18/17
f 22/22/18 20/20/18 18/18/18
f 22/22/19 7/7/19 5/5/19
f 14/14/20 23/23/20 15/15/20
f 3/3/21 14/14/21 10/10/21
f 22/22/22 5/5/22 4/4/22
f 7/7/23 17/17/23 1/1/23
f 6/6/24 9/9/24 10/10/24
f 4/4/25 6/6/25 11/11/25
f 13/13/26 23/23/26 2/2/26
f 14/14/27 15/15/27 11/11/27
f 13/13/28 19/19/28 23/23/28
f 15/15/29 19/19/29 16/16/29
f 11/11/30 16/16/30 12/12/30
f 18/18/31 20/20/31 16/16/31
f 20/20/32 4/4/32 12/12/32
f 13/13/33 17/17/33 18/18/33
f 22/22/34 4/4/34 20/20/34
f 22/22/35 21/21/35 7/7/35
f 18/18/36 21/21/36 22/22/36
f 15/15/37 23/23/37 19/19/37
f 14/14/38 2/2/38 23/23/38
f 9/9/39 3/3/39 10/10/39
f 5/5/40 7/7/40 9/9/40
f 3/3/41 2/2/41 14/14/41
f 17/17/42 7/7/42 21/21/42
f 24/24/1 25/25/1 26/26/1
f 27/27/2 28/28/2 29/29/2
f 30/30/3 31/31/3 32/32/3
f 30/30/4 24/24/4 31/31/4
f 28/28/5 32/32/5 29/29/5
f 32/32/6 31/31/6 26/26/6
f 33/33/7 34/34/7 29/29/7
f 24/24/8 26/26/8 31/31/8
f 27/27/9 34/34/9 35/35/9
f 36/36/10 25/25/10 24/24/10
f 37/37/11 34/34/11 33/33/11
f 38/38/12 39/39/12 34/34/12
f 24/24/13 40/40/13 36/36/13
f 41/41/14 39/39/14 42/42/14
f 43/43/15 35/35/15 39/39/15
f 36/36/16 41/41/16 42/42/16
f 40/40/17 44/44/17 41/41/17
f 45/45/18 43/43/18 41/41/18
f 45/45/19 30/30/19 28/28/19
f 37/37/20 46/46/20 38/38/20
f 26/26/21 37/37/21 33/33/21
f 45/45/22 28/28/22 27/27/22
f 30/30/23 40/40/23 24/24/23
f 29/29/24 32/32/24 33/33/24
f 27/27/25 29/29/25 34/34/25
f 36/36/26 46/46/26 25/25/26
f 37/37/27 38/38/27 34/34/27
f 36/36/28 42/42/28 46/46/28
f 38/38/29 42/42/29 39/39/29
f 34/34/30 39/39/30 35/35/30
f 41/41/31 43/43/31 39/39/31
f 43/43/32 27/27/32 35/35/32
f 36/36/33 40/40/33 41/41/33
f 45/45/34 27/27/34 43/43/34
f 45/45/35 44/44/35 30/30/35
f 41/41/36 44/44/36 45/45/36
f 38/38/37 46/46/37 42/42/37
f 37/37/38 25/25/38 46/46/38
f 32/32/39 26/26/39 33/33/39
f 28/28/40 30/30/40 32/32/40
f 26/26/41 25/25/41 37/37/41
f 40/40/42 30/30/42 44/44/42
f 47/47/43 48/48/43 49/49/43
f 50/50/44 51/51/44 52/52/44
f 53/53/45 54/54/45 55/55/45
f 53/53/46 47/47/46 54/54/46
f 51/51/47 55/55/47 52/52/47
f 55/55/48 54/54/48 49/49/48
f 56/56/49 57/57/49 52/52/49
f 47/47/50 49/49/50 54/54/50
f 50/50/51 57/57/51 58/58/51
f 59/59/52 48/48/52 47/47/52
f 60/60/53 57/57/53 56/56/53
f 61/61/54 62/62/54 57/57/54
f 47/47/55 63/63/55 59/59/55
f 64/64/56 62/62/56 65/65/56
f 66/66/57 58/58/57 62/62/57
f 59/59/58 64/64/58 65/65/58
f 63/63/59 67/67/59 64/64/59
f 68/68/60 66/66/60 64/64/60
f 68/68/61 53/53/61 51/51/61
f 60/60/62 69/69/62 61/61/62
f 49/49/63 60/60/63 56/56/63
f 68/68/64 51/51/64 50/50/64
f 53/53/65 63/63/65 47/47/65
f 52/52/66 55/55/66 56/56/66
f 50/50/67 52/52/67 57/57/67
f 59/59/68 69/69/68 48/48/68
f 60/60/69 61/61/69 57/57/69
f 59/59/70 65/65/70 69/69/70
f 61/61/71 65/65/71 62/62/71
f 57/57/72 62/62/72 58/58/72
f 64/64/73 66/66/73 62/62/73
f 66/66/74 50/50/74 58/58/74
f 59/59/75 63/63/75 64/64/75
f 68/68/76 50/50/76 66/66/76
f 68/68/77 67/67/77 53/53/77
f 64/64/78 67/67/78 68/68/78
f 61/61/79 69/69/79 65/65/79
f 60/60/80 48/48/80 69/69/80
f 55/55/81 49/49/81 56/56/81
f 51/51/82 53/53/82 55/55/82
f 49/49/83 48/48/83 60/60/83
f 63/63/84 53/53/84 67/67/84
s 1
f 70/70/85 71/71/86 72/72/87
f 73/73/88 74/74/89 75/75/90
f 76/76/91 72/72/92 77/77/93
f 78/78/94 71/71/95 79/79/96
f 76/76/97 73/73/98 78/78/99
f 74/74/100 80/80/101 81/81/102
f 71/71/103 82/82/103 72/72/103
f 72/72/104 74/74/104 77/77/104
f 71/71/105 75/75/105 83/83/105
f 75/75/106 84/84/106 83/83/106
f 75/75/107 81/81/108 85/85/109
f 83/83/110 80/80/110 82/82/110
f 86/86/111 87/87/112 88/88/113
f 89/89/114 90/90/115 91/91/116
f 89/89/117 88/88/117 92/92/117
f 91/91/118 87/87/119 93/93/120
f 88/88/113 87/87/112 94/94/121 95/95/122
f 87/87/123 90/90/124 96/96/125 94/94/126
f 92/92/127 88/88/127 95/95/127 97/97/127
f 90/90/128 92/92/129 97/97/129 96/96/130
f 70/70/131 79/79/132 71/71/133
f 73/73/88 77/77/134 74/74/89
f 76/76/91 70/70/135 72/72/92
f 78/78/136 73/73/137 71/71/138
f 76/76/139 77/77/140 73/73/141
f 74/74/100 82/82/142 80/80/101
f 71/71/143 83/83/143 82/82/143
f 72/72/144 82/82/144 74/74/144
f 71/71/145 73/73/145 75/75/145
f 75/75/146 85/85/146 84/84/146
f 75/75/107 74/74/147 81/81/108
f 83/83/148 84/84/148 80/80/148
f 86/86/149 93/93/149 87/87/150
f 89/89/151 92/92/152 90/90/153
f 89/89/154 86/86/154 88/88/154
f 91/91/155 90/90/156 87/87/157
f 91/91/158 93/93/159 86/86/159 89/89/159
