# Blender v2.90.0 Alpha OBJ File: 'Decos.blend'
# www.blender.org
o Cube.001_Cube.003
v -0.464413 -2.021114 -0.830593
v 0.953231 4.205163 1.872112
v 0.919047 4.231946 1.828342
v -0.498597 -1.994331 -0.874362
v 0.968788 4.236322 1.792172
v -0.448856 -1.989955 -0.910533
v 1.002972 4.209538 1.835940
v -0.414672 -2.016738 -0.866763
v 0.543455 3.807389 1.207930
v 1.151991 5.059529 2.196242
v 0.906254 3.769247 1.105501
v 1.217314 3.627477 1.268940
v 1.294421 3.465127 1.602506
v 1.092406 3.377297 1.910801
v 0.729608 3.415440 2.013230
v 0.418547 3.557210 1.849791
v 0.341440 3.719561 1.516225
v -0.471695 1.822353 0.210076
v -0.605301 1.554751 0.896637
v -0.190101 1.229450 1.428255
v 0.530687 1.037009 1.493514
v 1.268442 1.357757 0.367625
v 0.853242 1.683058 -0.163993
v 0.132454 1.875500 -0.229252
v 0.950084 0.971662 1.424068
v 0.132540 1.057613 1.654885
v 1.405311 1.169578 0.729346
v 1.134836 1.090155 1.054186
v 1.231556 1.535424 -0.022324
v 0.530601 1.854895 -0.390623
v -0.286943 1.940846 -0.159806
v -0.742170 1.742930 0.534916
v -0.568415 1.377083 1.286586
vt 0.226562 0.789062
vt 0.226562 0.789062
vt 0.226562 0.789062
vt 0.226562 0.789062
vt 0.226562 0.789062
vt 0.226562 0.789062
vt 0.226562 0.789062
vt 0.226562 0.789062
vt 0.101562 0.835938
vt 0.101562 0.835938
vt 0.101562 0.835938
vt 0.617188 0.929688
vt 0.617188 0.929688
vt 0.617188 0.929688
vt 0.601562 0.992188
vt 0.601562 0.992188
vt 0.601562 0.992188
vt 0.117188 0.882812
vt 0.117188 0.882812
vt 0.117188 0.882812
vt 0.101562 0.867188
vt 0.101562 0.867188
vt 0.101562 0.867188
vt 0.101562 0.851562
vt 0.101562 0.851562
vt 0.101562 0.851562
vt 0.742188 0.773438
vt 0.742188 0.773438
vt 0.742188 0.773438
vt 0.742188 0.773438
vt 0.101562 0.851562
vt 0.101562 0.867188
vt 0.117188 0.882812
vt 0.601562 0.992188
vt 0.617188 0.929688
vt 0.101562 0.835938
vt 0.117188 0.882812
vt 0.117188 0.882812
vt 0.117188 0.898438
vt 0.117188 0.898438
vt 0.117188 0.898438
vt 0.601562 0.992188
vt 0.617188 0.929688
vt 0.101562 0.835938
vt 0.742188 0.773438
vt 0.101562 0.851562
vt 0.101562 0.851562
vt 0.101562 0.867188
vt 0.742188 0.773438
vt 0.617188 0.929688
vt 0.601562 0.992188
vt 0.117188 0.898438
vt 0.117188 0.898438
vt 0.101562 0.867188
vt 0.101562 0.835938
vt 0.117188 0.898438
vn -0.8067 -0.0710 0.5866
vn -0.5544 0.4344 -0.7099
vn 0.8067 0.0710 -0.5866
vn 0.5544 -0.4344 0.7099
vn -0.2044 -0.8979 -0.3898
vn 0.2045 0.8979 0.3898
vn -0.1409 0.6547 -0.7427
vn 0.5685 0.4653 -0.6785
vn 0.9772 0.1451 -0.1553
vn 0.2511 -0.1706 0.9528
vn -0.4583 0.0188 0.8886
vn -0.8669 0.3390 0.3654
vn -0.7354 0.6024 -0.3103
vn -0.7582 0.5576 -0.3380
vn -0.8916 0.2905 0.3475
vn -0.4771 -0.0343 0.8782
vn 0.2425 -0.2264 0.9434
vn 0.9791 0.0938 -0.1807
vn 0.5646 0.4186 -0.7114
vn -0.1550 0.6107 -0.7766
vn 0.1289 -0.2040 0.9705
vn 0.3556 -0.2278 0.9064
vn 0.7768 -0.1908 0.6002
vn 0.9962 0.0507 -0.0711
vn 0.6585 0.3789 -0.6502
vn -0.0384 0.6017 -0.7978
vn -0.6863 0.5885 -0.4275
vn -0.9056 0.3470 0.2438
vn -0.8574 0.2456 0.4522
vn -0.5680 0.0188 0.8228
vn -0.8125 0.5336 -0.2349
vn 0.4642 0.4675 -0.7523
vn 0.9480 0.1521 -0.2796
vn 0.9030 -0.1359 0.4075
vn -0.3736 -0.0698 0.9250
vn -0.2650 0.6255 -0.7338
vn 0.8457 -0.1734 0.5048
vn 0.8457 -0.1183 0.5204
s 1
f 1/1/1 2/2/1 3/3/1 4/4/1
f 4/4/2 3/3/2 5/5/2 6/6/2
f 6/6/3 5/5/3 7/7/3 8/8/3
f 8/8/4 7/7/4 2/2/4 1/1/4
f 4/4/5 6/6/5 8/8/5 1/1/5
f 5/5/6 3/3/6 2/2/6 7/7/6
f 9/9/7 10/10/7 11/11/7
f 11/12/8 10/13/8 12/14/8
f 12/15/9 10/16/9 13/17/9
f 14/18/10 10/19/10 15/20/10
f 15/21/11 10/22/11 16/23/11
f 16/24/12 10/25/12 17/26/12
f 17/27/13 10/28/13 9/29/13
f 18/30/14 17/27/14 9/29/14
f 19/31/15 16/24/15 17/26/15
f 20/32/16 15/21/16 16/23/16
f 21/33/17 14/18/17 15/20/17
f 22/34/18 12/15/18 13/17/18
f 23/35/19 11/12/19 12/14/19
f 24/36/20 9/9/20 11/11/20
f 25/37/21 14/18/21 21/33/21
f 26/38/22 21/33/22 15/20/22
f 27/39/23 13/40/23 28/41/23
f 29/42/24 12/15/24 22/34/24
f 30/43/25 11/12/25 23/35/25
f 31/44/26 9/9/26 24/36/26
f 32/45/27 17/27/27 18/30/27
f 33/46/28 16/24/28 19/31/28
f 32/47/29 19/31/29 17/26/29
f 26/48/30 15/21/30 20/32/30
f 31/49/31 18/30/31 9/29/31
f 29/50/32 23/35/32 12/14/32
f 27/51/33 22/34/33 13/17/33
f 25/52/34 28/41/34 14/53/34
f 33/54/35 20/32/35 16/23/35
f 30/55/36 24/36/36 11/11/36
f 14/53/37 28/41/37 13/40/37
f 10/56/38 14/53/38 13/40/38
