# Blender v2.90.0 Alpha OBJ File: 'Decos.blend'
# www.blender.org
o Cube.001_Cube.013
v -0.144976 -2.218392 0.219506
v 0.420969 4.665397 -0.392060
v 0.361392 4.671594 -0.377440
v -0.204554 -2.212195 0.234126
v 0.346331 4.667533 -0.437092
v -0.219614 -2.216256 0.174474
v 0.405909 4.661335 -0.451711
v -0.160037 -2.222453 0.159855
v -1.794669 5.747179 0.061803
v 0.497542 6.051762 -0.537647
v -1.538069 5.570336 -1.691276
v -0.114965 5.360117 -2.740554
v 1.641007 5.239666 -2.471380
v 2.701222 5.279539 -1.041432
v 2.444622 5.456380 0.711646
v 1.021519 5.666599 1.760924
v -0.734452 5.787052 1.491750
v -2.562926 4.868939 1.764477
v -0.163146 4.800275 3.212363
v 2.545862 4.518497 2.547607
v 3.977199 4.188669 0.159614
v 0.892630 4.072660 -4.000648
v -1.816379 4.354437 -3.335892
v -3.247718 4.684268 -0.947898
v 4.400283 4.016711 -1.384413
v 3.939633 4.334181 1.762737
v 2.496970 3.945130 -3.951476
v 3.292408 4.003996 -2.552762
v -0.655376 4.161366 -4.434702
v -3.210150 4.538755 -2.551021
v -3.670802 4.856225 0.596129
v -1.767486 4.927805 3.163191
v 1.384858 4.711569 3.646417
vt 0.226562 0.789062
vt 0.226562 0.789062
vt 0.226562 0.789062
vt 0.226562 0.789062
vt 0.226562 0.789062
vt 0.226562 0.789062
vt 0.226562 0.789062
vt 0.226562 0.789062
vt 0.117188 0.898438
vt 0.117187 0.898437
vt 0.117187 0.898438
vt 0.242188 0.789062
vt 0.242187 0.789062
vt 0.242188 0.789062
vt 0.117188 0.898438
vt 0.117188 0.898438
vt 0.117187 0.898438
vt 0.117187 0.898438
vt 0.242187 0.789062
vt 0.242188 0.789063
vt 0.117188 0.898437
vt 0.117188 0.898438
vt 0.242187 0.789062
vt 0.242188 0.789062
vt 0.242188 0.789062
vt 0.117187 0.898437
vt 0.242188 0.789063
vt 0.117188 0.898438
vt 0.117188 0.898438
vt 0.242188 0.789062
vt 0.117188 0.898437
vt 0.117188 0.898438
vt 0.117187 0.898437
vt 0.242188 0.789062
vt 0.242188 0.789062
vt 0.242188 0.789062
vt 0.117187 0.898437
vt 0.242187 0.789062
vt 0.117188 0.898438
vt 0.242188 0.789062
vt 0.117188 0.898438
vt 0.117188 0.898438
vt 0.242188 0.789062
vt 0.242188 0.789062
vt 0.242188 0.789062
vt 0.117187 0.898437
vt 0.242188 0.789062
vt 0.242188 0.789062
vt 0.242188 0.789062
vt 0.117187 0.898437
vn 0.2443 0.0659 0.9675
vn -0.9663 0.1005 0.2371
vn -0.2442 -0.0659 -0.9675
vn 0.9663 -0.1005 -0.2371
vn -0.0816 -0.9928 0.0882
vn 0.0816 0.9928 -0.0882
vn -0.1621 0.9791 -0.1225
vn -0.0665 0.9571 -0.2820
vn 0.1144 0.9383 -0.3264
vn 0.3204 0.9460 -0.0485
vn 0.2248 0.9681 0.1110
vn 0.0439 0.9869 0.1554
vn -0.1164 0.9915 0.0587
vn -0.3992 0.8757 0.2716
vn -0.0176 0.8648 0.5018
vn 0.4132 0.8200 0.3961
vn 0.6408 0.7675 0.0164
vn 0.1503 0.7491 -0.6452
vn -0.2805 0.7939 -0.5395
vn -0.5081 0.8464 -0.1597
vn 0.6048 0.7926 0.0774
vn 0.6243 0.7792 -0.0561
vn 0.5512 0.7595 -0.3455
vn 0.2145 0.7638 -0.6088
vn -0.2083 0.8030 -0.5584
vn -0.4694 0.8542 -0.2237
vn -0.4159 0.8874 0.1991
vn -0.0791 0.8831 0.4625
vn 0.0547 0.8739 0.4830
vn 0.3437 0.8438 0.4121
vn -0.3351 0.8904 0.3081
vn -0.3167 0.8190 -0.4785
vn 0.0807 0.7729 -0.6293
vn 0.4705 0.7564 -0.4544
vn 0.4521 0.8278 0.3322
vn -0.4889 0.8677 -0.0902
vn 0.5319 0.7382 -0.4150
vn 0.2747 0.9337 -0.2297
s 1
f 1/1/1 2/2/1 3/3/1 4/4/1
f 4/4/2 3/3/2 5/5/2 6/6/2
f 6/6/3 5/5/3 7/7/3 8/8/3
f 8/8/4 7/7/4 2/2/4 1/1/4
f 4/4/5 6/6/5 8/8/5 1/1/5
f 5/5/6 3/3/6 2/2/6 7/7/6
f 9/9/7 10/10/7 11/11/7
f 11/12/8 10/13/8 12/14/8
f 12/15/9 10/10/9 13/16/9
f 14/17/10 10/10/10 15/18/10
f 15/19/11 10/13/11 16/20/11
f 16/21/12 10/10/12 17/22/12
f 17/23/13 10/13/13 9/24/13
f 18/25/14 17/23/14 9/24/14
f 19/26/15 16/21/15 17/22/15
f 20/27/16 15/19/16 16/20/16
f 21/28/17 14/17/17 15/18/17
f 22/29/18 12/15/18 13/16/18
f 23/30/19 11/12/19 12/14/19
f 24/31/20 9/9/20 11/11/20
f 25/32/21 14/17/21 21/28/21
f 26/33/22 21/28/22 15/18/22
f 27/34/23 13/35/23 28/36/23
f 29/37/24 12/15/24 22/29/24
f 30/38/25 11/12/25 23/30/25
f 31/39/26 9/9/26 24/31/26
f 32/40/27 17/23/27 18/25/27
f 33/41/28 16/21/28 19/26/28
f 32/42/29 19/26/29 17/22/29
f 26/43/30 15/19/30 20/27/30
f 31/44/31 18/25/31 9/24/31
f 29/45/32 23/30/32 12/14/32
f 27/46/33 22/29/33 13/16/33
f 25/47/34 28/36/34 14/48/34
f 33/49/35 20/27/35 16/20/35
f 30/50/36 24/31/36 11/11/36
f 14/48/37 28/36/37 13/35/37
f 10/13/38 14/48/38 13/35/38
