# Blender v2.90.0 Alpha OBJ File: 'Decos.blend'
# www.blender.org
o Cube.001_Cube.019
v -0.830593 -2.021114 0.464413
v 1.872112 4.205163 -0.953231
v 1.828342 4.231946 -0.919047
v -0.874362 -1.994331 0.498597
v 1.792172 4.236322 -0.968788
v -0.910533 -1.989955 0.448856
v 1.835940 4.209538 -1.002972
v -0.866763 -2.016738 0.414672
v 1.736386 5.392006 1.876981
v 3.785255 4.394797 1.403366
v 3.654267 4.613346 1.064422
v 1.851861 5.490599 1.481065
v 4.128962 3.821336 2.292739
v 5.449726 2.675680 -0.220967
v 5.201552 2.994387 -0.328527
v 3.999835 4.036780 1.958610
v 4.789147 3.524001 -0.507266
v 4.159997 3.289718 -2.735691
v 3.983932 3.641198 -2.576739
v 4.537399 3.847299 -0.616375
v 2.266353 3.829189 -3.976530
v 2.318078 4.115776 -3.668314
v -1.885707 5.534825 -1.648460
v -1.057972 5.843055 1.283349
v -0.719582 5.876275 1.040200
v -1.472710 5.595827 -1.627355
v 0.186007 5.965175 0.389490
v 2.022918 5.545512 0.712047
v 0.818488 5.888635 -0.077173
v -0.564944 4.389168 -4.162167
v -0.270992 4.553432 -3.914492
v 3.564425 4.208375 -2.221787
v 3.964590 4.357389 -0.804424
v 2.359997 4.551500 -3.011007
v 0.217485 4.826399 -3.502915
v 0.515672 4.993029 -3.251671
v 1.433386 5.133306 2.915846
v 1.547220 5.230496 2.525554
v -1.293780 5.781585 1.483107
v 1.457756 4.997714 3.286090
v 1.056839 5.185764 -2.709770
v 4.621989 2.367448 -3.152775
v 2.130633 3.077198 -4.785274
v 2.181622 3.359714 -4.481436
v 4.448423 2.713936 -2.996081
v 3.326075 4.911249 0.410810
v -0.786408 5.697196 -1.592283
v -0.157259 5.931478 0.636143
v -0.367461 5.759076 -1.570873
v 3.116732 5.045658 0.037463
v 2.105686 5.537745 0.271176
v 3.301656 4.500339 -2.005021
v 3.612120 4.615950 -0.905368
v 2.367207 4.766550 -2.617332
v 1.356159 5.258638 -2.383620
v 0.860772 5.688347 -1.440788
v 0.418325 5.739624 -1.494536
v 2.257308 5.505263 -0.573018
v 2.376035 5.473722 -1.246297
v 1.842272 5.623500 -0.844976
v 4.434837 3.548732 2.597911
v -2.207958 5.441165 -1.754878
v 5.893532 2.283433 -0.178308
v 4.979354 1.943012 -3.416293
v 2.227819 2.726882 -5.219278
v -0.749265 4.175864 -4.531098
v 2.926390 5.095848 -1.095580
v 2.706364 5.286703 -0.676822
v 2.788497 5.044498 -1.583991
v 2.373462 5.162736 -1.855949
v 1.924406 5.381298 -1.752145
v 1.704379 5.572153 -1.333387
v 1.171236 5.803957 -0.341135
v 5.815690 1.813110 -0.048156
v 4.875529 1.463050 -3.386832
v -2.525339 5.045792 -1.666012
v -1.586215 5.392640 1.657563
v 2.036366 2.268678 -5.240865
v -1.029024 3.753696 -4.523702
v 1.238895 4.593462 3.511190
v 4.305320 3.111649 2.809121
vt 0.226562 0.789062
vt 0.226562 0.789062
vt 0.226562 0.789062
vt 0.226562 0.789062
vt 0.226562 0.789062
vt 0.226562 0.789062
vt 0.226562 0.789062
vt 0.226562 0.789062
vt 0.242188 0.789063
vt 0.242188 0.789062
vt 0.242188 0.789063
vt 0.242188 0.789062
vt 0.242188 0.789062
vt 0.242188 0.789062
vt 0.242188 0.789062
vt 0.242188 0.789062
vt 0.242188 0.789062
vt 0.242188 0.789062
vt 0.242188 0.789062
vt 0.242188 0.789062
vt 0.242188 0.789062
vt 0.242188 0.789062
vt 0.242188 0.789062
vt 0.242188 0.789062
vt 0.242188 0.789063
vt 0.242188 0.789062
vt 0.101562 0.835938
vt 0.101562 0.835938
vt 0.101562 0.835938
vt 0.101562 0.835938
vt 0.242188 0.789062
vt 0.242188 0.789062
vt 0.101562 0.835938
vt 0.101562 0.835938
vt 0.101562 0.835938
vt 0.101562 0.835938
vt 0.101562 0.835938
vt 0.101562 0.835938
vt 0.242188 0.789062
vt 0.242188 0.789062
vt 0.242188 0.789062
vt 0.242188 0.789062
vt 0.101562 0.835938
vt 0.101562 0.835938
vt 0.101562 0.835938
vt 0.101562 0.835938
vt 0.101562 0.835938
vt 0.101562 0.835938
vt 0.242188 0.789062
vt 0.242188 0.789062
vt 0.242188 0.789062
vt 0.242188 0.789062
vt 0.101562 0.835938
vt 0.101562 0.835938
vt 0.242188 0.789062
vt 0.242188 0.789062
vt 0.242188 0.789062
vt 0.242188 0.789062
vt 0.242188 0.789062
vt 0.242188 0.789063
vt 0.242188 0.789062
vt 0.242188 0.789062
vt 0.242188 0.789062
vt 0.242188 0.789062
vt 0.242187 0.789062
vt 0.242188 0.789063
vt 0.242187 0.789062
vt 0.242187 0.789062
vt 0.242188 0.789062
vt 0.242188 0.789062
vt 0.242188 0.789062
vt 0.242188 0.789062
vt 0.242188 0.789062
vt 0.242188 0.789062
vt 0.242188 0.789062
vt 0.101562 0.835938
vt 0.101562 0.835938
vt 0.101562 0.835938
vt 0.101562 0.835938
vt 0.101562 0.835938
vt 0.101562 0.835938
vt 0.101562 0.835938
vt 0.101562 0.835938
vt 0.101562 0.835938
vt 0.101562 0.835938
vt 0.101562 0.835938
vt 0.101562 0.835938
vt 0.101562 0.835938
vt 0.101562 0.835938
vt 0.101562 0.835938
vt 0.101562 0.835938
vt 0.101562 0.835938
vt 0.101562 0.835938
vt 0.101562 0.835938
vt 0.101562 0.835938
vt 0.101562 0.835938
vt 0.101562 0.835938
vt 0.101562 0.835938
vt 0.101562 0.835938
vt 0.101562 0.835938
vt 0.101562 0.835938
vt 0.101562 0.835938
vt 0.101562 0.835938
vt 0.101562 0.835938
vt 0.101562 0.835938
vt 0.242188 0.789062
vt 0.242188 0.789063
vt 0.242188 0.789062
vt 0.242187 0.789062
vt 0.242188 0.789062
vt 0.242187 0.789062
vt 0.242188 0.789062
vt 0.242187 0.789062
vt 0.101562 0.835938
vt 0.101562 0.835938
vt 0.101562 0.835938
vt 0.101562 0.835938
vt 0.101562 0.835938
vt 0.101562 0.835938
vt 0.101562 0.835938
vt 0.101562 0.835938
vt 0.101562 0.835938
vt 0.101562 0.835938
vt 0.101562 0.835938
vt 0.101562 0.835938
vt 0.101562 0.835938
vt 0.101562 0.835938
vt 0.101562 0.835938
vt 0.101562 0.835938
vt 0.101562 0.835938
vt 0.101562 0.835938
vt 0.101562 0.835938
vt 0.101562 0.835938
vt 0.101562 0.835938
vt 0.101562 0.835938
vt 0.101562 0.835938
vt 0.101562 0.835938
vn 0.5866 -0.0710 0.8067
vn -0.7099 0.4344 0.5544
vn -0.5866 0.0710 -0.8067
vn 0.7099 -0.4344 -0.5544
vn -0.3898 -0.8979 0.2044
vn 0.3898 0.8979 -0.2045
vn 0.4739 0.8121 0.3405
vn 0.7651 0.6339 0.1131
vn 0.8008 0.5285 -0.2817
vn 0.5602 0.5576 -0.6125
vn -0.1426 0.9877 -0.0636
vn 0.2021 0.9727 0.1144
vn -0.1067 0.8824 -0.4582
vn -0.1061 0.8826 -0.4580
vn -0.1069 0.8823 -0.4583
vn 0.6883 0.6751 -0.2653
vn 0.5219 0.6953 -0.4942
vn 0.1842 0.7042 -0.6857
vn 0.0441 0.9390 0.3410
vn 0.2618 0.7967 -0.5448
vn 0.6636 0.7480 0.0077
vn 0.4622 0.8713 0.1650
vn 0.4494 0.8907 0.0687
vn 0.6183 0.7442 -0.2528
vn 0.4940 0.7592 -0.4238
vn 0.2997 0.8349 -0.4616
vn 0.1492 0.9270 -0.3441
vn 0.5998 0.7986 -0.0488
vn 0.2716 0.9624 0.0037
vn 0.2722 0.9622 0.0029
vn 0.0604 0.9199 -0.3875
vn 0.4714 0.8377 0.2757
vn -0.2715 0.9621 -0.0245
vn 0.6535 0.7112 -0.2593
vn 0.2470 0.7803 -0.5745
vn 0.6619 0.7496 0.0062
vn 0.5116 0.7210 -0.4674
vn -0.1054 0.8828 -0.4577
vn 0.0980 0.9586 0.2673
vn 0.5779 0.8133 -0.0670
vn 0.5772 0.8138 -0.0676
vn 0.4836 0.7789 -0.3994
vn 0.4839 0.7783 -0.4001
vn 0.3114 0.8455 -0.4337
vn 0.3117 0.8459 -0.4328
vn 0.1776 0.9274 -0.3293
vn 0.1785 0.9274 -0.3288
vn 0.1308 0.9815 -0.1401
vn 0.4443 0.8951 0.0374
vn 0.4441 0.8952 0.0364
vn 0.5943 0.7649 -0.2484
vn 0.5936 0.7656 -0.2481
vn 0.1612 0.9757 -0.1482
vn 0.1622 0.9755 -0.1484
vn 0.0357 0.9928 -0.1145
vn 0.5838 0.8095 -0.0622
vn 0.4866 0.7733 -0.4064
vn 0.3083 0.8429 -0.4411
vn 0.1702 0.9274 -0.3333
vn 0.2673 0.9635 0.0109
vn 0.4457 0.8940 0.0456
vn 0.6007 0.7595 -0.2495
vn 0.1532 0.9773 -0.1460
vn 0.2551 0.9664 0.0309
vn 0.9444 -0.2214 -0.2430
vn -0.7564 0.6374 0.1469
vn -0.1746 0.1092 -0.9786
vn -0.3229 0.5835 0.7451
vn -0.6962 0.4419 -0.5657
vn 0.5062 -0.1664 -0.8462
vn 0.3537 0.3110 0.8821
vn 0.8801 -0.0227 0.4742
s 1
f 1/1/1 2/2/1 3/3/1 4/4/1
f 4/4/2 3/3/2 5/5/2 6/6/2
f 6/6/3 5/5/3 7/7/3 8/8/3
f 8/8/4 7/7/4 2/2/4 1/1/4
f 4/4/5 6/6/5 8/8/5 1/1/5
f 5/5/6 3/3/6 2/2/6 7/7/6
f 9/9/7 10/10/7 11/11/7 12/12/7
f 13/13/8 14/14/8 15/15/8 16/16/8
f 17/17/9 18/18/9 19/19/9 20/20/9
f 18/18/10 21/21/10 22/22/10 19/19/10
f 23/23/11 24/24/11 25/25/11 26/26/11
f 27/27/12 12/28/12 28/29/12 29/30/12
f 10/10/8 17/17/8 20/20/8 11/11/8
f 30/31/13 23/23/14 26/26/15 31/32/15
f 32/33/16 33/34/16 20/35/16 19/36/16
f 19/36/17 22/37/17 34/38/17 32/33/17
f 21/21/18 35/39/18 36/40/18 22/22/18
f 37/41/7 13/13/7 16/16/7 38/42/7
f 37/43/19 24/44/19 39/45/19 40/46/19
f 41/47/20 34/38/20 22/37/20 36/48/20
f 42/49/10 43/50/10 44/51/10 45/52/10
f 11/53/21 20/35/21 33/34/21 46/54/21
f 12/28/22 11/53/22 46/54/22 28/29/22
f 47/55/11 48/56/11 27/57/11 49/58/11
f 43/50/18 30/31/18 31/32/18 44/51/18
f 35/39/15 47/55/15 49/58/15 36/40/15
f 14/14/9 42/49/9 45/52/9 15/15/9
f 50/59/23 51/60/23 28/61/23 46/62/23
f 52/63/24 53/64/24 33/65/24 32/66/24
f 54/67/25 52/63/25 32/66/25 34/68/25
f 55/69/26 54/67/26 34/68/26 41/70/26
f 56/71/27 55/69/27 41/70/27 57/72/27
f 53/64/28 50/59/28 46/62/28 33/65/28
f 58/73/29 59/74/30 60/75/29
f 57/76/31 41/47/31 36/48/31 49/77/31
f 13/78/32 37/43/32 40/46/32 61/79/32
f 24/44/33 23/80/33 62/81/33 39/45/33
f 42/82/34 14/83/34 63/84/34 64/85/34
f 30/86/35 43/87/35 65/88/35 66/89/35
f 14/83/36 13/78/36 61/79/36 63/84/36
f 43/87/37 42/82/37 64/85/37 65/88/37
f 23/80/14 30/86/13 66/89/38 62/81/38
f 24/24/39 37/41/39 38/42/39 25/25/39
f 9/90/39 48/91/39 25/92/39 38/93/39
f 35/94/18 21/95/18 44/96/18 31/97/18
f 47/98/15 35/94/15 31/97/15 26/99/15
f 18/100/9 17/101/9 15/102/9 45/103/9
f 10/104/7 9/90/7 38/93/7 16/105/7
f 48/91/11 47/98/11 26/99/11 25/92/11
f 17/101/8 10/104/8 16/105/8 15/102/8
f 21/95/10 18/100/10 45/103/10 44/96/10
f 48/56/39 9/9/39 12/12/39 27/57/39
f 67/106/40 59/74/41 68/107/40
f 59/74/42 69/108/43 70/109/43
f 71/110/44 59/74/45 70/109/44
f 72/111/46 59/74/47 71/110/46
f 73/112/48 56/71/48 57/72/48 29/113/48
f 68/107/49 59/74/50 58/73/49
f 69/108/51 59/74/52 67/106/51
f 60/75/53 59/74/54 72/111/53
f 29/30/55 57/76/55 49/77/55 27/27/55
f 67/114/40 68/115/40 50/116/56 53/117/56
f 70/118/43 69/119/43 52/120/57 54/121/57
f 71/122/44 70/118/44 54/121/58 55/123/58
f 72/124/46 71/122/46 55/123/59 56/125/59
f 58/126/29 60/127/29 73/128/60 51/129/60
f 68/115/49 58/126/49 51/129/61 50/116/61
f 69/119/51 67/114/51 53/117/62 52/120/62
f 60/127/53 72/124/53 56/125/63 73/128/63
f 51/60/64 73/112/64 29/113/64 28/61/64
f 64/85/65 63/84/65 74/130/65 75/131/65
f 39/45/66 62/81/66 76/132/66 77/133/66
f 66/89/67 65/88/67 78/134/67 79/135/67
f 40/46/68 39/45/68 77/133/68 80/136/68
f 62/81/69 66/89/69 79/135/69 76/132/69
f 65/88/70 64/85/70 75/131/70 78/134/70
f 61/79/71 40/46/71 80/136/71 81/137/71
f 63/84/72 61/79/72 81/137/72 74/130/72
