# Blender v2.90.0 Alpha OBJ File: 'Decos.blend'
# www.blender.org
o Cube.001_Cube.014
v 0.077858 -2.232197 0.041239
v -0.047964 4.700454 -0.016913
v -0.107804 4.699492 -0.002083
v 0.018018 -2.233158 0.056069
v -0.122623 4.698722 -0.061929
v 0.003200 -2.233929 -0.003777
v -0.062783 4.699682 -0.076758
v 0.063039 -2.232968 -0.018606
v -2.358609 5.516209 0.512955
v -0.110613 6.094718 -0.051123
v -2.092657 5.506269 -1.247605
v -0.659886 5.523405 -2.304617
v 1.100405 5.557582 -2.038899
v 2.157063 5.588777 -0.606104
v 1.891111 5.598719 1.154455
v 0.458340 5.581581 2.211468
v -1.301951 5.547404 1.945749
v -3.028645 4.432703 2.137053
v -0.628216 4.488410 3.584419
v 2.092711 4.532135 2.910128
v 3.540255 4.538268 0.509169
v 0.466038 4.447507 -3.659375
v -2.254890 4.403780 -2.985084
v -3.702435 4.397648 -0.584124
v 3.972209 4.533096 -1.041953
v 3.494769 4.550943 2.118629
v 2.075284 4.477094 -3.614126
v 2.866466 4.503213 -2.212008
v -1.084817 4.415739 -4.091148
v -3.656948 4.384974 -2.193583
v -4.134388 4.402820 0.966998
v -2.237460 4.458822 3.539170
v 0.922639 4.520178 4.016192
vt 0.226562 0.789062
vt 0.226562 0.789062
vt 0.226562 0.789062
vt 0.226562 0.789062
vt 0.226562 0.789062
vt 0.226562 0.789062
vt 0.226562 0.789062
vt 0.226562 0.789062
vt 0.117188 0.898438
vt 0.117187 0.898437
vt 0.117187 0.898438
vt 0.242188 0.789062
vt 0.242187 0.789062
vt 0.242188 0.789062
vt 0.117188 0.898438
vt 0.117188 0.898438
vt 0.117187 0.898438
vt 0.117187 0.898438
vt 0.242187 0.789062
vt 0.242188 0.789063
vt 0.117188 0.898437
vt 0.117188 0.898438
vt 0.242187 0.789062
vt 0.242188 0.789062
vt 0.242188 0.789062
vt 0.117187 0.898437
vt 0.242188 0.789063
vt 0.117188 0.898438
vt 0.117188 0.898438
vt 0.242188 0.789062
vt 0.117188 0.898437
vt 0.117188 0.898438
vt 0.117187 0.898437
vt 0.242188 0.789062
vt 0.242188 0.789062
vt 0.242188 0.789062
vt 0.117187 0.898437
vt 0.242187 0.789062
vt 0.117188 0.898438
vt 0.242188 0.789062
vt 0.117188 0.898438
vt 0.117188 0.898438
vt 0.242188 0.789062
vt 0.242188 0.789062
vt 0.242188 0.789062
vt 0.117187 0.898437
vt 0.242188 0.789062
vt 0.242188 0.789062
vt 0.242188 0.789062
vt 0.117187 0.898437
vn 0.2403 0.0125 0.9706
vn -0.9705 -0.0156 0.2405
vn -0.2403 -0.0125 -0.9706
vn 0.9705 0.0156 -0.2405
vn 0.0181 -0.9998 0.0084
vn -0.0181 0.9998 -0.0084
vn -0.2595 0.9647 -0.0446
vn -0.1628 0.9651 -0.2050
vn 0.0189 0.9680 -0.2500
vn 0.2243 0.9741 0.0284
vn 0.1276 0.9737 0.1887
vn -0.0541 0.9708 0.2338
vn -0.2145 0.9671 0.1371
vn -0.4835 0.8071 0.3390
vn -0.1018 0.8159 0.5691
vn 0.3309 0.8229 0.4619
vn 0.5611 0.8239 0.0801
vn 0.0723 0.8094 -0.5828
vn -0.3604 0.8025 -0.4755
vn -0.5906 0.8015 -0.0937
vn 0.5230 0.8403 0.1428
vn 0.5433 0.8395 0.0087
vn 0.4714 0.8358 -0.2816
vn 0.1348 0.8275 -0.5451
vn -0.2895 0.8202 -0.4934
vn -0.5531 0.8182 -0.1568
vn -0.5015 0.8227 0.2676
vn -0.1649 0.8310 0.5312
vn -0.0308 0.8337 0.5514
vn 0.2594 0.8383 0.4795
vn -0.4210 0.8251 0.3768
vn -0.3987 0.8189 -0.4129
vn 0.0007 0.8249 -0.5653
vn 0.3909 0.8334 -0.3907
vn 0.3686 0.8396 0.3990
vn -0.5734 0.8190 -0.0227
vn 0.4540 0.8183 -0.3526
vn 0.1793 0.9718 -0.1534
s 1
f 1/1/1 2/2/1 3/3/1 4/4/1
f 4/4/2 3/3/2 5/5/2 6/6/2
f 6/6/3 5/5/3 7/7/3 8/8/3
f 8/8/4 7/7/4 2/2/4 1/1/4
f 4/4/5 6/6/5 8/8/5 1/1/5
f 5/5/6 3/3/6 2/2/6 7/7/6
f 9/9/7 10/10/7 11/11/7
f 11/12/8 10/13/8 12/14/8
f 12/15/9 10/10/9 13/16/9
f 14/17/10 10/10/10 15/18/10
f 15/19/11 10/13/11 16/20/11
f 16/21/12 10/10/12 17/22/12
f 17/23/13 10/13/13 9/24/13
f 18/25/14 17/23/14 9/24/14
f 19/26/15 16/21/15 17/22/15
f 20/27/16 15/19/16 16/20/16
f 21/28/17 14/17/17 15/18/17
f 22/29/18 12/15/18 13/16/18
f 23/30/19 11/12/19 12/14/19
f 24/31/20 9/9/20 11/11/20
f 25/32/21 14/17/21 21/28/21
f 26/33/22 21/28/22 15/18/22
f 27/34/23 13/35/23 28/36/23
f 29/37/24 12/15/24 22/29/24
f 30/38/25 11/12/25 23/30/25
f 31/39/26 9/9/26 24/31/26
f 32/40/27 17/23/27 18/25/27
f 33/41/28 16/21/28 19/26/28
f 32/42/29 19/26/29 17/22/29
f 26/43/30 15/19/30 20/27/30
f 31/44/31 18/25/31 9/24/31
f 29/45/32 23/30/32 12/14/32
f 27/46/33 22/29/33 13/16/33
f 25/47/34 28/36/34 14/48/34
f 33/49/35 20/27/35 16/20/35
f 30/50/36 24/31/36 11/11/36
f 14/48/37 28/36/37 13/35/37
f 10/13/38 14/48/38 13/35/38
