# Blender v2.90.0 Alpha OBJ File: 'Decos.blend'
# www.blender.org
o Cube.001_Cube.016
v -0.830593 -2.021114 0.464413
v 1.872112 4.205163 -0.953231
v 1.828342 4.231946 -0.919047
v -0.874362 -1.994331 0.498597
v 1.792172 4.236322 -0.968788
v -0.910533 -1.989955 0.448856
v 1.835940 4.209538 -1.002972
v -0.866763 -2.016738 0.414672
v 0.513175 5.997293 0.154404
v 2.376035 5.473722 -1.246297
v 0.031839 5.818054 -1.550468
v 0.799875 5.151845 -3.012210
v 2.367375 4.388924 -3.374552
v 3.816120 3.976196 -2.425240
v 4.297455 4.155437 -0.720368
v 3.529421 4.821646 0.741373
v 1.961921 5.584568 1.103716
v 1.377901 5.085933 3.106080
v 4.191900 3.716325 2.455599
v 5.570688 2.520338 -0.168541
v 4.706588 2.198565 -3.229151
v -0.708220 4.309103 -4.282887
v -2.087007 5.505093 -1.658747
v -1.222908 5.826864 1.401863
v 2.105780 2.939496 -4.933369
vt 0.226562 0.789062
vt 0.226562 0.789062
vt 0.226562 0.789062
vt 0.226562 0.789062
vt 0.226562 0.789062
vt 0.226562 0.789062
vt 0.226562 0.789062
vt 0.226562 0.789062
vt 0.117188 0.835938
vt 0.117188 0.835938
vt 0.117188 0.835938
vt 0.117188 0.835938
vt 0.117188 0.835938
vt 0.117188 0.835938
vt 0.117188 0.835938
vt 0.117188 0.835938
vt 0.117188 0.835938
vt 0.117188 0.835938
vt 0.117188 0.835938
vt 0.117187 0.835937
vt 0.117188 0.835938
vt 0.117187 0.835937
vt 0.117188 0.835938
vt 0.117188 0.835938
vt 0.117188 0.835938
vn 0.5866 -0.0710 0.8067
vn -0.7099 0.4344 0.5544
vn -0.5866 0.0710 -0.8067
vn 0.7099 -0.4344 -0.5544
vn -0.3898 -0.8979 0.2044
vn 0.3898 0.8979 -0.2045
vn 0.1625 0.9755 -0.1484
vn 0.1789 0.9274 -0.3287
vn 0.3118 0.8460 -0.4325
vn 0.5933 0.7658 -0.2480
vn 0.5770 0.8139 -0.0678
vn 0.4441 0.8953 0.0360
vn 0.2724 0.9622 0.0026
vn 0.0980 0.9586 0.2673
vn 0.4739 0.8121 0.3405
vn 0.7651 0.6339 0.1131
vn 0.8008 0.5285 -0.2817
vn 0.1842 0.7042 -0.6857
vn -0.1069 0.8823 -0.4583
vn -0.1426 0.9877 -0.0636
vn 0.5602 0.5576 -0.6125
vn 0.4835 0.7791 -0.3991
s 1
f 1/1/1 2/2/1 3/3/1 4/4/1
f 4/4/2 3/3/2 5/5/2 6/6/2
f 6/6/3 5/5/3 7/7/3 8/8/3
f 8/8/4 7/7/4 2/2/4 1/1/4
f 4/4/5 6/6/5 8/8/5 1/1/5
f 5/5/6 3/3/6 2/2/6 7/7/6
f 9/9/7 10/10/7 11/11/7
f 11/11/8 10/10/8 12/12/8
f 12/12/9 10/10/9 13/13/9
f 14/14/10 10/10/10 15/15/10
f 15/15/11 10/10/11 16/16/11
f 16/16/12 10/10/12 17/17/12
f 17/17/13 10/10/13 9/9/13
f 18/18/14 17/17/14 9/9/14
f 19/19/15 16/16/15 17/17/15
f 20/20/16 15/15/16 16/16/16
f 21/21/17 14/14/17 15/15/17
f 22/22/18 12/12/18 13/13/18
f 23/23/19 11/11/19 12/12/19
f 24/24/20 9/9/20 11/11/20
f 20/20/17 21/21/17 15/15/17
f 18/18/15 19/19/15 17/17/15
f 24/24/14 18/18/14 9/9/14
f 22/22/19 23/23/19 12/12/19
f 25/25/18 22/22/18 13/13/18
f 21/21/21 25/25/21 14/14/21
f 19/19/16 20/20/16 16/16/16
f 23/23/20 24/24/20 11/11/20
f 14/14/21 25/25/21 13/13/21
f 10/10/22 14/14/22 13/13/22
