# Blender v2.90.0 Alpha OBJ File: 'Decos.blend'
# www.blender.org
o Hatchback_Cube.005
v -0.868075 0.762976 2.215991
v -0.859504 1.866427 2.307296
v -0.879033 0.744921 -2.373935
v -0.743966 0.873083 2.805797
v -0.840568 2.076576 -0.709819
v -0.834770 2.081360 -2.027238
v 0.769511 0.760186 -2.426067
v 0.912464 1.657107 -2.483186
v 0.884791 1.791833 -0.709831
v 0.901332 1.799320 0.824118
v 0.847705 2.403433 1.706129
v 0.913833 2.379122 0.818518
v 0.884129 2.402215 -0.710351
v 0.861101 1.813158 2.422986
v -0.860719 2.098393 0.823885
v -0.852069 2.396148 1.719724
v -0.880719 2.473987 -0.751978
v -0.880719 1.557899 -2.476417
v -0.880719 2.449911 -2.102959
v 0.879087 2.397508 -2.027898
v 0.845518 0.809922 2.529539
v -0.509098 1.679994 -2.327306
vt 0.117188 0.789062
vt 0.117188 0.789062
vt 0.117188 0.789062
vt 0.117188 0.789062
vt 0.117188 0.789062
vt 0.117188 0.789062
vt 0.117188 0.789062
vt 0.117188 0.789062
vt 0.117188 0.789062
vt 0.117188 0.789062
vt 0.117187 0.789062
vt 0.117188 0.789062
vt 0.117188 0.789062
vt 0.117188 0.789062
vt 0.117188 0.789062
vt 0.117188 0.789062
vt 0.117188 0.789062
vt 0.117188 0.789062
vt 0.117188 0.789062
vt 0.132812 0.773438
vt 0.132812 0.773438
vt 0.132812 0.773438
vt 0.132812 0.773438
vt 0.117188 0.789062
vt 0.132812 0.773438
vt 0.132812 0.773438
vt 0.132812 0.773438
vt 0.117188 0.789062
vt 0.117188 0.789062
vt 0.132812 0.773438
vt 0.132812 0.773438
vt 0.132812 0.773438
vt 0.132812 0.773438
vn -0.9956 0.0000 0.0934
vn -0.9990 0.0065 0.0439
vn -0.9996 0.0244 0.0171
vn -0.9782 -0.0096 0.2076
vn -0.9995 -0.0311 -0.0093
vn -0.9960 -0.0503 0.0744
vn 0.9910 -0.1327 0.0165
vn 0.9962 -0.0839 0.0219
vn 0.9987 -0.0500 -0.0057
vn 0.9954 -0.0942 0.0183
vn 0.4122 0.9111 0.0058
vn 0.9998 -0.0210 0.0055
vn -1.0000 0.0015 0.0046
vn -0.9999 0.0147 0.0048
vn -0.9949 -0.1009 -0.0046
vn -0.9946 -0.0017 0.1037
vn 0.9735 0.2288 -0.0041
vn -0.9929 -0.1031 0.0589
vn 0.9992 0.0372 0.0128
vn 1.0000 0.0011 -0.0038
vn 0.9999 -0.0044 -0.0095
vn 0.0458 0.5125 0.8575
vn 0.0280 0.3356 0.9416
vn 0.1743 0.1013 0.9795
vn 0.0045 0.9999 0.0102
vn 0.0279 0.9996 -0.0011
vn 0.0197 0.9998 0.0023
vn 0.2363 0.3752 -0.8963
vn 0.0299 0.9995 -0.0037
vn -0.0042 0.9999 0.0141
vn -0.0107 0.1264 -0.9919
vn -0.0028 0.4273 -0.9041
vn 0.0056 0.2325 -0.9726
vn -0.0069 -0.1055 -0.9944
vn 0.9997 -0.0171 -0.0152
vn 0.0519 0.5248 -0.8496
vn 0.9987 0.0269 0.0423
vn 0.9999 0.0084 0.0135
vn -0.0092 0.7587 0.6514
vn -0.0270 0.6253 0.7800
vn -0.0310 -0.0586 -0.9978
s 1
f 1/1/1 2/2/2 3/3/3
f 4/4/4 2/2/2 1/1/1
f 3/3/3 5/5/5 6/6/6
f 7/7/7 8/8/8 9/9/9
f 10/10/10 7/7/7 9/9/9
f 11/11/11 12/12/11 13/13/11
f 7/7/7 10/10/10 14/14/12
f 15/15/13 5/5/5 3/3/3
f 15/15/13 16/16/14 17/17/15
f 3/3/3 6/6/6 18/18/16
f 3/3/3 2/2/2 15/15/13
f 17/17/17 16/16/17 19/19/17
f 6/6/6 19/19/18 18/18/16
f 17/17/15 5/5/5 15/15/13
f 8/20/8 20/21/19 9/22/9
f 20/21/20 13/23/21 9/22/9
f 14/14/22 4/4/23 21/24/24
f 16/25/14 15/26/13 2/27/2
f 11/11/25 13/13/26 19/19/27
f 18/18/28 19/19/28 22/28/28
f 13/13/26 20/29/29 19/19/27
f 16/16/30 11/11/25 19/19/27
f 18/18/31 19/19/32 8/8/33
f 18/18/31 8/8/33 3/3/34
f 21/24/35 7/7/7 14/14/12
f 8/8/33 19/19/32 20/29/36
f 11/30/37 14/31/12 10/32/10 12/33/38
f 10/32/10 9/22/9 13/23/21 12/33/38
f 16/25/39 2/27/40 14/31/22 11/30/39
f 2/2/40 4/4/23 14/14/22
f 17/17/15 19/19/18 6/6/6 5/5/5
f 3/3/34 8/8/33 7/7/41
