# Blender v2.91.0 Beta OBJ File: 'decos.blend'
# www.blender.org
o Cube.003_Cube.053
v 0.567615 2.417536 0.439578
v 0.410776 0.972875 0.439578
v 0.567615 0.562081 0.439578
v 0.567615 0.542924 0.439578
v 0.596516 0.552502 0.425966
v 0.550039 0.552502 0.425966
v 0.508656 2.476495 0.439578
v 0.610554 2.435322 0.439578
v 0.526442 2.519434 0.439578
v 0.567615 0.562081 -0.439578
v -0.567615 0.562081 -0.439578
v -0.567615 2.417536 -0.439578
v 0.567615 2.417536 -0.439578
v 0.567615 2.417536 0.364948
v 0.508656 2.476495 -0.439578
v 0.508656 2.476495 0.364948
v -0.567615 0.387861 0.439578
v 0.600479 0.354997 0.439578
v 0.567615 0.387861 0.439578
v 0.567615 0.562081 0.364948
v -0.567615 0.562081 0.439578
v -0.368108 0.935339 0.439578
v -0.410776 0.972875 0.439578
v 0.382093 0.642308 0.439578
v 0.382093 0.775654 0.439578
v 0.368487 0.763601 0.392695
v 0.368487 0.644507 0.392695
v 0.410776 2.305902 0.439578
v 0.368108 2.343438 0.439578
v 0.360538 2.328961 0.403582
v 0.402329 2.292197 0.403582
v 0.368108 0.935339 0.439578
v -0.508656 2.476495 0.439578
v -0.567615 2.417536 0.439578
v -0.410776 2.305902 0.439578
v 0.311918 0.650811 0.356716
v 0.318031 0.647732 0.392695
v 0.318031 0.708366 0.392695
v 0.311918 0.705288 0.356716
v -0.402329 2.292197 0.403582
v -0.360538 2.328961 0.403582
v -0.368108 2.343438 0.439578
v -0.402329 0.986580 0.403582
v -0.360538 0.949816 0.403582
v 0.402329 0.986580 0.403582
v -0.223967 0.751974 0.392695
v -0.213876 0.746892 0.366484
v -0.043750 0.746892 0.366484
v -0.033659 0.751974 0.392695
v -0.382093 0.775654 0.439578
v -0.368487 0.763601 0.392695
v 0.197631 0.708366 0.392695
v 0.203745 0.705288 0.356716
v 0.610554 2.435322 0.364948
v 0.610470 0.544092 0.439578
v 0.605463 0.535105 0.364948
v -0.382093 0.642308 0.439578
v 0.360538 0.949816 0.403582
v -0.368487 0.644507 0.392695
v -0.043750 0.661216 0.366484
v -0.033659 0.656134 0.392695
v -0.567615 2.417536 0.364948
v -0.567615 0.562081 0.364948
v -0.213876 0.661216 0.366484
v -0.223967 0.656134 0.392695
v 0.526442 2.519434 0.364948
v -0.508656 2.476495 -0.439578
v -0.508656 2.476495 0.364948
v 0.203745 0.650811 0.356716
v 0.197631 0.647732 0.392695
v 0.256918 0.647732 0.392695
v -0.610470 0.560912 0.439578
v -0.600479 0.354997 0.439578
v -0.567615 0.542924 0.439578
v 0.567615 0.542924 0.364948
v 0.567615 0.387861 0.364948
v 0.567615 0.387861 -0.439578
v 0.567615 0.542924 -0.439578
v -0.550039 0.552502 -0.425966
v -0.550039 0.552502 0.353647
v 0.550039 0.552502 -0.425966
v -0.567615 0.542924 -0.439578
v -0.550039 0.552502 0.425966
v -0.596516 0.552502 0.425966
v -0.526442 2.519434 0.439578
v -0.610554 2.435322 0.439578
v 0.550039 0.552502 0.353647
v -0.385652 1.015704 0.447840
v -0.358074 0.980304 0.447840
v 0.145350 1.015704 0.447840
v 0.367821 2.299800 0.447840
v 0.202059 2.288144 0.447840
v 0.376901 2.288144 0.447840
v 0.202059 1.849825 0.447840
v 0.202059 1.702903 0.447840
v 0.211139 1.698766 0.447840
v 0.202059 1.175507 0.447840
v 0.202059 1.028584 0.447840
v 0.211139 1.024447 0.447840
v 0.202059 1.308476 0.447840
v 0.211139 1.300443 0.447840
v 0.376901 1.308476 0.447840
v -0.610470 0.544092 0.439578
v 0.596516 0.552502 0.353647
v -0.567615 0.542924 0.364948
v -0.600479 0.354997 0.364948
v -0.567615 0.387861 0.364948
v -0.605463 0.569899 0.364948
v -0.610554 2.435322 0.364948
v -0.526442 2.519434 0.364948
v -0.567615 0.387861 -0.439578
v -0.605463 0.535105 0.364948
v 0.197631 0.649447 0.392695
v -0.596516 0.552502 0.353647
v 0.610470 0.560912 0.439578
v 0.605463 0.569899 0.364948
v 0.600479 0.354997 0.364948
v 0.036690 2.366618 0.482304
v 0.041956 2.371139 0.482304
v 0.036690 2.453677 0.482304
v 0.113464 2.296261 0.449094
v -0.353767 2.296261 0.449094
v -0.380846 2.261502 0.449094
v 0.140543 2.261502 0.449094
v -0.380846 1.027084 0.449094
v -0.353767 0.992325 0.449094
v 0.113464 0.992325 0.449094
v 0.140543 1.027084 0.449094
v -0.380846 2.085156 0.449094
v 0.140543 2.085156 0.449094
v 0.376901 1.874195 0.447840
v 0.211139 1.862539 0.447840
v 0.367821 1.862539 0.447840
v 0.363644 2.160624 0.447840
v 0.376901 2.150161 0.447840
v 0.202059 2.012178 0.447840
v 0.363644 2.001715 0.447840
v 0.376901 2.012178 0.447840
v 0.363644 2.277681 0.447840
v 0.215316 2.160624 0.447840
v 0.215316 1.884657 0.447840
v 0.363644 1.884657 0.447840
v 0.202059 1.874195 0.447840
v 0.215316 2.001715 0.447840
v 0.202059 2.150161 0.447840
v 0.215316 2.277681 0.447840
v 0.000146 0.791004 0.463913
v -0.257772 0.808972 0.463913
v -0.257772 0.791004 0.463913
v 0.334456 0.791004 0.463913
v 0.155269 0.808972 0.463913
v 0.155269 0.791004 0.463913
v 0.117772 0.980304 0.447840
v 0.145350 2.272882 0.447840
v -0.385652 2.272882 0.447840
v 0.117772 2.308282 0.447840
v -0.358074 2.308282 0.447840
v 0.211139 2.299800 0.447840
v 0.367821 1.698766 0.447840
v 0.367821 1.853962 0.447840
v 0.376901 1.702903 0.447840
v 0.376901 1.849825 0.447840
v 0.211139 1.853962 0.447840
v 0.367821 1.024447 0.447840
v 0.367821 1.179644 0.447840
v 0.376901 1.028584 0.447840
v 0.376901 1.175507 0.447840
v 0.211139 1.179644 0.447840
v 0.367821 1.300443 0.447840
v 0.376901 1.593773 0.447840
v 0.202059 1.593773 0.447840
v 0.367821 1.601806 0.447840
v 0.211139 1.601806 0.447840
v 0.041956 2.449156 0.482304
v -0.150312 2.453677 0.482304
v -0.150312 2.366618 0.482304
v -0.155578 2.449156 0.482304
v -0.155578 2.371139 0.482304
v -0.380846 1.908811 0.449094
v -0.380846 1.732466 0.449094
v 0.140543 1.732466 0.449094
v 0.140543 1.908811 0.449094
v -0.380846 1.556120 0.449094
v 0.140543 1.556120 0.449094
v 0.000146 0.808972 0.463913
v 0.334456 0.808972 0.463913
v -0.380846 1.203429 0.449094
v 0.140543 1.203429 0.449094
v -0.380846 1.379775 0.449094
v 0.140543 1.379775 0.449094
vt 0.289062 0.867188
vt 0.289062 0.867188
vt 0.289062 0.867188
vt 0.210938 0.789062
vt 0.210938 0.789062
vt 0.210938 0.789062
vt 0.382812 0.992188
vt 0.382812 0.992188
vt 0.382812 0.992188
vt 0.382812 0.992188
vt 0.289062 0.867188
vt 0.289062 0.867188
vt 0.289062 0.867188
vt 0.289062 0.867188
vt 0.289062 0.867188
vt 0.289062 0.867188
vt 0.289062 0.867188
vt 0.382812 0.976562
vt 0.382812 0.976562
vt 0.382812 0.976562
vt 0.289062 0.867188
vt 0.289062 0.867188
vt 0.289062 0.867188
vt 0.289062 0.867188
vt 0.289062 0.867188
vt 0.289062 0.867188
vt 0.289062 0.867188
vt 0.289062 0.867188
vt 0.289062 0.867188
vt 0.289062 0.867188
vt 0.289062 0.867188
vt 0.289062 0.867188
vt 0.289062 0.867188
vt 0.289062 0.867188
vt 0.289062 0.867188
vt 0.289062 0.867188
vt 0.289062 0.867188
vt 0.289062 0.867188
vt 0.289062 0.867188
vt 0.289062 0.867188
vt 0.289062 0.867188
vt 0.289062 0.867188
vt 0.289062 0.867188
vt 0.289062 0.867188
vt 0.289062 0.867188
vt 0.289062 0.867188
vt 0.289062 0.867188
vt 0.289062 0.867188
vt 0.289062 0.867188
vt 0.289062 0.867188
vt 0.289062 0.867188
vt 0.289062 0.867188
vt 0.289062 0.867188
vt 0.289062 0.867188
vt 0.289062 0.867188
vt 0.210938 0.789062
vt 0.210938 0.789062
vt 0.210938 0.789062
vt 0.210938 0.789062
vt 0.289062 0.867188
vt 0.289062 0.867188
vt 0.289062 0.867188
vt 0.382812 0.976562
vt 0.382812 0.976562
vt 0.289062 0.867188
vt 0.289062 0.867188
vt 0.289062 0.867188
vt 0.289062 0.867188
vt 0.289062 0.867188
vt 0.289062 0.867188
vt 0.210938 0.789062
vt 0.210938 0.789062
vt 0.210938 0.789062
vt 0.289062 0.867188
vt 0.289062 0.867188
vt 0.289062 0.867188
vt 0.289062 0.867188
vt 0.289062 0.867188
vt 0.382812 0.976562
vt 0.382812 0.976562
vt 0.289062 0.867188
vt 0.289062 0.867188
vt 0.289062 0.867188
vt 0.289062 0.867188
vt 0.289062 0.867188
vt 0.289062 0.867188
vt 0.289062 0.867188
vt 0.289062 0.867188
vt 0.289062 0.867188
vt 0.289062 0.867188
vt 0.289062 0.867188
vt 0.289062 0.867188
vt 0.289062 0.867188
vt 0.289062 0.867188
vt 0.210938 0.789062
vt 0.210938 0.789062
vt 0.210938 0.789062
vt 0.382812 0.992188
vt 0.382812 0.992188
vt 0.382812 0.992188
vt 0.382812 0.992188
vt 0.289062 0.867188
vt 0.382812 0.976562
vt 0.382812 0.976562
vt 0.382812 0.976562
vt 0.164062 0.773438
vt 0.164062 0.773438
vt 0.164062 0.773438
vt 0.257812 0.804688
vt 0.257812 0.804688
vt 0.257812 0.804688
vt 0.164062 0.773438
vt 0.164062 0.773438
vt 0.164062 0.773438
vt 0.257812 0.804688
vt 0.257812 0.804688
vt 0.257812 0.804688
vt 0.382812 0.976562
vt 0.382812 0.976562
vt 0.210938 0.789062
vt 0.289062 0.867188
vt 0.210938 0.789062
vt 0.210938 0.789062
vt 0.210938 0.789062
vt 0.210938 0.789062
vt 0.210938 0.789062
vt 0.210938 0.789062
vt 0.210938 0.789062
vt 0.210938 0.789062
vt 0.210938 0.789062
vt 0.289062 0.867188
vt 0.289062 0.867188
vt 0.210938 0.789062
vt 0.210938 0.789062
vt 0.210938 0.789062
vt 0.257812 0.804688
vt 0.257812 0.804688
vt 0.257812 0.804688
vt 0.257812 0.804688
vt 0.210938 0.789062
vt 0.210938 0.789062
vt 0.210938 0.789062
vt 0.289062 0.867188
vt 0.210938 0.789062
vt 0.210938 0.789062
vt 0.210938 0.789062
vt 0.210938 0.789062
vt 0.210938 0.789062
vt 0.382812 0.976562
vt 0.382812 0.976562
vt 0.210938 0.789062
vt 0.210938 0.789062
vt 0.210938 0.789062
vt 0.210938 0.789062
vt 0.210938 0.789062
vt 0.210938 0.789062
vt 0.210938 0.789062
vt 0.210938 0.789062
vt 0.164062 0.773438
vt 0.164062 0.773438
vt 0.164062 0.773438
vt 0.382812 0.992188
vt 0.382812 0.992188
vt 0.382812 0.992188
vt 0.382812 0.992188
vt 0.382812 0.976562
vt 0.382812 0.976562
vt 0.382812 0.976562
vt 0.382812 0.976562
vt 0.382812 0.976562
vt 0.382812 0.976562
vt 0.164062 0.773438
vt 0.164062 0.773438
vt 0.164062 0.773438
vt 0.000000 0.000000
vt 0.000000 0.000000
vt 0.000000 0.000000
vt 0.164062 0.773437
vt 0.164062 0.773438
vt 0.164062 0.773438
vt 0.164062 0.773437
vt 0.382812 0.882812
vt 0.382812 0.882812
vt 0.382812 0.882812
vt 0.382812 0.882812
vt 0.382812 0.882812
vt 0.382812 0.882812
vt 0.000000 0.000000
vt 0.000000 0.000000
vt 0.000000 0.000000
vt 0.164062 0.773438
vt 0.164062 0.773438
vt 0.000000 0.000000
vt 0.000000 0.000000
vt 0.000000 0.000000
vt 0.164062 0.773438
vt 0.164062 0.773438
vt 0.164062 0.773438
vt 0.000000 0.000000
vt 0.000000 0.000000
vt 0.000000 0.000000
vt 0.164062 0.773438
vt 0.164062 0.773438
vt 0.164062 0.773438
vt 0.164062 0.773438
vt 0.164062 0.773438
vt 0.164062 0.773438
vt 0.382812 0.976562
vt 0.382812 0.976562
vt 0.382812 0.992188
vt 0.382812 0.992188
vt 0.382812 0.992188
vt 0.382812 0.992188
vt 0.164062 0.773438
vt 0.257812 0.804688
vt 0.257812 0.804688
vt 0.257812 0.804688
vt 0.257812 0.804688
vt 0.257812 0.804688
vt 0.164062 0.773438
vt 0.164062 0.773438
vt 0.164062 0.773438
vt 0.164062 0.773438
vt 0.164062 0.773438
vt 0.257812 0.804688
vt 0.257812 0.804688
vt 0.257812 0.804688
vt 0.257812 0.804688
vt 0.257812 0.804688
vt 0.164062 0.773438
vt 0.164062 0.773438
vt 0.164062 0.773438
vt 0.164062 0.773438
vt 0.164062 0.773438
vt 0.382812 0.987723
vt 0.382812 0.976562
vt 0.382812 0.976562
vt 0.382812 0.987723
vt 0.382812 0.985491
vt 0.382812 0.976562
vt 0.382812 0.976562
vt 0.382812 0.985491
vt 0.382812 0.992188
vt 0.382812 0.976562
vt 0.382812 0.976562
vt 0.382812 0.992188
vt 0.000000 0.000000
vt 0.164062 0.773437
vt 0.382812 0.882812
vt 0.382812 0.882812
vt 0.000000 0.000000
vt 0.164062 0.773438
vt 0.000000 0.000000
vt 0.164062 0.773437
vt 0.164062 0.773438
vt 0.000000 0.000000
vt 0.164062 0.773438
vt 0.164062 0.773438
vt 0.382812 0.992188
vt 0.382812 0.992188
vt 0.382812 0.992188
vt 0.382812 0.981027
vt 0.382812 0.981027
vt 0.382812 0.992188
vt 0.382812 0.992188
vt 0.382812 0.978795
vt 0.382812 0.978795
vt 0.382812 0.992188
vt 0.257812 0.804688
vt 0.257812 0.804688
vt 0.257812 0.804688
vt 0.257812 0.804688
vn 0.0000 -0.0000 1.0000
vn 0.0000 0.8178 0.5755
vn 0.0000 0.0000 -1.0000
vn 0.9239 0.3827 0.0000
vn 0.7071 0.7071 0.0000
vn 1.0000 0.0000 0.0000
vn -0.9604 0.0000 0.2787
vn -0.6044 -0.6870 0.4034
vn -0.3302 -0.8497 0.4112
vn -0.3108 -0.8574 0.4102
vn -0.9859 0.0000 0.1675
vn 0.6044 -0.6870 0.4034
vn 0.3108 -0.8574 0.4102
vn 0.3302 -0.8497 0.4112
vn 0.0000 -0.9817 0.1903
vn 0.6044 0.6870 0.4034
vn 0.3302 0.8497 0.4112
vn 0.3108 0.8574 0.4102
vn 0.0000 -0.9685 0.2490
vn -0.9736 -0.0000 0.2285
vn 0.0000 -0.9964 0.0852
vn 0.9994 -0.0014 -0.0334
vn -0.6044 0.6870 0.4034
vn -0.3108 0.8574 0.4102
vn -0.3302 0.8497 0.4112
vn 0.0000 0.9989 0.0469
vn 0.9604 0.0000 0.2787
vn 0.9736 -0.0000 0.2285
vn -0.9332 0.0000 0.3593
vn -0.9239 0.3827 0.0000
vn -1.0000 0.0000 0.0000
vn 0.0000 0.9817 0.1903
vn 0.0000 1.0000 0.0000
vn 0.9332 0.0000 0.3593
vn 0.0000 0.9964 0.0853
vn -0.4785 -0.8781 -0.0000
vn -0.2899 -0.9177 -0.2715
vn -0.2459 -0.9132 -0.3251
vn 0.2459 0.9132 -0.3251
vn -0.2899 0.9178 -0.2715
vn -0.2459 0.9132 -0.3251
vn 0.3814 0.9086 -0.1704
vn 0.6137 0.7881 -0.0474
vn 0.6240 0.7804 -0.0411
vn 0.0000 -0.8178 0.5755
vn 0.2899 -0.9177 -0.2715
vn 0.4785 -0.8781 -0.0000
vn 0.2459 -0.9132 -0.3251
vn -0.7766 -0.6266 0.0648
vn -0.6240 -0.7804 -0.0411
vn -0.6137 -0.7881 -0.0474
vn -0.4785 0.8781 0.0000
vn -0.7071 0.7071 0.0000
vn 0.0000 -1.0000 -0.0000
vn 0.4785 0.8781 0.0000
vn 0.2899 0.9178 -0.2715
vn -0.9994 -0.0014 -0.0334
vn -0.9987 -0.0355 -0.0356
vn 0.9859 0.0000 0.1675
vn 0.7766 -0.6266 0.0648
vn 0.6137 -0.7881 -0.0474
vn 0.6240 -0.7804 -0.0411
vn 0.7766 0.6266 0.0648
vn -0.6137 0.7881 -0.0474
vn -0.6240 0.7804 -0.0411
vn -0.7766 0.6266 0.0648
vn 0.9987 -0.0355 -0.0356
vn -0.4545 0.6377 0.6219
vn 0.0000 0.7628 -0.6466
vn -0.3814 -0.9086 -0.1704
vn 0.4545 -0.6377 0.6219
vn 0.0000 -0.7629 -0.6466
vn -0.3814 0.9086 -0.1704
vn 0.3814 -0.9086 -0.1704
vn 0.4545 0.6377 0.6219
vn -0.4545 -0.6377 0.6219
s 1
f 1/1/1 2/2/1 3/3/1
f 4/4/2 5/5/2 6/6/2
f 7/7/1 1/8/1 8/9/1 9/10/1
f 10/11/3 11/12/3 12/13/3 13/14/3
f 14/15/4 13/14/4 15/16/5 16/17/5
f 17/18/1 18/19/1 19/20/1
f 13/14/4 14/15/4 20/21/6 10/11/6
f 21/22/1 22/23/1 23/24/1
f 24/25/7 25/26/7 26/27/7 27/28/7
f 28/29/8 29/30/9 30/31/10 31/32/8
f 3/3/1 2/2/1 32/33/1
f 3/3/1 25/26/1 24/25/1
f 7/34/1 29/30/1 28/29/1 1/1/1
f 33/35/1 29/30/1 7/34/1
f 34/36/1 23/24/1 35/37/1
f 36/38/11 37/39/11 38/40/11 39/41/11
f 35/37/12 40/42/12 41/43/13 42/44/14
f 43/45/1 44/46/1 45/47/1
f 46/48/15 47/49/15 48/50/15 49/51/15
f 23/24/16 22/23/17 44/46/18 43/45/16
f 50/52/19 51/53/19 26/27/19 25/26/19
f 42/44/14 41/43/13 30/31/10 29/30/9
f 2/2/20 28/29/20 31/32/20 45/47/20
f 52/54/21 53/55/21 39/41/21 38/40/21
f 54/56/22 8/57/22 55/58/22 56/59/22
f 21/22/1 50/52/1 22/23/1
f 3/3/1 57/60/1 21/22/1
f 2/2/23 45/47/23 58/61/24 32/33/25
f 24/25/26 27/28/26 59/62/26 57/60/26
f 57/60/27 59/62/27 51/53/27 50/52/27
f 23/24/28 43/45/28 40/42/28 35/37/28
f 3/63/1 55/64/1 8/9/1 1/8/1
f 40/42/1 43/45/1 45/47/1 31/32/1
f 49/51/29 48/50/29 60/65/29 61/66/29
f 51/53/1 49/51/1 26/27/1
f 62/67/30 12/13/30 11/12/31 63/68/31
f 61/66/32 60/65/32 64/69/32 65/70/32
f 32/33/25 58/61/24 44/46/18 22/23/17
f 16/71/3 66/72/3 54/56/3 14/73/3
f 59/62/1 65/70/1 46/48/1 51/53/1
f 67/74/33 68/75/33 16/17/33 15/16/33
f 65/70/34 64/69/34 47/49/34 46/48/34
f 22/23/1 50/52/1 25/26/1 32/33/1
f 69/76/35 70/77/35 71/78/35
f 27/28/1 26/27/1 38/40/1
f 27/28/1 71/78/1 70/77/1
f 17/18/1 72/79/1 73/80/1
f 74/81/1 17/82/1 19/83/1 4/84/1
f 75/85/6 76/86/6 77/87/6 78/88/6
f 63/68/36 11/12/37 79/89/38 80/90/36
f 81/91/39 82/92/40 79/89/41
f 83/93/2 4/84/2 6/94/2
f 74/95/42 84/96/43 72/97/44
f 33/98/1 85/99/1 86/100/1 34/101/1
f 21/22/45 6/94/45 3/3/45
f 10/11/46 79/89/38 11/12/37
f 20/21/47 87/102/47 81/91/48 10/11/46
f 88/103/1 89/104/1 90/105/1
f 91/106/1 92/107/1 93/108/1
f 94/109/1 95/110/1 96/111/1
f 97/112/1 98/113/1 99/114/1
f 100/115/1 101/116/1 102/117/1
f 21/118/1 34/101/1 86/100/1 103/119/1
f 56/59/49 55/58/50 5/5/51 104/120/49
f 79/89/41 82/92/40 105/121/52 80/90/52
f 76/122/3 106/123/3 107/124/3
f 107/124/3 108/125/3 105/126/3
f 109/127/53 86/128/53 85/129/53 110/130/53
f 77/87/54 76/86/54 107/131/54 111/132/54
f 63/133/3 112/134/3 109/127/3 62/135/3
f 12/13/30 62/67/30 68/75/53 67/74/53
f 81/91/39 87/102/55 75/85/55 78/88/56
f 78/88/3 77/87/3 111/132/3 82/92/3
f 36/136/1 39/137/1 53/138/1 69/139/1
f 103/140/57 86/128/57 109/127/57 112/134/57
f 82/92/31 111/132/31 107/131/31 105/121/31
f 72/97/58 108/125/58 106/123/58 73/141/58
f 8/57/5 54/56/5 66/72/5 9/142/5
f 69/76/59 53/55/59 52/54/59 113/143/59
f 112/134/60 114/144/60 84/96/61 103/140/62
f 84/96/43 114/144/63 108/125/63 72/97/44
f 5/5/64 115/145/65 116/146/66 104/120/66
f 61/66/1 113/143/1 52/54/1 49/51/1
f 117/147/54 18/148/54 73/141/54 106/123/54
f 115/145/67 18/148/67 117/147/67 116/146/67
f 19/20/1 115/149/1 4/150/1
f 63/133/68 114/144/68 112/134/68
f 21/151/45 84/96/45 83/152/45
f 76/122/3 116/146/3 117/147/3
f 20/153/69 104/120/69 87/154/69
f 3/155/70 5/5/51 55/58/50
f 20/153/3 14/73/3 54/56/3 56/59/3
f 68/156/3 62/135/3 109/127/3 110/130/3
f 75/157/71 104/120/71 116/146/71
f 7/7/1 9/10/1 85/99/1 33/98/1
f 105/126/72 114/144/72 80/158/72
f 68/156/3 110/130/3 66/72/3 16/71/3
f 118/159/1 119/160/1 120/161/1
f 121/162/1 122/163/1 123/164/1 124/165/1
f 125/166/1 126/167/1 127/168/1 128/169/1
f 123/164/1 129/170/1 130/171/1 124/165/1
f 131/172/1 132/173/1 133/174/1
f 93/175/1 134/176/1 135/177/1
f 136/178/1 137/179/1 138/180/1
f 135/181/1 136/178/1 138/180/1
f 139/182/1 140/183/1 134/184/1
f 137/185/1 141/186/1 142/187/1
f 143/188/1 144/189/1 136/190/1
f 131/172/1 141/191/1 143/192/1
f 145/193/1 146/194/1 92/195/1
f 135/181/1 140/196/1 145/197/1
f 92/107/1 139/198/1 93/108/1
f 138/199/1 142/200/1 131/201/1
f 147/202/1 148/203/1 149/204/1
f 150/205/1 151/206/1 152/207/1
f 1/1/1 28/29/1 2/2/1
f 4/4/73 115/145/65 5/5/64
f 12/13/3 67/74/3 15/16/3
f 15/16/3 13/14/3 12/13/3
f 17/18/1 73/80/1 18/19/1
f 3/3/1 32/33/1 25/26/1
f 33/35/1 42/44/1 29/30/1
f 34/36/1 21/22/1 23/24/1
f 44/46/1 58/61/1 45/47/1
f 110/130/33 85/129/33 9/142/33 66/72/33
f 31/32/1 30/31/1 40/42/1
f 30/31/1 41/43/1 40/42/1
f 21/22/1 57/60/1 50/52/1
f 3/3/1 24/25/1 57/60/1
f 51/53/1 46/48/1 49/51/1
f 70/77/59 69/76/59 113/143/59
f 71/78/35 37/39/35 36/38/35
f 36/38/35 69/76/35 71/78/35
f 26/27/1 49/51/1 52/54/1
f 33/35/1 34/36/1 35/37/1 42/44/1
f 37/39/1 71/78/1 27/28/1
f 26/27/1 52/54/1 38/40/1
f 38/40/1 37/39/1 27/28/1
f 113/143/1 61/66/1 70/77/1
f 61/66/1 65/70/1 59/62/1
f 70/77/1 61/66/1 59/62/1
f 59/62/1 27/28/1 70/77/1
f 17/18/1 74/208/1 72/79/1
f 81/91/39 78/88/56 82/92/40
f 83/93/2 74/81/2 4/84/2
f 74/95/2 83/152/2 84/96/2
f 21/22/45 83/93/45 6/94/45
f 10/11/46 81/91/48 79/89/38
f 89/104/1 153/209/1 90/105/1
f 90/105/1 154/210/1 155/211/1
f 154/210/1 156/212/1 155/211/1
f 156/212/1 157/213/1 155/211/1
f 155/211/1 88/103/1 90/105/1
f 91/106/1 158/214/1 92/107/1
f 96/111/1 159/215/1 160/216/1
f 159/215/1 161/217/1 160/216/1
f 161/217/1 162/218/1 160/216/1
f 160/216/1 163/219/1 96/111/1
f 163/219/1 94/109/1 96/111/1
f 99/114/1 164/220/1 165/221/1
f 164/220/1 166/222/1 165/221/1
f 166/222/1 167/223/1 165/221/1
f 165/221/1 168/224/1 99/114/1
f 168/224/1 97/112/1 99/114/1
f 101/116/1 169/225/1 102/117/1
f 102/117/1 170/226/1 171/227/1
f 170/226/1 172/228/1 171/227/1
f 172/228/1 173/229/1 171/227/1
f 171/227/1 100/115/1 102/117/1
f 76/122/3 117/147/3 106/123/3
f 107/124/3 106/123/3 108/125/3
f 19/20/1 18/19/1 115/149/1
f 63/133/69 80/158/69 114/144/69
f 21/151/74 103/140/62 84/96/61
f 76/122/3 75/157/3 116/146/3
f 20/153/75 56/59/75 104/120/75
f 3/155/45 6/6/45 5/5/45
f 75/157/72 87/154/72 104/120/72
f 105/126/76 108/125/76 114/144/76
f 119/160/1 174/230/1 120/161/1
f 120/161/1 175/231/1 176/232/1
f 175/231/1 177/233/1 176/232/1
f 177/233/1 178/234/1 176/232/1
f 176/232/1 118/159/1 120/161/1
f 179/235/1 180/236/1 181/237/1 182/238/1
f 180/239/1 183/240/1 184/241/1 181/242/1
f 129/243/1 179/244/1 182/245/1 130/246/1
f 131/172/1 143/192/1 132/173/1
f 93/175/1 139/247/1 134/176/1
f 136/178/1 144/248/1 137/179/1
f 135/181/1 145/197/1 136/178/1
f 139/182/1 146/249/1 140/183/1
f 137/185/1 144/250/1 141/186/1
f 143/188/1 141/251/1 144/189/1
f 131/172/1 142/252/1 141/191/1
f 145/193/1 140/253/1 146/194/1
f 135/181/1 134/254/1 140/196/1
f 92/107/1 146/255/1 139/198/1
f 138/199/1 137/256/1 142/200/1
f 147/202/1 185/257/1 148/203/1
f 150/205/1 186/258/1 151/206/1
f 187/259/1 125/166/1 128/169/1 188/260/1
f 183/261/1 189/262/1 190/263/1 184/264/1
f 189/265/1 187/266/1 188/267/1 190/268/1
f 60/269/1 48/270/1 47/271/1 64/272/1
