# Blender v2.91.0 Beta OBJ File: 'decos.blend'
# www.blender.org
o Cube.003_Cube.053
v 0.567615 2.417536 0.439578
v 0.410776 0.972875 0.439578
v 0.567615 0.562081 0.439578
v 0.567615 0.542924 0.439578
v 0.596516 0.552502 0.425966
v 0.550039 0.552502 0.425966
v 0.508656 2.476495 0.439578
v 0.610554 2.435322 0.439578
v 0.526442 2.519434 0.439578
v 0.567615 0.562081 -0.439578
v -0.567615 0.562081 -0.439578
v -0.567615 2.417536 -0.439578
v 0.567615 2.417536 -0.439578
v 0.567615 2.417536 0.364948
v 0.508656 2.476495 -0.439578
v 0.508656 2.476495 0.364948
v -0.567615 0.387861 0.439578
v 0.600479 0.354997 0.439578
v 0.567615 0.387861 0.439578
v 0.567615 0.562081 0.364948
v -0.567615 0.562081 0.439578
v -0.368108 0.935339 0.439578
v -0.410776 0.972875 0.439578
v 0.382093 0.642308 0.439578
v 0.382093 0.775654 0.439578
v 0.368487 0.763601 0.392695
v 0.368487 0.644507 0.392695
v 0.410776 2.305902 0.439578
v 0.368108 2.343438 0.439578
v 0.360538 2.328961 0.403582
v 0.402329 2.292197 0.403582
v 0.368108 0.935339 0.439578
v -0.508656 2.476495 0.439578
v -0.567615 2.417536 0.439578
v -0.410776 2.305902 0.439578
v 0.311918 0.650811 0.356716
v 0.318031 0.647732 0.392695
v 0.318031 0.708366 0.392695
v 0.311918 0.705288 0.356716
v -0.402329 2.292197 0.403582
v -0.360538 2.328961 0.403582
v -0.368108 2.343438 0.439578
v -0.402329 0.986580 0.403582
v -0.360538 0.949816 0.403582
v 0.402329 0.986580 0.403582
v -0.223967 0.751974 0.392695
v -0.213876 0.746892 0.366484
v -0.043750 0.746892 0.366484
v -0.033659 0.751974 0.392695
v -0.382093 0.775654 0.439578
v -0.368487 0.763601 0.392695
v 0.197631 0.708366 0.392695
v 0.203745 0.705288 0.356716
v 0.610554 2.435322 0.364948
v 0.610470 0.544092 0.439578
v 0.605463 0.535105 0.364948
v -0.382093 0.642308 0.439578
v 0.360538 0.949816 0.403582
v -0.368487 0.644507 0.392695
v -0.043750 0.661216 0.366484
v -0.033659 0.656134 0.392695
v -0.567615 2.417536 0.364948
v -0.567615 0.562081 0.364948
v -0.213876 0.661216 0.366484
v -0.223967 0.656134 0.392695
v 0.526442 2.519434 0.364948
v -0.508656 2.476495 -0.439578
v -0.508656 2.476495 0.364948
v 0.203745 0.650811 0.356716
v 0.197631 0.647732 0.392695
v 0.256918 0.647732 0.392695
v -0.610470 0.560912 0.439578
v -0.600479 0.354997 0.439578
v -0.567615 0.542924 0.439578
v 0.567615 0.542924 0.364948
v 0.567615 0.387861 0.364948
v 0.567615 0.387861 -0.439578
v 0.567615 0.542924 -0.439578
v -0.550039 0.552502 -0.425966
v -0.550039 0.552502 0.353647
v 0.550039 0.552502 -0.425966
v -0.567615 0.542924 -0.439578
v -0.550039 0.552502 0.425966
v -0.596516 0.552502 0.425966
v -0.526442 2.519434 0.439578
v -0.610554 2.435322 0.439578
v 0.550039 0.552502 0.353647
v -0.385652 1.015704 0.447840
v -0.358074 0.980304 0.447840
v 0.145350 1.015704 0.447840
v 0.367821 2.299800 0.447840
v 0.202059 2.288144 0.447840
v 0.376901 2.288144 0.447840
v 0.202059 1.849825 0.447840
v 0.202059 1.702903 0.447840
v 0.211139 1.698766 0.447840
v 0.202059 1.175507 0.447840
v 0.202059 1.028584 0.447840
v 0.211139 1.024447 0.447840
v 0.202059 1.308476 0.447840
v 0.211139 1.300443 0.447840
v 0.376901 1.308476 0.447840
v -0.610470 0.544092 0.439578
v 0.596516 0.552502 0.353647
v -0.567615 0.542924 0.364948
v -0.600479 0.354997 0.364948
v -0.567615 0.387861 0.364948
v -0.605463 0.569899 0.364948
v -0.610554 2.435322 0.364948
v -0.526442 2.519434 0.364948
v -0.567615 0.387861 -0.439578
v -0.605463 0.535105 0.364948
v 0.197631 0.649447 0.392695
v -0.596516 0.552502 0.353647
v 0.610470 0.560912 0.439578
v 0.605463 0.569899 0.364948
v 0.600479 0.354997 0.364948
v 0.036690 2.366618 0.482304
v 0.041956 2.371139 0.482304
v 0.036690 2.453677 0.482304
v 0.113464 2.296261 0.449094
v -0.353767 2.296261 0.449094
v -0.380846 2.261502 0.449094
v 0.140543 2.261502 0.449094
v -0.380846 1.027084 0.449094
v -0.353767 0.992325 0.449094
v 0.113464 0.992325 0.449094
v 0.140543 1.027084 0.449094
v -0.380846 2.085156 0.449094
v 0.140543 2.085156 0.449094
v 0.376901 1.874195 0.447840
v 0.211139 1.862539 0.447840
v 0.367821 1.862539 0.447840
v 0.363644 2.160624 0.447840
v 0.376901 2.150161 0.447840
v 0.202059 2.012178 0.447840
v 0.363644 2.001715 0.447840
v 0.376901 2.012178 0.447840
v 0.363644 2.277681 0.447840
v 0.215316 2.160624 0.447840
v 0.215316 1.884657 0.447840
v 0.363644 1.884657 0.447840
v 0.202059 1.874195 0.447840
v 0.215316 2.001715 0.447840
v 0.202059 2.150161 0.447840
v 0.215316 2.277681 0.447840
v 0.000146 0.791004 0.463913
v -0.257772 0.808972 0.463913
v -0.257772 0.791004 0.463913
v 0.334456 0.791004 0.463913
v 0.155269 0.808972 0.463913
v 0.155269 0.791004 0.463913
v 0.117772 0.980304 0.447840
v 0.145350 2.272882 0.447840
v -0.385652 2.272882 0.447840
v 0.117772 2.308282 0.447840
v -0.358074 2.308282 0.447840
v 0.211139 2.299800 0.447840
v 0.367821 1.698766 0.447840
v 0.367821 1.853962 0.447840
v 0.376901 1.702903 0.447840
v 0.376901 1.849825 0.447840
v 0.211139 1.853962 0.447840
v 0.367821 1.024447 0.447840
v 0.367821 1.179644 0.447840
v 0.376901 1.028584 0.447840
v 0.376901 1.175507 0.447840
v 0.211139 1.179644 0.447840
v 0.367821 1.300443 0.447840
v 0.376901 1.593773 0.447840
v 0.202059 1.593773 0.447840
v 0.367821 1.601806 0.447840
v 0.211139 1.601806 0.447840
v 0.041956 2.449156 0.482304
v -0.150312 2.453677 0.482304
v -0.150312 2.366618 0.482304
v -0.155578 2.449156 0.482304
v -0.155578 2.371139 0.482304
v -0.380846 1.908811 0.449094
v -0.380846 1.732466 0.449094
v 0.140543 1.732466 0.449094
v 0.140543 1.908811 0.449094
v -0.380846 1.556120 0.449094
v 0.140543 1.556120 0.449094
v 0.000146 0.808972 0.463913
v 0.334456 0.808972 0.463913
v -0.380846 1.203429 0.449094
v 0.140543 1.203429 0.449094
v -0.380846 1.379775 0.449094
v 0.140543 1.379775 0.449094
vt 0.289062 0.867188
vt 0.289062 0.867188
vt 0.289062 0.867188
vt 0.210938 0.789062
vt 0.210938 0.789062
vt 0.210938 0.789062
vt 0.382812 0.992188
vt 0.382812 0.992188
vt 0.382812 0.992188
vt 0.289062 0.867188
vt 0.289062 0.867188
vt 0.289062 0.867188
vt 0.289062 0.867188
vt 0.289062 0.867188
vt 0.382812 0.976562
vt 0.382812 0.976562
vt 0.382812 0.976562
vt 0.289062 0.867188
vt 0.289062 0.867188
vt 0.289062 0.867188
vt 0.289062 0.867188
vt 0.289062 0.867188
vt 0.289062 0.867188
vt 0.289062 0.867188
vt 0.289062 0.867188
vt 0.289062 0.867188
vt 0.289062 0.867188
vt 0.289062 0.867188
vt 0.289062 0.867188
vt 0.289062 0.867188
vt 0.289062 0.867188
vt 0.289062 0.867188
vt 0.289062 0.867188
vt 0.289062 0.867188
vt 0.289062 0.867188
vt 0.289062 0.867188
vt 0.289062 0.867188
vt 0.289062 0.867188
vt 0.289062 0.867188
vt 0.289062 0.867188
vt 0.289062 0.867188
vt 0.289062 0.867188
vt 0.289062 0.867188
vt 0.289062 0.867188
vt 0.289062 0.867188
vt 0.289062 0.867188
vt 0.289062 0.867188
vt 0.210938 0.789062
vt 0.210938 0.789062
vt 0.210938 0.789062
vt 0.289062 0.867188
vt 0.289062 0.867188
vt 0.289062 0.867188
vt 0.382812 0.976562
vt 0.382812 0.992188
vt 0.289062 0.867188
vt 0.289062 0.867188
vt 0.289062 0.867188
vt 0.289062 0.867188
vt 0.289062 0.867188
vt 0.289062 0.867188
vt 0.289062 0.867188
vt 0.289062 0.867188
vt 0.210938 0.789062
vt 0.210938 0.789062
vt 0.289062 0.867188
vt 0.289062 0.867188
vt 0.289062 0.867188
vt 0.289062 0.867188
vt 0.289062 0.867188
vt 0.289062 0.867188
vt 0.289062 0.867188
vt 0.289062 0.867188
vt 0.382812 0.976562
vt 0.382812 0.976562
vt 0.289062 0.867188
vt 0.289062 0.867188
vt 0.289062 0.867188
vt 0.289062 0.867188
vt 0.289062 0.867188
vt 0.289062 0.867188
vt 0.289062 0.867188
vt 0.289062 0.867188
vt 0.289062 0.867188
vt 0.289062 0.867188
vt 0.289062 0.867188
vt 0.289062 0.867188
vt 0.210938 0.789062
vt 0.210938 0.789062
vt 0.210938 0.789062
vt 0.382812 0.992188
vt 0.382812 0.992188
vt 0.382812 0.992188
vt 0.289062 0.867188
vt 0.382812 0.976562
vt 0.382812 0.976562
vt 0.382812 0.976562
vt 0.164062 0.773438
vt 0.164062 0.773438
vt 0.164062 0.773438
vt 0.257812 0.804688
vt 0.257812 0.804688
vt 0.257812 0.804688
vt 0.164062 0.773438
vt 0.164062 0.773438
vt 0.164062 0.773438
vt 0.257812 0.804688
vt 0.257812 0.804688
vt 0.257812 0.804688
vt 0.382812 0.976562
vt 0.382812 0.976562
vt 0.210938 0.789062
vt 0.289062 0.867188
vt 0.210938 0.789062
vt 0.210938 0.789062
vt 0.210938 0.789062
vt 0.210938 0.789062
vt 0.210938 0.789062
vt 0.210938 0.789062
vt 0.210938 0.789062
vt 0.210938 0.789062
vt 0.289062 0.867188
vt 0.289062 0.867188
vt 0.210938 0.789062
vt 0.210938 0.789062
vt 0.257812 0.804688
vt 0.257812 0.804688
vt 0.257812 0.804688
vt 0.210938 0.789062
vt 0.210938 0.789062
vt 0.210938 0.789062
vt 0.210938 0.789062
vt 0.210938 0.789062
vt 0.289062 0.867188
vt 0.210938 0.789062
vt 0.210938 0.789062
vt 0.210938 0.789062
vt 0.210938 0.789062
vt 0.382812 0.976562
vt 0.382812 0.976562
vt 0.210938 0.789062
vt 0.210938 0.789062
vt 0.210938 0.789062
vt 0.210938 0.789062
vt 0.210938 0.789062
vt 0.210938 0.789062
vt 0.210938 0.789062
vt 0.210938 0.789062
vt 0.210938 0.789062
vt 0.164062 0.773438
vt 0.164062 0.773438
vt 0.164062 0.773438
vt 0.382812 0.992188
vt 0.382812 0.992188
vt 0.382812 0.992188
vt 0.382812 0.976562
vt 0.382812 0.976562
vt 0.382812 0.976562
vt 0.382812 0.976562
vt 0.382812 0.992188
vt 0.164062 0.773438
vt 0.164062 0.773438
vt 0.164062 0.773438
vt 0.000000 0.000000
vt 0.000000 0.000000
vt 0.000000 0.000000
vt 0.164062 0.773437
vt 0.164062 0.773438
vt 0.164062 0.773438
vt 0.164062 0.773437
vt 0.382812 0.882812
vt 0.382812 0.882812
vt 0.382812 0.882812
vt 0.382812 0.882812
vt 0.382812 0.882812
vt 0.382812 0.882812
vt 0.000000 0.000000
vt 0.000000 0.000000
vt 0.000000 0.000000
vt 0.164062 0.773438
vt 0.164062 0.773438
vt 0.000000 0.000000
vt 0.000000 0.000000
vt 0.000000 0.000000
vt 0.164062 0.773438
vt 0.164062 0.773438
vt 0.164062 0.773438
vt 0.000000 0.000000
vt 0.000000 0.000000
vt 0.000000 0.000000
vt 0.164062 0.773438
vt 0.164062 0.773438
vt 0.164062 0.773438
vt 0.164062 0.773438
vt 0.164062 0.773438
vt 0.164062 0.773438
vt 0.210938 0.789062
vt 0.210938 0.789062
vt 0.289062 0.867188
vt 0.382812 0.976562
vt 0.382812 0.976562
vt 0.382812 0.992188
vt 0.382812 0.992188
vt 0.382812 0.992188
vt 0.382812 0.992188
vt 0.164062 0.773438
vt 0.257812 0.804688
vt 0.257812 0.804688
vt 0.257812 0.804688
vt 0.257812 0.804688
vt 0.257812 0.804688
vt 0.164062 0.773438
vt 0.164062 0.773438
vt 0.164062 0.773438
vt 0.164062 0.773438
vt 0.164062 0.773438
vt 0.257812 0.804688
vt 0.257812 0.804688
vt 0.257812 0.804688
vt 0.257812 0.804688
vt 0.257812 0.804688
vt 0.164062 0.773438
vt 0.164062 0.773438
vt 0.164062 0.773438
vt 0.164062 0.773438
vt 0.164062 0.773438
vt 0.382812 0.976562
vt 0.382812 0.987723
vt 0.382812 0.987723
vt 0.382812 0.976562
vt 0.382812 0.985491
vt 0.382812 0.985491
vt 0.382812 0.976562
vt 0.382812 0.992188
vt 0.382812 0.992188
vt 0.000000 0.000000
vt 0.164062 0.773437
vt 0.382812 0.882812
vt 0.382812 0.882812
vt 0.000000 0.000000
vt 0.164062 0.773438
vt 0.000000 0.000000
vt 0.164062 0.773437
vt 0.164062 0.773438
vt 0.000000 0.000000
vt 0.164062 0.773438
vt 0.164062 0.773438
vt 0.382812 0.992188
vt 0.382812 0.992188
vt 0.382812 0.981027
vt 0.382812 0.992188
vt 0.382812 0.992188
vt 0.382812 0.978795
vt 0.382812 0.992188
vt 0.382812 0.992188
vt 0.257812 0.804688
vt 0.257812 0.804688
vt 0.257812 0.804688
vt 0.382812 0.976562
vt 0.289062 0.867188
vt 0.382812 0.992188
vt 0.289062 0.867188
vt 0.289062 0.867188
vt 0.257812 0.804688
vt 0.382812 0.976562
vt 0.382812 0.976562
vt 0.382812 0.976562
vt 0.382812 0.976562
vt 0.382812 0.976562
vt 0.382812 0.981027
vt 0.382812 0.978795
vt 0.257812 0.804688
vn 0.0000 -0.0000 1.0000
vn 0.0000 0.8178 0.5755
vn 0.0000 0.0000 -1.0000
vn 0.9239 0.3827 0.0000
vn 0.7071 0.7071 0.0000
vn 1.0000 -0.0000 0.0000
vn -0.9604 0.0000 0.2787
vn -0.6044 -0.6870 0.4034
vn -0.3108 -0.8574 0.4102
vn -0.9859 0.0000 0.1675
vn 0.6044 -0.6870 0.4034
vn 0.3108 -0.8574 0.4102
vn 0.3302 -0.8497 0.4112
vn 0.0000 -0.9817 0.1903
vn 0.6044 0.6870 0.4034
vn 0.3108 0.8574 0.4102
vn 0.0000 -0.9685 0.2490
vn -0.3302 -0.8497 0.4112
vn -0.9736 -0.0000 0.2285
vn 0.0000 -0.9964 0.0852
vn 1.0000 -0.0001 -0.0017
vn 0.9979 -0.0026 -0.0651
vn 0.9978 -0.0027 -0.0666
vn -0.6044 0.6870 0.4034
vn -0.3108 0.8574 0.4102
vn -0.3302 0.8497 0.4112
vn 0.0000 0.9989 0.0469
vn 0.9604 0.0000 0.2787
vn 0.9736 -0.0000 0.2285
vn -0.9332 0.0000 0.3593
vn -0.9239 0.3827 0.0000
vn -1.0000 -0.0000 0.0000
vn 0.0000 0.9817 0.1903
vn 0.3302 0.8497 0.4112
vn 0.0000 1.0000 0.0000
vn 0.9332 0.0000 0.3593
vn 0.0000 0.9964 0.0853
vn -0.4786 -0.8781 -0.0000
vn -0.2459 -0.9132 -0.3251
vn 0.2459 0.9132 -0.3251
vn -0.2899 0.9178 -0.2715
vn -0.2459 0.9132 -0.3251
vn 0.3814 0.9086 -0.1704
vn 0.5369 0.8434 -0.0173
vn 0.5158 0.8567 -0.0006
vn 0.0000 -0.8178 0.5755
vn 0.2899 -0.9177 -0.2715
vn -0.2899 -0.9177 -0.2715
vn 0.4786 -0.8781 -0.0000
vn 0.2459 -0.9132 -0.3251
vn -0.8631 -0.5048 0.0174
vn -0.5370 -0.8434 -0.0173
vn -0.8893 -0.4573 0.0000
vn -0.4785 0.8781 0.0000
vn -0.7071 0.7071 0.0000
vn 0.0000 -1.0000 -0.0000
vn 0.4785 0.8781 0.0000
vn 0.2899 0.9178 -0.2715
vn -0.9979 -0.0026 -0.0651
vn -1.0000 -0.0001 -0.0017
vn -0.9978 -0.0027 -0.0666
vn -0.9981 -0.0284 -0.0554
vn -0.9990 -0.0429 -0.0154
vn -0.9988 -0.0485 0.0000
vn 0.9859 0.0000 0.1675
vn 0.8631 -0.5048 0.0174
vn 0.5370 -0.8434 -0.0173
vn 0.5158 -0.8567 -0.0006
vn 0.8631 0.5048 0.0174
vn -0.5369 0.8434 -0.0173
vn -0.8631 0.5048 0.0174
vn -0.8893 0.4573 0.0000
vn 0.9981 -0.0284 -0.0554
vn 0.9990 -0.0429 -0.0154
vn 0.9973 -0.0231 -0.0697
vn -0.4545 0.6377 0.6219
vn 0.0000 0.7628 -0.6466
vn -0.3814 -0.9086 -0.1704
vn -0.5158 -0.8567 -0.0006
vn 0.4545 -0.6377 0.6219
vn 0.0000 -0.7629 -0.6466
vn -0.3814 0.9086 -0.1704
vn -0.5158 0.8567 -0.0006
vn 0.3814 -0.9086 -0.1704
vn 0.4545 0.6377 0.6219
vn -0.4545 -0.6377 0.6219
vn -0.9973 -0.0231 -0.0697
vn 0.8893 -0.4573 0.0000
vn 0.8893 0.4573 0.0000
vn 0.9988 -0.0485 0.0000
s 1
f 1/1/1 2/2/1 3/3/1
f 4/4/2 5/5/2 6/6/2
f 7/7/1 8/8/1 9/9/1
f 11/10/3 13/11/3 10/12/3
f 13/11/4 16/13/5 14/14/4
f 17/15/1 18/16/1 19/17/1
f 14/14/4 10/12/6 13/11/4
f 21/18/1 22/19/1 23/20/1
f 24/21/7 26/22/7 27/23/7
f 28/24/8 30/25/9 31/26/8
f 3/3/1 2/2/1 32/27/1
f 3/3/1 25/28/1 24/21/1
f 7/29/1 28/24/1 1/1/1
f 33/30/1 29/31/1 7/29/1
f 34/32/1 23/20/1 35/33/1
f 36/34/10 38/35/10 39/36/10
f 35/33/11 41/37/12 42/38/13
f 43/39/1 44/40/1 45/41/1
f 47/42/14 49/43/14 46/44/14
f 23/20/15 44/40/16 43/39/15
f 50/45/17 26/22/17 25/28/17
f 41/37/12 29/31/18 42/38/13
f 28/24/19 45/41/19 2/2/19
f 53/46/20 38/35/20 52/47/20
f 54/48/21 55/49/22 56/50/23
f 21/18/1 50/45/1 22/19/1
f 3/3/1 57/51/1 21/18/1
f 2/2/24 58/52/25 32/27/26
f 27/23/27 57/51/27 24/21/27
f 57/51/28 51/53/28 50/45/28
f 43/39/29 35/33/29 23/20/29
f 3/54/1 8/8/1 1/55/1
f 43/39/1 31/26/1 40/56/1
f 48/57/30 61/58/30 49/43/30
f 51/53/1 49/43/1 26/22/1
f 12/59/31 63/60/32 62/61/31
f 60/62/33 65/63/33 61/58/33
f 58/52/25 22/19/34 32/27/26
f 16/64/3 54/48/3 14/65/3
f 65/63/1 51/53/1 59/66/1
f 68/67/35 15/68/35 67/69/35
f 64/70/36 46/44/36 65/63/36
f 50/45/1 32/27/1 22/19/1
f 69/71/37 70/72/37 71/73/37
f 27/23/1 26/22/1 38/35/1
f 27/23/1 71/73/1 70/72/1
f 17/15/1 72/74/1 73/75/1
f 17/76/1 4/77/1 74/78/1
f 76/79/6 78/80/6 75/81/6
f 63/60/38 79/82/39 80/83/38
f 81/84/40 82/85/41 79/82/42
f 83/86/2 4/77/2 6/87/2
f 74/88/43 84/89/44 72/90/45
f 33/91/1 86/92/1 34/93/1
f 21/18/46 6/87/46 3/3/46
f 10/12/47 79/82/39 11/10/48
f 20/94/49 81/84/50 10/12/47
f 88/95/1 89/96/1 90/97/1
f 91/98/1 92/99/1 93/100/1
f 94/101/1 95/102/1 96/103/1
f 97/104/1 98/105/1 99/106/1
f 100/107/1 101/108/1 102/109/1
f 21/110/1 86/92/1 103/111/1
f 56/50/51 5/5/52 104/112/53
f 79/82/42 105/113/54 80/83/54
f 76/114/3 106/115/3 107/116/3
f 107/116/3 108/117/3 105/118/3
f 86/119/55 110/120/55 109/121/55
f 76/79/56 111/122/56 77/123/56
f 63/124/3 109/121/3 62/125/3
f 62/61/31 67/69/55 12/59/31
f 81/84/40 75/81/57 78/80/58
f 77/123/3 82/85/3 78/80/3
f 39/126/1 69/127/1 36/128/1
f 103/129/59 109/121/60 112/130/61
f 111/122/32 105/113/32 82/85/32
f 72/90/62 106/115/63 73/131/64
f 54/48/5 9/132/5 8/133/5
f 53/46/65 113/134/65 69/71/65
f 112/130/66 84/89/67 103/129/68
f 84/89/44 108/117/69 72/90/45
f 5/5/70 116/135/71 104/112/72
f 61/58/1 52/47/1 49/43/1
f 18/136/56 106/115/56 117/137/56
f 115/138/73 117/137/74 116/135/75
f 19/17/1 115/139/1 4/140/1
f 63/124/76 114/141/76 112/130/76
f 21/142/46 84/89/46 83/143/46
f 76/114/3 116/135/3 117/137/3
f 20/144/77 104/112/77 87/145/77
f 3/146/78 5/5/52 55/49/79
f 20/144/3 54/48/3 56/50/3
f 68/147/3 109/121/3 110/120/3
f 75/148/80 104/112/80 116/135/80
f 9/9/1 33/91/1 7/7/1
f 105/118/81 114/141/81 80/149/81
f 110/120/3 16/64/3 68/147/3
f 118/150/1 119/151/1 120/152/1
f 122/153/1 124/154/1 121/155/1
f 126/156/1 128/157/1 125/158/1
f 129/159/1 124/154/1 123/160/1
f 131/161/1 132/162/1 133/163/1
f 93/164/1 134/165/1 135/166/1
f 136/167/1 137/168/1 138/169/1
f 135/170/1 136/167/1 138/169/1
f 139/171/1 140/172/1 134/173/1
f 137/174/1 141/175/1 142/176/1
f 143/177/1 144/178/1 136/179/1
f 131/161/1 141/180/1 143/181/1
f 145/182/1 146/183/1 92/184/1
f 135/170/1 140/185/1 145/186/1
f 92/99/1 139/187/1 93/100/1
f 138/188/1 142/189/1 131/190/1
f 147/191/1 148/192/1 149/193/1
f 150/194/1 151/195/1 152/196/1
f 1/1/1 28/24/1 2/2/1
f 4/4/82 115/138/83 5/5/70
f 12/59/3 67/69/3 15/68/3
f 15/68/3 13/11/3 12/59/3
f 17/15/1 73/75/1 18/16/1
f 3/3/1 32/27/1 25/28/1
f 33/30/1 42/38/1 29/31/1
f 34/32/1 21/18/1 23/20/1
f 44/40/1 58/52/1 45/41/1
f 85/197/35 66/198/35 110/120/35
f 31/26/1 30/25/1 40/56/1
f 30/25/1 41/37/1 40/56/1
f 21/18/1 57/51/1 50/45/1
f 3/3/1 24/21/1 57/51/1
f 51/53/1 46/44/1 49/43/1
f 70/72/65 69/71/65 113/134/65
f 71/73/37 37/199/37 36/34/37
f 36/34/37 69/71/37 71/73/37
f 26/22/1 49/43/1 52/47/1
f 33/30/1 35/33/1 42/38/1
f 37/199/1 71/73/1 27/23/1
f 26/22/1 52/47/1 38/35/1
f 38/35/1 37/199/1 27/23/1
f 113/134/1 61/58/1 70/72/1
f 61/58/1 65/63/1 59/66/1
f 70/72/1 61/58/1 59/66/1
f 59/66/1 27/23/1 70/72/1
f 17/15/1 74/200/1 72/74/1
f 81/84/40 78/80/58 82/85/41
f 83/86/2 74/78/2 4/77/2
f 74/88/2 83/143/2 84/89/2
f 21/18/46 83/86/46 6/87/46
f 10/12/47 81/84/50 79/82/39
f 89/96/1 153/201/1 90/97/1
f 90/97/1 154/202/1 155/203/1
f 154/202/1 156/204/1 155/203/1
f 156/204/1 157/205/1 155/203/1
f 155/203/1 88/95/1 90/97/1
f 91/98/1 158/206/1 92/99/1
f 96/103/1 159/207/1 160/208/1
f 159/207/1 161/209/1 160/208/1
f 161/209/1 162/210/1 160/208/1
f 160/208/1 163/211/1 96/103/1
f 163/211/1 94/101/1 96/103/1
f 99/106/1 164/212/1 165/213/1
f 164/212/1 166/214/1 165/213/1
f 166/214/1 167/215/1 165/213/1
f 165/213/1 168/216/1 99/106/1
f 168/216/1 97/104/1 99/106/1
f 101/108/1 169/217/1 102/109/1
f 102/109/1 170/218/1 171/219/1
f 170/218/1 172/220/1 171/219/1
f 172/220/1 173/221/1 171/219/1
f 171/219/1 100/107/1 102/109/1
f 76/114/3 117/137/3 106/115/3
f 107/116/3 106/115/3 108/117/3
f 19/17/1 18/16/1 115/139/1
f 63/124/77 80/149/77 114/141/77
f 21/142/84 103/129/68 84/89/67
f 76/114/3 75/148/3 116/135/3
f 20/144/85 56/50/85 104/112/85
f 3/146/46 6/6/46 5/5/46
f 75/148/81 87/145/81 104/112/81
f 105/118/86 108/117/86 114/141/86
f 119/151/1 174/222/1 120/152/1
f 120/152/1 175/223/1 176/224/1
f 175/223/1 177/225/1 176/224/1
f 177/225/1 178/226/1 176/224/1
f 176/224/1 118/150/1 120/152/1
f 180/227/1 182/228/1 179/229/1
f 183/230/1 181/231/1 180/232/1
f 179/233/1 130/234/1 129/235/1
f 131/161/1 143/181/1 132/162/1
f 93/164/1 139/236/1 134/165/1
f 136/167/1 144/237/1 137/168/1
f 135/170/1 145/186/1 136/167/1
f 139/171/1 146/238/1 140/172/1
f 137/174/1 144/239/1 141/175/1
f 143/177/1 141/240/1 144/178/1
f 131/161/1 142/241/1 141/180/1
f 145/182/1 140/242/1 146/183/1
f 135/170/1 134/243/1 140/185/1
f 92/99/1 146/244/1 139/187/1
f 138/188/1 137/245/1 142/189/1
f 147/191/1 185/246/1 148/192/1
f 150/194/1 186/247/1 151/195/1
f 125/158/1 188/248/1 187/249/1
f 189/250/1 184/251/1 183/252/1
f 187/253/1 190/254/1 189/255/1
f 48/256/1 64/257/1 60/258/1
f 7/7/1 1/55/1 8/8/1
f 11/10/3 12/59/3 13/11/3
f 13/11/4 15/68/5 16/13/5
f 14/14/4 20/94/6 10/12/6
f 24/21/7 25/28/7 26/22/7
f 28/24/8 29/31/18 30/25/9
f 7/29/1 29/31/1 28/24/1
f 36/34/10 37/199/10 38/35/10
f 35/33/11 40/56/11 41/37/12
f 47/42/14 48/57/14 49/43/14
f 23/20/15 22/19/34 44/40/16
f 50/45/17 51/53/17 26/22/17
f 41/37/12 30/25/9 29/31/18
f 28/24/19 31/26/19 45/41/19
f 53/46/20 39/36/20 38/35/20
f 54/48/21 8/133/6 55/49/22
f 2/2/24 45/41/24 58/52/25
f 27/23/27 59/66/27 57/51/27
f 57/51/28 59/66/28 51/53/28
f 43/39/29 40/56/29 35/33/29
f 3/54/1 55/259/1 8/8/1
f 43/39/1 45/41/1 31/26/1
f 48/57/30 60/62/30 61/58/30
f 12/59/31 11/10/32 63/60/32
f 60/62/33 64/70/33 65/63/33
f 58/52/25 44/40/16 22/19/34
f 16/64/3 66/198/3 54/48/3
f 65/63/1 46/44/1 51/53/1
f 68/67/35 16/13/35 15/68/35
f 64/70/36 47/42/36 46/44/36
f 50/45/1 25/28/1 32/27/1
f 17/76/1 19/260/1 4/77/1
f 76/79/6 77/123/6 78/80/6
f 63/60/38 11/10/48 79/82/39
f 33/91/1 85/261/1 86/92/1
f 20/94/49 87/262/49 81/84/50
f 21/110/1 34/93/1 86/92/1
f 56/50/51 55/49/79 5/5/52
f 79/82/42 82/85/41 105/113/54
f 86/119/55 85/197/55 110/120/55
f 76/79/56 107/263/56 111/122/56
f 63/124/3 112/130/3 109/121/3
f 62/61/31 68/67/55 67/69/55
f 81/84/40 87/262/57 75/81/57
f 77/123/3 111/122/3 82/85/3
f 39/126/1 53/264/1 69/127/1
f 103/129/59 86/119/32 109/121/60
f 111/122/32 107/263/32 105/113/32
f 72/90/62 108/117/87 106/115/63
f 54/48/5 66/198/5 9/132/5
f 53/46/65 52/47/65 113/134/65
f 112/130/66 114/141/88 84/89/67
f 84/89/44 114/141/89 108/117/69
f 5/5/70 115/138/83 116/135/71
f 61/58/1 113/134/1 52/47/1
f 18/136/56 73/131/56 106/115/56
f 115/138/73 18/136/90 117/137/74
f 20/144/3 14/65/3 54/48/3
f 68/147/3 62/125/3 109/121/3
f 9/9/1 85/261/1 33/91/1
f 110/120/3 66/198/3 16/64/3
f 122/153/1 123/160/1 124/154/1
f 126/156/1 127/265/1 128/157/1
f 129/159/1 130/266/1 124/154/1
f 85/197/35 9/132/35 66/198/35
f 33/30/1 34/32/1 35/33/1
f 180/227/1 181/267/1 182/228/1
f 183/230/1 184/268/1 181/231/1
f 179/233/1 182/269/1 130/234/1
f 125/158/1 128/157/1 188/248/1
f 189/250/1 190/270/1 184/251/1
f 187/253/1 188/271/1 190/254/1
f 48/256/1 47/272/1 64/257/1
