# Blender v2.90.0 Alpha OBJ File: 'Decos.blend'
# www.blender.org
o Cube.006_Cube.003
v -2.431212 3.445785 0.024111
v -4.344862 3.552409 0.000000
v -4.318080 2.006879 0.000000
v -2.431213 1.900254 0.000000
v 0.000000 1.900254 -0.000000
v 0.000001 3.371147 0.024110
v 2.431213 3.445784 0.024110
v 2.431213 1.900254 -0.000000
v 4.318081 2.006877 -0.000001
v 4.344862 3.552407 -0.000001
v -2.431212 3.445785 -0.024111
v 0.000001 3.371147 -0.024112
v 2.431213 3.445784 -0.024112
v -5.127894 0.116158 -0.055154
v -5.127893 3.718505 -0.055154
v -5.018041 3.718505 0.013332
v -5.018041 0.116158 0.013332
v -5.127893 3.718505 0.081818
v -5.127894 0.116158 0.081818
v -5.237749 3.718505 0.013332
v -5.237749 0.116158 0.013332
v 5.127894 0.116156 -0.055154
v 5.018041 0.116156 0.013332
v 5.018042 3.718503 0.013331
v 5.127894 3.718503 -0.055155
v 5.127894 0.116156 0.081818
v 5.127894 3.718503 0.081817
v 5.237749 0.116156 0.013332
v 5.237750 3.718503 0.013331
vt 0.117188 0.789062
vt 0.117188 0.789062
vt 0.117188 0.789062
vt 0.117188 0.789062
vt 0.117188 0.789062
vt 0.117188 0.789062
vt 0.117188 0.789062
vt 0.117188 0.789062
vt 0.117188 0.789062
vt 0.117188 0.789062
vt 0.117188 0.789062
vt 0.117188 0.789062
vt 0.117188 0.789062
vt 0.195312 0.773438
vt 0.195312 0.773438
vt 0.195312 0.773438
vt 0.195312 0.773438
vt 0.195312 0.773438
vt 0.195312 0.773438
vt 0.195312 0.773438
vt 0.195312 0.773438
vt 0.195312 0.773438
vt 0.195312 0.773438
vt 0.195312 0.773438
vt 0.195312 0.773438
vt 0.195312 0.773438
vt 0.195312 0.773438
vt 0.195312 0.773438
vt 0.195312 0.773438
vn -0.0005 -0.0160 0.9999
vn -0.0068 -0.0079 0.9999
vn -0.0035 -0.0120 0.9999
vn 0.0000 -0.0160 0.9999
vn 0.0005 -0.0160 0.9999
vn 0.0035 -0.0120 0.9999
vn 0.0068 -0.0079 0.9999
vn -0.0005 -0.0160 -0.9999
vn -0.0035 -0.0120 -0.9999
vn -0.0068 -0.0079 -0.9999
vn -0.0000 -0.0160 -0.9999
vn 0.0005 -0.0160 -0.9999
vn 0.0068 -0.0079 -0.9999
vn 0.0035 -0.0120 -0.9999
vn 0.5290 -0.0000 -0.8486
vn 0.5290 -0.0000 0.8486
vn -0.5290 0.0000 0.8486
vn -0.5290 0.0000 -0.8486
vn 0.0000 1.0000 0.0000
s 1
f 1/1/1 2/2/2 3/3/2 4/4/3
f 5/5/4 6/6/4 1/1/1 4/4/3
f 7/7/5 8/8/6 9/9/7 10/10/7
f 5/5/4 8/8/6 7/7/5 6/6/4
f 11/11/8 4/4/9 3/3/10 2/2/10
f 5/5/11 4/4/9 11/11/8 12/12/11
f 13/13/12 10/10/13 9/9/13 8/8/14
f 5/5/11 12/12/11 13/13/12 8/8/14
f 14/14/15 15/15/15 16/16/15 17/17/15
f 17/17/16 16/16/16 18/18/16 19/19/16
f 19/19/17 18/18/17 20/20/17 21/21/17
f 21/21/18 20/20/18 15/15/18 14/14/18
f 18/18/19 16/16/19 15/15/19 20/20/19
f 22/22/18 23/23/18 24/24/18 25/25/18
f 23/23/17 26/26/17 27/27/17 24/24/17
f 26/26/16 28/28/16 29/29/16 27/27/16
f 28/28/15 22/22/15 25/25/15 29/29/15
f 27/27/19 29/29/19 25/25/19 24/24/19
