# Blender v2.91.0 Beta OBJ File: 'decos.blend'
# www.blender.org
o TankShort_Cube.008
v -4.800776 21.419796 0.000005
v -5.462733 21.419796 -0.661950
v -6.124684 21.419796 0.000005
v -5.462733 21.419796 0.661963
v -4.330806 -5.847541 -4.330804
v -4.330806 21.419796 -4.330799
v -3.394661 21.419796 -4.330802
v -3.394661 -5.847541 -4.330807
v -3.394661 21.419796 -3.394655
v -3.394661 -5.847541 -3.394660
v -4.330809 21.419796 -3.394655
v -4.330809 -5.847541 -3.394660
v 0.000000 21.419796 -4.800766
v 0.661956 21.419796 -5.462726
v 0.000000 21.419800 -6.124678
v -0.661956 21.419796 -5.462726
v 4.330805 -5.847541 -4.330805
v 4.330805 21.419796 -4.330800
v 4.330809 21.419796 -3.394656
v 4.330809 -5.847541 -3.394661
v 3.394658 21.419796 -3.394652
v 3.394658 -5.847541 -3.394658
v 3.394662 21.419796 -4.330804
v 3.394662 -5.847541 -4.330808
v 4.800774 21.419796 0.000005
v 5.462733 21.419796 0.661963
v 6.124682 21.419796 0.000005
v 5.462733 21.419796 -0.661950
v 4.330805 -5.847543 4.330807
v 4.330805 21.419796 4.330812
v 3.394661 21.419796 4.330815
v 3.394661 -5.847543 4.330810
v 3.394657 21.419796 3.394664
v 3.394657 -5.847543 3.394659
v 4.330809 21.419796 3.394668
v 4.330809 -5.847543 3.394663
v 0.000000 21.419796 4.800780
v -0.661956 21.419796 5.462741
v 0.000000 21.419792 6.124691
v 0.661956 21.419796 5.462741
v -4.330806 -5.847543 4.330808
v -4.330806 21.419796 4.330812
v -4.330810 21.419796 3.394668
v -4.330810 -5.847543 3.394663
v -3.394657 21.419796 3.394664
v -3.394657 -5.847543 3.394660
v -3.394661 21.419796 4.330816
v -3.394661 -5.847543 4.330810
v 0.000000 17.783096 0.000003
v 0.000000 17.783092 8.187613
v 5.789514 17.783096 5.789517
v 8.187610 17.783096 0.000003
v -8.187610 17.783096 0.000003
v -5.789514 17.783096 5.789517
v -5.789514 17.783096 -5.789511
v 0.000000 17.783100 -8.187607
v 5.789514 17.783096 -5.789511
v 0.000000 31.335852 0.000007
v -9.126077 27.623110 0.000007
v 0.000000 27.623106 9.126083
v 9.126077 27.623110 0.000007
v 0.000000 27.623114 -9.126071
v 0.000000 17.973629 9.126080
v 0.000000 16.205681 0.000003
v 9.126077 17.973633 0.000003
v 0.000000 17.973637 -9.126075
v -9.126077 17.973633 0.000003
v 0.000000 17.777195 1.282713
v 1.282710 17.777195 0.000003
v 0.000000 17.777195 0.000003
v -1.282710 17.777195 0.000003
v 0.000000 17.777195 -1.282707
v 0.000000 19.534924 9.126081
v -9.126077 19.534929 0.000003
v 9.126077 19.534929 0.000003
v 0.000000 26.061810 9.126081
v -9.126077 26.061815 0.000005
v 9.126077 26.061815 0.000005
v 0.000000 19.534935 -9.126073
v 0.000000 26.061817 -9.126072
v 0.000000 27.306358 11.197020
v -11.197013 27.306362 0.000006
v 11.197013 27.306362 0.000006
v 0.000000 27.306366 -11.197005
vt 0.257812 0.789062
vt 0.257812 0.789062
vt 0.257812 0.789062
vt 0.257812 0.789062
vt 0.257812 0.789062
vt 0.257812 0.789062
vt 0.257812 0.789062
vt 0.257812 0.789062
vt 0.257812 0.789062
vt 0.257812 0.789062
vt 0.257812 0.789062
vt 0.257812 0.789062
vt 0.257812 0.789062
vt 0.257812 0.789062
vt 0.257812 0.789062
vt 0.257812 0.789062
vt 0.257812 0.789062
vt 0.257812 0.789062
vt 0.257812 0.789062
vt 0.257812 0.789062
vt 0.257812 0.789062
vt 0.257812 0.789062
vt 0.257812 0.789062
vt 0.257812 0.789062
vt 0.257812 0.789062
vt 0.257812 0.789062
vt 0.257812 0.789062
vt 0.257812 0.789062
vt 0.257812 0.789062
vt 0.257812 0.789062
vt 0.257812 0.789062
vt 0.257812 0.789062
vt 0.257812 0.789062
vt 0.257812 0.789062
vt 0.257812 0.789062
vt 0.257812 0.789062
vt 0.257812 0.789062
vt 0.257812 0.789062
vt 0.257812 0.789062
vt 0.257812 0.789062
vt 0.257812 0.789062
vt 0.257812 0.789062
vt 0.257812 0.789062
vt 0.257812 0.789062
vt 0.257812 0.789062
vt 0.257812 0.789062
vt 0.257812 0.789062
vt 0.257812 0.789062
vt 0.257812 0.789062
vt 0.257812 0.789062
vt 0.257812 0.789062
vt 0.257812 0.789062
vt 0.257812 0.789062
vt 0.257812 0.789062
vt 0.257812 0.789062
vt 0.257812 0.789062
vt 0.257812 0.789062
vt 0.257812 0.789062
vt 0.257812 0.789062
vt 0.257812 0.789062
vt 0.257812 0.789062
vt 0.257812 0.789062
vt 0.257812 0.789062
vt 0.257812 0.789062
vt 0.257812 0.789062
vt 0.257812 0.789062
vt 0.257812 0.789062
vt 0.257812 0.789062
vt 0.257812 0.789062
vt 0.257812 0.789062
vt 0.257812 0.789062
vt 0.257812 0.789062
vt 0.257812 0.804688
vt 0.257812 0.804688
vt 0.257812 0.804688
vt 0.257812 0.804688
vt 0.257812 0.804688
vt 0.257812 0.804688
vt 0.257812 0.789062
vt 0.257812 0.789062
vt 0.257812 0.789062
vt 0.257812 0.789062
vt 0.257812 0.789062
vt 0.257812 0.789062
vt 0.257812 0.789062
vt 0.257812 0.789062
vt 0.257812 0.804688
vt 0.257812 0.804688
vt 0.257812 0.789062
vt 0.257812 0.789062
vt 0.257812 0.789062
vt 0.257812 0.789062
vt 0.257812 0.804688
vt 0.257812 0.804688
vt 0.257812 0.804688
vt 0.257812 0.804688
vt 0.257812 0.804688
vt 0.257812 0.804688
vt 0.257812 0.804688
vt 0.257812 0.804688
vn 0.0000 1.0000 0.0000
vn -0.0000 0.0000 -1.0000
vn 1.0000 -0.0000 0.0000
vn 0.0000 -0.0000 1.0000
vn -1.0000 0.0000 -0.0000
vn -0.3526 0.8668 0.3526
vn 0.3526 0.8668 0.3526
vn 0.3526 0.8668 -0.3526
vn -0.3526 0.8668 -0.3526
vn 0.1868 -0.9645 0.1868
vn 0.1868 -0.9645 -0.1868
vn -0.1868 -0.9645 0.1868
vn -0.1868 -0.9645 -0.1868
vn -0.8519 -0.5236 -0.0000
vn 0.0000 -0.5236 0.8519
vn 0.8519 -0.5236 0.0000
vn 0.0000 -0.5236 -0.8519
vn -0.0000 0.9409 0.3386
vn -0.3386 0.9409 0.0000
vn 0.3386 0.9409 0.0000
vn 0.0000 0.9409 -0.3386
vn 0.0000 0.4652 -0.8852
vn 0.8852 0.4652 -0.0000
vn 0.0000 0.4652 0.8852
vn -0.8852 0.4652 0.0000
s off
f 1/1/1 2/2/1 3/3/1 4/4/1
f 5/5/2 6/6/2 7/7/2 8/8/2
f 8/8/3 7/7/3 9/9/3 10/10/3
f 10/10/4 9/9/4 11/11/4 12/12/4
f 12/12/5 11/11/5 6/6/5 5/5/5
f 9/9/1 7/7/1 6/6/1 11/11/1
f 13/13/1 14/14/1 15/15/1 16/16/1
f 17/17/3 18/18/3 19/19/3 20/20/3
f 20/20/4 19/19/4 21/21/4 22/22/4
f 22/22/5 21/21/5 23/23/5 24/24/5
f 24/24/2 23/23/2 18/18/2 17/17/2
f 21/21/1 19/19/1 18/18/1 23/23/1
f 25/25/1 26/26/1 27/27/1 28/28/1
f 29/29/4 30/30/4 31/31/4 32/32/4
f 32/32/5 31/31/5 33/33/5 34/34/5
f 34/34/2 33/33/2 35/35/2 36/36/2
f 36/36/3 35/35/3 30/30/3 29/29/3
f 33/33/1 31/31/1 30/30/1 35/35/1
f 37/37/1 38/38/1 39/39/1 40/40/1
f 41/41/5 42/42/5 43/43/5 44/44/5
f 44/44/2 43/43/2 45/45/2 46/46/2
f 46/46/3 45/45/3 47/47/3 48/48/3
f 48/48/4 47/47/4 42/42/4 41/41/4
f 45/45/1 43/43/1 42/42/1 47/47/1
f 49/49/1 50/50/1 51/51/1 52/52/1
f 53/53/1 54/54/1 50/50/1 49/49/1
f 55/55/1 53/53/1 49/49/1 56/56/1
f 56/56/1 49/49/1 52/52/1 57/57/1
f 58/58/6 59/59/6 60/60/6
f 61/61/7 58/58/7 60/60/7
f 61/61/8 62/62/8 58/58/8
f 62/62/9 59/59/9 58/58/9
f 63/63/10 64/64/10 65/65/10
f 65/65/11 64/64/11 66/66/11
f 64/64/12 63/63/12 67/67/12
f 66/66/13 64/64/13 67/67/13
f 68/68/1 69/69/1 70/70/1
f 71/71/1 68/68/1 70/70/1
f 69/69/1 72/72/1 70/70/1
f 72/72/1 71/71/1 70/70/1
s 1
f 67/73/14 63/74/15 73/75/4 74/76/5
f 63/74/15 65/77/16 75/78/3 73/75/4
f 74/79/5 73/80/4 76/81/4 77/82/5
f 73/80/4 75/83/3 78/84/3 76/81/4
f 75/83/3 79/85/2 80/86/2 78/84/3
f 79/85/2 74/79/5 77/82/5 80/86/2
f 65/77/16 66/87/17 79/88/2 75/78/3
f 81/89/18 58/58/1 82/90/19
f 83/91/20 58/58/1 81/89/18
f 83/91/20 84/92/21 58/58/1
f 84/92/21 82/90/19 58/58/1
f 66/87/17 67/73/14 74/76/5 79/88/2
f 78/93/3 80/94/2 62/95/22 61/96/23
f 77/97/5 76/98/4 60/99/24 59/100/25
f 78/93/3 61/96/23 60/99/24 76/98/4
f 77/97/5 59/100/25 62/95/22 80/94/2
