# Blender v2.91.0 Beta OBJ File: 'farmhouse.blend'
# www.blender.org
o Cube.005
v -1.207107 1.237455 0.000000
v -0.804168 0.469369 -0.804168
v -1.137265 0.469369 0.000000
v 0.000000 1.237455 -1.207107
v 0.804168 0.469369 -0.804168
v 0.000000 0.469369 -1.137265
v 1.207107 1.237455 0.000000
v 0.804168 0.469369 0.804168
v 1.137265 0.469369 0.000000
v 0.000000 0.058768 0.000000
v 0.683841 0.058768 0.683841
v 0.000000 0.058768 0.967098
v 0.000000 1.237455 1.207107
v -0.999233 1.537765 0.999233
v -0.853553 1.237455 0.853553
v 0.939974 1.548241 0.939974
v 0.853553 1.237455 0.853553
v 0.683841 0.058768 -0.683841
v 0.000000 0.058768 -0.967098
v -0.804168 0.469369 0.804168
v 0.000000 0.469369 1.137265
v 0.853553 1.237455 -0.853553
v -0.683841 0.058768 -0.683841
v -0.967098 0.058768 0.000000
v 1.329324 1.548241 0.000000
v -0.683841 0.058768 0.683841
v 0.967098 0.058768 0.000000
v -0.939974 1.548241 -0.939974
v -0.853553 1.237455 -0.853553
v 0.939974 1.548241 -0.939974
v 0.000000 1.537765 0.000000
v 0.000000 1.537765 -1.413129
v -1.413129 1.537765 0.000000
v 0.000000 1.537765 1.413129
v 0.000000 1.914899 0.000000
vt 0.179688 0.835938
vt 0.179688 0.835938
vt 0.179688 0.835938
vt 0.179688 0.835938
vt 0.179688 0.835938
vt 0.179688 0.835938
vt 0.179688 0.835938
vt 0.179688 0.835938
vt 0.179688 0.835938
vt 0.179688 0.835938
vt 0.179688 0.835938
vt 0.179688 0.835938
vt 0.179688 0.835938
vt 0.179688 0.835938
vt 0.179688 0.835938
vt 0.179688 0.835938
vt 0.179688 0.835938
vt 0.179688 0.835938
vt 0.179688 0.835938
vt 0.179688 0.835938
vt 0.179688 0.835938
vt 0.179688 0.835938
vt 0.179688 0.835938
vt 0.179688 0.835938
vt 0.179688 0.835938
vt 0.179688 0.835938
vt 0.179688 0.835938
vt 0.179688 0.835938
vt 0.179688 0.835938
vt 0.179688 0.835938
vt 0.179688 0.835938
vt 0.179688 0.835938
vt 0.179688 0.835938
vt 0.179688 0.835938
vt 0.179688 0.835938
vn -0.9371 -0.3486 -0.0183
vn -0.6879 -0.2313 -0.6879
vn -0.9729 -0.2313 0.0000
vn -0.0000 -0.3365 -0.9417
vn 0.6879 -0.2313 -0.6879
vn -0.0000 -0.2313 -0.9729
vn 0.9711 -0.2387 -0.0000
vn 0.6879 -0.2313 0.6879
vn 0.9729 -0.2313 -0.0000
vn 0.0000 -1.0000 -0.0000
vn 0.0183 -0.3486 0.9371
vn -0.5831 -0.5657 0.5831
vn -0.6595 -0.3606 0.6595
vn 0.6582 -0.3886 0.6447
vn 0.6867 -0.2387 0.6867
vn -0.6879 -0.2313 0.6879
vn 0.0000 -0.2313 0.9729
vn 0.6867 -0.2387 -0.6867
vn -0.6532 -0.3829 -0.6532
vn 0.0000 -0.3829 -0.9238
vn 0.9306 -0.3660 -0.0000
vn 0.6532 -0.3829 0.6532
vn 0.0000 -0.3829 0.9238
vn -0.6532 -0.3829 0.6532
vn -0.9238 -0.3829 0.0000
vn 0.6532 -0.3829 -0.6532
vn 0.9238 -0.3829 0.0000
vn -0.6447 -0.4107 -0.6447
vn -0.6867 -0.2387 -0.6867
vn 0.6582 -0.3886 -0.6447
vn 0.0056 1.0000 0.0056
vn -0.0045 1.0000 0.0019
vn 0.0000 1.0000 0.0000
vn -0.0096 1.0000 0.0016
vn -0.0079 1.0000 0.0000
vn -0.0096 1.0000 -0.0016
vn -0.1823 0.9662 0.1823
vn 0.0024 0.9662 0.2579
vn 0.0035 1.0000 -0.0015
vn 0.1901 0.9640 -0.1859
vn 0.0000 0.9662 -0.2579
vn -0.2579 0.9662 -0.0024
vn -0.1880 0.9640 -0.1880
vn 0.1901 0.9640 0.1859
vn 0.2659 0.9640 0.0000
vn 0.0305 -0.5654 0.8242
vn -0.8242 -0.5654 -0.0305
vn -0.3883 -0.5213 -0.7599
vn 0.3883 -0.5213 -0.7599
vn 0.0000 0.9999 0.0111
vn -0.0111 0.9999 0.0000
s 1
f 1/1/1 2/2/2 3/3/3
f 4/4/4 5/5/5 6/6/6
f 7/7/7 8/8/8 9/9/9
f 10/10/10 11/11/10 12/12/10
f 13/13/11 14/14/12 15/15/13
f 16/16/14 13/13/11 17/17/15
f 18/18/10 10/10/10 19/19/10
f 13/13/11 20/20/16 21/21/17
f 22/22/18 9/9/9 5/5/5
f 23/23/10 10/10/10 24/24/10
f 23/23/19 6/6/6 19/19/20
f 16/16/14 7/7/7 25/25/21
f 10/10/10 26/26/10 24/24/10
f 15/15/13 3/3/3 20/20/16
f 17/17/15 21/21/17 8/8/8
f 11/11/22 21/21/17 12/12/23
f 26/26/24 3/3/3 24/24/25
f 18/18/26 9/9/9 27/27/27
f 21/21/17 26/26/24 12/12/23
f 9/9/9 11/11/22 27/27/27
f 6/6/6 18/18/26 19/19/20
f 3/3/3 23/23/19 24/24/25
f 14/14/12 1/1/1 15/15/13
f 28/28/28 4/4/4 29/29/29
f 22/22/18 25/25/21 7/7/7
f 4/4/4 30/30/30 22/22/18
f 28/28/31 31/31/32 32/32/33
f 30/30/34 31/31/32 25/25/35
f 31/31/32 16/16/36 25/25/35
f 31/31/10 14/14/10 33/33/10
f 14/14/37 34/34/38 35/35/39
f 30/30/40 32/32/41 35/35/39
f 33/33/42 14/14/37 35/35/39
f 32/32/41 28/28/43 35/35/39
f 34/34/38 16/16/44 35/35/39
f 25/25/45 30/30/40 35/35/39
f 28/28/43 33/33/42 35/35/39
f 16/16/44 25/25/45 35/35/39
f 1/1/1 28/28/28 29/29/29
f 29/29/29 6/6/6 2/2/2
f 1/1/1 29/29/29 2/2/2
f 4/4/4 22/22/18 5/5/5
f 7/7/7 17/17/15 8/8/8
f 10/10/10 27/27/10 11/11/10
f 13/13/11 34/34/46 14/14/12
f 16/16/14 34/34/46 13/13/11
f 18/18/10 27/27/10 10/10/10
f 13/13/11 15/15/13 20/20/16
f 22/22/18 7/7/7 9/9/9
f 23/23/10 19/19/10 10/10/10
f 23/23/19 2/2/2 6/6/6
f 16/16/14 17/17/15 7/7/7
f 10/10/10 12/12/10 26/26/10
f 15/15/13 1/1/1 3/3/3
f 17/17/15 13/13/11 21/21/17
f 11/11/22 8/8/8 21/21/17
f 26/26/24 20/20/16 3/3/3
f 18/18/26 5/5/5 9/9/9
f 21/21/17 20/20/16 26/26/24
f 9/9/9 8/8/8 11/11/22
f 6/6/6 5/5/5 18/18/26
f 3/3/3 2/2/2 23/23/19
f 14/14/12 33/33/47 1/1/1
f 28/28/28 32/32/48 4/4/4
f 22/22/18 30/30/30 25/25/21
f 4/4/4 32/32/49 30/30/30
f 28/28/31 33/33/50 31/31/32
f 30/30/34 32/32/33 31/31/32
f 31/31/32 34/34/51 16/16/36
f 31/31/10 34/34/10 14/14/10
f 1/1/1 33/33/47 28/28/28
f 29/29/29 4/4/4 6/6/6
