# Blender v2.91.0 Beta OBJ File: 'decos.blend'
# www.blender.org
o TankShort_Cube.005
v -6.124684 -5.847542 0.000000
v -6.124684 21.419796 0.000005
v -5.462733 21.419796 -0.661950
v -5.462733 -5.847542 -0.661956
v -4.800776 21.419796 0.000005
v -4.800776 -5.847542 0.000000
v -5.462733 21.419796 0.661963
v -5.462733 -5.847542 0.661956
v -4.330806 -5.847541 -4.330804
v -4.330806 21.419796 -4.330799
v -3.394661 21.419796 -4.330802
v -3.394661 -5.847541 -4.330807
v -3.394661 21.419796 -3.394655
v -3.394661 -5.847541 -3.394660
v -4.330809 21.419796 -3.394655
v -4.330809 -5.847541 -3.394660
v 0.000000 -5.847539 -6.124687
v 0.000000 21.419800 -6.124678
v 0.661956 21.419796 -5.462726
v 0.661956 -5.847539 -5.462734
v 0.000000 21.419796 -4.800766
v 0.000000 -5.847539 -4.800771
v -0.661956 21.419796 -5.462726
v -0.661956 -5.847539 -5.462734
v 4.330805 -5.847541 -4.330805
v 4.330805 21.419796 -4.330800
v 4.330809 21.419796 -3.394656
v 4.330809 -5.847541 -3.394661
v 3.394658 21.419796 -3.394652
v 3.394658 -5.847541 -3.394658
v 3.394662 21.419796 -4.330804
v 3.394662 -5.847541 -4.330808
v 6.124682 -5.847542 0.000000
v 6.124682 21.419796 0.000005
v 5.462733 21.419796 0.661963
v 5.462733 -5.847542 0.661956
v 4.800774 21.419796 0.000005
v 4.800774 -5.847542 0.000000
v 5.462733 21.419796 -0.661950
v 5.462733 -5.847542 -0.661956
v 4.330805 -5.847543 4.330807
v 4.330805 21.419796 4.330812
v 3.394661 21.419796 4.330815
v 3.394661 -5.847543 4.330810
v 3.394657 21.419796 3.394664
v 3.394657 -5.847543 3.394659
v 4.330809 21.419796 3.394668
v 4.330809 -5.847543 3.394663
v 0.000000 -5.847545 6.124681
v 0.000000 21.419792 6.124691
v -0.661956 21.419796 5.462741
v -0.661956 -5.847545 5.462732
v 0.000000 21.419796 4.800780
v 0.000000 -5.847545 4.800772
v 0.661956 21.419796 5.462741
v 0.661956 -5.847545 5.462732
v -4.330806 -5.847543 4.330808
v -4.330806 21.419796 4.330812
v -4.330810 21.419796 3.394668
v -4.330810 -5.847543 3.394663
v -3.394657 21.419796 3.394664
v -3.394657 -5.847543 3.394660
v -3.394661 21.419796 4.330816
v -3.394661 -5.847543 4.330810
v 0.000000 17.783096 0.000003
v 0.000000 17.783092 8.187613
v 5.789514 17.783096 5.789517
v 8.187610 17.783096 0.000003
v -8.187610 17.783096 0.000003
v -5.789514 17.783096 5.789517
v -5.789514 17.783096 -5.789511
v 0.000000 17.783100 -8.187607
v 5.789514 17.783096 -5.789511
v 0.000000 31.335852 0.000007
v -6.715284 27.623110 0.000007
v -4.748423 27.623110 4.748429
v 0.000000 27.623106 6.715289
v 6.715284 27.623110 0.000007
v 4.748423 27.623110 4.748429
v 4.748423 27.623110 -4.748418
v 0.000000 27.623114 -6.715278
v -4.748423 27.623110 -4.748418
v 4.748423 17.973633 4.748426
v 0.000000 16.205681 0.000003
v 6.715284 17.973633 0.000003
v 4.748423 17.973633 -4.748420
v 0.000000 17.973637 -6.715281
v 0.000000 -5.450478 1.282709
v 0.000000 -5.450478 -0.000001
v 1.282710 -5.450478 -0.000001
v -6.715284 17.973633 0.000003
v -4.748423 17.973633 4.748426
v -4.748423 17.973633 -4.748420
v 0.000000 17.973629 6.715287
v 0.000000 17.777195 1.282713
v 1.282710 17.777195 0.000003
v 0.000000 17.777195 0.000003
v -1.282710 17.777195 0.000003
v 0.000000 17.777195 -1.282707
v 0.000000 -5.450478 -1.282711
v -1.282710 -5.450478 -0.000001
v 0.000000 26.061817 -6.715279
v -4.748423 26.061811 -4.748418
v -4.748423 19.534929 4.748427
v 0.000000 19.534924 6.715288
v -6.715284 26.061815 0.000005
v -4.748423 26.061815 4.748428
v 0.000000 26.061810 6.715289
v 4.748423 26.061815 4.748428
v 4.748423 19.534929 -4.748419
v 0.000000 19.534935 -6.715280
v 6.715284 26.061815 0.000005
v 4.748423 26.061815 -4.748418
v -4.748423 19.534929 -4.748419
v -6.715284 19.534929 0.000003
v 4.748423 19.534929 4.748427
v 6.715284 19.534929 0.000003
v -8.239150 27.306362 0.000006
v -5.825960 27.306362 5.825965
v 0.000000 27.306358 8.239157
v 5.825960 27.306362 5.825965
v 5.825960 27.306362 -5.825953
v 0.000000 27.306366 -8.239143
v -5.825960 27.306362 -5.825953
v 8.239150 27.306362 0.000006
vt 0.257812 0.789062
vt 0.257812 0.789062
vt 0.257812 0.789062
vt 0.257812 0.789062
vt 0.257812 0.789062
vt 0.257812 0.789062
vt 0.257812 0.789062
vt 0.257812 0.789062
vt 0.257812 0.789062
vt 0.257812 0.789062
vt 0.257812 0.789062
vt 0.257812 0.789062
vt 0.257812 0.789062
vt 0.257812 0.789062
vt 0.257812 0.789062
vt 0.257812 0.789062
vt 0.257812 0.789062
vt 0.257812 0.789062
vt 0.257812 0.789062
vt 0.257812 0.789062
vt 0.257812 0.789062
vt 0.257812 0.789062
vt 0.257812 0.789062
vt 0.257812 0.789062
vt 0.257812 0.789062
vt 0.257812 0.789062
vt 0.257812 0.789062
vt 0.257812 0.789062
vt 0.257812 0.789062
vt 0.257812 0.789062
vt 0.257812 0.789062
vt 0.257812 0.789062
vt 0.257812 0.789062
vt 0.257812 0.789062
vt 0.257812 0.789062
vt 0.257812 0.789062
vt 0.257812 0.789062
vt 0.257812 0.789062
vt 0.257812 0.789062
vt 0.257812 0.789062
vt 0.257812 0.789062
vt 0.257812 0.789062
vt 0.257812 0.789062
vt 0.257812 0.789062
vt 0.257812 0.789062
vt 0.257812 0.789062
vt 0.257812 0.789062
vt 0.257812 0.789062
vt 0.257812 0.789062
vt 0.257812 0.789062
vt 0.257812 0.789062
vt 0.257812 0.789062
vt 0.257812 0.789062
vt 0.257812 0.789062
vt 0.257812 0.789062
vt 0.257812 0.789062
vt 0.257812 0.789062
vt 0.257812 0.789062
vt 0.257812 0.789062
vt 0.257812 0.789062
vt 0.257812 0.789062
vt 0.257812 0.789062
vt 0.257812 0.789062
vt 0.257812 0.789062
vt 0.257812 0.789062
vt 0.257812 0.789062
vt 0.257812 0.789062
vt 0.257812 0.789062
vt 0.257812 0.789062
vt 0.257812 0.789062
vt 0.257812 0.789062
vt 0.257812 0.789062
vt 0.257812 0.789062
vt 0.257812 0.789062
vt 0.257812 0.789062
vt 0.257812 0.789062
vt 0.257812 0.789062
vt 0.257812 0.789062
vt 0.257812 0.789062
vt 0.257812 0.789062
vt 0.257812 0.789062
vt 0.257812 0.789062
vt 0.257812 0.789062
vt 0.257812 0.789062
vt 0.257812 0.789062
vt 0.257812 0.789062
vt 0.257812 0.789062
vt 0.257812 0.789062
vt 0.257812 0.789062
vt 0.257812 0.789062
vt 0.257812 0.789062
vt 0.257812 0.789062
vt 0.257812 0.789062
vt 0.257812 0.789062
vt 0.257812 0.789062
vt 0.257812 0.789062
vt 0.257812 0.789062
vt 0.257812 0.789062
vt 0.257812 0.789062
vt 0.257812 0.789062
vt 0.257812 0.789062
vt 0.257812 0.804688
vt 0.257812 0.804688
vt 0.257812 0.804688
vt 0.257812 0.804688
vt 0.257812 0.804688
vt 0.257812 0.804688
vt 0.257812 0.804688
vt 0.257812 0.804688
vt 0.257812 0.804688
vt 0.257812 0.804688
vt 0.257812 0.804688
vt 0.257812 0.804688
vt 0.257812 0.804688
vt 0.257812 0.804688
vt 0.257812 0.804688
vt 0.257812 0.804688
vt 0.257812 0.804688
vt 0.257812 0.804688
vt 0.257812 0.804688
vt 0.257812 0.804688
vt 0.257812 0.804688
vt 0.257812 0.804688
vt 0.257812 0.804688
vt 0.257812 0.804688
vt 0.257812 0.804688
vt 0.257812 0.804688
vt 0.257812 0.804688
vt 0.257812 0.804688
vt 0.257812 0.804688
vt 0.257812 0.804688
vt 0.257812 0.804688
vt 0.257812 0.804688
vt 0.257812 0.789062
vt 0.257812 0.789062
vt 0.257812 0.789062
vt 0.257812 0.789062
vt 0.257812 0.789062
vt 0.257812 0.789062
vt 0.257812 0.789062
vt 0.257812 0.789062
vt 0.257812 0.789062
vt 0.257812 0.789062
vt 0.257812 0.789062
vt 0.257812 0.789062
vt 0.257812 0.789062
vt 0.257812 0.789062
vt 0.257812 0.789062
vt 0.257812 0.789062
vt 0.257812 0.789062
vt 0.257812 0.789062
vt 0.257812 0.789062
vt 0.257812 0.789062
vt 0.257812 0.789062
vt 0.257812 0.789062
vt 0.257812 0.789062
vt 0.257812 0.789062
vn -0.7071 0.0000 -0.7071
vn 0.7071 0.0000 -0.7071
vn 0.7071 -0.0000 0.7071
vn -0.7071 -0.0000 0.7071
vn 0.0000 1.0000 0.0000
vn -0.0000 0.0000 -1.0000
vn 1.0000 -0.0000 0.0000
vn 0.0000 -0.0000 1.0000
vn -1.0000 0.0000 -0.0000
vn -0.3421 0.8751 0.3421
vn 0.3421 0.8751 0.3421
vn 0.3421 0.8751 -0.3421
vn -0.3421 0.8751 -0.3421
vn 0.2532 -0.9617 0.1049
vn 0.1049 -0.9617 -0.2532
vn 0.0000 -1.0000 0.0000
vn -0.2532 -0.9617 0.1049
vn -0.2532 -0.9617 -0.1049
vn 0.2532 -0.9617 -0.1049
vn -0.1049 -0.9617 0.2532
vn 0.1049 -0.9617 0.2532
vn -0.1049 -0.9617 -0.2532
vn -0.6299 0.4544 -0.6299
vn -0.0001 0.4983 -0.8670
vn -0.5918 -0.5473 0.5918
vn -0.0000 -0.5472 0.8370
vn -0.6299 0.4544 0.6299
vn -0.8670 0.4983 -0.0001
vn 0.6299 0.4544 0.6299
vn -0.0000 0.4983 0.8670
vn 0.5918 -0.5473 -0.5918
vn -0.0000 -0.5472 -0.8370
vn 0.6299 0.4544 -0.6299
vn 0.8670 0.4983 -0.0000
vn -0.5918 -0.5473 -0.5918
vn -0.8370 -0.5472 -0.0000
vn 0.5918 -0.5473 0.5918
vn 0.8370 -0.5472 0.0000
vn -0.4393 0.8983 -0.0000
vn -0.3107 0.8983 0.3107
vn 0.0000 0.8983 0.4393
vn 0.3107 0.8983 0.3107
vn 0.3107 0.8983 -0.3107
vn 0.0000 0.8983 -0.4393
vn -0.3107 0.8983 -0.3107
vn 0.4393 0.8983 0.0000
s off
f 1/1/1 2/2/1 3/3/1 4/4/1
f 4/4/2 3/3/2 5/5/2 6/6/2
f 6/6/3 5/5/3 7/7/3 8/8/3
f 8/8/4 7/7/4 2/2/4 1/1/4
f 5/5/5 3/3/5 2/2/5 7/7/5
f 9/9/6 10/10/6 11/11/6 12/12/6
f 12/12/7 11/11/7 13/13/7 14/14/7
f 14/14/8 13/13/8 15/15/8 16/16/8
f 16/16/9 15/15/9 10/10/9 9/9/9
f 13/13/5 11/11/5 10/10/5 15/15/5
f 17/17/2 18/18/2 19/19/2 20/20/2
f 20/20/3 19/19/3 21/21/3 22/22/3
f 22/22/4 21/21/4 23/23/4 24/24/4
f 24/24/1 23/23/1 18/18/1 17/17/1
f 21/21/5 19/19/5 18/18/5 23/23/5
f 25/25/7 26/26/7 27/27/7 28/28/7
f 28/28/8 27/27/8 29/29/8 30/30/8
f 30/30/9 29/29/9 31/31/9 32/32/9
f 32/32/6 31/31/6 26/26/6 25/25/6
f 29/29/5 27/27/5 26/26/5 31/31/5
f 33/33/3 34/34/3 35/35/3 36/36/3
f 36/36/4 35/35/4 37/37/4 38/38/4
f 38/38/1 37/37/1 39/39/1 40/40/1
f 40/40/2 39/39/2 34/34/2 33/33/2
f 37/37/5 35/35/5 34/34/5 39/39/5
f 41/41/8 42/42/8 43/43/8 44/44/8
f 44/44/9 43/43/9 45/45/9 46/46/9
f 46/46/6 45/45/6 47/47/6 48/48/6
f 48/48/7 47/47/7 42/42/7 41/41/7
f 45/45/5 43/43/5 42/42/5 47/47/5
f 49/49/4 50/50/4 51/51/4 52/52/4
f 52/52/1 51/51/1 53/53/1 54/54/1
f 54/54/2 53/53/2 55/55/2 56/56/2
f 56/56/3 55/55/3 50/50/3 49/49/3
f 53/53/5 51/51/5 50/50/5 55/55/5
f 57/57/9 58/58/9 59/59/9 60/60/9
f 60/60/6 59/59/6 61/61/6 62/62/6
f 62/62/7 61/61/7 63/63/7 64/64/7
f 64/64/8 63/63/8 58/58/8 57/57/8
f 61/61/5 59/59/5 58/58/5 63/63/5
f 65/65/5 66/66/5 67/67/5 68/68/5
f 69/69/5 70/70/5 66/66/5 65/65/5
f 71/71/5 69/69/5 65/65/5 72/72/5
f 72/72/5 65/65/5 68/68/5 73/73/5
f 74/74/10 75/75/10 76/76/10 77/77/10
f 78/78/11 74/74/11 77/77/11 79/79/11
f 80/80/12 81/81/12 74/74/12 78/78/12
f 81/81/13 82/82/13 75/75/13 74/74/13
f 83/83/14 84/84/14 85/85/14
f 86/86/15 84/84/15 87/87/15
f 88/88/16 89/89/16 90/90/16
f 91/91/17 84/84/17 92/92/17
f 93/93/18 84/84/18 91/91/18
f 85/85/19 84/84/19 86/86/19
f 92/92/20 84/84/20 94/94/20
f 94/94/21 84/84/21 83/83/21
f 95/95/5 96/96/5 97/97/5
f 98/98/5 95/95/5 97/97/5
f 96/96/5 99/99/5 97/97/5
f 96/96/3 95/95/3 88/88/3 90/90/3
f 100/100/16 89/89/16 101/101/16
f 90/90/16 89/89/16 100/100/16
f 101/101/16 89/89/16 88/88/16
f 87/87/22 84/84/22 93/93/22
f 99/99/5 98/98/5 97/97/5
f 99/99/2 96/96/2 90/90/2 100/100/2
f 95/95/4 98/98/4 101/101/4 88/88/4
f 98/98/1 99/99/1 100/100/1 101/101/1
s 1
f 102/102/6 103/103/1 82/104/23 81/105/24
f 104/106/4 92/107/25 94/108/26 105/109/8
f 106/110/9 107/111/4 76/112/27 75/113/28
f 108/114/8 109/115/3 79/116/29 77/117/30
f 110/118/2 86/119/31 87/120/32 111/121/6
f 112/122/7 113/123/2 80/124/33 78/125/34
f 114/126/1 93/127/35 91/128/36 115/129/9
f 116/130/3 83/131/37 85/132/38 117/133/7
f 74/74/5 118/134/39 119/135/40
f 74/74/5 120/136/41 121/137/42
f 122/138/43 123/139/44 74/74/5
f 124/140/45 118/134/39 74/74/5
f 120/136/41 74/74/5 119/135/40
f 125/141/46 74/74/5 121/137/42
f 125/141/46 122/138/43 74/74/5
f 123/139/44 124/140/45 74/74/5
f 79/116/29 109/115/3 112/122/7 78/125/34
f 109/142/3 116/143/3 117/144/7 112/145/7
f 82/104/23 103/103/1 106/110/9 75/113/28
f 103/146/1 114/147/1 115/148/9 106/149/9
f 85/132/38 86/119/31 110/118/2 117/133/7
f 117/144/7 110/150/2 113/151/2 112/145/7
f 80/124/33 113/123/2 102/102/6 81/105/24
f 113/151/2 110/150/2 111/152/6 102/153/6
f 94/108/26 83/131/37 116/130/3 105/109/8
f 105/154/8 116/143/3 109/142/3 108/155/8
f 91/128/36 92/107/25 104/106/4 115/129/9
f 115/148/9 104/156/4 107/157/4 106/149/9
f 76/112/27 107/111/4 108/114/8 77/117/30
f 107/157/4 104/156/4 105/154/8 108/155/8
f 87/120/32 93/127/35 114/126/1 111/121/6
f 111/152/6 114/147/1 103/146/1 102/153/6
