# Blender v2.90.0 Alpha OBJ File: 'Ship.blend'
# www.blender.org
o Cube.002_Cube
v -0.541647 -0.025881 0.541647
v -0.291798 40.237625 0.291805
v -0.412665 40.237625 0.000007
v -0.766005 -0.025881 -0.000000
v -0.541647 -0.025881 -0.541647
v -0.291798 40.237625 -0.291791
v 0.000000 40.237625 -0.412658
v 0.000000 -0.025881 -0.766005
v 0.541647 -0.025881 -0.541647
v 0.291798 40.237625 -0.291791
v 0.412665 40.237625 0.000007
v 0.766005 -0.025881 -0.000000
v 0.541647 -0.025881 0.541647
v 0.291798 40.237625 0.291805
v 0.000000 40.237625 0.412672
v 0.000000 -0.025881 0.766005
v 0.000000 -0.025881 -0.000000
v 0.000000 40.237621 0.000007
v 0.000000 40.237625 0.561611
v -0.460375 39.777248 0.561616
v 0.000000 39.586559 0.561615
v 0.460375 39.777248 0.561616
v 0.460375 40.698002 0.561616
v 0.651069 40.237625 0.561616
v 0.000000 40.888695 0.561616
v -0.460375 40.698002 0.561616
v -0.651069 40.237625 0.561616
v 0.000000 40.237625 -4.868407
v 0.390492 39.847134 -4.868403
v 0.000000 39.685390 -4.868403
v -0.390492 39.847134 -4.868403
v 0.390492 40.628120 -4.868403
v 0.552239 40.237625 -4.868403
v 0.000000 40.789864 -4.868403
v -0.390492 40.628120 -4.868403
v -0.552239 40.237625 -4.868403
vt 0.054688 0.898438
vt 0.054688 0.898438
vt 0.054688 0.898438
vt 0.054688 0.898438
vt 0.054688 0.898438
vt 0.054688 0.898438
vt 0.054688 0.898438
vt 0.054688 0.898438
vt 0.054688 0.898438
vt 0.054688 0.898438
vt 0.054688 0.898438
vt 0.054688 0.898438
vt 0.054688 0.898438
vt 0.054688 0.898438
vt 0.054688 0.898438
vt 0.054688 0.898438
vt 0.054688 0.898438
vt 0.054688 0.898438
vt 0.054688 0.898438
vt 0.054688 0.898438
vt 0.054688 0.898438
vt 0.054688 0.898438
vt 0.054688 0.898438
vt 0.054688 0.898438
vt 0.054688 0.898438
vt 0.054688 0.898438
vt 0.054688 0.898438
vt 0.054688 0.898438
vt 0.054688 0.898438
vt 0.054688 0.898438
vt 0.054688 0.898438
vt 0.054688 0.898438
vt 0.054688 0.898438
vt 0.054688 0.898438
vt 0.054688 0.898438
vt 0.054688 0.898438
vn -0.7071 0.0088 0.7071
vn -1.0000 0.0088 0.0000
vn -0.7071 0.0088 -0.7071
vn 0.0000 0.0088 -1.0000
vn 0.7071 0.0088 -0.7071
vn 1.0000 0.0088 0.0000
vn 0.7071 0.0088 0.7071
vn 0.0000 0.0088 1.0000
vn 0.0000 -1.0000 -0.0000
vn 0.0000 1.0000 0.0000
vn -0.0000 -0.0000 1.0000
vn 0.0000 0.0000 -1.0000
vn 0.0000 -0.9998 -0.0182
vn 0.7070 -0.7070 -0.0182
vn 0.0000 0.9998 -0.0182
vn -0.7070 0.7070 -0.0182
vn 0.7070 0.7070 -0.0182
vn -0.9998 -0.0000 -0.0182
vn 0.9998 -0.0000 -0.0182
vn -0.7070 -0.7070 -0.0182
s 1
f 1/1/1 2/2/1 3/3/2 4/4/2
f 5/5/3 6/6/3 7/7/4 8/8/4
f 9/9/5 10/10/5 11/11/6 12/12/6
f 13/13/7 14/14/7 15/15/8 16/16/8
f 17/17/9 9/9/9 12/12/9 13/13/9
f 18/18/10 2/2/10 15/15/10 14/14/10
f 10/10/10 18/18/10 14/14/10 11/11/10
f 1/1/9 17/17/9 13/13/9 16/16/9
f 12/12/6 11/11/6 14/14/7 13/13/7
f 4/4/2 3/3/2 6/6/3 5/5/3
f 4/4/9 5/5/9 17/17/9 1/1/9
f 7/7/10 6/6/10 18/18/10 10/10/10
f 6/6/10 3/3/10 2/2/10 18/18/10
f 5/5/9 8/8/9 9/9/9 17/17/9
f 8/8/4 7/7/4 10/10/5 9/9/5
f 16/16/8 15/15/8 2/2/1 1/1/1
f 19/19/11 20/20/11 21/21/11 22/22/11
f 23/23/11 19/19/11 22/22/11 24/24/11
f 25/25/11 26/26/11 19/19/11 23/23/11
f 26/26/11 27/27/11 20/20/11 19/19/11
f 28/28/12 29/29/12 30/30/12 31/31/12
f 32/32/12 33/33/12 29/29/12 28/28/12
f 34/34/12 32/32/12 28/28/12 35/35/12
f 35/35/12 28/28/12 31/31/12 36/36/12
f 21/21/13 30/30/13 29/29/14 22/22/14
f 25/25/15 34/34/15 35/35/16 26/26/16
f 23/23/17 32/32/17 34/34/15 25/25/15
f 26/26/16 35/35/16 36/36/18 27/27/18
f 24/24/19 33/33/19 32/32/17 23/23/17
f 27/27/18 36/36/18 31/31/20 20/20/20
f 20/20/20 31/31/20 30/30/13 21/21/13
f 22/22/14 29/29/14 33/33/19 24/24/19
o Cube.002_Cube.001
v -0.698387 46.688873 0.531169
v 0.847114 54.689266 0.093184
v 0.686172 46.690182 0.531169
v 0.742609 44.715031 0.542330
v 12.115669 32.325134 0.117688
v 0.434512 40.080414 0.220010
v 2.477122 39.500900 0.436423
v 4.218477 38.641106 -0.372688
v 3.506240 37.355812 0.542328
v -5.906679 37.599056 -0.379020
v -12.939401 33.750744 0.147253
v -0.434217 40.079597 0.220010
v -2.475723 39.496212 0.436423
v -3.500778 37.349182 0.542329
v 0.668272 46.672249 -0.379017
v 0.080248 40.692688 0.220010
v -0.600537 42.751244 0.436425
v 0.572640 42.729202 -0.249670
v 0.595775 42.752380 0.436424
v -0.751081 44.713615 0.542331
v 0.718185 44.690563 -0.372687
v 5.911670 37.610245 -0.379019
v 5.936134 37.616829 0.531166
v 5.244989 36.417110 0.531165
v 2.445499 39.492397 -0.249671
v 1.879948 38.464298 0.436423
v 4.251860 38.650089 0.542329
v -5.237748 36.407188 0.531166
v -5.931160 37.605595 0.531165
v -1.876586 38.460743 0.436423
v -2.444084 39.487766 -0.249671
v -4.248849 38.642044 0.542328
v -4.215446 38.633133 -0.372688
v 6.451252 40.936008 0.531168
v 14.451645 39.390507 0.093182
v 6.452560 39.551449 0.531168
v 4.477409 39.495010 0.542330
v -7.912487 28.121952 0.117688
v -0.157208 39.803108 0.220009
v -0.736721 37.760498 0.436423
v -1.596516 36.019146 -0.372688
v -2.881809 36.731380 0.542328
v -2.638565 46.144302 -0.379019
v -6.486877 53.177021 0.147256
v -0.158024 40.671837 0.220010
v -0.741409 42.713345 0.436424
v -2.888439 43.738400 0.542330
v 6.434628 39.569347 -0.379018
v 0.455067 40.157375 0.220010
v 2.513622 40.838158 0.436424
v 2.491581 39.664982 -0.249670
v 2.514759 39.641846 0.436423
v 4.475994 40.988701 0.542331
v 4.452942 39.519436 -0.372688
v -2.627377 34.325951 -0.379019
v -2.620793 34.301487 0.531165
v -3.820511 34.992634 0.531164
v -0.745224 37.792122 -0.249671
v -1.773323 38.357674 0.436423
v -1.587533 35.985760 0.542329
v -3.830433 45.475368 0.531167
v -2.632026 46.168781 0.531166
v -1.776878 42.114208 0.436424
v -0.749855 42.681705 -0.249670
v -1.595577 44.486469 0.542329
v -1.604488 44.453068 -0.372687
v 0.698387 33.786369 0.531167
v -0.847116 25.785976 0.093180
v -0.686173 33.785061 0.531167
v -0.742611 35.760212 0.542329
v -12.115669 48.150108 0.117690
v -0.434513 40.394829 0.220009
v -2.477123 40.974342 0.436423
v -4.218475 41.834137 -0.372687
v -3.506241 43.119431 0.542328
v 5.906681 42.876186 -0.379019
v 12.939400 46.724499 0.147255
v 0.434215 40.395645 0.220009
v 2.475723 40.979031 0.436423
v 3.500778 43.126060 0.542329
v -0.668274 33.802994 -0.379019
v -0.080246 39.782555 0.220010
v 0.600536 37.723999 0.436424
v -0.572640 37.746040 -0.249671
v -0.595776 37.722862 0.436423
v 0.751079 35.761627 0.542330
v -0.718185 35.784679 -0.372688
v -5.911671 42.864998 -0.379018
v -5.936134 42.858414 0.531166
v -5.244987 44.058132 0.531165
v -2.445499 40.982845 -0.249671
v -1.879948 42.010944 0.436423
v -4.251862 41.825153 0.542329
v 5.237747 44.068054 0.531166
v 5.931160 42.869648 0.531165
v 1.876587 42.014500 0.436423
v 2.444084 40.987476 -0.249671
v 4.248848 41.833199 0.542328
v 4.215446 41.842110 -0.372687
v -6.451252 39.539234 0.531167
v -14.451645 41.084736 0.093181
v -6.452560 40.923794 0.531167
v -4.477409 40.980232 0.542329
v 7.912487 52.353291 0.117690
v 0.157207 40.672134 0.220009
v 0.736721 42.714745 0.436423
v 1.596516 44.456097 -0.372687
v 2.881809 43.743862 0.542328
v 2.638565 34.330940 -0.379021
v 6.486877 27.298222 0.147252
v 0.158024 39.803406 0.220009
v 0.741409 37.761898 0.436423
v 2.888439 36.736843 0.542328
v -6.434628 40.905895 -0.379019
v -0.455067 40.317867 0.220009
v -2.513622 39.637085 0.436424
v -2.491581 40.810261 -0.249671
v -2.514759 40.833397 0.436423
v -4.475994 39.486542 0.542330
v -4.452942 40.955807 -0.372688
v 2.627377 46.149292 -0.379018
v 2.620792 46.173756 0.531166
v 3.820511 45.482609 0.531165
v 0.745224 42.683121 -0.249670
v 1.773323 42.117569 0.436423
v 1.587532 44.489483 0.542329
v 3.830433 34.999874 0.531165
v 2.632026 34.306461 0.531164
v 1.776878 38.361034 0.436423
v 0.749855 37.793537 -0.249671
v 1.595577 35.988773 0.542327
v 1.604488 36.022175 -0.372688
vt 0.148438 0.570312
vt 0.148438 0.570312
vt 0.148438 0.570312
vt 0.148438 0.570312
vt 0.148438 0.570312
vt 0.148438 0.570312
vt 0.148438 0.570312
vt 0.148438 0.570312
vt 0.148438 0.570312
vt 0.148438 0.570312
vt 0.148438 0.570312
vt 0.148438 0.570312
vt 0.148438 0.570312
vt 0.148438 0.570312
vt 0.148438 0.570312
vt 0.148438 0.570312
vt 0.148438 0.570312
vt 0.148438 0.570312
vt 0.148438 0.570312
vt 0.148438 0.570312
vt 0.148438 0.570312
vt 0.148438 0.570312
vt 0.148438 0.570312
vt 0.148438 0.570312
vt 0.148438 0.570312
vt 0.148438 0.570312
vt 0.148438 0.570312
vt 0.148438 0.570312
vt 0.148438 0.570312
vt 0.148438 0.570312
vt 0.148438 0.570312
vt 0.148438 0.570312
vt 0.148438 0.570312
vt 0.164062 0.570312
vt 0.164062 0.570312
vt 0.164062 0.570312
vt 0.164062 0.570312
vt 0.164062 0.570312
vt 0.164062 0.570312
vt 0.164062 0.570312
vt 0.164062 0.570312
vt 0.164062 0.570312
vt 0.164062 0.570312
vt 0.164062 0.570312
vt 0.164062 0.570312
vt 0.164062 0.570312
vt 0.164062 0.570312
vt 0.164062 0.570312
vt 0.164062 0.570312
vt 0.164062 0.570312
vt 0.164062 0.570312
vt 0.164062 0.570312
vt 0.164062 0.570312
vt 0.164062 0.570312
vt 0.164062 0.570312
vt 0.164062 0.570312
vt 0.164062 0.570312
vt 0.164062 0.570312
vt 0.164062 0.570312
vt 0.164062 0.570312
vt 0.164062 0.570312
vt 0.164062 0.570312
vt 0.164062 0.570312
vt 0.164062 0.570312
vt 0.164062 0.570312
vt 0.164062 0.570312
vt 0.179688 0.570312
vt 0.179688 0.570312
vt 0.179688 0.570312
vt 0.179688 0.570312
vt 0.179688 0.570312
vt 0.179688 0.570312
vt 0.179688 0.570312
vt 0.179688 0.570312
vt 0.179688 0.570312
vt 0.179688 0.570312
vt 0.179688 0.570312
vt 0.179688 0.570312
vt 0.179688 0.570312
vt 0.179688 0.570312
vt 0.179688 0.570312
vt 0.179688 0.570312
vt 0.179688 0.570312
vt 0.179688 0.570312
vt 0.179688 0.570312
vt 0.179688 0.570312
vt 0.179688 0.570312
vt 0.179688 0.570312
vt 0.179688 0.570312
vt 0.179688 0.570312
vt 0.179688 0.570312
vt 0.179688 0.570312
vt 0.179688 0.570312
vt 0.179688 0.570312
vt 0.179688 0.570312
vt 0.179688 0.570312
vt 0.179688 0.570312
vt 0.179688 0.570312
vt 0.179688 0.570312
vt 0.195312 0.570312
vt 0.195312 0.570312
vt 0.195312 0.570312
vt 0.195312 0.570312
vt 0.195312 0.570312
vt 0.195312 0.570312
vt 0.195312 0.570312
vt 0.195312 0.570312
vt 0.195312 0.570312
vt 0.195312 0.570312
vt 0.195312 0.570312
vt 0.195312 0.570312
vt 0.195312 0.570312
vt 0.195312 0.570312
vt 0.195312 0.570312
vt 0.195312 0.570312
vt 0.195312 0.570312
vt 0.195312 0.570312
vt 0.195312 0.570312
vt 0.195312 0.570312
vt 0.195312 0.570312
vt 0.195312 0.570312
vt 0.195312 0.570312
vt 0.195312 0.570312
vt 0.195312 0.570312
vt 0.195312 0.570312
vt 0.195312 0.570312
vt 0.195312 0.570312
vt 0.195312 0.570312
vt 0.195312 0.570312
vt 0.195312 0.570312
vt 0.195312 0.570312
vt 0.195312 0.570312
vn 0.9994 -0.0310 -0.0144
vn -0.6535 0.0621 -0.7544
vn -0.6535 0.0629 -0.7543
vn 0.0007 0.0367 0.9993
vn -0.0000 0.0057 1.0000
vn -0.5412 -0.0033 -0.8409
vn 0.9994 0.0268 -0.0238
vn 0.9969 -0.0744 -0.0274
vn 0.0001 -0.0539 0.9985
vn 0.6432 0.7655 -0.0171
vn 0.3580 0.9328 -0.0415
vn -0.0006 0.0003 1.0000
vn -0.3115 -0.5321 -0.7873
vn 0.0317 -0.0186 0.9993
vn 0.0049 -0.0028 1.0000
vn -0.2726 -0.4676 -0.8409
vn 0.5212 0.8531 -0.0238
vn 0.4323 0.9013 -0.0274
vn -0.2621 -0.4471 -0.8552
vn -0.0467 0.0269 0.9985
vn 0.2585 -0.5763 -0.7753
vn -0.4728 0.8810 -0.0144
vn 0.3125 -0.5315 -0.7873
vn 0.0006 0.0003 1.0000
vn -0.3597 0.9321 -0.0415
vn -0.0317 -0.0189 0.9993
vn -0.0049 -0.0028 1.0000
vn -0.5229 0.8521 -0.0238
vn 0.2735 -0.4670 -0.8409
vn 0.2629 -0.4466 -0.8552
vn -0.4340 0.9005 -0.0274
vn 0.0466 0.0270 0.9985
vn -0.6165 -0.0049 -0.7873
vn 0.0000 -0.0006 1.0000
vn 0.9871 -0.1545 -0.0415
vn -0.5183 -0.0044 -0.8552
vn -0.3723 -0.5116 -0.7744
vn -0.0310 -0.9994 -0.0143
vn 0.0621 0.6535 -0.7544
vn 0.0629 0.6535 -0.7543
vn 0.0367 -0.0007 0.9993
vn 0.0057 0.0000 1.0000
vn -0.0033 0.5412 -0.8409
vn 0.0268 -0.9994 -0.0238
vn -0.0744 -0.9969 -0.0274
vn -0.0539 -0.0001 0.9985
vn 0.7655 -0.6432 -0.0171
vn 0.9328 -0.3580 -0.0415
vn 0.0003 0.0006 1.0000
vn -0.5321 0.3115 -0.7873
vn -0.0186 -0.0317 0.9993
vn -0.0028 -0.0049 1.0000
vn -0.4676 0.2726 -0.8409
vn 0.8531 -0.5212 -0.0238
vn 0.9013 -0.4323 -0.0274
vn -0.4471 0.2621 -0.8552
vn 0.0269 0.0467 0.9985
vn -0.5763 -0.2585 -0.7753
vn 0.8810 0.4728 -0.0144
vn -0.5315 -0.3125 -0.7873
vn 0.0003 -0.0006 1.0000
vn 0.0003 -0.0005 1.0000
vn 0.9321 0.3597 -0.0415
vn -0.0189 0.0317 0.9993
vn -0.0028 0.0049 1.0000
vn 0.8521 0.5229 -0.0238
vn -0.4671 -0.2735 -0.8409
vn -0.4466 -0.2629 -0.8552
vn 0.9005 0.4340 -0.0274
vn 0.0270 -0.0466 0.9985
vn -0.0049 0.6165 -0.7873
vn -0.0006 -0.0000 1.0000
vn -0.1545 -0.9871 -0.0415
vn -0.0044 0.5183 -0.8552
vn -0.5116 0.3723 -0.7744
vn -0.9994 0.0310 -0.0143
vn 0.6535 -0.0621 -0.7544
vn 0.6535 -0.0629 -0.7543
vn -0.0007 -0.0367 0.9993
vn 0.0000 -0.0057 1.0000
vn 0.5412 0.0033 -0.8409
vn -0.9994 -0.0268 -0.0238
vn -0.9969 0.0744 -0.0274
vn -0.0001 0.0539 0.9985
vn -0.6432 -0.7655 -0.0171
vn -0.3580 -0.9328 -0.0415
vn 0.0006 -0.0003 1.0000
vn 0.0005 -0.0003 1.0000
vn 0.3115 0.5321 -0.7873
vn -0.0317 0.0186 0.9993
vn -0.0049 0.0028 1.0000
vn 0.2726 0.4676 -0.8409
vn -0.5212 -0.8531 -0.0238
vn -0.4323 -0.9013 -0.0274
vn 0.2621 0.4471 -0.8552
vn 0.0467 -0.0269 0.9985
vn -0.2585 0.5763 -0.7753
vn 0.4728 -0.8810 -0.0144
vn -0.3125 0.5315 -0.7873
vn -0.0006 -0.0003 1.0000
vn -0.0005 -0.0003 1.0000
vn 0.3597 -0.9321 -0.0415
vn 0.0317 0.0189 0.9993
vn 0.0049 0.0028 1.0000
vn 0.5229 -0.8521 -0.0238
vn -0.2735 0.4670 -0.8409
vn -0.2629 0.4466 -0.8552
vn 0.4340 -0.9005 -0.0274
vn -0.0466 -0.0270 0.9985
vn 0.6165 0.0049 -0.7873
vn -0.0000 0.0006 1.0000
vn -0.9871 0.1545 -0.0415
vn 0.5183 0.0044 -0.8552
vn 0.3723 0.5116 -0.7744
vn 0.0310 0.9994 -0.0144
vn -0.0621 -0.6535 -0.7544
vn -0.0629 -0.6535 -0.7543
vn -0.0367 0.0007 0.9993
vn -0.0057 -0.0000 1.0000
vn 0.0033 -0.5412 -0.8409
vn -0.0268 0.9994 -0.0238
vn 0.0744 0.9969 -0.0274
vn 0.0539 0.0001 0.9985
vn -0.7655 0.6432 -0.0171
vn -0.9328 0.3580 -0.0415
vn -0.0003 -0.0006 1.0000
vn 0.5321 -0.3115 -0.7873
vn 0.0186 0.0317 0.9993
vn 0.0028 0.0049 1.0000
vn 0.4676 -0.2726 -0.8409
vn -0.8531 0.5212 -0.0238
vn -0.9013 0.4323 -0.0274
vn 0.4471 -0.2621 -0.8552
vn -0.0269 -0.0467 0.9985
vn 0.5763 0.2585 -0.7753
vn -0.8810 -0.4728 -0.0144
vn 0.5315 0.3125 -0.7873
vn -0.0003 0.0006 1.0000
vn -0.0003 0.0005 1.0000
vn -0.9321 -0.3597 -0.0415
vn 0.0189 -0.0317 0.9993
vn 0.0028 -0.0049 1.0000
vn -0.8521 -0.5229 -0.0238
vn 0.4670 0.2735 -0.8409
vn 0.4466 0.2629 -0.8552
vn -0.9005 -0.4340 -0.0274
vn -0.0270 0.0466 0.9985
vn 0.0049 -0.6165 -0.7873
vn 0.0006 0.0000 1.0000
vn 0.1545 0.9871 -0.0415
vn 0.0044 -0.5183 -0.8552
vn 0.5116 -0.3723 -0.7744
s 1
f 39/37/21 51/38/21 38/39/21
f 51/38/22 37/40/23 38/39/23
f 37/40/24 39/37/24 38/39/24
f 56/41/25 40/42/25 39/37/25 37/40/25
f 57/43/26 56/41/26 37/40/26 51/38/26
f 40/42/27 57/43/27 51/38/27 39/37/27
f 55/44/28 54/45/28 57/43/28 40/42/28
f 53/46/29 55/44/29 40/42/29 56/41/29
f 58/47/30 59/48/30 41/49/30
f 42/50/31 43/51/31 61/52/31
f 42/50/32 62/53/32 43/51/32
f 42/50/33 61/52/33 62/53/33
f 59/48/34 60/54/34 41/49/34
f 63/55/35 45/56/35 60/54/35 59/48/35
f 45/56/36 44/57/36 58/47/36 60/54/36
f 44/57/37 63/55/37 59/48/37 58/47/37
f 61/52/38 43/51/38 63/55/38 44/57/38
f 62/53/39 61/52/39 44/57/39 45/56/39
f 43/51/40 62/53/40 45/56/40 63/55/40
f 46/58/41 64/59/41 47/60/41
f 65/61/42 46/58/42 47/60/42
f 48/62/43 66/63/43 67/64/43
f 48/62/44 49/65/44 66/63/44
f 48/62/45 67/64/45 49/65/45
f 64/59/46 65/61/46 47/60/46
f 50/66/47 68/67/47 65/61/47 64/59/47
f 68/67/48 69/68/48 46/58/48 65/61/48
f 69/68/49 50/66/49 64/59/49 46/58/49
f 67/64/50 66/63/50 50/66/50 69/68/50
f 49/65/51 67/64/51 69/68/51 68/67/51
f 66/63/52 49/65/52 68/67/52 50/66/52
f 52/69/53 53/46/53 54/45/53
f 52/69/54 55/44/54 53/46/54
f 52/69/55 54/45/55 55/44/55
f 54/45/56 53/46/56 56/41/56 57/43/56
f 60/54/57 58/47/57 41/49/57
f 72/70/58 84/71/58 71/72/58
f 84/71/59 70/73/60 71/72/60
f 70/73/61 72/70/61 71/72/61
f 89/74/62 73/75/62 72/70/62 70/73/62
f 90/76/63 89/74/63 70/73/63 84/71/63
f 73/75/64 90/76/64 84/71/64 72/70/64
f 88/77/65 87/78/65 90/76/65 73/75/65
f 86/79/66 88/77/66 73/75/66 89/74/66
f 91/80/67 92/81/67 74/82/67
f 75/83/68 76/84/68 94/85/68
f 75/83/69 95/86/69 76/84/69
f 75/83/70 94/85/70 95/86/70
f 92/81/71 93/87/71 74/82/71
f 96/88/72 78/89/72 93/87/72 92/81/72
f 78/89/73 77/90/73 91/80/73 93/87/73
f 77/90/74 96/88/74 92/81/74 91/80/74
f 94/85/75 76/84/75 96/88/75 77/90/75
f 95/86/76 94/85/76 77/90/76 78/89/76
f 76/84/77 95/86/77 78/89/77 96/88/77
f 79/91/78 97/92/78 80/93/78
f 98/94/79 79/91/79 80/93/79
f 81/95/80 99/96/80 100/97/80
f 81/95/81 82/98/81 99/96/82
f 81/95/83 100/97/83 82/98/83
f 97/92/84 98/94/84 80/93/84
f 83/99/85 101/100/85 98/94/85 97/92/85
f 101/100/86 102/101/86 79/91/86 98/94/86
f 102/101/87 83/99/87 97/92/87 79/91/87
f 100/97/88 99/96/88 83/99/88 102/101/88
f 82/98/89 100/97/89 102/101/89 101/100/89
f 99/96/90 82/98/90 101/100/90 83/99/90
f 85/102/91 86/79/91 87/78/91
f 85/102/92 88/77/92 86/79/92
f 85/102/93 87/78/93 88/77/93
f 87/78/94 86/79/94 89/74/94 90/76/94
f 93/87/95 91/80/95 74/82/95
f 105/103/96 117/104/96 104/105/96
f 117/104/97 103/106/98 104/105/98
f 103/106/99 105/103/99 104/105/99
f 122/107/100 106/108/100 105/103/100 103/106/100
f 123/109/101 122/107/101 103/106/101 117/104/101
f 106/108/102 123/109/102 117/104/102 105/103/102
f 121/110/103 120/111/103 123/109/103 106/108/103
f 119/112/104 121/110/104 106/108/104 122/107/104
f 124/113/105 125/114/105 107/115/105
f 108/116/106 109/117/106 127/118/106
f 108/116/107 128/119/108 109/117/108
f 108/116/109 127/118/109 128/119/109
f 125/114/110 126/120/110 107/115/110
f 129/121/111 111/122/111 126/120/111 125/114/111
f 111/122/112 110/123/112 124/113/112 126/120/112
f 110/123/113 129/121/113 125/114/113 124/113/113
f 127/118/114 109/117/114 129/121/114 110/123/114
f 128/119/115 127/118/115 110/123/115 111/122/115
f 109/117/116 128/119/116 111/122/116 129/121/116
f 112/124/117 130/125/117 113/126/117
f 131/127/118 112/124/118 113/126/118
f 114/128/119 132/129/119 133/130/119
f 114/128/120 115/131/121 132/129/121
f 114/128/122 133/130/122 115/131/122
f 130/125/123 131/127/123 113/126/123
f 116/132/124 134/133/124 131/127/124 130/125/124
f 134/133/125 135/134/125 112/124/125 131/127/125
f 135/134/126 116/132/126 130/125/126 112/124/126
f 133/130/127 132/129/127 116/132/127 135/134/127
f 115/131/128 133/130/128 135/134/128 134/133/128
f 132/129/129 115/131/129 134/133/129 116/132/129
f 118/135/130 119/112/130 120/111/130
f 118/135/131 121/110/131 119/112/131
f 118/135/132 120/111/132 121/110/132
f 120/111/133 119/112/133 122/107/133 123/109/133
f 126/120/134 124/113/134 107/115/134
f 138/136/135 150/137/135 137/138/135
f 150/137/136 136/139/137 137/138/137
f 136/139/138 138/136/138 137/138/138
f 155/140/139 139/141/139 138/136/139 136/139/139
f 156/142/140 155/140/140 136/139/140 150/137/140
f 139/141/141 156/142/141 150/137/141 138/136/141
f 154/143/142 153/144/142 156/142/142 139/141/142
f 152/145/143 154/143/143 139/141/143 155/140/143
f 157/146/144 158/147/144 140/148/144
f 141/149/145 142/150/145 160/151/145
f 141/149/146 161/152/146 142/150/146
f 141/149/147 160/151/147 161/152/147
f 158/147/148 159/153/148 140/148/148
f 162/154/149 144/155/149 159/153/149 158/147/149
f 144/155/150 143/156/150 157/146/150 159/153/150
f 143/156/151 162/154/151 158/147/151 157/146/151
f 160/151/152 142/150/152 162/154/152 143/156/152
f 161/152/153 160/151/153 143/156/153 144/155/153
f 142/150/154 161/152/154 144/155/154 162/154/154
f 145/157/155 163/158/155 146/159/155
f 164/160/156 145/157/156 146/159/156
f 147/161/157 165/162/157 166/163/157
f 147/161/158 148/164/159 165/162/159
f 147/161/160 166/163/160 148/164/160
f 163/158/161 164/160/161 146/159/161
f 149/165/162 167/166/162 164/160/162 163/158/162
f 167/166/163 168/167/163 145/157/163 164/160/163
f 168/167/164 149/165/164 163/158/164 145/157/164
f 166/163/165 165/162/165 149/165/165 168/167/165
f 148/164/166 166/163/166 168/167/166 167/166/166
f 165/162/167 148/164/167 167/166/167 149/165/167
f 151/168/168 152/145/168 153/144/168
f 151/168/169 154/143/169 152/145/169
f 151/168/170 153/144/170 154/143/170
f 153/144/171 152/145/171 155/140/171 156/142/171
f 159/153/172 157/146/172 140/148/172
