# Blender v2.90.0 Alpha OBJ File: 'Decos.blend'
# www.blender.org
o balcony.047
v 2.515319 -0.078372 0.662477
v 2.515319 3.794283 0.662479
v 2.224304 3.794283 0.371465
v 2.224304 -0.078372 0.371463
v 2.806334 -0.078372 0.371463
v 2.806334 3.794283 0.371465
v -2.535216 -0.078372 0.662477
v -2.535216 3.794283 0.662479
v -2.826231 3.794283 0.371465
v -2.826231 -0.078372 0.371463
v -2.244201 -0.078372 0.371463
v -2.244201 3.794283 0.371465
v 2.515319 7.666939 0.662479
v 2.224304 7.666939 0.371465
v 2.806334 7.666939 0.371465
v -2.535216 7.666939 0.662479
v -2.826231 7.666939 0.371465
v -2.244201 7.666939 0.371465
v 2.515319 11.539594 0.662481
v 2.224304 11.539594 0.371467
v 2.806334 11.539594 0.371467
v -2.535216 11.539594 0.662481
v -2.826231 11.539594 0.371467
v -2.244201 11.539594 0.371467
v 2.515319 15.412249 0.662483
v 2.224304 15.412249 0.371469
v 2.806334 15.412249 0.371469
v -2.535216 15.412249 0.662483
v -2.826231 15.412249 0.371469
v -2.244201 15.412249 0.371469
v 2.229565 3.794283 0.371465
v -2.229565 3.794283 0.371465
v -2.012202 3.174238 0.371465
v 2.043354 3.174238 0.371465
v -2.229565 -0.078372 0.371463
v 2.229565 -0.078372 0.371463
v 2.043354 0.115699 0.371463
v -2.012202 0.115699 0.371463
v -2.012202 0.115699 0.353663
v -2.012202 0.880334 0.353663
v 2.043354 0.880334 0.353663
v 2.043354 0.115699 0.353663
v -2.012202 0.115699 0.320275
v 2.043354 0.115699 0.320275
v 2.043354 3.174238 0.320276
v -2.012202 3.174238 0.320276
v -1.911896 0.191346 0.313745
v -1.911896 3.098591 0.313745
v 1.943048 3.098591 0.313745
v 1.943048 0.191346 0.313745
v -1.945799 0.146986 0.353663
v 1.976951 0.146986 0.353663
v 1.976951 0.849047 0.353663
v -1.945799 0.849047 0.353663
v 2.229565 7.666939 0.371465
v -2.229565 7.666939 0.371465
v -2.012202 7.046894 0.371465
v 2.043354 7.046894 0.371465
v 2.043354 3.988354 0.371465
v -2.012202 3.988354 0.371465
v -2.012202 3.988354 0.353665
v -2.012202 4.752989 0.353665
v 2.043354 4.752989 0.353665
v 2.043354 3.988354 0.353665
v -2.012202 3.988354 0.320277
v 2.043354 3.988354 0.320277
v 2.043354 7.046894 0.320277
v -2.012202 7.046894 0.320277
v -1.911896 4.064002 0.313747
v -1.911896 6.971246 0.313747
v 1.943048 6.971246 0.313747
v 1.943048 4.064002 0.313747
v -1.945799 4.019641 0.353665
v 1.976951 4.019641 0.353665
v 1.976951 4.721703 0.353665
v -1.945799 4.721703 0.353665
v 2.229565 11.539595 0.371467
v -2.229565 11.539595 0.371467
v -2.012202 10.919549 0.371467
v 2.043354 10.919549 0.371467
v 2.043354 7.861010 0.371465
v -2.012202 7.861010 0.371465
v -2.012202 7.861010 0.353665
v -2.012202 8.625645 0.353665
v 2.043354 8.625645 0.353665
v 2.043354 7.861010 0.353665
v -2.012202 7.861010 0.320277
v 2.043354 7.861010 0.320277
v 2.043354 10.919549 0.320279
v -2.012202 10.919549 0.320279
v -1.911896 7.936657 0.313747
v -1.911896 10.843902 0.313749
v 1.943048 10.843902 0.313749
v 1.943048 7.936657 0.313747
v -1.945799 7.892296 0.353665
v 1.976951 7.892296 0.353665
v 1.976951 8.594358 0.353665
v -1.945799 8.594358 0.353665
v 2.229565 15.412249 0.371469
v -2.229565 15.412249 0.371469
v -2.012202 14.792204 0.371467
v 2.043354 14.792204 0.371467
v 2.043354 11.733665 0.371467
v -2.012202 11.733665 0.371467
v -2.012202 11.733665 0.353667
v -2.012202 12.498300 0.353667
v 2.043354 12.498300 0.353667
v 2.043354 11.733665 0.353667
v -2.012202 11.733665 0.320279
v 2.043354 11.733665 0.320279
v 2.043354 14.792204 0.320279
v -2.012202 14.792204 0.320279
v -1.911896 11.809312 0.313749
v -1.911896 14.716557 0.313749
v 1.943048 14.716557 0.313749
v 1.943048 11.809312 0.313749
v -1.945799 11.764952 0.353667
v 1.976951 11.764952 0.353667
v 1.976951 12.467013 0.353667
v -1.945799 12.467013 0.353667
vt 0.257812 0.804688
vt 0.257812 0.804688
vt 0.257812 0.804688
vt 0.257812 0.804688
vt 0.242188 0.804688
vt 0.242188 0.804688
vt 0.242188 0.804688
vt 0.242188 0.804688
vt 0.257812 0.804688
vt 0.257812 0.804688
vt 0.257812 0.804688
vt 0.257812 0.804688
vt 0.242188 0.804688
vt 0.242188 0.804688
vt 0.242188 0.804688
vt 0.242188 0.804688
vt 0.257812 0.804688
vt 0.257812 0.804688
vt 0.242188 0.804688
vt 0.242188 0.804688
vt 0.257812 0.804688
vt 0.257812 0.804688
vt 0.242188 0.804688
vt 0.242188 0.804688
vt 0.257812 0.804688
vt 0.257812 0.804688
vt 0.242188 0.804688
vt 0.242188 0.804688
vt 0.257812 0.804688
vt 0.257812 0.804688
vt 0.242188 0.804688
vt 0.242188 0.804688
vt 0.257812 0.804688
vt 0.257812 0.804688
vt 0.242188 0.804688
vt 0.242188 0.804688
vt 0.257812 0.804688
vt 0.257812 0.804688
vt 0.242188 0.804688
vt 0.242188 0.804688
vt 0.164062 0.804688
vt 0.164062 0.804688
vt 0.164062 0.804688
vt 0.164062 0.804688
vt 0.164062 0.804688
vt 0.164062 0.804688
vt 0.164062 0.804688
vt 0.164062 0.804688
vt 0.210938 0.804688
vt 0.210938 0.804688
vt 0.210938 0.804688
vt 0.210938 0.804688
vt 0.226562 0.789062
vt 0.226562 0.789062
vt 0.226562 0.789062
vt 0.226562 0.789062
vt 0.226562 0.789062
vt 0.226562 0.789062
vt 0.226562 0.789062
vt 0.226562 0.789062
vt 0.226562 0.789062
vt 0.226562 0.789062
vt 0.226562 0.789062
vt 0.226562 0.789062
vt 0.210938 0.804688
vt 0.210938 0.804688
vt 0.210938 0.804688
vt 0.210938 0.804688
vt 0.257812 0.851562
vt 0.257812 0.851562
vt 0.257812 0.851562
vt 0.257812 0.851562
vt 0.257812 0.851562
vt 0.257812 0.851562
vt 0.257812 0.851562
vt 0.257812 0.851562
vt 0.164062 0.804688
vt 0.164062 0.804688
vt 0.164062 0.804688
vt 0.164062 0.804688
vt 0.164062 0.804688
vt 0.164062 0.804688
vt 0.210938 0.804688
vt 0.210938 0.804688
vt 0.210938 0.804688
vt 0.210938 0.804688
vt 0.226562 0.789062
vt 0.226562 0.789062
vt 0.226562 0.789062
vt 0.226562 0.789062
vt 0.226562 0.789062
vt 0.226562 0.789062
vt 0.226562 0.789062
vt 0.226562 0.789062
vt 0.226562 0.789062
vt 0.226562 0.789062
vt 0.226562 0.789062
vt 0.226562 0.789062
vt 0.210938 0.804688
vt 0.210938 0.804688
vt 0.210938 0.804688
vt 0.210938 0.804688
vt 0.257812 0.851562
vt 0.257812 0.851562
vt 0.257812 0.851562
vt 0.257812 0.851562
vt 0.257812 0.851562
vt 0.257812 0.851562
vt 0.257812 0.851562
vt 0.257812 0.851562
vt 0.164062 0.804688
vt 0.164062 0.804688
vt 0.164062 0.804688
vt 0.164062 0.804688
vt 0.164062 0.804688
vt 0.164062 0.804688
vt 0.210938 0.804688
vt 0.210938 0.804688
vt 0.210938 0.804688
vt 0.210938 0.804688
vt 0.226562 0.789062
vt 0.226562 0.789062
vt 0.226562 0.789062
vt 0.226562 0.789062
vt 0.226562 0.789062
vt 0.226562 0.789062
vt 0.226562 0.789062
vt 0.226562 0.789062
vt 0.226562 0.789062
vt 0.226562 0.789062
vt 0.226562 0.789062
vt 0.226562 0.789062
vt 0.210938 0.804688
vt 0.210938 0.804688
vt 0.210938 0.804688
vt 0.210938 0.804688
vt 0.257812 0.851562
vt 0.257812 0.851562
vt 0.257812 0.851562
vt 0.257812 0.851562
vt 0.257812 0.851562
vt 0.257812 0.851562
vt 0.257812 0.851562
vt 0.257812 0.851562
vt 0.164062 0.804688
vt 0.164062 0.804688
vt 0.164062 0.804688
vt 0.164062 0.804688
vt 0.164062 0.804688
vt 0.164062 0.804688
vt 0.210938 0.804688
vt 0.210938 0.804688
vt 0.210938 0.804688
vt 0.210938 0.804688
vt 0.226562 0.789062
vt 0.226562 0.789062
vt 0.226562 0.789062
vt 0.226562 0.789062
vt 0.226562 0.789062
vt 0.226562 0.789062
vt 0.226562 0.789062
vt 0.226562 0.789062
vt 0.226562 0.789062
vt 0.226562 0.789062
vt 0.226562 0.789062
vt 0.226562 0.789062
vt 0.210938 0.804688
vt 0.210938 0.804688
vt 0.210938 0.804688
vt 0.210938 0.804688
vt 0.257812 0.851562
vt 0.257812 0.851562
vt 0.257812 0.851562
vt 0.257812 0.851562
vt 0.257812 0.851562
vt 0.257812 0.851562
vt 0.257812 0.851562
vt 0.257812 0.851562
vn -0.7071 -0.0000 0.7071
vn 0.7071 -0.0000 0.7071
vn -0.0000 -0.0000 1.0000
vn 0.0796 -0.0741 0.9941
vn -0.0796 -0.0741 0.9941
vn -0.0796 0.0741 0.9941
vn 0.0796 0.0741 0.9941
vn 0.0000 0.0000 -1.0000
vn 0.2574 0.3469 0.9019
vn 0.2574 -0.3469 0.9019
vn -0.2574 -0.3469 0.9019
vn -0.2574 0.3469 0.9019
s off
f 1/1/1 2/2/1 3/3/1 4/4/1
f 5/5/2 6/6/2 2/7/2 1/8/2
f 7/9/1 8/10/1 9/11/1 10/12/1
f 11/13/2 12/14/2 8/15/2 7/16/2
f 2/2/1 13/17/1 14/18/1 3/3/1
f 6/6/2 15/19/2 13/20/2 2/7/2
f 8/10/1 16/21/1 17/22/1 9/11/1
f 12/14/2 18/23/2 16/24/2 8/15/2
f 13/17/1 19/25/1 20/26/1 14/18/1
f 15/19/2 21/27/2 19/28/2 13/20/2
f 16/21/1 22/29/1 23/30/1 17/22/1
f 18/23/2 24/31/2 22/32/2 16/24/2
f 19/25/1 25/33/1 26/34/1 20/26/1
f 21/27/2 27/35/2 25/36/2 19/28/2
f 22/29/1 28/37/1 29/38/1 23/30/1
f 24/31/2 30/39/2 28/40/2 22/32/2
s 1
f 31/41/3 32/42/3 33/43/4 34/44/5
f 35/45/3 36/46/3 37/47/6 38/48/7
f 32/42/3 35/45/3 38/48/7 33/43/4
f 36/46/3 31/41/3 34/44/5 37/47/6
f 39/49/8 40/50/8 41/51/8 42/52/8
f 43/53/3 44/54/3 45/55/3 46/56/3
f 33/57/4 38/58/7 47/59/9 48/60/10
f 34/61/5 33/57/4 48/60/10 49/62/11
f 37/63/6 34/61/5 49/62/11 50/64/12
f 38/58/7 37/63/6 50/64/12 47/59/9
f 51/65/3 52/66/3 53/67/3 54/68/3
f 40/69/3 39/70/3 51/71/3 54/72/3
f 41/73/3 40/69/3 54/72/3 53/74/3
f 39/70/3 42/75/3 52/76/3 51/71/3
f 42/75/3 41/73/3 53/74/3 52/76/3
f 55/77/3 56/78/3 57/79/4 58/80/5
f 32/42/3 31/41/3 59/81/6 60/82/7
f 56/78/3 32/42/3 60/82/7 57/79/4
f 31/41/3 55/77/3 58/80/5 59/81/6
f 61/83/8 62/84/8 63/85/8 64/86/8
f 65/87/3 66/88/3 67/89/3 68/90/3
f 57/91/4 60/92/7 69/93/9 70/94/10
f 58/95/5 57/91/4 70/94/10 71/96/11
f 59/97/6 58/95/5 71/96/11 72/98/12
f 60/92/7 59/97/6 72/98/12 69/93/9
f 73/99/3 74/100/3 75/101/3 76/102/3
f 62/103/3 61/104/3 73/105/3 76/106/3
f 63/107/3 62/103/3 76/106/3 75/108/3
f 61/104/3 64/109/3 74/110/3 73/105/3
f 64/109/3 63/107/3 75/108/3 74/110/3
f 77/111/3 78/112/3 79/113/4 80/114/5
f 56/78/3 55/77/3 81/115/6 82/116/7
f 78/112/3 56/78/3 82/116/7 79/113/4
f 55/77/3 77/111/3 80/114/5 81/115/6
f 83/117/8 84/118/8 85/119/8 86/120/8
f 87/121/3 88/122/3 89/123/3 90/124/3
f 79/125/4 82/126/7 91/127/9 92/128/10
f 80/129/5 79/125/4 92/128/10 93/130/11
f 81/131/6 80/129/5 93/130/11 94/132/12
f 82/126/7 81/131/6 94/132/12 91/127/9
f 95/133/3 96/134/3 97/135/3 98/136/3
f 84/137/3 83/138/3 95/139/3 98/140/3
f 85/141/3 84/137/3 98/140/3 97/142/3
f 83/138/3 86/143/3 96/144/3 95/139/3
f 86/143/3 85/141/3 97/142/3 96/144/3
f 99/145/3 100/146/3 101/147/4 102/148/5
f 78/112/3 77/111/3 103/149/6 104/150/7
f 100/146/3 78/112/3 104/150/7 101/147/4
f 77/111/3 99/145/3 102/148/5 103/149/6
f 105/151/8 106/152/8 107/153/8 108/154/8
f 109/155/3 110/156/3 111/157/3 112/158/3
f 101/159/4 104/160/7 113/161/9 114/162/10
f 102/163/5 101/159/4 114/162/10 115/164/11
f 103/165/6 102/163/5 115/164/11 116/166/12
f 104/160/7 103/165/6 116/166/12 113/161/9
f 117/167/3 118/168/3 119/169/3 120/170/3
f 106/171/3 105/172/3 117/173/3 120/174/3
f 107/175/3 106/171/3 120/174/3 119/176/3
f 105/172/3 108/177/3 118/178/3 117/173/3
f 108/177/3 107/175/3 119/176/3 118/178/3
