# Blender v2.90.0 Alpha OBJ File: 'Decos.blend'
# www.blender.org
o balcony.044
v 2.515319 -0.078372 0.662477
v 2.515319 3.794283 0.662480
v 2.224304 3.794283 0.371466
v 2.224304 -0.078372 0.371463
v 2.806334 -0.078372 0.371463
v 2.806334 3.794283 0.371466
v -2.535216 -0.078372 0.662477
v -2.535216 3.794283 0.662480
v -2.826231 3.794283 0.371466
v -2.826231 -0.078372 0.371463
v -2.244201 -0.078372 0.371463
v -2.244201 3.794283 0.371466
v 2.229565 3.794283 0.371466
v -2.229565 3.794283 0.371466
v -2.012202 3.174238 0.371466
v 2.043354 3.174238 0.371466
v -2.229565 -0.078372 0.371463
v 2.229565 -0.078372 0.371463
v 2.043354 0.115699 0.371463
v -2.012202 0.115699 0.371463
v -2.012202 0.115699 0.353663
v -2.012202 0.880334 0.353663
v 2.043354 0.880334 0.353663
v 2.043354 0.115699 0.353663
v -2.012202 0.115699 0.320275
v 2.043354 0.115699 0.320275
v 2.043354 3.174238 0.320276
v -2.012202 3.174238 0.320276
v -1.911896 0.191346 0.313745
v -1.911896 3.098591 0.313745
v 1.943048 3.098591 0.313745
v 1.943048 0.191346 0.313745
v -1.945799 0.146986 0.353663
v 1.976951 0.146986 0.353663
v 1.976951 0.849047 0.353663
v -1.945799 0.849047 0.353663
vt 0.257812 0.804688
vt 0.257812 0.804688
vt 0.257812 0.804688
vt 0.257812 0.804688
vt 0.242188 0.804688
vt 0.242188 0.804688
vt 0.242188 0.804688
vt 0.242188 0.804688
vt 0.257812 0.804688
vt 0.257812 0.804688
vt 0.257812 0.804688
vt 0.257812 0.804688
vt 0.242188 0.804688
vt 0.242188 0.804688
vt 0.242188 0.804688
vt 0.242188 0.804688
vt 0.164062 0.804688
vt 0.164062 0.804688
vt 0.164062 0.804688
vt 0.164062 0.804688
vt 0.164062 0.804688
vt 0.164062 0.804688
vt 0.164062 0.804688
vt 0.164062 0.804688
vt 0.210938 0.804688
vt 0.210938 0.804688
vt 0.210938 0.804688
vt 0.210938 0.804688
vt 0.242188 0.835938
vt 0.242188 0.835938
vt 0.242188 0.835938
vt 0.242188 0.835938
vt 0.226562 0.789062
vt 0.226562 0.789062
vt 0.226562 0.789062
vt 0.226562 0.789062
vt 0.226562 0.789062
vt 0.226562 0.789062
vt 0.226562 0.789062
vt 0.226562 0.789062
vt 0.210938 0.804688
vt 0.210938 0.804688
vt 0.210938 0.804688
vt 0.210938 0.804688
vt 0.257812 0.851562
vt 0.257812 0.851562
vt 0.257812 0.851562
vt 0.257812 0.851562
vt 0.257812 0.851562
vt 0.257812 0.851562
vt 0.257812 0.851562
vt 0.257812 0.851562
vn -0.7071 -0.0000 0.7071
vn 0.7071 -0.0000 0.7071
vn 0.0000 -0.0000 1.0000
vn 0.0796 -0.0741 0.9941
vn -0.0796 -0.0741 0.9941
vn -0.0796 0.0741 0.9941
vn 0.0796 0.0741 0.9941
vn 0.0000 0.0000 -1.0000
vn 0.2574 0.3469 0.9019
vn 0.2574 -0.3469 0.9019
vn -0.2574 -0.3469 0.9019
vn -0.2574 0.3469 0.9019
s off
f 1/1/1 2/2/1 3/3/1 4/4/1
f 5/5/2 6/6/2 2/7/2 1/8/2
f 7/9/1 8/10/1 9/11/1 10/12/1
f 11/13/2 12/14/2 8/15/2 7/16/2
s 1
f 13/17/3 14/18/3 15/19/4 16/20/5
f 17/21/3 18/22/3 19/23/6 20/24/7
f 14/18/3 17/21/3 20/24/7 15/19/4
f 18/22/3 13/17/3 16/20/5 19/23/6
f 21/25/8 22/26/8 23/27/8 24/28/8
f 25/29/3 26/30/3 27/31/3 28/32/3
f 15/33/4 20/34/7 29/35/9 30/36/10
f 16/37/5 15/33/4 30/36/10 31/38/11
f 19/39/6 16/37/5 31/38/11 32/40/12
f 20/34/7 19/39/6 32/40/12 29/35/9
f 33/41/3 34/42/3 35/43/3 36/44/3
f 22/45/3 21/46/3 33/47/3 36/48/3
f 23/49/3 22/45/3 36/48/3 35/50/3
f 21/46/3 24/51/3 34/52/3 33/47/3
f 24/51/3 23/49/3 35/50/3 34/52/3
