# Blender v2.90.0 Alpha OBJ File: 'Decos.blend'
# www.blender.org
o Cube.002_Cube
v -0.000000 -0.025881 0.766005
v 0.000000 40.237625 0.412665
v -0.766005 -0.025881 -0.000000
v -0.412665 40.237625 0.000000
v 0.766005 -0.025881 0.000000
v 0.412665 40.237625 -0.000000
v 0.000000 -0.025881 -0.766005
v -0.000000 40.237625 -0.412665
v 0.000000 39.586559 0.561609
v -0.651069 40.237625 0.561609
v 0.651069 40.237625 0.561609
v -0.000000 40.888695 0.561609
v 0.000000 39.685390 -4.868410
v -0.552239 40.237625 -4.868410
v 0.552239 40.237625 -4.868410
v -0.000000 40.789864 -4.868410
v 0.284900 40.707317 0.435071
v -0.285784 40.706779 0.435071
v 0.241627 40.663963 -0.210131
v -0.242429 40.663502 -0.210131
v 0.925929 54.679123 0.237455
v 0.728516 54.690426 0.237454
v 0.925026 54.678310 -0.121763
v 0.729323 54.689518 -0.121764
v 0.264313 39.756054 0.435070
v 0.549189 40.250549 0.435070
v 0.248404 39.815205 -0.210131
v 0.490035 40.234638 -0.210131
v 12.043734 32.215008 0.237422
v 12.152228 32.380318 0.237422
v 12.043489 32.216190 -0.121795
v 12.151045 32.380074 -0.121795
v -0.549214 40.249516 0.435070
v -0.263405 39.755558 0.435070
v -0.490032 40.233719 -0.210131
v -0.247606 39.814739 -0.210131
v -12.969666 33.818768 0.237423
v -12.880746 33.642147 0.237422
v -12.968516 33.818378 -0.121795
v -12.880368 33.643295 -0.121796
vt 0.054688 0.898438
vt 0.054688 0.898438
vt 0.054688 0.898438
vt 0.054688 0.898438
vt 0.054688 0.898438
vt 0.054688 0.898438
vt 0.054688 0.898438
vt 0.054688 0.898438
vt 0.054688 0.898438
vt 0.054688 0.898438
vt 0.054688 0.898438
vt 0.054688 0.898438
vt 0.054688 0.898438
vt 0.054688 0.898438
vt 0.054688 0.898438
vt 0.054688 0.898438
vt 0.054688 0.898438
vt 0.054688 0.898438
vt 0.054688 0.898438
vt 0.054688 0.898438
vt 0.054688 0.898438
vt 0.054688 0.898438
vt 0.054688 0.898438
vt 0.054688 0.898438
vt 0.054688 0.898438
vt 0.054688 0.898438
vt 0.054688 0.898438
vt 0.054688 0.898438
vt 0.054688 0.898438
vt 0.054688 0.898438
vt 0.054688 0.898438
vt 0.054688 0.898438
vt 0.054688 0.898438
vt 0.054688 0.898438
vt 0.054688 0.898438
vt 0.054688 0.898438
vt 0.054688 0.898438
vt 0.054688 0.898438
vt 0.054688 0.898438
vt 0.054688 0.898438
vn 0.7070 -0.7071 -0.0129
vn -0.7071 0.0062 0.7071
vn -0.7071 0.0062 -0.7071
vn 0.7071 0.0062 0.7071
vn 0.0000 1.0000 0.0000
vn 0.0000 -1.0000 0.0000
vn 0.0000 0.0000 1.0000
vn 0.0000 0.0000 -1.0000
vn -0.7070 0.7070 -0.0129
vn 0.7070 0.7070 -0.0129
vn -0.7070 -0.7071 -0.0129
vn 0.8360 -0.5487 -0.0024
vn -0.9964 0.0705 -0.0469
vn 0.0001 0.0063 -1.0000
vn -0.8932 -0.4497 -0.0024
vn 0.9980 -0.0474 -0.0418
vn 0.0002 0.0141 0.9999
vn 0.5592 0.8277 -0.0469
vn 0.0054 -0.0032 -1.0000
vn -0.5400 -0.8406 -0.0418
vn 0.0121 -0.0072 0.9999
vn 0.4372 -0.8982 -0.0469
vn -0.0055 -0.0031 -1.0000
vn -0.4580 0.8880 -0.0418
vn -0.0123 -0.0069 0.9999
vn 0.7071 0.0062 -0.7071
vn 0.0572 0.9984 -0.0024
s 1
f 13/1/1 15/2/1 11/3/1 9/4/1
f 1/5/2 2/6/2 4/7/2 3/8/2
f 3/8/3 4/7/3 8/9/3 7/10/3
f 5/11/4 6/12/4 2/6/4 1/5/4
f 8/9/5 4/7/5 2/6/5 6/12/5
f 3/8/6 7/10/6 5/11/6 1/5/6
f 12/13/7 10/14/7 9/4/7 11/3/7
f 14/15/8 16/16/8 15/2/8 13/1/8
f 16/16/9 14/15/9 10/14/9 12/13/9
f 11/3/10 15/2/10 16/16/10 12/13/10
f 14/15/11 13/1/11 9/4/11 10/14/11
f 29/17/12 31/18/12 32/19/12 30/20/12
f 22/21/13 24/22/13 20/23/13 18/24/13
f 23/25/14 19/26/14 20/23/14 24/22/14
f 37/27/15 39/28/15 40/29/15 38/30/15
f 23/25/16 21/31/16 17/32/16 19/26/16
f 17/32/17 21/31/17 22/21/17 18/24/17
f 30/20/18 32/19/18 28/33/18 26/34/18
f 31/18/19 27/35/19 28/33/19 32/19/19
f 31/18/20 29/17/20 25/36/20 27/35/20
f 25/36/21 29/17/21 30/20/21 26/34/21
f 38/30/22 40/29/22 36/37/22 34/38/22
f 39/28/23 35/39/23 36/37/23 40/29/23
f 39/28/24 37/27/24 33/40/24 35/39/24
f 33/40/25 37/27/25 38/30/25 34/38/25
f 7/10/26 8/9/26 6/12/26 5/11/26
f 21/31/27 23/25/27 24/22/27 22/21/27
