# Blender v2.90.0 Alpha OBJ File: 'Decos.blend'
# www.blender.org
o Haystack_Cube.001
v 2.284657 2.399879 -1.397647
v 2.284657 2.399878 1.397647
v 2.284657 -0.500000 1.397647
v 2.284657 -0.500000 -1.397647
v -2.284657 -0.500000 1.397647
v -2.284657 -0.500000 -1.397647
v -2.284657 2.399879 -1.397647
v -2.284657 2.399878 1.397647
v 2.085870 2.154091 1.120547
v 2.085870 -0.180214 -1.129572
vt 0.070312 0.867188
vt 0.070312 0.867188
vt 0.070312 0.867188
vt 0.070312 0.867188
vt 0.070312 0.867188
vt 0.070312 0.867188
vt 0.070312 0.867188
vt 0.070312 0.867188
vn 1.0000 0.0000 0.0000
vn 0.0000 1.0000 0.0000
vn 0.0000 -0.0000 1.0000
vn 0.0000 0.0000 -1.0000
vn -1.0000 0.0000 0.0000
s 1
f 1/1/1 2/2/1 3/3/1 4/4/1
f 1/1/2 7/5/2 8/6/2 2/2/2
f 8/6/3 5/7/3 3/3/3 2/2/3
f 4/4/4 6/8/4 7/5/4 1/1/4
f 8/6/5 7/5/5 6/8/5 5/7/5
l 10 9
