# Blender v2.90.0 Alpha OBJ File: 'Decos.blend'
# www.blender.org
o Cube.002_Cube.001
v -5.643886 -2.004581 0.180017
v -5.643886 2.000000 0.180017
v -5.643886 2.000000 -0.180017
v -5.643886 -2.004581 -0.180017
v -6.000000 -2.004581 0.180017
v -6.000000 2.000000 0.180017
v -6.000000 -2.004581 -0.180017
v -6.000000 2.000000 -0.180017
v 5.643886 -2.004581 0.180017
v 5.643886 2.000000 0.180017
v 5.643886 2.000000 -0.180017
v 5.643886 -2.004581 -0.180017
v 6.000000 -2.004581 0.180017
v 6.000000 2.000000 0.180017
v 6.000000 -2.004581 -0.180017
v 6.000000 2.000000 -0.180017
v -5.870785 1.764188 0.144513
v 5.870785 1.764188 0.144513
v 5.870785 1.764188 -0.144513
v -5.870785 1.764188 -0.144513
v -5.870785 1.410879 0.144513
v 5.870785 1.410879 0.144513
v -5.870785 1.410879 -0.144513
v 5.870785 1.410879 -0.144513
v -5.870785 -1.511808 0.144513
v 5.870785 -1.511808 0.144513
v 5.870785 -1.511808 -0.144513
v -5.870785 -1.511808 -0.144513
v -5.870785 -1.865117 0.144513
v 5.870785 -1.865117 0.144513
v -5.870785 -1.865117 -0.144513
v 5.870785 -1.865117 -0.144513
v -5.866369 1.362792 0.031963
v 5.866369 1.362792 0.031963
v 5.866369 1.362792 -0.031963
v -5.866369 1.362792 -0.031963
v -5.866369 -1.635408 0.031963
v 5.866369 -1.635408 0.031963
v -5.866369 -1.635408 -0.031963
v 5.866369 -1.635408 -0.031963
vt 0.023438 0.773438
vt 0.023438 0.773438
vt 0.023438 0.773438
vt 0.023438 0.773438
vt 0.023438 0.773438
vt 0.023438 0.773438
vt 0.023438 0.773438
vt 0.023438 0.773438
vt 0.023438 0.773438
vt 0.023438 0.773438
vt 0.023438 0.773438
vt 0.023438 0.773438
vt 0.023438 0.773438
vt 0.023438 0.773438
vt 0.023438 0.773438
vt 0.023438 0.773438
vt 0.023438 0.773438
vt 0.023438 0.773438
vt 0.023438 0.773438
vt 0.023438 0.773438
vt 0.023438 0.773438
vt 0.023438 0.773438
vt 0.023438 0.773438
vt 0.023438 0.773438
vt 0.023438 0.773438
vt 0.023438 0.773438
vt 0.023438 0.773438
vt 0.023438 0.773438
vt 0.023438 0.773438
vt 0.023438 0.773438
vt 0.023438 0.773438
vt 0.023438 0.773438
vt 0.023438 0.773438
vt 0.023438 0.773438
vt 0.023438 0.773438
vt 0.023438 0.773438
vt 0.023438 0.773438
vt 0.023438 0.773438
vt 0.023438 0.773438
vt 0.023438 0.773438
vn 0.0000 -0.0000 1.0000
vn 0.0000 0.0000 -1.0000
vn 0.0000 1.0000 0.0000
vn -1.0000 0.0000 0.0000
vn 1.0000 0.0000 0.0000
s 1
f 5/1/1 1/2/1 2/3/1 6/4/1
f 4/5/2 7/6/2 8/7/2 3/8/2
f 3/8/3 8/7/3 6/4/3 2/3/3
f 7/6/4 5/1/4 6/4/4 8/7/4
f 13/9/1 14/10/1 10/11/1 9/12/1
f 15/13/5 16/14/5 14/10/5 13/9/5
f 12/15/2 11/16/2 16/14/2 15/13/2
f 11/16/3 10/11/3 14/10/3 16/14/3
f 18/17/1 17/18/1 21/19/1 22/20/1
f 24/21/2 23/22/2 20/23/2 19/24/2
f 19/24/3 20/23/3 17/18/3 18/17/3
f 26/25/1 25/26/1 29/27/1 30/28/1
f 32/29/2 31/30/2 28/31/2 27/32/2
f 34/33/1 33/34/1 37/35/1 38/36/1
f 40/37/2 39/38/2 36/39/2 35/40/2
