# Blender v2.90.0 Alpha OBJ File: 'Decos.blend'
# www.blender.org
o wooden-turbine
v -0.383408 14.674766 -0.259246
v -0.383408 14.674766 0.275539
v -0.102732 15.160912 -0.259246
v -0.102732 15.160912 0.275539
v 0.102738 14.394089 -0.259246
v 0.102738 14.394089 0.275539
v 0.383415 14.880234 -0.259246
v 0.383415 14.880234 0.275539
v 0.166509 14.885952 -0.014720
v 0.166509 14.885952 0.031014
v 1.800896 14.885952 -0.014721
v 1.800896 14.885952 0.031014
v 0.166509 14.669049 -0.014720
v 0.166509 14.669049 0.031014
v 1.800896 14.669049 -0.014721
v 1.800896 14.669049 0.031014
v 1.800896 15.222304 -0.071776
v 1.800896 15.222304 0.088069
v 1.800896 14.332695 -0.071776
v 1.800896 14.332695 0.088069
v 1.993380 15.499356 -0.071775
v 1.993380 15.499356 0.088070
v 1.993380 14.055644 -0.071776
v 1.993380 14.055644 0.088069
v 4.915028 15.665479 -0.071775
v 4.915028 15.665479 0.088069
v 4.915028 13.889521 -0.071776
v 4.915028 13.889521 0.088068
v 5.079251 14.777501 -0.071776
v 5.079251 14.777501 0.088068
v -0.010665 14.975924 -0.014720
v -0.010665 14.975924 0.031014
v 0.806528 16.391346 -0.014719
v 0.806528 16.391346 0.031015
v 0.177178 14.867473 -0.014720
v 0.177178 14.867473 0.031014
v 0.994371 16.282894 -0.014719
v 0.994371 16.282894 0.031015
v 0.515238 16.559523 -0.071774
v 0.515238 16.559523 0.088070
v 1.285662 16.114716 -0.071774
v 1.285662 16.114716 0.088070
v 0.371547 16.864744 -0.071774
v 0.371547 16.864744 0.088070
v 1.621837 16.142887 -0.071774
v 1.621837 16.142887 0.088070
v 1.688503 19.478025 -0.071774
v 1.688503 19.478025 0.088070
v 3.226528 18.590046 -0.071775
v 3.226528 18.590046 0.088070
v 2.539627 19.176260 -0.071775
v 2.539627 19.176260 0.088070
v 0.177178 14.687529 -0.014720
v 0.177178 14.687529 0.031014
v 0.994371 13.272107 -0.014721
v 0.994371 13.272107 0.031013
v -0.010665 14.579077 -0.014720
v -0.010665 14.579077 0.031014
v 0.806529 13.163656 -0.014721
v 0.806529 13.163656 0.031013
v 1.285662 13.440283 -0.071776
v 1.285662 13.440283 0.088069
v 0.515237 12.995479 -0.071776
v 0.515237 12.995479 0.088069
v 1.621837 13.412112 -0.071776
v 1.621837 13.412112 0.088069
v 0.371546 12.690257 -0.071776
v 0.371546 12.690257 0.088068
v 3.226528 10.964953 -0.071777
v 3.226528 10.964953 0.088068
v 1.688503 10.076975 -0.071777
v 1.688503 10.076975 0.088068
v 2.539626 10.378742 -0.071777
v 2.539626 10.378742 0.088068
v 0.010672 14.579077 -0.014720
v 0.010672 14.579077 0.031014
v -0.806522 13.163656 -0.014721
v -0.806522 13.163656 0.031013
v -0.177172 14.687527 -0.014720
v -0.177172 14.687527 0.031014
v -0.994365 13.272107 -0.014721
v -0.994365 13.272107 0.031013
v -0.515231 12.995480 -0.071776
v -0.515231 12.995480 0.088068
v -1.285656 13.440284 -0.071776
v -1.285656 13.440284 0.088069
v -0.371540 12.690257 -0.071776
v -0.371540 12.690257 0.088068
v -1.621831 13.412113 -0.071776
v -1.621831 13.412113 0.088069
v -1.688497 10.076974 -0.071777
v -1.688497 10.076974 0.088068
v -3.226522 10.964954 -0.071777
v -3.226522 10.964954 0.088068
v -2.539622 10.378742 -0.071777
v -2.539622 10.378742 0.088068
v -0.166503 14.669049 -0.014720
v -0.166503 14.669049 0.031014
v -1.800889 14.669050 -0.014721
v -1.800889 14.669050 0.031014
v -0.166503 14.885952 -0.014720
v -0.166503 14.885952 0.031014
v -1.800890 14.885952 -0.014720
v -1.800890 14.885952 0.031014
v -1.800890 14.332695 -0.071776
v -1.800890 14.332695 0.088069
v -1.800889 15.222306 -0.071776
v -1.800889 15.222306 0.088069
v -1.993374 14.055644 -0.071776
v -1.993374 14.055644 0.088069
v -1.993374 15.499357 -0.071775
v -1.993374 15.499357 0.088070
v -4.915021 13.889523 -0.071776
v -4.915021 13.889523 0.088068
v -4.915021 15.665481 -0.071775
v -4.915021 15.665481 0.088069
v -5.079246 14.777503 -0.071776
v -5.079245 14.777502 0.088068
v -0.177171 14.867474 -0.014720
v -0.177171 14.867474 0.031014
v -0.994364 16.282896 -0.014719
v -0.994365 16.282894 0.031015
v 0.010672 14.975924 -0.014720
v 0.010672 14.975924 0.031014
v -0.806521 16.391346 -0.014719
v -0.806521 16.391346 0.031015
v -1.285655 16.114717 -0.071774
v -1.285655 16.114717 0.088070
v -0.515230 16.559523 -0.071774
v -0.515230 16.559523 0.088070
v -1.621831 16.142889 -0.071775
v -1.621831 16.142889 0.088070
v -0.371539 16.864744 -0.071774
v -0.371539 16.864744 0.088070
v -3.226521 18.590048 -0.071775
v -3.226521 18.590048 0.088070
v -1.688495 19.478027 -0.071774
v -1.688495 19.478027 0.088070
v -2.539619 19.176260 -0.071775
v -2.539619 19.176260 0.088070
v 0.147753 14.636263 0.113587
v 0.076286 14.563383 0.039408
v 0.219220 14.709143 0.039408
v 0.147753 14.636263 -0.034771
v 1.112194 -0.331071 0.278957
v 0.919205 -0.331071 0.085966
v 1.112194 -0.331071 -0.107024
v 1.305185 -0.331071 0.085966
v -0.147753 14.636263 0.113587
v -0.076286 14.563383 0.039408
v -0.219220 14.709143 0.039408
v -0.147753 14.636263 -0.034771
v -1.112194 -0.331071 0.278957
v -0.919205 -0.331071 0.085966
v -1.112194 -0.331071 -0.107024
v -1.305185 -0.331071 0.085966
v 0.000000 14.521333 -0.032387
v -0.085632 14.612852 -0.114302
v 0.085632 14.612852 -0.114302
v 0.000000 14.704371 -0.196216
v 0.000000 -0.331071 -1.421333
v -0.222788 -0.331071 -1.644120
v 0.000000 -0.331071 -1.866907
v 0.222788 -0.331071 -1.644120
v 0.000000 14.521333 0.032391
v -0.085632 14.612852 0.114306
v 0.085632 14.612852 0.114306
v 0.000000 14.704371 0.196220
v 0.000000 -0.331071 1.421333
v -0.222788 -0.331071 1.644120
v 0.000000 -0.331071 1.866907
v 0.222788 -0.331071 1.644120
v 1.220018 1.247105 0.083162
v 0.000000 1.247105 -1.742282
v 0.000000 1.711269 -1.707767
v -1.220018 1.247105 0.083162
v -1.196431 1.711269 0.082385
v 0.000000 1.711269 1.714930
v 0.000000 1.247105 1.747891
v 1.196431 1.711269 0.082385
v 0.000000 1.452336 -2.027514
v -1.414941 1.452336 0.089581
v 0.000000 1.452336 2.020285
v 1.414941 1.452336 0.089581
v 0.992000 4.944480 0.072859
v 0.000000 4.944480 -1.284451
v 0.000000 5.408644 -1.258788
v -0.992000 4.944480 0.072859
v -0.972822 5.408644 0.072281
v 0.000000 5.408644 1.286162
v 0.000000 4.944480 1.310670
v 0.972822 5.408644 0.072281
v 0.000000 5.149712 -1.496536
v -1.150493 5.149711 0.077632
v 0.000000 5.149711 1.513209
v 1.150493 5.149711 0.077632
v 0.650004 9.116882 0.063395
v 0.000000 9.116882 -0.863932
v 0.000000 9.581044 -0.846399
v -0.650004 9.116882 0.063395
v -0.637437 9.581044 0.063001
v 0.000000 9.581044 0.892337
v 0.000000 9.116882 0.909081
v 0.637437 9.581044 0.063001
v 0.000000 9.322112 -1.008832
v -0.753856 9.322112 0.066657
v 0.000000 9.322112 1.047458
v 0.753856 9.322112 0.066657
v 0.437302 12.015506 0.054029
v 0.000000 12.015506 -0.447737
v 0.000000 12.272303 -0.438250
v -0.437302 12.015506 0.054029
v -0.428847 12.272303 0.053816
v 0.000000 12.272303 0.502560
v 0.000000 12.015506 0.511620
v 0.428847 12.272303 0.053816
v 0.000000 12.129049 -0.526141
v -0.507170 12.129049 0.055794
v 0.000000 12.129049 0.586494
v 0.507170 12.129049 0.055794
vt 0.143102 0.427157
vt 0.143102 0.427157
vt 0.143102 0.427157
vt 0.143102 0.427157
vt 0.143102 0.427157
vt 0.143102 0.427157
vt 0.143102 0.427157
vt 0.143102 0.427157
vt 0.051581 0.986585
vt 0.051581 0.986585
vt 0.051581 0.986585
vt 0.051581 0.986585
vt 0.210938 0.898438
vt 0.210938 0.898438
vt 0.210938 0.898438
vt 0.210938 0.898438
vt 0.210938 0.898438
vt 0.210938 0.898438
vt 0.210938 0.898438
vt 0.210938 0.898438
vt 0.046456 0.982485
vt 0.046456 0.982485
vt 0.046456 0.982485
vt 0.046456 0.982485
vt 0.046456 0.982485
vt 0.046456 0.982485
vt 0.046456 0.982485
vt 0.046456 0.982485
vt 0.046456 0.982485
vt 0.046456 0.982485
vt 0.046456 0.982485
vt 0.046456 0.982485
vt 0.046456 0.982485
vt 0.046456 0.982485
vt 0.210938 0.898438
vt 0.210938 0.898438
vt 0.210938 0.898438
vt 0.210938 0.898438
vt 0.210938 0.898438
vt 0.210938 0.898438
vt 0.210938 0.898438
vt 0.210938 0.898438
vt 0.046456 0.982485
vt 0.046456 0.982485
vt 0.046456 0.982485
vt 0.046456 0.982485
vt 0.046456 0.982485
vt 0.046456 0.982485
vt 0.046456 0.982485
vt 0.046456 0.982485
vt 0.046456 0.982485
vt 0.046456 0.982485
vt 0.046456 0.982485
vt 0.046456 0.982485
vt 0.046456 0.982485
vt 0.046456 0.982485
vt 0.210938 0.898438
vt 0.210938 0.898438
vt 0.210938 0.898438
vt 0.210938 0.898438
vt 0.210938 0.898438
vt 0.210938 0.898438
vt 0.210938 0.898438
vt 0.210938 0.898438
vt 0.046456 0.982485
vt 0.046456 0.982485
vt 0.046456 0.982485
vt 0.046456 0.982485
vt 0.046456 0.982485
vt 0.046456 0.982485
vt 0.046456 0.982485
vt 0.046456 0.982485
vt 0.046456 0.982485
vt 0.046456 0.982485
vt 0.046456 0.982485
vt 0.046456 0.982485
vt 0.046456 0.982485
vt 0.046456 0.982485
vt 0.210938 0.898438
vt 0.210938 0.898438
vt 0.210938 0.898438
vt 0.210938 0.898438
vt 0.210938 0.898438
vt 0.210938 0.898438
vt 0.210938 0.898438
vt 0.210938 0.898438
vt 0.046456 0.982485
vt 0.046456 0.982485
vt 0.046456 0.982485
vt 0.046456 0.982485
vt 0.046456 0.982485
vt 0.046456 0.982485
vt 0.046456 0.982485
vt 0.046456 0.982485
vt 0.046456 0.982485
vt 0.046456 0.982485
vt 0.046456 0.982485
vt 0.046456 0.982485
vt 0.046456 0.982485
vt 0.046456 0.982485
vt 0.210938 0.898438
vt 0.210938 0.898438
vt 0.210938 0.898438
vt 0.210938 0.898438
vt 0.210938 0.898438
vt 0.210938 0.898438
vt 0.210938 0.898438
vt 0.210938 0.898438
vt 0.046456 0.982485
vt 0.046456 0.982485
vt 0.046456 0.982485
vt 0.046456 0.982485
vt 0.046456 0.982485
vt 0.046456 0.982485
vt 0.046456 0.982485
vt 0.046456 0.982485
vt 0.046456 0.982485
vt 0.046456 0.982485
vt 0.046456 0.982485
vt 0.046456 0.982485
vt 0.046456 0.982485
vt 0.046456 0.982485
vt 0.210938 0.898438
vt 0.210938 0.898438
vt 0.210938 0.898438
vt 0.210938 0.898438
vt 0.210938 0.898438
vt 0.210938 0.898438
vt 0.210938 0.898438
vt 0.210938 0.898438
vt 0.046456 0.982485
vt 0.046456 0.982485
vt 0.046456 0.982485
vt 0.046456 0.982485
vt 0.046456 0.982485
vt 0.046456 0.982485
vt 0.046456 0.982485
vt 0.046456 0.982485
vt 0.046456 0.982485
vt 0.046456 0.982485
vt 0.046456 0.982485
vt 0.046456 0.982485
vt 0.046456 0.982485
vt 0.046456 0.982485
vt 0.210938 0.898438
vt 0.210938 0.898438
vt 0.210938 0.898438
vt 0.210938 0.898438
vt 0.210938 0.898438
vt 0.210938 0.898438
vt 0.210938 0.898438
vt 0.210938 0.898438
vt 0.210938 0.898438
vt 0.210938 0.898438
vt 0.210938 0.898438
vt 0.210938 0.898438
vt 0.210938 0.898438
vt 0.210938 0.898438
vt 0.210938 0.898438
vt 0.210938 0.898438
vt 0.210938 0.898438
vt 0.210938 0.898438
vt 0.210938 0.898438
vt 0.210938 0.898438
vt 0.210938 0.898438
vt 0.210938 0.898438
vt 0.210938 0.898438
vt 0.210938 0.898438
vt 0.210938 0.898438
vt 0.210938 0.898438
vt 0.210938 0.898438
vt 0.210938 0.898438
vt 0.210938 0.898438
vt 0.210938 0.898438
vt 0.210938 0.898438
vt 0.210938 0.898438
vt 0.143102 0.427157
vt 0.143102 0.427157
vt 0.143102 0.427157
vt 0.143102 0.427157
vt 0.143102 0.427157
vt 0.143102 0.427157
vt 0.143102 0.427157
vt 0.143102 0.427157
vt 0.143102 0.427157
vt 0.143102 0.427157
vt 0.143102 0.427157
vt 0.143102 0.427157
vt 0.143102 0.427157
vt 0.143102 0.427157
vt 0.143102 0.427157
vt 0.143102 0.427157
vt 0.143102 0.427157
vt 0.143102 0.427157
vt 0.143102 0.427157
vt 0.143102 0.427157
vt 0.143102 0.427157
vt 0.143102 0.427157
vt 0.143102 0.427157
vt 0.143102 0.427157
vt 0.143102 0.427157
vt 0.143102 0.427157
vt 0.143102 0.427157
vt 0.143102 0.427157
vt 0.143102 0.427157
vt 0.143102 0.427157
vt 0.143102 0.427157
vt 0.143102 0.427157
vt 0.143102 0.427157
vt 0.143102 0.427157
vt 0.143102 0.427157
vt 0.143102 0.427157
vt 0.143102 0.427157
vt 0.143102 0.427157
vt 0.143102 0.427157
vt 0.143102 0.427157
vt 0.143102 0.427157
vt 0.143102 0.427157
vt 0.143102 0.427157
vt 0.143102 0.427157
vt 0.143102 0.427157
vt 0.143102 0.427157
vt 0.143102 0.427157
vt 0.143102 0.427157
vn -0.8660 0.5000 0.0000
vn 0.5000 0.8660 0.0000
vn 0.8660 -0.5000 0.0000
vn -0.5000 -0.8660 0.0000
vn 0.0000 0.0000 -1.0000
vn 0.0000 -0.0000 1.0000
vn 0.0000 1.0000 0.0000
vn 0.0000 -1.0000 0.0000
vn -0.0568 -0.9984 0.0000
vn -0.8212 0.5706 0.0000
vn -0.8212 -0.5706 0.0000
vn 0.9833 -0.1819 0.0000
vn -0.0568 0.9984 0.0000
vn 0.9833 0.1819 0.0000
vn -1.0000 -0.0000 0.0000
vn 0.8362 -0.5484 0.0000
vn -0.9048 -0.4259 0.0000
vn 0.0835 -0.9965 0.0000
vn 0.6492 0.7607 0.0000
vn -0.8930 0.4500 0.0000
vn 0.3342 0.9425 0.0000
vn 0.8660 0.5000 0.0000
vn -0.8660 -0.5000 0.0000
vn -0.8930 -0.4500 0.0000
vn 0.0835 0.9965 0.0000
vn -0.9048 0.4259 0.0000
vn 0.3342 -0.9425 0.0000
vn 0.8362 0.5484 0.0000
vn 0.6492 -0.7607 0.0000
vn -0.5000 0.8660 0.0000
vn -0.8362 0.5484 0.0000
vn 0.9048 0.4259 0.0000
vn -0.0835 0.9965 0.0000
vn -0.6492 -0.7607 0.0000
vn 0.8930 -0.4500 0.0000
vn -0.3342 -0.9425 0.0000
vn 0.0568 0.9984 0.0000
vn 0.8212 -0.5706 0.0000
vn 0.8212 0.5706 0.0000
vn -0.9833 0.1819 0.0000
vn 0.0568 -0.9984 0.0000
vn -0.9833 -0.1819 0.0000
vn 1.0000 -0.0000 0.0000
vn 0.8930 0.4500 0.0000
vn -0.0835 -0.9965 0.0000
vn 0.9048 -0.4259 0.0000
vn -0.3342 0.9425 0.0000
vn -0.8362 -0.5484 0.0000
vn -0.6492 0.7607 0.0000
vn 0.5000 -0.8660 0.0000
vn -0.7051 -0.0376 0.7082
vn -0.7043 -0.0420 -0.7086
vn 0.7032 0.0487 -0.7093
vn 0.7024 0.0530 0.7098
vn 0.7051 -0.0376 0.7082
vn 0.7043 -0.0420 -0.7086
vn -0.7032 0.0487 -0.7093
vn -0.7024 0.0530 0.7098
vn -0.7110 -0.0653 0.7001
vn -0.7123 0.0777 -0.6976
vn 0.7123 0.0777 -0.6976
vn 0.7110 -0.0653 0.7001
vn -0.7110 -0.0653 -0.7001
vn -0.7123 0.0777 0.6976
vn 0.7123 0.0777 0.6976
vn 0.7110 -0.0653 -0.7001
vn -0.6855 0.5658 -0.4582
vn -0.6617 0.5719 0.4849
vn 0.6855 0.5658 -0.4582
vn 0.6617 0.5719 0.4849
vn 0.6346 -0.6173 0.4651
vn 0.6580 -0.6112 -0.4398
vn -0.6346 -0.6173 0.4651
vn -0.6580 -0.6112 -0.4398
vn -0.7099 0.4764 -0.5188
vn -0.6842 0.4808 0.5483
vn 0.7099 0.4764 -0.5188
vn 0.6842 0.4808 0.5483
vn 0.6640 -0.5252 0.5322
vn 0.6893 -0.5206 -0.5038
vn -0.6640 -0.5252 0.5322
vn -0.6893 -0.5206 -0.5038
vn -0.7704 0.3388 -0.5400
vn -0.7448 0.3429 0.5724
vn 0.7704 0.3388 -0.5400
vn 0.7448 0.3429 0.5724
vn 0.7334 -0.3801 0.5637
vn 0.7589 -0.3756 -0.5320
vn -0.7334 -0.3801 0.5637
vn -0.7589 -0.3756 -0.5320
vn -0.6992 0.3739 -0.6094
vn -0.6701 0.3752 0.6404
vn 0.6992 0.3739 -0.6094
vn 0.6701 0.3752 0.6404
vn 0.6579 -0.4146 0.6287
vn 0.6865 -0.4131 -0.5983
vn -0.6579 -0.4146 0.6287
vn -0.6865 -0.4132 -0.5983
s 1
f 1/1/1 2/2/1 4/3/1 3/4/1
f 3/4/2 4/3/2 8/5/2 7/6/2
f 7/6/3 8/5/3 6/7/3 5/8/3
f 5/8/4 6/7/4 2/2/4 1/1/4
f 3/4/5 7/6/5 5/8/5 1/1/5
f 8/9/6 4/10/6 2/11/6 6/12/6
f 9/13/7 10/14/7 12/15/7 11/16/7
f 15/17/8 16/18/8 14/19/8 13/20/8
f 11/16/5 15/17/5 13/20/5 9/13/5
f 16/18/6 12/15/6 10/14/6 14/19/6
f 24/21/9 23/22/9 27/23/9 28/24/9
f 17/25/10 18/26/10 22/27/10 21/28/10
f 20/29/11 19/30/11 23/22/11 24/21/11
f 19/30/5 17/25/5 21/28/5 23/22/5
f 29/31/12 30/32/12 28/24/12 27/23/12
f 23/22/5 21/28/5 25/33/5 29/31/5
f 24/21/6 28/24/6 30/32/6
f 21/28/13 22/27/13 26/34/13 25/33/13
f 22/27/6 24/21/6 30/32/6 26/34/6
f 23/22/5 29/31/5 27/23/5
f 25/33/14 26/34/14 30/32/14 29/31/14
f 18/26/6 20/29/6 24/21/6 22/27/6
f 17/25/15 19/30/15 20/29/15 18/26/15
f 31/35/1 32/36/1 34/37/1 33/38/1
f 37/39/3 38/40/3 36/41/3 35/42/3
f 33/38/5 37/39/5 35/42/5 31/35/5
f 38/40/6 34/37/6 32/36/6 36/41/6
f 46/43/16 45/44/16 49/45/16 50/46/16
f 39/47/17 40/48/17 44/49/17 43/50/17
f 42/51/18 41/52/18 45/44/18 46/43/18
f 41/52/5 39/47/5 43/50/5 45/44/5
f 51/53/19 52/54/19 50/46/19 49/45/19
f 45/44/5 43/50/5 47/55/5 51/53/5
f 46/43/6 50/46/6 52/54/6
f 43/50/20 44/49/20 48/56/20 47/55/20
f 44/49/6 46/43/6 52/54/6 48/56/6
f 45/44/5 51/53/5 49/45/5
f 47/55/21 48/56/21 52/54/21 51/53/21
f 40/48/6 42/51/6 46/43/6 44/49/6
f 39/47/4 41/52/4 42/51/4 40/48/4
f 53/57/22 54/58/22 56/59/22 55/60/22
f 59/61/23 60/62/23 58/63/23 57/64/23
f 55/60/5 59/61/5 57/64/5 53/57/5
f 60/62/6 56/59/6 54/58/6 58/63/6
f 68/65/24 67/66/24 71/67/24 72/68/24
f 61/69/25 62/70/25 66/71/25 65/72/25
f 64/73/26 63/74/26 67/66/26 68/65/26
f 63/74/5 61/69/5 65/72/5 67/66/5
f 73/75/27 74/76/27 72/68/27 71/67/27
f 67/66/5 65/72/5 69/77/5 73/75/5
f 68/65/6 72/68/6 74/76/6
f 65/72/28 66/71/28 70/78/28 69/77/28
f 66/71/6 68/65/6 74/76/6 70/78/6
f 67/66/5 73/75/5 71/67/5
f 69/77/29 70/78/29 74/76/29 73/75/29
f 62/70/6 64/73/6 68/65/6 66/71/6
f 61/69/30 63/74/30 64/73/30 62/70/30
f 75/79/3 76/80/3 78/81/3 77/82/3
f 81/83/1 82/84/1 80/85/1 79/86/1
f 77/82/5 81/83/5 79/86/5 75/79/5
f 82/84/6 78/81/6 76/80/6 80/85/6
f 90/87/31 89/88/31 93/89/31 94/90/31
f 83/91/32 84/92/32 88/93/32 87/94/32
f 86/95/33 85/96/33 89/88/33 90/87/33
f 85/96/5 83/91/5 87/94/5 89/88/5
f 95/97/34 96/98/34 94/90/34 93/89/34
f 89/88/5 87/94/5 91/99/5 95/97/5
f 90/87/6 94/90/6 96/98/6
f 87/94/35 88/93/35 92/100/35 91/99/35
f 88/93/6 90/87/6 96/98/6 92/100/6
f 89/88/5 95/97/5 93/89/5
f 91/99/36 92/100/36 96/98/36 95/97/36
f 84/92/6 86/95/6 90/87/6 88/93/6
f 83/91/2 85/96/2 86/95/2 84/92/2
f 97/101/8 98/102/8 100/103/8 99/104/8
f 103/105/7 104/106/7 102/107/7 101/108/7
f 99/104/5 103/105/5 101/108/5 97/101/5
f 104/106/6 100/103/6 98/102/6 102/107/6
f 112/109/37 111/110/37 115/111/37 116/112/37
f 105/113/38 106/114/38 110/115/38 109/116/38
f 108/117/39 107/118/39 111/110/39 112/109/39
f 107/118/5 105/113/5 109/116/5 111/110/5
f 117/119/40 118/120/40 116/112/40 115/111/40
f 111/110/5 109/116/5 113/121/5 117/119/5
f 112/109/6 116/112/6 118/120/6
f 109/116/41 110/115/41 114/122/41 113/121/41
f 110/115/6 112/109/6 118/120/6 114/122/6
f 111/110/5 117/119/5 115/111/5
f 113/121/42 114/122/42 118/120/42 117/119/42
f 106/114/6 108/117/6 112/109/6 110/115/6
f 105/113/43 107/118/43 108/117/43 106/114/43
f 119/123/23 120/124/23 122/125/23 121/126/23
f 125/127/22 126/128/22 124/129/22 123/130/22
f 121/126/5 125/127/5 123/130/5 119/123/5
f 126/128/6 122/125/6 120/124/6 124/129/6
f 134/131/44 133/132/44 137/133/44 138/134/44
f 127/135/45 128/136/45 132/137/45 131/138/45
f 130/139/46 129/140/46 133/132/46 134/131/46
f 129/140/5 127/135/5 131/138/5 133/132/5
f 139/141/47 140/142/47 138/134/47 137/133/47
f 133/132/5 131/138/5 135/143/5 139/141/5
f 134/131/6 138/134/6 140/142/6
f 131/138/48 132/137/48 136/144/48 135/143/48
f 132/137/6 134/131/6 140/142/6 136/144/6
f 133/132/5 139/141/5 137/133/5
f 135/143/49 136/144/49 140/142/49 139/141/49
f 128/136/6 130/139/6 134/131/6 132/137/6
f 127/135/50 129/140/50 130/139/50 128/136/50
f 145/145/51 141/146/51 142/147/51 146/148/51
f 146/148/52 142/147/52 144/149/52 147/150/52
f 147/150/53 144/149/53 143/151/53 148/152/53
f 148/152/54 143/151/54 141/146/54 145/145/54
f 153/153/55 154/154/55 150/155/55 149/156/55
f 154/154/56 155/157/56 152/158/56 150/155/56
f 155/157/57 156/159/57 151/160/57 152/158/57
f 156/159/58 153/153/58 149/156/58 151/160/58
f 161/161/59 157/162/59 158/163/59 162/164/59
f 162/164/60 158/163/60 160/165/60 163/166/60
f 163/166/61 160/165/61 159/167/61 164/168/61
f 164/168/62 159/167/62 157/162/62 161/161/62
f 169/169/63 170/170/63 166/171/63 165/172/63
f 170/170/64 171/173/64 168/174/64 166/171/64
f 171/173/65 172/175/65 167/176/65 168/174/65
f 172/175/66 169/169/66 165/172/66 167/176/66
f 182/177/67 177/178/67 175/179/67 181/180/67
f 183/181/68 178/182/68 177/178/68 182/177/68
f 181/180/69 175/179/69 180/183/69 184/184/69
f 184/184/70 180/183/70 178/182/70 183/181/70
f 173/185/71 184/184/71 183/181/71 179/186/71
f 174/187/72 181/180/72 184/184/72 173/185/72
f 179/186/73 183/181/73 182/177/73 176/188/73
f 176/188/74 182/177/74 181/180/74 174/187/74
f 194/189/75 189/190/75 187/191/75 193/192/75
f 195/193/76 190/194/76 189/190/76 194/189/76
f 193/192/77 187/191/77 192/195/77 196/196/77
f 196/196/78 192/195/78 190/194/78 195/193/78
f 185/197/79 196/196/79 195/193/79 191/198/79
f 186/199/80 193/192/80 196/196/80 185/197/80
f 191/198/81 195/193/81 194/189/81 188/200/81
f 188/200/82 194/189/82 193/192/82 186/199/82
f 206/201/83 201/202/83 199/203/83 205/204/83
f 207/205/84 202/206/84 201/202/84 206/201/84
f 205/204/85 199/203/85 204/207/85 208/208/85
f 208/208/86 204/207/86 202/206/86 207/205/86
f 197/209/87 208/208/87 207/205/87 203/210/87
f 198/211/88 205/204/88 208/208/88 197/209/88
f 203/210/89 207/205/89 206/201/89 200/212/89
f 200/212/90 206/201/90 205/204/90 198/211/90
f 218/213/91 213/214/91 211/215/91 217/216/91
f 219/217/92 214/218/92 213/214/92 218/213/92
f 217/216/93 211/215/93 216/219/93 220/220/93
f 220/220/94 216/219/94 214/218/94 219/217/94
f 209/221/95 220/220/95 219/217/95 215/222/95
f 210/223/96 217/216/96 220/220/96 209/221/96
f 215/222/97 219/217/97 218/213/97 212/224/97
f 212/224/98 218/213/98 217/216/98 210/223/98
