# Blender v2.91.0 Beta OBJ File: 'deer.blend'
# www.blender.org
o Cube.002_Cube.005
v -3.637644 1.311919 0.006976
v -3.637644 -1.584535 0.006976
v -3.528820 -1.466238 0.006976
v -3.528820 1.193622 0.006976
v 3.528820 1.193622 0.006976
v 3.637644 1.311919 0.006976
v 3.637644 -1.584535 0.006976
v 3.528820 -1.466238 0.006976
v 3.622621 -5.253899 -0.000001
v 3.622621 2.000000 0.000000
v 3.736910 2.000000 -0.180017
v 3.736910 -5.253899 -0.180018
v 3.851198 -5.253899 -0.000001
v 3.851198 2.000000 0.000000
v 3.736910 2.000000 0.180017
v 3.736910 -5.253899 0.180016
v 3.768260 -1.554101 -0.093320
v -3.768260 -1.554101 -0.093320
v -3.768260 -1.554101 0.093320
v 3.768260 -1.554101 0.093320
v 3.736910 2.000000 0.000000
v 3.768260 1.412288 -0.093320
v 3.768260 1.412288 0.093320
v 3.768260 1.265625 0.093320
v 3.768260 1.265625 -0.093320
v -3.622621 2.000000 0.000000
v -3.736910 2.000000 0.000000
v -3.736910 2.000000 0.180017
v -3.736910 -5.253899 -0.180018
v -3.851198 -5.253899 -0.000001
v -3.851198 2.000000 0.000000
v -3.736910 2.000000 -0.180017
v 3.768260 -1.700764 0.093320
v 3.768260 -1.700764 -0.093320
v -3.768260 -1.700764 -0.093320
v -3.768260 -1.700764 0.093320
v -3.768260 1.412288 -0.093320
v -3.768260 1.412288 0.093320
v -3.768260 1.265625 0.093320
v -3.768260 1.265625 -0.093320
v 3.772961 1.451337 -0.052292
v 3.772961 1.226576 -0.052292
v 3.772961 1.226576 0.052292
v 3.772961 1.451337 0.052292
v 3.772961 -1.515052 -0.052292
v 3.772961 -1.739813 -0.052292
v 3.772961 -1.739813 0.052292
v 3.772961 -1.515052 0.052292
v 4.000000 1.451337 -0.052292
v 4.000000 1.451337 0.052292
v 4.000000 1.226576 0.052292
v 4.000000 1.226576 -0.052292
v 4.000000 -1.515052 -0.052292
v 4.000000 -1.515052 0.052292
v 4.000000 -1.739813 0.052292
v 4.000000 -1.739813 -0.052292
v -3.622621 -5.253899 -0.000001
v -3.736910 -5.253899 0.180016
v -3.772961 1.451337 -0.052292
v -3.772961 1.451337 0.052292
v -3.772961 1.226576 0.052292
v -3.772961 1.226576 -0.052292
v -3.772961 -1.515052 -0.052292
v -3.772961 -1.515052 0.052292
v -3.772961 -1.739813 0.052292
v -3.772961 -1.739813 -0.052292
v -4.000000 1.451337 -0.052292
v -4.000000 1.226576 -0.052292
v -4.000000 1.226576 0.052292
v -4.000000 1.451337 0.052292
v -4.000000 -1.515052 -0.052292
v -4.000000 -1.739813 -0.052292
v -4.000000 -1.739813 0.052292
v -4.000000 -1.515052 0.052292
vt 0.835938 0.414062
vt 0.835938 0.414062
vt 0.835938 0.414062
vt 0.835938 0.414062
vt 0.835938 0.414062
vt 0.835938 0.414062
vt 0.835938 0.414062
vt 0.835938 0.414062
vt 0.835938 0.414062
vt 0.835938 0.414062
vt 0.835938 0.414062
vt 0.835938 0.414062
vt 0.835938 0.414062
vt 0.835938 0.414062
vt 0.835938 0.414062
vt 0.835938 0.414062
vt 0.835938 0.414062
vt 0.835938 0.414062
vt 0.835938 0.414062
vt 0.835938 0.414062
vt 0.835938 0.414062
vt 0.835938 0.414062
vt 0.835938 0.414062
vt 0.835938 0.414062
vt 0.835938 0.414062
vt 0.835938 0.414062
vt 0.835938 0.414062
vt 0.835938 0.414062
vt 0.835938 0.414062
vt 0.835938 0.414062
vt 0.835938 0.414062
vt 0.835938 0.414062
vt 0.835938 0.414062
vt 0.835938 0.414062
vt 0.835938 0.414062
vt 0.835938 0.414062
vt 0.835938 0.414062
vt 0.835938 0.414062
vt 0.835938 0.414062
vt 0.835938 0.414062
vt 0.835938 0.414062
vt 0.835938 0.414062
vt 0.835938 0.414062
vt 0.835938 0.414062
vt 0.835938 0.414062
vt 0.835938 0.414062
vt 0.835938 0.414062
vt 0.835938 0.414062
vt 0.835938 0.414062
vt 0.835938 0.414062
vt 0.835938 0.414062
vt 0.835938 0.414062
vt 0.835938 0.414062
vt 0.835938 0.414062
vt 0.835938 0.414062
vt 0.835938 0.414062
vt 0.835938 0.414062
vt 0.835938 0.414062
vt 0.835938 0.414062
vt 0.835938 0.414062
vt 0.835938 0.414062
vt 0.835938 0.414062
vt 0.835938 0.414062
vt 0.835938 0.414062
vt 0.835938 0.414062
vt 0.835938 0.414062
vt 0.835938 0.414062
vt 0.835938 0.414062
vt 0.835938 0.414062
vt 0.835938 0.414062
vt 0.835938 0.414062
vt 0.835938 0.414062
vt 0.835938 0.414062
vt 0.835938 0.414062
vn -0.0000 -0.0000 1.0000
vn 0.0000 0.0000 -1.0000
vn -0.8442 0.0000 -0.5360
vn 0.8442 -0.0000 0.5360
vn 0.0000 1.0000 0.0000
vn 1.0000 0.0000 0.0000
vn 0.8442 0.0000 -0.5360
vn -0.8442 -0.0000 0.5360
vn 0.0000 -1.0000 0.0000
vn -1.0000 0.0000 0.0000
s off
f 2/1/1 4/2/1 1/3/1
f 4/2/1 6/4/1 1/3/1
f 7/5/1 3/6/1 2/1/1
f 8/7/2 6/4/2 7/5/2
f 2/1/1 3/6/1 4/2/1
f 4/2/1 5/8/1 6/4/1
f 7/5/1 8/7/1 3/6/1
f 8/7/2 5/8/2 6/4/2
s 1
f 10/9/3 12/10/3 9/11/3
f 14/12/4 16/13/4 13/14/4
f 18/15/5 20/16/5 17/17/5
f 21/18/5 15/19/5 14/12/5
f 22/20/6 24/21/6 25/22/6
f 26/23/5 27/24/5 28/25/5
f 30/26/3 32/27/3 29/28/3
f 17/17/6 33/29/6 34/30/6
f 11/31/5 21/18/5 14/12/5
f 11/31/7 13/14/7 12/10/7
f 15/19/8 9/11/8 16/13/8
f 11/31/5 10/9/5 21/18/5
f 10/9/5 15/19/5 21/18/5
f 35/32/2 17/17/2 34/30/2
f 19/33/1 33/29/1 20/16/1
f 37/34/5 23/35/5 22/20/5
f 38/36/1 24/21/1 23/35/1
f 40/37/2 22/20/2 25/22/2
f 39/38/9 25/22/9 24/21/9
f 41/39/10 43/40/10 44/41/10
f 45/42/10 47/43/10 48/44/10
f 50/45/6 52/46/6 49/47/6
f 54/48/6 56/49/6 53/50/6
f 45/42/2 56/49/2 46/51/2
f 42/52/9 51/53/9 43/40/9
f 41/39/2 52/46/2 42/52/2
f 48/44/5 53/50/5 45/42/5
f 47/43/1 54/48/1 48/44/1
f 44/41/5 49/47/5 41/39/5
f 43/40/1 50/45/1 44/41/1
f 46/51/9 55/54/9 47/43/9
f 29/28/7 26/23/7 57/55/7
f 27/24/5 31/56/5 28/25/5
f 58/57/8 31/56/8 30/26/8
f 57/55/4 28/25/4 58/57/4
f 32/27/5 27/24/5 26/23/5
f 37/34/10 39/38/10 38/36/10
f 18/15/10 36/58/10 19/33/10
f 32/27/5 31/56/5 27/24/5
f 60/59/6 62/60/6 59/61/6
f 64/62/6 66/63/6 63/64/6
f 67/65/10 69/66/10 70/67/10
f 71/68/10 73/69/10 74/70/10
f 72/71/2 63/64/2 66/63/2
f 69/66/9 62/60/9 61/72/9
f 68/73/2 59/61/2 62/60/2
f 71/68/5 64/62/5 63/64/5
f 74/70/1 65/74/1 64/62/1
f 67/65/5 60/59/5 59/61/5
f 70/67/1 61/72/1 60/59/1
f 73/69/9 66/63/9 65/74/9
f 10/9/3 11/31/3 12/10/3
f 14/12/4 15/19/4 16/13/4
f 18/15/5 19/33/5 20/16/5
f 22/20/6 23/35/6 24/21/6
f 30/26/3 31/56/3 32/27/3
f 17/17/6 20/16/6 33/29/6
f 11/31/7 14/12/7 13/14/7
f 15/19/8 10/9/8 9/11/8
f 35/32/2 18/15/2 17/17/2
f 19/33/1 36/58/1 33/29/1
f 37/34/5 38/36/5 23/35/5
f 38/36/1 39/38/1 24/21/1
f 40/37/2 37/34/2 22/20/2
f 39/38/9 40/37/9 25/22/9
f 41/39/10 42/52/10 43/40/10
f 45/42/10 46/51/10 47/43/10
f 50/45/6 51/53/6 52/46/6
f 54/48/6 55/54/6 56/49/6
f 45/42/2 53/50/2 56/49/2
f 42/52/9 52/46/9 51/53/9
f 41/39/2 49/47/2 52/46/2
f 48/44/5 54/48/5 53/50/5
f 47/43/1 55/54/1 54/48/1
f 44/41/5 50/45/5 49/47/5
f 43/40/1 51/53/1 50/45/1
f 46/51/9 56/49/9 55/54/9
f 29/28/7 32/27/7 26/23/7
f 58/57/8 28/25/8 31/56/8
f 57/55/4 26/23/4 28/25/4
f 37/34/10 40/37/10 39/38/10
f 18/15/10 35/32/10 36/58/10
f 60/59/6 61/72/6 62/60/6
f 64/62/6 65/74/6 66/63/6
f 67/65/10 68/73/10 69/66/10
f 71/68/10 72/71/10 73/69/10
f 72/71/2 71/68/2 63/64/2
f 69/66/9 68/73/9 62/60/9
f 68/73/2 67/65/2 59/61/2
f 71/68/5 74/70/5 64/62/5
f 74/70/1 73/69/1 65/74/1
f 67/65/5 70/67/5 60/59/5
f 70/67/1 69/66/1 61/72/1
f 73/69/9 72/71/9 66/63/9
o Cube.002_Cube.001_Cube.002_Cube.002
v 3.528820 -1.301089 0.024790
v 3.528820 -1.256439 0.024790
v -3.528820 -1.256439 0.024790
v -3.528820 -1.301089 0.024790
v 3.528820 -1.301089 -0.024790
v 3.528820 -1.256439 -0.024790
v -3.528820 -1.256439 -0.024790
v -3.528820 -1.301089 -0.024790
v 3.528820 -0.975144 0.024790
v 3.528820 -0.930494 0.024790
v -3.528820 -0.930494 0.024790
v -3.528820 -0.975144 0.024790
v 3.528820 -0.975144 -0.024790
v 3.528820 -0.930494 -0.024790
v -3.528820 -0.930494 -0.024790
v -3.528820 -0.975144 -0.024790
v 3.528820 -0.649199 0.024790
v 3.528820 -0.604549 0.024790
v -3.528820 -0.604549 0.024790
v -3.528820 -0.649199 0.024790
v 3.528820 -0.649199 -0.024790
v 3.528820 -0.604549 -0.024790
v -3.528820 -0.604549 -0.024790
v -3.528820 -0.649199 -0.024790
v 3.528820 -0.323254 0.024790
v 3.528820 -0.278605 0.024790
v -3.528820 -0.278605 0.024790
v -3.528820 -0.323254 0.024790
v 3.528820 -0.323254 -0.024790
v 3.528820 -0.278605 -0.024790
v -3.528820 -0.278605 -0.024790
v -3.528820 -0.323254 -0.024790
v 3.528820 0.002690 0.024790
v 3.528820 0.047340 0.024790
v -3.528820 0.047340 0.024790
v -3.528820 0.002690 0.024790
v 3.528820 0.002690 -0.024790
v 3.528820 0.047340 -0.024790
v -3.528820 0.047340 -0.024790
v -3.528820 0.002690 -0.024790
v 3.528820 0.328635 0.024790
v 3.528820 0.373285 0.024790
v -3.528820 0.373285 0.024790
v -3.528820 0.328635 0.024790
v 3.528820 0.328635 -0.024790
v 3.528820 0.373285 -0.024790
v -3.528820 0.373285 -0.024790
v -3.528820 0.328635 -0.024790
v 3.528820 0.654580 0.024790
v 3.528820 0.699229 0.024790
v -3.528820 0.699229 0.024790
v -3.528820 0.654580 0.024790
v 3.528820 0.654580 -0.024790
v 3.528820 0.699229 -0.024790
v -3.528820 0.699229 -0.024790
v -3.528820 0.654580 -0.024790
v 3.528820 0.980524 0.024790
v 3.528820 1.025174 0.024790
v -3.528820 1.025174 0.024790
v -3.528820 0.980524 0.024790
v 3.528820 0.980524 -0.024790
v 3.528820 1.025174 -0.024790
v -3.528820 1.025174 -0.024790
v -3.528820 0.980524 -0.024790
vt 0.835938 0.398438
vt 0.835938 0.398438
vt 0.835938 0.398438
vt 0.835938 0.398438
vt 0.835938 0.398438
vt 0.835938 0.398438
vt 0.835938 0.398438
vt 0.835938 0.398438
vt 0.835938 0.398438
vt 0.835938 0.398438
vt 0.835938 0.398438
vt 0.835938 0.398438
vt 0.835938 0.398438
vt 0.835938 0.398438
vt 0.835938 0.398438
vt 0.835938 0.398438
vt 0.835938 0.398438
vt 0.835938 0.398438
vt 0.835938 0.398438
vt 0.835938 0.398438
vt 0.835938 0.398438
vt 0.835938 0.398438
vt 0.835938 0.398438
vt 0.835938 0.398438
vt 0.835938 0.398438
vt 0.835938 0.398438
vt 0.835938 0.398438
vt 0.835938 0.398438
vt 0.835938 0.398438
vt 0.835938 0.398438
vt 0.835938 0.398438
vt 0.835938 0.398438
vt 0.835938 0.398438
vt 0.835938 0.398438
vt 0.835938 0.398438
vt 0.835938 0.398438
vt 0.835938 0.398438
vt 0.835938 0.398438
vt 0.835938 0.398438
vt 0.835938 0.398438
vt 0.835938 0.398438
vt 0.835938 0.398438
vt 0.835938 0.398438
vt 0.835938 0.398438
vt 0.835938 0.398438
vt 0.835938 0.398438
vt 0.835938 0.398438
vt 0.835938 0.398438
vt 0.835938 0.398438
vt 0.835938 0.398438
vt 0.835938 0.398438
vt 0.835938 0.398438
vt 0.835938 0.398438
vt 0.835938 0.398438
vt 0.835938 0.398438
vt 0.835938 0.398438
vt 0.835938 0.398438
vt 0.835938 0.398438
vt 0.835938 0.398438
vt 0.835938 0.398438
vt 0.835938 0.398438
vt 0.835938 0.398438
vt 0.835938 0.398438
vt 0.835938 0.398438
vn 0.0000 -0.0000 1.0000
vn 0.0000 -0.0000 -1.0000
s off
f 78/75/11 76/76/11 77/77/11
f 80/78/12 82/79/12 81/80/12
f 86/81/11 84/82/11 85/83/11
f 88/84/12 90/85/12 89/86/12
f 94/87/11 92/88/11 93/89/11
f 96/90/12 98/91/12 97/92/12
f 102/93/11 100/94/11 101/95/11
f 104/96/12 106/97/12 105/98/12
f 110/99/11 108/100/11 109/101/11
f 112/102/12 114/103/12 113/104/12
f 118/105/11 116/106/11 117/107/11
f 120/108/12 122/109/12 121/110/12
f 126/111/11 124/112/11 125/113/11
f 128/114/12 130/115/12 129/116/12
f 134/117/11 132/118/11 133/119/11
f 136/120/12 138/121/12 137/122/12
f 78/75/11 75/123/11 76/76/11
f 80/78/12 79/124/12 82/79/12
f 86/81/11 83/125/11 84/82/11
f 88/84/12 87/126/12 90/85/12
f 94/87/11 91/127/11 92/88/11
f 96/90/12 95/128/12 98/91/12
f 102/93/11 99/129/11 100/94/11
f 104/96/12 103/130/12 106/97/12
f 110/99/11 107/131/11 108/100/11
f 112/102/12 111/132/12 114/103/12
f 118/105/11 115/133/11 116/106/11
f 120/108/12 119/134/12 122/109/12
f 126/111/11 123/135/11 124/112/11
f 128/114/12 127/136/12 130/115/12
f 134/117/11 131/137/11 132/118/11
f 136/120/12 135/138/12 138/121/12
o Cube.002_Cube.002_Cube.002_Cube.003
v -3.269367 1.232443 0.024791
v -3.314017 1.232442 0.024791
v -3.314016 -1.521870 0.024790
v -3.269366 -1.521870 0.024790
v -3.269367 1.232443 -0.024791
v -3.314017 1.232442 -0.024791
v -3.314016 -1.521870 -0.024790
v -3.269366 -1.521870 -0.024790
v -2.313850 1.232443 0.024791
v -2.358500 1.232442 0.024791
v -2.358499 -1.521870 0.024790
v -2.313849 -1.521870 0.024790
v -2.313850 1.232443 -0.024791
v -2.358500 1.232442 -0.024791
v -2.358499 -1.521870 -0.024790
v -2.313849 -1.521870 -0.024790
v -1.358333 1.232443 0.024791
v -1.402983 1.232442 0.024791
v -1.402983 -1.521870 0.024790
v -1.358333 -1.521870 0.024790
v -1.358333 1.232443 -0.024791
v -1.402983 1.232442 -0.024791
v -1.402983 -1.521870 -0.024790
v -1.358333 -1.521870 -0.024790
v -0.402816 1.232443 0.024791
v -0.447466 1.232442 0.024791
v -0.447466 -1.521870 0.024790
v -0.402816 -1.521870 0.024790
v -0.402816 1.232443 -0.024791
v -0.447466 1.232442 -0.024791
v -0.447466 -1.521870 -0.024790
v -0.402816 -1.521870 -0.024790
v 0.552701 1.232443 0.024791
v 0.508050 1.232442 0.024791
v 0.508051 -1.521870 0.024790
v 0.552701 -1.521870 0.024790
v 0.552701 1.232443 -0.024791
v 0.508050 1.232442 -0.024791
v 0.508051 -1.521870 -0.024790
v 0.552701 -1.521870 -0.024790
v 1.508217 1.232443 0.024791
v 1.463567 1.232442 0.024791
v 1.463567 -1.521870 0.024790
v 1.508217 -1.521870 0.024790
v 1.508217 1.232443 -0.024791
v 1.463567 1.232442 -0.024791
v 1.463567 -1.521870 -0.024790
v 1.508217 -1.521870 -0.024790
v 2.463734 1.232443 0.024791
v 2.419084 1.232442 0.024791
v 2.419084 -1.521870 0.024790
v 2.463734 -1.521870 0.024790
v 2.463734 1.232443 -0.024791
v 2.419084 1.232442 -0.024791
v 2.419084 -1.521870 -0.024790
v 2.463734 -1.521870 -0.024790
v 3.419251 1.232443 0.024791
v 3.374601 1.232442 0.024791
v 3.374601 -1.521870 0.024790
v 3.419251 -1.521870 0.024790
v 3.419251 1.232443 -0.024791
v 3.374601 1.232442 -0.024791
v 3.374601 -1.521870 -0.024790
v 3.419251 -1.521870 -0.024790
vt 0.835938 0.398438
vt 0.835938 0.398438
vt 0.835938 0.398438
vt 0.835938 0.398438
vt 0.835938 0.398438
vt 0.835938 0.398438
vt 0.835938 0.398438
vt 0.835938 0.398438
vt 0.835938 0.398438
vt 0.835938 0.398438
vt 0.835938 0.398438
vt 0.835938 0.398438
vt 0.835938 0.398438
vt 0.835938 0.398438
vt 0.835938 0.398438
vt 0.835938 0.398438
vt 0.835938 0.398438
vt 0.835938 0.398438
vt 0.835938 0.398438
vt 0.835938 0.398438
vt 0.835938 0.398438
vt 0.835938 0.398438
vt 0.835938 0.398438
vt 0.835938 0.398438
vt 0.835938 0.398438
vt 0.835938 0.398438
vt 0.835938 0.398438
vt 0.835938 0.398438
vt 0.835938 0.398438
vt 0.835938 0.398438
vt 0.835938 0.398438
vt 0.835938 0.398438
vt 0.835938 0.398438
vt 0.835938 0.398438
vt 0.835938 0.398438
vt 0.835938 0.398438
vt 0.835938 0.398438
vt 0.835938 0.398438
vt 0.835938 0.398438
vt 0.835938 0.398438
vt 0.835938 0.398438
vt 0.835938 0.398438
vt 0.835938 0.398438
vt 0.835938 0.398438
vt 0.835938 0.398438
vt 0.835938 0.398438
vt 0.835938 0.398438
vt 0.835938 0.398438
vt 0.835938 0.398438
vt 0.835938 0.398438
vt 0.835938 0.398438
vt 0.835938 0.398438
vt 0.835938 0.398438
vt 0.835938 0.398438
vt 0.835938 0.398438
vt 0.835938 0.398438
vt 0.835938 0.398438
vt 0.835938 0.398438
vt 0.835938 0.398438
vt 0.835938 0.398438
vt 0.835938 0.398438
vt 0.835938 0.398438
vt 0.835938 0.398438
vt 0.835938 0.398438
vn 0.0000 -0.0000 1.0000
vn 0.0000 -0.0000 -1.0000
s off
f 142/139/13 140/140/13 141/141/13
f 144/142/14 146/143/14 145/144/14
f 150/145/13 148/146/13 149/147/13
f 152/148/14 154/149/14 153/150/14
f 158/151/13 156/152/13 157/153/13
f 160/154/14 162/155/14 161/156/14
f 166/157/13 164/158/13 165/159/13
f 168/160/14 170/161/14 169/162/14
f 174/163/13 172/164/13 173/165/13
f 176/166/14 178/167/14 177/168/14
f 182/169/13 180/170/13 181/171/13
f 184/172/14 186/173/14 185/174/14
f 190/175/13 188/176/13 189/177/13
f 192/178/14 194/179/14 193/180/14
f 198/181/13 196/182/13 197/183/13
f 200/184/14 202/185/14 201/186/14
f 142/139/13 139/187/13 140/140/13
f 144/142/14 143/188/14 146/143/14
f 150/145/13 147/189/13 148/146/13
f 152/148/14 151/190/14 154/149/14
f 158/151/13 155/191/13 156/152/13
f 160/154/14 159/192/14 162/155/14
f 166/157/13 163/193/13 164/158/13
f 168/160/14 167/194/14 170/161/14
f 174/163/13 171/195/13 172/164/13
f 176/166/14 175/196/14 178/167/14
f 182/169/13 179/197/13 180/170/13
f 184/172/14 183/198/14 186/173/14
f 190/175/13 187/199/13 188/176/13
f 192/178/14 191/200/14 194/179/14
f 198/181/13 195/201/13 196/182/13
f 200/184/14 199/202/14 202/185/14
