# Blender v2.91.0 Beta OBJ File: 'deer.blend'
# www.blender.org
o Text.002
v 4.164119 8.177152 0.060981
v 4.164119 -0.173756 -0.060980
v 4.164119 -0.173756 0.060980
v 4.164119 8.177152 -0.060979
v 4.286081 -0.173756 -0.060980
v 4.286081 8.177152 -0.060979
v 4.286081 -0.173756 0.060980
v 4.286081 8.177152 0.060981
v -4.164121 -0.173756 -0.060980
v -4.164121 8.177152 0.060981
v -4.164121 -0.173756 0.060980
v -4.286082 -0.173756 -0.060980
v -4.164121 8.177152 -0.060979
v -4.286082 8.177152 0.060981
v -4.286082 8.177152 -0.060979
v 4.182586 7.979602 -0.037111
v 4.182586 7.857641 0.037114
v 4.182586 7.857641 -0.037111
v -4.286082 -0.173756 0.060980
v 0.000000 6.015363 -0.037111
v 4.182586 6.137324 -0.037111
v 4.182586 6.015363 -0.037111
v -4.182587 7.857641 -0.037111
v 0.000000 7.979602 -0.037111
v 0.000000 7.857641 -0.037111
v 0.000000 6.015363 0.037114
v -4.182587 6.015363 -0.037111
v 4.182586 6.137324 0.037114
v 4.182586 6.015363 0.037114
v 0.000000 6.137324 0.037114
v 0.000000 7.979602 0.037114
v 0.000000 7.857641 0.037114
v 4.182586 7.979602 0.037114
v -4.182587 6.137324 0.037114
v -4.182587 7.979602 -0.037111
v -4.182587 7.857641 0.037114
v -4.182587 6.137324 -0.037111
v -4.182587 7.979602 0.037114
v 0.000000 6.137324 -0.037111
v -4.182587 6.015363 0.037114
v 1.800780 7.930241 0.073638
v 2.389050 7.983779 0.073638
v 2.961385 7.933215 0.073638
v 3.369497 7.781522 0.073638
v 1.400023 7.776763 0.073638
v 3.553331 7.561420 0.073638
v 1.223542 7.556067 0.073638
v 2.398124 7.610900 0.073638
v 2.129029 7.582694 0.073638
v 2.672548 7.576057 0.073638
v 2.739157 6.593275 0.073638
v 3.582744 7.145011 0.073638
v 3.582744 6.815453 0.073638
v -2.893113 7.557851 0.073638
v -2.554859 6.402612 0.073638
v -3.687276 6.296725 0.073638
v 2.739157 6.593275 0.227300
v 3.582744 7.145011 0.227300
v 2.739157 7.416224 0.227300
v 2.398124 7.610900 0.227300
v 3.553331 7.561420 0.227300
v 1.400023 7.776763 0.227300
v -1.547449 7.145011 0.073638
v -0.707026 6.580001 0.073638
v -1.547449 6.815453 0.073638
v -0.003646 6.593275 0.073638
v 0.839942 7.145011 0.073638
v 0.839942 6.815453 0.073638
v 3.369497 7.781522 0.227300
v 1.800780 7.930241 0.227300
v 1.223542 7.556067 0.227300
v 1.224767 6.399043 0.073638
v 1.195354 6.815453 0.073638
v 2.035777 6.580001 0.073638
v 3.554557 6.404397 0.073638
v -1.334201 6.178941 0.073638
v -0.645746 6.387537 0.073638
v -0.003646 7.416224 0.073638
v 0.810528 7.561420 0.073638
v 1.224767 6.399043 0.227300
v 2.035777 6.580001 0.227300
v 1.195354 6.815453 0.227300
v -0.707026 6.580001 0.227300
v -1.547449 7.145011 0.227300
v -1.547449 6.815453 0.227300
v 2.382138 6.351035 0.073638
v 2.675213 6.393068 0.073638
v 3.378076 6.183700 0.073638
v 1.408602 6.178941 0.073638
v 2.097057 6.387537 0.073638
v 2.977318 6.030223 0.073638
v 1.816713 6.027248 0.073638
v 2.389050 5.976685 0.073638
v -0.942022 7.930241 0.073638
v -0.353753 7.983779 0.073638
v 0.218583 7.933215 0.073638
v 0.626694 7.781522 0.073638
v -1.342780 7.776763 0.073638
v -1.519261 7.556067 0.073638
v -0.344679 7.610900 0.073638
v -0.613775 7.582694 0.073638
v -0.070255 7.576057 0.073638
v 2.035777 7.416224 0.073638
v 1.195354 7.145011 0.073638
v 2.739157 7.416224 0.073638
v -2.554859 6.402612 0.227300
v -2.893113 7.557851 0.227300
v -3.687276 6.296725 0.227300
v 2.129029 7.582694 0.227300
v 2.961385 7.933215 0.227300
v 2.389050 7.983779 0.227300
v -1.518035 6.399043 0.073638
v 0.811754 6.404397 0.073638
v 3.554557 6.404397 0.227300
v 3.582744 6.815453 0.227300
v -0.003646 6.593275 0.227300
v 0.839942 7.145011 0.227300
v -0.003646 7.416224 0.227300
v -0.360665 6.351035 0.073638
v -0.067590 6.393068 0.073638
v 0.635273 6.183700 0.073638
v 0.234515 6.030223 0.073638
v -0.926090 6.027248 0.073638
v -0.353753 5.976685 0.073638
v -1.785207 6.017136 0.073638
v -3.687276 6.017136 0.073638
v 0.810528 7.561420 0.227300
v -0.070255 7.576057 0.227300
v -3.594133 7.557851 0.073638
v -1.785207 7.557851 0.073638
v -0.707026 7.416224 0.073638
v 2.672548 7.576057 0.227300
v -1.785207 6.402612 0.073638
v -1.334201 6.178941 0.227300
v -1.518035 6.399043 0.227300
v -3.594133 7.943327 0.073638
v 2.382138 6.351035 0.227300
v 3.378076 6.183700 0.227300
v 2.675213 6.393068 0.227300
v 1.408602 6.178941 0.227300
v 2.097057 6.387537 0.227300
v 2.977318 6.030223 0.227300
v 1.816713 6.027248 0.227300
v 2.389050 5.976685 0.227300
v -0.942022 7.930241 0.227300
v 0.218583 7.933215 0.227300
v -0.353753 7.983779 0.227300
v 0.626694 7.781522 0.227300
v -1.342780 7.776763 0.227300
v -1.519261 7.556067 0.227300
v -0.344679 7.610900 0.227300
v -0.613775 7.582694 0.227300
v 2.035777 7.416224 0.227300
v 1.195354 7.145011 0.227300
v 0.811754 6.404397 0.227300
v 0.839942 6.815453 0.227300
v -0.360665 6.351035 0.227300
v 0.635273 6.183700 0.227300
v -0.067590 6.393068 0.227300
v -0.645746 6.387537 0.227300
v 0.234515 6.030223 0.227300
v -0.926090 6.027248 0.227300
v -0.353753 5.976685 0.227300
v -1.785207 6.017136 0.227300
v -3.687276 6.017136 0.227300
v -1.785207 7.557851 0.227300
v -3.594133 7.557851 0.227300
v -0.707026 7.416224 0.227300
v -1.785207 6.402612 0.227300
v -3.594133 7.943327 0.227300
v -1.785207 7.943327 0.227300
v -1.785207 7.943327 0.073638
vt 0.195312 0.835938
vt 0.195312 0.835938
vt 0.195312 0.835938
vt 0.195312 0.835938
vt 0.195312 0.835938
vt 0.195312 0.835938
vt 0.195312 0.835938
vt 0.195312 0.835938
vt 0.195312 0.835938
vt 0.195312 0.835938
vt 0.195312 0.835938
vt 0.195312 0.835938
vt 0.195312 0.835938
vt 0.195312 0.835938
vt 0.195312 0.835938
vt 0.195312 0.835938
vt 0.195312 0.835938
vt 0.195312 0.835938
vt 0.195312 0.835938
vt 0.195312 0.835938
vt 0.195312 0.835938
vt 0.195312 0.835938
vt 0.195312 0.835938
vt 0.195312 0.835938
vt 0.195312 0.835938
vt 0.195312 0.835938
vt 0.195312 0.835938
vt 0.195312 0.835938
vt 0.195312 0.835938
vt 0.195312 0.835938
vt 0.195312 0.835938
vt 0.195312 0.835938
vt 0.195312 0.835938
vt 0.195312 0.835938
vt 0.195312 0.835938
vt 0.195312 0.835938
vt 0.195312 0.835938
vt 0.195312 0.835938
vt 0.195312 0.835938
vt 0.195312 0.835938
vt 0.039062 0.757812
vt 0.039062 0.757812
vt 0.039062 0.757812
vt 0.039062 0.757812
vt 0.039062 0.757812
vt 0.039062 0.757812
vt 0.039062 0.757812
vt 0.039062 0.757812
vt 0.039062 0.757812
vt 0.039062 0.757812
vt 0.039062 0.757812
vt 0.039062 0.757812
vt 0.039062 0.757812
vt 0.039062 0.757812
vt 0.039062 0.757812
vt 0.039062 0.757812
vt 0.039062 0.757812
vt 0.039062 0.757812
vt 0.039062 0.757812
vt 0.039062 0.757812
vt 0.039062 0.757812
vt 0.039062 0.757812
vt 0.039062 0.757812
vt 0.039062 0.757812
vt 0.039062 0.757812
vt 0.039062 0.757812
vt 0.039062 0.757812
vt 0.039062 0.757812
vt 0.039062 0.757812
vt 0.039062 0.757812
vt 0.039062 0.757812
vt 0.039062 0.757812
vt 0.039062 0.757812
vt 0.039062 0.757812
vt 0.039062 0.757812
vt 0.039062 0.757812
vt 0.039062 0.757812
vt 0.039062 0.757812
vt 0.039062 0.757812
vt 0.039062 0.757812
vt 0.039062 0.757812
vt 0.039062 0.757812
vt 0.039062 0.757812
vt 0.039062 0.757812
vt 0.039062 0.757812
vt 0.039062 0.757812
vt 0.039062 0.757812
vt 0.039062 0.757812
vt 0.039062 0.757812
vt 0.039062 0.757812
vt 0.039062 0.757812
vt 0.039062 0.757812
vt 0.039062 0.757812
vt 0.039062 0.757812
vt 0.039062 0.757812
vt 0.039062 0.757812
vt 0.039062 0.757812
vt 0.039062 0.757812
vt 0.039062 0.757812
vt 0.039062 0.757812
vt 0.039062 0.757812
vt 0.039062 0.757812
vt 0.039062 0.757812
vt 0.039062 0.757812
vt 0.039062 0.757812
vt 0.039062 0.757812
vt 0.039062 0.757812
vt 0.039062 0.757812
vt 0.039062 0.757812
vt 0.039062 0.757812
vt 0.039062 0.757812
vt 0.039062 0.757812
vt 0.039062 0.757812
vt 0.039062 0.757812
vt 0.039062 0.757812
vt 0.039062 0.757812
vt 0.039062 0.757812
vt 0.039062 0.757812
vt 0.039062 0.757812
vt 0.039062 0.757812
vt 0.039062 0.757812
vt 0.039062 0.757812
vt 0.039062 0.757812
vt 0.039062 0.757812
vt 0.039062 0.757812
vt 0.039062 0.757812
vt 0.039062 0.757812
vt 0.039062 0.757812
vt 0.039062 0.757812
vt 0.039062 0.757812
vt 0.039062 0.757812
vt 0.039062 0.757812
vt 0.039062 0.757812
vt 0.039062 0.757812
vt 0.039062 0.757812
vt 0.039062 0.757812
vt 0.039062 0.757812
vt 0.039062 0.757812
vt 0.039062 0.757812
vt 0.039062 0.757812
vt 0.039062 0.757812
vt 0.039062 0.757812
vt 0.039062 0.757812
vt 0.039062 0.757812
vt 0.039062 0.757812
vt 0.039062 0.757812
vt 0.039062 0.757812
vt 0.039062 0.757812
vt 0.039062 0.757812
vt 0.039062 0.757812
vt 0.039062 0.757812
vt 0.039062 0.757812
vt 0.039062 0.757812
vt 0.039062 0.757812
vt 0.039062 0.757812
vt 0.039062 0.757812
vt 0.039062 0.757812
vt 0.039062 0.757812
vt 0.039062 0.757812
vt 0.039062 0.757812
vt 0.039062 0.757812
vt 0.039062 0.757812
vt 0.039062 0.757812
vt 0.039062 0.757812
vt 0.039062 0.757812
vt 0.039062 0.757812
vt 0.039062 0.757812
vt 0.039062 0.757812
vt 0.039062 0.757812
vt 0.039062 0.757812
vt 0.039062 0.757812
vt 0.039062 0.757812
vn -1.0000 0.0000 0.0000
vn 0.0000 0.0000 -1.0000
vn 1.0000 0.0000 0.0000
vn 0.0000 -0.0000 1.0000
vn 0.0000 -1.0000 -0.0000
vn 0.0000 1.0000 0.0000
vn -0.5773 -0.8165 0.0000
vn -0.9275 -0.3739 0.0000
vn 0.9571 -0.2896 0.0000
vn 0.8322 -0.5544 0.0000
vn 0.9881 0.1535 0.0000
vn 0.9529 0.3034 0.0000
vn -0.0109 -0.9999 0.0000
vn 0.5500 -0.8352 0.0000
vn 0.9676 -0.2525 0.0000
vn -0.1260 -0.9920 0.0000
vn -0.0076 1.0000 0.0000
vn -0.1420 0.9899 0.0000
vn -0.9806 -0.1961 0.0000
vn -0.9231 -0.3847 0.0000
vn 0.9318 -0.3630 0.0000
vn 0.5900 -0.8074 0.0000
vn 0.1270 0.9919 0.0000
vn 0.9275 0.3739 0.0000
vn 0.9994 0.0353 0.0000
vn -0.9608 0.2773 0.0000
vn -0.9994 0.0342 0.0000
vn -0.9318 0.3630 0.0000
vn 0.2263 -0.9741 0.0000
vn -0.2202 -0.9755 0.0000
vn -0.2263 0.9741 0.0000
vn -0.0013 1.0000 0.0000
vn -0.9881 0.1540 0.0000
vn 0.0013 -1.0000 0.0000
vn 0.2202 0.9755 0.0000
vn -0.9994 -0.0353 0.0000
vn 0.5773 0.8165 0.0000
vn -0.5900 0.8074 0.0000
vn 0.9994 -0.0342 0.0000
vn -0.9526 0.3042 0.0000
vn -0.8462 0.5329 0.0000
s off
f 1/1/1 2/2/1 3/3/1
f 4/4/2 5/5/2 2/2/2
f 6/6/3 7/7/3 5/5/3
f 8/8/4 3/3/4 7/7/4
f 5/5/5 3/3/5 2/2/5
f 4/4/6 8/8/6 6/6/6
f 9/9/3 10/10/3 11/11/3
f 12/12/2 13/13/2 9/9/2
f 11/11/5 12/12/5 9/9/5
f 14/14/6 13/13/6 15/15/6
f 16/16/3 17/17/3 18/18/3
f 19/19/1 15/15/1 12/12/1
f 11/11/4 14/14/4 19/19/4
f 20/20/2 21/21/2 22/22/2
f 23/23/2 24/24/2 25/25/2
f 26/26/5 27/27/5 20/20/5
f 22/22/3 28/28/3 29/29/3
f 20/20/5 29/29/5 26/26/5
f 26/26/4 28/28/4 30/30/4
f 31/31/6 16/16/6 24/24/6
f 24/24/2 18/18/2 25/25/2
f 25/25/5 17/17/5 32/32/5
f 32/32/4 33/33/4 31/31/4
f 34/34/4 26/26/4 30/30/4
f 35/35/6 31/31/6 24/24/6
f 36/36/5 25/25/5 32/32/5
f 37/37/2 20/20/2 27/27/2
f 36/36/1 35/35/1 23/23/1
f 27/27/1 34/34/1 37/37/1
f 38/38/4 32/32/4 31/31/4
f 39/39/6 28/28/6 21/21/6
f 34/34/6 39/39/6 37/37/6
f 1/1/1 4/4/1 2/2/1
f 4/4/2 6/6/2 5/5/2
f 6/6/3 8/8/3 7/7/3
f 8/8/4 1/1/4 3/3/4
f 5/5/5 7/7/5 3/3/5
f 4/4/6 1/1/6 8/8/6
f 9/9/3 13/13/3 10/10/3
f 12/12/2 15/15/2 13/13/2
f 11/11/5 19/19/5 12/12/5
f 14/14/6 10/10/6 13/13/6
f 16/16/3 33/33/3 17/17/3
f 19/19/1 14/14/1 15/15/1
f 11/11/4 10/10/4 14/14/4
f 20/20/2 39/39/2 21/21/2
f 23/23/2 35/35/2 24/24/2
f 26/26/5 40/40/5 27/27/5
f 22/22/3 21/21/3 28/28/3
f 20/20/5 22/22/5 29/29/5
f 26/26/4 29/29/4 28/28/4
f 31/31/6 33/33/6 16/16/6
f 24/24/2 16/16/2 18/18/2
f 25/25/5 18/18/5 17/17/5
f 32/32/4 17/17/4 33/33/4
f 34/34/4 40/40/4 26/26/4
f 35/35/6 38/38/6 31/31/6
f 36/36/5 23/23/5 25/25/5
f 37/37/2 39/39/2 20/20/2
f 36/36/1 38/38/1 35/35/1
f 27/27/1 40/40/1 34/34/1
f 38/38/4 36/36/4 32/32/4
f 39/39/6 30/30/6 28/28/6
f 34/34/6 30/30/6 39/39/6
s 1
f 41/41/2 42/42/2 43/43/2
f 41/41/2 43/43/2 44/44/2
f 45/45/2 41/41/2 44/44/2
f 45/45/2 44/44/2 46/46/2
f 47/47/2 45/45/2 48/48/2
f 48/48/2 45/45/2 46/46/2
f 47/47/2 48/48/2 49/49/2
f 50/50/2 48/48/2 46/46/2
f 51/51/2 52/52/2 53/53/2
f 54/54/2 55/55/2 56/56/2
f 57/57/4 58/58/4 59/59/4
f 60/60/4 61/61/4 62/62/4
f 63/63/2 64/64/2 65/65/2
f 66/66/2 67/67/2 68/68/2
f 62/62/4 69/69/4 70/70/4
f 71/71/4 60/60/4 62/62/4
f 72/72/2 73/73/2 74/74/2
f 51/51/2 53/53/2 75/75/2
f 76/76/2 64/64/2 77/77/2
f 78/78/2 79/79/2 67/67/2
f 80/80/4 81/81/4 82/82/4
f 83/83/4 84/84/4 85/85/4
f 86/86/2 87/87/2 88/88/2
f 89/89/2 90/90/2 86/86/2
f 89/89/2 86/86/2 88/88/2
f 89/89/2 88/88/2 91/91/2
f 92/92/2 89/89/2 91/91/2
f 92/92/2 91/91/2 93/93/2
f 94/94/2 95/95/2 96/96/2
f 94/94/2 96/96/2 97/97/2
f 98/98/2 94/94/2 97/97/2
f 98/98/2 97/97/2 79/79/2
f 99/99/2 98/98/2 100/100/2
f 100/100/2 98/98/2 79/79/2
f 99/99/2 100/100/2 101/101/2
f 102/102/2 100/100/2 79/79/2
f 47/47/2 103/103/2 104/104/2
f 105/105/2 46/46/2 52/52/2
f 106/106/4 107/107/4 108/108/4
f 71/71/4 109/109/4 60/60/4
f 70/70/4 110/110/4 111/111/4
f 104/104/2 74/74/2 73/73/2
f 70/70/4 69/69/4 110/110/4
f 62/62/4 61/61/4 69/69/4
f 112/112/2 65/65/2 64/64/2
f 66/66/2 68/68/2 113/113/2
f 51/51/2 88/88/2 87/87/2
f 89/89/2 74/74/2 90/90/2
f 57/57/4 114/114/4 115/115/4
f 116/116/4 117/117/4 118/118/4
f 119/119/2 120/120/2 121/121/2
f 76/76/2 77/77/2 119/119/2
f 76/76/2 119/119/2 121/121/2
f 76/76/2 121/121/2 122/122/2
f 123/123/2 76/76/2 122/122/2
f 123/123/2 122/122/2 124/124/2
f 56/56/2 125/125/2 126/126/2
f 118/118/4 127/127/4 128/128/4
f 54/54/4 129/129/4 130/130/4
f 99/99/2 131/131/2 63/63/2
f 132/132/4 61/61/4 60/60/4
f 56/56/2 55/55/2 133/133/2
f 66/66/2 121/121/2 120/120/2
f 134/134/4 83/83/4 135/135/4
f 136/136/2 130/130/2 129/129/2
f 137/137/4 138/138/4 139/139/4
f 140/140/4 137/137/4 141/141/4
f 140/140/4 138/138/4 137/137/4
f 140/140/4 142/142/4 138/138/4
f 143/143/4 142/142/4 140/140/4
f 143/143/4 144/144/4 142/142/4
f 145/145/4 146/146/4 147/147/4
f 145/145/4 148/148/4 146/146/4
f 149/149/4 148/148/4 145/145/4
f 149/149/4 127/127/4 148/148/4
f 150/150/4 151/151/4 149/149/4
f 151/151/4 127/127/4 149/149/4
f 150/150/4 152/152/4 151/151/4
f 128/128/4 127/127/4 151/151/4
f 153/153/4 71/71/4 154/154/4
f 59/59/4 61/61/4 132/132/4
f 81/81/4 154/154/4 82/82/4
f 135/135/4 83/83/4 85/85/4
f 116/116/4 155/155/4 156/156/4
f 138/138/4 57/57/4 139/139/4
f 140/140/4 81/81/4 80/80/4
f 157/157/4 158/158/4 159/159/4
f 134/134/4 157/157/4 160/160/4
f 134/134/4 158/158/4 157/157/4
f 134/134/4 161/161/4 158/158/4
f 162/162/4 161/161/4 134/134/4
f 162/162/4 163/163/4 161/161/4
f 164/164/4 108/108/4 165/165/4
f 107/107/4 166/166/4 167/167/4
f 168/168/4 150/150/4 84/84/4
f 108/108/4 169/169/4 106/106/4
f 158/158/4 116/116/4 159/159/4
f 166/166/4 170/170/4 167/167/4
f 89/89/7 80/80/8 72/72/8
f 130/130/9 106/106/10 55/55/10
f 64/64/11 160/160/12 77/77/12
f 100/100/13 152/152/14 101/101/14
f 49/49/14 153/153/15 103/103/15
f 102/102/16 151/151/13 100/100/13
f 86/86/17 139/139/18 87/87/18
f 105/105/19 132/132/20 50/50/20
f 55/55/6 169/169/6 133/133/6
f 113/113/21 158/158/22 121/121/22
f 76/76/7 135/135/8 112/112/8
f 133/133/3 164/164/3 125/125/3
f 101/101/14 168/168/15 131/131/15
f 90/90/23 137/137/17 86/86/17
f 46/46/24 58/58/25 52/52/25
f 126/126/1 108/108/26 56/56/26
f 119/119/17 159/159/18 120/120/18
f 78/78/19 128/128/20 102/102/20
f 104/104/27 71/71/28 47/47/28
f 125/125/5 165/165/5 126/126/5
f 88/88/22 142/142/29 91/91/29
f 77/77/23 157/157/17 119/119/17
f 79/79/24 117/117/25 67/67/25
f 92/92/30 140/140/7 89/89/7
f 103/103/15 81/81/11 74/74/11
f 41/41/31 111/111/32 42/42/32
f 63/63/27 150/150/28 99/99/28
f 51/51/33 59/59/19 105/105/19
f 93/93/34 143/143/30 92/92/30
f 42/42/32 110/110/35 43/43/35
f 121/121/22 161/161/29 122/122/29
f 91/91/29 144/144/34 93/93/34
f 73/73/36 154/154/27 104/104/27
f 123/123/30 134/134/7 76/76/7
f 131/131/15 83/83/11 64/64/11
f 94/94/31 147/147/32 95/95/32
f 44/44/37 110/110/35 69/69/37
f 66/66/33 118/118/19 78/78/19
f 41/41/31 62/62/38 70/70/31
f 124/124/34 162/162/30 123/123/30
f 95/95/32 146/146/35 96/96/35
f 52/52/25 115/115/39 53/53/39
f 122/122/29 163/163/34 124/124/34
f 65/65/36 84/84/27 63/63/27
f 72/72/8 82/82/36 73/73/36
f 129/129/1 170/170/1 136/136/1
f 97/97/37 146/146/35 148/148/37
f 44/44/37 61/61/24 46/46/24
f 98/98/38 145/145/31 94/94/31
f 45/45/38 71/71/28 62/62/38
f 136/136/6 171/171/6 172/172/6
f 67/67/25 156/156/39 68/68/39
f 75/75/21 115/115/39 114/114/21
f 112/112/8 85/85/36 65/65/36
f 87/87/40 57/57/33 51/51/33
f 172/172/3 166/166/9 130/130/9
f 97/97/37 127/127/24 79/79/24
f 54/54/5 167/167/5 129/129/5
f 99/99/28 149/149/38 98/98/38
f 113/113/21 156/156/39 155/155/21
f 74/74/11 141/141/12 90/90/12
f 48/48/13 109/109/14 49/49/14
f 56/56/26 107/107/41 54/54/41
f 120/120/40 116/116/33 66/66/33
f 50/50/16 60/60/13 48/48/13
f 75/75/21 138/138/22 88/88/22
f 51/51/2 105/105/2 52/52/2
f 54/54/2 130/130/2 55/55/2
f 57/57/4 115/115/4 58/58/4
f 63/63/2 131/131/2 64/64/2
f 66/66/2 78/78/2 67/67/2
f 76/76/2 112/112/2 64/64/2
f 78/78/2 102/102/2 79/79/2
f 83/83/4 168/168/4 84/84/4
f 47/47/2 49/49/2 103/103/2
f 105/105/2 50/50/2 46/46/2
f 106/106/4 166/166/4 107/107/4
f 104/104/2 103/103/2 74/74/2
f 51/51/2 75/75/2 88/88/2
f 89/89/2 72/72/2 74/74/2
f 116/116/4 156/156/4 117/117/4
f 56/56/2 133/133/2 125/125/2
f 118/118/4 117/117/4 127/127/4
f 99/99/2 101/101/2 131/131/2
f 66/66/2 113/113/2 121/121/2
f 134/134/4 160/160/4 83/83/4
f 136/136/2 172/172/2 130/130/2
f 153/153/4 109/109/4 71/71/4
f 59/59/4 58/58/4 61/61/4
f 81/81/4 153/153/4 154/154/4
f 138/138/4 114/114/4 57/57/4
f 140/140/4 141/141/4 81/81/4
f 164/164/4 169/169/4 108/108/4
f 168/168/4 152/152/4 150/150/4
f 158/158/4 155/155/4 116/116/4
f 166/166/4 171/171/4 170/170/4
f 89/89/7 140/140/7 80/80/8
f 130/130/9 166/166/9 106/106/10
f 64/64/11 83/83/11 160/160/12
f 100/100/13 151/151/13 152/152/14
f 49/49/14 109/109/14 153/153/15
f 102/102/16 128/128/16 151/151/13
f 86/86/17 137/137/17 139/139/18
f 105/105/19 59/59/19 132/132/20
f 55/55/6 106/106/6 169/169/6
f 113/113/21 155/155/21 158/158/22
f 76/76/7 134/134/7 135/135/8
f 133/133/3 169/169/3 164/164/3
f 101/101/14 152/152/14 168/168/15
f 90/90/23 141/141/23 137/137/17
f 46/46/24 61/61/24 58/58/25
f 126/126/1 165/165/1 108/108/26
f 119/119/17 157/157/17 159/159/18
f 78/78/19 118/118/19 128/128/20
f 104/104/27 154/154/27 71/71/28
f 125/125/5 164/164/5 165/165/5
f 88/88/22 138/138/22 142/142/29
f 77/77/23 160/160/23 157/157/17
f 79/79/24 127/127/24 117/117/25
f 92/92/30 143/143/30 140/140/7
f 103/103/15 153/153/15 81/81/11
f 41/41/31 70/70/31 111/111/32
f 63/63/27 84/84/27 150/150/28
f 51/51/33 57/57/33 59/59/19
f 93/93/34 144/144/34 143/143/30
f 42/42/32 111/111/32 110/110/35
f 121/121/22 158/158/22 161/161/29
f 91/91/29 142/142/29 144/144/34
f 73/73/36 82/82/36 154/154/27
f 123/123/30 162/162/30 134/134/7
f 131/131/15 168/168/15 83/83/11
f 94/94/31 145/145/31 147/147/32
f 44/44/37 43/43/35 110/110/35
f 66/66/33 116/116/33 118/118/19
f 41/41/31 45/45/38 62/62/38
f 124/124/34 163/163/34 162/162/30
f 95/95/32 147/147/32 146/146/35
f 52/52/25 58/58/25 115/115/39
f 122/122/29 161/161/29 163/163/34
f 65/65/36 85/85/36 84/84/27
f 72/72/8 80/80/8 82/82/36
f 129/129/1 167/167/1 170/170/1
f 97/97/37 96/96/35 146/146/35
f 44/44/37 69/69/37 61/61/24
f 98/98/38 149/149/38 145/145/31
f 45/45/38 47/47/28 71/71/28
f 136/136/6 170/170/6 171/171/6
f 67/67/25 117/117/25 156/156/39
f 75/75/21 53/53/39 115/115/39
f 112/112/8 135/135/8 85/85/36
f 87/87/40 139/139/40 57/57/33
f 172/172/3 171/171/3 166/166/9
f 97/97/37 148/148/37 127/127/24
f 54/54/5 107/107/5 167/167/5
f 99/99/28 150/150/28 149/149/38
f 113/113/21 68/68/39 156/156/39
f 74/74/11 81/81/11 141/141/12
f 48/48/13 60/60/13 109/109/14
f 56/56/26 108/108/26 107/107/41
f 120/120/40 159/159/40 116/116/33
f 50/50/16 132/132/16 60/60/13
f 75/75/21 114/114/21 138/138/22
