# Blender v2.90.0 Alpha OBJ File: 'Decos.blend'
# www.blender.org
o Sedan_Cube.002
v 1.441622 1.751233 0.905011
v 1.404498 1.830079 0.902342
v 1.205499 1.730445 0.948736
v -1.168330 1.809293 0.946067
v -1.404452 1.830079 0.902342
v -1.205452 1.730445 0.948736
v 1.168376 1.809293 0.946067
v -1.441576 1.751233 0.905011
v 1.241233 1.862189 -3.971411
v 1.087897 2.370390 -1.270067
v 1.241233 1.781141 -1.420114
v 1.241233 0.855828 3.034163
v 1.241233 0.610539 1.352577
v 1.241233 0.834350 1.296501
v 1.162131 1.190223 3.206007
v 1.241233 1.776714 1.151562
v 1.241233 1.054431 -4.012340
v 1.241233 0.835799 -3.110192
v -1.241186 1.862189 -3.971411
v -1.241186 1.054431 -4.012340
v 1.241233 0.741610 3.212075
v 0.973124 2.338557 -0.285654
v -1.241186 1.776714 1.151562
v -1.162084 1.460158 3.206007
v -0.581031 1.460158 3.406761
v -0.581031 1.220749 3.406761
v -1.162084 1.190223 3.206007
v -1.241186 0.855828 3.034163
v 0.000023 0.894495 3.289538
v -0.973077 2.338557 -0.285654
v 0.581076 1.220749 3.406761
v 0.000023 1.224190 3.406761
v 0.581076 1.460158 3.406761
v 1.162131 1.460158 3.206007
v 0.000023 1.460158 3.406761
v -0.593917 1.446801 3.345322
v -0.593917 1.232506 3.345322
v 1.241233 0.610539 -3.086491
v -1.087852 2.370390 -1.270067
v -1.241186 0.741610 3.212075
v 0.000023 0.741609 3.416026
v -1.114019 1.205181 3.165626
v -1.197343 1.809358 1.030290
v -1.433463 1.830144 0.986565
v -1.460127 1.752866 0.998478
v -1.224005 1.732078 1.042203
v 1.460173 1.752866 0.998478
v 1.433510 1.830144 0.986565
v 1.197389 1.809358 1.030290
v 1.224051 1.732078 1.042203
v 0.297261 2.344977 -3.898525
v 0.297261 1.916800 -3.090768
v 1.031944 1.916800 -3.090768
v 1.031944 2.344977 -3.898525
v 1.031944 1.860795 -3.898525
v 0.297261 1.860795 -3.898525
v -0.297216 2.344977 -3.898525
v -1.031899 1.916800 -3.090768
v -0.297216 1.916800 -3.090768
v -1.031899 2.344977 -3.898525
v -1.031899 1.860795 -3.898525
v -1.031899 2.344977 -4.165145
v -1.031899 1.523637 -4.165145
v -0.297216 1.860795 -3.898525
v -0.001605 1.259134 -4.128286
v 1.194590 1.259134 -4.128286
v 1.194590 1.129889 -4.167732
v -0.001605 1.129889 -4.167732
v -1.197800 1.129889 -4.167732
v -1.197800 1.259134 -4.128286
v -1.196172 1.251242 -3.935699
v 0.000023 1.251242 -3.935699
v 1.196217 1.251242 -3.935699
v 0.000023 1.121998 -3.975144
v -1.196172 1.121998 -3.975144
v 1.196217 1.121998 -3.975144
v -1.114019 1.446801 3.165626
v 1.114066 1.446801 3.165626
v 0.593962 1.446801 3.345322
v 0.593962 1.232506 3.345322
v 1.114066 1.205181 3.165626
v 0.297261 1.523637 -4.165145
v 0.297261 2.344977 -4.165145
v 1.031944 2.344977 -4.165145
v 1.031944 1.523637 -4.165145
v -0.297216 1.523637 -4.165145
v -0.297216 2.344977 -4.165145
v 1.031944 1.523637 -3.898525
v -0.297216 1.523637 -3.898525
v -1.031899 1.523637 -3.898525
v 0.297261 1.523637 -3.898525
v -1.241186 1.781141 -1.420114
v -1.241186 0.834350 1.296501
v -1.241186 0.610539 1.352577
v -1.241186 0.835799 -3.110192
v -1.241186 0.610539 -3.086491
v 0.903315 1.459140 3.288093
v 0.838301 1.459140 3.310556
v 0.838301 1.208397 3.310555
v 0.903315 1.204611 3.288093
v -0.903268 1.459140 3.288093
v -0.903268 1.204611 3.288093
v -0.838255 1.208397 3.310555
v -0.838255 1.459140 3.310556
v 0.994197 2.429130 -1.292998
v 1.179818 2.481028 -1.386026
v 0.000023 2.586514 -1.378327
v 1.328610 2.317784 -1.389763
v 1.255254 2.250675 -1.514864
v 1.199283 2.291298 -1.299720
v 1.452373 1.632493 -1.719550
v 1.423140 1.672036 -1.786549
v 1.356848 1.483584 -1.662664
v 1.481607 1.592951 -3.027707
v 1.423141 1.672036 -3.027707
v 1.356848 1.483584 -3.027707
v 1.066824 2.485729 -1.513343
v -1.179771 2.481028 -1.386026
v -1.066777 2.485729 -1.513343
v -0.994151 2.429130 -1.292998
v 1.481607 1.360426 -3.459496
v 1.423141 1.416348 -3.515418
v 1.481607 0.818781 -3.459496
v 1.423141 0.818781 -3.515418
v 1.356848 1.283092 -3.382162
v 1.356848 0.818781 -3.382162
v 1.298382 0.818781 -3.438084
v -1.255208 2.250675 -1.514864
v -1.328564 2.317784 -1.389763
v -1.199236 2.291298 -1.299720
v -1.423093 1.672036 -1.786549
v -1.452326 1.632493 -1.719550
v -1.356801 1.483584 -1.662664
v -1.423095 1.672036 -3.027707
v -1.481560 1.592951 -3.027707
v -1.356801 1.483584 -3.027707
v -1.423095 1.416348 -3.515418
v -1.481560 1.360426 -3.459496
v -1.423095 0.818781 -3.515418
v -1.481560 0.818781 -3.459496
v -1.356801 1.283092 -3.382162
v -1.356801 0.818781 -3.382162
v -1.298335 0.818781 -3.438084
v 0.682494 1.532804 -4.757674
v 0.440327 1.633113 -4.757674
v 0.489592 1.682379 -4.742366
v 0.682494 1.602475 -4.742366
v -0.682494 1.532804 -4.757674
v -0.682494 1.602475 -4.742366
v -0.489592 1.682379 -4.742366
v -0.440327 1.633113 -4.757674
v 0.340017 1.875282 -4.757674
v 0.440327 2.117449 -4.757674
v 0.489592 2.068184 -4.742366
v 0.409689 1.875282 -4.742366
v 1.024971 1.875282 -4.757674
v 0.924663 1.633113 -4.757674
v 0.875397 1.682379 -4.742366
v 0.955301 1.875282 -4.742366
v 0.682494 2.217759 -4.152095
v 0.924663 2.117449 -4.152096
v 0.924663 2.117449 -4.757674
v 0.682494 2.217759 -4.757673
v 0.440327 2.117449 -4.152096
v 0.924663 1.633113 -4.152096
v 0.682494 1.532804 -4.152096
v 1.024971 1.875282 -4.152096
v 0.440327 1.633113 -4.152096
v 0.340017 1.875282 -4.152096
v 0.682494 1.875282 -4.742366
v 0.682494 2.148087 -4.742366
v 0.875397 2.068184 -4.742366
v -0.340017 1.875282 -4.757674
v -0.409689 1.875282 -4.742366
v -0.489592 2.068184 -4.742366
v -0.440327 2.117449 -4.757674
v -1.024971 1.875282 -4.757674
v -0.955301 1.875282 -4.742366
v -0.875397 1.682379 -4.742366
v -0.924663 1.633113 -4.757674
v -0.682494 2.217759 -4.152095
v -0.682494 2.217759 -4.757673
v -0.924663 2.117449 -4.757674
v -0.924663 2.117449 -4.152096
v -0.440327 2.117449 -4.152096
v -0.924663 1.633113 -4.152096
v -0.682494 1.532804 -4.152096
v -1.024971 1.875282 -4.152096
v -0.440327 1.633113 -4.152096
v -0.340017 1.875282 -4.152096
v -0.682494 1.875282 -4.742366
v -0.875397 2.068184 -4.742366
v -0.682494 2.148087 -4.742366
vt 0.179688 0.851562
vt 0.179688 0.851562
vt 0.179688 0.851562
vt 0.179688 0.851562
vt 0.179688 0.851562
vt 0.179688 0.851562
vt 0.179688 0.851562
vt 0.179688 0.851562
vt 0.164062 0.773438
vt 0.164062 0.773438
vt 0.164062 0.773438
vt 0.164062 0.773438
vt 0.164062 0.773438
vt 0.164062 0.773438
vt 0.164062 0.773438
vt 0.164062 0.773438
vt 0.179688 0.851562
vt 0.179688 0.851562
vt 0.179688 0.851562
vt 0.164062 0.773438
vt 0.164062 0.773438
vt 0.164062 0.773438
vt 0.179688 0.851562
vt 0.179688 0.851562
vt 0.179688 0.851562
vt 0.179688 0.851562
vt 0.179688 0.851562
vt 0.179688 0.851562
vt 0.179688 0.851562
vt 0.164062 0.773438
vt 0.164062 0.773438
vt 0.164062 0.773438
vt 0.164062 0.773438
vt 0.164062 0.773438
vt 0.179688 0.851562
vt 0.179688 0.851562
vt 0.179688 0.851562
vt 0.164062 0.773438
vt 0.164062 0.773438
vt 0.164062 0.773438
vt 0.164062 0.773438
vt 0.164062 0.773438
vt 0.164062 0.773438
vt 0.164062 0.773438
vt 0.164062 0.773438
vt 0.164062 0.773438
vt 0.179688 0.851562
vt 0.179688 0.851562
vt 0.164062 0.773438
vt 0.164062 0.773438
vt 0.101562 0.789062
vt 0.101562 0.789062
vt 0.101562 0.789062
vt 0.101562 0.789062
vt 0.164062 0.773438
vt 0.164062 0.773438
vt 0.179688 0.851562
vt 0.179688 0.851562
vt 0.179688 0.851562
vt 0.164062 0.773438
vt 0.164062 0.773438
vt 0.101562 0.789062
vt 0.101562 0.789062
vt 0.179688 0.851562
vt 0.179688 0.851562
vt 0.179688 0.851562
vt 0.179688 0.851562
vt 0.179688 0.851562
vt 0.179688 0.851562
vt 0.179688 0.851562
vt 0.179688 0.851562
vt 0.164062 0.773438
vt 0.164062 0.773438
vt 0.164062 0.773438
vt 0.164062 0.773438
vt 0.164062 0.773438
vt 0.164062 0.773438
vt 0.164062 0.773438
vt 0.164062 0.773438
vt 0.164062 0.773438
vt 0.164062 0.773438
vt 0.164062 0.773438
vt 0.164062 0.773438
vt 0.164062 0.773438
vt 0.164062 0.773438
vt 0.164062 0.773438
vt 0.179688 0.851562
vt 0.164062 0.773438
vt 0.164062 0.773438
vt 0.164062 0.773438
vt 0.164062 0.773438
vt 0.164062 0.773438
vt 0.164062 0.773438
vt 0.164062 0.773438
vt 0.164062 0.773438
vt 0.164062 0.773438
vt 0.164062 0.773438
vt 0.164062 0.773438
vt 0.164062 0.773438
vt 0.164062 0.773438
vt 0.179688 0.851562
vt 0.101562 0.789062
vt 0.101562 0.789062
vt 0.101562 0.789062
vt 0.101562 0.789062
vt 0.101562 0.789062
vt 0.101562 0.789062
vt 0.101562 0.789062
vt 0.101562 0.789062
vt 0.101562 0.789062
vt 0.101562 0.789062
vt 0.164062 0.773438
vt 0.164062 0.773438
vt 0.164062 0.773438
vt 0.164062 0.773438
vt 0.164062 0.773438
vt 0.164062 0.773438
vt 0.164062 0.773438
vt 0.164062 0.773438
vt 0.164062 0.773438
vt 0.164062 0.773438
vt 0.179688 0.851562
vt 0.164062 0.773438
vt 0.164062 0.773438
vt 0.179688 0.851562
vt 0.179688 0.851562
vt 0.179688 0.851562
vt 0.164062 0.773438
vt 0.164062 0.773438
vt 0.164062 0.773438
vt 0.164062 0.773438
vt 0.179688 0.851562
vt 0.164062 0.773438
vt 0.164062 0.773438
vt 0.164062 0.773438
vt 0.164062 0.773438
vt 0.164062 0.773438
vt 0.164062 0.773438
vt 0.164062 0.773438
vt 0.164062 0.773438
vt 0.164062 0.773438
vt 0.195312 0.789062
vt 0.195312 0.789062
vt 0.195312 0.789062
vt 0.195312 0.789062
vt 0.195312 0.789062
vt 0.195312 0.789062
vt 0.195312 0.789062
vt 0.195312 0.789062
vt 0.195312 0.789062
vt 0.195312 0.789062
vt 0.195312 0.789062
vt 0.195312 0.789062
vt 0.195312 0.789062
vt 0.195312 0.789062
vt 0.195312 0.789062
vt 0.195312 0.789062
vt 0.195312 0.789062
vt 0.195312 0.789062
vt 0.195312 0.789062
vt 0.195312 0.789062
vt 0.195312 0.789062
vt 0.195312 0.789062
vt 0.195312 0.789062
vt 0.195312 0.789062
vt 0.195312 0.789062
vt 0.195312 0.789062
vt 0.195312 0.789062
vt 0.195312 0.789062
vt 0.195312 0.789062
vt 0.195312 0.789062
vt 0.195312 0.789062
vt 0.195312 0.789062
vt 0.195312 0.789062
vt 0.195312 0.789062
vt 0.195312 0.789062
vt 0.195312 0.789062
vt 0.195312 0.789062
vt 0.195312 0.789062
vt 0.195312 0.789062
vt 0.164062 0.773438
vt 0.164062 0.773438
vt 0.164062 0.773438
vt 0.164062 0.773438
vt 0.164062 0.773438
vt 0.164062 0.773438
vt 0.164062 0.773438
vt 0.164062 0.773438
vt 0.164062 0.773438
vt 0.164062 0.773438
vt 0.164062 0.773438
vt 0.164062 0.773438
vt 0.164062 0.773438
vt 0.164062 0.773438
vt 0.164062 0.773438
vt 0.164062 0.773438
vt 0.164062 0.773438
vt 0.164062 0.773438
vt 0.164062 0.773438
vt 0.164062 0.773438
vt 0.164062 0.773438
vt 0.164062 0.773438
vt 0.164062 0.773438
vt 0.164062 0.773438
vt 0.164062 0.773438
vt 0.164062 0.773438
vt 0.164062 0.773438
vt 0.164062 0.773438
vt 0.164062 0.773438
vt 0.164062 0.773438
vt 0.164062 0.773438
vt 0.164062 0.773438
vt 0.164062 0.773438
vt 0.164062 0.773438
vt 0.164062 0.773438
vt 0.164062 0.773438
vt 0.164062 0.773438
vt 0.164062 0.773438
vt 0.164062 0.773438
vt 0.164062 0.773438
vt 0.164062 0.773438
vt 0.164062 0.773438
vn 0.1712 0.1137 0.9786
vn -0.1712 0.1137 0.9786
vn 0.0885 0.2137 -0.9729
vn -0.0885 0.2137 -0.9729
vn 0.9995 0.0311 0.0010
vn 0.9682 0.2499 0.0079
vn 0.9905 0.1363 0.0186
vn 0.9975 0.0640 0.0313
vn 1.0000 0.0000 0.0000
vn 0.9933 0.0956 0.0655
vn 0.9980 0.0623 0.0064
vn 0.0000 0.0506 -0.9987
vn 0.9180 0.3961 0.0223
vn 0.9678 0.2213 0.1200
vn -0.0045 0.9684 0.2493
vn -0.0532 0.9866 0.1541
vn -0.0182 0.9894 0.1442
vn -0.1046 -0.3236 0.9404
vn -0.1904 -0.5113 0.8380
vn 0.0000 -0.4086 0.9127
vn 0.0000 0.9790 0.2039
vn 0.0045 0.9684 0.2493
vn 0.1046 -0.3236 0.9404
vn -0.0000 -0.1694 0.9856
vn 0.1904 -0.5113 0.8380
vn 0.0182 0.9894 0.1442
vn 0.0532 0.9866 0.1541
vn 0.0000 -0.0000 1.0000
vn -0.9787 -0.0000 0.2053
vn 0.0000 0.9966 -0.0828
vn -0.1326 0.7450 0.6537
vn 0.0000 0.7517 0.6596
vn -0.1240 0.9695 0.2115
vn -0.1608 0.2043 0.9656
vn 0.0826 0.9962 0.0277
vn -0.9052 0.3469 -0.2456
vn 0.1712 -0.1137 -0.9786
vn -0.1712 -0.1137 -0.9786
vn 0.9052 0.3469 -0.2456
vn -0.0826 0.9962 0.0277
vn 0.1608 0.2043 0.9656
vn 0.9993 -0.0000 0.0385
vn 0.1326 0.7450 0.6537
vn 0.0000 0.8835 0.4683
vn -1.0000 0.0000 0.0000
vn 0.0000 0.9828 -0.1849
vn 0.0000 0.2919 -0.9564
vn 0.0000 0.9992 0.0409
vn 0.0000 -0.9992 -0.0409
vn -1.0000 -0.0025 0.0083
vn 1.0000 0.0025 -0.0083
vn 0.0000 0.9903 0.1390
vn -0.3266 -0.0000 0.9452
vn 0.3266 -0.0000 0.9452
vn 0.6432 -0.0000 0.7657
vn 0.9787 -0.0000 0.2053
vn -0.0786 -0.9706 0.2275
vn 0.1240 0.9695 0.2115
vn -0.6432 -0.0000 0.7657
vn 0.0786 -0.9706 0.2275
vn 0.0000 0.0000 -1.0000
vn 0.0000 1.0000 0.0000
vn -0.9995 0.0311 0.0010
vn -0.9905 0.1363 0.0186
vn -0.9682 0.2499 0.0079
vn -0.9975 0.0640 0.0313
vn -0.9933 0.0956 0.0655
vn -0.9980 0.0623 0.0064
vn -0.9180 0.3961 0.0223
vn -0.9678 0.2213 0.1200
vn -0.9993 0.0000 0.0385
vn 0.1367 0.7040 0.6969
vn 0.3129 0.5131 0.7992
vn 0.0000 0.5043 0.8635
vn 0.6249 0.5269 -0.5761
vn 0.6524 0.4937 -0.5750
vn 0.7123 0.4610 -0.5293
vn 0.5225 0.1850 0.8323
vn 0.6083 0.0237 0.7934
vn 0.8114 0.4800 -0.3335
vn 0.8209 0.5344 -0.2015
vn 0.6470 -0.2172 0.7309
vn 0.7990 0.5777 -0.1668
vn 0.8022 0.5831 -0.1279
vn 0.7627 -0.6465 0.0179
vn 0.7014 -0.6787 0.2179
vn 0.7157 -0.6748 0.1798
vn 0.0887 0.9952 -0.0420
vn 0.0837 0.9933 -0.0803
vn 0.0000 0.8270 -0.5622
vn -0.0887 0.9952 -0.0420
vn -0.0837 0.9933 -0.0803
vn -0.1367 0.7040 0.6969
vn 0.7810 0.2679 -0.5642
vn 0.7919 0.3418 -0.5060
vn 0.6472 0.5224 -0.5551
vn 0.6912 0.0000 -0.7227
vn 0.6270 -0.6823 0.3758
vn 0.0000 -1.0000 0.0000
vn 0.5269 0.0000 0.8500
vn -0.3129 0.5131 0.7992
vn -0.6249 0.5269 -0.5761
vn -0.7123 0.4610 -0.5293
vn -0.6524 0.4937 -0.5750
vn -0.6083 0.0237 0.7934
vn -0.5225 0.1850 0.8323
vn -0.8209 0.5344 -0.2015
vn -0.8114 0.4800 -0.3335
vn -0.6470 -0.2172 0.7309
vn -0.8022 0.5831 -0.1279
vn -0.7990 0.5777 -0.1668
vn -0.7627 -0.6465 0.0179
vn -0.7157 -0.6748 0.1798
vn -0.7014 -0.6787 0.2179
vn -0.7919 0.3418 -0.5060
vn -0.7810 0.2679 -0.5642
vn -0.6472 0.5224 -0.5551
vn -0.6912 0.0000 -0.7227
vn -0.6270 -0.6823 0.3758
vn -0.5269 0.0000 0.8500
vn 0.2146 -0.0000 -0.9767
vn 0.1517 -0.1517 -0.9767
vn 0.0950 -0.0950 -0.9909
vn 0.1344 -0.0000 -0.9909
vn 0.2137 0.0885 -0.9729
vn 0.0976 0.0404 -0.9944
vn -0.2146 -0.0000 -0.9767
vn -0.1517 0.1517 -0.9767
vn -0.0950 0.0950 -0.9909
vn -0.1344 -0.0000 -0.9909
vn 0.7071 0.7071 0.0000
vn -0.7071 0.7071 0.0000
vn 0.7071 -0.7071 -0.0000
vn 0.3827 -0.9239 -0.0000
vn -0.9239 -0.3827 0.0000
vn -0.0950 -0.0950 -0.9909
vn 0.0000 -0.2146 -0.9767
vn -0.1517 -0.1517 -0.9767
vn -0.2137 0.0885 -0.9729
vn -0.0976 0.0404 -0.9944
vn 0.0950 0.0950 -0.9909
vn 0.1517 0.1517 -0.9767
vn -0.7071 -0.7071 -0.0000
vn -0.3827 -0.9239 -0.0000
vn 0.9239 -0.3827 0.0000
s off
f 1/1/1 2/2/1 3/3/1
f 4/4/2 5/5/2 6/6/2
f 2/2/1 7/7/1 3/3/1
f 5/5/2 8/8/2 6/6/2
f 144/9/3 145/10/3 146/11/3 147/12/3
f 148/13/4 149/14/4 150/15/4 151/16/4
s 1
f 9/17/5 10/18/6 11/19/7
f 12/20/8 13/21/9 14/22/9
f 15/23/10 12/24/8 16/25/11
f 17/26/9 9/17/5 18/27/9
f 19/28/12 9/17/12 17/26/12 20/29/12
f 12/20/8 21/30/9 13/21/9
f 16/31/11 11/32/7 22/33/13
f 22/33/13 11/32/7 10/34/14
f 23/35/15 24/36/16 25/37/17
f 26/38/18 27/39/19 28/40/19 29/41/20
f 30/42/21 23/43/15 16/31/22 22/33/21
f 29/41/20 31/44/23 32/45/24
f 31/44/23 29/41/20 12/20/25 15/46/25
f 16/25/22 33/47/26 34/48/27
f 26/38/18 32/45/24 35/49/28 25/50/28
f 26/51/29 25/52/29 36/53/29 37/54/29
f 14/22/9 13/21/9 38/55/9 18/56/9
f 30/57/21 22/58/21 10/18/30 39/59/30
f 40/60/31 41/61/32 29/41/32 28/40/31
f 27/62/33 26/51/33 37/54/33 42/63/33
f 43/64/34 44/65/34 45/66/34 46/67/34
f 4/4/35 5/5/35 44/65/35 43/64/35
f 45/66/36 44/65/36 5/5/36 8/8/36
f 6/6/37 8/8/37 5/5/37 4/4/37
f 3/3/38 7/7/38 2/2/38 1/1/38
f 47/68/39 1/1/39 2/2/39 48/69/39
f 7/7/40 49/70/40 48/69/40 2/2/40
f 49/70/41 50/71/41 47/68/41 48/69/41
f 34/48/42 15/23/10 16/25/11
f 31/44/23 33/72/28 35/49/28 32/45/24
f 21/30/43 12/20/43 29/41/32 41/61/32
f 51/73/44 52/74/44 53/75/44
f 51/73/44 53/75/44 54/76/44
f 55/77/9 54/76/9 53/75/9
f 52/74/45 51/73/45 56/78/45
f 57/79/44 58/80/44 59/81/44
f 57/79/44 60/82/44 58/80/44
f 61/83/45 60/82/45 62/84/45 63/85/45
f 61/83/45 58/80/45 60/82/45
f 59/81/9 64/86/9 57/79/9
f 11/19/7 18/27/9 9/17/5
f 16/25/11 18/27/9 11/19/7
f 16/25/11 14/87/9 18/27/9
f 12/24/8 14/87/9 16/25/11
f 38/55/9 17/88/9 18/56/9
f 39/59/30 10/18/30 9/17/46 19/28/46
f 29/41/20 32/45/24 26/38/18
f 65/89/47 66/90/47 67/91/47 68/92/47
f 65/89/47 68/92/47 69/93/47 70/94/47
f 71/95/48 72/96/48 65/89/48 70/94/48
f 72/96/48 73/97/48 66/90/48 65/89/48
f 74/98/49 75/99/49 69/93/49 68/92/49
f 75/99/50 71/95/50 70/94/50 69/93/50
f 76/100/49 74/98/49 68/92/49 67/91/49
f 73/97/51 76/100/51 67/91/51 66/90/51
f 16/25/22 35/101/52 33/47/26
f 23/35/15 25/37/17 35/101/52
f 23/35/15 35/101/52 16/25/22
f 77/102/53 42/63/53 37/54/53 36/53/53
f 78/103/54 79/104/54 80/105/54 81/106/54
f 24/107/55 27/62/55 42/63/55 77/102/55
f 33/108/56 31/109/56 80/105/56 79/104/56
f 25/52/57 24/107/57 77/102/57 36/53/57
f 31/109/58 15/110/58 81/106/58 80/105/58
f 15/110/59 34/111/59 78/103/59 81/106/59
f 34/111/60 33/108/60 79/104/60 78/103/60
f 82/112/61 83/113/61 84/114/61 85/115/61
f 86/116/61 63/85/61 62/84/61 87/117/61
f 60/82/62 57/79/62 87/117/62 62/84/62
f 57/79/9 64/86/9 86/116/9 87/117/9
f 54/76/9 55/77/9 85/115/9 84/114/9
f 85/115/9 55/77/9 88/118/9
f 51/73/62 54/76/62 84/114/62 83/113/62
f 56/78/45 51/73/45 83/113/45 82/112/45
f 86/116/9 64/86/9 89/119/9
f 61/83/45 63/85/45 90/120/45
f 56/78/45 82/112/45 91/121/45
f 19/28/63 92/122/64 39/59/65
f 28/40/66 93/123/45 94/124/45
f 27/125/67 23/35/68 28/126/66
f 20/29/45 95/127/45 19/28/63
f 28/40/66 94/124/45 40/60/45
f 23/43/68 30/42/69 92/128/64
f 30/42/69 39/129/70 92/128/64
f 93/123/45 95/130/45 96/131/45 94/124/45
f 24/36/71 23/35/68 27/125/67
f 92/122/64 19/28/63 95/127/45
f 23/35/68 92/122/64 95/127/45
f 23/35/68 95/127/45 93/132/45
f 28/126/66 23/35/68 93/132/45
f 96/131/45 95/130/45 20/133/45
f 97/134/54 98/135/54 99/136/54 100/137/54
f 101/138/53 102/139/53 103/140/53 104/141/53
f 105/142/72 106/143/73 107/144/74
f 106/143/75 108/145/76 109/146/77
f 106/143/73 110/147/78 108/145/79
f 109/146/77 108/145/76 111/148/80 112/149/81
f 108/145/79 110/147/78 113/150/82 111/148/82
f 111/148/80 114/151/83 115/152/84 112/149/81
f 113/150/85 116/153/86 114/151/87 111/148/85
f 106/143/88 117/154/89 107/144/90
f 118/155/91 107/144/90 119/156/92
f 105/142/72 107/144/74 120/157/93
f 115/152/84 114/151/83 121/158/94 122/159/95
f 105/142/72 110/147/78 106/143/73
f 117/154/96 106/143/75 109/146/77
f 122/159/95 121/158/94 123/160/97 124/161/97
f 114/151/87 116/153/86 125/162/98 121/158/98
f 126/163/99 127/164/99 124/161/99 123/160/99
f 121/158/100 125/162/100 126/163/100 123/160/100
f 107/144/74 118/155/101 120/157/93
f 118/155/102 128/165/103 129/166/104
f 118/155/101 129/166/105 130/167/106
f 128/165/103 131/168/107 132/169/108 129/166/104
f 129/166/105 132/169/109 133/170/109 130/167/106
f 132/169/108 131/168/107 134/171/110 135/172/111
f 133/170/112 132/169/112 135/172/113 136/173/114
f 107/144/90 117/154/89 119/156/92
f 134/171/110 137/174/115 138/175/116 135/172/111
f 120/157/93 118/155/101 130/167/106
f 119/156/117 128/165/103 118/155/102
f 137/174/115 139/176/118 140/177/118 138/175/116
f 135/172/113 138/175/119 141/178/119 136/173/114
f 142/179/99 140/177/99 139/176/99 143/180/99
f 138/175/120 140/177/120 142/179/120 141/178/120
f 152/181/121 153/182/122 154/183/123 155/184/124
f 145/10/125 152/181/121 155/184/124 146/11/126
f 156/185/127 157/186/128 158/187/129 159/188/130
f 160/189/62 161/190/131 162/191/131 163/192/62
f 164/193/132 160/189/62 163/192/62 153/182/132
f 165/194/133 166/195/134 144/9/134 157/186/133
f 161/190/131 167/196/9 156/185/9 162/191/131
f 167/196/9 165/194/133 157/186/133 156/185/9
f 168/197/135 169/198/45 152/181/45 145/10/135
f 169/198/45 164/193/132 153/182/132 152/181/45
f 170/199/61 171/200/61 172/201/136 159/188/130
f 147/12/61 170/199/61 159/188/130 158/187/129
f 146/11/126 155/184/124 170/199/61 147/12/61
f 155/184/124 154/183/123 171/200/61 170/199/61
f 163/192/137 162/191/138 172/201/136 171/200/137
f 153/182/122 163/192/137 171/200/137 154/183/123
f 157/186/128 144/9/4 147/12/4 158/187/129
f 162/191/138 156/185/127 159/188/130 172/201/136
f 173/202/127 174/203/130 175/204/136 176/205/138
f 151/16/139 150/15/140 174/203/130 173/202/127
f 177/206/121 178/207/124 179/208/141 180/209/142
f 181/210/62 182/211/62 183/212/132 184/213/132
f 185/214/131 176/205/131 182/211/62 181/210/62
f 186/215/143 180/209/143 148/13/144 187/216/144
f 184/213/132 183/212/132 177/206/45 188/217/45
f 188/217/45 177/206/45 180/209/143 186/215/143
f 189/218/145 151/16/145 173/202/9 190/219/9
f 190/219/9 173/202/9 176/205/131 185/214/131
f 191/220/61 178/207/124 192/221/123 193/222/61
f 149/14/61 179/208/141 178/207/124 191/220/61
f 150/15/140 149/14/61 191/220/61 174/203/130
f 174/203/130 191/220/61 193/222/61 175/204/136
f 182/211/137 193/222/137 192/221/123 183/212/122
f 176/205/138 175/204/136 193/222/137 182/211/137
f 180/209/142 179/208/141 149/14/3 148/13/3
f 183/212/122 192/221/123 178/207/124 177/206/121
