# Blender v2.90.0 Alpha OBJ File: 'Decos.blend'
# www.blender.org
o Cube.003_Cube.076
v 2.042696 23.461277 2.182202
v 4.433742 21.224163 0.000012
v 4.042762 23.729118 0.000016
v -2.513700 21.332909 -2.338554
v 0.000000 21.592964 -3.844582
v 0.000000 18.577160 -4.741001
v -2.984704 18.472595 -4.275609
v 3.452736 20.431858 0.000012
v 0.000000 10.943293 -6.015354
v 0.000000 6.889986 0.000004
v -3.505448 10.943293 -4.443066
v 2.394448 26.631878 0.000016
v 0.000000 31.076887 0.000020
v 1.120602 26.208372 1.413089
v 1.120602 26.208372 -1.413057
v 2.688540 23.908094 0.000016
v 6.238136 16.260176 0.000012
v 5.538400 14.263735 0.000008
v 3.505448 10.943293 -4.443066
v 2.719300 23.838810 0.000016
v 2.042696 23.461277 -2.182170
v 3.245076 15.073910 3.016614
v 3.505448 10.943285 4.443082
v 6.943247 13.178688 0.000008
v 5.865931 10.943296 0.000008
v 0.000000 10.943285 6.015370
v -3.505448 10.943285 4.443082
v 6.079277 17.650578 0.000012
v 2.984704 18.472595 4.275633
v -2.042696 23.461277 -2.182170
v 0.000000 23.615416 -4.253521
v 5.166301 20.358040 0.000012
v 2.513700 21.332909 2.338585
v 0.000000 21.592964 3.844612
v 0.000000 18.577160 4.741025
v 2.513700 21.332909 -2.338554
v 0.000000 26.574345 2.690658
v 0.000000 23.615416 4.253553
v -6.943247 13.178688 0.000008
v -5.865931 10.943296 0.000008
v -6.079277 17.650578 0.000012
v -6.238136 16.260176 0.000012
v -2.984704 18.472595 4.275633
v 2.984704 18.472595 -4.275609
v -2.719300 23.838810 0.000016
v -4.042762 23.729118 0.000016
v -3.469317 20.377491 0.000012
v -3.461026 20.404675 0.000012
v 0.552810 -4.226219 -0.000010
v 0.000000 27.551237 -0.039043
v 0.000000 -4.226219 0.552799
v -5.538400 14.263735 0.000008
v -5.166301 20.358040 0.000012
v 3.461026 20.404675 0.000012
v 0.000000 -4.226219 -0.552821
v 0.000000 15.230754 4.722573
v -3.452736 20.431858 0.000012
v -4.433742 21.224163 0.000012
v 0.000000 15.230762 -4.722555
v -3.245076 15.073915 -3.016598
v -1.120602 26.208372 1.413089
v -2.042696 23.461277 2.182202
v -2.513700 21.332909 2.338585
v -3.245076 15.073910 3.016614
v 3.469317 20.377491 0.000012
v 3.245076 15.073915 -3.016598
v -2.394448 26.631878 0.000016
v -0.552810 -4.226219 -0.000010
v -2.688540 23.908094 0.000016
v -1.120602 26.208372 -1.413057
v 0.000000 26.574345 -2.690626
v 2.870723 23.754578 2.864295
v 5.439161 20.748728 0.000012
v 4.900378 24.437214 0.000016
v -3.390723 21.641808 -2.948733
v 0.000000 21.882936 -4.918278
v 0.000000 18.745615 -5.840332
v -3.608452 18.661213 -5.176868
v 4.564886 20.426556 0.000012
v 0.000000 10.628642 -7.082078
v 0.000000 5.777823 0.000003
v -4.170649 10.580036 -5.256982
v 3.456164 26.963034 0.000016
v 0.000000 32.189049 0.000020
v 1.939036 26.556612 2.080773
v 1.939036 26.556612 -2.080740
v 3.726460 24.307629 0.000016
v 7.349778 16.226168 0.000012
v 6.648834 14.325713 0.000008
v 4.170649 10.580036 -5.256982
v 3.313005 24.779245 0.000016
v 2.870723 23.754578 -2.864264
v 3.875499 15.166886 3.928112
v 4.170649 10.580028 5.256998
v 8.006040 13.506372 0.000008
v 6.743624 10.260244 0.000007
v 0.000000 10.628633 7.082094
v -4.170649 10.580028 5.256998
v 7.168904 17.873329 0.000012
v 3.608452 18.661211 5.176892
v -2.870723 23.754578 -2.864264
v 0.000000 23.901659 -5.328217
v 5.852419 21.233337 0.000012
v 3.390723 21.641806 2.948763
v 0.000000 21.882935 4.918307
v 0.000000 18.745613 5.840356
v 3.390723 21.641808 -2.948733
v 0.000000 27.144045 3.645827
v 0.000000 23.901659 5.328248
v -8.006040 13.506372 0.000008
v -6.743624 10.260244 0.000007
v -7.168904 17.873329 0.000012
v -7.349778 16.226168 0.000012
v -3.608452 18.661211 5.176892
v 3.608452 18.661213 -5.176868
v -3.313005 24.779245 0.000016
v -4.900378 24.437214 0.000016
v -4.183858 21.229746 0.000012
v -4.523601 20.733065 0.000012
v -6.648834 14.325713 0.000008
v -5.852419 21.233337 0.000012
v 4.523601 20.733065 0.000012
v 0.000000 15.312800 5.831706
v -4.564886 20.426556 0.000012
v -5.439161 20.748728 0.000012
v 0.000000 15.312809 -5.831686
v -3.875499 15.166892 -3.928095
v -1.939036 26.556612 2.080773
v -2.870723 23.754578 2.864295
v -3.390723 21.641806 2.948763
v -3.875499 15.166886 3.928112
v 4.183858 21.229746 0.000012
v 3.875499 15.166892 -3.928095
v -3.456164 26.963034 0.000016
v -3.726460 24.307629 0.000016
v -1.939036 26.556612 -2.080740
v 0.000000 27.144047 -3.645793
vt 0.117188 0.664062
vt 0.117188 0.664062
vt 0.117188 0.664062
vt 0.117188 0.664062
vt 0.117188 0.664062
vt 0.117188 0.664062
vt 0.117188 0.664062
vt 0.117188 0.664062
vt 0.117188 0.648438
vt 0.117188 0.648438
vt 0.117188 0.648438
vt 0.117188 0.664062
vt 0.117188 0.664062
vt 0.117188 0.679688
vt 0.117188 0.664062
vt 0.117188 0.664062
vt 0.117188 0.664062
vt 0.117188 0.648438
vt 0.117188 0.648438
vt 0.117188 0.664062
vt 0.117188 0.664062
vt 0.117188 0.648438
vt 0.117188 0.648438
vt 0.117188 0.648438
vt 0.117188 0.648438
vt 0.117188 0.648438
vt 0.117188 0.648438
vt 0.117188 0.664062
vt 0.117188 0.664062
vt 0.117188 0.664062
vt 0.117188 0.664062
vt 0.117188 0.664062
vt 0.117188 0.664062
vt 0.117188 0.664062
vt 0.117188 0.664062
vt 0.117188 0.664062
vt 0.117188 0.664062
vt 0.117188 0.664062
vt 0.117188 0.648438
vt 0.117188 0.648438
vt 0.117188 0.664062
vt 0.117188 0.664062
vt 0.117188 0.664062
vt 0.117188 0.664062
vt 0.117188 0.664062
vt 0.117188 0.664062
vt 0.117188 0.664062
vt 0.117188 0.664062
vt 0.117188 0.648438
vt 0.117188 0.664062
vt 0.117188 0.664062
vt 0.117188 0.648438
vt 0.117188 0.664062
vt 0.117188 0.664062
vt 0.117188 0.648438
vt 0.117188 0.648438
vt 0.117188 0.664062
vt 0.117188 0.664062
vt 0.117188 0.664062
vt 0.117188 0.648438
vt 0.117188 0.664062
vt 0.117188 0.648438
vt 0.117188 0.664062
vt 0.117188 0.664062
vt 0.117188 0.664062
vt 0.117188 0.664062
vt 0.257812 0.851562
vt 0.257812 0.851562
vt 0.257812 0.851562
vt 0.257812 0.851562
vt 0.257812 0.851562
vt 0.257812 0.851562
vt 0.257812 0.851562
vt 0.257812 0.851562
vt 0.257812 0.851562
vt 0.257812 0.851562
vt 0.257812 0.851562
vt 0.257812 0.851562
vt 0.257812 0.851562
vt 0.257812 0.851562
vt 0.257812 0.851562
vt 0.257812 0.851562
vt 0.257812 0.851562
vt 0.257812 0.851562
vt 0.257812 0.851562
vt 0.257812 0.851562
vt 0.257812 0.851562
vt 0.257812 0.851562
vt 0.257812 0.851562
vt 0.257812 0.851562
vt 0.257812 0.851562
vt 0.257812 0.851562
vt 0.257812 0.851562
vt 0.257812 0.851562
vt 0.257812 0.851562
vt 0.257812 0.851562
vt 0.257812 0.851562
vt 0.257812 0.851562
vt 0.257812 0.851562
vt 0.257812 0.851562
vt 0.257812 0.851562
vt 0.257812 0.851562
vt 0.257812 0.851562
vt 0.257812 0.851562
vt 0.257812 0.851562
vt 0.257812 0.851562
vt 0.257812 0.851562
vt 0.257812 0.851562
vt 0.257812 0.851562
vt 0.257812 0.851562
vt 0.257812 0.851562
vt 0.257812 0.851562
vt 0.257812 0.851562
vt 0.257812 0.851562
vt 0.179688 0.898438
vt 0.179688 0.898438
vt 0.179688 0.898438
vt 0.257812 0.851562
vt 0.257812 0.851562
vt 0.257812 0.851562
vt 0.179688 0.898438
vt 0.257812 0.851562
vt 0.257812 0.851562
vt 0.257812 0.851562
vt 0.257812 0.851562
vt 0.257812 0.851562
vt 0.257812 0.851562
vt 0.257812 0.851562
vt 0.257812 0.851562
vt 0.257812 0.851562
vt 0.257812 0.851562
vt 0.257812 0.851562
vt 0.257812 0.851562
vt 0.179688 0.898438
vt 0.257812 0.851562
vt 0.257812 0.851562
vt 0.257812 0.851562
vn -0.5824 -0.3636 -0.7270
vn -0.4579 -0.8890 -0.0000
vn 0.5922 -0.4128 0.6921
vn 0.9868 0.0276 0.1596
vn -0.0429 -0.0604 0.9973
vn -0.3151 -0.1495 0.9372
vn 0.2009 -0.4564 0.8668
vn -0.9945 0.1047 0.0000
vn 0.0000 0.2945 0.9556
vn 0.7014 0.4012 0.5892
vn -0.0000 1.0000 0.0092
vn -0.9571 -0.2864 0.0430
vn -0.5100 -0.1268 -0.8508
vn -0.8935 -0.4490 0.0001
vn -0.4996 -0.1408 0.8547
vn -0.8125 -0.5829 -0.0000
vn -0.8225 0.1757 0.5409
vn -0.6818 0.3246 0.6556
vn -0.8780 -0.0890 -0.4704
vn -0.6341 -0.7733 -0.0000
vn -0.6959 -0.0613 0.7155
vn -0.3125 -0.3163 -0.8957
vn -0.7048 0.1906 -0.6833
vn 0.7788 0.3222 -0.5381
vn -0.0540 0.9985 0.0001
vn -0.0000 0.2945 -0.9556
vn 0.5513 0.2511 -0.7956
vn -0.8684 -0.1952 0.4559
vn -0.4466 -0.7225 -0.5278
vn 0.7102 -0.4386 0.5507
vn 0.0000 -0.9090 0.4167
vn 0.4927 0.6961 -0.5222
vn -0.9868 0.0276 -0.1596
vn 0.3151 -0.1495 -0.9372
vn -0.2009 -0.4564 -0.8668
vn -0.9902 -0.0994 0.0977
vn 0.3705 -0.7287 -0.5759
vn 0.0001 -0.9090 -0.4167
vn -0.6512 0.6309 0.4218
vn 0.5122 0.3790 0.7707
vn 0.8087 -0.4608 0.3657
vn 0.6319 0.4530 -0.6289
vn 0.8310 -0.0499 0.5540
vn -0.9371 0.0702 0.3420
vn 0.6341 -0.7733 -0.0000
vn 0.4579 -0.8890 0.0000
vn 0.8661 -0.2054 0.4557
vn 0.5763 -0.8172 -0.0000
vn 0.8555 -0.3107 -0.4143
vn -0.8040 0.4758 0.3567
vn -0.9255 0.0449 -0.3760
vn 0.3809 -0.0533 -0.9231
vn -0.5921 -0.4128 0.6921
vn 0.9945 0.1047 -0.0000
vn 0.7569 0.2393 0.6081
vn -0.3809 -0.0533 0.9231
vn 0.8200 -0.0753 -0.5673
vn 0.7625 -0.5915 -0.2622
vn 0.5194 -0.6376 -0.5690
vn 0.1679 0.1051 -0.9802
vn -0.5763 -0.8172 -0.0000
vn -0.2449 0.2580 0.9346
vn 0.9628 -0.2703 0.0000
vn 0.8125 -0.5829 0.0001
vn 0.5100 -0.1268 0.8508
vn 0.0000 -0.8747 0.4846
vn 0.7445 0.2637 0.6133
vn 0.9040 -0.4275 -0.0000
vn 0.7711 0.6367 0.0000
vn -0.7886 0.2777 -0.5486
vn 0.0000 0.2607 -0.9654
vn 0.0000 0.1515 -0.9885
vn -0.5608 0.1696 -0.8104
vn 1.0000 -0.0048 -0.0000
vn -0.0000 -0.2829 -0.9591
vn 0.0000 -1.0000 -0.0000
vn -0.5981 -0.3266 -0.7318
vn 0.9546 0.2978 -0.0000
vn 0.0000 1.0000 0.0000
vn 0.7359 0.3131 0.6003
vn 0.7359 0.3131 -0.6003
vn 0.9332 0.3592 0.0000
vn 0.9995 -0.0306 0.0000
vn 0.9984 0.0557 -0.0000
vn 0.5981 -0.3266 -0.7318
vn 0.5338 0.8456 0.0000
vn 0.7445 0.2637 -0.6133
vn 0.5668 0.0836 0.8196
vn 0.5981 -0.3266 0.7318
vn 0.9556 0.2946 0.0000
vn 0.7892 -0.6142 -0.0000
vn 0.0000 -0.2829 0.9591
vn -0.5981 -0.3266 0.7318
vn 0.9797 0.2003 0.0000
vn 0.5608 0.1696 0.8104
vn -0.7445 0.2637 -0.6133
vn -0.0000 0.2574 -0.9663
vn 0.6169 0.7870 0.0000
vn 0.7886 0.2777 0.5486
vn 0.0000 0.2607 0.9654
vn 0.0000 0.1515 0.9885
vn 0.7886 0.2777 -0.5486
vn 0.0000 0.5122 0.8588
vn 0.0000 0.2574 0.9663
vn -0.9556 0.2946 0.0000
vn -0.7892 -0.6142 -0.0000
vn -0.9797 0.2003 0.0000
vn -0.9995 -0.0306 0.0000
vn -0.5608 0.1696 0.8104
vn 0.5608 0.1696 -0.8104
vn -0.5338 0.8456 -0.0000
vn -0.7711 0.6367 0.0000
vn -0.6425 0.7663 -0.0000
vn -0.9554 0.2953 -0.0000
vn 0.7070 0.0132 0.7070
vn -0.9984 0.0557 -0.0000
vn -0.6169 0.7870 0.0000
vn 0.9554 0.2953 -0.0000
vn 0.7071 0.0114 -0.7071
vn 0.0000 0.0738 0.9973
vn -1.0000 -0.0048 -0.0000
vn -0.9040 -0.4275 -0.0000
vn 0.0000 0.0738 -0.9973
vn -0.5668 0.0836 -0.8196
vn -0.7359 0.3131 0.6003
vn -0.7445 0.2637 0.6133
vn -0.7886 0.2777 0.5486
vn -0.5668 0.0836 0.8196
vn 0.6425 0.7663 -0.0000
vn 0.5668 0.0836 -0.8196
vn -0.9546 0.2978 -0.0000
vn -0.7071 0.0114 -0.7071
vn -0.7070 0.0132 0.7070
vn -0.9332 0.3592 -0.0000
vn -0.7359 0.3131 -0.6003
vn -0.0000 0.5122 -0.8588
s 1
f 72/1/1 74/2/2 73/3/3
f 75/4/4 78/5/5 77/6/6 76/7/7
f 72/1/1 73/3/3 79/8/8
f 80/9/9 82/10/10 81/11/11
f 83/12/12 85/13/13 84/14/14
f 86/15/15 87/16/16 83/12/12
f 88/17/17 90/18/18 89/19/19
f 91/20/20 92/21/21 74/2/2
f 93/22/22 88/17/17 94/23/23
f 95/24/24 96/25/25 94/23/23
f 97/26/26 81/11/11 98/27/27
f 99/28/28 88/17/17 100/29/29
f 101/30/30 75/4/4 76/7/7 102/31/31
f 103/32/32 99/28/28 100/29/29
f 104/33/33 100/29/29 106/34/34 105/35/35
f 92/21/21 102/31/31 76/7/7 107/36/36
f 88/17/17 89/19/19 94/23/23
f 108/37/37 85/13/13 72/1/1 109/38/38
f 110/39/39 98/27/27 111/40/40
f 112/41/41 114/42/42 113/43/43
f 95/24/24 90/18/18 96/25/25
f 103/32/32 115/44/44 99/28/28
f 116/45/45 117/46/46 101/30/30
f 75/4/4 119/47/47 118/48/48 78/5/5
f 120/49/49 98/27/27 110/39/39
f 118/48/48 121/50/50 78/5/5
f 86/15/15 92/21/21 91/20/20 87/16/16
f 89/19/19 95/24/24 94/23/23
f 99/28/28 115/44/44 88/17/17
f 113/43/43 98/27/27 120/49/49
f 72/1/1 79/8/8 122/51/51 104/33/33
f 80/9/9 81/11/11 90/18/18
f 100/29/29 93/22/22 123/52/52 106/34/34
f 118/48/48 114/42/42 121/50/50
f 107/36/36 76/7/7 77/6/6 115/44/44
f 85/13/13 87/16/16 91/20/20 72/1/1
f 101/30/30 125/53/53 124/54/54
f 78/5/5 127/55/55 126/56/56 77/6/6
f 121/50/50 114/42/42 112/41/41
f 120/49/49 110/39/39 82/10/10
f 92/21/21 79/8/8 73/3/3
f 108/37/37 109/38/38 129/57/57 128/58/58
f 116/45/45 129/57/57 117/46/46
f 130/59/59 105/35/35 106/34/34 114/42/42
f 85/13/13 83/12/12 87/16/16
f 131/60/60 123/52/52 97/26/26 98/27/27
f 107/36/36 115/44/44 132/61/61 122/51/51
f 88/17/17 133/62/62 90/18/18
f 134/63/63 84/14/14 128/58/58
f 127/55/55 113/43/43 82/10/10
f 83/12/12 84/14/14 86/15/15
f 129/57/57 124/54/54 125/53/53
f 113/43/43 120/49/49 82/10/10
f 128/58/58 129/57/57 116/45/45 135/64/64
f 93/22/22 94/23/23 97/26/26 123/52/52
f 129/57/57 125/53/53 117/46/46
f 101/30/30 117/46/46 125/53/53
f 112/41/41 113/43/43 78/5/5
f 121/50/50 112/41/41 78/5/5
f 134/63/63 136/65/65 84/14/14
f 115/44/44 77/6/6 126/56/56 133/62/62
f 130/59/59 114/42/42 118/48/48 119/47/47
f 92/21/21 73/3/3 74/2/2
f 136/65/65 135/64/64 116/45/45 101/30/30
f 137/66/66 102/31/31 92/21/21 86/15/15
f 132/61/61 115/44/44 103/32/32
f 92/21/21 107/36/36 122/51/51 79/8/8
f 97/26/26 94/23/23 81/11/11
f 137/66/66 136/65/65 101/30/30 102/31/31
f 132/61/61 103/32/32 100/29/29
f 89/19/19 90/18/18 95/24/24
f 98/27/27 81/11/11 111/40/40
f 127/55/55 82/10/10 80/9/9 126/56/56
f 128/58/58 135/64/64 134/63/63
f 128/58/58 84/14/14 108/37/37
f 91/20/20 74/2/2 72/1/1
f 113/43/43 131/60/60 98/27/27
f 110/39/39 111/40/40 82/10/10
f 94/23/23 96/25/25 81/11/11
f 129/57/57 130/59/59 119/47/47 124/54/54
f 136/65/65 134/63/63 135/64/64
f 129/57/57 109/38/38 105/35/35 130/59/59
f 72/1/1 104/33/33 105/35/35 109/38/38
f 104/33/33 122/51/51 132/61/61 100/29/29
f 136/65/65 137/66/66 84/14/14
f 82/10/10 111/40/40 81/11/11
f 114/42/42 106/34/34 123/52/52 131/60/60
f 133/62/62 126/56/56 80/9/9 90/18/18
f 86/15/15 84/14/14 137/66/66
f 90/18/18 81/11/11 96/25/25
f 101/30/30 124/54/54 119/47/47 75/4/4
f 85/13/13 108/37/37 84/14/14
f 114/42/42 131/60/60 113/43/43
f 100/29/29 88/17/17 93/22/22
f 115/44/44 133/62/62 88/17/17
f 78/5/5 113/43/43 127/55/55
f 1/67/67 2/68/68 3/69/69
f 4/70/70 5/71/71 6/72/72 7/73/73
f 1/67/67 8/74/74 2/68/68
f 9/75/75 10/76/76 11/77/77
f 12/78/78 13/79/79 14/80/80
f 15/81/81 12/78/78 16/82/82
f 17/83/83 18/84/84 19/85/85
f 20/86/86 3/69/69 21/87/87
f 22/88/88 23/89/89 17/83/83
f 24/90/90 23/89/89 25/91/91
f 26/92/92 27/93/93 10/76/76
f 28/94/94 29/95/95 17/83/83
f 30/96/96 31/97/97 5/71/71 4/70/70
f 32/98/98 29/95/95 28/94/94
f 33/99/99 34/100/100 35/101/101 29/95/95
f 21/87/87 36/102/102 5/71/71 31/97/97
f 17/83/83 23/89/89 18/84/84
f 37/103/103 38/104/104 1/67/67 14/80/80
f 39/105/105 40/106/106 27/93/93
f 41/107/107 42/108/108 43/109/109
f 24/90/90 25/91/91 19/85/85
f 32/98/98 28/94/94 44/110/110
f 45/111/111 30/96/96 46/112/112
f 4/70/70 7/73/73 47/113/113 48/114/114
f 49/115/115 50/116/115 51/117/115
f 52/118/116 39/105/105 27/93/93
f 47/113/113 7/73/73 53/119/117
f 15/81/81 16/82/82 20/86/86 21/87/87
f 18/84/84 23/89/89 24/90/90
f 28/94/94 17/83/83 44/110/110
f 42/108/108 52/118/116 27/93/93
f 1/67/67 33/99/99 54/120/118 8/74/74
f 9/75/75 19/85/85 10/76/76
f 49/115/119 55/121/119 50/116/119
f 29/95/95 35/101/101 56/122/120 22/88/88
f 47/113/113 53/119/117 43/109/109
f 36/102/102 44/110/110 6/72/72 5/71/71
f 14/80/80 1/67/67 20/86/86 16/82/82
f 30/96/96 57/123/121 58/124/122
f 7/73/73 6/72/72 59/125/123 60/126/124
f 53/119/117 41/107/107 43/109/109
f 52/118/116 11/77/77 39/105/105
f 21/87/87 2/68/68 8/74/74
f 37/103/103 61/127/125 62/128/126 38/104/104
f 45/111/111 46/112/112 62/128/126
f 63/129/127 43/109/109 35/101/101 34/100/100
f 14/80/80 16/82/82 12/78/78
f 64/130/128 27/93/93 26/92/92 56/122/120
f 36/102/102 54/120/118 65/131/129 44/110/110
f 17/83/83 19/85/85 66/132/130
f 67/133/131 61/127/125 13/79/79
f 68/134/132 50/116/132 55/121/132
f 68/134/133 51/117/133 50/116/133
f 60/126/124 11/77/77 42/108/108
f 12/78/78 15/81/81 13/79/79
f 62/128/126 58/124/122 57/123/121
f 42/108/108 11/77/77 52/118/116
f 61/127/125 69/135/134 45/111/111 62/128/126
f 22/88/88 56/122/120 26/92/92 23/89/89
f 62/128/126 46/112/112 58/124/122
f 30/96/96 58/124/122 46/112/112
f 41/107/107 7/73/73 42/108/108
f 53/119/117 7/73/73 41/107/107
f 67/133/131 13/79/79 70/136/135
f 44/110/110 66/132/130 59/125/123 6/72/72
f 63/129/127 48/114/114 47/113/113 43/109/109
f 21/87/87 3/69/69 2/68/68
f 70/136/135 30/96/96 45/111/111 69/135/134
f 71/137/136 15/81/81 21/87/87 31/97/97
f 65/131/129 32/98/98 44/110/110
f 21/87/87 8/74/74 54/120/118 36/102/102
f 26/92/92 10/76/76 23/89/89
f 71/137/136 31/97/97 30/96/96 70/136/135
f 65/131/129 29/95/95 32/98/98
f 18/84/84 24/90/90 19/85/85
f 27/93/93 40/106/106 10/76/76
f 60/126/124 59/125/123 9/75/75 11/77/77
f 61/127/125 67/133/131 69/135/134
f 61/127/125 37/103/103 13/79/79
f 20/86/86 1/67/67 3/69/69
f 42/108/108 27/93/93 64/130/128
f 39/105/105 11/77/77 40/106/106
f 23/89/89 10/76/76 25/91/91
f 62/128/126 57/123/121 48/114/114 63/129/127
f 70/136/135 69/135/134 67/133/131
f 62/128/126 63/129/127 34/100/100 38/104/104
f 1/67/67 38/104/104 34/100/100 33/99/99
f 33/99/99 29/95/95 65/131/129 54/120/118
f 70/136/135 13/79/79 71/137/136
f 11/77/77 10/76/76 40/106/106
f 43/109/109 64/130/128 56/122/120 35/101/101
f 66/132/130 19/85/85 9/75/75 59/125/123
f 15/81/81 71/137/136 13/79/79
f 19/85/85 25/91/91 10/76/76
f 30/96/96 4/70/70 48/114/114 57/123/121
f 14/80/80 13/79/79 37/103/103
f 43/109/109 42/108/108 64/130/128
f 29/95/95 22/88/88 17/83/83
f 44/110/110 17/83/83 66/132/130
f 7/73/73 60/126/124 42/108/108
