# Blender v2.90.0 Alpha OBJ File: 'Decos.blend'
# www.blender.org
o Cube.003_Cube.001_Cube.003_Cube.007
v -0.001122 14.701900 -0.656964
v -0.001122 15.813574 -0.943639
v 0.977658 15.813574 0.035141
v 0.690980 14.701900 0.035138
v -0.001122 16.925247 -0.656962
v -0.001122 17.385715 0.035141
v 0.690980 16.925247 0.035140
v -0.001122 15.813574 1.013921
v -0.001122 14.701900 0.727240
v -0.001122 16.925247 0.727242
v -0.979902 15.813574 0.035140
v -0.693224 14.701900 0.035138
v -0.693224 16.925247 0.035140
v 0.011217 15.007422 0.470648
v -0.447040 15.007422 0.036382
v -0.012774 15.007422 -0.421875
v 0.445483 15.007422 0.012391
v -0.627844 16.433054 -0.534972
v -3.530600 18.031296 -0.743858
v -3.239221 17.930269 1.726783
v -0.402901 16.329266 0.292368
v -5.408709 19.777905 -0.393780
v -5.123784 19.677614 1.850848
v -8.305415 22.711620 0.979934
v -0.023182 16.670807 -0.573221
v -1.818184 19.236677 -1.676979
v -2.688029 19.034231 0.647147
v -0.231642 16.490585 0.245269
v -2.952353 21.557898 -1.838504
v -3.728620 21.358540 0.279812
v -4.985319 25.360546 -1.298516
v 0.534978 16.433052 -0.627838
v 0.743865 18.031294 -3.530594
v -1.726777 17.930267 -3.239215
v -0.292362 16.329264 -0.402895
v 0.393786 19.777903 -5.408703
v -1.850842 19.677612 -5.123778
v -0.979926 22.711622 -8.305408
v 0.573228 16.670805 -0.023176
v 1.676985 19.236675 -1.818178
v -0.647141 19.034229 -2.688024
v -0.245263 16.490583 -0.231636
v 1.838510 21.557896 -2.952345
v -0.279805 21.358538 -3.728612
v 1.298524 25.360544 -4.985311
v 0.627844 16.433050 0.534984
v 3.530600 18.031292 0.743871
v 3.239221 17.930265 -1.726771
v 0.402901 16.329262 -0.292356
v 5.408709 19.777901 0.393792
v 5.123784 19.677610 -1.850835
v 8.305415 22.711617 -0.979917
v 0.023182 16.670803 0.573234
v 1.818184 19.236673 1.676991
v 2.688030 19.034227 -0.647135
v 0.231642 16.490582 -0.245257
v 2.952353 21.557894 1.838516
v 3.728620 21.358536 -0.279799
v 4.985319 25.360542 1.298532
v -0.534978 16.433048 0.627850
v -0.743865 18.031290 3.530606
v 1.726777 17.930264 3.239227
v 0.292362 16.329260 0.402907
v -0.393786 19.777899 5.408715
v 1.850841 19.677608 5.123790
v 0.979925 22.711611 8.305423
v -0.573228 16.670801 0.023188
v -1.676986 19.236671 1.818190
v 0.647141 19.034225 2.688036
v 0.245263 16.490580 0.231648
v -1.838510 21.557892 2.952361
v 0.279805 21.358534 3.728628
v -1.298524 25.360540 4.985327
v -0.614159 16.457829 -0.535576
v -0.389217 16.354040 0.291765
v -3.222468 17.953064 1.725714
v -3.513917 18.054142 -0.744917
v -5.104386 19.698177 1.849332
v -5.389293 19.798450 -0.395300
v -8.285682 22.731855 0.978333
v -0.003182 16.688688 -0.564182
v -0.211642 16.508467 0.254309
v -2.665929 19.049128 0.656689
v -1.796130 19.251648 -1.667448
v -3.704867 21.370380 0.289660
v -2.928588 21.569714 -1.828655
v -4.961359 25.371956 -1.288661
v 0.535582 16.457827 -0.614153
v -0.291759 16.354038 -0.389211
v -1.725708 17.953062 -3.222461
v 0.744923 18.054140 -3.513911
v -1.849326 19.698175 -5.104380
v 0.395306 19.798449 -5.389287
v -0.978325 22.731857 -8.285674
v 0.564188 16.688686 -0.003176
v -0.254303 16.508465 -0.211636
v -0.656683 19.049126 -2.665923
v 1.667454 19.251646 -1.796124
v -0.289653 21.370378 -3.704859
v 1.828662 21.569712 -2.928581
v 1.288670 25.371954 -4.961351
v 0.614159 16.457825 0.535588
v 0.389217 16.354036 -0.291753
v 3.222467 17.953060 -1.725702
v 3.513917 18.054138 0.744929
v 5.104386 19.698174 -1.849320
v 5.389293 19.798447 0.395313
v 8.285682 22.731852 -0.978316
v 0.003182 16.688684 0.564194
v 0.211642 16.508463 -0.254297
v 2.665929 19.049124 -0.656677
v 1.796130 19.251644 1.667460
v 3.704867 21.370377 -0.289647
v 2.928588 21.569710 1.828667
v 4.961359 25.371952 1.288678
v -0.535582 16.457823 0.614165
v 0.291759 16.354034 0.389223
v 1.725707 17.953058 3.222473
v -0.744923 18.054136 3.513923
v 1.849326 19.698170 5.104393
v -0.395307 19.798445 5.389300
v 0.978324 22.731846 8.285689
v -0.564188 16.688683 0.003188
v 0.254303 16.508461 0.211648
v 0.656683 19.049122 2.665935
v -1.667454 19.251642 1.796136
v 0.289653 21.370375 3.704874
v -1.828662 21.569708 2.928595
v -1.288670 25.371950 4.961367
v -0.899080 -3.153199 -0.010956
v 0.000350 -3.153199 0.888473
v 0.899779 -3.153199 -0.010956
v 0.000350 -3.153199 -0.910386
vt 0.195312 0.898438
vt 0.195312 0.898438
vt 0.195312 0.898438
vt 0.195312 0.898438
vt 0.195312 0.898438
vt 0.195312 0.898438
vt 0.195312 0.898438
vt 0.195312 0.898438
vt 0.195312 0.898438
vt 0.195312 0.898438
vt 0.195312 0.898438
vt 0.195312 0.898438
vt 0.195312 0.898438
vt 0.179688 0.882812
vt 0.179688 0.882812
vt 0.179688 0.882812
vt 0.179688 0.882812
vt 0.179688 0.882812
vt 0.179688 0.882812
vt 0.179688 0.882812
vt 0.179688 0.882812
vt 0.257812 0.851562
vt 0.257812 0.851562
vt 0.257812 0.851562
vt 0.257812 0.851562
vt 0.257812 0.851562
vt 0.257812 0.851562
vt 0.257812 0.851562
vt 0.257812 0.851562
vt 0.257812 0.851562
vt 0.257812 0.851562
vt 0.257812 0.851562
vt 0.257812 0.851562
vt 0.257812 0.851562
vt 0.257812 0.851562
vt 0.257812 0.851562
vt 0.257812 0.851562
vt 0.257812 0.851562
vt 0.257812 0.851562
vt 0.257812 0.851562
vt 0.257812 0.851562
vt 0.257812 0.851562
vt 0.257812 0.851562
vt 0.257812 0.851562
vt 0.257812 0.851562
vt 0.257812 0.851562
vt 0.257812 0.851562
vt 0.257812 0.851562
vt 0.257812 0.851562
vt 0.257812 0.851562
vt 0.257812 0.851562
vt 0.257812 0.851562
vt 0.257812 0.851562
vt 0.257812 0.851562
vt 0.257812 0.851562
vt 0.257812 0.851562
vt 0.257812 0.851562
vt 0.257812 0.851562
vt 0.257812 0.851562
vt 0.257812 0.851562
vt 0.257812 0.851562
vt 0.257812 0.851562
vt 0.257812 0.851562
vt 0.257812 0.851562
vt 0.257812 0.851562
vt 0.257812 0.851562
vt 0.257812 0.851562
vt 0.257812 0.851562
vt 0.257812 0.851562
vt 0.257812 0.851562
vt 0.257812 0.851562
vt 0.257812 0.851562
vt 0.257812 0.851562
vt 0.257812 0.851562
vt 0.257812 0.851562
vt 0.257812 0.851562
vt 0.257812 0.851562
vt 0.257812 0.851562
vt 0.257812 0.851562
vt 0.257812 0.851562
vt 0.257812 0.851562
vt 0.257812 0.851562
vt 0.257812 0.851562
vt 0.257812 0.851562
vt 0.257812 0.851562
vt 0.257812 0.851562
vt 0.257812 0.851562
vt 0.257812 0.851562
vt 0.257812 0.851562
vt 0.257812 0.851562
vt 0.257812 0.851562
vt 0.257812 0.851562
vt 0.257812 0.851562
vt 0.257812 0.851562
vt 0.257812 0.851562
vt 0.257812 0.851562
vt 0.257812 0.851562
vt 0.257812 0.851562
vt 0.257812 0.851562
vt 0.257812 0.851562
vt 0.257812 0.851562
vt 0.257812 0.851562
vt 0.257812 0.851562
vt 0.257812 0.851562
vt 0.257812 0.851562
vt 0.257812 0.851562
vt 0.257812 0.851562
vt 0.257812 0.851562
vt 0.257812 0.851562
vt 0.257812 0.851562
vt 0.257812 0.851562
vt 0.257812 0.851562
vt 0.257812 0.851562
vt 0.257812 0.851562
vt 0.257812 0.851562
vt 0.257812 0.851562
vt 0.257812 0.851562
vt 0.257812 0.851562
vt 0.257812 0.851562
vt 0.257812 0.851562
vt 0.257812 0.851562
vt 0.257812 0.851562
vt 0.257812 0.851562
vt 0.257812 0.851562
vt 0.257812 0.851562
vt 0.257812 0.851562
vt 0.257812 0.851562
vt 0.257812 0.851562
vt 0.257812 0.851562
vt 0.257812 0.851562
vt 0.257812 0.851562
vt 0.257812 0.851562
vt 0.257812 0.851562
vn 0.6956 -0.1794 -0.6956
vn 0.4846 0.7283 -0.4846
vn 0.6956 0.1794 -0.6956
vn 0.6956 -0.1794 0.6956
vn 0.4846 0.7283 0.4846
vn 0.6956 0.1794 0.6956
vn -0.6956 -0.1794 0.6956
vn -0.4846 0.7283 0.4846
vn -0.6956 0.1794 0.6956
vn -0.6956 -0.1794 -0.6956
vn -0.4846 0.7283 -0.4846
vn -0.6956 0.1794 -0.6956
vn 0.7079 0.0097 0.7063
vn 0.7079 0.0098 0.7062
vn 0.7242 0.0189 0.6893
vn -0.7079 0.0113 -0.7062
vn -0.7242 0.0219 -0.6893
vn -0.7079 0.0113 -0.7063
vn 0.4833 0.8752 -0.0213
vn 0.5893 0.8070 -0.0374
vn 0.5918 0.8052 -0.0378
vn 0.6859 0.7257 -0.0537
vn 0.6852 0.7263 -0.0535
vn 0.6971 0.7148 -0.0565
vn 0.7064 0.6317 0.3193
vn 0.7791 0.5289 0.3367
vn 0.7807 0.5262 0.3371
vn 0.8395 0.4174 0.3479
vn 0.8391 0.4182 0.3479
vn 0.8464 0.4031 0.3481
vn 0.0213 0.8752 0.4833
vn 0.0374 0.8070 0.5893
vn 0.0378 0.8052 0.5918
vn 0.0537 0.7257 0.6859
vn 0.0535 0.7263 0.6852
vn 0.0565 0.7148 0.6971
vn -0.3193 0.6317 0.7064
vn -0.3367 0.5289 0.7791
vn -0.3371 0.5262 0.7807
vn -0.3479 0.4174 0.8395
vn -0.3479 0.4182 0.8391
vn -0.3481 0.4031 0.8464
vn -0.4833 0.8752 0.0213
vn -0.5893 0.8070 0.0374
vn -0.5918 0.8052 0.0378
vn -0.6859 0.7257 0.0537
vn -0.6852 0.7263 0.0535
vn -0.6971 0.7148 0.0565
vn -0.7064 0.6317 -0.3193
vn -0.7791 0.5289 -0.3367
vn -0.7807 0.5262 -0.3371
vn -0.8395 0.4174 -0.3479
vn -0.8391 0.4182 -0.3479
vn -0.8464 0.4031 -0.3481
vn -0.0213 0.8752 -0.4833
vn -0.0374 0.8070 -0.5893
vn -0.0378 0.8052 -0.5918
vn -0.0537 0.7257 -0.6859
vn -0.0535 0.7263 -0.6852
vn -0.0565 0.7148 -0.6971
vn 0.3193 0.6317 -0.7064
vn 0.3367 0.5289 -0.7791
vn 0.3371 0.5262 -0.7807
vn 0.3479 0.4174 -0.8395
vn 0.3479 0.4182 -0.8391
vn 0.3481 0.4031 -0.8464
vn -0.4833 -0.8752 0.0213
vn -0.5918 -0.8052 0.0378
vn -0.5893 -0.8070 0.0374
vn -0.6853 -0.7263 0.0536
vn -0.6859 -0.7257 0.0537
vn -0.6971 -0.7148 0.0565
vn -0.7064 -0.6317 -0.3193
vn -0.7807 -0.5262 -0.3371
vn -0.7791 -0.5289 -0.3367
vn -0.8391 -0.4182 -0.3479
vn -0.8395 -0.4174 -0.3479
vn -0.8464 -0.4031 -0.3481
vn -0.0213 -0.8752 -0.4833
vn -0.0378 -0.8052 -0.5918
vn -0.0374 -0.8070 -0.5893
vn -0.0536 -0.7263 -0.6853
vn -0.0537 -0.7257 -0.6859
vn -0.0565 -0.7148 -0.6971
vn 0.3193 -0.6317 -0.7064
vn 0.3371 -0.5262 -0.7807
vn 0.3367 -0.5289 -0.7791
vn 0.3479 -0.4182 -0.8391
vn 0.3479 -0.4174 -0.8395
vn 0.3481 -0.4031 -0.8464
vn 0.4833 -0.8752 -0.0213
vn 0.5918 -0.8052 -0.0378
vn 0.5893 -0.8070 -0.0374
vn 0.6853 -0.7263 -0.0536
vn 0.6859 -0.7257 -0.0537
vn 0.6971 -0.7148 -0.0565
vn 0.7064 -0.6317 0.3193
vn 0.7807 -0.5262 0.3371
vn 0.7791 -0.5289 0.3367
vn 0.8391 -0.4182 0.3479
vn 0.8395 -0.4174 0.3479
vn 0.8464 -0.4031 0.3481
vn 0.0213 -0.8752 0.4833
vn 0.0378 -0.8052 0.5918
vn 0.0374 -0.8070 0.5893
vn 0.0536 -0.7263 0.6853
vn 0.0537 -0.7257 0.6859
vn 0.0565 -0.7148 0.6971
vn -0.3193 -0.6317 0.7064
vn -0.3371 -0.5262 0.7807
vn -0.3367 -0.5289 0.7791
vn -0.3479 -0.4182 0.8391
vn -0.3479 -0.4174 0.8395
vn -0.3481 -0.4031 0.8464
vn -0.7063 0.0097 0.7079
vn -0.6893 0.0187 0.7242
vn 0.7062 0.0114 -0.7079
vn 0.6893 0.0220 -0.7242
s off
f 1/1/1 2/2/1 3/3/1 4/4/1
f 5/5/2 6/6/2 7/7/2
f 2/2/3 5/5/3 7/7/3 3/3/3
f 4/4/4 3/3/4 8/8/4 9/9/4
f 7/7/5 6/6/5 10/10/5
f 3/3/6 7/7/6 10/10/6 8/8/6
f 9/9/7 8/8/7 11/11/7 12/12/7
f 10/10/8 6/6/8 13/13/8
f 8/8/9 10/10/9 13/13/9 11/11/9
f 12/12/10 11/11/10 2/2/10 1/1/10
f 13/13/11 6/6/11 5/5/11
f 11/11/12 13/13/12 5/5/12 2/2/12
s 1
f 131/14/13 132/15/14 17/16/15 14/17/15
f 130/18/16 15/19/17 16/20/17 133/21/18
f 18/22/19 19/23/20 20/24/21 21/25/19
f 19/23/20 22/26/22 23/27/23 20/24/21
f 22/26/22 24/28/24 23/27/23
f 25/29/25 26/30/26 27/31/27 28/32/25
f 26/30/26 29/33/28 30/34/29 27/31/27
f 29/33/28 31/35/30 30/34/29
f 32/36/31 33/37/32 34/38/33 35/39/31
f 33/37/32 36/40/34 37/41/35 34/38/33
f 36/40/34 38/42/36 37/41/35
f 39/43/37 40/44/38 41/45/39 42/46/37
f 40/44/38 43/47/40 44/48/41 41/45/39
f 43/47/40 45/49/42 44/48/41
f 46/50/43 47/51/44 48/52/45 49/53/43
f 47/51/44 50/54/46 51/55/47 48/52/45
f 50/54/46 52/56/48 51/55/47
f 53/57/49 54/58/50 55/59/51 56/60/49
f 54/58/50 57/61/52 58/62/53 55/59/51
f 57/61/52 59/63/54 58/62/53
f 60/64/55 61/65/56 62/66/57 63/67/55
f 61/65/56 64/68/58 65/69/59 62/66/57
f 64/68/58 66/70/60 65/69/59
f 67/71/61 68/72/62 69/73/63 70/74/61
f 68/72/62 71/75/64 72/76/65 69/73/63
f 71/75/64 73/77/66 72/76/65
f 74/78/67 75/79/67 76/80/68 77/81/69
f 77/81/69 76/80/68 78/82/70 79/83/71
f 79/83/71 78/82/70 80/84/72
f 81/85/73 82/86/73 83/87/74 84/88/75
f 84/88/75 83/87/74 85/89/76 86/90/77
f 86/90/77 85/89/76 87/91/78
f 88/92/79 89/93/79 90/94/80 91/95/81
f 91/95/81 90/94/80 92/96/82 93/97/83
f 93/97/83 92/96/82 94/98/84
f 95/99/85 96/100/85 97/101/86 98/102/87
f 98/102/87 97/101/86 99/103/88 100/104/89
f 100/104/89 99/103/88 101/105/90
f 102/106/91 103/107/91 104/108/92 105/109/93
f 105/109/93 104/108/92 106/110/94 107/111/95
f 107/111/95 106/110/94 108/112/96
f 109/113/97 110/114/97 111/115/98 112/116/99
f 112/116/99 111/115/98 113/117/100 114/118/101
f 114/118/101 113/117/100 115/119/102
f 116/120/103 117/121/103 118/122/104 119/123/105
f 119/123/105 118/122/104 120/124/106 121/125/107
f 121/125/107 120/124/106 122/126/108
f 123/127/109 124/128/109 125/129/110 126/130/111
f 126/130/111 125/129/110 127/131/112 128/132/113
f 128/132/113 127/131/112 129/133/114
f 130/18/115 131/14/115 14/17/116 15/19/116
f 132/15/117 133/21/117 16/20/118 17/16/118
