# Blender v2.90.0 Alpha OBJ File: 'Decos.blend'
# www.blender.org
o Sphere.005_Sphere.006
v 0.016504 -4.645818 0.121864
v 7.499732 -4.645818 0.121864
v 0.016504 -4.645818 -0.121864
v 7.499732 -4.808630 0.000000
v 0.016504 -4.483007 0.000000
v 7.499732 -4.645818 -0.121864
v 0.016504 -4.350637 0.000000
v 7.499732 -4.025015 0.000000
v 0.016504 -4.025015 0.000000
v 7.499732 -4.350637 0.000000
v 7.499732 -4.187826 0.121864
v 0.016504 -4.187826 0.121864
v 7.499732 -4.187826 -0.121864
v 0.016504 -4.187826 -0.121864
v 7.499732 -4.483007 0.000000
v 0.016504 -4.808630 0.000000
vt 0.039062 0.742188
vt 0.039062 0.742188
vt 0.039062 0.742188
vt 0.039062 0.742188
vt 0.039062 0.742188
vt 0.039062 0.742188
vt 0.039062 0.742188
vt 0.039062 0.742188
vt 0.039062 0.742188
vt 0.039062 0.742187
vt 0.039062 0.742188
vt 0.039062 0.742188
vt 0.039062 0.742188
vt 0.039062 0.742188
vt 0.039062 0.742187
vt 0.039062 0.742188
vn 1.0000 0.0000 0.0000
vn -1.0000 0.0000 0.0000
vn 0.0000 -0.5992 0.8006
vn 0.0000 0.5992 -0.8006
vn 0.0000 -0.5992 -0.8006
vn 0.0000 0.5992 0.8006
s 1
f 13/1/1 11/2/1 10/3/1
f 15/4/1 2/5/1 6/6/1
f 14/7/2 7/8/2 12/9/2
f 12/9/3 7/8/3 10/3/3 11/2/3
f 5/10/4 15/4/4 6/6/4 3/11/4
f 14/7/5 13/1/5 10/3/5 7/8/5
f 5/10/6 1/12/6 2/5/6 15/4/6
f 3/11/5 6/6/5 4/13/5 16/14/5
f 5/10/2 3/11/2 1/12/2
f 1/12/3 16/14/3 4/13/3 2/5/3
f 3/11/2 16/14/2 1/12/2
f 6/6/1 2/5/1 4/13/1
f 9/15/4 8/16/4 13/1/4 14/7/4
f 9/15/6 12/9/6 11/2/6 8/16/6
f 9/15/2 14/7/2 12/9/2
f 8/16/1 11/2/1 13/1/1
