# Blender v2.90.0 Alpha OBJ File: 'Decos.blend'
# www.blender.org
o Horse_Cube.002
v 1.450337 1.181915 -1.730458
v -1.507287 1.240953 -1.716505
v -1.416163 -0.760767 -1.708810
v 1.476906 -0.812694 -1.698706
v 1.316438 -0.643361 1.542879
v -1.342553 -0.688874 1.543359
v 1.433749 1.185531 1.614975
v -1.407391 1.149591 1.626097
v -0.071059 2.546045 0.144256
v 0.487010 1.577073 -0.426625
v -0.500459 1.523534 0.418603
v -0.070691 2.530997 -0.237840
v 0.180097 2.561381 -0.066880
v 0.732667 2.979227 0.146042
v -0.065059 2.927087 -0.634374
v -0.415329 2.949856 0.565605
v 0.732644 3.622344 0.473307
v 1.174480 3.596492 -0.504351
v -0.139772 3.995515 -0.552093
v -1.045855 3.553564 -0.224223
v -1.175092 3.596514 0.485502
v 0.149951 3.993834 0.830041
v 0.009863 3.744358 0.227102
v 0.543376 5.073855 0.347272
v 0.215753 3.920914 -0.334030
v -0.491368 4.315050 0.382024
v -0.135227 4.404016 0.569612
v 0.111584 4.536230 0.812453
v -0.784045 5.098902 -0.054402
v -0.306058 5.238183 0.823737
v -0.436340 3.908650 -0.173839
v -0.211846 5.117063 -0.599349
v -0.397729 5.844036 0.397745
v 0.637228 5.434238 -0.253524
v 0.509229 4.341084 0.145326
v 0.265746 4.519732 0.604321
v -0.393211 4.465910 0.315906
v 0.374721 4.466272 0.093740
v -0.187092 5.113484 0.753882
v 0.273388 5.056919 0.709186
v 0.438636 5.058696 0.596138
v -0.047638 5.017413 0.840159
vt 0.101562 0.789062
vt 0.101562 0.789062
vt 0.101562 0.789062
vt 0.101562 0.789062
vt 0.101562 0.789062
vt 0.101562 0.789062
vt 0.101562 0.789062
vt 0.101562 0.789062
vt 0.101562 0.789062
vt 0.101562 0.789062
vt 0.101562 0.789062
vt 0.101562 0.789062
vt 0.101562 0.789062
vt 0.101562 0.789062
vt 0.101562 0.789062
vt 0.101562 0.789062
vt 0.101562 0.789062
vt 0.101562 0.789062
vt 0.101562 0.789062
vt 0.101562 0.789062
vt 0.101562 0.789062
vt 0.101562 0.789062
vt 0.101562 0.789062
vt 0.101562 0.789062
vt 0.101562 0.789062
vt 0.101562 0.789062
vt 0.101562 0.789062
vt 0.101562 0.789062
vt 0.101562 0.789062
vt 0.101562 0.789062
vt 0.101562 0.789063
vt 0.101562 0.789062
vt 0.101562 0.789062
vt 0.101562 0.789062
vt 0.101563 0.789063
vt 0.101562 0.789062
vn 0.4728 0.4288 -0.7698
vn 0.6443 -0.0772 0.7608
vn -0.9234 0.3835 -0.0160
vn -0.0938 0.9948 -0.0393
vn 0.0607 0.0809 -0.9949
vn 0.0046 0.1283 0.9917
vn 0.3196 -0.4297 0.8445
vn -0.5766 -0.8025 -0.1531
vn -0.0104 0.9368 0.3498
vn -0.4743 0.8693 -0.1390
vn 0.2855 0.9527 0.1038
vn 0.6509 -0.0705 0.7559
vn -0.6276 -0.2191 -0.7471
vn 0.0364 -0.9989 0.0296
vn 0.8894 -0.2073 0.4074
vn -0.3599 0.0466 -0.9318
vn 0.4645 -0.7781 -0.4229
vn -0.6422 -0.7633 -0.0707
vn -0.5967 0.5713 -0.5636
vn 0.5933 0.5487 0.5890
vn 0.5882 0.5654 -0.5783
vn 0.5927 -0.5903 -0.5480
vn -0.5601 -0.5913 0.5802
vn -0.5741 -0.5896 -0.5682
vn 0.5617 -0.5810 0.5891
vn -0.5813 0.5439 0.6052
vn -0.8181 -0.4176 0.3954
vn -0.7477 -0.3324 0.5748
vn -0.7829 -0.1357 0.6071
vn -0.2386 -0.8351 0.4957
vn -0.2752 -0.6934 0.6659
vn -0.2380 -0.8258 0.5113
vn 0.4823 0.5618 0.6721
vn 0.5059 0.3664 0.7809
vn 0.5080 0.1904 0.8400
vn 0.9814 -0.1423 0.1286
vn 0.9003 -0.4321 -0.0525
vn 0.9636 -0.2652 0.0337
vn 0.7696 -0.6331 0.0832
vn -0.3155 -0.0253 -0.9486
vn -0.0812 -0.3658 -0.9272
vn -0.1931 -0.1317 -0.9723
vn 0.9739 0.0223 0.2258
vn -0.8036 -0.0250 0.5947
vn -0.8766 -0.0237 0.4806
vn -0.9577 -0.2844 -0.0435
vn -0.9624 -0.2685 -0.0419
vn -0.9574 -0.2855 -0.0435
vn -0.8755 0.1823 0.4476
vn -0.6820 -0.1269 -0.7203
vn -0.6205 0.6165 -0.4847
vn -0.6190 0.6192 -0.4831
vn -0.6200 0.6173 -0.4842
vn 0.9915 -0.0457 0.1218
vn 0.8411 -0.2153 -0.4963
vn 0.8394 -0.2218 -0.4962
vn 0.8472 -0.1939 -0.4946
vn 0.4259 0.7451 0.5133
vn 0.0612 0.8780 -0.4748
vn 0.0256 0.8901 -0.4550
vn 0.0275 0.8897 -0.4558
vn 0.6093 0.5727 0.5484
vn 0.5984 0.5799 0.5528
vn 0.5887 0.5850 0.5579
vn 0.3961 -0.0616 -0.9161
vn -0.2473 0.9342 -0.2572
vn -0.1673 0.9626 -0.2129
vn -0.2631 0.9001 -0.3471
s off
f 13/1/1 10/2/1 12/3/1
f 9/4/2 10/2/2 13/1/2
f 12/3/3 11/5/3 9/4/3
f 12/3/4 9/4/4 13/1/4
f 15/6/5 19/7/5 18/8/5
f 16/9/6 17/10/6 21/11/6
f 14/12/7 17/10/7 16/9/7
f 16/9/8 20/13/8 15/6/8
f 21/11/9 17/10/9 19/7/9
f 20/13/10 21/11/10 19/7/10
f 17/10/11 18/8/11 19/7/11
f 9/4/12 11/5/12 10/2/12
f 12/3/13 10/2/13 11/5/13
f 15/6/14 14/12/14 16/9/14
f 14/12/15 18/8/15 17/10/15
f 15/6/16 20/13/16 19/7/16
f 14/12/17 15/6/17 18/8/17
f 16/9/18 21/11/18 20/13/18
s 1
f 2/14/19 7/15/20 1/16/21
f 4/17/22 6/18/23 3/19/24
f 1/16/21 5/20/25 4/17/22
f 2/14/19 4/17/22 3/19/24
f 8/21/26 3/19/24 6/18/23
f 7/15/20 6/18/23 5/20/25
f 26/22/27 31/23/28 22/24/29
f 22/24/30 31/23/31 23/25/32
f 24/26/33 30/27/34 22/24/35
f 35/28/36 22/24/37 25/29/38
f 22/24/39 23/25/39 25/29/39
f 25/29/40 31/23/41 32/30/42
f 22/24/37 35/28/36 24/26/43
f 26/22/27 22/24/29 30/27/44
f 30/27/44 29/31/45 26/22/27
f 26/22/46 29/31/47 31/23/48
f 33/32/49 29/31/49 30/27/49
f 32/30/50 31/23/50 29/31/50
f 29/31/51 33/32/52 32/30/53
f 24/26/43 35/28/36 34/33/54
f 35/28/55 25/29/56 34/33/57
f 30/27/34 24/26/33 34/33/58
f 34/33/59 32/30/60 33/32/61
f 30/27/62 34/33/63 33/32/64
f 32/30/65 34/33/65 25/29/65
f 2/14/19 8/21/26 7/15/20
f 4/17/22 5/20/25 6/18/23
f 1/16/21 7/15/20 5/20/25
f 2/14/19 1/16/21 4/17/22
f 8/21/26 2/14/19 3/19/24
f 7/15/20 8/21/26 6/18/23
f 36/34/66 27/35/67 28/36/68
l 40 41
l 27 37
l 39 42
l 38 36
