# Blender v2.90.0 Alpha OBJ File: 'Decos.blend'
# www.blender.org
o Cube.002_Cube.004
v -1.079164 0.342224 -3.899896
v -1.079164 0.342220 2.622918
v -1.079164 1.282557 -4.215248
v -1.079165 2.513298 4.013672
v 1.079184 2.513298 4.013672
v -1.079164 1.282556 2.152104
v -1.079164 0.715064 4.065168
v -1.079164 1.282555 4.076542
v -1.079164 0.414106 4.065168
v -1.079165 2.147496 2.800366
v 1.079185 2.147496 2.800366
v 1.079185 1.282557 -4.215248
v 1.064367 0.365027 -3.846348
v -1.079164 3.193702 -3.881936
v 1.079185 1.282555 4.076542
v 1.079185 3.193702 -3.881936
v 1.079185 1.495480 3.328186
v -1.079164 1.495480 3.328186
v 1.079184 3.236820 3.246686
v -1.079165 3.236820 3.246686
v -0.849966 1.560938 3.178240
v 0.849987 1.560938 3.178240
v 0.849813 1.981134 2.858698
v -0.849792 1.981134 2.858698
v -1.079165 2.147498 2.090008
v -1.066214 2.121812 2.795000
v -0.903823 1.537588 3.218142
v -0.904118 2.012032 2.856300
v 0.903844 1.537588 3.218142
v -1.079164 0.715064 4.065168
v 0.904139 2.012032 2.856300
v -1.066214 2.121812 2.115214
v -1.066214 1.549834 2.256358
v -1.066214 2.024130 2.208452
v -1.066214 2.024130 2.756474
v -1.044361 1.987682 2.257226
v -1.044361 1.987682 2.736320
v -1.066214 1.549834 3.163670
v -1.044359 1.573044 2.299108
v -1.044359 1.573043 3.092300
v 1.079185 0.715064 4.065168
v 1.079185 1.282556 2.152104
v 1.079185 0.414106 4.065168
v 1.079185 2.147498 2.090008
v 1.066235 2.121812 2.795000
v 1.079185 0.715064 4.065168
v 1.066235 2.121812 2.115214
v 1.066235 2.024130 2.208452
v 1.066235 1.549834 2.256358
v 1.066235 2.024130 2.756474
v 1.044381 1.987682 2.736320
v 1.044381 1.987682 2.257226
v 1.066235 1.549834 3.163670
v 1.044381 1.573044 2.299108
v 1.044381 1.573043 3.092300
v -1.064346 0.037910 -3.846348
v -1.064346 0.108806 4.009351
v 1.064367 0.037910 -3.846348
v 1.064367 0.108806 4.009351
vt 0.132812 0.835938
vt 0.132812 0.835938
vt 0.132812 0.835938
vt 0.132812 0.789062
vt 0.132812 0.789062
vt 0.132812 0.789062
vt 0.132812 0.789062
vt 0.132812 0.835938
vt 0.132812 0.835938
vt 0.132812 0.835938
vt 0.132812 0.835938
vt 0.132812 0.789062
vt 0.132812 0.789062
vt 0.132812 0.789062
vt 0.132812 0.789062
vt 0.132812 0.789062
vt 0.132812 0.789062
vt 0.132812 0.835938
vt 0.132812 0.835938
vt 0.132812 0.835938
vt 0.132812 0.789062
vt 0.132812 0.789062
vt 0.132812 0.789062
vt 0.132812 0.789062
vt 0.210938 0.789062
vt 0.210938 0.789062
vt 0.210938 0.789062
vt 0.210938 0.789062
vt 0.132812 0.789062
vt 0.132812 0.789062
vt 0.132812 0.789062
vt 0.132812 0.789062
vt 0.132812 0.789062
vt 0.132812 0.789062
vt 0.132812 0.789062
vt 0.132812 0.789062
vt 0.210938 0.789062
vt 0.210938 0.789062
vt 0.210938 0.789062
vt 0.210938 0.789062
vt 0.210938 0.789062
vt 0.210938 0.789062
vt 0.132812 0.789062
vt 0.132812 0.789062
vt 0.132812 0.789062
vt 0.132812 0.789062
vt 0.164062 0.773438
vt 0.164062 0.773438
vt 0.164062 0.773438
vt 0.164062 0.773438
vt 0.132812 0.789062
vt 0.132812 0.789062
vt 0.164062 0.773438
vt 0.164062 0.773438
vt 0.210938 0.789062
vt 0.210938 0.789062
vt 0.210938 0.789062
vt 0.210938 0.789062
vt 0.164062 0.773438
vt 0.164062 0.773438
vt 0.164062 0.773438
vt 0.164062 0.773438
vt 0.164062 0.773438
vt 0.164062 0.773438
vt 0.164062 0.773438
vt 0.164062 0.773438
vt 0.164062 0.773438
vt 0.164062 0.773438
vt 0.132812 0.835938
vt 0.132812 0.835938
vt 0.132812 0.835938
vt 0.132812 0.789062
vt 0.132812 0.789062
vt 0.132812 0.835938
vt 0.132812 0.789062
vt 0.132812 0.789062
vt 0.132812 0.789062
vt 0.132812 0.789062
vt 0.164062 0.773438
vt 0.164062 0.773438
vt 0.164062 0.773438
vt 0.164062 0.773438
vt 0.132812 0.789062
vt 0.132812 0.789062
vt 0.164062 0.773438
vt 0.164062 0.773438
vt 0.210938 0.789062
vt 0.210938 0.789062
vt 0.210938 0.789062
vt 0.210938 0.789062
vt 0.164062 0.773438
vt 0.164062 0.773438
vt 0.101562 0.898438
vt 0.101562 0.898438
vt 0.101562 0.898438
vt 0.101562 0.898438
vt 0.101562 0.898438
vt 0.101562 0.898438
vt 0.101562 0.898438
vt 0.101562 0.898438
vn -1.0000 -0.0000 0.0000
vn 0.0000 0.7274 0.6862
vn 0.0000 -0.9574 0.2887
vn 0.0000 -0.3180 -0.9481
vn -0.0000 -0.3179 -0.9481
vn 0.0000 -0.0200 0.9998
vn 0.0000 0.9344 0.3562
vn -0.0001 0.9344 0.3562
vn 0.0000 0.6053 0.7960
vn 0.0000 0.1718 -0.9851
vn 0.0000 1.0000 -0.0060
vn -0.8434 -0.3380 -0.4176
vn 0.1496 0.5910 0.7927
vn 0.1584 0.5919 0.7903
vn 0.1492 0.5906 0.7930
vn 0.1586 0.5910 0.7909
vn -0.0092 0.8506 0.5258
vn -0.0130 0.8443 0.5357
vn -0.0153 0.8508 0.5252
vn -0.0094 0.8442 0.5359
vn 0.0000 0.0000 1.0000
vn 0.0000 0.3817 0.9243
vn -0.8741 0.0348 0.4845
vn -0.8929 -0.4502 -0.0000
vn -0.8577 -0.5142 0.0000
vn -0.8990 0.0440 0.4357
vn -0.8725 -0.3182 -0.3707
vn -0.7280 0.6855 0.0000
vn 0.0000 0.8631 0.5051
vn 0.3031 0.5774 0.7581
vn 0.0000 0.0774 0.9970
vn 1.0000 0.0000 0.0000
vn 0.8434 -0.3380 -0.4176
vn -0.2753 0.5959 0.7544
vn 0.8741 0.0348 0.4845
vn 0.8929 -0.4502 -0.0000
vn 0.8576 -0.5142 0.0000
vn 0.8990 0.0440 0.4357
vn 0.8726 -0.3182 -0.3707
vn 0.7280 0.6855 0.0000
vn -0.3031 0.5774 0.7581
vn 0.0000 -0.0000 -1.0000
s off
f 1/1/1 2/2/1 3/3/1
f 4/4/2 5/5/2 19/6/2 20/7/2
f 6/8/1 2/2/1 7/9/1 8/10/1
f 7/9/1 2/2/1 9/11/1
f 10/12/3 11/13/3 5/5/3 4/4/3
f 3/14/4 12/15/4 13/16/5 1/17/4
f 7/9/6 30/18/6 41/19/6 15/20/6 8/10/6
f 8/21/7 15/22/8 17/23/7 18/24/7
f 21/25/9 22/26/9 23/27/9 24/28/9
f 6/29/1 25/30/1 14/31/1 3/14/1
f 12/15/10 3/14/10 14/31/10 16/32/10
f 14/31/1 10/12/1 4/4/1
f 16/32/11 14/31/11 20/7/11 19/6/11
f 3/3/1 2/2/1 6/8/1
f 14/31/1 4/4/1 20/7/1
f 25/30/1 10/12/1 14/31/1
f 18/24/12 10/12/12 26/33/12
f 10/12/13 18/24/14 27/34/15 28/35/16
f 18/24/17 17/23/18 29/36/19 27/34/20
f 9/37/21 43/38/21 46/39/21 30/40/21
f 41/41/21 30/40/21 46/39/21
f 9/37/21 30/40/21 7/42/21
f 11/13/22 10/12/22 28/35/22 31/43/22
f 25/30/23 6/29/23 32/44/23
f 10/12/24 25/30/24 32/44/24 26/33/24
f 32/44/1 6/29/1 33/45/1 34/46/1
f 35/47/25 34/48/25 36/49/25 37/50/25
f 6/29/1 18/24/1 38/51/1 33/45/1
f 18/24/1 26/33/1 35/52/1 38/51/1
f 26/33/1 32/44/1 34/46/1 35/52/1
f 34/48/26 33/53/26 39/54/26 36/49/26
f 39/55/1 40/56/1 37/57/1 36/58/1
f 38/59/27 35/47/27 37/50/27 40/60/27
f 33/53/28 38/59/28 40/60/28 39/54/28
f 27/61/29 29/62/29 22/63/29 21/64/29
f 28/65/30 27/61/30 21/64/30 24/66/30
f 31/67/31 28/65/31 24/66/31 23/68/31
f 15/20/32 41/19/32 13/69/32 42/70/32
f 41/19/32 43/71/32 13/69/32
f 42/72/32 12/15/32 16/32/32 44/73/32
f 16/32/32 5/5/32 11/13/32
f 12/74/32 42/70/32 13/69/32
f 16/32/32 19/6/32 5/5/32
f 44/73/32 16/32/32 11/13/32
f 17/23/33 45/75/33 11/13/33
f 11/13/34 31/43/34 29/36/34 17/23/34
f 43/38/21 41/41/21 46/39/21
f 44/73/35 47/76/35 42/72/35
f 11/13/36 45/75/36 47/76/36 44/73/36
f 47/76/32 48/77/32 49/78/32 42/72/32
f 50/79/37 51/80/37 52/81/37 48/82/37
f 42/72/32 49/78/32 53/83/32 17/23/32
f 17/23/32 53/83/32 50/84/32 45/75/32
f 45/75/32 50/84/32 48/77/32 47/76/32
f 48/82/38 52/81/38 54/85/38 49/86/38
f 54/87/32 52/88/32 51/89/32 55/90/32
f 53/91/39 55/92/39 51/80/39 50/79/39
f 49/86/40 54/85/40 55/92/40 53/91/40
f 31/67/41 23/68/41 22/63/41 29/62/41
f 18/24/1 6/29/1 8/21/1
f 17/23/32 15/22/32 42/72/32
f 43/93/21 9/94/21 57/95/21 59/96/21
f 13/97/32 43/93/32 59/96/32 58/98/32
f 9/94/1 1/99/1 56/100/1 57/95/1
f 1/99/42 13/97/42 58/98/42 56/100/42
