# Blender v2.90.0 Alpha OBJ File: 'Decos.blend'
# www.blender.org
o Cube.003_Cube.016
v -4.424607 2.246534 4.424607
v -4.424607 11.095749 4.424607
v -4.424607 2.246534 -4.424607
v -4.424607 11.095749 -4.424607
v 4.424607 2.246534 4.424607
v 4.424607 11.095749 4.424607
v 4.424607 2.246534 -4.424607
v 4.424607 11.095749 -4.424607
vt 0.101562 0.789062
vt 0.101562 0.789062
vt 0.101562 0.789062
vt 0.101562 0.789062
vt 0.101562 0.789062
vt 0.101562 0.789062
vt 0.101562 0.789062
vt 0.101562 0.789062
vn -1.0000 0.0000 0.0000
vn 0.0000 0.0000 -1.0000
vn 1.0000 0.0000 0.0000
vn 0.0000 0.0000 1.0000
vn 0.0000 1.0000 0.0000
s off
f 1/1/1 2/2/1 4/3/1 3/4/1
f 3/4/2 4/3/2 8/5/2 7/6/2
f 7/6/3 8/5/3 6/7/3 5/8/3
f 5/8/4 6/7/4 2/2/4 1/1/4
f 8/5/5 4/3/5 2/2/5 6/7/5
