# Blender v2.90.0 Alpha OBJ File: 'Decos.blend'
# www.blender.org
o Sphere_Sphere.001
v -0.000000 9.387572 -3.594799
v -0.000001 11.065827 0.000000
v 3.594798 9.387572 0.000000
v 5.309133 5.756693 -0.000000
v 3.594798 2.125815 -0.000000
v -0.000000 0.447559 -0.000000
v -0.000000 9.387572 3.594798
v 0.000000 5.756693 5.309133
v -0.000000 2.125815 3.594799
v -3.594798 9.387572 -0.000000
v -5.309132 5.756693 -0.000000
v -3.594798 2.125815 -0.000000
v 0.000000 5.756693 -5.309133
v -0.000000 2.125815 -3.594799
vt 0.101562 0.789062
vt 0.101562 0.789062
vt 0.101562 0.789062
vt 0.101562 0.789062
vt 0.101562 0.789062
vt 0.101562 0.789062
vt 0.101562 0.789062
vt 0.101562 0.789062
vt 0.101562 0.789062
vt 0.101562 0.789062
vt 0.101562 0.789062
vt 0.101562 0.789062
vt 0.101562 0.789062
vt 0.101562 0.789062
vn 0.0000 0.0000 -1.0000
vn 0.0000 0.6377 -0.7702
vn 0.7702 0.6377 0.0000
vn 1.0000 0.0000 0.0000
vn 0.0000 1.0000 0.0000
vn 0.0000 0.6377 0.7702
vn 0.7702 -0.6377 0.0000
vn 0.0000 -0.6377 -0.7702
vn 0.0000 0.0000 1.0000
vn 0.0000 -0.6377 0.7702
vn 0.0000 -1.0000 0.0000
vn -0.7702 0.6377 0.0000
vn -1.0000 0.0000 0.0000
vn -0.7702 -0.6377 0.0000
s 1
f 13/1/1 1/2/2 3/3/3 4/4/4
f 2/5/5 7/6/6 3/3/3
f 4/4/4 5/7/7 14/8/8 13/1/1
f 4/4/4 8/9/9 9/10/10 5/7/7
f 5/7/7 9/10/10 6/11/11
f 2/5/5 10/12/12 7/6/6
f 7/6/6 10/12/12 11/13/13 8/9/9
f 10/12/12 1/2/2 13/1/1 11/13/13
f 2/5/5 1/2/2 10/12/12
f 8/9/9 11/13/13 12/14/14 9/10/10
f 9/10/10 12/14/14 6/11/11
f 5/7/7 6/11/11 14/8/8
f 11/13/13 13/1/1 14/8/8 12/14/14
f 12/14/14 14/8/8 6/11/11
f 2/5/5 3/3/3 1/2/2
f 3/3/3 7/6/6 8/9/9 4/4/4
