# Blender v2.90.0 Alpha OBJ File: 'Decos.blend'
# www.blender.org
o Cube.006_Cube.004
v 0.000000 5.517662 -1.715867
v 1.715868 5.517662 0.000001
v 3.198348 4.044530 0.000001
v 0.000000 4.044530 -3.198348
v 0.000000 5.517661 1.715869
v 0.000000 4.044529 3.198349
v -1.715868 5.517662 0.000001
v -3.198348 4.044530 0.000001
v -1.178016 9.206918 0.000005
v 0.000000 9.206918 1.178022
v 0.000000 9.769802 2.041530
v -2.041524 9.769802 0.000006
v 0.000000 2.165918 0.000000
v 3.537708 2.165918 0.000000
v 0.000000 2.165918 3.537708
v 1.178016 9.206918 0.000005
v 0.000000 9.206918 -1.178010
v 0.000000 9.769802 -2.041519
v 2.041524 9.769802 0.000006
v -3.537708 2.165918 0.000000
v 0.000000 2.165919 -3.537708
v 0.000000 10.485218 -1.106670
v 1.106676 10.485218 0.000006
v 0.000000 10.485218 1.106682
v -1.106676 10.485218 0.000006
v 0.000000 7.478293 -1.129317
v -1.129320 7.478293 0.000001
v 1.129320 7.478293 0.000001
v 0.000000 7.478293 1.129321
v 0.000000 11.957498 -1.858974
v 0.000000 13.271990 -1.314498
v 1.314504 13.271990 0.000006
v 1.858980 11.957498 0.000006
v 0.000000 13.816478 0.000006
v 0.000000 13.271990 1.314510
v 0.000000 11.957498 1.858986
v -1.314504 13.271990 0.000006
v -1.858980 11.957498 0.000006
vt 0.101562 0.789062
vt 0.101562 0.789062
vt 0.101562 0.789062
vt 0.101562 0.789062
vt 0.101562 0.789062
vt 0.101562 0.789062
vt 0.101562 0.789062
vt 0.101562 0.789062
vt 0.101562 0.789062
vt 0.101562 0.789062
vt 0.101562 0.789062
vt 0.101562 0.789062
vt 0.101562 0.789062
vt 0.101562 0.789062
vt 0.101562 0.789062
vt 0.101562 0.789062
vt 0.101562 0.789062
vt 0.101562 0.789062
vt 0.101562 0.789062
vt 0.101562 0.789062
vt 0.101562 0.789062
vt 0.101562 0.789062
vt 0.101562 0.789062
vt 0.101562 0.789062
vt 0.101562 0.789062
vt 0.101562 0.789062
vt 0.101562 0.789062
vt 0.101562 0.789062
vt 0.101562 0.789062
vt 0.101562 0.789062
vt 0.101562 0.789062
vt 0.101562 0.789062
vt 0.101562 0.789062
vt 0.101562 0.789062
vt 0.101562 0.789062
vt 0.101562 0.789062
vt 0.101562 0.789062
vt 0.101562 0.789062
vn 0.0000 0.7093 -0.7049
vn 0.7049 0.7093 0.0000
vn 0.0000 0.7093 0.7049
vn -0.7049 0.7093 0.0000
vn -0.7934 -0.6087 0.0000
vn 0.0000 -0.6087 0.7934
vn 0.0000 -0.8377 0.5461
vn -0.5461 -0.8377 0.0000
vn 0.0000 -1.0000 -0.0000
vn 0.7934 -0.6087 0.0000
vn 0.0000 -0.6087 -0.7934
vn 0.0000 -0.8377 -0.5461
vn 0.5461 -0.8377 0.0000
vn 0.0000 0.1778 0.9841
vn -0.9841 0.1778 0.0000
vn 0.0000 0.1778 -0.9841
vn 0.9841 0.1778 0.0000
vn 0.6077 0.7941 -0.0000
vn 0.0000 0.7941 -0.6077
vn -0.6077 0.7941 -0.0000
vn 0.0000 0.7941 0.6077
vn 0.0000 0.1413 -0.9900
vn -0.9900 0.1413 -0.0000
vn 0.9900 0.1413 -0.0000
vn 0.0000 0.1412 0.9900
vn -0.9580 0.2866 0.0000
vn 0.0000 0.2866 0.9580
vn 0.9580 0.2866 0.0000
vn 0.0000 0.2866 -0.9580
vn 0.0000 1.0000 0.0000
vn -0.0000 -0.0339 -0.9994
vn 0.0000 0.6285 -0.7778
vn 0.7778 0.6285 0.0000
vn 0.9994 -0.0339 0.0000
vn 0.0000 -0.6864 -0.7273
vn 0.7273 -0.6864 -0.0000
vn 0.0000 0.6285 0.7778
vn 0.0000 -0.0339 0.9994
vn -0.0000 -0.6864 0.7273
vn -0.7778 0.6285 0.0000
vn -0.9994 -0.0339 0.0000
vn -0.7273 -0.6864 -0.0000
s 1
f 1/1/1 2/2/2 3/3/2 4/4/1
f 2/2/2 5/5/3 6/6/3 3/3/2
f 5/5/3 7/7/4 8/8/4 6/6/3
f 9/9/5 10/10/6 11/11/7 12/12/8
f 13/13/9 14/14/9 15/15/9
f 16/16/10 17/17/11 18/18/12 19/19/13
f 15/15/14 6/6/14 8/8/15 20/20/15
f 20/20/9 13/13/9 15/15/9
f 20/20/9 21/21/9 13/13/9
f 21/21/9 14/14/9 13/13/9
f 21/21/16 4/4/16 3/3/17 14/14/17
f 20/20/15 8/8/15 4/4/16 21/21/16
f 14/14/17 3/3/17 6/6/14 15/15/14
f 19/19/18 18/18/19 22/22/19 23/23/18
f 12/12/20 11/11/21 24/24/21 25/25/20
f 11/11/21 19/19/18 23/23/18 24/24/21
f 10/10/6 16/16/10 19/19/13 11/11/7
f 17/17/11 9/9/5 12/12/8 18/18/12
f 18/18/19 12/12/20 25/25/20 22/22/19
f 26/26/22 27/27/23 9/9/5 17/17/11
f 28/28/24 26/26/22 17/17/11 16/16/10
f 29/29/25 28/28/24 16/16/10 10/10/6
f 27/27/23 29/29/25 10/10/6 9/9/5
f 7/7/26 5/5/27 29/29/25 27/27/23
f 5/5/27 2/2/28 28/28/24 29/29/25
f 1/1/29 26/26/22 28/28/24 2/2/28
f 1/1/29 7/7/26 27/27/23 26/26/22
f 22/22/30 24/24/30 23/23/30
f 25/25/30 24/24/30 22/22/30
f 7/7/4 1/1/1 4/4/1 8/8/4
f 30/30/31 31/31/32 32/32/33 33/33/34
f 22/22/35 30/30/31 33/33/34 23/23/36
f 31/31/32 34/34/30 32/32/33
f 33/33/34 32/32/33 35/35/37 36/36/38
f 23/23/36 33/33/34 36/36/38 24/24/39
f 32/32/33 34/34/30 35/35/37
f 36/36/38 35/35/37 37/37/40 38/38/41
f 24/24/39 36/36/38 38/38/41 25/25/42
f 35/35/37 34/34/30 37/37/40
f 38/38/41 37/37/40 31/31/32 30/30/31
f 25/25/42 38/38/41 30/30/31 22/22/35
f 37/37/40 34/34/30 31/31/32
