# Blender v2.90.0 Alpha OBJ File: 'Decos.blend'
# www.blender.org
o Cube.001_Cube.013
v 1.326863 6.088944 3.762496
v 1.205985 6.051364 -3.848317
v 5.087628 5.442736 -0.031093
v -1.006946 9.427007 -0.370726
v -3.840081 6.630566 -0.023268
v 2.718462 9.410237 -0.184705
vt 0.101562 0.835938
vt 0.101562 0.835938
vt 0.101562 0.835938
vt 0.101562 0.835938
vt 0.101562 0.835938
vt 0.101562 0.835938
vn 0.1814 -0.9611 0.2081
vn 0.1814 -0.9611 0.2082
vn -0.4969 -0.1338 -0.8574
vn -0.1205 -0.9885 0.0917
vn -0.7848 -0.0589 0.6170
vn -0.7848 -0.0589 0.6169
vn -0.2403 0.3660 0.8991
vn 0.7075 0.2601 0.6571
vn 0.7052 0.0769 -0.7048
vn 0.2063 0.4500 -0.8689
vn 0.2063 0.4500 -0.8688
s 1
f 1/1/1 2/2/2 3/3/1
f 4/4/3 2/2/3 5/5/3
f 1/1/4 5/5/4 2/2/4
f 1/1/5 4/4/6 5/5/5
f 1/1/7 6/6/7 4/4/7
f 3/3/8 6/6/8 1/1/8
f 2/2/9 6/6/9 3/3/9
f 2/2/10 4/4/10 6/6/11
