# Blender v2.82 (sub 6) OBJ File: 'BARTNew.blend'
# www.blender.org
mtllib BartNewMain.mtl
o BARTCart.001_Cube.000
v 0.542065 0.014973 -7.544865
v 0.488283 0.992215 -7.544865
v 0.459469 0.014973 -7.544865
v 0.545782 0.491683 -7.544865
v 0.423363 0.132099 -7.544865
v 0.548523 0.124426 -7.544865
v 0.499563 0.894022 -7.544865
v 0.253988 1.058685 -7.544865
v 0.471262 0.810890 -7.544865
v 0.521743 0.651287 -7.544865
v 0.140215 0.793471 -7.544865
v 0.154772 0.330178 -7.544865
v 0.542100 0.308055 -7.544865
v 0.542083 0.014973 -0.000782
v 0.488283 0.992215 -0.000782
v 0.459530 0.014973 -0.000782
v 0.545782 0.491683 -0.000782
v 0.423456 0.132099 -0.000782
v 0.548538 0.124426 -0.000782
v 0.499563 0.894022 -0.000782
v 0.253988 1.058685 -0.000782
v 0.471262 0.810890 -0.000782
v 0.521743 0.651287 -0.000782
v 0.140215 0.793471 -0.000782
v 0.154776 0.330178 -0.000782
v 0.542105 0.308055 -0.000782
v 0.345878 0.134828 0.000221
v 0.345878 0.001327 0.000221
v 0.345878 0.134828 -7.548272
v 0.345878 0.001327 -7.548272
v -0.542065 0.014973 -7.544865
v -0.488283 0.992215 -7.544865
v -0.459469 0.014973 -7.544865
v -0.545782 0.491683 -7.544865
v 0.000000 0.528258 -7.544865
v 0.000000 0.133570 -7.544865
v -0.423363 0.132099 -7.544865
v -0.548523 0.124426 -7.544865
v -0.499563 0.894022 -7.544865
v 0.000000 1.067157 -7.544865
v -0.253988 1.058685 -7.544865
v -0.471262 0.810890 -7.544865
v -0.521743 0.651287 -7.544865
v -0.140215 0.793471 -7.544865
v -0.154772 0.330178 -7.544865
v -0.542100 0.308055 -7.544865
v -0.542083 0.014973 -0.000782
v -0.488283 0.992215 -0.000782
v -0.459530 0.014973 -0.000782
v -0.545782 0.491683 -0.000782
v 0.000000 0.528258 -0.000782
v 0.000000 0.133570 -0.000782
v -0.423456 0.132099 -0.000782
v -0.548538 0.124426 -0.000782
v -0.499563 0.894022 -0.000782
v 0.000000 1.067157 -0.000782
v -0.253988 1.058685 -0.000782
v -0.471262 0.810890 -0.000782
v -0.521743 0.651287 -0.000782
v -0.140215 0.793471 -0.000782
v -0.154776 0.330178 -0.000782
v -0.542105 0.308055 -0.000782
v 0.000000 0.135726 0.000221
v -0.345878 0.134828 0.000221
v 0.000000 0.002225 0.000221
v -0.345878 0.001327 0.000221
v 0.000000 0.135726 -7.548272
v -0.345878 0.134828 -7.548272
v 0.000000 0.002225 -7.548272
v -0.345878 0.001327 -7.548272
vt 0.833153 0.238455
vt 0.841999 0.249163
vt 0.826073 0.258474
vt 0.817210 0.251748
vt 0.833629 0.741300
vt 0.818293 0.728722
vt 0.829118 0.722080
vt 0.841999 0.731001
vt 0.817210 0.251748
vt 0.826073 0.258474
vt 0.829118 0.722080
vt 0.818293 0.728722
vt 0.084472 0.998011
vt 0.056802 1.002657
vt 0.050780 0.992993
vt 0.073988 0.889155
vt 0.084727 0.930257
vt 0.060652 0.916406
vt 0.038484 0.898332
vt 0.026108 0.953392
vt 0.017727 0.933957
vt 0.027496 0.890926
vt 0.009407 0.914511
vt 0.002983 0.903635
vt 0.111330 0.986355
vt 0.083224 0.964786
vt 0.049623 0.982942
vt 0.036489 0.968819
vt 0.085487 0.999544
vt 0.051633 0.994487
vt 0.057680 1.004201
vt 0.073554 0.889553
vt 0.035017 0.897562
vt 0.059762 0.918406
vt 0.085772 0.931460
vt 0.018141 0.935288
vt 0.026857 0.954682
vt 0.023425 0.892000
vt 0.006157 0.902690
vt 0.008887 0.915905
vt 0.084247 0.966157
vt 0.112481 0.987842
vt 0.037282 0.970190
vt 0.050474 0.984386
vt 0.710260 0.973887
vt 0.710262 0.018258
vt 0.742190 0.018258
vt 0.742189 0.973887
vt 0.140802 0.959139
vt 0.140802 0.039176
vt 0.158909 0.039176
vt 0.158910 0.959139
vt 0.742492 0.981742
vt 0.742493 0.018258
vt 0.774949 0.018258
vt 0.774950 0.981742
vt 0.806053 0.018258
vt 0.806053 0.981742
vt 0.669947 0.973907
vt 0.669947 0.018278
vt 0.693582 0.018278
vt 0.693580 0.973907
vt 0.216553 0.959139
vt 0.216554 0.039176
vt 0.230797 0.039137
vt 0.230796 0.959100
vt 0.176368 0.039176
vt 0.176367 0.959139
vt 0.126560 0.959217
vt 0.126560 0.039254
vt 0.196268 0.959139
vt 0.196270 0.039176
vt 0.112317 0.959278
vt 0.112317 0.039315
vt 0.084472 0.998011
vt 0.050780 0.992993
vt 0.056802 1.002657
vt 0.038484 0.898332
vt 0.060652 0.916406
vt 0.017727 0.933957
vt 0.026108 0.953392
vt 0.027496 0.890926
vt 0.002983 0.903635
vt 0.009407 0.914511
vt 0.083224 0.964786
vt 0.036489 0.968819
vt 0.049623 0.982942
vt 0.085487 0.999544
vt 0.057680 1.004201
vt 0.051633 0.994487
vt 0.059762 0.918406
vt 0.035017 0.897562
vt 0.026857 0.954682
vt 0.018141 0.935288
vt 0.023425 0.892000
vt 0.008887 0.915905
vt 0.006157 0.902690
vt 0.084247 0.966157
vt 0.050474 0.984386
vt 0.037282 0.970190
vt 0.710260 0.973887
vt 0.710262 0.018258
vt 0.140802 0.959139
vt 0.158910 0.959139
vt 0.158909 0.039176
vt 0.140802 0.039176
vt 0.774950 0.981742
vt 0.774949 0.018258
vt 0.806053 0.981742
vt 0.806053 0.018258
vt 0.669947 0.973907
vt 0.693580 0.973907
vt 0.693582 0.018278
vt 0.669947 0.018278
vt 0.216553 0.959139
vt 0.230796 0.959100
vt 0.230797 0.039137
vt 0.216554 0.039176
vt 0.176367 0.959139
vt 0.176368 0.039176
vt 0.126560 0.959217
vt 0.126560 0.039254
vt 0.196268 0.959139
vt 0.196270 0.039176
vt 0.112317 0.959278
vt 0.112317 0.039315
vn 0.0000 0.0000 1.0000
vn -0.0000 0.0000 -1.0000
vn 1.0000 0.0000 0.0000
vn -0.0026 -1.0000 0.0000
vn -1.0000 0.0000 0.0000
vn 0.0026 -1.0000 0.0000
vn 0.1130 0.7237 -0.6808
vn 0.6092 0.5177 -0.6007
vn 0.7462 -0.0801 -0.6609
vn 0.0000 -0.7063 -0.7079
vn -0.2963 -0.3999 -0.8673
vn 0.7237 0.0469 -0.6885
vn 0.7008 0.0052 -0.7133
vn -0.4775 -0.6467 -0.5947
vn 0.7173 -0.0086 -0.6967
vn 0.5585 -0.5925 -0.5805
vn 0.0000 0.7144 -0.6997
vn 0.6201 -0.0067 -0.7845
vn 0.7052 0.1635 -0.6899
vn 0.1130 0.7237 0.6808
vn 0.7462 -0.0801 0.6609
vn 0.6092 0.5177 0.6007
vn 0.0000 -0.7063 0.7079
vn -0.2963 -0.3999 0.8673
vn 0.7008 0.0052 0.7133
vn 0.7237 0.0469 0.6885
vn -0.4775 -0.6468 0.5947
vn 0.5585 -0.5925 0.5805
vn 0.7173 -0.0086 0.6967
vn 0.0000 0.7144 0.6997
vn 0.7052 0.1635 0.6899
vn 0.6201 -0.0067 0.7845
vn -0.1130 0.7237 -0.6808
vn -0.7462 -0.0801 -0.6609
vn -0.6092 0.5177 -0.6007
vn 0.2963 -0.3999 -0.8673
vn -0.7008 0.0052 -0.7133
vn -0.7237 0.0469 -0.6885
vn 0.4775 -0.6467 -0.5947
vn -0.5585 -0.5925 -0.5805
vn -0.7173 -0.0086 -0.6967
vn -0.7052 0.1635 -0.6899
vn -0.6201 -0.0067 -0.7845
vn -0.1130 0.7237 0.6808
vn -0.6092 0.5177 0.6007
vn -0.7462 -0.0801 0.6609
vn 0.2963 -0.3999 0.8673
vn -0.7237 0.0469 0.6885
vn -0.7008 0.0052 0.7133
vn 0.4775 -0.6468 0.5947
vn -0.7173 -0.0086 0.6967
vn -0.5585 -0.5925 0.5805
vn -0.6201 -0.0067 0.7845
vn -0.7052 0.1635 0.6899
usemtl Material
s off
f 63/1/1 65/2/1 28/3/1 27/4/1
f 67/5/2 29/6/2 30/7/2 69/8/2
f 27/4/3 28/3/3 30/7/3 29/6/3
f 28/3/4 65/2/4 69/8/4 30/7/4
f 63/1/1 64/9/1 66/10/1 65/2/1
f 67/5/2 69/8/2 70/11/2 68/12/2
f 64/9/5 68/12/5 70/11/5 66/10/5
f 66/10/6 70/11/6 69/8/6 65/2/6
s 1
f 8/13/7 2/14/8 7/15/9
f 36/16/10 35/17/2 12/18/2 5/19/11
f 12/18/2 35/17/2 4/20/12 13/21/13
f 3/22/14 5/19/11 6/23/15 1/24/16
f 35/17/2 40/25/17 8/13/7 11/26/2
f 11/26/2 8/13/7 9/27/18 10/28/19
f 9/27/18 8/13/7 7/15/9
f 35/17/2 11/26/2 10/28/19 4/20/12
f 5/19/11 12/18/2 13/21/13 6/23/15
f 21/29/20 20/30/21 15/31/22
f 52/32/23 18/33/24 25/34/1 51/35/1
f 25/34/1 26/36/25 17/37/26 51/35/1
f 16/38/27 14/39/28 19/40/29 18/33/24
f 51/35/1 24/41/1 21/29/20 56/42/30
f 24/41/1 23/43/31 22/44/32 21/29/20
f 22/44/32 20/30/21 21/29/20
f 51/35/1 17/37/26 23/43/31 24/41/1
f 18/33/24 19/40/29 26/36/25 25/34/1
f 5/45/11 18/46/24 52/47/23 36/48/10
f 9/49/18 22/50/32 23/51/31 10/52/19
f 40/53/17 56/54/30 21/55/20 8/56/7
f 8/56/7 21/55/20 15/57/22 2/58/8
f 1/59/16 14/60/28 16/61/27 3/62/14
f 6/63/15 19/64/29 14/65/28 1/66/16
f 3/62/14 16/61/27 18/46/24 5/45/11
f 10/52/19 23/51/31 17/67/26 4/68/12
f 7/69/9 20/70/21 22/50/32 9/49/18
f 13/71/13 26/72/25 19/64/29 6/63/15
f 4/68/12 17/67/26 26/72/25 13/71/13
f 2/73/8 15/74/22 20/70/21 7/69/9
f 41/75/33 39/76/34 32/77/35
f 36/16/10 37/78/36 45/79/2 35/17/2
f 45/79/2 46/80/37 34/81/38 35/17/2
f 33/82/39 31/83/40 38/84/41 37/78/36
f 35/17/2 44/85/2 41/75/33 40/25/17
f 44/85/2 43/86/42 42/87/43 41/75/33
f 42/87/43 39/76/34 41/75/33
f 35/17/2 34/81/38 43/86/42 44/85/2
f 37/78/36 38/84/41 46/80/37 45/79/2
f 57/88/44 48/89/45 55/90/46
f 52/32/23 51/35/1 61/91/1 53/92/47
f 61/91/1 51/35/1 50/93/48 62/94/49
f 49/95/50 53/92/47 54/96/51 47/97/52
f 51/35/1 56/42/30 57/88/44 60/98/1
f 60/98/1 57/88/44 58/99/53 59/100/54
f 58/99/53 57/88/44 55/90/46
f 51/35/1 60/98/1 59/100/54 50/93/48
f 53/92/47 61/91/1 62/94/49 54/96/51
f 37/101/36 36/48/10 52/47/23 53/102/47
f 42/103/43 43/104/42 59/105/54 58/106/53
f 40/53/17 41/107/33 57/108/44 56/54/30
f 41/107/33 32/109/35 48/110/45 57/108/44
f 31/111/40 33/112/39 49/113/50 47/114/52
f 38/115/41 31/116/40 47/117/52 54/118/51
f 33/112/39 37/101/36 53/102/47 49/113/50
f 43/104/42 34/119/38 50/120/48 59/105/54
f 39/121/34 42/103/43 58/106/53 55/122/46
f 46/123/37 38/115/41 54/118/51 62/124/49
f 34/119/38 46/123/37 62/124/49 50/120/48
f 32/125/35 39/121/34 55/122/46 48/126/45
