# Blender v2.82 (sub 6) OBJ File: 'BARTNew.blend'
# www.blender.org
mtllib BartNewCart.mtl
o BARTCart_Cube.008
v 0.542079 0.013934 -7.904128
v 0.488283 0.991176 -7.904128
v 0.459518 0.013934 -7.904128
v 0.545782 0.490645 -7.904128
v 0.262301 0.436932 -0.035032
v 0.345123 0.131060 -0.144701
v 0.423438 0.131060 -7.904128
v 0.548535 0.123388 -7.904128
v 0.545782 0.490645 -0.537357
v 0.504773 0.123388 -0.546229
v 0.361590 0.131060 -0.205463
v 0.499563 0.892984 -7.904128
v 0.253988 1.057647 -7.904128
v 0.499563 0.892984 -0.588172
v 0.545782 0.490645 -0.637608
v 0.471262 0.809852 -7.904128
v 0.471371 0.808904 -0.685208
v 0.521743 0.650248 -7.904128
v 0.140215 0.792433 -7.904128
v 0.535893 0.691814 -0.562765
v 0.534199 0.307070 -0.541792
v 0.521797 0.649774 -0.661408
v 0.154775 0.329140 -7.904128
v 0.542104 0.307016 -7.904128
v 0.534192 0.307016 -0.591918
v 0.339719 0.050263 -0.144701
v 0.354734 0.050263 -0.205463
v 0.487040 0.068556 -0.179722
v 0.536421 0.013934 -0.261719
v 0.441543 0.013934 -0.261714
v 0.352487 0.066096 -0.164977
v 0.383731 0.065223 -0.217558
v 0.545782 0.490645 -0.249483
v 0.509470 0.484133 -0.152715
v 0.543315 0.123388 -0.258656
v 0.495255 0.125112 -0.170659
v 0.462193 0.931425 -0.285148
v 0.488269 0.991290 -0.387444
v 0.253175 0.992180 -0.237797
v 0.253988 1.057647 -0.334198
v 0.501171 0.672570 -0.215856
v 0.534806 0.701277 -0.314878
v 0.345878 0.133789 -0.321182
v 0.345878 0.000289 -0.321182
v 0.345878 0.133789 -7.905885
v 0.345878 0.000289 -7.905885
v -0.542079 0.013934 -7.904128
v -0.488283 0.991176 -7.904128
v -0.459518 0.013934 -7.904128
v -0.545782 0.490645 -7.904128
v -0.262301 0.436932 -0.035032
v 0.000000 0.527220 -7.904128
v 0.000000 0.132531 -0.144701
v 0.000000 0.132531 -7.904128
v -0.345123 0.131060 -0.144701
v -0.423438 0.131060 -7.904128
v -0.548535 0.123388 -7.904128
v 0.000000 0.419371 -0.000444
v -0.545782 0.490645 -0.537357
v -0.504773 0.123388 -0.546229
v 0.000000 0.132531 -0.205463
v -0.361590 0.131060 -0.205463
v -0.499563 0.892984 -7.904128
v 0.000000 1.066119 -7.904128
v -0.253988 1.057647 -7.904128
v -0.499563 0.892984 -0.588172
v -0.545782 0.490645 -0.637608
v -0.471262 0.809852 -7.904128
v -0.471371 0.808904 -0.685208
v -0.521743 0.650248 -7.904128
v -0.140215 0.792433 -7.904128
v -0.535893 0.691814 -0.562765
v -0.534199 0.307070 -0.541792
v -0.521797 0.649774 -0.661408
v -0.154775 0.329140 -7.904128
v -0.542104 0.307016 -7.904128
v -0.534192 0.307016 -0.591918
v 0.000000 0.051734 -0.144701
v -0.339719 0.050263 -0.144701
v 0.000000 0.051734 -0.205463
v -0.354734 0.050263 -0.205463
v -0.487040 0.068556 -0.179722
v -0.536421 0.013934 -0.261719
v -0.441543 0.013934 -0.261714
v -0.352487 0.066096 -0.164977
v -0.383731 0.065223 -0.217558
v -0.545782 0.490645 -0.249483
v -0.509470 0.484133 -0.152715
v -0.543315 0.123388 -0.258656
v -0.495255 0.125112 -0.170659
v -0.462193 0.931425 -0.285148
v -0.488269 0.991290 -0.387444
v -0.253175 0.992180 -0.237797
v -0.253988 1.057647 -0.334198
v 0.000000 1.001786 -0.235234
v 0.000000 1.066119 -0.334174
v -0.501171 0.672570 -0.215856
v -0.534806 0.701277 -0.314878
v 0.000000 0.134688 -0.321182
v -0.345878 0.133789 -0.321182
v 0.000000 0.001187 -0.321182
v -0.345878 0.000289 -0.321182
v 0.000000 0.134688 -7.905885
v -0.345878 0.133789 -7.905885
v 0.000000 0.001187 -7.905885
v -0.345878 0.000289 -7.905885
vt 0.087219 0.994433
vt 0.060702 0.999877
vt 0.054560 0.990769
vt 0.068698 0.890189
vt 0.085104 0.929099
vt 0.062169 0.915260
vt 0.038769 0.897496
vt 0.369361 0.120779
vt 0.379751 0.083810
vt 0.408323 0.089056
vt 0.399743 0.127605
vt 0.346595 0.116238
vt 0.348744 0.075199
vt 0.029392 0.953448
vt 0.020809 0.934909
vt 0.038332 0.838520
vt 0.026803 0.838486
vt 0.031456 0.177961
vt 0.041860 0.177761
vt 0.346010 0.123264
vt 0.364774 0.128263
vt 0.022897 0.891969
vt 0.013572 0.917364
vt 0.007005 0.906350
vt 0.086448 0.172206
vt 0.086448 0.838587
vt 0.049796 0.838587
vt 0.055149 0.172206
vt 0.363344 0.184232
vt 0.334121 0.184232
vt 0.334121 0.177187
vt 0.363344 0.177187
vt 0.048598 0.172608
vt 0.049963 0.166906
vt 0.056520 0.166308
vt 0.151244 0.007261
vt 0.152618 0.037918
vt 0.112953 0.015730
vt 0.198385 0.853271
vt 0.177968 0.853270
vt 0.176760 0.046478
vt 0.198028 0.040948
vt 0.160188 0.853269
vt 0.141251 0.853255
vt 0.138677 0.054625
vt 0.158029 0.049892
vt 0.112708 0.982259
vt 0.084857 0.962444
vt 0.348790 0.052816
vt 0.354105 0.023182
vt 0.053093 0.981119
vt 0.039939 0.967960
vt 0.126405 0.041914
vt 0.219683 0.035830
vt 0.198030 0.035134
vt 0.127004 0.853215
vt 0.233466 0.853249
vt 0.219205 0.853267
vt 0.233466 0.001929
vt 0.176557 0.034653
vt 0.176722 0.000123
vt 0.291414 0.000123
vt 0.291414 0.877811
vt 0.261948 0.877808
vt 0.261948 0.000123
vt 0.233711 0.000123
vt 0.233716 0.871635
vt 0.378374 0.017955
vt 0.408323 0.014542
vt 0.220124 0.001554
vt 0.113063 0.853185
vt 0.341845 0.132688
vt 0.371280 0.129209
vt 0.371881 0.137919
vt 0.345627 0.138503
vt 0.334121 0.176887
vt 0.334121 0.147663
vt 0.343488 0.147718
vt 0.343488 0.176941
vt 0.371881 0.147418
vt 0.342249 0.147245
vt 0.334121 0.142007
vt 0.334121 0.128964
vt 0.334147 0.115360
vt 0.036904 0.167826
vt 0.375745 0.004121
vt 0.406727 0.000123
vt 0.337291 0.072112
vt 0.346379 0.011397
vt 0.338224 0.045588
vt 0.320691 0.026180
vt 0.331449 0.043357
vt 0.312080 0.058295
vt 0.308153 0.047504
vt 0.321269 0.836497
vt 0.309468 0.816317
vt 0.315783 0.805661
vt 0.331449 0.819974
vt 0.087219 0.994433
vt 0.054560 0.990769
vt 0.060702 0.999877
vt 0.038769 0.897496
vt 0.062169 0.915260
vt 0.369361 0.120779
vt 0.379751 0.083810
vt 0.348744 0.075199
vt 0.346595 0.116238
vt 0.020809 0.934909
vt 0.029392 0.953448
vt 0.038332 0.838520
vt 0.041860 0.177761
vt 0.031456 0.177961
vt 0.026803 0.838486
vt 0.346010 0.123264
vt 0.364774 0.128263
vt 0.022897 0.891969
vt 0.007005 0.906350
vt 0.013572 0.917364
vt 0.055149 0.172206
vt 0.049796 0.838587
vt 0.363344 0.184232
vt 0.363344 0.177187
vt 0.048598 0.172608
vt 0.056520 0.166308
vt 0.049963 0.166906
vt 0.151244 0.007261
vt 0.112953 0.015730
vt 0.152618 0.037918
vt 0.198385 0.853271
vt 0.198028 0.040948
vt 0.176760 0.046478
vt 0.177968 0.853270
vt 0.160188 0.853269
vt 0.158029 0.049892
vt 0.138677 0.054625
vt 0.141251 0.853255
vt 0.084857 0.962444
vt 0.354105 0.023182
vt 0.348790 0.052816
vt 0.039939 0.967960
vt 0.053093 0.981119
vt 0.126405 0.041914
vt 0.219683 0.035830
vt 0.198030 0.035134
vt 0.127004 0.853215
vt 0.233466 0.853249
vt 0.233466 0.001929
vt 0.219205 0.853267
vt 0.176557 0.034653
vt 0.176722 0.000123
vt 0.261948 0.000123
vt 0.261948 0.877808
vt 0.233711 0.000123
vt 0.233716 0.871635
vt 0.378374 0.017955
vt 0.220124 0.001554
vt 0.113063 0.853185
vt 0.341845 0.132688
vt 0.345627 0.138503
vt 0.334121 0.176887
vt 0.343488 0.176941
vt 0.342249 0.147245
vt 0.334121 0.142007
vt 0.334147 0.115360
vt 0.334121 0.128964
vt 0.036904 0.167826
vt 0.375745 0.004121
vt 0.337291 0.072112
vt 0.346379 0.011397
vt 0.338224 0.045588
vt 0.308153 0.047504
vt 0.312080 0.058295
vt 0.315783 0.805661
vt 0.309468 0.816317
vn 0.1129 0.7237 -0.6808
vn 0.6091 0.5177 -0.6008
vn 0.7464 -0.0792 -0.6608
vn 0.0000 -0.7063 -0.7079
vn 0.0000 0.0000 -1.0000
vn -0.2744 -0.4376 -0.8562
vn 0.1784 -0.4681 0.8655
vn 0.2247 0.0070 0.9744
vn 0.0000 -0.0292 0.9996
vn 0.0000 -0.5856 0.8106
vn 0.5801 -0.1213 0.8054
vn 0.6837 0.0896 0.7242
vn 0.7239 0.0391 -0.6888
vn 0.7007 -0.0363 -0.7125
vn -0.4313 -0.6948 -0.5756
vn 0.5900 -0.5235 -0.6146
vn 0.6696 -0.6962 0.2586
vn -0.3937 -0.8945 0.2119
vn 0.4204 -0.4792 0.7704
vn -0.6915 -0.5714 0.4420
vn 0.7172 0.0203 -0.6966
vn 0.0000 -0.8948 -0.4465
vn -0.3217 -0.8553 -0.4060
vn -0.8769 -0.4028 -0.2622
vn 0.9709 0.1550 0.1822
vn 0.9853 0.1263 -0.1148
vn 0.7216 0.6606 0.2069
vn 0.9992 0.0309 -0.0239
vn 0.9969 -0.0784 0.0011
vn 0.7052 0.1637 -0.6899
vn 0.6202 -0.0060 -0.7844
vn 0.9937 0.0195 -0.1102
vn 0.9803 0.1731 -0.0949
vn 0.0000 0.7144 -0.6997
vn 0.7046 0.2586 0.6608
vn 0.6028 0.4687 0.6456
vn 0.9936 0.0943 -0.0624
vn 0.9996 0.0154 -0.0224
vn 0.9962 -0.0841 -0.0235
vn 0.9998 0.0009 -0.0199
vn 0.9781 0.0363 0.2048
vn 0.0000 0.9578 0.2874
vn 0.1767 0.9377 0.2991
vn 0.1890 0.6124 0.7676
vn 0.0000 0.6292 0.7772
vn 0.9788 -0.0699 0.1927
vn 0.4716 -0.6085 0.6382
vn 0.0000 -0.7063 0.7079
vn 0.0000 -0.7060 -0.7082
vn 0.6246 -0.5898 -0.5118
vn 0.0000 0.0000 1.0000
vn 0.0000 -0.7065 0.7077
vn 0.5766 -0.5781 0.5772
vn 0.7065 0.0000 0.7077
vn 0.7065 0.0000 -0.7077
vn 0.5766 -0.5781 -0.5772
vn 0.0000 -0.7065 -0.7077
vn -0.1129 0.7237 -0.6808
vn -0.7464 -0.0792 -0.6608
vn -0.6091 0.5177 -0.6008
vn 0.2744 -0.4376 -0.8562
vn -0.1784 -0.4681 0.8655
vn -0.2247 0.0070 0.9744
vn -0.6837 0.0896 0.7242
vn -0.5801 -0.1213 0.8054
vn -0.7007 -0.0363 -0.7125
vn -0.7239 0.0391 -0.6888
vn 0.4313 -0.6948 -0.5756
vn 0.3937 -0.8945 0.2119
vn -0.6696 -0.6962 0.2586
vn -0.5900 -0.5235 -0.6146
vn -0.4204 -0.4792 0.7704
vn 0.6915 -0.5714 0.4420
vn -0.7172 0.0203 -0.6966
vn 0.3217 -0.8553 -0.4060
vn 0.8769 -0.4028 -0.2622
vn -0.9709 0.1550 0.1822
vn -0.7216 0.6606 0.2069
vn -0.9853 0.1263 -0.1148
vn -0.9969 -0.0784 0.0011
vn -0.9992 0.0309 -0.0239
vn -0.7052 0.1637 -0.6899
vn -0.9803 0.1731 -0.0949
vn -0.9937 0.0195 -0.1102
vn -0.6202 -0.0060 -0.7844
vn -0.6028 0.4687 0.6456
vn -0.7046 0.2586 0.6608
vn -0.9936 0.0943 -0.0624
vn -0.9996 0.0154 -0.0224
vn -0.9962 -0.0841 -0.0235
vn -0.9998 0.0009 -0.0199
vn -0.9781 0.0363 0.2048
vn -0.1767 0.9377 0.2991
vn -0.1890 0.6124 0.7676
vn -0.9788 -0.0699 0.1927
vn -0.4716 -0.6085 0.6382
vn -0.6246 -0.5898 -0.5118
vn -0.7065 0.0000 0.7077
vn -0.5766 -0.5781 0.5772
vn -0.5766 -0.5781 -0.5772
vn -0.7065 0.0000 -0.7077
usemtl Material
s 1
f 13/1/1 2/2/2 12/3/3
f 54/4/4 52/5/5 23/6/5 7/7/6
f 6/8/7 5/9/8 58/10/9 53/11/10
f 6/8/7 36/12/11 34/13/12
f 23/6/5 52/5/5 4/14/13 24/15/14
f 3/16/15 1/17/16 29/18/17 30/19/18
f 28/20/19 36/12/11 6/8/7 31/21/20
f 3/22/15 7/7/6 8/23/21 1/24/16
f 61/25/22 54/26/4 7/27/6 11/28/23
f 6/29/7 53/30/10 61/31/22 11/32/23
f 32/33/24 31/34/20 6/35/7 11/28/23
f 11/28/23 7/27/6 3/16/15 30/19/18 32/33/24
f 42/36/25 20/37/26 38/38/27
f 24/39/14 4/40/13 15/41/28 25/42/29
f 18/43/30 16/44/31 17/45/32 22/46/33
f 52/5/5 64/47/34 13/1/1 19/48/5
f 5/9/8 41/49/35 37/50/36
f 19/48/5 13/1/1 16/51/31 18/52/30
f 22/46/33 17/45/32 14/53/37 20/37/26
f 20/37/26 14/53/37 38/38/27
f 10/54/38 25/42/29 21/55/39
f 16/51/31 13/1/1 12/3/3
f 5/9/8 6/8/7 34/13/12
f 14/53/37 17/45/32 16/44/31 12/56/3
f 1/57/16 8/58/21 10/54/38 29/59/17
f 15/41/28 22/46/33 20/37/26 9/60/40
f 52/5/5 19/48/5 18/52/30 4/14/13
f 33/61/41 21/55/39 9/60/40
f 64/62/34 96/63/42 40/64/43 13/65/1
f 4/40/13 18/43/30 22/46/33 15/41/28
f 8/58/21 24/39/14 25/42/29 10/54/38
f 7/7/6 23/6/5 24/15/14 8/23/21
f 21/55/39 25/42/29 15/41/28 9/60/40
f 41/49/35 5/9/8 34/13/12
f 2/66/2 13/65/1 40/64/43 38/67/27
f 5/9/8 39/68/44 95/69/45 58/10/9
f 10/54/38 21/55/39 33/61/41 35/70/46
f 12/56/3 2/71/2 38/38/27 14/53/37
f 9/60/40 20/37/26 42/36/25 33/61/41
f 37/50/36 39/68/44 5/9/8
f 26/72/47 78/73/48 80/74/49 27/75/50
f 6/76/7 53/77/10 78/78/48 26/79/47
f 61/80/22 11/81/23 27/75/50 80/74/49
f 11/81/23 6/82/7 26/72/47 27/75/50
f 30/19/18 31/34/20 32/33/24
f 36/12/11 28/20/19 29/83/17 35/84/46
f 30/19/18 29/18/17 28/85/19 31/34/20
f 40/86/43 96/87/42 95/69/45 39/68/44
f 34/13/12 36/12/11 35/84/46 33/88/41
f 38/89/27 40/86/43 39/68/44 37/50/36
f 37/50/36 41/49/35 42/90/25 38/89/27
f 41/49/35 34/13/12 33/88/41 42/90/25
f 29/59/17 10/54/38 35/70/46
f 99/91/51 101/92/52 44/93/53 43/94/54
f 103/95/5 45/96/55 46/97/56 105/98/57
f 43/94/54 44/93/53 46/97/56 45/96/55
f 44/93/53 101/92/52 105/98/57 46/97/56
f 65/99/58 63/100/59 48/101/60
f 54/4/4 56/102/61 75/103/5 52/5/5
f 55/104/62 53/11/10 58/10/9 51/105/63
f 55/104/62 88/106/64 90/107/65
f 75/103/5 76/108/66 50/109/67 52/5/5
f 49/110/68 84/111/69 83/112/70 47/113/71
f 82/114/72 85/115/73 55/104/62 90/107/65
f 49/116/68 47/117/71 57/118/74 56/102/61
f 61/25/22 62/119/75 56/120/61 54/26/4
f 55/121/62 62/122/75 61/31/22 53/30/10
f 86/123/76 62/119/75 55/124/62 85/125/73
f 62/119/75 86/123/76 84/111/69 49/110/68 56/120/61
f 98/126/77 92/127/78 72/128/79
f 76/129/66 77/130/80 67/131/81 50/132/67
f 70/133/82 74/134/83 69/135/84 68/136/85
f 52/5/5 71/137/5 65/99/58 64/47/34
f 51/105/63 91/138/86 97/139/87
f 71/137/5 70/140/82 68/141/85 65/99/58
f 74/134/83 72/128/79 66/142/88 69/135/84
f 72/128/79 92/127/78 66/142/88
f 60/143/89 73/144/90 77/130/80
f 68/141/85 63/100/59 65/99/58
f 51/105/63 88/106/64 55/104/62
f 66/142/88 63/145/59 68/136/85 69/135/84
f 47/146/71 83/147/70 60/143/89 57/148/74
f 67/131/81 59/149/91 72/128/79 74/134/83
f 52/5/5 50/109/67 70/140/82 71/137/5
f 87/150/92 59/149/91 73/144/90
f 64/62/34 65/151/58 94/152/93 96/63/42
f 50/132/67 67/131/81 74/134/83 70/133/82
f 57/148/74 60/143/89 77/130/80 76/129/66
f 56/102/61 57/118/74 76/108/66 75/103/5
f 73/144/90 59/149/91 67/131/81 77/130/80
f 97/139/87 88/106/64 51/105/63
f 48/153/60 92/154/78 94/152/93 65/151/58
f 51/105/63 58/10/9 95/69/45 93/155/94
f 60/143/89 89/156/95 87/150/92 73/144/90
f 63/145/59 66/142/88 92/127/78 48/157/60
f 59/149/91 87/150/92 98/126/77 72/128/79
f 91/138/86 51/105/63 93/155/94
f 79/158/96 81/159/97 80/74/49 78/73/48
f 55/160/62 79/161/96 78/78/48 53/77/10
f 61/80/22 80/74/49 81/159/97 62/162/75
f 62/162/75 81/159/97 79/158/96 55/163/62
f 84/111/69 86/123/76 85/125/73
f 90/107/65 89/164/95 83/165/70 82/114/72
f 84/111/69 85/125/73 82/166/72 83/112/70
f 94/167/93 93/155/94 95/69/45 96/87/42
f 88/106/64 87/168/92 89/164/95 90/107/65
f 92/169/78 91/138/86 93/155/94 94/167/93
f 91/138/86 92/169/78 98/170/77 97/139/87
f 97/139/87 98/170/77 87/168/92 88/106/64
f 83/147/70 89/156/95 60/143/89
f 99/91/51 100/171/98 102/172/99 101/92/52
f 103/95/5 105/98/57 106/173/100 104/174/101
f 100/171/98 104/174/101 106/173/100 102/172/99
f 102/172/99 106/173/100 105/98/57 101/92/52
