<svg version="1.1" viewBox="0.0 0.0 960.0 540.0" fill="none" stroke="none" stroke-linecap="square" stroke-miterlimit="10" xmlns:xlink="http://www.w3.org/1999/xlink" xmlns="http://www.w3.org/2000/svg"><clipPath id="ge92ff9d39a_0_13.0"><path d="m0 0l960.0 0l0 540.0l-960.0 0l0 -540.0z" clip-rule="nonzero"/></clipPath><g clip-path="url(#ge92ff9d39a_0_13.0)"><path fill="#000000" fill-opacity="0.0" d="m0 0l960.0 0l0 540.0l-960.0 0z" fill-rule="evenodd"/><g filter="url(#shadowFilter-ge92ff9d39a_0_13.1)"><use xlink:href="#ge92ff9d39a_0_13.1" transform=""/></g><defs><filter id="shadowFilter-ge92ff9d39a_0_13.1" filterUnits="userSpaceOnUse"><feGaussianBlur in="SourceAlpha" stdDeviation="3.0" result="blur"/><feComponentTransfer in="blur" color-interpolation-filters="sRGB"><feFuncR type="linear" slope="0" intercept="0.0"/><feFuncG type="linear" slope="0" intercept="0.0"/><feFuncB type="linear" slope="0" intercept="0.0"/><feFuncA type="linear" slope="1.0" intercept="0"/></feComponentTransfer></filter></defs><g id="ge92ff9d39a_0_13.1"><path fill="#000000" fill-opacity="0.0" d="m32.7231 216.4357l894.5512 0l0 163.40158l-894.5512 0z" fill-rule="evenodd"/><path fill="#ffffff" d="m208.63686 339.71725l0 -38.90625l-39.171875 0l0 38.90625l-15.359375 0l0 -89.593735l15.359375 0l0 36.218735l39.171875 0l0 -36.218735l15.234375 0l0 89.593735l-15.234375 0zm36.98877 0l0 -89.593735l58.374985 0l0 14.45311l-43.015625 0l0 21.640625l26.5 0l0 14.453125l-26.5 0l0 24.578125l45.828125 0l0 14.46875l-61.187485 0zm138.12025 0l-7.046875 -19.578125l-35.453125 0l-7.046875 19.578125l-16.25 0l33.40625 -89.593735l15.234375 0l33.28125 89.593735l-16.125 0zm-11.90625 -33.40625l-9.859375 -26.875q-1.921875 -4.875 -2.9375 -9.09375q-1.03125 3.71875 -2.953125 9.09375l-9.984375 26.875l25.734375 0zm66.56015 -41.46875l0 74.875l-15.359375 0l0 -74.875l-25.46875 0l0 -14.718735l66.296875 0l0 14.718735l-25.46875 0zm123.01276 74.875l-15.359375 0l0 -47.609375q0 -5.890625 0.5 -10.765625q-1.53125 4.609375 -4.09375 11.015625l-21.75 48.890625l-21.765625 -49.140625q-2.3125 -5.125 -4.21875 -10.765625q0.5 4.875 0.5 10.765625l0 47.609375l-15.359375 0l0 -89.593735l15.5 0l23.03125 52.60936q1.40625 3.578125 2.4375 6.640625q1.015625 -3.0625 2.421875 -6.640625l23.171875 -52.60936l14.984375 0l0 89.593735zm79.48541 0l-7.046875 -19.578125l-35.453125 0l-7.046875 19.578125l-16.25 0l33.40625 -89.593735l15.234375 0l33.28125 89.593735l-16.125 0zm-11.90625 -33.40625l-9.859375 -26.875q-1.921875 -4.875 -2.9375 -9.09375q-1.03125 3.71875 -2.953125 9.09375l-9.984375 26.875l25.734375 0zm41.722046 33.40625l0 -89.593735l37.25 0q15.484375 0 22.78125 8.062485q7.296875 8.0625 7.296875 19.703125q0 11.015625 -7.625 19.46875q-7.609375 8.4375 -22.453125 8.4375l-21.890625 0l0 33.921875l-15.359375 0zm38.015625 -48.515625q6.796875 0 10.125 -3.96875q3.328125 -3.96875 3.328125 -9.34375q0 -5.109375 -3.140625 -9.140625q-3.140625 -4.046875 -10.3125 -4.046875l-22.65625 0l0 26.5l22.65625 0zm69.50427 50.046875q-12.28125 0 -21.1875 -6.203125q-8.890625 -6.203125 -12.59375 -16.953125l14.203125 -5.25q2.8125 6.265625 8.0625 10.046875q5.25 3.765625 12.03125 3.765625q7.046875 0 11.203125 -3.1875q4.15625 -3.203125 4.15625 -9.21875q0 -2.4375 -1.15625 -4.546875q-1.140625 -2.109375 -2.625 -3.515625q-1.46875 -1.40625 -4.421875 -2.8125q-2.9375 -1.421875 -4.984375 -2.25q-2.046875 -0.828125 -6.015625 -2.109375q-5.109375 -1.796875 -7.875 -2.8125q-2.75 -1.03125 -7.03125 -3.390625q-4.28125 -2.375 -6.53125 -4.796875q-2.234375 -2.4375 -3.96875 -6.46875q-1.71875 -4.03125 -1.71875 -8.90625q0 -10.234375 7.921875 -17.14061q7.9375 -6.921875 21.515625 -6.921875q11.265625 0 18.6875 5.3125q7.421875 5.3124847 9.984375 13.89061l-13.828125 4.609375q-4.09375 -9.21875 -15.875 -9.21875q-6.015625 0 -9.40625 2.5q-3.390625 2.5 -3.390625 7.109375q0 3.0625 2.625 5.5q2.625 2.421875 5.625 3.640625q3.015625 1.21875 8.90625 3.140625q3.84375 1.40625 5.8125 2.109375q1.984375 0.703125 5.5625 2.375q3.59375 1.65625 5.640625 3.0q2.046875 1.34375 4.671875 3.65625q2.625 2.296875 4.03125 4.796875q1.40625 2.5 2.4375 5.890625q1.03125 3.390625 1.03125 7.359375q0 12.546875 -8.90625 19.78125q-8.890625 7.21875 -22.59375 7.21875z" fill-rule="nonzero"/></g><g filter="url(#shadowFilter-ge92ff9d39a_0_13.2)"><use xlink:href="#ge92ff9d39a_0_13.2" transform="matrix(1.0 0.0 0.0 1.0 1.0 0.0)"/></g><defs><filter id="shadowFilter-ge92ff9d39a_0_13.2" filterUnits="userSpaceOnUse"><feGaussianBlur in="SourceAlpha" stdDeviation="3.0" result="blur"/><feComponentTransfer in="blur" color-interpolation-filters="sRGB"><feFuncR type="linear" slope="0" intercept="0.0"/><feFuncG type="linear" slope="0" intercept="0.0"/><feFuncB type="linear" slope="0" intercept="0.0"/><feFuncA type="linear" slope="1.0" intercept="0"/></feComponentTransfer></filter></defs><g id="ge92ff9d39a_0_13.2"><path fill="#000000" fill-opacity="0.0" d="m32.72441 379.83728l894.55115 0l0 83.212585l-894.55115 0z" fill-rule="evenodd"/><path fill="#ffffff" d="m253.5031 421.1029q-1.46875 -0.859375 -1.46875 -2.859375q0 -1.0625 0.359375 -2.234375q0.375 -1.171875 0.96875 -2.296875q0.40625 -0.734375 1.171875 -1.96875q0.765625 -1.234375 1.8281097 -2.53125q1.078125 -1.296875 2.265625 -2.1875q1.203125 -0.90625 2.34375 -0.90625q0.203125 0 0.359375 0.03125q0.171875 0.03125 0.375 0.09375q-0.40625 0.46875 -1.203125 1.53125q-0.796875 1.0625 -1.640625 2.375q-0.828125 1.296875 -1.4375 2.359375q-0.59375 1.0625 -0.65625 1.46875q1.328125 -0.140625 2.0 0.640625q0.671875 0.765625 0.671875 1.890625q0 1.328125 -0.875 2.859375q-1.390625 2.140625 -3.5937347 2.140625q-0.734375 0 -1.46875 -0.40625zm-10.46875 0q-1.46875 -0.859375 -1.46875 -2.859375q0 -1.0625 0.359375 -2.234375q0.375 -1.171875 0.984375 -2.296875q0.390625 -0.734375 1.15625 -1.96875q0.765625 -1.234375 1.828125 -2.53125q1.078125 -1.296875 2.265625 -2.1875q1.203125 -0.90625 2.34375 -0.90625q0.203125 0 0.359375 0.03125q0.171875 0.03125 0.375 0.09375q-0.40625 0.46875 -1.203125 1.53125q-0.796875 1.0625 -1.640625 2.375q-0.828125 1.296875 -1.4375 2.359375q-0.59375 1.0625 -0.65625 1.46875q1.34375 -0.140625 2.0 0.640625q0.671875 0.765625 0.671875 1.890625q0 1.328125 -0.875 2.859375q-1.390625 2.140625 -3.59375 2.140625q-0.734375 0 -1.46875 -0.40625zm56.45656 32.265625q-2.46875 0 -3.296875 -1.1875q-0.828125 -1.203125 -0.828125 -3.078125q0 -1.125 0.1875 -2.296875q0.203125 -1.171875 0.40625 -2.4375q0.53125 -2.859375 1.828125 -6.484375q1.3125 -3.640625 2.96875 -7.84375l-18.859375 0q-0.796875 1.796875 -1.90625 4.640625q-1.09375 2.828125 -2.15625 6.03125q-1.0625 3.1875 -1.796875 6.03125q-0.734375 2.828125 -0.734375 4.625q0 1.0 0.265625 1.46875l-8.609375 0q0.8125 -3.328125 2.171875 -7.421875q1.375 -4.109375 3.140625 -8.578125q1.765625 -4.46875 3.625 -8.859375q1.875 -4.40625 3.59375 -8.4375q1.734375 -4.03125 4.0 -8.15625q0.46875 -0.8125 0.828125 -1.46875q0.375 -0.671875 0.84375 -1.140625q-2.59375 0.0625 -5.5625 0.640625q-2.96875 0.5625 -5.671875 1.5625q-2.703125 1.0 -4.609375 2.34375q-1.890625 1.328125 -2.421875 2.921875q-0.0625 0.203125 -0.265625 0.203125q-0.59375 0 -0.59375 -0.9375q0 -0.203125 0.125 -0.59375q0.609375 -1.734375 1.5 -3.0625q0.90625 -1.34375 1.84375 -2.28125q2.1875 -2.265625 4.921875 -2.765625q2.734375 -0.5 5.796875 -0.5l15.0625 0q-1.453125 1.140625 -3.125 3.546875q-1.671875 2.390625 -3.34375 5.421875q-1.65625 3.03125 -3.09375 6.0625q-1.421875 3.03125 -2.5 5.4375l18.875 0q1.453125 -3.46875 2.921875 -6.625q1.46875 -3.171875 2.625 -5.640625q1.171875 -2.46875 1.84375 -3.671875q0.734375 -1.453125 1.4375 -2.453125q0.703125 -1.0 1.828125 -1.53125q1.140625 -0.546875 3.203125 -0.546875l4.265625 0q-1.203125 0.9375 -2.703125 3.171875q-1.5 2.234375 -3.0 4.96875q-1.5 2.734375 -2.625 5.203125q-1.671875 3.53125 -3.515625 8.0q-1.828125 4.453125 -3.265625 8.890625q-1.421875 4.4375 -2.015625 7.96875q-0.203125 1.0 -0.203125 2.0q0 1.46875 0.53125 2.703125q0.53125 1.21875 1.9375 1.21875q1.0625 0 2.59375 -0.859375l0.0625 0q0.140625 0 0.203125 0.234375q0.0625 0.234375 -0.0625 0.359375q-0.796875 0.875 -2.265625 1.609375q-1.46875 0.734375 -3.171875 1.15625q-1.703125 0.4375 -3.234375 0.4375zm26.065887 -1.46875q-3.0625 1.609375 -6.46875 1.609375q-2.859375 0 -5.328125 -1.40625q-2.46875 -1.40625 -3.328125 -4.46875q-0.40625 -1.390625 -0.40625 -2.921875q0 -2.546875 0.890625 -5.234375q0.90625 -2.703125 2.375 -4.96875q2.265625 -3.53125 5.734375 -5.859375q3.46875 -2.34375 7.671875 -2.34375q3.125 0 4.859375 1.609375q1.734375 1.59375 1.734375 3.71875q0 2.546875 -1.703125 4.453125q-1.703125 1.890625 -4.4375 2.890625q-1.328125 0.46875 -2.828125 0.703125q-1.5 0.21875 -2.828125 0.21875q-2.734375 0 -4.203125 -0.734375q-1.265625 3.28125 -1.265625 6.0q0 2.46875 1.125 4.046875q1.140625 1.5625 3.609375 1.5625q2.0625 0 4.09375 -1.125q2.03125 -1.140625 3.796875 -2.8125q1.765625 -1.671875 2.96875 -3.203125q0.9375 -1.125 1.59375 -2.125q0.671875 -1.0 1.40625 -2.296875q0.734375 -1.3125 1.734375 -3.234375q0.265625 -0.46875 0.46875 -0.46875q0.40625 0 0.40625 1.0625q0 0.59375 -0.171875 1.296875q-0.171875 0.703125 -0.5625 1.4375q-0.9375 1.671875 -2.234375 3.640625q-1.296875 1.953125 -2.640625 3.765625q-1.203125 1.59375 -2.734375 2.9375q-1.53125 1.328125 -3.328125 2.25zm-6.0625 -14.1875q0.328125 0.1875 0.71875 0.265625q0.40625 0.0625 0.8125 0.0625q1.328125 0 2.65625 -0.625q1.34375 -0.640625 2.28125 -1.3125q1.53125 -1.0625 2.59375 -2.53125q1.0625 -1.46875 1.203125 -3.328125q0.0625 -0.796875 -0.375 -1.359375q-0.421875 -0.578125 -1.5 -0.578125q-0.53125 0 -1.328125 0.203125q-1.0625 0.265625 -2.140625 1.0q-1.0625 0.734375 -2.0625 1.734375q-0.328125 0.328125 -1.171875 1.296875q-0.828125 0.96875 -1.5625 2.140625q-0.734375 1.15625 -0.734375 2.03125q0 0.734375 0.609375 1.0zm34.72235 15.53125q-2.0625 0 -2.828125 -1.59375q-0.765625 -1.609375 -0.765625 -3.9375q0 -2.140625 0.390625 -4.203125q0.203125 -0.9375 0.4375 -1.90625q0.234375 -0.96875 0.5625 -2.03125q-1.125 2.0625 -2.359375 4.0q-1.234375 1.9375 -2.5 3.40625q-2.140625 2.59375 -4.5 4.328125q-2.359375 1.734375 -4.703125 1.734375q-1.859375 0 -3.171875 -1.359375q-1.296875 -1.375 -1.296875 -4.78125q0 -3.46875 1.203125 -7.125q1.203125 -3.671875 3.359375 -6.828125q2.171875 -3.171875 5.140625 -5.09375q2.96875 -1.9375 6.5 -1.9375q1.140625 0 2.46875 0.328125q1.328125 0.328125 2.453125 1.234375q1.140625 0.890625 1.546875 2.5q0.0625 -0.140625 0.15625 -0.203125q0.109375 -0.0625 0.171875 -0.140625q0.9375 -1.453125 2.140625 -2.453125q1.203125 -1.0 2.65625 -1.0q0.734375 0 2.0625 0.0625q1.34375 0.0625 1.9375 0q-0.328125 0.265625 -0.90625 1.0625q-0.5625 0.796875 -1.03125 1.640625q-0.453125 0.828125 -0.71875 1.296875q-1.796875 3.46875 -3.265625 6.875q-1.46875 3.390625 -2.265625 6.515625q-0.203125 0.671875 -0.28125 1.234375q-0.0625 0.5625 -0.0625 1.109375q0 1.734375 1.140625 1.734375q1.0625 0 2.65625 -1.34375q2.34375 -1.859375 4.109375 -4.65625q1.765625 -2.8125 3.09375 -5.40625q0.265625 -0.46875 0.46875 -0.46875q0.40625 0 0.40625 1.140625q0 0.53125 -0.171875 1.203125q-0.171875 0.65625 -0.5 1.265625q-0.9375 1.59375 -2.4375 3.9375q-1.5 2.328125 -3.375 4.5625q-1.859375 2.21875 -3.890625 3.765625q-2.03125 1.53125 -4.03125 1.53125zm-13.265625 -5.8125q0.203125 0.078125 0.609375 0.078125q1.265625 0 2.71875 -1.0625q1.46875 -1.078125 2.9375 -2.765625q1.46875 -1.703125 2.609375 -3.4375q2.921875 -4.671875 4.3125 -7.0q1.40625 -2.34375 1.609375 -2.671875q-0.328125 -1.125 -1.171875 -1.65625q-0.828125 -0.546875 -1.953125 -0.546875q-1.46875 0 -3.109375 0.8125q-1.625 0.796875 -2.765625 1.921875q-1.734375 1.734375 -3.296875 4.46875q-1.5625 2.734375 -2.53125 5.40625q-0.96875 2.65625 -0.96875 4.453125q0 1.671875 1.0 2.0zm29.872223 5.8125q-1.9375 0 -2.9375 -1.546875q-0.46875 -0.71875 -0.671875 -1.71875q-0.203125 -1.0 -0.203125 -2.078125q0 -1.0625 0.125 -2.15625q0.140625 -1.109375 0.34375 -2.171875q0.34375 -1.734375 0.765625 -3.15625q0.4375 -1.4375 0.90625 -2.78125l0 -0.0625q-0.53125 1.0 -1.34375 2.171875q-0.796875 1.15625 -1.125 1.703125q-0.46875 0.71875 -0.734375 0.71875q-0.265625 0 -0.265625 -0.59375q0 -1.328125 0.796875 -2.9375q0.53125 -1.0625 1.46875 -2.75q0.9375 -1.703125 1.9375 -3.703125q1.0 -2.0 1.734375 -3.875l-4.46875 0q-0.328125 0 -0.140625 -0.53125q0.203125 -0.53125 0.59375 -1.03125q0.40625 -0.5 0.609375 -0.5l5.0625 0q0.734375 -1.734375 1.703125 -3.734375q0.96875 -2.0 2.203125 -3.765625q1.234375 -1.765625 2.703125 -2.890625q1.46875 -1.140625 3.125 -1.140625q0.734375 0 1.828125 0q1.109375 0 1.375 -0.0625q-1.40625 0.921875 -3.265625 3.6875q-1.859375 2.765625 -4.0625 7.90625l6.734375 0q0.1875 0 -0.140625 0.5q-0.328125 0.5 -0.828125 1.03125q-0.5 0.53125 -0.96875 0.53125l-5.734375 0q-0.859375 2.203125 -1.90625 4.8125q-1.03125 2.59375 -1.859375 5.09375q-0.828125 2.5 -1.234375 4.5625q-0.265625 1.265625 -0.265625 2.328125q0 2.53125 1.59375 2.53125q1.078125 0 2.53125 -1.0625q1.46875 -1.0625 2.9375 -2.9375q1.34375 -1.734375 2.5625 -3.734375q1.234375 -2.0 2.109375 -3.65625q0.265625 -0.46875 0.46875 -0.46875q0.390625 0 0.390625 1.0625q0 0.53125 -0.171875 1.234375q-0.15625 0.703125 -0.5625 1.375q-0.921875 1.59375 -2.1875 3.5q-1.265625 1.890625 -2.609375 3.765625q-0.921875 1.1875 -2.421875 2.734375q-1.5 1.53125 -3.203125 2.671875q-1.703125 1.125 -3.296875 1.125zm51.516205 0q-2.0625 0 -2.828125 -1.59375q-0.765625 -1.609375 -0.765625 -3.9375q0 -2.140625 0.390625 -4.203125q0.203125 -0.9375 0.4375 -1.90625q0.234375 -0.96875 0.5625 -2.03125q-1.125 2.0625 -2.359375 4.0q-1.234375 1.9375 -2.5 3.40625q-2.140625 2.59375 -4.5 4.328125q-2.359375 1.734375 -4.703125 1.734375q-1.859375 0 -3.171875 -1.359375q-1.296875 -1.375 -1.296875 -4.78125q0 -3.46875 1.203125 -7.125q1.203125 -3.671875 3.359375 -6.828125q2.171875 -3.171875 5.140625 -5.09375q2.96875 -1.9375 6.5 -1.9375q1.140625 0 2.46875 0.328125q1.328125 0.328125 2.453125 1.234375q1.140625 0.890625 1.546875 2.5q0.0625 -0.140625 0.15625 -0.203125q0.109375 -0.0625 0.171875 -0.140625q0.9375 -1.453125 2.140625 -2.453125q1.203125 -1.0 2.65625 -1.0q0.734375 0 2.0625 0.0625q1.34375 0.0625 1.9375 0q-0.328125 0.265625 -0.90625 1.0625q-0.5625 0.796875 -1.03125 1.640625q-0.453125 0.828125 -0.71875 1.296875q-1.796875 3.46875 -3.265625 6.875q-1.46875 3.390625 -2.265625 6.515625q-0.203125 0.671875 -0.28125 1.234375q-0.0625 0.5625 -0.0625 1.109375q0 1.734375 1.140625 1.734375q1.0625 0 2.65625 -1.34375q2.34375 -1.859375 4.109375 -4.65625q1.765625 -2.8125 3.09375 -5.40625q0.265625 -0.46875 0.46875 -0.46875q0.40625 0 0.40625 1.140625q0 0.53125 -0.171875 1.203125q-0.171875 0.65625 -0.5 1.265625q-0.9375 1.59375 -2.4375 3.9375q-1.5 2.328125 -3.375 4.5625q-1.859375 2.21875 -3.890625 3.765625q-2.03125 1.53125 -4.03125 1.53125zm-13.265625 -5.8125q0.203125 0.078125 0.609375 0.078125q1.265625 0 2.71875 -1.0625q1.46875 -1.078125 2.9375 -2.765625q1.46875 -1.703125 2.609375 -3.4375q2.921875 -4.671875 4.3125 -7.0q1.40625 -2.34375 1.609375 -2.671875q-0.328125 -1.125 -1.171875 -1.65625q-0.828125 -0.546875 -1.953125 -0.546875q-1.46875 0 -3.109375 0.8125q-1.625 0.796875 -2.765625 1.921875q-1.734375 1.734375 -3.296875 4.46875q-1.5625 2.734375 -2.53125 5.40625q-0.96875 2.65625 -0.96875 4.453125q0 1.671875 1.0 2.0zm42.200317 5.8125q-2.265625 0 -3.109375 -1.359375q-0.828125 -1.375 -0.828125 -3.171875q0 -2.203125 0.859375 -5.296875q0.875 -3.109375 2.03125 -6.265625q1.171875 -3.171875 2.109375 -5.640625q0.265625 -0.609375 0.265625 -1.265625q0 -0.734375 -0.46875 -1.0625q-0.46875 -0.34375 -1.203125 -0.34375q-1.0625 0 -2.390625 0.671875q-2.0625 1.0625 -3.9375 3.40625q-1.859375 2.328125 -3.0 4.859375q-1.265625 2.859375 -2.265625 5.734375q-1.0 2.859375 -1.59375 4.65625q-0.40625 1.140625 -0.734375 2.34375q-0.328125 1.1875 -0.671875 2.328125l-6.46875 0q0 0 0.4375 -1.65625q0.4375 -1.671875 1.109375 -3.34375q1.125 -2.9375 2.28125 -5.859375q1.171875 -2.9375 2.046875 -5.203125q0.265625 -0.671875 0.828125 -2.5q0.5625 -1.828125 1.0625 -3.828125q0.5 -2.0 0.5 -3.265625q0 -0.734375 -0.1875 -1.0q0.59375 0 1.359375 -0.03125q0.765625 -0.046875 1.4375 -0.046875q0.921875 0 1.75 0.078125q0.84375 0.0625 1.109375 0.328125q0.796875 0.59375 0.796875 1.734375q0 0.796875 -0.296875 1.59375q-0.296875 0.796875 -0.4375 1.34375q0.9375 -0.875 1.9375 -1.671875q1.0 -0.796875 3.0625 -2.0625q1.203125 -0.734375 3.0 -1.203125q1.8125 -0.46875 3.265625 -0.46875q3.8125 0 3.8125 3.53125q0 0.59375 -0.109375 1.328125q-0.09375 0.734375 -0.4375 1.609375q-0.328125 1.0625 -1.0625 2.9375q-0.734375 1.859375 -1.5 3.96875q-0.765625 2.09375 -1.296875 3.96875q-0.53125 1.859375 -0.53125 2.984375q0 1.609375 1.203125 1.609375q1.0625 0 2.65625 -1.34375q1.53125 -1.265625 2.671875 -2.734375q1.40625 -1.734375 2.5625 -3.6875q1.171875 -1.96875 2.03125 -3.640625q0.34375 -0.53125 0.46875 -0.53125q0.40625 0 0.40625 1.125q0 0.546875 -0.171875 1.25q-0.171875 0.6875 -0.5 1.296875q-0.9375 1.59375 -2.203125 3.53125q-1.265625 1.921875 -2.59375 3.734375q-0.9375 1.265625 -2.46875 2.796875q-1.53125 1.53125 -3.265625 2.640625q-1.734375 1.09375 -3.328125 1.09375zm31.85907 0q-2.0 0 -2.765625 -1.5q-0.765625 -1.5 -0.765625 -3.765625q0 -1.078125 0.125 -2.171875q0.140625 -1.09375 0.34375 -2.234375q0.125 -1.0 0.515625 -2.421875q0.40625 -1.4375 0.953125 -3.109375q-1.265625 2.53125 -2.9375 5.171875q-1.671875 2.625 -3.640625 4.859375q-1.953125 2.234375 -4.0625 3.609375q-2.09375 1.359375 -4.234375 1.359375q-1.859375 0 -3.171875 -1.359375q-1.296875 -1.375 -1.296875 -4.78125q0 -3.46875 1.203125 -7.125q1.203125 -3.671875 3.359375 -6.828125q2.171875 -3.171875 5.140625 -5.09375q2.96875 -1.9375 6.5 -1.9375q1.46875 0 3.265625 0.59375q1.796875 0.59375 2.734375 2.328125q0.328125 -0.53125 0.53125 -1.0625q0.203125 -0.53125 0.40625 -0.9375q1.59375 -3.53125 2.71875 -6.65625q1.140625 -3.140625 2.015625 -4.875q1.125 -2.265625 1.78125 -3.421875q0.671875 -1.171875 1.234375 -1.640625q0.578125 -0.46875 1.3125 -0.671875q0.59375 -0.125 1.328125 -0.1875q0.734375 -0.078125 1.53125 -0.078125q0.8125 0 1.84375 0q1.03125 0 1.296875 -0.0625q-1.140625 0.796875 -2.671875 3.265625q-1.53125 2.46875 -3.203125 5.9375q-1.65625 3.46875 -3.234375 7.375q-1.5625 3.890625 -2.859375 7.71875q-1.296875 3.828125 -2.0625 6.96875q-0.765625 3.125 -0.765625 5.0625q0 2.140625 1.203125 2.140625q0.796875 0 1.890625 -0.796875q1.109375 -0.8125 2.03125 -1.8125q0.9375 -1.0 1.34375 -1.46875q1.328125 -1.734375 2.53125 -3.6875q1.203125 -1.96875 2.0625 -3.703125q0.328125 -0.53125 0.46875 -0.53125q0.46875 0 0.46875 1.1875q0 1.265625 -0.671875 2.40625q-0.9375 1.59375 -2.234375 3.5625q-1.296875 1.96875 -2.625 3.84375q-0.9375 1.1875 -2.4375 2.734375q-1.5 1.53125 -3.203125 2.671875q-1.703125 1.125 -3.296875 1.125zm-13.46875 -5.8125q0.203125 0.078125 0.609375 0.078125q1.859375 0 4.359375 -2.5q2.5 -2.5 5.03125 -6.5625q0.53125 -0.8125 1.265625 -2.265625q0.734375 -1.46875 1.5625 -3.234375q0.84375 -1.765625 1.578125 -3.3125q-0.46875 -0.65625 -1.171875 -0.921875q-0.703125 -0.265625 -1.5 -0.265625q-1.46875 0 -3.140625 0.765625q-1.65625 0.765625 -2.796875 1.890625q-1.734375 1.734375 -3.296875 4.46875q-1.5625 2.734375 -2.53125 5.40625q-0.96875 2.65625 -0.96875 4.453125q0 1.671875 1.0 2.0zm52.522186 6.203125q-1.921875 -0.328125 -3.59375 -0.953125q-1.671875 -0.640625 -2.859375 -1.640625q-0.875 -0.796875 -1.28125 -1.890625q-0.390625 -1.109375 -0.390625 -2.375q0 -2.140625 0.734375 -4.4375q0.734375 -2.296875 1.265625 -3.96875q1.265625 -3.734375 3.03125 -7.921875q1.765625 -4.203125 3.59375 -8.140625q1.84375 -3.9375 3.296875 -7.0q1.46875 -3.0625 2.203125 -4.46875q0.265625 -0.53125 0.5 -0.984375q0.234375 -0.46875 0.5 -0.875q-0.65625 0.0625 -1.265625 0.171875q-0.59375 0.09375 -1.125 0.15625q-2.9375 0.40625 -6.109375 1.3125q-3.15625 0.890625 -5.6875 2.234375q-2.53125 1.328125 -3.671875 3.25q-0.0625 0.203125 -0.265625 0.203125q-0.140625 0 -0.234375 -0.265625q-0.09375 -0.265625 -0.03125 -0.59375q0.671875 -1.734375 1.671875 -3.328125q1.0 -1.609375 1.921875 -2.546875q1.46875 -1.53125 4.0 -2.1875q2.53125 -0.671875 5.234375 -0.875q2.703125 -0.203125 4.640625 -0.203125l13.65625 0q6.734436 0 10.828186 2.546875q4.109375 2.53125 5.96875 6.671875q1.875 4.125 1.875 8.921875q0 1.125 -0.078125 2.265625q-0.0625 1.125 -0.265625 2.265625q-1.0 6.0625 -3.90625 10.765625q-2.890625 4.6875 -7.15625 7.890625q-4.265625 3.203125 -9.562561 4.84375q-5.296875 1.625 -11.09375 1.625q-1.53125 0 -3.140625 -0.109375q-1.59375 -0.09375 -3.203125 -0.359375zm1.671875 -2.59375q0.875 0.0625 1.734375 0.171875q0.859375 0.09375 1.734375 0.09375q4.734375 0 8.96875 -1.65625q4.234375 -1.671875 7.65625 -4.671875q3.437561 -3.0 5.828186 -6.9375q2.40625 -3.9375 3.46875 -8.53125q0.734375 -3.0625 0.734375 -5.875q0 -2.984375 -0.90625 -5.75q-0.890625 -2.78125 -2.890625 -4.96875q-1.796875 -2.0 -4.796875 -3.09375q-3.000061 -1.109375 -5.531311 -1.3125q-0.59375 -0.0625 -1.203125 -0.09375q-0.59375 -0.03125 -1.203125 -0.03125q-1.1875 1.59375 -2.46875 3.765625q-1.265625 2.15625 -2.4375 4.421875q-1.15625 2.265625 -2.015625 4.140625q-2.265625 4.859375 -4.265625 9.734375q-2.0 4.859375 -3.609375 9.921875q-0.46875 1.46875 -0.9375 3.34375q-0.453125 1.859375 -0.453125 3.453125q0 1.46875 0.5625 2.578125q0.5625 1.09375 2.03125 1.296875zm53.32605 0.859375q-3.0625 1.609375 -6.46875 1.609375q-2.859375 0 -5.328125 -1.40625q-2.46875 -1.40625 -3.328125 -4.46875q-0.40625 -1.390625 -0.40625 -2.921875q0 -2.546875 0.890625 -5.234375q0.90625 -2.703125 2.375 -4.96875q2.265625 -3.53125 5.734375 -5.859375q3.46875 -2.34375 7.671875 -2.34375q3.125 0 4.859375 1.609375q1.734375 1.59375 1.734375 3.71875q0 2.546875 -1.703125 4.453125q-1.703125 1.890625 -4.4375 2.890625q-1.328125 0.46875 -2.828125 0.703125q-1.5 0.21875 -2.828125 0.21875q-2.734375 0 -4.203125 -0.734375q-1.265625 3.28125 -1.265625 6.0q0 2.46875 1.125 4.046875q1.140625 1.5625 3.609375 1.5625q2.0625 0 4.09375 -1.125q2.03125 -1.140625 3.796875 -2.8125q1.765625 -1.671875 2.96875 -3.203125q0.9375 -1.125 1.59375 -2.125q0.671875 -1.0 1.40625 -2.296875q0.734375 -1.3125 1.734375 -3.234375q0.265625 -0.46875 0.46875 -0.46875q0.40625 0 0.40625 1.0625q0 0.59375 -0.171875 1.296875q-0.171875 0.703125 -0.5625 1.4375q-0.9375 1.671875 -2.234375 3.640625q-1.296875 1.953125 -2.640625 3.765625q-1.203125 1.59375 -2.734375 2.9375q-1.53125 1.328125 -3.328125 2.25zm-6.0625 -14.1875q0.328125 0.1875 0.71875 0.265625q0.40625 0.0625 0.8125 0.0625q1.328125 0 2.65625 -0.625q1.34375 -0.640625 2.28125 -1.3125q1.53125 -1.0625 2.59375 -2.53125q1.0625 -1.46875 1.203125 -3.328125q0.0625 -0.796875 -0.375 -1.359375q-0.421875 -0.578125 -1.5 -0.578125q-0.53125 0 -1.328125 0.203125q-1.0625 0.265625 -2.140625 1.0q-1.0625 0.734375 -2.0625 1.734375q-0.328125 0.328125 -1.171875 1.296875q-0.828125 0.96875 -1.5625 2.140625q-0.734375 1.15625 -0.734375 2.03125q0 0.734375 0.609375 1.0zm32.1286 15.53125q-2.265625 0 -3.109375 -1.359375q-0.828125 -1.375 -0.828125 -3.171875q0 -2.203125 0.859375 -5.296875q0.875 -3.109375 2.03125 -6.265625q1.171875 -3.171875 2.109375 -5.640625q0.265625 -0.609375 0.265625 -1.265625q0 -0.734375 -0.46875 -1.0625q-0.46875 -0.34375 -1.203125 -0.34375q-1.0625 0 -2.390625 0.671875q-2.0625 1.0625 -3.9375 3.40625q-1.859375 2.328125 -3.0 4.859375q-1.265625 2.859375 -2.265625 5.734375q-1.0 2.859375 -1.59375 4.65625q-0.40625 1.140625 -0.734375 2.34375q-0.328125 1.1875 -0.671875 2.328125l-6.46875 0q0 0 0.4375 -1.65625q0.4375 -1.671875 1.109375 -3.34375q1.125 -2.9375 2.28125 -5.859375q1.171875 -2.9375 2.046875 -5.203125q0.265625 -0.671875 0.828125 -2.5q0.5625 -1.828125 1.0625 -3.828125q0.5 -2.0 0.5 -3.265625q0 -0.734375 -0.1875 -1.0q0.59375 0 1.359375 -0.03125q0.765625 -0.046875 1.4375 -0.046875q0.921875 0 1.75 0.078125q0.84375 0.0625 1.109375 0.328125q0.796875 0.59375 0.796875 1.734375q0 0.796875 -0.296875 1.59375q-0.296875 0.796875 -0.4375 1.34375q0.9375 -0.875 1.9375 -1.671875q1.0 -0.796875 3.0625 -2.0625q1.203125 -0.734375 3.0 -1.203125q1.8125 -0.46875 3.265625 -0.46875q3.8125 0 3.8125 3.53125q0 0.59375 -0.109375 1.328125q-0.09375 0.734375 -0.4375 1.609375q-0.328125 1.0625 -1.0625 2.9375q-0.734375 1.859375 -1.5 3.96875q-0.765625 2.09375 -1.296875 3.96875q-0.53125 1.859375 -0.53125 2.984375q0 1.609375 1.203125 1.609375q1.0625 0 2.65625 -1.34375q1.53125 -1.265625 2.671875 -2.734375q1.40625 -1.734375 2.5625 -3.6875q1.171875 -1.96875 2.03125 -3.640625q0.34375 -0.53125 0.46875 -0.53125q0.40625 0 0.40625 1.125q0 0.546875 -0.171875 1.25q-0.171875 0.6875 -0.5 1.296875q-0.9375 1.59375 -2.203125 3.53125q-1.265625 1.921875 -2.59375 3.734375q-0.9375 1.265625 -2.46875 2.796875q-1.53125 1.53125 -3.265625 2.640625q-1.734375 1.09375 -3.328125 1.09375zm19.530884 0.921875q-2.265625 0 -4.265625 -0.59375q-2.0 -0.59375 -3.265625 -1.859375q-1.265625 -1.28125 -1.265625 -3.203125q0 -1.46875 0.890625 -2.859375q0.90625 -1.40625 2.5625 -1.40625q0.734375 0 1.328125 0.328125q0.609375 0.328125 0.8125 0.859375q-0.0625 0.078125 -0.328125 0.453125q-0.265625 0.359375 -0.34375 0.484375q-0.59375 1.203125 -0.59375 2.203125q0 1.40625 1.03125 2.265625q1.03125 0.859375 2.703125 0.859375q2.203125 -0.0625 3.828125 -1.5625q1.640625 -1.5 1.640625 -3.5625q0 -1.203125 -0.53125 -2.265625q-0.875 -1.796875 -2.3125 -3.09375q-1.421875 -1.3125 -2.734375 -2.640625q-1.296875 -1.328125 -1.890625 -3.203125q-0.265625 -0.859375 -0.265625 -2.125q0 -1.265625 0.328125 -2.5q0.328125 -1.234375 1.0 -2.109375q0.9375 -1.265625 2.796875 -2.328125q2.34375 -1.265625 5.46875 -1.265625q2.0625 0 3.671875 0.53125q1.203125 0.40625 2.09375 1.3125q0.90625 0.890625 0.90625 2.359375q0 1.65625 -1.046875 3.15625q-1.03125 1.5 -2.953125 1.84375q-1.203125 0.125 -2.140625 -0.4375q-0.921875 -0.5625 -0.65625 -2.171875q1.796875 -0.390625 2.59375 -1.453125q0.40625 -0.609375 0.40625 -1.203125q0 -1.140625 -0.90625 -1.5625q-0.90625 -0.4375 -1.703125 -0.4375q-1.0 0 -1.90625 0.234375q-0.890625 0.234375 -1.625 0.765625q-1.46875 1.265625 -1.46875 2.921875q0 0.28125 0.09375 0.609375q0.109375 0.328125 0.171875 0.671875q0.34375 0.859375 1.0 1.59375q0.671875 0.734375 1.34375 1.265625q1.65625 1.203125 3.421875 2.609375q1.765625 1.390625 2.640625 3.390625q0.65625 1.40625 0.65625 2.859375q0 2.0 -1.0 3.640625q-1.0 1.625 -2.265625 2.5625q2.203125 -0.9375 4.296875 -3.296875q2.109375 -2.375 3.640625 -4.703125q1.0 -1.53125 1.828125 -2.890625q0.84375 -1.375 1.703125 -3.046875q0.265625 -0.453125 0.46875 -0.453125q0.40625 0 0.40625 1.125q0 0.46875 -0.171875 1.140625q-0.171875 0.65625 -0.5 1.328125q-1.203125 2.0 -2.265625 3.703125q-1.0625 1.703125 -2.59375 3.703125q-3.078125 4.0625 -6.546875 5.765625q-3.453125 1.6875 -8.1875 1.6875zm31.586792 -33.328125q-1.734375 -0.59375 -1.734375 -2.265625q0 -1.53125 1.234375 -3.15625q1.234375 -1.640625 2.703125 -2.109375q0.328125 -0.125 0.5625 -0.125q0.234375 0 0.5 0q1.140625 0 1.875 0.671875q0.734375 0.65625 0.734375 1.53125q0 1.1875 -1.265625 1.984375q-1.0 -0.125 -1.9375 0.484375q-0.9375 0.59375 -1.640625 1.46875q-0.6875 0.859375 -1.03125 1.515625zm-11.453125 32.40625q-0.875 0 -1.671875 -0.375q-0.796875 -0.359375 -1.328125 -1.4375q-0.734375 -1.59375 -0.734375 -3.796875q0 -2.390625 0.734375 -5.359375q0.734375 -2.96875 1.921875 -6.109375q0.46875 -1.125 1.203125 -2.78125q0.734375 -1.671875 1.734375 -3.34375q1.0 -1.671875 2.296875 -2.765625q1.296875 -1.09375 2.828125 -1.09375q0.734375 0 2.0625 0.0625q1.34375 0.0625 1.9375 0q-0.390625 0.265625 -0.921875 1.0625q-0.53125 0.796875 -1.0 1.640625q-0.46875 0.828125 -0.734375 1.296875q-1.734375 3.46875 -3.265625 6.875q-1.53125 3.390625 -2.34375 6.515625q-0.125 0.53125 -0.203125 1.078125q-0.0625 0.53125 -0.0625 1.0q0 1.921875 1.265625 1.921875q0.546875 0 1.171875 -0.296875q0.640625 -0.296875 1.5 -0.96875q1.53125 -1.203125 2.671875 -2.734375q1.328125 -1.734375 2.53125 -3.6875q1.203125 -1.96875 2.0625 -3.640625q0.328125 -0.53125 0.46875 -0.53125q0.40625 0 0.40625 1.125q0 0.546875 -0.171875 1.25q-0.171875 0.6875 -0.5 1.296875q-0.9375 1.59375 -2.203125 3.53125q-1.265625 1.921875 -2.59375 3.734375q-0.9375 1.265625 -2.46875 2.796875q-1.53125 1.53125 -3.265625 2.640625q-1.734375 1.09375 -3.328125 1.09375zm16.730042 0q-1.9375 0 -2.9375 -1.546875q-0.46875 -0.71875 -0.671875 -1.71875q-0.203125 -1.0 -0.203125 -2.078125q0 -1.0625 0.125 -2.15625q0.140625 -1.109375 0.34375 -2.171875q0.34375 -1.734375 0.765625 -3.15625q0.4375 -1.4375 0.90625 -2.78125l0 -0.0625q-0.53125 1.0 -1.34375 2.171875q-0.796875 1.15625 -1.125 1.703125q-0.46875 0.71875 -0.734375 0.71875q-0.265625 0 -0.265625 -0.59375q0 -1.328125 0.796875 -2.9375q0.53125 -1.0625 1.46875 -2.75q0.9375 -1.703125 1.9375 -3.703125q1.0 -2.0 1.734375 -3.875l-4.46875 0q-0.328125 0 -0.140625 -0.53125q0.203125 -0.53125 0.59375 -1.03125q0.40625 -0.5 0.609375 -0.5l5.0625 0q0.734375 -1.734375 1.703125 -3.734375q0.96875 -2.0 2.203125 -3.765625q1.234375 -1.765625 2.703125 -2.890625q1.46875 -1.140625 3.125 -1.140625q0.734375 0 1.828125 0q1.109375 0 1.375 -0.0625q-1.40625 0.921875 -3.265625 3.6875q-1.859375 2.765625 -4.0625 7.90625l6.734375 0q0.1875 0 -0.140625 0.5q-0.328125 0.5 -0.828125 1.03125q-0.5 0.53125 -0.96875 0.53125l-5.734375 0q-0.859375 2.203125 -1.90625 4.8125q-1.03125 2.59375 -1.859375 5.09375q-0.828125 2.5 -1.234375 4.5625q-0.265625 1.265625 -0.265625 2.328125q0 2.53125 1.59375 2.53125q1.078125 0 2.53125 -1.0625q1.46875 -1.0625 2.9375 -2.9375q1.34375 -1.734375 2.5625 -3.734375q1.234375 -2.0 2.109375 -3.65625q0.265625 -0.46875 0.46875 -0.46875q0.390625 0 0.390625 1.0625q0 0.53125 -0.171875 1.234375q-0.15625 0.703125 -0.5625 1.375q-0.921875 1.59375 -2.1875 3.5q-1.265625 1.890625 -2.609375 3.765625q-0.921875 1.1875 -2.421875 2.734375q-1.5 1.53125 -3.203125 2.671875q-1.703125 1.125 -3.296875 1.125zm13.394287 12.984375q-1.671875 0 -3.5 -0.5q-1.828125 -0.5 -3.0625 -1.703125q-1.234375 -1.1875 -1.234375 -3.1875q0 -1.40625 0.875 -2.609375q0.859375 -1.1875 2.390625 -1.1875q0.921875 0 1.71875 0.5q0.8125 0.5 1.078125 1.234375q-0.140625 0.0625 -0.40625 0.390625q-0.265625 0.34375 -0.328125 0.46875q-0.46875 0.9375 -0.46875 1.9375q0 1.265625 0.890625 2.03125q0.90625 0.765625 2.3125 0.765625q1.796875 0 3.734375 -1.328125q2.125 -1.53125 3.359375 -3.96875q1.234375 -2.4375 1.96875 -4.375l3.796875 -10.125q-1.203125 1.46875 -2.5 2.96875q-1.296875 1.5 -1.625 1.828125q-2.53125 2.53125 -4.53125 3.203125q-2.0 0.671875 -3.53125 0.671875q-1.609375 0 -2.71875 -1.40625q-1.09375 -1.40625 -1.09375 -4.0625q0 -1.34375 0.40625 -3.40625q0.40625 -2.0625 1.125 -4.421875q0.734375 -2.375 1.703125 -4.671875q0.96875 -2.296875 2.109375 -4.09375q1.734375 -2.734375 3.859375 -3.53125q2.140625 -0.8125 5.40625 -0.8125q0.265625 0 0.265625 0.265625q0 0.265625 -0.40625 0.671875q-0.9375 0.796875 -2.265625 2.796875q-1.328125 2.0 -2.5625 4.40625q-1.234375 2.390625 -2.03125 4.59375q-0.53125 1.53125 -1.03125 3.609375q-0.5 2.0625 -0.5 3.59375q0 1.0625 0.296875 1.703125q0.296875 0.625 0.96875 0.625q1.0625 0 2.921875 -1.59375q2.8125 -2.34375 5.078125 -5.734375q2.265625 -3.40625 3.859375 -7.0625q0.9375 -2.140625 1.53125 -3.640625q0.609375 -1.5 1.328125 -2.421875q0.734375 -0.9375 2.0625 -1.375q1.34375 -0.4375 3.609375 -0.4375l2.734375 0q-1.265625 0.796875 -2.53125 2.96875q-1.265625 2.171875 -2.40625 5.09375q-0.859375 2.140625 -1.765625 4.671875q-0.890625 2.53125 -1.828125 5.140625q-0.796875 2.390625 -1.734375 5.234375q-0.9375 2.828125 -2.140625 5.515625q-1.1875 2.703125 -2.796875 4.703125q-2.265625 2.796875 -5.53125 4.421875q-3.265625 1.640625 -6.859375 1.640625zm38.188293 -45.25q0.40625 -0.46875 1.203125 -1.53125q0.796875 -1.078125 1.625 -2.375q0.84375 -1.296875 1.4375 -2.359375q0.609375 -1.0625 0.671875 -1.46875q-1.328125 0.140625 -2.0 -0.625q-0.671875 -0.78125 -0.671875 -1.90625q0 -1.328125 0.875 -2.875q1.390625 -2.125 3.59375 -2.125q0.796875 0 1.46875 0.40625q1.46875 0.859375 1.46875 2.859375q0 1.0625 -0.375 2.234375q-0.359375 1.171875 -0.96875 2.296875q-0.390625 0.671875 -1.15625 1.9375q-0.765625 1.265625 -1.84375 2.5625q-1.0625 1.296875 -2.265625 2.203125q-1.1875 0.890625 -2.328125 0.890625q-0.203125 0 -0.375 -0.03125q-0.15625 -0.03125 -0.359375 -0.09375zm-10.265625 0q0.40625 -0.46875 1.203125 -1.53125q0.796875 -1.078125 1.625 -2.375q0.84375 -1.296875 1.4375 -2.359375q0.609375 -1.0625 0.671875 -1.46875q-1.328125 0.140625 -2.0 -0.625q-0.671875 -0.78125 -0.671875 -1.90625q0 -1.328125 0.875 -2.875q1.390625 -2.125 3.59375 -2.125q0.796875 0 1.46875 0.40625q1.46875 0.859375 1.46875 2.859375q0 1.0625 -0.375 2.234375q-0.359375 1.171875 -0.96875 2.296875q-0.390625 0.671875 -1.15625 1.9375q-0.765625 1.265625 -1.84375 2.5625q-1.0625 1.296875 -2.265625 2.203125q-1.1875 0.890625 -2.328125 0.890625q-0.203125 0 -0.375 -0.03125q-0.15625 -0.03125 -0.359375 -0.09375z" fill-rule="nonzero"/></g><g filter="url(#shadowFilter-ge92ff9d39a_0_13.3)"><use xlink:href="#ge92ff9d39a_0_13.3" transform=""/></g><defs><filter id="shadowFilter-ge92ff9d39a_0_13.3" filterUnits="userSpaceOnUse"><feGaussianBlur in="SourceAlpha" stdDeviation="3.0" result="blur"/><feComponentTransfer in="blur" color-interpolation-filters="sRGB"><feFuncR type="linear" slope="0" intercept="0.0"/><feFuncG type="linear" slope="0" intercept="0.0"/><feFuncB type="linear" slope="0" intercept="0.0"/><feFuncA type="linear" slope="1.0" intercept="0"/></feComponentTransfer></filter></defs><g id="ge92ff9d39a_0_13.3"><path fill="#000000" fill-opacity="0.0" d="m154.50131 379.83728l655.4961 0" fill-rule="evenodd"/><path stroke="#ffffff" stroke-width="4.0" stroke-linejoin="round" stroke-linecap="butt" d="m154.50131 379.83728l655.4961 0" fill-rule="evenodd"/></g><g filter="url(#shadowFilter-ge92ff9d39a_0_13.4)"><use xlink:href="#ge92ff9d39a_0_13.4" transform=""/></g><defs><filter id="shadowFilter-ge92ff9d39a_0_13.4" filterUnits="userSpaceOnUse"><feGaussianBlur in="SourceAlpha" stdDeviation="3.0" result="blur"/><feComponentTransfer in="blur" color-interpolation-filters="sRGB"><feFuncR type="linear" slope="0" intercept="0.0"/><feFuncG type="linear" slope="0" intercept="0.0"/><feFuncB type="linear" slope="0" intercept="0.0"/><feFuncA type="linear" slope="1.0" intercept="0"/></feComponentTransfer></filter></defs><g id="ge92ff9d39a_0_13.4"><path fill="#000000" fill-opacity="0.0" d="m0 0l894.5512 0l0 125.25984l-894.5512 0z" fill-rule="evenodd"/><path fill="#000000" fill-opacity="0.0" d="m9.0 29.443863l441.1883 0l0 123.21748l-441.1883 0l0 -123.21748z" fill-rule="nonzero"/><path fill="#ffffff" d="m52.609375 45.315002l-10.125 57.125l-11.6875 0l10.125 -57.125l-18.203125 0l1.859375 -11.0l48.171875 0l-1.84375 11.0l-18.296875 0zm45.641785 58.296875q-10.03125 0 -16.359375 -5.34375q-6.3125 -5.359375 -6.3125 -15.875q0 -4.0 0.96875 -9.546875l6.90625 -38.53125l11.578125 0l-7.09375 40.484375q-0.6875 4.375 -0.6875 6.515625q0 11.09375 11.78125 11.09375q6.609375 0 10.984375 -3.546875q4.390625 -3.546875 5.84375 -12.3125l7.5 -42.234375l11.484375 0l-7.5 43.109375q-2.53125 14.5 -9.875 20.34375q-7.34375 5.84375 -19.21875 5.84375zm75.045166 -58.296875l-10.125 57.125l-11.6875 0l10.125 -57.125l-18.203125 0l1.859375 -11.0l48.171875 0l-1.84375 11.0l-18.296875 0zm43.20645 58.296875q-6.625 0 -11.640625 -2.4375q-5.0 -2.4375 -7.875 -6.671875q-2.875 -4.234375 -4.28125 -9.28125q-1.40625 -5.0625 -1.40625 -11.0q0 -7.890625 2.1875 -15.1875q2.1875 -7.296875 6.265625 -13.140625q4.09375 -5.84375 10.5625 -9.296875q6.484375 -3.453125 14.359375 -3.453125q8.1875 0 13.96875 4.28125q5.796875 4.28125 8.265625 10.65625q2.484375 6.375 2.484375 14.0625q0 10.90625 -3.796875 20.25q-3.78125 9.34375 -11.421875 15.28125q-7.640625 5.9375 -17.671875 5.9375zm0 -11.0q9.734375 0 15.5625 -9.0q5.84375 -9.0 5.84375 -21.46875q0 -7.390625 -3.453125 -12.6875q-3.453125 -5.3125 -10.453125 -5.3125q-6.53125 0 -11.5 4.625q-4.953125 4.625 -7.34375 11.34375q-2.375 6.703125 -2.375 14.109375q0 7.6875 3.359375 13.046875q3.359375 5.34375 10.359375 5.34375zm98.20334 -38.84375q0 3.21875 -0.875 6.34375q-0.875 3.109375 -2.828125 6.171875q-1.9375 3.0625 -5.453125 5.40625q-3.5 2.328125 -8.171875 3.296875l7.796875 27.453125l-12.46875 0l-7.484375 -26.765625l-13.625 0l-4.671875 26.765625l-11.687515 0l11.968765 -68.125l27.84375 0q10.21875 0 14.9375 5.6875q4.71875 5.6875 4.71875 13.765625zm-23.84375 11.109375q6.625 0 9.34375 -3.21875q2.71875 -3.21875 2.71875 -7.5q0 -3.890625 -2.1875 -6.421875q-2.1875 -2.53125 -6.953125 -2.53125l-16.84375 0l-3.40625 19.671875l17.328125 0zm27.151672 37.5625l11.96875 -68.125l11.6875 0l-11.96875 68.125l-11.6875 0zm19.95697 0l36.40625 -68.125l10.984375 0l12.5625 68.125l-11.78125 0l-2.625 -14.984375l-25.296875 0l-7.890625 14.984375l-12.359375 0zm25.59375 -25.5l18.203125 0l-3.609375 -21.015625q-0.09375 -0.390625 -0.4375 -2.671875q-0.328125 -2.296875 -0.4375 -2.984375q-1.265625 3.125 -2.625 5.453125l-11.09375 21.21875zm42.433777 25.5l11.96875 -68.125l11.6875 0l-10.03125 57.125l31.4375 0l-1.9375 11.0l-43.125 0z" fill-rule="nonzero"/><path fill="#000000" fill-opacity="0.0" d="m450.1883 29.443863l0 0l0 123.21748l0 0l0 -123.21748z" fill-rule="nonzero"/><path fill="#ffffff" d="m9.0 108.76667l441.1883 0l0 8.760002l-441.1883 0l0 -8.760002z" fill-rule="nonzero"/></g></g></svg>