# Blender v2.82 (sub 6) OBJ File: 'TGV.blend'
# www.blender.org
mtllib TGV.mtl
o Cube
v 0.461648 0.456040 -0.795553
v 0.461648 0.456040 -7.463949
v 0.477722 1.139557 -7.463949
v 0.361643 1.304579 -2.140449
v 0.361643 1.283822 -7.463949
v 0.477722 1.102998 -1.379433
v 0.361643 1.304579 -1.406613
v 0.156259 0.516910 -0.038241
v 0.156259 0.674778 -0.038241
v 0.404276 0.908391 -0.480327
v 0.461648 0.475782 -0.480326
v 0.369175 0.332791 -0.759376
v 0.159144 0.359633 -0.474614
v 0.328436 0.332791 -0.583564
v 0.374084 0.268343 -0.759376
v 0.344746 0.268343 -0.542853
v 0.327557 0.303858 -0.542853
v 0.287696 0.268343 -0.330871
v 0.189729 0.268343 -0.197276
v 0.302896 1.304579 -1.529168
v 0.210501 1.514027 -1.675782
v 0.302896 1.304579 -7.447788
v 0.210501 1.514027 -7.447788
v 0.374084 0.268343 -7.463949
v 0.208123 0.719334 -0.070896
v 0.208123 0.513872 -0.070896
v 0.238861 1.087004 -0.879000
v 0.180821 1.304579 -1.116390
v 0.436056 1.041196 -0.873945
v 0.389526 1.095001 -1.081203
v 0.302467 1.304579 -1.213488
v 0.369175 0.332791 -7.463949
v 0.444389 0.432370 -0.880013
v 0.444389 0.432370 -7.561472
v 0.369175 0.329218 -0.880013
v 0.374084 0.000002 -0.880013
v 0.374084 0.000002 -7.561472
v 0.369175 0.329218 -7.561472
v 0.573602 0.432370 -0.880013
v 0.573602 0.432370 -7.561472
v 0.649365 0.329218 -0.880013
v 0.649365 0.000002 -0.880013
v 0.649365 0.000002 -7.561472
v 0.649365 0.329218 -7.561472
v 0.370302 0.253660 -0.880013
v 0.370302 0.253660 -7.561472
v 0.373199 0.059369 -0.880013
v 0.373199 0.059369 -7.561472
v 0.509834 0.253660 -0.880013
v 0.509834 0.253660 -7.561472
v 0.511282 0.059369 -7.561472
v 0.511282 0.059369 -0.880013
v -0.461648 0.456040 -0.795553
v -0.461648 0.456040 -7.463949
v -0.477722 1.139557 -7.463949
v -0.361643 1.304579 -2.140449
v 0.000000 1.304579 -2.140449
v -0.361643 1.283822 -7.463949
v 0.000000 1.283822 -7.463949
v 0.000000 0.436299 -5.441887
v -0.477722 1.102998 -1.379433
v 0.000000 1.087004 -0.879000
v -0.361643 1.304579 -1.406613
v 0.000000 1.304579 -1.116390
v -0.156259 0.516910 -0.038241
v -0.156259 0.674778 -0.038241
v 0.000000 0.516910 -0.001356
v 0.000000 0.691712 -0.001356
v -0.404276 0.908391 -0.480327
v -0.461648 0.475782 -0.480326
v 0.000000 0.944918 -0.480327
v 0.000000 0.461692 -0.129636
v -0.369175 0.332791 -0.759376
v 0.000000 0.271352 -0.759376
v -0.159144 0.359633 -0.474614
v 0.000000 0.359633 -0.474614
v -0.328436 0.332791 -0.583564
v 0.000000 0.332791 -0.623764
v -0.374084 0.268343 -0.759376
v -0.344746 0.268343 -0.542853
v 0.000000 0.271352 -0.623764
v -0.327557 0.303858 -0.542853
v 0.000000 0.303858 -0.623764
v -0.287696 0.268343 -0.330871
v 0.000000 0.268343 -0.132514
v -0.189729 0.268343 -0.197276
v -0.302896 1.304579 -1.529168
v 0.000000 1.304579 -1.529168
v -0.210501 1.514027 -1.675782
v 0.000000 1.514027 -1.675782
v -0.302896 1.304579 -7.447788
v 0.000000 1.304579 -7.447788
v 0.000000 1.514027 -7.447788
v -0.210501 1.514027 -7.447788
v 0.000000 0.436299 -6.808590
v 0.000000 0.268343 -7.463949
v -0.374084 0.268343 -7.463949
v -0.208123 0.719334 -0.070896
v -0.208123 0.513872 -0.070896
v -0.238861 1.087004 -0.879000
v -0.180821 1.304579 -1.116390
v -0.436056 1.041196 -0.873945
v -0.389526 1.095001 -1.081203
v -0.302467 1.304579 -1.213488
v 0.000000 0.763029 -0.124432
v -0.369175 0.332791 -7.463949
v -0.444389 0.432370 -0.880013
v -0.444389 0.432370 -7.561472
v -0.369175 0.329218 -0.880013
v -0.374084 0.000002 -0.880013
v -0.374084 0.000002 -7.561472
v -0.369175 0.329218 -7.561472
v -0.573602 0.432370 -0.880013
v -0.573602 0.432370 -7.561472
v -0.649365 0.329218 -0.880013
v -0.649365 0.000002 -0.880013
v -0.649365 0.000002 -7.561472
v -0.649365 0.329218 -7.561472
v -0.370302 0.253660 -0.880013
v -0.370302 0.253660 -7.561472
v -0.373199 0.059369 -0.880013
v -0.373199 0.059369 -7.561472
v -0.509834 0.253660 -0.880013
v -0.509834 0.253660 -7.561472
v -0.511282 0.059369 -7.561472
v -0.511282 0.059369 -0.880013
vt 0.005577 0.229959
vt 0.005278 0.130923
vt 0.036660 0.127160
vt 0.498994 0.610170
vt 0.563466 0.629640
vt 0.514659 0.629640
vt 0.501163 0.517924
vt 0.268364 0.723734
vt 0.268364 0.861940
vt 0.243961 0.861940
vt 0.219557 0.723734
vt 0.219557 0.005278
vt 0.268364 0.005278
vt 0.123716 0.048125
vt 0.127148 0.947958
vt 0.034879 0.948312
vt 0.009890 0.948386
vt 0.586327 0.005278
vt 0.585611 0.669308
vt 0.574022 0.669365
vt 0.574738 0.005336
vt 0.469836 0.016147
vt 0.458965 0.038650
vt 0.454478 0.031052
vt 0.462515 0.013189
vt 0.501391 0.179316
vt 0.525734 0.216967
vt 0.498774 0.234868
vt 0.482548 0.212159
vt 0.435153 0.097935
vt 0.433289 0.045647
vt 0.434835 0.026763
vt 0.500888 0.147809
vt 0.661939 0.072443
vt 0.640347 0.072570
vt 0.662196 0.023989
vt 0.044707 0.058660
vt 0.062432 0.005278
vt 0.121334 0.005586
vt 0.641150 0.009845
vt 0.662171 0.005278
vt 0.144484 0.043144
vt 0.581125 0.708951
vt 0.574062 0.708545
vt 0.596883 0.067211
vt 0.147958 0.019037
vt 0.209002 0.089880
vt 0.158514 0.089880
vt 0.162473 0.060658
vt 0.209001 0.071578
vt 0.617743 0.088256
vt 0.662196 0.092789
vt 0.283675 0.510633
vt 0.327611 0.502648
vt 0.328309 0.506490
vt 0.284091 0.517361
vt 0.586327 0.701660
vt 0.302696 0.564244
vt 0.170172 0.032049
vt 0.183393 0.014019
vt 0.278920 0.518632
vt 0.289202 0.546417
vt 0.328309 0.572961
vt 0.208999 0.005278
vt 0.422733 0.005278
vt 0.422733 0.784266
vt 0.394324 0.784265
vt 0.394325 0.005278
vt 0.484934 0.286302
vt 0.484934 0.245424
vt 0.519438 0.257894
vt 0.519438 0.286302
vt 0.513201 0.296858
vt 0.513201 0.337736
vt 0.484934 0.337736
vt 0.484934 0.309328
vt 0.209002 0.994722
vt 0.158516 0.994722
vt 0.474379 0.245424
vt 0.474379 0.525353
vt 0.433289 0.345540
vt 0.493632 0.475088
vt 0.484934 0.425265
vt 0.493632 0.424602
vt 0.525734 0.044483
vt 0.489921 0.091352
vt 0.633946 0.013867
vt 0.439114 0.156067
vt 0.473045 0.154999
vt 0.464414 0.200784
vt 0.439258 0.200865
vt 0.227544 0.848835
vt 0.219557 0.822772
vt 0.443001 0.005278
vt 0.383768 0.005278
vt 0.383768 0.804049
vt 0.352873 0.804049
vt 0.352874 0.025064
vt 0.147958 0.947878
vt 0.513643 0.501290
vt 0.563466 0.492592
vt 0.278920 0.005278
vt 0.287415 0.005348
vt 0.287414 0.492092
vt 0.278920 0.492022
vt 0.553982 0.482037
vt 0.544611 0.482037
vt 0.544609 0.005326
vt 0.553981 0.005326
vt 0.342318 0.005348
vt 0.342318 0.492092
vt 0.332724 0.492092
vt 0.332724 0.005348
vt 0.308048 0.005348
vt 0.308049 0.492092
vt 0.495831 0.394397
vt 0.490761 0.380553
vt 0.506639 0.388544
vt 0.500770 0.380553
vt 0.563466 0.005326
vt 0.563466 0.482037
vt 0.484934 0.354119
vt 0.492925 0.369997
vt 0.484934 0.364128
vt 0.513829 0.359300
vt 0.518428 0.348672
vt 0.518428 0.369997
vt 0.498778 0.359188
vt 0.495943 0.409448
vt 0.536291 0.481988
vt 0.536289 0.005278
vt 0.485315 0.414047
vt 0.506639 0.414047
vt 0.485246 0.409448
vt 0.492925 0.348292
vt 0.498778 0.348379
vt 0.513829 0.348604
vt 0.485022 0.394397
vt 0.484934 0.388544
vt 0.005577 0.229959
vt 0.036660 0.127160
vt 0.005278 0.130923
vt 0.498994 0.610170
vt 0.514659 0.629640
vt 0.501163 0.517924
vt 0.243961 0.861940
vt 0.219557 0.005278
vt 0.219557 0.723734
vt 0.127148 0.947958
vt 0.123716 0.048125
vt 0.009890 0.948386
vt 0.034879 0.948312
vt 0.586327 0.005278
vt 0.574738 0.005336
vt 0.574022 0.669365
vt 0.585611 0.669308
vt 0.469836 0.016147
vt 0.462515 0.013189
vt 0.454478 0.031052
vt 0.458965 0.038650
vt 0.501391 0.179316
vt 0.482548 0.212159
vt 0.498774 0.234868
vt 0.525734 0.216967
vt 0.500888 0.147809
vt 0.640347 0.072570
vt 0.121334 0.005586
vt 0.062432 0.005278
vt 0.044707 0.058660
vt 0.641150 0.009845
vt 0.144484 0.043144
vt 0.574062 0.708545
vt 0.581125 0.708951
vt 0.596883 0.067211
vt 0.147958 0.019037
vt 0.162473 0.060658
vt 0.158514 0.089880
vt 0.617743 0.088256
vt 0.283675 0.510633
vt 0.284091 0.517361
vt 0.586327 0.701660
vt 0.302696 0.564244
vt 0.183393 0.014019
vt 0.170172 0.032049
vt 0.278920 0.518632
vt 0.289202 0.546417
vt 0.422733 0.005278
vt 0.422733 0.784266
vt 0.519438 0.257894
vt 0.484934 0.245424
vt 0.513201 0.296858
vt 0.484934 0.309328
vt 0.158516 0.994722
vt 0.474379 0.245424
vt 0.493632 0.424602
vt 0.484934 0.425265
vt 0.525734 0.044483
vt 0.489921 0.091352
vt 0.633946 0.013867
vt 0.464414 0.200784
vt 0.473045 0.154999
vt 0.227544 0.848835
vt 0.219557 0.822772
vt 0.383768 0.005278
vt 0.352874 0.025064
vt 0.352873 0.804049
vt 0.383768 0.804049
vt 0.147958 0.947878
vt 0.513643 0.501290
vt 0.278920 0.005278
vt 0.278920 0.492022
vt 0.287414 0.492092
vt 0.287415 0.005348
vt 0.553982 0.482037
vt 0.553981 0.005326
vt 0.544609 0.005326
vt 0.544611 0.482037
vt 0.342318 0.005348
vt 0.332724 0.005348
vt 0.332724 0.492092
vt 0.342318 0.492092
vt 0.308049 0.492092
vt 0.308048 0.005348
vt 0.495831 0.394397
vt 0.506639 0.388544
vt 0.490761 0.380553
vt 0.500770 0.380553
vt 0.563466 0.482037
vt 0.563466 0.005326
vt 0.484934 0.354119
vt 0.484934 0.364128
vt 0.492925 0.369997
vt 0.513829 0.359300
vt 0.518428 0.369997
vt 0.518428 0.348672
vt 0.498778 0.359188
vt 0.495943 0.409448
vt 0.536289 0.005278
vt 0.536291 0.481988
vt 0.485315 0.414047
vt 0.506639 0.414047
vt 0.485246 0.409448
vt 0.492925 0.348292
vt 0.498778 0.348379
vt 0.513829 0.348604
vt 0.485022 0.394397
vt 0.484934 0.388544
vn 0.8666 0.4990 0.0000
vn 0.0000 0.0000 -1.0000
vn 0.0000 1.0000 0.0000
vn 0.0000 1.0000 -0.0039
vn 0.9997 -0.0248 0.0000
vn 0.8295 0.5585 0.0008
vn 0.9971 0.0759 0.0000
vn 0.5328 0.0000 0.8462
vn 0.8238 0.5061 0.2553
vn 0.0697 0.8883 0.4540
vn 0.2512 0.3647 0.8966
vn 0.4042 0.9033 0.1438
vn 0.0000 -0.9589 0.2837
vn 0.9946 0.0856 0.0582
vn 0.0929 -0.9145 0.3937
vn 0.8045 -0.5927 0.0371
vn 0.8935 0.4325 0.1211
vn 0.3448 -0.8823 0.3203
vn 0.6650 -0.7308 0.1541
vn -0.0083 -1.0000 -0.0007
vn 0.2893 -0.7227 0.6277
vn -0.0160 -0.9810 0.1936
vn -0.1491 0.5705 0.8077
vn 0.9715 0.0740 0.2251
vn -0.0230 0.9954 0.0931
vn 0.0000 -1.0000 0.0000
vn 0.8748 0.4234 0.2354
vn -0.0079 -1.0000 -0.0035
vn 0.2871 0.9345 0.2105
vn 0.0246 0.9971 0.0721
vn -0.0021 -1.0000 -0.0061
vn 0.0000 0.5735 0.8192
vn -0.0040 -1.0000 0.0002
vn 0.0427 -0.9991 0.0000
vn 0.1324 -0.9322 0.3369
vn 0.0526 0.8640 0.5007
vn 0.8677 0.0780 0.4909
vn 0.0000 -0.9957 0.0926
vn 0.0000 0.7372 0.6757
vn 0.9945 0.0554 0.0887
vn 0.2058 0.9221 0.3277
vn 0.5576 0.6434 0.5245
vn 0.2169 0.9556 0.1994
vn 0.0833 0.9219 0.3785
vn 0.0000 0.9420 0.3357
vn 0.0804 0.8897 0.4494
vn 0.2297 0.0000 0.9733
vn 0.9149 0.4036 0.0000
vn 0.7999 -0.6002 0.0000
vn 0.9997 -0.0235 -0.0001
vn 0.9619 0.2126 0.1718
vn -0.9999 -0.0149 0.0000
vn -0.8080 0.5892 0.0000
vn 0.8060 0.5920 0.0000
vn 0.0000 0.0000 1.0000
vn 1.0000 0.0000 0.0000
vn -0.8666 0.4990 0.0000
vn -0.9997 -0.0248 0.0000
vn -0.8295 0.5585 0.0008
vn -0.9971 0.0759 0.0000
vn -0.5328 0.0000 0.8462
vn -0.8238 0.5061 0.2553
vn -0.0697 0.8883 0.4540
vn -0.2512 0.3647 0.8966
vn -0.4042 0.9033 0.1438
vn -0.9946 0.0856 0.0582
vn -0.0929 -0.9145 0.3937
vn -0.8045 -0.5927 0.0371
vn -0.8935 0.4325 0.1211
vn -0.3448 -0.8823 0.3203
vn -0.6650 -0.7308 0.1541
vn 0.0083 -1.0000 -0.0007
vn -0.2893 -0.7227 0.6277
vn 0.0160 -0.9810 0.1936
vn 0.1491 0.5705 0.8077
vn -0.9715 0.0740 0.2251
vn 0.0230 0.9954 0.0931
vn -0.8748 0.4234 0.2354
vn 0.0079 -1.0000 -0.0035
vn -0.2871 0.9345 0.2105
vn -0.0246 0.9971 0.0721
vn 0.0021 -1.0000 -0.0061
vn 0.0040 -1.0000 0.0002
vn -0.0427 -0.9991 0.0000
vn -0.1324 -0.9322 0.3369
vn -0.0526 0.8640 0.5007
vn -0.8677 0.0780 0.4909
vn -0.9945 0.0554 0.0887
vn -0.2058 0.9221 0.3277
vn -0.5576 0.6434 0.5245
vn -0.2169 0.9556 0.1994
vn -0.0833 0.9219 0.3785
vn -0.0804 0.8897 0.4494
vn -0.2297 0.0000 0.9733
vn -0.9149 0.4036 0.0000
vn -0.7999 -0.6002 0.0000
vn -0.9997 -0.0235 -0.0001
vn -0.9619 0.2126 0.1718
vn 0.9999 -0.0149 0.0000
vn 0.8080 0.5892 0.0000
vn -0.8060 0.5920 0.0000
vn -1.0000 0.0000 0.0000
usemtl Material.001
s off
f 4/1/1 7/2/1 6/3/1
f 3/4/2 59/5/2 5/6/2
f 59/5/2 3/4/2 2/7/2
f 57/8/3 64/9/3 28/10/3
f 57/8/4 4/11/4 5/12/4 59/13/4
f 6/3/5 1/14/5 2/15/5
f 6/3/6 3/16/6 5/17/6 4/1/6
f 32/18/7 12/19/7 15/20/7 24/21/7
f 26/22/8 25/23/8 9/24/8 8/25/8
f 30/26/9 6/27/9 7/28/9 31/29/9
f 71/30/10 105/31/10 25/23/10
f 25/23/11 68/32/11 9/24/11
f 6/27/12 30/26/12 29/33/12
f 76/34/13 13/35/13 72/36/13
f 1/14/14 29/37/14 10/38/14 11/39/14
f 8/40/15 67/41/15 72/36/15
f 1/14/16 11/39/16 12/42/16
f 15/20/17 17/43/17 16/44/17
f 11/45/18 8/40/18 13/35/18
f 11/39/19 14/46/19 12/42/19
f 74/47/20 15/48/20 16/49/20 81/50/20
f 14/51/21 11/45/21 13/35/21
f 78/52/22 14/51/22 13/35/22 76/34/22
f 14/53/23 78/54/23 83/55/23 17/56/23
f 12/19/24 14/57/24 15/20/24
f 17/56/25 83/55/25 19/58/25
f 16/49/26 18/59/26 19/60/26
f 16/61/27 17/56/27 18/62/27
f 81/50/28 16/49/28 19/60/28
f 18/62/29 17/56/29 19/58/29
f 19/58/30 83/55/30 85/63/30
f 19/60/31 85/64/31 81/50/31
f 21/65/3 23/66/3 93/67/3 90/68/3
f 88/69/32 20/70/32 21/71/32 90/72/32
f 22/73/2 92/74/2 93/75/2 23/76/2
f 15/48/33 74/47/33 96/77/33 24/78/33
f 2/79/34 60/80/34 95/81/34
f 96/82/2 32/83/2 24/84/2
f 13/35/35 8/40/35 72/36/35
f 105/31/36 68/32/36 25/23/36
f 11/85/37 10/86/37 25/23/37 26/22/37
f 11/45/38 26/87/38 8/40/38
f 62/88/39 27/89/39 28/90/39 64/91/39
f 29/37/40 1/14/40 6/3/40
f 29/33/41 27/89/41 10/86/41
f 27/89/42 30/26/42 31/29/42 28/90/42
f 29/33/43 30/26/43 27/89/43
f 28/10/3 31/92/3 57/8/3
f 31/92/3 7/93/3 57/8/3
f 7/93/3 4/11/3 57/8/3
f 10/86/44 27/89/44 71/30/44
f 71/30/45 27/89/45 62/88/45
f 10/86/46 71/30/46 25/23/46
f 8/25/47 9/24/47 68/32/47 67/94/47
f 20/95/48 22/96/48 23/97/48 21/98/48
f 2/15/49 1/14/49 12/42/49 32/99/49
f 59/5/2 2/7/2 32/100/2 96/101/2
f 3/16/50 6/3/50 2/15/50
f 17/43/51 15/20/51 14/57/51
f 48/102/52 37/103/52 36/104/52 47/105/52
f 34/106/53 38/107/53 35/108/53 33/109/53
f 40/110/54 39/111/54 41/112/54 44/113/54
f 36/104/26 37/103/26 43/114/26 42/115/26
f 50/116/2 34/117/2 44/118/2
f 34/117/2 40/119/2 44/118/2
f 34/106/3 33/109/3 39/120/3 40/121/3
f 33/122/55 41/123/55 39/124/55
f 52/125/55 36/126/55 42/127/55
f 33/122/55 49/128/55 41/123/55
f 51/129/2 50/116/2 44/118/2
f 38/107/52 46/130/52 45/131/52 35/108/52
f 37/132/2 51/129/2 43/133/2
f 49/128/55 52/125/55 42/127/55 41/123/55
f 44/113/56 41/112/56 42/115/56 43/114/56
f 37/132/2 48/134/2 51/129/2
f 35/135/55 45/136/55 49/128/55 33/122/55
f 47/137/55 36/126/55 52/125/55
f 46/138/2 38/139/2 50/116/2
f 38/139/2 34/117/2 50/116/2
f 43/133/2 51/129/2 44/118/2
f 56/140/57 61/141/57 63/142/57
f 55/143/2 58/144/2 59/5/2
f 59/5/2 54/145/2 55/143/2
f 57/8/3 101/146/3 64/9/3
f 57/8/4 59/13/4 58/147/4 56/148/4
f 61/141/58 54/149/58 53/150/58
f 61/141/59 56/140/59 58/151/59 55/152/59
f 106/153/60 97/154/60 79/155/60 73/156/60
f 99/157/61 65/158/61 66/159/61 98/160/61
f 103/161/62 104/162/62 63/163/62 61/164/62
f 71/30/63 98/160/63 105/31/63
f 98/160/64 66/159/64 68/32/64
f 61/164/65 102/165/65 103/161/65
f 76/34/13 72/36/13 75/166/13
f 53/150/66 70/167/66 69/168/66 102/169/66
f 65/170/67 72/36/67 67/41/67
f 53/150/68 73/171/68 70/167/68
f 79/155/69 80/172/69 82/173/69
f 70/174/70 75/166/70 65/170/70
f 70/167/71 73/171/71 77/175/71
f 74/47/72 81/50/72 80/176/72 79/177/72
f 77/178/73 75/166/73 70/174/73
f 78/52/74 76/34/74 75/166/74 77/178/74
f 77/179/75 82/180/75 83/55/75 78/54/75
f 73/156/76 79/155/76 77/181/76
f 82/180/77 86/182/77 83/55/77
f 80/176/26 86/183/26 84/184/26
f 80/185/78 84/186/78 82/180/78
f 81/50/79 86/183/79 80/176/79
f 84/186/80 86/182/80 82/180/80
f 86/182/81 85/63/81 83/55/81
f 86/183/82 81/50/82 85/64/82
f 89/187/3 90/68/3 93/67/3 94/188/3
f 88/69/32 90/72/32 89/189/32 87/190/32
f 91/191/2 94/192/2 93/75/2 92/74/2
f 79/177/83 97/193/83 96/77/83 74/47/83
f 54/194/84 95/81/84 60/80/84
f 96/82/2 97/195/2 106/196/2
f 75/166/85 72/36/85 65/170/85
f 105/31/86 98/160/86 68/32/86
f 70/197/87 99/157/87 98/160/87 69/198/87
f 70/174/38 65/170/38 99/199/38
f 62/88/39 64/91/39 101/200/39 100/201/39
f 102/169/88 61/141/88 53/150/88
f 102/165/89 69/198/89 100/201/89
f 100/201/90 101/200/90 104/162/90 103/161/90
f 102/165/91 100/201/91 103/161/91
f 101/146/3 57/8/3 104/202/3
f 104/202/3 57/8/3 63/203/3
f 63/203/3 57/8/3 56/148/3
f 69/198/92 71/30/92 100/201/92
f 71/30/45 62/88/45 100/201/45
f 69/198/93 98/160/93 71/30/93
f 65/158/94 67/94/94 68/32/94 66/159/94
f 87/204/95 89/205/95 94/206/95 91/207/95
f 54/149/96 106/208/96 73/171/96 53/150/96
f 59/5/2 96/101/2 106/209/2 54/145/2
f 55/152/97 54/149/97 61/141/97
f 82/173/98 77/181/98 79/155/98
f 122/210/99 121/211/99 110/212/99 111/213/99
f 108/214/100 107/215/100 109/216/100 112/217/100
f 114/218/101 118/219/101 115/220/101 113/221/101
f 110/212/26 116/222/26 117/223/26 111/213/26
f 124/224/2 118/225/2 108/226/2
f 108/226/2 118/225/2 114/227/2
f 108/214/3 114/228/3 113/229/3 107/215/3
f 107/230/55 113/231/55 115/232/55
f 126/233/55 116/234/55 110/235/55
f 107/230/55 115/232/55 123/236/55
f 125/237/2 118/225/2 124/224/2
f 112/217/99 109/216/99 119/238/99 120/239/99
f 111/240/2 117/241/2 125/237/2
f 123/236/55 115/232/55 116/234/55 126/233/55
f 118/219/102 117/223/102 116/222/102 115/220/102
f 111/240/2 125/237/2 122/242/2
f 109/243/55 107/230/55 123/236/55 119/244/55
f 121/245/55 126/233/55 110/235/55
f 120/246/2 124/224/2 112/247/2
f 112/247/2 124/224/2 108/226/2
f 117/241/2 118/225/2 125/237/2
