# Blender v2.82 (sub 6) OBJ File: 'TGV.blend'
# www.blender.org
mtllib TGVCart.mtl
o Cube.003_Cube.008
v 0.444389 0.432374 -0.000005
v 0.444389 0.432374 -6.560564
v 0.369175 0.329221 -0.000005
v 0.374084 0.000005 -0.000005
v 0.374084 0.000005 -6.560564
v 0.369175 0.329221 -6.560564
v 0.573602 0.432374 -0.000005
v 0.573602 0.432374 -6.560564
v 0.649365 0.329221 -0.000005
v 0.649365 0.000005 -0.000005
v 0.649365 0.000005 -6.560564
v 0.649365 0.329221 -6.560564
v 0.370302 0.253664 -0.000005
v 0.370302 0.253664 -6.560564
v 0.373199 0.059372 -0.000005
v 0.373199 0.059372 -6.560564
v 0.509834 0.253664 -0.000005
v 0.509834 0.253664 -6.560564
v 0.511282 0.059372 -6.560564
v 0.511282 0.059372 -0.000005
v 0.461648 0.456044 -0.094689
v 0.477722 1.139560 -0.094689
v 0.361643 1.283825 -0.094689
v 0.374084 0.268346 -0.094689
v 0.369175 0.332794 -0.094689
v 0.477722 1.139560 -6.554859
v 0.361643 1.283825 -6.554859
v 0.461648 0.456044 -6.554857
v 0.369175 0.332794 -6.554859
v 0.374084 0.268346 -6.554859
v -0.444389 0.432374 -0.000005
v -0.444389 0.432374 -6.560564
v -0.369175 0.329221 -0.000005
v -0.374084 0.000005 -0.000005
v -0.374084 0.000005 -6.560564
v -0.369175 0.329221 -6.560564
v -0.573602 0.432374 -0.000005
v -0.573602 0.432374 -6.560564
v -0.649365 0.329221 -0.000005
v -0.649365 0.000005 -0.000005
v -0.649365 0.000005 -6.560564
v -0.649365 0.329221 -6.560564
v -0.370302 0.253664 -0.000005
v -0.370302 0.253664 -6.560564
v -0.373199 0.059372 -0.000005
v -0.373199 0.059372 -6.560564
v -0.509834 0.253664 -0.000005
v -0.509834 0.253664 -6.560564
v -0.511282 0.059372 -6.560564
v -0.511282 0.059372 -0.000005
v -0.461648 0.456044 -0.094689
v -0.477722 1.139560 -0.094689
v -0.361643 1.283825 -0.094689
v 0.000000 1.283825 -0.094689
v 0.000000 0.268346 -0.094689
v -0.374084 0.268346 -0.094689
v -0.369175 0.332794 -0.094689
v -0.477722 1.139560 -6.554859
v -0.361643 1.283825 -6.554859
v -0.461648 0.456044 -6.554857
v 0.000000 1.283825 -6.554859
v 0.000000 0.268346 -6.554859
v -0.369175 0.332794 -6.554859
v -0.374084 0.268346 -6.554859
vt 0.006573 0.214480
vt 0.016953 0.214567
vt 0.016954 0.809352
vt 0.006574 0.809265
vt 0.678572 0.225944
vt 0.678571 0.237270
vt 0.096569 0.237270
vt 0.096569 0.225945
vt 0.083363 0.214567
vt 0.083363 0.809352
vt 0.071759 0.809352
vt 0.071757 0.214567
vt 0.041910 0.214567
vt 0.041912 0.809352
vt 0.270384 0.277330
vt 0.264248 0.260573
vt 0.283467 0.270245
vt 0.276363 0.260573
vt 0.096569 0.214482
vt 0.678572 0.214480
vt 0.296613 0.267626
vt 0.306285 0.286845
vt 0.296614 0.279741
vt 0.331588 0.273898
vt 0.337154 0.261034
vt 0.337154 0.286845
vt 0.313370 0.273762
vt 0.270520 0.295548
vt 0.678511 0.247427
vt 0.096509 0.247427
vt 0.257656 0.301114
vt 0.283467 0.301114
vt 0.257573 0.295547
vt 0.306285 0.260573
vt 0.313370 0.260679
vt 0.331588 0.260951
vt 0.257301 0.277330
vt 0.257196 0.270245
vt 0.096509 0.280866
vt 0.112837 0.260573
vt 0.163706 0.260573
vt 0.098770 0.377011
vt 0.318825 0.303987
vt 0.371292 0.299991
vt 0.371292 0.309083
vt 0.163706 0.403412
vt 0.111777 0.394347
vt 0.176852 0.383120
vt 0.244049 0.403412
vt 0.193180 0.403412
vt 0.179113 0.286975
vt 0.305679 0.352611
vt 0.296613 0.300682
vt 0.305679 0.299991
vt 0.192120 0.269639
vt 0.244049 0.260573
vt 0.915274 0.057443
vt 0.915274 0.083489
vt 0.006573 0.083489
vt 0.006573 0.057442
vt 0.993427 0.869315
vt 0.978372 0.869203
vt 0.978372 0.006573
vt 0.993427 0.006685
vt 0.915274 0.179660
vt 0.915274 0.201334
vt 0.006573 0.201332
vt 0.006573 0.179661
vt 0.928420 0.869203
vt 0.928420 0.006573
vt 0.915274 0.006573
vt 0.006573 0.006573
vt 0.006573 0.214480
vt 0.006574 0.809265
vt 0.016954 0.809352
vt 0.016953 0.214567
vt 0.678572 0.225944
vt 0.096569 0.225945
vt 0.096569 0.237270
vt 0.678571 0.237270
vt 0.083363 0.214567
vt 0.071757 0.214567
vt 0.071759 0.809352
vt 0.083363 0.809352
vt 0.041912 0.809352
vt 0.041910 0.214567
vt 0.270384 0.277330
vt 0.283467 0.270245
vt 0.264248 0.260573
vt 0.276363 0.260573
vt 0.678572 0.214480
vt 0.096569 0.214482
vt 0.296613 0.267626
vt 0.296614 0.279741
vt 0.306285 0.286845
vt 0.331588 0.273898
vt 0.337154 0.286845
vt 0.337154 0.261034
vt 0.313370 0.273762
vt 0.270520 0.295548
vt 0.096509 0.247427
vt 0.678511 0.247427
vt 0.257656 0.301114
vt 0.283467 0.301114
vt 0.257573 0.295547
vt 0.306285 0.260573
vt 0.313370 0.260679
vt 0.331588 0.260951
vt 0.257301 0.277330
vt 0.257196 0.270245
vt 0.096509 0.280866
vt 0.112837 0.260573
vt 0.098770 0.377011
vt 0.371292 0.309083
vt 0.371292 0.299991
vt 0.111777 0.394347
vt 0.176852 0.383120
vt 0.193180 0.403412
vt 0.179113 0.286975
vt 0.305679 0.299991
vt 0.296613 0.300682
vt 0.192120 0.269639
vt 0.915274 0.057443
vt 0.006573 0.057442
vt 0.006573 0.083489
vt 0.915274 0.083489
vt 0.993427 0.869315
vt 0.993427 0.006685
vt 0.978372 0.006573
vt 0.978372 0.869203
vt 0.915274 0.179660
vt 0.006573 0.179661
vt 0.006573 0.201332
vt 0.915274 0.201334
vn -0.9999 -0.0149 0.0000
vn -0.8080 0.5892 0.0000
vn 0.8060 0.5920 0.0000
vn 0.0000 -1.0000 0.0000
vn 0.0000 0.0000 -1.0000
vn 0.0000 1.0000 0.0000
vn 0.0000 0.0000 1.0000
vn 1.0000 0.0000 0.0000
vn 0.7791 0.6269 0.0000
vn 0.9971 0.0759 0.0000
vn 0.7999 -0.6002 0.0000
vn 0.9997 -0.0235 0.0000
vn 0.9999 -0.0149 0.0000
vn 0.8080 0.5892 0.0000
vn -0.8060 0.5920 0.0000
vn -1.0000 0.0000 0.0000
vn -0.7791 0.6269 0.0000
vn -0.9971 0.0759 0.0000
vn -0.7999 -0.6002 0.0000
vn -0.9997 -0.0235 0.0000
usemtl Material.002
s off
f 16/1/1 5/2/1 4/3/1 15/4/1
f 2/5/2 6/6/2 3/7/2 1/8/2
f 8/9/3 7/10/3 9/11/3 12/12/3
f 4/3/4 5/2/4 11/13/4 10/14/4
f 18/15/5 2/16/5 12/17/5
f 2/16/5 8/18/5 12/17/5
f 2/5/6 1/8/6 7/19/6 8/20/6
f 1/21/7 9/22/7 7/23/7
f 20/24/7 4/25/7 10/26/7
f 1/21/7 17/27/7 9/22/7
f 19/28/5 18/15/5 12/17/5
f 6/6/1 14/29/1 13/30/1 3/7/1
f 5/31/5 19/28/5 11/32/5
f 17/27/7 20/24/7 10/26/7 9/22/7
f 12/12/8 9/11/8 10/14/8 11/13/8
f 5/31/5 16/33/5 19/28/5
f 3/34/7 13/35/7 17/27/7 1/21/7
f 15/36/7 4/25/7 20/24/7
f 14/37/5 6/38/5 18/15/5
f 6/38/5 2/16/5 18/15/5
f 11/32/5 19/28/5 12/17/5
f 22/39/7 23/40/7 54/41/7
f 54/41/7 21/42/7 22/39/7
f 55/43/7 24/44/7 25/45/7
f 54/41/7 55/46/7 25/47/7 21/42/7
f 26/48/5 61/49/5 27/50/5
f 61/49/5 26/48/5 28/51/5
f 62/52/5 29/53/5 30/54/5
f 61/49/5 28/51/5 29/55/5 62/56/5
f 23/57/9 22/58/9 26/59/9 27/60/9
f 25/61/10 24/62/10 30/63/10 29/64/10
f 21/65/11 25/66/11 29/67/11 28/68/11
f 22/58/12 21/65/12 28/68/12 26/59/12
f 24/62/4 55/69/4 62/70/4 30/63/4
f 54/71/6 23/57/6 27/60/6 61/72/6
f 46/73/13 45/74/13 34/75/13 35/76/13
f 32/77/14 31/78/14 33/79/14 36/80/14
f 38/81/15 42/82/15 39/83/15 37/84/15
f 34/75/4 40/85/4 41/86/4 35/76/4
f 48/87/5 42/88/5 32/89/5
f 32/89/5 42/88/5 38/90/5
f 32/77/6 38/91/6 37/92/6 31/78/6
f 31/93/7 37/94/7 39/95/7
f 50/96/7 40/97/7 34/98/7
f 31/93/7 39/95/7 47/99/7
f 49/100/5 42/88/5 48/87/5
f 36/80/13 33/79/13 43/101/13 44/102/13
f 35/103/5 41/104/5 49/100/5
f 47/99/7 39/95/7 40/97/7 50/96/7
f 42/82/16 41/86/16 40/85/16 39/83/16
f 35/103/5 49/100/5 46/105/5
f 33/106/7 31/93/7 47/99/7 43/107/7
f 45/108/7 50/96/7 34/98/7
f 44/109/5 48/87/5 36/110/5
f 36/110/5 48/87/5 32/89/5
f 41/104/5 42/88/5 49/100/5
f 52/111/7 54/41/7 53/112/7
f 54/41/7 52/111/7 51/113/7
f 55/43/7 57/114/7 56/115/7
f 54/41/7 51/113/7 57/116/7 55/46/7
f 58/117/5 59/118/5 61/49/5
f 61/49/5 60/119/5 58/117/5
f 62/52/5 64/120/5 63/121/5
f 61/49/5 62/56/5 63/122/5 60/119/5
f 53/123/17 59/124/17 58/125/17 52/126/17
f 57/127/18 63/128/18 64/129/18 56/130/18
f 51/131/19 60/132/19 63/133/19 57/134/19
f 52/126/20 58/125/20 60/132/20 51/131/20
f 56/130/4 64/129/4 62/70/4 55/69/4
f 54/71/6 61/72/6 59/124/6 53/123/6
