# Blender v2.90.0 Alpha OBJ File: 'Decos.blend'
# www.blender.org
o Cube.001
v 1.339095 1.711989 6.149005
v 1.339095 3.014155 -6.303137
v 1.339095 3.014151 6.040302
v 1.216175 1.711989 6.249588
v 1.216175 3.014151 6.140884
v 0.000000 3.014151 6.257514
v 0.000000 1.711989 6.366219
v 1.216175 3.114737 -6.303137
v 1.216175 3.014155 -6.403718
v 1.339095 0.409831 -6.303138
v 1.216175 0.309249 -6.303138
v 1.216175 0.409831 -6.403720
v 1.216175 3.114733 6.040302
v 1.216175 0.309245 6.139946
v 1.339095 0.409827 6.139946
v 1.216175 0.409827 6.245813
v 0.000000 3.114737 -6.303137
v 0.000000 3.014155 -6.403718
v 0.000000 0.409831 -6.403720
v 0.000000 0.309249 -6.303138
v 0.000000 0.409827 6.362443
v 0.000000 0.309245 6.256577
v 1.330867 0.670263 -6.357060
v 1.330867 0.409831 -6.357060
v 1.265498 0.409831 -6.457642
v 1.265498 0.670263 -6.457642
v 1.216175 0.566837 6.341007
v 1.216175 0.321364 6.341007
v 1.339095 0.321364 6.235140
v 1.339095 0.566837 6.235140
v 0.000000 0.566837 6.457637
v 0.000000 0.321364 6.457637
v 1.339095 0.566837 6.144430
v 1.216175 0.566837 6.250296
v 1.339095 0.321364 6.144430
v 1.216175 0.321364 6.250296
v 0.000000 0.566837 6.366927
v 0.763953 3.114733 4.693772
v 1.129490 3.114733 4.547905
v 0.916456 3.436671 4.547905
v 0.763953 3.114735 -2.672871
v 0.000000 3.114735 -2.672871
v 0.000000 3.519188 -2.527004
v 0.737090 3.519188 -2.527004
v 0.737090 3.519185 4.547905
v 0.916456 3.436673 -2.527004
v 1.129490 3.114735 -2.527004
v 0.000000 3.114733 4.693772
v 0.000000 3.519185 4.547905
v 1.216175 0.670263 -6.403720
v 1.339095 0.670263 -6.303138
v 0.000000 0.670263 -6.403720
v 0.000000 0.670263 -6.457642
v 0.000000 0.409831 -6.457642
v 0.000000 0.321364 6.366927
v 0.000000 3.114732 6.156932
v -1.339095 1.711989 6.149005
v -1.339095 3.014151 6.040302
v -1.339095 3.014155 -6.303137
v -1.216175 1.711989 6.249588
v -1.216175 3.014151 6.140884
v -1.216175 3.014155 -6.403718
v -1.216175 0.409831 -6.403720
v -1.339095 0.409831 -6.303138
v -1.216175 3.114733 6.040302
v -1.216175 0.309245 6.139946
v -1.216175 0.409827 6.245813
v -1.339095 0.409827 6.139946
v -1.216175 0.309249 -6.303138
v -1.216175 3.114737 -6.303137
v -1.330867 0.670263 -6.357060
v -1.265498 0.670263 -6.457642
v -1.265498 0.409831 -6.457642
v -1.330867 0.409831 -6.357060
v -1.216175 0.566837 6.341007
v -1.339095 0.566837 6.235140
v -1.339095 0.321364 6.235140
v -1.216175 0.321364 6.341007
v -1.339095 0.566837 6.144430
v -1.216175 0.566837 6.250296
v -1.339095 0.321364 6.144430
v -1.216175 0.321364 6.250296
v -0.763953 3.114733 4.693772
v -0.916456 3.436671 4.547905
v -1.129490 3.114733 4.547905
v -0.763953 3.114735 -2.672871
v -0.737090 3.519188 -2.527004
v -0.737090 3.519185 4.547905
v -0.916456 3.436673 -2.527004
v -1.129490 3.114735 -2.527004
v -1.216175 0.670263 -6.403720
v -1.339095 0.670263 -6.303138
v 1.216175 0.349840 -6.303138
v 1.216175 0.349836 6.139946
v 0.000000 0.349840 -6.303138
v 0.000000 0.349836 6.256577
v -1.216175 0.349836 6.139946
v -1.216175 0.349840 -6.303138
v 1.216175 0.128222 -6.303138
v 1.216175 0.128218 6.139946
v 0.000000 0.128222 -6.303138
v 0.000000 0.128218 6.256577
v -1.216175 0.128218 6.139946
v -1.216175 0.128222 -6.303138
vt 0.108753 0.005284
vt 0.005284 0.994716
vt 0.005284 0.013921
vt 0.708229 0.375168
vt 0.707107 0.476801
vt 0.605719 0.480471
vt 0.605273 0.373496
vt 0.627619 0.240382
vt 0.617023 0.232145
vt 0.627619 0.232145
vt 0.617023 0.018872
vt 0.627619 0.010635
vt 0.627619 0.018872
vt 0.719845 0.478954
vt 0.709393 0.487812
vt 0.711875 0.263798
vt 0.721824 0.273266
vt 0.708875 0.274840
vt 0.732456 0.240382
vt 0.732456 0.232145
vt 0.732456 0.018872
vt 0.732456 0.010635
vt 0.339640 0.005284
vt 0.339640 0.976314
vt 0.322692 0.976378
vt 0.322692 0.005348
vt 0.608607 0.267283
vt 0.610396 0.255128
vt 0.367031 0.969165
vt 0.367030 0.005354
vt 0.466991 0.005354
vt 0.222789 0.005348
vt 0.222789 0.985479
vt 0.350209 0.969095
vt 0.350208 0.005284
vt 0.721824 0.375612
vt 0.564722 0.763161
vt 0.548803 0.762748
vt 0.549810 0.755765
vt 0.563746 0.756743
vt 0.212221 0.006004
vt 0.212221 0.994716
vt 0.705115 0.803593
vt 0.706068 0.786136
vt 0.717997 0.786709
vt 0.716938 0.802989
vt 0.605273 0.803986
vt 0.605600 0.781953
vt 0.724980 0.806204
vt 0.709028 0.810533
vt 0.724980 0.783807
vt 0.710172 0.779285
vt 0.606047 0.811865
vt 0.578376 0.082853
vt 0.598335 0.090419
vt 0.586703 0.090419
vt 0.578376 0.464958
vt 0.536665 0.464958
vt 0.536665 0.457392
vt 0.576910 0.457392
vt 0.576910 0.090419
vt 0.586703 0.457392
vt 0.598335 0.457392
vt 0.536665 0.082853
vt 0.536665 0.090419
vt 0.568629 0.755044
vt 0.566322 0.766875
vt 0.546971 0.766836
vt 0.544822 0.754003
vt 0.575122 0.647526
vt 0.570593 0.647252
vt 0.543789 0.647252
vt 0.539303 0.647485
vt 0.606677 0.774057
vt 0.466991 0.978272
vt 0.606961 0.492332
vt 0.888251 0.001619
vt 0.992585 0.010328
vt 0.992585 0.999337
vt 0.708229 0.375168
vt 0.707107 0.476801
vt 0.617023 0.232145
vt 0.627619 0.232145
vt 0.627619 0.018872
vt 0.617023 0.018872
vt 0.719845 0.478954
vt 0.709393 0.487812
vt 0.711875 0.263798
vt 0.708875 0.274840
vt 0.721824 0.273266
vt 0.627619 0.010635
vt 0.627619 0.240382
vt 0.339640 0.005284
vt 0.322692 0.005348
vt 0.322692 0.976378
vt 0.339640 0.976314
vt 0.367031 0.969165
vt 0.367030 0.005354
vt 0.350208 0.005284
vt 0.350209 0.969095
vt 0.721824 0.375612
vt 0.564722 0.763161
vt 0.563746 0.756743
vt 0.549810 0.755765
vt 0.548803 0.762748
vt 0.783916 0.002344
vt 0.783916 0.999337
vt 0.705115 0.803593
vt 0.716938 0.802989
vt 0.717997 0.786709
vt 0.706068 0.786136
vt 0.724980 0.806204
vt 0.709028 0.810533
vt 0.724980 0.783807
vt 0.710172 0.779285
vt 0.494953 0.082853
vt 0.486627 0.090419
vt 0.474995 0.090419
vt 0.494953 0.464958
vt 0.496420 0.457392
vt 0.496420 0.090419
vt 0.486627 0.457392
vt 0.474995 0.457392
vt 0.568629 0.755044
vt 0.566322 0.766875
vt 0.546971 0.766836
vt 0.544822 0.754003
vt 0.518371 0.968279
vt 0.518371 0.968279
vt 0.518371 0.968279
vt 0.518371 0.968279
vt 0.518371 0.968279
vt 0.518371 0.968279
vt 0.518371 0.968279
vt 0.518371 0.968279
vt 0.518371 0.968279
vt 0.518371 0.968279
vt 0.518371 0.968279
vt 0.518371 0.968279
vn 1.0000 0.0000 0.0000
vn 0.3808 0.0366 0.9239
vn 0.3407 0.3828 0.8587
vn -0.0000 0.4130 0.9107
vn 0.0000 0.0401 0.9992
vn 0.6103 0.7459 -0.2668
vn 0.6973 0.5068 -0.5068
vn 0.6103 0.2668 -0.7459
vn 0.5008 -0.6120 -0.6120
vn 0.6072 0.2840 0.7421
vn 0.2579 0.6832 0.6832
vn 0.2627 -0.6995 0.6646
vn 0.6257 -0.2499 0.7390
vn 0.3479 -0.3573 0.8668
vn 0.0000 0.9675 -0.2527
vn 0.0000 0.9239 -0.3827
vn 0.0000 0.3827 -0.9239
vn 0.0000 -0.7071 -0.7071
vn 0.6333 -0.7739 -0.0000
vn 0.0000 -0.7250 0.6888
vn -0.0000 1.0000 0.0000
vn 0.0000 -1.0000 -0.0000
vn 0.6333 0.7739 0.0000
vn 0.6378 0.0309 0.7696
vn 0.9345 0.0000 -0.3559
vn 0.8385 0.0000 -0.5449
vn 0.0000 0.0000 -1.0000
vn 0.0000 -0.0029 1.0000
vn 0.3925 0.0000 0.9198
vn 0.6526 0.0000 0.7577
vn -0.0000 0.0000 1.0000
vn 0.1507 0.3099 0.9387
vn 0.3600 0.2382 0.9020
vn 0.2420 0.3030 0.9218
vn 0.1507 0.3099 -0.9387
vn 0.0000 0.3393 -0.9407
vn 0.0641 0.3423 -0.9374
vn 0.4179 0.9085 0.0000
vn 0.6508 0.7592 0.0000
vn 0.8339 0.5518 0.0000
vn 0.2420 0.3030 -0.9218
vn 0.0000 0.3393 0.9407
vn 0.0641 0.3423 0.9374
vn 0.3600 0.2382 -0.9020
vn 0.9886 0.0000 -0.1508
vn 0.6333 0.0000 -0.7739
vn -0.0000 0.7071 0.7071
vn -1.0000 0.0000 0.0000
vn -0.3808 0.0366 0.9239
vn -0.3407 0.3828 0.8587
vn -0.6149 0.2394 -0.7514
vn -0.3008 0.3472 -0.8883
vn -0.3362 0.0000 -0.9418
vn -0.6333 0.0000 -0.7739
vn -0.6072 0.2840 0.7421
vn -0.2579 0.6832 0.6832
vn -0.2627 -0.6995 0.6646
vn -0.3479 -0.3573 0.8668
vn -0.6257 -0.2499 0.7390
vn 0.0000 0.7071 -0.7071
vn -0.2141 0.6907 -0.6907
vn -0.6333 -0.7739 -0.0000
vn -0.3263 0.9453 0.0000
vn -0.3362 0.9418 0.0000
vn -0.6333 0.7739 0.0000
vn -0.6378 0.0309 0.7696
vn -0.9345 0.0000 -0.3559
vn -0.8385 0.0000 -0.5449
vn -0.5008 -0.6120 -0.6120
vn -0.3925 0.0000 0.9198
vn -0.6526 0.0000 0.7577
vn -0.1507 0.3099 0.9387
vn -0.2420 0.3030 0.9218
vn -0.3600 0.2382 0.9020
vn -0.1507 0.3099 -0.9387
vn -0.0641 0.3423 -0.9374
vn -0.4179 0.9085 0.0000
vn -0.6508 0.7592 0.0000
vn -0.8339 0.5518 0.0000
vn -0.2420 0.3030 -0.9218
vn -0.0641 0.3423 0.9374
vn -0.3600 0.2382 -0.9020
vn -0.9886 0.0000 -0.1508
vn 0.7401 0.0000 0.6725
vn 0.7071 0.0000 -0.7071
vn -0.7401 0.0000 0.6725
vn -0.7071 0.0000 -0.7071
s 1
f 1/1/1 2/2/1 3/3/1
f 4/4/2 5/5/3 6/6/4 7/7/5
f 8/8/6 2/9/7 9/10/8
f 10/11/9 11/12/9 12/13/9
f 3/14/10 13/15/11 5/5/3
f 14/16/12 15/17/13 16/18/14
f 17/19/15 8/8/16 9/10/17 18/20/17
f 19/21/18 12/13/18 11/12/18 20/22/18
f 10/23/19 15/24/19 14/25/19 11/26/19
f 16/18/14 21/27/20 22/28/20 14/16/12
f 13/29/21 8/30/16 17/31/15
f 20/32/22 14/25/22 22/33/22
f 13/29/23 3/34/23 2/35/7 8/30/6
f 4/4/2 16/18/14 15/17/13 1/36/24
f 5/5/3 4/4/2 1/36/24 3/14/10
f 23/37/25 24/38/25 25/39/26 26/40/26
f 19/21/27 18/20/17 9/10/17 12/13/27
f 15/41/1 10/42/1 1/1/1
f 16/18/14 4/4/2 7/7/5 21/27/28
f 1/1/1 10/42/1 2/2/1
f 27/43/29 28/44/29 29/45/30 30/46/30
f 28/44/29 27/43/29 31/47/31 32/48/31
f 33/49/21 34/50/21 27/43/21 30/46/21
f 35/51/1 33/49/1 30/46/1 29/45/1
f 36/52/22 35/51/22 29/45/22 28/44/22
f 34/50/21 37/53/21 31/47/21 27/43/21
f 38/54/32 39/55/33 40/56/34
f 41/57/35 42/58/36 43/59/36 44/60/37
f 45/61/38 40/56/39 46/62/39 44/60/38
f 39/55/40 47/63/40 46/62/39 40/56/39
f 41/57/35 44/60/37 46/62/41
f 48/64/42 38/54/32 45/61/43 49/65/42
f 49/65/21 45/61/21 44/60/21 43/59/21
f 47/63/44 41/57/35 46/62/41
f 45/61/43 38/54/32 40/56/34
f 50/66/21 51/67/21 23/37/21 26/40/21
f 51/67/45 10/68/45 24/38/25 23/37/25
f 10/68/22 12/69/22 25/39/22 24/38/22
f 52/70/21 50/66/21 26/40/21 53/71/21
f 54/72/27 53/71/27 26/40/27 25/39/27
f 2/9/7 10/11/46 12/13/46 9/10/8
f 12/69/22 19/73/22 54/72/22 25/39/22
f 55/74/22 36/52/22 28/44/22 32/48/22
f 11/26/22 14/25/22 20/32/22
f 56/75/21 13/29/21 17/31/15
f 6/6/4 5/5/3 13/15/11 56/76/47
f 57/77/48 58/78/48 59/79/48
f 60/80/49 7/7/5 6/6/4 61/81/50
f 59/82/51 62/83/52 63/84/53 64/85/54
f 19/21/27 63/84/53 62/83/52 18/20/17
f 58/86/55 61/81/50 65/87/56
f 66/88/57 67/89/58 68/90/59
f 19/21/18 20/22/18 69/91/18 63/84/18
f 17/19/60 18/20/17 62/83/52 70/92/61
f 64/93/62 69/94/62 66/95/62 68/96/62
f 67/89/58 66/88/57 22/28/20 21/27/20
f 65/97/63 17/31/15 70/98/64
f 20/32/22 22/33/22 66/95/22
f 65/97/63 70/98/64 59/99/65 58/100/65
f 60/80/49 57/101/66 68/90/59 67/89/58
f 61/81/50 58/86/55 57/101/66 60/80/49
f 71/102/67 72/103/68 73/104/68 74/105/67
f 64/85/69 63/84/69 69/91/69
f 68/106/48 57/77/48 64/107/48
f 67/89/58 21/27/28 7/7/5 60/80/49
f 57/77/48 59/79/48 64/107/48
f 75/108/70 76/109/71 77/110/71 78/111/70
f 78/111/70 32/48/31 31/47/31 75/108/70
f 79/112/21 76/109/21 75/108/21 80/113/21
f 81/114/48 77/110/48 76/109/48 79/112/48
f 82/115/22 78/111/22 77/110/22 81/114/22
f 80/113/21 75/108/21 31/47/21 37/53/21
f 83/116/72 84/117/73 85/118/74
f 86/119/75 87/120/76 43/59/36 42/58/36
f 88/121/77 87/120/77 89/122/78 84/117/78
f 85/118/79 84/117/78 89/122/78 90/123/79
f 86/119/75 89/122/80 87/120/76
f 48/64/42 49/65/42 88/121/81 83/116/72
f 49/65/21 43/59/21 87/120/21 88/121/21
f 90/123/82 89/122/80 86/119/75
f 88/121/81 84/117/73 83/116/72
f 91/124/21 72/103/21 71/102/21 92/125/21
f 92/125/83 71/102/67 74/105/67 64/126/83
f 64/126/22 74/105/22 73/104/22 63/127/22
f 52/70/21 53/71/21 72/103/21 91/124/21
f 54/72/27 73/104/27 72/103/27 53/71/27
f 70/92/61 62/83/52 59/82/51
f 63/127/22 73/104/22 54/72/22 19/73/22
f 55/74/22 32/48/22 78/111/22 82/115/22
f 69/94/22 20/32/22 66/95/22
f 56/75/21 17/31/15 65/97/63
f 6/6/4 56/76/47 65/87/56 61/81/50
f 94/128/84 96/129/31 102/130/31 100/131/84
f 95/132/27 93/133/85 99/134/85 101/135/27
f 96/129/31 97/136/86 103/137/86 102/130/31
f 98/138/87 95/132/27 101/135/27 104/139/87
f 93/133/85 94/128/84 100/131/84 99/134/85
f 97/136/86 98/138/87 104/139/87 103/137/86
