# Blender v2.90.0 Alpha OBJ File: 'Decos.blend'
# www.blender.org
o BARTOldCart_Cube.001
v 1.073634 0.011251 8.080021
v 0.987610 0.391621 8.080021
v 0.987610 0.391623 -8.162868
v 1.073634 0.011253 -8.162868
v 1.173100 -0.000001 8.080021
v 1.173100 0.000001 -8.162868
v 0.000000 2.871047 8.080021
v 0.520205 2.824373 8.080021
v 0.520205 2.824376 -8.162868
v 0.000000 2.871049 -8.162868
v 1.024032 2.676434 8.080021
v 1.024032 2.676436 -8.162868
v 1.238065 1.338216 8.080021
v 1.238065 1.338218 -8.162868
v 0.702208 1.338218 -8.162868
v 0.000000 1.338218 -8.162868
v 0.000000 0.391623 -8.162868
v 0.000000 0.391621 8.080021
v 0.702208 1.338216 8.080021
v 0.000000 1.338216 8.080021
v -1.073634 0.011251 8.080021
v -1.073634 0.011253 -8.162868
v -0.987610 0.391623 -8.162868
v -0.987610 0.391621 8.080021
v -1.173100 -0.000001 8.080021
v -1.173100 0.000001 -8.162868
v -0.520205 2.824376 -8.162868
v -0.520205 2.824373 8.080021
v -1.024032 2.676436 -8.162868
v -1.024032 2.676434 8.080021
v -1.238065 1.338216 8.080021
v -1.238065 1.338218 -8.162868
v -0.702208 1.338218 -8.162868
v -0.702208 1.338216 8.080021
v 0.000000 0.307249 -8.229114
v 0.000000 0.385982 -8.229114
v 0.750992 0.385982 -8.229114
v 0.654015 0.307249 -8.229114
v 0.654015 0.307247 8.228876
v 0.750992 0.385980 8.228878
v 0.000000 0.385980 8.228878
v 0.000000 0.307247 8.228878
v 0.750992 -0.027718 8.228878
v 0.750992 -0.027716 -8.229114
v 0.654015 -0.027718 8.228876
v 0.654015 -0.027716 -8.229114
v -0.654015 0.307249 -8.229114
v -0.750992 0.385982 -8.229114
v -0.654015 0.307247 8.228876
v -0.750992 0.385980 8.228878
v -0.750992 -0.027716 -8.229114
v -0.750992 -0.027718 8.228878
v -0.654015 -0.027718 8.228876
v -0.654015 -0.027716 -8.229114
v -0.000000 0.306315 -8.171717
v 0.649453 0.306315 -8.171717
v 0.649453 0.306312 8.171479
v -0.000000 0.306312 8.171481
v 0.649453 -0.026316 8.171479
v 0.649453 -0.026314 -8.171717
v -0.649453 0.306315 -8.171717
v -0.649453 0.306312 8.171479
v -0.649453 -0.026316 8.171479
v -0.649453 -0.026314 -8.171717
vt 0.071251 0.822894
vt 0.071265 0.811041
vt 0.750386 0.810083
vt 0.750372 0.821936
vt 0.071200 0.834746
vt 0.750321 0.833789
vt 0.000311 0.887082
vt 0.000311 0.864384
vt 0.740020 0.864384
vt 0.740020 0.887084
vt 0.000139 0.864384
vt 0.000139 0.840845
vt 0.740020 0.840844
vt 0.978734 0.066738
vt 0.978734 0.128643
vt 0.003977 0.128644
vt 0.003977 0.066739
vt 0.978734 0.003634
vt 0.003977 0.003633
vt 0.133055 0.589263
vt 0.086245 0.599000
vt 0.086245 0.574624
vt 0.138229 0.566344
vt 0.086245 0.544036
vt 0.139862 0.544036
vt 0.039436 0.596044
vt 0.039829 0.591520
vt 0.048012 0.587607
vt 0.048012 0.544036
vt 0.071165 0.771008
vt 0.750327 0.770723
vt 0.136458 0.592576
vt 0.136458 0.567193
vt 0.086245 0.567193
vt 0.086245 0.592576
vt 0.136458 0.544230
vt 0.086245 0.544230
vt 0.043724 0.592576
vt 0.043724 0.567193
vt 0.043724 0.592576
vt 0.043724 0.544230
vt 0.071251 0.822894
vt 0.750372 0.821936
vt 0.750386 0.810083
vt 0.071265 0.811041
vt 0.071200 0.834746
vt 0.750321 0.833789
vt 0.740097 0.887073
vt 0.740020 0.864384
vt 0.000214 0.864384
vt 0.000139 0.864384
vt 0.740020 0.840844
vt 0.000139 0.840845
vt 0.978734 0.066738
vt 0.003977 0.066739
vt 0.003977 0.128644
vt 0.978734 0.128643
vt 0.978734 0.003634
vt 0.003977 0.003633
vt 0.133055 0.589263
vt 0.138229 0.566344
vt 0.086245 0.574624
vt 0.086245 0.599000
vt 0.039436 0.596044
vt 0.048012 0.587607
vt 0.039829 0.591520
vt 0.136458 0.592576
vt 0.086245 0.592576
vt 0.086245 0.567193
vt 0.136458 0.567193
vt 0.043724 0.592576
vt 0.043724 0.592576
vt 0.043724 0.567193
vt 0.574694 0.912271
vt 0.574755 0.912271
vt 0.574755 0.913035
vt 0.574694 0.912936
vt 0.574694 0.913138
vt 0.574755 0.913039
vt 0.574755 0.913803
vt 0.574694 0.913803
vt 0.573113 0.928245
vt 0.572448 0.928245
vt 0.572448 0.911507
vt 0.573113 0.911507
vt 0.572444 0.928245
vt 0.571680 0.928245
vt 0.571680 0.911507
vt 0.572444 0.911507
vt 0.572448 0.928578
vt 0.589187 0.928578
vt 0.589187 0.928901
vt 0.572448 0.928901
vt 0.574689 0.911507
vt 0.574689 0.921233
vt 0.574520 0.921234
vt 0.574520 0.911509
vt 0.574064 0.927357
vt 0.574064 0.911508
vt 0.574341 0.911507
vt 0.574341 0.927357
vt 0.574694 0.914961
vt 0.574792 0.914899
vt 0.574792 0.915223
vt 0.574694 0.915223
vt 0.574694 0.914571
vt 0.574792 0.914633
vt 0.574792 0.914895
vt 0.574694 0.914895
vt 0.574694 0.911606
vt 0.574755 0.911507
vt 0.574694 0.914468
vt 0.574755 0.914567
vt 0.573778 0.911507
vt 0.573778 0.928245
vt 0.570916 0.928245
vt 0.570916 0.911507
vt 0.572448 0.928573
vt 0.572448 0.928250
vt 0.589187 0.928250
vt 0.589187 0.928573
vt 0.574345 0.911507
vt 0.574515 0.911509
vt 0.574515 0.921236
vt 0.574345 0.921234
vt 0.574060 0.911508
vt 0.574060 0.927357
vt 0.573783 0.927357
vt 0.574760 0.911769
vt 0.574760 0.911507
vt 0.574858 0.911507
vt 0.574858 0.911831
vt 0.574760 0.912159
vt 0.574760 0.911835
vt 0.574858 0.911835
vt 0.574858 0.912097
vt 0.041992 0.709961
vt 0.041992 0.709961
vt 0.041992 0.692383
vt 0.041992 0.692383
vt 0.043945 0.709961
vt 0.043945 0.692383
vt 0.043945 0.692383
vt 0.043945 0.709961
vt 0.043945 0.692383
vt 0.043945 0.709961
vt 0.043945 0.692383
vt 0.043945 0.709961
vn -0.9754 -0.2206 -0.0000
vn -0.1124 -0.9937 -0.0000
vn 0.0000 1.0000 0.0000
vn 0.1864 0.9825 0.0000
vn 0.2817 0.9595 0.0000
vn 0.9985 0.0550 0.0000
vn 0.9988 -0.0485 -0.0000
vn 0.9875 0.1579 0.0000
vn 0.0000 0.0000 -1.0000
vn 0.0000 -1.0000 -0.0000
vn 0.0000 0.0000 1.0000
vn 0.9754 -0.2206 -0.0000
vn 0.1124 -0.9937 -0.0000
vn -0.1864 0.9825 0.0000
vn -0.2817 0.9595 0.0000
vn -0.9985 0.0550 0.0000
vn -0.9988 -0.0485 -0.0000
vn -0.9875 0.1579 0.0000
vn 1.0000 0.0000 0.0000
vn -1.0000 0.0000 0.0000
s 1
f 1/1/1 2/2/1 3/3/1 4/4/1
f 5/5/2 1/1/2 4/4/2 6/6/2
f 7/7/3 8/8/4 9/9/4 10/10/3
f 8/11/4 11/12/5 12/13/5 9/9/4
f 13/14/6 5/15/7 6/16/7 14/17/6
f 11/18/8 13/14/6 14/17/6 12/19/8
f 12/20/9 14/21/9 15/22/9 9/23/9
f 9/23/9 15/22/9 16/24/9 10/25/9
f 6/26/9 4/27/9 3/28/9 14/21/9
f 15/22/9 14/21/9 3/28/9
f 15/22/9 3/28/9 17/29/9 16/24/9
f 3/3/10 2/2/10 18/30/10 17/31/10
f 11/32/11 8/33/11 19/34/11 13/35/11
f 8/33/11 7/36/11 20/37/11 19/34/11
f 5/38/11 13/35/11 2/39/11 1/40/11
f 19/34/11 2/39/11 13/35/11
f 19/34/11 20/37/11 18/41/11 2/39/11
f 21/42/12 22/43/12 23/44/12 24/45/12
f 25/46/13 26/47/13 22/43/13 21/42/13
f 7/7/3 10/48/3 27/49/14 28/50/14
f 28/51/14 27/49/14 29/52/15 30/53/15
f 31/54/16 32/55/16 26/56/17 25/57/17
f 30/58/18 29/59/18 32/55/16 31/54/16
f 29/60/9 27/61/9 33/62/9 32/63/9
f 27/61/9 10/25/9 16/24/9 33/62/9
f 26/64/9 32/63/9 23/65/9 22/66/9
f 33/62/9 23/65/9 32/63/9
f 33/62/9 16/24/9 17/29/9 23/65/9
f 23/44/10 17/31/10 18/30/10 24/45/10
f 30/67/11 31/68/11 34/69/11 28/70/11
f 28/70/11 34/69/11 20/37/11 7/36/11
f 25/71/11 21/72/11 24/73/11 31/68/11
f 34/69/11 31/68/11 24/73/11
f 34/69/11 24/73/11 18/41/11 20/37/11
f 35/74/9 36/75/9 37/76/9 38/77/9
f 39/78/11 40/79/11 41/80/11 42/81/11
f 35/82/10 38/83/10 39/84/10 42/85/10
f 37/86/3 36/87/3 41/88/3 40/89/3
f 37/90/19 40/91/19 43/92/19 44/93/19
f 45/94/10 46/95/10 44/96/10 43/97/10
f 39/98/20 38/99/20 46/100/20 45/101/20
f 38/102/9 37/103/9 44/104/9 46/105/9
f 40/106/11 39/107/11 45/108/11 43/109/11
f 35/74/9 47/110/9 48/111/9 36/75/9
f 49/112/11 42/81/11 41/80/11 50/113/11
f 35/82/10 42/85/10 49/114/10 47/115/10
f 48/116/3 50/117/3 41/88/3 36/87/3
f 48/118/20 51/119/20 52/120/20 50/121/20
f 53/122/10 52/123/10 51/124/10 54/125/10
f 49/114/19 53/126/19 54/127/19 47/128/19
f 47/129/9 54/130/9 51/131/9 48/132/9
f 50/133/11 52/134/11 53/135/11 49/136/11
f 55/137/10 56/138/10 57/139/10 58/140/10
f 57/141/20 56/142/20 60/143/20 59/144/20
f 55/137/10 58/140/10 62/145/10 61/146/10
f 62/145/19 63/147/19 64/148/19 61/146/19
