# Blender v2.90.0 Alpha OBJ File: 'Decos.blend'
# www.blender.org
o Sedan_Cube.001_Sedan_Cube.002
v -0.856121 0.152426 2.288132
v 0.856121 0.152426 2.288132
v 0.856121 0.952970 1.343621
v 0.856121 0.152427 1.074294
v 0.856121 0.387153 -2.473920
v 0.856121 1.050508 -2.572659
v -0.856121 1.050508 -2.572659
v -0.856121 0.387153 -2.473920
v 0.856121 0.739884 2.437858
v 0.856121 0.447014 2.437858
v 0.671194 1.413174 0.296479
v -0.671194 1.413174 0.296479
v -0.856121 0.952970 1.343621
v -0.856121 0.739884 2.437858
v -0.856121 0.447014 2.437858
v 0.000000 0.739883 2.578532
v -0.856121 0.152427 1.074294
vt 0.000000 0.141120
vt 0.321482 0.734908
vt 0.283686 0.879652
vt 0.462555 0.959703
vt 0.934255 0.744599
vt 0.968984 0.867128
vt 0.000000 0.283686
vt 0.283686 0.879652
vt 0.321482 0.734908
vt 0.462555 0.959703
vt 0.968984 0.867128
vt 0.934255 0.744599
vt 0.082375 0.859492
vt 0.078000 0.819863
vt 0.000000 0.283686
vt 0.133816 0.017063
vt 0.460058 0.017063
vt 0.460058 0.144848
vt 0.133816 0.144848
vt 0.684873 0.429072
vt 0.902808 0.393837
vt 0.902808 0.720078
vt 0.684873 0.684843
vt 0.133816 0.720078
vt 0.133816 0.393836
vt 0.000000 0.000000
vt 0.000000 0.420010
vt 0.543035 0.389365
vt 0.542958 0.045696
vt 0.623955 0.051585
vt 0.611151 0.218062
vt 0.623492 0.391801
vt 0.000000 0.159176
vt 0.000000 0.145979
vt 0.000000 0.221566
vt 0.000000 0.310247
vt 0.000000 0.379565
vt 0.082375 0.859492
vt 0.078000 0.819863
vn 1.0000 -0.0000 0.0000
vn 0.9980 0.0094 0.0631
vn 0.9909 0.1332 -0.0197
vn -1.0000 -0.0000 0.0000
vn -0.9980 0.0094 0.0631
vn -0.9909 0.1332 -0.0197
vn 0.9291 0.0476 -0.3668
vn 0.7914 0.4855 -0.3715
vn 0.8791 0.2515 0.4050
vn 0.9831 0.1786 -0.0398
vn 0.0000 -0.1472 -0.9891
vn 0.0000 0.9155 0.4023
vn -0.2634 0.8752 0.4058
vn 0.1549 0.9392 0.3063
vn 0.0000 0.9921 -0.1254
vn -0.0853 -0.4983 0.8628
vn -0.3733 -0.6626 0.6493
vn 0.0543 -0.4905 0.8698
vn -0.4171 -0.6697 0.6145
vn 0.0451 -0.5539 0.8314
vn -0.2177 -0.1168 0.9690
vn -0.3675 -0.2098 0.9060
vn 0.0084 -0.2836 0.9589
vn -0.4418 -0.4883 0.7526
vn 0.0747 -0.0444 0.9962
vn 0.1955 -0.6566 0.7284
vn -0.0709 0.9967 0.0392
vn 0.0469 0.9829 0.1782
vn -0.3387 0.9160 0.2151
vn 0.0815 0.9954 -0.0499
vn 0.4277 0.9033 -0.0341
vn -0.0497 0.9819 0.1825
vn 0.1806 0.8881 0.4228
vn -0.8662 -0.1963 -0.4595
vn -0.9645 0.2458 -0.0966
vn -0.9949 -0.1005 -0.0040
vn -0.9976 -0.0117 -0.0684
vn 0.0459 0.9989 -0.0074
vn -0.1019 0.9919 -0.0761
vn -0.0038 0.9886 0.1505
s off
f 2/1/1 4/2/1 3/3/1
f 11/4/2 5/5/2 6/6/2
f 3/3/3 4/2/3 5/5/3 11/4/3
f 1/7/4 13/8/4 17/9/4
f 12/10/5 7/11/5 8/12/5
f 13/8/6 12/10/6 8/12/6 17/9/6
s 1
f 9/13/7 10/14/8 2/15/9 3/3/10
f 7/16/11 6/17/11 5/18/11 8/19/11
f 12/20/12 13/21/13 3/22/14
f 11/23/15 6/24/15 7/25/15
f 1/26/16 2/27/17 15/28/18
f 10/29/19 9/30/20 16/31/21 2/27/22
f 15/28/23 2/27/24 16/31/25 14/32/26
f 3/33/27 16/34/28 9/35/29
f 13/36/30 14/37/31 16/34/32
f 11/23/12 12/20/12 3/22/33
f 7/25/15 12/20/15 11/23/15
f 14/38/34 13/8/35 1/26/36 15/39/37
f 3/33/38 13/36/39 16/34/40
