# Blender v2.90.0 Alpha OBJ File: 'Decos.blend'
# www.blender.org
o Sedan_Cube.001_Sedan_Cube.002
v -0.856121 0.300579 2.437858
v -0.856121 0.152426 2.288132
v 0.856121 0.152426 2.288132
v 0.856121 0.152427 2.058274
v 0.856121 0.952970 1.343621
v 0.856121 0.152427 1.074294
v 0.856121 0.419274 1.164069
v 0.856121 0.686122 1.253845
v 0.856121 0.278099 -2.027948
v 0.856121 0.387153 -2.473920
v 0.856121 1.050508 -2.572659
v 0.856121 0.300579 2.437858
v -0.856121 1.050508 -2.572659
v -0.856121 0.387153 -2.473920
v -0.428061 0.152426 2.410478
v 0.000000 0.152426 2.428806
v 0.000000 0.300579 2.578532
v -0.428061 0.300579 2.560204
v 0.856121 1.137057 -1.994266
v 0.856121 1.085519 -0.727045
v 0.856121 0.816379 -1.160680
v 0.856121 0.547240 -1.594314
v 0.977747 0.816379 -1.160680
v -0.856121 1.137057 -1.994266
v 0.428061 0.152426 2.410478
v 0.428061 0.300579 2.560204
v 0.977747 0.547240 -1.594314
v 0.977747 0.419274 1.164069
v 0.977747 0.686122 1.253845
v 0.856121 0.739884 2.437858
v 0.856121 0.447014 2.437858
v 0.671194 1.413174 0.296479
v -0.671194 1.413174 0.296479
v 0.000000 0.748435 2.534170
v 0.000000 0.730730 2.516652
v -0.378691 0.730757 2.500309
v -0.390385 0.748435 2.517455
v -0.856121 0.952970 1.343621
v -0.856121 0.739884 2.437858
v -0.856121 0.447014 2.437858
v 0.534742 1.203235 -2.712221
v 0.534742 1.290876 -2.701646
v 1.161436 1.290876 -2.701646
v 1.161436 1.203235 -2.712221
v 0.534742 1.210769 -2.517115
v 1.161436 1.210769 -2.517115
v -1.161438 1.203235 -2.712221
v -1.161438 1.210769 -2.517115
v -1.161438 1.290876 -2.701646
v 0.780770 0.961062 1.481150
v 0.780770 0.748435 2.405877
v -0.780770 0.961062 1.481150
v 0.000000 0.447014 2.578532
v -0.428061 0.447014 2.560204
v -0.893600 0.593449 2.568987
v 0.428061 0.739884 2.560204
v 0.465539 0.593449 2.691333
v 0.893600 0.593449 2.568987
v 0.428061 0.447014 2.560204
v 0.000000 0.739883 2.578532
v -0.428061 0.739884 2.560204
v 0.390385 0.748435 2.517455
v 0.378691 0.730757 2.500309
v -0.757583 0.937198 1.494161
v 0.757583 0.937198 1.494161
v 0.757583 0.730777 2.391900
v -0.757583 0.730777 2.391900
v -0.780770 0.748435 2.405877
v -0.465539 0.593449 2.691333
v -0.534744 1.210769 -2.517115
v -0.534744 1.290876 -2.701646
v -0.534744 1.203235 -2.712221
v 0.604652 1.222797 -2.611343
v 0.619106 1.222797 -2.684324
v 0.675081 1.222797 -2.635316
v 0.604652 0.920340 -2.370455
v 0.675081 0.920340 -2.394428
v 0.619106 0.920340 -2.443435
v -0.604652 1.222797 -2.611343
v -0.675081 1.222797 -2.635316
v -0.619106 1.222797 -2.684324
v -0.604652 0.920340 -2.370455
v -0.619106 0.920340 -2.443435
v -0.675081 0.920340 -2.394428
v -0.856121 0.152427 2.058274
v -0.856121 0.152427 1.074294
v -0.856121 0.419274 1.164069
v -0.856121 0.686122 1.253845
v -0.856121 0.278099 -2.027948
v -0.856121 1.085519 -0.727045
v -0.856121 0.816379 -1.160680
v -0.856121 0.547240 -1.594314
v -0.977747 0.816379 -1.160680
v -0.977747 0.547240 -1.594314
v -0.977747 0.419274 1.164069
v -0.977747 0.686122 1.253845
v 0.843356 0.370416 2.274223
v 0.843356 0.005304 2.274223
v 0.843356 0.005304 1.073297
v 0.843356 0.370417 1.073297
v 0.843356 0.141504 -2.024444
v 0.843356 0.506617 -2.024443
v 0.843356 0.300925 -2.475479
v 0.843356 0.666038 -2.475479
v -0.000001 0.506617 -2.024443
v -0.000001 0.370417 1.073297
v -0.000001 0.370416 2.274223
v -0.000001 0.005304 2.274223
v -0.000001 0.666038 -2.475479
v -0.843358 0.370416 2.274223
v -0.843358 0.005304 1.073297
v -0.843358 0.005304 2.274223
v -0.843358 0.370417 1.073297
v -0.843358 0.506617 -2.024443
v -0.843358 0.141504 -2.024444
v -0.843358 0.666038 -2.475479
v -0.843358 0.300925 -2.475479
v 0.827139 0.965867 1.308919
v 0.820909 0.986510 1.262257
v 0.811382 0.950836 1.240596
v 0.821307 0.926162 1.286315
v 0.883201 0.947680 1.230222
v 0.892728 0.983355 1.251883
v 0.919188 1.000691 1.235946
v 0.904761 0.954788 1.207392
v 0.893126 0.923007 1.275941
v 0.898959 0.962711 1.298545
v 0.922413 0.909637 1.288800
v 1.055814 0.948151 1.185574
v 1.073465 0.903001 1.266982
v 0.929996 0.961260 1.318188
v 1.081048 0.954623 1.296370
v 1.070240 0.994055 1.214128
v -0.827139 0.965867 1.308919
v -0.820909 0.986510 1.262257
v -0.811382 0.950836 1.240596
v -0.821307 0.926162 1.286315
v -0.883201 0.947680 1.230222
v -0.892728 0.983355 1.251883
v -0.919188 1.000691 1.235946
v -0.904761 0.954788 1.207392
v -0.893126 0.923007 1.275941
v -0.898959 0.962711 1.298545
v -0.922413 0.909637 1.288800
v -1.055814 0.948151 1.185574
v -1.073465 0.903001 1.266982
v -0.929996 0.961260 1.318188
v -1.081048 0.954623 1.296370
v -1.070240 0.994055 1.214128
vt 0.099583 0.750823
vt 0.141120 0.746969
vt 0.283686 0.879652
vt 0.321482 0.734908
vt 0.301938 0.782378
vt 0.290006 0.829021
vt 0.847613 0.734908
vt 0.934255 0.744599
vt 0.968984 0.867128
vt 0.075010 0.780106
vt 0.482980 0.303675
vt 0.483604 0.218697
vt 0.525855 0.218547
vt 0.523623 0.301539
vt 0.862160 0.897495
vt 0.639428 0.892290
vt 0.715525 0.849026
vt 0.782530 0.799513
vt 0.704612 0.832707
vt 0.482202 0.133459
vt 0.523277 0.135452
vt 0.471779 0.045573
vt 0.513522 0.048859
vt 0.769438 0.784356
vt 0.321637 0.788748
vt 0.309637 0.832687
vt 0.473333 0.389907
vt 0.514237 0.386414
vt 0.099583 0.750823
vt 0.283686 0.879652
vt 0.141120 0.746969
vt 0.290006 0.829021
vt 0.301938 0.782378
vt 0.321482 0.734908
vt 0.847613 0.734908
vt 0.968984 0.867128
vt 0.934255 0.744599
vt 0.075010 0.780106
vt 0.862160 0.897495
vt 0.639428 0.892290
vt 0.782530 0.799513
vt 0.715525 0.849026
vt 0.704612 0.832707
vt 0.769438 0.784356
vt 0.321637 0.788748
vt 0.309637 0.832687
vt 0.082375 0.859492
vt 0.078000 0.819863
vt 0.133816 0.017063
vt 0.460058 0.017063
vt 0.460058 0.144848
vt 0.133816 0.144848
vt 0.302052 0.384512
vt 0.302142 0.379503
vt 0.376761 0.375783
vt 0.379565 0.380645
vt 0.462555 0.959703
vt 0.684873 0.429072
vt 0.902808 0.393837
vt 0.902808 0.720078
vt 0.699823 0.154351
vt 0.716642 0.154351
vt 0.716642 0.273758
vt 0.699823 0.273758
vt 0.662620 0.154351
vt 0.662620 0.273758
vt 0.624291 0.154351
vt 0.624291 0.273758
vt 0.067046 0.734813
vt 0.061734 0.701616
vt 0.076934 0.701616
vt 0.133816 0.355014
vt 0.145567 0.145183
vt 0.159525 0.170176
vt 0.148375 0.349681
vt 0.245247 0.720078
vt 0.133816 0.393836
vt 0.245247 0.393836
vt 0.461424 0.145183
vt 0.446956 0.170906
vt 0.684873 0.684843
vt 0.552383 0.218480
vt 0.552060 0.303705
vt 0.623955 0.051585
vt 0.610580 0.132478
vt 0.580843 0.114968
vt 0.587596 0.045573
vt 0.551979 0.133341
vt 0.611151 0.218062
vt 0.612018 0.304138
vt 0.542958 0.045696
vt 0.224253 0.377966
vt 0.227151 0.373185
vt 0.441695 0.175681
vt 0.164840 0.175310
vt 0.154726 0.346586
vt 0.301895 0.393501
vt 0.387178 0.388894
vt 0.216481 0.385986
vt 0.450303 0.349759
vt 0.456717 0.352966
vt 0.543035 0.389365
vt 0.471444 0.358554
vt 0.133816 0.720078
vt 0.623492 0.391801
vt 0.578433 0.393501
vt 0.583860 0.322434
vt 0.061734 0.841715
vt 0.716642 0.393501
vt 0.678313 0.393501
vt 0.678313 0.274094
vt 0.716642 0.274094
vt 0.641111 0.393501
vt 0.641111 0.274094
vt 0.210937 0.898437
vt 0.210937 0.898438
vt 0.210938 0.898438
vt 0.624291 0.393501
vt 0.624291 0.274094
vt 0.210938 0.898438
vt 0.210938 0.898438
vt 0.210938 0.898438
vt 0.715320 0.129127
vt 0.708232 0.141404
vt 0.701145 0.129127
vt 0.722743 0.154016
vt 0.715655 0.141739
vt 0.729831 0.141739
vt 0.630108 0.112309
vt 0.624291 0.099382
vt 0.697964 0.099382
vt 0.703781 0.112309
vt 0.706626 0.076270
vt 0.697963 0.087491
vt 0.624291 0.087490
vt 0.632954 0.076270
vt 0.697963 0.125907
vt 0.700809 0.139793
vt 0.627136 0.139793
vt 0.624291 0.125907
vt 0.701145 0.141739
vt 0.715320 0.141739
vt 0.708232 0.154016
vt 0.722743 0.141404
vt 0.715655 0.129127
vt 0.729831 0.129127
vt 0.630108 0.112644
vt 0.703781 0.112644
vt 0.697964 0.125571
vt 0.624291 0.125571
vt 0.624291 0.087826
vt 0.697964 0.087826
vt 0.706626 0.099046
vt 0.632954 0.099046
vt 0.627137 0.140129
vt 0.700809 0.140129
vt 0.697963 0.154016
vt 0.624291 0.154016
vt 0.082375 0.859492
vt 0.078000 0.819863
vt 0.462555 0.959703
vt 0.067046 0.734813
vt 0.076934 0.701616
vt 0.061734 0.701616
vt 0.061734 0.841715
vt 0.869775 0.069982
vt 0.889576 0.069681
vt 0.890566 0.134813
vt 0.870453 0.135430
vt 0.892819 0.307351
vt 0.872625 0.310190
vt 0.888921 0.332415
vt 0.870334 0.336694
vt 0.824605 0.308665
vt 0.824605 0.135441
vt 0.869686 0.050465
vt 0.824605 0.070213
vt 0.824605 0.050670
vt 0.824605 0.335294
vt 0.779435 0.069982
vt 0.758644 0.134813
vt 0.759633 0.069681
vt 0.778757 0.135431
vt 0.776585 0.310190
vt 0.756391 0.307351
vt 0.778876 0.336694
vt 0.760289 0.332415
vt 0.779524 0.050465
vt 0.892867 0.316509
vt 0.986117 0.316509
vt 0.986117 0.336694
vt 0.892867 0.336694
vt 0.698218 0.258520
vt 0.697818 0.270536
vt 0.689780 0.268961
vt 0.691703 0.260381
vt 0.718483 0.259308
vt 0.717415 0.269861
vt 0.718438 0.282876
vt 0.699695 0.284869
vt 0.718483 0.246327
vt 0.700087 0.244080
vt 0.692525 0.236808
vt 0.673894 0.261052
vt 0.654821 0.254429
vt 0.690848 0.292288
vt 0.655379 0.273701
vt 0.672151 0.266820
vt 0.698218 0.258520
vt 0.691703 0.260381
vt 0.689780 0.268961
vt 0.697818 0.270536
vt 0.718483 0.259308
vt 0.717415 0.269861
vt 0.699695 0.284869
vt 0.718438 0.282876
vt 0.718483 0.246327
vt 0.700087 0.244080
vt 0.692525 0.236808
vt 0.654821 0.254429
vt 0.673894 0.261052
vt 0.690848 0.292288
vt 0.655379 0.273701
vt 0.672151 0.266820
vn 1.0000 0.0000 0.0000
vn -0.0301 -0.7105 0.7030
vn 0.0000 0.8497 -0.5273
vn 0.0301 -0.7105 0.7030
vn 0.1971 -0.6969 0.6896
vn 0.0000 -0.3189 0.9478
vn 0.9167 -0.3992 -0.0173
vn 0.9187 0.3944 0.0231
vn -0.1971 -0.6969 0.6896
vn -1.0000 0.0000 0.0000
vn -0.9167 -0.3992 -0.0173
vn -0.9187 0.3944 0.0231
vn 0.9966 -0.0000 -0.0827
vn 0.9986 -0.0000 -0.0533
vn 0.0000 -0.1472 -0.9891
vn -0.0000 0.7049 -0.7093
vn 0.0921 0.7236 -0.6841
vn 0.1242 0.7321 -0.6698
vn 0.9046 0.4255 0.0272
vn 0.0000 0.9155 0.4023
vn 0.0000 0.1198 -0.9928
vn 0.0000 -0.9993 0.0386
vn 0.0000 0.9173 0.3982
vn 0.1714 0.9676 0.1852
vn 0.0849 0.9959 0.0301
vn 0.1379 0.9867 0.0860
vn 0.1351 0.9748 0.1775
vn 0.0000 0.9910 -0.1342
vn 0.0000 0.9890 -0.1480
vn -0.0849 0.9959 0.0301
vn 0.0108 0.9942 0.1072
vn 0.0000 0.9928 -0.1197
vn -0.1599 -0.0000 0.9871
vn 0.0000 -0.0000 1.0000
vn -0.1209 -0.0000 0.9927
vn 0.2011 0.6815 0.7036
vn 0.1599 -0.0000 0.9871
vn 0.1209 -0.0000 0.9927
vn 0.0428 0.0000 0.9991
vn -0.0428 0.0000 0.9991
vn 0.2748 -0.0000 0.9615
vn -0.1242 0.7321 -0.6698
vn -0.0921 0.7236 -0.6841
vn 0.0000 0.4787 0.8780
vn -0.3654 0.6935 0.6209
vn -0.4158 0.7123 0.5655
vn -0.1833 0.7454 -0.6409
vn 0.0000 0.9819 0.1893
vn -0.0205 0.9837 0.1787
vn -0.0336 0.9853 0.1674
vn 0.0336 0.9853 0.1674
vn 0.0205 0.9837 0.1787
vn 0.1833 0.7454 -0.6409
vn -0.2748 -0.0000 0.9615
vn 0.0094 0.9782 0.2075
vn -0.0032 0.9807 0.1956
vn 0.0267 0.9772 0.2105
vn -0.0108 0.9794 0.2017
vn 0.0639 0.9726 0.2236
vn 0.0448 0.9813 0.1870
vn -0.1714 0.9676 0.1852
vn -0.0117 0.9786 0.2052
vn -0.6595 0.7326 0.1685
vn -0.2011 0.6815 0.7036
vn 0.2011 -0.6815 0.7036
vn -0.2011 -0.6815 0.7036
vn 0.9615 0.0000 0.2748
vn -0.9615 0.0000 0.2748
vn 0.9615 0.0000 -0.2748
vn 0.0000 -1.0000 0.0000
vn 0.0000 1.0000 -0.0000
vn -0.5650 0.5140 0.6454
vn 0.9694 0.1529 0.1920
vn -0.2573 -0.6020 -0.7559
vn 0.5650 0.5140 0.6454
vn -0.9694 0.1529 0.1920
vn 0.2573 -0.6020 -0.7559
vn 0.8940 0.4477 0.0182
vn -0.9966 -0.0000 -0.0827
vn -0.9986 -0.0000 -0.0533
vn -0.9046 0.4255 0.0272
vn -0.9615 0.0000 -0.2748
vn -0.8940 0.4477 0.0182
vn 0.6595 0.7326 0.1685
vn 0.0000 0.9998 0.0220
vn 0.0000 0.9817 0.1907
vn 0.0000 0.9428 0.3333
vn 0.0000 0.0000 -1.0000
vn -0.6812 0.5183 -0.5170
vn -0.0977 0.5354 -0.8389
vn 0.0968 0.9149 0.3918
vn -0.1178 0.8976 0.4248
vn -0.1125 0.8986 0.4242
vn -0.1045 -0.8845 -0.4547
vn -0.1559 -0.8811 -0.4465
vn -0.1590 -0.8808 -0.4459
vn -0.1359 -0.8792 -0.4566
vn -0.1401 -0.8792 -0.4554
vn -0.1057 -0.8792 -0.4647
vn -0.0364 0.9009 0.4325
vn -0.0448 0.9003 0.4330
vn 0.9721 -0.0910 -0.2161
vn -0.0960 0.5473 -0.8314
vn 0.1002 0.9022 0.4194
vn 0.6812 0.5183 -0.5170
vn 0.0977 0.5354 -0.8389
vn -0.0968 0.9149 0.3918
vn 0.0156 0.9220 0.3870
vn 0.1182 0.9127 0.3912
vn 0.1125 0.8986 0.4242
vn 0.1045 -0.8845 -0.4547
vn 0.1323 -0.8869 -0.4426
vn 0.1528 -0.8864 -0.4370
vn 0.1590 -0.8808 -0.4459
vn 0.1328 -0.8845 -0.4472
vn 0.1401 -0.8792 -0.4554
vn 0.1057 -0.8792 -0.4647
vn 0.1490 -0.8709 -0.4684
vn 0.0452 0.9156 0.3996
vn 0.0513 0.8693 0.4916
vn -0.9721 -0.0910 -0.2161
vn 0.0960 0.5473 -0.8314
vn 0.0364 0.9009 0.4325
vn -0.1002 0.9022 0.4194
s off
f 3/1/1 4/2/1 5/3/1
f 4/2/1 6/4/1 7/5/1 8/6/1 5/3/1
f 9/7/1 10/8/1 11/9/1
f 12/10/1 3/1/1 5/3/1
f 15/11/2 16/12/2 17/13/2 18/14/2
f 9/7/1 11/9/1 19/15/1
f 20/16/1 21/17/1 22/18/1 9/7/1 19/15/1
f 21/17/3 20/16/3 23/19/3
f 25/20/4 26/21/4 17/13/4 16/12/4
f 3/22/5 12/23/5 26/21/5 25/20/5
f 9/7/3 22/18/3 27/24/3
f 22/18/3 21/17/3 23/19/3 27/24/3
f 7/5/6 6/4/6 28/25/6
f 5/3/6 8/6/6 29/26/6
f 8/6/6 7/5/6 28/25/6 29/26/6
f 28/25/7 6/4/7 9/7/7 27/24/7
f 5/3/8 29/26/8 23/19/8 20/16/8
f 29/26/1 28/25/1 27/24/1 23/19/1
f 2/27/9 15/11/9 18/14/9 1/28/9
f 2/29/10 38/30/10 85/31/10
f 85/31/10 38/30/10 88/32/10 87/33/10 86/34/10
f 89/35/10 13/36/10 14/37/10
f 1/38/10 38/30/10 2/29/10
f 89/35/10 24/39/10 13/36/10
f 90/40/10 24/39/10 89/35/10 92/41/10 91/42/10
f 91/42/3 93/43/3 90/40/3
f 89/35/3 94/44/3 92/41/3
f 92/41/3 94/44/3 93/43/3 91/42/3
f 87/33/6 95/45/6 86/34/6
f 38/30/6 96/46/6 88/32/6
f 88/32/6 96/46/6 95/45/6 87/33/6
f 95/45/11 94/44/11 89/35/11 86/34/11
f 38/30/12 90/40/12 93/43/12 96/46/12
f 96/46/10 93/43/10 94/44/10 95/45/10
s 1
f 30/47/13 31/48/14 12/10/1 5/3/1
f 13/49/15 11/50/15 10/51/15 14/52/15
f 34/53/16 35/54/16 36/55/17 37/56/18
f 5/3/19 20/16/19 32/57/19
f 33/58/20 38/59/20 5/60/20
f 41/61/21 42/62/21 43/63/21 44/64/21
f 45/65/22 41/61/22 44/64/22 46/66/22
f 42/67/23 45/65/23 46/66/23 43/68/23
f 46/69/1 44/70/1 43/71/1
f 30/72/24 5/73/25 50/74/26 51/75/27
f 19/76/28 13/77/29 24/78/28
f 38/79/30 52/80/31 50/74/26 5/73/25
f 32/81/32 19/76/28 24/78/28
f 18/14/33 17/13/34 53/82/34 54/83/35
f 30/84/36 56/85/36 57/86/36 58/87/36
f 26/21/37 59/88/38 53/82/34 17/13/34
f 59/88/38 56/85/39 60/89/34 53/82/34
f 54/83/35 53/82/34 60/89/34 61/90/40
f 59/88/38 26/21/37 12/23/41 31/91/41
f 34/53/16 62/92/42 63/93/43 35/54/16
f 52/80/44 64/94/44 65/95/45 50/74/46
f 62/92/42 51/75/47 66/96/47 63/93/43
f 60/97/48 34/53/48 37/56/49 61/98/50
f 60/97/48 56/99/51 62/92/52 34/53/48
f 37/56/18 36/55/17 67/100/53 68/101/53
f 56/99/51 30/72/24 51/75/27 62/92/52
f 54/83/35 40/102/54 1/28/54 18/14/33
f 65/95/55 35/54/56 63/93/57
f 65/95/55 36/55/58 35/54/56
f 65/95/55 63/93/57 66/96/59
f 61/98/50 37/56/49 68/101/60 39/103/61
f 64/94/62 67/100/62 36/55/58 65/95/55
f 51/75/63 50/74/46 65/95/45 66/96/63
f 32/81/20 33/58/20 5/60/20
f 24/78/28 33/58/32 32/81/32
f 13/77/29 19/76/28 11/104/29
f 61/90/64 39/105/64 55/106/64 69/107/64
f 59/88/65 31/91/65 58/87/65 57/86/65
f 40/102/66 54/83/66 69/107/66 55/106/66
f 54/83/67 61/90/67 69/107/67
f 56/85/68 59/88/68 57/86/68
f 31/48/14 30/47/13 58/108/69
f 49/109/23 48/110/23 70/111/23 71/112/23
f 48/110/22 47/113/22 72/114/22 70/111/22
f 70/115/1 72/116/1 71/117/1
f 47/113/21 49/118/21 71/119/21 72/114/21
f 45/120/10 42/121/10 41/122/10
f 73/123/70 74/124/70 75/125/70
f 76/126/71 77/127/71 78/128/71
f 75/129/72 74/130/72 78/131/72 77/132/72
f 74/133/73 73/134/73 76/135/73 78/136/73
f 73/137/74 75/138/74 77/139/74 76/140/74
f 79/141/70 80/142/70 81/143/70
f 82/144/71 83/145/71 84/146/71
f 80/147/75 84/148/75 83/149/75 81/150/75
f 81/151/76 83/152/76 82/153/76 79/154/76
f 79/155/77 82/156/77 84/157/77 80/158/77
f 32/57/78 20/16/78 19/15/78
f 39/159/79 38/30/10 1/38/10 40/160/80
f 38/30/81 33/161/81 90/40/81
f 48/162/10 49/163/10 47/164/10
f 40/160/80 55/165/82 39/159/79
f 33/161/83 24/39/83 90/40/83
f 52/80/31 68/101/60 67/100/84 64/94/84
f 52/80/31 38/79/30 39/103/61 68/101/60
f 97/166/1 98/167/1 99/168/1
f 97/166/1 99/168/1 100/169/1
f 99/168/1 101/170/1 102/171/1 100/169/1
f 101/170/1 103/172/1 104/173/1 102/171/1
f 100/169/85 102/171/86 105/174/86 106/175/85
f 98/176/34 97/166/34 107/177/34 108/178/34
f 102/171/86 104/173/87 109/179/87 105/174/86
f 97/166/71 100/169/85 106/175/85 107/177/71
f 110/180/10 111/181/10 112/182/10
f 110/180/10 113/183/10 111/181/10
f 111/181/10 113/183/10 114/184/10 115/185/10
f 115/185/10 114/184/10 116/186/10 117/187/10
f 113/183/85 106/175/85 105/174/86 114/184/86
f 112/188/34 108/178/34 107/177/34 110/180/34
f 114/184/86 105/174/86 109/179/87 116/186/87
f 110/180/71 107/177/71 106/175/85 113/183/85
f 103/189/88 117/190/88 116/191/88 104/192/88
f 122/193/89 123/194/89 124/195/89 125/196/89
f 120/197/90 119/198/90 123/194/90 122/193/90
f 119/198/91 118/199/91 127/200/92 123/194/93
f 121/201/94 120/197/94 122/193/95 126/202/96
f 128/203/97 125/196/98 129/204/99 130/205/99
f 123/194/93 127/200/92 131/206/100 124/195/101
f 126/202/96 122/193/95 125/196/98 128/203/97
f 132/207/102 130/205/102 129/204/102 133/208/102
f 125/196/103 124/195/103 133/208/103 129/204/103
f 124/195/101 131/206/100 132/207/104 133/208/104
f 138/209/105 141/210/105 140/211/105 139/212/105
f 136/213/106 138/209/106 139/212/106 135/214/106
f 135/214/107 139/212/108 143/215/109 134/216/110
f 137/217/111 142/218/112 138/209/113 136/213/114
f 144/219/115 146/220/116 145/221/117 141/210/118
f 139/212/108 140/211/119 147/222/120 143/215/109
f 142/218/112 144/219/115 141/210/118 138/209/113
f 148/223/121 149/224/121 145/221/121 146/220/121
f 141/210/122 145/221/122 149/224/122 140/211/122
f 140/211/119 149/224/123 148/223/124 147/222/120
