# Blender v2.90.0 Alpha OBJ File: 'Decos.blend'
# www.blender.org
o Sedan_Cube.002_Sedan_Cube.015
v 0.000000 0.263441 -2.039545
v 0.716868 0.232758 2.606829
v 0.835747 0.108124 2.661400
v -0.842025 0.263441 -2.004270
v 0.000000 0.568983 2.666399
v -0.372300 0.600589 2.666399
v 0.000000 0.742280 2.552698
v -0.388937 0.713826 2.552698
v 0.640016 1.296596 -0.596835
v 0.583819 1.291655 0.526889
v 0.372300 0.600589 2.666399
v -0.356405 0.108124 2.781416
v -0.716868 0.232758 2.606829
v -0.786316 0.927599 1.127475
v -0.640016 1.296596 -0.596835
v -0.583819 1.291655 0.526889
v 0.842025 0.263441 -2.004270
v 0.800950 1.034886 -1.321101
v 0.766139 0.601297 2.666399
v 0.388937 0.713826 2.552698
v -0.752951 0.617914 2.662959
v -0.751414 0.757709 2.464318
v -0.800950 1.034886 -1.321101
v -0.835747 0.108124 2.661400
v -0.568593 0.611861 2.662959
v 0.356405 0.108124 2.781416
v 0.000000 0.568124 2.666303
v 0.842025 0.290712 -0.770204
v 0.835747 0.108124 2.661400
v 0.793389 0.964596 -0.770204
v 0.716868 0.412351 2.656823
v 0.739376 0.871811 1.847273
v 0.751414 0.757709 2.464318
v 0.786316 0.927599 1.127475
v 0.793895 1.007148 -1.932572
v -0.842025 0.290712 -0.770204
v -0.835747 0.108124 2.661400
v -0.766139 0.601297 2.666399
v -0.793389 0.964596 -0.770204
v -0.716868 0.412351 2.656823
v -0.739376 0.871811 1.847273
v -0.793895 1.007148 -1.932572
vt 0.596928 0.197965
vt 0.574627 0.197517
vt 0.576596 0.028624
vt 0.598129 0.028851
vt 0.353966 0.378288
vt 0.354421 0.378288
vt 0.354421 0.378288
vt 0.349600 0.330630
vt 0.346297 0.283778
vt 0.372335 0.283778
vt 0.369772 0.332735
vt 0.389171 0.274024
vt 0.389623 0.189738
vt 0.391138 0.233003
vt 0.551991 0.202673
vt 0.557956 0.112156
vt 0.357653 0.282214
vt 0.357933 0.281955
vt 0.361748 0.282280
vt 0.358567 0.353350
vt 0.362716 0.362692
vt 0.358642 0.363200
vt 0.258793 0.164928
vt 0.258793 0.024575
vt 0.393868 0.017820
vt 0.393868 0.171683
vt 0.364431 0.353164
vt 0.359026 0.259419
vt 0.360177 0.283068
vt 0.360623 0.304318
vt 0.358650 0.306141
vt 0.368627 0.370600
vt 0.368627 0.370600
vt 0.368627 0.370600
vt 0.142564 0.397756
vt 0.142564 0.457201
vt 0.124628 0.410034
vt 0.554650 0.022912
vt 0.354448 0.378288
vt 0.354448 0.378288
vt 0.189993 0.189738
vt 0.000235 0.397286
vt 0.189993 0.397286
vt 0.189993 0.397286
vt 0.174374 0.000235
vt 0.174374 0.189268
vt 0.168852 0.457201
vt 0.150917 0.444923
vt 0.168852 0.397756
vt 0.189993 0.192703
vt 0.189993 0.192703
vt 0.358831 0.363270
vt 0.358906 0.353421
vt 0.362979 0.353929
vt 0.364695 0.363457
vt 0.389890 0.273998
vt 0.391138 0.315191
vt 0.389610 0.358605
vt 0.368627 0.370600
vt 0.349600 0.236926
vt 0.369772 0.234821
vt 0.012019 0.003790
vt 0.087548 0.005618
vt 0.000235 0.047726
vt 0.087658 0.183903
vt 0.000954 0.094819
vt 0.000302 0.141913
vt 0.012145 0.185829
vt 0.297040 0.716293
vt 0.045633 0.700780
vt 0.035598 0.677861
vt 0.630323 0.900132
vt 0.428645 0.899871
vt 0.666655 0.835362
vt 0.326449 0.803346
vt 0.034679 0.768553
vt 0.036440 0.733807
vt 0.185313 0.818299
vt 0.071841 0.797317
vt 0.317680 0.828559
vt 0.767963 0.848288
vt 0.313230 0.828820
vt 0.893595 0.706423
vt 0.620680 0.744478
vt 0.880410 0.843187
vt 0.297040 0.716293
vt 0.035598 0.677861
vt 0.045633 0.700780
vt 0.325707 0.804797
vt 0.034679 0.768553
vt 0.036440 0.733807
vt 0.185313 0.818299
vt 0.071841 0.797317
vt 0.317680 0.828559
vt 0.893595 0.706423
vt 0.620680 0.744478
vt 0.666655 0.835362
vt 0.880410 0.843187
vt 0.302234 0.716417
vt 0.767963 0.848288
vt 0.630323 0.900132
vt 0.428645 0.899871
vt 0.313230 0.828820
vn 0.0000 -0.2682 0.9634
vn 0.0000 1.0000 0.0000
vn 0.0011 0.3620 0.9322
vn -0.0000 0.2838 0.9589
vn -0.0000 0.8524 0.5230
vn -0.0177 0.8529 0.5218
vn 0.0021 -0.0496 0.9988
vn -0.0011 0.3620 0.9322
vn 0.0019 -0.0523 0.9986
vn -0.6630 0.6146 0.4274
vn 0.0384 0.7710 0.6357
vn 0.0177 0.8529 0.5218
vn 0.0000 0.9574 0.2889
vn 0.0000 0.9829 -0.1839
vn -0.0201 0.9259 0.3773
vn 0.0030 0.2582 0.9661
vn -0.0007 -0.2977 -0.9547
vn -0.0061 -0.2044 -0.9789
vn -0.0065 -0.1978 -0.9802
vn -0.2030 0.5487 0.8110
vn -0.0019 -0.0523 0.9986
vn -0.0021 -0.0496 0.9988
vn 0.0000 0.0960 -0.9954
vn 0.0000 0.9828 -0.1849
vn 0.0000 0.9990 -0.0453
vn 0.0000 0.9574 0.2886
vn 0.2030 0.5487 0.8110
vn -0.0384 0.7710 0.6357
vn 0.0201 0.9259 0.3773
vn -0.0005 -0.3005 -0.9538
vn -0.0032 0.9906 0.1366
vn 0.0032 0.9906 0.1366
vn 0.9996 0.0266 0.0045
vn 0.9256 0.3764 0.0408
vn 0.7146 0.6985 0.0385
vn 0.9166 0.3965 0.0515
vn 0.8707 0.4915 0.0168
vn 0.9717 0.2344 0.0302
vn 0.9921 -0.1198 0.0372
vn 0.9879 -0.1493 0.0414
vn 0.9853 0.1689 0.0236
vn 0.6862 -0.7273 -0.0116
vn 0.9977 -0.0675 0.0051
vn 0.8646 0.5024 0.0130
vn 0.9980 0.0636 0.0013
vn 0.9985 0.0543 0.0024
vn 0.9997 -0.0243 0.0005
vn -0.9996 0.0266 0.0045
vn -0.7146 0.6985 0.0385
vn -0.9256 0.3764 0.0408
vn -0.9717 0.2344 0.0302
vn -0.9921 -0.1198 0.0372
vn -0.9879 -0.1493 0.0414
vn -0.9853 0.1689 0.0236
vn -0.6862 -0.7273 -0.0116
vn -0.9980 0.0636 0.0013
vn -0.9985 0.0543 0.0024
vn -0.9997 -0.0243 0.0005
vn -0.9977 -0.0675 0.0051
vn -0.9166 0.3965 0.0515
vn -0.8707 0.4915 0.0168
vn -0.8646 0.5024 0.0130
s off
f 2/1/1 31/2/1 40/3/1 13/4/1
f 1/5/2 4/6/2 17/7/2
s 1
f 6/8/3 5/9/4 7/10/5 8/11/6
f 5/12/4 19/13/7 11/14/8
f 31/2/9 19/15/7 5/16/4
f 38/17/10 21/18/10 22/19/10
f 19/20/11 20/21/12 11/22/8
f 16/23/13 10/24/13 9/25/14 15/26/14
f 19/20/11 33/27/15 20/21/12
f 6/28/16 25/29/16 21/30/16 38/31/16
f 25/32/17 38/33/18 21/34/19
f 24/35/20 12/36/20 13/37/20
f 40/3/21 5/16/4 38/38/22
f 35/39/23 17/7/23 4/6/23 42/40/23
f 18/41/24 35/42/25 42/43/25 23/44/24
f 34/45/26 10/24/13 16/23/13 14/46/26
f 5/16/4 40/3/21 31/2/9
f 3/47/27 2/48/27 26/49/27
f 9/50/14 18/41/24 23/44/24 15/51/14
f 38/52/28 6/53/3 8/54/6
f 38/52/28 8/54/6 22/55/29
f 5/56/4 6/57/3 38/58/22
f 6/59/30 38/33/18 25/32/17
f 11/60/8 20/61/12 7/10/5 5/9/4
f 33/62/15 32/63/31 20/64/12
f 32/63/31 41/65/32 7/66/5
f 41/65/32 8/67/6 7/66/5
f 34/45/26 14/46/26 41/65/32 32/63/31
f 22/68/29 8/67/6 41/65/32
f 32/63/31 7/66/5 20/64/12
f 28/69/33 2/70/34 29/71/35
f 9/72/36 10/73/37 30/74/38
f 30/75/38 19/76/39 28/69/33
f 19/76/39 31/77/40 28/69/33
f 32/78/41 33/79/41 19/76/39 30/75/38
f 34/80/42 32/78/42 30/75/42
f 9/72/36 30/74/38 18/81/43
f 34/82/44 30/74/38 10/73/37
f 17/83/45 30/74/38 28/84/33
f 30/74/38 17/83/45 35/85/46
f 28/69/33 29/71/47 17/83/45
f 18/81/43 30/74/38 35/85/46
f 2/70/34 28/69/33 31/77/40
f 36/86/48 37/87/49 13/88/50
f 39/89/51 36/86/48 38/90/52
f 38/90/52 36/86/48 40/91/53
f 41/92/54 39/89/51 38/90/52 22/93/54
f 14/94/55 39/89/55 41/92/55
f 4/95/56 36/96/48 39/97/51
f 39/97/51 42/98/57 4/95/56
f 36/99/48 4/95/56 37/87/58
f 23/100/59 42/98/57 39/97/51
f 13/88/50 40/91/53 36/86/48
f 15/101/60 39/97/51 16/102/61
f 15/101/60 23/100/59 39/97/51
f 14/103/62 16/102/61 39/97/51
l 5 27
