# Blender v2.83.4 OBJ File: 'decos.blend'
# www.blender.org
o seagull-frame1_Sphere.002
v 0.052494 0.735900 -0.143140
v 0.000000 0.665967 -0.021392
v 0.000000 0.719509 -0.696252
v 0.000000 0.877751 -0.177792
v 0.000000 0.972219 0.418767
v 0.143414 0.776779 0.265096
v 0.000000 1.033520 0.176684
v 0.271723 0.997230 0.269219
v 0.200533 0.992953 0.191106
v 0.475356 1.254790 0.137032
v 0.461762 1.175639 0.277807
v 0.312868 0.806356 0.390977
v 0.580910 1.072117 0.282482
v 0.083307 0.824085 0.580645
v 0.000000 0.834555 0.661248
v 0.036007 0.791297 0.668026
v 0.147306 0.505795 -0.579873
v 0.000000 0.767742 0.667281
v 0.000000 0.714142 0.770394
v -0.036007 0.791297 0.668026
v -0.312868 0.806356 0.390977
v -0.580910 1.072117 0.282482
v -0.461762 1.175639 0.277806
v -0.271723 0.997230 0.269219
v -0.083307 0.824085 0.580645
v -1.005443 1.462708 0.230737
v -0.475356 1.254790 0.137032
v -0.200533 0.992953 0.191106
v -0.052494 0.735900 -0.143140
v -0.143414 0.776779 0.265096
v 0.000000 0.902421 0.607903
v 1.005443 1.462708 0.230737
v 0.000000 0.750862 0.363033
v 0.000000 0.802322 0.710633
v 0.000000 0.773414 0.511365
v -0.147306 0.505795 -0.579873
vt 0.210938 0.570312
vt 0.210938 0.570312
vt 0.210938 0.570312
vt 0.210938 0.570312
vt 0.210938 0.570312
vt 0.210938 0.570312
vt 0.210938 0.570312
vt 0.210938 0.570312
vt 0.210938 0.570312
vt 0.210938 0.570312
vt 0.210938 0.570312
vt 0.210938 0.570312
vt 0.210938 0.570312
vt 0.226562 0.570312
vt 0.226562 0.570312
vt 0.226562 0.570312
vt 0.210938 0.570312
vt 0.226562 0.570312
vt 0.226562 0.570312
vt 0.226562 0.570312
vt 0.210938 0.570312
vt 0.210938 0.570312
vt 0.210938 0.570312
vt 0.210938 0.570312
vt 0.226562 0.570312
vt 0.210938 0.570312
vt 0.210938 0.570312
vt 0.210938 0.570312
vt 0.210938 0.570312
vt 0.210938 0.570312
vt 0.210938 0.570312
vt 0.210938 0.570312
vt 0.210938 0.570312
vt 0.210938 0.570312
vt 0.210938 0.570312
vt 0.210938 0.570312
vt 0.226562 0.570312
vt 0.210938 0.570312
vt 0.210938 0.570312
vt 0.210938 0.570312
vn 0.9934 -0.0681 -0.0923
vn 0.8456 0.5175 0.1310
vn 0.6109 -0.6859 -0.3954
vn 0.1213 -0.3352 -0.9343
vn 0.6006 0.5853 0.5447
vn -0.9362 -0.3509 -0.0183
vn -0.5081 -0.7642 -0.3972
vn -0.1213 -0.3352 -0.9343
vn -0.5476 -0.8365 -0.0175
vn 0.0388 -0.0896 -0.9952
vn -0.6109 -0.6859 -0.3954
vn -0.3947 -0.8166 -0.4210
vn -0.9019 0.3799 -0.2055
vn -0.7055 0.6649 0.2454
vn 0.5476 -0.8365 -0.0175
vn 0.7151 -0.6932 -0.0899
vn 0.3947 -0.8166 -0.4210
vn 0.6424 0.4736 0.6025
vn 0.3080 -0.9290 0.2052
vn -0.0388 -0.0896 -0.9952
vn 0.5989 -0.3349 -0.7274
vn 0.6703 0.6215 0.4056
vn 0.6909 -0.3907 -0.6083
vn -0.8507 -0.5028 0.1535
vn 0.7550 0.3679 0.5428
vn -0.3080 -0.9290 0.2052
vn -0.3353 -0.9242 0.1826
vn -0.8456 0.5175 0.1310
vn 0.9019 0.3799 -0.2055
vn -0.6424 0.4736 0.6025
vn -0.7550 0.3679 0.5428
vn -0.7151 -0.6932 -0.0899
vn -0.8314 0.5505 0.0758
vn -0.9934 -0.0681 -0.0923
vn -0.5989 -0.3349 -0.7274
vn -0.6909 -0.3907 -0.6083
vn 0.8314 0.5505 0.0758
vn 0.3353 -0.9242 0.1826
vn 0.9362 -0.3509 -0.0183
vn 0.8507 -0.5028 0.1535
vn 0.5379 -0.8425 -0.0306
vn -0.6703 0.6215 0.4056
vn -0.5379 -0.8425 -0.0306
vn 0.7055 0.6649 0.2454
vn -0.6006 0.5853 0.5447
vn 0.5081 -0.7642 -0.3972
vn 0.5910 0.3966 0.7024
vn 0.3016 0.5502 0.7787
vn 0.3278 0.4653 0.8222
vn -0.5910 0.3966 0.7024
vn -0.3016 0.5502 0.7787
vn -0.3278 0.4653 0.8222
s 1
f 1/1/1 2/2/1 3/3/1 4/4/1
f 5/5/2 6/6/2 7/7/2
f 8/8/3 9/9/3 10/10/3 11/11/3
f 12/12/4 8/8/4 11/11/4 13/13/4
f 14/14/5 15/15/5 16/16/5
f 4/4/6 17/17/6 1/1/6
f 18/18/7 19/19/7 20/20/7
f 21/21/8 22/22/8 23/23/8 24/24/8
f 18/18/9 20/20/9 25/25/9
f 22/22/10 26/26/10 23/23/10
f 24/24/11 23/23/11 27/27/11 28/28/11
f 23/23/12 26/26/12 27/27/12
f 7/7/13 4/4/13 29/29/13 30/30/13
f 25/31/14 31/32/14 5/5/14
f 18/18/15 14/14/15 16/16/15
f 6/6/16 2/2/16 1/1/16
f 11/11/17 10/10/17 32/33/17
f 15/34/18 14/35/18 31/32/18
f 6/6/19 33/36/19 2/2/19
f 13/13/20 11/11/20 32/33/20
f 6/6/21 8/8/21 12/12/21
f 16/16/22 15/15/22 34/37/22
f 6/6/23 9/9/23 8/8/23
f 3/3/24 17/17/24 4/4/24
f 16/16/25 34/37/25 19/19/25
f 30/30/26 2/2/26 33/36/26
f 35/38/27 25/31/27 30/30/27 33/36/27
f 5/5/28 7/7/28 30/30/28
f 7/7/29 6/6/29 1/1/29 4/4/29
f 15/34/30 31/32/30 25/31/30
f 20/20/31 19/19/31 34/37/31
f 30/30/32 29/29/32 2/2/32
f 25/31/33 5/5/33 30/30/33
f 29/29/34 4/4/34 3/3/34 2/2/34
f 30/30/35 21/21/35 24/24/35
f 30/30/36 24/24/36 28/28/36
f 14/35/37 6/6/37 5/5/37
f 35/38/38 33/36/38 6/6/38 14/35/38
f 4/4/39 29/29/39 36/39/39
f 3/3/40 4/4/40 36/39/40
f 35/38/41 14/35/41 18/40/41
f 20/20/42 34/37/42 15/15/42
f 35/38/43 18/40/43 25/31/43
f 14/35/44 5/5/44 31/32/44
f 25/25/45 20/20/45 15/15/45
f 18/18/46 16/16/46 19/19/46
f 30/30/47 28/28/47 21/21/47
f 22/22/48 21/21/48 28/28/48 27/27/48
f 27/27/49 26/26/49 22/22/49
f 6/6/50 12/12/50 9/9/50
f 13/13/51 10/10/51 9/9/51 12/12/51
f 10/10/52 13/13/52 32/33/52
o seagull-frame2_Sphere.008
v 0.052494 0.752402 -0.143160
v 0.000000 0.684485 -0.019957
v 0.000000 0.793535 -0.691333
v 0.000000 0.899931 -0.177022
v 0.000000 0.976234 0.426315
v 0.134361 0.796218 0.268282
v 0.000000 1.054425 0.183195
v 0.358166 0.856825 0.161903
v 0.280387 0.922651 0.133526
v 0.581060 0.925307 -0.104378
v 0.586507 0.845234 0.036426
v 0.304050 0.667908 0.281619
v 0.577587 0.691656 0.000799
v 0.083307 0.815055 0.575563
v 0.000000 0.818890 0.656752
v 0.036007 0.775223 0.659966
v 0.147306 0.570245 -0.598377
v 0.000000 0.751808 0.657295
v 0.000000 0.689945 0.755673
v -0.036007 0.775223 0.659966
v -0.304050 0.667908 0.281619
v -0.577587 0.691657 0.000799
v -0.586507 0.845234 0.036426
v -0.358166 0.856825 0.161902
v -0.083307 0.815055 0.575563
v -1.047685 0.678280 -0.337279
v -0.581060 0.925307 -0.104378
v -0.280387 0.922651 0.133526
v -0.052494 0.752402 -0.143160
v -0.134361 0.796218 0.268282
v 0.000000 0.890896 0.609143
v 1.047684 0.678280 -0.337279
v 0.000000 0.786490 0.374419
v 0.000000 0.782722 0.703332
v 0.000000 0.770227 0.502366
v -0.147306 0.570245 -0.598377
vt 0.242188 0.570312
vt 0.242188 0.570312
vt 0.242188 0.570312
vt 0.242188 0.570312
vt 0.242188 0.570312
vt 0.242188 0.570312
vt 0.242188 0.570312
vt 0.242188 0.570312
vt 0.242188 0.570312
vt 0.242188 0.570312
vt 0.242188 0.570312
vt 0.242188 0.570312
vt 0.242188 0.570312
vt 0.257812 0.570312
vt 0.257812 0.570312
vt 0.257812 0.570312
vt 0.242188 0.570312
vt 0.257812 0.570312
vt 0.257812 0.570312
vt 0.257812 0.570312
vt 0.242188 0.570312
vt 0.242188 0.570312
vt 0.242188 0.570312
vt 0.242188 0.570312
vt 0.257812 0.570312
vt 0.242188 0.570312
vt 0.242188 0.570312
vt 0.242188 0.570312
vt 0.242188 0.570312
vt 0.242188 0.570312
vt 0.242188 0.570312
vt 0.242188 0.570312
vt 0.242188 0.570312
vt 0.242188 0.570312
vt 0.242188 0.570312
vt 0.242188 0.570312
vt 0.257812 0.570312
vt 0.242188 0.570312
vt 0.242188 0.570312
vt 0.242188 0.570312
vn 0.9922 -0.0733 -0.1005
vn 0.8532 0.4966 0.1597
vn -0.3583 -0.7869 -0.5023
vn -0.6263 -0.0752 -0.7759
vn 0.6006 0.5387 0.5908
vn -0.9365 -0.3462 -0.0565
vn -0.5081 -0.7291 -0.4585
vn 0.6263 -0.0752 -0.7759
vn -0.5476 -0.8323 -0.0859
vn 0.5658 0.2174 -0.7954
vn 0.3584 -0.7869 -0.5023
vn 0.5749 -0.7206 -0.3876
vn -0.9117 0.3641 -0.1903
vn -0.7055 0.6422 0.2998
vn 0.5476 -0.8323 -0.0859
vn 0.7231 -0.6871 -0.0707
vn -0.5749 -0.7206 -0.3876
vn 0.6424 0.4227 0.6392
vn 0.2588 -0.9352 0.2419
vn -0.5658 0.2174 -0.7954
vn -0.2783 -0.4560 -0.8454
vn 0.6703 0.5862 0.4551
vn -0.2122 -0.5874 -0.7810
vn -0.8498 -0.5162 0.1068
vn 0.7550 0.3222 0.5711
vn -0.2588 -0.9352 0.2419
vn -0.2479 -0.9682 0.0348
vn -0.8532 0.4966 0.1597
vn 0.9117 0.3641 -0.1903
vn -0.6424 0.4227 0.6392
vn -0.7550 0.3222 0.5711
vn -0.7231 -0.6871 -0.0707
vn -0.8395 0.5328 0.1068
vn -0.9922 -0.0733 -0.1005
vn 0.2783 -0.4560 -0.8454
vn 0.2122 -0.5874 -0.7810
vn 0.8395 0.5328 0.1068
vn 0.2479 -0.9682 0.0348
vn 0.9365 -0.3462 -0.0565
vn 0.8498 -0.5162 0.1068
vn 0.5379 -0.8371 -0.0995
vn -0.6703 0.5862 0.4551
vn -0.5379 -0.8371 -0.0995
vn 0.7055 0.6422 0.2998
vn -0.6006 0.5387 0.5908
vn 0.5081 -0.7291 -0.4585
vn -0.3137 0.4988 0.8079
vn -0.6089 0.3849 0.6936
vn -0.5565 0.3341 0.7607
vn 0.3137 0.4988 0.8079
vn 0.6089 0.3849 0.6936
vn 0.5565 0.3341 0.7607
s 1
f 37/41/53 38/42/53 39/43/53 40/44/53
f 41/45/54 42/46/54 43/47/54
f 44/48/55 45/49/55 46/50/55 47/51/55
f 48/52/56 44/48/56 47/51/56 49/53/56
f 50/54/57 51/55/57 52/56/57
f 40/44/58 53/57/58 37/41/58
f 54/58/59 55/59/59 56/60/59
f 57/61/60 58/62/60 59/63/60 60/64/60
f 54/58/61 56/60/61 61/65/61
f 58/62/62 62/66/62 59/63/62
f 60/64/63 59/63/63 63/67/63 64/68/63
f 59/63/64 62/66/64 63/67/64
f 43/47/65 40/44/65 65/69/65 66/70/65
f 61/71/66 67/72/66 41/45/66
f 54/58/67 50/54/67 52/56/67
f 42/46/68 38/42/68 37/41/68
f 47/51/69 46/50/69 68/73/69
f 51/74/70 50/75/70 67/72/70
f 42/46/71 69/76/71 38/42/71
f 49/53/72 47/51/72 68/73/72
f 42/46/73 44/48/73 48/52/73
f 52/56/74 51/55/74 70/77/74
f 42/46/75 45/49/75 44/48/75
f 39/43/76 53/57/76 40/44/76
f 52/56/77 70/77/77 55/59/77
f 66/70/78 38/42/78 69/76/78
f 71/78/79 61/71/79 66/70/79 69/76/79
f 41/45/80 43/47/80 66/70/80
f 43/47/81 42/46/81 37/41/81 40/44/81
f 51/74/82 67/72/82 61/71/82
f 56/60/83 55/59/83 70/77/83
f 66/70/84 65/69/84 38/42/84
f 61/71/85 41/45/85 66/70/85
f 65/69/86 40/44/86 39/43/86 38/42/86
f 66/70/87 57/61/87 60/64/87
f 66/70/88 60/64/88 64/68/88
f 50/75/89 42/46/89 41/45/89
f 71/78/90 69/76/90 42/46/90 50/75/90
f 40/44/91 65/69/91 72/79/91
f 39/43/92 40/44/92 72/79/92
f 71/78/93 50/75/93 54/80/93
f 56/60/94 70/77/94 51/55/94
f 71/78/95 54/80/95 61/71/95
f 50/75/96 41/45/96 67/72/96
f 61/65/97 56/60/97 51/55/97
f 54/58/98 52/56/98 55/59/98
f 66/70/99 64/68/99 57/61/99
f 58/62/100 57/61/100 64/68/100 63/67/100
f 63/67/101 62/66/101 58/62/101
f 42/46/102 48/52/102 45/49/102
f 49/53/103 46/50/103 45/49/103 48/52/103
f 46/50/104 49/53/104 68/73/104
o seagull-frame3_Sphere.009
v 0.052494 0.768904 -0.143180
v 0.000000 0.700025 -0.021956
v 0.000000 0.660381 -0.671185
v 0.000000 0.908009 -0.176582
v 0.000000 1.005128 0.415527
v 0.137834 0.800488 0.267181
v 0.000000 1.037636 0.166220
v 0.330786 0.633632 0.264551
v 0.312660 0.676492 0.169565
v 0.508286 0.346979 0.156842
v 0.477296 0.420467 0.297932
v 0.181372 0.675705 0.434421
v 0.365325 0.334896 0.369170
v 0.083307 0.863505 0.583593
v 0.000000 0.876726 0.663790
v 0.036007 0.833725 0.672044
v 0.147306 0.474886 -0.523914
v 0.000000 0.810159 0.672105
v 0.000000 0.760118 0.776992
v -0.036007 0.833725 0.672044
v -0.181372 0.675705 0.434421
v -0.365325 0.334896 0.369170
v -0.477297 0.420467 0.297931
v -0.330786 0.633631 0.264551
v -0.083307 0.863505 0.583593
v -0.663894 -0.161260 0.381525
v -0.508286 0.346979 0.156842
v -0.312660 0.676492 0.169565
v -0.052494 0.768904 -0.143180
v -0.137834 0.800488 0.267181
v 0.000000 0.942728 0.608155
v 0.663894 -0.161260 0.381525
v 0.000000 0.836323 0.351964
v 0.000000 0.846201 0.714249
v 0.000000 0.810493 0.516086
v -0.147306 0.474886 -0.523914
vt 0.273438 0.570312
vt 0.273438 0.570312
vt 0.273438 0.570312
vt 0.273438 0.570312
vt 0.273438 0.570312
vt 0.273438 0.570312
vt 0.273438 0.570312
vt 0.273438 0.570312
vt 0.273438 0.570312
vt 0.273438 0.570312
vt 0.273438 0.570312
vt 0.273438 0.570312
vt 0.273438 0.570312
vt 0.289062 0.570312
vt 0.289062 0.570312
vt 0.289062 0.570312
vt 0.273438 0.570312
vt 0.289062 0.570312
vt 0.289062 0.570312
vt 0.289062 0.570312
vt 0.273438 0.570312
vt 0.273438 0.570312
vt 0.273438 0.570312
vt 0.273438 0.570312
vt 0.289062 0.570312
vt 0.273438 0.570312
vt 0.273438 0.570312
vt 0.273438 0.570312
vt 0.273438 0.570312
vt 0.273438 0.570312
vt 0.273438 0.570312
vt 0.273438 0.570312
vt 0.273438 0.570312
vt 0.273438 0.570312
vt 0.273438 0.570312
vt 0.273438 0.570312
vt 0.289062 0.570312
vt 0.273438 0.570312
vt 0.273438 0.570312
vt 0.273438 0.570312
vn 0.9943 -0.0637 -0.0857
vn 0.8497 0.5229 0.0682
vn -0.8461 -0.5325 0.0230
vn -0.6119 -0.3235 -0.7217
vn 0.6006 0.6036 0.5244
vn -0.9377 -0.3458 0.0335
vn -0.5081 -0.7773 -0.3709
vn 0.6119 -0.3235 -0.7217
vn -0.5476 -0.8367 0.0111
vn 0.3771 -0.2491 -0.8920
vn 0.8461 -0.5325 0.0230
vn 0.9492 -0.3111 -0.0464
vn -0.9019 0.3899 -0.1857
vn -0.7055 0.6742 0.2184
vn 0.5476 -0.8367 0.0111
vn 0.7063 -0.7018 -0.0929
vn -0.9492 -0.3112 -0.0464
vn 0.6424 0.4939 0.5859
vn -0.0336 -0.9390 0.3423
vn -0.3771 -0.2491 -0.8920
vn -0.6120 -0.7019 -0.3644
vn 0.6703 0.6350 0.3841
vn -0.6411 -0.7380 -0.2107
vn -0.8440 -0.4796 0.2401
vn 0.7550 0.3862 0.5299
vn 0.0336 -0.9390 0.3423
vn -0.0839 -0.9927 0.0863
vn -0.8497 0.5229 0.0682
vn 0.9019 0.3899 -0.1857
vn -0.6424 0.4939 0.5859
vn -0.7550 0.3862 0.5299
vn -0.7063 -0.7018 -0.0929
vn -0.8412 0.5394 0.0375
vn -0.9943 -0.0637 -0.0857
vn 0.6120 -0.7019 -0.3644
vn 0.6411 -0.7380 -0.2107
vn 0.8412 0.5394 0.0375
vn 0.0839 -0.9927 0.0863
vn 0.9377 -0.3458 0.0335
vn 0.8440 -0.4796 0.2401
vn 0.5379 -0.8430 -0.0018
vn -0.6703 0.6350 0.3841
vn -0.5379 -0.8430 -0.0018
vn 0.7055 0.6742 0.2184
vn -0.6006 0.6036 0.5244
vn 0.5081 -0.7773 -0.3709
vn -0.6617 0.6732 0.3300
vn -0.7921 0.3944 0.4659
vn -0.7282 0.4511 0.5160
vn 0.6617 0.6732 0.3300
vn 0.7921 0.3944 0.4659
vn 0.7282 0.4511 0.5160
s 1
f 73/81/105 74/82/105 75/83/105 76/84/105
f 77/85/106 78/86/106 79/87/106
f 80/88/107 81/89/107 82/90/107 83/91/107
f 84/92/108 80/88/108 83/91/108 85/93/108
f 86/94/109 87/95/109 88/96/109
f 76/84/110 89/97/110 73/81/110
f 90/98/111 91/99/111 92/100/111
f 93/101/112 94/102/112 95/103/112 96/104/112
f 90/98/113 92/100/113 97/105/113
f 94/102/114 98/106/114 95/103/114
f 96/104/115 95/103/115 99/107/115 100/108/115
f 95/103/116 98/106/116 99/107/116
f 79/87/117 76/84/117 101/109/117 102/110/117
f 97/111/118 103/112/118 77/85/118
f 90/98/119 86/94/119 88/96/119
f 78/86/120 74/82/120 73/81/120
f 83/91/121 82/90/121 104/113/121
f 87/114/122 86/115/122 103/112/122
f 78/86/123 105/116/123 74/82/123
f 85/93/124 83/91/124 104/113/124
f 78/86/125 80/88/125 84/92/125
f 88/96/126 87/95/126 106/117/126
f 78/86/127 81/89/127 80/88/127
f 75/83/128 89/97/128 76/84/128
f 88/96/129 106/117/129 91/99/129
f 102/110/130 74/82/130 105/116/130
f 107/118/131 97/111/131 102/110/131 105/116/131
f 77/85/132 79/87/132 102/110/132
f 79/87/133 78/86/133 73/81/133 76/84/133
f 87/114/134 103/112/134 97/111/134
f 92/100/135 91/99/135 106/117/135
f 102/110/136 101/109/136 74/82/136
f 97/111/137 77/85/137 102/110/137
f 101/109/138 76/84/138 75/83/138 74/82/138
f 102/110/139 93/101/139 96/104/139
f 102/110/140 96/104/140 100/108/140
f 86/115/141 78/86/141 77/85/141
f 107/118/142 105/116/142 78/86/142 86/115/142
f 76/84/143 101/109/143 108/119/143
f 75/83/144 76/84/144 108/119/144
f 107/118/145 86/115/145 90/120/145
f 92/100/146 106/117/146 87/95/146
f 107/118/147 90/120/147 97/111/147
f 86/115/148 77/85/148 103/112/148
f 97/105/149 92/100/149 87/95/149
f 90/98/150 88/96/150 91/99/150
f 102/110/151 100/108/151 93/101/151
f 94/102/152 93/101/152 100/108/152 99/107/152
f 99/107/153 98/106/153 94/102/153
f 78/86/154 84/92/154 81/89/154
f 85/93/155 82/90/155 81/89/155 84/92/155
f 82/90/156 85/93/156 104/113/156
