# Blender v2.90.0 Alpha OBJ File: ''
# www.blender.org
o BoxTruck_Cube.007
v -0.934844 2.010430 1.165569
v -0.785405 0.388597 1.165569
v -0.785406 1.363073 2.650117
v 0.785405 1.118001 3.417730
v 0.785406 1.363073 2.650117
v -0.785405 1.118001 3.417730
v -0.785405 0.388596 3.290730
v 0.785405 0.388596 3.290730
v -0.785406 2.010430 2.073225
v 0.785406 2.010430 2.073225
v 0.934844 2.010430 1.165569
v -0.978069 0.403679 3.225689
v -0.978069 0.806767 2.822602
v -0.978069 0.403680 2.419514
v -0.978069 0.000592 2.822602
v -0.978070 0.403680 -1.230671
v -0.978070 0.806767 -1.633759
v -0.978070 0.403680 -2.036846
v -0.978070 0.000592 -1.633759
v 0.785405 0.388597 1.165569
v -0.947765 0.388598 -3.417734
v 0.947765 0.388598 -3.417734
v 0.793653 2.969236 1.992867
v 0.793653 2.969236 -3.417733
v -0.793653 2.969236 -3.417733
v -0.793653 2.969236 1.992867
v 0.978069 0.403679 3.225689
v 0.978069 0.806767 2.822602
v 0.978069 0.403680 2.419514
v 0.978069 0.000592 2.822602
v 0.978070 0.403680 -1.230671
v 0.978070 0.806767 -1.633759
v 0.978070 0.403680 -2.036846
v 0.978070 0.000592 -1.633759
vt 0.736831 0.307672
vt 0.524100 0.307672
vt 0.651919 0.128243
vt 0.602219 0.714090
vt 0.524100 0.711533
vt 0.524100 0.608536
vt 0.602219 0.608536
vt 0.902887 0.849478
vt 0.783833 0.849478
vt 0.783833 0.746480
vt 0.902887 0.746480
vt 0.783833 0.987738
vt 0.783833 0.874002
vt 0.865127 0.874002
vt 0.865127 0.987738
vt 0.633830 0.608536
vt 0.730943 0.608536
vt 0.730943 0.714090
vt 0.633830 0.714090
vt 0.619774 0.012262
vt 0.651919 0.112948
vt 0.524100 0.028920
vt 0.736831 0.188617
vt 0.806315 0.244134
vt 0.828380 0.222069
vt 0.815455 0.222069
vt 0.837520 0.244134
vt 0.828380 0.253274
vt 0.806315 0.244134
vt 0.828380 0.222069
vt 0.815455 0.222069
vt 0.837520 0.244134
vt 0.828380 0.253274
vt 0.648143 0.128055
vt 0.261363 0.877530
vt 0.261363 0.994136
vt 0.028624 0.994136
vt 0.028624 0.877530
vt 0.245001 0.123727
vt 0.012262 0.721956
vt 0.012262 0.123727
vt 0.499575 0.012262
vt 0.499575 0.721956
vt 0.412194 0.721956
vt 0.412194 0.012262
vt 0.245001 0.012262
vt 0.350758 0.012262
vt 0.350758 0.721956
vt 0.524100 0.365399
vt 0.862595 0.365399
vt 0.862595 0.456490
vt 0.524100 0.456490
vt 0.755467 0.714292
vt 0.755467 0.608536
vt 0.850232 0.608536
vt 0.850232 0.714292
vt 0.736831 0.307672
vt 0.651919 0.128243
vt 0.524100 0.307672
vt 0.619774 0.012262
vt 0.524100 0.028920
vt 0.651919 0.112948
vt 0.736831 0.188617
vt 0.806315 0.244134
vt 0.815455 0.222069
vt 0.828380 0.222069
vt 0.837520 0.244134
vt 0.828380 0.253274
vt 0.806315 0.244134
vt 0.815455 0.222069
vt 0.828380 0.222069
vt 0.837520 0.244134
vt 0.828380 0.253274
vt 0.648143 0.128055
vt 0.245001 0.123727
vt 0.012262 0.123727
vt 0.012262 0.721956
vt 0.350758 0.012262
vt 0.245001 0.012262
vt 0.350758 0.721956
vn -0.9940 -0.0916 0.0601
vn -0.2192 0.9381 -0.2682
vn -0.2202 0.5699 0.7916
vn 0.0684 0.6313 0.7725
vn 0.5398 0.8320 -0.1279
vn 0.0000 1.0000 -0.0000
vn -0.0038 0.9684 0.2494
vn 0.9154 0.3899 0.1000
vn 0.7105 0.5107 0.4841
vn -0.1283 0.9915 0.0234
vn 0.0000 0.6653 0.7466
vn 0.3749 -0.6611 0.6499
vn 0.0000 -0.1715 0.9852
vn -0.0588 0.3944 0.9171
vn -0.5408 -0.3553 0.7624
vn -0.7537 -0.2258 -0.6172
vn -0.8364 -0.4411 0.3255
vn -1.0000 -0.0000 0.0000
vn -0.9765 0.1433 0.1608
vn -0.8364 -0.3556 -0.4172
vn 0.0000 -0.0000 1.0000
vn 0.5549 0.6649 0.5000
vn 0.9026 0.4055 0.1443
vn -0.9850 -0.1675 -0.0417
vn -0.9978 -0.0659 0.0112
vn -0.9958 -0.0916 -0.0002
vn -0.4365 0.8220 -0.3658
vn -0.3992 0.7856 0.4727
vn -0.9640 0.0378 0.2634
vn -0.9720 0.1720 0.1598
vn -0.9866 0.1462 0.0721
vn -0.9677 0.2519 -0.0042
vn -0.9520 0.3029 0.0441
vn -0.9892 0.1417 -0.0382
vn -0.9901 0.0603 -0.1265
vn -0.9953 0.0849 -0.0471
vn -0.9970 0.0555 -0.0535
vn 0.0000 0.0000 -1.0000
vn -0.4619 -0.4116 -0.7856
vn -0.0316 0.5291 -0.8480
vn 0.7151 0.6395 0.2824
vn -0.3679 -0.3646 0.8554
vn -0.0127 0.0009 0.9999
vn -0.0046 0.0001 1.0000
vn 0.9940 -0.0916 0.0601
vn 0.8261 0.0400 -0.5620
vn 0.8121 -0.4846 -0.3252
vn 0.8358 0.4737 -0.2776
vn 0.7837 -0.4593 0.4181
vn 0.8007 -0.5982 0.0308
vn 0.8441 0.5178 0.1393
vn 0.5144 0.3322 0.7906
vn 1.0000 0.0000 0.0000
vn 0.7837 -0.5028 -0.3647
vn 0.8358 0.0371 -0.5478
vn 0.7984 -0.4376 -0.4135
vn 0.5628 0.6580 0.5002
vn 0.8251 -0.0778 0.5596
vn 0.7183 0.1404 0.6815
vn 0.8466 -0.5283 -0.0653
vn 0.4327 -0.7184 -0.5447
vn 0.7287 0.6813 0.0700
vn 0.7876 0.0440 0.6146
vn 0.8443 -0.0912 -0.5281
vn 0.8063 0.0786 -0.5863
vn 0.8449 0.2273 0.4842
vn 0.8208 -0.4595 0.3393
s 1
f 1/1/1 2/2/1 3/3/1
f 4/4/2 5/5/3 3/6/4 6/7/5
f 1/8/6 9/9/6 10/10/7 11/11/8
f 5/12/9 10/13/10 9/14/11 3/15/11
f 6/16/12 7/17/13 8/18/14 4/19/15
f 6/20/16 3/21/17 7/22/18
f 3/3/19 9/23/19 1/1/19
f 13/24/18 15/25/18 12/26/18
f 15/27/18 13/24/18 14/28/18
f 17/29/18 19/30/18 16/31/18
f 19/32/18 17/29/18 18/33/18
f 3/34/20 2/2/18 7/22/18
f 2/35/21 20/36/22 11/37/23 1/38/21
f 1/39/24 21/40/25 2/41/26
f 23/42/27 24/43/28 25/44/6 26/45/6
f 1/39/29 9/46/30 26/47/31
f 1/39/32 26/47/33 25/48/34
f 1/39/35 25/48/36 21/40/37
f 21/49/38 25/50/38 24/51/39 22/52/40
f 10/53/41 23/54/42 26/55/43 9/56/44
f 11/57/45 5/58/46 20/59/45
f 4/60/47 8/61/48 5/62/49
f 5/58/50 11/57/51 10/63/52
f 28/64/53 27/65/53 30/66/53
f 30/67/53 29/68/53 28/64/53
f 32/69/53 31/70/53 34/71/53
f 34/72/53 33/73/53 32/69/53
f 5/74/54 8/61/55 20/59/53
f 11/75/56 20/76/57 22/77/58
f 11/75/59 23/78/60 10/79/61
f 11/75/62 24/80/63 23/78/64
f 11/75/65 22/77/66 24/80/67
