# Blender v2.82 (sub 6) OBJ File: 'Bus1.blend'
# www.blender.org
mtllib Bus1.mtl
o Cube.001
v 1.339095 1.711990 6.149005
v 1.339095 3.014154 -6.303138
v 1.339095 3.014152 6.040302
v 1.216175 1.711990 6.249588
v 1.216175 3.014152 6.140884
v 0.000000 3.014152 6.257514
v 0.000000 1.711990 6.366218
v 1.069369 0.544047 2.755788
v 1.069369 0.928105 2.914870
v 1.374288 0.928105 2.914870
v 1.374288 0.544047 2.755788
v 1.374288 0.544047 3.298927
v 1.374288 1.087188 3.298928
v 1.374288 0.928105 3.682985
v 1.374288 0.544047 3.842068
v 1.069369 0.928105 3.682986
v 1.069369 0.544047 3.842068
v 1.069369 0.000908 3.298927
v 1.374288 0.000908 3.298927
v 1.374288 0.159990 3.682986
v 1.069369 0.159990 3.682985
v 1.069369 1.087188 3.298928
v 1.069369 0.159990 2.914870
v 1.374288 0.159990 2.914870
v 1.069369 0.544048 -3.493025
v 1.069369 0.928106 -3.333943
v 1.374288 0.928106 -3.333943
v 1.374288 0.544048 -3.493025
v 1.374288 0.544048 -2.949886
v 1.374288 1.087189 -2.949885
v 1.374288 0.928106 -2.565828
v 1.374288 0.544048 -2.406745
v 1.069369 0.928106 -2.565828
v 1.069369 0.544048 -2.406745
v 1.069369 0.000909 -2.949886
v 1.374288 0.000909 -2.949886
v 1.374288 0.159991 -2.565828
v 1.069369 0.159991 -2.565828
v 1.069369 1.087189 -2.949885
v 1.069369 0.159991 -3.333943
v 1.374288 0.159991 -3.333943
v 1.216175 3.114736 -6.303138
v 1.216175 3.014154 -6.403719
v 1.339095 0.409830 -6.303138
v 1.216175 0.309248 -6.303138
v 1.216175 3.114734 6.040302
v 1.216175 0.309246 6.139946
v 1.339095 0.409828 6.139946
v 1.216175 0.409828 6.245813
v 0.000000 3.114736 -6.303138
v 0.000000 0.409828 6.362443
v 0.000000 0.309246 6.256577
v 1.330867 0.670262 -6.357060
v 1.330867 0.409830 -6.357060
v 1.265498 0.409830 -6.457642
v 1.265498 0.670262 -6.457642
v 1.216175 0.566838 6.341007
v 1.216175 0.321365 6.341007
v 1.339095 0.321365 6.235140
v 1.339095 0.566838 6.235140
v 0.000000 0.566838 6.457637
v 0.000000 0.321365 6.457637
v 1.339095 0.566838 6.144430
v 1.216175 0.566838 6.250296
v 1.339095 0.321365 6.144430
v 1.216175 0.321365 6.250296
v 0.000000 0.566838 6.366927
v 1.129490 3.114735 -2.527005
v 0.916456 3.436673 -2.527005
v 0.737090 3.519186 4.547905
v 0.737090 3.519188 -2.527005
v 0.763953 3.114734 4.693772
v 1.129490 3.114734 4.547905
v 0.916456 3.436672 4.547905
v 0.763953 3.114735 -2.672871
v 0.000000 3.114735 -2.672871
v 0.000000 3.519188 -2.527005
v 0.000000 3.114734 4.693772
v 0.000000 3.519186 4.547905
v 1.216175 0.670262 -6.403720
v 1.339095 0.670262 -6.303138
v 1.216175 0.409830 -6.403720
v 0.000000 0.670262 -6.403720
v 0.000000 0.670262 -6.457642
v 0.000000 0.409830 -6.457642
v 0.000000 0.321365 6.366927
v 0.000000 3.114733 6.156932
v -1.339095 1.711990 6.149005
v -1.339095 3.014152 6.040302
v -1.339095 3.014154 -6.303138
v -1.216175 1.711990 6.249588
v -1.216175 3.014152 6.140884
v -1.069369 0.544047 2.755788
v -1.374288 0.544047 2.755788
v -1.374288 0.928105 2.914870
v -1.069369 0.928105 2.914870
v -1.374288 0.544047 3.298927
v -1.374288 0.544047 3.842068
v -1.374288 0.928105 3.682985
v -1.374288 1.087188 3.298928
v -1.069369 0.544047 3.842068
v -1.069369 0.928105 3.682986
v -1.069369 0.000908 3.298927
v -1.069369 0.159990 3.682985
v -1.374288 0.159990 3.682986
v -1.374288 0.000908 3.298927
v -1.069369 1.087188 3.298928
v -1.069369 0.159990 2.914870
v -1.374288 0.159990 2.914870
v -1.069369 0.544048 -3.493025
v -1.374288 0.544048 -3.493025
v -1.374288 0.928106 -3.333943
v -1.069369 0.928106 -3.333943
v -1.374288 0.544048 -2.949886
v -1.374288 0.544048 -2.406745
v -1.374288 0.928106 -2.565828
v -1.374288 1.087189 -2.949885
v -1.069369 0.544048 -2.406745
v -1.069369 0.928106 -2.565828
v -1.069369 0.000909 -2.949886
v -1.069369 0.159991 -2.565828
v -1.374288 0.159991 -2.565828
v -1.374288 0.000909 -2.949886
v -1.069369 1.087189 -2.949885
v -1.069369 0.159991 -3.333943
v -1.374288 0.159991 -3.333943
v -1.216175 0.409830 -6.403720
v -1.216175 3.014154 -6.403719
v 0.000000 0.409830 -6.403720
v 0.000000 3.014154 -6.403719
v -1.216175 3.114734 6.040302
v -1.216175 0.309246 6.139946
v -1.216175 0.409828 6.245813
v -1.339095 0.409828 6.139946
v -1.216175 0.309248 -6.303138
v 0.000000 0.309248 -6.303138
v -1.339095 0.409830 -6.303138
v -1.216175 3.114736 -6.303138
v -1.330867 0.670262 -6.357060
v -1.265498 0.670262 -6.457642
v -1.265498 0.409830 -6.457642
v -1.330867 0.409830 -6.357060
v -1.216175 0.566838 6.341007
v -1.339095 0.566838 6.235140
v -1.339095 0.321365 6.235140
v -1.216175 0.321365 6.341007
v -1.339095 0.566838 6.144430
v -1.216175 0.566838 6.250296
v -1.339095 0.321365 6.144430
v -1.216175 0.321365 6.250296
v -1.129490 3.114735 -2.527005
v -0.916456 3.436673 -2.527005
v -0.737090 3.519188 -2.527005
v -0.737090 3.519186 4.547905
v -0.763953 3.114734 4.693772
v -0.916456 3.436672 4.547905
v -1.129490 3.114734 4.547905
v -0.763953 3.114735 -2.672871
v -1.216175 0.670262 -6.403720
v -1.339095 0.670262 -6.303138
vt 0.108753 0.005284
vt 0.005284 0.994716
vt 0.005284 0.013921
vt 0.708229 0.375168
vt 0.707107 0.476801
vt 0.605719 0.480471
vt 0.605273 0.373496
vt 0.727738 0.679947
vt 0.727738 0.733490
vt 0.694758 0.715982
vt 0.698143 0.691357
vt 0.666506 0.700984
vt 0.676257 0.732583
vt 0.650498 0.731138
vt 0.634868 0.710612
vt 0.637610 0.755416
vt 0.605273 0.722021
vt 0.649622 0.638479
vt 0.656754 0.669385
vt 0.638254 0.685986
vt 0.605273 0.668478
vt 0.683389 0.763490
vt 0.695401 0.646552
vt 0.682513 0.670831
vt 0.683389 0.502900
vt 0.727738 0.532900
vt 0.694758 0.550408
vt 0.676257 0.533806
vt 0.666506 0.565405
vt 0.698143 0.575033
vt 0.682513 0.595559
vt 0.656754 0.597005
vt 0.695401 0.619837
vt 0.649622 0.627911
vt 0.605273 0.544369
vt 0.634868 0.555778
vt 0.638254 0.580403
vt 0.605273 0.597911
vt 0.727738 0.586442
vt 0.637610 0.510974
vt 0.650498 0.535252
vt 0.627619 0.240382
vt 0.617023 0.232145
vt 0.627619 0.232145
vt 0.617023 0.018872
vt 0.627619 0.010635
vt 0.627619 0.018872
vt 0.719845 0.478954
vt 0.709393 0.487812
vt 0.711875 0.263798
vt 0.721824 0.273266
vt 0.708875 0.274840
vt 0.732456 0.240382
vt 0.732456 0.232145
vt 0.732456 0.018872
vt 0.732456 0.010635
vt 0.339640 0.005284
vt 0.339640 0.976314
vt 0.322692 0.976378
vt 0.322692 0.005348
vt 0.608607 0.267283
vt 0.610396 0.255128
vt 0.367031 0.969165
vt 0.367030 0.005354
vt 0.466991 0.005354
vt 0.222789 0.005348
vt 0.222789 0.985479
vt 0.350209 0.969095
vt 0.350208 0.005284
vt 0.721824 0.375612
vt 0.564722 0.763161
vt 0.548803 0.762748
vt 0.549810 0.755765
vt 0.563746 0.756743
vt 0.212221 0.006004
vt 0.212221 0.994716
vt 0.705115 0.803593
vt 0.706068 0.786136
vt 0.717997 0.786709
vt 0.716938 0.802989
vt 0.605273 0.803986
vt 0.605600 0.781953
vt 0.724980 0.806204
vt 0.709028 0.810533
vt 0.724980 0.783807
vt 0.710172 0.779285
vt 0.606047 0.811865
vt 0.578376 0.082853
vt 0.598335 0.090419
vt 0.586703 0.090419
vt 0.578376 0.464958
vt 0.536665 0.464958
vt 0.536665 0.457392
vt 0.576910 0.457392
vt 0.576910 0.090419
vt 0.586703 0.457392
vt 0.598335 0.457392
vt 0.536665 0.082853
vt 0.536665 0.090419
vt 0.568629 0.755044
vt 0.566322 0.766875
vt 0.546971 0.766836
vt 0.544822 0.754003
vt 0.575122 0.647526
vt 0.570593 0.647252
vt 0.543789 0.647252
vt 0.539303 0.647485
vt 0.606677 0.774057
vt 0.466991 0.978272
vt 0.606961 0.492332
vt 0.888251 0.001619
vt 0.992585 0.010328
vt 0.992585 0.999337
vt 0.708229 0.375168
vt 0.707107 0.476801
vt 0.727738 0.679947
vt 0.698143 0.691357
vt 0.694758 0.715982
vt 0.727738 0.733490
vt 0.666506 0.700984
vt 0.634868 0.710612
vt 0.650498 0.731138
vt 0.676257 0.732583
vt 0.605273 0.722021
vt 0.637610 0.755416
vt 0.649622 0.638479
vt 0.605273 0.668478
vt 0.638254 0.685986
vt 0.656754 0.669385
vt 0.683389 0.763490
vt 0.695401 0.646552
vt 0.682513 0.670831
vt 0.683389 0.502900
vt 0.676257 0.533806
vt 0.694758 0.550408
vt 0.727738 0.532900
vt 0.666506 0.565405
vt 0.656754 0.597005
vt 0.682513 0.595559
vt 0.698143 0.575033
vt 0.649622 0.627911
vt 0.695401 0.619837
vt 0.605273 0.544369
vt 0.605273 0.597911
vt 0.638254 0.580403
vt 0.634868 0.555778
vt 0.727738 0.586442
vt 0.637610 0.510974
vt 0.650498 0.535252
vt 0.617023 0.232145
vt 0.627619 0.232145
vt 0.627619 0.018872
vt 0.617023 0.018872
vt 0.719845 0.478954
vt 0.709393 0.487812
vt 0.711875 0.263798
vt 0.708875 0.274840
vt 0.721824 0.273266
vt 0.627619 0.010635
vt 0.627619 0.240382
vt 0.339640 0.005284
vt 0.322692 0.005348
vt 0.322692 0.976378
vt 0.339640 0.976314
vt 0.367031 0.969165
vt 0.367030 0.005354
vt 0.350208 0.005284
vt 0.350209 0.969095
vt 0.721824 0.375612
vt 0.564722 0.763161
vt 0.563746 0.756743
vt 0.549810 0.755765
vt 0.548803 0.762748
vt 0.783916 0.002344
vt 0.783916 0.999337
vt 0.705115 0.803593
vt 0.716938 0.802989
vt 0.717997 0.786709
vt 0.706068 0.786136
vt 0.724980 0.806204
vt 0.709028 0.810533
vt 0.724980 0.783807
vt 0.710172 0.779285
vt 0.494953 0.082853
vt 0.486627 0.090419
vt 0.474995 0.090419
vt 0.494953 0.464958
vt 0.496420 0.457392
vt 0.496420 0.090419
vt 0.486627 0.457392
vt 0.474995 0.457392
vt 0.568629 0.755044
vt 0.566322 0.766875
vt 0.546971 0.766836
vt 0.544822 0.754003
vn 1.0000 -0.0000 0.0000
vn 0.3808 0.0366 0.9239
vn 0.3407 0.3828 0.8587
vn 0.0000 0.4130 0.9107
vn -0.0000 0.0401 0.9992
vn 0.0000 0.0000 -1.0000
vn 0.0000 0.3827 -0.9239
vn 0.0000 -0.0000 1.0000
vn 0.0000 0.3827 0.9239
vn -0.0000 -0.9239 0.3827
vn 0.0000 1.0000 -0.0000
vn 0.0000 0.9239 0.3827
vn 0.0000 0.9239 -0.3827
vn 0.0000 -0.9239 -0.3827
vn -0.0000 -0.3827 0.9239
vn 0.0000 -0.3827 -0.9239
vn 0.0000 0.7071 -0.7071
vn 0.0000 0.7071 0.7071
vn 0.0000 -0.7071 0.7071
vn 0.0000 -0.7071 -0.7071
vn 0.6103 0.7459 -0.2668
vn 0.6973 0.5068 -0.5068
vn 0.6103 0.2668 -0.7459
vn 0.5008 -0.6120 -0.6120
vn 0.6072 0.2840 0.7421
vn 0.2579 0.6832 0.6832
vn 0.2627 -0.6995 0.6646
vn 0.6257 -0.2499 0.7390
vn 0.3479 -0.3573 0.8668
vn 0.0000 0.9675 -0.2527
vn 0.6333 -0.7739 -0.0000
vn -0.0000 -0.7250 0.6888
vn 0.0000 -1.0000 -0.0000
vn 0.6333 0.7739 0.0000
vn 0.6378 0.0309 0.7696
vn 0.9345 0.0000 -0.3559
vn 0.8385 0.0000 -0.5449
vn 0.0000 -0.0029 1.0000
vn 0.3925 0.0000 0.9198
vn 0.6526 0.0000 0.7577
vn 0.1507 0.3099 0.9387
vn 0.3600 0.2382 0.9020
vn 0.2420 0.3030 0.9218
vn 0.1507 0.3099 -0.9387
vn 0.0000 0.3393 -0.9407
vn 0.0641 0.3423 -0.9374
vn 0.4179 0.9085 0.0000
vn 0.6508 0.7592 0.0000
vn 0.8339 0.5518 0.0000
vn 0.2420 0.3030 -0.9218
vn 0.0000 0.3393 0.9407
vn 0.0641 0.3423 0.9374
vn 0.3600 0.2382 -0.9020
vn 0.9886 0.0000 -0.1509
vn 0.6333 0.0000 -0.7739
vn -1.0000 -0.0000 0.0000
vn -0.3808 0.0366 0.9239
vn -0.3407 0.3828 0.8587
vn -0.6149 0.2394 -0.7514
vn -0.3008 0.3472 -0.8883
vn -0.3362 0.0000 -0.9418
vn -0.6333 0.0000 -0.7739
vn -0.6072 0.2840 0.7421
vn -0.2579 0.6832 0.6832
vn -0.2627 -0.6995 0.6646
vn -0.3479 -0.3573 0.8668
vn -0.6257 -0.2499 0.7390
vn -0.2141 0.6907 -0.6907
vn -0.6333 -0.7739 -0.0000
vn -0.3263 0.9453 0.0000
vn -0.3362 0.9418 0.0000
vn -0.6333 0.7739 0.0000
vn -0.6378 0.0309 0.7696
vn -0.9345 0.0000 -0.3559
vn -0.8385 0.0000 -0.5449
vn -0.5008 -0.6120 -0.6120
vn -0.3925 0.0000 0.9198
vn -0.6526 0.0000 0.7577
vn -0.1507 0.3099 0.9387
vn -0.2420 0.3030 0.9218
vn -0.3600 0.2382 0.9020
vn -0.1507 0.3099 -0.9387
vn -0.0641 0.3423 -0.9374
vn -0.4179 0.9085 0.0000
vn -0.6508 0.7592 0.0000
vn -0.8339 0.5518 0.0000
vn -0.2420 0.3030 -0.9218
vn -0.0641 0.3423 0.9374
vn -0.3600 0.2382 -0.9020
vn -0.9886 0.0000 -0.1509
usemtl Material.001
s 1
f 1/1/1 2/2/1 3/3/1
f 4/4/2 5/5/3 6/6/4 7/7/5
f 8/8/6 9/9/7 10/10/7 11/11/6
f 12/12/1 13/13/1 14/14/1 15/15/1
f 15/15/8 14/14/9 16/16/9 17/17/8
f 18/18/10 19/19/10 20/20/10 21/21/10
f 13/13/11 22/22/11 16/16/12 14/14/12
f 10/10/13 9/9/13 22/22/11 13/13/11
f 23/23/14 24/24/14 19/19/14 18/18/14
f 11/11/1 10/10/1 13/13/1 12/12/1
f 24/24/1 11/11/1 12/12/1 19/19/1
f 20/20/15 15/15/8 17/17/8 21/21/15
f 19/19/1 12/12/1 15/15/1 20/20/1
f 23/23/16 8/8/6 11/11/6 24/24/16
f 25/25/7 26/26/17 27/27/17 28/28/7
f 29/29/1 30/30/1 31/31/1 32/32/1
f 32/32/9 31/31/18 33/33/18 34/34/9
f 35/35/10 36/36/10 37/37/19 38/38/19
f 30/30/12 39/39/12 33/33/18 31/31/18
f 27/27/17 26/26/17 39/39/13 30/30/13
f 40/40/20 41/41/20 36/36/14 35/35/14
f 28/28/1 27/27/1 30/30/1 29/29/1
f 41/41/1 28/28/1 29/29/1 36/36/1
f 37/37/19 32/32/15 34/34/15 38/38/19
f 36/36/1 29/29/1 32/32/1 37/37/1
f 40/40/20 25/25/16 28/28/16 41/41/20
f 42/42/21 2/43/22 43/44/23
f 44/45/24 45/46/24 82/47/24
f 3/48/25 46/49/26 5/5/3
f 47/50/27 48/51/28 49/52/29
f 50/53/30 42/42/13 43/44/7 130/54/7
f 129/55/20 82/47/20 45/46/20 136/56/20
f 44/57/31 48/58/31 47/59/31 45/60/31
f 49/52/29 51/61/32 52/62/32 47/50/27
f 46/63/11 42/64/13 50/65/30
f 136/66/33 47/59/33 52/67/33
f 46/63/34 3/68/34 2/69/22 42/64/21
f 4/4/2 49/52/29 48/51/28 1/70/35
f 5/5/3 4/4/2 1/70/35 3/48/25
f 53/71/36 54/72/36 55/73/37 56/74/37
f 129/55/6 130/54/7 43/44/7 82/47/6
f 48/75/1 44/76/1 1/1/1
f 49/52/29 4/4/2 7/7/5 51/61/38
f 1/1/1 44/76/1 2/2/1
f 57/77/39 58/78/39 59/79/40 60/80/40
f 58/78/39 57/77/39 61/81/8 62/82/8
f 63/83/11 64/84/11 57/77/11 60/80/11
f 65/85/1 63/83/1 60/80/1 59/79/1
f 66/86/33 65/85/33 59/79/33 58/78/33
f 64/84/11 67/87/11 61/81/11 57/77/11
f 72/88/41 73/89/42 74/90/43
f 75/91/44 76/92/45 77/93/45 71/94/46
f 70/95/47 74/90/48 69/96/48 71/94/47
f 73/89/49 68/97/49 69/96/48 74/90/48
f 75/91/44 71/94/46 69/96/50
f 78/98/51 72/88/41 70/95/52 79/99/51
f 79/99/11 70/95/11 71/94/11 77/93/11
f 68/97/53 75/91/44 69/96/50
f 70/95/52 72/88/41 74/90/43
f 80/100/11 81/101/11 53/71/11 56/74/11
f 81/101/54 44/102/54 54/72/36 53/71/36
f 44/102/33 82/103/33 55/73/33 54/72/33
f 83/104/11 80/100/11 56/74/11 84/105/11
f 85/106/6 84/105/6 56/74/6 55/73/6
f 2/43/22 44/45/55 82/47/55 43/44/23
f 82/103/33 129/107/33 85/106/33 55/73/33
f 86/108/33 66/86/33 58/78/33 62/82/33
f 45/60/33 47/59/33 136/66/33
f 87/109/11 46/63/11 50/65/30
f 6/6/4 5/5/3 46/49/26 87/110/18
f 88/111/56 89/112/56 90/113/56
f 91/114/57 7/7/5 6/6/4 92/115/58
f 93/116/6 94/117/6 95/118/7 96/119/7
f 97/120/56 98/121/56 99/122/56 100/123/56
f 98/121/8 101/124/8 102/125/9 99/122/9
f 103/126/10 104/127/10 105/128/10 106/129/10
f 100/123/11 99/122/12 102/125/12 107/130/11
f 95/118/13 100/123/11 107/130/11 96/119/13
f 108/131/14 103/126/14 106/129/14 109/132/14
f 94/117/56 97/120/56 100/123/56 95/118/56
f 109/132/56 106/129/56 97/120/56 94/117/56
f 105/128/15 104/127/15 101/124/8 98/121/8
f 106/129/56 105/128/56 98/121/56 97/120/56
f 108/131/16 109/132/16 94/117/6 93/116/6
f 110/133/7 111/134/7 112/135/17 113/136/17
f 114/137/56 115/138/56 116/139/56 117/140/56
f 115/138/9 118/141/9 119/142/18 116/139/18
f 120/143/10 121/144/19 122/145/19 123/146/10
f 117/140/12 116/139/18 119/142/18 124/147/12
f 112/135/17 117/140/13 124/147/13 113/136/17
f 125/148/20 120/143/14 123/146/14 126/149/20
f 111/134/56 114/137/56 117/140/56 112/135/56
f 126/149/56 123/146/56 114/137/56 111/134/56
f 122/145/19 121/144/19 118/141/15 115/138/15
f 123/146/56 122/145/56 115/138/56 114/137/56
f 125/148/20 126/149/20 111/134/16 110/133/16
f 90/150/59 128/151/60 127/152/61 137/153/62
f 129/55/6 127/152/61 128/151/60 130/54/7
f 89/154/63 92/115/58 131/155/64
f 132/156/65 133/157/66 134/158/67
f 129/55/20 136/56/20 135/159/20 127/152/20
f 50/53/17 130/54/7 128/151/60 138/160/68
f 137/161/69 135/162/69 132/163/69 134/164/69
f 133/157/66 132/156/65 52/62/32 51/61/32
f 131/165/70 50/65/30 138/166/71
f 136/66/33 52/67/33 132/163/33
f 131/165/70 138/166/71 90/167/72 89/168/72
f 91/114/57 88/169/73 134/158/67 133/157/66
f 92/115/58 89/154/63 88/169/73 91/114/57
f 139/170/74 140/171/75 141/172/75 142/173/74
f 137/153/76 127/152/76 135/159/76
f 134/174/56 88/111/56 137/175/56
f 133/157/66 51/61/38 7/7/5 91/114/57
f 88/111/56 90/113/56 137/175/56
f 143/176/77 144/177/78 145/178/78 146/179/77
f 146/179/77 62/82/8 61/81/8 143/176/77
f 147/180/11 144/177/11 143/176/11 148/181/11
f 149/182/56 145/178/56 144/177/56 147/180/56
f 150/183/33 146/179/33 145/178/33 149/182/33
f 148/181/11 143/176/11 61/81/11 67/87/11
f 155/184/79 156/185/80 157/186/81
f 158/187/82 153/188/83 77/93/45 76/92/45
f 154/189/84 153/188/84 152/190/85 156/185/85
f 157/186/86 156/185/85 152/190/85 151/191/86
f 158/187/82 152/190/87 153/188/83
f 78/98/51 79/99/51 154/189/88 155/184/79
f 79/99/11 77/93/11 153/188/11 154/189/11
f 151/191/89 152/190/87 158/187/82
f 154/189/88 156/185/80 155/184/79
f 159/192/11 140/171/11 139/170/11 160/193/11
f 160/193/90 139/170/74 142/173/74 137/194/90
f 137/194/33 142/173/33 141/172/33 127/195/33
f 83/104/11 84/105/11 140/171/11 159/192/11
f 85/106/6 141/172/6 140/171/6 84/105/6
f 138/160/68 128/151/60 90/150/59
f 127/195/33 141/172/33 85/106/33 129/107/33
f 86/108/33 62/82/33 146/179/33 150/183/33
f 135/162/33 136/66/33 132/163/33
f 87/109/11 50/65/30 131/165/70
f 6/6/4 87/110/18 131/155/64 92/115/58
