# Blender v2.90.0 Alpha OBJ File: ''
# www.blender.org
o Cube.002
v 0.000111 1.321773 -5.547580
v 1.183001 1.321773 -5.547580
v 0.000111 3.552108 -5.234177
v 0.000111 3.128048 4.536678
v 1.106529 3.131122 4.271142
v 0.742620 3.515018 -5.234177
v 1.111084 3.121997 -5.037954
v 1.111084 1.321771 4.271141
v 1.111084 2.515413 4.271142
v 1.111084 2.448630 5.040836
v 1.111084 1.335058 5.088700
v 1.111084 1.321773 -5.037955
v 0.000111 1.321773 -5.234177
v 0.000111 2.675013 4.593928
v 0.000111 2.620374 5.218429
v 1.183001 1.283463 5.158158
v 0.758472 0.271831 1.623402
v 0.758472 0.271831 -0.238431
v 0.975990 0.271831 -0.238431
v 0.975990 0.271831 1.623402
v 0.619262 0.833750 1.623402
v 1.115199 0.833750 1.623402
v 1.115199 0.833750 -0.238431
v 0.619262 0.833750 -0.238431
v 1.080688 0.527755 1.623402
v 1.080688 0.527755 -0.238431
v 1.183001 1.273268 4.326786
v 0.000111 0.037796 5.395967
v 0.000111 1.103905 5.194177
v 0.915573 0.877452 3.658915
v 0.915573 0.877453 2.605832
v 0.686824 1.303398 2.605832
v 0.686824 1.303397 3.658915
v 0.915573 0.150495 2.605832
v 0.915573 0.150494 3.658915
v -0.915350 0.877454 -2.926218
v -0.915350 0.150495 -2.926218
v 0.000111 0.931132 5.280995
v 0.000111 0.037796 5.482784
v 1.277072 0.931132 5.108638
v 1.277072 1.103905 5.108638
v 1.277072 0.037796 5.223609
v 1.277072 1.103905 5.021819
v 1.277072 0.037796 5.310427
v 0.000111 1.103905 5.280995
v -0.686601 1.303398 -2.926218
v 0.876193 0.332796 -1.850597
v 0.876193 1.177282 -1.850597
v 0.876193 1.177282 1.713920
v 0.876193 0.332796 1.713920
v 0.566871 0.332796 1.713920
v 0.566871 0.332796 -1.850597
v 0.566871 1.177282 -1.850597
v 0.566871 1.177282 1.713920
v -0.915350 0.150496 -3.979302
v -0.915350 0.877454 -3.979302
v 1.021477 0.817816 -2.920917
v 1.021477 0.630313 -2.920917
v 1.021477 0.662620 -3.455194
v 1.021477 0.780194 -3.455194
v 0.977113 0.786424 -3.458066
v 1.021477 0.817817 -3.989471
v 0.977113 0.827752 -3.950045
v 0.977113 0.638515 -3.458066
v 0.977113 0.591871 -3.950045
v 1.021477 0.630313 -3.989471
v 0.977113 0.591870 -2.966088
v -0.686601 1.303399 -3.979302
v 0.977113 0.827751 -2.966088
v 1.004623 0.623836 -5.398995
v 0.700199 0.623836 -5.398995
v 0.700199 0.987315 -5.398995
v 1.004623 0.987315 -5.398995
v 1.004623 0.623836 -4.200948
v 1.004623 0.987315 -4.200948
v 0.700199 0.987315 -4.200948
v 0.700199 0.623836 -4.200948
v -1.182779 1.321773 -5.547580
v -0.742397 3.515018 -5.234177
v -1.106307 3.131122 4.271142
v -1.110861 3.121997 -5.037954
v -1.110861 1.321771 4.271141
v -1.110861 1.335058 5.088700
v -1.110862 2.448630 5.040836
v -1.110861 2.515413 4.271142
v -1.110861 1.321773 -5.037955
v -0.758249 0.271831 1.623402
v -0.975767 0.271831 1.623402
v -0.975767 0.271831 -0.238431
v -0.758249 0.271831 -0.238431
v -0.619040 0.833750 1.623402
v -0.619040 0.833750 -0.238431
v -1.114977 0.833750 -0.238431
v -1.114977 0.833750 1.623402
v -1.080466 0.527755 1.623402
v -1.080466 0.527755 -0.238431
v -1.182779 1.283463 5.158158
v -1.182779 1.273268 4.326786
v -0.915350 0.877452 3.658915
v -0.686601 1.303397 3.658915
v -0.686601 1.303398 2.605832
v -0.915350 0.877453 2.605832
v -0.915350 0.150495 2.605832
v -0.915350 0.150494 3.658915
v 0.915573 0.877454 -3.979302
v 0.686824 1.303399 -3.979302
v -1.276849 1.103905 5.108638
v -1.276849 0.931132 5.108638
v -1.276849 0.037796 5.223609
v -1.276849 0.037796 5.310427
v -1.276849 1.103905 5.021819
v 0.915573 0.877454 -2.926218
v 0.686824 1.303398 -2.926218
v 0.915573 0.150496 -3.979302
v 0.915573 0.150495 -2.926218
v -0.875970 0.332796 -1.850597
v -0.875970 0.332796 1.713920
v -0.875970 1.177282 1.713920
v -0.875970 1.177282 -1.850597
v -0.566648 0.332796 -1.850597
v -0.566648 0.332796 1.713920
v -0.566648 1.177282 1.713920
v -0.566648 1.177282 -1.850597
v -0.976890 0.786424 -3.443614
v -0.976890 0.827752 -3.935592
v -1.021254 0.817817 -3.975019
v -1.021254 0.780194 -3.440742
v -1.021254 0.630313 -3.975019
v -1.021254 0.662620 -3.440742
v -0.976890 0.591871 -3.935592
v -0.976890 0.638515 -3.443614
v -0.976890 0.591870 -2.951635
v -0.976890 0.827751 -2.951635
v -1.021254 0.630313 -2.906464
v -1.021254 0.817816 -2.906464
v -1.004400 0.623836 -5.398995
v -1.004400 0.987315 -5.398995
v -0.699976 0.987315 -5.398995
v -0.699976 0.623836 -5.398995
v -1.004400 0.623836 -4.200948
v -0.699976 0.623836 -4.200948
v -0.699976 0.987315 -4.200948
v -1.004400 0.987315 -4.200948
vt 0.331496 0.003881
vt 0.331496 0.756102
vt 0.278318 0.739972
vt 0.279166 0.003881
vt 0.040544 0.788091
vt 0.003881 0.803284
vt 0.039942 0.067193
vt 0.159212 0.067193
vt 0.080529 0.067193
vt 0.084931 0.007588
vt 0.158336 0.003881
vt 0.159212 0.788091
vt 0.096239 0.788091
vt 0.548638 0.033579
vt 0.404063 0.034003
vt 0.485653 0.003907
vt 0.548625 0.003881
vt 0.847147 0.059005
vt 0.719891 0.053494
vt 0.719891 0.009076
vt 0.847147 0.004312
vt 0.401618 0.302217
vt 0.404331 0.228769
vt 0.484609 0.249022
vt 0.618010 0.569125
vt 0.473829 0.569125
vt 0.473829 0.553812
vt 0.618010 0.553812
vt 0.573363 0.516479
vt 0.538449 0.516479
vt 0.538450 0.372299
vt 0.573364 0.372299
vt 0.670160 0.006311
vt 0.690331 0.003881
vt 0.690331 0.038795
vt 0.512688 0.364537
vt 0.492372 0.364537
vt 0.492372 0.220356
vt 0.512688 0.220356
vt 0.689637 0.606662
vt 0.689637 0.641576
vt 0.669466 0.639147
vt 0.652596 0.616462
vt 0.652596 0.631776
vt 0.531098 0.364537
vt 0.531098 0.220356
vt 0.653290 0.013682
vt 0.653290 0.028995
vt 0.846625 0.116194
vt 0.719891 0.099180
vt 0.048278 0.788091
vt 0.047676 0.067193
vt 0.368798 0.567847
vt 0.382887 0.552806
vt 0.391364 0.569675
vt 0.384504 0.110115
vt 0.392487 0.103603
vt 0.385896 0.012048
vt 0.393924 0.003903
vt 0.401618 0.452998
vt 0.483169 0.452998
vt 0.483169 0.485365
vt 0.401618 0.485365
vt 0.483169 0.405078
vt 0.401618 0.405078
vt 0.591597 0.456850
vt 0.590401 0.531262
vt 0.581126 0.531016
vt 0.582385 0.456792
vt 0.694947 0.221160
vt 0.694947 0.295116
vt 0.689535 0.294313
vt 0.689535 0.220356
vt 0.695248 0.595908
vt 0.695248 0.537324
vt 0.698577 0.547558
vt 0.700589 0.597095
vt 0.700589 0.538511
vt 0.691423 0.086638
vt 0.691423 0.160596
vt 0.686012 0.161399
vt 0.686012 0.087441
vt 0.639757 0.530000
vt 0.641106 0.456059
vt 0.590401 0.531262
vt 0.644834 0.585909
vt 0.644834 0.641576
vt 0.368798 0.641576
vt 0.368798 0.585909
vt 0.339259 0.059548
vt 0.361035 0.059548
vt 0.361035 0.335585
vt 0.339259 0.335585
vt 0.339259 0.391252
vt 0.361035 0.391252
vt 0.361035 0.667288
vt 0.339259 0.667288
vt 0.361035 0.003881
vt 0.339259 0.003881
vt 0.483169 0.405078
vt 0.401618 0.405078
vt 0.401618 0.452998
vt 0.483169 0.452998
vt 0.672047 0.169908
vt 0.659882 0.169798
vt 0.662236 0.128207
vt 0.670072 0.128210
vt 0.673252 0.127985
vt 0.672043 0.086638
vt 0.675090 0.089754
vt 0.658704 0.127983
vt 0.655998 0.089856
vt 0.659913 0.086741
vt 0.655967 0.166229
vt 0.401618 0.485365
vt 0.483169 0.485365
vt 0.675090 0.166344
vt 0.654343 0.250934
vt 0.678613 0.220356
vt 0.678613 0.303631
vt 0.548638 0.086276
vt 0.401618 0.086276
vt 0.651814 0.342327
vt 0.651814 0.320895
vt 0.675774 0.320895
vt 0.675774 0.342327
vt 0.677250 0.067989
vt 0.653290 0.067989
vt 0.653290 0.046558
vt 0.677250 0.046558
vt 0.562114 0.649339
vt 0.562114 0.673299
vt 0.469337 0.673299
vt 0.469337 0.649339
vt 0.674769 0.448296
vt 0.653337 0.448296
vt 0.653337 0.355520
vt 0.674769 0.355520
vt 0.670300 0.548836
vt 0.648869 0.548836
vt 0.648869 0.456059
vt 0.670300 0.456059
vt 0.279166 0.003881
vt 0.278318 0.739972
vt 0.040544 0.788091
vt 0.004532 0.067190
vt 0.003881 0.803284
vt 0.159212 0.067193
vt 0.158336 0.003881
vt 0.084931 0.007588
vt 0.080529 0.067193
vt 0.159212 0.788091
vt 0.096239 0.788091
vt 0.548625 0.003881
vt 0.485653 0.003907
vt 0.404063 0.034003
vt 0.401618 0.302217
vt 0.484609 0.308002
vt 0.618010 0.569125
vt 0.618010 0.553812
vt 0.473829 0.553812
vt 0.473829 0.569125
vt 0.573363 0.516479
vt 0.573364 0.372299
vt 0.538450 0.372299
vt 0.538449 0.516479
vt 0.670160 0.006311
vt 0.690331 0.038795
vt 0.690331 0.003881
vt 0.512688 0.364537
vt 0.512688 0.220356
vt 0.492372 0.220356
vt 0.492372 0.364537
vt 0.689637 0.606662
vt 0.669466 0.639147
vt 0.689637 0.641576
vt 0.652596 0.616462
vt 0.652596 0.631776
vt 0.531098 0.364537
vt 0.531098 0.220356
vt 0.653290 0.013682
vt 0.653290 0.028995
vt 0.039942 0.067193
vt 0.391364 0.569675
vt 0.382887 0.552806
vt 0.682531 0.440602
vt 0.689273 0.443593
vt 0.689547 0.355381
vt 0.683748 0.357418
vt 0.392487 0.103603
vt 0.384504 0.110115
vt 0.393924 0.003903
vt 0.385896 0.012048
vt 0.401618 0.452998
vt 0.401618 0.485365
vt 0.483169 0.485365
vt 0.483169 0.452998
vt 0.483169 0.405078
vt 0.401618 0.405078
vt 0.581126 0.531016
vt 0.689535 0.294313
vt 0.694947 0.295116
vt 0.695248 0.595908
vt 0.700589 0.597095
vt 0.698577 0.547558
vt 0.695248 0.537324
vt 0.700589 0.538511
vt 0.691423 0.086638
vt 0.686012 0.087441
vt 0.483169 0.405078
vt 0.483169 0.452998
vt 0.401618 0.452998
vt 0.401618 0.405078
vt 0.644834 0.585909
vt 0.368798 0.585909
vt 0.368798 0.641576
vt 0.644834 0.641576
vt 0.339259 0.059548
vt 0.339259 0.335585
vt 0.361035 0.335585
vt 0.361035 0.059548
vt 0.339259 0.391252
vt 0.339259 0.667288
vt 0.361035 0.667288
vt 0.361035 0.391252
vt 0.361035 0.003881
vt 0.339259 0.003881
vt 0.483169 0.485365
vt 0.401618 0.485365
vt 0.679496 0.517921
vt 0.679701 0.462206
vt 0.684863 0.456059
vt 0.683273 0.518087
vt 0.682872 0.461437
vt 0.681324 0.518274
vt 0.687485 0.465785
vt 0.684571 0.518180
vt 0.686215 0.576352
vt 0.678063 0.574430
vt 0.679856 0.589368
vt 0.687485 0.582361
vt 0.639757 0.530000
vt 0.654343 0.303631
vt 0.678613 0.220356
vt 0.651814 0.342327
vt 0.675774 0.342327
vt 0.675774 0.320895
vt 0.651814 0.320895
vt 0.677250 0.067989
vt 0.677250 0.046558
vt 0.653290 0.046558
vt 0.653290 0.067989
vt 0.562114 0.649339
vt 0.469337 0.649339
vt 0.469337 0.673299
vt 0.562114 0.673299
vt 0.674769 0.448296
vt 0.674769 0.355520
vt 0.653337 0.355520
vt 0.653337 0.448296
vt 0.670300 0.548836
vt 0.670300 0.456059
vt 0.648869 0.456059
vt 0.648869 0.548836
vt 0.847147 0.059005
vt 0.847147 0.004312
vt 0.846625 0.116194
vt 0.404331 0.228769
vn 0.0000 1.0000 -0.0000
vn 0.0001 0.9939 0.1106
vn 0.6012 0.7936 0.0935
vn 0.0495 0.9988 -0.0000
vn 0.8870 0.4403 -0.1394
vn 0.8245 0.4269 -0.3714
vn 0.7334 0.6798 -0.0006
vn 1.0000 -0.0000 0.0000
vn 1.0000 0.0024 0.0002
vn 1.0000 -0.0003 -0.0000
vn -0.1804 0.0792 -0.9804
vn 0.4742 0.0009 -0.8804
vn 0.1658 0.9824 0.0856
vn -0.0000 0.9962 0.0868
vn 0.0000 0.9945 0.1048
vn 0.6499 0.7455 0.1477
vn 0.1724 0.1313 0.9762
vn 0.0000 -1.0000 -0.0000
vn -0.0000 -0.0000 1.0000
vn 0.9688 -0.2477 -0.0000
vn 0.9937 -0.1121 -0.0000
vn 0.0000 0.0000 -1.0000
vn 0.9255 -0.3786 -0.0000
vn 0.2596 0.0528 0.9643
vn -0.0000 0.0546 0.9985
vn 1.0000 0.0074 0.0005
vn 0.0257 0.9995 -0.0162
vn 0.0676 0.9899 -0.1248
vn 0.1412 0.9776 0.1558
vn 0.5591 0.8291 -0.0000
vn 0.5652 0.8249 -0.0037
vn 0.5720 0.8202 -0.0079
vn 0.0749 0.8901 0.4495
vn -0.0198 -0.9920 0.1244
vn 0.9698 0.2439 0.0000
vn 0.8810 0.4731 0.0000
vn 0.0000 0.1113 0.9938
vn 0.2095 0.1068 0.9720
vn 0.2107 -0.0000 0.9775
vn -0.2057 0.2156 0.9546
vn -0.0000 0.2203 0.9754
vn -0.2095 0.1068 0.9720
vn -1.0000 0.0000 0.0000
vn -0.9698 0.2439 0.0000
vn 0.9384 -0.3445 -0.0265
vn 0.8997 -0.4365 -0.0012
vn 0.2136 0.9769 0.0031
vn 0.2140 0.9768 -0.0030
vn 0.2086 0.9751 0.0750
vn 0.5956 -0.8033 0.0023
vn 0.5920 -0.8036 0.0618
vn 0.9321 -0.3613 0.0278
vn 0.5971 -0.7998 -0.0615
vn -0.8810 0.4731 0.0000
vn 0.2178 0.9731 -0.0749
vn -0.0495 0.9988 -0.0000
vn -0.7384 0.2970 0.6054
vn -0.8870 0.4403 -0.1394
vn -0.7334 0.6798 -0.0006
vn -0.8244 0.4272 -0.3714
vn -1.0000 0.0024 0.0002
vn -1.0000 -0.0003 -0.0000
vn -0.4742 0.0009 -0.8804
vn -0.2694 0.0866 0.9591
vn -0.9688 -0.2477 -0.0000
vn -0.9937 -0.1121 -0.0000
vn -0.9255 -0.3786 -0.0000
vn -1.0000 0.0074 0.0005
vn -0.1412 0.9776 0.1558
vn -0.0676 0.9899 -0.1248
vn -0.4000 0.8835 0.2438
vn -0.6790 0.5048 0.5330
vn -0.5591 0.8291 -0.0000
vn -0.5720 0.8202 -0.0079
vn -0.5652 0.8249 -0.0037
vn -0.2107 -0.0000 0.9775
vn -0.2136 0.9769 0.0031
vn -0.2086 0.9751 0.0750
vn -0.2140 0.9768 -0.0030
vn -0.9321 -0.3612 0.0278
vn -0.8997 -0.4365 -0.0012
vn -0.5920 -0.8036 0.0618
vn -0.5956 -0.8033 0.0023
vn -0.9384 -0.3445 -0.0265
vn -0.5971 -0.7998 -0.0615
vn -0.2178 0.9731 -0.0749
vn 0.2057 0.2156 0.9546
vn -0.1658 0.9824 0.0856
vn -0.6499 0.7455 0.1477
vn -0.2596 0.0528 0.9643
s 1
f 3/1/1 4/2/2 5/3/3 6/4/4
f 7/5/5 6/6/6 5/7/7
f 8/8/8 9/9/9 10/10/8 11/11/8
f 12/12/8 7/13/10 9/9/9 8/8/8
f 13/14/11 6/15/6 7/16/5 12/17/12
f 9/18/13 14/19/14 15/20/15 10/21/16
f 11/22/17 10/23/16 15/24/15
f 17/25/18 18/26/18 19/27/18 20/28/18
f 21/29/1 22/30/1 23/31/1 24/32/1
f 25/33/19 22/34/19 21/35/19
f 26/36/20 23/37/21 22/38/21 25/39/20
f 24/40/22 23/41/22 26/42/22
f 18/43/22 24/40/22 26/42/22 19/44/22
f 19/45/23 26/36/20 25/39/20 20/46/23
f 20/47/19 25/33/19 21/35/19 17/48/19
f 9/18/24 5/49/3 4/50/2 14/19/25
f 7/51/10 5/52/26 9/9/9
f 13/53/27 12/54/28 2/55/29
f 12/54/30 8/56/31 27/57/32 2/55/30
f 8/56/31 11/58/33 16/59/34 27/57/32
f 30/60/35 31/61/35 32/62/36 33/63/36
f 34/64/8 31/61/35 30/60/35 35/65/8
f 38/66/37 40/67/38 41/68/39 45/69/19
f 28/70/18 42/71/18 44/72/18 39/73/18
f 42/74/8 43/75/8 40/76/8 44/77/8
f 43/75/8 41/78/8 40/76/8
f 43/79/1 29/80/1 45/81/1 41/82/1
f 110/83/40 39/84/41 38/66/37 108/85/42
f 47/86/8 48/87/8 49/88/8 50/89/8
f 50/90/18 51/91/18 52/92/18 47/93/18
f 48/94/1 53/95/1 54/96/1 49/97/1
f 54/98/19 51/91/19 50/90/19 49/99/19
f 48/94/22 47/93/22 52/92/22 53/95/22
f 55/100/43 37/101/43 36/102/44 56/103/44
f 57/104/8 58/105/45 59/106/46 60/107/8
f 61/108/47 60/107/48 62/109/49 63/110/49
f 59/106/46 64/111/50 65/112/51 66/113/52
f 58/105/45 67/114/53 64/111/50 59/106/46
f 36/102/44 46/115/54 68/116/54 56/103/44
f 60/107/8 59/106/46 66/113/52 62/109/8
f 69/117/55 57/104/55 60/107/48 61/108/47
f 13/118/27 2/119/29 1/120/1
f 13/121/11 3/122/22 6/15/6
f 70/123/22 71/124/22 72/125/22 73/126/22
f 74/127/19 75/128/19 76/129/19 77/130/19
f 70/131/8 73/132/8 75/133/8 74/134/8
f 71/135/18 70/136/18 74/137/18 77/138/18
f 73/139/1 72/140/1 76/141/1 75/142/1
f 3/1/1 79/143/56 80/144/57 4/2/2
f 81/145/58 80/146/59 79/147/60
f 82/148/43 83/149/43 84/150/43 85/151/61
f 86/152/43 82/148/43 85/151/61 81/153/62
f 13/14/11 86/154/63 81/155/58 79/156/60
f 83/157/64 11/158/17 15/24/15
f 87/159/18 88/160/18 89/161/18 90/162/18
f 91/163/1 92/164/1 93/165/1 94/166/1
f 95/167/19 91/168/19 94/169/19
f 96/170/65 95/171/65 94/172/66 93/173/66
f 92/174/22 96/175/22 93/176/22
f 90/177/22 89/178/22 96/175/22 92/174/22
f 89/179/67 88/180/67 95/171/65 96/170/65
f 88/181/19 87/182/19 91/168/19 95/167/19
f 81/145/62 85/151/61 80/183/68
f 13/53/27 78/184/69 86/185/70
f 83/186/71 97/187/72 16/188/34 11/189/33
f 86/185/73 78/184/73 98/190/74 82/191/75
f 82/191/75 98/190/74 97/192/72 83/193/71
f 99/194/44 100/195/54 101/196/54 102/197/44
f 103/198/43 104/199/43 99/194/44 102/197/44
f 38/66/37 45/69/19 107/200/76 108/85/42
f 28/70/18 39/73/18 110/201/18 109/202/18
f 109/203/43 110/204/43 108/205/43 111/206/43
f 111/206/43 108/205/43 107/207/43
f 111/208/1 107/209/1 45/81/1 29/80/1
f 114/210/8 105/211/35 112/212/35 115/213/8
f 116/214/43 117/215/43 118/216/43 119/217/43
f 117/218/18 116/219/18 120/220/18 121/221/18
f 119/222/1 118/223/1 122/224/1 123/225/1
f 122/226/19 118/227/19 117/218/19 121/221/19
f 119/222/22 123/225/22 120/220/22 116/219/22
f 112/212/35 105/211/35 106/228/36 113/229/36
f 124/230/77 125/231/78 126/232/78 127/233/79
f 127/233/43 126/232/43 128/234/80 129/235/81
f 129/235/81 128/234/80 130/236/82 131/237/83
f 131/237/8 130/236/8 125/231/8 124/230/8
f 132/238/8 131/237/8 124/230/8 133/239/8
f 134/240/84 129/235/81 131/237/83 132/238/85
f 135/241/43 127/233/43 129/235/81 134/240/84
f 133/239/86 124/230/77 127/233/79 135/241/86
f 44/242/87 40/67/38 38/66/37 39/84/41
f 13/243/27 1/120/1 78/244/69
f 13/14/11 79/156/60 3/122/22
f 136/245/22 137/246/22 138/247/22 139/248/22
f 140/249/19 141/250/19 142/251/19 143/252/19
f 136/253/43 140/254/43 143/255/43 137/256/43
f 139/257/18 141/258/18 140/259/18 136/260/18
f 137/261/1 143/262/1 142/263/1 138/264/1
f 85/265/88 84/266/89 15/20/15 14/19/14
f 85/265/90 14/19/25 4/50/2 80/267/57
f 84/268/89 83/157/64 15/24/15
