# Blender v2.91.0 Beta OBJ File: 'model_downtown.blend'
# www.blender.org
o seagull-frame2_Sphere.008
v 0.050692 0.495969 1.369639
v 0.054989 0.572277 1.317799
v 0.000000 0.589129 1.402888
v 0.109036 0.533885 1.185089
v 0.101384 0.524213 1.282599
v 0.000000 0.428616 1.260746
v 0.000000 0.494844 1.441063
v 0.051826 0.425771 1.427337
v -0.155789 0.166572 -0.377774
v -0.086489 0.305871 0.017899
v -0.099560 0.291871 0.032810
v -0.180195 0.190681 -0.381567
v -0.099560 0.319871 0.002988
v -0.155789 0.214790 -0.385359
v -0.252067 0.387430 0.944243
v -0.761766 0.463172 0.591029
v -0.536003 0.265986 0.879908
v -0.155551 0.203628 -0.453154
v -0.131384 0.190681 -0.381567
v -0.125471 0.178953 -0.449273
v -0.109036 0.533885 1.185089
v 0.000000 0.407985 1.134526
v -0.390229 0.577584 0.473247
v -0.559242 0.579144 0.313330
v 0.000000 0.473623 1.475031
v -0.287280 0.422278 0.331544
v 0.000000 -0.056769 0.457115
v -0.279129 0.315856 0.604607
v 0.000000 0.753611 -0.550001
v 0.087912 0.551188 -0.733727
v 0.000000 0.671323 -0.958864
v 0.000000 0.684650 0.978090
v 0.145706 0.491091 1.098187
v 0.252067 0.387430 0.944243
v 0.536003 0.265986 0.879908
v 0.761766 0.463172 0.591029
v 0.000000 0.423406 1.342794
v 0.000000 0.388409 1.499052
v 0.021235 0.336607 1.458594
v 0.041476 0.379728 1.451983
v 0.000000 0.666629 0.747715
v 0.279129 0.315856 0.604607
v 0.000000 0.694408 0.609773
v 0.000000 0.716947 1.109607
v -0.155551 0.260036 -0.493962
v -0.155551 0.290119 -0.536047
v -0.235489 0.170302 -0.484879
v -0.021235 0.336607 1.458594
v 0.000000 0.281481 1.434551
v 0.000000 0.334202 1.480074
v -0.041476 0.379728 1.451983
v -0.155551 0.059405 -0.476007
v -0.155551 0.049645 -0.512358
v -0.054989 0.572277 1.317799
v 0.000000 0.688393 1.290844
v -0.087912 0.551188 -0.733727
v -0.394751 0.396464 -0.416596
v 0.000000 0.703845 1.177902
v -0.051826 0.425771 1.427337
v -0.112631 0.305871 0.017899
v -0.825730 0.553789 0.108241
v 0.000000 0.288567 0.944898
v -0.084964 0.171177 -0.481226
v 1.360413 0.006540 0.518472
v 1.517112 0.012429 0.266703
v 0.874690 0.282351 0.729057
v 0.394751 0.396464 -0.416596
v 0.326744 0.494906 -0.978331
v 0.000000 0.107066 0.786296
v -0.126033 0.613800 0.834687
v 0.000000 0.336950 1.439678
v 0.825730 0.553789 0.108241
v 0.559242 0.579144 0.313330
v -1.517112 0.012429 0.266703
v -1.714912 -0.015667 0.232945
v -1.360413 0.006540 0.518472
v -0.101384 0.524213 1.282599
v -0.874690 0.282351 0.729057
v 0.000000 0.363476 1.415338
v 0.287280 0.422278 0.331544
v -0.276286 0.546425 -1.102392
v -0.326744 0.494906 -0.978331
v 0.000000 0.024068 -0.247951
v -1.472853 0.407356 -0.200959
v -1.697860 0.175104 -0.055205
v 0.276286 0.546425 -1.102392
v 0.152833 0.577395 -1.272449
v 0.000000 -0.041256 0.224030
v 0.000000 0.703036 -0.551022
v -0.155551 0.154279 -0.445392
v 0.000000 0.741779 0.373390
v -0.050692 0.495969 1.369639
v -0.145706 0.491091 1.098187
v 0.155789 0.166572 -0.377774
v 0.086489 0.305871 0.017899
v 0.131384 0.190681 -0.381567
v 0.099560 0.319871 0.002988
v 0.155789 0.214790 -0.385359
v 0.180195 0.190681 -0.381567
v 0.112631 0.305871 0.017899
v 0.084964 0.171177 -0.481226
v 0.235489 0.170302 -0.484879
v 0.155551 0.049645 -0.512358
v 0.155551 0.260036 -0.493962
v 0.155551 0.290119 -0.536047
v 0.155551 0.059405 -0.476007
v 0.185632 0.178953 -0.449273
v 0.155551 0.154279 -0.445392
v 0.155551 0.203628 -0.453154
v 0.125471 0.178953 -0.449273
v -0.185632 0.178953 -0.449273
v 0.390229 0.577584 0.473247
v 1.714912 -0.015667 0.232945
v 1.697860 0.175104 -0.055205
v 1.472853 0.407356 -0.200959
v 0.126033 0.613800 0.834687
v 0.614851 0.101879 0.523365
v 0.659672 0.147448 0.032140
v 0.518372 0.341668 0.268855
v 0.527641 0.540397 0.931301
v 0.551023 0.859776 0.665306
v 0.782727 -0.731166 0.127440
v 0.702290 -0.638859 0.397600
v 0.896687 -0.888362 0.069504
v 0.420279 0.450715 0.449487
v 0.980999 -0.725442 -0.223862
v 0.967981 -0.394626 -0.351157
v 1.280289 1.054415 0.714721
v 1.406920 1.199263 0.488977
v 0.740634 0.827331 0.831123
v 0.589329 1.000550 0.191912
v 0.379008 0.792056 0.353205
v 0.356511 0.105159 0.849788
v 0.584732 -0.113232 0.654972
v 0.255083 0.646824 0.486215
v 1.552891 1.339768 0.486795
v 1.435195 1.464453 0.186268
v 1.138933 1.441050 -0.007365
v -0.614851 0.101879 0.523365
v -0.518372 0.341668 0.268855
v -0.659672 0.147448 0.032140
v -0.551023 0.859776 0.665306
v -0.527641 0.540397 0.931301
v -0.782727 -0.731166 0.127440
v -0.896687 -0.888362 0.069504
v -0.702290 -0.638859 0.397600
v -0.420279 0.450715 0.449487
v -0.967981 -0.394626 -0.351157
v -0.980999 -0.725442 -0.223862
v -1.280289 1.054415 0.714721
v -1.406920 1.199263 0.488977
v -0.740634 0.827331 0.831123
v -0.379008 0.792056 0.353205
v -0.589329 1.000550 0.191912
v -0.356511 0.105159 0.849788
v -0.584732 -0.113232 0.654972
v -0.255083 0.646824 0.486215
v -1.552891 1.339768 0.486795
v -1.138933 1.441050 -0.007365
v -1.435195 1.464453 0.186268
v -0.152833 0.577395 -1.272449
v 0.099560 0.291871 0.032810
vt 0.835938 0.445312
vt 0.835938 0.445312
vt 0.835938 0.445312
vt 0.835938 0.445312
vt 0.835938 0.445312
vt 0.835938 0.445312
vt 0.773438 0.476562
vt 0.773438 0.476562
vt 0.773438 0.476562
vt 0.773438 0.476562
vt 0.773438 0.476562
vt 0.773438 0.476562
vt 0.773438 0.476562
vt 0.773438 0.476562
vt 0.773438 0.476562
vt 0.257812 0.601562
vt 0.257812 0.601562
vt 0.257812 0.601562
vt 0.773438 0.476562
vt 0.773438 0.476562
vt 0.773438 0.476562
vt 0.835938 0.445312
vt 0.835938 0.445312
vt 0.257812 0.601562
vt 0.257812 0.601562
vt 0.773438 0.476562
vt 0.179688 0.882812
vt 0.179688 0.882812
vt 0.179688 0.882812
vt 0.179688 0.882812
vt 0.179688 0.882812
vt 0.179688 0.882812
vt 0.835938 0.445312
vt 0.835938 0.445312
vt 0.257812 0.601562
vt 0.257812 0.601562
vt 0.257812 0.601562
vt 0.835938 0.445312
vt 0.773438 0.476562
vt 0.773438 0.476562
vt 0.773438 0.476562
vt 0.179688 0.882812
vt 0.179688 0.882812
vt 0.179688 0.882812
vt 0.835938 0.445312
vt 0.773438 0.476562
vt 0.773438 0.476562
vt 0.773438 0.476562
vt 0.773438 0.476562
vt 0.773438 0.476562
vt 0.773438 0.476562
vt 0.773438 0.476562
vt 0.773438 0.476562
vt 0.773438 0.476562
vt 0.835938 0.445312
vt 0.835938 0.445312
vt 0.179688 0.882812
vt 0.179688 0.882812
vt 0.835938 0.445312
vt 0.773438 0.476562
vt 0.773438 0.476562
vt 0.257812 0.601562
vt 0.835938 0.445312
vt 0.773438 0.476562
vt 0.257812 0.601562
vt 0.257812 0.601562
vt 0.257812 0.601562
vt 0.179688 0.882812
vt 0.179688 0.882812
vt 0.179688 0.882812
vt 0.179688 0.882812
vt 0.179688 0.882812
vt 0.179688 0.882812
vt 0.773438 0.476562
vt 0.773438 0.476562
vt 0.773438 0.476562
vt 0.257812 0.601562
vt 0.257812 0.601562
vt 0.257812 0.601562
vt 0.257812 0.601562
vt 0.257812 0.601562
vt 0.835938 0.445312
vt 0.835938 0.445312
vt 0.773438 0.476562
vt 0.257812 0.601562
vt 0.773438 0.476562
vt 0.179688 0.882812
vt 0.179688 0.882812
vt 0.179688 0.882812
vt 0.179688 0.882812
vt 0.835938 0.445312
vt 0.257812 0.601562
vt 0.257812 0.601562
vt 0.179688 0.882812
vt 0.179688 0.882812
vt 0.179688 0.882812
vt 0.179688 0.882812
vt 0.773438 0.476562
vt 0.179688 0.882812
vt 0.773438 0.476562
vt 0.835938 0.445312
vt 0.773438 0.476562
vt 0.773438 0.476562
vt 0.773438 0.476562
vt 0.773438 0.476562
vt 0.773438 0.476562
vt 0.773438 0.476562
vt 0.773438 0.476562
vt 0.773438 0.476562
vt 0.773438 0.476562
vt 0.773438 0.476562
vt 0.773438 0.476562
vt 0.773438 0.476562
vt 0.773438 0.476562
vt 0.773438 0.476562
vt 0.773438 0.476562
vt 0.773438 0.476562
vt 0.773438 0.476562
vt 0.835938 0.445312
vt 0.835938 0.445312
vt 0.835938 0.445312
vt 0.773438 0.476562
vt 0.179688 0.882812
vt 0.835938 0.445312
vt 0.257812 0.601562
vt 0.257812 0.601562
vt 0.257812 0.601562
vt 0.257812 0.601562
vt 0.179688 0.882812
vt 0.835938 0.445312
vt 0.289062 0.601562
vt 0.289062 0.601562
vt 0.289062 0.601562
vt 0.273438 0.601562
vt 0.273438 0.601562
vt 0.273438 0.601562
vt 0.289062 0.601562
vt 0.289062 0.601562
vt 0.289062 0.601562
vt 0.289062 0.601562
vt 0.289062 0.601562
vt 0.289062 0.601562
vt 0.289062 0.601562
vt 0.273438 0.601562
vt 0.273438 0.601562
vt 0.273438 0.601562
vt 0.273438 0.601562
vt 0.273438 0.601562
vt 0.289062 0.601562
vt 0.289062 0.601562
vt 0.273438 0.601562
vt 0.273438 0.601562
vt 0.273438 0.601562
vt 0.273438 0.601562
vt 0.289062 0.601562
vt 0.289062 0.601562
vt 0.289062 0.601562
vt 0.273438 0.601562
vt 0.273438 0.601562
vt 0.273438 0.601562
vt 0.289062 0.601562
vt 0.289062 0.601562
vt 0.289062 0.601562
vt 0.289062 0.601562
vt 0.289062 0.601562
vt 0.289062 0.601562
vt 0.289062 0.601562
vt 0.273438 0.601562
vt 0.273438 0.601562
vt 0.273438 0.601562
vt 0.273438 0.601562
vt 0.273438 0.601562
vt 0.289062 0.601562
vt 0.289062 0.601562
vt 0.273438 0.601562
vt 0.273438 0.601562
vt 0.273438 0.601562
vt 0.273438 0.601562
vt 0.179688 0.882812
vt 0.773438 0.476562
vn 0.8306 0.2802 0.4813
vn 0.6880 -0.7255 -0.0180
vn 0.7281 0.4422 0.5237
vn 0.7724 -0.6293 0.0863
vn -0.7069 0.7019 -0.0876
vn -0.4067 0.5747 0.7101
vn 0.6383 0.7660 -0.0769
vn -0.7289 -0.6756 0.1104
vn -0.2162 0.9469 0.2378
vn 0.7858 0.5245 0.3277
vn -0.8203 -0.5408 -0.1863
vn 0.8792 0.4672 -0.0940
vn 0.7892 0.6133 0.0310
vn 0.4067 0.5747 0.7101
vn 0.6905 -0.7219 -0.0458
vn 0.7086 -0.2304 0.6669
vn 0.8000 0.5882 0.1185
vn 0.8736 0.4725 -0.1160
vn -0.6464 0.6207 0.4437
vn -0.6430 -0.5005 0.5797
vn -0.7086 -0.2304 0.6669
vn -0.8074 -0.5698 0.1530
vn -0.7822 0.4663 0.4131
vn -0.6898 0.6275 -0.3613
vn 0.8380 0.5407 0.0740
vn 0.8352 0.5402 0.1036
vn -0.7507 0.1792 0.6359
vn -0.6928 -0.6532 0.3055
vn -0.2520 0.9445 0.2107
vn -0.8736 0.4725 -0.1160
vn 0.0000 0.7290 0.6845
vn 0.5242 -0.7206 0.4538
vn 0.5170 0.7063 0.4835
vn -0.8614 0.4586 0.2182
vn 0.5891 0.7114 0.3833
vn 0.2686 0.6848 0.6774
vn 0.5796 0.6913 0.4314
vn 0.3439 0.9311 0.1215
vn 0.6681 -0.7156 0.2040
vn 0.8239 0.5131 -0.2406
vn -0.8794 0.4751 -0.0300
vn 0.5633 -0.7600 -0.3241
vn 0.6642 0.0688 -0.7444
vn 0.2520 0.9445 0.2107
vn -0.1600 0.9795 0.1225
vn -0.8000 0.5882 0.1185
vn -0.4266 0.9017 -0.0705
vn -0.5633 -0.7600 -0.3241
vn 0.8614 0.4586 0.2182
vn -0.8792 0.4672 -0.0940
vn -0.2686 0.6848 0.6774
vn 0.6826 -0.4582 -0.5693
vn 0.7547 0.1696 0.6338
vn -0.5796 0.6913 0.4314
vn 0.6924 -0.6459 0.3215
vn 0.8203 -0.5408 -0.1863
vn -0.4143 0.8879 0.2002
vn 0.7087 -0.6943 0.1258
vn 0.7644 0.6370 0.0992
vn -0.1484 0.9011 0.4073
vn -0.5141 0.7543 0.4084
vn 0.1554 0.9856 0.0667
vn -0.8551 -0.5135 -0.0711
vn -0.5940 0.6602 -0.4597
vn -0.0056 -0.4076 -0.9131
vn 0.6085 -0.3915 -0.6902
vn 0.6767 0.5989 0.4281
vn -0.3439 0.9311 0.1215
vn 0.7070 -0.6954 0.1289
vn -0.4694 -0.2712 0.8403
vn 0.7289 -0.6756 0.1104
vn 0.7464 0.6601 0.0844
vn 0.7457 0.6533 0.1309
vn -0.6905 0.4659 0.5533
vn -0.5242 -0.7206 0.4538
vn -0.6691 0.7431 0.0095
vn 0.6430 -0.5005 0.5797
vn -0.7071 -0.6966 0.1214
vn -0.6964 0.6609 -0.2797
vn 0.7069 0.7019 -0.0876
vn 0.6928 -0.6532 0.3055
vn -0.6642 0.0688 -0.7444
vn -0.0222 0.2360 -0.9715
vn 0.6464 0.6207 0.4437
vn 0.8074 -0.5698 0.1530
vn -0.6767 0.5989 0.4281
vn 0.4665 -0.4488 0.7622
vn -0.7816 0.5730 0.2466
vn 0.4694 -0.2712 0.8403
vn 0.0056 -0.4076 -0.9131
vn -0.6085 -0.3915 -0.6902
vn 0.3522 0.5486 0.7583
vn -0.5170 0.7063 0.4835
vn -0.4859 -0.4773 0.7322
vn -0.4864 -0.2683 0.8315
vn -0.6924 -0.6459 0.3215
vn -0.8380 0.5407 0.0740
vn -0.8401 -0.5239 0.1407
vn -0.7321 0.5803 0.3568
vn -0.5891 0.7114 0.3833
vn -0.7464 0.6601 0.0844
vn -0.8352 0.5402 0.1036
vn -0.7644 0.6370 0.0992
vn -0.6905 -0.7219 -0.0458
vn -0.8306 0.2802 0.4813
vn -0.3522 0.5486 0.7583
vn -0.6826 -0.4582 -0.5693
vn -0.2517 -0.6368 0.7288
vn 0.6898 0.6275 -0.3613
vn 0.4864 -0.2683 0.8315
vn 0.6691 0.7431 0.0095
vn -0.7921 0.2291 0.5658
vn 0.2162 0.9469 0.2378
vn 0.1600 0.9795 0.1225
vn 0.5141 0.7543 0.4084
vn 0.5836 0.5443 0.6027
vn 0.3121 0.9254 0.2150
vn 0.1484 0.9011 0.4073
vn 0.8401 -0.5239 0.1407
vn -0.6880 -0.7255 -0.0180
vn -0.5836 0.5443 0.6027
vn 0.7921 0.2291 0.5658
vn 0.6905 0.4659 0.5533
vn -0.7892 0.6133 0.0310
vn -0.3121 0.9254 0.2150
vn 0.5940 0.6602 -0.4597
vn 0.7321 0.5803 0.3568
vn 0.8794 0.4751 -0.0300
vn 0.4266 0.9017 -0.0705
vn 0.0245 -0.4064 -0.9134
vn -0.6376 -0.7488 0.1809
vn -0.4665 -0.4488 0.7622
vn 0.6376 -0.7488 0.1809
vn 0.6384 0.7654 -0.0813
vn -0.6383 0.7660 -0.0769
vn -0.6374 -0.7479 0.1852
vn 0.4859 -0.4773 0.7322
vn -0.7858 0.5245 0.3277
vn -0.7281 0.4422 0.5237
vn 0.7640 0.3326 0.5529
vn 0.7822 0.4663 0.4131
vn -0.7071 0.6973 -0.1173
vn 0.7575 0.6411 0.1230
vn -0.7575 0.6411 0.1230
vn -0.7640 0.3326 0.5529
vn 0.8681 0.4807 0.1238
vn -0.3112 0.6215 0.7189
vn 0.8169 0.5749 0.0468
vn 0.7911 0.5121 0.3345
vn 0.9434 0.1508 0.2953
vn -0.2608 0.8724 0.4134
vn -0.4759 0.5831 0.6583
vn -0.2579 0.8491 0.4610
vn -0.6212 0.7634 0.1768
vn 0.7819 0.0825 0.6180
vn 0.8972 0.4246 0.1213
vn 0.7585 0.2595 0.5977
vn 0.8484 0.5061 0.1552
vn 0.8698 -0.0576 0.4900
vn 0.9623 0.0690 0.2630
vn -0.6486 0.7349 0.1981
vn -0.6910 0.7191 0.0737
vn -0.3434 0.8380 0.4241
vn -0.1652 0.7494 0.6411
vn -0.5707 0.7986 0.1913
vn -0.6784 0.6412 0.3587
vn 0.9479 0.0588 0.3130
vn -0.8681 0.4807 0.1238
vn 0.3112 0.6215 0.7189
vn -0.8169 0.5749 0.0468
vn -0.7911 0.5121 0.3345
vn -0.9434 0.1508 0.2953
vn 0.2608 0.8724 0.4134
vn 0.4759 0.5831 0.6583
vn 0.2579 0.8491 0.4610
vn 0.6212 0.7634 0.1768
vn -0.7819 0.0825 0.6180
vn -0.8972 0.4246 0.1213
vn -0.7585 0.2595 0.5977
vn -0.8484 0.5061 0.1552
vn -0.8698 -0.0576 0.4900
vn -0.9623 0.0690 0.2630
vn 0.6486 0.7349 0.1981
vn 0.6910 0.7191 0.0737
vn 0.3434 0.8380 0.4241
vn 0.1652 0.7494 0.6411
vn 0.5707 0.7986 0.1913
vn 0.6784 0.6412 0.3587
vn -0.9479 0.0588 0.3130
vn 0.7071 -0.6966 0.1214
vn -0.7599 0.6475 -0.0582
vn 0.7071 0.6981 -0.1125
vn -0.5140 -0.6635 0.5436
vn -0.8531 -0.5207 -0.0347
vn 0.7043 -0.2346 0.6700
vn -0.7043 -0.2346 0.6700
vn -0.7547 0.1696 0.6338
vn -0.8291 -0.4929 0.2640
vn 0.2756 -0.6983 0.6606
vn 0.5092 0.5045 0.6973
vn 0.2517 -0.6368 0.7288
vn 0.6964 0.6609 -0.2797
vn 0.7319 -0.5253 -0.4340
vn 0.7507 0.1792 0.6359
vn 0.8531 -0.5207 -0.0347
vn -0.1554 0.9856 0.0667
vn 0.8551 -0.5135 -0.0711
vn 0.4143 0.8879 0.2002
vn -0.7087 -0.6943 0.1258
vn 0.6754 -0.4986 -0.5433
vn 0.6374 -0.7479 0.1852
vn 0.5140 -0.6635 0.5436
vn 0.7816 0.5730 0.2466
vn -0.2756 -0.6983 0.6606
vn -0.7724 -0.6293 0.0863
vn -0.8239 0.5131 -0.2406
vn 0.7599 0.6475 -0.0582
vn 0.8291 -0.4929 0.2640
vn -0.0245 -0.4064 -0.9134
vn -0.7457 0.6533 0.1309
vn -0.6754 -0.4986 -0.5433
vn 0.5463 0.5506 0.6312
vn -0.5092 0.5045 0.6973
vn -0.5463 0.5506 0.6312
vn -0.7319 -0.5253 -0.4340
vn -0.6681 -0.7156 0.2040
vn 0.0222 0.2360 -0.9715
vn -0.7070 -0.6962 0.1241
vn 0.7070 -0.6962 0.1241
vn 0.7071 0.6973 -0.1173
vn -0.7071 0.6981 -0.1125
vn -0.7070 -0.6954 0.1289
vn -0.6384 0.7654 -0.0813
s 1
f 1/1/1 2/2/1 3/3/1
f 4/4/2 5/5/2 6/6/2
f 1/7/3 7/8/3 8/9/3
f 9/10/4 10/11/4 11/12/4
f 12/13/5 13/14/5 14/15/5
f 15/16/6 16/17/6 17/18/6
f 18/19/7 19/20/7 20/21/7
f 21/22/8 22/23/8 6/6/8
f 16/17/9 23/24/9 24/25/9
f 8/9/10 7/8/10 25/26/10
f 26/27/11 27/28/11 28/29/11
f 29/30/12 30/31/12 31/32/12
f 32/33/13 4/4/13 33/34/13
f 34/35/14 35/36/14 36/37/14
f 6/6/15 5/5/15 37/38/15
f 38/39/16 39/40/16 40/41/16
f 41/42/17 42/43/17 43/44/17
f 4/4/18 32/33/18 44/45/18
f 45/46/19 46/47/19 47/48/19
f 48/49/20 49/50/20 50/51/20
f 48/49/21 38/39/21 51/52/21
f 52/53/22 47/48/22 53/54/22
f 54/55/23 3/3/23 55/56/23
f 29/30/24 56/57/24 57/58/24
f 55/56/25 4/4/25 58/59/25
f 58/59/26 4/4/26 44/45/26
f 59/60/27 38/39/27 25/26/27
f 9/10/28 60/61/28 12/13/28
f 16/17/29 24/25/29 61/62/29
f 21/22/30 44/45/30 32/33/30
f 60/61/31 10/11/31 13/14/31
f 62/63/32 33/34/32 22/23/32
f 63/64/33 18/19/33 20/21/33
f 21/22/34 54/55/34 55/56/34
f 64/65/35 65/66/35 36/37/35
f 35/36/36 66/67/36 36/37/36
f 66/67/37 64/65/37 36/37/37
f 67/68/38 68/69/38 30/31/38
f 34/70/39 69/71/39 42/43/39
f 19/20/40 13/14/40 10/11/40
f 15/72/41 70/73/41 28/29/41
f 37/74/42 5/75/42 8/9/42
f 71/76/43 39/40/43 49/50/43
f 36/37/44 72/77/44 73/78/44
f 74/79/45 75/80/45 76/81/45
f 41/42/46 43/44/46 28/29/46
f 41/82/47 70/83/47 32/33/47
f 37/74/48 59/60/48 77/84/48
f 4/4/49 55/56/49 2/2/49
f 29/30/50 31/32/50 56/57/50
f 17/18/51 16/17/51 78/85/51
f 79/86/52 8/9/52 40/41/52
f 8/9/53 38/39/53 40/41/53
f 78/85/54 16/17/54 76/81/54
f 42/43/55 69/71/55 27/28/55
f 27/28/56 80/87/56 42/43/56
f 56/57/57 81/88/57 82/89/57
f 80/87/58 83/90/58 67/68/58
f 34/91/59 32/33/59 33/34/59
f 16/17/60 15/16/60 23/24/60
f 16/17/61 84/92/61 85/93/61
f 30/31/62 86/94/62 87/95/62
f 26/27/63 83/90/63 88/96/63
f 28/29/64 70/73/64 41/42/64
f 83/90/65 89/97/65 67/68/65
f 71/76/66 40/41/66 39/40/66
f 63/64/67 46/47/67 45/46/67
f 57/58/68 56/57/68 82/89/68
f 90/98/69 19/20/69 9/10/69
f 90/98/70 47/48/70 52/53/70
f 22/23/71 4/4/71 6/6/71
f 91/99/72 80/87/72 67/68/72
f 43/44/73 80/87/73 91/99/73
f 77/84/74 59/60/74 92/100/74
f 93/101/75 62/63/75 22/23/75
f 29/30/76 57/58/76 91/99/76
f 39/40/77 50/51/77 49/50/77
f 94/102/78 95/103/78 96/104/78
f 96/104/79 97/105/79 98/106/79
f 97/105/80 99/107/80 98/106/80
f 100/108/81 94/102/81 99/107/81
f 71/76/82 49/50/82 48/49/82
f 95/103/31 100/108/31 97/105/31
f 101/109/83 102/110/83 103/111/83
f 104/112/84 102/110/84 105/113/84
f 106/114/85 103/111/85 102/110/85
f 101/109/86 104/112/86 105/113/86
f 107/115/87 108/116/87 102/110/87
f 43/44/88 26/27/88 28/29/88
f 108/116/89 106/114/89 102/110/89
f 83/90/90 57/58/90 89/97/90
f 51/52/91 71/76/91 48/49/91
f 107/115/92 104/112/92 109/117/92
f 109/117/93 101/109/93 110/118/93
f 108/116/94 110/118/94 101/109/94
f 106/114/95 108/116/95 101/109/95
f 28/29/96 27/28/96 69/71/96
f 55/56/97 58/59/97 21/22/97
f 103/111/98 106/114/98 101/109/98
f 32/33/99 70/83/99 15/119/99
f 76/81/100 16/17/100 74/79/100
f 91/99/101 57/58/101 26/27/101
f 58/59/102 44/45/102 21/22/102
f 15/119/103 93/101/103 32/33/103
f 6/6/104 37/38/104 77/120/104
f 92/121/105 3/3/105 54/55/105
f 45/46/106 111/122/106 18/19/106
f 59/60/107 79/86/107 51/52/107
f 15/72/108 69/71/108 62/123/108
f 29/30/109 67/68/109 30/31/109
f 52/53/110 63/64/110 90/98/110
f 29/30/111 91/99/111 67/68/111
f 7/124/112 3/3/112 92/121/112
f 36/37/113 73/78/113 112/125/113
f 65/66/114 64/65/114 113/126/114
f 36/37/115 114/127/115 115/128/115
f 36/37/116 65/66/116 114/127/116
f 72/77/117 36/37/117 115/128/117
f 36/37/118 112/125/118 34/35/118
f 53/54/119 63/64/119 52/53/119
f 21/22/120 6/6/120 77/120/120
f 16/17/121 85/93/121 74/79/121
f 7/124/122 1/1/122 3/3/122
f 5/75/123 1/7/123 8/9/123
f 32/33/124 93/101/124 21/22/124
f 61/62/125 84/92/125 16/17/125
f 42/43/126 41/42/126 116/129/126
f 32/33/127 34/91/127 116/130/127
f 34/70/128 42/43/128 116/129/128
f 41/82/129 32/33/129 116/130/129
f 63/64/130 47/48/130 46/47/130
f 90/98/131 12/13/131 111/122/131
f 111/122/132 47/48/132 90/98/132
f 99/107/133 108/116/133 107/115/133
f 109/117/134 99/107/134 107/115/134
f 96/104/135 109/117/135 110/118/135
f 108/116/136 96/104/136 110/118/136
f 90/98/137 63/64/137 20/21/137
f 59/60/138 25/26/138 7/8/138
f 92/100/139 59/60/139 7/8/139
f 1/1/140 5/5/140 2/2/140
f 2/2/141 55/56/141 3/3/141
f 18/19/142 12/13/142 14/15/142
f 5/5/143 4/4/143 2/2/143
f 77/120/144 54/55/144 21/22/144
f 92/121/145 54/55/145 77/120/145
f 117/131/146 118/132/146 119/133/146
f 34/134/147 120/135/147 121/136/147
f 122/137/148 123/138/148 124/139/148
f 117/131/149 125/140/149 34/141/149
f 117/131/150 126/142/150 127/143/150
f 128/144/151 129/145/151 121/136/151
f 120/135/152 130/146/152 121/136/152
f 130/146/153 128/144/153 121/136/153
f 121/136/154 131/147/154 132/148/154
f 34/141/155 133/149/155 117/131/155
f 118/132/156 117/131/156 127/143/156
f 133/149/157 134/150/157 117/131/157
f 117/131/158 119/133/158 125/140/158
f 117/131/159 122/137/159 126/142/159
f 123/138/160 122/137/160 117/131/160
f 121/136/161 132/148/161 135/151/161
f 129/145/162 128/144/162 136/152/162
f 121/136/163 137/153/163 138/154/163
f 121/136/164 129/145/164 137/153/164
f 131/147/165 121/136/165 138/154/165
f 121/136/166 135/151/166 34/134/166
f 134/150/167 123/138/167 117/131/167
f 139/155/168 140/156/168 141/157/168
f 15/158/169 142/159/169 143/160/169
f 144/161/170 145/162/170 146/163/170
f 139/155/171 15/164/171 147/165/171
f 139/155/172 148/166/172 149/167/172
f 150/168/173 142/159/173 151/169/173
f 143/160/174 142/159/174 152/170/174
f 152/170/175 142/159/175 150/168/175
f 142/159/176 153/171/176 154/172/176
f 15/164/177 139/155/177 155/173/177
f 141/157/178 148/166/178 139/155/178
f 155/173/179 139/155/179 156/174/179
f 139/155/180 147/165/180 140/156/180
f 139/155/181 149/167/181 144/161/181
f 146/163/182 139/155/182 144/161/182
f 142/159/183 157/175/183 153/171/183
f 151/169/184 158/176/184 150/168/184
f 142/159/185 159/177/185 160/178/185
f 142/159/186 160/178/186 151/169/186
f 154/172/187 159/177/187 142/159/187
f 142/159/188 15/158/188 157/175/188
f 156/174/189 139/155/189 146/163/189
f 9/10/190 19/20/190 10/11/190
f 12/13/191 60/61/191 13/14/191
f 18/19/192 14/15/192 19/20/192
f 21/22/193 93/101/193 22/23/193
f 26/27/194 88/96/194 27/28/194
f 38/39/195 50/51/195 39/40/195
f 48/49/196 50/51/196 38/39/196
f 59/60/197 51/52/197 38/39/197
f 9/10/198 11/12/198 60/61/198
f 60/61/31 11/12/31 10/11/31
f 62/63/199 34/91/199 33/34/199
f 63/64/200 45/46/200 18/19/200
f 34/70/201 62/123/201 69/71/201
f 19/20/202 14/15/202 13/14/202
f 79/86/203 37/74/203 8/9/203
f 8/9/204 25/26/204 38/39/204
f 27/28/205 88/96/205 80/87/205
f 56/57/206 161/179/206 81/88/206
f 80/87/207 88/96/207 83/90/207
f 30/31/208 68/69/208 86/94/208
f 26/27/209 57/58/209 83/90/209
f 71/76/210 79/86/210 40/41/210
f 90/98/211 20/21/211 19/20/211
f 22/23/212 33/34/212 4/4/212
f 43/44/213 42/43/213 80/87/213
f 93/101/214 15/119/214 62/63/214
f 94/102/215 162/180/215 95/103/215
f 96/104/216 95/103/216 97/105/216
f 97/105/217 100/108/217 99/107/217
f 100/108/218 162/180/218 94/102/218
f 95/103/31 162/180/31 100/108/31
f 101/109/219 105/113/219 102/110/219
f 43/44/220 91/99/220 26/27/220
f 51/52/221 79/86/221 71/76/221
f 107/115/222 102/110/222 104/112/222
f 109/117/223 104/112/223 101/109/223
f 45/46/224 47/48/224 111/122/224
f 59/60/225 37/74/225 79/86/225
f 15/72/226 28/29/226 69/71/226
f 63/64/227 53/54/227 47/48/227
f 90/98/228 9/10/228 12/13/228
f 99/107/229 94/102/229 108/116/229
f 109/117/230 98/106/230 99/107/230
f 96/104/231 98/106/231 109/117/231
f 108/116/232 94/102/232 96/104/232
f 18/19/233 111/122/233 12/13/233
