# Blender v2.91.0 Beta OBJ File: 'decos.blend'
# www.blender.org
o Cube.012_Cube.002
v 2.280895 0.940024 -0.959219
v 1.704113 1.160765 4.824173
v 1.508842 -0.493999 5.461744
v 2.228145 -0.653185 -2.811780
v -1.625860 1.133569 4.987110
v -0.022781 1.801645 9.091875
v 0.983841 0.934289 -3.642689
v 1.005697 3.846265 0.726170
v 0.885999 0.944194 0.770386
v 1.031917 3.801476 -2.877303
v -1.041139 3.845826 -2.889047
v -0.994851 3.845338 0.754722
v -0.983841 0.938932 -3.691329
v -0.923305 0.944194 0.712946
v 0.000000 0.007138 8.189871
v -1.477274 -0.496323 5.426737
v -0.000001 0.142125 -8.358517
v 0.093077 1.425803 -9.019238
v -2.161709 0.954649 -2.964590
v -2.226393 -0.652946 -2.814217
vt 0.181281 0.389279
vt 0.152265 0.185492
vt 0.208430 0.147456
vt 0.238421 0.456255
vt 0.034052 0.183626
vt 0.085406 0.021883
vt 0.364436 0.250701
vt 0.468189 0.406196
vt 0.364436 0.406196
vt 0.468189 0.282791
vt 0.619298 0.017499
vt 0.543049 0.160899
vt 0.537909 0.017499
vt 0.613050 0.161796
vt 0.468188 0.441195
vt 0.468188 0.596690
vt 0.364436 0.596690
vt 0.364436 0.473285
vt 0.161614 0.036873
vt 0.149085 0.179127
vt 0.208665 0.148335
vt 0.186220 0.685152
vt 0.133162 0.679614
vt 0.036448 0.473353
vt 0.356553 0.799546
vt 0.356553 0.733116
vt 0.460305 0.733116
vt 0.460305 0.799546
vt 0.622598 0.718041
vt 0.623695 0.614288
vt 0.691277 0.614288
vt 0.696154 0.718041
vt 0.238425 0.456357
vt 0.177920 0.460910
vt 0.185455 0.669546
vn 0.7611 0.6486 0.0108
vn 0.7653 0.6304 0.1301
vn 0.9501 -0.0926 0.2978
vn 0.9751 0.1359 -0.1755
vn -0.7449 0.6566 0.1183
vn -0.0093 0.5488 0.8359
vn 0.9989 -0.0409 0.0222
vn 0.5839 0.5726 0.5754
vn 0.6836 -0.0278 0.7293
vn 0.4283 0.2304 -0.8738
vn 0.6104 0.6236 -0.4883
vn -0.5962 0.6366 -0.4891
vn -0.5820 0.5685 0.5815
vn -0.6318 0.1908 -0.7512
vn -0.7028 -0.0170 0.7112
vn 0.0190 -0.3103 0.9505
vn -0.9532 0.0205 0.3016
vn -0.0884 -0.3823 -0.9198
vn 0.0177 0.4839 -0.8750
vn -0.7670 0.6327 -0.1064
vn -0.9919 -0.0302 -0.1232
s 1
f 1/1/1 2/2/2 3/3/3 4/4/4
f 5/5/5 6/6/6 2/2/2
f 7/7/7 8/8/8 9/9/9
f 7/7/10 10/10/11 8/8/8
f 11/11/12 8/12/8 10/13/11
f 11/11/12 12/14/13 8/12/8
f 13/15/14 14/16/15 12/17/13
f 13/15/14 12/17/13 11/18/12
f 15/19/16 5/20/5 16/21/17
f 15/19/16 6/6/6 5/20/5
f 4/4/4 17/22/18 18/23/19
f 2/2/2 6/6/6 15/19/16 3/3/3
f 1/1/1 19/24/20 5/5/5 2/2/2
f 4/4/4 18/23/19 1/1/1
f 7/25/10 13/26/14 11/27/12 10/28/11
f 1/1/1 18/23/19 19/24/20
f 12/29/13 14/30/15 9/31/9 8/32/8
f 20/33/21 19/34/20 18/23/19 17/35/18
f 19/34/20 20/33/21 16/21/17 5/20/5
