# Blender v2.91.0 Beta OBJ File: 'stadium.blend'
# www.blender.org
o Hatchback_Cube.006
v -0.859874 1.362512 0.993830
v -0.859874 1.179186 2.465504
v 0.000000 1.179186 2.465503
v 0.000000 1.362512 0.993830
v -0.859874 1.273126 -0.523318
v -0.710598 1.925758 0.343467
v -0.710598 1.978845 -0.400157
v 0.000000 0.854921 2.529626
v -0.859874 0.854921 2.529627
v -0.859874 0.388035 2.276648
v 0.000000 0.388035 -2.403842
v 0.000000 0.388035 2.276648
v 0.000000 1.925758 0.343467
v 0.000000 1.978845 -0.400158
v -0.859874 0.505611 2.381952
v 0.000000 0.505611 2.381951
v -0.859875 0.800472 -2.529623
v -0.859875 1.192099 -2.447306
v 0.000000 1.192099 -2.447306
v 0.000000 0.800472 -2.529624
v -0.859875 0.388035 -2.403842
v -0.977900 0.403118 2.211607
v -0.706874 0.403118 2.211607
v -0.706874 0.688144 2.093546
v -0.977900 0.688144 2.093546
v -0.977900 0.403118 1.405432
v -0.977900 0.806205 1.808520
v -0.977900 0.688144 1.523494
v -0.706874 0.118092 1.523494
v -0.706874 0.000030 1.808520
v -0.977900 0.000030 1.808520
v -0.977900 0.118092 1.523494
v -0.706874 0.806205 1.808520
v -0.977900 0.118092 2.093546
v -0.706874 0.118092 2.093546
v -0.706874 0.403118 1.405432
v -0.706874 0.688144 1.523494
v -0.977901 0.403118 -1.154220
v -0.706875 0.403118 -1.154220
v -0.706875 0.688144 -1.272281
v -0.977901 0.688144 -1.272281
v -0.977901 0.403118 -1.960395
v -0.977901 0.806205 -1.557307
v -0.977901 0.688144 -1.842333
v -0.706875 0.118092 -1.842333
v -0.706875 0.000030 -1.557307
v -0.977901 0.000030 -1.557307
v -0.977901 0.118092 -1.842333
v -0.706875 0.806205 -1.557307
v -0.977901 0.118092 -1.272281
v -0.706875 0.118092 -1.272281
v -0.706875 0.403118 -1.960395
v -0.706875 0.688144 -1.842333
v -0.710598 1.947631 -1.455217
v 0.000000 1.947631 -1.455218
v 0.859874 1.362512 0.993830
v 0.859874 1.179186 2.465504
v 0.859874 1.273126 -0.523318
v 0.710598 1.978845 -0.400157
v 0.710598 1.925758 0.343467
v 0.859874 0.854921 2.529627
v 0.859874 0.388035 2.276648
v 0.859874 0.505611 2.381952
v 0.859875 0.800472 -2.529623
v 0.859875 1.192099 -2.447306
v 0.859875 0.388035 -2.403842
v 0.977900 0.403118 2.211607
v 0.977900 0.688144 2.093546
v 0.706874 0.688144 2.093546
v 0.706874 0.403118 2.211607
v 0.977900 0.403118 1.405432
v 0.977900 0.688144 1.523494
v 0.977900 0.806205 1.808520
v 0.706874 0.118092 1.523494
v 0.977900 0.118092 1.523494
v 0.977900 0.000030 1.808520
v 0.706874 0.000030 1.808520
v 0.706874 0.806205 1.808520
v 0.977900 0.118092 2.093546
v 0.706874 0.118092 2.093546
v 0.706874 0.403118 1.405432
v 0.706874 0.688144 1.523494
v 0.977901 0.403118 -1.154220
v 0.977901 0.688144 -1.272281
v 0.706875 0.688144 -1.272281
v 0.706875 0.403118 -1.154220
v 0.977901 0.403118 -1.960395
v 0.977901 0.688144 -1.842333
v 0.977901 0.806205 -1.557307
v 0.706875 0.118092 -1.842333
v 0.977901 0.118092 -1.842333
v 0.977901 0.000030 -1.557307
v 0.706875 0.000030 -1.557307
v 0.706875 0.806205 -1.557307
v 0.977901 0.118092 -1.272281
v 0.706875 0.118092 -1.272281
v 0.706875 0.403118 -1.960395
v 0.706875 0.688144 -1.842333
v 0.710598 1.947631 -1.455217
vt 0.428776 0.148541
vt 0.671401 0.007867
vt 0.428776 0.007867
vt 0.125798 0.507869
vt 0.026523 0.369292
vt 0.020043 0.487907
vt 0.420010 0.462626
vt 0.560684 0.408550
vt 0.420010 0.408550
vt 0.867404 0.448060
vt 0.955309 0.942949
vt 0.955310 0.448060
vt 0.288023 0.493366
vt 0.404276 0.602672
vt 0.404276 0.493366
vt 0.417649 0.003141
vt 0.296036 0.120820
vt 0.417649 0.120820
vt 0.560684 0.320684
vt 0.420010 0.346506
vt 0.560684 0.346506
vt 0.252995 0.032192
vt 0.195650 0.007867
vt 0.142383 0.018316
vt 0.272289 0.049514
vt 0.204490 0.835725
vt 0.140033 0.822319
vt 0.424035 0.304950
vt 0.358565 0.164275
vt 0.358565 0.304950
vt 0.111708 0.283370
vt 0.867404 0.942949
vt 0.121994 0.262007
vt 0.864666 0.466288
vt 0.949221 0.535767
vt 0.949221 0.466288
vt 0.906446 0.258019
vt 0.738906 0.188622
vt 0.808303 0.258019
vt 0.864666 0.883164
vt 0.949221 0.813685
vt 0.864666 0.813685
vt 0.864666 0.605246
vt 0.949221 0.605246
vt 0.906446 0.021082
vt 0.808303 0.021082
vt 0.864666 0.952643
vt 0.949221 0.883164
vt 0.949221 0.744205
vt 0.864666 0.674726
vt 0.864666 0.744205
vt 0.949221 0.674726
vt 0.975844 0.188622
vt 0.864666 0.396808
vt 0.949221 0.396808
vt 0.738906 0.090479
vt 0.975844 0.090479
vt 0.864666 0.466288
vt 0.949221 0.535767
vt 0.949221 0.466288
vt 0.906446 0.258019
vt 0.738906 0.188622
vt 0.808303 0.258019
vt 0.864666 0.883164
vt 0.949221 0.813685
vt 0.864666 0.813685
vt 0.864666 0.605246
vt 0.949221 0.605246
vt 0.906446 0.021082
vt 0.808303 0.021082
vt 0.864666 0.952643
vt 0.949221 0.883164
vt 0.949221 0.744205
vt 0.864666 0.674726
vt 0.864666 0.744205
vt 0.949221 0.674726
vt 0.975844 0.188622
vt 0.864666 0.396808
vt 0.949221 0.396808
vt 0.738906 0.090479
vt 0.975844 0.090479
vt 0.029135 0.660534
vt 0.023611 0.487907
vt 0.288023 0.320684
vt 0.628046 0.280528
vt 0.424035 0.164275
vt 0.288023 0.164275
vt 0.288023 0.304950
vt 0.272289 0.814812
vt 0.428776 0.148541
vt 0.671401 0.148541
vt 0.125798 0.507869
vt 0.020043 0.487907
vt 0.026523 0.369292
vt 0.560684 0.462626
vt 0.867404 0.448060
vt 0.288023 0.493366
vt 0.288023 0.602672
vt 0.296036 0.120820
vt 0.297537 0.003141
vt 0.560684 0.320684
vt 0.560684 0.346506
vt 0.252995 0.032192
vt 0.142383 0.018316
vt 0.195650 0.007867
vt 0.272289 0.049514
vt 0.204490 0.835725
vt 0.140033 0.822319
vt 0.424035 0.304950
vt 0.358565 0.304950
vt 0.560684 0.408550
vt 0.111708 0.283370
vt 0.867404 0.942949
vt 0.121994 0.262007
vt 0.949221 0.535767
vt 0.864666 0.466288
vt 0.949221 0.466288
vt 0.906446 0.258019
vt 0.808303 0.258019
vt 0.738906 0.188622
vt 0.949221 0.813685
vt 0.864666 0.883164
vt 0.864666 0.813685
vt 0.864666 0.605246
vt 0.949221 0.605246
vt 0.808303 0.021082
vt 0.906446 0.021082
vt 0.949221 0.883164
vt 0.864666 0.952643
vt 0.864666 0.674726
vt 0.949221 0.744205
vt 0.864666 0.744205
vt 0.949221 0.674726
vt 0.975844 0.188622
vt 0.864666 0.396808
vt 0.949221 0.396808
vt 0.738906 0.090479
vt 0.975844 0.090479
vt 0.949221 0.535767
vt 0.864666 0.466288
vt 0.949221 0.466288
vt 0.906446 0.258019
vt 0.808303 0.258019
vt 0.738906 0.188622
vt 0.949221 0.813685
vt 0.864666 0.883164
vt 0.864666 0.813685
vt 0.864666 0.605246
vt 0.949221 0.605246
vt 0.808303 0.021082
vt 0.906446 0.021082
vt 0.949221 0.883164
vt 0.864666 0.952643
vt 0.864666 0.674726
vt 0.949221 0.744205
vt 0.864666 0.744205
vt 0.949221 0.674726
vt 0.975844 0.188622
vt 0.864666 0.396808
vt 0.949221 0.396808
vt 0.738906 0.090479
vt 0.975844 0.090479
vt 0.029135 0.660534
vt 0.023611 0.487907
vt 0.288023 0.320684
vt 0.404276 0.320684
vt 0.628046 0.280528
vt 0.288023 0.304950
vt 0.272289 0.814812
vt 0.127722 0.262018
vt 0.671401 0.148541
vt 0.560684 0.462626
vt 0.288023 0.602672
vt 0.420010 0.320684
vt 0.864666 0.535767
vt 0.949221 0.952643
vt 0.864666 0.535767
vt 0.949221 0.952643
vt 0.628046 0.164275
vt 0.127722 0.262018
vt 0.417649 0.120820
vt 0.864666 0.535767
vt 0.949221 0.952643
vt 0.864666 0.535767
vt 0.949221 0.952643
vn 0.0000 0.9923 0.1236
vn -0.9943 0.1064 -0.0016
vn -0.9731 0.2302 -0.0058
vn -0.9785 0.2061 0.0052
vn 0.0000 0.1940 0.9810
vn 0.0000 -0.1022 0.9948
vn 0.0000 -1.0000 -0.0000
vn 0.0000 0.9998 0.0208
vn 0.0000 0.9975 0.0712
vn 0.0000 0.7559 0.6547
vn 0.0000 -0.6672 0.7449
vn -1.0000 0.0000 0.0000
vn -0.9986 0.0522 -0.0022
vn -0.0000 0.2057 -0.9786
vn 0.0000 -0.0444 -0.9990
vn 0.0000 -0.3894 0.9211
vn -0.9987 0.0509 -0.0030
vn 0.0000 -0.0000 1.0000
vn 0.0000 0.7071 0.7071
vn 0.0000 -0.7071 -0.7071
vn 0.0000 1.0000 0.0000
vn 0.0000 -0.7071 0.7071
vn 0.0000 0.0000 -1.0000
vn 0.0000 0.7071 -0.7071
vn -0.9786 0.2056 -0.0080
vn -0.0000 0.9996 -0.0296
vn -0.0000 0.7956 -0.6059
vn 0.0000 -0.2917 -0.9565
vn 0.9943 0.1064 -0.0016
vn 0.9785 0.2061 0.0052
vn 0.9731 0.2302 -0.0058
vn 1.0000 0.0000 0.0000
vn 0.9986 0.0522 -0.0022
vn 0.9987 0.0509 -0.0030
vn 0.9786 0.2056 -0.0080
s 1
f 1/1/1 3/2/1 4/3/1
f 5/4/2 6/5/3 7/6/4
f 3/7/5 9/8/6 8/9/6
f 10/10/7 11/11/7 12/12/7
f 7/13/8 13/14/9 14/15/8
f 4/16/10 6/17/10 1/18/10
f 10/19/11 16/20/11 15/21/11
f 15/22/12 9/23/12 2/24/12
f 15/22/12 2/24/12 10/25/12
f 17/26/12 5/4/2 18/27/13
f 18/28/14 20/29/15 17/30/15
f 15/21/16 8/9/6 9/8/6
f 1/31/17 6/5/3 5/4/2
f 21/32/7 11/11/7 10/10/7
f 16/20/16 8/9/6 15/21/16
f 2/24/12 1/33/17 10/25/12
f 23/34/18 25/35/19 22/36/18
f 26/37/12 27/38/12 28/39/12
f 30/40/7 32/41/20 29/42/20
f 25/35/19 33/43/21 27/44/21
f 27/38/12 34/45/12 22/46/12
f 35/47/22 31/48/7 30/40/7
f 26/49/23 37/50/24 36/51/23
f 27/44/21 37/50/24 28/52/24
f 32/53/12 27/38/12 26/37/12
f 35/54/22 22/36/18 34/55/22
f 27/38/12 22/46/12 25/56/12
f 32/41/20 36/51/23 29/42/20
f 31/57/12 34/45/12 27/38/12
f 31/57/12 27/38/12 32/53/12
f 39/58/18 41/59/19 38/60/18
f 42/61/12 43/62/12 44/63/12
f 46/64/7 48/65/20 45/66/20
f 41/59/19 49/67/21 43/68/21
f 43/62/12 50/69/12 38/70/12
f 51/71/22 47/72/7 46/64/7
f 42/73/23 53/74/24 52/75/23
f 43/68/21 53/74/24 44/76/24
f 48/77/12 43/62/12 42/61/12
f 51/78/22 38/60/18 50/79/22
f 43/62/12 38/70/12 41/80/12
f 48/65/20 52/75/23 45/66/20
f 47/81/12 50/69/12 43/62/12
f 47/81/12 43/62/12 48/77/12
f 54/82/25 5/4/2 7/83/4
f 14/15/8 54/84/26 7/13/8
f 54/85/27 19/86/27 18/28/27
f 17/30/15 11/87/28 21/88/28
f 21/89/12 5/4/2 17/26/12
f 10/25/12 5/4/2 21/89/12
f 56/90/1 3/2/1 57/91/1
f 58/92/29 59/93/30 60/94/31
f 8/9/6 57/95/5 3/7/5
f 62/96/7 12/12/7 11/11/7
f 59/97/8 13/14/9 60/98/9
f 4/16/10 60/99/10 13/100/10
f 16/20/11 62/101/11 63/102/11
f 63/103/32 57/104/32 61/105/32
f 63/103/32 62/106/32 57/104/32
f 64/107/32 65/108/33 58/92/29
f 20/29/15 65/109/14 64/110/15
f 63/102/16 61/111/6 8/9/6
f 56/112/34 58/92/29 60/94/31
f 66/113/7 62/96/7 11/11/7
f 16/20/16 63/102/16 8/9/6
f 57/104/32 62/106/32 56/114/34
f 68/115/19 70/116/18 67/117/18
f 71/118/32 72/119/32 73/120/32
f 75/121/20 77/122/7 74/123/20
f 78/124/21 68/115/19 73/125/21
f 73/120/32 67/126/32 79/127/32
f 76/128/7 80/129/22 77/122/7
f 82/130/24 71/131/23 81/132/23
f 82/130/24 73/125/21 72/133/24
f 75/134/32 71/118/32 73/120/32
f 67/117/18 80/135/22 79/136/22
f 73/120/32 68/137/32 67/126/32
f 81/132/23 75/121/20 74/123/20
f 76/138/32 73/120/32 79/127/32
f 76/138/32 75/134/32 73/120/32
f 84/139/19 86/140/18 83/141/18
f 87/142/32 88/143/32 89/144/32
f 91/145/20 93/146/7 90/147/20
f 94/148/21 84/139/19 89/149/21
f 89/144/32 83/150/32 95/151/32
f 92/152/7 96/153/22 93/146/7
f 98/154/24 87/155/23 97/156/23
f 98/154/24 89/149/21 88/157/24
f 91/158/32 87/142/32 89/144/32
f 83/141/18 96/159/22 95/160/22
f 89/144/32 84/161/32 83/150/32
f 97/156/23 91/145/20 90/147/20
f 92/162/32 89/144/32 95/151/32
f 92/162/32 91/158/32 89/144/32
f 58/92/29 99/163/35 59/164/30
f 14/15/8 99/165/26 55/166/26
f 19/86/27 99/167/27 65/109/27
f 11/87/28 64/110/15 66/168/28
f 66/169/32 64/107/32 58/92/29
f 62/106/32 58/92/29 56/170/34
f 1/1/1 2/171/1 3/2/1
f 3/7/5 2/172/5 9/8/6
f 7/13/8 6/173/9 13/14/9
f 4/16/10 13/100/10 6/17/10
f 10/19/11 12/174/11 16/20/11
f 18/28/14 19/86/14 20/29/15
f 23/34/18 24/175/19 25/35/19
f 30/40/7 31/48/7 32/41/20
f 25/35/19 24/175/19 33/43/21
f 35/47/22 34/176/22 31/48/7
f 26/49/23 28/52/24 37/50/24
f 27/44/21 33/43/21 37/50/24
f 35/54/22 23/34/18 22/36/18
f 32/41/20 26/49/23 36/51/23
f 39/58/18 40/177/19 41/59/19
f 46/64/7 47/72/7 48/65/20
f 41/59/19 40/177/19 49/67/21
f 51/71/22 50/178/22 47/72/7
f 42/73/23 44/76/24 53/74/24
f 43/68/21 49/67/21 53/74/24
f 51/78/22 39/58/18 38/60/18
f 48/65/20 42/73/23 52/75/23
f 54/82/25 18/27/13 5/4/2
f 14/15/8 55/166/26 54/84/26
f 54/85/27 55/179/27 19/86/27
f 17/30/15 20/29/15 11/87/28
f 10/25/12 1/180/17 5/4/2
f 56/90/1 4/3/1 3/2/1
f 8/9/6 61/111/6 57/95/5
f 59/97/8 14/15/8 13/14/9
f 4/16/10 56/181/10 60/99/10
f 16/20/11 12/174/11 62/101/11
f 20/29/15 19/86/14 65/109/14
f 68/115/19 69/182/19 70/116/18
f 75/121/20 76/128/7 77/122/7
f 78/124/21 69/182/19 68/115/19
f 76/128/7 79/183/22 80/129/22
f 82/130/24 72/133/24 71/131/23
f 82/130/24 78/124/21 73/125/21
f 67/117/18 70/116/18 80/135/22
f 81/132/23 71/131/23 75/121/20
f 84/139/19 85/184/19 86/140/18
f 91/145/20 92/152/7 93/146/7
f 94/148/21 85/184/19 84/139/19
f 92/152/7 95/185/22 96/153/22
f 98/154/24 88/157/24 87/155/23
f 98/154/24 94/148/21 89/149/21
f 83/141/18 86/140/18 96/159/22
f 97/156/23 87/155/23 91/145/20
f 58/92/29 65/108/33 99/163/35
f 14/15/8 59/97/8 99/165/26
f 19/86/27 55/179/27 99/167/27
f 11/87/28 20/29/15 64/110/15
f 62/106/32 66/169/32 58/92/29
o Sedan_Cube.002_Sedan_Cube.004
v 0.619071 1.184866 2.422437
v 0.611433 0.979977 2.422563
v 0.859111 1.173936 2.428953
v -0.619071 1.184866 2.422437
v -0.611433 0.979977 2.422563
v -0.859111 1.173936 2.428953
v -0.862471 0.987941 2.424394
v 0.862471 0.987941 2.424394
v -0.852798 1.033739 -2.418533
v -0.692056 1.180972 -2.418533
v -0.852798 1.180972 -2.418533
v -0.692056 1.033739 -2.418533
v -0.756865 0.285108 4.510033
v -1.281327 0.533329 4.510033
v -1.498567 1.132594 4.510033
v 0.852798 1.033739 -2.418533
v 0.692056 1.180972 -2.418533
v 0.852798 1.180972 -2.418533
v 0.692056 1.033739 -2.418533
v -1.281327 1.731858 4.510035
v -0.756866 1.980080 4.510035
v -0.015165 1.132596 4.510033
v -0.232403 0.533332 4.510033
v -0.202761 1.731859 4.510035
v -0.807383 0.259873 -4.037673
v 0.756865 0.285108 4.510033
v 1.281327 0.533329 4.510033
v 1.498567 1.132594 4.510033
v 1.281327 1.731858 4.510035
v 0.756866 1.980080 4.510035
v 0.015165 1.132596 4.510033
v 0.232403 0.533332 4.510033
v 0.202761 1.731859 4.510035
v 0.807383 0.259873 -4.037673
v 0.204862 0.508097 -4.037673
v 0.234506 1.706624 -4.037669
v 0.807383 1.954847 -4.037669
v 1.681255 1.107360 -4.037672
v 1.433032 0.508097 -4.037673
v 1.433032 1.706624 -4.037669
v -0.204862 0.508097 -4.037673
v -0.234506 1.706624 -4.037669
v 0.015804 1.107360 -4.039862
v -0.807383 1.954847 -4.037669
v -1.681255 1.107360 -4.037672
v -1.433032 0.508097 -4.037673
v -1.433032 1.706624 -4.037669
v -0.015804 1.107360 -4.039862
vt 0.752172 0.585312
vt 0.752172 0.583930
vt 0.752172 0.585312
vt 0.752172 0.585312
vt 0.752172 0.585312
vt 0.752172 0.583930
vt 0.752172 0.583930
vt 0.752172 0.583930
vt 0.751989 0.514257
vt 0.751989 0.512646
vt 0.751989 0.512646
vt 0.546468 0.565090
vt 0.546468 0.557277
vt 0.546468 0.608059
vt 0.546468 0.604152
vt 0.546468 0.584621
vt 0.751989 0.514257
vt 0.751989 0.512646
vt 0.751989 0.512646
vt 0.751989 0.514257
vt 0.546468 0.604152
vt 0.751989 0.514257
vt 0.546422 0.541506
vt 0.546468 0.557277
vt 0.546468 0.565090
vt 0.546468 0.584621
vt 0.546468 0.604152
vt 0.546468 0.608059
vt 0.546468 0.584621
vt 0.546468 0.565090
vt 0.546468 0.604152
vt 0.546422 0.541506
vt 0.546422 0.533289
vt 0.546422 0.493614
vt 0.546422 0.485397
vt 0.546422 0.513452
vt 0.546422 0.533289
vt 0.546422 0.493614
vt 0.546422 0.485397
vt 0.546422 0.493614
vt 0.546422 0.513452
vt 0.546422 0.493614
vt 0.546091 0.513452
vt 0.546468 0.584621
vt 0.546468 0.565090
vt 0.546422 0.533289
vt 0.546422 0.533289
vt 0.546091 0.513452
vn 0.1275 -0.1446 0.9812
vn 0.1367 -0.1343 0.9815
vn 0.1353 -0.1358 0.9814
vn -0.1065 -0.1639 0.9807
vn -0.0257 0.2074 0.9779
vn 0.2321 0.0540 0.9712
vn -0.0118 -0.0886 0.9960
vn -0.0576 -0.0065 0.9983
vn 0.0701 -0.0048 0.9975
vn -0.0336 0.0362 0.9988
vn -0.0294 0.0379 0.9988
vn -0.0329 0.0366 0.9988
vn 0.0000 0.0000 -1.0000
vn 0.9226 0.2328 0.3077
vn 0.7202 0.6304 0.2897
vn 0.0564 0.9558 0.2884
vn 0.3383 -0.8874 0.3132
vn -0.9864 -0.1277 0.1034
vn 0.0207 -0.9422 0.3343
vn 0.6999 -0.6431 0.3108
vn 0.9610 -0.0070 0.2764
vn -0.6729 0.6435 0.3647
vn -0.6976 -0.6462 0.3095
vn 0.5857 0.6015 -0.5432
vn -0.8438 0.2506 -0.4746
vn -0.0016 0.9090 -0.4168
vn -0.2845 0.9012 0.3271
vn 0.0503 0.9562 0.2885
vn -0.6881 0.6653 0.2896
vn -0.9169 -0.2672 0.2965
vn -0.9610 -0.0032 0.2764
vn -0.6897 -0.6540 0.3107
vn -0.0032 -0.9424 0.3343
vn 0.1161 -0.9862 0.1178
vn 0.6723 0.6442 0.3647
vn 0.9649 0.0398 0.2597
vn 0.7250 0.6430 0.2470
vn 0.7060 -0.6369 0.3096
vn -0.5857 0.6015 -0.5432
vn 0.0016 0.9090 -0.4168
vn 0.2853 0.8250 -0.4878
vn 0.6220 0.6665 -0.4108
vn 0.9442 -0.3043 -0.1261
vn 0.6148 -0.6785 -0.4020
vn 0.0088 -0.9092 -0.4163
vn -0.8968 0.0000 -0.4425
vn -0.6353 0.6382 -0.4349
vn -0.5515 -0.7940 -0.2558
vn -0.6353 -0.6381 -0.4349
vn -0.3339 -0.9321 -0.1406
vn -0.0088 -0.9092 -0.4163
vn -0.7049 -0.5843 -0.4022
vn 0.7825 -0.5663 -0.2588
vn 0.8968 0.0000 -0.4425
vn 0.6353 -0.6381 -0.4349
vn 0.0033 -0.2039 -0.9790
vn -0.9657 -0.0107 0.2596
vn -0.6982 0.6720 0.2469
vn 0.6353 0.6382 -0.4349
vn -0.7098 0.5721 -0.4110
vn -0.0116 0.2051 -0.9787
s 1
f 100/186/36 101/187/37 102/188/38
f 103/189/39 105/190/40 104/191/41
f 104/191/42 105/190/43 106/192/44
f 101/187/45 107/193/46 102/188/47
f 108/194/48 110/195/48 109/196/48
f 106/192/49 113/197/50 112/198/51
f 105/190/52 103/189/53 120/199/54
f 105/190/52 119/200/55 114/201/56
f 115/202/48 116/203/48 117/204/48
f 118/205/48 116/203/48 115/202/48
f 104/191/57 106/192/49 112/198/51
f 103/189/53 123/206/58 120/199/54
f 111/207/48 108/194/48 109/196/48
f 108/194/59 111/207/60 124/208/61
f 107/193/62 125/209/63 126/210/64
f 102/188/65 127/211/66 128/212/67
f 102/188/65 129/213/68 100/186/69
f 101/187/70 130/214/71 131/215/72
f 107/193/62 127/211/66 102/188/65
f 101/187/70 125/209/63 107/193/62
f 100/186/69 132/216/73 130/214/71
f 100/186/69 129/213/68 132/216/73
f 115/202/74 133/217/75 118/205/76
f 118/205/76 133/217/75 134/218/77
f 116/203/78 135/219/79 136/220/80
f 115/202/74 137/221/81 138/222/82
f 117/204/83 139/223/84 137/221/81
f 117/204/83 136/220/80 139/223/84
f 109/196/85 143/224/86 141/225/87
f 106/192/49 105/190/52 114/201/56
f 110/195/88 144/226/89 146/227/90
f 102/188/65 128/212/67 129/213/68
f 101/187/70 100/186/69 130/214/71
f 107/193/62 126/210/64 127/211/66
f 101/187/70 131/215/72 125/209/63
f 115/202/74 138/222/82 133/217/75
f 115/202/74 117/204/83 137/221/81
f 117/204/83 116/203/78 136/220/80
f 110/195/88 146/227/90 143/224/86
f 116/203/78 142/228/91 135/219/79
f 118/205/76 142/228/91 116/203/78
f 118/205/76 134/218/77 142/228/91
f 104/191/57 121/229/92 103/189/53
f 104/191/57 112/198/51 122/230/93
f 108/194/59 144/226/89 110/195/88
f 110/195/88 143/224/86 109/196/85
f 108/194/59 145/231/94 144/226/89
f 103/189/53 121/229/92 123/206/58
f 111/207/60 140/232/95 124/208/61
f 104/191/57 122/230/93 121/229/92
f 106/192/49 114/201/56 113/197/50
f 108/194/59 124/208/61 145/231/94
f 105/190/52 120/199/54 119/200/55
f 111/207/60 109/196/85 147/233/96
f 111/207/60 147/233/96 140/232/95
f 109/196/85 141/225/87 147/233/96
