# Blender v2.91.0 Beta OBJ File: 'decos.blend'
# www.blender.org
o Cube.001_Cube.006
v -0.070228 3.458548 -1.195342
v 0.770012 3.458548 -0.847304
v 0.709392 3.670938 -0.786684
v -0.070228 3.670938 -1.109614
v -0.910466 3.458548 0.833174
v -1.258504 3.458548 -0.007064
v -1.172778 3.670938 -0.007064
v -0.849848 3.670938 0.772556
v -0.910466 3.458548 -0.847304
v -0.849848 3.670938 -0.786684
v 1.118050 3.458548 -0.007064
v 0.770012 3.458548 0.833174
v 0.709392 3.670938 0.772556
v 1.032322 3.670938 -0.007064
v -0.070228 3.458548 1.181212
v -0.070228 3.670938 1.095484
v 0.830794 2.351746 0.894772
v 0.653742 3.585086 0.802630
v 0.567772 3.585086 0.716662
v 0.653742 3.585086 0.630694
v 0.739710 3.585086 0.716662
v 0.894772 2.351746 -0.830794
v 0.802628 3.585086 -0.653740
v 0.716660 3.585086 -0.567770
v 0.630692 3.585086 -0.653740
v 0.716660 3.585086 -0.739708
v -0.830794 2.351746 -0.894772
v -0.653742 3.585086 -0.802626
v -0.567772 3.585086 -0.716658
v -0.653742 3.585086 -0.630690
v -0.739710 3.585086 -0.716658
v -0.894772 2.351744 0.830794
v -0.802628 3.585086 0.653744
v -0.716660 3.585086 0.567774
v -0.630692 3.585086 0.653744
v -0.716660 3.585086 0.739712
v -1.495536 0.615280 -0.007066
v -1.495536 2.402684 -0.007066
v -1.078072 2.402684 -1.014912
v -1.078072 0.615280 -1.014912
v -0.070228 0.615280 -1.432374
v -0.070228 2.402684 -1.432374
v 0.937616 2.402684 -1.014912
v 0.937618 0.615280 -1.014912
v 1.355080 0.615280 -0.007066
v 1.355080 2.402684 -0.007066
v 0.937618 2.402684 1.000778
v 0.937616 0.615280 1.000778
v -0.070228 0.615280 1.418242
v -0.070228 2.402684 1.418242
v -1.078072 2.402684 1.000778
v -1.078072 0.615280 1.000778
v 1.206628 0.733744 -0.007066
v -1.693412 7.029171 1.616120
v -0.070228 7.029171 2.288466
v -0.070228 8.211484 3.246331
v -2.370726 8.211486 2.293434
v 1.552958 7.029171 1.616120
v 2.230270 8.211486 2.293434
v -2.365758 7.029172 -0.007064
v -3.323624 8.211486 -0.007064
v -1.693414 7.029172 -1.630250
v -2.370726 8.211486 -2.307562
v 2.225302 7.029172 -0.007064
v 3.183168 8.211486 -0.007064
v -0.070228 7.029172 -2.302596
v -0.070228 8.211488 -3.260460
v 1.552958 7.029172 -1.630250
v 2.230270 8.211486 -2.307562
v 1.508062 5.628126 -0.007064
v 1.045792 5.628126 -1.123084
v 1.062506 5.846856 -1.139798
v 1.531700 5.846856 -0.007064
v -0.070228 5.628128 -1.585354
v -1.186246 5.628126 -1.123084
v -1.202962 5.846856 -1.139798
v -0.070228 5.846858 -1.608992
v 1.045792 5.628126 1.108954
v 1.062506 5.846856 1.125668
v -1.648518 5.628126 -0.007064
v -1.672156 5.846856 -0.007064
v -1.186246 5.628126 1.108954
v -1.202962 5.846856 1.125670
v -0.070228 5.628126 1.571224
v -0.070228 5.846856 1.594862
v -0.070228 10.494580 -5.144658
v 3.562600 10.494580 -3.639890
v -0.070228 10.494576 5.130532
v -3.703056 10.494576 3.625766
v 3.562600 10.494576 3.625766
v -5.207822 10.494578 -0.007062
v -3.703056 10.494580 -3.639890
v 5.067368 10.494578 -0.007062
v -4.232942 13.186852 4.155653
v -5.957194 13.186852 -0.007062
v 4.092486 13.186854 -4.169777
v 5.816740 13.186852 -0.007062
v -0.070228 13.186854 -5.894030
v -0.070228 13.186852 5.879904
v 4.092486 13.186852 4.155653
v -4.232942 13.186854 -4.169777
v 5.798528 13.288026 -0.007062
v 4.079608 13.288028 -4.156899
v 3.879998 14.856232 -3.957288
v 5.516234 14.856230 -0.007062
v -4.220064 13.288028 -4.156899
v -5.938982 13.288026 -0.007062
v -5.656690 14.856230 -0.007062
v -4.020452 14.856232 -3.957288
v -4.220064 13.288024 4.142775
v -0.070228 13.288024 5.861693
v -0.070228 14.856228 5.579401
v -4.020452 14.856228 3.943162
v 4.079608 13.288024 4.142775
v 3.879998 14.856228 3.943162
v -0.070228 13.288028 -5.875818
v -0.070228 14.856232 -5.593523
v -0.070228 16.632160 4.804982
v -3.472856 16.632160 3.395568
v 3.332400 16.632160 3.395568
v -4.882270 16.632160 -0.007060
v -3.472856 16.632160 -3.409690
v 4.741816 16.632160 -0.007060
v -0.070228 16.632160 -4.819104
v 3.332400 16.632160 -3.409690
v 3.213360 16.784319 -3.290648
v -0.070228 16.784319 -4.650754
v -0.070228 18.305912 -2.967258
v 2.022948 18.305912 -2.100236
v 3.213360 16.784319 3.276526
v 4.573466 16.784319 -0.007060
v 2.889970 18.305912 -0.007060
v 2.022948 18.305912 2.086116
v -3.353816 16.784319 -3.290648
v -2.163404 18.305912 -2.100236
v -4.713920 16.784319 -0.007060
v -3.030426 18.305912 -0.007060
v -3.353816 16.784319 3.276526
v -0.070228 16.784319 4.636632
v -0.070228 18.305912 2.953138
v -2.163404 18.305912 2.086116
v 0.665154 19.053045 -0.007060
v 0.449766 19.053045 0.512932
v -0.590222 19.053045 -0.527054
v -0.070228 19.053045 -0.742442
v 0.449766 19.053045 -0.527054
v -0.805610 19.053045 -0.007060
v -0.070228 19.053045 0.728322
v -0.590222 19.053045 0.512932
v -0.070228 19.053045 -0.007060
v -0.973102 0.733744 0.895808
v -1.347084 0.733744 -0.007066
v -0.973102 0.733744 -0.909940
v 0.832646 0.733744 0.895808
v -0.070228 0.733744 -1.283922
v 0.832646 0.733744 -0.909940
v -0.070228 0.733744 1.269790
v 0.941916 4.268782 -1.019208
v -0.070228 4.268782 -1.438450
v -0.070228 4.593441 -1.473536
v 0.966724 4.593440 -1.044016
v -1.082370 4.268782 1.005078
v -0.070228 4.268782 1.424322
v -0.070228 4.593440 1.459408
v -1.107180 4.593440 1.029888
v 0.941916 4.268782 1.005078
v 0.966724 4.593440 1.029888
v -1.501614 4.268782 -0.007064
v -1.536700 4.593440 -0.007064
v -1.082370 4.268782 -1.019208
v -1.107180 4.593440 -1.044016
v 1.361158 4.268782 -0.007064
v 1.396244 4.593440 -0.007064
vt 0.226562 0.789062
vt 0.226562 0.789062
vt 0.226562 0.789062
vt 0.226562 0.789062
vt 0.226562 0.789062
vt 0.226562 0.789062
vt 0.226562 0.789062
vt 0.226562 0.789062
vt 0.226562 0.789062
vt 0.226562 0.789062
vt 0.226562 0.789062
vt 0.226562 0.789062
vt 0.226562 0.789062
vt 0.226562 0.789062
vt 0.226562 0.789062
vt 0.226562 0.789062
vt 0.226562 0.789062
vt 0.226562 0.789062
vt 0.226562 0.789062
vt 0.226562 0.789062
vt 0.226562 0.789062
vt 0.226562 0.789062
vt 0.226562 0.789062
vt 0.226562 0.789062
vt 0.226562 0.789062
vt 0.226562 0.789062
vt 0.226562 0.789062
vt 0.226562 0.789062
vt 0.226562 0.789062
vt 0.226562 0.789062
vt 0.226562 0.789062
vt 0.226562 0.789062
vt 0.226562 0.789062
vt 0.226562 0.789062
vt 0.226562 0.789062
vt 0.226562 0.789062
vt 0.242188 0.882812
vt 0.242188 0.882812
vt 0.242188 0.882812
vt 0.242188 0.882812
vt 0.242188 0.882812
vt 0.242188 0.882812
vt 0.242188 0.882812
vt 0.242188 0.882812
vt 0.242188 0.882812
vt 0.242188 0.882812
vt 0.242188 0.882812
vt 0.242188 0.882812
vt 0.242188 0.882812
vt 0.242188 0.882812
vt 0.242188 0.882812
vt 0.242188 0.882812
vt 0.242188 0.882812
vt 0.117188 0.898438
vt 0.117188 0.898438
vt 0.117188 0.898438
vt 0.117188 0.898438
vt 0.117188 0.898438
vt 0.117188 0.898438
vt 0.117188 0.898438
vt 0.117188 0.898438
vt 0.117188 0.898438
vt 0.117188 0.898438
vt 0.117188 0.898438
vt 0.117188 0.898438
vt 0.117188 0.898438
vt 0.117188 0.898438
vt 0.117188 0.898438
vt 0.117188 0.898438
vt 0.257812 0.789062
vt 0.257812 0.789062
vt 0.257812 0.789062
vt 0.257812 0.789062
vt 0.257812 0.789062
vt 0.257812 0.789062
vt 0.257812 0.789062
vt 0.257812 0.789062
vt 0.257812 0.789062
vt 0.257812 0.789062
vt 0.257812 0.789062
vt 0.257812 0.789062
vt 0.257812 0.789062
vt 0.257812 0.789062
vt 0.257812 0.789062
vt 0.257812 0.789062
vt 0.117188 0.898438
vt 0.117188 0.898438
vt 0.117188 0.898438
vt 0.117188 0.898438
vt 0.117188 0.898438
vt 0.117188 0.898438
vt 0.117188 0.898438
vt 0.117188 0.898438
vt 0.117188 0.898438
vt 0.117188 0.898438
vt 0.117188 0.898438
vt 0.117188 0.898438
vt 0.117188 0.898438
vt 0.117188 0.898438
vt 0.117188 0.898438
vt 0.117188 0.898438
vt 0.117188 0.898438
vt 0.117188 0.898438
vt 0.117188 0.898438
vt 0.117188 0.898438
vt 0.117188 0.898438
vt 0.117188 0.898438
vt 0.117188 0.898438
vt 0.117188 0.898438
vt 0.117188 0.898438
vt 0.117188 0.898438
vt 0.117188 0.898438
vt 0.117188 0.898438
vt 0.117188 0.898438
vt 0.117188 0.898438
vt 0.117188 0.898438
vt 0.117188 0.898438
vt 0.117188 0.898438
vt 0.117188 0.898438
vt 0.117188 0.898438
vt 0.117188 0.898438
vt 0.117188 0.898438
vt 0.117188 0.898438
vt 0.117188 0.898438
vt 0.117188 0.898438
vt 0.117188 0.898438
vt 0.117188 0.898438
vt 0.117188 0.898438
vt 0.117188 0.898438
vt 0.117188 0.898438
vt 0.117188 0.898437
vt 0.117188 0.898438
vt 0.117188 0.898438
vt 0.117188 0.898438
vt 0.117188 0.898438
vt 0.117188 0.898438
vt 0.117188 0.898438
vt 0.117188 0.898438
vt 0.117188 0.898438
vt 0.117188 0.898438
vt 0.117188 0.898438
vt 0.117188 0.898438
vt 0.117188 0.898438
vt 0.117188 0.898438
vt 0.117188 0.898438
vt 0.117188 0.898438
vt 0.117188 0.898438
vt 0.117188 0.898438
vt 0.117188 0.898438
vt 0.117188 0.898438
vt 0.117188 0.898438
vt 0.117188 0.898438
vt 0.117188 0.898438
vt 0.117188 0.898438
vt 0.117188 0.898438
vt 0.117188 0.898438
vt 0.117188 0.898438
vt 0.117188 0.898438
vt 0.242188 0.882812
vt 0.242188 0.882812
vt 0.242188 0.882812
vt 0.242188 0.882812
vt 0.242188 0.882812
vt 0.242188 0.882812
vt 0.242188 0.882812
vt 0.257812 0.789062
vt 0.257812 0.789062
vt 0.257812 0.789062
vt 0.257812 0.789062
vt 0.257812 0.789062
vt 0.257812 0.789062
vt 0.257812 0.789062
vt 0.257812 0.789062
vt 0.257812 0.789062
vt 0.257812 0.789062
vt 0.257812 0.789062
vt 0.257812 0.789062
vt 0.257812 0.789062
vt 0.257812 0.789062
vt 0.257812 0.789062
vt 0.257812 0.789062
vt 0.117188 0.898438
vt 0.117188 0.898438
vt 0.117188 0.898438
vt 0.117187 0.898437
vt 0.117188 0.898438
vt 0.117188 0.898438
vt 0.117188 0.898438
vt 0.117187 0.898437
vt 0.117188 0.898438
vt 0.117187 0.898437
vt 0.117188 0.898438
vt 0.117188 0.898438
vt 0.117188 0.898438
vt 0.117188 0.898437
vt 0.117188 0.898438
vt 0.117188 0.898438
vt 0.257812 0.789062
vt 0.257812 0.789062
vt 0.257812 0.789062
vt 0.257812 0.789062
vt 0.257812 0.789062
vt 0.257812 0.789062
vt 0.257812 0.789062
vt 0.257812 0.789062
vt 0.257812 0.789062
vt 0.257812 0.789062
vt 0.257812 0.789062
vt 0.257812 0.789062
vt 0.257812 0.789062
vt 0.257812 0.789062
vt 0.257812 0.789062
vt 0.257812 0.789062
vt 0.257812 0.789062
vt 0.257812 0.789062
vt 0.257812 0.789062
vt 0.257812 0.789062
vt 0.257812 0.789062
vt 0.257812 0.789062
vt 0.257812 0.789062
vt 0.257812 0.789062
vt 0.257812 0.789062
vt 0.257812 0.789062
vt 0.257812 0.789062
vt 0.257812 0.789062
vt 0.257812 0.789062
vt 0.257812 0.789062
vt 0.257812 0.789062
vt 0.257812 0.789062
vn -0.3586 -0.3494 0.8656
vn 0.8657 -0.3494 -0.3586
vn 0.3586 -0.3494 0.8656
vn -0.8656 -0.3494 -0.3586
vn 0.8657 -0.3494 0.3586
vn -0.8656 -0.3494 0.3586
vn -0.3586 -0.3494 -0.8656
vn -0.7063 -0.0486 0.7063
vn -0.6855 -0.2452 -0.6855
vn 0.6988 0.1525 0.6988
vn 0.7062 -0.0498 -0.7062
vn 0.7063 -0.0486 0.7063
vn -0.6855 -0.2452 0.6855
vn 0.6988 0.1525 -0.6988
vn -0.7062 -0.0498 -0.7062
vn 0.7063 -0.0486 -0.7063
vn 0.6855 -0.2452 0.6855
vn -0.6988 0.1525 -0.6988
vn -0.7062 -0.0498 0.7062
vn -0.7063 -0.0486 -0.7063
vn 0.6855 -0.2452 -0.6855
vn -0.6988 0.1525 0.6988
vn 0.7062 -0.0498 0.7062
vn 0.3586 -0.3494 -0.8656
vn -1.0000 0.0000 0.0000
vn -0.7071 0.0000 -0.7071
vn -0.0000 0.0000 -1.0000
vn 0.7071 0.0000 -0.7071
vn 1.0000 0.0000 0.0000
vn 0.7071 -0.0000 0.7071
vn -0.0000 -0.0000 1.0000
vn -0.7071 -0.0000 0.7071
vn -0.1023 -0.9948 -0.0000
vn -0.1583 -0.9874 -0.0000
vn -0.1564 -0.9752 -0.1564
vn -0.0009 -0.9982 -0.0592
vn 0.0360 -0.9994 -0.0000
vn 0.0359 -0.9987 -0.0359
vn 0.0359 -0.9987 0.0359
vn -0.0009 -0.9982 0.0592
vn -0.1564 -0.9752 0.1564
vn -0.5769 -0.5782 0.5769
vn 0.0000 -0.5782 0.8159
vn -0.0000 -0.6336 0.7737
vn -0.5471 -0.6336 0.5471
vn 0.5769 -0.5782 0.5769
vn 0.5471 -0.6336 0.5471
vn -0.8159 -0.5782 0.0000
vn -0.7737 -0.6336 -0.0000
vn -0.5769 -0.5782 -0.5769
vn -0.5471 -0.6336 -0.5471
vn 0.8159 -0.5782 -0.0000
vn 0.7737 -0.6336 -0.0000
vn -0.0000 -0.5782 -0.8159
vn -0.0000 -0.6336 -0.7737
vn 0.5769 -0.5782 -0.5769
vn 0.5471 -0.6336 -0.5471
vn 0.9942 -0.1074 0.0000
vn 0.7030 -0.1074 -0.7030
vn 0.6675 -0.3301 -0.6675
vn 0.9439 -0.3301 0.0000
vn -0.0000 -0.1074 -0.9942
vn -0.7030 -0.1074 -0.7030
vn -0.6675 -0.3301 -0.6675
vn 0.0000 -0.3301 -0.9439
vn 0.7030 -0.1074 0.7030
vn 0.6675 -0.3301 0.6675
vn -0.9942 -0.1074 0.0000
vn -0.9439 -0.3301 0.0000
vn -0.7030 -0.1074 0.7030
vn -0.6675 -0.3301 0.6675
vn 0.0000 -0.1074 0.9942
vn 0.0000 -0.3301 0.9439
vn 0.0000 -0.4428 -0.8966
vn 0.6340 -0.4428 -0.6340
vn -0.0000 -0.4428 0.8966
vn -0.6340 -0.4428 0.6340
vn 0.6340 -0.4428 0.6340
vn -0.8966 -0.4428 -0.0000
vn -0.6340 -0.4428 -0.6340
vn 0.8966 -0.4428 -0.0000
vn -0.7064 -0.0443 0.7064
vn -0.9990 -0.0443 0.0000
vn 0.7064 -0.0443 -0.7064
vn 0.9990 -0.0443 -0.0000
vn 0.0000 -0.0443 -0.9990
vn -0.0000 -0.0443 0.9990
vn 0.7064 -0.0443 0.7064
vn -0.7064 -0.0443 -0.7064
vn 0.9842 0.1772 -0.0000
vn 0.6959 0.1772 -0.6959
vn 0.6782 0.2828 -0.6782
vn 0.9592 0.2828 0.0000
vn -0.6959 0.1772 -0.6959
vn -0.9842 0.1772 0.0000
vn -0.9592 0.2828 0.0000
vn -0.6782 0.2828 -0.6782
vn -0.6959 0.1772 0.6959
vn 0.0000 0.1772 0.9842
vn -0.0000 0.2828 0.9592
vn -0.6782 0.2828 0.6782
vn 0.6959 0.1772 0.6959
vn 0.6782 0.2828 0.6782
vn -0.0000 0.1772 -0.9842
vn -0.0000 0.2828 -0.9592
vn -0.0000 0.5606 0.8281
vn -0.5856 0.5606 0.5856
vn 0.5856 0.5606 0.5856
vn -0.8281 0.5606 0.0000
vn -0.5856 0.5606 -0.5856
vn 0.8281 0.5606 0.0000
vn -0.0000 0.5606 -0.8281
vn 0.5856 0.5606 -0.5856
vn 0.4741 0.7419 -0.4741
vn -0.0000 0.7419 -0.6705
vn 0.0000 0.8411 -0.5409
vn 0.3825 0.8411 -0.3825
vn 0.4741 0.7419 0.4741
vn 0.6705 0.7419 0.0000
vn 0.5409 0.8411 -0.0000
vn 0.3825 0.8411 0.3825
vn -0.4741 0.7419 -0.4741
vn -0.3825 0.8411 -0.3825
vn -0.6705 0.7419 0.0000
vn -0.5409 0.8411 0.0000
vn -0.4741 0.7419 0.4741
vn -0.0000 0.7419 0.6705
vn 0.0000 0.8411 0.5409
vn -0.3825 0.8411 0.3825
vn 0.2000 0.9798 -0.0000
vn 0.1414 0.9798 0.1414
vn -0.1414 0.9798 -0.1414
vn 0.0000 0.9798 -0.2000
vn 0.1414 0.9798 -0.1414
vn -0.2000 0.9798 -0.0000
vn 0.0000 0.9798 0.2000
vn -0.1414 0.9798 0.1414
vn 0.0000 1.0000 -0.0000
vn 0.9961 0.0886 -0.0000
vn 0.7043 0.0886 -0.7043
vn 0.7043 0.0886 0.7043
vn -0.7043 0.0886 -0.7043
vn -0.9961 0.0886 0.0000
vn 0.0000 0.0886 0.9961
vn -0.7043 0.0886 0.7043
vn 0.0000 0.0886 -0.9961
s off
f 1/1/1 2/2/1 3/3/1 4/4/1
f 5/5/2 6/6/2 7/7/2 8/8/2
f 9/9/3 1/1/3 4/4/3 10/10/3
f 11/11/4 12/12/4 13/13/4 14/14/4
f 6/6/5 9/9/5 10/10/5 7/7/5
f 2/2/6 11/11/6 14/14/6 3/3/6
f 12/12/7 15/15/7 16/16/7 13/13/7
f 17/17/8 18/18/8 19/19/8
f 17/17/9 19/19/9 20/20/9
f 17/17/10 21/21/10 18/18/10
f 17/17/11 20/20/11 21/21/11
f 22/22/12 23/23/12 24/24/12
f 22/22/13 24/24/13 25/25/13
f 22/22/14 26/26/14 23/23/14
f 22/22/15 25/25/15 26/26/15
f 27/27/16 28/28/16 29/29/16
f 27/27/17 29/29/17 30/30/17
f 27/27/18 31/31/18 28/28/18
f 27/27/19 30/30/19 31/31/19
f 32/32/20 33/33/20 34/34/20
f 32/32/21 34/34/21 35/35/21
f 32/32/22 36/36/22 33/33/22
f 32/32/23 35/35/23 36/36/23
f 15/15/24 5/5/24 8/8/24 16/16/24
s 1
f 37/37/25 38/38/25 39/39/26 40/40/26
f 41/41/27 42/42/27 43/43/28 44/44/28
f 45/45/29 46/46/29 47/47/30 48/48/30
f 49/49/31 50/50/31 51/51/32 52/52/32
f 53/53/33 45/45/34 48/48/35 49/49/36
f 37/37/37 53/53/33 49/49/36 52/52/38
f 48/48/30 47/47/30 50/50/31 49/49/31
f 40/40/26 39/39/26 42/42/27 41/41/27
f 40/40/39 41/41/40 53/53/33 37/37/37
f 41/41/40 44/44/41 45/45/34 53/53/33
f 44/44/28 43/43/28 46/46/29 45/45/29
f 52/52/32 51/51/32 38/38/25 37/37/25
f 54/54/42 55/55/43 56/56/44 57/57/45
f 55/55/43 58/58/46 59/59/47 56/56/44
f 60/60/48 54/54/42 57/57/45 61/61/49
f 62/62/50 60/60/48 61/61/49 63/63/51
f 58/58/46 64/64/52 65/65/53 59/59/47
f 66/66/54 62/62/50 63/63/51 67/67/55
f 64/64/52 68/68/56 69/69/57 65/65/53
f 68/68/56 66/66/54 67/67/55 69/69/57
f 70/70/58 71/71/59 72/72/60 73/73/61
f 74/74/62 75/75/63 76/76/64 77/77/65
f 78/78/66 70/70/58 73/73/61 79/79/67
f 75/75/63 80/80/68 81/81/69 76/76/64
f 80/80/68 82/82/70 83/83/71 81/81/69
f 84/84/72 78/78/66 79/79/67 85/85/73
f 82/82/70 84/84/72 85/85/73 83/83/71
f 71/71/59 74/74/62 77/77/65 72/72/60
f 69/69/57 67/67/55 86/86/74 87/87/75
f 57/57/45 56/56/44 88/88/76 89/89/77
f 56/56/44 59/59/47 90/90/78 88/88/76
f 61/61/49 57/57/45 89/89/77 91/91/79
f 63/63/51 61/61/49 91/91/79 92/92/80
f 59/59/47 65/65/53 93/93/81 90/90/78
f 67/67/55 63/63/51 92/92/80 86/86/74
f 65/65/53 69/69/57 87/87/75 93/93/81
f 89/89/77 94/94/82 95/95/83 91/91/79
f 87/87/75 96/96/84 97/97/85 93/93/81
f 86/86/74 98/98/86 96/96/84 87/87/75
f 88/88/76 99/99/87 94/94/82 89/89/77
f 90/90/78 100/100/88 99/99/87 88/88/76
f 93/93/81 97/97/85 100/100/88 90/90/78
f 92/92/80 101/101/89 98/98/86 86/86/74
f 102/102/90 103/103/91 104/104/92 105/105/93
f 106/106/94 107/107/95 108/108/96 109/109/97
f 110/110/98 111/111/99 112/112/100 113/113/101
f 111/111/99 114/114/102 115/115/103 112/112/100
f 103/103/91 116/116/104 117/117/105 104/104/92
f 107/107/95 110/110/98 113/113/101 108/108/96
f 114/114/102 102/102/90 105/105/93 115/115/103
f 116/116/104 106/106/94 109/109/97 117/117/105
f 113/113/101 112/112/100 118/118/106 119/119/107
f 112/112/100 115/115/103 120/120/108 118/118/106
f 109/109/97 108/108/96 121/121/109 122/122/110
f 108/108/96 113/113/101 119/119/107 121/121/109
f 115/115/103 105/105/93 123/123/111 120/120/108
f 117/117/105 109/109/97 122/122/110 124/124/112
f 105/105/93 104/104/92 125/125/113 123/123/111
f 104/104/92 117/117/105 124/124/112 125/125/113
f 126/126/114 127/127/115 128/128/116 129/129/117
f 130/130/118 131/131/119 132/132/120 133/133/121
f 127/127/115 134/134/122 135/135/123 128/128/116
f 131/131/119 126/126/114 129/129/117 132/132/120
f 134/134/122 136/136/124 137/137/125 135/135/123
f 138/138/126 139/139/127 140/140/128 141/141/129
f 139/139/127 130/130/118 133/133/121 140/140/128
f 136/136/124 138/138/126 141/141/129 137/137/125
f 133/133/121 132/132/120 142/142/130 143/143/131
f 128/128/116 135/135/123 144/144/132 145/145/133
f 132/132/120 129/129/117 146/146/134 142/142/130
f 135/135/123 137/137/125 147/147/135 144/144/132
f 141/141/129 140/140/128 148/148/136 149/149/137
f 140/140/128 133/133/121 143/143/131 148/148/136
f 137/137/125 141/141/129 149/149/137 147/147/135
f 129/129/117 128/128/116 145/145/133 146/146/134
f 142/142/130 150/150/138 148/148/136 143/143/131
f 146/146/134 145/145/133 150/150/138 142/142/130
f 145/145/133 144/144/132 147/147/135 150/150/138
f 150/150/138 147/147/135 149/149/137 148/148/136
f 91/91/79 95/95/83 101/101/89 92/92/80
f 72/151/60 77/152/65 66/66/54 68/68/56
f 73/153/61 72/151/60 68/68/56 64/64/52
f 77/152/65 76/154/64 62/62/50 66/66/54
f 79/155/67 73/153/61 64/64/52 58/58/46
f 76/154/64 81/156/69 60/60/48 62/62/50
f 81/156/69 83/157/71 54/54/42 60/60/48
f 85/158/73 79/155/67 58/58/46 55/55/43
f 83/157/71 85/158/73 55/55/43 54/54/42
f 38/38/139 51/51/140 151/159/140 152/160/139
f 39/39/141 38/38/139 152/160/139 153/161/141
f 47/47/142 46/46/143 53/53/143 154/162/142
f 42/42/144 39/39/141 153/161/141 155/163/144
f 46/46/143 43/43/145 156/164/145 53/53/143
f 43/43/145 42/42/144 155/163/144 156/164/145
f 51/51/140 50/50/146 157/165/146 151/159/140
f 50/50/146 47/47/142 154/162/142 157/165/146
f 158/166/59 159/167/62 160/168/62 161/169/59
f 162/170/70 163/171/72 164/172/72 165/173/70
f 163/171/72 166/174/66 167/175/66 164/172/72
f 168/176/68 162/170/70 165/173/70 169/177/68
f 170/178/63 168/176/68 169/177/68 171/179/63
f 166/174/66 172/180/58 173/181/58 167/175/66
f 159/167/62 170/178/63 171/179/63 160/168/62
f 172/180/58 158/166/59 161/169/59 173/181/58
f 161/182/59 160/183/62 74/184/62 71/185/59
f 165/186/70 164/187/72 84/188/72 82/189/70
f 164/187/72 167/190/66 78/191/66 84/188/72
f 169/192/68 165/186/70 82/189/70 80/193/68
f 171/194/63 169/192/68 80/193/68 75/195/63
f 167/190/66 173/196/58 70/197/58 78/191/66
f 160/183/62 171/194/63 75/195/63 74/184/62
f 98/198/86 101/199/89 106/200/94 116/201/104
f 100/202/88 97/203/85 102/204/90 114/205/102
f 95/206/83 94/207/82 110/208/98 107/209/95
f 96/210/84 98/198/86 116/201/104 103/211/91
f 99/212/87 100/202/88 114/205/102 111/213/99
f 94/207/82 99/212/87 111/213/99 110/208/98
f 101/199/89 95/206/83 107/209/95 106/200/94
f 97/203/85 96/210/84 103/211/91 102/204/90
f 121/214/109 119/215/107 138/216/126 136/217/124
f 118/218/106 120/219/108 130/220/118 139/221/127
f 119/215/107 118/218/106 139/221/127 138/216/126
f 122/222/110 121/214/109 136/217/124 134/223/122
f 123/224/111 125/225/113 126/226/114 131/227/119
f 124/228/112 122/222/110 134/223/122 127/229/115
f 120/219/108 123/224/111 131/227/119 130/220/118
f 125/225/113 124/228/112 127/229/115 126/226/114
f 173/196/58 161/182/59 71/185/59 70/197/58
