# Blender v2.91.0 Beta OBJ File: 'stadium.blend'
# www.blender.org
o Sedan_Cube.002_Sedan_Cube.007
v -0.859874 1.253803 2.427584
v 0.000000 1.344733 1.085764
v -0.859874 1.344733 1.085764
v -0.859874 1.285313 -0.274062
v -0.710598 1.776876 0.683871
v -0.710598 1.788760 -0.150901
v 0.000000 1.253803 2.427584
v -0.859873 1.110582 2.604080
v 0.000000 1.110582 2.604080
v 0.000000 1.285313 -0.274062
v 0.000000 1.204286 -2.604079
v -0.859875 1.204286 -2.604079
v 0.000000 1.776876 0.683870
v 0.000000 1.788760 -0.150901
v -0.859873 0.325306 2.584386
v 0.000000 0.325306 -2.604079
v 0.000000 0.325306 2.584386
v -0.936346 0.812937 1.548640
v -0.936347 0.766948 -1.005673
v -0.859875 0.325306 -2.604079
v -0.706874 0.415305 2.330802
v -0.977900 0.700331 2.212740
v -0.977900 0.415305 2.330802
v -0.977900 0.415305 1.524627
v -0.977900 0.818392 1.927714
v -0.977900 0.700331 1.642689
v -0.706874 0.012217 1.927714
v -0.977900 0.130279 1.642689
v -0.706874 0.130279 1.642689
v -0.706874 0.818392 1.927714
v -0.977900 0.130279 2.212740
v -0.706874 0.130279 2.212740
v -0.977900 0.012217 1.927714
v -0.706874 0.700331 1.642689
v -0.706874 0.415305 1.524627
v -0.706875 0.415305 -0.904963
v -0.977901 0.700331 -1.023025
v -0.977901 0.415305 -0.904963
v -0.977901 0.415305 -1.711138
v -0.977901 0.818392 -1.308051
v -0.977901 0.700331 -1.593077
v -0.706875 0.012217 -1.308051
v -0.977901 0.130279 -1.593076
v -0.706875 0.130279 -1.593076
v -0.706875 0.818392 -1.308051
v -0.977901 0.130279 -1.023025
v -0.706875 0.130279 -1.023025
v -0.977901 0.012217 -1.308051
v -0.706875 0.700331 -1.593077
v -0.706875 0.415305 -1.711138
v 0.859874 1.253803 2.427584
v 0.859874 1.344733 1.085764
v 0.859874 1.285313 -0.274062
v 0.710598 1.788760 -0.150901
v 0.710598 1.776876 0.683871
v 0.859873 1.110582 2.604080
v 0.859875 1.204286 -2.604079
v 0.859873 0.325306 2.584386
v 0.936346 0.812937 1.548640
v 0.936347 0.766948 -1.005673
v 0.859875 0.325306 -2.604079
v 0.977900 0.700331 2.212740
v 0.706874 0.415305 2.330802
v 0.977900 0.415305 2.330802
v 0.977900 0.415305 1.524627
v 0.977900 0.700331 1.642689
v 0.977900 0.818392 1.927714
v 0.977900 0.130279 1.642689
v 0.706874 0.012217 1.927714
v 0.706874 0.130279 1.642689
v 0.706874 0.818392 1.927714
v 0.977900 0.130279 2.212740
v 0.977900 0.012217 1.927714
v 0.706874 0.130279 2.212740
v 0.706874 0.700331 1.642689
v 0.706874 0.415305 1.524627
v 0.977901 0.700331 -1.023025
v 0.706875 0.415305 -0.904963
v 0.977901 0.415305 -0.904963
v 0.977901 0.415305 -1.711138
v 0.977901 0.700331 -1.593077
v 0.977901 0.818392 -1.308051
v 0.977901 0.130279 -1.593076
v 0.706875 0.012217 -1.308051
v 0.706875 0.130279 -1.593076
v 0.706875 0.818392 -1.308051
v 0.977901 0.130279 -1.023025
v 0.977901 0.012217 -1.308051
v 0.706875 0.130279 -1.023025
v 0.706875 0.700331 -1.593077
v 0.706875 0.415305 -1.711138
v -0.706874 0.700331 2.212740
v -0.706875 0.700331 -1.023025
v 0.706874 0.700331 2.212740
v 0.706875 0.700331 -1.023025
vt 0.710033 0.515044
vt 0.547257 0.769635
vt 0.710033 0.769635
vt 0.349200 0.552220
vt 0.251613 0.370671
vt 0.249606 0.528964
vt 0.547257 0.515044
vt 0.701712 0.472017
vt 0.547257 0.472017
vt 0.160653 0.223897
vt 0.320875 0.275579
vt 0.160653 0.275579
vt 0.547257 0.215138
vt 0.998511 0.006921
vt 0.547257 0.006921
vt 0.723875 0.472017
vt 0.858392 0.630056
vt 0.858392 0.472017
vt 0.681774 0.881349
vt 0.159553 0.191649
vt 0.331618 0.019585
vt 0.331618 0.191649
vt 0.533415 0.011130
vt 0.384099 0.006921
vt 0.440058 0.207234
vt 0.448739 0.690332
vt 0.533415 0.992684
vt 0.366487 0.993079
vt 0.180651 0.981346
vt 0.322402 0.598872
vt 0.322402 0.981346
vt 0.550311 0.239629
vt 0.993327 0.458174
vt 0.550311 0.458174
vt 0.338214 0.294359
vt 0.159553 0.019585
vt 0.993327 0.239630
vt 0.356793 0.040306
vt 0.005285 0.137308
vt 0.112484 0.259332
vt 0.112484 0.137308
vt 0.910874 0.949947
vt 0.719729 0.870772
vt 0.798904 0.949947
vt 0.005285 0.869456
vt 0.112484 0.747432
vt 0.005285 0.747432
vt 0.005285 0.381357
vt 0.112484 0.381357
vt 0.910874 0.679627
vt 0.798904 0.679627
vt 0.005285 0.991481
vt 0.112484 0.869456
vt 0.112484 0.625407
vt 0.005285 0.503382
vt 0.005285 0.625407
vt 0.112484 0.503382
vt 0.990049 0.870772
vt 0.005285 0.015283
vt 0.112484 0.015283
vt 0.719729 0.758802
vt 0.990049 0.758802
vt 0.005285 0.137308
vt 0.112484 0.259332
vt 0.112484 0.137308
vt 0.910874 0.949947
vt 0.719729 0.870772
vt 0.798904 0.949947
vt 0.005285 0.869456
vt 0.112484 0.747432
vt 0.005285 0.747432
vt 0.005285 0.381357
vt 0.112484 0.381357
vt 0.910874 0.679627
vt 0.798904 0.679627
vt 0.005285 0.991481
vt 0.112484 0.869456
vt 0.112484 0.625407
vt 0.005285 0.503382
vt 0.005285 0.625407
vt 0.112484 0.503382
vt 0.990049 0.870772
vt 0.005285 0.015283
vt 0.112484 0.015283
vt 0.719729 0.758802
vt 0.990049 0.758802
vt 0.710033 0.515044
vt 0.710033 0.769635
vt 0.349200 0.552220
vt 0.249606 0.528964
vt 0.251613 0.370671
vt 0.701712 0.472017
vt 0.160653 0.223897
vt 0.160653 0.275579
vt 0.547257 0.215138
vt 0.547257 0.006921
vt 0.723875 0.472017
vt 0.723875 0.630056
vt 0.681774 0.881349
vt 0.547257 0.881349
vt 0.159553 0.191649
vt 0.533415 0.011130
vt 0.440058 0.207234
vt 0.384099 0.006921
vt 0.448739 0.690332
vt 0.533415 0.992684
vt 0.366487 0.993079
vt 0.180651 0.981346
vt 0.322402 0.981346
vt 0.550311 0.239629
vt 0.550311 0.458174
vt 0.338214 0.294359
vt 0.159553 0.019585
vt 0.356793 0.040306
vt 0.112484 0.259332
vt 0.005285 0.137308
vt 0.112484 0.137308
vt 0.910874 0.949947
vt 0.798904 0.949947
vt 0.719729 0.870772
vt 0.112484 0.747432
vt 0.005285 0.869456
vt 0.005285 0.747432
vt 0.005285 0.381357
vt 0.112484 0.381357
vt 0.798904 0.679627
vt 0.910874 0.679627
vt 0.112484 0.869456
vt 0.005285 0.991481
vt 0.005285 0.503382
vt 0.112484 0.625407
vt 0.005285 0.625407
vt 0.112484 0.503382
vt 0.990049 0.870772
vt 0.005285 0.015283
vt 0.112484 0.015283
vt 0.719729 0.758802
vt 0.990049 0.758802
vt 0.112484 0.259332
vt 0.005285 0.137308
vt 0.112484 0.137308
vt 0.910874 0.949947
vt 0.798904 0.949947
vt 0.719729 0.870772
vt 0.112484 0.747432
vt 0.005285 0.869456
vt 0.005285 0.747432
vt 0.005285 0.381357
vt 0.112484 0.381357
vt 0.798904 0.679627
vt 0.910874 0.679627
vt 0.112484 0.869456
vt 0.005285 0.991481
vt 0.005285 0.503382
vt 0.112484 0.625407
vt 0.005285 0.625407
vt 0.112484 0.503382
vt 0.990049 0.870772
vt 0.005285 0.015283
vt 0.112484 0.015283
vt 0.719729 0.758802
vt 0.990049 0.758802
vt 0.701712 0.515044
vt 0.320875 0.223897
vt 0.998511 0.215138
vt 0.723875 0.630056
vt 0.180651 0.598872
vt 0.005285 0.259332
vt 0.112484 0.991481
vt 0.005285 0.259332
vt 0.112484 0.991481
vt 0.701712 0.515044
vt 0.005285 0.259332
vt 0.112484 0.991481
vt 0.005285 0.259332
vt 0.112484 0.991481
vn 0.0000 0.9977 0.0676
vn -0.9814 0.1920 -0.0031
vn -0.9513 0.3081 -0.0099
vn -0.9590 0.2834 0.0040
vn 0.0000 0.7765 0.6301
vn 0.0000 0.4187 0.9081
vn 0.0000 0.2376 -0.9714
vn 0.0000 0.9994 -0.0348
vn 0.0000 0.9999 0.0142
vn 0.0000 0.6810 0.7323
vn 0.0000 -1.0000 -0.0000
vn -0.9976 -0.0446 0.0533
vn -0.9975 0.0273 0.0646
vn -0.9999 0.0014 0.0134
vn -0.9999 -0.0087 -0.0063
vn -0.9988 -0.0297 -0.0396
vn -0.9988 0.0291 -0.0398
vn 0.0000 0.0000 -1.0000
vn 0.0000 -0.0251 0.9997
vn -0.9835 0.1809 -0.0045
vn -0.9955 0.0841 0.0444
vn 0.0000 -0.0000 1.0000
vn 0.0000 0.7071 0.7071
vn -1.0000 0.0000 0.0000
vn 0.0000 -0.7071 -0.7071
vn 0.0000 1.0000 -0.0000
vn 0.0000 -0.7071 0.7071
vn 0.0000 0.7071 -0.7071
vn 0.9814 0.1920 -0.0031
vn 0.9590 0.2834 0.0040
vn 0.9513 0.3081 -0.0099
vn 0.9976 -0.0446 0.0533
vn 0.9999 0.0014 0.0134
vn 0.9975 0.0273 0.0646
vn 0.9999 -0.0087 -0.0063
vn 0.9988 -0.0297 -0.0396
vn 0.9988 0.0291 -0.0398
vn 0.9835 0.1809 -0.0045
vn 0.9955 0.0841 0.0444
vn 1.0000 0.0000 0.0000
s 1
f 1/1/1 2/2/1 3/3/1
f 4/4/2 5/5/3 6/6/4
f 7/7/5 8/8/6 9/9/6
f 6/10/7 10/11/7 4/12/7
f 4/13/8 11/14/8 12/15/8
f 6/16/9 13/17/9 14/18/9
f 2/2/10 5/19/10 3/3/10
f 15/20/11 16/21/11 17/22/11
f 15/23/12 8/24/13 18/25/14
f 15/23/12 19/26/15 20/27/16
f 20/27/16 19/26/15 12/28/17
f 12/29/18 16/30/18 20/31/18
f 15/32/19 9/33/6 8/34/6
f 3/35/20 5/5/3 4/4/2
f 20/36/11 16/21/11 15/20/11
f 17/37/19 9/33/6 15/32/19
f 18/25/14 4/4/2 19/26/15
f 19/26/15 4/4/2 12/28/17
f 8/24/13 1/38/21 18/25/14
f 1/38/21 3/35/20 18/25/14
f 21/39/22 22/40/23 23/41/22
f 24/42/24 25/43/24 26/44/24
f 27/45/11 28/46/25 29/47/25
f 22/40/23 30/48/26 25/49/26
f 25/43/24 31/50/24 23/51/24
f 32/52/27 33/53/11 27/45/11
f 24/54/18 34/55/28 35/56/18
f 25/49/26 34/55/28 26/57/28
f 28/58/24 25/43/24 24/42/24
f 32/59/27 23/41/22 31/60/27
f 25/43/24 23/51/24 22/61/24
f 28/46/25 35/56/18 29/47/25
f 33/62/24 31/50/24 25/43/24
f 33/62/24 25/43/24 28/58/24
f 36/63/22 37/64/23 38/65/22
f 39/66/24 40/67/24 41/68/24
f 42/69/11 43/70/25 44/71/25
f 37/64/23 45/72/26 40/73/26
f 40/67/24 46/74/24 38/75/24
f 47/76/27 48/77/11 42/69/11
f 39/78/18 49/79/28 50/80/18
f 40/73/26 49/79/28 41/81/28
f 43/82/24 40/67/24 39/66/24
f 47/83/27 38/65/22 46/84/27
f 40/67/24 38/75/24 37/85/24
f 43/70/25 50/80/18 44/71/25
f 48/86/24 46/74/24 40/67/24
f 48/86/24 40/67/24 43/82/24
f 2/2/1 51/87/1 52/88/1
f 53/89/29 54/90/30 55/91/31
f 56/92/6 7/7/5 9/9/6
f 10/11/7 54/93/7 53/94/7
f 11/14/8 53/95/8 57/96/8
f 54/97/9 13/17/9 55/98/9
f 2/2/10 55/99/10 13/100/10
f 58/101/11 17/22/11 16/21/11
f 58/102/32 59/103/33 56/104/34
f 58/102/32 60/105/35 59/103/33
f 61/106/36 57/107/37 60/105/35
f 16/30/18 57/108/18 61/109/18
f 58/110/19 56/111/6 9/33/6
f 52/112/38 53/89/29 55/91/31
f 61/113/11 58/101/11 16/21/11
f 17/37/19 58/110/19 9/33/6
f 59/103/33 53/89/29 52/112/38
f 60/105/35 57/107/37 53/89/29
f 56/104/34 59/103/33 51/114/39
f 51/114/39 59/103/33 52/112/38
f 62/115/23 63/116/22 64/117/22
f 65/118/40 66/119/40 67/120/40
f 68/121/25 69/122/11 70/123/25
f 71/124/26 62/115/23 67/125/26
f 67/120/40 64/126/40 72/127/40
f 73/128/11 74/129/27 69/122/11
f 75/130/28 65/131/18 76/132/18
f 75/130/28 67/125/26 66/133/28
f 68/134/40 65/118/40 67/120/40
f 64/117/22 74/135/27 72/136/27
f 67/120/40 62/137/40 64/126/40
f 76/132/18 68/121/25 70/123/25
f 73/138/40 67/120/40 72/127/40
f 73/138/40 68/134/40 67/120/40
f 77/139/23 78/140/22 79/141/22
f 80/142/40 81/143/40 82/144/40
f 83/145/25 84/146/11 85/147/25
f 86/148/26 77/139/23 82/149/26
f 82/144/40 79/150/40 87/151/40
f 88/152/11 89/153/27 84/146/11
f 90/154/28 80/155/18 91/156/18
f 90/154/28 82/149/26 81/157/28
f 83/158/40 80/142/40 82/144/40
f 79/141/22 89/159/27 87/160/27
f 82/144/40 77/161/40 79/150/40
f 91/156/18 83/145/25 85/147/25
f 88/162/40 82/144/40 87/151/40
f 88/162/40 83/158/40 82/144/40
f 1/1/1 7/7/1 2/2/1
f 7/7/5 1/163/5 8/8/6
f 6/10/7 14/164/7 10/11/7
f 4/13/8 10/165/8 11/14/8
f 6/16/9 5/166/9 13/17/9
f 2/2/10 13/100/10 5/19/10
f 15/23/12 18/25/14 19/26/15
f 12/29/18 11/167/18 16/30/18
f 18/25/14 3/35/20 4/4/2
f 21/39/22 92/168/23 22/40/23
f 27/45/11 33/53/11 28/46/25
f 22/40/23 92/168/23 30/48/26
f 32/52/27 31/169/27 33/53/11
f 24/54/18 26/57/28 34/55/28
f 25/49/26 30/48/26 34/55/28
f 32/59/27 21/39/22 23/41/22
f 28/46/25 24/54/18 35/56/18
f 36/63/22 93/170/23 37/64/23
f 42/69/11 48/77/11 43/70/25
f 37/64/23 93/170/23 45/72/26
f 47/76/27 46/171/27 48/77/11
f 39/78/18 41/81/28 49/79/28
f 40/73/26 45/72/26 49/79/28
f 47/83/27 36/63/22 38/65/22
f 43/70/25 39/78/18 50/80/18
f 2/2/1 7/7/1 51/87/1
f 56/92/6 51/172/5 7/7/5
f 10/11/7 14/164/7 54/93/7
f 11/14/8 10/165/8 53/95/8
f 54/97/9 14/18/9 13/17/9
f 2/2/10 52/88/10 55/99/10
f 58/102/32 61/106/36 60/105/35
f 16/30/18 11/167/18 57/108/18
f 59/103/33 60/105/35 53/89/29
f 62/115/23 94/173/23 63/116/22
f 68/121/25 73/128/11 69/122/11
f 71/124/26 94/173/23 62/115/23
f 73/128/11 72/174/27 74/129/27
f 75/130/28 66/133/28 65/131/18
f 75/130/28 71/124/26 67/125/26
f 64/117/22 63/116/22 74/135/27
f 76/132/18 65/131/18 68/121/25
f 77/139/23 95/175/23 78/140/22
f 83/145/25 88/152/11 84/146/11
f 86/148/26 95/175/23 77/139/23
f 88/152/11 87/176/27 89/153/27
f 90/154/28 81/157/28 80/155/18
f 90/154/28 86/148/26 82/149/26
f 79/141/22 78/140/22 89/159/27
f 91/156/18 80/155/18 83/145/25
o Sedan_Cube.002_Sedan_Cube.008
v 0.563115 1.289345 2.456422
v 0.554000 1.084455 2.456548
v 0.849596 1.278414 2.462938
v -0.563115 1.289345 2.456422
v -0.554000 1.084455 2.456548
v -0.849596 1.278414 2.462938
v -0.853606 1.092420 2.458379
v 0.853606 1.092420 2.458379
v -0.842040 0.991523 -2.598770
v -0.572122 1.138756 -2.598770
v -0.842040 1.138756 -2.598770
v -0.572122 0.991523 -2.598770
v -0.727569 0.389586 4.544017
v -1.326832 0.637808 4.544017
v -1.575056 1.237072 4.544017
v 0.842040 0.991523 -2.598770
v 0.572122 1.138756 -2.598770
v 0.842040 1.138756 -2.598770
v 0.572122 0.991523 -2.598770
v -1.326833 1.836336 4.544019
v -0.727570 2.084558 4.544019
v -0.128305 0.637810 4.544017
v -0.128307 1.836337 4.544019
v -0.768423 0.217656 -4.217910
v -0.169160 0.465880 -4.217910
v 0.727569 0.389586 4.544017
v 1.326832 0.637808 4.544017
v 1.575056 1.237072 4.544017
v 1.326833 1.836336 4.544019
v 0.727570 2.084558 4.544019
v -0.169160 1.664407 -4.217906
v 0.128305 0.637810 4.544017
v 0.128307 1.836337 4.544019
v 0.768423 0.217656 -4.217910
v 0.169160 0.465880 -4.217910
v 0.169160 1.664407 -4.217906
v 0.768423 1.912630 -4.217906
v 1.615909 1.065143 -4.217909
v 1.367686 0.465880 -4.217910
v 1.367686 1.664407 -4.217906
v -0.768423 1.912630 -4.217906
v -1.615909 1.065143 -4.217909
v 0.042684 1.065143 -4.220098
v -1.367686 0.465880 -4.217910
v -1.367686 1.664407 -4.217906
v -0.042684 1.065143 -4.220098
v 0.000000 1.209917 4.172573
v 0.000000 0.947568 4.544017
v 0.000000 1.246251 4.177507
v 0.000000 1.526578 4.544018
vt 0.762657 0.971394
vt 0.762657 0.970012
vt 0.762657 0.971394
vt 0.762657 0.970012
vt 0.762657 0.971394
vt 0.762657 0.970012
vt 0.963881 0.471235
vt 0.962270 0.471235
vt 0.962270 0.471235
vt 0.762657 0.970012
vt 0.963881 0.471235
vt 0.762657 0.971394
vt 0.556953 0.994141
vt 0.991130 0.676802
vt 0.556953 0.990234
vt 0.963881 0.471235
vt 0.962270 0.471235
vt 0.962270 0.471235
vt 0.963881 0.471235
vt 0.963076 0.676802
vt 0.943238 0.676802
vt 0.556953 0.970703
vt 0.556953 0.951172
vt 0.556953 0.943359
vt 0.556953 0.951172
vt 0.556953 0.943359
vt 0.556953 0.951172
vt 0.556953 0.970703
vt 0.556953 0.990234
vt 0.556953 0.994141
vt 0.982913 0.676802
vt 0.963076 0.677133
vt 0.556953 0.990234
vt 0.991130 0.676802
vt 0.982913 0.676802
vt 0.943238 0.676802
vt 0.935021 0.676802
vt 0.963076 0.676802
vt 0.982913 0.676802
vt 0.943238 0.676802
vt 0.556953 0.990234
vt 0.943238 0.676802
vt 0.556953 0.951172
vt 0.963076 0.677133
vt 0.593556 0.970580
vt 0.935021 0.676802
vt 0.982913 0.676802
vt 0.593067 0.970824
vt 0.556953 0.961268
vt 0.556953 0.980138
vn 0.1319 -0.1445 0.9807
vn -0.0113 -0.0890 0.9960
vn -0.0591 -0.0082 0.9982
vn 0.0689 -0.0046 0.9976
vn 0.0000 0.0000 -1.0000
vn -0.0285 0.0379 0.9989
vn 0.3195 -0.8910 0.3227
vn -0.9859 -0.1287 0.1066
vn 0.0124 -0.9429 0.3330
vn 0.6000 0.6000 -0.5292
vn -0.8676 0.2379 -0.4367
vn 0.0067 0.9134 -0.4070
vn -0.6608 -0.6803 0.3172
vn 0.7915 -0.5607 -0.2430
vn 0.9086 0.0000 -0.4177
vn 0.6426 -0.6426 -0.4172
vn 0.9136 0.2449 0.3246
vn 0.9506 -0.0073 0.3103
vn 0.6905 0.6552 0.3063
vn 0.0576 0.9558 0.2883
vn -0.6620 0.6439 0.3836
vn -0.6674 0.6971 0.2621
vn -0.2701 0.9030 0.3341
vn 0.0511 0.9561 0.2884
vn -0.6571 0.6888 0.3063
vn -0.9058 -0.2824 0.3158
vn -0.9506 -0.0037 0.3103
vn -0.6589 -0.6769 0.3282
vn 0.0055 -0.9429 0.3330
vn 0.0919 -0.9894 0.1126
vn -0.7392 0.5566 -0.3791
vn 0.6614 0.6446 0.3836
vn -0.3533 -0.9274 -0.1229
vn -0.0345 0.2006 -0.9791
vn 0.6698 -0.6714 0.3172
vn -0.6000 0.6000 -0.5292
vn -0.0067 0.9134 -0.4070
vn 0.3269 0.8209 -0.4682
vn 0.6572 0.6519 -0.3782
vn 0.9570 -0.2764 -0.0877
vn 0.6572 -0.6519 -0.3782
vn -0.0067 -0.9134 -0.4070
vn -0.9086 0.0000 -0.4177
vn -0.6426 0.6426 -0.4172
vn -0.5607 -0.7915 -0.2430
vn -0.6426 -0.6426 -0.4172
vn 0.6694 -0.6664 0.3282
vn -0.7392 -0.5566 -0.3791
vn 0.6951 0.6695 0.2622
vn 0.0345 -0.2005 -0.9791
vn -0.0178 0.5953 0.8033
vn 0.0067 -0.9134 -0.4070
vn -0.1107 -0.1640 0.9802
vn -0.0344 0.2062 0.9779
vn 0.2264 0.0594 0.9722
vn 0.6426 0.6426 -0.4172
vn -0.0950 -0.1579 0.9829
vn -0.0224 0.7981 0.6021
vn 0.0048 -0.7886 0.6149
s 1
f 96/177/41 97/178/41 98/179/41
f 100/180/42 101/181/43 102/182/44
f 104/183/45 106/184/45 105/185/45
f 97/178/46 103/186/46 98/179/46
f 107/187/45 104/183/45 105/185/45
f 101/181/47 99/188/48 116/189/49
f 104/183/50 107/187/51 119/190/52
f 99/188/48 118/191/53 116/189/49
f 111/192/45 112/193/45 113/194/45
f 114/195/45 112/193/45 111/192/45
f 106/184/54 137/196/55 140/197/56
f 102/182/57 110/198/58 109/199/59
f 102/182/57 109/199/59 108/200/60
f 100/180/61 108/200/60 117/201/62
f 103/186/63 121/202/64 122/203/65
f 98/179/66 123/204/67 124/205/68
f 98/179/66 125/206/69 96/177/70
f 107/187/51 120/207/71 119/190/52
f 103/186/63 123/204/67 98/179/66
f 97/178/72 121/202/64 103/186/63
f 107/187/51 105/185/73 141/208/74
f 96/177/70 125/206/69 128/209/75
f 111/192/76 129/210/77 114/195/78
f 114/195/78 129/210/77 130/211/79
f 112/193/80 131/212/81 132/213/82
f 111/192/76 133/214/83 134/215/84
f 113/194/85 135/216/86 133/214/83
f 113/194/85 132/213/82 135/216/86
f 102/182/57 101/181/47 110/198/58
f 101/181/47 115/217/87 110/198/58
f 105/185/73 126/218/88 141/208/74
f 98/179/66 124/205/68 125/206/69
f 107/187/51 141/208/74 120/207/71
f 103/186/63 122/203/65 123/204/67
f 97/178/72 127/219/89 121/202/64
f 111/192/76 134/215/84 129/210/77
f 111/192/76 113/194/85 133/214/83
f 113/194/85 112/193/80 132/213/82
f 104/183/50 137/196/55 106/184/54
f 112/193/80 138/220/90 131/212/81
f 114/195/78 138/220/90 112/193/80
f 114/195/78 130/211/79 138/220/90
f 142/221/91 99/188/48 100/180/61
f 117/201/62 142/221/91 100/180/61
f 105/185/73 136/222/92 126/218/88
f 99/188/93 101/181/94 100/180/95
f 104/183/50 139/223/96 137/196/55
f 101/181/47 116/189/49 115/217/87
f 106/184/54 136/222/92 105/185/73
f 100/180/61 102/182/57 108/200/60
f 144/224/97 118/191/53 99/188/48
f 106/184/54 140/197/56 136/222/92
f 104/183/50 119/190/52 139/223/96
f 128/209/75 144/224/97 96/177/70
f 142/221/91 127/219/89 97/178/72
f 96/177/70 142/221/91 97/178/72
f 142/221/91 144/224/97 99/188/48
f 117/201/62 143/225/98 142/221/91
f 144/224/97 145/226/99 118/191/53
f 128/209/75 145/226/99 144/224/97
f 142/221/91 143/225/98 127/219/89
f 96/177/70 144/224/97 142/221/91
