# Blender v2.90.0 Alpha OBJ File: 'BirdSea.blend'
# www.blender.org
o seagull-frame1_Sphere.002
v -0.000000 0.802322 0.710633
v -0.000000 0.902421 0.607903
v -0.000000 0.972219 0.418767
v -0.000000 0.750862 0.363033
v -0.000000 0.767742 0.667281
v -0.000000 0.773414 0.511365
v -0.000000 1.033520 0.176684
v 0.000000 0.665967 -0.021392
v 0.000000 0.877751 -0.177792
v 0.000000 0.719509 -0.696252
v -0.000000 0.714142 0.770394
v -0.036007 0.791297 0.668026
v -0.083307 0.824085 0.580645
v -0.143414 0.776779 0.265096
v -0.052494 0.735900 -0.143140
v -1.005443 1.462708 0.230737
v -0.475356 1.254790 0.137032
v -0.200533 0.992953 0.191106
v -0.271723 0.997230 0.269219
v -0.461762 1.175639 0.277806
v -0.312868 0.806356 0.390977
v -0.580910 1.072117 0.282482
v -0.147306 0.505795 -0.579873
v 0.036007 0.791297 0.668026
v -0.000000 0.834555 0.661248
v 0.083307 0.824085 0.580645
v 0.143414 0.776779 0.265096
v 0.052494 0.735900 -0.143140
v 1.005443 1.462708 0.230737
v 0.475356 1.254790 0.137032
v 0.200533 0.992953 0.191106
v 0.271723 0.997230 0.269219
v 0.461762 1.175639 0.277807
v 0.312868 0.806356 0.390977
v 0.580910 1.072117 0.282482
v 0.147306 0.505795 -0.579873
vt 0.257812 0.789062
vt 0.257812 0.789062
vt 0.257812 0.789062
vt 0.257812 0.789062
vt 0.257812 0.789062
vt 0.257812 0.789062
vt 0.257812 0.789062
vt 0.257812 0.789062
vt 0.257812 0.789062
vt 0.257812 0.789062
vt 0.257812 0.789062
vt 0.257812 0.789062
vt 0.257812 0.789062
vt 0.117188 0.882812
vt 0.117188 0.882812
vt 0.117188 0.882812
vt 0.257812 0.789062
vt 0.117188 0.882812
vt 0.117188 0.882812
vt 0.117188 0.882812
vt 0.257812 0.789062
vt 0.257812 0.789062
vt 0.257812 0.789062
vt 0.257812 0.789062
vt 0.117188 0.882812
vt 0.257812 0.789062
vt 0.257812 0.789062
vt 0.257812 0.789062
vt 0.257812 0.789062
vt 0.257812 0.789062
vt 0.257812 0.789062
vt 0.257812 0.789062
vt 0.257812 0.789062
vt 0.257812 0.789062
vt 0.257812 0.789062
vt 0.257812 0.789062
vt 0.117188 0.882812
vt 0.257812 0.789062
vt 0.257812 0.789062
vt 0.257812 0.789062
vn 0.9934 -0.0681 -0.0923
vn 0.8456 0.5175 0.1310
vn 0.6109 -0.6859 -0.3954
vn 0.1213 -0.3352 -0.9343
vn 0.6006 0.5853 0.5447
vn -0.9362 -0.3509 -0.0183
vn -0.5081 -0.7642 -0.3972
vn -0.1213 -0.3352 -0.9343
vn -0.5476 -0.8366 -0.0175
vn 0.0388 -0.0896 -0.9952
vn -0.6109 -0.6859 -0.3954
vn -0.3947 -0.8166 -0.4210
vn -0.9019 0.3799 -0.2055
vn -0.7055 0.6649 0.2454
vn 0.5476 -0.8366 -0.0175
vn 0.7151 -0.6932 -0.0899
vn 0.3947 -0.8166 -0.4210
vn 0.6424 0.4736 0.6025
vn 0.3080 -0.9290 0.2052
vn -0.0388 -0.0896 -0.9952
vn 0.5989 -0.3349 -0.7274
vn 0.6703 0.6215 0.4056
vn 0.6909 -0.3907 -0.6083
vn -0.8507 -0.5028 0.1535
vn 0.7550 0.3679 0.5428
vn -0.3080 -0.9290 0.2052
vn -0.3353 -0.9242 0.1826
vn -0.8456 0.5175 0.1310
vn 0.9019 0.3799 -0.2055
vn -0.6424 0.4736 0.6025
vn -0.7550 0.3679 0.5428
vn -0.7151 -0.6932 -0.0899
vn -0.8314 0.5505 0.0758
vn -0.9934 -0.0681 -0.0923
vn -0.5989 -0.3349 -0.7274
vn -0.6909 -0.3907 -0.6083
vn 0.8314 0.5505 0.0758
vn 0.3353 -0.9242 0.1826
vn 0.9362 -0.3509 -0.0183
vn 0.8507 -0.5028 0.1535
vn 0.5379 -0.8425 -0.0306
vn -0.6703 0.6215 0.4056
vn -0.5379 -0.8425 -0.0306
vn 0.7055 0.6649 0.2454
vn -0.6006 0.5853 0.5447
vn 0.5081 -0.7642 -0.3972
vn 0.5910 0.3966 0.7024
vn 0.3016 0.5502 0.7787
vn 0.3278 0.4653 0.8222
vn -0.5910 0.3966 0.7024
vn -0.3016 0.5502 0.7787
vn -0.3278 0.4653 0.8222
s off
f 28/1/1 8/2/1 10/3/1 9/4/1
f 3/5/2 27/6/2 7/7/2
f 32/8/3 31/9/3 30/10/3 33/11/3
f 34/12/4 32/8/4 33/11/4 35/13/4
f 26/14/5 25/15/5 24/16/5
f 9/4/6 36/17/6 28/1/6
f 5/18/7 11/19/7 12/20/7
f 21/21/8 22/22/8 20/23/8 19/24/8
f 5/18/9 12/20/9 13/25/9
f 22/22/10 16/26/10 20/23/10
f 19/24/11 20/23/11 17/27/11 18/28/11
f 20/23/12 16/26/12 17/27/12
f 7/7/13 9/4/13 15/29/13 14/30/13
f 13/31/14 2/32/14 3/5/14
f 5/18/15 26/14/15 24/16/15
f 27/6/16 8/2/16 28/1/16
f 33/11/17 30/10/17 29/33/17
f 25/34/18 26/35/18 2/32/18
f 27/6/19 4/36/19 8/2/19
f 35/13/20 33/11/20 29/33/20
f 27/6/21 32/8/21 34/12/21
f 24/16/22 25/15/22 1/37/22
f 27/6/23 31/9/23 32/8/23
f 10/3/24 36/17/24 9/4/24
f 24/16/25 1/37/25 11/19/25
f 14/30/26 8/2/26 4/36/26
f 6/38/27 13/31/27 14/30/27 4/36/27
f 3/5/28 7/7/28 14/30/28
f 7/7/29 27/6/29 28/1/29 9/4/29
f 25/34/30 2/32/30 13/31/30
f 12/20/31 11/19/31 1/37/31
f 14/30/32 15/29/32 8/2/32
f 13/31/33 3/5/33 14/30/33
f 15/29/34 9/4/34 10/3/34 8/2/34
f 14/30/35 21/21/35 19/24/35
f 14/30/36 19/24/36 18/28/36
f 26/35/37 27/6/37 3/5/37
f 6/38/38 4/36/38 27/6/38 26/35/38
f 9/4/39 15/29/39 23/39/39
f 10/3/40 9/4/40 23/39/40
f 6/38/41 26/35/41 5/40/41
f 12/20/42 1/37/42 25/15/42
f 6/38/43 5/40/43 13/31/43
f 26/35/44 3/5/44 2/32/44
f 13/25/45 12/20/45 25/15/45
f 5/18/46 24/16/46 11/19/46
f 14/30/47 18/28/47 21/21/47
f 22/22/48 21/21/48 18/28/48 17/27/48
f 17/27/49 16/26/49 22/22/49
f 27/6/50 34/12/50 31/9/50
f 35/13/51 30/10/51 31/9/51 34/12/51
f 30/10/52 35/13/52 29/33/52
