# Blender v2.91.0 Beta OBJ File: 'stadium.blend'
# www.blender.org
o Sedan_Cube.002
v 0.623068 0.535586 2.359250
v 0.717211 0.534156 2.360261
v 0.616715 0.649136 2.340085
v 0.734975 0.627894 2.346273
v 0.725343 0.729009 2.328953
v 0.615902 0.737305 2.330878
v 0.529058 0.726807 2.334077
v 0.525700 0.631517 2.351496
v -0.712940 0.535586 2.359250
v -0.807083 0.534156 2.360261
v -0.706587 0.649136 2.340085
v 0.535569 0.539917 2.360233
v -0.824847 0.627894 2.346273
v -0.815215 0.729009 2.328953
v -0.705774 0.737305 2.330878
v -0.618930 0.726807 2.334077
v -0.615572 0.631517 2.351496
v -0.625441 0.539917 2.360233
v 0.679113 0.763315 -2.343029
v 0.680803 0.839644 -2.340494
v 0.778198 0.785672 -2.343029
v 0.780298 0.839645 -2.343028
v 0.778198 0.893618 -2.343028
v 0.679113 0.915974 -2.343028
v 0.562982 0.893618 -2.340129
v 0.562156 0.839645 -2.343028
v -0.768985 0.763315 -2.343029
v -0.868070 0.785672 -2.343029
v -0.770675 0.839644 -2.340494
v 0.562723 0.785672 -2.343029
v -0.870170 0.839645 -2.343028
v -0.868070 0.893618 -2.343028
v -0.652854 0.893618 -2.340129
v -0.652028 0.839645 -2.343028
v -0.768985 0.915974 -2.343028
v -0.652595 0.785672 -2.343029
v 0.616715 1.365149 3.091499
v 0.616715 0.099364 3.091497
v 1.064238 0.284733 3.091497
v 0.169193 1.179779 3.091499
v 1.064238 1.179779 3.091499
v 1.249608 0.732256 3.091498
v -0.016177 0.732256 3.091498
v 0.169193 0.284733 3.091497
v -0.706587 1.365149 3.091499
v -0.706587 0.099364 3.091497
v -1.154110 0.284733 3.091497
v -0.259065 1.179779 3.091499
v -1.154110 1.179779 3.091499
v -1.339481 0.732256 3.091498
v 1.245517 0.839648 -3.420441
v 1.080116 0.440335 -3.420442
v 0.116089 0.839648 -3.420441
v 0.680803 1.404362 -3.420441
v 0.281490 1.238962 -3.420441
v 0.680803 0.274935 -3.420442
v 0.281490 0.440335 -3.420442
v 1.080116 1.238962 -3.420441
v -1.335389 0.839648 -3.420441
v -0.205961 0.839648 -3.420441
v -0.770675 1.404362 -3.420441
v -0.770675 0.274935 -3.420442
v -0.073695 0.732256 3.091498
v -0.259065 0.284733 3.091497
v -1.169988 0.440335 -3.420442
v -0.371362 0.440335 -3.420442
v -0.371362 1.238962 -3.420441
v -1.169988 1.238962 -3.420441
vt 0.124501 0.106159
vt 0.143944 0.105864
vt 0.123189 0.129610
vt 0.147613 0.125223
vt 0.145623 0.146106
vt 0.123021 0.147819
vt 0.105085 0.145651
vt 0.104392 0.125971
vt 0.124501 0.106159
vt 0.123189 0.129610
vt 0.143944 0.105864
vt 0.106430 0.107054
vt 0.147613 0.125223
vt 0.145623 0.146106
vt 0.123021 0.147819
vt 0.105085 0.145651
vt 0.104392 0.125971
vt 0.106430 0.107054
vt 0.612204 0.455965
vt 0.612733 0.479886
vt 0.643256 0.462971
vt 0.643915 0.479886
vt 0.643256 0.496801
vt 0.612204 0.503807
vt 0.575809 0.496801
vt 0.575550 0.479886
vt 0.158379 0.455965
vt 0.127326 0.462971
vt 0.157849 0.479886
vt 0.575728 0.462971
vt 0.126668 0.479886
vt 0.127326 0.496801
vt 0.194773 0.496801
vt 0.195032 0.479886
vt 0.158379 0.503807
vt 0.194855 0.462971
vt 0.123189 0.260318
vt 0.123189 -0.001099
vt 0.215614 0.037184
vt 0.030764 0.222034
vt 0.215614 0.222034
vt 0.253897 0.129609
vt -0.007519 0.129609
vt 0.030764 0.037184
vt 0.123189 0.260318
vt 0.215614 0.037184
vt 0.123189 -0.001099
vt 0.215614 0.222034
vt 0.030764 0.037184
vt -0.007519 0.129609
vt 0.253897 0.129609
vt 0.030764 0.222034
vt 0.789711 0.479887
vt 0.737876 0.354744
vt 0.435755 0.479887
vt 0.612733 0.656865
vt 0.487591 0.605029
vt 0.612733 0.302909
vt 0.487591 0.354744
vt 0.737876 0.605029
vt -0.019129 0.479887
vt 0.334827 0.479887
vt 0.157849 0.656865
vt 0.157849 0.302909
vt 0.032707 0.354744
vt 0.282991 0.354744
vt 0.282991 0.605029
vt 0.032707 0.605029
vn 0.0049 0.1667 0.9860
vn -0.0165 0.1588 0.9872
vn 0.0281 0.1419 0.9895
vn -0.0231 0.1587 0.9871
vn -0.0024 0.1412 0.9900
vn 0.0247 0.1041 0.9943
vn 0.0571 0.1409 0.9884
vn 0.0971 0.1369 0.9858
vn -0.0049 0.1667 0.9860
vn -0.0281 0.1419 0.9895
vn 0.0165 0.1588 0.9872
vn 0.0556 0.1410 0.9884
vn 0.0231 0.1587 0.9871
vn 0.0024 0.1412 0.9900
vn -0.0247 0.1041 0.9943
vn -0.0571 0.1409 0.9884
vn -0.0971 0.1369 0.9858
vn -0.0556 0.1410 0.9884
vn -0.0004 0.0332 -0.9994
vn -0.0060 0.0036 -1.0000
vn -0.0183 0.0139 -0.9997
vn -0.0255 0.0000 -0.9997
vn -0.0183 -0.0139 -0.9997
vn -0.0132 -0.0335 -0.9994
vn 0.0074 0.0230 -0.9997
vn 0.0213 0.0267 -0.9994
vn 0.0004 0.0332 -0.9994
vn 0.0183 0.0139 -0.9997
vn 0.0060 0.0036 -1.0000
vn 0.0161 0.0117 -0.9998
vn 0.0255 0.0000 -0.9997
vn 0.0183 -0.0139 -0.9997
vn -0.0074 0.0230 -0.9997
vn -0.0213 0.0267 -0.9994
vn 0.0132 -0.0335 -0.9994
vn -0.0161 0.0117 -0.9998
vn -0.6173 -0.4754 0.6269
vn 0.0029 -0.7854 0.6190
vn 0.0342 -0.7708 0.6362
vn -0.5012 0.6449 0.5770
vn 0.0036 0.8758 0.4826
vn -0.6224 0.6017 0.5006
vn 0.6458 -0.4400 0.6240
vn 0.5546 -0.5561 0.6191
vn 0.5224 0.6062 0.5997
vn 0.0280 0.8587 0.5118
vn -0.8595 0.0643 0.5071
vn -0.5603 -0.5663 0.6045
vn -0.8240 -0.0220 0.5661
vn 0.8103 -0.0227 0.5856
vn 0.6169 0.5940 0.5164
vn 0.8492 0.0390 0.5266
vn 0.6173 -0.4754 0.6269
vn -0.0342 -0.7708 0.6362
vn -0.0029 -0.7854 0.6190
vn 0.5012 0.6449 0.5770
vn 0.6224 0.6017 0.5006
vn -0.0036 0.8758 0.4826
vn 0.8595 0.0643 0.5071
vn 0.5603 -0.5663 0.6045
vn -0.5224 0.6062 0.5997
vn -0.6169 0.5940 0.5164
vn -0.8103 -0.0227 0.5856
vn -0.0280 0.8587 0.5118
vn 0.8240 -0.0220 0.5661
vn -0.6458 -0.4400 0.6240
vn -0.5546 -0.5561 0.6191
vn -0.6837 0.5642 -0.4628
vn -0.9241 0.0000 -0.3822
vn -0.6471 0.6544 -0.3911
vn 0.6872 0.5610 -0.4617
vn 0.9304 0.0002 -0.3666
vn 0.9239 0.0080 -0.3825
vn 0.6842 -0.5620 -0.4647
vn -0.0019 -0.9175 -0.3978
vn -0.0189 -0.9106 -0.4128
vn 0.6487 -0.6595 -0.3798
vn -0.0017 0.9173 -0.3981
vn -0.0153 0.9107 -0.4128
vn -0.6837 -0.5642 -0.4628
vn -0.9181 0.0000 -0.3964
vn 0.6484 0.6593 -0.3806
vn -0.6471 -0.6544 -0.3911
vn 0.6837 0.5642 -0.4628
vn 0.9241 0.0000 -0.3822
vn 0.9181 0.0000 -0.3964
vn -0.9304 0.0002 -0.3666
vn -0.6872 0.5610 -0.4617
vn -0.9239 0.0080 -0.3825
vn 0.0019 -0.9175 -0.3978
vn -0.6842 -0.5620 -0.4647
vn 0.0189 -0.9106 -0.4128
vn 0.0017 0.9173 -0.3981
vn 0.0153 0.9107 -0.4128
vn 0.6837 -0.5642 -0.4628
vn -0.8492 0.0390 0.5266
vn 0.6471 0.6544 -0.3911
vn -0.6484 0.6593 -0.3806
vn -0.6487 -0.6595 -0.3798
vn 0.6471 -0.6544 -0.3911
s 1
f 1/1/1 2/2/2 3/3/3
f 2/2/2 4/4/4 3/3/3
f 4/4/4 5/5/5 3/3/3
f 5/5/5 6/6/6 3/3/3
f 6/6/6 7/7/7 3/3/3
f 7/7/7 8/8/8 3/3/3
f 9/9/9 11/10/10 10/11/11
f 8/8/8 12/12/12 3/3/3
f 12/12/12 1/1/1 3/3/3
f 10/11/11 11/10/10 13/13/13
f 13/13/13 11/10/10 14/14/14
f 14/14/14 11/10/10 15/15/15
f 15/15/15 11/10/10 16/16/16
f 16/16/16 11/10/10 17/17/17
f 18/18/18 11/10/10 9/9/9
f 17/17/17 11/10/10 18/18/18
f 19/19/19 20/20/20 21/21/21
f 21/21/21 20/20/20 22/22/22
f 22/22/22 20/20/20 23/23/23
f 23/23/23 20/20/20 24/24/24
f 24/24/24 20/20/20 25/25/25
f 25/25/25 20/20/20 26/26/26
f 27/27/27 28/28/28 29/29/29
f 26/26/26 20/20/20 30/30/30
f 30/30/30 20/20/20 19/19/19
f 28/28/28 31/31/31 29/29/29
f 31/31/31 32/32/32 29/29/29
f 33/33/33 34/34/34 29/29/29
f 32/32/32 35/35/35 29/29/29
f 34/34/34 36/36/36 29/29/29
f 36/36/36 27/27/27 29/29/29
f 35/35/35 33/33/33 29/29/29
f 5/5/37 37/37/38 6/6/39
f 2/2/40 38/38/41 39/39/42
f 7/7/43 37/37/38 40/40/44
f 12/12/45 38/38/41 1/1/46
f 4/4/47 41/41/48 5/5/37
f 2/2/40 42/42/49 4/4/47
f 12/12/45 43/43/50 44/44/51
f 8/8/52 40/40/44 43/43/50
f 14/14/53 15/15/54 45/45/55
f 10/11/56 47/46/57 46/47/58
f 13/13/59 14/14/53 49/48/60
f 18/18/61 64/49/62 63/50/63
f 10/11/56 46/47/58 9/9/64
f 10/11/56 13/13/59 50/51/65
f 16/16/66 45/45/55 15/15/54
f 16/16/66 48/52/67 45/45/55
f 21/21/68 51/53/69 52/54/70
f 30/30/71 53/55/72 26/26/73
f 25/25/74 54/56/75 24/24/76
f 25/25/74 53/55/72 55/57/77
f 21/21/68 56/58/78 19/19/79
f 23/23/80 51/53/69 22/22/81
f 30/30/71 56/58/78 57/59/82
f 23/23/80 54/56/75 58/60/83
f 28/28/84 59/61/85 31/31/86
f 60/62/87 36/36/88 34/34/89
f 61/63/90 33/33/91 35/35/92
f 33/33/91 60/62/87 34/34/89
f 62/64/93 28/28/84 27/27/94
f 59/61/85 32/32/95 31/31/86
f 36/36/88 62/64/93 27/27/94
f 32/32/95 61/63/90 35/35/92
f 5/5/37 41/41/48 37/37/38
f 2/2/40 1/1/46 38/38/41
f 7/7/43 6/6/39 37/37/38
f 12/12/45 44/44/51 38/38/41
f 4/4/47 42/42/49 41/41/48
f 2/2/40 39/39/42 42/42/49
f 12/12/45 8/8/52 43/43/50
f 8/8/52 7/7/43 40/40/44
f 17/17/96 63/50/63 48/52/67
f 13/13/59 49/48/60 50/51/65
f 18/18/61 9/9/64 46/47/58
f 10/11/56 50/51/65 47/46/57
f 18/18/61 46/47/58 64/49/62
f 14/14/53 45/45/55 49/48/60
f 18/18/61 63/50/63 17/17/96
f 17/17/96 48/52/67 16/16/66
f 21/21/68 22/22/81 51/53/69
f 30/30/71 57/59/82 53/55/72
f 25/25/74 55/57/77 54/56/75
f 25/25/74 26/26/73 53/55/72
f 21/21/68 52/54/70 56/58/78
f 23/23/80 58/60/83 51/53/69
f 30/30/71 19/19/79 56/58/78
f 23/23/80 24/24/76 54/56/75
f 28/28/84 65/65/97 59/61/85
f 60/62/87 66/66/98 36/36/88
f 61/63/90 67/67/99 33/33/91
f 33/33/91 67/67/99 60/62/87
f 62/64/93 65/65/97 28/28/84
f 59/61/85 68/68/100 32/32/95
f 36/36/88 66/66/98 62/64/93
f 32/32/95 68/68/100 61/63/90
o Sedan_Cube.004
v -0.624307 1.354984 -1.199346
v 0.820117 0.994667 -1.849012
v -0.820117 0.994667 -1.849012
v 0.624307 1.354984 -1.199346
v 0.820117 0.927154 0.981832
v 0.624307 1.354984 0.362020
v -0.820117 0.927154 0.981832
v 0.820117 0.730751 2.262373
v 0.820117 0.186095 -1.880240
v 0.820117 0.186095 0.995973
v -0.820117 0.994668 -2.397300
v 0.820117 0.186095 -2.428528
v -0.820117 0.186095 -2.428528
v -0.820117 0.460812 2.304996
v 0.698801 0.460812 2.428528
v 0.820117 0.460812 2.304996
v 0.820117 0.186095 1.908260
v 0.820117 0.323453 2.213184
v -0.820117 0.730751 2.262373
v 0.820117 0.186095 2.121371
v -0.820117 0.186095 2.121371
v 0.820117 0.994668 -2.397300
v 0.698801 0.323453 2.336716
v -0.698801 0.323453 2.336716
v 0.646330 0.644846 0.975304
v 0.893786 0.384607 0.867510
v 0.646330 0.384607 0.867510
v 0.893786 0.384607 1.235542
v 0.893786 0.644845 1.495780
v 0.893786 0.384607 1.603574
v 0.646330 0.384607 1.603574
v 0.646330 0.752640 1.235542
v 0.893786 0.752640 1.235542
v 0.893786 0.644846 0.975304
v 0.893786 0.124370 0.975304
v 0.893786 0.016576 1.235542
v 0.646330 0.124369 1.495780
v 0.893786 0.124369 1.495780
v 0.646330 0.124370 0.975304
v 0.646330 0.644846 -1.759598
v 0.893786 0.384608 -1.867392
v 0.646330 0.384608 -1.867392
v 0.893786 0.384608 -1.499361
v 0.893786 0.644846 -1.239122
v 0.893786 0.384608 -1.131328
v 0.646330 0.384608 -1.131328
v 0.646330 0.752640 -1.499361
v 0.893786 0.752640 -1.499361
v 0.893786 0.644846 -1.759598
v 0.893786 0.124370 -1.759598
v 0.893786 0.016576 -1.499361
v 0.646330 0.124370 -1.239123
v 0.893786 0.124370 -1.239123
v 0.646330 0.124370 -1.759598
v -0.820117 0.186095 -1.880240
v -0.820117 0.186095 1.908260
v -0.820117 0.186095 0.995973
v -0.820117 0.323453 2.213184
v -0.893786 0.384607 0.867510
v -0.646330 0.644846 0.975304
v -0.646330 0.384607 0.867510
v -0.893786 0.384607 1.235542
v -0.893786 0.644845 1.495780
v -0.893786 0.752640 1.235542
v -0.646330 0.384607 1.603574
v -0.893786 0.384607 1.603574
v -0.646330 0.752640 1.235542
v -0.893786 0.644846 0.975304
v -0.893786 0.124370 0.975304
v -0.646330 0.124369 1.495780
v -0.893786 0.124369 1.495780
v -0.893786 0.016576 1.235542
v -0.646330 0.124370 0.975304
v -0.893786 0.384608 -1.867392
v -0.646330 0.644846 -1.759598
v -0.646330 0.384608 -1.867392
v -0.893786 0.384608 -1.499361
v -0.893786 0.644846 -1.239122
v -0.893786 0.752640 -1.499361
v -0.646330 0.384608 -1.131328
v -0.893786 0.384608 -1.131328
v -0.646330 0.752640 -1.499361
v -0.893786 0.644846 -1.759598
v -0.893786 0.124370 -1.759598
v -0.646330 0.124370 -1.239123
v -0.893786 0.124370 -1.239123
v -0.893786 0.016576 -1.499361
v -0.646330 0.124370 -1.759598
v -0.624307 1.354984 0.362020
v -0.698801 0.460812 2.428528
v 0.646330 0.644845 1.495780
v 0.646330 0.644846 -1.239122
v -0.646330 0.644845 1.495780
v -0.646330 0.644846 -1.239122
vt 0.900737 0.480455
vt 0.810009 0.712092
vt 0.810009 0.444062
vt 0.336964 0.617323
vt 0.403620 0.280917
vt 0.391851 0.707784
vt 0.592387 0.028112
vt 0.830265 0.145587
vt 0.564194 0.145587
vt 0.828145 0.966262
vt 0.555974 0.748609
vt 0.828145 0.748609
vt 0.841893 0.142871
vt 0.555974 0.368700
vt 0.555974 0.142871
vt 0.532798 0.741141
vt 0.403620 0.242236
vt 0.532798 0.239771
vt 0.792602 0.725432
vt 0.697026 0.439514
vt 0.792602 0.439514
vt 0.555974 0.725432
vt 0.555974 0.439514
vt 0.936937 0.297506
vt 0.915403 0.032736
vt 0.936937 0.011588
vt 0.532798 0.080745
vt 0.437856 0.019018
vt 0.508854 0.027593
vt 0.841893 0.368700
vt 0.555974 0.416337
vt 0.532798 0.043597
vt 0.246879 0.859893
vt 0.532798 0.888693
vt 0.246879 0.888693
vt 0.391851 0.831273
vt 0.391851 0.735697
vt 0.153305 0.858065
vt 0.179745 0.839303
vt 0.179745 0.869484
vt 0.886603 0.276359
vt 0.886603 0.032736
vt 0.945276 0.635918
vt 0.988412 0.685020
vt 0.945276 0.685020
vt 0.070859 0.887154
vt 0.130129 0.862604
vt 0.130129 0.911705
vt 0.988412 0.537716
vt 0.945276 0.488615
vt 0.988412 0.488615
vt 0.945276 0.586817
vt 0.988412 0.586817
vt 0.988412 0.635918
vt 0.046308 0.827884
vt 0.011588 0.862604
vt 0.011588 0.911705
vt 0.046308 0.946425
vt 0.945276 0.439514
vt 0.988412 0.439514
vt 0.095409 0.946424
vt 0.988412 0.734121
vt 0.945276 0.734121
vt 0.945276 0.635918
vt 0.988412 0.685020
vt 0.945276 0.685020
vt 0.070859 0.887154
vt 0.130129 0.862604
vt 0.130129 0.911705
vt 0.988412 0.537716
vt 0.945276 0.488615
vt 0.988412 0.488615
vt 0.945276 0.586817
vt 0.988412 0.586817
vt 0.988412 0.635918
vt 0.046308 0.827884
vt 0.011588 0.862604
vt 0.011588 0.911705
vt 0.046308 0.946425
vt 0.945276 0.439514
vt 0.988412 0.439514
vt 0.095409 0.946424
vt 0.988412 0.734121
vt 0.945276 0.734121
vt 0.399430 0.242236
vt 0.324873 0.622251
vt 0.388850 0.735697
vt 0.532798 0.741141
vt 0.403620 0.242236
vt 0.391851 0.735697
vt 0.532798 0.080745
vt 0.532798 0.239771
vt 0.508854 0.027593
vt 0.437856 0.019018
vt 0.532798 0.043597
vt 0.391851 0.831273
vt 0.179745 0.839303
vt 0.153305 0.858065
vt 0.179745 0.869484
vt 0.988412 0.685020
vt 0.945276 0.635918
vt 0.945276 0.685020
vt 0.070859 0.887154
vt 0.130129 0.862604
vt 0.095409 0.827884
vt 0.945276 0.488615
vt 0.988412 0.537716
vt 0.988412 0.488615
vt 0.945276 0.586817
vt 0.988412 0.586817
vt 0.988412 0.635918
vt 0.046308 0.827884
vt 0.011588 0.862604
vt 0.011588 0.911705
vt 0.945276 0.439514
vt 0.988412 0.439514
vt 0.095409 0.946424
vt 0.046308 0.946425
vt 0.988412 0.734121
vt 0.945276 0.734121
vt 0.988412 0.685020
vt 0.945276 0.635918
vt 0.945276 0.685020
vt 0.070859 0.887154
vt 0.130129 0.862604
vt 0.095409 0.827884
vt 0.945276 0.488615
vt 0.988412 0.537716
vt 0.988412 0.488615
vt 0.945276 0.586817
vt 0.988412 0.586817
vt 0.988412 0.635918
vt 0.046308 0.827884
vt 0.011588 0.862604
vt 0.011588 0.911705
vt 0.945276 0.439514
vt 0.988412 0.439514
vt 0.095409 0.946424
vt 0.046308 0.946425
vt 0.988412 0.734121
vt 0.945276 0.734121
vt 0.900737 0.680095
vt 0.332963 0.355137
vt 0.802072 0.028112
vt 0.555974 0.966262
vt 0.697026 0.725432
vt 0.915403 0.276359
vt 0.484910 0.011588
vt 0.841893 0.416337
vt 0.532798 0.859893
vt 0.532798 0.836716
vt 0.153305 0.827884
vt 0.095409 0.827884
vt 0.945276 0.537716
vt 0.095409 0.827884
vt 0.945276 0.537716
vt 0.325465 0.350081
vt 0.484910 0.011588
vt 0.532798 0.836716
vt 0.153305 0.827884
vt 0.130129 0.911705
vt 0.945276 0.537716
vt 0.130129 0.911705
vt 0.945276 0.537716
vn -0.4590 0.8716 -0.1724
vn 0.7656 0.6294 -0.1328
vn -0.7656 0.6294 -0.1328
vn 0.4590 0.8716 -0.1724
vn 0.7591 0.6163 0.2095
vn 0.4715 0.8551 0.2157
vn -0.7591 0.6163 0.2095
vn 0.5954 0.5694 0.5669
vn 1.0000 -0.0000 0.0000
vn -0.5794 0.5873 -0.5651
vn 0.6983 0.0276 -0.7153
vn -0.6983 0.0276 -0.7153
vn -0.7939 0.0433 0.6065
vn 0.0000 1.0000 -0.0000
vn 0.7939 0.0433 0.6065
vn 0.8455 -0.2967 0.4439
vn -0.5954 0.5694 0.5669
vn 0.8088 -0.3268 0.4890
vn -0.8088 -0.3268 0.4890
vn 0.5794 0.5873 -0.5651
vn 0.3833 -0.5133 0.7679
vn 0.2923 -0.5314 0.7951
vn -0.3833 -0.5133 0.7679
vn 0.0000 0.7071 -0.7071
vn 0.6303 -0.0000 -0.7764
vn 0.0000 -0.0000 -1.0000
vn 0.6303 0.5490 0.5490
vn 0.0000 -0.0000 1.0000
vn 0.6303 0.7764 0.0000
vn 0.6303 0.5490 -0.5490
vn 0.8321 -0.2123 -0.5125
vn 0.0000 -0.3827 0.9239
vn 0.0000 -0.3827 -0.9239
vn 0.6303 -0.0000 0.7764
vn 0.8321 -0.2123 0.5125
vn -1.0000 -0.0000 0.0000
vn -0.8455 -0.2967 0.4439
vn -0.6303 -0.0000 -0.7764
vn -0.6303 0.5490 0.5490
vn -0.6303 0.7764 0.0000
vn -0.6303 -0.0000 0.7764
vn -0.6303 0.5490 -0.5490
vn -0.8321 -0.2123 -0.5125
vn -0.8320 -0.2123 0.5125
vn -0.8321 -0.2123 0.5125
vn -0.4715 0.8551 0.2157
vn -0.2923 -0.5314 0.7951
vn 0.0000 0.7071 0.7071
s 1
f 69/69/101 70/70/102 71/71/103
f 72/72/104 73/73/105 70/74/102
f 74/75/106 75/76/107 73/77/105
f 69/78/101 74/79/106 72/80/104
f 75/81/107 76/82/108 73/83/105
f 77/84/109 73/85/105 78/86/109
f 70/87/102 79/88/110 71/89/103
f 79/88/110 80/90/111 81/91/112
f 82/92/113 83/93/114 84/94/115
f 73/85/105 85/95/109 78/86/109
f 76/96/108 86/97/116 85/95/109
f 87/98/117 84/99/115 76/82/108
f 85/95/109 86/97/116 88/100/118
f 86/101/116 89/102/119 88/103/118
f 77/84/109 90/104/120 70/105/102
f 84/106/115 91/107/121 86/108/116
f 83/93/122 92/109/123 91/110/121
f 93/111/124 94/112/125 95/113/126
f 96/114/109 97/115/127 98/116/109
f 97/117/127 99/118/128 98/119/128
f 100/120/114 97/117/127 101/121/129
f 93/111/124 101/121/129 102/122/130
f 102/123/130 96/114/109 94/124/125
f 103/125/131 96/114/109 104/126/109
f 98/119/128 105/127/132 106/128/132
f 96/114/109 106/129/109 104/126/109
f 95/113/126 103/130/131 107/131/133
f 108/132/124 109/133/125 110/134/126
f 111/135/109 112/136/127 113/137/134
f 112/138/127 114/139/128 113/140/134
f 115/141/114 112/138/127 116/142/129
f 108/132/124 116/142/129 117/143/130
f 117/144/130 111/135/109 109/145/125
f 118/146/131 111/135/109 119/147/109
f 113/140/134 120/148/132 121/149/135
f 111/135/109 121/150/135 119/147/109
f 110/134/126 118/151/131 122/152/133
f 75/153/107 69/154/101 71/155/103
f 123/156/136 75/157/107 71/158/103
f 124/159/136 75/157/107 125/160/136
f 126/161/137 87/162/117 124/159/136
f 124/159/136 89/163/119 126/161/137
f 79/164/110 123/156/136 71/158/103
f 92/165/123 82/166/113 126/167/137
f 127/168/138 128/169/124 129/170/126
f 130/171/136 131/172/139 132/173/140
f 133/174/128 131/175/139 134/176/141
f 131/175/139 135/177/114 132/178/140
f 132/178/140 128/169/124 136/179/142
f 130/171/136 136/180/142 127/181/138
f 137/182/143 130/171/136 127/181/138
f 138/183/132 134/176/141 139/184/144
f 139/185/144 130/171/136 140/186/136
f 137/187/143 129/170/126 141/188/133
f 142/189/138 143/190/124 144/191/126
f 145/192/136 146/193/139 147/194/140
f 148/195/128 146/196/139 149/197/141
f 146/196/139 150/198/114 147/199/140
f 147/199/140 143/190/124 151/200/142
f 145/192/136 151/201/142 142/202/138
f 152/203/143 145/192/136 142/202/138
f 153/204/132 149/197/141 154/205/145
f 154/206/145 145/192/136 155/207/136
f 152/208/143 144/191/126 156/209/133
f 69/69/101 72/210/104 70/70/102
f 72/72/104 74/211/106 73/73/105
f 74/75/106 157/212/146 75/76/107
f 69/78/101 157/213/146 74/79/106
f 75/81/107 87/98/117 76/82/108
f 77/84/109 70/105/102 73/85/105
f 70/87/102 90/214/120 79/88/110
f 79/88/110 90/214/120 80/90/111
f 82/92/113 158/215/114 83/93/114
f 73/85/105 76/96/108 85/95/109
f 76/96/108 84/216/115 86/97/116
f 87/98/117 82/217/113 84/99/115
f 86/101/116 126/218/137 89/102/119
f 77/84/109 80/219/111 90/104/120
f 84/106/115 83/220/122 91/107/121
f 83/93/122 158/215/147 92/109/123
f 93/111/124 102/122/130 94/112/125
f 96/114/109 101/221/129 97/115/127
f 97/117/127 159/222/148 99/118/128
f 100/120/114 159/222/148 97/117/127
f 93/111/124 100/120/114 101/121/129
f 102/123/130 101/221/129 96/114/109
f 103/125/131 94/124/125 96/114/109
f 98/119/128 99/118/128 105/127/132
f 96/114/109 98/116/109 106/129/109
f 95/113/126 94/112/125 103/130/131
f 108/132/124 117/143/130 109/133/125
f 111/135/109 116/223/129 112/136/127
f 112/138/127 160/224/148 114/139/128
f 115/141/114 160/224/148 112/138/127
f 108/132/124 115/141/114 116/142/129
f 117/144/130 116/223/129 111/135/109
f 118/146/131 109/145/125 111/135/109
f 113/140/134 114/139/128 120/148/132
f 111/135/109 113/137/134 121/150/135
f 110/134/126 109/133/125 118/151/131
f 75/153/107 157/225/146 69/154/101
f 123/156/136 125/160/136 75/157/107
f 124/159/136 87/162/117 75/157/107
f 126/161/137 82/226/113 87/162/117
f 79/164/110 81/227/112 123/156/136
f 92/165/123 158/228/147 82/166/113
f 127/168/138 136/179/142 128/169/124
f 130/171/136 134/229/141 131/172/139
f 133/174/128 161/230/148 131/175/139
f 131/175/139 161/230/148 135/177/114
f 132/178/140 135/177/114 128/169/124
f 130/171/136 132/173/140 136/180/142
f 137/182/143 140/186/136 130/171/136
f 138/183/132 133/174/128 134/176/141
f 139/185/144 134/229/141 130/171/136
f 137/187/143 127/168/138 129/170/126
f 142/189/138 151/200/142 143/190/124
f 145/192/136 149/231/141 146/193/139
f 148/195/128 162/232/148 146/196/139
f 146/196/139 162/232/148 150/198/114
f 147/199/140 150/198/114 143/190/124
f 145/192/136 147/194/140 151/201/142
f 152/203/143 155/207/136 145/192/136
f 153/204/132 148/195/128 149/197/141
f 154/206/145 149/231/141 145/192/136
f 152/208/143 142/189/138 144/191/126
