# Blender v2.90.0 Alpha OBJ File: ''
# www.blender.org
o Trailer_Cube.001
v -1.084558 2.980926 -4.572290
v -1.084558 0.842681 -4.572291
v 1.084558 2.980926 -4.572290
v 1.084558 0.842681 -4.572291
v 1.084558 2.980924 4.572291
v -1.084558 2.980924 4.572291
v 1.084558 0.842679 4.572291
v -1.084558 0.842679 4.572291
v 1.122459 0.951492 -0.859951
v 1.122459 0.475852 -1.340348
v 1.122459 0.475852 -0.384311
v 1.122459 0.000212 -0.859951
v 1.122459 0.951492 -1.820746
v 1.122459 0.475852 -2.295375
v 1.122459 0.000212 -1.820746
v 1.122459 0.951492 -2.770002
v 1.122459 0.475853 -3.245643
v 1.122459 0.000212 -2.770002
v -1.122459 0.951492 -0.859951
v -1.122459 0.475852 -1.340348
v -1.122459 0.475852 -0.384311
v -1.122459 0.000212 -0.859951
v -1.122459 0.951492 -1.820746
v -1.122459 0.475852 -2.295375
v -1.122459 0.000212 -1.820746
v -1.122459 0.951492 -2.770002
v -1.122459 0.475853 -3.245643
v -1.122459 0.000212 -2.770002
vt 0.659519 0.160190
vt 0.659519 0.007801
vt 0.007801 0.007801
vt 0.007801 0.160190
vt 0.659519 0.160190
vt 0.007801 0.160190
vt 0.007801 0.007801
vt 0.659519 0.007801
vt 0.550464 0.586571
vt 0.422390 0.458497
vt 0.475440 0.586571
vt 0.992199 0.007801
vt 0.992199 0.659519
vt 0.992199 0.659519
vt 0.992199 0.007801
vt 0.550464 0.586571
vt 0.475440 0.586571
vt 0.422390 0.458497
vt 0.603514 0.533521
vt 0.550464 0.405447
vt 0.550464 0.586571
vt 0.475440 0.586571
vt 0.422390 0.458497
vt 0.603514 0.533521
vt 0.550464 0.405447
vt 0.550464 0.586571
vt 0.475440 0.586571
vt 0.422390 0.458497
vt 0.603514 0.533521
vt 0.550464 0.405447
vt 0.550464 0.586571
vt 0.422390 0.458497
vt 0.475440 0.586571
vt 0.603514 0.533521
vt 0.550464 0.405447
vt 0.550464 0.586571
vt 0.422390 0.458497
vt 0.475440 0.586571
vt 0.603514 0.533521
vt 0.550464 0.405447
vt 0.336192 0.321776
vt 0.336192 0.321776
vt 0.163405 0.321776
vt 0.163405 0.321776
vt 0.603514 0.533521
vt 0.550464 0.405447
vt 0.007801 0.496173
vt 0.007801 0.496173
vt 0.007801 0.343785
vt 0.007801 0.343785
vn -1.0000 0.0000 0.0000
vn 1.0000 0.0000 0.0000
vn 0.0000 1.0000 0.0000
vn 0.0000 0.0000 -1.0000
vn 0.0000 -0.0000 1.0000
s 1
f 8/1/1 6/2/1 1/3/1 2/4/1
f 7/5/2 4/6/2 3/7/2 5/8/2
f 22/9/1 19/10/1 20/11/1
f 5/12/3 3/13/3 1/14/3 6/15/3
f 12/16/2 10/17/2 9/18/2
f 12/19/2 9/18/2 11/20/2
f 15/21/2 14/22/2 13/23/2
f 15/24/2 13/23/2 10/25/2
f 18/26/2 17/27/2 16/28/2
f 18/29/2 16/28/2 14/30/2
f 25/31/1 23/32/1 24/33/1
f 22/34/1 21/35/1 19/10/1
f 28/36/1 26/37/1 27/38/1
f 25/39/1 20/40/1 23/32/1
f 4/41/4 2/42/4 1/43/4 3/44/4
f 28/45/1 24/46/1 26/37/1
f 8/47/5 7/48/5 5/49/5 6/50/5
