# Blender v2.82 (sub 6) OBJ File: 'Cars.blend'
# www.blender.org
mtllib Truck.mtl
o Truck_Cube.008
v -0.893786 0.807218 0.383113
v 0.893786 0.467802 -1.109541
v 0.893786 0.467802 1.961549
v 0.893786 0.807218 0.383113
v -0.893786 0.807218 -1.109541
v -0.893786 0.467802 1.961549
v -0.893786 0.467802 1.330962
v 0.893786 2.642835 1.961549
v 0.893786 2.642835 0.383113
v -0.893786 0.467802 -1.109541
v 0.893786 0.807218 -1.109541
v -0.893786 2.642835 1.961549
v -0.893786 2.642835 0.383113
v -0.000000 0.794909 -0.861636
v -0.000000 1.055279 -0.861636
v -0.102189 0.794909 -0.963826
v -0.102189 1.055279 -0.963826
v 0.102189 0.794909 -0.963826
v 0.102189 1.055279 -0.963826
v 0.000000 0.794909 -1.066015
v 0.000000 1.055279 -1.066015
v 0.762425 0.135540 1.667290
v 0.762425 0.808196 1.667290
v 0.762425 0.135540 0.994634
v 0.762425 0.808196 0.994633
v 1.082233 0.135540 1.667290
v 1.082233 0.808196 1.667290
v 1.082233 0.135540 0.994634
v 1.082233 0.808196 0.994633
v 0.762425 -0.003772 1.330962
v 0.762425 0.947508 1.330962
v 1.082233 -0.003772 1.330962
v 1.082233 0.947508 1.330962
v 0.762425 0.471868 1.806602
v 0.762425 0.471868 0.855322
v 1.082233 0.471868 0.855322
v 1.082233 0.471868 1.806602
v 0.762425 0.135540 -1.149507
v 0.762425 0.808196 -1.149507
v 0.762425 0.135540 -1.822164
v 0.762425 0.808196 -1.822164
v 1.082233 0.135540 -1.149507
v 1.082233 0.808196 -1.149507
v 1.082233 0.135540 -1.822164
v 1.082233 0.808196 -1.822164
v 0.762425 -0.003772 -1.485836
v 0.762425 0.947508 -1.485836
v 1.082233 -0.003772 -1.485836
v 1.082233 0.947508 -1.485836
v 0.762425 0.471868 -1.010195
v 0.762425 0.471868 -1.961476
v 1.082233 0.471868 -1.961476
v 1.082233 0.471868 -1.010195
v -0.762425 0.135540 1.667290
v -0.762425 0.808196 1.667290
v -0.762425 0.135540 0.994634
v -0.762425 0.808196 0.994633
v -1.082233 0.135540 1.667290
v -1.082233 0.808196 1.667290
v -1.082233 0.135540 0.994634
v -1.082233 0.808196 0.994633
v -0.762425 -0.003772 1.330962
v -0.762425 0.947508 1.330962
v -1.082233 -0.003772 1.330962
v -1.082233 0.947508 1.330962
v -0.762425 0.471868 1.806602
v -0.762425 0.471868 0.855322
v -1.082233 0.471868 0.855322
v -1.082233 0.471868 1.806602
v -0.762425 0.135540 -1.149507
v -0.762425 0.808196 -1.149507
v -0.762425 0.135540 -1.822164
v -0.762425 0.808196 -1.822164
v -1.082233 0.135540 -1.149507
v -1.082233 0.808196 -1.149507
v -1.082233 0.135540 -1.822164
v -1.082233 0.808196 -1.822164
v -0.762425 -0.003772 -1.485836
v -0.762425 0.947508 -1.485836
v -1.082233 -0.003772 -1.485836
v -1.082233 0.947508 -1.485836
v -0.762425 0.471868 -1.010195
v -0.762425 0.471868 -1.961476
v -1.082233 0.471868 -1.961476
v -1.082233 0.471868 -1.010195
v 0.000000 0.467802 -1.109541
v 0.000000 0.807218 0.383113
v 0.000000 0.807218 -1.109541
v 0.000000 0.467802 1.961549
v 0.000000 2.642835 1.961549
v 0.000000 2.642835 0.383113
vt 0.970984 0.142246
vt 0.920678 0.142246
vt 0.920678 0.274717
vt 0.970984 0.274717
vt 0.749401 0.756564
vt 0.749401 0.484502
vt 0.616930 0.484502
vt 0.616930 0.756564
vt 0.768657 0.243720
vt 0.768657 0.009775
vt 0.636186 0.009775
vt 0.636186 0.243720
vt 0.009775 0.464951
vt 0.281838 0.231006
vt 0.009775 0.231006
vt 0.891849 0.616972
vt 0.990225 0.616972
vt 0.990225 0.484502
vt 0.891849 0.484502
vt 0.484165 0.008246
vt 0.484165 0.330614
vt 0.616636 0.330614
vt 0.616636 0.008246
vt 0.332144 0.464164
vt 0.332144 0.009775
vt 0.281838 0.009775
vt 0.464951 0.616972
vt 0.009775 0.616972
vt 0.009775 0.749443
vt 0.464951 0.749443
vt 0.351694 0.394533
vt 0.390284 0.394533
vt 0.390284 0.415952
vt 0.351694 0.415952
vt 0.390284 0.437372
vt 0.351694 0.437372
vt 0.351694 0.351694
vt 0.390284 0.351694
vt 0.390284 0.373114
vt 0.351694 0.373114
vt 0.009775 0.464951
vt 0.009775 0.231006
vt 0.281838 0.231006
vt 0.332144 0.464738
vt 0.281838 0.009775
vt 0.332144 0.009775
vt 0.645052 0.396371
vt 0.710464 0.396371
vt 0.710464 0.457153
vt 0.645052 0.457152
vt 0.024772 0.072986
vt 0.077822 0.019936
vt 0.152846 0.019936
vt 0.906701 0.457152
vt 0.841289 0.457152
vt 0.841289 0.396371
vt 0.906701 0.396371
vt 0.514227 0.396371
vt 0.514227 0.457152
vt 0.448815 0.457152
vt 0.448815 0.396371
vt 0.775876 0.457152
vt 0.775876 0.396371
vt 0.579640 0.396371
vt 0.579640 0.457152
vt 0.077822 0.201060
vt 0.024772 0.148010
vt 0.152846 0.201060
vt 0.205896 0.148011
vt 0.972113 0.457152
vt 0.972113 0.396371
vt 0.205896 0.072987
vt 0.645052 0.396371
vt 0.710464 0.396371
vt 0.710464 0.457153
vt 0.645052 0.457152
vt 0.024772 0.072986
vt 0.077822 0.019936
vt 0.152846 0.019936
vt 0.906701 0.457152
vt 0.841289 0.457152
vt 0.841289 0.396371
vt 0.906701 0.396371
vt 0.514227 0.396371
vt 0.514227 0.457152
vt 0.448815 0.457152
vt 0.448815 0.396371
vt 0.775876 0.457152
vt 0.775876 0.396371
vt 0.579640 0.396371
vt 0.579640 0.457152
vt 0.077822 0.201060
vt 0.024772 0.148010
vt 0.152846 0.201060
vt 0.205896 0.148011
vt 0.972113 0.457152
vt 0.972113 0.396371
vt 0.205896 0.072987
vt 0.645052 0.396371
vt 0.645052 0.457152
vt 0.710464 0.457153
vt 0.710464 0.396371
vt 0.024772 0.072986
vt 0.152846 0.019936
vt 0.077822 0.019936
vt 0.906701 0.457152
vt 0.906701 0.396371
vt 0.841289 0.396371
vt 0.841289 0.457152
vt 0.514227 0.396371
vt 0.448815 0.396371
vt 0.448815 0.457152
vt 0.514227 0.457152
vt 0.775876 0.457152
vt 0.775876 0.396371
vt 0.579640 0.396371
vt 0.579640 0.457152
vt 0.077822 0.201060
vt 0.024772 0.148010
vt 0.152846 0.201060
vt 0.205896 0.148011
vt 0.972113 0.457152
vt 0.972113 0.396371
vt 0.205896 0.072987
vt 0.645052 0.396371
vt 0.645052 0.457152
vt 0.710464 0.457153
vt 0.710464 0.396371
vt 0.024772 0.072986
vt 0.152846 0.019936
vt 0.077822 0.019936
vt 0.906701 0.457152
vt 0.906701 0.396371
vt 0.841289 0.396371
vt 0.841289 0.457152
vt 0.514227 0.396371
vt 0.448815 0.396371
vt 0.448815 0.457152
vt 0.514227 0.457152
vt 0.775876 0.457152
vt 0.775876 0.396371
vt 0.579640 0.396371
vt 0.579640 0.457152
vt 0.077822 0.201060
vt 0.024772 0.148010
vt 0.152846 0.201060
vt 0.205896 0.148011
vt 0.972113 0.457152
vt 0.972113 0.396371
vt 0.205896 0.072987
vt 0.464951 0.484502
vt 0.009775 0.484502
vt 0.351694 0.008246
vt 0.351694 0.330614
vt 0.891849 0.749443
vt 0.990225 0.749443
vt 0.901128 0.243720
vt 0.901128 0.009775
vt 0.881872 0.756564
vt 0.881872 0.484502
vt 0.970984 0.009775
vt 0.920678 0.009775
vn 0.0000 0.0000 -1.0000
vn 0.0000 1.0000 0.0000
vn 1.0000 0.0000 0.0000
vn 0.0000 0.0000 1.0000
vn 0.0000 -1.0000 0.0000
vn -0.7071 0.0000 0.7071
vn -0.7071 0.0000 -0.7071
vn 0.7071 0.0000 -0.7071
vn 0.7071 0.0000 0.7071
vn -1.0000 0.0000 0.0000
vn 0.0000 0.7071 -0.7071
vn 0.0000 0.7071 0.7071
vn 0.0000 -0.7071 0.7071
vn 0.0000 -0.7071 -0.7071
usemtl Material.002
s 1
f 86/1/1 88/2/1 11/3/1 2/4/1
f 87/5/1 91/6/1 9/7/1 4/8/1
f 91/9/2 90/10/2 8/11/2 9/12/2
f 8/13/3 4/14/3 9/15/3
f 87/16/2 88/17/2 5/18/2 1/19/2
f 89/20/4 90/21/4 12/22/4 6/23/4
f 3/24/3 2/25/3 11/26/3 4/14/3
f 89/27/5 86/28/5 2/29/5 3/30/5
f 3/24/3 4/14/3 8/13/3
f 14/31/6 15/32/6 17/33/6 16/34/6
f 16/34/7 17/33/7 21/35/7 20/36/7
f 20/37/8 21/38/8 19/39/8 18/40/8
f 18/40/9 19/39/9 15/32/9 14/31/9
f 12/41/10 13/42/10 1/43/10
f 6/44/10 1/43/10 5/45/10 10/46/10
f 6/44/10 12/41/10 1/43/10
f 35/47/1 25/48/11 29/49/11 36/50/1
f 33/51/3 27/52/3 37/53/3
f 37/54/4 27/55/12 23/56/12 34/57/4
f 30/58/5 32/59/5 26/60/13 22/61/13
f 33/62/2 31/63/2 23/56/12 27/55/12
f 29/49/11 25/48/11 31/63/2 33/62/2
f 24/64/14 28/65/14 32/59/5 30/58/5
f 36/66/3 29/67/3 33/51/3
f 28/68/3 36/66/3 33/51/3 32/69/3
f 26/70/13 37/54/4 34/57/4 22/71/13
f 32/69/3 33/51/3 37/53/3 26/72/3
f 24/64/14 35/47/1 36/50/1 28/65/14
f 51/73/1 41/74/11 45/75/11 52/76/1
f 49/77/3 43/78/3 53/79/3
f 53/80/4 43/81/12 39/82/12 50/83/4
f 46/84/5 48/85/5 42/86/13 38/87/13
f 49/88/2 47/89/2 39/82/12 43/81/12
f 45/75/11 41/74/11 47/89/2 49/88/2
f 40/90/14 44/91/14 48/85/5 46/84/5
f 52/92/3 45/93/3 49/77/3
f 44/94/3 52/92/3 49/77/3 48/95/3
f 42/96/13 53/80/4 50/83/4 38/97/13
f 48/95/3 49/77/3 53/79/3 42/98/3
f 40/90/14 51/73/1 52/76/1 44/91/14
f 67/99/1 68/100/1 61/101/11 57/102/11
f 65/103/10 69/104/10 59/105/10
f 69/106/4 66/107/4 55/108/12 59/109/12
f 62/110/5 54/111/13 58/112/13 64/113/5
f 65/114/2 59/109/12 55/108/12 63/115/2
f 61/101/11 65/114/2 63/115/2 57/102/11
f 56/116/14 62/110/5 64/113/5 60/117/14
f 68/118/10 65/103/10 61/119/10
f 60/120/10 64/121/10 65/103/10 68/118/10
f 58/122/13 54/123/13 66/107/4 69/106/4
f 64/121/10 58/124/10 69/104/10 65/103/10
f 56/116/14 60/117/14 68/100/1 67/99/1
f 83/125/1 84/126/1 77/127/11 73/128/11
f 81/129/10 85/130/10 75/131/10
f 85/132/4 82/133/4 71/134/12 75/135/12
f 78/136/5 70/137/13 74/138/13 80/139/5
f 81/140/2 75/135/12 71/134/12 79/141/2
f 77/127/11 81/140/2 79/141/2 73/128/11
f 72/142/14 78/136/5 80/139/5 76/143/14
f 84/144/10 81/129/10 77/145/10
f 76/146/10 80/147/10 81/129/10 84/144/10
f 74/148/13 70/149/13 82/133/4 85/132/4
f 80/147/10 74/150/10 85/130/10 81/129/10
f 72/142/14 76/143/14 84/126/1 83/125/1
f 6/151/5 10/152/5 86/28/5 89/27/5
f 3/153/4 8/154/4 90/21/4 89/20/4
f 4/155/2 11/156/2 88/17/2 87/16/2
f 13/157/2 12/158/2 90/10/2 91/9/2
f 1/159/1 13/160/1 91/6/1 87/5/1
f 10/161/1 5/162/1 88/2/1 86/1/1
l 7 6
