# Blender v2.90.0 Alpha OBJ File: 'Ship.blend'
# www.blender.org
o Yacht.001_Cube.003
v -2.801075 4.479797 1.944396
v -2.071927 1.752874 -13.515143
v -2.088691 2.388009 -13.532894
v -3.940839 2.388008 -12.407924
v -3.916044 1.752873 -12.370912
v 2.531043 4.444885 3.258321
v 2.071927 1.752874 -13.515143
v 3.916044 1.752875 -12.370912
v 3.940839 2.388010 -12.407924
v 2.088691 2.388009 -13.532894
v -3.146169 2.778822 -10.451902
v -3.966574 0.835940 -14.417975
v -3.495318 2.801322 8.173920
v -3.184136 1.959668 -10.478161
v -2.664499 2.975300 7.550359
v 0.000000 -0.811078 7.482607
v -2.645031 -0.811078 5.605377
v 0.245795 3.156963 12.928686
v -3.692452 -0.814899 -14.118734
v -3.168995 4.309606 -13.619104
v -2.615112 4.872208 -7.901729
v 2.273906 1.344924 -14.627042
v -3.542701 -0.811079 4.199033
v -3.164894 3.883961 -10.034356
v -1.585570 6.176390 -2.740625
v -2.097597 5.818280 -9.571518
v -1.585570 6.176390 -6.194429
v -0.000001 6.176389 -0.986958
v -1.343919 6.176390 -1.652088
v -0.000001 6.176390 -4.483884
v -0.891988 6.606484 -2.318740
v -1.413423 6.674490 -6.194426
v 4.117903 2.192332 -13.009012
v 3.168995 2.792755 -10.442601
v 3.818286 2.672244 6.334650
v 2.304536 3.090310 10.656205
v 3.162237 1.815946 -10.452577
v 2.664497 2.975301 7.550359
v 2.645031 -0.811078 5.605377
v 3.830327 -0.816541 -13.524842
v 2.872335 4.198139 -13.534550
v 3.542701 -0.811077 4.199033
v 3.168995 3.891084 -10.036551
v 2.118640 6.112279 -3.988252
v 1.585568 6.176391 -2.740625
v 1.725277 6.076120 -9.192610
v 1.585568 6.176391 -6.194429
v 1.343917 6.176390 -1.652088
v 0.505853 6.516399 -2.144410
v 1.411701 6.673936 -6.194429
vt 0.172441 0.944761
vt 0.237984 0.944761
vt 0.237984 0.960457
vt 0.172441 0.960457
vt 0.237984 0.960457
vt 0.237984 0.944761
vt 0.172441 0.944761
vt 0.172441 0.960457
vt 0.016615 0.761976
vt 0.136376 0.706307
vt 0.132328 0.798727
vt 0.137161 0.074565
vt 0.132374 0.640940
vt 0.077851 0.672531
vt 0.016615 0.121271
vt 0.023654 0.168703
vt 0.718473 0.569968
vt 0.731473 0.217752
vt 0.732794 0.569709
vt 0.899688 0.224486
vt 0.838729 0.296229
vt 0.899806 0.027510
vt 0.498039 0.458296
vt 0.497137 0.150661
vt 0.514273 0.016615
vt 0.136376 0.846141
vt 0.883345 0.033684
vt 0.646152 0.552795
vt 0.646152 0.702155
vt 0.621050 0.651304
vt 0.973855 0.949969
vt 0.973855 0.991634
vt 0.862168 0.991634
vt 0.277296 0.776824
vt 0.232073 0.825612
vt 0.232073 0.727104
vt 0.615022 0.682530
vt 0.781970 0.949969
vt 0.689755 0.494283
vt 0.689755 0.494283
vt 0.689755 0.494283
vt 0.310526 0.844601
vt 0.324931 0.784401
vt 0.383849 0.787110
vt 0.237688 0.083426
vt 0.257550 0.613874
vt 0.165605 0.016615
vt 0.414371 0.393960
vt 0.460666 0.449305
vt 0.358408 0.289275
vt 0.266648 0.110267
vt 0.016615 0.761976
vt 0.132328 0.798727
vt 0.326349 0.901613
vt 0.310526 0.844601
vt 0.718473 0.569968
vt 0.732794 0.569709
vt 0.731298 0.218710
vt 0.877156 0.265755
vt 0.692810 0.061352
vt 0.679627 0.422468
vt 0.423889 0.775605
vt 0.423889 0.877785
vt 0.424006 0.877785
vt 0.136376 0.846141
vt 0.862168 0.991634
vt 0.632620 0.071233
vt 0.609099 0.183166
vt 0.646396 0.042526
vt 0.632533 0.369780
vt 0.646152 0.615720
vt 0.626203 0.467290
vt 0.621294 0.552796
vt 0.232239 0.906922
vt 0.232073 0.825612
vt 0.621050 0.651304
vt 0.615022 0.682530
vt 0.781970 0.949969
vt 0.689755 0.494283
vt 0.689755 0.494283
vt 0.689755 0.494283
vt 0.383618 0.787326
vt 0.324931 0.784401
vt 0.237688 0.083426
vt 0.403839 0.412398
vt 0.409926 0.287936
vt 0.358405 0.289193
vt 0.524787 0.543684
vt 0.524764 0.744650
vt 0.419779 0.662926
vt 0.443470 0.499576
vt 0.873315 0.807861
vt 0.898813 0.872865
vt 0.835626 0.868278
vt 0.029088 0.654782
vt 0.513836 0.020030
vt 0.820087 0.807701
vt 0.687428 0.582283
vt 0.685693 0.253727
vt 0.232256 0.906922
vt 0.423889 0.775605
vt 0.621050 0.552796
vt 0.621294 0.552796
vt 0.639118 0.456481
vt 0.238965 0.696058
vt 0.277296 0.677087
vt 0.689755 0.494283
vt 0.689755 0.494283
vt 0.689755 0.494283
vt 0.835626 0.868278
vt 0.898813 0.872865
vt 0.891516 0.808824
vt 0.409915 0.287587
vt 0.314360 0.247202
vt 0.380327 0.746093
vt 0.390658 0.693666
vt 0.443470 0.499576
vt 0.465419 0.704746
vt 0.016615 0.121271
vt 0.023654 0.168703
vt 0.133828 0.127923
vt 0.135551 0.015398
vt 0.885601 0.757293
vt 0.872100 0.757187
vt 0.029114 0.657930
vt 0.109330 0.654291
vt 0.687428 0.582283
vt 0.068667 0.884518
vt 0.035668 0.879371
vt 0.035727 0.879176
vt 0.068667 0.884635
vt 0.827648 0.655165
vt 0.827648 0.655163
vt 0.929972 0.655233
vt 0.929972 0.655165
vt 0.238965 0.696058
vt 0.232073 0.727104
vt 0.621050 0.552796
vt 0.689755 0.494283
vt 0.689755 0.494283
vt 0.267278 0.606921
vt 0.266648 0.110267
vt 0.414371 0.393960
vn 0.5224 0.0538 0.8510
vn -0.5224 0.0538 0.8510
vn 0.6238 0.3597 -0.6940
vn 0.5333 0.3887 -0.7514
vn 0.7129 0.3233 -0.6223
vn -0.8535 0.2194 0.4727
vn -0.9326 0.3607 -0.0134
vn -0.6652 0.2971 -0.6851
vn -0.6559 -0.5598 0.5065
vn -0.6905 -0.7159 0.1037
vn -0.9922 -0.1229 -0.0232
vn -0.6730 0.7235 0.1535
vn -0.5478 0.0194 -0.8364
vn -0.0361 0.1748 0.9840
vn -0.7129 0.6966 -0.0804
vn 0.8116 0.2703 -0.5180
vn 0.5138 0.8451 0.1478
vn -0.7693 0.6382 0.0296
vn -0.0971 0.9000 0.4250
vn -0.4384 0.8620 0.2545
vn -0.0066 0.9999 -0.0128
vn -0.4288 0.9032 -0.0202
vn 0.0000 1.0000 0.0000
vn -0.6961 0.7134 0.0808
vn -0.2825 0.9186 0.2764
vn -0.4107 0.8827 0.2285
vn -0.0514 0.9414 -0.3334
vn -0.0544 0.9947 -0.0876
vn 0.0010 0.8006 -0.5993
vn -0.0002 -1.0000 0.0002
vn -0.5290 -0.6788 -0.5094
vn 0.0000 -1.0000 0.0002
vn 0.3193 -0.8830 0.3440
vn 0.2061 -0.8949 0.3958
vn 0.9427 -0.1628 -0.2912
vn -0.6238 0.3597 -0.6940
vn -0.7129 0.3233 -0.6223
vn -0.5333 0.3887 -0.7514
vn 0.1368 0.4422 -0.8864
vn -0.1216 0.9807 -0.1533
vn 0.9439 0.3266 -0.0483
vn 0.5192 -0.0288 -0.8541
vn 0.9614 0.2559 0.1015
vn 0.7515 0.2464 0.6120
vn 0.9497 0.2100 0.2325
vn -0.8116 0.2703 -0.5180
vn 0.4095 0.8883 0.2080
vn 0.6309 0.7751 -0.0344
vn 0.7751 0.1201 -0.6203
vn 0.0867 0.9959 -0.0242
vn 0.2278 0.9726 0.0474
vn 0.5126 0.8545 0.0842
vn 0.2243 0.9424 0.2482
vn 0.2663 0.9433 0.1981
vn 0.0166 0.8216 -0.5698
vn 0.0164 0.9995 -0.0264
vn 0.5751 0.7026 -0.4190
vn -0.9366 -0.0013 -0.3503
vn 0.3923 0.9050 -0.1646
vn -0.0559 -0.7737 0.6311
vn -0.2429 0.8875 -0.3915
vn -0.6762 0.0415 -0.7355
vn -0.7433 0.6664 0.0591
vn 0.0037 0.9356 0.3531
vn -0.8758 0.3629 -0.3184
vn 0.9334 -0.0318 -0.3575
vn 0.7521 -0.4868 0.4443
vn 0.9693 -0.1947 0.1504
vn 0.6173 -0.6199 -0.4844
vn 0.9469 0.3214 0.0112
vn 0.0041 0.2102 -0.9777
vn 0.5818 0.8087 0.0872
vn -0.0002 -1.0000 0.0003
s off
f 5/1/1 2/2/1 3/3/1 4/4/1
f 10/5/2 7/6/2 8/7/2 9/8/2
s 1
f 15/9/3 16/10/4 17/11/5
f 13/12/6 11/13/7 12/14/8
f 17/15/9 13/12/6 23/16/10
f 24/17/11 1/18/12 20/19/13
f 13/20/6 18/21/14 1/22/12
f 1/23/12 21/24/15 20/25/13
f 23/26/16 15/9/3 17/11/5
f 18/21/14 6/27/17 1/22/12
f 21/28/15 1/29/12 25/30/18
f 6/31/17 28/32/19 29/33/20
f 30/34/21 27/35/22 25/36/23
f 25/30/18 1/29/12 29/37/20
f 1/38/12 6/31/17 29/33/20
f 25/39/24 29/40/25 31/41/26
f 2/42/27 5/43/28 14/44/29
f 17/45/30 19/46/31 16/47/32
f 5/48/33 12/49/34 11/50/35
f 23/51/10 19/46/31 17/45/30
f 38/52/36 39/53/37 16/10/38
f 22/54/39 14/44/29 7/55/40
f 43/56/41 41/57/42 6/58/43
f 36/59/44 6/27/17 18/21/14
f 6/58/17 36/60/44 35/61/45
f 41/62/42 43/63/41 24/64/11
f 42/65/46 39/53/37 38/52/36
f 6/31/17 48/66/47 28/32/19
f 21/67/15 44/68/48 41/69/42
f 41/69/42 44/68/48 6/70/43
f 44/71/48 46/72/49 47/73/50
f 46/74/49 30/34/21 47/75/50
f 45/76/51 48/77/47 44/71/48
f 44/78/48 48/66/47 6/31/17
f 45/79/52 49/80/53 48/81/54
f 7/55/40 37/82/55 8/83/56
f 14/44/29 37/82/55 7/55/40
f 39/84/32 16/47/32 19/46/31
f 33/85/57 37/86/58 34/87/59
f 16/88/60 18/89/14 13/90/6 17/91/9
f 12/92/8 5/93/61 2/94/27
f 19/95/31 23/16/10 13/12/6 12/14/8
f 41/96/42 20/25/13 21/24/15
f 12/92/8 2/94/27 22/97/39
f 24/17/11 11/98/7 13/99/6 1/18/12
f 26/100/62 27/35/22 30/34/21 46/74/49
f 22/54/39 2/42/27 14/44/29
f 24/64/11 20/101/13 41/62/42
f 21/28/15 25/30/18 27/102/22
f 21/28/15 27/103/22 26/104/62
f 30/34/21 25/36/23 29/105/23 28/106/23
f 32/107/63 27/108/63 25/39/24 31/41/26
f 31/41/26 29/40/25 28/109/64 49/80/53
f 7/110/40 8/111/65 33/112/57 22/97/39
f 14/113/66 5/48/33 11/50/35
f 35/114/45 33/115/57 34/116/59
f 16/88/60 39/117/67 36/118/44 18/89/14
f 39/119/67 42/120/68 35/121/45 36/122/44
f 40/123/69 22/97/39 33/112/57
f 22/97/39 40/123/69 19/124/31 12/92/8
f 35/121/45 42/120/68 40/125/69 33/126/57
f 35/61/45 34/127/59 43/56/70 6/58/17
f 43/128/71 37/129/55 14/130/29 24/131/71
f 44/132/48 21/133/15 26/134/62 46/135/49
f 30/34/21 28/106/23 48/136/23 45/137/23
f 47/138/50 45/76/51 44/71/48
f 30/34/21 45/137/23 47/75/50
f 50/139/72 49/80/53 45/79/52 47/140/72
f 19/46/31 40/141/69 42/142/73 39/84/32
f 28/109/64 48/81/54 49/80/53
f 33/85/57 8/143/65 37/86/58
